<?xml version="1.0" encoding="us-ascii" standalone="no"?><svg xmlns="http://www.w3.org/2000/svg" xmlns:xlink="http://www.w3.org/1999/xlink" contentStyleType="text/css" height="871.8px" preserveAspectRatio="none" style="width:1263px;height:871px;background:#FFFFFF;" version="1.1" viewBox="0 0 1263 871" width="1263px" zoomAndPan="magnify"><defs/><g><!--cluster system--><g id="cluster_system"><path d="M5.1,3.6082 L35.1,3.6082 A2.25,2.25 0 0 1 36.6,5.1082 L40.8,18.3809 L1257.3,18.3809 A1.5,1.5 0 0 1 1258.8,19.8809 L1258.8,866.4082 A1.5,1.5 0 0 1 1257.3,867.9082 L5.1,867.9082 A1.5,1.5 0 0 1 3.6,866.4082 L3.6,5.1082 A1.5,1.5 0 0 1 5.1,3.6082 " fill="none" style="stroke:#000000;stroke-width:0.8999999999999999;"/><line style="stroke:#000000;stroke-width:0.8999999999999999;" x1="3.6" x2="40.8" y1="18.3809" y2="18.3809"/><text fill="#000000" font-family="sans-serif" font-size="8.4" font-weight="bold" lengthAdjust="spacing" textLength="29.4" x="6" y="13.8727">system</text></g><!--cluster Infrastructure--><g id="cluster_Infrastructure"><path d="M922.5,30.6082 L981.3,30.6082 A2.25,2.25 0 0 1 982.8,32.1082 L987,45.3809 L1204.5,45.3809 A1.5,1.5 0 0 1 1206,46.8809 L1206,131.1082 A1.5,1.5 0 0 1 1204.5,132.6082 L922.5,132.6082 A1.5,1.5 0 0 1 921,131.1082 L921,32.1082 A1.5,1.5 0 0 1 922.5,30.6082 " fill="none" style="stroke:#000000;stroke-width:0.8999999999999999;"/><line style="stroke:#000000;stroke-width:0.8999999999999999;" x1="921" x2="987" y1="45.3809" y2="45.3809"/><text fill="#000000" font-family="sans-serif" font-size="8.4" font-weight="bold" lengthAdjust="spacing" textLength="58.2" x="923.4" y="40.8727">Infrastructure</text></g><!--cluster Routes--><g id="cluster_Routes"><path d="M1100.7,57.6082 L1131.3,57.6082 A2.25,2.25 0 0 1 1132.8,59.1082 L1137,72.3809 L1190.1,72.3809 A1.5,1.5 0 0 1 1191.6,73.8809 L1191.6,116.7082 A1.5,1.5 0 0 1 1190.1,118.2082 L1100.7,118.2082 A1.5,1.5 0 0 1 1099.2,116.7082 L1099.2,59.1082 A1.5,1.5 0 0 1 1100.7,57.6082 " fill="none" style="stroke:#000000;stroke-width:0.8999999999999999;"/><line style="stroke:#000000;stroke-width:0.8999999999999999;" x1="1099.2" x2="1137" y1="72.3809" y2="72.3809"/><text fill="#000000" font-family="sans-serif" font-size="8.4" font-weight="bold" lengthAdjust="spacing" textLength="30" x="1101.6" y="67.8727">Routes</text></g><!--cluster Persistence--><g id="cluster_Persistence"><path d="M936.9,57.6082 L987.9,57.6082 A2.25,2.25 0 0 1 989.4,59.1082 L993.6,72.3809 L1083.3,72.3809 A1.5,1.5 0 0 1 1084.8,73.8809 L1084.8,116.7082 A1.5,1.5 0 0 1 1083.3,118.2082 L936.9,118.2082 A1.5,1.5 0 0 1 935.4,116.7082 L935.4,59.1082 A1.5,1.5 0 0 1 936.9,57.6082 " fill="none" style="stroke:#000000;stroke-width:0.8999999999999999;"/><line style="stroke:#000000;stroke-width:0.8999999999999999;" x1="935.4" x2="993.6" y1="72.3809" y2="72.3809"/><text fill="#000000" font-family="sans-serif" font-size="8.4" font-weight="bold" lengthAdjust="spacing" textLength="50.4" x="937.8" y="67.8727">Persistence</text></g><!--cluster Interface Adapters--><g id="cluster_Interface Adapters"><path d="M803.1,191.4082 L881.7,191.4082 A2.25,2.25 0 0 1 883.2,192.9082 L887.4,206.1809 L1242.9,206.1809 A1.5,1.5 0 0 1 1244.4,207.6809 L1244.4,462.3082 A1.5,1.5 0 0 1 1242.9,463.8082 L803.1,463.8082 A1.5,1.5 0 0 1 801.6,462.3082 L801.6,192.9082 A1.5,1.5 0 0 1 803.1,191.4082 " fill="none" style="stroke:#000000;stroke-width:0.8999999999999999;"/><line style="stroke:#000000;stroke-width:0.8999999999999999;" x1="801.6" x2="887.4" y1="206.1809" y2="206.1809"/><text fill="#000000" font-family="sans-serif" font-size="8.4" font-weight="bold" lengthAdjust="spacing" textLength="78" x="804" y="201.6727">Interface Adapters</text></g><!--cluster Controllers--><g id="cluster_Controllers"><path d="M1093.5,218.4082 L1141.5,218.4082 A2.25,2.25 0 0 1 1143,219.9082 L1147.2,233.1809 L1228.5,233.1809 A1.5,1.5 0 0 1 1230,234.6809 L1230,447.9082 A1.5,1.5 0 0 1 1228.5,449.4082 L1093.5,449.4082 A1.5,1.5 0 0 1 1092,447.9082 L1092,219.9082 A1.5,1.5 0 0 1 1093.5,218.4082 " fill="none" style="stroke:#000000;stroke-width:0.8999999999999999;"/><line style="stroke:#000000;stroke-width:0.8999999999999999;" x1="1092" x2="1147.2" y1="233.1809" y2="233.1809"/><text fill="#000000" font-family="sans-serif" font-size="8.4" font-weight="bold" lengthAdjust="spacing" textLength="47.4" x="1094.4" y="228.6727">Controllers</text></g><!--cluster IControllers--><g id="cluster_IControllers"><path d="M1107.9,245.4082 L1158.3,245.4082 A2.25,2.25 0 0 1 1159.8,246.9082 L1164,260.1809 L1214.1,260.1809 A1.5,1.5 0 0 1 1215.6,261.6809 L1215.6,304.5082 A1.5,1.5 0 0 1 1214.1,306.0082 L1107.9,306.0082 A1.5,1.5 0 0 1 1106.4,304.5082 L1106.4,246.9082 A1.5,1.5 0 0 1 1107.9,245.4082 " fill="none" style="stroke:#000000;stroke-width:0.8999999999999999;"/><line style="stroke:#000000;stroke-width:0.8999999999999999;" x1="1106.4" x2="1164" y1="260.1809" y2="260.1809"/><text fill="#000000" font-family="sans-serif" font-size="8.4" font-weight="bold" lengthAdjust="spacing" textLength="49.8" x="1108.8" y="255.6727">IControllers</text></g><!--cluster ImplControllers--><g id="cluster_ImplControllers"><path d="M1108.5,374.4082 L1173.9,374.4082 A2.25,2.25 0 0 1 1175.4,375.9082 L1179.6,389.1809 L1212.3,389.1809 A1.5,1.5 0 0 1 1213.8,390.6809 L1213.8,433.5082 A1.5,1.5 0 0 1 1212.3,435.0082 L1108.5,435.0082 A1.5,1.5 0 0 1 1107,433.5082 L1107,375.9082 A1.5,1.5 0 0 1 1108.5,374.4082 " fill="none" style="stroke:#000000;stroke-width:0.8999999999999999;"/><line style="stroke:#000000;stroke-width:0.8999999999999999;" x1="1107" x2="1179.6" y1="389.1809" y2="389.1809"/><text fill="#000000" font-family="sans-serif" font-size="8.4" font-weight="bold" lengthAdjust="spacing" textLength="64.8" x="1109.4" y="384.6727">ImplControllers</text></g><!--cluster Repositories--><g id="cluster_Repositories"><path d="M817.5,245.4082 L872.1,245.4082 A2.25,2.25 0 0 1 873.6,246.9082 L877.8,260.1809 L1076.1,260.1809 A1.5,1.5 0 0 1 1077.6,261.6809 L1077.6,304.5082 A1.5,1.5 0 0 1 1076.1,306.0082 L817.5,306.0082 A1.5,1.5 0 0 1 816,304.5082 L816,246.9082 A1.5,1.5 0 0 1 817.5,245.4082 " fill="none" style="stroke:#000000;stroke-width:0.8999999999999999;"/><line style="stroke:#000000;stroke-width:0.8999999999999999;" x1="816" x2="877.8" y1="260.1809" y2="260.1809"/><text fill="#000000" font-family="sans-serif" font-size="8.4" font-weight="bold" lengthAdjust="spacing" textLength="54" x="818.4" y="255.6727">Repositories</text></g><!--cluster Application Services--><g id="cluster_Application Services"><path d="M462.9,320.4082 L549.9,320.4082 A2.25,2.25 0 0 1 551.4,321.9082 L555.6,335.1809 L785.7,335.1809 A1.5,1.5 0 0 1 787.2,336.6809 L787.2,721.2082 A1.5,1.5 0 0 1 785.7,722.7082 L462.9,722.7082 A1.5,1.5 0 0 1 461.4,721.2082 L461.4,321.9082 A1.5,1.5 0 0 1 462.9,320.4082 " fill="none" style="stroke:#000000;stroke-width:0.8999999999999999;"/><line style="stroke:#000000;stroke-width:0.8999999999999999;" x1="461.4" x2="555.6" y1="335.1809" y2="335.1809"/><text fill="#000000" font-family="sans-serif" font-size="8.4" font-weight="bold" lengthAdjust="spacing" textLength="86.4" x="463.8" y="330.6727">Application Services</text></g><!--cluster App Services--><g id="cluster_App Services"><path d="M477.3,347.4082 L533.7,347.4082 A2.25,2.25 0 0 1 535.2,348.9082 L539.4,362.1809 L771.3,362.1809 A1.5,1.5 0 0 1 772.8,363.6809 L772.8,706.8082 A1.5,1.5 0 0 1 771.3,708.3082 L477.3,708.3082 A1.5,1.5 0 0 1 475.8,706.8082 L475.8,348.9082 A1.5,1.5 0 0 1 477.3,347.4082 " fill="none" style="stroke:#000000;stroke-width:0.8999999999999999;"/><line style="stroke:#000000;stroke-width:0.8999999999999999;" x1="475.8" x2="539.4" y1="362.1809" y2="362.1809"/><text fill="#000000" font-family="sans-serif" font-size="8.4" font-weight="bold" lengthAdjust="spacing" textLength="55.8" x="478.2" y="357.6727">App Services</text></g><!--cluster IAppServices--><g id="cluster_IAppServices"><path d="M602.7,633.3082 L659.1,633.3082 A2.25,2.25 0 0 1 660.6,634.8082 L664.8,648.0809 L713.7,648.0809 A1.5,1.5 0 0 1 715.2,649.5809 L715.2,692.4082 A1.5,1.5 0 0 1 713.7,693.9082 L602.7,693.9082 A1.5,1.5 0 0 1 601.2,692.4082 L601.2,634.8082 A1.5,1.5 0 0 1 602.7,633.3082 " fill="none" style="stroke:#000000;stroke-width:0.8999999999999999;"/><line style="stroke:#000000;stroke-width:0.8999999999999999;" x1="601.2" x2="664.8" y1="648.0809" y2="648.0809"/><text fill="#000000" font-family="sans-serif" font-size="8.4" font-weight="bold" lengthAdjust="spacing" textLength="55.8" x="603.6" y="643.5727">IAppServices</text></g><!--cluster ImplAppServices--><g id="cluster_ImplAppServices"><path d="M569.1,540.9082 L640.5,540.9082 A2.25,2.25 0 0 1 642,542.4082 L646.2,555.6809 L678.9,555.6809 A1.5,1.5 0 0 1 680.4,557.1809 L680.4,600.0082 A1.5,1.5 0 0 1 678.9,601.5082 L569.1,601.5082 A1.5,1.5 0 0 1 567.6,600.0082 L567.6,542.4082 A1.5,1.5 0 0 1 569.1,540.9082 " fill="none" style="stroke:#000000;stroke-width:0.8999999999999999;"/><line style="stroke:#000000;stroke-width:0.8999999999999999;" x1="567.6" x2="646.2" y1="555.6809" y2="555.6809"/><text fill="#000000" font-family="sans-serif" font-size="8.4" font-weight="bold" lengthAdjust="spacing" textLength="70.8" x="570" y="551.1727">ImplAppServices</text></g><!--cluster IRepositories--><g id="cluster_IRepositories"><path d="M491.7,374.4082 L548.7,374.4082 A2.25,2.25 0 0 1 550.2,375.9082 L554.4,389.1809 L756.9,389.1809 A1.5,1.5 0 0 1 758.4,390.6809 L758.4,433.5082 A1.5,1.5 0 0 1 756.9,435.0082 L491.7,435.0082 A1.5,1.5 0 0 1 490.2,433.5082 L490.2,375.9082 A1.5,1.5 0 0 1 491.7,374.4082 " fill="none" style="stroke:#000000;stroke-width:0.8999999999999999;"/><line style="stroke:#000000;stroke-width:0.8999999999999999;" x1="490.2" x2="554.4" y1="389.1809" y2="389.1809"/><text fill="#000000" font-family="sans-serif" font-size="8.4" font-weight="bold" lengthAdjust="spacing" textLength="56.4" x="492.6" y="384.6727">IRepositories</text></g><!--cluster Entities/Core/Domain--><g id="cluster_Entities/Core/Domain"><path d="M19.5,478.2082 L108.3,478.2082 A2.25,2.25 0 0 1 109.8,479.7082 L114,492.9809 L445.5,492.9809 A1.5,1.5 0 0 1 447,494.4809 L447,852.0082 A1.5,1.5 0 0 1 445.5,853.5082 L19.5,853.5082 A1.5,1.5 0 0 1 18,852.0082 L18,479.7082 A1.5,1.5 0 0 1 19.5,478.2082 " fill="none" style="stroke:#000000;stroke-width:0.8999999999999999;"/><line style="stroke:#000000;stroke-width:0.8999999999999999;" x1="18" x2="114" y1="492.9809" y2="492.9809"/><text fill="#000000" font-family="sans-serif" font-size="8.4" font-weight="bold" lengthAdjust="spacing" textLength="88.2" x="20.4" y="488.4727">Entities/Core/Domain</text></g><!--cluster Aggregates--><g id="cluster_Aggregates"><path d="M228.3,505.2082 L277.5,505.2082 A2.25,2.25 0 0 1 279,506.7082 L283.2,519.9809 L406.5,519.9809 A1.5,1.5 0 0 1 408,521.4809 L408,715.5082 A1.5,1.5 0 0 1 406.5,717.0082 L228.3,717.0082 A1.5,1.5 0 0 1 226.8,715.5082 L226.8,506.7082 A1.5,1.5 0 0 1 228.3,505.2082 " fill="none" style="stroke:#000000;stroke-width:0.8999999999999999;"/><line style="stroke:#000000;stroke-width:0.8999999999999999;" x1="226.8" x2="283.2" y1="519.9809" y2="519.9809"/><text fill="#000000" font-family="sans-serif" font-size="8.4" font-weight="bold" lengthAdjust="spacing" textLength="48.6" x="229.2" y="515.4727">Aggregates</text></g><!--cluster a_elevator--><g id="cluster_a_elevator"><path d="M242.7,624.6082 L278.7,624.6082 A2.25,2.25 0 0 1 280.2,626.1082 L284.4,639.3809 L309.3,639.3809 A1.5,1.5 0 0 1 310.8,640.8809 L310.8,701.1082 A1.5,1.5 0 0 1 309.3,702.6082 L242.7,702.6082 A1.5,1.5 0 0 1 241.2,701.1082 L241.2,626.1082 A1.5,1.5 0 0 1 242.7,624.6082 " fill="none" style="stroke:#000000;stroke-width:0.8999999999999999;"/><line style="stroke:#000000;stroke-width:0.8999999999999999;" x1="241.2" x2="284.4" y1="639.3809" y2="639.3809"/><text fill="#000000" font-family="sans-serif" font-size="8.4" font-weight="bold" lengthAdjust="spacing" textLength="35.4" x="243.6" y="634.8727">Elevator</text></g><!--cluster a_building--><g id="cluster_a_building"><path d="M326.7,624.6082 L362.1,624.6082 A2.25,2.25 0 0 1 363.6,626.1082 L367.8,639.3809 L392.1,639.3809 A1.5,1.5 0 0 1 393.6,640.8809 L393.6,701.1082 A1.5,1.5 0 0 1 392.1,702.6082 L326.7,702.6082 A1.5,1.5 0 0 1 325.2,701.1082 L325.2,626.1082 A1.5,1.5 0 0 1 326.7,624.6082 " fill="none" style="stroke:#000000;stroke-width:0.8999999999999999;"/><line style="stroke:#000000;stroke-width:0.8999999999999999;" x1="325.2" x2="367.8" y1="639.3809" y2="639.3809"/><text fill="#000000" font-family="sans-serif" font-size="8.4" font-weight="bold" lengthAdjust="spacing" textLength="34.8" x="327.6" y="634.8727">Building</text></g><!--cluster a_floor--><g id="cluster_a_floor"><path d="M246.3,532.2082 L269.1,532.2082 A2.25,2.25 0 0 1 270.6,533.7082 L274.8,546.9809 L305.7,546.9809 A1.5,1.5 0 0 1 307.2,548.4809 L307.2,608.7082 A1.5,1.5 0 0 1 305.7,610.2082 L246.3,610.2082 A1.5,1.5 0 0 1 244.8,608.7082 L244.8,533.7082 A1.5,1.5 0 0 1 246.3,532.2082 " fill="none" style="stroke:#000000;stroke-width:0.8999999999999999;"/><line style="stroke:#000000;stroke-width:0.8999999999999999;" x1="244.8" x2="274.8" y1="546.9809" y2="546.9809"/><text fill="#000000" font-family="sans-serif" font-size="8.4" font-weight="bold" lengthAdjust="spacing" textLength="22.2" x="247.2" y="542.4727">Floor</text></g><!--cluster Value Objects--><g id="cluster_Value Objects"><path d="M33.9,737.1082 L92.7,737.1082 A2.25,2.25 0 0 1 94.2,738.6082 L98.4,751.8809 L431.1,751.8809 A1.5,1.5 0 0 1 432.6,753.3809 L432.6,837.6082 A1.5,1.5 0 0 1 431.1,839.1082 L33.9,839.1082 A1.5,1.5 0 0 1 32.4,837.6082 L32.4,738.6082 A1.5,1.5 0 0 1 33.9,737.1082 " fill="none" style="stroke:#000000;stroke-width:0.8999999999999999;"/><line style="stroke:#000000;stroke-width:0.8999999999999999;" x1="32.4" x2="98.4" y1="751.8809" y2="751.8809"/><text fill="#000000" font-family="sans-serif" font-size="8.4" font-weight="bold" lengthAdjust="spacing" textLength="58.2" x="34.8" y="747.3727">Value Objects</text></g><!--cluster vo_elevator--><g id="cluster_vo_elevator"><path d="M48.3,764.1082 L84.3,764.1082 A2.25,2.25 0 0 1 85.8,765.6082 L90,778.8809 L416.7,778.8809 A1.5,1.5 0 0 1 418.2,780.3809 L418.2,823.2082 A1.5,1.5 0 0 1 416.7,824.7082 L48.3,824.7082 A1.5,1.5 0 0 1 46.8,823.2082 L46.8,765.6082 A1.5,1.5 0 0 1 48.3,764.1082 " fill="none" style="stroke:#000000;stroke-width:0.8999999999999999;"/><line style="stroke:#000000;stroke-width:0.8999999999999999;" x1="46.8" x2="90" y1="778.8809" y2="778.8809"/><text fill="#000000" font-family="sans-serif" font-size="8.4" font-weight="bold" lengthAdjust="spacing" textLength="35.4" x="49.2" y="774.3727">Elevator</text></g><!--class RouteElevator--><g id="elem_RouteElevator"><rect codeLine="16" fill="#F1F1F1" height="28.8" id="RouteElevator" rx="1.5" ry="1.5" style="stroke:#181818;stroke-width:0.3;" width="73.2" x="1108.8" y="79.8082"/><ellipse cx="1117.8" cy="89.4082" fill="#ADD1B2" rx="6.6" ry="6.6" style="stroke:#181818;stroke-width:0.6;"/><path d="M1119.4594,86.9332 Q1119.5531,86.802 1119.6656,86.7363 Q1119.7781,86.6707 1119.9094,86.6707 Q1120.1344,86.6707 1120.275,86.8301 Q1120.4156,86.9801 1120.4156,87.3457 L1120.4156,88.2176 Q1120.4156,88.5832 1120.275,88.7426 Q1120.1344,88.902 1119.9094,88.902 Q1119.7031,88.902 1119.5813,88.7801 Q1119.4594,88.6676 1119.3938,88.3582 Q1119.3656,88.1426 1119.2531,88.0301 Q1119.0562,87.8051 1118.6906,87.6738 Q1118.325,87.5426 1117.95,87.5426 Q1117.4906,87.5426 1117.1063,87.7395 Q1116.7313,87.9363 1116.4312,88.3863 Q1116.1406,88.8363 1116.1406,89.4551 L1116.1406,90.1113 Q1116.1406,90.852 1116.675,91.3488 Q1117.2094,91.8363 1118.1656,91.8363 Q1118.7281,91.8363 1119.1219,91.6863 Q1119.3563,91.5926 1119.6094,91.3301 Q1119.7688,91.1707 1119.8531,91.1238 Q1119.9469,91.077 1120.0688,91.077 Q1120.2656,91.077 1120.4156,91.2363 Q1120.575,91.3863 1120.575,91.5926 Q1120.575,91.7988 1120.3687,92.0426 Q1120.0688,92.3895 1119.5906,92.5863 Q1118.9438,92.8582 1118.1656,92.8582 Q1117.2563,92.8582 1116.5344,92.4832 Q1115.9438,92.1832 1115.5313,91.5457 Q1115.1187,90.8988 1115.1187,90.1301 L1115.1187,89.4363 Q1115.1187,88.6395 1115.4844,87.9551 Q1115.8594,87.2613 1116.5156,86.8957 Q1117.1719,86.5207 1117.9125,86.5207 Q1118.3531,86.5207 1118.7375,86.6238 Q1119.1313,86.7176 1119.4594,86.9332 Z " fill="#000000"/><text fill="#000000" font-family="sans-serif" font-size="8.4" lengthAdjust="spacing" textLength="54" x="1126.2" y="92.8863">RouteElevator</text><line style="stroke:#181818;stroke-width:0.3;" x1="1109.4" x2="1181.4" y1="99.0082" y2="99.0082"/><line style="stroke:#181818;stroke-width:0.3;" x1="1109.4" x2="1181.4" y1="103.8082" y2="103.8082"/></g><!--class IDBDriver--><g id="elem_IDBDriver"><rect codeLine="20" fill="#F1F1F1" height="28.8" id="IDBDriver" rx="1.5" ry="1.5" style="stroke:#181818;stroke-width:0.3;" width="55.2" x="1020" y="79.8082"/><ellipse cx="1029" cy="89.4082" fill="#B4A7E5" rx="6.6" ry="6.6" style="stroke:#181818;stroke-width:0.6;"/><path d="M1029.5719,87.3926 L1029.5719,91.3863 L1030.6031,91.3863 Q1030.9688,91.3863 1031.1281,91.527 Q1031.2875,91.6676 1031.2875,91.902 Q1031.2875,92.127 1031.1281,92.2676 Q1030.9688,92.4082 1030.6031,92.4082 L1027.5188,92.4082 Q1027.1531,92.4082 1026.9937,92.2676 Q1026.8344,92.127 1026.8344,91.8926 Q1026.8344,91.6676 1026.9937,91.527 Q1027.1531,91.3863 1027.5188,91.3863 L1028.55,91.3863 L1028.55,87.3926 L1027.5188,87.3926 Q1027.1531,87.3926 1026.9937,87.252 Q1026.8344,87.1113 1026.8344,86.877 Q1026.8344,86.652 1026.9937,86.5113 Q1027.1531,86.3707 1027.5188,86.3707 L1030.6031,86.3707 Q1030.9688,86.3707 1031.1281,86.5113 Q1031.2875,86.652 1031.2875,86.877 Q1031.2875,87.1113 1031.1281,87.252 Q1030.9688,87.3926 1030.6031,87.3926 L1029.5719,87.3926 Z " fill="#000000"/><text fill="#000000" font-family="sans-serif" font-size="8.4" font-style="italic" lengthAdjust="spacing" textLength="36" x="1037.4" y="92.8863">IDBDriver</text><line style="stroke:#181818;stroke-width:0.3;" x1="1020.6" x2="1074.6" y1="99.0082" y2="99.0082"/><line style="stroke:#181818;stroke-width:0.3;" x1="1020.6" x2="1074.6" y1="103.8082" y2="103.8082"/></g><!--class DBDriver--><g id="elem_DBDriver"><rect codeLine="21" fill="#F1F1F1" height="28.8" id="DBDriver" rx="1.5" ry="1.5" style="stroke:#181818;stroke-width:0.3;" width="53.4" x="945.3" y="79.8082"/><ellipse cx="954.3" cy="89.4082" fill="#ADD1B2" rx="6.6" ry="6.6" style="stroke:#181818;stroke-width:0.6;"/><path d="M955.9594,86.9332 Q956.0531,86.802 956.1656,86.7363 Q956.2781,86.6707 956.4094,86.6707 Q956.6344,86.6707 956.775,86.8301 Q956.9156,86.9801 956.9156,87.3457 L956.9156,88.2176 Q956.9156,88.5832 956.775,88.7426 Q956.6344,88.902 956.4094,88.902 Q956.2031,88.902 956.0813,88.7801 Q955.9594,88.6676 955.8938,88.3582 Q955.8656,88.1426 955.7531,88.0301 Q955.5563,87.8051 955.1906,87.6738 Q954.825,87.5426 954.45,87.5426 Q953.9906,87.5426 953.6062,87.7395 Q953.2312,87.9363 952.9313,88.3863 Q952.6406,88.8363 952.6406,89.4551 L952.6406,90.1113 Q952.6406,90.852 953.175,91.3488 Q953.7094,91.8363 954.6656,91.8363 Q955.2281,91.8363 955.6219,91.6863 Q955.8562,91.5926 956.1094,91.3301 Q956.2688,91.1707 956.3531,91.1238 Q956.4469,91.077 956.5687,91.077 Q956.7656,91.077 956.9156,91.2363 Q957.075,91.3863 957.075,91.5926 Q957.075,91.7988 956.8688,92.0426 Q956.5687,92.3895 956.0906,92.5863 Q955.4437,92.8582 954.6656,92.8582 Q953.7562,92.8582 953.0344,92.4832 Q952.4437,92.1832 952.0313,91.5457 Q951.6188,90.8988 951.6188,90.1301 L951.6188,89.4363 Q951.6188,88.6395 951.9844,87.9551 Q952.3594,87.2613 953.0156,86.8957 Q953.6719,86.5207 954.4125,86.5207 Q954.8531,86.5207 955.2375,86.6238 Q955.6312,86.7176 955.9594,86.9332 Z " fill="#000000"/><text fill="#000000" font-family="sans-serif" font-size="8.4" lengthAdjust="spacing" textLength="34.2" x="962.7" y="92.8863">DBDriver</text><line style="stroke:#181818;stroke-width:0.3;" x1="945.9" x2="998.1" y1="99.0082" y2="99.0082"/><line style="stroke:#181818;stroke-width:0.3;" x1="945.9" x2="998.1" y1="103.8082" y2="103.8082"/></g><!--class IControllerElevator--><g id="elem_IControllerElevator"><rect codeLine="30" fill="#F1F1F1" height="28.8" id="IControllerElevator" rx="1.5" ry="1.5" style="stroke:#181818;stroke-width:0.3;" width="89.4" x="1116.3" y="267.6082"/><ellipse cx="1125.3" cy="277.2082" fill="#B4A7E5" rx="6.6" ry="6.6" style="stroke:#181818;stroke-width:0.6;"/><path d="M1125.8719,275.1926 L1125.8719,279.1863 L1126.9031,279.1863 Q1127.2688,279.1863 1127.4281,279.327 Q1127.5875,279.4676 1127.5875,279.702 Q1127.5875,279.927 1127.4281,280.0676 Q1127.2688,280.2082 1126.9031,280.2082 L1123.8188,280.2082 Q1123.4531,280.2082 1123.2938,280.0676 Q1123.1344,279.927 1123.1344,279.6926 Q1123.1344,279.4676 1123.2938,279.327 Q1123.4531,279.1863 1123.8188,279.1863 L1124.85,279.1863 L1124.85,275.1926 L1123.8188,275.1926 Q1123.4531,275.1926 1123.2938,275.052 Q1123.1344,274.9113 1123.1344,274.677 Q1123.1344,274.452 1123.2938,274.3113 Q1123.4531,274.1707 1123.8188,274.1707 L1126.9031,274.1707 Q1127.2688,274.1707 1127.4281,274.3113 Q1127.5875,274.452 1127.5875,274.677 Q1127.5875,274.9113 1127.4281,275.052 Q1127.2688,275.1926 1126.9031,275.1926 L1125.8719,275.1926 Z " fill="#000000"/><text fill="#000000" font-family="sans-serif" font-size="8.4" font-style="italic" lengthAdjust="spacing" textLength="70.2" x="1133.7" y="280.6863">IControllerElevator</text><line style="stroke:#181818;stroke-width:0.3;" x1="1116.9" x2="1205.1" y1="286.8082" y2="286.8082"/><line style="stroke:#181818;stroke-width:0.3;" x1="1116.9" x2="1205.1" y1="291.6082" y2="291.6082"/></g><!--class ControllerElevator--><g id="elem_ControllerElevator"><rect codeLine="34" fill="#F1F1F1" height="28.8" id="ControllerElevator" rx="1.5" ry="1.5" style="stroke:#181818;stroke-width:0.3;" width="87.6" x="1116.6" y="396.6082"/><ellipse cx="1125.6" cy="406.2082" fill="#ADD1B2" rx="6.6" ry="6.6" style="stroke:#181818;stroke-width:0.6;"/><path d="M1127.2594,403.7332 Q1127.3531,403.602 1127.4656,403.5363 Q1127.5781,403.4707 1127.7094,403.4707 Q1127.9344,403.4707 1128.075,403.6301 Q1128.2156,403.7801 1128.2156,404.1457 L1128.2156,405.0176 Q1128.2156,405.3832 1128.075,405.5426 Q1127.9344,405.702 1127.7094,405.702 Q1127.5031,405.702 1127.3813,405.5801 Q1127.2594,405.4676 1127.1938,405.1582 Q1127.1656,404.9426 1127.0531,404.8301 Q1126.8563,404.6051 1126.4906,404.4738 Q1126.125,404.3426 1125.75,404.3426 Q1125.2906,404.3426 1124.9063,404.5395 Q1124.5313,404.7363 1124.2313,405.1863 Q1123.9406,405.6363 1123.9406,406.2551 L1123.9406,406.9113 Q1123.9406,407.652 1124.475,408.1488 Q1125.0094,408.6363 1125.9656,408.6363 Q1126.5281,408.6363 1126.9219,408.4863 Q1127.1563,408.3926 1127.4094,408.1301 Q1127.5688,407.9707 1127.6531,407.9238 Q1127.7469,407.877 1127.8687,407.877 Q1128.0656,407.877 1128.2156,408.0363 Q1128.375,408.1863 1128.375,408.3926 Q1128.375,408.5988 1128.1688,408.8426 Q1127.8687,409.1895 1127.3906,409.3863 Q1126.7437,409.6582 1125.9656,409.6582 Q1125.0562,409.6582 1124.3344,409.2832 Q1123.7437,408.9832 1123.3313,408.3457 Q1122.9188,407.6988 1122.9188,406.9301 L1122.9188,406.2363 Q1122.9188,405.4395 1123.2844,404.7551 Q1123.6594,404.0613 1124.3156,403.6957 Q1124.9719,403.3207 1125.7125,403.3207 Q1126.1531,403.3207 1126.5375,403.4238 Q1126.9312,403.5176 1127.2594,403.7332 Z " fill="#000000"/><text fill="#000000" font-family="sans-serif" font-size="8.4" lengthAdjust="spacing" textLength="68.4" x="1134" y="409.6863">ControllerElevator</text><line style="stroke:#181818;stroke-width:0.3;" x1="1117.2" x2="1203.6" y1="415.8082" y2="415.8082"/><line style="stroke:#181818;stroke-width:0.3;" x1="1117.2" x2="1203.6" y1="420.6082" y2="420.6082"/></g><!--class RepoBuilding--><g id="elem_RepoBuilding"><rect codeLine="40" fill="#F1F1F1" height="28.8" id="RepoBuilding" rx="1.5" ry="1.5" style="stroke:#181818;stroke-width:0.3;" width="69.6" x="825.6" y="267.6082"/><ellipse cx="834.6" cy="277.2082" fill="#ADD1B2" rx="6.6" ry="6.6" style="stroke:#181818;stroke-width:0.6;"/><path d="M836.2594,274.7332 Q836.3531,274.602 836.4656,274.5363 Q836.5781,274.4707 836.7094,274.4707 Q836.9344,274.4707 837.075,274.6301 Q837.2156,274.7801 837.2156,275.1457 L837.2156,276.0176 Q837.2156,276.3832 837.075,276.5426 Q836.9344,276.702 836.7094,276.702 Q836.5031,276.702 836.3813,276.5801 Q836.2594,276.4676 836.1938,276.1582 Q836.1656,275.9426 836.0531,275.8301 Q835.8562,275.6051 835.4906,275.4738 Q835.125,275.3426 834.75,275.3426 Q834.2906,275.3426 833.9063,275.5395 Q833.5313,275.7363 833.2312,276.1863 Q832.9406,276.6363 832.9406,277.2551 L832.9406,277.9113 Q832.9406,278.652 833.475,279.1488 Q834.0094,279.6363 834.9656,279.6363 Q835.5281,279.6363 835.9219,279.4863 Q836.1563,279.3926 836.4094,279.1301 Q836.5688,278.9707 836.6531,278.9238 Q836.7469,278.877 836.8688,278.877 Q837.0656,278.877 837.2156,279.0363 Q837.375,279.1863 837.375,279.3926 Q837.375,279.5988 837.1687,279.8426 Q836.8688,280.1895 836.3906,280.3863 Q835.7438,280.6582 834.9656,280.6582 Q834.0563,280.6582 833.3344,280.2832 Q832.7438,279.9832 832.3313,279.3457 Q831.9187,278.6988 831.9187,277.9301 L831.9187,277.2363 Q831.9187,276.4395 832.2844,275.7551 Q832.6594,275.0613 833.3156,274.6957 Q833.9719,274.3207 834.7125,274.3207 Q835.1531,274.3207 835.5375,274.4238 Q835.9313,274.5176 836.2594,274.7332 Z " fill="#000000"/><text fill="#000000" font-family="sans-serif" font-size="8.4" lengthAdjust="spacing" textLength="50.4" x="843" y="280.6863">RepoBuilding</text><line style="stroke:#181818;stroke-width:0.3;" x1="826.2" x2="894.6" y1="286.8082" y2="286.8082"/><line style="stroke:#181818;stroke-width:0.3;" x1="826.2" x2="894.6" y1="291.6082" y2="291.6082"/></g><!--class RepoFloor--><g id="elem_RepoFloor"><rect codeLine="41" fill="#F1F1F1" height="28.8" id="RepoFloor" rx="1.5" ry="1.5" style="stroke:#181818;stroke-width:0.3;" width="59.4" x="916.5" y="267.6082"/><ellipse cx="925.5" cy="277.2082" fill="#ADD1B2" rx="6.6" ry="6.6" style="stroke:#181818;stroke-width:0.6;"/><path d="M927.1594,274.7332 Q927.2531,274.602 927.3656,274.5363 Q927.4781,274.4707 927.6094,274.4707 Q927.8344,274.4707 927.975,274.6301 Q928.1156,274.7801 928.1156,275.1457 L928.1156,276.0176 Q928.1156,276.3832 927.975,276.5426 Q927.8344,276.702 927.6094,276.702 Q927.4031,276.702 927.2813,276.5801 Q927.1594,276.4676 927.0938,276.1582 Q927.0656,275.9426 926.9531,275.8301 Q926.7562,275.6051 926.3906,275.4738 Q926.025,275.3426 925.65,275.3426 Q925.1906,275.3426 924.8063,275.5395 Q924.4313,275.7363 924.1312,276.1863 Q923.8406,276.6363 923.8406,277.2551 L923.8406,277.9113 Q923.8406,278.652 924.375,279.1488 Q924.9094,279.6363 925.8656,279.6363 Q926.4281,279.6363 926.8219,279.4863 Q927.0563,279.3926 927.3094,279.1301 Q927.4688,278.9707 927.5531,278.9238 Q927.6469,278.877 927.7688,278.877 Q927.9656,278.877 928.1156,279.0363 Q928.275,279.1863 928.275,279.3926 Q928.275,279.5988 928.0687,279.8426 Q927.7688,280.1895 927.2906,280.3863 Q926.6438,280.6582 925.8656,280.6582 Q924.9563,280.6582 924.2344,280.2832 Q923.6438,279.9832 923.2312,279.3457 Q922.8187,278.6988 922.8187,277.9301 L922.8187,277.2363 Q922.8187,276.4395 923.1844,275.7551 Q923.5594,275.0613 924.2156,274.6957 Q924.8719,274.3207 925.6125,274.3207 Q926.0531,274.3207 926.4375,274.4238 Q926.8313,274.5176 927.1594,274.7332 Z " fill="#000000"/><text fill="#000000" font-family="sans-serif" font-size="8.4" lengthAdjust="spacing" textLength="40.2" x="933.9" y="280.6863">RepoFloor</text><line style="stroke:#181818;stroke-width:0.3;" x1="917.1" x2="975.3" y1="286.8082" y2="286.8082"/><line style="stroke:#181818;stroke-width:0.3;" x1="917.1" x2="975.3" y1="291.6082" y2="291.6082"/></g><!--class RepoElevator--><g id="elem_RepoElevator"><rect codeLine="42" fill="#F1F1F1" height="28.8" id="RepoElevator" rx="1.5" ry="1.5" style="stroke:#181818;stroke-width:0.3;" width="70.8" x="997.2" y="267.6082"/><ellipse cx="1006.2" cy="277.2082" fill="#ADD1B2" rx="6.6" ry="6.6" style="stroke:#181818;stroke-width:0.6;"/><path d="M1007.8594,274.7332 Q1007.9531,274.602 1008.0656,274.5363 Q1008.1781,274.4707 1008.3094,274.4707 Q1008.5344,274.4707 1008.675,274.6301 Q1008.8156,274.7801 1008.8156,275.1457 L1008.8156,276.0176 Q1008.8156,276.3832 1008.675,276.5426 Q1008.5344,276.702 1008.3094,276.702 Q1008.1031,276.702 1007.9812,276.5801 Q1007.8594,276.4676 1007.7937,276.1582 Q1007.7656,275.9426 1007.6531,275.8301 Q1007.4563,275.6051 1007.0906,275.4738 Q1006.725,275.3426 1006.35,275.3426 Q1005.8906,275.3426 1005.5062,275.5395 Q1005.1312,275.7363 1004.8313,276.1863 Q1004.5406,276.6363 1004.5406,277.2551 L1004.5406,277.9113 Q1004.5406,278.652 1005.075,279.1488 Q1005.6094,279.6363 1006.5656,279.6363 Q1007.1281,279.6363 1007.5219,279.4863 Q1007.7562,279.3926 1008.0094,279.1301 Q1008.1687,278.9707 1008.2531,278.9238 Q1008.3469,278.877 1008.4688,278.877 Q1008.6656,278.877 1008.8156,279.0363 Q1008.975,279.1863 1008.975,279.3926 Q1008.975,279.5988 1008.7688,279.8426 Q1008.4688,280.1895 1007.9906,280.3863 Q1007.3438,280.6582 1006.5656,280.6582 Q1005.6563,280.6582 1004.9344,280.2832 Q1004.3438,279.9832 1003.9313,279.3457 Q1003.5188,278.6988 1003.5188,277.9301 L1003.5188,277.2363 Q1003.5188,276.4395 1003.8844,275.7551 Q1004.2594,275.0613 1004.9156,274.6957 Q1005.5719,274.3207 1006.3125,274.3207 Q1006.7531,274.3207 1007.1375,274.4238 Q1007.5313,274.5176 1007.8594,274.7332 Z " fill="#000000"/><text fill="#000000" font-family="sans-serif" font-size="8.4" lengthAdjust="spacing" textLength="51.6" x="1014.6" y="280.6863">RepoElevator</text><line style="stroke:#181818;stroke-width:0.3;" x1="997.8" x2="1067.4" y1="286.8082" y2="286.8082"/><line style="stroke:#181818;stroke-width:0.3;" x1="997.8" x2="1067.4" y1="291.6082" y2="291.6082"/></g><!--class IAppServiceElevator--><g id="elem_IAppServiceElevator"><rect codeLine="55" fill="#F1F1F1" height="28.8" id="IAppServiceElevator" rx="1.5" ry="1.5" style="stroke:#181818;stroke-width:0.3;" width="94.8" x="610.8" y="655.5082"/><ellipse cx="619.8" cy="665.1082" fill="#B4A7E5" rx="6.6" ry="6.6" style="stroke:#181818;stroke-width:0.6;"/><path d="M620.3719,663.0926 L620.3719,667.0863 L621.4031,667.0863 Q621.7688,667.0863 621.9281,667.227 Q622.0875,667.3676 622.0875,667.602 Q622.0875,667.827 621.9281,667.9676 Q621.7688,668.1082 621.4031,668.1082 L618.3188,668.1082 Q617.9531,668.1082 617.7937,667.9676 Q617.6344,667.827 617.6344,667.5926 Q617.6344,667.3676 617.7937,667.227 Q617.9531,667.0863 618.3188,667.0863 L619.35,667.0863 L619.35,663.0926 L618.3188,663.0926 Q617.9531,663.0926 617.7937,662.952 Q617.6344,662.8113 617.6344,662.577 Q617.6344,662.352 617.7937,662.2113 Q617.9531,662.0707 618.3188,662.0707 L621.4031,662.0707 Q621.7688,662.0707 621.9281,662.2113 Q622.0875,662.352 622.0875,662.577 Q622.0875,662.8113 621.9281,662.952 Q621.7688,663.0926 621.4031,663.0926 L620.3719,663.0926 Z " fill="#000000"/><text fill="#000000" font-family="sans-serif" font-size="8.4" font-style="italic" lengthAdjust="spacing" textLength="75.6" x="628.2" y="668.5863">IAppServiceElevator</text><line style="stroke:#181818;stroke-width:0.3;" x1="611.4" x2="705" y1="674.7082" y2="674.7082"/><line style="stroke:#181818;stroke-width:0.3;" x1="611.4" x2="705" y1="679.5082" y2="679.5082"/></g><!--class AppServiceElevator--><g id="elem_AppServiceElevator"><rect codeLine="59" fill="#F1F1F1" height="28.8" id="AppServiceElevator" rx="1.5" ry="1.5" style="stroke:#181818;stroke-width:0.3;" width="93.6" x="577.2" y="563.1082"/><ellipse cx="586.2" cy="572.7082" fill="#ADD1B2" rx="6.6" ry="6.6" style="stroke:#181818;stroke-width:0.6;"/><path d="M587.8594,570.2332 Q587.9531,570.102 588.0656,570.0363 Q588.1781,569.9707 588.3094,569.9707 Q588.5344,569.9707 588.675,570.1301 Q588.8156,570.2801 588.8156,570.6457 L588.8156,571.5176 Q588.8156,571.8832 588.675,572.0426 Q588.5344,572.202 588.3094,572.202 Q588.1031,572.202 587.9812,572.0801 Q587.8594,571.9676 587.7937,571.6582 Q587.7656,571.4426 587.6531,571.3301 Q587.4563,571.1051 587.0906,570.9738 Q586.725,570.8426 586.35,570.8426 Q585.8906,570.8426 585.5063,571.0395 Q585.1313,571.2363 584.8313,571.6863 Q584.5406,572.1363 584.5406,572.7551 L584.5406,573.4113 Q584.5406,574.152 585.075,574.6488 Q585.6094,575.1363 586.5656,575.1363 Q587.1281,575.1363 587.5219,574.9863 Q587.7563,574.8926 588.0094,574.6301 Q588.1687,574.4707 588.2531,574.4238 Q588.3469,574.377 588.4688,574.377 Q588.6656,574.377 588.8156,574.5363 Q588.975,574.6863 588.975,574.8926 Q588.975,575.0988 588.7688,575.3426 Q588.4688,575.6895 587.9906,575.8863 Q587.3438,576.1582 586.5656,576.1582 Q585.6563,576.1582 584.9344,575.7832 Q584.3438,575.4832 583.9313,574.8457 Q583.5188,574.1988 583.5188,573.4301 L583.5188,572.7363 Q583.5188,571.9395 583.8844,571.2551 Q584.2594,570.5613 584.9156,570.1957 Q585.5719,569.8207 586.3125,569.8207 Q586.7531,569.8207 587.1375,569.9238 Q587.5313,570.0176 587.8594,570.2332 Z " fill="#000000"/><text fill="#000000" font-family="sans-serif" font-size="8.4" lengthAdjust="spacing" textLength="74.4" x="594.6" y="576.1863">AppServiceElevator</text><line style="stroke:#181818;stroke-width:0.3;" x1="577.8" x2="670.2" y1="582.3082" y2="582.3082"/><line style="stroke:#181818;stroke-width:0.3;" x1="577.8" x2="670.2" y1="587.1082" y2="587.1082"/></g><!--class IRepoBuilding--><g id="elem_IRepoBuilding"><rect codeLine="65" fill="#F1F1F1" height="28.8" id="IRepoBuilding" rx="1.5" ry="1.5" style="stroke:#181818;stroke-width:0.3;" width="72" x="499.8" y="396.6082"/><ellipse cx="508.8" cy="406.2082" fill="#B4A7E5" rx="6.6" ry="6.6" style="stroke:#181818;stroke-width:0.6;"/><path d="M509.3719,404.1926 L509.3719,408.1863 L510.4031,408.1863 Q510.7687,408.1863 510.9281,408.327 Q511.0875,408.4676 511.0875,408.702 Q511.0875,408.927 510.9281,409.0676 Q510.7687,409.2082 510.4031,409.2082 L507.3187,409.2082 Q506.9531,409.2082 506.7938,409.0676 Q506.6344,408.927 506.6344,408.6926 Q506.6344,408.4676 506.7938,408.327 Q506.9531,408.1863 507.3187,408.1863 L508.35,408.1863 L508.35,404.1926 L507.3187,404.1926 Q506.9531,404.1926 506.7938,404.052 Q506.6344,403.9113 506.6344,403.677 Q506.6344,403.452 506.7938,403.3113 Q506.9531,403.1707 507.3187,403.1707 L510.4031,403.1707 Q510.7687,403.1707 510.9281,403.3113 Q511.0875,403.452 511.0875,403.677 Q511.0875,403.9113 510.9281,404.052 Q510.7687,404.1926 510.4031,404.1926 L509.3719,404.1926 Z " fill="#000000"/><text fill="#000000" font-family="sans-serif" font-size="8.4" font-style="italic" lengthAdjust="spacing" textLength="52.8" x="517.2" y="409.6863">IRepoBuilding</text><line style="stroke:#181818;stroke-width:0.3;" x1="500.4" x2="571.2" y1="415.8082" y2="415.8082"/><line style="stroke:#181818;stroke-width:0.3;" x1="500.4" x2="571.2" y1="420.6082" y2="420.6082"/></g><!--class IRepoFloor--><g id="elem_IRepoFloor"><rect codeLine="66" fill="#F1F1F1" height="28.8" id="IRepoFloor" rx="1.5" ry="1.5" style="stroke:#181818;stroke-width:0.3;" width="61.8" x="593.1" y="396.6082"/><ellipse cx="602.1" cy="406.2082" fill="#B4A7E5" rx="6.6" ry="6.6" style="stroke:#181818;stroke-width:0.6;"/><path d="M602.6719,404.1926 L602.6719,408.1863 L603.7031,408.1863 Q604.0688,408.1863 604.2281,408.327 Q604.3875,408.4676 604.3875,408.702 Q604.3875,408.927 604.2281,409.0676 Q604.0688,409.2082 603.7031,409.2082 L600.6188,409.2082 Q600.2531,409.2082 600.0938,409.0676 Q599.9344,408.927 599.9344,408.6926 Q599.9344,408.4676 600.0938,408.327 Q600.2531,408.1863 600.6188,408.1863 L601.65,408.1863 L601.65,404.1926 L600.6188,404.1926 Q600.2531,404.1926 600.0938,404.052 Q599.9344,403.9113 599.9344,403.677 Q599.9344,403.452 600.0938,403.3113 Q600.2531,403.1707 600.6188,403.1707 L603.7031,403.1707 Q604.0688,403.1707 604.2281,403.3113 Q604.3875,403.452 604.3875,403.677 Q604.3875,403.9113 604.2281,404.052 Q604.0688,404.1926 603.7031,404.1926 L602.6719,404.1926 Z " fill="#000000"/><text fill="#000000" font-family="sans-serif" font-size="8.4" font-style="italic" lengthAdjust="spacing" textLength="42.6" x="610.5" y="409.6863">IRepoFloor</text><line style="stroke:#181818;stroke-width:0.3;" x1="593.7" x2="654.3" y1="415.8082" y2="415.8082"/><line style="stroke:#181818;stroke-width:0.3;" x1="593.7" x2="654.3" y1="420.6082" y2="420.6082"/></g><!--class IRepoElevator--><g id="elem_IRepoElevator"><rect codeLine="67" fill="#F1F1F1" height="28.8" id="IRepoElevator" rx="1.5" ry="1.5" style="stroke:#181818;stroke-width:0.3;" width="72.6" x="675.9" y="396.6082"/><ellipse cx="684.9" cy="406.2082" fill="#B4A7E5" rx="6.6" ry="6.6" style="stroke:#181818;stroke-width:0.6;"/><path d="M685.4719,404.1926 L685.4719,408.1863 L686.5031,408.1863 Q686.8688,408.1863 687.0281,408.327 Q687.1875,408.4676 687.1875,408.702 Q687.1875,408.927 687.0281,409.0676 Q686.8688,409.2082 686.5031,409.2082 L683.4187,409.2082 Q683.0531,409.2082 682.8938,409.0676 Q682.7344,408.927 682.7344,408.6926 Q682.7344,408.4676 682.8938,408.327 Q683.0531,408.1863 683.4187,408.1863 L684.45,408.1863 L684.45,404.1926 L683.4187,404.1926 Q683.0531,404.1926 682.8938,404.052 Q682.7344,403.9113 682.7344,403.677 Q682.7344,403.452 682.8938,403.3113 Q683.0531,403.1707 683.4187,403.1707 L686.5031,403.1707 Q686.8688,403.1707 687.0281,403.3113 Q687.1875,403.452 687.1875,403.677 Q687.1875,403.9113 687.0281,404.052 Q686.8688,404.1926 686.5031,404.1926 L685.4719,404.1926 Z " fill="#000000"/><text fill="#000000" font-family="sans-serif" font-size="8.4" font-style="italic" lengthAdjust="spacing" textLength="53.4" x="693.3" y="409.6863">IRepoElevator</text><line style="stroke:#181818;stroke-width:0.3;" x1="676.5" x2="747.9" y1="415.8082" y2="415.8082"/><line style="stroke:#181818;stroke-width:0.3;" x1="676.5" x2="747.9" y1="420.6082" y2="420.6082"/></g><!--class Elevator--><g id="elem_Elevator"><rect codeLine="86" fill="#F1F1F1" height="45.9258" id="Elevator" rx="1.5" ry="1.5" style="stroke:#181818;stroke-width:0.3;" width="50.4" x="250.8" y="646.8082"/><ellipse cx="259.8" cy="664.9711" fill="#ADD1B2" rx="6.6" ry="6.6" style="stroke:#181818;stroke-width:0.6;"/><path d="M259.1156,665.4492 L259.1156,666.9492 L261.7125,666.9492 L261.7125,666.3961 Q261.7125,666.0305 261.8531,665.8711 Q262.0031,665.7117 262.2281,665.7117 Q262.4531,665.7117 262.5938,665.8711 Q262.7344,666.0305 262.7344,666.3961 L262.7344,667.9711 L257.9344,667.9711 Q257.5594,667.9711 257.4,667.8305 Q257.25,667.6898 257.25,667.4555 Q257.25,667.2305 257.4094,667.0898 Q257.5687,666.9492 257.9344,666.9492 L258.0938,666.9492 L258.0938,662.9555 L257.9344,662.9555 Q257.5594,662.9555 257.4,662.8148 Q257.25,662.6742 257.25,662.4398 Q257.25,662.2148 257.4,662.0742 Q257.5594,661.9336 257.9344,661.9336 L262.5094,661.9336 L262.5094,663.4898 Q262.5094,663.8555 262.3688,664.0148 Q262.2375,664.1648 262.0031,664.1648 Q261.7781,664.1648 261.6375,664.0148 Q261.4969,663.8555 261.4969,663.4898 L261.4969,662.9555 L259.1156,662.9555 L259.1156,664.4273 L260.0062,664.4273 Q260.0062,664.0336 260.0813,663.9211 Q260.2406,663.6773 260.5219,663.6773 Q260.7469,663.6773 260.8875,663.8367 Q261.0281,663.9867 261.0281,664.3523 L261.0281,665.5336 Q261.0281,665.8617 260.9531,665.9742 Q260.7938,666.2086 260.5219,666.2086 Q260.2406,666.2086 260.0813,665.9648 Q260.0062,665.8523 260.0062,665.4492 L259.1156,665.4492 Z " fill="#000000"/><text fill="#000000" font-family="sans-serif" font-size="7.2" font-style="italic" lengthAdjust="spacing" textLength="21" x="273.3" y="657.5777">&#171;root&#187;</text><text fill="#000000" font-family="sans-serif" font-size="7.2" font-style="italic" lengthAdjust="spacing" textLength="25.8" x="270.9" y="667.1543">&#171;entity&#187;</text><text fill="#000000" font-family="sans-serif" font-size="8.4" lengthAdjust="spacing" textLength="31.2" x="268.2" y="678.0258">Elevator</text><line style="stroke:#181818;stroke-width:0.3;" x1="251.4" x2="300.6" y1="683.134" y2="683.134"/><line style="stroke:#181818;stroke-width:0.3;" x1="251.4" x2="300.6" y1="687.934" y2="687.934"/></g><!--class Building--><g id="elem_Building"><rect codeLine="90" fill="#F1F1F1" height="45.9258" id="Building" rx="1.5" ry="1.5" style="stroke:#181818;stroke-width:0.3;" width="49.2" x="334.8" y="646.8082"/><ellipse cx="343.8" cy="664.9711" fill="#ADD1B2" rx="6.6" ry="6.6" style="stroke:#181818;stroke-width:0.6;"/><path d="M343.1156,665.4492 L343.1156,666.9492 L345.7125,666.9492 L345.7125,666.3961 Q345.7125,666.0305 345.8531,665.8711 Q346.0031,665.7117 346.2281,665.7117 Q346.4531,665.7117 346.5938,665.8711 Q346.7344,666.0305 346.7344,666.3961 L346.7344,667.9711 L341.9344,667.9711 Q341.5594,667.9711 341.4,667.8305 Q341.25,667.6898 341.25,667.4555 Q341.25,667.2305 341.4094,667.0898 Q341.5687,666.9492 341.9344,666.9492 L342.0938,666.9492 L342.0938,662.9555 L341.9344,662.9555 Q341.5594,662.9555 341.4,662.8148 Q341.25,662.6742 341.25,662.4398 Q341.25,662.2148 341.4,662.0742 Q341.5594,661.9336 341.9344,661.9336 L346.5094,661.9336 L346.5094,663.4898 Q346.5094,663.8555 346.3688,664.0148 Q346.2375,664.1648 346.0031,664.1648 Q345.7781,664.1648 345.6375,664.0148 Q345.4969,663.8555 345.4969,663.4898 L345.4969,662.9555 L343.1156,662.9555 L343.1156,664.4273 L344.0062,664.4273 Q344.0062,664.0336 344.0813,663.9211 Q344.2406,663.6773 344.5219,663.6773 Q344.7469,663.6773 344.8875,663.8367 Q345.0281,663.9867 345.0281,664.3523 L345.0281,665.5336 Q345.0281,665.8617 344.9531,665.9742 Q344.7938,666.2086 344.5219,666.2086 Q344.2406,666.2086 344.0813,665.9648 Q344.0062,665.8523 344.0062,665.4492 L343.1156,665.4492 Z " fill="#000000"/><text fill="#000000" font-family="sans-serif" font-size="7.2" font-style="italic" lengthAdjust="spacing" textLength="21" x="356.7" y="657.5777">&#171;root&#187;</text><text fill="#000000" font-family="sans-serif" font-size="7.2" font-style="italic" lengthAdjust="spacing" textLength="25.8" x="354.3" y="667.1543">&#171;entity&#187;</text><text fill="#000000" font-family="sans-serif" font-size="8.4" lengthAdjust="spacing" textLength="30" x="352.2" y="678.0258">Building</text><line style="stroke:#181818;stroke-width:0.3;" x1="335.4" x2="383.4" y1="683.134" y2="683.134"/><line style="stroke:#181818;stroke-width:0.3;" x1="335.4" x2="383.4" y1="687.934" y2="687.934"/></g><!--class Floor--><g id="elem_Floor"><rect codeLine="94" fill="#F1F1F1" height="45.9258" id="Floor" rx="1.5" ry="1.5" style="stroke:#181818;stroke-width:0.3;" width="42.6" x="254.7" y="554.4082"/><ellipse cx="263.7" cy="572.5711" fill="#ADD1B2" rx="6.6" ry="6.6" style="stroke:#181818;stroke-width:0.6;"/><path d="M263.0156,573.0492 L263.0156,574.5492 L265.6125,574.5492 L265.6125,573.9961 Q265.6125,573.6305 265.7531,573.4711 Q265.9031,573.3117 266.1281,573.3117 Q266.3531,573.3117 266.4938,573.4711 Q266.6344,573.6305 266.6344,573.9961 L266.6344,575.5711 L261.8344,575.5711 Q261.4594,575.5711 261.3,575.4305 Q261.15,575.2898 261.15,575.0555 Q261.15,574.8305 261.3094,574.6898 Q261.4688,574.5492 261.8344,574.5492 L261.9938,574.5492 L261.9938,570.5555 L261.8344,570.5555 Q261.4594,570.5555 261.3,570.4148 Q261.15,570.2742 261.15,570.0398 Q261.15,569.8148 261.3,569.6742 Q261.4594,569.5336 261.8344,569.5336 L266.4094,569.5336 L266.4094,571.0898 Q266.4094,571.4555 266.2688,571.6148 Q266.1375,571.7648 265.9031,571.7648 Q265.6781,571.7648 265.5375,571.6148 Q265.3969,571.4555 265.3969,571.0898 L265.3969,570.5555 L263.0156,570.5555 L263.0156,572.0273 L263.9063,572.0273 Q263.9063,571.6336 263.9813,571.5211 Q264.1406,571.2773 264.4219,571.2773 Q264.6469,571.2773 264.7875,571.4367 Q264.9281,571.5867 264.9281,571.9523 L264.9281,573.1336 Q264.9281,573.4617 264.8531,573.5742 Q264.6937,573.8086 264.4219,573.8086 Q264.1406,573.8086 263.9813,573.5648 Q263.9063,573.4523 263.9063,573.0492 L263.0156,573.0492 Z " fill="#000000"/><text fill="#000000" font-family="sans-serif" font-size="7.2" font-style="italic" lengthAdjust="spacing" textLength="21" x="273.3" y="565.1777">&#171;root&#187;</text><text fill="#000000" font-family="sans-serif" font-size="7.2" font-style="italic" lengthAdjust="spacing" textLength="25.8" x="270.9" y="574.7543">&#171;entity&#187;</text><text fill="#000000" font-family="sans-serif" font-size="8.4" lengthAdjust="spacing" textLength="19.8" x="273.9" y="585.6258">Floor</text><line style="stroke:#181818;stroke-width:0.3;" x1="255.3" x2="296.7" y1="590.734" y2="590.734"/><line style="stroke:#181818;stroke-width:0.3;" x1="255.3" x2="296.7" y1="595.534" y2="595.534"/></g><!--class Identifier--><g id="elem_Identifier"><rect codeLine="100" fill="#F1F1F1" height="28.8" id="Identifier" rx="1.5" ry="1.5" style="stroke:#181818;stroke-width:0.3;" width="51.6" x="357" y="786.3082"/><ellipse cx="366" cy="795.9082" fill="#ADD1B2" rx="6.6" ry="6.6" style="stroke:#181818;stroke-width:0.6;"/><path d="M367.6594,793.4332 Q367.7531,793.302 367.8656,793.2363 Q367.9781,793.1707 368.1094,793.1707 Q368.3344,793.1707 368.475,793.3301 Q368.6156,793.4801 368.6156,793.8457 L368.6156,794.7176 Q368.6156,795.0832 368.475,795.2426 Q368.3344,795.402 368.1094,795.402 Q367.9031,795.402 367.7813,795.2801 Q367.6594,795.1676 367.5938,794.8582 Q367.5656,794.6426 367.4531,794.5301 Q367.2562,794.3051 366.8906,794.1738 Q366.525,794.0426 366.15,794.0426 Q365.6906,794.0426 365.3063,794.2395 Q364.9313,794.4363 364.6312,794.8863 Q364.3406,795.3363 364.3406,795.9551 L364.3406,796.6113 Q364.3406,797.352 364.875,797.8488 Q365.4094,798.3363 366.3656,798.3363 Q366.9281,798.3363 367.3219,798.1863 Q367.5563,798.0926 367.8094,797.8301 Q367.9688,797.6707 368.0531,797.6238 Q368.1469,797.577 368.2688,797.577 Q368.4656,797.577 368.6156,797.7363 Q368.775,797.8863 368.775,798.0926 Q368.775,798.2988 368.5687,798.5426 Q368.2688,798.8895 367.7906,799.0863 Q367.1438,799.3582 366.3656,799.3582 Q365.4563,799.3582 364.7344,798.9832 Q364.1438,798.6832 363.7313,798.0457 Q363.3187,797.3988 363.3187,796.6301 L363.3187,795.9363 Q363.3187,795.1395 363.6844,794.4551 Q364.0594,793.7613 364.7156,793.3957 Q365.3719,793.0207 366.1125,793.0207 Q366.5531,793.0207 366.9375,793.1238 Q367.3313,793.2176 367.6594,793.4332 Z " fill="#000000"/><text fill="#000000" font-family="sans-serif" font-size="8.4" lengthAdjust="spacing" textLength="32.4" x="374.4" y="799.3863">Identifier</text><line style="stroke:#181818;stroke-width:0.3;" x1="357.6" x2="408" y1="805.5082" y2="805.5082"/><line style="stroke:#181818;stroke-width:0.3;" x1="357.6" x2="408" y1="810.3082" y2="810.3082"/></g><!--class Brand--><g id="elem_Brand"><rect codeLine="101" fill="#F1F1F1" height="28.8" id="Brand" rx="1.5" ry="1.5" style="stroke:#181818;stroke-width:0.3;" width="42" x="294" y="786.3082"/><ellipse cx="303" cy="795.9082" fill="#ADD1B2" rx="6.6" ry="6.6" style="stroke:#181818;stroke-width:0.6;"/><path d="M304.6594,793.4332 Q304.7531,793.302 304.8656,793.2363 Q304.9781,793.1707 305.1094,793.1707 Q305.3344,793.1707 305.475,793.3301 Q305.6156,793.4801 305.6156,793.8457 L305.6156,794.7176 Q305.6156,795.0832 305.475,795.2426 Q305.3344,795.402 305.1094,795.402 Q304.9031,795.402 304.7813,795.2801 Q304.6594,795.1676 304.5938,794.8582 Q304.5656,794.6426 304.4531,794.5301 Q304.2562,794.3051 303.8906,794.1738 Q303.525,794.0426 303.15,794.0426 Q302.6906,794.0426 302.3063,794.2395 Q301.9313,794.4363 301.6312,794.8863 Q301.3406,795.3363 301.3406,795.9551 L301.3406,796.6113 Q301.3406,797.352 301.875,797.8488 Q302.4094,798.3363 303.3656,798.3363 Q303.9281,798.3363 304.3219,798.1863 Q304.5563,798.0926 304.8094,797.8301 Q304.9688,797.6707 305.0531,797.6238 Q305.1469,797.577 305.2688,797.577 Q305.4656,797.577 305.6156,797.7363 Q305.775,797.8863 305.775,798.0926 Q305.775,798.2988 305.5687,798.5426 Q305.2688,798.8895 304.7906,799.0863 Q304.1438,799.3582 303.3656,799.3582 Q302.4563,799.3582 301.7344,798.9832 Q301.1438,798.6832 300.7313,798.0457 Q300.3187,797.3988 300.3187,796.6301 L300.3187,795.9363 Q300.3187,795.1395 300.6844,794.4551 Q301.0594,793.7613 301.7156,793.3957 Q302.3719,793.0207 303.1125,793.0207 Q303.5531,793.0207 303.9375,793.1238 Q304.3313,793.2176 304.6594,793.4332 Z " fill="#000000"/><text fill="#000000" font-family="sans-serif" font-size="8.4" lengthAdjust="spacing" textLength="22.8" x="311.4" y="799.3863">Brand</text><line style="stroke:#181818;stroke-width:0.3;" x1="294.6" x2="335.4" y1="805.5082" y2="805.5082"/><line style="stroke:#181818;stroke-width:0.3;" x1="294.6" x2="335.4" y1="810.3082" y2="810.3082"/></g><!--class Model--><g id="elem_Model"><rect codeLine="102" fill="#F1F1F1" height="28.8" id="Model" rx="1.5" ry="1.5" style="stroke:#181818;stroke-width:0.3;" width="42" x="231" y="786.3082"/><ellipse cx="240" cy="795.9082" fill="#ADD1B2" rx="6.6" ry="6.6" style="stroke:#181818;stroke-width:0.6;"/><path d="M241.6594,793.4332 Q241.7531,793.302 241.8656,793.2363 Q241.9781,793.1707 242.1094,793.1707 Q242.3344,793.1707 242.475,793.3301 Q242.6156,793.4801 242.6156,793.8457 L242.6156,794.7176 Q242.6156,795.0832 242.475,795.2426 Q242.3344,795.402 242.1094,795.402 Q241.9031,795.402 241.7813,795.2801 Q241.6594,795.1676 241.5938,794.8582 Q241.5656,794.6426 241.4531,794.5301 Q241.2563,794.3051 240.8906,794.1738 Q240.525,794.0426 240.15,794.0426 Q239.6906,794.0426 239.3062,794.2395 Q238.9312,794.4363 238.6313,794.8863 Q238.3406,795.3363 238.3406,795.9551 L238.3406,796.6113 Q238.3406,797.352 238.875,797.8488 Q239.4094,798.3363 240.3656,798.3363 Q240.9281,798.3363 241.3219,798.1863 Q241.5562,798.0926 241.8094,797.8301 Q241.9688,797.6707 242.0531,797.6238 Q242.1469,797.577 242.2687,797.577 Q242.4656,797.577 242.6156,797.7363 Q242.775,797.8863 242.775,798.0926 Q242.775,798.2988 242.5688,798.5426 Q242.2687,798.8895 241.7906,799.0863 Q241.1437,799.3582 240.3656,799.3582 Q239.4562,799.3582 238.7344,798.9832 Q238.1437,798.6832 237.7313,798.0457 Q237.3188,797.3988 237.3188,796.6301 L237.3188,795.9363 Q237.3188,795.1395 237.6844,794.4551 Q238.0594,793.7613 238.7156,793.3957 Q239.3719,793.0207 240.1125,793.0207 Q240.5531,793.0207 240.9375,793.1238 Q241.3312,793.2176 241.6594,793.4332 Z " fill="#000000"/><text fill="#000000" font-family="sans-serif" font-size="8.4" lengthAdjust="spacing" textLength="22.8" x="248.4" y="799.3863">Model</text><line style="stroke:#181818;stroke-width:0.3;" x1="231.6" x2="272.4" y1="805.5082" y2="805.5082"/><line style="stroke:#181818;stroke-width:0.3;" x1="231.6" x2="272.4" y1="810.3082" y2="810.3082"/></g><!--class SerialNumber--><g id="elem_SerialNumber"><rect codeLine="103" fill="#F1F1F1" height="28.8" id="SerialNumber" rx="1.5" ry="1.5" style="stroke:#181818;stroke-width:0.3;" width="70.2" x="139.5" y="786.3082"/><ellipse cx="148.5" cy="795.9082" fill="#ADD1B2" rx="6.6" ry="6.6" style="stroke:#181818;stroke-width:0.6;"/><path d="M150.1594,793.4332 Q150.2531,793.302 150.3656,793.2363 Q150.4781,793.1707 150.6094,793.1707 Q150.8344,793.1707 150.975,793.3301 Q151.1156,793.4801 151.1156,793.8457 L151.1156,794.7176 Q151.1156,795.0832 150.975,795.2426 Q150.8344,795.402 150.6094,795.402 Q150.4031,795.402 150.2813,795.2801 Q150.1594,795.1676 150.0938,794.8582 Q150.0656,794.6426 149.9531,794.5301 Q149.7563,794.3051 149.3906,794.1738 Q149.025,794.0426 148.65,794.0426 Q148.1906,794.0426 147.8063,794.2395 Q147.4313,794.4363 147.1313,794.8863 Q146.8406,795.3363 146.8406,795.9551 L146.8406,796.6113 Q146.8406,797.352 147.375,797.8488 Q147.9094,798.3363 148.8656,798.3363 Q149.4281,798.3363 149.8219,798.1863 Q150.0563,798.0926 150.3094,797.8301 Q150.4688,797.6707 150.5531,797.6238 Q150.6469,797.577 150.7687,797.577 Q150.9656,797.577 151.1156,797.7363 Q151.275,797.8863 151.275,798.0926 Q151.275,798.2988 151.0688,798.5426 Q150.7687,798.8895 150.2906,799.0863 Q149.6437,799.3582 148.8656,799.3582 Q147.9562,799.3582 147.2344,798.9832 Q146.6437,798.6832 146.2313,798.0457 Q145.8188,797.3988 145.8188,796.6301 L145.8188,795.9363 Q145.8188,795.1395 146.1844,794.4551 Q146.5594,793.7613 147.2156,793.3957 Q147.8719,793.0207 148.6125,793.0207 Q149.0531,793.0207 149.4375,793.1238 Q149.8312,793.2176 150.1594,793.4332 Z " fill="#000000"/><text fill="#000000" font-family="sans-serif" font-size="8.4" lengthAdjust="spacing" textLength="51" x="156.9" y="799.3863">SerialNumber</text><line style="stroke:#181818;stroke-width:0.3;" x1="140.1" x2="209.1" y1="805.5082" y2="805.5082"/><line style="stroke:#181818;stroke-width:0.3;" x1="140.1" x2="209.1" y1="810.3082" y2="810.3082"/></g><!--class Description--><g id="elem_Description"><rect codeLine="104" fill="#F1F1F1" height="28.8" id="Description" rx="1.5" ry="1.5" style="stroke:#181818;stroke-width:0.3;" width="61.8" x="56.7" y="786.3082"/><ellipse cx="65.7" cy="795.9082" fill="#ADD1B2" rx="6.6" ry="6.6" style="stroke:#181818;stroke-width:0.6;"/><path d="M67.3594,793.4332 Q67.4531,793.302 67.5656,793.2363 Q67.6781,793.1707 67.8094,793.1707 Q68.0344,793.1707 68.175,793.3301 Q68.3156,793.4801 68.3156,793.8457 L68.3156,794.7176 Q68.3156,795.0832 68.175,795.2426 Q68.0344,795.402 67.8094,795.402 Q67.6031,795.402 67.4813,795.2801 Q67.3594,795.1676 67.2938,794.8582 Q67.2656,794.6426 67.1531,794.5301 Q66.9563,794.3051 66.5906,794.1738 Q66.225,794.0426 65.85,794.0426 Q65.3906,794.0426 65.0063,794.2395 Q64.6313,794.4363 64.3313,794.8863 Q64.0406,795.3363 64.0406,795.9551 L64.0406,796.6113 Q64.0406,797.352 64.575,797.8488 Q65.1094,798.3363 66.0656,798.3363 Q66.6281,798.3363 67.0219,798.1863 Q67.2563,798.0926 67.5094,797.8301 Q67.6688,797.6707 67.7531,797.6238 Q67.8469,797.577 67.9688,797.577 Q68.1656,797.577 68.3156,797.7363 Q68.475,797.8863 68.475,798.0926 Q68.475,798.2988 68.2688,798.5426 Q67.9688,798.8895 67.4906,799.0863 Q66.8438,799.3582 66.0656,799.3582 Q65.1563,799.3582 64.4344,798.9832 Q63.8438,798.6832 63.4313,798.0457 Q63.0188,797.3988 63.0188,796.6301 L63.0188,795.9363 Q63.0188,795.1395 63.3844,794.4551 Q63.7594,793.7613 64.4156,793.3957 Q65.0719,793.0207 65.8125,793.0207 Q66.2531,793.0207 66.6375,793.1238 Q67.0313,793.2176 67.3594,793.4332 Z " fill="#000000"/><text fill="#000000" font-family="sans-serif" font-size="8.4" lengthAdjust="spacing" textLength="42.6" x="74.1" y="799.3863">Description</text><line style="stroke:#181818;stroke-width:0.3;" x1="57.3" x2="117.9" y1="805.5082" y2="805.5082"/><line style="stroke:#181818;stroke-width:0.3;" x1="57.3" x2="117.9" y1="810.3082" y2="810.3082"/></g><!--link DBDriver to IDBDriver--><g id="link_DBDriver_IDBDriver"><path codeLine="24" d="M998.874,94.2082 C1001.82,94.2082 1004.76,94.2082 1007.706,94.2082 " fill="none" id="DBDriver-to-IDBDriver" style="stroke:#FF6655;stroke-width:0.6;"/><polygon fill="none" points="1007.808,90.0082,1019.808,94.2082,1007.808,98.4082,1007.808,90.0082" style="stroke:#FF6655;stroke-width:0.6;"/></g><!--reverse link IControllerElevator to ControllerElevator--><g id="link_IControllerElevator_ControllerElevator"><path codeLine="36" d="M1160.88,308.6722 C1160.754,335.2522 1160.562,375.4882 1160.466,396.5062 " fill="none" id="IControllerElevator-backto-ControllerElevator" style="stroke:#FF6655;stroke-width:0.6;"/><polygon fill="none" points="1156.68,308.5102,1160.934,296.5282,1165.08,308.5462,1156.68,308.5102" style="stroke:#FF6655;stroke-width:0.6;"/></g><!--reverse link DBDriver to RepoBuilding--><g id="link_DBDriver_RepoBuilding"><path codeLine="45" d="M958.782,111.3082 C944.754,129.2362 922.38,159.0202 906,186.6082 C889.59,214.2442 874.188,248.6902 866.166,267.5182 " fill="none" id="DBDriver-backto-RepoBuilding" style="stroke:#FF6655;stroke-width:0.6;stroke-dasharray:7.0,7.0;"/><polygon fill="#FF6655" points="960.792,108.7522,955.569,111.5164,958.9389,111.1115,959.3438,114.4813,960.792,108.7522" style="stroke:#FF6655;stroke-width:0.6;"/></g><!--reverse link DBDriver to RepoFloor--><g id="link_DBDriver_RepoFloor"><path codeLine="46" d="M969.642,111.8542 C964.584,148.4302 952.782,233.8162 948.132,267.4462 " fill="none" id="DBDriver-backto-RepoFloor" style="stroke:#FF6655;stroke-width:0.6;stroke-dasharray:7.0,7.0;"/><polygon fill="#FF6655" points="970.08,108.6802,966.9627,113.7004,969.6689,111.6519,971.7174,114.3581,970.08,108.6802" style="stroke:#FF6655;stroke-width:0.6;"/></g><!--reverse link DBDriver to RepoElevator--><g id="link_DBDriver_RepoElevator"><path codeLine="47" d="M977.466,111.6382 C989.304,148.0822 1017.12,233.7502 1028.064,267.4462 " fill="none" id="DBDriver-backto-RepoElevator" style="stroke:#FF6655;stroke-width:0.6;stroke-dasharray:7.0,7.0;"/><polygon fill="#FF6655" points="976.506,108.6802,975.889,114.5572,977.4315,111.5339,980.4549,113.0764,976.506,108.6802" style="stroke:#FF6655;stroke-width:0.6;"/></g><!--link RouteElevator to IControllerElevator--><g id="link_RouteElevator_IControllerElevator"><path codeLine="49" d="M1146.558,108.6802 C1149.366,142.2142 1156.5,227.6002 1159.566,264.2602 " fill="none" id="RouteElevator-to-IControllerElevator" style="stroke:#FF6655;stroke-width:0.6;stroke-dasharray:7.0,7.0;"/><polygon fill="#FF6655" points="1159.83,267.4462,1161.7746,261.866,1159.5816,264.4565,1156.9911,262.2635,1159.83,267.4462" style="stroke:#FF6655;stroke-width:0.6;"/></g><!--link AppServiceElevator to IAppServiceElevator--><g id="link_AppServiceElevator_IAppServiceElevator"><path codeLine="62" d="M629.196,591.9622 C634.368,605.7502 642.426,627.2422 648.738,644.0722 " fill="none" id="AppServiceElevator-to-IAppServiceElevator" style="stroke:#FF6655;stroke-width:0.6;"/><polygon fill="none" points="652.674,642.6142,652.956,655.3282,644.808,645.5662,652.674,642.6142" style="stroke:#FF6655;stroke-width:0.6;"/></g><!--link RepoBuilding to IRepoBuilding--><g id="link_RepoBuilding_IRepoBuilding"><path codeLine="70" d="M825.42,282.7042 C759.69,283.5262 620.922,288.5242 582.6,315.6082 C559.554,331.8982 547.308,362.8162 541.206,384.9142 " fill="none" id="RepoBuilding-to-IRepoBuilding" style="stroke:#FF6655;stroke-width:0.6;"/><polygon fill="none" points="545.274,385.9402,538.314,396.5842,537.12,383.9242,545.274,385.9402" style="stroke:#FF6655;stroke-width:0.6;"/></g><!--link RepoFloor to IRepoFloor--><g id="link_RepoFloor_IRepoFloor"><path codeLine="71" d="M930.966,296.5222 C923.904,302.0722 915.078,307.8442 906,310.8082 C893.292,314.9602 676.512,308.1742 665.4,315.6082 C642.384,331.0042 632.076,362.2342 627.516,384.6502 " fill="none" id="RepoFloor-to-IRepoFloor" style="stroke:#FF6655;stroke-width:0.6;"/><polygon fill="none" points="631.65,385.3822,625.464,396.4882,623.376,383.9482,631.65,385.3822" style="stroke:#FF6655;stroke-width:0.6;"/></g><!--link RepoElevator to IRepoElevator--><g id="link_RepoElevator_IRepoElevator"><path codeLine="72" d="M1011.936,296.4382 C1004.13,301.3342 995.04,306.6562 986.4,310.8082 C909.858,347.6182 815.934,378.9382 760.248,396.1702 " fill="none" id="RepoElevator-to-IRepoElevator" style="stroke:#FF6655;stroke-width:0.6;"/><polygon fill="none" points="761.334,400.2322,748.626,399.7342,758.868,392.1982,761.334,400.2322" style="stroke:#FF6655;stroke-width:0.6;"/></g><!--link ControllerElevator to IAppServiceElevator--><g id="link_ControllerElevator_IAppServiceElevator"><path codeLine="75" d="M1133.4,425.4622 C1047.09,469.7542 778.26,607.7002 688.056,653.9902 " fill="none" id="ControllerElevator-to-IAppServiceElevator" style="stroke:#FF6655;stroke-width:0.6;stroke-dasharray:7.0,7.0;"/><polygon fill="#FF6655" points="685.182,655.4602,691.0817,655.124,687.8497,654.0878,688.8858,650.8557,685.182,655.4602" style="stroke:#FF6655;stroke-width:0.6;"/></g><!--reverse link IRepoBuilding to AppServiceElevator--><g id="link_IRepoBuilding_AppServiceElevator"><path codeLine="77" d="M544.584,428.0662 C561.948,460.6162 600.402,532.6882 616.59,563.0242 " fill="none" id="IRepoBuilding-backto-AppServiceElevator" style="stroke:#FF6655;stroke-width:0.6;stroke-dasharray:7.0,7.0;"/><polygon fill="#FF6655" points="543.168,425.4202,543.5945,431.3141,544.5811,428.0666,547.8287,429.0531,543.168,425.4202" style="stroke:#FF6655;stroke-width:0.6;"/></g><!--reverse link IRepoFloor to AppServiceElevator--><g id="link_IRepoFloor_AppServiceElevator"><path codeLine="78" d="M624,428.4622 C624,461.1982 624,532.8082 624,563.0242 " fill="none" id="IRepoFloor-backto-AppServiceElevator" style="stroke:#FF6655;stroke-width:0.6;stroke-dasharray:7.0,7.0;"/><polygon fill="#FF6655" points="624,425.4202,621.6,430.8202,624,428.4202,626.4,430.8202,624,425.4202" style="stroke:#FF6655;stroke-width:0.6;"/></g><!--reverse link IRepoElevator to AppServiceElevator--><g id="link_IRepoElevator_AppServiceElevator"><path codeLine="79" d="M703.416,428.0662 C686.052,460.6162 647.598,532.6882 631.41,563.0242 " fill="none" id="IRepoElevator-backto-AppServiceElevator" style="stroke:#FF6655;stroke-width:0.6;stroke-dasharray:7.0,7.0;"/><polygon fill="#FF6655" points="704.832,425.4202,700.1713,429.0531,703.4189,428.0666,704.4055,431.3141,704.832,425.4202" style="stroke:#FF6655;stroke-width:0.6;"/></g><!--link Elevator to Identifier--><g id="link_Elevator_Identifier"><path codeLine="110" d="M290.238,693.1402 C298.92,705.1162 311.064,719.0602 325.2,727.5082 C333.642,732.5542 338.976,726.3502 346.8,732.3082 C363.402,744.9442 373.164,767.4862 378.24,783.0862 " fill="none" id="Elevator-to-Identifier" style="stroke:#FF6655;stroke-width:0.6;"/><polygon fill="#FF6655" points="379.194,786.1102,379.859,780.2384,378.2918,783.2491,375.2812,781.6819,379.194,786.1102" style="stroke:#FF6655;stroke-width:0.6;"/><text fill="#000000" font-family="Impact" font-size="7.8" lengthAdjust="spacing" textLength="3" x="374.8218" y="779.9152">1</text></g><!--link Elevator to Brand--><g id="link_Elevator_Brand"><path codeLine="111" d="M282.792,693.0802 C290.52,718.7602 302.964,760.1122 309.906,783.1762 " fill="none" id="Elevator-to-Brand" style="stroke:#FF6655;stroke-width:0.6;"/><polygon fill="#FF6655" points="310.806,786.1702,311.5451,780.3073,309.94,783.2979,306.9494,781.6929,310.806,786.1702" style="stroke:#FF6655;stroke-width:0.6;"/><text fill="#000000" font-family="Impact" font-size="7.8" lengthAdjust="spacing" textLength="3" x="306.2046" y="779.7566">1</text></g><!--link Elevator to Model--><g id="link_Elevator_Model"><path codeLine="112" d="M271.818,693.0802 C267.066,718.7602 259.404,760.1122 255.138,783.1762 " fill="none" id="Elevator-to-Model" style="stroke:#FF6655;stroke-width:0.6;"/><polygon fill="#FF6655" points="254.58,786.1702,257.9272,781.3003,255.1287,783.2208,253.2082,780.4223,254.58,786.1702" style="stroke:#FF6655;stroke-width:0.6;"/><text fill="#000000" font-family="Impact" font-size="7.8" lengthAdjust="spacing" textLength="3" x="251.8838" y="779.7566">1</text></g><!--link Elevator to SerialNumber--><g id="link_Elevator_SerialNumber"><path codeLine="113" d="M254.556,693.0742 C244.014,704.5222 231.342,718.8202 220.8,732.3082 C207.582,749.2102 193.926,769.6942 184.92,783.6922 " fill="none" id="Elevator-to-SerialNumber" style="stroke:#FF6655;stroke-width:0.6;"/><polygon fill="#FF6655" points="183.294,786.2302,188.2329,782.9857,184.9163,783.7067,184.1953,780.39,183.294,786.2302" style="stroke:#FF6655;stroke-width:0.6;"/><text fill="#000000" font-family="Impact" font-size="7.8" lengthAdjust="spacing" textLength="3" x="182.3173" y="779.8335">1</text></g><!--link Elevator to Description--><g id="link_Elevator_Description"><path codeLine="114" d="M250.566,676.0762 C219.048,684.0322 165.102,701.2582 129,732.3082 C112.824,746.2162 101.082,768.0742 94.32,783.1942 " fill="none" id="Elevator-to-Description" style="stroke:#FF6655;stroke-width:0.6;"/><polygon fill="#FF6655" points="93.036,786.1222,97.4051,782.1433,94.2425,783.3755,93.0103,780.2129,93.036,786.1222" style="stroke:#FF6655;stroke-width:0.6;"/><text fill="#000000" font-family="Impact" font-size="7.8" lengthAdjust="spacing" textLength="3" x="91.0938" y="779.9304">1</text></g><!--reverse link Building to Elevator--><g id="link_Building_Elevator"><path codeLine="116" d="M331.512,669.9082 C321.42,669.9082 311.334,669.9082 301.248,669.9082 " fill="none" id="Building-backto-Elevator" style="stroke:#FF6655;stroke-width:0.6;"/><polygon fill="#FF6655" points="334.638,669.9082,329.238,667.5082,331.638,669.9082,329.238,672.3082,334.638,669.9082" style="stroke:#FF6655;stroke-width:0.6;"/><text fill="#000000" font-family="Impact" font-size="7.8" lengthAdjust="spacing" textLength="3" x="326.9601" y="668.0454">1</text></g><!--reverse link Floor to Elevator--><g id="link_Floor_Elevator"><path codeLine="117" d="M276,603.6682 C276,617.1922 276,633.6562 276,646.7062 " fill="none" id="Floor-backto-Elevator" style="stroke:#FF6655;stroke-width:0.6;"/><polygon fill="#FF6655" points="276,600.6502,273.6,606.0502,276,603.6502,278.4,606.0502,276,600.6502" style="stroke:#FF6655;stroke-width:0.6;"/><text fill="#000000" font-family="Impact" font-size="7.8" lengthAdjust="spacing" textLength="2.4" x="273.4088" y="612.987">*</text><text fill="#000000" font-family="Impact" font-size="7.8" lengthAdjust="spacing" textLength="3" x="272.7141" y="640.3692">1</text></g><!--link AppServiceElevator to Elevator--><g id="link_AppServiceElevator_Elevator"><path codeLine="120" d="M576.912,581.0122 C504.174,586.1122 368.358,598.2322 325.2,619.8082 C313.608,625.6042 303.12,635.1922 294.828,644.3962 " fill="none" id="AppServiceElevator-to-Elevator" style="stroke:#FF6655;stroke-width:0.6;stroke-dasharray:7.0,7.0;"/><polygon fill="#FF6655" points="292.77,646.7242,298.1467,644.2725,294.7588,644.4782,294.5531,641.0903,292.77,646.7242" style="stroke:#FF6655;stroke-width:0.6;"/></g><!--SRC=[dLR9Rjim4BtxAmZt4A204-GGdmm1Nc8WG9iMCT1hGKjZXJL52YFAXTlwtqlj2nSdqKdIUvetCtn3AZioaLAa2Gbbaae1Gf6_4wAlhHHgn_u0kP-NpoiQ7cEKkOZMaajSB9Of3LyX2CWN5h-gjKJAAwB4271C-hJTpkSF3stePve0MSiS6U3uCxBdMiocIZO0wUvuNl4SIdo9A7-tyPuIBQSweFgcaRvC9Xe-qXX8TiuK97MbpSlfapWWpHJceSeHfZKyeBp8N47MXuehv3JBI8azSZXH9R75jQeHvJjWndG68eHnA2OKu866kfZDQeFi16YHCg2UIeEH6HOBC_iNZ4BLt5xPZUGoegc-pwobhtMNKN8-meUXFAHHTHtJQDceeA52al8h8bMBhiRlFvbaCilJidMUEBQbVO5KPaopcDCcch7A6O-OY1tmbak93ioNHJyqkStJsy1qIXlVHsYxCE9qfBxNoQs-tAqQ-ssPffo5L34fo0xmn4AmEquJhOIX8JJBHHfPhcE-st9NHAhbULzyaqrcfUCiOHo9-SmsgjtfEWlFj9-5z9OI1twiYdFcqVco8vg93CpP4Nr3OPdjqgs-DblMffe4U_v- -h0AFzSxE8z2CQMN-auVjd2taGbbmZuuSOmGq_gaifkdKPeIcX7w4vfaJ1T18NicRRgB1Kgfz9c-M5HG4BnfZfgsrOhxnXXEnTOw7rKiEr_B7KflERKgwrqNyktzFwZ-BI7VzhyWLEuDQz3ua_HrljfMdg8YbmC3T11MI4NamBxA2BW3qpvab3_doTuPUWDPY2mjzkg9knFjVMyq0pAzdzfoDpZ3z0ruM841MuimMDOwEXQ7Wsgo6GztoohGugz0ypvFAyDC_5k6dcfpRxbfdM0xKMukzUXV9ly1]--></g></svg>