<?xml version="1.0" encoding="us-ascii" standalone="no"?><svg xmlns="http://www.w3.org/2000/svg" xmlns:xlink="http://www.w3.org/1999/xlink" contentStyleType="text/css" height="1141px" preserveAspectRatio="none" style="width:1114px;height:1141px;background:#FFFFFF;" version="1.1" viewBox="0 0 1114 1141" width="1114px" zoomAndPan="magnify"><defs/><g><rect fill="#FFFFFF" height="1120.4668" style="stroke:#181818;stroke-width:1.5;" width="1103" x="5" y="15"/><path d="M37,15 L37,24.4883 L27,34.4883 L5,34.4883 " fill="none" style="stroke:#181818;stroke-width:1.5;"/><text fill="#000000" font-family="sans-serif" font-size="14" lengthAdjust="spacing" textLength="22" x="8" y="29.5352">MD</text><rect fill="#ADD8E6" height="1068.248" style="stroke:#181818;stroke-width:0.5;" width="715" x="261" y="43.7305"/><text fill="#000000" font-family="sans-serif" font-size="13" font-weight="bold" lengthAdjust="spacing" textLength="65" x="586" y="56.2988">Back-End</text><rect fill="#DDDDDD" height="1068.248" style="stroke:#181818;stroke-width:0.5;" width="87" x="978" y="43.7305"/><text fill="#000000" font-family="sans-serif" font-size="13" font-weight="bold" lengthAdjust="spacing" textLength="63" x="990" y="56.2988">Database</text><rect fill="#FFFFFF" height="879.6504" style="stroke:#181818;stroke-width:1.0;" width="10" x="287" y="156.8398"/><rect fill="#FFFFFF" height="850.3398" style="stroke:#181818;stroke-width:1.0;" width="10" x="425" y="186.1504"/><rect fill="#FFFFFF" height="821.0293" style="stroke:#181818;stroke-width:1.0;" width="10" x="563" y="215.4609"/><rect fill="#FFFFFF" height="409.7031" style="stroke:#181818;stroke-width:1.0;" width="10" x="696.5" y="627.7871"/><rect fill="#FFFFFF" height="87.2871" style="stroke:#181818;stroke-width:1.0;" width="10" x="776" y="832.2715"/><rect fill="#FFFFFF" height="47.9766" style="stroke:#181818;stroke-width:1.0;" width="10" x="945" y="871.582"/><rect fill="#FFFFFF" height="30" style="stroke:#181818;stroke-width:1.0;" width="10" x="1016.5" y="244.7715"/><rect fill="#FFFFFF" height="30" style="stroke:#181818;stroke-width:1.0;" width="10" x="1016.5" y="431.2793"/><rect fill="#FFFFFF" height="29.3105" style="stroke:#181818;stroke-width:1.0;" width="10" x="1016.5" y="802.9609"/><rect fill="none" height="739.7188" style="stroke:#000000;stroke-width:1.5;" width="1071" x="20" y="289.7715"/><rect fill="none" height="546.2109" style="stroke:#000000;stroke-width:1.5;" width="1051" x="30" y="476.2793"/><rect fill="none" height="354.0371" style="stroke:#000000;stroke-width:1.5;" width="1031" x="40" y="661.4531"/><line style="stroke:#181818;stroke-width:0.5;stroke-dasharray:5.0,5.0;" x1="63" x2="63" y1="125.5293" y2="1046.4902"/><line style="stroke:#181818;stroke-width:0.5;stroke-dasharray:5.0,5.0;" x1="292" x2="292" y1="125.5293" y2="1046.4902"/><line style="stroke:#181818;stroke-width:0.5;stroke-dasharray:5.0,5.0;" x1="430" x2="430" y1="125.5293" y2="1046.4902"/><line style="stroke:#181818;stroke-width:0.5;stroke-dasharray:5.0,5.0;" x1="568" x2="568" y1="125.5293" y2="1046.4902"/><line style="stroke:#181818;stroke-width:0.5;stroke-dasharray:5.0,5.0;" x1="701" x2="701" y1="635.4648" y2="1046.4902"/><line style="stroke:#181818;stroke-width:0.5;stroke-dasharray:5.0,5.0;" x1="781" x2="781" y1="125.5293" y2="1046.4902"/><line style="stroke:#181818;stroke-width:0.5;stroke-dasharray:5.0,5.0;" x1="950" x2="950" y1="879.2598" y2="1046.4902"/><line style="stroke:#181818;stroke-width:0.5;stroke-dasharray:5.0,5.0;" x1="1021" x2="1021" y1="125.5293" y2="1046.4902"/><rect fill="#E2E2F0" height="30.4883" rx="2.5" ry="2.5" style="stroke:#181818;stroke-width:0.5;" width="26" x="50" y="94.041"/><text fill="#000000" font-family="sans-serif" font-size="14" lengthAdjust="spacing" textLength="12" x="57" y="114.5762">??</text><rect fill="#E2E2F0" height="30.4883" rx="2.5" ry="2.5" style="stroke:#181818;stroke-width:0.5;" width="26" x="50" y="1045.4902"/><text fill="#000000" font-family="sans-serif" font-size="14" lengthAdjust="spacing" textLength="12" x="57" y="1066.0254">??</text><rect fill="#E2E2F0" height="30.4883" rx="2.5" ry="2.5" style="stroke:#181818;stroke-width:0.5;" width="54" x="265" y="94.041"/><text fill="#000000" font-family="sans-serif" font-size="14" lengthAdjust="spacing" textLength="40" x="272" y="114.5762">Route</text><rect fill="#E2E2F0" height="30.4883" rx="2.5" ry="2.5" style="stroke:#181818;stroke-width:0.5;" width="54" x="265" y="1045.4902"/><text fill="#000000" font-family="sans-serif" font-size="14" lengthAdjust="spacing" textLength="40" x="272" y="1066.0254">Route</text><rect fill="#E2E2F0" height="30.4883" rx="2.5" ry="2.5" style="stroke:#181818;stroke-width:0.5;" width="84" x="388" y="94.041"/><text fill="#000000" font-family="sans-serif" font-size="14" lengthAdjust="spacing" textLength="70" x="395" y="114.5762">Controller</text><rect fill="#E2E2F0" height="30.4883" rx="2.5" ry="2.5" style="stroke:#181818;stroke-width:0.5;" width="84" x="388" y="1045.4902"/><text fill="#000000" font-family="sans-serif" font-size="14" lengthAdjust="spacing" textLength="70" x="395" y="1066.0254">Controller</text><rect fill="#E2E2F0" height="30.4883" rx="2.5" ry="2.5" style="stroke:#181818;stroke-width:0.5;" width="62" x="537" y="94.041"/><text fill="#000000" font-family="sans-serif" font-size="14" lengthAdjust="spacing" textLength="48" x="544" y="114.5762">Service</text><rect fill="#E2E2F0" height="30.4883" rx="2.5" ry="2.5" style="stroke:#181818;stroke-width:0.5;" width="62" x="537" y="1045.4902"/><text fill="#000000" font-family="sans-serif" font-size="14" lengthAdjust="spacing" textLength="48" x="544" y="1066.0254">Service</text><rect fill="#E2E2F0" height="46.9766" rx="2.5" ry="2.5" style="stroke:#181818;stroke-width:0.5;" width="73" x="665" y="1045.4902"/><text fill="#000000" font-family="sans-serif" font-size="14" lengthAdjust="spacing" textLength="59" x="672" y="1066.0254">elevator:</text><text fill="#000000" font-family="sans-serif" font-size="14" lengthAdjust="spacing" textLength="55" x="674" y="1082.5137">Elevator</text><rect fill="#E2E2F0" height="30.4883" rx="2.5" ry="2.5" style="stroke:#181818;stroke-width:0.5;" width="66" x="748" y="94.041"/><text fill="#000000" font-family="sans-serif" font-size="14" lengthAdjust="spacing" textLength="52" x="755" y="114.5762">Mapper</text><rect fill="#E2E2F0" height="30.4883" rx="2.5" ry="2.5" style="stroke:#181818;stroke-width:0.5;" width="66" x="748" y="1045.4902"/><text fill="#000000" font-family="sans-serif" font-size="14" lengthAdjust="spacing" textLength="52" x="755" y="1066.0254">Mapper</text><rect fill="#E2E2F0" height="46.9766" rx="2.5" ry="2.5" style="stroke:#181818;stroke-width:0.5;" width="44" x="928" y="1045.4902"/><text fill="#000000" font-family="sans-serif" font-size="14" lengthAdjust="spacing" textLength="27" x="936.5" y="1066.0254">dto:</text><text fill="#000000" font-family="sans-serif" font-size="14" lengthAdjust="spacing" textLength="30" x="935" y="1082.5137">DTO</text><text fill="#000000" font-family="sans-serif" font-size="14" lengthAdjust="spacing" textLength="73" x="982" y="122.5762">Repository</text><path d="M1003.5,73.041 C1003.5,63.041 1021.5,63.041 1021.5,63.041 C1021.5,63.041 1039.5,63.041 1039.5,73.041 L1039.5,99.041 C1039.5,109.041 1021.5,109.041 1021.5,109.041 C1021.5,109.041 1003.5,109.041 1003.5,99.041 L1003.5,73.041 " fill="#E2E2F0" style="stroke:#181818;stroke-width:1.5;"/><path d="M1003.5,73.041 C1003.5,83.041 1021.5,83.041 1021.5,83.041 C1021.5,83.041 1039.5,83.041 1039.5,73.041 " fill="none" style="stroke:#181818;stroke-width:1.5;"/><text fill="#000000" font-family="sans-serif" font-size="14" lengthAdjust="spacing" textLength="73" x="982" y="1059.0254">Repository</text><path d="M1003.5,1071.9785 C1003.5,1061.9785 1021.5,1061.9785 1021.5,1061.9785 C1021.5,1061.9785 1039.5,1061.9785 1039.5,1071.9785 L1039.5,1097.9785 C1039.5,1107.9785 1021.5,1107.9785 1021.5,1107.9785 C1021.5,1107.9785 1003.5,1107.9785 1003.5,1097.9785 L1003.5,1071.9785 " fill="#E2E2F0" style="stroke:#181818;stroke-width:1.5;"/><path d="M1003.5,1071.9785 C1003.5,1081.9785 1021.5,1081.9785 1021.5,1081.9785 C1021.5,1081.9785 1039.5,1081.9785 1039.5,1071.9785 " fill="none" style="stroke:#181818;stroke-width:1.5;"/><rect fill="#FFFFFF" height="879.6504" style="stroke:#181818;stroke-width:1.0;" width="10" x="287" y="156.8398"/><rect fill="#FFFFFF" height="850.3398" style="stroke:#181818;stroke-width:1.0;" width="10" x="425" y="186.1504"/><rect fill="#FFFFFF" height="821.0293" style="stroke:#181818;stroke-width:1.0;" width="10" x="563" y="215.4609"/><rect fill="#FFFFFF" height="409.7031" style="stroke:#181818;stroke-width:1.0;" width="10" x="696.5" y="627.7871"/><rect fill="#FFFFFF" height="87.2871" style="stroke:#181818;stroke-width:1.0;" width="10" x="776" y="832.2715"/><rect fill="#FFFFFF" height="47.9766" style="stroke:#181818;stroke-width:1.0;" width="10" x="945" y="871.582"/><rect fill="#FFFFFF" height="30" style="stroke:#181818;stroke-width:1.0;" width="10" x="1016.5" y="244.7715"/><rect fill="#FFFFFF" height="30" style="stroke:#181818;stroke-width:1.0;" width="10" x="1016.5" y="431.2793"/><rect fill="#FFFFFF" height="29.3105" style="stroke:#181818;stroke-width:1.0;" width="10" x="1016.5" y="802.9609"/><polygon fill="#181818" points="275,152.8398,285,156.8398,275,160.8398,279,156.8398" style="stroke:#181818;stroke-width:1.0;"/><line style="stroke:#181818;stroke-width:1.0;stroke-dasharray:2.0,2.0;" x1="63" x2="281" y1="156.8398" y2="156.8398"/><text fill="#000000" font-family="sans-serif" font-size="13" font-weight="bold" lengthAdjust="spacing" textLength="9" x="70" y="152.0977">1</text><text fill="#000000" font-family="sans-serif" font-size="13" lengthAdjust="spacing" textLength="190" x="83" y="152.0977">post (/buildings/{id}/elevator)</text><polygon fill="#181818" points="413,182.1504,423,186.1504,413,190.1504,417,186.1504" style="stroke:#181818;stroke-width:1.0;"/><line style="stroke:#181818;stroke-width:1.0;" x1="297" x2="419" y1="186.1504" y2="186.1504"/><text fill="#000000" font-family="sans-serif" font-size="13" font-weight="bold" lengthAdjust="spacing" textLength="9" x="304" y="181.4082">2</text><text fill="#000000" font-family="sans-serif" font-size="13" lengthAdjust="spacing" textLength="96" x="317" y="181.4082">createElevator()</text><polygon fill="#181818" points="551,211.4609,561,215.4609,551,219.4609,555,215.4609" style="stroke:#181818;stroke-width:1.0;"/><line style="stroke:#181818;stroke-width:1.0;" x1="435" x2="557" y1="215.4609" y2="215.4609"/><text fill="#000000" font-family="sans-serif" font-size="13" font-weight="bold" lengthAdjust="spacing" textLength="9" x="442" y="210.7188">3</text><text fill="#000000" font-family="sans-serif" font-size="13" lengthAdjust="spacing" textLength="96" x="455" y="210.7188">createElevator()</text><polygon fill="#181818" points="1004.5,240.7715,1014.5,244.7715,1004.5,248.7715,1008.5,244.7715" style="stroke:#181818;stroke-width:1.0;"/><line style="stroke:#181818;stroke-width:1.0;" x1="573" x2="1010.5" y1="244.7715" y2="244.7715"/><text fill="#000000" font-family="sans-serif" font-size="13" font-weight="bold" lengthAdjust="spacing" textLength="9" x="580" y="240.0293">4</text><text fill="#000000" font-family="sans-serif" font-size="13" lengthAdjust="spacing" textLength="110" x="593" y="240.0293">exists(buildingId)</text><path d="M20,289.7715 L82,289.7715 L82,297.082 L72,307.082 L20,307.082 L20,289.7715 " fill="#EEEEEE" style="stroke:#000000;stroke-width:1.5;"/><rect fill="none" height="739.7188" style="stroke:#000000;stroke-width:1.5;" width="1071" x="20" y="289.7715"/><text fill="#000000" font-family="sans-serif" font-size="13" font-weight="bold" lengthAdjust="spacing" textLength="17" x="35" y="303.3398">alt</text><text fill="#000000" font-family="sans-serif" font-size="11" font-weight="bold" lengthAdjust="spacing" textLength="114" x="97" y="302.4063">[building not found]</text><polygon fill="#181818" points="446,324.3926,436,328.3926,446,332.3926,442,328.3926" style="stroke:#181818;stroke-width:1.0;"/><line style="stroke:#181818;stroke-width:1.0;stroke-dasharray:2.0,2.0;" x1="440" x2="562" y1="328.3926" y2="328.3926"/><text fill="#000000" font-family="sans-serif" font-size="13" font-weight="bold" lengthAdjust="spacing" textLength="9" x="452" y="323.6504">5</text><text fill="#000000" font-family="sans-serif" font-size="13" lengthAdjust="spacing" textLength="30" x="465" y="323.6504">error</text><polygon fill="#181818" points="308,353.7031,298,357.7031,308,361.7031,304,357.7031" style="stroke:#181818;stroke-width:1.0;"/><line style="stroke:#181818;stroke-width:1.0;stroke-dasharray:2.0,2.0;" x1="302" x2="424" y1="357.7031" y2="357.7031"/><text fill="#000000" font-family="sans-serif" font-size="13" font-weight="bold" lengthAdjust="spacing" textLength="9" x="314" y="352.9609">6</text><text fill="#000000" font-family="sans-serif" font-size="13" lengthAdjust="spacing" textLength="66" x="327" y="352.9609">error (412)</text><polygon fill="#181818" points="74,383.0137,64,387.0137,74,391.0137,70,387.0137" style="stroke:#181818;stroke-width:1.0;"/><line style="stroke:#181818;stroke-width:1.0;stroke-dasharray:2.0,2.0;" x1="68" x2="286" y1="387.0137" y2="387.0137"/><text fill="#000000" font-family="sans-serif" font-size="13" font-weight="bold" lengthAdjust="spacing" textLength="9" x="80" y="382.2715">7</text><text fill="#000000" font-family="sans-serif" font-size="13" lengthAdjust="spacing" textLength="152" x="93" y="382.2715">412: Precondition Failed</text><line style="stroke:#000000;stroke-width:1.0;stroke-dasharray:2.0,2.0;" x1="20" x2="1091" y1="396.0137" y2="396.0137"/><text fill="#000000" font-family="sans-serif" font-size="11" font-weight="bold" lengthAdjust="spacing" textLength="92" x="25" y="406.6484">[building found]</text><polygon fill="#181818" points="1004.5,427.2793,1014.5,431.2793,1004.5,435.2793,1008.5,431.2793" style="stroke:#181818;stroke-width:1.0;"/><line style="stroke:#181818;stroke-width:1.0;" x1="573" x2="1010.5" y1="431.2793" y2="431.2793"/><text fill="#000000" font-family="sans-serif" font-size="13" font-weight="bold" lengthAdjust="spacing" textLength="9" x="580" y="426.5371">8</text><text fill="#000000" font-family="sans-serif" font-size="13" lengthAdjust="spacing" textLength="91" x="593" y="426.5371">allExist(floors)</text><path d="M30,476.2793 L92,476.2793 L92,483.5898 L82,493.5898 L30,493.5898 L30,476.2793 " fill="#EEEEEE" style="stroke:#000000;stroke-width:1.5;"/><rect fill="none" height="546.2109" style="stroke:#000000;stroke-width:1.5;" width="1051" x="30" y="476.2793"/><text fill="#000000" font-family="sans-serif" font-size="13" font-weight="bold" lengthAdjust="spacing" textLength="17" x="45" y="489.8477">alt</text><text fill="#000000" font-family="sans-serif" font-size="11" font-weight="bold" lengthAdjust="spacing" textLength="109" x="107" y="488.9141">[floor(s) not found]</text><polygon fill="#181818" points="446,510.9004,436,514.9004,446,518.9004,442,514.9004" style="stroke:#181818;stroke-width:1.0;"/><line style="stroke:#181818;stroke-width:1.0;stroke-dasharray:2.0,2.0;" x1="440" x2="562" y1="514.9004" y2="514.9004"/><text fill="#000000" font-family="sans-serif" font-size="13" font-weight="bold" lengthAdjust="spacing" textLength="9" x="452" y="510.1582">9</text><text fill="#000000" font-family="sans-serif" font-size="13" lengthAdjust="spacing" textLength="30" x="465" y="510.1582">error</text><polygon fill="#181818" points="308,540.2109,298,544.2109,308,548.2109,304,544.2109" style="stroke:#181818;stroke-width:1.0;"/><line style="stroke:#181818;stroke-width:1.0;stroke-dasharray:2.0,2.0;" x1="302" x2="424" y1="544.2109" y2="544.2109"/><text fill="#000000" font-family="sans-serif" font-size="13" font-weight="bold" lengthAdjust="spacing" textLength="18" x="314" y="539.4688">10</text><text fill="#000000" font-family="sans-serif" font-size="13" lengthAdjust="spacing" textLength="66" x="336" y="539.4688">error (412)</text><polygon fill="#181818" points="74,569.5215,64,573.5215,74,577.5215,70,573.5215" style="stroke:#181818;stroke-width:1.0;"/><line style="stroke:#181818;stroke-width:1.0;stroke-dasharray:2.0,2.0;" x1="68" x2="286" y1="573.5215" y2="573.5215"/><text fill="#000000" font-family="sans-serif" font-size="13" font-weight="bold" lengthAdjust="spacing" textLength="18" x="80" y="568.7793">11</text><text fill="#000000" font-family="sans-serif" font-size="13" lengthAdjust="spacing" textLength="152" x="102" y="568.7793">412: Precondition Failed</text><line style="stroke:#000000;stroke-width:1.0;stroke-dasharray:2.0,2.0;" x1="30" x2="1081" y1="582.5215" y2="582.5215"/><text fill="#000000" font-family="sans-serif" font-size="11" font-weight="bold" lengthAdjust="spacing" textLength="79" x="35" y="593.1563">[floors found]</text><polygon fill="#181818" points="653,613.7871,663,617.7871,653,621.7871,657,617.7871" style="stroke:#181818;stroke-width:1.0;"/><line style="stroke:#181818;stroke-width:1.0;stroke-dasharray:2.0,2.0;" x1="573" x2="659" y1="617.7871" y2="617.7871"/><text fill="#000000" font-family="sans-serif" font-size="13" font-weight="bold" lengthAdjust="spacing" textLength="18" x="580" y="613.0449">12</text><text fill="#000000" font-family="sans-serif" font-size="13" lengthAdjust="spacing" textLength="46" x="602" y="613.0449">create()</text><rect fill="#E2E2F0" height="46.9766" rx="2.5" ry="2.5" style="stroke:#181818;stroke-width:0.5;" width="73" x="665" y="596.4766"/><text fill="#000000" font-family="sans-serif" font-size="14" lengthAdjust="spacing" textLength="59" x="672" y="617.0117">elevator:</text><text fill="#000000" font-family="sans-serif" font-size="14" lengthAdjust="spacing" textLength="55" x="674" y="633.5">Elevator</text><path d="M40,661.4531 L102,661.4531 L102,668.7637 L92,678.7637 L40,678.7637 L40,661.4531 " fill="#EEEEEE" style="stroke:#000000;stroke-width:1.5;"/><rect fill="none" height="354.0371" style="stroke:#000000;stroke-width:1.5;" width="1031" x="40" y="661.4531"/><text fill="#000000" font-family="sans-serif" font-size="13" font-weight="bold" lengthAdjust="spacing" textLength="17" x="55" y="675.0215">alt</text><text fill="#000000" font-family="sans-serif" font-size="11" font-weight="bold" lengthAdjust="spacing" textLength="119" x="117" y="674.0879">[elevator not created]</text><polygon fill="#181818" points="446,696.0742,436,700.0742,446,704.0742,442,700.0742" style="stroke:#181818;stroke-width:1.0;"/><line style="stroke:#181818;stroke-width:1.0;stroke-dasharray:2.0,2.0;" x1="440" x2="562" y1="700.0742" y2="700.0742"/><text fill="#000000" font-family="sans-serif" font-size="13" font-weight="bold" lengthAdjust="spacing" textLength="18" x="452" y="695.332">13</text><text fill="#000000" font-family="sans-serif" font-size="13" lengthAdjust="spacing" textLength="30" x="474" y="695.332">error</text><polygon fill="#181818" points="308,725.3848,298,729.3848,308,733.3848,304,729.3848" style="stroke:#181818;stroke-width:1.0;"/><line style="stroke:#181818;stroke-width:1.0;stroke-dasharray:2.0,2.0;" x1="302" x2="424" y1="729.3848" y2="729.3848"/><text fill="#000000" font-family="sans-serif" font-size="13" font-weight="bold" lengthAdjust="spacing" textLength="18" x="314" y="724.6426">14</text><text fill="#000000" font-family="sans-serif" font-size="13" lengthAdjust="spacing" textLength="66" x="336" y="724.6426">error (422)</text><polygon fill="#181818" points="74,754.6953,64,758.6953,74,762.6953,70,758.6953" style="stroke:#181818;stroke-width:1.0;"/><line style="stroke:#181818;stroke-width:1.0;stroke-dasharray:2.0,2.0;" x1="68" x2="286" y1="758.6953" y2="758.6953"/><text fill="#000000" font-family="sans-serif" font-size="13" font-weight="bold" lengthAdjust="spacing" textLength="18" x="80" y="753.9531">15</text><text fill="#000000" font-family="sans-serif" font-size="13" lengthAdjust="spacing" textLength="178" x="102" y="753.9531">422: Unprocessable Content</text><line style="stroke:#000000;stroke-width:1.0;stroke-dasharray:2.0,2.0;" x1="40" x2="1071" y1="767.6953" y2="767.6953"/><text fill="#000000" font-family="sans-serif" font-size="11" font-weight="bold" lengthAdjust="spacing" textLength="170" x="45" y="778.3301">[elevator created successfully]</text><polygon fill="#181818" points="1004.5,798.9609,1014.5,802.9609,1004.5,806.9609,1008.5,802.9609" style="stroke:#181818;stroke-width:1.0;"/><line style="stroke:#181818;stroke-width:1.0;" x1="573" x2="1010.5" y1="802.9609" y2="802.9609"/><text fill="#000000" font-family="sans-serif" font-size="13" font-weight="bold" lengthAdjust="spacing" textLength="18" x="580" y="798.2188">16</text><text fill="#000000" font-family="sans-serif" font-size="13" lengthAdjust="spacing" textLength="86" x="602" y="798.2188">save(elevator)</text><polygon fill="#181818" points="764,828.2715,774,832.2715,764,836.2715,768,832.2715" style="stroke:#181818;stroke-width:1.0;"/><line style="stroke:#181818;stroke-width:1.0;" x1="573" x2="770" y1="832.2715" y2="832.2715"/><text fill="#000000" font-family="sans-serif" font-size="13" font-weight="bold" lengthAdjust="spacing" textLength="18" x="580" y="827.5293">17</text><text fill="#000000" font-family="sans-serif" font-size="13" lengthAdjust="spacing" textLength="99" x="602" y="827.5293">toDTO(elevator)</text><polygon fill="#181818" points="916,857.582,926,861.582,916,865.582,920,861.582" style="stroke:#181818;stroke-width:1.0;"/><line style="stroke:#181818;stroke-width:1.0;stroke-dasharray:2.0,2.0;" x1="786" x2="922" y1="861.582" y2="861.582"/><text fill="#000000" font-family="sans-serif" font-size="13" font-weight="bold" lengthAdjust="spacing" textLength="18" x="793" y="856.8398">18</text><text fill="#000000" font-family="sans-serif" font-size="13" lengthAdjust="spacing" textLength="96" x="815" y="856.8398">create(elevator)</text><rect fill="#E2E2F0" height="46.9766" rx="2.5" ry="2.5" style="stroke:#181818;stroke-width:0.5;" width="44" x="928" y="840.2715"/><text fill="#000000" font-family="sans-serif" font-size="14" lengthAdjust="spacing" textLength="27" x="936.5" y="860.8066">dto:</text><text fill="#000000" font-family="sans-serif" font-size="14" lengthAdjust="spacing" textLength="30" x="935" y="877.2949">DTO</text><polygon fill="#181818" points="584,915.5586,574,919.5586,584,923.5586,580,919.5586" style="stroke:#181818;stroke-width:1.0;"/><line style="stroke:#181818;stroke-width:1.0;stroke-dasharray:2.0,2.0;" x1="578" x2="780" y1="919.5586" y2="919.5586"/><text fill="#000000" font-family="sans-serif" font-size="13" font-weight="bold" lengthAdjust="spacing" textLength="18" x="590" y="914.8164">19</text><text fill="#000000" font-family="sans-serif" font-size="13" lengthAdjust="spacing" textLength="21" x="612" y="914.8164">dto</text><polygon fill="#181818" points="446,944.8691,436,948.8691,446,952.8691,442,948.8691" style="stroke:#181818;stroke-width:1.0;"/><line style="stroke:#181818;stroke-width:1.0;stroke-dasharray:2.0,2.0;" x1="440" x2="562" y1="948.8691" y2="948.8691"/><text fill="#000000" font-family="sans-serif" font-size="13" font-weight="bold" lengthAdjust="spacing" textLength="18" x="452" y="944.127">20</text><text fill="#000000" font-family="sans-serif" font-size="13" lengthAdjust="spacing" textLength="21" x="474" y="944.127">dto</text><polygon fill="#181818" points="308,974.1797,298,978.1797,308,982.1797,304,978.1797" style="stroke:#181818;stroke-width:1.0;"/><line style="stroke:#181818;stroke-width:1.0;stroke-dasharray:2.0,2.0;" x1="302" x2="424" y1="978.1797" y2="978.1797"/><text fill="#000000" font-family="sans-serif" font-size="13" font-weight="bold" lengthAdjust="spacing" textLength="18" x="314" y="973.4375">21</text><text fill="#000000" font-family="sans-serif" font-size="13" lengthAdjust="spacing" textLength="57" x="336" y="973.4375">dto (201)</text><polygon fill="#181818" points="74,1003.4902,64,1007.4902,74,1011.4902,70,1007.4902" style="stroke:#181818;stroke-width:1.0;"/><line style="stroke:#181818;stroke-width:1.0;stroke-dasharray:2.0,2.0;" x1="68" x2="286" y1="1007.4902" y2="1007.4902"/><text fill="#000000" font-family="sans-serif" font-size="13" font-weight="bold" lengthAdjust="spacing" textLength="18" x="80" y="1002.748">22</text><text fill="#000000" font-family="sans-serif" font-size="13" lengthAdjust="spacing" textLength="80" x="102" y="1002.748">201: Created</text><!--SRC=[dLNBRjim4BppAnRkHGfWE35wqg414Zj0WGOj-hZrGadhb2XD2YHb92ZwxrrA5YtQbYMN9uax-vXPSibhfrMzpT4mLd7ZH24ghXpCxkzdm2tKWh4j5sfZ-1RXUSLo_Ggp1rxydgzLEODtdyJBB_SWQupTl-hQOHF1n8P7hPpHKg9fh8KpCWPyGxCJHUjhTyLHMIXnnvqssK-rtdyso6u_HZ_pgjedsl8gjfLEKv3Lzy-DcVuOgXA87civhhZZERSuO-N-YrXXfQsWD6yjDVezUDK2vlCFO38Wa8DaaTT2baAzsCKVKVvTT2Mc36ZnmWdwHT87zii0kNj188F281axYaaQGC6lKGvwg_6a22JQfG1H42ym72tlxtaGEOg3hy8wctHSFfRfYSE1YjVZs5fYR3zrbmwwyA2qWuskLNa22wKTH49Zj3aBRBNmB3eO9E_lbkbPi6cGrBuC29F15uE5LgLmGYjuuaBYQJKewJo4gaSgRiNCYAbSUpcJZTJQs9ITTRaivoH9ErcRF8bDHsIzIjghvVrVYOFChLeJw-zksSrDk0J9WD2Hs660325xeWViS5WIlqCruhUL39T_TGi6sx2yq8RZLYof5JzKPNI1rl9S8lZnZCeDCsiw4gZjQO6j2nzYKqlvDiun31VBTvWSvk95p_5hSIOFJNrAupID-IIUlnFQF7otJchohyjOIRuMBpqzDVt3EQsiA9j_h632wZAsBy8KhnxxCNWFwjbVSxB7GaVdci2GB6_l9fzgmcRmE7BVS62KdDi_tkinxx-VlUtmDlTF4_i7]--></g></svg>