<?xml version="1.0" encoding="us-ascii" standalone="no"?><svg xmlns="http://www.w3.org/2000/svg" xmlns:xlink="http://www.w3.org/1999/xlink" contentStyleType="text/css" height="1242px" preserveAspectRatio="none" style="width:1162px;height:1242px;background:#FFFFFF;" version="1.1" viewBox="0 0 1162 1242" width="1162px" zoomAndPan="magnify"><defs/><g><rect fill="#FFFFFF" height="1054.8242" style="stroke:#181818;stroke-width:1.0;" width="10" x="232" y="98.7988"/><rect fill="#FFFFFF" height="1025.5137" style="stroke:#181818;stroke-width:1.0;" width="10" x="370" y="128.1094"/><rect fill="#FFFFFF" height="996.2031" style="stroke:#181818;stroke-width:1.0;" width="10" x="529" y="157.4199"/><rect fill="#FFFFFF" height="87.2871" style="stroke:#181818;stroke-width:1.0;" width="10" x="742" y="949.4043"/><rect fill="#FFFFFF" height="47.9766" style="stroke:#181818;stroke-width:1.0;" width="10" x="911" y="988.7148"/><rect fill="#FFFFFF" height="87.9316" style="stroke:#181818;stroke-width:1.0;" width="10" x="986.5" y="186.7305"/><rect fill="#FFFFFF" height="87.9316" style="stroke:#181818;stroke-width:1.0;" width="10" x="986.5" y="431.1699"/><rect fill="#FFFFFF" height="59.3105" style="stroke:#181818;stroke-width:1.0;" width="10" x="986.5" y="860.7832"/><rect fill="#FFFFFF" height="29.3105" style="stroke:#181818;stroke-width:1.0;" width="10" x="1085.5" y="216.041"/><rect fill="#FFFFFF" height="29.3105" style="stroke:#181818;stroke-width:1.0;" width="10" x="1085.5" y="460.4805"/><rect fill="#FFFFFF" height="30" style="stroke:#181818;stroke-width:1.0;" width="10" x="1085.5" y="890.0938"/><rect fill="none" height="856.9609" style="stroke:#000000;stroke-width:1.5;" width="1152" x="3" y="289.6621"/><rect fill="none" height="605.5215" style="stroke:#000000;stroke-width:1.5;" width="1142" x="3" y="534.1016"/><rect fill="none" height="413.3477" style="stroke:#000000;stroke-width:1.5;" width="1132" x="3" y="719.2754"/><line style="stroke:#181818;stroke-width:0.5;stroke-dasharray:5.0,5.0;" x1="237" x2="237" y1="67.4883" y2="1163.623"/><line style="stroke:#181818;stroke-width:0.5;stroke-dasharray:5.0,5.0;" x1="375" x2="375" y1="67.4883" y2="1163.623"/><line style="stroke:#181818;stroke-width:0.5;stroke-dasharray:5.0,5.0;" x1="534" x2="534" y1="67.4883" y2="1163.623"/><line style="stroke:#181818;stroke-width:0.5;stroke-dasharray:5.0,5.0;" x1="667" x2="667" y1="693.2871" y2="1163.623"/><line style="stroke:#181818;stroke-width:0.5;stroke-dasharray:5.0,5.0;" x1="747" x2="747" y1="67.4883" y2="1163.623"/><line style="stroke:#181818;stroke-width:0.5;stroke-dasharray:5.0,5.0;" x1="916" x2="916" y1="996.3926" y2="1163.623"/><line style="stroke:#181818;stroke-width:0.5;stroke-dasharray:5.0,5.0;" x1="991" x2="991" y1="67.4883" y2="1163.623"/><line style="stroke:#181818;stroke-width:0.5;stroke-dasharray:5.0,5.0;" x1="1090" x2="1090" y1="67.4883" y2="1163.623"/><rect fill="#E2E2F0" height="30.4883" rx="2.5" ry="2.5" style="stroke:#181818;stroke-width:0.5;" width="54" x="210" y="36"/><text fill="#000000" font-family="sans-serif" font-size="14" lengthAdjust="spacing" textLength="40" x="217" y="56.5352">Route</text><rect fill="#E2E2F0" height="30.4883" rx="2.5" ry="2.5" style="stroke:#181818;stroke-width:0.5;" width="54" x="210" y="1162.623"/><text fill="#000000" font-family="sans-serif" font-size="14" lengthAdjust="spacing" textLength="40" x="217" y="1183.1582">Route</text><rect fill="#E2E2F0" height="30.4883" rx="2.5" ry="2.5" style="stroke:#181818;stroke-width:0.5;" width="84" x="333" y="36"/><text fill="#000000" font-family="sans-serif" font-size="14" lengthAdjust="spacing" textLength="70" x="340" y="56.5352">Controller</text><rect fill="#E2E2F0" height="30.4883" rx="2.5" ry="2.5" style="stroke:#181818;stroke-width:0.5;" width="84" x="333" y="1162.623"/><text fill="#000000" font-family="sans-serif" font-size="14" lengthAdjust="spacing" textLength="70" x="340" y="1183.1582">Controller</text><rect fill="#E2E2F0" height="30.4883" rx="2.5" ry="2.5" style="stroke:#181818;stroke-width:0.5;" width="62" x="503" y="36"/><text fill="#000000" font-family="sans-serif" font-size="14" lengthAdjust="spacing" textLength="48" x="510" y="56.5352">Service</text><rect fill="#E2E2F0" height="30.4883" rx="2.5" ry="2.5" style="stroke:#181818;stroke-width:0.5;" width="62" x="503" y="1162.623"/><text fill="#000000" font-family="sans-serif" font-size="14" lengthAdjust="spacing" textLength="48" x="510" y="1183.1582">Service</text><rect fill="#E2E2F0" height="46.9766" rx="2.5" ry="2.5" style="stroke:#181818;stroke-width:0.5;" width="73" x="631" y="1162.623"/><text fill="#000000" font-family="sans-serif" font-size="14" lengthAdjust="spacing" textLength="59" x="638" y="1183.1582">elevator:</text><text fill="#000000" font-family="sans-serif" font-size="14" lengthAdjust="spacing" textLength="55" x="640" y="1199.6465">Elevator</text><rect fill="#E2E2F0" height="30.4883" rx="2.5" ry="2.5" style="stroke:#181818;stroke-width:0.5;" width="66" x="714" y="36"/><text fill="#000000" font-family="sans-serif" font-size="14" lengthAdjust="spacing" textLength="52" x="721" y="56.5352">Mapper</text><rect fill="#E2E2F0" height="30.4883" rx="2.5" ry="2.5" style="stroke:#181818;stroke-width:0.5;" width="66" x="714" y="1162.623"/><text fill="#000000" font-family="sans-serif" font-size="14" lengthAdjust="spacing" textLength="52" x="721" y="1183.1582">Mapper</text><rect fill="#E2E2F0" height="46.9766" rx="2.5" ry="2.5" style="stroke:#181818;stroke-width:0.5;" width="44" x="894" y="1162.623"/><text fill="#000000" font-family="sans-serif" font-size="14" lengthAdjust="spacing" textLength="27" x="902.5" y="1183.1582">dto:</text><text fill="#000000" font-family="sans-serif" font-size="14" lengthAdjust="spacing" textLength="30" x="901" y="1199.6465">DTO</text><rect fill="#E2E2F0" height="30.4883" rx="2.5" ry="2.5" style="stroke:#181818;stroke-width:0.5;" width="87" x="948" y="36"/><text fill="#000000" font-family="sans-serif" font-size="14" lengthAdjust="spacing" textLength="73" x="955" y="56.5352">Repository</text><rect fill="#E2E2F0" height="30.4883" rx="2.5" ry="2.5" style="stroke:#181818;stroke-width:0.5;" width="87" x="948" y="1162.623"/><text fill="#000000" font-family="sans-serif" font-size="14" lengthAdjust="spacing" textLength="73" x="955" y="1183.1582">Repository</text><text fill="#000000" font-family="sans-serif" font-size="14" lengthAdjust="spacing" textLength="63" x="1056" y="64.5352">Database</text><path d="M1072.5,15 C1072.5,5 1090.5,5 1090.5,5 C1090.5,5 1108.5,5 1108.5,15 L1108.5,41 C1108.5,51 1090.5,51 1090.5,51 C1090.5,51 1072.5,51 1072.5,41 L1072.5,15 " fill="#E2E2F0" style="stroke:#181818;stroke-width:1.5;"/><path d="M1072.5,15 C1072.5,25 1090.5,25 1090.5,25 C1090.5,25 1108.5,25 1108.5,15 " fill="none" style="stroke:#181818;stroke-width:1.5;"/><text fill="#000000" font-family="sans-serif" font-size="14" lengthAdjust="spacing" textLength="63" x="1056" y="1176.1582">Database</text><path d="M1072.5,1189.1113 C1072.5,1179.1113 1090.5,1179.1113 1090.5,1179.1113 C1090.5,1179.1113 1108.5,1179.1113 1108.5,1189.1113 L1108.5,1215.1113 C1108.5,1225.1113 1090.5,1225.1113 1090.5,1225.1113 C1090.5,1225.1113 1072.5,1225.1113 1072.5,1215.1113 L1072.5,1189.1113 " fill="#E2E2F0" style="stroke:#181818;stroke-width:1.5;"/><path d="M1072.5,1189.1113 C1072.5,1199.1113 1090.5,1199.1113 1090.5,1199.1113 C1090.5,1199.1113 1108.5,1199.1113 1108.5,1189.1113 " fill="none" style="stroke:#181818;stroke-width:1.5;"/><rect fill="#FFFFFF" height="1054.8242" style="stroke:#181818;stroke-width:1.0;" width="10" x="232" y="98.7988"/><rect fill="#FFFFFF" height="1025.5137" style="stroke:#181818;stroke-width:1.0;" width="10" x="370" y="128.1094"/><rect fill="#FFFFFF" height="996.2031" style="stroke:#181818;stroke-width:1.0;" width="10" x="529" y="157.4199"/><rect fill="#FFFFFF" height="87.2871" style="stroke:#181818;stroke-width:1.0;" width="10" x="742" y="949.4043"/><rect fill="#FFFFFF" height="47.9766" style="stroke:#181818;stroke-width:1.0;" width="10" x="911" y="988.7148"/><rect fill="#FFFFFF" height="87.9316" style="stroke:#181818;stroke-width:1.0;" width="10" x="986.5" y="186.7305"/><rect fill="#FFFFFF" height="87.9316" style="stroke:#181818;stroke-width:1.0;" width="10" x="986.5" y="431.1699"/><rect fill="#FFFFFF" height="59.3105" style="stroke:#181818;stroke-width:1.0;" width="10" x="986.5" y="860.7832"/><rect fill="#FFFFFF" height="29.3105" style="stroke:#181818;stroke-width:1.0;" width="10" x="1085.5" y="216.041"/><rect fill="#FFFFFF" height="29.3105" style="stroke:#181818;stroke-width:1.0;" width="10" x="1085.5" y="460.4805"/><rect fill="#FFFFFF" height="30" style="stroke:#181818;stroke-width:1.0;" width="10" x="1085.5" y="890.0938"/><polygon fill="#181818" points="220,94.7988,230,98.7988,220,102.7988,224,98.7988" style="stroke:#181818;stroke-width:1.0;"/><line style="stroke:#181818;stroke-width:1.0;" x1="0" x2="226" y1="98.7988" y2="98.7988"/><text fill="#000000" font-family="sans-serif" font-size="13" font-weight="bold" lengthAdjust="spacing" textLength="9" x="7" y="94.0566">1</text><text fill="#000000" font-family="sans-serif" font-size="13" lengthAdjust="spacing" textLength="193" x="20" y="94.0566">POST /buildings/{id}/elevators</text><polygon fill="#181818" points="358,124.1094,368,128.1094,358,132.1094,362,128.1094" style="stroke:#181818;stroke-width:1.0;"/><line style="stroke:#181818;stroke-width:1.0;" x1="242" x2="364" y1="128.1094" y2="128.1094"/><text fill="#000000" font-family="sans-serif" font-size="13" font-weight="bold" lengthAdjust="spacing" textLength="9" x="249" y="123.3672">2</text><text fill="#000000" font-family="sans-serif" font-size="13" lengthAdjust="spacing" textLength="96" x="262" y="123.3672">createElevator()</text><polygon fill="#181818" points="517,153.4199,527,157.4199,517,161.4199,521,157.4199" style="stroke:#181818;stroke-width:1.0;"/><line style="stroke:#181818;stroke-width:1.0;" x1="380" x2="523" y1="157.4199" y2="157.4199"/><text fill="#000000" font-family="sans-serif" font-size="13" font-weight="bold" lengthAdjust="spacing" textLength="9" x="387" y="152.6777">3</text><text fill="#000000" font-family="sans-serif" font-size="13" lengthAdjust="spacing" textLength="117" x="400" y="152.6777">createElevator(dto)</text><polygon fill="#181818" points="974.5,182.7305,984.5,186.7305,974.5,190.7305,978.5,186.7305" style="stroke:#181818;stroke-width:1.0;"/><line style="stroke:#181818;stroke-width:1.0;" x1="539" x2="980.5" y1="186.7305" y2="186.7305"/><text fill="#000000" font-family="sans-serif" font-size="13" font-weight="bold" lengthAdjust="spacing" textLength="9" x="546" y="181.9883">4</text><text fill="#000000" font-family="sans-serif" font-size="13" lengthAdjust="spacing" textLength="163" x="559" y="181.9883">findByCode(buildingCode)</text><polygon fill="#181818" points="1073.5,212.041,1083.5,216.041,1073.5,220.041,1077.5,216.041" style="stroke:#181818;stroke-width:1.0;"/><line style="stroke:#181818;stroke-width:1.0;" x1="996.5" x2="1079.5" y1="216.041" y2="216.041"/><text fill="#000000" font-family="sans-serif" font-size="13" font-weight="bold" lengthAdjust="spacing" textLength="9" x="1003.5" y="211.2988">5</text><text fill="#000000" font-family="sans-serif" font-size="13" lengthAdjust="spacing" textLength="33" x="1016.5" y="211.2988">find()</text><polygon fill="#181818" points="1007.5,241.3516,997.5,245.3516,1007.5,249.3516,1003.5,245.3516" style="stroke:#181818;stroke-width:1.0;"/><line style="stroke:#181818;stroke-width:1.0;stroke-dasharray:2.0,2.0;" x1="1001.5" x2="1089.5" y1="245.3516" y2="245.3516"/><text fill="#000000" font-family="sans-serif" font-size="13" font-weight="bold" lengthAdjust="spacing" textLength="9" x="1013.5" y="240.6094">6</text><text fill="#000000" font-family="sans-serif" font-size="13" lengthAdjust="spacing" textLength="52" x="1026.5" y="240.6094">building</text><polygon fill="#181818" points="550,270.6621,540,274.6621,550,278.6621,546,274.6621" style="stroke:#181818;stroke-width:1.0;"/><line style="stroke:#181818;stroke-width:1.0;stroke-dasharray:2.0,2.0;" x1="544" x2="990.5" y1="274.6621" y2="274.6621"/><text fill="#000000" font-family="sans-serif" font-size="13" font-weight="bold" lengthAdjust="spacing" textLength="9" x="556" y="269.9199">7</text><text fill="#000000" font-family="sans-serif" font-size="13" lengthAdjust="spacing" textLength="52" x="569" y="269.9199">building</text><path d="M3,289.6621 L65,289.6621 L65,296.9727 L55,306.9727 L3,306.9727 L3,289.6621 " fill="#EEEEEE" style="stroke:#000000;stroke-width:1.5;"/><rect fill="none" height="856.9609" style="stroke:#000000;stroke-width:1.5;" width="1152" x="3" y="289.6621"/><text fill="#000000" font-family="sans-serif" font-size="13" font-weight="bold" lengthAdjust="spacing" textLength="17" x="18" y="303.2305">alt</text><text fill="#000000" font-family="sans-serif" font-size="11" font-weight="bold" lengthAdjust="spacing" textLength="114" x="80" y="302.2969">[building not found]</text><polygon fill="#181818" points="391,324.2832,381,328.2832,391,332.2832,387,328.2832" style="stroke:#181818;stroke-width:1.0;"/><line style="stroke:#181818;stroke-width:1.0;stroke-dasharray:2.0,2.0;" x1="385" x2="528" y1="328.2832" y2="328.2832"/><text fill="#000000" font-family="sans-serif" font-size="13" font-weight="bold" lengthAdjust="spacing" textLength="9" x="397" y="323.541">8</text><text fill="#000000" font-family="sans-serif" font-size="13" lengthAdjust="spacing" textLength="30" x="410" y="323.541">error</text><polygon fill="#181818" points="253,353.5938,243,357.5938,253,361.5938,249,357.5938" style="stroke:#181818;stroke-width:1.0;"/><line style="stroke:#181818;stroke-width:1.0;stroke-dasharray:2.0,2.0;" x1="247" x2="369" y1="357.5938" y2="357.5938"/><text fill="#000000" font-family="sans-serif" font-size="13" font-weight="bold" lengthAdjust="spacing" textLength="9" x="259" y="352.8516">9</text><text fill="#000000" font-family="sans-serif" font-size="13" lengthAdjust="spacing" textLength="66" x="272" y="352.8516">error (404)</text><polygon fill="#181818" points="11,382.9043,1,386.9043,11,390.9043,7,386.9043" style="stroke:#181818;stroke-width:1.0;"/><line style="stroke:#181818;stroke-width:1.0;stroke-dasharray:2.0,2.0;" x1="5" x2="231" y1="386.9043" y2="386.9043"/><text fill="#000000" font-family="sans-serif" font-size="13" font-weight="bold" lengthAdjust="spacing" textLength="18" x="17" y="382.1621">10</text><text fill="#000000" font-family="sans-serif" font-size="13" lengthAdjust="spacing" textLength="96" x="39" y="382.1621">404: Not found</text><line style="stroke:#000000;stroke-width:1.0;stroke-dasharray:2.0,2.0;" x1="3" x2="1155" y1="395.9043" y2="395.9043"/><text fill="#000000" font-family="sans-serif" font-size="11" font-weight="bold" lengthAdjust="spacing" textLength="92" x="8" y="406.5391">[building found]</text><polygon fill="#181818" points="974.5,427.1699,984.5,431.1699,974.5,435.1699,978.5,431.1699" style="stroke:#181818;stroke-width:1.0;"/><line style="stroke:#181818;stroke-width:1.0;" x1="539" x2="980.5" y1="431.1699" y2="431.1699"/><text fill="#000000" font-family="sans-serif" font-size="13" font-weight="bold" lengthAdjust="spacing" textLength="18" x="546" y="426.4277">11</text><text fill="#000000" font-family="sans-serif" font-size="13" lengthAdjust="spacing" textLength="201" x="568" y="426.4277">findFloor(building,floorNumber)</text><polygon fill="#181818" points="1073.5,456.4805,1083.5,460.4805,1073.5,464.4805,1077.5,460.4805" style="stroke:#181818;stroke-width:1.0;"/><line style="stroke:#181818;stroke-width:1.0;" x1="996.5" x2="1079.5" y1="460.4805" y2="460.4805"/><text fill="#000000" font-family="sans-serif" font-size="13" font-weight="bold" lengthAdjust="spacing" textLength="18" x="1003.5" y="455.7383">12</text><text fill="#000000" font-family="sans-serif" font-size="13" lengthAdjust="spacing" textLength="33" x="1025.5" y="455.7383">find()</text><polygon fill="#181818" points="1007.5,485.791,997.5,489.791,1007.5,493.791,1003.5,489.791" style="stroke:#181818;stroke-width:1.0;"/><line style="stroke:#181818;stroke-width:1.0;stroke-dasharray:2.0,2.0;" x1="1001.5" x2="1089.5" y1="489.791" y2="489.791"/><text fill="#000000" font-family="sans-serif" font-size="13" font-weight="bold" lengthAdjust="spacing" textLength="18" x="1013.5" y="485.0488">13</text><text fill="#000000" font-family="sans-serif" font-size="13" lengthAdjust="spacing" textLength="30" x="1035.5" y="485.0488">floor</text><polygon fill="#181818" points="550,515.1016,540,519.1016,550,523.1016,546,519.1016" style="stroke:#181818;stroke-width:1.0;"/><line style="stroke:#181818;stroke-width:1.0;stroke-dasharray:2.0,2.0;" x1="544" x2="990.5" y1="519.1016" y2="519.1016"/><text fill="#000000" font-family="sans-serif" font-size="13" font-weight="bold" lengthAdjust="spacing" textLength="18" x="556" y="514.3594">14</text><text fill="#000000" font-family="sans-serif" font-size="13" lengthAdjust="spacing" textLength="30" x="578" y="514.3594">floor</text><path d="M3,534.1016 L65,534.1016 L65,541.4121 L55,551.4121 L3,551.4121 L3,534.1016 " fill="#EEEEEE" style="stroke:#000000;stroke-width:1.5;"/><rect fill="none" height="605.5215" style="stroke:#000000;stroke-width:1.5;" width="1142" x="3" y="534.1016"/><text fill="#000000" font-family="sans-serif" font-size="13" font-weight="bold" lengthAdjust="spacing" textLength="17" x="18" y="547.6699">alt</text><text fill="#000000" font-family="sans-serif" font-size="11" font-weight="bold" lengthAdjust="spacing" textLength="109" x="80" y="546.7363">[floor(s) not found]</text><polygon fill="#181818" points="391,568.7227,381,572.7227,391,576.7227,387,572.7227" style="stroke:#181818;stroke-width:1.0;"/><line style="stroke:#181818;stroke-width:1.0;stroke-dasharray:2.0,2.0;" x1="385" x2="528" y1="572.7227" y2="572.7227"/><text fill="#000000" font-family="sans-serif" font-size="13" font-weight="bold" lengthAdjust="spacing" textLength="18" x="397" y="567.9805">15</text><text fill="#000000" font-family="sans-serif" font-size="13" lengthAdjust="spacing" textLength="30" x="419" y="567.9805">error</text><polygon fill="#181818" points="253,598.0332,243,602.0332,253,606.0332,249,602.0332" style="stroke:#181818;stroke-width:1.0;"/><line style="stroke:#181818;stroke-width:1.0;stroke-dasharray:2.0,2.0;" x1="247" x2="369" y1="602.0332" y2="602.0332"/><text fill="#000000" font-family="sans-serif" font-size="13" font-weight="bold" lengthAdjust="spacing" textLength="18" x="259" y="597.291">16</text><text fill="#000000" font-family="sans-serif" font-size="13" lengthAdjust="spacing" textLength="66" x="281" y="597.291">error (404)</text><polygon fill="#181818" points="11,627.3438,1,631.3438,11,635.3438,7,631.3438" style="stroke:#181818;stroke-width:1.0;"/><line style="stroke:#181818;stroke-width:1.0;stroke-dasharray:2.0,2.0;" x1="5" x2="231" y1="631.3438" y2="631.3438"/><text fill="#000000" font-family="sans-serif" font-size="13" font-weight="bold" lengthAdjust="spacing" textLength="18" x="17" y="626.6016">17</text><text fill="#000000" font-family="sans-serif" font-size="13" lengthAdjust="spacing" textLength="96" x="39" y="626.6016">404: Not found</text><line style="stroke:#000000;stroke-width:1.0;stroke-dasharray:2.0,2.0;" x1="3" x2="1145" y1="640.3438" y2="640.3438"/><text fill="#000000" font-family="sans-serif" font-size="11" font-weight="bold" lengthAdjust="spacing" textLength="79" x="8" y="650.9785">[floors found]</text><polygon fill="#181818" points="619,671.6094,629,675.6094,619,679.6094,623,675.6094" style="stroke:#181818;stroke-width:1.0;"/><line style="stroke:#181818;stroke-width:1.0;stroke-dasharray:2.0,2.0;" x1="539" x2="625" y1="675.6094" y2="675.6094"/><text fill="#000000" font-family="sans-serif" font-size="13" font-weight="bold" lengthAdjust="spacing" textLength="18" x="546" y="670.8672">18</text><text fill="#000000" font-family="sans-serif" font-size="13" lengthAdjust="spacing" textLength="46" x="568" y="670.8672">create()</text><rect fill="#E2E2F0" height="46.9766" rx="2.5" ry="2.5" style="stroke:#181818;stroke-width:0.5;" width="73" x="631" y="654.2988"/><text fill="#000000" font-family="sans-serif" font-size="14" lengthAdjust="spacing" textLength="59" x="638" y="674.834">elevator:</text><text fill="#000000" font-family="sans-serif" font-size="14" lengthAdjust="spacing" textLength="55" x="640" y="691.3223">Elevator</text><path d="M3,719.2754 L65,719.2754 L65,726.5859 L55,736.5859 L3,736.5859 L3,719.2754 " fill="#EEEEEE" style="stroke:#000000;stroke-width:1.5;"/><rect fill="none" height="413.3477" style="stroke:#000000;stroke-width:1.5;" width="1132" x="3" y="719.2754"/><text fill="#000000" font-family="sans-serif" font-size="13" font-weight="bold" lengthAdjust="spacing" textLength="17" x="18" y="732.8438">alt</text><text fill="#000000" font-family="sans-serif" font-size="11" font-weight="bold" lengthAdjust="spacing" textLength="119" x="80" y="731.9102">[elevator not created]</text><polygon fill="#181818" points="391,753.8965,381,757.8965,391,761.8965,387,757.8965" style="stroke:#181818;stroke-width:1.0;"/><line style="stroke:#181818;stroke-width:1.0;stroke-dasharray:2.0,2.0;" x1="385" x2="528" y1="757.8965" y2="757.8965"/><text fill="#000000" font-family="sans-serif" font-size="13" font-weight="bold" lengthAdjust="spacing" textLength="18" x="397" y="753.1543">19</text><text fill="#000000" font-family="sans-serif" font-size="13" lengthAdjust="spacing" textLength="30" x="419" y="753.1543">error</text><polygon fill="#181818" points="253,783.207,243,787.207,253,791.207,249,787.207" style="stroke:#181818;stroke-width:1.0;"/><line style="stroke:#181818;stroke-width:1.0;stroke-dasharray:2.0,2.0;" x1="247" x2="369" y1="787.207" y2="787.207"/><text fill="#000000" font-family="sans-serif" font-size="13" font-weight="bold" lengthAdjust="spacing" textLength="18" x="259" y="782.4648">20</text><text fill="#000000" font-family="sans-serif" font-size="13" lengthAdjust="spacing" textLength="66" x="281" y="782.4648">error (422)</text><polygon fill="#181818" points="11,812.5176,1,816.5176,11,820.5176,7,816.5176" style="stroke:#181818;stroke-width:1.0;"/><line style="stroke:#181818;stroke-width:1.0;stroke-dasharray:2.0,2.0;" x1="5" x2="231" y1="816.5176" y2="816.5176"/><text fill="#000000" font-family="sans-serif" font-size="13" font-weight="bold" lengthAdjust="spacing" textLength="18" x="17" y="811.7754">21</text><text fill="#000000" font-family="sans-serif" font-size="13" lengthAdjust="spacing" textLength="178" x="39" y="811.7754">422: Unprocessable Content</text><line style="stroke:#000000;stroke-width:1.0;stroke-dasharray:2.0,2.0;" x1="3" x2="1135" y1="825.5176" y2="825.5176"/><text fill="#000000" font-family="sans-serif" font-size="11" font-weight="bold" lengthAdjust="spacing" textLength="170" x="8" y="836.1523">[elevator created successfully]</text><polygon fill="#181818" points="974.5,856.7832,984.5,860.7832,974.5,864.7832,978.5,860.7832" style="stroke:#181818;stroke-width:1.0;"/><line style="stroke:#181818;stroke-width:1.0;" x1="539" x2="980.5" y1="860.7832" y2="860.7832"/><text fill="#000000" font-family="sans-serif" font-size="13" font-weight="bold" lengthAdjust="spacing" textLength="18" x="546" y="856.041">22</text><text fill="#000000" font-family="sans-serif" font-size="13" lengthAdjust="spacing" textLength="86" x="568" y="856.041">save(elevator)</text><polygon fill="#181818" points="1073.5,886.0938,1083.5,890.0938,1073.5,894.0938,1077.5,890.0938" style="stroke:#181818;stroke-width:1.0;"/><line style="stroke:#181818;stroke-width:1.0;" x1="996.5" x2="1079.5" y1="890.0938" y2="890.0938"/><text fill="#000000" font-family="sans-serif" font-size="13" font-weight="bold" lengthAdjust="spacing" textLength="18" x="1003.5" y="885.3516">23</text><text fill="#000000" font-family="sans-serif" font-size="13" lengthAdjust="spacing" textLength="36" x="1025.5" y="885.3516">save()</text><polygon fill="#181818" points="730,945.4043,740,949.4043,730,953.4043,734,949.4043" style="stroke:#181818;stroke-width:1.0;"/><line style="stroke:#181818;stroke-width:1.0;" x1="539" x2="736" y1="949.4043" y2="949.4043"/><text fill="#000000" font-family="sans-serif" font-size="13" font-weight="bold" lengthAdjust="spacing" textLength="18" x="546" y="944.6621">24</text><text fill="#000000" font-family="sans-serif" font-size="13" lengthAdjust="spacing" textLength="99" x="568" y="944.6621">toDTO(elevator)</text><polygon fill="#181818" points="882,974.7148,892,978.7148,882,982.7148,886,978.7148" style="stroke:#181818;stroke-width:1.0;"/><line style="stroke:#181818;stroke-width:1.0;stroke-dasharray:2.0,2.0;" x1="752" x2="888" y1="978.7148" y2="978.7148"/><text fill="#000000" font-family="sans-serif" font-size="13" font-weight="bold" lengthAdjust="spacing" textLength="18" x="759" y="973.9727">25</text><text fill="#000000" font-family="sans-serif" font-size="13" lengthAdjust="spacing" textLength="96" x="781" y="973.9727">create(elevator)</text><rect fill="#E2E2F0" height="46.9766" rx="2.5" ry="2.5" style="stroke:#181818;stroke-width:0.5;" width="44" x="894" y="957.4043"/><text fill="#000000" font-family="sans-serif" font-size="14" lengthAdjust="spacing" textLength="27" x="902.5" y="977.9395">dto:</text><text fill="#000000" font-family="sans-serif" font-size="14" lengthAdjust="spacing" textLength="30" x="901" y="994.4277">DTO</text><polygon fill="#181818" points="550,1032.6914,540,1036.6914,550,1040.6914,546,1036.6914" style="stroke:#181818;stroke-width:1.0;"/><line style="stroke:#181818;stroke-width:1.0;stroke-dasharray:2.0,2.0;" x1="544" x2="746" y1="1036.6914" y2="1036.6914"/><text fill="#000000" font-family="sans-serif" font-size="13" font-weight="bold" lengthAdjust="spacing" textLength="18" x="556" y="1031.9492">26</text><text fill="#000000" font-family="sans-serif" font-size="13" lengthAdjust="spacing" textLength="21" x="578" y="1031.9492">dto</text><polygon fill="#181818" points="391,1062.002,381,1066.002,391,1070.002,387,1066.002" style="stroke:#181818;stroke-width:1.0;"/><line style="stroke:#181818;stroke-width:1.0;stroke-dasharray:2.0,2.0;" x1="385" x2="528" y1="1066.002" y2="1066.002"/><text fill="#000000" font-family="sans-serif" font-size="13" font-weight="bold" lengthAdjust="spacing" textLength="18" x="397" y="1061.2598">27</text><text fill="#000000" font-family="sans-serif" font-size="13" lengthAdjust="spacing" textLength="21" x="419" y="1061.2598">dto</text><polygon fill="#181818" points="253,1091.3125,243,1095.3125,253,1099.3125,249,1095.3125" style="stroke:#181818;stroke-width:1.0;"/><line style="stroke:#181818;stroke-width:1.0;stroke-dasharray:2.0,2.0;" x1="247" x2="369" y1="1095.3125" y2="1095.3125"/><text fill="#000000" font-family="sans-serif" font-size="13" font-weight="bold" lengthAdjust="spacing" textLength="18" x="259" y="1090.5703">28</text><text fill="#000000" font-family="sans-serif" font-size="13" lengthAdjust="spacing" textLength="57" x="281" y="1090.5703">dto (201)</text><polygon fill="#181818" points="11,1120.623,1,1124.623,11,1128.623,7,1124.623" style="stroke:#181818;stroke-width:1.0;"/><line style="stroke:#181818;stroke-width:1.0;stroke-dasharray:2.0,2.0;" x1="5" x2="231" y1="1124.623" y2="1124.623"/><text fill="#000000" font-family="sans-serif" font-size="13" font-weight="bold" lengthAdjust="spacing" textLength="18" x="17" y="1119.8809">29</text><text fill="#000000" font-family="sans-serif" font-size="13" lengthAdjust="spacing" textLength="80" x="39" y="1119.8809">201: Created</text><!--SRC=[bLPDRvmm4BtpAqPx2QowsXJbjAfwwAQzDQcQz9HS37WZ90SZswoqglhVEpPWlepNyGdmU-FdDpCsf56yQjupAgAe9aALULcJIi7cDsyKtG2H8AOJHrufmHcZmipcIh0fu8cASvctN7dEPs5fpMMfkBYqiV5rjZ1bz4mGS7YjldUF1jf_dw9_ahhkbBoJUZfNA8v1xfyVpJI-1KWfY28PaHGszzrJIywYA7hPVGK11_Zr-FGC-wmfML5MRtB_jop-xNjvCYAvAl6Hed4Hu120F6qJKdD1SQRVLvmOW2KOByqdFGm5gUZXaecxIIpI1j1sswzwQAvMZNl36AUoAhvTZhoWSQzUloGJoY1V6mApOI9Xn2BhuiN90cCZe6lW6CZT3Q9w9GjeGNs1MY7M7cUKKOGsknELJ5aML5p1YJTLiLZ7E3Waa0g19JW7jQdgoiD08BwxlLjQy_9bjpCWd3t0WtDLoh3yhB9stYrhajWVZ6DTzBnF9_twO3hRao5dZgTvNarpIAgNwJQwt6L1hqMRvTmToflqFl666il4a_ZWv7-e04ABm1Q2KIe3DFO746ot_Mc1INDIReQysLFLZHkPQP7kGa1JhG9jQgkWMAsAO6jNxKtJP9KmM9oc1_XJrOBdL4gICGhw0gELSdADvNOVtHv0Dhbcdnh6BluDsJANv4pZFj2wpkkDw6f84ppnmaCQCwpfWdfgPW9UnUY1udZtViG4VOFxnEgmkWhmyjjkxPqOiCBK4ULtUhnIUz1SOunDz417CBtJqDRmXPmq1W8XJcy_1xG5eWvmzBGeTPr7yujgz3xQc_u9cNqoFpRZ8eh-0m00]--></g></svg>