<?xml version="1.0" encoding="us-ascii" standalone="no"?><svg xmlns="http://www.w3.org/2000/svg" xmlns:xlink="http://www.w3.org/1999/xlink" contentStyleType="text/css" height="1212px" preserveAspectRatio="none" style="width:1053px;height:1212px;background:#FFFFFF;" version="1.1" viewBox="0 0 1053 1212" width="1053px" zoomAndPan="magnify"><defs/><g><rect fill="#FFFFFF" height="1191.8994" style="stroke:#181818;stroke-width:1.5;" width="1042" x="5" y="15"/><path d="M36,15 L36,26.6211 L26,36.6211 L5,36.6211 " fill="none" style="stroke:#181818;stroke-width:1.5;"/><text fill="#000000" font-family="sans-serif" font-size="14" lengthAdjust="spacing" textLength="21" x="8" y="31.1074">MD</text><rect fill="#ADD8E6" height="1134.8945" style="stroke:#181818;stroke-width:0.5;" width="674" x="246" y="46.3838"/><text fill="#000000" font-family="sans-serif" font-size="13" font-weight="bold" lengthAdjust="spacing" textLength="59" x="553.5" y="60.4121">Back-End</text><rect fill="#DDDDDD" height="1134.8945" style="stroke:#181818;stroke-width:0.5;" width="82" x="922" y="46.3838"/><text fill="#000000" font-family="sans-serif" font-size="13" font-weight="bold" lengthAdjust="spacing" textLength="59" x="933.5" y="60.4121">Database</text><rect fill="#FFFFFF" height="938.0703" style="stroke:#181818;stroke-width:1.0;" width="10" x="271" y="165.5869"/><rect fill="#FFFFFF" height="906.7793" style="stroke:#181818;stroke-width:1.0;" width="10" x="401" y="196.8779"/><rect fill="#FFFFFF" height="875.4883" style="stroke:#181818;stroke-width:1.0;" width="10" x="531" y="228.1689"/><rect fill="#FFFFFF" height="437.7344" style="stroke:#181818;stroke-width:1.0;" width="10" x="656.5" y="666.9229"/><rect fill="#FFFFFF" height="93.5332" style="stroke:#181818;stroke-width:1.0;" width="10" x="732" y="887.251"/><rect fill="#FFFFFF" height="52.2422" style="stroke:#181818;stroke-width:1.0;" width="10" x="889" y="928.542"/><rect fill="#FFFFFF" height="30" style="stroke:#181818;stroke-width:1.0;" width="10" x="958" y="259.46"/><rect fill="#FFFFFF" height="31.291" style="stroke:#181818;stroke-width:1.0;" width="10" x="958" y="457.5459"/><rect fill="#FFFFFF" height="31.291" style="stroke:#181818;stroke-width:1.0;" width="10" x="958" y="855.96"/><rect fill="none" height="792.1973" style="stroke:#000000;stroke-width:1.5;" width="1010" x="20" y="304.46"/><rect fill="none" height="585.8203" style="stroke:#000000;stroke-width:1.5;" width="990" x="30" y="503.8369"/><rect fill="none" height="379.7832" style="stroke:#000000;stroke-width:1.5;" width="970" x="40" y="702.874"/><line style="stroke:#181818;stroke-width:0.5;stroke-dasharray:5.0,5.0;" x1="65" x2="65" y1="132.2959" y2="1113.6572"/><line style="stroke:#181818;stroke-width:0.5;stroke-dasharray:5.0,5.0;" x1="276" x2="276" y1="132.2959" y2="1113.6572"/><line style="stroke:#181818;stroke-width:0.5;stroke-dasharray:5.0,5.0;" x1="406" x2="406" y1="132.2959" y2="1113.6572"/><line style="stroke:#181818;stroke-width:0.5;stroke-dasharray:5.0,5.0;" x1="535.5" x2="535.5" y1="132.2959" y2="1113.6572"/><line style="stroke:#181818;stroke-width:0.5;stroke-dasharray:5.0,5.0;" x1="661" x2="661" y1="674.7529" y2="1113.6572"/><line style="stroke:#181818;stroke-width:0.5;stroke-dasharray:5.0,5.0;" x1="737" x2="737" y1="132.2959" y2="1113.6572"/><line style="stroke:#181818;stroke-width:0.5;stroke-dasharray:5.0,5.0;" x1="894" x2="894" y1="936.3721" y2="1113.6572"/><line style="stroke:#181818;stroke-width:0.5;stroke-dasharray:5.0,5.0;" x1="963" x2="963" y1="132.2959" y2="1113.6572"/><rect fill="#E2E2F0" height="32.6211" rx="2.5" ry="2.5" style="stroke:#181818;stroke-width:0.5;" width="30" x="50" y="98.6748"/><text fill="#000000" font-family="sans-serif" font-size="14" lengthAdjust="spacing" textLength="16" x="57" y="120.7822">??</text><rect fill="#E2E2F0" height="32.6211" rx="2.5" ry="2.5" style="stroke:#181818;stroke-width:0.5;" width="30" x="50" y="1112.6572"/><text fill="#000000" font-family="sans-serif" font-size="14" lengthAdjust="spacing" textLength="16" x="57" y="1134.7646">??</text><rect fill="#E2E2F0" height="32.6211" rx="2.5" ry="2.5" style="stroke:#181818;stroke-width:0.5;" width="52" x="250" y="98.6748"/><text fill="#000000" font-family="sans-serif" font-size="14" lengthAdjust="spacing" textLength="38" x="257" y="120.7822">Route</text><rect fill="#E2E2F0" height="32.6211" rx="2.5" ry="2.5" style="stroke:#181818;stroke-width:0.5;" width="52" x="250" y="1112.6572"/><text fill="#000000" font-family="sans-serif" font-size="14" lengthAdjust="spacing" textLength="38" x="257" y="1134.7646">Route</text><rect fill="#E2E2F0" height="32.6211" rx="2.5" ry="2.5" style="stroke:#181818;stroke-width:0.5;" width="76" x="368" y="98.6748"/><text fill="#000000" font-family="sans-serif" font-size="14" lengthAdjust="spacing" textLength="62" x="375" y="120.7822">Controller</text><rect fill="#E2E2F0" height="32.6211" rx="2.5" ry="2.5" style="stroke:#181818;stroke-width:0.5;" width="76" x="368" y="1112.6572"/><text fill="#000000" font-family="sans-serif" font-size="14" lengthAdjust="spacing" textLength="62" x="375" y="1134.7646">Controller</text><rect fill="#E2E2F0" height="32.6211" rx="2.5" ry="2.5" style="stroke:#181818;stroke-width:0.5;" width="61" x="505.5" y="98.6748"/><text fill="#000000" font-family="sans-serif" font-size="14" lengthAdjust="spacing" textLength="47" x="512.5" y="120.7822">Service</text><rect fill="#E2E2F0" height="32.6211" rx="2.5" ry="2.5" style="stroke:#181818;stroke-width:0.5;" width="61" x="505.5" y="1112.6572"/><text fill="#000000" font-family="sans-serif" font-size="14" lengthAdjust="spacing" textLength="47" x="512.5" y="1134.7646">Service</text><rect fill="#E2E2F0" height="51.2422" rx="2.5" ry="2.5" style="stroke:#181818;stroke-width:0.5;" width="69" x="627" y="1112.6572"/><text fill="#000000" font-family="sans-serif" font-size="14" lengthAdjust="spacing" textLength="55" x="634" y="1134.7646">elevator:</text><text fill="#000000" font-family="sans-serif" font-size="14" lengthAdjust="spacing" textLength="52" x="635.5" y="1153.3857">Elevator</text><rect fill="#E2E2F0" height="32.6211" rx="2.5" ry="2.5" style="stroke:#181818;stroke-width:0.5;" width="62" x="706" y="98.6748"/><text fill="#000000" font-family="sans-serif" font-size="14" lengthAdjust="spacing" textLength="48" x="713" y="120.7822">Mapper</text><rect fill="#E2E2F0" height="32.6211" rx="2.5" ry="2.5" style="stroke:#181818;stroke-width:0.5;" width="62" x="706" y="1112.6572"/><text fill="#000000" font-family="sans-serif" font-size="14" lengthAdjust="spacing" textLength="48" x="713" y="1134.7646">Mapper</text><rect fill="#E2E2F0" height="51.2422" rx="2.5" ry="2.5" style="stroke:#181818;stroke-width:0.5;" width="44" x="872" y="1112.6572"/><text fill="#000000" font-family="sans-serif" font-size="14" lengthAdjust="spacing" textLength="24" x="882" y="1134.7646">dto:</text><text fill="#000000" font-family="sans-serif" font-size="14" lengthAdjust="spacing" textLength="30" x="879" y="1153.3857">DTO</text><text fill="#000000" font-family="sans-serif" font-size="14" lengthAdjust="spacing" textLength="68" x="926" y="128.7822">Repository</text><path d="M945,77.6748 C945,67.6748 963,67.6748 963,67.6748 C963,67.6748 981,67.6748 981,77.6748 L981,103.6748 C981,113.6748 963,113.6748 963,113.6748 C963,113.6748 945,113.6748 945,103.6748 L945,77.6748 " fill="#E2E2F0" style="stroke:#181818;stroke-width:1.5;"/><path d="M945,77.6748 C945,87.6748 963,87.6748 963,87.6748 C963,87.6748 981,87.6748 981,77.6748 " fill="none" style="stroke:#181818;stroke-width:1.5;"/><text fill="#000000" font-family="sans-serif" font-size="14" lengthAdjust="spacing" textLength="68" x="926" y="1127.7646">Repository</text><path d="M945,1141.2783 C945,1131.2783 963,1131.2783 963,1131.2783 C963,1131.2783 981,1131.2783 981,1141.2783 L981,1167.2783 C981,1177.2783 963,1177.2783 963,1177.2783 C963,1177.2783 945,1177.2783 945,1167.2783 L945,1141.2783 " fill="#E2E2F0" style="stroke:#181818;stroke-width:1.5;"/><path d="M945,1141.2783 C945,1151.2783 963,1151.2783 963,1151.2783 C963,1151.2783 981,1151.2783 981,1141.2783 " fill="none" style="stroke:#181818;stroke-width:1.5;"/><rect fill="#FFFFFF" height="938.0703" style="stroke:#181818;stroke-width:1.0;" width="10" x="271" y="165.5869"/><rect fill="#FFFFFF" height="906.7793" style="stroke:#181818;stroke-width:1.0;" width="10" x="401" y="196.8779"/><rect fill="#FFFFFF" height="875.4883" style="stroke:#181818;stroke-width:1.0;" width="10" x="531" y="228.1689"/><rect fill="#FFFFFF" height="437.7344" style="stroke:#181818;stroke-width:1.0;" width="10" x="656.5" y="666.9229"/><rect fill="#FFFFFF" height="93.5332" style="stroke:#181818;stroke-width:1.0;" width="10" x="732" y="887.251"/><rect fill="#FFFFFF" height="52.2422" style="stroke:#181818;stroke-width:1.0;" width="10" x="889" y="928.542"/><rect fill="#FFFFFF" height="30" style="stroke:#181818;stroke-width:1.0;" width="10" x="958" y="259.46"/><rect fill="#FFFFFF" height="31.291" style="stroke:#181818;stroke-width:1.0;" width="10" x="958" y="457.5459"/><rect fill="#FFFFFF" height="31.291" style="stroke:#181818;stroke-width:1.0;" width="10" x="958" y="855.96"/><polygon fill="#181818" points="259,161.5869,269,165.5869,259,169.5869,263,165.5869" style="stroke:#181818;stroke-width:1.0;"/><line style="stroke:#181818;stroke-width:1.0;stroke-dasharray:2.0,2.0;" x1="65" x2="265" y1="165.5869" y2="165.5869"/><text fill="#000000" font-family="sans-serif" font-size="13" font-weight="bold" lengthAdjust="spacing" textLength="7" x="72" y="160.3242">1</text><text fill="#000000" font-family="sans-serif" font-size="13" lengthAdjust="spacing" textLength="169" x="83" y="160.3242">post (/buildings/{id}/elevators)</text><polygon fill="#181818" points="389,192.8779,399,196.8779,389,200.8779,393,196.8779" style="stroke:#181818;stroke-width:1.0;"/><line style="stroke:#181818;stroke-width:1.0;" x1="281" x2="395" y1="196.8779" y2="196.8779"/><text fill="#000000" font-family="sans-serif" font-size="13" font-weight="bold" lengthAdjust="spacing" textLength="7" x="288" y="191.6152">2</text><text fill="#000000" font-family="sans-serif" font-size="13" lengthAdjust="spacing" textLength="90" x="299" y="191.6152">createElevator()</text><polygon fill="#181818" points="519,224.1689,529,228.1689,519,232.1689,523,228.1689" style="stroke:#181818;stroke-width:1.0;"/><line style="stroke:#181818;stroke-width:1.0;" x1="411" x2="525" y1="228.1689" y2="228.1689"/><text fill="#000000" font-family="sans-serif" font-size="13" font-weight="bold" lengthAdjust="spacing" textLength="7" x="418" y="222.9063">3</text><text fill="#000000" font-family="sans-serif" font-size="13" lengthAdjust="spacing" textLength="90" x="429" y="222.9063">createElevator()</text><polygon fill="#181818" points="946,255.46,956,259.46,946,263.46,950,259.46" style="stroke:#181818;stroke-width:1.0;"/><line style="stroke:#181818;stroke-width:1.0;" x1="541" x2="952" y1="259.46" y2="259.46"/><text fill="#000000" font-family="sans-serif" font-size="13" font-weight="bold" lengthAdjust="spacing" textLength="7" x="548" y="254.1973">4</text><text fill="#000000" font-family="sans-serif" font-size="13" lengthAdjust="spacing" textLength="148" x="559" y="254.1973">findByCode(buildingCode)</text><path d="M20,304.46 L81,304.46 L81,313.751 L71,323.751 L20,323.751 L20,304.46 " fill="#EEEEEE" style="stroke:#000000;stroke-width:1.5;"/><rect fill="none" height="792.1973" style="stroke:#000000;stroke-width:1.5;" width="1010" x="20" y="304.46"/><text fill="#000000" font-family="sans-serif" font-size="13" font-weight="bold" lengthAdjust="spacing" textLength="16" x="35" y="319.4883">alt</text><text fill="#000000" font-family="sans-serif" font-size="11" font-weight="bold" lengthAdjust="spacing" textLength="108" x="96" y="318.3301">[building not found]</text><polygon fill="#181818" points="422,343.042,412,347.042,422,351.042,418,347.042" style="stroke:#181818;stroke-width:1.0;"/><line style="stroke:#181818;stroke-width:1.0;stroke-dasharray:2.0,2.0;" x1="416" x2="530" y1="347.042" y2="347.042"/><text fill="#000000" font-family="sans-serif" font-size="13" font-weight="bold" lengthAdjust="spacing" textLength="7" x="428" y="341.7793">5</text><text fill="#000000" font-family="sans-serif" font-size="13" lengthAdjust="spacing" textLength="26" x="439" y="341.7793">error</text><polygon fill="#181818" points="292,374.333,282,378.333,292,382.333,288,378.333" style="stroke:#181818;stroke-width:1.0;"/><line style="stroke:#181818;stroke-width:1.0;stroke-dasharray:2.0,2.0;" x1="286" x2="400" y1="378.333" y2="378.333"/><text fill="#000000" font-family="sans-serif" font-size="13" font-weight="bold" lengthAdjust="spacing" textLength="7" x="298" y="373.0703">6</text><text fill="#000000" font-family="sans-serif" font-size="13" lengthAdjust="spacing" textLength="59" x="309" y="373.0703">error (412)</text><polygon fill="#181818" points="76,405.624,66,409.624,76,413.624,72,409.624" style="stroke:#181818;stroke-width:1.0;"/><line style="stroke:#181818;stroke-width:1.0;stroke-dasharray:2.0,2.0;" x1="70" x2="270" y1="409.624" y2="409.624"/><text fill="#000000" font-family="sans-serif" font-size="13" font-weight="bold" lengthAdjust="spacing" textLength="7" x="82" y="404.3613">7</text><text fill="#000000" font-family="sans-serif" font-size="13" lengthAdjust="spacing" textLength="140" x="93" y="404.3613">412: Precondition Failed</text><line style="stroke:#000000;stroke-width:1.0;stroke-dasharray:2.0,2.0;" x1="20" x2="1030" y1="418.624" y2="418.624"/><text fill="#000000" font-family="sans-serif" font-size="11" font-weight="bold" lengthAdjust="spacing" textLength="87" x="25" y="430.4941">[building found]</text><polygon fill="#181818" points="946,453.5459,956,457.5459,946,461.5459,950,457.5459" style="stroke:#181818;stroke-width:1.0;"/><line style="stroke:#181818;stroke-width:1.0;" x1="541" x2="952" y1="457.5459" y2="457.5459"/><text fill="#000000" font-family="sans-serif" font-size="13" font-weight="bold" lengthAdjust="spacing" textLength="7" x="548" y="452.2832">8</text><text fill="#000000" font-family="sans-serif" font-size="13" lengthAdjust="spacing" textLength="239" x="559" y="452.2832">existsInBuilding(building,elevatorIdentifier)</text><polygon fill="#181818" points="951,484.8369,961,488.8369,951,492.8369,955,488.8369" style="stroke:#181818;stroke-width:1.0;"/><line style="stroke:#181818;stroke-width:1.0;" x1="541" x2="957" y1="488.8369" y2="488.8369"/><text fill="#000000" font-family="sans-serif" font-size="13" font-weight="bold" lengthAdjust="spacing" textLength="7" x="548" y="483.5742">9</text><text fill="#000000" font-family="sans-serif" font-size="13" lengthAdjust="spacing" textLength="145" x="559" y="483.5742">find(building,floorNumber)</text><path d="M30,503.8369 L91,503.8369 L91,513.1279 L81,523.1279 L30,523.1279 L30,503.8369 " fill="#EEEEEE" style="stroke:#000000;stroke-width:1.5;"/><rect fill="none" height="585.8203" style="stroke:#000000;stroke-width:1.5;" width="990" x="30" y="503.8369"/><text fill="#000000" font-family="sans-serif" font-size="13" font-weight="bold" lengthAdjust="spacing" textLength="16" x="45" y="518.8652">alt</text><text fill="#000000" font-family="sans-serif" font-size="11" font-weight="bold" lengthAdjust="spacing" textLength="105" x="106" y="517.707">[floor(s) not found]</text><polygon fill="#181818" points="422,542.4189,412,546.4189,422,550.4189,418,546.4189" style="stroke:#181818;stroke-width:1.0;"/><line style="stroke:#181818;stroke-width:1.0;stroke-dasharray:2.0,2.0;" x1="416" x2="530" y1="546.4189" y2="546.4189"/><text fill="#000000" font-family="sans-serif" font-size="13" font-weight="bold" lengthAdjust="spacing" textLength="14" x="428" y="541.1563">10</text><text fill="#000000" font-family="sans-serif" font-size="13" lengthAdjust="spacing" textLength="26" x="446" y="541.1563">error</text><polygon fill="#181818" points="292,573.71,282,577.71,292,581.71,288,577.71" style="stroke:#181818;stroke-width:1.0;"/><line style="stroke:#181818;stroke-width:1.0;stroke-dasharray:2.0,2.0;" x1="286" x2="400" y1="577.71" y2="577.71"/><text fill="#000000" font-family="sans-serif" font-size="13" font-weight="bold" lengthAdjust="spacing" textLength="14" x="298" y="572.4473">11</text><text fill="#000000" font-family="sans-serif" font-size="13" lengthAdjust="spacing" textLength="59" x="316" y="572.4473">error (412)</text><polygon fill="#181818" points="76,605.001,66,609.001,76,613.001,72,609.001" style="stroke:#181818;stroke-width:1.0;"/><line style="stroke:#181818;stroke-width:1.0;stroke-dasharray:2.0,2.0;" x1="70" x2="270" y1="609.001" y2="609.001"/><text fill="#000000" font-family="sans-serif" font-size="13" font-weight="bold" lengthAdjust="spacing" textLength="14" x="82" y="603.7383">12</text><text fill="#000000" font-family="sans-serif" font-size="13" lengthAdjust="spacing" textLength="140" x="100" y="603.7383">412: Precondition Failed</text><line style="stroke:#000000;stroke-width:1.0;stroke-dasharray:2.0,2.0;" x1="30" x2="1020" y1="618.001" y2="618.001"/><text fill="#000000" font-family="sans-serif" font-size="11" font-weight="bold" lengthAdjust="spacing" textLength="76" x="35" y="629.8711">[floors found]</text><polygon fill="#181818" points="615,652.9229,625,656.9229,615,660.9229,619,656.9229" style="stroke:#181818;stroke-width:1.0;"/><line style="stroke:#181818;stroke-width:1.0;stroke-dasharray:2.0,2.0;" x1="541" x2="621" y1="656.9229" y2="656.9229"/><text fill="#000000" font-family="sans-serif" font-size="13" font-weight="bold" lengthAdjust="spacing" textLength="14" x="548" y="651.6602">13</text><text fill="#000000" font-family="sans-serif" font-size="13" lengthAdjust="spacing" textLength="44" x="566" y="651.6602">create()</text><rect fill="#E2E2F0" height="51.2422" rx="2.5" ry="2.5" style="stroke:#181818;stroke-width:0.5;" width="69" x="627" y="633.6318"/><text fill="#000000" font-family="sans-serif" font-size="14" lengthAdjust="spacing" textLength="55" x="634" y="655.7393">elevator:</text><text fill="#000000" font-family="sans-serif" font-size="14" lengthAdjust="spacing" textLength="52" x="635.5" y="674.3604">Elevator</text><path d="M40,702.874 L101,702.874 L101,712.165 L91,722.165 L40,722.165 L40,702.874 " fill="#EEEEEE" style="stroke:#000000;stroke-width:1.5;"/><rect fill="none" height="379.7832" style="stroke:#000000;stroke-width:1.5;" width="970" x="40" y="702.874"/><text fill="#000000" font-family="sans-serif" font-size="13" font-weight="bold" lengthAdjust="spacing" textLength="16" x="55" y="717.9023">alt</text><text fill="#000000" font-family="sans-serif" font-size="11" font-weight="bold" lengthAdjust="spacing" textLength="119" x="116" y="716.7441">[elevator not created]</text><polygon fill="#181818" points="422,741.4561,412,745.4561,422,749.4561,418,745.4561" style="stroke:#181818;stroke-width:1.0;"/><line style="stroke:#181818;stroke-width:1.0;stroke-dasharray:2.0,2.0;" x1="416" x2="530" y1="745.4561" y2="745.4561"/><text fill="#000000" font-family="sans-serif" font-size="13" font-weight="bold" lengthAdjust="spacing" textLength="14" x="428" y="740.1934">14</text><text fill="#000000" font-family="sans-serif" font-size="13" lengthAdjust="spacing" textLength="26" x="446" y="740.1934">error</text><polygon fill="#181818" points="292,772.7471,282,776.7471,292,780.7471,288,776.7471" style="stroke:#181818;stroke-width:1.0;"/><line style="stroke:#181818;stroke-width:1.0;stroke-dasharray:2.0,2.0;" x1="286" x2="400" y1="776.7471" y2="776.7471"/><text fill="#000000" font-family="sans-serif" font-size="13" font-weight="bold" lengthAdjust="spacing" textLength="14" x="298" y="771.4844">15</text><text fill="#000000" font-family="sans-serif" font-size="13" lengthAdjust="spacing" textLength="59" x="316" y="771.4844">error (422)</text><polygon fill="#181818" points="76,804.0381,66,808.0381,76,812.0381,72,808.0381" style="stroke:#181818;stroke-width:1.0;"/><line style="stroke:#181818;stroke-width:1.0;stroke-dasharray:2.0,2.0;" x1="70" x2="270" y1="808.0381" y2="808.0381"/><text fill="#000000" font-family="sans-serif" font-size="13" font-weight="bold" lengthAdjust="spacing" textLength="14" x="82" y="802.7754">16</text><text fill="#000000" font-family="sans-serif" font-size="13" lengthAdjust="spacing" textLength="164" x="100" y="802.7754">422: Unprocessable Content</text><line style="stroke:#000000;stroke-width:1.0;stroke-dasharray:2.0,2.0;" x1="40" x2="1010" y1="817.0381" y2="817.0381"/><text fill="#000000" font-family="sans-serif" font-size="11" font-weight="bold" lengthAdjust="spacing" textLength="171" x="45" y="828.9082">[elevator created successfully]</text><polygon fill="#181818" points="946,851.96,956,855.96,946,859.96,950,855.96" style="stroke:#181818;stroke-width:1.0;"/><line style="stroke:#181818;stroke-width:1.0;" x1="541" x2="952" y1="855.96" y2="855.96"/><text fill="#000000" font-family="sans-serif" font-size="13" font-weight="bold" lengthAdjust="spacing" textLength="14" x="548" y="850.6973">17</text><text fill="#000000" font-family="sans-serif" font-size="13" lengthAdjust="spacing" textLength="78" x="566" y="850.6973">save(elevator)</text><polygon fill="#181818" points="720,883.251,730,887.251,720,891.251,724,887.251" style="stroke:#181818;stroke-width:1.0;"/><line style="stroke:#181818;stroke-width:1.0;" x1="541" x2="726" y1="887.251" y2="887.251"/><text fill="#000000" font-family="sans-serif" font-size="13" font-weight="bold" lengthAdjust="spacing" textLength="14" x="548" y="881.9883">18</text><text fill="#000000" font-family="sans-serif" font-size="13" lengthAdjust="spacing" textLength="89" x="566" y="881.9883">toDTO(elevator)</text><polygon fill="#181818" points="860,914.542,870,918.542,860,922.542,864,918.542" style="stroke:#181818;stroke-width:1.0;"/><line style="stroke:#181818;stroke-width:1.0;stroke-dasharray:2.0,2.0;" x1="742" x2="866" y1="918.542" y2="918.542"/><text fill="#000000" font-family="sans-serif" font-size="13" font-weight="bold" lengthAdjust="spacing" textLength="14" x="749" y="913.2793">19</text><text fill="#000000" font-family="sans-serif" font-size="13" lengthAdjust="spacing" textLength="88" x="767" y="913.2793">create(elevator)</text><rect fill="#E2E2F0" height="51.2422" rx="2.5" ry="2.5" style="stroke:#181818;stroke-width:0.5;" width="44" x="872" y="895.251"/><text fill="#000000" font-family="sans-serif" font-size="14" lengthAdjust="spacing" textLength="24" x="882" y="917.3584">dto:</text><text fill="#000000" font-family="sans-serif" font-size="14" lengthAdjust="spacing" textLength="30" x="879" y="935.9795">DTO</text><polygon fill="#181818" points="552,976.7842,542,980.7842,552,984.7842,548,980.7842" style="stroke:#181818;stroke-width:1.0;"/><line style="stroke:#181818;stroke-width:1.0;stroke-dasharray:2.0,2.0;" x1="546" x2="736" y1="980.7842" y2="980.7842"/><text fill="#000000" font-family="sans-serif" font-size="13" font-weight="bold" lengthAdjust="spacing" textLength="14" x="558" y="975.5215">20</text><text fill="#000000" font-family="sans-serif" font-size="13" lengthAdjust="spacing" textLength="18" x="576" y="975.5215">dto</text><polygon fill="#181818" points="422,1008.0752,412,1012.0752,422,1016.0752,418,1012.0752" style="stroke:#181818;stroke-width:1.0;"/><line style="stroke:#181818;stroke-width:1.0;stroke-dasharray:2.0,2.0;" x1="416" x2="530" y1="1012.0752" y2="1012.0752"/><text fill="#000000" font-family="sans-serif" font-size="13" font-weight="bold" lengthAdjust="spacing" textLength="14" x="428" y="1006.8125">21</text><text fill="#000000" font-family="sans-serif" font-size="13" lengthAdjust="spacing" textLength="18" x="446" y="1006.8125">dto</text><polygon fill="#181818" points="292,1039.3662,282,1043.3662,292,1047.3662,288,1043.3662" style="stroke:#181818;stroke-width:1.0;"/><line style="stroke:#181818;stroke-width:1.0;stroke-dasharray:2.0,2.0;" x1="286" x2="400" y1="1043.3662" y2="1043.3662"/><text fill="#000000" font-family="sans-serif" font-size="13" font-weight="bold" lengthAdjust="spacing" textLength="14" x="298" y="1038.1035">22</text><text fill="#000000" font-family="sans-serif" font-size="13" lengthAdjust="spacing" textLength="51" x="316" y="1038.1035">dto (201)</text><polygon fill="#181818" points="76,1070.6572,66,1074.6572,76,1078.6572,72,1074.6572" style="stroke:#181818;stroke-width:1.0;"/><line style="stroke:#181818;stroke-width:1.0;stroke-dasharray:2.0,2.0;" x1="70" x2="270" y1="1074.6572" y2="1074.6572"/><text fill="#000000" font-family="sans-serif" font-size="13" font-weight="bold" lengthAdjust="spacing" textLength="14" x="82" y="1069.3945">23</text><text fill="#000000" font-family="sans-serif" font-size="13" lengthAdjust="spacing" textLength="74" x="100" y="1069.3945">201: Created</text><!--SRC=[dLLDZzCm4BtdLupA9LbHbQquvS1ARHTf9HOGi3SkRZ9PB5mxifrgLuZ_pZWVRf8cJOfFiVtcuyqRPrXXbImEUzH1a3DjUS9p9YqixkuMm0mKF0WEZCjCimF2uoxOgnTOR5ZoUtalqmMy-SIVVzcDAB1h_aqL5aiFkdknLT9g9GJgyZQnMdG1tr4VULBPccFIImi57fbLElufx-lF4jcSTz6FBC_hG0UMT-zIgyZ9xiUNyffs0SeKY5vGSTmno_RCu298wozYXRaodCAyLjHeUx8gE2oN7q37G20BuMfVS95o-MnMVtZwTzMaQA80QB74SjeZ5GZgfO7iNKKWXaGZNJOSmyY3l5rPEcYjqf8yKDKkEUWuSHM6tdBsZWYn8pyPb-dcTQjI31j2RXETcPq8kRBqRrFitf-R2mjD093AGgOAcPx1V8AdKg7MIWy2gueuBWqCmlUtwsWGh4iagHW3OMBugZ5HCkMMAmaV6HTudWqAQWkVzKJ6LKafaHTkh7cGczhEr_Ljqo8FAKhBCuuw2WRzNQxrO5IduobI9fJIdyk7FroDIRqQpKfFeOacDBjAjwkr-r_zl8Ob2pCp_qQccnl_pi8HeJfY-P_K6B9LT8yTTql5Rr1byQjCnjE_Me9H6TONPEXBiIOfdcIkLOB6iBr0S2E0-dkSMQc8frRJ0bCapaLM2F4wpT7_lmmxOjWukw3I_6VLYqEJXS9OHQEa5UUIuQotTPQJcs1JARbSNEbfdBMRSrvQdMXk8CACrKIiXiuSgnRxANWBwjXVqzbJhZjzJM08r-zkPtSrOMFOJhmt7FcL39ttprhCsoEwTUp7VxkRWdy0]--></g></svg>