<?xml version="1.0" encoding="us-ascii" standalone="no"?><svg xmlns="http://www.w3.org/2000/svg" xmlns:xlink="http://www.w3.org/1999/xlink" contentStyleType="text/css" height="810px" preserveAspectRatio="none" style="width:1026px;height:810px;background:#FFFFFF;" version="1.1" viewBox="0 0 1026 810" width="1026px" zoomAndPan="magnify"><defs/><g><!--cluster system--><g id="cluster_system"><path d="M5.1,3.6082 L35.1,3.6082 A2.25,2.25 0 0 1 36.6,5.1082 L40.8,18.3809 L1020.3,18.3809 A1.5,1.5 0 0 1 1021.8,19.8809 L1021.8,804.6082 A1.5,1.5 0 0 1 1020.3,806.1082 L5.1,806.1082 A1.5,1.5 0 0 1 3.6,804.6082 L3.6,5.1082 A1.5,1.5 0 0 1 5.1,3.6082 " fill="none" style="stroke:#000000;stroke-width:0.8999999999999999;"/><line style="stroke:#000000;stroke-width:0.8999999999999999;" x1="3.6" x2="40.8" y1="18.3809" y2="18.3809"/><text fill="#000000" font-family="sans-serif" font-size="8.4" font-weight="bold" lengthAdjust="spacing" textLength="29.4" x="6" y="13.8727">system</text></g><!--cluster Infrastructure--><g id="cluster_Infrastructure"><path d="M720.9,30.6082 L779.7,30.6082 A2.25,2.25 0 0 1 781.2,32.1082 L785.4,45.3809 L994.5,45.3809 A1.5,1.5 0 0 1 996,46.8809 L996,131.1082 A1.5,1.5 0 0 1 994.5,132.6082 L720.9,132.6082 A1.5,1.5 0 0 1 719.4,131.1082 L719.4,32.1082 A1.5,1.5 0 0 1 720.9,30.6082 " fill="none" style="stroke:#000000;stroke-width:0.8999999999999999;"/><line style="stroke:#000000;stroke-width:0.8999999999999999;" x1="719.4" x2="785.4" y1="45.3809" y2="45.3809"/><text fill="#000000" font-family="sans-serif" font-size="8.4" font-weight="bold" lengthAdjust="spacing" textLength="58.2" x="721.8" y="40.8727">Infrastructure</text></g><!--cluster Routes--><g id="cluster_Routes"><path d="M899.1,57.6082 L929.7,57.6082 A2.25,2.25 0 0 1 931.2,59.1082 L935.4,72.3809 L980.1,72.3809 A1.5,1.5 0 0 1 981.6,73.8809 L981.6,116.7082 A1.5,1.5 0 0 1 980.1,118.2082 L899.1,118.2082 A1.5,1.5 0 0 1 897.6,116.7082 L897.6,59.1082 A1.5,1.5 0 0 1 899.1,57.6082 " fill="none" style="stroke:#000000;stroke-width:0.8999999999999999;"/><line style="stroke:#000000;stroke-width:0.8999999999999999;" x1="897.6" x2="935.4" y1="72.3809" y2="72.3809"/><text fill="#000000" font-family="sans-serif" font-size="8.4" font-weight="bold" lengthAdjust="spacing" textLength="30" x="900" y="67.8727">Routes</text></g><!--cluster Persistence--><g id="cluster_Persistence"><path d="M735.3,57.6082 L786.3,57.6082 A2.25,2.25 0 0 1 787.8,59.1082 L792,72.3809 L881.7,72.3809 A1.5,1.5 0 0 1 883.2,73.8809 L883.2,116.7082 A1.5,1.5 0 0 1 881.7,118.2082 L735.3,118.2082 A1.5,1.5 0 0 1 733.8,116.7082 L733.8,59.1082 A1.5,1.5 0 0 1 735.3,57.6082 " fill="none" style="stroke:#000000;stroke-width:0.8999999999999999;"/><line style="stroke:#000000;stroke-width:0.8999999999999999;" x1="733.8" x2="792" y1="72.3809" y2="72.3809"/><text fill="#000000" font-family="sans-serif" font-size="8.4" font-weight="bold" lengthAdjust="spacing" textLength="50.4" x="736.2" y="67.8727">Persistence</text></g><!--cluster Interface Adapters--><g id="cluster_Interface Adapters"><path d="M754.5,147.0082 L833.1,147.0082 A2.25,2.25 0 0 1 834.6,148.5082 L838.8,161.7809 L1005.9,161.7809 A1.5,1.5 0 0 1 1007.4,163.2809 L1007.4,417.9082 A1.5,1.5 0 0 1 1005.9,419.4082 L754.5,419.4082 A1.5,1.5 0 0 1 753,417.9082 L753,148.5082 A1.5,1.5 0 0 1 754.5,147.0082 " fill="none" style="stroke:#000000;stroke-width:0.8999999999999999;"/><line style="stroke:#000000;stroke-width:0.8999999999999999;" x1="753" x2="838.8" y1="161.7809" y2="161.7809"/><text fill="#000000" font-family="sans-serif" font-size="8.4" font-weight="bold" lengthAdjust="spacing" textLength="78" x="755.4" y="157.2727">Interface Adapters</text></g><!--cluster Controllers--><g id="cluster_Controllers"><path d="M864.9,174.0082 L912.9,174.0082 A2.25,2.25 0 0 1 914.4,175.5082 L918.6,188.7809 L991.5,188.7809 A1.5,1.5 0 0 1 993,190.2809 L993,403.5082 A1.5,1.5 0 0 1 991.5,405.0082 L864.9,405.0082 A1.5,1.5 0 0 1 863.4,403.5082 L863.4,175.5082 A1.5,1.5 0 0 1 864.9,174.0082 " fill="none" style="stroke:#000000;stroke-width:0.8999999999999999;"/><line style="stroke:#000000;stroke-width:0.8999999999999999;" x1="863.4" x2="918.6" y1="188.7809" y2="188.7809"/><text fill="#000000" font-family="sans-serif" font-size="8.4" font-weight="bold" lengthAdjust="spacing" textLength="47.4" x="865.8" y="184.2727">Controllers</text></g><!--cluster IControllers--><g id="cluster_IControllers"><path d="M879.3,201.0082 L929.7,201.0082 A2.25,2.25 0 0 1 931.2,202.5082 L935.4,215.7809 L977.1,215.7809 A1.5,1.5 0 0 1 978.6,217.2809 L978.6,260.1082 A1.5,1.5 0 0 1 977.1,261.6082 L879.3,261.6082 A1.5,1.5 0 0 1 877.8,260.1082 L877.8,202.5082 A1.5,1.5 0 0 1 879.3,201.0082 " fill="none" style="stroke:#000000;stroke-width:0.8999999999999999;"/><line style="stroke:#000000;stroke-width:0.8999999999999999;" x1="877.8" x2="935.4" y1="215.7809" y2="215.7809"/><text fill="#000000" font-family="sans-serif" font-size="8.4" font-weight="bold" lengthAdjust="spacing" textLength="49.8" x="880.2" y="211.2727">IControllers</text></g><!--cluster ImplControllers--><g id="cluster_ImplControllers"><path d="M879.3,330.0082 L944.7,330.0082 A2.25,2.25 0 0 1 946.2,331.5082 L950.4,344.7809 L974.7,344.7809 A1.5,1.5 0 0 1 976.2,346.2809 L976.2,389.1082 A1.5,1.5 0 0 1 974.7,390.6082 L879.3,390.6082 A1.5,1.5 0 0 1 877.8,389.1082 L877.8,331.5082 A1.5,1.5 0 0 1 879.3,330.0082 " fill="none" style="stroke:#000000;stroke-width:0.8999999999999999;"/><line style="stroke:#000000;stroke-width:0.8999999999999999;" x1="877.8" x2="950.4" y1="344.7809" y2="344.7809"/><text fill="#000000" font-family="sans-serif" font-size="8.4" font-weight="bold" lengthAdjust="spacing" textLength="64.8" x="880.2" y="340.2727">ImplControllers</text></g><!--cluster Repositories--><g id="cluster_Repositories"><path d="M768.9,201.0082 L823.5,201.0082 A2.25,2.25 0 0 1 825,202.5082 L829.2,215.7809 L847.5,215.7809 A1.5,1.5 0 0 1 849,217.2809 L849,260.1082 A1.5,1.5 0 0 1 847.5,261.6082 L768.9,261.6082 A1.5,1.5 0 0 1 767.4,260.1082 L767.4,202.5082 A1.5,1.5 0 0 1 768.9,201.0082 " fill="none" style="stroke:#000000;stroke-width:0.8999999999999999;"/><line style="stroke:#000000;stroke-width:0.8999999999999999;" x1="767.4" x2="829.2" y1="215.7809" y2="215.7809"/><text fill="#000000" font-family="sans-serif" font-size="8.4" font-weight="bold" lengthAdjust="spacing" textLength="54" x="769.8" y="211.2727">Repositories</text></g><!--cluster Application Services--><g id="cluster_Application Services"><path d="M575.7,276.0082 L662.7,276.0082 A2.25,2.25 0 0 1 664.2,277.5082 L668.4,290.7809 L737.1,290.7809 A1.5,1.5 0 0 1 738.6,292.2809 L738.6,659.4082 A1.5,1.5 0 0 1 737.1,660.9082 L575.7,660.9082 A1.5,1.5 0 0 1 574.2,659.4082 L574.2,277.5082 A1.5,1.5 0 0 1 575.7,276.0082 " fill="none" style="stroke:#000000;stroke-width:0.8999999999999999;"/><line style="stroke:#000000;stroke-width:0.8999999999999999;" x1="574.2" x2="668.4" y1="290.7809" y2="290.7809"/><text fill="#000000" font-family="sans-serif" font-size="8.4" font-weight="bold" lengthAdjust="spacing" textLength="86.4" x="576.6" y="286.2727">Application Services</text></g><!--cluster App Services--><g id="cluster_App Services"><path d="M590.1,303.0082 L646.5,303.0082 A2.25,2.25 0 0 1 648,304.5082 L652.2,317.7809 L722.7,317.7809 A1.5,1.5 0 0 1 724.2,319.2809 L724.2,645.0082 A1.5,1.5 0 0 1 722.7,646.5082 L590.1,646.5082 A1.5,1.5 0 0 1 588.6,645.0082 L588.6,304.5082 A1.5,1.5 0 0 1 590.1,303.0082 " fill="none" style="stroke:#000000;stroke-width:0.8999999999999999;"/><line style="stroke:#000000;stroke-width:0.8999999999999999;" x1="588.6" x2="652.2" y1="317.7809" y2="317.7809"/><text fill="#000000" font-family="sans-serif" font-size="8.4" font-weight="bold" lengthAdjust="spacing" textLength="55.8" x="591" y="313.2727">App Services</text></g><!--cluster IAppServices--><g id="cluster_IAppServices"><path d="M604.5,571.5082 L660.9,571.5082 A2.25,2.25 0 0 1 662.4,573.0082 L666.6,586.2809 L708.3,586.2809 A1.5,1.5 0 0 1 709.8,587.7809 L709.8,630.6082 A1.5,1.5 0 0 1 708.3,632.1082 L604.5,632.1082 A1.5,1.5 0 0 1 603,630.6082 L603,573.0082 A1.5,1.5 0 0 1 604.5,571.5082 " fill="none" style="stroke:#000000;stroke-width:0.8999999999999999;"/><line style="stroke:#000000;stroke-width:0.8999999999999999;" x1="603" x2="666.6" y1="586.2809" y2="586.2809"/><text fill="#000000" font-family="sans-serif" font-size="8.4" font-weight="bold" lengthAdjust="spacing" textLength="55.8" x="605.4" y="581.7727">IAppServices</text></g><!--cluster ImplAppServices--><g id="cluster_ImplAppServices"><path d="M605.1,433.8082 L676.5,433.8082 A2.25,2.25 0 0 1 678,435.3082 L682.2,448.5809 L706.5,448.5809 A1.5,1.5 0 0 1 708,450.0809 L708,492.9082 A1.5,1.5 0 0 1 706.5,494.4082 L605.1,494.4082 A1.5,1.5 0 0 1 603.6,492.9082 L603.6,435.3082 A1.5,1.5 0 0 1 605.1,433.8082 " fill="none" style="stroke:#000000;stroke-width:0.8999999999999999;"/><line style="stroke:#000000;stroke-width:0.8999999999999999;" x1="603.6" x2="682.2" y1="448.5809" y2="448.5809"/><text fill="#000000" font-family="sans-serif" font-size="8.4" font-weight="bold" lengthAdjust="spacing" textLength="70.8" x="606" y="444.0727">ImplAppServices</text></g><!--cluster IRepositories--><g id="cluster_IRepositories"><path d="M627.3,330.0082 L684.3,330.0082 A2.25,2.25 0 0 1 685.8,331.5082 L690,344.7809 L708.3,344.7809 A1.5,1.5 0 0 1 709.8,346.2809 L709.8,389.1082 A1.5,1.5 0 0 1 708.3,390.6082 L627.3,390.6082 A1.5,1.5 0 0 1 625.8,389.1082 L625.8,331.5082 A1.5,1.5 0 0 1 627.3,330.0082 " fill="none" style="stroke:#000000;stroke-width:0.8999999999999999;"/><line style="stroke:#000000;stroke-width:0.8999999999999999;" x1="625.8" x2="690" y1="344.7809" y2="344.7809"/><text fill="#000000" font-family="sans-serif" font-size="8.4" font-weight="bold" lengthAdjust="spacing" textLength="56.4" x="628.2" y="340.2727">IRepositories</text></g><!--cluster Entities/Core/Domain--><g id="cluster_Entities/Core/Domain"><path d="M19.5,508.8082 L108.3,508.8082 A2.25,2.25 0 0 1 109.8,510.3082 L114,523.5809 L558.3,523.5809 A1.5,1.5 0 0 1 559.8,525.0809 L559.8,790.2082 A1.5,1.5 0 0 1 558.3,791.7082 L19.5,791.7082 A1.5,1.5 0 0 1 18,790.2082 L18,510.3082 A1.5,1.5 0 0 1 19.5,508.8082 " fill="none" style="stroke:#000000;stroke-width:0.8999999999999999;"/><line style="stroke:#000000;stroke-width:0.8999999999999999;" x1="18" x2="114" y1="523.5809" y2="523.5809"/><text fill="#000000" font-family="sans-serif" font-size="8.4" font-weight="bold" lengthAdjust="spacing" textLength="88.2" x="20.4" y="519.0727">Entities/Core/Domain</text></g><!--cluster Aggregates--><g id="cluster_Aggregates"><path d="M300.9,535.8082 L350.1,535.8082 A2.25,2.25 0 0 1 351.6,537.3082 L355.8,550.5809 L483.9,550.5809 A1.5,1.5 0 0 1 485.4,552.0809 L485.4,653.7082 A1.5,1.5 0 0 1 483.9,655.2082 L300.9,655.2082 A1.5,1.5 0 0 1 299.4,653.7082 L299.4,537.3082 A1.5,1.5 0 0 1 300.9,535.8082 " fill="none" style="stroke:#000000;stroke-width:0.8999999999999999;"/><line style="stroke:#000000;stroke-width:0.8999999999999999;" x1="299.4" x2="355.8" y1="550.5809" y2="550.5809"/><text fill="#000000" font-family="sans-serif" font-size="8.4" font-weight="bold" lengthAdjust="spacing" textLength="48.6" x="301.8" y="546.0727">Aggregates</text></g><!--cluster a_robottype--><g id="cluster_a_robottype"><path d="M392.1,562.8082 L437.7,562.8082 A2.25,2.25 0 0 1 439.2,564.3082 L443.4,577.5809 L469.5,577.5809 A1.5,1.5 0 0 1 471,579.0809 L471,639.3082 A1.5,1.5 0 0 1 469.5,640.8082 L392.1,640.8082 A1.5,1.5 0 0 1 390.6,639.3082 L390.6,564.3082 A1.5,1.5 0 0 1 392.1,562.8082 " fill="none" style="stroke:#000000;stroke-width:0.8999999999999999;"/><line style="stroke:#000000;stroke-width:0.8999999999999999;" x1="390.6" x2="443.4" y1="577.5809" y2="577.5809"/><text fill="#000000" font-family="sans-serif" font-size="8.4" font-weight="bold" lengthAdjust="spacing" textLength="45" x="393" y="573.0727">RobotType</text></g><!--cluster a_robot--><g id="cluster_a_robot"><path d="M315.3,562.8082 L341.1,562.8082 A2.25,2.25 0 0 1 342.6,564.3082 L346.8,577.5809 L374.7,577.5809 A1.5,1.5 0 0 1 376.2,579.0809 L376.2,639.3082 A1.5,1.5 0 0 1 374.7,640.8082 L315.3,640.8082 A1.5,1.5 0 0 1 313.8,639.3082 L313.8,564.3082 A1.5,1.5 0 0 1 315.3,562.8082 " fill="none" style="stroke:#000000;stroke-width:0.8999999999999999;"/><line style="stroke:#000000;stroke-width:0.8999999999999999;" x1="313.8" x2="346.8" y1="577.5809" y2="577.5809"/><text fill="#000000" font-family="sans-serif" font-size="8.4" font-weight="bold" lengthAdjust="spacing" textLength="25.2" x="316.2" y="573.0727">Robot</text></g><!--cluster Value Objects--><g id="cluster_Value Objects"><path d="M33.9,675.3082 L92.7,675.3082 A2.25,2.25 0 0 1 94.2,676.8082 L98.4,690.0809 L543.9,690.0809 A1.5,1.5 0 0 1 545.4,691.5809 L545.4,775.8082 A1.5,1.5 0 0 1 543.9,777.3082 L33.9,777.3082 A1.5,1.5 0 0 1 32.4,775.8082 L32.4,676.8082 A1.5,1.5 0 0 1 33.9,675.3082 " fill="none" style="stroke:#000000;stroke-width:0.8999999999999999;"/><line style="stroke:#000000;stroke-width:0.8999999999999999;" x1="32.4" x2="98.4" y1="690.0809" y2="690.0809"/><text fill="#000000" font-family="sans-serif" font-size="8.4" font-weight="bold" lengthAdjust="spacing" textLength="58.2" x="34.8" y="685.5727">Value Objects</text></g><!--cluster vo_robot--><g id="cluster_vo_robot"><path d="M48.3,702.3082 L74.1,702.3082 A2.25,2.25 0 0 1 75.6,703.8082 L79.8,717.0809 L529.5,717.0809 A1.5,1.5 0 0 1 531,718.5809 L531,761.4082 A1.5,1.5 0 0 1 529.5,762.9082 L48.3,762.9082 A1.5,1.5 0 0 1 46.8,761.4082 L46.8,703.8082 A1.5,1.5 0 0 1 48.3,702.3082 " fill="none" style="stroke:#000000;stroke-width:0.8999999999999999;"/><line style="stroke:#000000;stroke-width:0.8999999999999999;" x1="46.8" x2="79.8" y1="717.0809" y2="717.0809"/><text fill="#000000" font-family="sans-serif" font-size="8.4" font-weight="bold" lengthAdjust="spacing" textLength="25.2" x="49.2" y="712.5727">Robot</text></g><!--cluster DTO--><g id="cluster_DTO"><path d="M616.5,201.0082 L634.5,201.0082 A2.25,2.25 0 0 1 636,202.5082 L640.2,215.7809 L695.1,215.7809 A1.5,1.5 0 0 1 696.6,217.2809 L696.6,260.1082 A1.5,1.5 0 0 1 695.1,261.6082 L616.5,261.6082 A1.5,1.5 0 0 1 615,260.1082 L615,202.5082 A1.5,1.5 0 0 1 616.5,201.0082 " fill="none" style="stroke:#000000;stroke-width:0.8999999999999999;"/><line style="stroke:#000000;stroke-width:0.8999999999999999;" x1="615" x2="640.2" y1="215.7809" y2="215.7809"/><text fill="#000000" font-family="sans-serif" font-size="8.4" font-weight="bold" lengthAdjust="spacing" textLength="17.4" x="617.4" y="211.2727">DTO</text></g><!--class RouteRobot--><g id="elem_RouteRobot"><rect codeLine="16" fill="#F1F1F1" height="28.8" id="RouteRobot" rx="1.5" ry="1.5" style="stroke:#181818;stroke-width:0.3;" width="64.8" x="907.2" y="79.8082"/><ellipse cx="916.2" cy="89.4082" fill="#ADD1B2" rx="6.6" ry="6.6" style="stroke:#181818;stroke-width:0.6;"/><path d="M917.8594,86.9332 Q917.9531,86.802 918.0656,86.7363 Q918.1781,86.6707 918.3094,86.6707 Q918.5344,86.6707 918.675,86.8301 Q918.8156,86.9801 918.8156,87.3457 L918.8156,88.2176 Q918.8156,88.5832 918.675,88.7426 Q918.5344,88.902 918.3094,88.902 Q918.1031,88.902 917.9812,88.7801 Q917.8594,88.6676 917.7937,88.3582 Q917.7656,88.1426 917.6531,88.0301 Q917.4563,87.8051 917.0906,87.6738 Q916.725,87.5426 916.35,87.5426 Q915.8906,87.5426 915.5063,87.7395 Q915.1313,87.9363 914.8313,88.3863 Q914.5406,88.8363 914.5406,89.4551 L914.5406,90.1113 Q914.5406,90.852 915.075,91.3488 Q915.6094,91.8363 916.5656,91.8363 Q917.1281,91.8363 917.5219,91.6863 Q917.7563,91.5926 918.0094,91.3301 Q918.1687,91.1707 918.2531,91.1238 Q918.3469,91.077 918.4688,91.077 Q918.6656,91.077 918.8156,91.2363 Q918.975,91.3863 918.975,91.5926 Q918.975,91.7988 918.7688,92.0426 Q918.4688,92.3895 917.9906,92.5863 Q917.3438,92.8582 916.5656,92.8582 Q915.6563,92.8582 914.9344,92.4832 Q914.3438,92.1832 913.9313,91.5457 Q913.5188,90.8988 913.5188,90.1301 L913.5188,89.4363 Q913.5188,88.6395 913.8844,87.9551 Q914.2594,87.2613 914.9156,86.8957 Q915.5719,86.5207 916.3125,86.5207 Q916.7531,86.5207 917.1375,86.6238 Q917.5313,86.7176 917.8594,86.9332 Z " fill="#000000"/><text fill="#000000" font-family="sans-serif" font-size="8.4" lengthAdjust="spacing" textLength="45.6" x="924.6" y="92.8863">RouteRobot</text><line style="stroke:#181818;stroke-width:0.3;" x1="907.8" x2="971.4" y1="99.0082" y2="99.0082"/><line style="stroke:#181818;stroke-width:0.3;" x1="907.8" x2="971.4" y1="103.8082" y2="103.8082"/></g><!--class IDBDriver--><g id="elem_IDBDriver"><rect codeLine="20" fill="#F1F1F1" height="28.8" id="IDBDriver" rx="1.5" ry="1.5" style="stroke:#181818;stroke-width:0.3;" width="55.2" x="818.4" y="79.8082"/><ellipse cx="827.4" cy="89.4082" fill="#B4A7E5" rx="6.6" ry="6.6" style="stroke:#181818;stroke-width:0.6;"/><path d="M827.9719,87.3926 L827.9719,91.3863 L829.0031,91.3863 Q829.3688,91.3863 829.5281,91.527 Q829.6875,91.6676 829.6875,91.902 Q829.6875,92.127 829.5281,92.2676 Q829.3688,92.4082 829.0031,92.4082 L825.9187,92.4082 Q825.5531,92.4082 825.3938,92.2676 Q825.2344,92.127 825.2344,91.8926 Q825.2344,91.6676 825.3938,91.527 Q825.5531,91.3863 825.9187,91.3863 L826.95,91.3863 L826.95,87.3926 L825.9187,87.3926 Q825.5531,87.3926 825.3938,87.252 Q825.2344,87.1113 825.2344,86.877 Q825.2344,86.652 825.3938,86.5113 Q825.5531,86.3707 825.9187,86.3707 L829.0031,86.3707 Q829.3688,86.3707 829.5281,86.5113 Q829.6875,86.652 829.6875,86.877 Q829.6875,87.1113 829.5281,87.252 Q829.3688,87.3926 829.0031,87.3926 L827.9719,87.3926 Z " fill="#000000"/><text fill="#000000" font-family="sans-serif" font-size="8.4" font-style="italic" lengthAdjust="spacing" textLength="36" x="835.8" y="92.8863">IDBDriver</text><line style="stroke:#181818;stroke-width:0.3;" x1="819" x2="873" y1="99.0082" y2="99.0082"/><line style="stroke:#181818;stroke-width:0.3;" x1="819" x2="873" y1="103.8082" y2="103.8082"/></g><!--class DBDriver--><g id="elem_DBDriver"><rect codeLine="21" fill="#F1F1F1" height="28.8" id="DBDriver" rx="1.5" ry="1.5" style="stroke:#181818;stroke-width:0.3;" width="53.4" x="743.7" y="79.8082"/><ellipse cx="752.7" cy="89.4082" fill="#ADD1B2" rx="6.6" ry="6.6" style="stroke:#181818;stroke-width:0.6;"/><path d="M754.3594,86.9332 Q754.4531,86.802 754.5656,86.7363 Q754.6781,86.6707 754.8094,86.6707 Q755.0344,86.6707 755.175,86.8301 Q755.3156,86.9801 755.3156,87.3457 L755.3156,88.2176 Q755.3156,88.5832 755.175,88.7426 Q755.0344,88.902 754.8094,88.902 Q754.6031,88.902 754.4812,88.7801 Q754.3594,88.6676 754.2937,88.3582 Q754.2656,88.1426 754.1531,88.0301 Q753.9563,87.8051 753.5906,87.6738 Q753.225,87.5426 752.85,87.5426 Q752.3906,87.5426 752.0063,87.7395 Q751.6313,87.9363 751.3313,88.3863 Q751.0406,88.8363 751.0406,89.4551 L751.0406,90.1113 Q751.0406,90.852 751.575,91.3488 Q752.1094,91.8363 753.0656,91.8363 Q753.6281,91.8363 754.0219,91.6863 Q754.2563,91.5926 754.5094,91.3301 Q754.6687,91.1707 754.7531,91.1238 Q754.8469,91.077 754.9688,91.077 Q755.1656,91.077 755.3156,91.2363 Q755.475,91.3863 755.475,91.5926 Q755.475,91.7988 755.2688,92.0426 Q754.9688,92.3895 754.4906,92.5863 Q753.8438,92.8582 753.0656,92.8582 Q752.1563,92.8582 751.4344,92.4832 Q750.8438,92.1832 750.4313,91.5457 Q750.0188,90.8988 750.0188,90.1301 L750.0188,89.4363 Q750.0188,88.6395 750.3844,87.9551 Q750.7594,87.2613 751.4156,86.8957 Q752.0719,86.5207 752.8125,86.5207 Q753.2531,86.5207 753.6375,86.6238 Q754.0313,86.7176 754.3594,86.9332 Z " fill="#000000"/><text fill="#000000" font-family="sans-serif" font-size="8.4" lengthAdjust="spacing" textLength="34.2" x="761.1" y="92.8863">DBDriver</text><line style="stroke:#181818;stroke-width:0.3;" x1="744.3" x2="796.5" y1="99.0082" y2="99.0082"/><line style="stroke:#181818;stroke-width:0.3;" x1="744.3" x2="796.5" y1="103.8082" y2="103.8082"/></g><!--class IControllerRobot--><g id="elem_IControllerRobot"><rect codeLine="30" fill="#F1F1F1" height="28.8" id="IControllerRobot" rx="1.5" ry="1.5" style="stroke:#181818;stroke-width:0.3;" width="81.6" x="887.4" y="223.2082"/><ellipse cx="896.4" cy="232.8082" fill="#B4A7E5" rx="6.6" ry="6.6" style="stroke:#181818;stroke-width:0.6;"/><path d="M896.9719,230.7926 L896.9719,234.7863 L898.0031,234.7863 Q898.3688,234.7863 898.5281,234.927 Q898.6875,235.0676 898.6875,235.302 Q898.6875,235.527 898.5281,235.6676 Q898.3688,235.8082 898.0031,235.8082 L894.9187,235.8082 Q894.5531,235.8082 894.3938,235.6676 Q894.2344,235.527 894.2344,235.2926 Q894.2344,235.0676 894.3938,234.927 Q894.5531,234.7863 894.9187,234.7863 L895.95,234.7863 L895.95,230.7926 L894.9187,230.7926 Q894.5531,230.7926 894.3938,230.652 Q894.2344,230.5113 894.2344,230.277 Q894.2344,230.052 894.3938,229.9113 Q894.5531,229.7707 894.9187,229.7707 L898.0031,229.7707 Q898.3688,229.7707 898.5281,229.9113 Q898.6875,230.052 898.6875,230.277 Q898.6875,230.5113 898.5281,230.652 Q898.3688,230.7926 898.0031,230.7926 L896.9719,230.7926 Z " fill="#000000"/><text fill="#000000" font-family="sans-serif" font-size="8.4" font-style="italic" lengthAdjust="spacing" textLength="62.4" x="904.8" y="236.2863">IControllerRobot</text><line style="stroke:#181818;stroke-width:0.3;" x1="888" x2="968.4" y1="242.4082" y2="242.4082"/><line style="stroke:#181818;stroke-width:0.3;" x1="888" x2="968.4" y1="247.2082" y2="247.2082"/></g><!--class ControllerRobot--><g id="elem_ControllerRobot"><rect codeLine="34" fill="#F1F1F1" height="28.8" id="ControllerRobot" rx="1.5" ry="1.5" style="stroke:#181818;stroke-width:0.3;" width="79.2" x="887.4" y="352.2082"/><ellipse cx="896.4" cy="361.8082" fill="#ADD1B2" rx="6.6" ry="6.6" style="stroke:#181818;stroke-width:0.6;"/><path d="M898.0594,359.3332 Q898.1531,359.202 898.2656,359.1363 Q898.3781,359.0707 898.5094,359.0707 Q898.7344,359.0707 898.875,359.2301 Q899.0156,359.3801 899.0156,359.7457 L899.0156,360.6176 Q899.0156,360.9832 898.875,361.1426 Q898.7344,361.302 898.5094,361.302 Q898.3031,361.302 898.1813,361.1801 Q898.0594,361.0676 897.9938,360.7582 Q897.9656,360.5426 897.8531,360.4301 Q897.6563,360.2051 897.2906,360.0738 Q896.925,359.9426 896.55,359.9426 Q896.0906,359.9426 895.7063,360.1395 Q895.3313,360.3363 895.0313,360.7863 Q894.7406,361.2363 894.7406,361.8551 L894.7406,362.5113 Q894.7406,363.252 895.275,363.7488 Q895.8094,364.2363 896.7656,364.2363 Q897.3281,364.2363 897.7219,364.0863 Q897.9563,363.9926 898.2094,363.7301 Q898.3688,363.5707 898.4531,363.5238 Q898.5469,363.477 898.6687,363.477 Q898.8656,363.477 899.0156,363.6363 Q899.175,363.7863 899.175,363.9926 Q899.175,364.1988 898.9688,364.4426 Q898.6687,364.7895 898.1906,364.9863 Q897.5437,365.2582 896.7656,365.2582 Q895.8562,365.2582 895.1344,364.8832 Q894.5437,364.5832 894.1313,363.9457 Q893.7188,363.2988 893.7188,362.5301 L893.7188,361.8363 Q893.7188,361.0395 894.0844,360.3551 Q894.4594,359.6613 895.1156,359.2957 Q895.7719,358.9207 896.5125,358.9207 Q896.9531,358.9207 897.3375,359.0238 Q897.7312,359.1176 898.0594,359.3332 Z " fill="#000000"/><text fill="#000000" font-family="sans-serif" font-size="8.4" lengthAdjust="spacing" textLength="60" x="904.8" y="365.2863">ControllerRobot</text><line style="stroke:#181818;stroke-width:0.3;" x1="888" x2="966" y1="371.4082" y2="371.4082"/><line style="stroke:#181818;stroke-width:0.3;" x1="888" x2="966" y1="376.2082" y2="376.2082"/></g><!--class RepoRobot--><g id="elem_RepoRobot"><rect codeLine="40" fill="#F1F1F1" height="28.8" id="RepoRobot" rx="1.5" ry="1.5" style="stroke:#181818;stroke-width:0.3;" width="62.4" x="777" y="223.2082"/><ellipse cx="786" cy="232.8082" fill="#ADD1B2" rx="6.6" ry="6.6" style="stroke:#181818;stroke-width:0.6;"/><path d="M787.6594,230.3332 Q787.7531,230.202 787.8656,230.1363 Q787.9781,230.0707 788.1094,230.0707 Q788.3344,230.0707 788.475,230.2301 Q788.6156,230.3801 788.6156,230.7457 L788.6156,231.6176 Q788.6156,231.9832 788.475,232.1426 Q788.3344,232.302 788.1094,232.302 Q787.9031,232.302 787.7813,232.1801 Q787.6594,232.0676 787.5938,231.7582 Q787.5656,231.5426 787.4531,231.4301 Q787.2563,231.2051 786.8906,231.0738 Q786.525,230.9426 786.15,230.9426 Q785.6906,230.9426 785.3063,231.1395 Q784.9313,231.3363 784.6313,231.7863 Q784.3406,232.2363 784.3406,232.8551 L784.3406,233.5113 Q784.3406,234.252 784.875,234.7488 Q785.4094,235.2363 786.3656,235.2363 Q786.9281,235.2363 787.3219,235.0863 Q787.5563,234.9926 787.8094,234.7301 Q787.9688,234.5707 788.0531,234.5238 Q788.1469,234.477 788.2688,234.477 Q788.4656,234.477 788.6156,234.6363 Q788.775,234.7863 788.775,234.9926 Q788.775,235.1988 788.5688,235.4426 Q788.2688,235.7895 787.7906,235.9863 Q787.1438,236.2582 786.3656,236.2582 Q785.4563,236.2582 784.7344,235.8832 Q784.1438,235.5832 783.7312,234.9457 Q783.3188,234.2988 783.3188,233.5301 L783.3188,232.8363 Q783.3188,232.0395 783.6844,231.3551 Q784.0594,230.6613 784.7156,230.2957 Q785.3719,229.9207 786.1125,229.9207 Q786.5531,229.9207 786.9375,230.0238 Q787.3313,230.1176 787.6594,230.3332 Z " fill="#000000"/><text fill="#000000" font-family="sans-serif" font-size="8.4" lengthAdjust="spacing" textLength="43.2" x="794.4" y="236.2863">RepoRobot</text><line style="stroke:#181818;stroke-width:0.3;" x1="777.6" x2="838.8" y1="242.4082" y2="242.4082"/><line style="stroke:#181818;stroke-width:0.3;" x1="777.6" x2="838.8" y1="247.2082" y2="247.2082"/></g><!--class IAppServiceRobot--><g id="elem_IAppServiceRobot"><rect codeLine="51" fill="#F1F1F1" height="28.8" id="IAppServiceRobot" rx="1.5" ry="1.5" style="stroke:#181818;stroke-width:0.3;" width="87" x="612.9" y="593.7082"/><ellipse cx="621.9" cy="603.3082" fill="#B4A7E5" rx="6.6" ry="6.6" style="stroke:#181818;stroke-width:0.6;"/><path d="M622.4719,601.2926 L622.4719,605.2863 L623.5031,605.2863 Q623.8688,605.2863 624.0281,605.427 Q624.1875,605.5676 624.1875,605.802 Q624.1875,606.027 624.0281,606.1676 Q623.8688,606.3082 623.5031,606.3082 L620.4187,606.3082 Q620.0531,606.3082 619.8938,606.1676 Q619.7344,606.027 619.7344,605.7926 Q619.7344,605.5676 619.8938,605.427 Q620.0531,605.2863 620.4187,605.2863 L621.45,605.2863 L621.45,601.2926 L620.4187,601.2926 Q620.0531,601.2926 619.8938,601.152 Q619.7344,601.0113 619.7344,600.777 Q619.7344,600.552 619.8938,600.4113 Q620.0531,600.2707 620.4187,600.2707 L623.5031,600.2707 Q623.8688,600.2707 624.0281,600.4113 Q624.1875,600.552 624.1875,600.777 Q624.1875,601.0113 624.0281,601.152 Q623.8688,601.2926 623.5031,601.2926 L622.4719,601.2926 Z " fill="#000000"/><text fill="#000000" font-family="sans-serif" font-size="8.4" font-style="italic" lengthAdjust="spacing" textLength="67.8" x="630.3" y="606.7863">IAppServiceRobot</text><line style="stroke:#181818;stroke-width:0.3;" x1="613.5" x2="699.3" y1="612.9082" y2="612.9082"/><line style="stroke:#181818;stroke-width:0.3;" x1="613.5" x2="699.3" y1="617.7082" y2="617.7082"/></g><!--class AppServiceRobot--><g id="elem_AppServiceRobot"><rect codeLine="55" fill="#F1F1F1" height="28.8" id="AppServiceRobot" rx="1.5" ry="1.5" style="stroke:#181818;stroke-width:0.3;" width="85.2" x="613.2" y="456.0082"/><ellipse cx="622.2" cy="465.6082" fill="#ADD1B2" rx="6.6" ry="6.6" style="stroke:#181818;stroke-width:0.6;"/><path d="M623.8594,463.1332 Q623.9531,463.002 624.0656,462.9363 Q624.1781,462.8707 624.3094,462.8707 Q624.5344,462.8707 624.675,463.0301 Q624.8156,463.1801 624.8156,463.5457 L624.8156,464.4176 Q624.8156,464.7832 624.675,464.9426 Q624.5344,465.102 624.3094,465.102 Q624.1031,465.102 623.9812,464.9801 Q623.8594,464.8676 623.7937,464.5582 Q623.7656,464.3426 623.6531,464.2301 Q623.4563,464.0051 623.0906,463.8738 Q622.725,463.7426 622.35,463.7426 Q621.8906,463.7426 621.5063,463.9395 Q621.1313,464.1363 620.8313,464.5863 Q620.5406,465.0363 620.5406,465.6551 L620.5406,466.3113 Q620.5406,467.052 621.075,467.5488 Q621.6094,468.0363 622.5656,468.0363 Q623.1281,468.0363 623.5219,467.8863 Q623.7563,467.7926 624.0094,467.5301 Q624.1687,467.3707 624.2531,467.3238 Q624.3469,467.277 624.4688,467.277 Q624.6656,467.277 624.8156,467.4363 Q624.975,467.5863 624.975,467.7926 Q624.975,467.9988 624.7688,468.2426 Q624.4688,468.5895 623.9906,468.7863 Q623.3438,469.0582 622.5656,469.0582 Q621.6563,469.0582 620.9344,468.6832 Q620.3438,468.3832 619.9313,467.7457 Q619.5188,467.0988 619.5188,466.3301 L619.5188,465.6363 Q619.5188,464.8395 619.8844,464.1551 Q620.2594,463.4613 620.9156,463.0957 Q621.5719,462.7207 622.3125,462.7207 Q622.7531,462.7207 623.1375,462.8238 Q623.5313,462.9176 623.8594,463.1332 Z " fill="#000000"/><text fill="#000000" font-family="sans-serif" font-size="8.4" lengthAdjust="spacing" textLength="66" x="630.6" y="469.0863">AppServiceRobot</text><line style="stroke:#181818;stroke-width:0.3;" x1="613.8" x2="697.8" y1="475.2082" y2="475.2082"/><line style="stroke:#181818;stroke-width:0.3;" x1="613.8" x2="697.8" y1="480.0082" y2="480.0082"/></g><!--class IRepoRobot--><g id="elem_IRepoRobot"><rect codeLine="61" fill="#F1F1F1" height="28.8" id="IRepoRobot" rx="1.5" ry="1.5" style="stroke:#181818;stroke-width:0.3;" width="64.8" x="635.4" y="352.2082"/><ellipse cx="644.4" cy="361.8082" fill="#B4A7E5" rx="6.6" ry="6.6" style="stroke:#181818;stroke-width:0.6;"/><path d="M644.9719,359.7926 L644.9719,363.7863 L646.0031,363.7863 Q646.3688,363.7863 646.5281,363.927 Q646.6875,364.0676 646.6875,364.302 Q646.6875,364.527 646.5281,364.6676 Q646.3688,364.8082 646.0031,364.8082 L642.9187,364.8082 Q642.5531,364.8082 642.3938,364.6676 Q642.2344,364.527 642.2344,364.2926 Q642.2344,364.0676 642.3938,363.927 Q642.5531,363.7863 642.9187,363.7863 L643.95,363.7863 L643.95,359.7926 L642.9187,359.7926 Q642.5531,359.7926 642.3938,359.652 Q642.2344,359.5113 642.2344,359.277 Q642.2344,359.052 642.3938,358.9113 Q642.5531,358.7707 642.9187,358.7707 L646.0031,358.7707 Q646.3688,358.7707 646.5281,358.9113 Q646.6875,359.052 646.6875,359.277 Q646.6875,359.5113 646.5281,359.652 Q646.3688,359.7926 646.0031,359.7926 L644.9719,359.7926 Z " fill="#000000"/><text fill="#000000" font-family="sans-serif" font-size="8.4" font-style="italic" lengthAdjust="spacing" textLength="45.6" x="652.8" y="365.2863">IRepoRobot</text><line style="stroke:#181818;stroke-width:0.3;" x1="636" x2="699.6" y1="371.4082" y2="371.4082"/><line style="stroke:#181818;stroke-width:0.3;" x1="636" x2="699.6" y1="376.2082" y2="376.2082"/></g><!--class RobotType--><g id="elem_RobotType"><rect codeLine="75" fill="#F1F1F1" height="45.9258" id="RobotType" rx="1.5" ry="1.5" style="stroke:#181818;stroke-width:0.3;" width="61.2" x="400.2" y="585.0082"/><ellipse cx="409.2" cy="603.1711" fill="#ADD1B2" rx="6.6" ry="6.6" style="stroke:#181818;stroke-width:0.6;"/><path d="M408.5156,603.6492 L408.5156,605.1492 L411.1125,605.1492 L411.1125,604.5961 Q411.1125,604.2305 411.2531,604.0711 Q411.4031,603.9117 411.6281,603.9117 Q411.8531,603.9117 411.9938,604.0711 Q412.1344,604.2305 412.1344,604.5961 L412.1344,606.1711 L407.3344,606.1711 Q406.9594,606.1711 406.8,606.0305 Q406.65,605.8898 406.65,605.6555 Q406.65,605.4305 406.8094,605.2898 Q406.9688,605.1492 407.3344,605.1492 L407.4938,605.1492 L407.4938,601.1555 L407.3344,601.1555 Q406.9594,601.1555 406.8,601.0148 Q406.65,600.8742 406.65,600.6398 Q406.65,600.4148 406.8,600.2742 Q406.9594,600.1336 407.3344,600.1336 L411.9094,600.1336 L411.9094,601.6898 Q411.9094,602.0555 411.7688,602.2148 Q411.6375,602.3648 411.4031,602.3648 Q411.1781,602.3648 411.0375,602.2148 Q410.8969,602.0555 410.8969,601.6898 L410.8969,601.1555 L408.5156,601.1555 L408.5156,602.6273 L409.4063,602.6273 Q409.4063,602.2336 409.4813,602.1211 Q409.6406,601.8773 409.9219,601.8773 Q410.1469,601.8773 410.2875,602.0367 Q410.4281,602.1867 410.4281,602.5523 L410.4281,603.7336 Q410.4281,604.0617 410.3531,604.1742 Q410.1937,604.4086 409.9219,604.4086 Q409.6406,604.4086 409.4813,604.1648 Q409.4063,604.0523 409.4063,603.6492 L408.5156,603.6492 Z " fill="#000000"/><text fill="#000000" font-family="sans-serif" font-size="7.2" font-style="italic" lengthAdjust="spacing" textLength="21" x="428.1" y="595.7777">&#171;root&#187;</text><text fill="#000000" font-family="sans-serif" font-size="7.2" font-style="italic" lengthAdjust="spacing" textLength="25.8" x="425.7" y="605.3543">&#171;entity&#187;</text><text fill="#000000" font-family="sans-serif" font-size="8.4" lengthAdjust="spacing" textLength="42" x="417.6" y="616.2258">RobotType</text><line style="stroke:#181818;stroke-width:0.3;" x1="400.8" x2="460.8" y1="621.334" y2="621.334"/><line style="stroke:#181818;stroke-width:0.3;" x1="400.8" x2="460.8" y1="626.134" y2="626.134"/></g><!--class Robot--><g id="elem_Robot"><rect codeLine="79" fill="#F1F1F1" height="45.9258" id="Robot" rx="1.5" ry="1.5" style="stroke:#181818;stroke-width:0.3;" width="42.6" x="323.7" y="585.0082"/><ellipse cx="332.7" cy="603.1711" fill="#ADD1B2" rx="6.6" ry="6.6" style="stroke:#181818;stroke-width:0.6;"/><path d="M332.0156,603.6492 L332.0156,605.1492 L334.6125,605.1492 L334.6125,604.5961 Q334.6125,604.2305 334.7531,604.0711 Q334.9031,603.9117 335.1281,603.9117 Q335.3531,603.9117 335.4938,604.0711 Q335.6344,604.2305 335.6344,604.5961 L335.6344,606.1711 L330.8344,606.1711 Q330.4594,606.1711 330.3,606.0305 Q330.15,605.8898 330.15,605.6555 Q330.15,605.4305 330.3094,605.2898 Q330.4688,605.1492 330.8344,605.1492 L330.9938,605.1492 L330.9938,601.1555 L330.8344,601.1555 Q330.4594,601.1555 330.3,601.0148 Q330.15,600.8742 330.15,600.6398 Q330.15,600.4148 330.3,600.2742 Q330.4594,600.1336 330.8344,600.1336 L335.4094,600.1336 L335.4094,601.6898 Q335.4094,602.0555 335.2688,602.2148 Q335.1375,602.3648 334.9031,602.3648 Q334.6781,602.3648 334.5375,602.2148 Q334.3969,602.0555 334.3969,601.6898 L334.3969,601.1555 L332.0156,601.1555 L332.0156,602.6273 L332.9063,602.6273 Q332.9063,602.2336 332.9813,602.1211 Q333.1406,601.8773 333.4219,601.8773 Q333.6469,601.8773 333.7875,602.0367 Q333.9281,602.1867 333.9281,602.5523 L333.9281,603.7336 Q333.9281,604.0617 333.8531,604.1742 Q333.6937,604.4086 333.4219,604.4086 Q333.1406,604.4086 332.9813,604.1648 Q332.9063,604.0523 332.9063,603.6492 L332.0156,603.6492 Z " fill="#000000"/><text fill="#000000" font-family="sans-serif" font-size="7.2" font-style="italic" lengthAdjust="spacing" textLength="21" x="342.3" y="595.7777">&#171;root&#187;</text><text fill="#000000" font-family="sans-serif" font-size="7.2" font-style="italic" lengthAdjust="spacing" textLength="25.8" x="339.9" y="605.3543">&#171;entity&#187;</text><text fill="#000000" font-family="sans-serif" font-size="8.4" lengthAdjust="spacing" textLength="22.8" x="341.4" y="616.2258">Robot</text><line style="stroke:#181818;stroke-width:0.3;" x1="324.3" x2="365.7" y1="621.334" y2="621.334"/><line style="stroke:#181818;stroke-width:0.3;" x1="324.3" x2="365.7" y1="626.134" y2="626.134"/></g><!--class RobotCode--><g id="elem_RobotCode"><rect codeLine="87" fill="#F1F1F1" height="28.8" id="RobotCode" rx="1.5" ry="1.5" style="stroke:#181818;stroke-width:0.3;" width="62.4" x="459" y="724.5082"/><ellipse cx="468" cy="734.1082" fill="#ADD1B2" rx="6.6" ry="6.6" style="stroke:#181818;stroke-width:0.6;"/><path d="M469.6594,731.6332 Q469.7531,731.502 469.8656,731.4363 Q469.9781,731.3707 470.1094,731.3707 Q470.3344,731.3707 470.475,731.5301 Q470.6156,731.6801 470.6156,732.0457 L470.6156,732.9176 Q470.6156,733.2832 470.475,733.4426 Q470.3344,733.602 470.1094,733.602 Q469.9031,733.602 469.7813,733.4801 Q469.6594,733.3676 469.5938,733.0582 Q469.5656,732.8426 469.4531,732.7301 Q469.2562,732.5051 468.8906,732.3738 Q468.525,732.2426 468.15,732.2426 Q467.6906,732.2426 467.3063,732.4395 Q466.9313,732.6363 466.6312,733.0863 Q466.3406,733.5363 466.3406,734.1551 L466.3406,734.8113 Q466.3406,735.552 466.875,736.0488 Q467.4094,736.5363 468.3656,736.5363 Q468.9281,736.5363 469.3219,736.3863 Q469.5563,736.2926 469.8094,736.0301 Q469.9688,735.8707 470.0531,735.8238 Q470.1469,735.777 470.2687,735.777 Q470.4656,735.777 470.6156,735.9363 Q470.775,736.0863 470.775,736.2926 Q470.775,736.4988 470.5687,736.7426 Q470.2687,737.0895 469.7906,737.2863 Q469.1437,737.5582 468.3656,737.5582 Q467.4562,737.5582 466.7344,737.1832 Q466.1437,736.8832 465.7313,736.2457 Q465.3187,735.5988 465.3187,734.8301 L465.3187,734.1363 Q465.3187,733.3395 465.6844,732.6551 Q466.0594,731.9613 466.7156,731.5957 Q467.3719,731.2207 468.1125,731.2207 Q468.5531,731.2207 468.9375,731.3238 Q469.3312,731.4176 469.6594,731.6332 Z " fill="#000000"/><text fill="#000000" font-family="sans-serif" font-size="8.4" lengthAdjust="spacing" textLength="43.2" x="476.4" y="737.5863">RobotCode</text><line style="stroke:#181818;stroke-width:0.3;" x1="459.6" x2="520.8" y1="743.7082" y2="743.7082"/><line style="stroke:#181818;stroke-width:0.3;" x1="459.6" x2="520.8" y1="748.5082" y2="748.5082"/></g><!--class RobotNickname--><g id="elem_RobotNickname"><rect codeLine="88" fill="#F1F1F1" height="28.8" id="RobotNickname" rx="1.5" ry="1.5" style="stroke:#181818;stroke-width:0.3;" width="78.6" x="359.1" y="724.5082"/><ellipse cx="368.1" cy="734.1082" fill="#ADD1B2" rx="6.6" ry="6.6" style="stroke:#181818;stroke-width:0.6;"/><path d="M369.7594,731.6332 Q369.8531,731.502 369.9656,731.4363 Q370.0781,731.3707 370.2094,731.3707 Q370.4344,731.3707 370.575,731.5301 Q370.7156,731.6801 370.7156,732.0457 L370.7156,732.9176 Q370.7156,733.2832 370.575,733.4426 Q370.4344,733.602 370.2094,733.602 Q370.0031,733.602 369.8812,733.4801 Q369.7594,733.3676 369.6937,733.0582 Q369.6656,732.8426 369.5531,732.7301 Q369.3563,732.5051 368.9906,732.3738 Q368.625,732.2426 368.25,732.2426 Q367.7906,732.2426 367.4063,732.4395 Q367.0313,732.6363 366.7313,733.0863 Q366.4406,733.5363 366.4406,734.1551 L366.4406,734.8113 Q366.4406,735.552 366.975,736.0488 Q367.5094,736.5363 368.4656,736.5363 Q369.0281,736.5363 369.4219,736.3863 Q369.6563,736.2926 369.9094,736.0301 Q370.0687,735.8707 370.1531,735.8238 Q370.2469,735.777 370.3688,735.777 Q370.5656,735.777 370.7156,735.9363 Q370.875,736.0863 370.875,736.2926 Q370.875,736.4988 370.6688,736.7426 Q370.3688,737.0895 369.8906,737.2863 Q369.2438,737.5582 368.4656,737.5582 Q367.5563,737.5582 366.8344,737.1832 Q366.2438,736.8832 365.8313,736.2457 Q365.4188,735.5988 365.4188,734.8301 L365.4188,734.1363 Q365.4188,733.3395 365.7844,732.6551 Q366.1594,731.9613 366.8156,731.5957 Q367.4719,731.2207 368.2125,731.2207 Q368.6531,731.2207 369.0375,731.3238 Q369.4313,731.4176 369.7594,731.6332 Z " fill="#000000"/><text fill="#000000" font-family="sans-serif" font-size="8.4" lengthAdjust="spacing" textLength="59.4" x="376.5" y="737.5863">RobotNickname</text><line style="stroke:#181818;stroke-width:0.3;" x1="359.7" x2="437.1" y1="743.7082" y2="743.7082"/><line style="stroke:#181818;stroke-width:0.3;" x1="359.7" x2="437.1" y1="748.5082" y2="748.5082"/></g><!--class RobotSerialNumber--><g id="elem_RobotSerialNumber"><rect codeLine="89" fill="#F1F1F1" height="28.8" id="RobotSerialNumber" rx="1.5" ry="1.5" style="stroke:#181818;stroke-width:0.3;" width="93" x="245.1" y="724.5082"/><ellipse cx="254.1" cy="734.1082" fill="#ADD1B2" rx="6.6" ry="6.6" style="stroke:#181818;stroke-width:0.6;"/><path d="M255.7594,731.6332 Q255.8531,731.502 255.9656,731.4363 Q256.0781,731.3707 256.2094,731.3707 Q256.4344,731.3707 256.575,731.5301 Q256.7156,731.6801 256.7156,732.0457 L256.7156,732.9176 Q256.7156,733.2832 256.575,733.4426 Q256.4344,733.602 256.2094,733.602 Q256.0031,733.602 255.8813,733.4801 Q255.7594,733.3676 255.6938,733.0582 Q255.6656,732.8426 255.5531,732.7301 Q255.3563,732.5051 254.9906,732.3738 Q254.625,732.2426 254.25,732.2426 Q253.7906,732.2426 253.4063,732.4395 Q253.0313,732.6363 252.7313,733.0863 Q252.4406,733.5363 252.4406,734.1551 L252.4406,734.8113 Q252.4406,735.552 252.975,736.0488 Q253.5094,736.5363 254.4656,736.5363 Q255.0281,736.5363 255.4219,736.3863 Q255.6563,736.2926 255.9094,736.0301 Q256.0687,735.8707 256.1531,735.8238 Q256.2469,735.777 256.3688,735.777 Q256.5656,735.777 256.7156,735.9363 Q256.875,736.0863 256.875,736.2926 Q256.875,736.4988 256.6688,736.7426 Q256.3688,737.0895 255.8906,737.2863 Q255.2437,737.5582 254.4656,737.5582 Q253.5562,737.5582 252.8344,737.1832 Q252.2437,736.8832 251.8312,736.2457 Q251.4188,735.5988 251.4188,734.8301 L251.4188,734.1363 Q251.4188,733.3395 251.7844,732.6551 Q252.1594,731.9613 252.8156,731.5957 Q253.4719,731.2207 254.2125,731.2207 Q254.6531,731.2207 255.0375,731.3238 Q255.4312,731.4176 255.7594,731.6332 Z " fill="#000000"/><text fill="#000000" font-family="sans-serif" font-size="8.4" lengthAdjust="spacing" textLength="73.8" x="262.5" y="737.5863">RobotSerialNumber</text><line style="stroke:#181818;stroke-width:0.3;" x1="245.7" x2="337.5" y1="743.7082" y2="743.7082"/><line style="stroke:#181818;stroke-width:0.3;" x1="245.7" x2="337.5" y1="748.5082" y2="748.5082"/></g><!--class RobotDescription--><g id="elem_RobotDescription"><rect codeLine="90" fill="#F1F1F1" height="28.8" id="RobotDescription" rx="1.5" ry="1.5" style="stroke:#181818;stroke-width:0.3;" width="84.6" x="139.5" y="724.5082"/><ellipse cx="148.5" cy="734.1082" fill="#ADD1B2" rx="6.6" ry="6.6" style="stroke:#181818;stroke-width:0.6;"/><path d="M150.1594,731.6332 Q150.2531,731.502 150.3656,731.4363 Q150.4781,731.3707 150.6094,731.3707 Q150.8344,731.3707 150.975,731.5301 Q151.1156,731.6801 151.1156,732.0457 L151.1156,732.9176 Q151.1156,733.2832 150.975,733.4426 Q150.8344,733.602 150.6094,733.602 Q150.4031,733.602 150.2813,733.4801 Q150.1594,733.3676 150.0938,733.0582 Q150.0656,732.8426 149.9531,732.7301 Q149.7563,732.5051 149.3906,732.3738 Q149.025,732.2426 148.65,732.2426 Q148.1906,732.2426 147.8063,732.4395 Q147.4313,732.6363 147.1313,733.0863 Q146.8406,733.5363 146.8406,734.1551 L146.8406,734.8113 Q146.8406,735.552 147.375,736.0488 Q147.9094,736.5363 148.8656,736.5363 Q149.4281,736.5363 149.8219,736.3863 Q150.0563,736.2926 150.3094,736.0301 Q150.4688,735.8707 150.5531,735.8238 Q150.6469,735.777 150.7687,735.777 Q150.9656,735.777 151.1156,735.9363 Q151.275,736.0863 151.275,736.2926 Q151.275,736.4988 151.0688,736.7426 Q150.7687,737.0895 150.2906,737.2863 Q149.6437,737.5582 148.8656,737.5582 Q147.9562,737.5582 147.2344,737.1832 Q146.6437,736.8832 146.2313,736.2457 Q145.8188,735.5988 145.8188,734.8301 L145.8188,734.1363 Q145.8188,733.3395 146.1844,732.6551 Q146.5594,731.9613 147.2156,731.5957 Q147.8719,731.2207 148.6125,731.2207 Q149.0531,731.2207 149.4375,731.3238 Q149.8312,731.4176 150.1594,731.6332 Z " fill="#000000"/><text fill="#000000" font-family="sans-serif" font-size="8.4" lengthAdjust="spacing" textLength="65.4" x="156.9" y="737.5863">RobotDescription</text><line style="stroke:#181818;stroke-width:0.3;" x1="140.1" x2="223.5" y1="743.7082" y2="743.7082"/><line style="stroke:#181818;stroke-width:0.3;" x1="140.1" x2="223.5" y1="748.5082" y2="748.5082"/></g><!--class RobotState--><g id="elem_RobotState"><rect codeLine="91" fill="#F1F1F1" height="28.8" id="RobotState" rx="1.5" ry="1.5" style="stroke:#181818;stroke-width:0.3;" width="61.8" x="56.7" y="724.5082"/><ellipse cx="65.7" cy="734.1082" fill="#ADD1B2" rx="6.6" ry="6.6" style="stroke:#181818;stroke-width:0.6;"/><path d="M67.3594,731.6332 Q67.4531,731.502 67.5656,731.4363 Q67.6781,731.3707 67.8094,731.3707 Q68.0344,731.3707 68.175,731.5301 Q68.3156,731.6801 68.3156,732.0457 L68.3156,732.9176 Q68.3156,733.2832 68.175,733.4426 Q68.0344,733.602 67.8094,733.602 Q67.6031,733.602 67.4813,733.4801 Q67.3594,733.3676 67.2938,733.0582 Q67.2656,732.8426 67.1531,732.7301 Q66.9563,732.5051 66.5906,732.3738 Q66.225,732.2426 65.85,732.2426 Q65.3906,732.2426 65.0063,732.4395 Q64.6313,732.6363 64.3313,733.0863 Q64.0406,733.5363 64.0406,734.1551 L64.0406,734.8113 Q64.0406,735.552 64.575,736.0488 Q65.1094,736.5363 66.0656,736.5363 Q66.6281,736.5363 67.0219,736.3863 Q67.2563,736.2926 67.5094,736.0301 Q67.6688,735.8707 67.7531,735.8238 Q67.8469,735.777 67.9688,735.777 Q68.1656,735.777 68.3156,735.9363 Q68.475,736.0863 68.475,736.2926 Q68.475,736.4988 68.2688,736.7426 Q67.9688,737.0895 67.4906,737.2863 Q66.8438,737.5582 66.0656,737.5582 Q65.1563,737.5582 64.4344,737.1832 Q63.8438,736.8832 63.4313,736.2457 Q63.0188,735.5988 63.0188,734.8301 L63.0188,734.1363 Q63.0188,733.3395 63.3844,732.6551 Q63.7594,731.9613 64.4156,731.5957 Q65.0719,731.2207 65.8125,731.2207 Q66.2531,731.2207 66.6375,731.3238 Q67.0313,731.4176 67.3594,731.6332 Z " fill="#000000"/><text fill="#000000" font-family="sans-serif" font-size="8.4" lengthAdjust="spacing" textLength="42.6" x="74.1" y="737.5863">RobotState</text><line style="stroke:#181818;stroke-width:0.3;" x1="57.3" x2="117.9" y1="743.7082" y2="743.7082"/><line style="stroke:#181818;stroke-width:0.3;" x1="57.3" x2="117.9" y1="748.5082" y2="748.5082"/></g><!--class IRobotDTO--><g id="elem_IRobotDTO"><rect codeLine="107" fill="#F1F1F1" height="28.8" id="IRobotDTO" rx="1.5" ry="1.5" style="stroke:#181818;stroke-width:0.3;" width="62.4" x="624.6" y="223.2082"/><ellipse cx="633.6" cy="232.8082" fill="#B4A7E5" rx="6.6" ry="6.6" style="stroke:#181818;stroke-width:0.6;"/><path d="M634.1719,230.7926 L634.1719,234.7863 L635.2031,234.7863 Q635.5688,234.7863 635.7281,234.927 Q635.8875,235.0676 635.8875,235.302 Q635.8875,235.527 635.7281,235.6676 Q635.5688,235.8082 635.2031,235.8082 L632.1188,235.8082 Q631.7531,235.8082 631.5938,235.6676 Q631.4344,235.527 631.4344,235.2926 Q631.4344,235.0676 631.5938,234.927 Q631.7531,234.7863 632.1188,234.7863 L633.15,234.7863 L633.15,230.7926 L632.1188,230.7926 Q631.7531,230.7926 631.5938,230.652 Q631.4344,230.5113 631.4344,230.277 Q631.4344,230.052 631.5938,229.9113 Q631.7531,229.7707 632.1188,229.7707 L635.2031,229.7707 Q635.5688,229.7707 635.7281,229.9113 Q635.8875,230.052 635.8875,230.277 Q635.8875,230.5113 635.7281,230.652 Q635.5688,230.7926 635.2031,230.7926 L634.1719,230.7926 Z " fill="#000000"/><text fill="#000000" font-family="sans-serif" font-size="8.4" font-style="italic" lengthAdjust="spacing" textLength="43.2" x="642" y="236.2863">IRobotDTO</text><line style="stroke:#181818;stroke-width:0.3;" x1="625.2" x2="686.4" y1="242.4082" y2="242.4082"/><line style="stroke:#181818;stroke-width:0.3;" x1="625.2" x2="686.4" y1="247.2082" y2="247.2082"/></g><!--link DBDriver to IDBDriver--><g id="link_DBDriver_IDBDriver"><path codeLine="24" d="M797.274,94.2082 C800.22,94.2082 803.16,94.2082 806.106,94.2082 " fill="none" id="DBDriver-to-IDBDriver" style="stroke:#FF6655;stroke-width:0.6;"/><polygon fill="none" points="806.208,90.0082,818.208,94.2082,806.208,98.4082,806.208,90.0082" style="stroke:#FF6655;stroke-width:0.6;"/></g><!--reverse link IControllerRobot to ControllerRobot--><g id="link_IControllerRobot_ControllerRobot"><path codeLine="36" d="M927.954,264.2722 C927.708,290.8522 927.33,331.0882 927.132,352.1062 " fill="none" id="IControllerRobot-backto-ControllerRobot" style="stroke:#FF6655;stroke-width:0.6;"/><polygon fill="none" points="923.754,264.0862,928.068,252.1282,932.154,264.1702,923.754,264.0862" style="stroke:#FF6655;stroke-width:0.6;"/></g><!--reverse link DBDriver to RepoRobot--><g id="link_DBDriver_RepoRobot"><path codeLine="43" d="M774.888,111.6862 C782.43,140.0602 797.508,196.7842 804.492,223.0582 " fill="none" id="DBDriver-backto-RepoRobot" style="stroke:#FF6655;stroke-width:0.6;stroke-dasharray:7.0,7.0;"/><polygon fill="#FF6655" points="774.096,108.7042,773.1663,114.5399,774.8679,111.6032,777.8046,113.3048,774.096,108.7042" style="stroke:#FF6655;stroke-width:0.6;"/></g><!--link RouteRobot to IControllerRobot--><g id="link_RouteRobot_IControllerRobot"><path codeLine="45" d="M938.484,108.7042 C936.384,134.9302 931.836,191.6542 929.556,220.0702 " fill="none" id="RouteRobot-to-IControllerRobot" style="stroke:#FF6655;stroke-width:0.6;stroke-dasharray:7.0,7.0;"/><polygon fill="#FF6655" points="929.316,223.0582,932.1402,217.8674,929.5559,220.0678,927.3555,217.4836,929.316,223.0582" style="stroke:#FF6655;stroke-width:0.6;"/></g><!--link AppServiceRobot to IAppServiceRobot--><g id="link_AppServiceRobot_IAppServiceRobot"><path codeLine="58" d="M655.86,484.8502 C655.962,507.4822 656.16,552.7822 656.286,581.5462 " fill="none" id="AppServiceRobot-to-IAppServiceRobot" style="stroke:#FF6655;stroke-width:0.6;"/><polygon fill="none" points="660.486,581.6122,656.34,593.6302,652.086,581.6482,660.486,581.6122" style="stroke:#FF6655;stroke-width:0.6;"/></g><!--link RepoRobot to IRepoRobot--><g id="link_RepoRobot_IRepoRobot"><path codeLine="64" d="M792.906,252.1282 C768.642,274.2142 721.11,317.4802 692.13,343.8622 " fill="none" id="RepoRobot-to-IRepoRobot" style="stroke:#FF6655;stroke-width:0.6;"/><polygon fill="none" points="694.776,347.1322,683.076,352.1062,689.118,340.9222,694.776,347.1322" style="stroke:#FF6655;stroke-width:0.6;"/></g><!--link ControllerRobot to IAppServiceRobot--><g id="link_ControllerRobot_IAppServiceRobot"><path codeLine="67" d="M911.28,381.1642 C864.15,423.0262 724.176,547.3222 674.298,591.6142 " fill="none" id="ControllerRobot-to-IAppServiceRobot" style="stroke:#FF6655;stroke-width:0.6;stroke-dasharray:7.0,7.0;"/><polygon fill="#FF6655" points="671.994,593.6602,677.6241,591.8651,674.2358,591.6666,674.4343,588.2783,671.994,593.6602" style="stroke:#FF6655;stroke-width:0.6;"/></g><!--reverse link IRepoRobot to AppServiceRobot--><g id="link_IRepoRobot_AppServiceRobot"><path codeLine="69" d="M665.82,384.1462 C663.474,404.1982 659.61,437.2222 657.432,455.8642 " fill="none" id="IRepoRobot-backto-AppServiceRobot" style="stroke:#FF6655;stroke-width:0.6;stroke-dasharray:7.0,7.0;"/><polygon fill="#FF6655" points="666.18,381.0442,663.1646,386.1263,665.829,384.0236,667.9317,386.6879,666.18,381.0442" style="stroke:#FF6655;stroke-width:0.6;"/></g><!--link AppServiceRobot to Robot--><g id="link_AppServiceRobot_Robot"><path codeLine="95" d="M613.062,471.3202 C547.194,472.6102 424.89,478.4902 390.6,504.0082 C365.724,522.5182 354.186,557.5762 348.996,581.7202 " fill="none" id="AppServiceRobot-to-Robot" style="stroke:#FF6655;stroke-width:0.6;stroke-dasharray:7.0,7.0;"/><polygon fill="#FF6655" points="348.336,584.9062,351.7835,580.1068,348.9458,581.9688,347.0838,579.1311,348.336,584.9062" style="stroke:#FF6655;stroke-width:0.6;"/></g><!--reverse link RobotType to Robot--><g id="link_RobotType_Robot"><path codeLine="97" d="M396.978,608.1082 C386.802,608.1082 376.626,608.1082 366.45,608.1082 " fill="none" id="RobotType-backto-Robot" style="stroke:#FF6655;stroke-width:0.6;"/><polygon fill="#FF6655" points="400.134,608.1082,394.734,605.7082,397.134,608.1082,394.734,610.5082,400.134,608.1082" style="stroke:#FF6655;stroke-width:0.6;"/><text fill="#000000" font-family="Impact" font-size="7.8" lengthAdjust="spacing" textLength="3" x="392.4096" y="606.3737">1</text><text fill="#000000" font-family="Impact" font-size="7.8" lengthAdjust="spacing" textLength="3" x="371.1834" y="606.1299">1</text></g><!--link Robot to RobotCode--><g id="link_Robot_RobotCode"><path codeLine="99" d="M357.066,631.4842 C364.884,643.8322 376.284,658.0822 390.6,665.7082 C413.268,677.7862 426.294,657.0862 448.2,670.5082 C466.986,682.0162 478.644,705.4042 484.776,721.4662 " fill="none" id="Robot-to-RobotCode" style="stroke:#FF6655;stroke-width:0.6;"/><polygon fill="#FF6655" points="485.856,724.3762,486.2229,718.4783,484.8101,721.5644,481.724,720.1517,485.856,724.3762" style="stroke:#FF6655;stroke-width:0.6;"/><text fill="#000000" font-family="Impact" font-size="7.8" lengthAdjust="spacing" textLength="3" x="355.6839" y="643.6816">1</text><text fill="#000000" font-family="Impact" font-size="7.8" lengthAdjust="spacing" textLength="3" x="481.2124" y="717.9643">1</text></g><!--link Robot to RobotNickname--><g id="link_Robot_RobotNickname"><path codeLine="100" d="M354.3,631.2802 C364.884,656.9602 381.918,698.3122 391.422,721.3762 " fill="none" id="Robot-to-RobotNickname" style="stroke:#FF6655;stroke-width:0.6;"/><polygon fill="#FF6655" points="392.658,724.3702,392.8276,718.4633,391.5188,721.5949,388.3872,720.2861,392.658,724.3702" style="stroke:#FF6655;stroke-width:0.6;"/><text fill="#000000" font-family="Impact" font-size="7.8" lengthAdjust="spacing" textLength="3" x="352.5431" y="643.6218">1</text><text fill="#000000" font-family="Impact" font-size="7.8" lengthAdjust="spacing" textLength="3" x="387.6212" y="717.9566">1</text></g><!--link Robot to RobotSerialNumber--><g id="link_Robot_RobotSerialNumber"><path codeLine="101" d="M335.7,631.2802 C325.116,656.9602 308.082,698.3122 298.578,721.3762 " fill="none" id="Robot-to-RobotSerialNumber" style="stroke:#FF6655;stroke-width:0.6;"/><polygon fill="#FF6655" points="297.342,724.3702,301.6128,720.2861,298.4812,721.5949,297.1724,718.4633,297.342,724.3702" style="stroke:#FF6655;stroke-width:0.6;"/><text fill="#000000" font-family="Impact" font-size="7.8" lengthAdjust="spacing" textLength="3" x="330.9788" y="643.6218">1</text><text fill="#000000" font-family="Impact" font-size="7.8" lengthAdjust="spacing" textLength="3" x="295.5351" y="717.9566">1</text></g><!--link Robot to RobotDescription--><g id="link_Robot_RobotDescription"><path codeLine="102" d="M323.49,617.6302 C300.006,628.0462 262.092,646.8922 234.6,670.5082 C217.236,685.4242 201.714,706.8202 192.072,721.5682 " fill="none" id="Robot-to-RobotDescription" style="stroke:#FF6655;stroke-width:0.6;"/><polygon fill="#FF6655" points="190.338,724.2382,195.2924,721.0174,191.9724,721.7225,191.2673,718.4024,190.338,724.2382" style="stroke:#FF6655;stroke-width:0.6;"/><text fill="#000000" font-family="Impact" font-size="7.8" lengthAdjust="spacing" textLength="3" x="315.9599" y="617.565">1</text><text fill="#000000" font-family="Impact" font-size="7.8" lengthAdjust="spacing" textLength="3" x="189.2295" y="718.0239">1</text></g><!--link Robot to RobotState--><g id="link_Robot_RobotState"><path codeLine="103" d="M323.562,609.7762 C281.97,612.8482 189.132,624.7342 129,670.5082 C111.75,683.6422 100.074,706.2142 93.63,721.6822 " fill="none" id="Robot-to-RobotState" style="stroke:#FF6655;stroke-width:0.6;"/><polygon fill="#FF6655" points="92.49,724.4782,96.75,720.3828,93.6219,721.6999,92.3048,718.5718,92.49,724.4782" style="stroke:#FF6655;stroke-width:0.6;"/><text fill="#000000" font-family="Impact" font-size="7.8" lengthAdjust="spacing" textLength="3" x="315.831" y="608.1419">1</text><text fill="#000000" font-family="Impact" font-size="7.8" lengthAdjust="spacing" textLength="3" x="90.4434" y="718.095">1</text></g><!--reverse link IRobotDTO to AppServiceRobot--><g id="link_IRobotDTO_AppServiceRobot"><path codeLine="109" d="M636.714,254.4802 C632.286,259.3582 628.176,265.0642 625.8,271.2082 C601.278,334.6342 606.294,359.0662 625.8,424.2082 C629.304,435.9202 636.9,447.4042 643.566,455.9242 " fill="none" id="IRobotDTO-backto-AppServiceRobot" style="stroke:#FF6655;stroke-width:0.6;"/><polygon fill="#FF6655" points="638.91,252.1522,633.4614,254.4396,636.8539,254.3368,636.9567,257.7294,638.91,252.1522" style="stroke:#FF6655;stroke-width:0.6;"/></g><!--reverse link IRobotDTO to ControllerRobot--><g id="link_IRobotDTO_ControllerRobot"><path codeLine="110" d="M688.146,253.4482 C741.36,278.5282 846.552,328.1002 897.702,352.2022 " fill="none" id="IRobotDTO-backto-ControllerRobot" style="stroke:#FF6655;stroke-width:0.6;"/><polygon fill="#FF6655" points="685.338,252.1282,689.1987,256.602,688.0515,253.4077,691.2458,252.2604,685.338,252.1282" style="stroke:#FF6655;stroke-width:0.6;"/></g><!--SRC=[bLLDZzem4BtdLrZq75PxM4vH9215Mgc22b2lbGb3rYMnBSUXeYt_lKC2-N3iBEGKPvxdUTwyUF8Zuv8gcf5OP59mu9hyzGW-2y7rXlq1yZefrpCQ7nCb2hwVYrIe89XA6dz0699lBFdGSw5eMW65seCoGLyMYydaxQrElQGPaBae50DbRYEx5Cbih2G2a9lZUPOMKCQdIedVTRxt3Ebq4wZstAaldeVX8qs0vETSGtQhzFvnzCuFYkPQ5R4k58nkuGvaBGeDUJjqVUAKvZafOskn4xeE8cKlnNTGEKDw7eEPXt4Dwa1Zh2IQHOgTRjfqUNgX5iizHdnrxOh_BpHItR2jck-KqpsL-9vRwvwZn4gagH7lfXe06TKroAvUHZNTz9bCFs6ez1bEtbuPIE8NibJCbS7MpZL8aJCjqCWkNo32cQSEad4Xns7Jt0PHsugCnux3cLsTIfcoc6ecEDc0Eh4Ox7r5e1NGLHvHBf3Hs0RvN6C_OQY4V2Av0IL-sLSpWUCyGoqrwkttrdAOfiVLCGODONgoxBdpu6QTbOaC1jCTNxbc6cjxmKiRNYAHKSRjxaWI1GdL0zueMRPdYNSPpGdzgQvhZMkBRkK3L_8pgVUH8512Q1mHGL35ml0XsvGPsgmMnZRPCqJusbVZ1yMfGrQxNn1hgoySnpk9wdmEGLhp0q5piOT7S4iM7pdEl4Umw116qsMHxOnvui17aCUAoUljyL1wZGwn0YzU_qllKy_2Q63BxrbTXLV0w7L4_1GEsW_BzzfAWnlQOAl83gnJQ0T-K6p7dY71NJIrwERV7MrNVNEshwoISRlo-btgtPeu3qFB3jlSRECktdy0]--></g></svg>