<?xml version="1.0" encoding="us-ascii" standalone="no"?><svg xmlns="http://www.w3.org/2000/svg" xmlns:xlink="http://www.w3.org/1999/xlink" contentStyleType="text/css" height="416px" preserveAspectRatio="none" style="width:479px;height:416px;background:#FFFFFF;" version="1.1" viewBox="0 0 479 416" width="479px" zoomAndPan="magnify"><defs/><g><rect fill="#DDDDDD" height="404.25" style="stroke:#181818;stroke-width:0.5;" width="87" x="386" y="6"/><text fill="#000000" font-family="sans-serif" font-size="13" font-weight="bold" lengthAdjust="spacing" textLength="81" x="389" y="20.0283">RobDroneGo</text><rect fill="#FFFFFF" height="225.0078" style="stroke:#181818;stroke-width:1.0;" width="10" x="38.5" y="93.6211"/><rect fill="#FFFFFF" height="201.7168" style="stroke:#181818;stroke-width:1.0;" width="10" x="424.5" y="116.9121"/><rect fill="none" height="179.7168" style="stroke:#000000;stroke-width:1.5;" width="457" x="10" y="131.9121"/><rect fill="none" height="98.5039" style="stroke:#000000;stroke-width:1.5;" width="437" x="20" y="206.125"/><line style="stroke:#181818;stroke-width:0.5;stroke-dasharray:5.0,5.0;" x1="43" x2="43" y1="83.6211" y2="328.6289"/><line style="stroke:#181818;stroke-width:0.5;stroke-dasharray:5.0,5.0;" x1="429" x2="429" y1="83.6211" y2="328.6289"/><text fill="#000000" font-family="sans-serif" font-size="14" lengthAdjust="spacing" textLength="4" x="38.5" y="80.1074">&#160;</text><ellipse cx="43.5" cy="13.5" fill="#E2E2F0" rx="8" ry="8" style="stroke:#181818;stroke-width:0.5;"/><path d="M43.5,21.5 L43.5,48.5 M30.5,29.5 L56.5,29.5 M43.5,48.5 L30.5,63.5 M43.5,48.5 L56.5,63.5 " fill="none" style="stroke:#181818;stroke-width:0.5;"/><text fill="#000000" font-family="sans-serif" font-size="14" lengthAdjust="spacing" textLength="4" x="38.5" y="342.7363">&#160;</text><ellipse cx="43.5" cy="354.75" fill="#E2E2F0" rx="8" ry="8" style="stroke:#181818;stroke-width:0.5;"/><path d="M43.5,362.75 L43.5,389.75 M30.5,370.75 L56.5,370.75 M43.5,389.75 L30.5,404.75 M43.5,389.75 L56.5,404.75 " fill="none" style="stroke:#181818;stroke-width:0.5;"/><rect fill="#E2E2F0" height="32.6211" rx="2.5" ry="2.5" style="stroke:#181818;stroke-width:0.5;" width="35" x="412" y="50"/><text fill="#000000" font-family="sans-serif" font-size="14" lengthAdjust="spacing" textLength="21" x="419" y="72.1074">MD</text><rect fill="#E2E2F0" height="32.6211" rx="2.5" ry="2.5" style="stroke:#181818;stroke-width:0.5;" width="35" x="412" y="327.6289"/><text fill="#000000" font-family="sans-serif" font-size="14" lengthAdjust="spacing" textLength="21" x="419" y="349.7363">MD</text><rect fill="#FFFFFF" height="225.0078" style="stroke:#181818;stroke-width:1.0;" width="10" x="38.5" y="93.6211"/><rect fill="#FFFFFF" height="201.7168" style="stroke:#181818;stroke-width:1.0;" width="10" x="424.5" y="116.9121"/><polygon fill="#181818" points="412.5,112.9121,422.5,116.9121,412.5,120.9121,416.5,116.9121" style="stroke:#181818;stroke-width:1.0;"/><line style="stroke:#181818;stroke-width:1.0;" x1="48.5" x2="418.5" y1="116.9121" y2="116.9121"/><text fill="#000000" font-family="sans-serif" font-size="13" font-weight="bold" lengthAdjust="spacing" textLength="7" x="55.5" y="111.6494">1</text><text fill="#000000" font-family="sans-serif" font-size="13" lengthAdjust="spacing" textLength="324" x="66.5" y="111.6494">POST (/buildings/{buildingId}/floors/{floorNumber}/rooms)</text><path d="M10,131.9121 L71,131.9121 L71,141.2031 L61,151.2031 L10,151.2031 L10,131.9121 " fill="#EEEEEE" style="stroke:#000000;stroke-width:1.5;"/><rect fill="none" height="179.7168" style="stroke:#000000;stroke-width:1.5;" width="457" x="10" y="131.9121"/><text fill="#000000" font-family="sans-serif" font-size="13" font-weight="bold" lengthAdjust="spacing" textLength="16" x="25" y="146.9404">alt</text><text fill="#000000" font-family="sans-serif" font-size="11" font-weight="bold" lengthAdjust="spacing" textLength="90" x="86" y="145.7822">[floor not found]</text><polygon fill="#181818" points="59.5,170.4941,49.5,174.4941,59.5,178.4941,55.5,174.4941" style="stroke:#181818;stroke-width:1.0;"/><line style="stroke:#181818;stroke-width:1.0;stroke-dasharray:2.0,2.0;" x1="53.5" x2="423.5" y1="174.4941" y2="174.4941"/><text fill="#000000" font-family="sans-serif" font-size="13" font-weight="bold" lengthAdjust="spacing" textLength="7" x="65.5" y="169.2314">2</text><text fill="#000000" font-family="sans-serif" font-size="13" lengthAdjust="spacing" textLength="140" x="76.5" y="169.2314">412: Precondition Failed</text><line style="stroke:#000000;stroke-width:1.0;stroke-dasharray:2.0,2.0;" x1="10" x2="467" y1="183.4941" y2="183.4941"/><text fill="#000000" font-family="sans-serif" font-size="11" font-weight="bold" lengthAdjust="spacing" textLength="69" x="15" y="195.3643">[floor found]</text><path d="M20,206.125 L81,206.125 L81,215.416 L71,225.416 L20,225.416 L20,206.125 " fill="#EEEEEE" style="stroke:#000000;stroke-width:1.5;"/><rect fill="none" height="98.5039" style="stroke:#000000;stroke-width:1.5;" width="437" x="20" y="206.125"/><text fill="#000000" font-family="sans-serif" font-size="13" font-weight="bold" lengthAdjust="spacing" textLength="16" x="35" y="221.1533">alt</text><text fill="#000000" font-family="sans-serif" font-size="11" font-weight="bold" lengthAdjust="spacing" textLength="104" x="96" y="219.9951">[room not created]</text><polygon fill="#181818" points="59.5,244.707,49.5,248.707,59.5,252.707,55.5,248.707" style="stroke:#181818;stroke-width:1.0;"/><line style="stroke:#181818;stroke-width:1.0;stroke-dasharray:2.0,2.0;" x1="53.5" x2="423.5" y1="248.707" y2="248.707"/><text fill="#000000" font-family="sans-serif" font-size="13" font-weight="bold" lengthAdjust="spacing" textLength="7" x="65.5" y="243.4443">3</text><text fill="#000000" font-family="sans-serif" font-size="13" lengthAdjust="spacing" textLength="164" x="76.5" y="243.4443">422: Unprocessable Content</text><line style="stroke:#000000;stroke-width:1.0;stroke-dasharray:2.0,2.0;" x1="20" x2="457" y1="257.707" y2="257.707"/><text fill="#000000" font-family="sans-serif" font-size="11" font-weight="bold" lengthAdjust="spacing" textLength="156" x="25" y="269.5771">[room created successfully]</text><polygon fill="#181818" points="59.5,292.6289,49.5,296.6289,59.5,300.6289,55.5,296.6289" style="stroke:#181818;stroke-width:1.0;"/><line style="stroke:#181818;stroke-width:1.0;stroke-dasharray:2.0,2.0;" x1="53.5" x2="423.5" y1="296.6289" y2="296.6289"/><text fill="#000000" font-family="sans-serif" font-size="13" font-weight="bold" lengthAdjust="spacing" textLength="7" x="65.5" y="291.3662">4</text><text fill="#000000" font-family="sans-serif" font-size="13" lengthAdjust="spacing" textLength="74" x="76.5" y="291.3662">201: Created</text><!--SRC=[VP7BJWCn34Nt-GfhLcLH3HsncWMRLY0M1SJZ0pA9fugKiKTv813glvF7L0KaI1Qna-jpBKV6m1Id0PqGKWLsqAGjFPH43FmEpHCFEyU4jzo8MRfWb9ab1MZskoATT2qsRpBWKWXfLTxwEWjwU7nuVe5LEqHZjQ63RpzFuPq-jgDbTkckdFUbeMFhc2T_SM9LV34hDpO053aG1nWvaYuFUIKLh9DpRQ67gqsNEd2ecBG9XWbkfB5O2z1wN4XdIiPd_m9N3fFtF_WkuLzfTgpGUpbOX2rJG0fdWm9RGE2ZoienMlln9xMxtFIm_MMDf44iGHs4nX_3-PRMhn1V]--></g></svg>