<?xml version="1.0" encoding="us-ascii" standalone="no"?><svg xmlns="http://www.w3.org/2000/svg" xmlns:xlink="http://www.w3.org/1999/xlink" contentStyleType="text/css" height="1438.2px" preserveAspectRatio="none" style="width:1370px;height:1438px;background:#FFFFFF;" version="1.1" viewBox="0 0 1370 1438" width="1370.7px" zoomAndPan="magnify"><defs/><g><!--cluster system--><g id="cluster_system"><path d="M7.65,5.4123 L52.65,5.4123 A3.375,3.375 0 0 1 54.9,7.6623 L61.2,27.5713 L1362.15,27.5713 A2.25,2.25 0 0 1 1364.4,29.8213 L1364.4,1430.1123 A2.25,2.25 0 0 1 1362.15,1432.3623 L7.65,1432.3623 A2.25,2.25 0 0 1 5.4,1430.1123 L5.4,7.6623 A2.25,2.25 0 0 1 7.65,5.4123 " fill="none" style="stroke:#000000;stroke-width:1.35;"/><line style="stroke:#000000;stroke-width:1.35;" x1="5.4" x2="61.2" y1="27.5713" y2="27.5713"/><text fill="#000000" font-family="sans-serif" font-size="12.6" font-weight="bold" lengthAdjust="spacing" textLength="44.1" x="9" y="20.809">system</text></g><!--cluster Infrastructure--><g id="cluster_Infrastructure"><path d="M912.15,45.9123 L1000.35,45.9123 A3.375,3.375 0 0 1 1002.6,48.1623 L1008.9,68.0713 L1333.35,68.0713 A2.25,2.25 0 0 1 1335.6,70.3213 L1335.6,196.6623 A2.25,2.25 0 0 1 1333.35,198.9123 L912.15,198.9123 A2.25,2.25 0 0 1 909.9,196.6623 L909.9,48.1623 A2.25,2.25 0 0 1 912.15,45.9123 " fill="none" style="stroke:#000000;stroke-width:1.35;"/><line style="stroke:#000000;stroke-width:1.35;" x1="909.9" x2="1008.9" y1="68.0713" y2="68.0713"/><text fill="#000000" font-family="sans-serif" font-size="12.6" font-weight="bold" lengthAdjust="spacing" textLength="87.3" x="913.5" y="61.309">Infrastructure</text></g><!--cluster Persistence--><g id="cluster_Persistence"><path d="M933.75,86.4123 L1010.25,86.4123 A3.375,3.375 0 0 1 1012.5,88.6623 L1018.8,108.5713 L1153.35,108.5713 A2.25,2.25 0 0 1 1155.6,110.8213 L1155.6,175.0623 A2.25,2.25 0 0 1 1153.35,177.3123 L933.75,177.3123 A2.25,2.25 0 0 1 931.5,175.0623 L931.5,88.6623 A2.25,2.25 0 0 1 933.75,86.4123 " fill="none" style="stroke:#000000;stroke-width:1.35;"/><line style="stroke:#000000;stroke-width:1.35;" x1="931.5" x2="1018.8" y1="108.5713" y2="108.5713"/><text fill="#000000" font-family="sans-serif" font-size="12.6" font-weight="bold" lengthAdjust="spacing" textLength="75.6" x="935.1" y="101.809">Persistence</text></g><!--cluster Routes--><g id="cluster_Routes"><path d="M1179.45,86.4123 L1225.35,86.4123 A3.375,3.375 0 0 1 1227.6,88.6623 L1233.9,108.5713 L1311.75,108.5713 A2.25,2.25 0 0 1 1314,110.8213 L1314,175.0623 A2.25,2.25 0 0 1 1311.75,177.3123 L1179.45,177.3123 A2.25,2.25 0 0 1 1177.2,175.0623 L1177.2,88.6623 A2.25,2.25 0 0 1 1179.45,86.4123 " fill="none" style="stroke:#000000;stroke-width:1.35;"/><line style="stroke:#000000;stroke-width:1.35;" x1="1177.2" x2="1233.9" y1="108.5713" y2="108.5713"/><text fill="#000000" font-family="sans-serif" font-size="12.6" font-weight="bold" lengthAdjust="spacing" textLength="45" x="1180.8" y="101.809">Routes</text></g><!--cluster Interface Adapters--><g id="cluster_Interface Adapters"><path d="M970.65,228.6123 L1088.55,228.6123 A3.375,3.375 0 0 1 1090.8,230.8623 L1097.1,250.7713 L1340.55,250.7713 A2.25,2.25 0 0 1 1342.8,253.0213 L1342.8,643.0623 A2.25,2.25 0 0 1 1340.55,645.3123 L970.65,645.3123 A2.25,2.25 0 0 1 968.4,643.0623 L968.4,230.8623 A2.25,2.25 0 0 1 970.65,228.6123 " fill="none" style="stroke:#000000;stroke-width:1.35;"/><line style="stroke:#000000;stroke-width:1.35;" x1="968.4" x2="1097.1" y1="250.7713" y2="250.7713"/><text fill="#000000" font-family="sans-serif" font-size="12.6" font-weight="bold" lengthAdjust="spacing" textLength="117" x="972" y="244.009">Interface Adapters</text></g><!--cluster Controllers--><g id="cluster_Controllers"><path d="M1132.65,269.1123 L1204.65,269.1123 A3.375,3.375 0 0 1 1206.9,271.3623 L1213.2,291.2713 L1318.95,291.2713 A2.25,2.25 0 0 1 1321.2,293.5213 L1321.2,621.4623 A2.25,2.25 0 0 1 1318.95,623.7123 L1132.65,623.7123 A2.25,2.25 0 0 1 1130.4,621.4623 L1130.4,271.3623 A2.25,2.25 0 0 1 1132.65,269.1123 " fill="none" style="stroke:#000000;stroke-width:1.35;"/><line style="stroke:#000000;stroke-width:1.35;" x1="1130.4" x2="1213.2" y1="291.2713" y2="291.2713"/><text fill="#000000" font-family="sans-serif" font-size="12.6" font-weight="bold" lengthAdjust="spacing" textLength="71.1" x="1134" y="284.509">Controllers</text></g><!--cluster IControllers--><g id="cluster_IControllers"><path d="M1154.25,309.6123 L1229.85,309.6123 A3.375,3.375 0 0 1 1232.1,311.8623 L1238.4,331.7713 L1297.35,331.7713 A2.25,2.25 0 0 1 1299.6,334.0213 L1299.6,398.2623 A2.25,2.25 0 0 1 1297.35,400.5123 L1154.25,400.5123 A2.25,2.25 0 0 1 1152,398.2623 L1152,311.8623 A2.25,2.25 0 0 1 1154.25,309.6123 " fill="none" style="stroke:#000000;stroke-width:1.35;"/><line style="stroke:#000000;stroke-width:1.35;" x1="1152" x2="1238.4" y1="331.7713" y2="331.7713"/><text fill="#000000" font-family="sans-serif" font-size="12.6" font-weight="bold" lengthAdjust="spacing" textLength="74.7" x="1155.6" y="325.009">IControllers</text></g><!--cluster ImplControllers--><g id="cluster_ImplControllers"><path d="M1154.25,511.2123 L1252.35,511.2123 A3.375,3.375 0 0 1 1254.6,513.4623 L1260.9,533.3713 L1293.75,533.3713 A2.25,2.25 0 0 1 1296,535.6213 L1296,599.8623 A2.25,2.25 0 0 1 1293.75,602.1123 L1154.25,602.1123 A2.25,2.25 0 0 1 1152,599.8623 L1152,513.4623 A2.25,2.25 0 0 1 1154.25,511.2123 " fill="none" style="stroke:#000000;stroke-width:1.35;"/><line style="stroke:#000000;stroke-width:1.35;" x1="1152" x2="1260.9" y1="533.3713" y2="533.3713"/><text fill="#000000" font-family="sans-serif" font-size="12.6" font-weight="bold" lengthAdjust="spacing" textLength="97.2" x="1155.6" y="526.609">ImplControllers</text></g><!--cluster Repositories--><g id="cluster_Repositories"><path d="M992.25,309.6123 L1074.15,309.6123 A3.375,3.375 0 0 1 1076.4,311.8623 L1082.7,331.7713 L1106.55,331.7713 A2.25,2.25 0 0 1 1108.8,334.0213 L1108.8,398.2623 A2.25,2.25 0 0 1 1106.55,400.5123 L992.25,400.5123 A2.25,2.25 0 0 1 990,398.2623 L990,311.8623 A2.25,2.25 0 0 1 992.25,309.6123 " fill="none" style="stroke:#000000;stroke-width:1.35;"/><line style="stroke:#000000;stroke-width:1.35;" x1="990" x2="1082.7" y1="331.7713" y2="331.7713"/><text fill="#000000" font-family="sans-serif" font-size="12.6" font-weight="bold" lengthAdjust="spacing" textLength="81" x="993.6" y="325.009">Repositories</text></g><!--cluster Application Services--><g id="cluster_Application Services"><path d="M707.85,430.2123 L838.35,430.2123 A3.375,3.375 0 0 1 840.6,432.4623 L846.9,452.3713 L944.55,452.3713 A2.25,2.25 0 0 1 946.8,454.6213 L946.8,1021.5123 A2.25,2.25 0 0 1 944.55,1023.7623 L707.85,1023.7623 A2.25,2.25 0 0 1 705.6,1021.5123 L705.6,432.4623 A2.25,2.25 0 0 1 707.85,430.2123 " fill="none" style="stroke:#000000;stroke-width:1.35;"/><line style="stroke:#000000;stroke-width:1.35;" x1="705.6" x2="846.9" y1="452.3713" y2="452.3713"/><text fill="#000000" font-family="sans-serif" font-size="12.6" font-weight="bold" lengthAdjust="spacing" textLength="129.6" x="709.2" y="445.609">Application Services</text></g><!--cluster App Services--><g id="cluster_App Services"><path d="M729.45,470.7123 L814.05,470.7123 A3.375,3.375 0 0 1 816.3,472.9623 L822.6,492.8713 L922.95,492.8713 A2.25,2.25 0 0 1 925.2,495.1213 L925.2,999.9123 A2.25,2.25 0 0 1 922.95,1002.1623 L729.45,1002.1623 A2.25,2.25 0 0 1 727.2,999.9123 L727.2,472.9623 A2.25,2.25 0 0 1 729.45,470.7123 " fill="none" style="stroke:#000000;stroke-width:1.35;"/><line style="stroke:#000000;stroke-width:1.35;" x1="727.2" x2="822.6" y1="492.8713" y2="492.8713"/><text fill="#000000" font-family="sans-serif" font-size="12.6" font-weight="bold" lengthAdjust="spacing" textLength="83.7" x="730.8" y="486.109">App Services</text></g><!--cluster IAppServices--><g id="cluster_IAppServices"><path d="M751.05,889.6623 L835.65,889.6623 A3.375,3.375 0 0 1 837.9,891.9123 L844.2,911.8213 L901.35,911.8213 A2.25,2.25 0 0 1 903.6,914.0713 L903.6,978.3123 A2.25,2.25 0 0 1 901.35,980.5623 L751.05,980.5623 A2.25,2.25 0 0 1 748.8,978.3123 L748.8,891.9123 A2.25,2.25 0 0 1 751.05,889.6623 " fill="none" style="stroke:#000000;stroke-width:1.35;"/><line style="stroke:#000000;stroke-width:1.35;" x1="748.8" x2="844.2" y1="911.8213" y2="911.8213"/><text fill="#000000" font-family="sans-serif" font-size="12.6" font-weight="bold" lengthAdjust="spacing" textLength="83.7" x="752.4" y="905.059">IAppServices</text></g><!--cluster ImplAppServices--><g id="cluster_ImplAppServices"><path d="M751.05,675.0123 L858.15,675.0123 A3.375,3.375 0 0 1 860.4,677.2623 L866.7,697.1713 L899.55,697.1713 A2.25,2.25 0 0 1 901.8,699.4213 L901.8,763.6623 A2.25,2.25 0 0 1 899.55,765.9123 L751.05,765.9123 A2.25,2.25 0 0 1 748.8,763.6623 L748.8,677.2623 A2.25,2.25 0 0 1 751.05,675.0123 " fill="none" style="stroke:#000000;stroke-width:1.35;"/><line style="stroke:#000000;stroke-width:1.35;" x1="748.8" x2="866.7" y1="697.1713" y2="697.1713"/><text fill="#000000" font-family="sans-serif" font-size="12.6" font-weight="bold" lengthAdjust="spacing" textLength="106.2" x="752.4" y="690.409">ImplAppServices</text></g><!--cluster IRepositories--><g id="cluster_IRepositories"><path d="M783.45,511.2123 L868.95,511.2123 A3.375,3.375 0 0 1 871.2,513.4623 L877.5,533.3713 L901.35,533.3713 A2.25,2.25 0 0 1 903.6,535.6213 L903.6,599.8623 A2.25,2.25 0 0 1 901.35,602.1123 L783.45,602.1123 A2.25,2.25 0 0 1 781.2,599.8623 L781.2,513.4623 A2.25,2.25 0 0 1 783.45,511.2123 " fill="none" style="stroke:#000000;stroke-width:1.35;"/><line style="stroke:#000000;stroke-width:1.35;" x1="781.2" x2="877.5" y1="533.3713" y2="533.3713"/><text fill="#000000" font-family="sans-serif" font-size="12.6" font-weight="bold" lengthAdjust="spacing" textLength="84.6" x="784.8" y="526.609">IRepositories</text></g><!--cluster Entities/Core/Domain--><g id="cluster_Entities/Core/Domain"><path d="M29.25,795.6123 L162.45,795.6123 A3.375,3.375 0 0 1 164.7,797.8623 L171,817.7713 L681.75,817.7713 A2.25,2.25 0 0 1 684,820.0213 L684,1408.5123 A2.25,2.25 0 0 1 681.75,1410.7623 L29.25,1410.7623 A2.25,2.25 0 0 1 27,1408.5123 L27,797.8623 A2.25,2.25 0 0 1 29.25,795.6123 " fill="none" style="stroke:#000000;stroke-width:1.35;"/><line style="stroke:#000000;stroke-width:1.35;" x1="27" x2="171" y1="817.7713" y2="817.7713"/><text fill="#000000" font-family="sans-serif" font-size="12.6" font-weight="bold" lengthAdjust="spacing" textLength="132.3" x="30.6" y="811.009">Entities/Core/Domain</text></g><!--cluster Aggregates--><g id="cluster_Aggregates"><path d="M276.75,836.1123 L350.55,836.1123 A3.375,3.375 0 0 1 352.8,838.3623 L359.1,858.2713 L533.25,858.2713 A2.25,2.25 0 0 1 535.5,860.5213 L535.5,1189.8123 A2.25,2.25 0 0 1 533.25,1192.0623 L276.75,1192.0623 A2.25,2.25 0 0 1 274.5,1189.8123 L274.5,838.3623 A2.25,2.25 0 0 1 276.75,836.1123 " fill="none" style="stroke:#000000;stroke-width:1.35;"/><line style="stroke:#000000;stroke-width:1.35;" x1="274.5" x2="359.1" y1="858.2713" y2="858.2713"/><text fill="#000000" font-family="sans-serif" font-size="12.6" font-weight="bold" lengthAdjust="spacing" textLength="72.9" x="278.1" y="851.509">Aggregates</text></g><!--cluster a_floor--><g id="cluster_a_floor"><path d="M298.35,876.6123 L332.55,876.6123 A3.375,3.375 0 0 1 334.8,878.8623 L341.1,898.7713 L387.45,898.7713 A2.25,2.25 0 0 1 389.7,901.0213 L389.7,1168.2123 A2.25,2.25 0 0 1 387.45,1170.4623 L298.35,1170.4623 A2.25,2.25 0 0 1 296.1,1168.2123 L296.1,878.8623 A2.25,2.25 0 0 1 298.35,876.6123 " fill="none" style="stroke:#000000;stroke-width:1.35;"/><line style="stroke:#000000;stroke-width:1.35;" x1="296.1" x2="341.1" y1="898.7713" y2="898.7713"/><text fill="#000000" font-family="sans-serif" font-size="12.6" font-weight="bold" lengthAdjust="spacing" textLength="33.3" x="299.7" y="892.009">Floor</text></g><!--cluster a_building--><g id="cluster_a_building"><path d="M413.55,1053.4623 L466.65,1053.4623 A3.375,3.375 0 0 1 468.9,1055.7123 L475.2,1075.6213 L511.65,1075.6213 A2.25,2.25 0 0 1 513.9,1077.8713 L513.9,1168.2123 A2.25,2.25 0 0 1 511.65,1170.4623 L413.55,1170.4623 A2.25,2.25 0 0 1 411.3,1168.2123 L411.3,1055.7123 A2.25,2.25 0 0 1 413.55,1053.4623 " fill="none" style="stroke:#000000;stroke-width:1.35;"/><line style="stroke:#000000;stroke-width:1.35;" x1="411.3" x2="475.2" y1="1075.6213" y2="1075.6213"/><text fill="#000000" font-family="sans-serif" font-size="12.6" font-weight="bold" lengthAdjust="spacing" textLength="52.2" x="414.9" y="1068.859">Building</text></g><!--cluster Value Objects--><g id="cluster_Value Objects"><path d="M50.85,1236.1623 L139.05,1236.1623 A3.375,3.375 0 0 1 141.3,1238.4123 L147.6,1258.3213 L660.15,1258.3213 A2.25,2.25 0 0 1 662.4,1260.5713 L662.4,1386.9123 A2.25,2.25 0 0 1 660.15,1389.1623 L50.85,1389.1623 A2.25,2.25 0 0 1 48.6,1386.9123 L48.6,1238.4123 A2.25,2.25 0 0 1 50.85,1236.1623 " fill="none" style="stroke:#000000;stroke-width:1.35;"/><line style="stroke:#000000;stroke-width:1.35;" x1="48.6" x2="147.6" y1="1258.3213" y2="1258.3213"/><text fill="#000000" font-family="sans-serif" font-size="12.6" font-weight="bold" lengthAdjust="spacing" textLength="87.3" x="52.2" y="1251.559">Value Objects</text></g><!--cluster vo_building--><g id="cluster_vo_building"><path d="M72.45,1276.6623 L100.35,1276.6623 A3.375,3.375 0 0 1 102.6,1278.9123 L108.9,1298.8213 L449.55,1298.8213 A2.25,2.25 0 0 1 451.8,1301.0713 L451.8,1365.3123 A2.25,2.25 0 0 1 449.55,1367.5623 L72.45,1367.5623 A2.25,2.25 0 0 1 70.2,1365.3123 L70.2,1278.9123 A2.25,2.25 0 0 1 72.45,1276.6623 " fill="none" style="stroke:#000000;stroke-width:1.35;"/><line style="stroke:#000000;stroke-width:1.35;" x1="70.2" x2="108.9" y1="1298.8213" y2="1298.8213"/><text fill="#000000" font-family="sans-serif" font-size="12.6" font-weight="bold" lengthAdjust="spacing" textLength="27" x="73.8" y="1292.059">Map</text></g><!--cluster build--><g id="cluster_build"><path d="M475.65,1276.6623 L528.75,1276.6623 A3.375,3.375 0 0 1 531,1278.9123 L537.3,1298.8213 L638.55,1298.8213 A2.25,2.25 0 0 1 640.8,1301.0713 L640.8,1365.3123 A2.25,2.25 0 0 1 638.55,1367.5623 L475.65,1367.5623 A2.25,2.25 0 0 1 473.4,1365.3123 L473.4,1278.9123 A2.25,2.25 0 0 1 475.65,1276.6623 " fill="none" style="stroke:#000000;stroke-width:1.35;"/><line style="stroke:#000000;stroke-width:1.35;" x1="473.4" x2="537.3" y1="1298.8213" y2="1298.8213"/><text fill="#000000" font-family="sans-serif" font-size="12.6" font-weight="bold" lengthAdjust="spacing" textLength="52.2" x="477" y="1292.059">Building</text></g><!--cluster DTO--><g id="cluster_DTO"><path d="M759.15,309.6123 L786.15,309.6123 A3.375,3.375 0 0 1 788.4,311.8623 L794.7,331.7713 L898.65,331.7713 A2.25,2.25 0 0 1 900.9,334.0213 L900.9,398.2623 A2.25,2.25 0 0 1 898.65,400.5123 L759.15,400.5123 A2.25,2.25 0 0 1 756.9,398.2623 L756.9,311.8623 A2.25,2.25 0 0 1 759.15,309.6123 " fill="none" style="stroke:#000000;stroke-width:1.35;"/><line style="stroke:#000000;stroke-width:1.35;" x1="756.9" x2="794.7" y1="331.7713" y2="331.7713"/><text fill="#000000" font-family="sans-serif" font-size="12.6" font-weight="bold" lengthAdjust="spacing" textLength="26.1" x="760.5" y="325.009">DTO</text></g><!--class IDBDriver--><g id="elem_IDBDriver"><rect codeLine="16" fill="#F1F1F1" height="43.2" id="IDBDriver" rx="2.25" ry="2.25" style="stroke:#181818;stroke-width:0.45;" width="82.8" x="1058.4" y="119.7123"/><ellipse cx="1071.9" cy="134.1123" fill="#B4A7E5" rx="9.9" ry="9.9" style="stroke:#181818;stroke-width:0.9;"/><path d="M1072.7578,131.0889 L1072.7578,137.0795 L1074.3047,137.0795 Q1074.8531,137.0795 1075.0922,137.2904 Q1075.3313,137.5014 1075.3313,137.8529 Q1075.3313,138.1904 1075.0922,138.4014 Q1074.8531,138.6123 1074.3047,138.6123 L1069.6781,138.6123 Q1069.1297,138.6123 1068.8906,138.4014 Q1068.6516,138.1904 1068.6516,137.8389 Q1068.6516,137.5014 1068.8906,137.2904 Q1069.1297,137.0795 1069.6781,137.0795 L1071.225,137.0795 L1071.225,131.0889 L1069.6781,131.0889 Q1069.1297,131.0889 1068.8906,130.8779 Q1068.6516,130.667 1068.6516,130.3154 Q1068.6516,129.9779 1068.8906,129.767 Q1069.1297,129.5561 1069.6781,129.5561 L1074.3047,129.5561 Q1074.8531,129.5561 1075.0922,129.767 Q1075.3313,129.9779 1075.3313,130.3154 Q1075.3313,130.667 1075.0922,130.8779 Q1074.8531,131.0889 1074.3047,131.0889 L1072.7578,131.0889 Z " fill="#000000"/><text fill="#000000" font-family="sans-serif" font-size="12.6" font-style="italic" lengthAdjust="spacing" textLength="54" x="1084.5" y="139.3295">IDBDriver</text><line style="stroke:#181818;stroke-width:0.45;" x1="1059.3" x2="1140.3" y1="148.5123" y2="148.5123"/><line style="stroke:#181818;stroke-width:0.45;" x1="1059.3" x2="1140.3" y1="155.7123" y2="155.7123"/></g><!--class DBDriver--><g id="elem_DBDriver"><rect codeLine="17" fill="#F1F1F1" height="43.2" id="DBDriver" rx="2.25" ry="2.25" style="stroke:#181818;stroke-width:0.45;" width="80.1" x="946.35" y="119.7123"/><ellipse cx="959.85" cy="134.1123" fill="#ADD1B2" rx="9.9" ry="9.9" style="stroke:#181818;stroke-width:0.9;"/><path d="M962.3391,130.3998 Q962.4797,130.2029 962.6484,130.1045 Q962.8172,130.0061 963.0141,130.0061 Q963.3516,130.0061 963.5625,130.2451 Q963.7734,130.4701 963.7734,131.0186 L963.7734,132.3264 Q963.7734,132.8748 963.5625,133.1139 Q963.3516,133.3529 963.0141,133.3529 Q962.7047,133.3529 962.5219,133.1701 Q962.3391,133.0014 962.2406,132.5373 Q962.1984,132.2139 962.0297,132.0451 Q961.7344,131.7076 961.1859,131.5107 Q960.6375,131.3139 960.075,131.3139 Q959.3859,131.3139 958.8094,131.6092 Q958.2469,131.9045 957.7969,132.5795 Q957.3609,133.2545 957.3609,134.1826 L957.3609,135.167 Q957.3609,136.2779 958.1625,137.0232 Q958.9641,137.7545 960.3984,137.7545 Q961.2422,137.7545 961.8328,137.5295 Q962.1844,137.3889 962.5641,136.9951 Q962.8031,136.7561 962.9297,136.6857 Q963.0703,136.6154 963.2531,136.6154 Q963.5484,136.6154 963.7734,136.8545 Q964.0125,137.0795 964.0125,137.3889 Q964.0125,137.6982 963.7031,138.0639 Q963.2531,138.5842 962.5359,138.8795 Q961.5656,139.2873 960.3984,139.2873 Q959.0344,139.2873 957.9516,138.7248 Q957.0656,138.2748 956.4469,137.3186 Q955.8281,136.3482 955.8281,135.1951 L955.8281,134.1545 Q955.8281,132.9592 956.3766,131.9326 Q956.9391,130.892 957.9234,130.3436 Q958.9078,129.7811 960.0188,129.7811 Q960.6797,129.7811 961.2563,129.9357 Q961.8469,130.0764 962.3391,130.3998 Z " fill="#000000"/><text fill="#000000" font-family="sans-serif" font-size="12.6" lengthAdjust="spacing" textLength="51.3" x="972.45" y="139.3295">DBDriver</text><line style="stroke:#181818;stroke-width:0.45;" x1="947.25" x2="1025.55" y1="148.5123" y2="148.5123"/><line style="stroke:#181818;stroke-width:0.45;" x1="947.25" x2="1025.55" y1="155.7123" y2="155.7123"/></g><!--class RouteBuilding--><g id="elem_RouteBuilding"><rect codeLine="20" fill="#F1F1F1" height="43.2" id="RouteBuilding" rx="2.25" ry="2.25" style="stroke:#181818;stroke-width:0.45;" width="108" x="1191.6" y="119.7123"/><ellipse cx="1205.1" cy="134.1123" fill="#ADD1B2" rx="9.9" ry="9.9" style="stroke:#181818;stroke-width:0.9;"/><path d="M1207.5891,130.3998 Q1207.7297,130.2029 1207.8984,130.1045 Q1208.0672,130.0061 1208.2641,130.0061 Q1208.6016,130.0061 1208.8125,130.2451 Q1209.0234,130.4701 1209.0234,131.0186 L1209.0234,132.3264 Q1209.0234,132.8748 1208.8125,133.1139 Q1208.6016,133.3529 1208.2641,133.3529 Q1207.9547,133.3529 1207.7719,133.1701 Q1207.5891,133.0014 1207.4906,132.5373 Q1207.4484,132.2139 1207.2797,132.0451 Q1206.9844,131.7076 1206.4359,131.5107 Q1205.8875,131.3139 1205.325,131.3139 Q1204.6359,131.3139 1204.0594,131.6092 Q1203.4969,131.9045 1203.0469,132.5795 Q1202.6109,133.2545 1202.6109,134.1826 L1202.6109,135.167 Q1202.6109,136.2779 1203.4125,137.0232 Q1204.2141,137.7545 1205.6484,137.7545 Q1206.4922,137.7545 1207.0828,137.5295 Q1207.4344,137.3889 1207.8141,136.9951 Q1208.0531,136.7561 1208.1797,136.6857 Q1208.3203,136.6154 1208.5031,136.6154 Q1208.7984,136.6154 1209.0234,136.8545 Q1209.2625,137.0795 1209.2625,137.3889 Q1209.2625,137.6982 1208.9531,138.0639 Q1208.5031,138.5842 1207.7859,138.8795 Q1206.8156,139.2873 1205.6484,139.2873 Q1204.2844,139.2873 1203.2016,138.7248 Q1202.3156,138.2748 1201.6969,137.3186 Q1201.0781,136.3482 1201.0781,135.1951 L1201.0781,134.1545 Q1201.0781,132.9592 1201.6266,131.9326 Q1202.1891,130.892 1203.1734,130.3436 Q1204.1578,129.7811 1205.2688,129.7811 Q1205.9297,129.7811 1206.5063,129.9357 Q1207.0969,130.0764 1207.5891,130.3998 Z " fill="#000000"/><text fill="#000000" font-family="sans-serif" font-size="12.6" lengthAdjust="spacing" textLength="79.2" x="1217.7" y="139.3295">RouteBuilding</text><line style="stroke:#181818;stroke-width:0.45;" x1="1192.5" x2="1298.7" y1="148.5123" y2="148.5123"/><line style="stroke:#181818;stroke-width:0.45;" x1="1192.5" x2="1298.7" y1="155.7123" y2="155.7123"/></g><!--class IControllerFloor--><g id="elem_IControllerFloor"><rect codeLine="31" fill="#F1F1F1" height="43.2" id="IControllerFloor" rx="2.25" ry="2.25" style="stroke:#181818;stroke-width:0.45;" width="117.9" x="1166.85" y="342.9123"/><ellipse cx="1180.35" cy="357.3123" fill="#B4A7E5" rx="9.9" ry="9.9" style="stroke:#181818;stroke-width:0.9;"/><path d="M1181.2078,354.2889 L1181.2078,360.2795 L1182.7547,360.2795 Q1183.3031,360.2795 1183.5422,360.4904 Q1183.7813,360.7014 1183.7813,361.0529 Q1183.7813,361.3904 1183.5422,361.6014 Q1183.3031,361.8123 1182.7547,361.8123 L1178.1281,361.8123 Q1177.5797,361.8123 1177.3406,361.6014 Q1177.1016,361.3904 1177.1016,361.0389 Q1177.1016,360.7014 1177.3406,360.4904 Q1177.5797,360.2795 1178.1281,360.2795 L1179.675,360.2795 L1179.675,354.2889 L1178.1281,354.2889 Q1177.5797,354.2889 1177.3406,354.0779 Q1177.1016,353.867 1177.1016,353.5154 Q1177.1016,353.1779 1177.3406,352.967 Q1177.5797,352.7561 1178.1281,352.7561 L1182.7547,352.7561 Q1183.3031,352.7561 1183.5422,352.967 Q1183.7813,353.1779 1183.7813,353.5154 Q1183.7813,353.867 1183.5422,354.0779 Q1183.3031,354.2889 1182.7547,354.2889 L1181.2078,354.2889 Z " fill="#000000"/><text fill="#000000" font-family="sans-serif" font-size="12.6" font-style="italic" lengthAdjust="spacing" textLength="89.1" x="1192.95" y="362.5295">IControllerFloor</text><line style="stroke:#181818;stroke-width:0.45;" x1="1167.75" x2="1283.85" y1="371.7123" y2="371.7123"/><line style="stroke:#181818;stroke-width:0.45;" x1="1167.75" x2="1283.85" y1="378.9123" y2="378.9123"/></g><!--class ControllerFloor--><g id="elem_ControllerFloor"><rect codeLine="35" fill="#F1F1F1" height="43.2" id="ControllerFloor" rx="2.25" ry="2.25" style="stroke:#181818;stroke-width:0.45;" width="114.3" x="1166.85" y="544.5123"/><ellipse cx="1180.35" cy="558.9123" fill="#ADD1B2" rx="9.9" ry="9.9" style="stroke:#181818;stroke-width:0.9;"/><path d="M1182.8391,555.1998 Q1182.9797,555.0029 1183.1484,554.9045 Q1183.3172,554.8061 1183.5141,554.8061 Q1183.8516,554.8061 1184.0625,555.0451 Q1184.2734,555.2701 1184.2734,555.8186 L1184.2734,557.1264 Q1184.2734,557.6748 1184.0625,557.9139 Q1183.8516,558.1529 1183.5141,558.1529 Q1183.2047,558.1529 1183.0219,557.9701 Q1182.8391,557.8014 1182.7406,557.3373 Q1182.6984,557.0139 1182.5297,556.8451 Q1182.2344,556.5076 1181.6859,556.3107 Q1181.1375,556.1139 1180.575,556.1139 Q1179.8859,556.1139 1179.3094,556.4092 Q1178.7469,556.7045 1178.2969,557.3795 Q1177.8609,558.0545 1177.8609,558.9826 L1177.8609,559.967 Q1177.8609,561.0779 1178.6625,561.8232 Q1179.4641,562.5545 1180.8984,562.5545 Q1181.7422,562.5545 1182.3328,562.3295 Q1182.6844,562.1889 1183.0641,561.7951 Q1183.3031,561.5561 1183.4297,561.4857 Q1183.5703,561.4154 1183.7531,561.4154 Q1184.0484,561.4154 1184.2734,561.6545 Q1184.5125,561.8795 1184.5125,562.1889 Q1184.5125,562.4982 1184.2031,562.8639 Q1183.7531,563.3842 1183.0359,563.6795 Q1182.0656,564.0873 1180.8984,564.0873 Q1179.5344,564.0873 1178.4516,563.5248 Q1177.5656,563.0748 1176.9469,562.1186 Q1176.3281,561.1482 1176.3281,559.9951 L1176.3281,558.9545 Q1176.3281,557.7592 1176.8766,556.7326 Q1177.4391,555.692 1178.4234,555.1436 Q1179.4078,554.5811 1180.5188,554.5811 Q1181.1797,554.5811 1181.7563,554.7357 Q1182.3469,554.8764 1182.8391,555.1998 Z " fill="#000000"/><text fill="#000000" font-family="sans-serif" font-size="12.6" lengthAdjust="spacing" textLength="85.5" x="1192.95" y="564.1295">ControllerFloor</text><line style="stroke:#181818;stroke-width:0.45;" x1="1167.75" x2="1280.25" y1="573.3123" y2="573.3123"/><line style="stroke:#181818;stroke-width:0.45;" x1="1167.75" x2="1280.25" y1="580.5123" y2="580.5123"/></g><!--class RepoFloor--><g id="elem_RepoFloor"><rect codeLine="41" fill="#F1F1F1" height="43.2" id="RepoFloor" rx="2.25" ry="2.25" style="stroke:#181818;stroke-width:0.45;" width="89.1" x="1004.85" y="342.9123"/><ellipse cx="1018.35" cy="357.3123" fill="#ADD1B2" rx="9.9" ry="9.9" style="stroke:#181818;stroke-width:0.9;"/><path d="M1020.8391,353.5998 Q1020.9797,353.4029 1021.1484,353.3045 Q1021.3172,353.2061 1021.5141,353.2061 Q1021.8516,353.2061 1022.0625,353.4451 Q1022.2734,353.6701 1022.2734,354.2186 L1022.2734,355.5264 Q1022.2734,356.0748 1022.0625,356.3139 Q1021.8516,356.5529 1021.5141,356.5529 Q1021.2047,356.5529 1021.0219,356.3701 Q1020.8391,356.2014 1020.7406,355.7373 Q1020.6984,355.4139 1020.5297,355.2451 Q1020.2344,354.9076 1019.6859,354.7107 Q1019.1375,354.5139 1018.575,354.5139 Q1017.8859,354.5139 1017.3094,354.8092 Q1016.7469,355.1045 1016.2969,355.7795 Q1015.8609,356.4545 1015.8609,357.3826 L1015.8609,358.367 Q1015.8609,359.4779 1016.6625,360.2232 Q1017.4641,360.9545 1018.8984,360.9545 Q1019.7422,360.9545 1020.3328,360.7295 Q1020.6844,360.5889 1021.0641,360.1951 Q1021.3031,359.9561 1021.4297,359.8857 Q1021.5703,359.8154 1021.7531,359.8154 Q1022.0484,359.8154 1022.2734,360.0545 Q1022.5125,360.2795 1022.5125,360.5889 Q1022.5125,360.8982 1022.2031,361.2639 Q1021.7531,361.7842 1021.0359,362.0795 Q1020.0656,362.4873 1018.8984,362.4873 Q1017.5344,362.4873 1016.4516,361.9248 Q1015.5656,361.4748 1014.9469,360.5186 Q1014.3281,359.5482 1014.3281,358.3951 L1014.3281,357.3545 Q1014.3281,356.1592 1014.8766,355.1326 Q1015.4391,354.092 1016.4234,353.5436 Q1017.4078,352.9811 1018.5188,352.9811 Q1019.1797,352.9811 1019.7563,353.1357 Q1020.3469,353.2764 1020.8391,353.5998 Z " fill="#000000"/><text fill="#000000" font-family="sans-serif" font-size="12.6" lengthAdjust="spacing" textLength="60.3" x="1030.95" y="362.5295">RepoFloor</text><line style="stroke:#181818;stroke-width:0.45;" x1="1005.75" x2="1093.05" y1="371.7123" y2="371.7123"/><line style="stroke:#181818;stroke-width:0.45;" x1="1005.75" x2="1093.05" y1="378.9123" y2="378.9123"/></g><!--class IAppServiceFloor--><g id="elem_IAppServiceFloor"><rect codeLine="52" fill="#F1F1F1" height="43.2" id="IAppServiceFloor" rx="2.25" ry="2.25" style="stroke:#181818;stroke-width:0.45;" width="126" x="763.2" y="922.9623"/><ellipse cx="776.7" cy="937.3623" fill="#B4A7E5" rx="9.9" ry="9.9" style="stroke:#181818;stroke-width:0.9;"/><path d="M777.5578,934.3389 L777.5578,940.3295 L779.1047,940.3295 Q779.6531,940.3295 779.8922,940.5404 Q780.1313,940.7514 780.1313,941.1029 Q780.1313,941.4404 779.8922,941.6514 Q779.6531,941.8623 779.1047,941.8623 L774.4781,941.8623 Q773.9297,941.8623 773.6906,941.6514 Q773.4516,941.4404 773.4516,941.0889 Q773.4516,940.7514 773.6906,940.5404 Q773.9297,940.3295 774.4781,940.3295 L776.025,940.3295 L776.025,934.3389 L774.4781,934.3389 Q773.9297,934.3389 773.6906,934.1279 Q773.4516,933.917 773.4516,933.5654 Q773.4516,933.2279 773.6906,933.017 Q773.9297,932.8061 774.4781,932.8061 L779.1047,932.8061 Q779.6531,932.8061 779.8922,933.017 Q780.1313,933.2279 780.1313,933.5654 Q780.1313,933.917 779.8922,934.1279 Q779.6531,934.3389 779.1047,934.3389 L777.5578,934.3389 Z " fill="#000000"/><text fill="#000000" font-family="sans-serif" font-size="12.6" font-style="italic" lengthAdjust="spacing" textLength="97.2" x="789.3" y="942.5795">IAppServiceFloor</text><line style="stroke:#181818;stroke-width:0.45;" x1="764.1" x2="888.3" y1="951.7623" y2="951.7623"/><line style="stroke:#181818;stroke-width:0.45;" x1="764.1" x2="888.3" y1="958.9623" y2="958.9623"/></g><!--class AppServiceFloor--><g id="elem_AppServiceFloor"><rect codeLine="56" fill="#F1F1F1" height="43.2" id="AppServiceFloor" rx="2.25" ry="2.25" style="stroke:#181818;stroke-width:0.45;" width="123.3" x="763.65" y="708.3123"/><ellipse cx="777.15" cy="722.7123" fill="#ADD1B2" rx="9.9" ry="9.9" style="stroke:#181818;stroke-width:0.9;"/><path d="M779.6391,718.9998 Q779.7797,718.8029 779.9484,718.7045 Q780.1172,718.6061 780.3141,718.6061 Q780.6516,718.6061 780.8625,718.8451 Q781.0734,719.0701 781.0734,719.6186 L781.0734,720.9264 Q781.0734,721.4748 780.8625,721.7139 Q780.6516,721.9529 780.3141,721.9529 Q780.0047,721.9529 779.8219,721.7701 Q779.6391,721.6014 779.5406,721.1373 Q779.4984,720.8139 779.3297,720.6451 Q779.0344,720.3076 778.4859,720.1107 Q777.9375,719.9139 777.375,719.9139 Q776.6859,719.9139 776.1094,720.2092 Q775.5469,720.5045 775.0969,721.1795 Q774.6609,721.8545 774.6609,722.7826 L774.6609,723.767 Q774.6609,724.8779 775.4625,725.6232 Q776.2641,726.3545 777.6984,726.3545 Q778.5422,726.3545 779.1328,726.1295 Q779.4844,725.9889 779.8641,725.5951 Q780.1031,725.3561 780.2297,725.2857 Q780.3703,725.2154 780.5531,725.2154 Q780.8484,725.2154 781.0734,725.4545 Q781.3125,725.6795 781.3125,725.9889 Q781.3125,726.2982 781.0031,726.6639 Q780.5531,727.1842 779.8359,727.4795 Q778.8656,727.8873 777.6984,727.8873 Q776.3344,727.8873 775.2516,727.3248 Q774.3656,726.8748 773.7469,725.9186 Q773.1281,724.9482 773.1281,723.7951 L773.1281,722.7545 Q773.1281,721.5592 773.6766,720.5326 Q774.2391,719.492 775.2234,718.9436 Q776.2078,718.3811 777.3188,718.3811 Q777.9797,718.3811 778.5563,718.5357 Q779.1469,718.6764 779.6391,718.9998 Z " fill="#000000"/><text fill="#000000" font-family="sans-serif" font-size="12.6" lengthAdjust="spacing" textLength="94.5" x="789.75" y="727.9295">AppServiceFloor</text><line style="stroke:#181818;stroke-width:0.45;" x1="764.55" x2="886.05" y1="737.1123" y2="737.1123"/><line style="stroke:#181818;stroke-width:0.45;" x1="764.55" x2="886.05" y1="744.3123" y2="744.3123"/></g><!--class IRepoFloor--><g id="elem_IRepoFloor"><rect codeLine="62" fill="#F1F1F1" height="43.2" id="IRepoFloor" rx="2.25" ry="2.25" style="stroke:#181818;stroke-width:0.45;" width="92.7" x="796.05" y="544.5123"/><ellipse cx="809.55" cy="558.9123" fill="#B4A7E5" rx="9.9" ry="9.9" style="stroke:#181818;stroke-width:0.9;"/><path d="M810.4078,555.8889 L810.4078,561.8795 L811.9547,561.8795 Q812.5031,561.8795 812.7422,562.0904 Q812.9813,562.3014 812.9813,562.6529 Q812.9813,562.9904 812.7422,563.2014 Q812.5031,563.4123 811.9547,563.4123 L807.3281,563.4123 Q806.7797,563.4123 806.5406,563.2014 Q806.3016,562.9904 806.3016,562.6389 Q806.3016,562.3014 806.5406,562.0904 Q806.7797,561.8795 807.3281,561.8795 L808.875,561.8795 L808.875,555.8889 L807.3281,555.8889 Q806.7797,555.8889 806.5406,555.6779 Q806.3016,555.467 806.3016,555.1154 Q806.3016,554.7779 806.5406,554.567 Q806.7797,554.3561 807.3281,554.3561 L811.9547,554.3561 Q812.5031,554.3561 812.7422,554.567 Q812.9813,554.7779 812.9813,555.1154 Q812.9813,555.467 812.7422,555.6779 Q812.5031,555.8889 811.9547,555.8889 L810.4078,555.8889 Z " fill="#000000"/><text fill="#000000" font-family="sans-serif" font-size="12.6" font-style="italic" lengthAdjust="spacing" textLength="63.9" x="822.15" y="564.1295">IRepoFloor</text><line style="stroke:#181818;stroke-width:0.45;" x1="796.95" x2="887.85" y1="573.3123" y2="573.3123"/><line style="stroke:#181818;stroke-width:0.45;" x1="796.95" x2="887.85" y1="580.5123" y2="580.5123"/></g><!--class Floor--><g id="elem_Floor"><rect codeLine="76" fill="#F1F1F1" height="68.8887" id="Floor" rx="2.25" ry="2.25" style="stroke:#181818;stroke-width:0.45;" width="63.9" x="310.95" y="909.9123"/><ellipse cx="324.45" cy="937.1566" fill="#ADD1B2" rx="9.9" ry="9.9" style="stroke:#181818;stroke-width:0.9;"/><path d="M323.4234,937.8738 L323.4234,940.1238 L327.3188,940.1238 L327.3188,939.2941 Q327.3188,938.7457 327.5297,938.5066 Q327.7547,938.2676 328.0922,938.2676 Q328.4297,938.2676 328.6406,938.5066 Q328.8516,938.7457 328.8516,939.2941 L328.8516,941.6566 L321.6516,941.6566 Q321.0891,941.6566 320.85,941.4457 Q320.625,941.2348 320.625,940.8832 Q320.625,940.5457 320.8641,940.3348 Q321.1031,940.1238 321.6516,940.1238 L321.8906,940.1238 L321.8906,934.1332 L321.6516,934.1332 Q321.0891,934.1332 320.85,933.9223 Q320.625,933.7113 320.625,933.3598 Q320.625,933.0223 320.85,932.8113 Q321.0891,932.6004 321.6516,932.6004 L328.5141,932.6004 L328.5141,934.9348 Q328.5141,935.4832 328.3031,935.7223 Q328.1063,935.9473 327.7547,935.9473 Q327.4172,935.9473 327.2063,935.7223 Q326.9953,935.4832 326.9953,934.9348 L326.9953,934.1332 L323.4234,934.1332 L323.4234,936.341 L324.7594,936.341 Q324.7594,935.7504 324.8719,935.5816 Q325.1109,935.216 325.5328,935.216 Q325.8703,935.216 326.0813,935.4551 Q326.2922,935.6801 326.2922,936.2285 L326.2922,938.0004 Q326.2922,938.4926 326.1797,938.6613 Q325.9406,939.0129 325.5328,939.0129 Q325.1109,939.0129 324.8719,938.6473 Q324.7594,938.4785 324.7594,937.8738 L323.4234,937.8738 Z " fill="#000000"/><text fill="#000000" font-family="sans-serif" font-size="10.8" font-style="italic" lengthAdjust="spacing" textLength="31.5" x="338.85" y="926.0666">&#171;root&#187;</text><text fill="#000000" font-family="sans-serif" font-size="10.8" font-style="italic" lengthAdjust="spacing" textLength="38.7" x="335.25" y="940.4314">&#171;entity&#187;</text><text fill="#000000" font-family="sans-serif" font-size="12.6" lengthAdjust="spacing" textLength="29.7" x="339.75" y="956.7387">Floor</text><line style="stroke:#181818;stroke-width:0.45;" x1="311.85" x2="373.95" y1="964.401" y2="964.401"/><line style="stroke:#181818;stroke-width:0.45;" x1="311.85" x2="373.95" y1="971.601" y2="971.601"/></g><!--class Map--><g id="elem_Map"><rect codeLine="77" fill="#F1F1F1" height="68.8887" id="Map" rx="2.25" ry="2.25" style="stroke:#181818;stroke-width:0.45;" width="63.9" x="310.95" y="1086.7623"/><ellipse cx="324.45" cy="1114.0066" fill="#ADD1B2" rx="9.9" ry="9.9" style="stroke:#181818;stroke-width:0.9;"/><path d="M323.4234,1114.7238 L323.4234,1116.9738 L327.3188,1116.9738 L327.3188,1116.1441 Q327.3188,1115.5957 327.5297,1115.3566 Q327.7547,1115.1176 328.0922,1115.1176 Q328.4297,1115.1176 328.6406,1115.3566 Q328.8516,1115.5957 328.8516,1116.1441 L328.8516,1118.5066 L321.6516,1118.5066 Q321.0891,1118.5066 320.85,1118.2957 Q320.625,1118.0848 320.625,1117.7332 Q320.625,1117.3957 320.8641,1117.1848 Q321.1031,1116.9738 321.6516,1116.9738 L321.8906,1116.9738 L321.8906,1110.9832 L321.6516,1110.9832 Q321.0891,1110.9832 320.85,1110.7723 Q320.625,1110.5613 320.625,1110.2098 Q320.625,1109.8723 320.85,1109.6613 Q321.0891,1109.4504 321.6516,1109.4504 L328.5141,1109.4504 L328.5141,1111.7848 Q328.5141,1112.3332 328.3031,1112.5723 Q328.1063,1112.7973 327.7547,1112.7973 Q327.4172,1112.7973 327.2063,1112.5723 Q326.9953,1112.3332 326.9953,1111.7848 L326.9953,1110.9832 L323.4234,1110.9832 L323.4234,1113.191 L324.7594,1113.191 Q324.7594,1112.6004 324.8719,1112.4316 Q325.1109,1112.066 325.5328,1112.066 Q325.8703,1112.066 326.0813,1112.3051 Q326.2922,1112.5301 326.2922,1113.0785 L326.2922,1114.8504 Q326.2922,1115.3426 326.1797,1115.5113 Q325.9406,1115.8629 325.5328,1115.8629 Q325.1109,1115.8629 324.8719,1115.4973 Q324.7594,1115.3285 324.7594,1114.7238 L323.4234,1114.7238 Z " fill="#000000"/><text fill="#000000" font-family="sans-serif" font-size="10.8" font-style="italic" lengthAdjust="spacing" textLength="31.5" x="338.85" y="1102.9166">&#171;root&#187;</text><text fill="#000000" font-family="sans-serif" font-size="10.8" font-style="italic" lengthAdjust="spacing" textLength="38.7" x="335.25" y="1117.2814">&#171;entity&#187;</text><text fill="#000000" font-family="sans-serif" font-size="12.6" lengthAdjust="spacing" textLength="24.3" x="342.45" y="1133.5887">Map</text><line style="stroke:#181818;stroke-width:0.45;" x1="311.85" x2="373.95" y1="1141.251" y2="1141.251"/><line style="stroke:#181818;stroke-width:0.45;" x1="311.85" x2="373.95" y1="1148.451" y2="1148.451"/></g><!--class Building--><g id="elem_Building"><rect codeLine="81" fill="#F1F1F1" height="68.8887" id="Building" rx="2.25" ry="2.25" style="stroke:#181818;stroke-width:0.45;" width="73.8" x="425.7" y="1086.7623"/><ellipse cx="439.2" cy="1114.0066" fill="#ADD1B2" rx="9.9" ry="9.9" style="stroke:#181818;stroke-width:0.9;"/><path d="M438.1734,1114.7238 L438.1734,1116.9738 L442.0688,1116.9738 L442.0688,1116.1441 Q442.0688,1115.5957 442.2797,1115.3566 Q442.5047,1115.1176 442.8422,1115.1176 Q443.1797,1115.1176 443.3906,1115.3566 Q443.6016,1115.5957 443.6016,1116.1441 L443.6016,1118.5066 L436.4016,1118.5066 Q435.8391,1118.5066 435.6,1118.2957 Q435.375,1118.0848 435.375,1117.7332 Q435.375,1117.3957 435.6141,1117.1848 Q435.8531,1116.9738 436.4016,1116.9738 L436.6406,1116.9738 L436.6406,1110.9832 L436.4016,1110.9832 Q435.8391,1110.9832 435.6,1110.7723 Q435.375,1110.5613 435.375,1110.2098 Q435.375,1109.8723 435.6,1109.6613 Q435.8391,1109.4504 436.4016,1109.4504 L443.2641,1109.4504 L443.2641,1111.7848 Q443.2641,1112.3332 443.0531,1112.5723 Q442.8563,1112.7973 442.5047,1112.7973 Q442.1672,1112.7973 441.9563,1112.5723 Q441.7453,1112.3332 441.7453,1111.7848 L441.7453,1110.9832 L438.1734,1110.9832 L438.1734,1113.191 L439.5094,1113.191 Q439.5094,1112.6004 439.6219,1112.4316 Q439.8609,1112.066 440.2828,1112.066 Q440.6203,1112.066 440.8313,1112.3051 Q441.0422,1112.5301 441.0422,1113.0785 L441.0422,1114.8504 Q441.0422,1115.3426 440.9297,1115.5113 Q440.6906,1115.8629 440.2828,1115.8629 Q439.8609,1115.8629 439.6219,1115.4973 Q439.5094,1115.3285 439.5094,1114.7238 L438.1734,1114.7238 Z " fill="#000000"/><text fill="#000000" font-family="sans-serif" font-size="10.8" font-style="italic" lengthAdjust="spacing" textLength="31.5" x="458.55" y="1102.9166">&#171;root&#187;</text><text fill="#000000" font-family="sans-serif" font-size="10.8" font-style="italic" lengthAdjust="spacing" textLength="38.7" x="454.95" y="1117.2814">&#171;entity&#187;</text><text fill="#000000" font-family="sans-serif" font-size="12.6" lengthAdjust="spacing" textLength="45" x="451.8" y="1133.5887">Building</text><line style="stroke:#181818;stroke-width:0.45;" x1="426.6" x2="498.6" y1="1141.251" y2="1141.251"/><line style="stroke:#181818;stroke-width:0.45;" x1="426.6" x2="498.6" y1="1148.451" y2="1148.451"/></g><!--class dimensions--><g id="elem_dimensions"><rect codeLine="90" fill="#F1F1F1" height="43.2" id="dimensions" rx="2.25" ry="2.25" style="stroke:#181818;stroke-width:0.45;" width="92.7" x="214.65" y="1309.9623"/><ellipse cx="228.15" cy="1324.3623" fill="#ADD1B2" rx="9.9" ry="9.9" style="stroke:#181818;stroke-width:0.9;"/><path d="M230.6391,1320.6498 Q230.7797,1320.4529 230.9484,1320.3545 Q231.1172,1320.2561 231.3141,1320.2561 Q231.6516,1320.2561 231.8625,1320.4951 Q232.0734,1320.7201 232.0734,1321.2686 L232.0734,1322.5764 Q232.0734,1323.1248 231.8625,1323.3639 Q231.6516,1323.6029 231.3141,1323.6029 Q231.0047,1323.6029 230.8219,1323.4201 Q230.6391,1323.2514 230.5406,1322.7873 Q230.4984,1322.4639 230.3297,1322.2951 Q230.0344,1321.9576 229.4859,1321.7607 Q228.9375,1321.5639 228.375,1321.5639 Q227.6859,1321.5639 227.1094,1321.8592 Q226.5469,1322.1545 226.0969,1322.8295 Q225.6609,1323.5045 225.6609,1324.4326 L225.6609,1325.417 Q225.6609,1326.5279 226.4625,1327.2732 Q227.2641,1328.0045 228.6984,1328.0045 Q229.5422,1328.0045 230.1328,1327.7795 Q230.4844,1327.6389 230.8641,1327.2451 Q231.1031,1327.0061 231.2297,1326.9357 Q231.3703,1326.8654 231.5531,1326.8654 Q231.8484,1326.8654 232.0734,1327.1045 Q232.3125,1327.3295 232.3125,1327.6389 Q232.3125,1327.9482 232.0031,1328.3139 Q231.5531,1328.8342 230.8359,1329.1295 Q229.8656,1329.5373 228.6984,1329.5373 Q227.3344,1329.5373 226.2516,1328.9748 Q225.3656,1328.5248 224.7469,1327.5686 Q224.1281,1326.5982 224.1281,1325.4451 L224.1281,1324.4045 Q224.1281,1323.2092 224.6766,1322.1826 Q225.2391,1321.142 226.2234,1320.5936 Q227.2078,1320.0311 228.3188,1320.0311 Q228.9797,1320.0311 229.5563,1320.1857 Q230.1469,1320.3264 230.6391,1320.6498 Z " fill="#000000"/><text fill="#000000" font-family="sans-serif" font-size="12.6" lengthAdjust="spacing" textLength="63.9" x="240.75" y="1329.5795">dimensions</text><line style="stroke:#181818;stroke-width:0.45;" x1="215.55" x2="306.45" y1="1338.7623" y2="1338.7623"/><line style="stroke:#181818;stroke-width:0.45;" x1="215.55" x2="306.45" y1="1345.9623" y2="1345.9623"/></g><!--class MapContent--><g id="elem_MapContent"><rect codeLine="91" fill="#F1F1F1" height="43.2" id="MapContent" rx="2.25" ry="2.25" style="stroke:#181818;stroke-width:0.45;" width="98.1" x="338.85" y="1309.9623"/><ellipse cx="352.35" cy="1324.3623" fill="#ADD1B2" rx="9.9" ry="9.9" style="stroke:#181818;stroke-width:0.9;"/><path d="M354.8391,1320.6498 Q354.9797,1320.4529 355.1484,1320.3545 Q355.3172,1320.2561 355.5141,1320.2561 Q355.8516,1320.2561 356.0625,1320.4951 Q356.2734,1320.7201 356.2734,1321.2686 L356.2734,1322.5764 Q356.2734,1323.1248 356.0625,1323.3639 Q355.8516,1323.6029 355.5141,1323.6029 Q355.2047,1323.6029 355.0219,1323.4201 Q354.8391,1323.2514 354.7406,1322.7873 Q354.6984,1322.4639 354.5297,1322.2951 Q354.2344,1321.9576 353.6859,1321.7607 Q353.1375,1321.5639 352.575,1321.5639 Q351.8859,1321.5639 351.3094,1321.8592 Q350.7469,1322.1545 350.2969,1322.8295 Q349.8609,1323.5045 349.8609,1324.4326 L349.8609,1325.417 Q349.8609,1326.5279 350.6625,1327.2732 Q351.4641,1328.0045 352.8984,1328.0045 Q353.7422,1328.0045 354.3328,1327.7795 Q354.6844,1327.6389 355.0641,1327.2451 Q355.3031,1327.0061 355.4297,1326.9357 Q355.5703,1326.8654 355.7531,1326.8654 Q356.0484,1326.8654 356.2734,1327.1045 Q356.5125,1327.3295 356.5125,1327.6389 Q356.5125,1327.9482 356.2031,1328.3139 Q355.7531,1328.8342 355.0359,1329.1295 Q354.0656,1329.5373 352.8984,1329.5373 Q351.5344,1329.5373 350.4516,1328.9748 Q349.5656,1328.5248 348.9469,1327.5686 Q348.3281,1326.5982 348.3281,1325.4451 L348.3281,1324.4045 Q348.3281,1323.2092 348.8766,1322.1826 Q349.4391,1321.142 350.4234,1320.5936 Q351.4078,1320.0311 352.5188,1320.0311 Q353.1797,1320.0311 353.7563,1320.1857 Q354.3469,1320.3264 354.8391,1320.6498 Z " fill="#000000"/><text fill="#000000" font-family="sans-serif" font-size="12.6" lengthAdjust="spacing" textLength="69.3" x="364.95" y="1329.5795">MapContent</text><line style="stroke:#181818;stroke-width:0.45;" x1="339.75" x2="436.05" y1="1338.7623" y2="1338.7623"/><line style="stroke:#181818;stroke-width:0.45;" x1="339.75" x2="436.05" y1="1345.9623" y2="1345.9623"/></g><!--class Coordinates--><g id="elem_Coordinates"><rect codeLine="92" fill="#F1F1F1" height="43.2" id="Coordinates" rx="2.25" ry="2.25" style="stroke:#181818;stroke-width:0.45;" width="98.1" x="85.05" y="1309.9623"/><ellipse cx="98.55" cy="1324.3623" fill="#ADD1B2" rx="9.9" ry="9.9" style="stroke:#181818;stroke-width:0.9;"/><path d="M101.0391,1320.6498 Q101.1797,1320.4529 101.3484,1320.3545 Q101.5172,1320.2561 101.7141,1320.2561 Q102.0516,1320.2561 102.2625,1320.4951 Q102.4734,1320.7201 102.4734,1321.2686 L102.4734,1322.5764 Q102.4734,1323.1248 102.2625,1323.3639 Q102.0516,1323.6029 101.7141,1323.6029 Q101.4047,1323.6029 101.2219,1323.4201 Q101.0391,1323.2514 100.9406,1322.7873 Q100.8984,1322.4639 100.7297,1322.2951 Q100.4344,1321.9576 99.8859,1321.7607 Q99.3375,1321.5639 98.775,1321.5639 Q98.0859,1321.5639 97.5094,1321.8592 Q96.9469,1322.1545 96.4969,1322.8295 Q96.0609,1323.5045 96.0609,1324.4326 L96.0609,1325.417 Q96.0609,1326.5279 96.8625,1327.2732 Q97.6641,1328.0045 99.0984,1328.0045 Q99.9422,1328.0045 100.5328,1327.7795 Q100.8844,1327.6389 101.2641,1327.2451 Q101.5031,1327.0061 101.6297,1326.9357 Q101.7703,1326.8654 101.9531,1326.8654 Q102.2484,1326.8654 102.4734,1327.1045 Q102.7125,1327.3295 102.7125,1327.6389 Q102.7125,1327.9482 102.4031,1328.3139 Q101.9531,1328.8342 101.2359,1329.1295 Q100.2656,1329.5373 99.0984,1329.5373 Q97.7344,1329.5373 96.6516,1328.9748 Q95.7656,1328.5248 95.1469,1327.5686 Q94.5281,1326.5982 94.5281,1325.4451 L94.5281,1324.4045 Q94.5281,1323.2092 95.0766,1322.1826 Q95.6391,1321.142 96.6234,1320.5936 Q97.6078,1320.0311 98.7188,1320.0311 Q99.3797,1320.0311 99.9563,1320.1857 Q100.5469,1320.3264 101.0391,1320.6498 Z " fill="#000000"/><text fill="#000000" font-family="sans-serif" font-size="12.6" lengthAdjust="spacing" textLength="69.3" x="111.15" y="1329.5795">Coordinates</text><line style="stroke:#181818;stroke-width:0.45;" x1="85.95" x2="182.25" y1="1338.7623" y2="1338.7623"/><line style="stroke:#181818;stroke-width:0.45;" x1="85.95" x2="182.25" y1="1345.9623" y2="1345.9623"/></g><!--class buildingDimensions--><g id="elem_buildingDimensions"><rect codeLine="97" fill="#F1F1F1" height="43.2" id="buildingDimensions" rx="2.25" ry="2.25" style="stroke:#181818;stroke-width:0.45;" width="138.6" x="487.8" y="1309.9623"/><ellipse cx="501.3" cy="1324.3623" fill="#ADD1B2" rx="9.9" ry="9.9" style="stroke:#181818;stroke-width:0.9;"/><path d="M503.7891,1320.6498 Q503.9297,1320.4529 504.0984,1320.3545 Q504.2672,1320.2561 504.4641,1320.2561 Q504.8016,1320.2561 505.0125,1320.4951 Q505.2234,1320.7201 505.2234,1321.2686 L505.2234,1322.5764 Q505.2234,1323.1248 505.0125,1323.3639 Q504.8016,1323.6029 504.4641,1323.6029 Q504.1547,1323.6029 503.9719,1323.4201 Q503.7891,1323.2514 503.6906,1322.7873 Q503.6484,1322.4639 503.4797,1322.2951 Q503.1844,1321.9576 502.6359,1321.7607 Q502.0875,1321.5639 501.525,1321.5639 Q500.8359,1321.5639 500.2594,1321.8592 Q499.6969,1322.1545 499.2469,1322.8295 Q498.8109,1323.5045 498.8109,1324.4326 L498.8109,1325.417 Q498.8109,1326.5279 499.6125,1327.2732 Q500.4141,1328.0045 501.8484,1328.0045 Q502.6922,1328.0045 503.2828,1327.7795 Q503.6344,1327.6389 504.0141,1327.2451 Q504.2531,1327.0061 504.3797,1326.9357 Q504.5203,1326.8654 504.7031,1326.8654 Q504.9984,1326.8654 505.2234,1327.1045 Q505.4625,1327.3295 505.4625,1327.6389 Q505.4625,1327.9482 505.1531,1328.3139 Q504.7031,1328.8342 503.9859,1329.1295 Q503.0156,1329.5373 501.8484,1329.5373 Q500.4844,1329.5373 499.4016,1328.9748 Q498.5156,1328.5248 497.8969,1327.5686 Q497.2781,1326.5982 497.2781,1325.4451 L497.2781,1324.4045 Q497.2781,1323.2092 497.8266,1322.1826 Q498.3891,1321.142 499.3734,1320.5936 Q500.3578,1320.0311 501.4688,1320.0311 Q502.1297,1320.0311 502.7063,1320.1857 Q503.2969,1320.3264 503.7891,1320.6498 Z " fill="#000000"/><text fill="#000000" font-family="sans-serif" font-size="12.6" lengthAdjust="spacing" textLength="109.8" x="513.9" y="1329.5795">buildingDimensions</text><line style="stroke:#181818;stroke-width:0.45;" x1="488.7" x2="625.5" y1="1338.7623" y2="1338.7623"/><line style="stroke:#181818;stroke-width:0.45;" x1="488.7" x2="625.5" y1="1345.9623" y2="1345.9623"/></g><!--class IFloorMapDTO--><g id="elem_IFloorMapDTO"><rect codeLine="113" fill="#F1F1F1" height="43.2" id="IFloorMapDTO" rx="2.25" ry="2.25" style="stroke:#181818;stroke-width:0.45;" width="114.3" x="771.75" y="342.9123"/><ellipse cx="785.25" cy="357.3123" fill="#B4A7E5" rx="9.9" ry="9.9" style="stroke:#181818;stroke-width:0.9;"/><path d="M786.1078,354.2889 L786.1078,360.2795 L787.6547,360.2795 Q788.2031,360.2795 788.4422,360.4904 Q788.6813,360.7014 788.6813,361.0529 Q788.6813,361.3904 788.4422,361.6014 Q788.2031,361.8123 787.6547,361.8123 L783.0281,361.8123 Q782.4797,361.8123 782.2406,361.6014 Q782.0016,361.3904 782.0016,361.0389 Q782.0016,360.7014 782.2406,360.4904 Q782.4797,360.2795 783.0281,360.2795 L784.575,360.2795 L784.575,354.2889 L783.0281,354.2889 Q782.4797,354.2889 782.2406,354.0779 Q782.0016,353.867 782.0016,353.5154 Q782.0016,353.1779 782.2406,352.967 Q782.4797,352.7561 783.0281,352.7561 L787.6547,352.7561 Q788.2031,352.7561 788.4422,352.967 Q788.6813,353.1779 788.6813,353.5154 Q788.6813,353.867 788.4422,354.0779 Q788.2031,354.2889 787.6547,354.2889 L786.1078,354.2889 Z " fill="#000000"/><text fill="#000000" font-family="sans-serif" font-size="12.6" font-style="italic" lengthAdjust="spacing" textLength="85.5" x="797.85" y="362.5295">IFloorMapDTO</text><line style="stroke:#181818;stroke-width:0.45;" x1="772.65" x2="885.15" y1="371.7123" y2="371.7123"/><line style="stroke:#181818;stroke-width:0.45;" x1="772.65" x2="885.15" y1="378.9123" y2="378.9123"/></g><!--link DBDriver to IDBDriver--><g id="link_DBDriver_IDBDriver"><path codeLine="25" d="M1026.711,141.3123 C1031.13,141.3123 1035.54,141.3123 1039.959,141.3123 " fill="none" id="DBDriver-to-IDBDriver" style="stroke:#FF6655;stroke-width:0.9;"/><polygon fill="none" points="1040.112,135.0123,1058.112,141.3123,1040.112,147.6123,1040.112,135.0123" style="stroke:#FF6655;stroke-width:0.9;"/></g><!--reverse link IControllerFloor to ControllerFloor--><g id="link_IControllerFloor_ControllerFloor"><path codeLine="37" d="M1225.449,404.6703 C1225.071,446.6193 1224.486,511.5363 1224.189,544.4853 " fill="none" id="IControllerFloor-backto-ControllerFloor" style="stroke:#FF6655;stroke-width:0.9;"/><polygon fill="none" points="1219.149,404.3553,1225.611,386.4183,1231.749,404.4723,1219.149,404.3553" style="stroke:#FF6655;stroke-width:0.9;"/></g><!--reverse link DBDriver to RepoFloor--><g id="link_DBDriver_RepoFloor"><path codeLine="44" d="M993.573,167.4123 C1006.119,211.4943 1031.814,301.8003 1043.442,342.6783 " fill="none" id="DBDriver-backto-RepoFloor" style="stroke:#FF6655;stroke-width:0.9;stroke-dasharray:7.0,7.0;"/><polygon fill="#FF6655" points="992.331,163.0383,991.0879,171.8147,993.5639,167.3661,998.0124,169.8421,992.331,163.0383" style="stroke:#FF6655;stroke-width:0.9;"/></g><!--link RouteBuilding to IControllerFloor--><g id="link_RouteBuilding_IControllerFloor"><path codeLine="46" d="M1243.737,163.0383 C1240.092,203.7543 1232.046,293.7633 1228.086,338.0253 " fill="none" id="RouteBuilding-to-IControllerFloor" style="stroke:#FF6655;stroke-width:0.9;stroke-dasharray:7.0,7.0;"/><polygon fill="#FF6655" points="1227.672,342.6783,1231.9745,334.9286,1228.0701,338.196,1224.8028,334.2916,1227.672,342.6783" style="stroke:#FF6655;stroke-width:0.9;"/></g><!--link AppServiceFloor to IAppServiceFloor--><g id="link_AppServiceFloor_IAppServiceFloor"><path codeLine="59" d="M825.39,751.6113 C825.534,786.9723 825.84,859.3773 826.038,904.4853 " fill="none" id="AppServiceFloor-to-IAppServiceFloor" style="stroke:#FF6655;stroke-width:0.9;"/><polygon fill="none" points="832.338,904.7553,826.11,922.7823,819.738,904.8093,832.338,904.7553" style="stroke:#FF6655;stroke-width:0.9;"/></g><!--link RepoFloor to IRepoFloor--><g id="link_RepoFloor_IRepoFloor"><path codeLine="65" d="M1027.638,386.4183 C991.746,421.0593 919.863,490.4493 876.96,531.8583 " fill="none" id="RepoFloor-to-IRepoFloor" style="stroke:#FF6655;stroke-width:0.9;"/><polygon fill="none" points="881.199,536.5203,863.874,544.4853,872.442,527.4573,881.199,536.5203" style="stroke:#FF6655;stroke-width:0.9;"/></g><!--link ControllerFloor to IAppServiceFloor--><g id="link_ControllerFloor_IAppServiceFloor"><path codeLine="68" d="M1202.049,587.8023 C1133.586,652.6203 924.219,850.8543 851.445,919.7583 " fill="none" id="ControllerFloor-to-IAppServiceFloor" style="stroke:#FF6655;stroke-width:0.9;stroke-dasharray:7.0,7.0;"/><polygon fill="#FF6655" points="848.088,922.9353,856.448,919.989,851.3588,919.8447,851.5031,914.7556,848.088,922.9353" style="stroke:#FF6655;stroke-width:0.9;"/></g><!--reverse link IRepoFloor to AppServiceFloor--><g id="link_IRepoFloor_AppServiceFloor"><path codeLine="70" d="M839.718,592.4103 C836.343,624.3603 830.619,678.6393 827.496,708.2493 " fill="none" id="IRepoFloor-backto-AppServiceFloor" style="stroke:#FF6655;stroke-width:0.9;stroke-dasharray:7.0,7.0;"/><polygon fill="#FF6655" points="840.195,587.8563,835.7588,595.5303,839.7192,592.3311,842.9184,596.2915,840.195,587.8563" style="stroke:#FF6655;stroke-width:0.9;"/></g><!--link Floor to Building--><g id="link_Floor_Building"><path codeLine="83" d="M365.976,979.2123 C386.199,1008.7863 415.566,1051.7253 436.608,1082.4963 " fill="none" id="Floor-to-Building" style="stroke:#FF6655;stroke-width:0.9;"/><polygon fill="#FF6655" points="439.389,1086.5643,437.8013,1077.8437,436.8544,1082.846,431.8521,1081.8991,439.389,1086.5643" style="stroke:#FF6655;stroke-width:0.9;"/><text fill="#000000" font-family="Impact" font-size="11.7" lengthAdjust="spacing" textLength="4.5" x="364.7951" y="997.7075">1</text><text fill="#000000" font-family="Impact" font-size="11.7" lengthAdjust="spacing" textLength="4.5" x="430.0355" y="1077.0502">1</text></g><!--link Floor to Map--><g id="link_Floor_Map"><path codeLine="84" d="M342.9,979.2123 C342.9,1008.5433 342.9,1051.0233 342.9,1081.7403 " fill="none" id="Floor-to-Map" style="stroke:#FF6655;stroke-width:0.9;"/><polygon fill="#FF6655" points="342.9,1086.5643,346.5,1078.4643,342.9,1082.0643,339.3,1078.4643,342.9,1086.5643" style="stroke:#FF6655;stroke-width:0.9;"/><text fill="#000000" font-family="Impact" font-size="11.7" lengthAdjust="spacing" textLength="4.5" x="338.0414" y="997.7075">1</text><text fill="#000000" font-family="Impact" font-size="11.7" lengthAdjust="spacing" textLength="4.5" x="337.9711" y="1077.0502">1</text></g><!--link Map to MapContent--><g id="link_Map_MapContent"><path codeLine="101" d="M350.226,1156.2513 C359.235,1197.9393 374.301,1267.7163 382.383,1305.1293 " fill="none" id="Map-to-MapContent" style="stroke:#FF6655;stroke-width:0.9;"/><polygon fill="#FF6655" points="383.382,1309.7463,385.1928,1301.0693,382.433,1305.3475,378.1547,1302.5877,383.382,1309.7463" style="stroke:#FF6655;stroke-width:0.9;"/><text fill="#000000" font-family="Impact" font-size="11.7" lengthAdjust="spacing" textLength="4.5" x="351.7522" y="1174.7766">1</text><text fill="#000000" font-family="Impact" font-size="11.7" lengthAdjust="spacing" textLength="4.5" x="376.9785" y="1300.1233">1</text></g><!--link Map to dimensions--><g id="link_Map_dimensions"><path codeLine="102" d="M349.641,1156.1163 C351.864,1176.7353 351.108,1202.7093 338.4,1221.7623 C334.233,1228.0173 328.698,1223.9403 323.1,1228.9623 C299.277,1250.3283 281.574,1283.0073 271.287,1305.5253 " fill="none" id="Map-to-dimensions" style="stroke:#FF6655;stroke-width:0.9;"/><polygon fill="#FF6655" points="269.334,1309.8903,275.9324,1303.9716,271.1748,1305.784,269.3623,1301.0264,269.334,1309.8903" style="stroke:#FF6655;stroke-width:0.9;"/><text fill="#000000" font-family="Impact" font-size="11.7" lengthAdjust="spacing" textLength="4.5" x="345.8568" y="1174.6201">1</text><text fill="#000000" font-family="Impact" font-size="11.7" lengthAdjust="spacing" textLength="4.5" x="266.5451" y="1300.3078">1</text></g><!--link Map to Coordinates--><g id="link_Map_Coordinates"><path codeLine="103" d="M310.617,1124.3823 C262.134,1129.4223 171.891,1146.7743 131.4,1206.4623 C111.546,1235.7393 118.233,1278.4803 125.613,1305.4173 " fill="none" id="Map-to-Coordinates" style="stroke:#FF6655;stroke-width:0.9;"/><polygon fill="#FF6655" points="126.891,1309.9263,128.1341,1301.1499,125.6581,1305.5985,121.2096,1303.1225,126.891,1309.9263" style="stroke:#FF6655;stroke-width:0.9;"/><text fill="#000000" font-family="Impact" font-size="11.7" lengthAdjust="spacing" textLength="46.8" x="132.3" y="1219.1651">elevators</text><text fill="#000000" font-family="Impact" font-size="11.7" lengthAdjust="spacing" textLength="4.5" x="299.3183" y="1122.0573">1</text><text fill="#000000" font-family="Impact" font-size="11.7" lengthAdjust="spacing" textLength="3.6" x="120.7572" y="1300.354">*</text></g><!--link Map to Coordinates--><g id="link_Map_Coordinates"><path codeLine="104" d="M310.797,1139.5383 C283.779,1154.9463 245.025,1179.2463 216,1206.4623 C184.968,1235.5593 159.966,1278.6153 146.079,1305.6333 " fill="none" id="Map-to-Coordinates-1" style="stroke:#FF6655;stroke-width:0.9;"/><polygon fill="#FF6655" points="143.946,1309.8273,150.8313,1304.245,145.9892,1305.8179,144.4163,1300.9758,143.946,1309.8273" style="stroke:#FF6655;stroke-width:0.9;"/><text fill="#000000" font-family="Impact" font-size="11.7" lengthAdjust="spacing" textLength="47.7" x="216.9" y="1219.1651">passages</text><text fill="#000000" font-family="Impact" font-size="11.7" lengthAdjust="spacing" textLength="4.5" x="299.2117" y="1140.3093">1</text><text fill="#000000" font-family="Impact" font-size="11.7" lengthAdjust="spacing" textLength="3.6" x="142.6089" y="1300.2271">*</text></g><!--link Map to Coordinates--><g id="link_Map_Coordinates"><path codeLine="105" d="M327.159,1156.1433 C314.739,1178.7333 295.173,1206.9303 269.1,1221.7623 C241.839,1237.2693 225.594,1212.4923 198.9,1228.9623 C170.55,1246.4493 152.415,1281.4863 142.74,1305.4983 " fill="none" id="Map-to-Coordinates-2" style="stroke:#FF6655;stroke-width:0.9;"/><polygon fill="#FF6655" points="141.03,1309.8453,147.3413,1303.6214,142.6746,1305.6566,140.6394,1300.9899,141.03,1309.8453" style="stroke:#FF6655;stroke-width:0.9;"/><text fill="#000000" font-family="Impact" font-size="11.7" lengthAdjust="spacing" textLength="31.5" x="288" y="1219.1651">rooms</text><text fill="#000000" font-family="Impact" font-size="11.7" lengthAdjust="spacing" textLength="4.5" x="319.7917" y="1174.6514">1</text><text fill="#000000" font-family="Impact" font-size="11.7" lengthAdjust="spacing" textLength="3.6" x="138.8728" y="1300.2502">*</text></g><!--link Building to buildingDimensions--><g id="link_Building_buildingDimensions"><path codeLine="107" d="M477.99,1156.2513 C496.98,1198.1103 528.813,1268.2833 545.724,1305.5883 " fill="none" id="Building-to-buildingDimensions" style="stroke:#FF6655;stroke-width:0.9;"/><polygon fill="#FF6655" points="547.614,1309.7463,547.5395,1300.8826,545.7519,1305.6497,540.9849,1303.862,547.614,1309.7463" style="stroke:#FF6655;stroke-width:0.9;"/></g><!--link AppServiceFloor to Floor--><g id="link_AppServiceFloor_Floor"><path codeLine="109" d="M778.167,751.6113 C682.11,793.9923 465.516,889.5633 379.305,927.5973 " fill="none" id="AppServiceFloor-to-Floor" style="stroke:#FF6655;stroke-width:0.9;stroke-dasharray:7.0,7.0;"/><polygon fill="#FF6655" points="375.048,929.4783,383.9119,929.5066,379.166,927.6638,381.0088,922.9179,375.048,929.4783" style="stroke:#FF6655;stroke-width:0.9;"/></g><!--reverse link IFloorMapDTO to AppServiceFloor--><g id="link_IFloorMapDTO_AppServiceFloor"><path codeLine="116" d="M802.413,389.7213 C793.944,399.1893 785.628,410.7183 781.2,423.0123 C746.622,518.9703 754.83,553.9803 781.2,652.5123 C786.672,672.9513 799.056,693.5793 809.316,708.2583 " fill="none" id="IFloorMapDTO-backto-AppServiceFloor" style="stroke:#FF6655;stroke-width:0.9;"/><polygon fill="#FF6655" points="805.536,386.3283,797.4052,389.8581,802.4918,389.6423,802.7075,394.7289,805.536,386.3283" style="stroke:#FF6655;stroke-width:0.9;"/></g><!--reverse link IFloorMapDTO to ControllerFloor--><g id="link_IFloorMapDTO_ControllerFloor"><path codeLine="117" d="M874.143,388.2903 C951.597,427.4583 1108.431,506.7753 1182.924,544.4403 " fill="none" id="IFloorMapDTO-backto-ControllerFloor" style="stroke:#FF6655;stroke-width:0.9;"/><polygon fill="#FF6655" points="870.066,386.2293,875.6747,393.0932,874.0832,388.2572,878.9192,386.6657,870.066,386.2293" style="stroke:#FF6655;stroke-width:0.9;"/></g><!--SRC=[bLLBZvim4BxpAonwgnHMUzWSgWWfZqPQgUrMJTLhvP09wmPiopQfqfR_tW72os2IvPB0V9xvldbPdnYNLD6KH2ALWWCtvAz7yDaARdRi3v37UVc-ej4fLYBZXxL8X5eibf96hn26v1EBNyrQA9fKGA4Ee6pGk-rsFdzwQbn_eIcGjSWK0sKV8_i4Wur59Hi0kJjTLaa6fNsfbFZT-7jECPnf3TMPEdJkUMW-qHY8lcW3wLLf_T5_vaT5jL5PP385_jNSWtm5fHcUvL7FNZoC6r176Y6DpMgZsFagh7wYX6fD1gPy6EIRo0nestzrlhIjCfOS68yxJl2fN-eGPAQAoinc_qABKkxPmclgomEL-5-FYbzZdfL84ilUTpK1ihBK8hU94FravPx3VIgJ6n6gF4qxxxvPI3BBP9anbuSEjRPY88LcHc0tk-g62AUVnaY2J0PXsoGjebjs4WH1MTh0GTEkxrBAX4NKCC793jIPHJ1UOGIE0lerG9GBP9MuHRwjn3SYL2bzWtCBIggPi1qu-4mLrz8xhF88cRRQ5Ot9rh2xCmYcYDiwgtQo8jZTyP4RPb3R0-vmUDY8b38-tXrnh22cPg8toYW-ePhGdyUImZ1VKCIxa8hXOg64C7X1B1RLzp1q7VXCvIXyOhORNlNeNAdjhwzESisetUBNZrTfyXzzB6rO_WvMzJWCjVMM-K303ufN7ddP_uB8kDEFRag5Pz58T8xFWQN0DQu4xG2WiwBxKBPpn-ATpNZH47Q_tr65ag2JNKr_Cyuo7vkLea6ifDe2RCX84dgGztvNvGS22Pmfhe8xuHAbeF8xqTXfgMxbD3rOW4VouPvwdFdEOiZxuxxv_jBjdyxsAiyWGqHqJmwM9rwGOH_jkaSjMExz1m00]--></g></svg>