<?xml version="1.0" encoding="us-ascii" standalone="no"?><svg xmlns="http://www.w3.org/2000/svg" xmlns:xlink="http://www.w3.org/1999/xlink" contentStyleType="text/css" height="474px" preserveAspectRatio="none" style="width:433px;height:474px;background:#FFFFFF;" version="1.1" viewBox="0 0 433 474" width="433px" zoomAndPan="magnify"><defs/><g><rect fill="#FFFFFF" height="265.5898" style="stroke:#181818;stroke-width:1.0;" width="10" x="84" y="93.6211"/><rect fill="#FFFFFF" height="105.5039" style="stroke:#181818;stroke-width:1.0;" width="10" x="325" y="116.9121"/><rect fill="#FFFFFF" height="105.5039" style="stroke:#181818;stroke-width:1.0;" width="10" x="325" y="253.707"/><rect fill="none" height="242.2988" style="stroke:#000000;stroke-width:1.5;" width="416" x="10" y="131.9121"/><rect fill="none" height="98.5039" style="stroke:#000000;stroke-width:1.5;" width="396" x="20" y="268.707"/><line style="stroke:#181818;stroke-width:0.5;stroke-dasharray:5.0,5.0;" x1="89" x2="89" y1="83.6211" y2="391.2109"/><line style="stroke:#181818;stroke-width:0.5;stroke-dasharray:5.0,5.0;" x1="330" x2="330" y1="83.6211" y2="391.2109"/><text fill="#000000" font-family="sans-serif" font-size="14" lengthAdjust="spacing" textLength="112" x="30" y="80.1074">Campus Manager</text><ellipse cx="89" cy="13.5" fill="#E2E2F0" rx="8" ry="8" style="stroke:#181818;stroke-width:0.5;"/><path d="M89,21.5 L89,48.5 M76,29.5 L102,29.5 M89,48.5 L76,63.5 M89,48.5 L102,63.5 " fill="none" style="stroke:#181818;stroke-width:0.5;"/><text fill="#000000" font-family="sans-serif" font-size="14" lengthAdjust="spacing" textLength="112" x="30" y="405.3184">Campus Manager</text><ellipse cx="89" cy="417.332" fill="#E2E2F0" rx="8" ry="8" style="stroke:#181818;stroke-width:0.5;"/><path d="M89,425.332 L89,452.332 M76,433.332 L102,433.332 M89,452.332 L76,467.332 M89,452.332 L102,467.332 " fill="none" style="stroke:#181818;stroke-width:0.5;"/><rect fill="#E2E2F0" height="51.2422" rx="2.5" ry="2.5" style="stroke:#181818;stroke-width:0.5;" width="152" x="254" y="31.3789"/><text fill="#000000" font-family="sans-serif" font-size="14" lengthAdjust="spacing" textLength="60" x="300" y="53.4863">&#171;system&#187;</text><text fill="#000000" font-family="sans-serif" font-size="14" lengthAdjust="spacing" textLength="134" x="265" y="72.1074">System RobDroneGo</text><rect fill="#E2E2F0" height="51.2422" rx="2.5" ry="2.5" style="stroke:#181818;stroke-width:0.5;" width="152" x="254" y="390.2109"/><text fill="#000000" font-family="sans-serif" font-size="14" lengthAdjust="spacing" textLength="60" x="300" y="412.3184">&#171;system&#187;</text><text fill="#000000" font-family="sans-serif" font-size="14" lengthAdjust="spacing" textLength="134" x="265" y="430.9395">System RobDroneGo</text><rect fill="#FFFFFF" height="265.5898" style="stroke:#181818;stroke-width:1.0;" width="10" x="84" y="93.6211"/><rect fill="#FFFFFF" height="105.5039" style="stroke:#181818;stroke-width:1.0;" width="10" x="325" y="116.9121"/><rect fill="#FFFFFF" height="105.5039" style="stroke:#181818;stroke-width:1.0;" width="10" x="325" y="253.707"/><polygon fill="#181818" points="313,112.9121,323,116.9121,313,120.9121,317,116.9121" style="stroke:#181818;stroke-width:1.0;"/><line style="stroke:#181818;stroke-width:1.0;" x1="94" x2="319" y1="116.9121" y2="116.9121"/><text fill="#000000" font-family="sans-serif" font-size="13" font-weight="bold" lengthAdjust="spacing" textLength="7" x="101" y="111.6494">1</text><text fill="#000000" font-family="sans-serif" font-size="13" lengthAdjust="spacing" textLength="180" x="112" y="111.6494">list building floors with passage</text><path d="M10,131.9121 L71,131.9121 L71,141.2031 L61,151.2031 L10,151.2031 L10,131.9121 " fill="#EEEEEE" style="stroke:#000000;stroke-width:1.5;"/><rect fill="none" height="242.2988" style="stroke:#000000;stroke-width:1.5;" width="416" x="10" y="131.9121"/><text fill="#000000" font-family="sans-serif" font-size="13" font-weight="bold" lengthAdjust="spacing" textLength="16" x="25" y="146.9404">alt</text><text fill="#000000" font-family="sans-serif" font-size="11" font-weight="bold" lengthAdjust="spacing" textLength="123" x="86" y="145.7822">[building(s) not found]</text><polygon fill="#181818" points="105,170.4941,95,174.4941,105,178.4941,101,174.4941" style="stroke:#181818;stroke-width:1.0;"/><line style="stroke:#181818;stroke-width:1.0;stroke-dasharray:2.0,2.0;" x1="99" x2="324" y1="174.4941" y2="174.4941"/><text fill="#000000" font-family="sans-serif" font-size="13" font-weight="bold" lengthAdjust="spacing" textLength="7" x="111" y="169.2314">2</text><text fill="#000000" font-family="sans-serif" font-size="13" lengthAdjust="spacing" textLength="162" x="122" y="169.2314">informs building(s) not found</text><line style="stroke:#000000;stroke-width:1.0;stroke-dasharray:2.0,2.0;" x1="10" x2="426" y1="183.4941" y2="183.4941"/><text fill="#000000" font-family="sans-serif" font-size="11" font-weight="bold" lengthAdjust="spacing" textLength="102" x="15" y="195.3643">[building(s) found]</text><polygon fill="#181818" points="105,218.416,95,222.416,105,226.416,101,222.416" style="stroke:#181818;stroke-width:1.0;"/><line style="stroke:#181818;stroke-width:1.0;stroke-dasharray:2.0,2.0;" x1="99" x2="329" y1="222.416" y2="222.416"/><text fill="#000000" font-family="sans-serif" font-size="13" font-weight="bold" lengthAdjust="spacing" textLength="7" x="111" y="217.1533">3</text><text fill="#000000" font-family="sans-serif" font-size="13" lengthAdjust="spacing" textLength="196" x="122" y="217.1533">shows buildings and requests one</text><polygon fill="#181818" points="313,249.707,323,253.707,313,257.707,317,253.707" style="stroke:#181818;stroke-width:1.0;"/><line style="stroke:#181818;stroke-width:1.0;" x1="94" x2="319" y1="253.707" y2="253.707"/><text fill="#000000" font-family="sans-serif" font-size="13" font-weight="bold" lengthAdjust="spacing" textLength="7" x="101" y="248.4443">4</text><text fill="#000000" font-family="sans-serif" font-size="13" lengthAdjust="spacing" textLength="90" x="112" y="248.4443">choses building</text><path d="M20,268.707 L81,268.707 L81,277.998 L71,287.998 L20,287.998 L20,268.707 " fill="#EEEEEE" style="stroke:#000000;stroke-width:1.5;"/><rect fill="none" height="98.5039" style="stroke:#000000;stroke-width:1.5;" width="396" x="20" y="268.707"/><text fill="#000000" font-family="sans-serif" font-size="13" font-weight="bold" lengthAdjust="spacing" textLength="16" x="35" y="283.7354">alt</text><text fill="#000000" font-family="sans-serif" font-size="11" font-weight="bold" lengthAdjust="spacing" textLength="197" x="96" y="282.5771">[floor(s) with passage(s) not found]</text><polygon fill="#181818" points="105,307.2891,95,311.2891,105,315.2891,101,311.2891" style="stroke:#181818;stroke-width:1.0;"/><line style="stroke:#181818;stroke-width:1.0;stroke-dasharray:2.0,2.0;" x1="99" x2="324" y1="311.2891" y2="311.2891"/><text fill="#000000" font-family="sans-serif" font-size="13" font-weight="bold" lengthAdjust="spacing" textLength="7" x="111" y="306.0264">5</text><text fill="#000000" font-family="sans-serif" font-size="13" lengthAdjust="spacing" textLength="167" x="122" y="306.0264">informs passage(s) not found</text><line style="stroke:#000000;stroke-width:1.0;stroke-dasharray:2.0,2.0;" x1="20" x2="416" y1="320.2891" y2="320.2891"/><text fill="#000000" font-family="sans-serif" font-size="11" font-weight="bold" lengthAdjust="spacing" textLength="176" x="25" y="332.1592">[floor(s) with passage(s) found]</text><polygon fill="#181818" points="100,355.2109,90,359.2109,100,363.2109,96,359.2109" style="stroke:#181818;stroke-width:1.0;"/><line style="stroke:#181818;stroke-width:1.0;stroke-dasharray:2.0,2.0;" x1="94" x2="329" y1="359.2109" y2="359.2109"/><text fill="#000000" font-family="sans-serif" font-size="13" font-weight="bold" lengthAdjust="spacing" textLength="7" x="106" y="353.9482">6</text><text fill="#000000" font-family="sans-serif" font-size="13" lengthAdjust="spacing" textLength="145" x="117" y="353.9482">show floors with passage</text><!--SRC=[ZPA_ReCm4CPtdk8JKpha1QA8fPKwTMdNB0SSmHBugCzkrBUFxIY5DABfIGWZVt_C3oXuiM6isHK5DLuSocSQfw1u8qj7TYL84JHkJ-IyQSn4rgFSx_LRFOzLTR3uo4kyI_tYnFAhP5CKv4ppHPvp1EB4ExPLsiGEWr6FEfYXDVQ8RX1nYfFnFIPIZVN9yXEH0d4P6cRVHfzWnQEJODkhu3gfPnlxKkqEndRYHdrivK7vHlMFSEtbD4ShoBPm_1bOlI9YMRfRldchUp9DByfpMXRSWKWKChHqmYMsFv4iZpqZUUZCI5RRBlfYdSpQr_sDOl6OVXcEgV4w0m00]--></g></svg>