<?xml version="1.0" encoding="us-ascii" standalone="no"?><svg xmlns="http://www.w3.org/2000/svg" xmlns:xlink="http://www.w3.org/1999/xlink" contentStyleType="text/css" height="925px" preserveAspectRatio="none" style="width:863px;height:925px;background:#FFFFFF;" version="1.1" viewBox="0 0 863 925" width="863px" zoomAndPan="magnify"><defs/><g><rect fill="#FFFFFF" height="714.0078" style="stroke:#181818;stroke-width:1.0;" width="10" x="98" y="91.4883"/><rect fill="#FFFFFF" height="191.8184" style="stroke:#181818;stroke-width:1.0;" width="10" x="364" y="112.7988"/><rect fill="#FFFFFF" height="191.8184" style="stroke:#181818;stroke-width:1.0;" width="10" x="364" y="333.9277"/><rect fill="#FFFFFF" height="29.3105" style="stroke:#181818;stroke-width:1.0;" width="10" x="364" y="555.0566"/><rect fill="#FFFFFF" height="191.8184" style="stroke:#181818;stroke-width:1.0;" width="10" x="364" y="613.6777"/><rect fill="#FFFFFF" height="133.1973" style="stroke:#181818;stroke-width:1.0;" width="10" x="637" y="142.1094"/><rect fill="#FFFFFF" height="133.1973" style="stroke:#181818;stroke-width:1.0;" width="10" x="637" y="363.2383"/><rect fill="#FFFFFF" height="159.5078" style="stroke:#181818;stroke-width:1.0;" width="10" x="637" y="645.9883"/><rect fill="none" height="670.3867" style="stroke:#000000;stroke-width:1.5;" width="846" x="10" y="157.1094"/><rect fill="none" height="442.2578" style="stroke:#000000;stroke-width:1.5;" width="826" x="20" y="378.2383"/><rect fill="none" height="149.5078" style="stroke:#000000;stroke-width:1.5;" width="640" x="30" y="663.9883"/><line style="stroke:#181818;stroke-width:0.5;stroke-dasharray:5.0,5.0;" x1="103" x2="103" y1="81.4883" y2="844.4961"/><line style="stroke:#181818;stroke-width:0.5;stroke-dasharray:5.0,5.0;" x1="369" x2="369" y1="81.4883" y2="844.4961"/><line style="stroke:#181818;stroke-width:0.5;stroke-dasharray:5.0,5.0;" x1="642" x2="642" y1="81.4883" y2="844.4961"/><text fill="#000000" font-family="sans-serif" font-size="14" lengthAdjust="spacing" textLength="120" x="40" y="78.5352">Campus Manager</text><ellipse cx="103" cy="13.5" fill="#E2E2F0" rx="8" ry="8" style="stroke:#181818;stroke-width:0.5;"/><path d="M103,21.5 L103,48.5 M90,29.5 L116,29.5 M103,48.5 L90,63.5 M103,48.5 L116,63.5 " fill="none" style="stroke:#181818;stroke-width:0.5;"/><text fill="#000000" font-family="sans-serif" font-size="14" lengthAdjust="spacing" textLength="120" x="40" y="857.0313">Campus Manager</text><ellipse cx="103" cy="868.4844" fill="#E2E2F0" rx="8" ry="8" style="stroke:#181818;stroke-width:0.5;"/><path d="M103,876.4844 L103,903.4844 M90,884.4844 L116,884.4844 M103,903.4844 L90,918.4844 M103,903.4844 L116,918.4844 " fill="none" style="stroke:#181818;stroke-width:0.5;"/><rect fill="#E2E2F0" height="30.4883" rx="2.5" ry="2.5" style="stroke:#181818;stroke-width:0.5;" width="30" x="354" y="50"/><text fill="#000000" font-family="sans-serif" font-size="14" lengthAdjust="spacing" textLength="16" x="361" y="70.5352">FE</text><rect fill="#E2E2F0" height="30.4883" rx="2.5" ry="2.5" style="stroke:#181818;stroke-width:0.5;" width="30" x="354" y="843.4961"/><text fill="#000000" font-family="sans-serif" font-size="14" lengthAdjust="spacing" textLength="16" x="361" y="864.0313">FE</text><rect fill="#E2E2F0" height="30.4883" rx="2.5" ry="2.5" style="stroke:#181818;stroke-width:0.5;" width="36" x="624" y="50"/><text fill="#000000" font-family="sans-serif" font-size="14" lengthAdjust="spacing" textLength="22" x="631" y="70.5352">MD</text><rect fill="#E2E2F0" height="30.4883" rx="2.5" ry="2.5" style="stroke:#181818;stroke-width:0.5;" width="36" x="624" y="843.4961"/><text fill="#000000" font-family="sans-serif" font-size="14" lengthAdjust="spacing" textLength="22" x="631" y="864.0313">MD</text><rect fill="#FFFFFF" height="714.0078" style="stroke:#181818;stroke-width:1.0;" width="10" x="98" y="91.4883"/><rect fill="#FFFFFF" height="191.8184" style="stroke:#181818;stroke-width:1.0;" width="10" x="364" y="112.7988"/><rect fill="#FFFFFF" height="191.8184" style="stroke:#181818;stroke-width:1.0;" width="10" x="364" y="333.9277"/><rect fill="#FFFFFF" height="29.3105" style="stroke:#181818;stroke-width:1.0;" width="10" x="364" y="555.0566"/><rect fill="#FFFFFF" height="191.8184" style="stroke:#181818;stroke-width:1.0;" width="10" x="364" y="613.6777"/><rect fill="#FFFFFF" height="133.1973" style="stroke:#181818;stroke-width:1.0;" width="10" x="637" y="142.1094"/><rect fill="#FFFFFF" height="133.1973" style="stroke:#181818;stroke-width:1.0;" width="10" x="637" y="363.2383"/><rect fill="#FFFFFF" height="159.5078" style="stroke:#181818;stroke-width:1.0;" width="10" x="637" y="645.9883"/><polygon fill="#181818" points="352,108.7988,362,112.7988,352,116.7988,356,112.7988" style="stroke:#181818;stroke-width:1.0;"/><line style="stroke:#181818;stroke-width:1.0;" x1="108" x2="358" y1="112.7988" y2="112.7988"/><text fill="#000000" font-family="sans-serif" font-size="13" font-weight="bold" lengthAdjust="spacing" textLength="9" x="115" y="108.0566">1</text><text fill="#000000" font-family="sans-serif" font-size="13" lengthAdjust="spacing" textLength="116" x="128" y="108.0566">wants to edit floor</text><polygon fill="#181818" points="625,138.1094,635,142.1094,625,146.1094,629,142.1094" style="stroke:#181818;stroke-width:1.0;"/><line style="stroke:#181818;stroke-width:1.0;" x1="374" x2="631" y1="142.1094" y2="142.1094"/><text fill="#000000" font-family="sans-serif" font-size="13" font-weight="bold" lengthAdjust="spacing" textLength="9" x="381" y="137.3672">2</text><text fill="#000000" font-family="sans-serif" font-size="13" lengthAdjust="spacing" textLength="94" x="394" y="137.3672">GET /buildings</text><path d="M10,157.1094 L72,157.1094 L72,164.4199 L62,174.4199 L10,174.4199 L10,157.1094 " fill="#EEEEEE" style="stroke:#000000;stroke-width:1.5;"/><rect fill="none" height="670.3867" style="stroke:#000000;stroke-width:1.5;" width="846" x="10" y="157.1094"/><text fill="#000000" font-family="sans-serif" font-size="13" font-weight="bold" lengthAdjust="spacing" textLength="17" x="25" y="170.6777">alt</text><text fill="#000000" font-family="sans-serif" font-size="11" font-weight="bold" lengthAdjust="spacing" textLength="128" x="87" y="169.7441">[building(s) not found]</text><polygon fill="#181818" points="385,194.7305,375,198.7305,385,202.7305,381,198.7305" style="stroke:#181818;stroke-width:1.0;"/><line style="stroke:#181818;stroke-width:1.0;stroke-dasharray:2.0,2.0;" x1="379" x2="636" y1="198.7305" y2="198.7305"/><text fill="#000000" font-family="sans-serif" font-size="13" font-weight="bold" lengthAdjust="spacing" textLength="9" x="391" y="193.9883">3</text><text fill="#000000" font-family="sans-serif" font-size="13" lengthAdjust="spacing" textLength="62" x="404" y="193.9883">404: error</text><path d="M652,179.4199 L652,204.4199 L836,204.4199 L836,189.4199 L826,179.4199 L652,179.4199 " fill="#FEFFDD" style="stroke:#181818;stroke-width:0.5;"/><path d="M826,179.4199 L826,189.4199 L836,189.4199 L826,179.4199 " fill="#FEFFDD" style="stroke:#181818;stroke-width:0.5;"/><text fill="#000000" font-family="sans-serif" font-size="13" lengthAdjust="spacing" textLength="163" x="658" y="196.9883">see us170 documentation</text><polygon fill="#181818" points="119,227.041,109,231.041,119,235.041,115,231.041" style="stroke:#181818;stroke-width:1.0;"/><line style="stroke:#181818;stroke-width:1.0;stroke-dasharray:2.0,2.0;" x1="113" x2="363" y1="231.041" y2="231.041"/><text fill="#000000" font-family="sans-serif" font-size="13" font-weight="bold" lengthAdjust="spacing" textLength="9" x="125" y="226.2988">4</text><text fill="#000000" font-family="sans-serif" font-size="13" lengthAdjust="spacing" textLength="83" x="138" y="226.2988">informs error</text><line style="stroke:#000000;stroke-width:1.0;stroke-dasharray:2.0,2.0;" x1="10" x2="856" y1="240.041" y2="240.041"/><text fill="#000000" font-family="sans-serif" font-size="11" font-weight="bold" lengthAdjust="spacing" textLength="106" x="15" y="250.6758">[building(s) found]</text><polygon fill="#181818" points="385,271.3066,375,275.3066,385,279.3066,381,275.3066" style="stroke:#181818;stroke-width:1.0;"/><line style="stroke:#181818;stroke-width:1.0;stroke-dasharray:2.0,2.0;" x1="379" x2="641" y1="275.3066" y2="275.3066"/><text fill="#000000" font-family="sans-serif" font-size="13" font-weight="bold" lengthAdjust="spacing" textLength="9" x="391" y="270.5645">5</text><text fill="#000000" font-family="sans-serif" font-size="13" lengthAdjust="spacing" textLength="91" x="404" y="270.5645">200: buildings</text><polygon fill="#181818" points="119,300.6172,109,304.6172,119,308.6172,115,304.6172" style="stroke:#181818;stroke-width:1.0;"/><line style="stroke:#181818;stroke-width:1.0;stroke-dasharray:2.0,2.0;" x1="113" x2="368" y1="304.6172" y2="304.6172"/><text fill="#000000" font-family="sans-serif" font-size="13" font-weight="bold" lengthAdjust="spacing" textLength="9" x="125" y="299.875">6</text><text fill="#000000" font-family="sans-serif" font-size="13" lengthAdjust="spacing" textLength="110" x="138" y="299.875">requests building</text><polygon fill="#181818" points="352,329.9277,362,333.9277,352,337.9277,356,333.9277" style="stroke:#181818;stroke-width:1.0;"/><line style="stroke:#181818;stroke-width:1.0;" x1="108" x2="358" y1="333.9277" y2="333.9277"/><text fill="#000000" font-family="sans-serif" font-size="13" font-weight="bold" lengthAdjust="spacing" textLength="9" x="115" y="329.1855">7</text><text fill="#000000" font-family="sans-serif" font-size="13" lengthAdjust="spacing" textLength="110" x="128" y="329.1855">provides building</text><polygon fill="#181818" points="625,359.2383,635,363.2383,625,367.2383,629,363.2383" style="stroke:#181818;stroke-width:1.0;"/><line style="stroke:#181818;stroke-width:1.0;" x1="374" x2="631" y1="363.2383" y2="363.2383"/><text fill="#000000" font-family="sans-serif" font-size="13" font-weight="bold" lengthAdjust="spacing" textLength="9" x="381" y="358.4961">8</text><text fill="#000000" font-family="sans-serif" font-size="13" lengthAdjust="spacing" textLength="165" x="394" y="358.4961">GET /buildings/{id}/floors</text><path d="M20,378.2383 L82,378.2383 L82,385.5488 L72,395.5488 L20,395.5488 L20,378.2383 " fill="#EEEEEE" style="stroke:#000000;stroke-width:1.5;"/><rect fill="none" height="442.2578" style="stroke:#000000;stroke-width:1.5;" width="826" x="20" y="378.2383"/><text fill="#000000" font-family="sans-serif" font-size="13" font-weight="bold" lengthAdjust="spacing" textLength="17" x="35" y="391.8066">alt</text><text fill="#000000" font-family="sans-serif" font-size="11" font-weight="bold" lengthAdjust="spacing" textLength="109" x="97" y="390.873">[floor(s) not found]</text><polygon fill="#181818" points="385,415.8594,375,419.8594,385,423.8594,381,419.8594" style="stroke:#181818;stroke-width:1.0;"/><line style="stroke:#181818;stroke-width:1.0;stroke-dasharray:2.0,2.0;" x1="379" x2="636" y1="419.8594" y2="419.8594"/><text fill="#000000" font-family="sans-serif" font-size="13" font-weight="bold" lengthAdjust="spacing" textLength="9" x="391" y="415.1172">9</text><text fill="#000000" font-family="sans-serif" font-size="13" lengthAdjust="spacing" textLength="62" x="404" y="415.1172">404: error</text><path d="M652,400.5488 L652,425.5488 L836,425.5488 L836,410.5488 L826,400.5488 L652,400.5488 " fill="#FEFFDD" style="stroke:#181818;stroke-width:0.5;"/><path d="M826,400.5488 L826,410.5488 L836,410.5488 L826,400.5488 " fill="#FEFFDD" style="stroke:#181818;stroke-width:0.5;"/><text fill="#000000" font-family="sans-serif" font-size="13" lengthAdjust="spacing" textLength="163" x="658" y="418.1172">see us210 documentation</text><polygon fill="#181818" points="119,448.1699,109,452.1699,119,456.1699,115,452.1699" style="stroke:#181818;stroke-width:1.0;"/><line style="stroke:#181818;stroke-width:1.0;stroke-dasharray:2.0,2.0;" x1="113" x2="363" y1="452.1699" y2="452.1699"/><text fill="#000000" font-family="sans-serif" font-size="13" font-weight="bold" lengthAdjust="spacing" textLength="18" x="125" y="447.4277">10</text><text fill="#000000" font-family="sans-serif" font-size="13" lengthAdjust="spacing" textLength="83" x="147" y="447.4277">informs error</text><line style="stroke:#000000;stroke-width:1.0;stroke-dasharray:2.0,2.0;" x1="20" x2="846" y1="461.1699" y2="461.1699"/><text fill="#000000" font-family="sans-serif" font-size="11" font-weight="bold" lengthAdjust="spacing" textLength="87" x="25" y="471.8047">[floor(s) found]</text><polygon fill="#181818" points="385,492.4355,375,496.4355,385,500.4355,381,496.4355" style="stroke:#181818;stroke-width:1.0;"/><line style="stroke:#181818;stroke-width:1.0;stroke-dasharray:2.0,2.0;" x1="379" x2="641" y1="496.4355" y2="496.4355"/><text fill="#000000" font-family="sans-serif" font-size="13" font-weight="bold" lengthAdjust="spacing" textLength="18" x="391" y="491.6934">11</text><text fill="#000000" font-family="sans-serif" font-size="13" lengthAdjust="spacing" textLength="69" x="413" y="491.6934">200: floors</text><polygon fill="#181818" points="119,521.7461,109,525.7461,119,529.7461,115,525.7461" style="stroke:#181818;stroke-width:1.0;"/><line style="stroke:#181818;stroke-width:1.0;stroke-dasharray:2.0,2.0;" x1="113" x2="368" y1="525.7461" y2="525.7461"/><text fill="#000000" font-family="sans-serif" font-size="13" font-weight="bold" lengthAdjust="spacing" textLength="18" x="125" y="521.0039">12</text><text fill="#000000" font-family="sans-serif" font-size="13" lengthAdjust="spacing" textLength="88" x="147" y="521.0039">requests floor</text><polygon fill="#181818" points="352,551.0566,362,555.0566,352,559.0566,356,555.0566" style="stroke:#181818;stroke-width:1.0;"/><line style="stroke:#181818;stroke-width:1.0;" x1="108" x2="358" y1="555.0566" y2="555.0566"/><text fill="#000000" font-family="sans-serif" font-size="13" font-weight="bold" lengthAdjust="spacing" textLength="18" x="115" y="550.3145">13</text><text fill="#000000" font-family="sans-serif" font-size="13" lengthAdjust="spacing" textLength="88" x="137" y="550.3145">provides floor</text><polygon fill="#181818" points="119,580.3672,109,584.3672,119,588.3672,115,584.3672" style="stroke:#181818;stroke-width:1.0;"/><line style="stroke:#181818;stroke-width:1.0;stroke-dasharray:2.0,2.0;" x1="113" x2="368" y1="584.3672" y2="584.3672"/><text fill="#000000" font-family="sans-serif" font-size="13" font-weight="bold" lengthAdjust="spacing" textLength="18" x="125" y="579.625">14</text><text fill="#000000" font-family="sans-serif" font-size="13" lengthAdjust="spacing" textLength="85" x="147" y="579.625">requests data</text><polygon fill="#181818" points="352,609.6777,362,613.6777,352,617.6777,356,613.6777" style="stroke:#181818;stroke-width:1.0;"/><line style="stroke:#181818;stroke-width:1.0;" x1="108" x2="358" y1="613.6777" y2="613.6777"/><text fill="#000000" font-family="sans-serif" font-size="13" font-weight="bold" lengthAdjust="spacing" textLength="18" x="115" y="608.9355">15</text><text fill="#000000" font-family="sans-serif" font-size="13" lengthAdjust="spacing" textLength="85" x="137" y="608.9355">provides data</text><polygon fill="#181818" points="625,641.9883,635,645.9883,625,649.9883,629,645.9883" style="stroke:#181818;stroke-width:1.0;"/><line style="stroke:#181818;stroke-width:1.0;" x1="374" x2="631" y1="645.9883" y2="645.9883"/><text fill="#000000" font-family="sans-serif" font-size="13" font-weight="bold" lengthAdjust="spacing" textLength="18" x="381" y="641.2461">16</text><text fill="#000000" font-family="sans-serif" font-size="13" lengthAdjust="spacing" textLength="222" x="403" y="641.2461">PATCH /building/{id}/floors/{floor}</text><path d="M652,626.6777 L652,651.6777 L836,651.6777 L836,636.6777 L826,626.6777 L652,626.6777 " fill="#FEFFDD" style="stroke:#181818;stroke-width:0.5;"/><path d="M826,626.6777 L826,636.6777 L836,636.6777 L826,626.6777 " fill="#FEFFDD" style="stroke:#181818;stroke-width:0.5;"/><text fill="#000000" font-family="sans-serif" font-size="13" lengthAdjust="spacing" textLength="163" x="658" y="644.2461">see us200 documentation</text><path d="M30,663.9883 L92,663.9883 L92,671.2988 L82,681.2988 L30,681.2988 L30,663.9883 " fill="#EEEEEE" style="stroke:#000000;stroke-width:1.5;"/><rect fill="none" height="149.5078" style="stroke:#000000;stroke-width:1.5;" width="640" x="30" y="663.9883"/><text fill="#000000" font-family="sans-serif" font-size="13" font-weight="bold" lengthAdjust="spacing" textLength="17" x="45" y="677.5566">alt</text><text fill="#000000" font-family="sans-serif" font-size="11" font-weight="bold" lengthAdjust="spacing" textLength="126" x="107" y="676.623">[bad floor parameters]</text><polygon fill="#181818" points="385,698.6094,375,702.6094,385,706.6094,381,702.6094" style="stroke:#181818;stroke-width:1.0;"/><line style="stroke:#181818;stroke-width:1.0;stroke-dasharray:2.0,2.0;" x1="379" x2="636" y1="702.6094" y2="702.6094"/><text fill="#000000" font-family="sans-serif" font-size="13" font-weight="bold" lengthAdjust="spacing" textLength="18" x="391" y="697.8672">17</text><text fill="#000000" font-family="sans-serif" font-size="13" lengthAdjust="spacing" textLength="62" x="413" y="697.8672">422: error</text><polygon fill="#181818" points="119,727.9199,109,731.9199,119,735.9199,115,731.9199" style="stroke:#181818;stroke-width:1.0;"/><line style="stroke:#181818;stroke-width:1.0;stroke-dasharray:2.0,2.0;" x1="113" x2="363" y1="731.9199" y2="731.9199"/><text fill="#000000" font-family="sans-serif" font-size="13" font-weight="bold" lengthAdjust="spacing" textLength="18" x="125" y="727.1777">18</text><text fill="#000000" font-family="sans-serif" font-size="13" lengthAdjust="spacing" textLength="83" x="147" y="727.1777">informs error</text><line style="stroke:#000000;stroke-width:1.0;stroke-dasharray:2.0,2.0;" x1="30" x2="670" y1="740.9199" y2="740.9199"/><text fill="#000000" font-family="sans-serif" font-size="11" font-weight="bold" lengthAdjust="spacing" textLength="51" x="35" y="751.5547">[success]</text><polygon fill="#181818" points="385,772.1855,375,776.1855,385,780.1855,381,776.1855" style="stroke:#181818;stroke-width:1.0;"/><line style="stroke:#181818;stroke-width:1.0;stroke-dasharray:2.0,2.0;" x1="379" x2="636" y1="776.1855" y2="776.1855"/><text fill="#000000" font-family="sans-serif" font-size="13" font-weight="bold" lengthAdjust="spacing" textLength="18" x="391" y="771.4434">19</text><text fill="#000000" font-family="sans-serif" font-size="13" lengthAdjust="spacing" textLength="62" x="413" y="771.4434">201: floor</text><polygon fill="#181818" points="114,801.4961,104,805.4961,114,809.4961,110,805.4961" style="stroke:#181818;stroke-width:1.0;"/><line style="stroke:#181818;stroke-width:1.0;stroke-dasharray:2.0,2.0;" x1="108" x2="368" y1="805.4961" y2="805.4961"/><text fill="#000000" font-family="sans-serif" font-size="13" font-weight="bold" lengthAdjust="spacing" textLength="18" x="120" y="800.7539">20</text><text fill="#000000" font-family="sans-serif" font-size="13" lengthAdjust="spacing" textLength="210" x="142" y="800.7539">previews edited floor information</text><!--SRC=[lPHBJiCm48RtESMeArXKIQDAI5aWeL9WKub5B-36Gx4Ksy6FTb7rxZZEEms4WeIboB4z_tZ6tzZ46Yaitw4A0f8QgM2s8Zot6ZP4a3sg6H0DLhlbd2Z3KfOJOM3sj2uNs61-y-ZdEVNks84Oz6fmpVKmltSQIE3eh3KO2KYPWRTCojAc5J4_zZfMo3XrikVr5iATPHbbOgy3aXceHpVw5eHqlgGLjD4s_dWxLpJdRLx7ieoM2Q1ILGXrSyuG5Dk_6sUZiSXZSHS1bQdbA0mnJ8gUe8YpyEdIJ829DwcuhlnYfh4NQJ_AOKHn52NGfbcRK1nBfxUjmW-BsXrjhGu6meBO44Qkv85H78YkGX6U63s7dcE9nV_-1vDuyHScJPW_059bzniQRO7tKNn9Olf6N6v2YI7NxD7OJv1-VTYkNbhMNTJXoVVdIRPZuA8XE7-T2IsJ1_Uk48u6EqT-KILnF5ObKz2rJLFK-XlQYwH3ODHjhl30yAZz0uPrpELc_JAyh9C-d-x8lPJeoh3wFW40]--></g></svg>