<?xml version="1.0" encoding="us-ascii" standalone="no"?><svg xmlns="http://www.w3.org/2000/svg" xmlns:xlink="http://www.w3.org/1999/xlink" contentStyleType="text/css" height="1317px" preserveAspectRatio="none" style="width:1603px;height:1317px;background:#FFFFFF;" version="1.1" viewBox="0 0 1603 1317" width="1603px" zoomAndPan="magnify"><defs/><g><!--cluster system--><g id="cluster_system"><path d="M8.5,6 L61.5,6 A3.75,3.75 0 0 1 64,8.5 L71,28.4883 L1593.5,28.4883 A2.5,2.5 0 0 1 1596,30.9883 L1596,1307.88 A2.5,2.5 0 0 1 1593.5,1310.38 L8.5,1310.38 A2.5,2.5 0 0 1 6,1307.88 L6,8.5 A2.5,2.5 0 0 1 8.5,6 " fill="none" style="stroke:#000000;stroke-width:1.5;"/><line style="stroke:#000000;stroke-width:1.5;" x1="6" x2="71" y1="28.4883" y2="28.4883"/><text fill="#000000" font-family="sans-serif" font-size="14" font-weight="bold" lengthAdjust="spacing" textLength="52" x="10" y="21.5352">system</text></g><!--cluster Infrastructure--><g id="cluster_Infrastructure"><path d="M105.5,49 L205.5,49 A3.75,3.75 0 0 1 208,51.5 L215,71.4883 L603.5,71.4883 A2.5,2.5 0 0 1 606,73.9883 L606,212.5 A2.5,2.5 0 0 1 603.5,215 L105.5,215 A2.5,2.5 0 0 1 103,212.5 L103,51.5 A2.5,2.5 0 0 1 105.5,49 " fill="none" style="stroke:#000000;stroke-width:1.5;"/><line style="stroke:#000000;stroke-width:1.5;" x1="103" x2="215" y1="71.4883" y2="71.4883"/><text fill="#000000" font-family="sans-serif" font-size="14" font-weight="bold" lengthAdjust="spacing" textLength="99" x="107" y="64.5352">Infrastructure</text></g><!--cluster Persistence--><g id="cluster_Persistence"><path d="M331.5,92 L414.5,92 A3.75,3.75 0 0 1 417,94.5 L424,114.4883 L579.5,114.4883 A2.5,2.5 0 0 1 582,116.9883 L582,188.5 A2.5,2.5 0 0 1 579.5,191 L331.5,191 A2.5,2.5 0 0 1 329,188.5 L329,94.5 A2.5,2.5 0 0 1 331.5,92 " fill="none" style="stroke:#000000;stroke-width:1.5;"/><line style="stroke:#000000;stroke-width:1.5;" x1="329" x2="424" y1="114.4883" y2="114.4883"/><text fill="#000000" font-family="sans-serif" font-size="14" font-weight="bold" lengthAdjust="spacing" textLength="82" x="333" y="107.5352">Persistence</text></g><!--cluster Routes--><g id="cluster_Routes"><path d="M129.5,92 L180.5,92 A3.75,3.75 0 0 1 183,94.5 L190,114.4883 L302.5,114.4883 A2.5,2.5 0 0 1 305,116.9883 L305,188.5 A2.5,2.5 0 0 1 302.5,191 L129.5,191 A2.5,2.5 0 0 1 127,188.5 L127,94.5 A2.5,2.5 0 0 1 129.5,92 " fill="none" style="stroke:#000000;stroke-width:1.5;"/><line style="stroke:#000000;stroke-width:1.5;" x1="127" x2="190" y1="114.4883" y2="114.4883"/><text fill="#000000" font-family="sans-serif" font-size="14" font-weight="bold" lengthAdjust="spacing" textLength="50" x="131" y="107.5352">Routes</text></g><!--cluster Interface Adapters--><g id="cluster_Interface Adapters"><path d="M32.5,239 L165.5,239 A3.75,3.75 0 0 1 168,241.5 L175,261.4883 L531.5,261.4883 A2.5,2.5 0 0 1 534,263.9883 L534,678.5 A2.5,2.5 0 0 1 531.5,681 L32.5,681 A2.5,2.5 0 0 1 30,678.5 L30,241.5 A2.5,2.5 0 0 1 32.5,239 " fill="none" style="stroke:#000000;stroke-width:1.5;"/><line style="stroke:#000000;stroke-width:1.5;" x1="30" x2="175" y1="261.4883" y2="261.4883"/><text fill="#000000" font-family="sans-serif" font-size="14" font-weight="bold" lengthAdjust="spacing" textLength="132" x="34" y="254.5352">Interface Adapters</text></g><!--cluster Controllers--><g id="cluster_Controllers"><path d="M56.5,282 L138.5,282 A3.75,3.75 0 0 1 141,284.5 L148,304.4883 L311.5,304.4883 A2.5,2.5 0 0 1 314,306.9883 L314,654.5 A2.5,2.5 0 0 1 311.5,657 L56.5,657 A2.5,2.5 0 0 1 54,654.5 L54,284.5 A2.5,2.5 0 0 1 56.5,282 " fill="none" style="stroke:#000000;stroke-width:1.5;"/><line style="stroke:#000000;stroke-width:1.5;" x1="54" x2="148" y1="304.4883" y2="304.4883"/><text fill="#000000" font-family="sans-serif" font-size="14" font-weight="bold" lengthAdjust="spacing" textLength="81" x="58" y="297.5352">Controllers</text></g><!--cluster IControllers--><g id="cluster_IControllers"><path d="M80.5,325 L167.5,325 A3.75,3.75 0 0 1 170,327.5 L177,347.4883 L287.5,347.4883 A2.5,2.5 0 0 1 290,349.9883 L290,421.5 A2.5,2.5 0 0 1 287.5,424 L80.5,424 A2.5,2.5 0 0 1 78,421.5 L78,327.5 A2.5,2.5 0 0 1 80.5,325 " fill="none" style="stroke:#000000;stroke-width:1.5;"/><line style="stroke:#000000;stroke-width:1.5;" x1="78" x2="177" y1="347.4883" y2="347.4883"/><text fill="#000000" font-family="sans-serif" font-size="14" font-weight="bold" lengthAdjust="spacing" textLength="86" x="82" y="340.5352">IControllers</text></g><!--cluster ImplControllers--><g id="cluster_ImplControllers"><path d="M83.5,534 L198.5,534 A3.75,3.75 0 0 1 201,536.5 L208,556.4883 L286.5,556.4883 A2.5,2.5 0 0 1 289,558.9883 L289,630.5 A2.5,2.5 0 0 1 286.5,633 L83.5,633 A2.5,2.5 0 0 1 81,630.5 L81,536.5 A2.5,2.5 0 0 1 83.5,534 " fill="none" style="stroke:#000000;stroke-width:1.5;"/><line style="stroke:#000000;stroke-width:1.5;" x1="81" x2="208" y1="556.4883" y2="556.4883"/><text fill="#000000" font-family="sans-serif" font-size="14" font-weight="bold" lengthAdjust="spacing" textLength="114" x="85" y="549.5352">ImplControllers</text></g><!--cluster Repositories--><g id="cluster_Repositories"><path d="M340.5,325 L432.5,325 A3.75,3.75 0 0 1 435,327.5 L442,347.4883 L507.5,347.4883 A2.5,2.5 0 0 1 510,349.9883 L510,421.5 A2.5,2.5 0 0 1 507.5,424 L340.5,424 A2.5,2.5 0 0 1 338,421.5 L338,327.5 A2.5,2.5 0 0 1 340.5,325 " fill="none" style="stroke:#000000;stroke-width:1.5;"/><line style="stroke:#000000;stroke-width:1.5;" x1="338" x2="442" y1="347.4883" y2="347.4883"/><text fill="#000000" font-family="sans-serif" font-size="14" font-weight="bold" lengthAdjust="spacing" textLength="91" x="342" y="340.5352">Repositories</text></g><!--cluster Application Services--><g id="cluster_Application Services"><path d="M560.5,448 L706.5,448 A3.75,3.75 0 0 1 709,450.5 L716,470.4883 L869.5,470.4883 A2.5,2.5 0 0 1 872,472.9883 L872,1069.88 A2.5,2.5 0 0 1 869.5,1072.38 L560.5,1072.38 A2.5,2.5 0 0 1 558,1069.88 L558,450.5 A2.5,2.5 0 0 1 560.5,448 " fill="none" style="stroke:#000000;stroke-width:1.5;"/><line style="stroke:#000000;stroke-width:1.5;" x1="558" x2="716" y1="470.4883" y2="470.4883"/><text fill="#000000" font-family="sans-serif" font-size="14" font-weight="bold" lengthAdjust="spacing" textLength="145" x="562" y="463.5352">Application Services</text></g><!--cluster App Services--><g id="cluster_App Services"><path d="M584.5,491 L676.5,491 A3.75,3.75 0 0 1 679,493.5 L686,513.4883 L845.5,513.4883 A2.5,2.5 0 0 1 848,515.9883 L848,1045.88 A2.5,2.5 0 0 1 845.5,1048.38 L584.5,1048.38 A2.5,2.5 0 0 1 582,1045.88 L582,493.5 A2.5,2.5 0 0 1 584.5,491 " fill="none" style="stroke:#000000;stroke-width:1.5;"/><line style="stroke:#000000;stroke-width:1.5;" x1="582" x2="686" y1="513.4883" y2="513.4883"/><text fill="#000000" font-family="sans-serif" font-size="14" font-weight="bold" lengthAdjust="spacing" textLength="91" x="586" y="506.5352">App Services</text></g><!--cluster IAppServices--><g id="cluster_IAppServices"><path d="M608.5,925.38 L700.5,925.38 A3.75,3.75 0 0 1 703,927.88 L710,947.8683 L821.5,947.8683 A2.5,2.5 0 0 1 824,950.3683 L824,1021.88 A2.5,2.5 0 0 1 821.5,1024.38 L608.5,1024.38 A2.5,2.5 0 0 1 606,1021.88 L606,927.88 A2.5,2.5 0 0 1 608.5,925.38 " fill="none" style="stroke:#000000;stroke-width:1.5;"/><line style="stroke:#000000;stroke-width:1.5;" x1="606" x2="710" y1="947.8683" y2="947.8683"/><text fill="#000000" font-family="sans-serif" font-size="14" font-weight="bold" lengthAdjust="spacing" textLength="91" x="610" y="940.9152">IAppServices</text></g><!--cluster ImplAppServices--><g id="cluster_ImplAppServices"><path d="M610.5,705 L730.5,705 A3.75,3.75 0 0 1 733,707.5 L740,727.4883 L819.5,727.4883 A2.5,2.5 0 0 1 822,729.9883 L822,801.5 A2.5,2.5 0 0 1 819.5,804 L610.5,804 A2.5,2.5 0 0 1 608,801.5 L608,707.5 A2.5,2.5 0 0 1 610.5,705 " fill="none" style="stroke:#000000;stroke-width:1.5;"/><line style="stroke:#000000;stroke-width:1.5;" x1="608" x2="740" y1="727.4883" y2="727.4883"/><text fill="#000000" font-family="sans-serif" font-size="14" font-weight="bold" lengthAdjust="spacing" textLength="119" x="612" y="720.5352">ImplAppServices</text></g><!--cluster IRepositories--><g id="cluster_IRepositories"><path d="M618.5,534 L715.5,534 A3.75,3.75 0 0 1 718,536.5 L725,556.4883 L791.5,556.4883 A2.5,2.5 0 0 1 794,558.9883 L794,630.5 A2.5,2.5 0 0 1 791.5,633 L618.5,633 A2.5,2.5 0 0 1 616,630.5 L616,536.5 A2.5,2.5 0 0 1 618.5,534 " fill="none" style="stroke:#000000;stroke-width:1.5;"/><line style="stroke:#000000;stroke-width:1.5;" x1="616" x2="725" y1="556.4883" y2="556.4883"/><text fill="#000000" font-family="sans-serif" font-size="14" font-weight="bold" lengthAdjust="spacing" textLength="96" x="620" y="549.5352">IRepositories</text></g><!--cluster Entities/Core/Domain--><g id="cluster_Entities/Core/Domain"><path d="M898.5,828 L1059.5,828 A3.75,3.75 0 0 1 1062,830.5 L1069,850.4883 L1569.5,850.4883 A2.5,2.5 0 0 1 1572,852.9883 L1572,1283.88 A2.5,2.5 0 0 1 1569.5,1286.38 L898.5,1286.38 A2.5,2.5 0 0 1 896,1283.88 L896,830.5 A2.5,2.5 0 0 1 898.5,828 " fill="none" style="stroke:#000000;stroke-width:1.5;"/><line style="stroke:#000000;stroke-width:1.5;" x1="896" x2="1069" y1="850.4883" y2="850.4883"/><text fill="#000000" font-family="sans-serif" font-size="14" font-weight="bold" lengthAdjust="spacing" textLength="160" x="900" y="843.5352">Entities/Core/Domain</text></g><!--cluster Aggregates--><g id="cluster_Aggregates"><path d="M1034.5,871 L1116.5,871 A3.75,3.75 0 0 1 1119,873.5 L1126,893.4883 L1215.5,893.4883 A2.5,2.5 0 0 1 1218,895.9883 L1218,1057.26 A2.5,2.5 0 0 1 1215.5,1059.76 L1034.5,1059.76 A2.5,2.5 0 0 1 1032,1057.26 L1032,873.5 A2.5,2.5 0 0 1 1034.5,871 " fill="none" style="stroke:#000000;stroke-width:1.5;"/><line style="stroke:#000000;stroke-width:1.5;" x1="1032" x2="1126" y1="893.4883" y2="893.4883"/><text fill="#000000" font-family="sans-serif" font-size="14" font-weight="bold" lengthAdjust="spacing" textLength="81" x="1036" y="886.5352">Aggregates</text></g><!--cluster a_building--><g id="cluster_a_building"><path d="M1058.5,914 L1137.5,914 A3.75,3.75 0 0 1 1140,916.5 L1147,936.4883 L1191.5,936.4883 A2.5,2.5 0 0 1 1194,938.9883 L1194,1033.26 A2.5,2.5 0 0 1 1191.5,1035.76 L1058.5,1035.76 A2.5,2.5 0 0 1 1056,1033.26 L1056,916.5 A2.5,2.5 0 0 1 1058.5,914 " fill="none" style="stroke:#000000;stroke-width:1.5;"/><line style="stroke:#000000;stroke-width:1.5;" x1="1056" x2="1147" y1="936.4883" y2="936.4883"/><text fill="#000000" font-family="sans-serif" font-size="14" font-weight="bold" lengthAdjust="spacing" textLength="78" x="1060" y="929.5352">RobotType</text></g><!--cluster Value Objects--><g id="cluster_Value Objects"><path d="M922.5,1096.38 L1023.5,1096.38 A3.75,3.75 0 0 1 1026,1098.88 L1033,1118.8683 L1545.5,1118.8683 A2.5,2.5 0 0 1 1548,1121.3683 L1548,1259.88 A2.5,2.5 0 0 1 1545.5,1262.38 L922.5,1262.38 A2.5,2.5 0 0 1 920,1259.88 L920,1098.88 A2.5,2.5 0 0 1 922.5,1096.38 " fill="none" style="stroke:#000000;stroke-width:1.5;"/><line style="stroke:#000000;stroke-width:1.5;" x1="920" x2="1033" y1="1118.8683" y2="1118.8683"/><text fill="#000000" font-family="sans-serif" font-size="14" font-weight="bold" lengthAdjust="spacing" textLength="100" x="924" y="1111.9152">Value Objects</text></g><!--cluster vo_building--><g id="cluster_vo_building"><path d="M946.5,1139.38 L1025.5,1139.38 A3.75,3.75 0 0 1 1028,1141.88 L1035,1161.8683 L1521.5,1161.8683 A2.5,2.5 0 0 1 1524,1164.3683 L1524,1235.88 A2.5,2.5 0 0 1 1521.5,1238.38 L946.5,1238.38 A2.5,2.5 0 0 1 944,1235.88 L944,1141.88 A2.5,2.5 0 0 1 946.5,1139.38 " fill="none" style="stroke:#000000;stroke-width:1.5;"/><line style="stroke:#000000;stroke-width:1.5;" x1="944" x2="1035" y1="1161.8683" y2="1161.8683"/><text fill="#000000" font-family="sans-serif" font-size="14" font-weight="bold" lengthAdjust="spacing" textLength="78" x="948" y="1154.9152">RobotType</text></g><!--class IDBDriver--><g id="elem_IDBDriver"><rect codeLine="16" fill="#F1F1F1" height="48" id="IDBDriver" rx="2.5" ry="2.5" style="stroke:#181818;stroke-width:0.5;" width="95" x="471.5" y="127"/><ellipse cx="486.5" cy="143" fill="#B4A7E5" rx="11" ry="11" style="stroke:#181818;stroke-width:1.0;"/><path d="M482.9277,139.2651 L482.9277,137.1069 L490.3071,137.1069 L490.3071,139.2651 L487.8418,139.2651 L487.8418,147.3418 L490.3071,147.3418 L490.3071,149.5 L482.9277,149.5 L482.9277,147.3418 L485.3931,147.3418 L485.3931,139.2651 Z " fill="#000000"/><text fill="#000000" font-family="sans-serif" font-size="14" font-style="italic" lengthAdjust="spacing" textLength="63" x="500.5" y="148.291">IDBDriver</text><line style="stroke:#181818;stroke-width:0.5;" x1="472.5" x2="565.5" y1="159" y2="159"/><line style="stroke:#181818;stroke-width:0.5;" x1="472.5" x2="565.5" y1="167" y2="167"/></g><!--class DBDriver--><g id="elem_DBDriver"><rect codeLine="17" fill="#F1F1F1" height="48" id="DBDriver" rx="2.5" ry="2.5" style="stroke:#181818;stroke-width:0.5;" width="91" x="345.5" y="127"/><ellipse cx="360.5" cy="143" fill="#ADD1B2" rx="11" ry="11" style="stroke:#181818;stroke-width:1.0;"/><path d="M362.9731,149.1431 Q362.3921,149.4419 361.7529,149.5913 Q361.1138,149.7407 360.4082,149.7407 Q357.9014,149.7407 356.5815,148.0889 Q355.2617,146.437 355.2617,143.3159 Q355.2617,140.1865 356.5815,138.5347 Q357.9014,136.8828 360.4082,136.8828 Q361.1138,136.8828 361.7612,137.0322 Q362.4087,137.1816 362.9731,137.4805 L362.9731,140.2031 Q362.3423,139.6221 361.7488,139.3523 Q361.1553,139.0825 360.5244,139.0825 Q359.1797,139.0825 358.4949,140.1492 Q357.8101,141.2158 357.8101,143.3159 Q357.8101,145.4077 358.4949,146.4744 Q359.1797,147.541 360.5244,147.541 Q361.1553,147.541 361.7488,147.2712 Q362.3423,147.0015 362.9731,146.4204 Z " fill="#000000"/><text fill="#000000" font-family="sans-serif" font-size="14" lengthAdjust="spacing" textLength="59" x="374.5" y="148.291">DBDriver</text><line style="stroke:#181818;stroke-width:0.5;" x1="346.5" x2="435.5" y1="159" y2="159"/><line style="stroke:#181818;stroke-width:0.5;" x1="346.5" x2="435.5" y1="167" y2="167"/></g><!--class RouteRobotType--><g id="elem_RouteRobotType"><rect codeLine="21" fill="#F1F1F1" height="48" id="RouteRobotType" rx="2.5" ry="2.5" style="stroke:#181818;stroke-width:0.5;" width="146" x="143" y="127"/><ellipse cx="158" cy="143" fill="#ADD1B2" rx="11" ry="11" style="stroke:#181818;stroke-width:1.0;"/><path d="M160.4731,149.1431 Q159.8921,149.4419 159.2529,149.5913 Q158.6138,149.7407 157.9082,149.7407 Q155.4014,149.7407 154.0815,148.0889 Q152.7617,146.437 152.7617,143.3159 Q152.7617,140.1865 154.0815,138.5347 Q155.4014,136.8828 157.9082,136.8828 Q158.6138,136.8828 159.2612,137.0322 Q159.9087,137.1816 160.4731,137.4805 L160.4731,140.2031 Q159.8423,139.6221 159.2488,139.3523 Q158.6553,139.0825 158.0244,139.0825 Q156.6797,139.0825 155.9949,140.1492 Q155.3101,141.2158 155.3101,143.3159 Q155.3101,145.4077 155.9949,146.4744 Q156.6797,147.541 158.0244,147.541 Q158.6553,147.541 159.2488,147.2712 Q159.8423,147.0015 160.4731,146.4204 Z " fill="#000000"/><text fill="#000000" font-family="sans-serif" font-size="14" lengthAdjust="spacing" textLength="114" x="172" y="148.291">RouteRobotType</text><line style="stroke:#181818;stroke-width:0.5;" x1="144" x2="288" y1="159" y2="159"/><line style="stroke:#181818;stroke-width:0.5;" x1="144" x2="288" y1="167" y2="167"/></g><!--class IControllerRobotType--><g id="elem_IControllerRobotType"><rect codeLine="30" fill="#F1F1F1" height="48" id="IControllerRobotType" rx="2.5" ry="2.5" style="stroke:#181818;stroke-width:0.5;" width="180" x="94" y="360"/><ellipse cx="109" cy="376" fill="#B4A7E5" rx="11" ry="11" style="stroke:#181818;stroke-width:1.0;"/><path d="M105.4277,372.2651 L105.4277,370.1069 L112.8071,370.1069 L112.8071,372.2651 L110.3418,372.2651 L110.3418,380.3418 L112.8071,380.3418 L112.8071,382.5 L105.4277,382.5 L105.4277,380.3418 L107.8931,380.3418 L107.8931,372.2651 Z " fill="#000000"/><text fill="#000000" font-family="sans-serif" font-size="14" font-style="italic" lengthAdjust="spacing" textLength="148" x="123" y="381.291">IControllerRobotType</text><line style="stroke:#181818;stroke-width:0.5;" x1="95" x2="273" y1="392" y2="392"/><line style="stroke:#181818;stroke-width:0.5;" x1="95" x2="273" y1="400" y2="400"/></g><!--class ControllerRobotType--><g id="elem_ControllerRobotType"><rect codeLine="34" fill="#F1F1F1" height="48" id="ControllerRobotType" rx="2.5" ry="2.5" style="stroke:#181818;stroke-width:0.5;" width="176" x="97" y="569"/><ellipse cx="112" cy="585" fill="#ADD1B2" rx="11" ry="11" style="stroke:#181818;stroke-width:1.0;"/><path d="M114.4731,591.1431 Q113.8921,591.4419 113.2529,591.5913 Q112.6138,591.7407 111.9082,591.7407 Q109.4014,591.7407 108.0815,590.0889 Q106.7617,588.437 106.7617,585.3159 Q106.7617,582.1865 108.0815,580.5347 Q109.4014,578.8828 111.9082,578.8828 Q112.6138,578.8828 113.2612,579.0322 Q113.9087,579.1816 114.4731,579.4805 L114.4731,582.2031 Q113.8423,581.6221 113.2488,581.3523 Q112.6553,581.0825 112.0244,581.0825 Q110.6797,581.0825 109.9949,582.1492 Q109.3101,583.2158 109.3101,585.3159 Q109.3101,587.4077 109.9949,588.4744 Q110.6797,589.541 112.0244,589.541 Q112.6553,589.541 113.2488,589.2712 Q113.8423,589.0015 114.4731,588.4204 Z " fill="#000000"/><text fill="#000000" font-family="sans-serif" font-size="14" lengthAdjust="spacing" textLength="144" x="126" y="590.291">ControllerRobotType</text><line style="stroke:#181818;stroke-width:0.5;" x1="98" x2="272" y1="601" y2="601"/><line style="stroke:#181818;stroke-width:0.5;" x1="98" x2="272" y1="609" y2="609"/></g><!--class RepoRobotType--><g id="elem_RepoRobotType"><rect codeLine="40" fill="#F1F1F1" height="48" id="RepoRobotType" rx="2.5" ry="2.5" style="stroke:#181818;stroke-width:0.5;" width="141" x="353.5" y="360"/><ellipse cx="368.5" cy="376" fill="#ADD1B2" rx="11" ry="11" style="stroke:#181818;stroke-width:1.0;"/><path d="M370.9731,382.1431 Q370.3921,382.4419 369.7529,382.5913 Q369.1138,382.7407 368.4082,382.7407 Q365.9014,382.7407 364.5815,381.0889 Q363.2617,379.437 363.2617,376.3159 Q363.2617,373.1865 364.5815,371.5347 Q365.9014,369.8828 368.4082,369.8828 Q369.1138,369.8828 369.7612,370.0322 Q370.4087,370.1816 370.9731,370.4805 L370.9731,373.2031 Q370.3423,372.6221 369.7488,372.3523 Q369.1553,372.0825 368.5244,372.0825 Q367.1797,372.0825 366.4949,373.1492 Q365.8101,374.2158 365.8101,376.3159 Q365.8101,378.4077 366.4949,379.4744 Q367.1797,380.541 368.5244,380.541 Q369.1553,380.541 369.7488,380.2712 Q370.3423,380.0015 370.9731,379.4204 Z " fill="#000000"/><text fill="#000000" font-family="sans-serif" font-size="14" lengthAdjust="spacing" textLength="109" x="382.5" y="381.291">RepoRobotType</text><line style="stroke:#181818;stroke-width:0.5;" x1="354.5" x2="493.5" y1="392" y2="392"/><line style="stroke:#181818;stroke-width:0.5;" x1="354.5" x2="493.5" y1="400" y2="400"/></g><!--class IAppServiceRobotType--><g id="elem_IAppServiceRobotType"><rect codeLine="53" fill="#F1F1F1" height="48" id="IAppServiceRobotType" rx="2.5" ry="2.5" style="stroke:#181818;stroke-width:0.5;" width="186" x="622" y="960.38"/><ellipse cx="637" cy="976.38" fill="#B4A7E5" rx="11" ry="11" style="stroke:#181818;stroke-width:1.0;"/><path d="M633.4277,972.6451 L633.4277,970.4869 L640.8071,970.4869 L640.8071,972.6451 L638.3418,972.6451 L638.3418,980.7218 L640.8071,980.7218 L640.8071,982.88 L633.4277,982.88 L633.4277,980.7218 L635.8931,980.7218 L635.8931,972.6451 Z " fill="#000000"/><text fill="#000000" font-family="sans-serif" font-size="14" font-style="italic" lengthAdjust="spacing" textLength="154" x="651" y="981.671">IAppServiceRobotType</text><line style="stroke:#181818;stroke-width:0.5;" x1="623" x2="807" y1="992.38" y2="992.38"/><line style="stroke:#181818;stroke-width:0.5;" x1="623" x2="807" y1="1000.38" y2="1000.38"/></g><!--class AppServiceRobotType--><g id="elem_AppServiceRobotType"><rect codeLine="57" fill="#F1F1F1" height="48" id="AppServiceRobotType" rx="2.5" ry="2.5" style="stroke:#181818;stroke-width:0.5;" width="182" x="624" y="740"/><ellipse cx="639" cy="756" fill="#ADD1B2" rx="11" ry="11" style="stroke:#181818;stroke-width:1.0;"/><path d="M641.4731,762.1431 Q640.8921,762.4419 640.2529,762.5913 Q639.6138,762.7407 638.9082,762.7407 Q636.4014,762.7407 635.0815,761.0889 Q633.7617,759.437 633.7617,756.3159 Q633.7617,753.1865 635.0815,751.5347 Q636.4014,749.8828 638.9082,749.8828 Q639.6138,749.8828 640.2612,750.0322 Q640.9087,750.1816 641.4731,750.4805 L641.4731,753.2031 Q640.8423,752.6221 640.2488,752.3523 Q639.6553,752.0825 639.0244,752.0825 Q637.6797,752.0825 636.9949,753.1492 Q636.3101,754.2158 636.3101,756.3159 Q636.3101,758.4077 636.9949,759.4744 Q637.6797,760.541 639.0244,760.541 Q639.6553,760.541 640.2488,760.2712 Q640.8423,760.0015 641.4731,759.4204 Z " fill="#000000"/><text fill="#000000" font-family="sans-serif" font-size="14" lengthAdjust="spacing" textLength="150" x="653" y="761.291">AppServiceRobotType</text><line style="stroke:#181818;stroke-width:0.5;" x1="625" x2="805" y1="772" y2="772"/><line style="stroke:#181818;stroke-width:0.5;" x1="625" x2="805" y1="780" y2="780"/></g><!--class IRepoRobotType--><g id="elem_IRepoRobotType"><rect codeLine="63" fill="#F1F1F1" height="48" id="IRepoRobotType" rx="2.5" ry="2.5" style="stroke:#181818;stroke-width:0.5;" width="145" x="632.5" y="569"/><ellipse cx="647.5" cy="585" fill="#B4A7E5" rx="11" ry="11" style="stroke:#181818;stroke-width:1.0;"/><path d="M643.9277,581.2651 L643.9277,579.1069 L651.3071,579.1069 L651.3071,581.2651 L648.8418,581.2651 L648.8418,589.3418 L651.3071,589.3418 L651.3071,591.5 L643.9277,591.5 L643.9277,589.3418 L646.3931,589.3418 L646.3931,581.2651 Z " fill="#000000"/><text fill="#000000" font-family="sans-serif" font-size="14" font-style="italic" lengthAdjust="spacing" textLength="113" x="661.5" y="590.291">IRepoRobotType</text><line style="stroke:#181818;stroke-width:0.5;" x1="633.5" x2="776.5" y1="601" y2="601"/><line style="stroke:#181818;stroke-width:0.5;" x1="633.5" x2="776.5" y1="609" y2="609"/></g><!--class RobotType--><g id="elem_RobotType"><rect codeLine="82" fill="#F1F1F1" height="70.7539" id="RobotType" rx="2.5" ry="2.5" style="stroke:#181818;stroke-width:0.5;" width="106" x="1072" y="949"/><ellipse cx="1087" cy="976.377" fill="#ADD1B2" rx="11" ry="11" style="stroke:#181818;stroke-width:1.0;"/><path d="M1090.6143,982.877 L1082.8945,982.877 L1082.8945,970.4839 L1090.6143,970.4839 L1090.6143,972.6421 L1085.3433,972.6421 L1085.3433,975.3149 L1090.1162,975.3149 L1090.1162,977.4731 L1085.3433,977.4731 L1085.3433,980.7188 L1090.6143,980.7188 Z " fill="#000000"/><text fill="#000000" font-family="sans-serif" font-size="12" font-style="italic" lengthAdjust="spacing" textLength="35" x="1120.5" y="965.6016">&#171;root&#187;</text><text fill="#000000" font-family="sans-serif" font-size="12" font-style="italic" lengthAdjust="spacing" textLength="43" x="1116.5" y="979.7344">&#171;entity&#187;</text><text fill="#000000" font-family="sans-serif" font-size="14" lengthAdjust="spacing" textLength="74" x="1101" y="995.8008">RobotType</text><line style="stroke:#181818;stroke-width:0.5;" x1="1073" x2="1177" y1="1003.7539" y2="1003.7539"/><line style="stroke:#181818;stroke-width:0.5;" x1="1073" x2="1177" y1="1011.7539" y2="1011.7539"/></g><!--class RobotTypeDescription--><g id="elem_RobotTypeDescription"><rect codeLine="90" fill="#F1F1F1" height="48" id="RobotTypeDescription" rx="2.5" ry="2.5" style="stroke:#181818;stroke-width:0.5;" width="184" x="1324" y="1174.38"/><ellipse cx="1339" cy="1190.38" fill="#ADD1B2" rx="11" ry="11" style="stroke:#181818;stroke-width:1.0;"/><path d="M1341.4731,1196.5231 Q1340.8921,1196.8219 1340.2529,1196.9713 Q1339.6138,1197.1207 1338.9082,1197.1207 Q1336.4014,1197.1207 1335.0815,1195.4689 Q1333.7617,1193.817 1333.7617,1190.6959 Q1333.7617,1187.5665 1335.0815,1185.9147 Q1336.4014,1184.2628 1338.9082,1184.2628 Q1339.6138,1184.2628 1340.2612,1184.4122 Q1340.9087,1184.5616 1341.4731,1184.8605 L1341.4731,1187.5831 Q1340.8423,1187.0021 1340.2488,1186.7323 Q1339.6553,1186.4625 1339.0244,1186.4625 Q1337.6797,1186.4625 1336.9949,1187.5292 Q1336.3101,1188.5958 1336.3101,1190.6959 Q1336.3101,1192.7877 1336.9949,1193.8544 Q1337.6797,1194.921 1339.0244,1194.921 Q1339.6553,1194.921 1340.2488,1194.6512 Q1340.8423,1194.3815 1341.4731,1193.8004 Z " fill="#000000"/><text fill="#000000" font-family="sans-serif" font-size="14" lengthAdjust="spacing" textLength="152" x="1353" y="1195.671">RobotTypeDescription</text><line style="stroke:#181818;stroke-width:0.5;" x1="1325" x2="1507" y1="1206.38" y2="1206.38"/><line style="stroke:#181818;stroke-width:0.5;" x1="1325" x2="1507" y1="1214.38" y2="1214.38"/></g><!--class RobotTypeBrand--><g id="elem_RobotTypeBrand"><rect codeLine="91" fill="#F1F1F1" height="48" id="RobotTypeBrand" rx="2.5" ry="2.5" style="stroke:#181818;stroke-width:0.5;" width="146" x="1143" y="1174.38"/><ellipse cx="1158" cy="1190.38" fill="#ADD1B2" rx="11" ry="11" style="stroke:#181818;stroke-width:1.0;"/><path d="M1160.4731,1196.5231 Q1159.8921,1196.8219 1159.2529,1196.9713 Q1158.6138,1197.1207 1157.9082,1197.1207 Q1155.4014,1197.1207 1154.0815,1195.4689 Q1152.7617,1193.817 1152.7617,1190.6959 Q1152.7617,1187.5665 1154.0815,1185.9147 Q1155.4014,1184.2628 1157.9082,1184.2628 Q1158.6138,1184.2628 1159.2612,1184.4122 Q1159.9087,1184.5616 1160.4731,1184.8605 L1160.4731,1187.5831 Q1159.8423,1187.0021 1159.2488,1186.7323 Q1158.6553,1186.4625 1158.0244,1186.4625 Q1156.6797,1186.4625 1155.9949,1187.5292 Q1155.3101,1188.5958 1155.3101,1190.6959 Q1155.3101,1192.7877 1155.9949,1193.8544 Q1156.6797,1194.921 1158.0244,1194.921 Q1158.6553,1194.921 1159.2488,1194.6512 Q1159.8423,1194.3815 1160.4731,1193.8004 Z " fill="#000000"/><text fill="#000000" font-family="sans-serif" font-size="14" lengthAdjust="spacing" textLength="114" x="1172" y="1195.671">RobotTypeBrand</text><line style="stroke:#181818;stroke-width:0.5;" x1="1144" x2="1288" y1="1206.38" y2="1206.38"/><line style="stroke:#181818;stroke-width:0.5;" x1="1144" x2="1288" y1="1214.38" y2="1214.38"/></g><!--class RobotTypeModel--><g id="elem_RobotTypeModel"><rect codeLine="92" fill="#F1F1F1" height="48" id="RobotTypeModel" rx="2.5" ry="2.5" style="stroke:#181818;stroke-width:0.5;" width="148" x="960" y="1174.38"/><ellipse cx="975" cy="1190.38" fill="#ADD1B2" rx="11" ry="11" style="stroke:#181818;stroke-width:1.0;"/><path d="M977.4731,1196.5231 Q976.8921,1196.8219 976.2529,1196.9713 Q975.6138,1197.1207 974.9082,1197.1207 Q972.4014,1197.1207 971.0815,1195.4689 Q969.7617,1193.817 969.7617,1190.6959 Q969.7617,1187.5665 971.0815,1185.9147 Q972.4014,1184.2628 974.9082,1184.2628 Q975.6138,1184.2628 976.2612,1184.4122 Q976.9087,1184.5616 977.4731,1184.8605 L977.4731,1187.5831 Q976.8423,1187.0021 976.2488,1186.7323 Q975.6553,1186.4625 975.0244,1186.4625 Q973.6797,1186.4625 972.9949,1187.5292 Q972.3101,1188.5958 972.3101,1190.6959 Q972.3101,1192.7877 972.9949,1193.8544 Q973.6797,1194.921 975.0244,1194.921 Q975.6553,1194.921 976.2488,1194.6512 Q976.8423,1194.3815 977.4731,1193.8004 Z " fill="#000000"/><text fill="#000000" font-family="sans-serif" font-size="14" lengthAdjust="spacing" textLength="116" x="989" y="1195.671">RobotTypeModel</text><line style="stroke:#181818;stroke-width:0.5;" x1="961" x2="1107" y1="1206.38" y2="1206.38"/><line style="stroke:#181818;stroke-width:0.5;" x1="961" x2="1107" y1="1214.38" y2="1214.38"/></g><!--link DBDriver to IDBDriver--><g id="link_DBDriver_IDBDriver"><path codeLine="24" d="M437,151 C448.42,151 441.85,151 453.27,151 " fill="none" id="DBDriver-to-IDBDriver" style="stroke:#FF6655;stroke-width:1.0;"/><polygon fill="none" points="471.27,151,453.27,145,453.27,157,471.27,151" style="stroke:#FF6655;stroke-width:1.0;"/></g><!--reverse link IControllerRobotType to ControllerRobotType--><g id="link_IControllerRobotType_ControllerRobotType"><path codeLine="36" d="M184.2003,426.3498 C184.4003,466.2098 184.7,528.94 184.89,568.75 " fill="none" id="IControllerRobotType-backto-ControllerRobotType" style="stroke:#FF6655;stroke-width:1.0;"/><polygon fill="none" points="184.11,408.35,178.2004,426.3799,190.2002,426.3197,184.11,408.35" style="stroke:#FF6655;stroke-width:1.0;"/></g><!--reverse link DBDriver to RepoRobotType--><g id="link_DBDriver_RepoRobotType"><path codeLine="44" d="M395.1978,181.3598 C401.5178,225.6398 414.31,315.2 420.65,359.52 " fill="none" id="DBDriver-backto-RepoRobotType" style="stroke:#FF6655;stroke-width:1.0;stroke-dasharray:7.0,7.0;"/><polygon fill="#FF6655" points="394.35,175.42,391.6618,184.8949,395.0565,180.3698,399.5815,183.7645,394.35,175.42" style="stroke:#FF6655;stroke-width:1.0;"/></g><!--link RouteRobotType to IControllerRobotType--><g id="link_RouteRobotType_IControllerRobotType"><path codeLine="47" d="M212.76,175.42 C206.62,219.7 194.2134,309.2568 188.0734,353.5768 " fill="none" id="RouteRobotType-to-IControllerRobotType" style="stroke:#FF6655;stroke-width:1.0;stroke-dasharray:7.0,7.0;"/><polygon fill="#FF6655" points="187.25,359.52,192.4472,351.1541,187.9361,354.5673,184.5229,350.0562,187.25,359.52" style="stroke:#FF6655;stroke-width:1.0;"/></g><!--link AppServiceRobotType to IAppServiceRobotType--><g id="link_AppServiceRobotType_IAppServiceRobotType"><path codeLine="60" d="M715,788.37 C715,830.4 715,900.27 715,942.18 " fill="none" id="AppServiceRobotType-to-IAppServiceRobotType" style="stroke:#FF6655;stroke-width:1.0;"/><polygon fill="none" points="715,960.18,721,942.18,709,942.18,715,960.18" style="stroke:#FF6655;stroke-width:1.0;"/></g><!--link RepoRobotType to IRepoRobotType--><g id="link_RepoRobotType_IRepoRobotType"><path codeLine="67" d="M455.69,408.35 C509.8,448.21 604.9088,518.2627 658.9388,558.0727 " fill="none" id="RepoRobotType-to-IRepoRobotType" style="stroke:#FF6655;stroke-width:1.0;"/><polygon fill="none" points="673.43,568.75,662.4979,553.2423,655.3797,562.9031,673.43,568.75" style="stroke:#FF6655;stroke-width:1.0;"/></g><!--link ControllerRobotType to IAppServiceRobotType--><g id="link_ControllerRobotType_IAppServiceRobotType"><path codeLine="71" d="M216.96,617.48 C311.52,686.95 584.3248,887.3774 678.4948,956.5674 " fill="none" id="ControllerRobotType-to-IAppServiceRobotType" style="stroke:#FF6655;stroke-width:1.0;stroke-dasharray:7.0,7.0;"/><polygon fill="#FF6655" points="683.33,960.12,678.4456,951.5677,679.3007,957.1595,673.7088,958.0146,683.33,960.12" style="stroke:#FF6655;stroke-width:1.0;"/></g><!--reverse link IRepoRobotType to AppServiceRobotType--><g id="link_IRepoRobotType_AppServiceRobotType"><path codeLine="73" d="M706.7443,623.4895 C708.6543,655.7795 711.72,707.52 713.62,739.7 " fill="none" id="IRepoRobotType-backto-AppServiceRobotType" style="stroke:#FF6655;stroke-width:1.0;stroke-dasharray:7.0,7.0;"/><polygon fill="#FF6655" points="706.39,617.5,702.9284,626.7205,706.6852,622.4913,710.9145,626.2481,706.39,617.5" style="stroke:#FF6655;stroke-width:1.0;"/></g><!--link RobotType to RobotTypeDescription--><g id="link_RobotType_RobotTypeDescription"><path codeLine="96" d="M1178.32,1010.71 C1215.9,1029.69 1266.54,1057.61 1307,1088.38 C1341.3,1114.46 1371.5944,1146.3561 1392.3044,1169.7661 " fill="none" id="RobotType-to-RobotTypeDescription" style="stroke:#FF6655;stroke-width:1.0;"/><polygon fill="#FF6655" points="1396.28,1174.26,1393.3126,1164.8688,1392.967,1170.5151,1387.3207,1170.1696,1396.28,1174.26" style="stroke:#FF6655;stroke-width:1.0;"/><text fill="#000000" font-family="Impact" font-size="13" lengthAdjust="spacing" textLength="5" x="1186.1697" y="1011.5329">1</text><text fill="#000000" font-family="Impact" font-size="13" lengthAdjust="spacing" textLength="5" x="1385.0306" y="1163.6016">1</text></g><!--link RobotType to RobotTypeBrand--><g id="link_RobotType_RobotTypeBrand"><path codeLine="97" d="M1139.82,1019.91 C1158.46,1063.33 1187.5736,1131.1564 1203.6036,1168.5064 " fill="none" id="RobotType-to-RobotTypeBrand" style="stroke:#FF6655;stroke-width:1.0;"/><polygon fill="#FF6655" points="1205.97,1174.02,1206.0962,1164.172,1203.998,1169.4253,1198.7447,1167.3271,1205.97,1174.02" style="stroke:#FF6655;stroke-width:1.0;"/><text fill="#000000" font-family="Impact" font-size="13" lengthAdjust="spacing" textLength="5" x="1137.0145" y="1040.7658">1</text><text fill="#000000" font-family="Impact" font-size="13" lengthAdjust="spacing" textLength="5" x="1197.6026" y="1163.687">1</text></g><!--link RobotType to RobotTypeModel--><g id="link_RobotType_RobotTypeModel"><path codeLine="98" d="M1110.18,1019.91 C1091.54,1063.33 1062.4264,1131.1564 1046.3964,1168.5064 " fill="none" id="RobotType-to-RobotTypeModel" style="stroke:#FF6655;stroke-width:1.0;"/><polygon fill="#FF6655" points="1044.03,1174.02,1051.2553,1167.3271,1046.002,1169.4253,1043.9038,1164.172,1044.03,1174.02" style="stroke:#FF6655;stroke-width:1.0;"/><text fill="#000000" font-family="Impact" font-size="13" lengthAdjust="spacing" textLength="5" x="1102.0949" y="1040.7658">1</text><text fill="#000000" font-family="Impact" font-size="13" lengthAdjust="spacing" textLength="5" x="1041.0537" y="1163.687">1</text></g><!--link AppServiceRobotType to RobotType--><g id="link_AppServiceRobotType_RobotType"><path codeLine="100" d="M762.1,788.38 C781.36,798.04 803.81,809.43 824,820 C911.31,865.71 1006.4872,917.8203 1066.4472,950.9203 " fill="none" id="AppServiceRobotType-to-RobotType" style="stroke:#FF6655;stroke-width:1.0;stroke-dasharray:7.0,7.0;"/><polygon fill="#FF6655" points="1071.7,953.82,1065.754,945.9686,1067.3227,951.4036,1061.8877,952.9723,1071.7,953.82" style="stroke:#FF6655;stroke-width:1.0;"/></g><!--SRC=[bLNBRjim4BpxAmZta9CTv12V105-r420lX0NlHOqjL5OIrnYIRbms_nxQJqiYwOaH1TRsk7ExEwGD0UfD2UUCu6vHWNAihyJvfujAhkJVu0zBCht5HU7bB1GoHepf2XQQYvU8OxP9vc-sZKIpoeWKWBaWpvijul5u-CbzHUU0rjZGHB8NyRscICBiR8DWDuTJgkiW3A-9CBVbtnFkQEpRQ1Qqr2_JIOkVE0fC7Co5lAwqkRZz4cz43UM2c4BWcaTxa2-0HdfrYhHYPyVgIpG2nTEncQr8Nci2siUaN5Zs4t8gRfXUSR2Wl49gWHbx1dtQB-VD8JID1HiHkV9pFx5dg8QUrLtetoPSEt-cs3jQzTcmYppujrK0o2lIItojXgleYv5hhCHbgfJumJNRm4qcnMwxDvGfk3yGAEH5fsv-wRe46skKB8EWiqBFOzRyrp1EdPWy_c0N7_kIwqpARYLgDWEw2W5X2VlW450TouErGVoHjyYtp_w4PQglUya2C3Ph9nyA56Fjg6XU_NtJ3-WhEk2IjEuTq9UBfqnM4we2vNlGfI-cJugAwqh_TxT172_mPnB5JPJcXAal3xWUhfv8PioRXZ_kIzabaYL1leAP-8JQpL74I5QT-T4KHMBuvvzxse8xDuVtDqkxEl-5mZRR_UkmYCEIMnExdh51emWgS_xRWow8gwICT1dJ23hBx4zAfeEJH-cpajn-JkeQcH9Lzq8k58vx3RdjO0nxovD3-tykxVQZs-J_m00]--></g></svg>