<?xml version="1.0" encoding="us-ascii" standalone="no"?><svg xmlns="http://www.w3.org/2000/svg" xmlns:xlink="http://www.w3.org/1999/xlink" contentStyleType="text/css" height="997px" preserveAspectRatio="none" style="width:1078px;height:997px;background:#FFFFFF;" version="1.1" viewBox="0 0 1078 997" width="1078px" zoomAndPan="magnify"><defs/><g><rect fill="#FFFFFF" height="777.6846" style="stroke:#181818;stroke-width:1.0;" width="10" x="226" y="109.4541"/><rect fill="#FFFFFF" height="595.5664" style="stroke:#181818;stroke-width:1.0;" width="10" x="351" y="262.2617"/><rect fill="#FFFFFF" height="536.9453" style="stroke:#181818;stroke-width:1.0;" width="10" x="476" y="291.5723"/><rect fill="#FFFFFF" height="87.2871" style="stroke:#181818;stroke-width:1.0;" width="10" x="672" y="711.9199"/><rect fill="#FFFFFF" height="87.9316" style="stroke:#181818;stroke-width:1.0;" width="10" x="900.5" y="320.8828"/><rect fill="#FFFFFF" height="59.3105" style="stroke:#181818;stroke-width:1.0;" width="10" x="900.5" y="623.2988"/><rect fill="#FFFFFF" height="29.3105" style="stroke:#181818;stroke-width:1.0;" width="10" x="1011.5" y="350.1934"/><rect fill="#FFFFFF" height="30" style="stroke:#181818;stroke-width:1.0;" width="10" x="1011.5" y="652.6094"/><rect fill="none" height="767.0293" style="stroke:#000000;stroke-width:1.5;" width="1068" x="3" y="135.1094"/><rect fill="none" height="413.3477" style="stroke:#000000;stroke-width:1.5;" width="1058" x="3" y="481.791"/><line style="stroke:#181818;stroke-width:0.5;stroke-dasharray:5.0,5.0;" x1="231" x2="231" y1="67.4883" y2="919.1387"/><line style="stroke:#181818;stroke-width:0.5;stroke-dasharray:5.0,5.0;" x1="356" x2="356" y1="67.4883" y2="919.1387"/><line style="stroke:#181818;stroke-width:0.5;stroke-dasharray:5.0,5.0;" x1="481" x2="481" y1="67.4883" y2="919.1387"/><line style="stroke:#181818;stroke-width:0.5;stroke-dasharray:5.0,5.0;" x1="606" x2="606" y1="455.8027" y2="919.1387"/><line style="stroke:#181818;stroke-width:0.5;stroke-dasharray:5.0,5.0;" x1="677" x2="677" y1="67.4883" y2="919.1387"/><line style="stroke:#181818;stroke-width:0.5;stroke-dasharray:5.0,5.0;" x1="830" x2="830" y1="758.9082" y2="919.1387"/><line style="stroke:#181818;stroke-width:0.5;stroke-dasharray:5.0,5.0;" x1="905" x2="905" y1="67.4883" y2="919.1387"/><line style="stroke:#181818;stroke-width:0.5;stroke-dasharray:5.0,5.0;" x1="1016" x2="1016" y1="67.4883" y2="919.1387"/><rect fill="#E2E2F0" height="30.4883" rx="2.5" ry="2.5" style="stroke:#181818;stroke-width:0.5;" width="54" x="204" y="36"/><text fill="#000000" font-family="sans-serif" font-size="14" lengthAdjust="spacing" textLength="40" x="211" y="56.5352">Route</text><rect fill="#E2E2F0" height="30.4883" rx="2.5" ry="2.5" style="stroke:#181818;stroke-width:0.5;" width="54" x="204" y="918.1387"/><text fill="#000000" font-family="sans-serif" font-size="14" lengthAdjust="spacing" textLength="40" x="211" y="938.6738">Route</text><rect fill="#E2E2F0" height="30.4883" rx="2.5" ry="2.5" style="stroke:#181818;stroke-width:0.5;" width="84" x="314" y="36"/><text fill="#000000" font-family="sans-serif" font-size="14" lengthAdjust="spacing" textLength="70" x="321" y="56.5352">Controller</text><rect fill="#E2E2F0" height="30.4883" rx="2.5" ry="2.5" style="stroke:#181818;stroke-width:0.5;" width="84" x="314" y="918.1387"/><text fill="#000000" font-family="sans-serif" font-size="14" lengthAdjust="spacing" textLength="70" x="321" y="938.6738">Controller</text><rect fill="#E2E2F0" height="30.4883" rx="2.5" ry="2.5" style="stroke:#181818;stroke-width:0.5;" width="62" x="450" y="36"/><text fill="#000000" font-family="sans-serif" font-size="14" lengthAdjust="spacing" textLength="48" x="457" y="56.5352">Service</text><rect fill="#E2E2F0" height="30.4883" rx="2.5" ry="2.5" style="stroke:#181818;stroke-width:0.5;" width="62" x="450" y="918.1387"/><text fill="#000000" font-family="sans-serif" font-size="14" lengthAdjust="spacing" textLength="48" x="457" y="938.6738">Service</text><rect fill="#E2E2F0" height="46.9766" rx="2.5" ry="2.5" style="stroke:#181818;stroke-width:0.5;" width="56" x="578" y="918.1387"/><text fill="#000000" font-family="sans-serif" font-size="14" lengthAdjust="spacing" textLength="42" x="585" y="938.6738">robot:</text><text fill="#000000" font-family="sans-serif" font-size="14" lengthAdjust="spacing" textLength="41" x="585.5" y="955.1621">Robot</text><rect fill="#E2E2F0" height="30.4883" rx="2.5" ry="2.5" style="stroke:#181818;stroke-width:0.5;" width="66" x="644" y="36"/><text fill="#000000" font-family="sans-serif" font-size="14" lengthAdjust="spacing" textLength="52" x="651" y="56.5352">Mapper</text><rect fill="#E2E2F0" height="30.4883" rx="2.5" ry="2.5" style="stroke:#181818;stroke-width:0.5;" width="66" x="644" y="918.1387"/><text fill="#000000" font-family="sans-serif" font-size="14" lengthAdjust="spacing" textLength="52" x="651" y="938.6738">Mapper</text><rect fill="#E2E2F0" height="46.9766" rx="2.5" ry="2.5" style="stroke:#181818;stroke-width:0.5;" width="44" x="808" y="918.1387"/><text fill="#000000" font-family="sans-serif" font-size="14" lengthAdjust="spacing" textLength="27" x="816.5" y="938.6738">dto:</text><text fill="#000000" font-family="sans-serif" font-size="14" lengthAdjust="spacing" textLength="30" x="815" y="955.1621">DTO</text><rect fill="#E2E2F0" height="30.4883" rx="2.5" ry="2.5" style="stroke:#181818;stroke-width:0.5;" width="87" x="862" y="36"/><text fill="#000000" font-family="sans-serif" font-size="14" lengthAdjust="spacing" textLength="73" x="869" y="56.5352">Repository</text><rect fill="#E2E2F0" height="30.4883" rx="2.5" ry="2.5" style="stroke:#181818;stroke-width:0.5;" width="87" x="862" y="918.1387"/><text fill="#000000" font-family="sans-serif" font-size="14" lengthAdjust="spacing" textLength="73" x="869" y="938.6738">Repository</text><text fill="#000000" font-family="sans-serif" font-size="14" lengthAdjust="spacing" textLength="63" x="982" y="64.5352">Database</text><path d="M998.5,15 C998.5,5 1016.5,5 1016.5,5 C1016.5,5 1034.5,5 1034.5,15 L1034.5,41 C1034.5,51 1016.5,51 1016.5,51 C1016.5,51 998.5,51 998.5,41 L998.5,15 " fill="#E2E2F0" style="stroke:#181818;stroke-width:1.5;"/><path d="M998.5,15 C998.5,25 1016.5,25 1016.5,25 C1016.5,25 1034.5,25 1034.5,15 " fill="none" style="stroke:#181818;stroke-width:1.5;"/><text fill="#000000" font-family="sans-serif" font-size="14" lengthAdjust="spacing" textLength="63" x="982" y="931.6738">Database</text><path d="M998.5,944.627 C998.5,934.627 1016.5,934.627 1016.5,934.627 C1016.5,934.627 1034.5,934.627 1034.5,944.627 L1034.5,970.627 C1034.5,980.627 1016.5,980.627 1016.5,980.627 C1016.5,980.627 998.5,980.627 998.5,970.627 L998.5,944.627 " fill="#E2E2F0" style="stroke:#181818;stroke-width:1.5;"/><path d="M998.5,944.627 C998.5,954.627 1016.5,954.627 1016.5,954.627 C1016.5,954.627 1034.5,954.627 1034.5,944.627 " fill="none" style="stroke:#181818;stroke-width:1.5;"/><rect fill="#FFFFFF" height="777.6846" style="stroke:#181818;stroke-width:1.0;" width="10" x="226" y="109.4541"/><rect fill="#FFFFFF" height="595.5664" style="stroke:#181818;stroke-width:1.0;" width="10" x="351" y="262.2617"/><rect fill="#FFFFFF" height="536.9453" style="stroke:#181818;stroke-width:1.0;" width="10" x="476" y="291.5723"/><rect fill="#FFFFFF" height="87.2871" style="stroke:#181818;stroke-width:1.0;" width="10" x="672" y="711.9199"/><rect fill="#FFFFFF" height="87.9316" style="stroke:#181818;stroke-width:1.0;" width="10" x="900.5" y="320.8828"/><rect fill="#FFFFFF" height="59.3105" style="stroke:#181818;stroke-width:1.0;" width="10" x="900.5" y="623.2988"/><rect fill="#FFFFFF" height="29.3105" style="stroke:#181818;stroke-width:1.0;" width="10" x="1011.5" y="350.1934"/><rect fill="#FFFFFF" height="30" style="stroke:#181818;stroke-width:1.0;" width="10" x="1011.5" y="652.6094"/><polygon fill="#181818" points="214,105.4541,224,109.4541,214,113.4541,218,109.4541" style="stroke:#181818;stroke-width:1.0;"/><line style="stroke:#181818;stroke-width:1.0;stroke-dasharray:2.0,2.0;" x1="0" x2="220" y1="109.4541" y2="109.4541"/><text fill="#000000" font-family="sans-serif" font-size="13" font-weight="bold" lengthAdjust="spacing" textLength="9" x="7" y="104.7119">1</text><text fill="#000000" font-family="sans-serif" font-size="13" lengthAdjust="spacing" textLength="84" x="20" y="104.7119">POST /robots</text><path d="M241,82.4883 L241,122.4883 L371,122.4883 L371,92.4883 L361,82.4883 L241,82.4883 " fill="#FEFFDD" style="stroke:#181818;stroke-width:0.5;"/><path d="M361,82.4883 L361,92.4883 L371,92.4883 L361,82.4883 " fill="#FEFFDD" style="stroke:#181818;stroke-width:0.5;"/><text fill="#000000" font-family="sans-serif" font-size="13" lengthAdjust="spacing" textLength="105" x="247" y="100.0566">verify if user is a</text><text fill="#000000" font-family="sans-serif" font-size="13" lengthAdjust="spacing" textLength="86" x="247" y="115.3672">fleet manager</text><path d="M3,135.1094 L65,135.1094 L65,142.4199 L55,152.4199 L3,152.4199 L3,135.1094 " fill="#EEEEEE" style="stroke:#000000;stroke-width:1.5;"/><rect fill="none" height="767.0293" style="stroke:#000000;stroke-width:1.5;" width="1068" x="3" y="135.1094"/><text fill="#000000" font-family="sans-serif" font-size="13" font-weight="bold" lengthAdjust="spacing" textLength="17" x="18" y="148.6777">alt</text><text fill="#000000" font-family="sans-serif" font-size="11" font-weight="bold" lengthAdjust="spacing" textLength="80" x="80" y="147.7441">[unkown user]</text><polygon fill="#181818" points="11,169.7305,1,173.7305,11,177.7305,7,173.7305" style="stroke:#181818;stroke-width:1.0;"/><line style="stroke:#181818;stroke-width:1.0;stroke-dasharray:2.0,2.0;" x1="5" x2="225" y1="173.7305" y2="173.7305"/><text fill="#000000" font-family="sans-serif" font-size="13" font-weight="bold" lengthAdjust="spacing" textLength="9" x="17" y="168.9883">2</text><text fill="#000000" font-family="sans-serif" font-size="13" lengthAdjust="spacing" textLength="116" x="30" y="168.9883">401: Unauthorized</text><line style="stroke:#000000;stroke-width:1.0;stroke-dasharray:2.0,2.0;" x1="3" x2="1071" y1="182.7305" y2="182.7305"/><text fill="#000000" font-family="sans-serif" font-size="11" font-weight="bold" lengthAdjust="spacing" textLength="117" x="8" y="193.3652">[user not authorized]</text><polygon fill="#181818" points="11,213.9961,1,217.9961,11,221.9961,7,217.9961" style="stroke:#181818;stroke-width:1.0;"/><line style="stroke:#181818;stroke-width:1.0;stroke-dasharray:2.0,2.0;" x1="5" x2="225" y1="217.9961" y2="217.9961"/><text fill="#000000" font-family="sans-serif" font-size="13" font-weight="bold" lengthAdjust="spacing" textLength="9" x="17" y="213.2539">3</text><text fill="#000000" font-family="sans-serif" font-size="13" lengthAdjust="spacing" textLength="95" x="30" y="213.2539">403: Forbidden</text><line style="stroke:#000000;stroke-width:1.0;stroke-dasharray:2.0,2.0;" x1="3" x2="1071" y1="226.9961" y2="226.9961"/><text fill="#000000" font-family="sans-serif" font-size="11" font-weight="bold" lengthAdjust="spacing" textLength="95" x="8" y="237.6309">[user authorized]</text><polygon fill="#181818" points="339,258.2617,349,262.2617,339,266.2617,343,262.2617" style="stroke:#181818;stroke-width:1.0;"/><line style="stroke:#181818;stroke-width:1.0;" x1="236" x2="345" y1="262.2617" y2="262.2617"/><text fill="#000000" font-family="sans-serif" font-size="13" font-weight="bold" lengthAdjust="spacing" textLength="9" x="243" y="257.5195">4</text><text fill="#000000" font-family="sans-serif" font-size="13" lengthAdjust="spacing" textLength="83" x="256" y="257.5195">createRobot()</text><polygon fill="#181818" points="464,287.5723,474,291.5723,464,295.5723,468,291.5723" style="stroke:#181818;stroke-width:1.0;"/><line style="stroke:#181818;stroke-width:1.0;" x1="361" x2="470" y1="291.5723" y2="291.5723"/><text fill="#000000" font-family="sans-serif" font-size="13" font-weight="bold" lengthAdjust="spacing" textLength="9" x="368" y="286.8301">5</text><text fill="#000000" font-family="sans-serif" font-size="13" lengthAdjust="spacing" textLength="83" x="381" y="286.8301">createRobot()</text><polygon fill="#181818" points="888.5,316.8828,898.5,320.8828,888.5,324.8828,892.5,320.8828" style="stroke:#181818;stroke-width:1.0;"/><line style="stroke:#181818;stroke-width:1.0;" x1="486" x2="894.5" y1="320.8828" y2="320.8828"/><text fill="#000000" font-family="sans-serif" font-size="13" font-weight="bold" lengthAdjust="spacing" textLength="9" x="493" y="316.1406">6</text><text fill="#000000" font-family="sans-serif" font-size="13" lengthAdjust="spacing" textLength="196" x="506" y="316.1406">findRobotType(robotTypeCode)</text><polygon fill="#181818" points="999.5,346.1934,1009.5,350.1934,999.5,354.1934,1003.5,350.1934" style="stroke:#181818;stroke-width:1.0;"/><line style="stroke:#181818;stroke-width:1.0;" x1="910.5" x2="1005.5" y1="350.1934" y2="350.1934"/><text fill="#000000" font-family="sans-serif" font-size="13" font-weight="bold" lengthAdjust="spacing" textLength="9" x="917.5" y="345.4512">7</text><text fill="#000000" font-family="sans-serif" font-size="13" lengthAdjust="spacing" textLength="33" x="930.5" y="345.4512">find()</text><polygon fill="#181818" points="921.5,375.5039,911.5,379.5039,921.5,383.5039,917.5,379.5039" style="stroke:#181818;stroke-width:1.0;"/><line style="stroke:#181818;stroke-width:1.0;stroke-dasharray:2.0,2.0;" x1="915.5" x2="1015.5" y1="379.5039" y2="379.5039"/><text fill="#000000" font-family="sans-serif" font-size="13" font-weight="bold" lengthAdjust="spacing" textLength="9" x="927.5" y="374.7617">8</text><text fill="#000000" font-family="sans-serif" font-size="13" lengthAdjust="spacing" textLength="64" x="940.5" y="374.7617">robotType</text><polygon fill="#181818" points="497,404.8145,487,408.8145,497,412.8145,493,408.8145" style="stroke:#181818;stroke-width:1.0;"/><line style="stroke:#181818;stroke-width:1.0;stroke-dasharray:2.0,2.0;" x1="491" x2="904.5" y1="408.8145" y2="408.8145"/><text fill="#000000" font-family="sans-serif" font-size="13" font-weight="bold" lengthAdjust="spacing" textLength="9" x="503" y="404.0723">9</text><text fill="#000000" font-family="sans-serif" font-size="13" lengthAdjust="spacing" textLength="64" x="516" y="404.0723">robotType</text><polygon fill="#181818" points="566,434.125,576,438.125,566,442.125,570,438.125" style="stroke:#181818;stroke-width:1.0;"/><line style="stroke:#181818;stroke-width:1.0;stroke-dasharray:2.0,2.0;" x1="486" x2="572" y1="438.125" y2="438.125"/><text fill="#000000" font-family="sans-serif" font-size="13" font-weight="bold" lengthAdjust="spacing" textLength="18" x="493" y="433.3828">10</text><text fill="#000000" font-family="sans-serif" font-size="13" lengthAdjust="spacing" textLength="46" x="515" y="433.3828">create()</text><rect fill="#E2E2F0" height="46.9766" rx="2.5" ry="2.5" style="stroke:#181818;stroke-width:0.5;" width="56" x="578" y="416.8145"/><text fill="#000000" font-family="sans-serif" font-size="14" lengthAdjust="spacing" textLength="42" x="585" y="437.3496">robot:</text><text fill="#000000" font-family="sans-serif" font-size="14" lengthAdjust="spacing" textLength="41" x="585.5" y="453.8379">Robot</text><path d="M3,481.791 L65,481.791 L65,489.1016 L55,499.1016 L3,499.1016 L3,481.791 " fill="#EEEEEE" style="stroke:#000000;stroke-width:1.5;"/><rect fill="none" height="413.3477" style="stroke:#000000;stroke-width:1.5;" width="1058" x="3" y="481.791"/><text fill="#000000" font-family="sans-serif" font-size="13" font-weight="bold" lengthAdjust="spacing" textLength="17" x="18" y="495.3594">alt</text><text fill="#000000" font-family="sans-serif" font-size="11" font-weight="bold" lengthAdjust="spacing" textLength="108" x="80" y="494.4258">[robot  not created]</text><polygon fill="#181818" points="372,516.4121,362,520.4121,372,524.4121,368,520.4121" style="stroke:#181818;stroke-width:1.0;"/><line style="stroke:#181818;stroke-width:1.0;stroke-dasharray:2.0,2.0;" x1="366" x2="475" y1="520.4121" y2="520.4121"/><text fill="#000000" font-family="sans-serif" font-size="13" font-weight="bold" lengthAdjust="spacing" textLength="18" x="378" y="515.6699">11</text><text fill="#000000" font-family="sans-serif" font-size="13" lengthAdjust="spacing" textLength="30" x="400" y="515.6699">error</text><polygon fill="#181818" points="247,545.7227,237,549.7227,247,553.7227,243,549.7227" style="stroke:#181818;stroke-width:1.0;"/><line style="stroke:#181818;stroke-width:1.0;stroke-dasharray:2.0,2.0;" x1="241" x2="350" y1="549.7227" y2="549.7227"/><text fill="#000000" font-family="sans-serif" font-size="13" font-weight="bold" lengthAdjust="spacing" textLength="18" x="253" y="544.9805">12</text><text fill="#000000" font-family="sans-serif" font-size="13" lengthAdjust="spacing" textLength="66" x="275" y="544.9805">error (422)</text><polygon fill="#181818" points="11,575.0332,1,579.0332,11,583.0332,7,579.0332" style="stroke:#181818;stroke-width:1.0;"/><line style="stroke:#181818;stroke-width:1.0;stroke-dasharray:2.0,2.0;" x1="5" x2="225" y1="579.0332" y2="579.0332"/><text fill="#000000" font-family="sans-serif" font-size="13" font-weight="bold" lengthAdjust="spacing" textLength="18" x="17" y="574.291">13</text><text fill="#000000" font-family="sans-serif" font-size="13" lengthAdjust="spacing" textLength="178" x="39" y="574.291">422: Unprocessable Content</text><line style="stroke:#000000;stroke-width:1.0;stroke-dasharray:2.0,2.0;" x1="3" x2="1061" y1="588.0332" y2="588.0332"/><text fill="#000000" font-family="sans-serif" font-size="11" font-weight="bold" lengthAdjust="spacing" textLength="159" x="8" y="598.668">[robot  created successfully]</text><polygon fill="#181818" points="888.5,619.2988,898.5,623.2988,888.5,627.2988,892.5,623.2988" style="stroke:#181818;stroke-width:1.0;"/><line style="stroke:#181818;stroke-width:1.0;" x1="486" x2="894.5" y1="623.2988" y2="623.2988"/><text fill="#000000" font-family="sans-serif" font-size="13" font-weight="bold" lengthAdjust="spacing" textLength="18" x="493" y="618.5566">14</text><text fill="#000000" font-family="sans-serif" font-size="13" lengthAdjust="spacing" textLength="70" x="515" y="618.5566">save(robot)</text><polygon fill="#181818" points="999.5,648.6094,1009.5,652.6094,999.5,656.6094,1003.5,652.6094" style="stroke:#181818;stroke-width:1.0;"/><line style="stroke:#181818;stroke-width:1.0;" x1="910.5" x2="1005.5" y1="652.6094" y2="652.6094"/><text fill="#000000" font-family="sans-serif" font-size="13" font-weight="bold" lengthAdjust="spacing" textLength="18" x="917.5" y="647.8672">15</text><text fill="#000000" font-family="sans-serif" font-size="13" lengthAdjust="spacing" textLength="36" x="939.5" y="647.8672">save()</text><polygon fill="#181818" points="660,707.9199,670,711.9199,660,715.9199,664,711.9199" style="stroke:#181818;stroke-width:1.0;"/><line style="stroke:#181818;stroke-width:1.0;" x1="486" x2="666" y1="711.9199" y2="711.9199"/><text fill="#000000" font-family="sans-serif" font-size="13" font-weight="bold" lengthAdjust="spacing" textLength="18" x="493" y="707.1777">16</text><text fill="#000000" font-family="sans-serif" font-size="13" lengthAdjust="spacing" textLength="83" x="515" y="707.1777">toDTO(robot)</text><polygon fill="#181818" points="796,737.2305,806,741.2305,796,745.2305,800,741.2305" style="stroke:#181818;stroke-width:1.0;"/><line style="stroke:#181818;stroke-width:1.0;stroke-dasharray:2.0,2.0;" x1="682" x2="802" y1="741.2305" y2="741.2305"/><text fill="#000000" font-family="sans-serif" font-size="13" font-weight="bold" lengthAdjust="spacing" textLength="18" x="689" y="736.4883">17</text><text fill="#000000" font-family="sans-serif" font-size="13" lengthAdjust="spacing" textLength="80" x="711" y="736.4883">create(robot)</text><rect fill="#E2E2F0" height="46.9766" rx="2.5" ry="2.5" style="stroke:#181818;stroke-width:0.5;" width="44" x="808" y="719.9199"/><text fill="#000000" font-family="sans-serif" font-size="14" lengthAdjust="spacing" textLength="27" x="816.5" y="740.4551">dto:</text><text fill="#000000" font-family="sans-serif" font-size="14" lengthAdjust="spacing" textLength="30" x="815" y="756.9434">DTO</text><polygon fill="#181818" points="497,795.207,487,799.207,497,803.207,493,799.207" style="stroke:#181818;stroke-width:1.0;"/><line style="stroke:#181818;stroke-width:1.0;stroke-dasharray:2.0,2.0;" x1="491" x2="676" y1="799.207" y2="799.207"/><text fill="#000000" font-family="sans-serif" font-size="13" font-weight="bold" lengthAdjust="spacing" textLength="18" x="503" y="794.4648">18</text><text fill="#000000" font-family="sans-serif" font-size="13" lengthAdjust="spacing" textLength="21" x="525" y="794.4648">dto</text><polygon fill="#181818" points="372,824.5176,362,828.5176,372,832.5176,368,828.5176" style="stroke:#181818;stroke-width:1.0;"/><line style="stroke:#181818;stroke-width:1.0;stroke-dasharray:2.0,2.0;" x1="366" x2="480" y1="828.5176" y2="828.5176"/><text fill="#000000" font-family="sans-serif" font-size="13" font-weight="bold" lengthAdjust="spacing" textLength="18" x="378" y="823.7754">19</text><text fill="#000000" font-family="sans-serif" font-size="13" lengthAdjust="spacing" textLength="21" x="400" y="823.7754">dto</text><polygon fill="#181818" points="247,853.8281,237,857.8281,247,861.8281,243,857.8281" style="stroke:#181818;stroke-width:1.0;"/><line style="stroke:#181818;stroke-width:1.0;stroke-dasharray:2.0,2.0;" x1="241" x2="355" y1="857.8281" y2="857.8281"/><text fill="#000000" font-family="sans-serif" font-size="13" font-weight="bold" lengthAdjust="spacing" textLength="18" x="253" y="853.0859">20</text><text fill="#000000" font-family="sans-serif" font-size="13" lengthAdjust="spacing" textLength="57" x="275" y="853.0859">dto (201)</text><polygon fill="#181818" points="11,883.1387,1,887.1387,11,891.1387,7,887.1387" style="stroke:#181818;stroke-width:1.0;"/><line style="stroke:#181818;stroke-width:1.0;stroke-dasharray:2.0,2.0;" x1="5" x2="230" y1="887.1387" y2="887.1387"/><text fill="#000000" font-family="sans-serif" font-size="13" font-weight="bold" lengthAdjust="spacing" textLength="18" x="17" y="882.3965">21</text><text fill="#000000" font-family="sans-serif" font-size="13" lengthAdjust="spacing" textLength="80" x="39" y="882.3965">201: Created</text><!--SRC=[dLLDRnen4BtxLuou12AX9DkSK9GBKMzLgeIUaekz7XAh6tjbUwdeh-_uWyMxIwXQIuY5cVVyPkOnyCuRtNq8j8ort7fLgvPh3xCdqtcS0NTWXu6rqTwQfa4RexMtpJ3X6UrErGdhTlM8rnfX_EfLFuNtc2E62TzussRk3zuEOz8RWZvi7cEOFeqqOskSyiRkat3wo9ZadWlk46OF-Ic11MClo-KzM5Z1zyVd3Ln5QOxnsgiTzqY50nrjmgDwU_UKk4EhjdjGM-WSMb0EEBpgROFeIQtcRvX0lF7GwP_cbuw9yRjmNkwMotZZxVND2dvetlbtOzLlb3456z8PcUbM60L7-2yh-6giK5AY7e4BO8nOe3h3e0XOMwJQOlVdYwJrK6ySvU6cc4umck19r00PnWp52Q3GMXe0WRTAomZTx5kSsyFJsaXS3637peV9mUX4DcAL8dFE5vESde762oSEOPT7ORsKIQx4Sqn9IT-SqpG5HJBYf4548E3oic_lg9wBOpLY52YunP0u62_gYSRDn79ImU7-R0gqrjX9Kh90_ed459ZVLjMqwqTNLbLmTMjDZSvnqI24TO7Q3p3HgLbbLWYkgmDcspND_eoN7Dzb2_stTIB5lrddSplyVShtOOtHjTxGtZehFQoxySq16qP0kuwiqZibqqpI2y-4xJWDbvLumpwzBpbxp56WWrXsnb8bj835FuIJ1WiLpglhczIS0jAlfMIp5LHXTwwpiyi1C8PQnjSV]--></g></svg>