<?xml version="1.0" encoding="us-ascii" standalone="no"?><svg xmlns="http://www.w3.org/2000/svg" xmlns:xlink="http://www.w3.org/1999/xlink" contentStyleType="text/css" height="1043px" preserveAspectRatio="none" style="width:1262px;height:1043px;background:#FFFFFF;" version="1.1" viewBox="0 0 1262 1043" width="1262px" zoomAndPan="magnify"><defs/><g><rect fill="#FFFFFF" height="1022.5352" style="stroke:#181818;stroke-width:1.5;" width="1251" x="5" y="15"/><path d="M37,15 L37,24.4883 L27,34.4883 L5,34.4883 " fill="none" style="stroke:#181818;stroke-width:1.5;"/><text fill="#000000" font-family="sans-serif" font-size="14" lengthAdjust="spacing" textLength="22" x="8" y="29.5352">MD</text><rect fill="#ADD8E6" height="970.3164" style="stroke:#181818;stroke-width:0.5;" width="850.5" x="293.5" y="43.7305"/><text fill="#000000" font-family="sans-serif" font-size="13" font-weight="bold" lengthAdjust="spacing" textLength="65" x="686.25" y="56.2988">Back-End</text><rect fill="#DDDDDD" height="970.3164" style="stroke:#181818;stroke-width:0.5;" width="77" x="1146" y="43.7305"/><text fill="#000000" font-family="sans-serif" font-size="13" font-weight="bold" lengthAdjust="spacing" textLength="63" x="1153" y="56.2988">Database</text><rect fill="#FFFFFF" height="749.0635" style="stroke:#181818;stroke-width:1.0;" width="10" x="319.5" y="167.4951"/><rect fill="#FFFFFF" height="566.9453" style="stroke:#181818;stroke-width:1.0;" width="10" x="444.5" y="320.3027"/><rect fill="#FFFFFF" height="508.3242" style="stroke:#181818;stroke-width:1.0;" width="10" x="569.5" y="349.6133"/><rect fill="#FFFFFF" height="59.3105" style="stroke:#181818;stroke-width:1.0;" width="10" x="807.5" y="378.9238"/><rect fill="#FFFFFF" height="59.3105" style="stroke:#181818;stroke-width:1.0;" width="10" x="807.5" y="652.7188"/><rect fill="#FFFFFF" height="72.2871" style="stroke:#181818;stroke-width:1.0;" width="10" x="889" y="477.5449"/><rect fill="#FFFFFF" height="87.2871" style="stroke:#181818;stroke-width:1.0;" width="10" x="960" y="741.3398"/><rect fill="#FFFFFF" height="47.9766" style="stroke:#181818;stroke-width:1.0;" width="10" x="1113" y="780.6504"/><rect fill="#FFFFFF" height="30" style="stroke:#181818;stroke-width:1.0;" width="10" x="1179.5" y="408.2344"/><rect fill="#FFFFFF" height="30" style="stroke:#181818;stroke-width:1.0;" width="10" x="1179.5" y="682.0293"/><rect fill="none" height="738.4082" style="stroke:#000000;stroke-width:1.5;" width="1219" x="20" y="193.1504"/><rect fill="none" height="413.3477" style="stroke:#000000;stroke-width:1.5;" width="1199" x="30" y="511.2109"/><line style="stroke:#181818;stroke-width:0.5;stroke-dasharray:5.0,5.0;" x1="95" x2="95" y1="125.5293" y2="948.5586"/><line style="stroke:#181818;stroke-width:0.5;stroke-dasharray:5.0,5.0;" x1="324.5" x2="324.5" y1="125.5293" y2="948.5586"/><line style="stroke:#181818;stroke-width:0.5;stroke-dasharray:5.0,5.0;" x1="449.5" x2="449.5" y1="125.5293" y2="948.5586"/><line style="stroke:#181818;stroke-width:0.5;stroke-dasharray:5.0,5.0;" x1="574.5" x2="574.5" y1="125.5293" y2="948.5586"/><line style="stroke:#181818;stroke-width:0.5;stroke-dasharray:5.0,5.0;" x1="812" x2="812" y1="125.5293" y2="948.5586"/><line style="stroke:#181818;stroke-width:0.5;stroke-dasharray:5.0,5.0;" x1="894" x2="894" y1="485.2227" y2="948.5586"/><line style="stroke:#181818;stroke-width:0.5;stroke-dasharray:5.0,5.0;" x1="965" x2="965" y1="125.5293" y2="948.5586"/><line style="stroke:#181818;stroke-width:0.5;stroke-dasharray:5.0,5.0;" x1="1118" x2="1118" y1="788.3281" y2="948.5586"/><line style="stroke:#181818;stroke-width:0.5;stroke-dasharray:5.0,5.0;" x1="1184" x2="1184" y1="125.5293" y2="948.5586"/><rect fill="#E2E2F0" height="30.4883" rx="2.5" ry="2.5" style="stroke:#181818;stroke-width:0.5;" width="111" x="40" y="94.041"/><text fill="#000000" font-family="sans-serif" font-size="14" lengthAdjust="spacing" textLength="97" x="47" y="114.5762">Fleet Manager</text><rect fill="#E2E2F0" height="30.4883" rx="2.5" ry="2.5" style="stroke:#181818;stroke-width:0.5;" width="111" x="40" y="947.5586"/><text fill="#000000" font-family="sans-serif" font-size="14" lengthAdjust="spacing" textLength="97" x="47" y="968.0938">Fleet Manager</text><rect fill="#E2E2F0" height="30.4883" rx="2.5" ry="2.5" style="stroke:#181818;stroke-width:0.5;" width="54" x="297.5" y="94.041"/><text fill="#000000" font-family="sans-serif" font-size="14" lengthAdjust="spacing" textLength="40" x="304.5" y="114.5762">Route</text><rect fill="#E2E2F0" height="30.4883" rx="2.5" ry="2.5" style="stroke:#181818;stroke-width:0.5;" width="54" x="297.5" y="947.5586"/><text fill="#000000" font-family="sans-serif" font-size="14" lengthAdjust="spacing" textLength="40" x="304.5" y="968.0938">Route</text><rect fill="#E2E2F0" height="30.4883" rx="2.5" ry="2.5" style="stroke:#181818;stroke-width:0.5;" width="84" x="407.5" y="94.041"/><text fill="#000000" font-family="sans-serif" font-size="14" lengthAdjust="spacing" textLength="70" x="414.5" y="114.5762">Controller</text><rect fill="#E2E2F0" height="30.4883" rx="2.5" ry="2.5" style="stroke:#181818;stroke-width:0.5;" width="84" x="407.5" y="947.5586"/><text fill="#000000" font-family="sans-serif" font-size="14" lengthAdjust="spacing" textLength="70" x="414.5" y="968.0938">Controller</text><rect fill="#E2E2F0" height="30.4883" rx="2.5" ry="2.5" style="stroke:#181818;stroke-width:0.5;" width="62" x="543.5" y="94.041"/><text fill="#000000" font-family="sans-serif" font-size="14" lengthAdjust="spacing" textLength="48" x="550.5" y="114.5762">Service</text><rect fill="#E2E2F0" height="30.4883" rx="2.5" ry="2.5" style="stroke:#181818;stroke-width:0.5;" width="62" x="543.5" y="947.5586"/><text fill="#000000" font-family="sans-serif" font-size="14" lengthAdjust="spacing" textLength="48" x="550.5" y="968.0938">Service</text><rect fill="#E2E2F0" height="30.4883" rx="2.5" ry="2.5" style="stroke:#181818;stroke-width:0.5;" width="87" x="769" y="94.041"/><text fill="#000000" font-family="sans-serif" font-size="14" lengthAdjust="spacing" textLength="73" x="776" y="114.5762">Repository</text><rect fill="#E2E2F0" height="30.4883" rx="2.5" ry="2.5" style="stroke:#181818;stroke-width:0.5;" width="87" x="769" y="947.5586"/><text fill="#000000" font-family="sans-serif" font-size="14" lengthAdjust="spacing" textLength="73" x="776" y="968.0938">Repository</text><rect fill="#E2E2F0" height="46.9766" rx="2.5" ry="2.5" style="stroke:#181818;stroke-width:0.5;" width="56" x="866" y="947.5586"/><text fill="#000000" font-family="sans-serif" font-size="14" lengthAdjust="spacing" textLength="42" x="873" y="968.0938">robot:</text><text fill="#000000" font-family="sans-serif" font-size="14" lengthAdjust="spacing" textLength="41" x="873.5" y="984.582">Robot</text><rect fill="#E2E2F0" height="30.4883" rx="2.5" ry="2.5" style="stroke:#181818;stroke-width:0.5;" width="66" x="932" y="94.041"/><text fill="#000000" font-family="sans-serif" font-size="14" lengthAdjust="spacing" textLength="52" x="939" y="114.5762">Mapper</text><rect fill="#E2E2F0" height="30.4883" rx="2.5" ry="2.5" style="stroke:#181818;stroke-width:0.5;" width="66" x="932" y="947.5586"/><text fill="#000000" font-family="sans-serif" font-size="14" lengthAdjust="spacing" textLength="52" x="939" y="968.0938">Mapper</text><rect fill="#E2E2F0" height="46.9766" rx="2.5" ry="2.5" style="stroke:#181818;stroke-width:0.5;" width="44" x="1096" y="947.5586"/><text fill="#000000" font-family="sans-serif" font-size="14" lengthAdjust="spacing" textLength="27" x="1104.5" y="968.0938">dto:</text><text fill="#000000" font-family="sans-serif" font-size="14" lengthAdjust="spacing" textLength="30" x="1103" y="984.582">DTO</text><text fill="#000000" font-family="sans-serif" font-size="14" lengthAdjust="spacing" textLength="63" x="1150" y="122.5762">Database</text><path d="M1166.5,73.041 C1166.5,63.041 1184.5,63.041 1184.5,63.041 C1184.5,63.041 1202.5,63.041 1202.5,73.041 L1202.5,99.041 C1202.5,109.041 1184.5,109.041 1184.5,109.041 C1184.5,109.041 1166.5,109.041 1166.5,99.041 L1166.5,73.041 " fill="#E2E2F0" style="stroke:#181818;stroke-width:1.5;"/><path d="M1166.5,73.041 C1166.5,83.041 1184.5,83.041 1184.5,83.041 C1184.5,83.041 1202.5,83.041 1202.5,73.041 " fill="none" style="stroke:#181818;stroke-width:1.5;"/><text fill="#000000" font-family="sans-serif" font-size="14" lengthAdjust="spacing" textLength="63" x="1150" y="961.0938">Database</text><path d="M1166.5,974.0469 C1166.5,964.0469 1184.5,964.0469 1184.5,964.0469 C1184.5,964.0469 1202.5,964.0469 1202.5,974.0469 L1202.5,1000.0469 C1202.5,1010.0469 1184.5,1010.0469 1184.5,1010.0469 C1184.5,1010.0469 1166.5,1010.0469 1166.5,1000.0469 L1166.5,974.0469 " fill="#E2E2F0" style="stroke:#181818;stroke-width:1.5;"/><path d="M1166.5,974.0469 C1166.5,984.0469 1184.5,984.0469 1184.5,984.0469 C1184.5,984.0469 1202.5,984.0469 1202.5,974.0469 " fill="none" style="stroke:#181818;stroke-width:1.5;"/><rect fill="#FFFFFF" height="749.0635" style="stroke:#181818;stroke-width:1.0;" width="10" x="319.5" y="167.4951"/><rect fill="#FFFFFF" height="566.9453" style="stroke:#181818;stroke-width:1.0;" width="10" x="444.5" y="320.3027"/><rect fill="#FFFFFF" height="508.3242" style="stroke:#181818;stroke-width:1.0;" width="10" x="569.5" y="349.6133"/><rect fill="#FFFFFF" height="59.3105" style="stroke:#181818;stroke-width:1.0;" width="10" x="807.5" y="378.9238"/><rect fill="#FFFFFF" height="59.3105" style="stroke:#181818;stroke-width:1.0;" width="10" x="807.5" y="652.7188"/><rect fill="#FFFFFF" height="72.2871" style="stroke:#181818;stroke-width:1.0;" width="10" x="889" y="477.5449"/><rect fill="#FFFFFF" height="87.2871" style="stroke:#181818;stroke-width:1.0;" width="10" x="960" y="741.3398"/><rect fill="#FFFFFF" height="47.9766" style="stroke:#181818;stroke-width:1.0;" width="10" x="1113" y="780.6504"/><rect fill="#FFFFFF" height="30" style="stroke:#181818;stroke-width:1.0;" width="10" x="1179.5" y="408.2344"/><rect fill="#FFFFFF" height="30" style="stroke:#181818;stroke-width:1.0;" width="10" x="1179.5" y="682.0293"/><polygon fill="#181818" points="307.5,163.4951,317.5,167.4951,307.5,171.4951,311.5,167.4951" style="stroke:#181818;stroke-width:1.0;"/><line style="stroke:#181818;stroke-width:1.0;stroke-dasharray:2.0,2.0;" x1="95.5" x2="313.5" y1="167.4951" y2="167.4951"/><text fill="#000000" font-family="sans-serif" font-size="13" font-weight="bold" lengthAdjust="spacing" textLength="9" x="102.5" y="162.7529">1</text><text fill="#000000" font-family="sans-serif" font-size="13" lengthAdjust="spacing" textLength="84" x="115.5" y="162.7529">post(/robots)</text><path d="M334,140.5293 L334,180.5293 L464,180.5293 L464,150.5293 L454,140.5293 L334,140.5293 " fill="#FEFFDD" style="stroke:#181818;stroke-width:0.5;"/><path d="M454,140.5293 L454,150.5293 L464,150.5293 L454,140.5293 " fill="#FEFFDD" style="stroke:#181818;stroke-width:0.5;"/><text fill="#000000" font-family="sans-serif" font-size="13" lengthAdjust="spacing" textLength="105" x="340" y="158.0977">verify if user is a</text><text fill="#000000" font-family="sans-serif" font-size="13" lengthAdjust="spacing" textLength="86" x="340" y="173.4082">fleet manager</text><path d="M20,193.1504 L82,193.1504 L82,200.4609 L72,210.4609 L20,210.4609 L20,193.1504 " fill="#EEEEEE" style="stroke:#000000;stroke-width:1.5;"/><rect fill="none" height="738.4082" style="stroke:#000000;stroke-width:1.5;" width="1219" x="20" y="193.1504"/><text fill="#000000" font-family="sans-serif" font-size="13" font-weight="bold" lengthAdjust="spacing" textLength="17" x="35" y="206.7188">alt</text><text fill="#000000" font-family="sans-serif" font-size="11" font-weight="bold" lengthAdjust="spacing" textLength="80" x="97" y="205.7852">[unkown user]</text><polygon fill="#181818" points="106.5,227.7715,96.5,231.7715,106.5,235.7715,102.5,231.7715" style="stroke:#181818;stroke-width:1.0;"/><line style="stroke:#181818;stroke-width:1.0;stroke-dasharray:2.0,2.0;" x1="100.5" x2="318.5" y1="231.7715" y2="231.7715"/><text fill="#000000" font-family="sans-serif" font-size="13" font-weight="bold" lengthAdjust="spacing" textLength="9" x="112.5" y="227.0293">2</text><text fill="#000000" font-family="sans-serif" font-size="13" lengthAdjust="spacing" textLength="116" x="125.5" y="227.0293">401: Unauthorized</text><line style="stroke:#000000;stroke-width:1.0;stroke-dasharray:2.0,2.0;" x1="20" x2="1239" y1="240.7715" y2="240.7715"/><text fill="#000000" font-family="sans-serif" font-size="11" font-weight="bold" lengthAdjust="spacing" textLength="117" x="25" y="251.4063">[user not authorized]</text><polygon fill="#181818" points="106.5,272.0371,96.5,276.0371,106.5,280.0371,102.5,276.0371" style="stroke:#181818;stroke-width:1.0;"/><line style="stroke:#181818;stroke-width:1.0;stroke-dasharray:2.0,2.0;" x1="100.5" x2="318.5" y1="276.0371" y2="276.0371"/><text fill="#000000" font-family="sans-serif" font-size="13" font-weight="bold" lengthAdjust="spacing" textLength="9" x="112.5" y="271.2949">3</text><text fill="#000000" font-family="sans-serif" font-size="13" lengthAdjust="spacing" textLength="95" x="125.5" y="271.2949">403: Forbidden</text><line style="stroke:#000000;stroke-width:1.0;stroke-dasharray:2.0,2.0;" x1="20" x2="1239" y1="285.0371" y2="285.0371"/><text fill="#000000" font-family="sans-serif" font-size="11" font-weight="bold" lengthAdjust="spacing" textLength="95" x="25" y="295.6719">[user authorized]</text><polygon fill="#181818" points="432.5,316.3027,442.5,320.3027,432.5,324.3027,436.5,320.3027" style="stroke:#181818;stroke-width:1.0;"/><line style="stroke:#181818;stroke-width:1.0;" x1="329.5" x2="438.5" y1="320.3027" y2="320.3027"/><text fill="#000000" font-family="sans-serif" font-size="13" font-weight="bold" lengthAdjust="spacing" textLength="9" x="336.5" y="315.5605">4</text><text fill="#000000" font-family="sans-serif" font-size="13" lengthAdjust="spacing" textLength="83" x="349.5" y="315.5605">createRobot()</text><polygon fill="#181818" points="557.5,345.6133,567.5,349.6133,557.5,353.6133,561.5,349.6133" style="stroke:#181818;stroke-width:1.0;"/><line style="stroke:#181818;stroke-width:1.0;" x1="454.5" x2="563.5" y1="349.6133" y2="349.6133"/><text fill="#000000" font-family="sans-serif" font-size="13" font-weight="bold" lengthAdjust="spacing" textLength="9" x="461.5" y="344.8711">5</text><text fill="#000000" font-family="sans-serif" font-size="13" lengthAdjust="spacing" textLength="83" x="474.5" y="344.8711">createRobot()</text><polygon fill="#181818" points="795.5,374.9238,805.5,378.9238,795.5,382.9238,799.5,378.9238" style="stroke:#181818;stroke-width:1.0;"/><line style="stroke:#181818;stroke-width:1.0;" x1="579.5" x2="801.5" y1="378.9238" y2="378.9238"/><text fill="#000000" font-family="sans-serif" font-size="13" font-weight="bold" lengthAdjust="spacing" textLength="9" x="586.5" y="374.1816">6</text><text fill="#000000" font-family="sans-serif" font-size="13" lengthAdjust="spacing" textLength="196" x="599.5" y="374.1816">findRobotType(robotTypeCode)</text><polygon fill="#181818" points="1167.5,404.2344,1177.5,408.2344,1167.5,412.2344,1171.5,408.2344" style="stroke:#181818;stroke-width:1.0;"/><line style="stroke:#181818;stroke-width:1.0;" x1="817.5" x2="1173.5" y1="408.2344" y2="408.2344"/><text fill="#000000" font-family="sans-serif" font-size="13" font-weight="bold" lengthAdjust="spacing" textLength="9" x="824.5" y="403.4922">7</text><text fill="#000000" font-family="sans-serif" font-size="13" lengthAdjust="spacing" textLength="33" x="837.5" y="403.4922">find()</text><polygon fill="#181818" points="854,463.5449,864,467.5449,854,471.5449,858,467.5449" style="stroke:#181818;stroke-width:1.0;"/><line style="stroke:#181818;stroke-width:1.0;stroke-dasharray:2.0,2.0;" x1="579.5" x2="860" y1="467.5449" y2="467.5449"/><text fill="#000000" font-family="sans-serif" font-size="13" font-weight="bold" lengthAdjust="spacing" textLength="9" x="586.5" y="462.8027">8</text><text fill="#000000" font-family="sans-serif" font-size="13" lengthAdjust="spacing" textLength="46" x="599.5" y="462.8027">create()</text><rect fill="#E2E2F0" height="46.9766" rx="2.5" ry="2.5" style="stroke:#181818;stroke-width:0.5;" width="56" x="866" y="446.2344"/><text fill="#000000" font-family="sans-serif" font-size="14" lengthAdjust="spacing" textLength="42" x="873" y="466.7695">robot:</text><text fill="#000000" font-family="sans-serif" font-size="14" lengthAdjust="spacing" textLength="41" x="873.5" y="483.2578">Robot</text><path d="M30,511.2109 L92,511.2109 L92,518.5215 L82,528.5215 L30,528.5215 L30,511.2109 " fill="#EEEEEE" style="stroke:#000000;stroke-width:1.5;"/><rect fill="none" height="413.3477" style="stroke:#000000;stroke-width:1.5;" width="1199" x="30" y="511.2109"/><text fill="#000000" font-family="sans-serif" font-size="13" font-weight="bold" lengthAdjust="spacing" textLength="17" x="45" y="524.7793">alt</text><text fill="#000000" font-family="sans-serif" font-size="11" font-weight="bold" lengthAdjust="spacing" textLength="108" x="107" y="523.8457">[robot  not created]</text><polygon fill="#181818" points="465.5,545.832,455.5,549.832,465.5,553.832,461.5,549.832" style="stroke:#181818;stroke-width:1.0;"/><line style="stroke:#181818;stroke-width:1.0;stroke-dasharray:2.0,2.0;" x1="459.5" x2="568.5" y1="549.832" y2="549.832"/><text fill="#000000" font-family="sans-serif" font-size="13" font-weight="bold" lengthAdjust="spacing" textLength="9" x="471.5" y="545.0898">9</text><text fill="#000000" font-family="sans-serif" font-size="13" lengthAdjust="spacing" textLength="30" x="484.5" y="545.0898">error</text><polygon fill="#181818" points="340.5,575.1426,330.5,579.1426,340.5,583.1426,336.5,579.1426" style="stroke:#181818;stroke-width:1.0;"/><line style="stroke:#181818;stroke-width:1.0;stroke-dasharray:2.0,2.0;" x1="334.5" x2="443.5" y1="579.1426" y2="579.1426"/><text fill="#000000" font-family="sans-serif" font-size="13" font-weight="bold" lengthAdjust="spacing" textLength="18" x="346.5" y="574.4004">10</text><text fill="#000000" font-family="sans-serif" font-size="13" lengthAdjust="spacing" textLength="66" x="368.5" y="574.4004">error (422)</text><polygon fill="#181818" points="106.5,604.4531,96.5,608.4531,106.5,612.4531,102.5,608.4531" style="stroke:#181818;stroke-width:1.0;"/><line style="stroke:#181818;stroke-width:1.0;stroke-dasharray:2.0,2.0;" x1="100.5" x2="318.5" y1="608.4531" y2="608.4531"/><text fill="#000000" font-family="sans-serif" font-size="13" font-weight="bold" lengthAdjust="spacing" textLength="18" x="112.5" y="603.7109">11</text><text fill="#000000" font-family="sans-serif" font-size="13" lengthAdjust="spacing" textLength="178" x="134.5" y="603.7109">422: Unprocessable Content</text><line style="stroke:#000000;stroke-width:1.0;stroke-dasharray:2.0,2.0;" x1="30" x2="1229" y1="617.4531" y2="617.4531"/><text fill="#000000" font-family="sans-serif" font-size="11" font-weight="bold" lengthAdjust="spacing" textLength="159" x="35" y="628.0879">[robot  created successfully]</text><polygon fill="#181818" points="795.5,648.7188,805.5,652.7188,795.5,656.7188,799.5,652.7188" style="stroke:#181818;stroke-width:1.0;"/><line style="stroke:#181818;stroke-width:1.0;" x1="579.5" x2="801.5" y1="652.7188" y2="652.7188"/><text fill="#000000" font-family="sans-serif" font-size="13" font-weight="bold" lengthAdjust="spacing" textLength="18" x="586.5" y="647.9766">12</text><text fill="#000000" font-family="sans-serif" font-size="13" lengthAdjust="spacing" textLength="70" x="608.5" y="647.9766">save(robot)</text><polygon fill="#181818" points="1167.5,678.0293,1177.5,682.0293,1167.5,686.0293,1171.5,682.0293" style="stroke:#181818;stroke-width:1.0;"/><line style="stroke:#181818;stroke-width:1.0;" x1="817.5" x2="1173.5" y1="682.0293" y2="682.0293"/><text fill="#000000" font-family="sans-serif" font-size="13" font-weight="bold" lengthAdjust="spacing" textLength="18" x="824.5" y="677.2871">13</text><text fill="#000000" font-family="sans-serif" font-size="13" lengthAdjust="spacing" textLength="36" x="846.5" y="677.2871">save()</text><polygon fill="#181818" points="948,737.3398,958,741.3398,948,745.3398,952,741.3398" style="stroke:#181818;stroke-width:1.0;"/><line style="stroke:#181818;stroke-width:1.0;" x1="579.5" x2="954" y1="741.3398" y2="741.3398"/><text fill="#000000" font-family="sans-serif" font-size="13" font-weight="bold" lengthAdjust="spacing" textLength="18" x="586.5" y="736.5977">14</text><text fill="#000000" font-family="sans-serif" font-size="13" lengthAdjust="spacing" textLength="83" x="608.5" y="736.5977">toDTO(robot)</text><polygon fill="#181818" points="1084,766.6504,1094,770.6504,1084,774.6504,1088,770.6504" style="stroke:#181818;stroke-width:1.0;"/><line style="stroke:#181818;stroke-width:1.0;stroke-dasharray:2.0,2.0;" x1="970" x2="1090" y1="770.6504" y2="770.6504"/><text fill="#000000" font-family="sans-serif" font-size="13" font-weight="bold" lengthAdjust="spacing" textLength="18" x="977" y="765.9082">15</text><text fill="#000000" font-family="sans-serif" font-size="13" lengthAdjust="spacing" textLength="80" x="999" y="765.9082">create(robot)</text><rect fill="#E2E2F0" height="46.9766" rx="2.5" ry="2.5" style="stroke:#181818;stroke-width:0.5;" width="44" x="1096" y="749.3398"/><text fill="#000000" font-family="sans-serif" font-size="14" lengthAdjust="spacing" textLength="27" x="1104.5" y="769.875">dto:</text><text fill="#000000" font-family="sans-serif" font-size="14" lengthAdjust="spacing" textLength="30" x="1103" y="786.3633">DTO</text><polygon fill="#181818" points="590.5,824.627,580.5,828.627,590.5,832.627,586.5,828.627" style="stroke:#181818;stroke-width:1.0;"/><line style="stroke:#181818;stroke-width:1.0;stroke-dasharray:2.0,2.0;" x1="584.5" x2="964" y1="828.627" y2="828.627"/><text fill="#000000" font-family="sans-serif" font-size="13" font-weight="bold" lengthAdjust="spacing" textLength="18" x="596.5" y="823.8848">16</text><text fill="#000000" font-family="sans-serif" font-size="13" lengthAdjust="spacing" textLength="21" x="618.5" y="823.8848">dto</text><polygon fill="#181818" points="465.5,853.9375,455.5,857.9375,465.5,861.9375,461.5,857.9375" style="stroke:#181818;stroke-width:1.0;"/><line style="stroke:#181818;stroke-width:1.0;stroke-dasharray:2.0,2.0;" x1="459.5" x2="573.5" y1="857.9375" y2="857.9375"/><text fill="#000000" font-family="sans-serif" font-size="13" font-weight="bold" lengthAdjust="spacing" textLength="18" x="471.5" y="853.1953">17</text><text fill="#000000" font-family="sans-serif" font-size="13" lengthAdjust="spacing" textLength="21" x="493.5" y="853.1953">dto</text><polygon fill="#181818" points="340.5,883.248,330.5,887.248,340.5,891.248,336.5,887.248" style="stroke:#181818;stroke-width:1.0;"/><line style="stroke:#181818;stroke-width:1.0;stroke-dasharray:2.0,2.0;" x1="334.5" x2="448.5" y1="887.248" y2="887.248"/><text fill="#000000" font-family="sans-serif" font-size="13" font-weight="bold" lengthAdjust="spacing" textLength="18" x="346.5" y="882.5059">18</text><text fill="#000000" font-family="sans-serif" font-size="13" lengthAdjust="spacing" textLength="57" x="368.5" y="882.5059">dto (201)</text><polygon fill="#181818" points="106.5,912.5586,96.5,916.5586,106.5,920.5586,102.5,916.5586" style="stroke:#181818;stroke-width:1.0;"/><line style="stroke:#181818;stroke-width:1.0;stroke-dasharray:2.0,2.0;" x1="100.5" x2="323.5" y1="916.5586" y2="916.5586"/><text fill="#000000" font-family="sans-serif" font-size="13" font-weight="bold" lengthAdjust="spacing" textLength="18" x="112.5" y="911.8164">19</text><text fill="#000000" font-family="sans-serif" font-size="13" lengthAdjust="spacing" textLength="80" x="134.5" y="911.8164">201: Created</text><!--SRC=[lLGzRzim4DtvAmxk8WS8cgYPD7Y8tKmr2gJfbeKIJmaHcHGeqgtxwtiyqQu-70yPIi2mgBltxklfPF3MX5s9JeXMEgyhtKhZOV7G87hOIYDVq2r0TX2qs4bjQYTt2DkDAErlMDpBwktwgr4B-FHDlxpw-oRWXEdH1e_CuCQ6jJNUsQP9_9LtpTZX1xgzhdfijwycjDZQJdlh3ZqtNIU1dIsjBvxDO_ndftBii9LjcuBlP3ksAMy9kddwpcQw2JGAgEQ-xetqifGTBWJGKUasUC-eyWGIGSFrzGeS541v- -mpPzSjXQoytakFr9r8PMnyZAqappqwNHz0rn0wTA0xaF1iQXxDhXyDWsJZ8PWt-ykm8x-Bnt5C2bt0tSrj0J-D3FxLElq75JjXGqapDyM5YN76yAM01-jAhHIQ2Nm05GctueaIi798zV4KicMVxx5cdlan5hiJZ4Pz5ZL2HZt0u4HGx2_9WC2rDegXJuSMCtTyMbk5on7iN_UZVc1oc8rOLPaui-NCvyH0qvxQ5Bvd7LXwvSvgeR0bN5sTEf6zatWvnaOfSBqifOHLiyoE8TA8q3dhBgK_hwsVLf8quo6xo_DvWuOIolCemjRP2hjEbWr2N09e_0Z5iaf5f0AW2rN4rA5f3XS6tybzclU7vymK_s_EgxXxAAotj6mkfXvtr3HonCRsqe8YiPoqSePcN8EVf3Bawh-_w7AfpebvO8fvYWjY6q87iFX5YxFgYiLb-SrjNz00SbeVHuqLaCSzjqwg7tPVn5tClxy0]--></g></svg>