<?xml version="1.0" encoding="us-ascii" standalone="no"?><svg xmlns="http://www.w3.org/2000/svg" xmlns:xlink="http://www.w3.org/1999/xlink" contentStyleType="text/css" height="1002px" preserveAspectRatio="none" style="width:1122px;height:1002px;background:#FFFFFF;" version="1.1" viewBox="0 0 1122 1002" width="1122px" zoomAndPan="magnify"><defs/><g><rect fill="#FFFFFF" height="809.7786" style="stroke:#181818;stroke-width:1.0;" width="10" x="212" y="103.6949"/><rect fill="#FFFFFF" height="610.4318" style="stroke:#181818;stroke-width:1.0;" width="10" x="334" y="271.3357"/><rect fill="#FFFFFF" height="547.0197" style="stroke:#181818;stroke-width:1.0;" width="10" x="456" y="303.0417"/><rect fill="#FFFFFF" height="61.706" style="stroke:#181818;stroke-width:1.0;" width="10" x="687" y="334.7477"/><rect fill="#FFFFFF" height="61.706" style="stroke:#181818;stroke-width:1.0;" width="10" x="687" y="630.1016"/><rect fill="#FFFFFF" height="94.8419" style="stroke:#181818;stroke-width:1.0;" width="10" x="837" y="723.5136"/><rect fill="#FFFFFF" height="30" style="stroke:#181818;stroke-width:1.0;" width="10" x="1053" y="366.4538"/><rect fill="#FFFFFF" height="30" style="stroke:#181818;stroke-width:1.0;" width="10" x="1053" y="661.8076"/><rect fill="none" height="797.9256" style="stroke:#000000;stroke-width:1.5;" width="1112" x="3" y="130.5479"/><rect fill="none" height="446.8839" style="stroke:#000000;stroke-width:1.5;" width="1102" x="3" y="474.5896"/><line style="stroke:#181818;stroke-width:0.5;stroke-dasharray:5.0,5.0;" x1="216.5" x2="216.5" y1="58.1358" y2="945.4735"/><line style="stroke:#181818;stroke-width:0.5;stroke-dasharray:5.0,5.0;" x1="338.5" x2="338.5" y1="58.1358" y2="945.4735"/><line style="stroke:#181818;stroke-width:0.5;stroke-dasharray:5.0,5.0;" x1="461" x2="461" y1="58.1358" y2="945.4735"/><line style="stroke:#181818;stroke-width:0.5;stroke-dasharray:5.0,5.0;" x1="691.5" x2="691.5" y1="58.1358" y2="945.4735"/><line style="stroke:#181818;stroke-width:0.5;stroke-dasharray:5.0,5.0;" x1="771.5" x2="771.5" y1="446.0217" y2="945.4735"/><line style="stroke:#181818;stroke-width:0.5;stroke-dasharray:5.0,5.0;" x1="841.5" x2="841.5" y1="58.1358" y2="945.4735"/><line style="stroke:#181818;stroke-width:0.5;stroke-dasharray:5.0,5.0;" x1="989" x2="989" y1="773.0815" y2="945.4735"/><line style="stroke:#181818;stroke-width:0.5;stroke-dasharray:5.0,5.0;" x1="1058" x2="1058" y1="58.1358" y2="945.4735"/><rect fill="#E2E2F0" height="33.0679" rx="2.5" ry="2.5" style="stroke:#181818;stroke-width:0.5;" width="53" x="190.5" y="24.0679"/><text fill="#000000" font-family="sans-serif" font-size="14" lengthAdjust="spacing" textLength="39" x="197.5" y="46.0339">Route</text><rect fill="#E2E2F0" height="33.0679" rx="2.5" ry="2.5" style="stroke:#181818;stroke-width:0.5;" width="53" x="190.5" y="944.4735"/><text fill="#000000" font-family="sans-serif" font-size="14" lengthAdjust="spacing" textLength="39" x="197.5" y="966.4394">Route</text><rect fill="#E2E2F0" height="33.0679" rx="2.5" ry="2.5" style="stroke:#181818;stroke-width:0.5;" width="81" x="298.5" y="24.0679"/><text fill="#000000" font-family="sans-serif" font-size="14" lengthAdjust="spacing" textLength="67" x="305.5" y="46.0339">Controller</text><rect fill="#E2E2F0" height="33.0679" rx="2.5" ry="2.5" style="stroke:#181818;stroke-width:0.5;" width="81" x="298.5" y="944.4735"/><text fill="#000000" font-family="sans-serif" font-size="14" lengthAdjust="spacing" textLength="67" x="305.5" y="966.4394">Controller</text><rect fill="#E2E2F0" height="33.0679" rx="2.5" ry="2.5" style="stroke:#181818;stroke-width:0.5;" width="62" x="430" y="24.0679"/><text fill="#000000" font-family="sans-serif" font-size="14" lengthAdjust="spacing" textLength="48" x="437" y="46.0339">Service</text><rect fill="#E2E2F0" height="33.0679" rx="2.5" ry="2.5" style="stroke:#181818;stroke-width:0.5;" width="62" x="430" y="944.4735"/><text fill="#000000" font-family="sans-serif" font-size="14" lengthAdjust="spacing" textLength="48" x="437" y="966.4394">Service</text><rect fill="#E2E2F0" height="33.0679" rx="2.5" ry="2.5" style="stroke:#181818;stroke-width:0.5;" width="85" x="649.5" y="24.0679"/><text fill="#000000" font-family="sans-serif" font-size="14" lengthAdjust="spacing" textLength="71" x="656.5" y="46.0339">Repository</text><rect fill="#E2E2F0" height="33.0679" rx="2.5" ry="2.5" style="stroke:#181818;stroke-width:0.5;" width="85" x="649.5" y="944.4735"/><text fill="#000000" font-family="sans-serif" font-size="14" lengthAdjust="spacing" textLength="71" x="656.5" y="966.4394">Repository</text><rect fill="#E2E2F0" height="52.1358" rx="2.5" ry="2.5" style="stroke:#181818;stroke-width:0.5;" width="54" x="744.5" y="944.4735"/><text fill="#000000" font-family="sans-serif" font-size="14" lengthAdjust="spacing" textLength="40" x="751.5" y="966.4394">robot:</text><text fill="#000000" font-family="sans-serif" font-size="14" lengthAdjust="spacing" textLength="39" x="752" y="985.5073">Robot</text><rect fill="#E2E2F0" height="33.0679" rx="2.5" ry="2.5" style="stroke:#181818;stroke-width:0.5;" width="67" x="808.5" y="24.0679"/><text fill="#000000" font-family="sans-serif" font-size="14" lengthAdjust="spacing" textLength="53" x="815.5" y="46.0339">Mapper</text><rect fill="#E2E2F0" height="33.0679" rx="2.5" ry="2.5" style="stroke:#181818;stroke-width:0.5;" width="67" x="808.5" y="944.4735"/><text fill="#000000" font-family="sans-serif" font-size="14" lengthAdjust="spacing" textLength="53" x="815.5" y="966.4394">Mapper</text><rect fill="#E2E2F0" height="52.1358" rx="2.5" ry="2.5" style="stroke:#181818;stroke-width:0.5;" width="43" x="968" y="944.4735"/><text fill="#000000" font-family="sans-serif" font-size="14" lengthAdjust="spacing" textLength="26" x="976.5" y="966.4394">dto:</text><text fill="#000000" font-family="sans-serif" font-size="14" lengthAdjust="spacing" textLength="29" x="975" y="985.5073">DTO</text><rect fill="#E2E2F0" height="33.0679" rx="2.5" ry="2.5" style="stroke:#181818;stroke-width:0.5;" width="74" x="1021" y="24.0679"/><text fill="#000000" font-family="sans-serif" font-size="14" lengthAdjust="spacing" textLength="60" x="1028" y="46.0339">DBDriver</text><rect fill="#E2E2F0" height="33.0679" rx="2.5" ry="2.5" style="stroke:#181818;stroke-width:0.5;" width="74" x="1021" y="944.4735"/><text fill="#000000" font-family="sans-serif" font-size="14" lengthAdjust="spacing" textLength="60" x="1028" y="966.4394">DBDriver</text><rect fill="#FFFFFF" height="809.7786" style="stroke:#181818;stroke-width:1.0;" width="10" x="212" y="103.6949"/><rect fill="#FFFFFF" height="610.4318" style="stroke:#181818;stroke-width:1.0;" width="10" x="334" y="271.3357"/><rect fill="#FFFFFF" height="547.0197" style="stroke:#181818;stroke-width:1.0;" width="10" x="456" y="303.0417"/><rect fill="#FFFFFF" height="61.706" style="stroke:#181818;stroke-width:1.0;" width="10" x="687" y="334.7477"/><rect fill="#FFFFFF" height="61.706" style="stroke:#181818;stroke-width:1.0;" width="10" x="687" y="630.1016"/><rect fill="#FFFFFF" height="94.8419" style="stroke:#181818;stroke-width:1.0;" width="10" x="837" y="723.5136"/><rect fill="#FFFFFF" height="30" style="stroke:#181818;stroke-width:1.0;" width="10" x="1053" y="366.4538"/><rect fill="#FFFFFF" height="30" style="stroke:#181818;stroke-width:1.0;" width="10" x="1053" y="661.8076"/><polygon fill="#181818" points="200,99.6949,210,103.6949,200,107.6949,204,103.6949" style="stroke:#181818;stroke-width:1.0;"/><line style="stroke:#181818;stroke-width:1.0;stroke-dasharray:2.0,2.0;" x1="0" x2="206" y1="103.6949" y2="103.6949"/><text fill="#000000" font-family="sans-serif" font-size="13" font-weight="bold" lengthAdjust="spacing" textLength="7" x="7" y="97.8859">1</text><text fill="#000000" font-family="sans-serif" font-size="13" lengthAdjust="spacing" textLength="80" x="18" y="97.8859">POST /robots</text><path d="M227,73.1358 L227,118.1358 L345,118.1358 L345,83.1358 L335,73.1358 L227,73.1358 " fill="#FEFFDD" style="stroke:#181818;stroke-width:0.5;"/><path d="M335,73.1358 L335,83.1358 L345,83.1358 L335,73.1358 " fill="#FEFFDD" style="stroke:#181818;stroke-width:0.5;"/><text fill="#000000" font-family="sans-serif" font-size="13" lengthAdjust="spacing" textLength="94" x="233" y="92.0328">verify if user is a</text><text fill="#000000" font-family="sans-serif" font-size="13" lengthAdjust="spacing" textLength="83" x="233" y="109.7389">fleet manager</text><path d="M3,130.5479 L66,130.5479 L66,140.2539 L56,150.2539 L3,150.2539 L3,130.5479 " fill="#EEEEEE" style="stroke:#000000;stroke-width:1.5;"/><rect fill="none" height="797.9256" style="stroke:#000000;stroke-width:1.5;" width="1112" x="3" y="130.5479"/><text fill="#000000" font-family="sans-serif" font-size="13" font-weight="bold" lengthAdjust="spacing" textLength="18" x="18" y="145.4449">alt</text><text fill="#000000" font-family="sans-serif" font-size="11" font-weight="bold" lengthAdjust="spacing" textLength="79" x="81" y="144.3068">[unkown user]</text><polygon fill="#181818" points="11,169.9599,1,173.9599,11,177.9599,7,173.9599" style="stroke:#181818;stroke-width:1.0;"/><line style="stroke:#181818;stroke-width:1.0;stroke-dasharray:2.0,2.0;" x1="5" x2="211" y1="173.9599" y2="173.9599"/><text fill="#000000" font-family="sans-serif" font-size="13" font-weight="bold" lengthAdjust="spacing" textLength="7" x="17" y="168.1509">2</text><text fill="#000000" font-family="sans-serif" font-size="13" lengthAdjust="spacing" textLength="110" x="28" y="168.1509">401: Unauthorized</text><line style="stroke:#000000;stroke-width:1.0;stroke-dasharray:2.0,2.0;" x1="3" x2="1115" y1="182.9599" y2="182.9599"/><text fill="#000000" font-family="sans-serif" font-size="11" font-weight="bold" lengthAdjust="spacing" textLength="117" x="8" y="194.7188">[user not authorized]</text><polygon fill="#181818" points="11,218.6478,1,222.6478,11,226.6478,7,222.6478" style="stroke:#181818;stroke-width:1.0;"/><line style="stroke:#181818;stroke-width:1.0;stroke-dasharray:2.0,2.0;" x1="5" x2="211" y1="222.6478" y2="222.6478"/><text fill="#000000" font-family="sans-serif" font-size="13" font-weight="bold" lengthAdjust="spacing" textLength="7" x="17" y="216.8388">3</text><text fill="#000000" font-family="sans-serif" font-size="13" lengthAdjust="spacing" textLength="89" x="28" y="216.8388">403: Forbidden</text><line style="stroke:#000000;stroke-width:1.0;stroke-dasharray:2.0,2.0;" x1="3" x2="1115" y1="231.6478" y2="231.6478"/><text fill="#000000" font-family="sans-serif" font-size="11" font-weight="bold" lengthAdjust="spacing" textLength="95" x="8" y="243.4067">[user authorized]</text><polygon fill="#181818" points="322,267.3357,332,271.3357,322,275.3357,326,271.3357" style="stroke:#181818;stroke-width:1.0;"/><line style="stroke:#181818;stroke-width:1.0;" x1="222" x2="328" y1="271.3357" y2="271.3357"/><text fill="#000000" font-family="sans-serif" font-size="13" font-weight="bold" lengthAdjust="spacing" textLength="7" x="229" y="265.5267">4</text><text fill="#000000" font-family="sans-serif" font-size="13" lengthAdjust="spacing" textLength="82" x="240" y="265.5267">createRobot()</text><polygon fill="#181818" points="444,299.0417,454,303.0417,444,307.0417,448,303.0417" style="stroke:#181818;stroke-width:1.0;"/><line style="stroke:#181818;stroke-width:1.0;" x1="344" x2="450" y1="303.0417" y2="303.0417"/><text fill="#000000" font-family="sans-serif" font-size="13" font-weight="bold" lengthAdjust="spacing" textLength="7" x="351" y="297.2327">5</text><text fill="#000000" font-family="sans-serif" font-size="13" lengthAdjust="spacing" textLength="82" x="362" y="297.2327">createRobot()</text><polygon fill="#181818" points="675,330.7477,685,334.7477,675,338.7477,679,334.7477" style="stroke:#181818;stroke-width:1.0;"/><line style="stroke:#181818;stroke-width:1.0;" x1="466" x2="681" y1="334.7477" y2="334.7477"/><text fill="#000000" font-family="sans-serif" font-size="13" font-weight="bold" lengthAdjust="spacing" textLength="7" x="473" y="328.9387">6</text><text fill="#000000" font-family="sans-serif" font-size="13" lengthAdjust="spacing" textLength="191" x="484" y="328.9387">findRobotType(robotTypeCode)</text><polygon fill="#181818" points="1041,362.4538,1051,366.4538,1041,370.4538,1045,366.4538" style="stroke:#181818;stroke-width:1.0;"/><line style="stroke:#181818;stroke-width:1.0;" x1="697" x2="1047" y1="366.4538" y2="366.4538"/><text fill="#000000" font-family="sans-serif" font-size="13" font-weight="bold" lengthAdjust="spacing" textLength="7" x="704" y="360.6448">7</text><text fill="#000000" font-family="sans-serif" font-size="13" lengthAdjust="spacing" textLength="31" x="715" y="360.6448">find()</text><polygon fill="#181818" points="732.5,424.1598,742.5,428.1598,732.5,432.1598,736.5,428.1598" style="stroke:#181818;stroke-width:1.0;"/><line style="stroke:#181818;stroke-width:1.0;stroke-dasharray:2.0,2.0;" x1="466" x2="738.5" y1="428.1598" y2="428.1598"/><text fill="#000000" font-family="sans-serif" font-size="13" font-weight="bold" lengthAdjust="spacing" textLength="7" x="473" y="422.3508">8</text><text fill="#000000" font-family="sans-serif" font-size="13" lengthAdjust="spacing" textLength="45" x="484" y="422.3508">create()</text><rect fill="#E2E2F0" height="52.1358" rx="2.5" ry="2.5" style="stroke:#181818;stroke-width:0.5;" width="54" x="744.5" y="404.4538"/><text fill="#000000" font-family="sans-serif" font-size="14" lengthAdjust="spacing" textLength="40" x="751.5" y="426.4197">robot:</text><text fill="#000000" font-family="sans-serif" font-size="14" lengthAdjust="spacing" textLength="39" x="752" y="445.4876">Robot</text><path d="M3,474.5896 L66,474.5896 L66,484.2956 L56,494.2956 L3,494.2956 L3,474.5896 " fill="#EEEEEE" style="stroke:#000000;stroke-width:1.5;"/><rect fill="none" height="446.8839" style="stroke:#000000;stroke-width:1.5;" width="1102" x="3" y="474.5896"/><text fill="#000000" font-family="sans-serif" font-size="13" font-weight="bold" lengthAdjust="spacing" textLength="18" x="18" y="489.4866">alt</text><text fill="#000000" font-family="sans-serif" font-size="11" font-weight="bold" lengthAdjust="spacing" textLength="111" x="81" y="488.3485">[robot  not created]</text><polygon fill="#181818" points="355,514.0016,345,518.0016,355,522.0016,351,518.0016" style="stroke:#181818;stroke-width:1.0;"/><line style="stroke:#181818;stroke-width:1.0;stroke-dasharray:2.0,2.0;" x1="349" x2="455" y1="518.0016" y2="518.0016"/><text fill="#000000" font-family="sans-serif" font-size="13" font-weight="bold" lengthAdjust="spacing" textLength="7" x="361" y="512.1926">9</text><text fill="#000000" font-family="sans-serif" font-size="13" lengthAdjust="spacing" textLength="30" x="372" y="512.1926">error</text><polygon fill="#181818" points="233,545.7076,223,549.7076,233,553.7076,229,549.7076" style="stroke:#181818;stroke-width:1.0;"/><line style="stroke:#181818;stroke-width:1.0;stroke-dasharray:2.0,2.0;" x1="227" x2="333" y1="549.7076" y2="549.7076"/><text fill="#000000" font-family="sans-serif" font-size="13" font-weight="bold" lengthAdjust="spacing" textLength="14" x="239" y="543.8986">10</text><text fill="#000000" font-family="sans-serif" font-size="13" lengthAdjust="spacing" textLength="62" x="257" y="543.8986">error (422)</text><polygon fill="#181818" points="11,577.4137,1,581.4137,11,585.4137,7,581.4137" style="stroke:#181818;stroke-width:1.0;"/><line style="stroke:#181818;stroke-width:1.0;stroke-dasharray:2.0,2.0;" x1="5" x2="211" y1="581.4137" y2="581.4137"/><text fill="#000000" font-family="sans-serif" font-size="13" font-weight="bold" lengthAdjust="spacing" textLength="14" x="17" y="575.6047">11</text><text fill="#000000" font-family="sans-serif" font-size="13" lengthAdjust="spacing" textLength="168" x="35" y="575.6047">422: Unprocessable Content</text><line style="stroke:#000000;stroke-width:1.0;stroke-dasharray:2.0,2.0;" x1="3" x2="1105" y1="590.4137" y2="590.4137"/><text fill="#000000" font-family="sans-serif" font-size="11" font-weight="bold" lengthAdjust="spacing" textLength="156" x="8" y="602.1726">[robot  created successfully]</text><polygon fill="#181818" points="675,626.1016,685,630.1016,675,634.1016,679,630.1016" style="stroke:#181818;stroke-width:1.0;"/><line style="stroke:#181818;stroke-width:1.0;" x1="466" x2="681" y1="630.1016" y2="630.1016"/><text fill="#000000" font-family="sans-serif" font-size="13" font-weight="bold" lengthAdjust="spacing" textLength="14" x="473" y="624.2926">12</text><text fill="#000000" font-family="sans-serif" font-size="13" lengthAdjust="spacing" textLength="69" x="491" y="624.2926">save(robot)</text><polygon fill="#181818" points="1041,657.8076,1051,661.8076,1041,665.8076,1045,661.8076" style="stroke:#181818;stroke-width:1.0;"/><line style="stroke:#181818;stroke-width:1.0;" x1="697" x2="1047" y1="661.8076" y2="661.8076"/><text fill="#000000" font-family="sans-serif" font-size="13" font-weight="bold" lengthAdjust="spacing" textLength="14" x="704" y="655.9986">13</text><text fill="#000000" font-family="sans-serif" font-size="13" lengthAdjust="spacing" textLength="35" x="722" y="655.9986">save()</text><polygon fill="#181818" points="825,719.5136,835,723.5136,825,727.5136,829,723.5136" style="stroke:#181818;stroke-width:1.0;"/><line style="stroke:#181818;stroke-width:1.0;" x1="466" x2="831" y1="723.5136" y2="723.5136"/><text fill="#000000" font-family="sans-serif" font-size="13" font-weight="bold" lengthAdjust="spacing" textLength="14" x="473" y="717.7046">14</text><text fill="#000000" font-family="sans-serif" font-size="13" lengthAdjust="spacing" textLength="81" x="491" y="717.7046">toDTO(robot)</text><polygon fill="#181818" points="956,751.2196,966,755.2196,956,759.2196,960,755.2196" style="stroke:#181818;stroke-width:1.0;"/><line style="stroke:#181818;stroke-width:1.0;stroke-dasharray:2.0,2.0;" x1="847" x2="962" y1="755.2196" y2="755.2196"/><text fill="#000000" font-family="sans-serif" font-size="13" font-weight="bold" lengthAdjust="spacing" textLength="14" x="854" y="749.4106">15</text><text fill="#000000" font-family="sans-serif" font-size="13" lengthAdjust="spacing" textLength="79" x="872" y="749.4106">create(robot)</text><rect fill="#E2E2F0" height="52.1358" rx="2.5" ry="2.5" style="stroke:#181818;stroke-width:0.5;" width="43" x="968" y="731.5136"/><text fill="#000000" font-family="sans-serif" font-size="14" lengthAdjust="spacing" textLength="26" x="976.5" y="753.4795">dto:</text><text fill="#000000" font-family="sans-serif" font-size="14" lengthAdjust="spacing" textLength="29" x="975" y="772.5474">DTO</text><polygon fill="#181818" points="477,814.3554,467,818.3554,477,822.3554,473,818.3554" style="stroke:#181818;stroke-width:1.0;"/><line style="stroke:#181818;stroke-width:1.0;stroke-dasharray:2.0,2.0;" x1="471" x2="841" y1="818.3554" y2="818.3554"/><text fill="#000000" font-family="sans-serif" font-size="13" font-weight="bold" lengthAdjust="spacing" textLength="14" x="483" y="812.5464">16</text><text fill="#000000" font-family="sans-serif" font-size="13" lengthAdjust="spacing" textLength="21" x="501" y="812.5464">dto</text><polygon fill="#181818" points="355,846.0615,345,850.0615,355,854.0615,351,850.0615" style="stroke:#181818;stroke-width:1.0;"/><line style="stroke:#181818;stroke-width:1.0;stroke-dasharray:2.0,2.0;" x1="349" x2="460" y1="850.0615" y2="850.0615"/><text fill="#000000" font-family="sans-serif" font-size="13" font-weight="bold" lengthAdjust="spacing" textLength="14" x="361" y="844.2525">17</text><text fill="#000000" font-family="sans-serif" font-size="13" lengthAdjust="spacing" textLength="21" x="379" y="844.2525">dto</text><polygon fill="#181818" points="233,877.7675,223,881.7675,233,885.7675,229,881.7675" style="stroke:#181818;stroke-width:1.0;"/><line style="stroke:#181818;stroke-width:1.0;stroke-dasharray:2.0,2.0;" x1="227" x2="338" y1="881.7675" y2="881.7675"/><text fill="#000000" font-family="sans-serif" font-size="13" font-weight="bold" lengthAdjust="spacing" textLength="14" x="239" y="875.9585">18</text><text fill="#000000" font-family="sans-serif" font-size="13" lengthAdjust="spacing" textLength="53" x="257" y="875.9585">dto (201)</text><polygon fill="#181818" points="11,909.4735,1,913.4735,11,917.4735,7,913.4735" style="stroke:#181818;stroke-width:1.0;"/><line style="stroke:#181818;stroke-width:1.0;stroke-dasharray:2.0,2.0;" x1="5" x2="216" y1="913.4735" y2="913.4735"/><text fill="#000000" font-family="sans-serif" font-size="13" font-weight="bold" lengthAdjust="spacing" textLength="14" x="17" y="907.6645">19</text><text fill="#000000" font-family="sans-serif" font-size="13" lengthAdjust="spacing" textLength="74" x="35" y="907.6645">201: Created</text><!--SRC=[lLJ1Rjim3BthAuXUbXG8rdez1KKFIx3RqA7DJkr5jfXMc2iPafmX-_gHifB8Sfl33XCGn0dv7aczPye-MDE_rUY449rqGJUwaoR0nOFj0rw0zE36WPKrmTcsHHUZJN3jEE4HtKut0zRlce8ME-jri6u_SDFFeh2pjGtBP_F0tp6f7YTybrsNYh_9RXnJmH9qlRcFOVfLaA-_hftU9RIgXNXQBEx0mH9-t3zku7CixeLiWjx9W3Gxq36M7_NBQw14Gklj7lGMUeyEj0S9psRR8WRgnyWN742o3T2RN_QtYOdnFpvFjuj5h7XpTRs4dqRsuTKw_GTLJC7Muy1CLQ485lWlI_XcNQsLGbE0Cs2CEA0vMIi2DWvfjdY_i_dGws7UgEQXKamd68duBcg4PAKXEmpYgoM12RpLHaNePj_Xp1sULbRXV0GxtJmx0ueJsOXLrObpDf_a71b8tZAcyADe5XayEPc5ojPmUNcyYQBqfrFXkWXatFMOc3qIBoDwB16hITk7-aa_TCwwITAWLd9pJ87PJLLDB-XaeAfY0tREDkYzh5i4VhdHX14ccYfrcJe4tpUCsVPjkpyZkvUxfFO_gnmf_f_ATxnJg6omj4JEjiwxfwpCM9Q05WzPvUYKH3D9ppp3gseQpYS9LdnORtX3IuuCpSsACvRAeHcCNshnhi5umbbrTJrSJWOvRf31PakeUCsjahDp0OH0e-BdBm00]--></g></svg>