<?xml version="1.0" encoding="UTF-8" standalone="no"?><svg xmlns="http://www.w3.org/2000/svg" xmlns:xlink="http://www.w3.org/1999/xlink" contentStyleType="text/css" height="128px" preserveAspectRatio="none" style="width:233px;height:128px;background:#FFFFFF;" version="1.1" viewBox="0 0 233 128" width="233px" zoomAndPan="magnify"><defs/><g><!--MD5=[00e5913c01550451af5287594f1561d8]
cluster <<system>>\nRobDroneGo--><g id="cluster_&lt;&lt;system&gt;&gt;\nRobDroneGo"><path d="M8.5,6 L105.5,6 A3.75,3.75 0 0 1 108,8.5 L115,44.9766 L185.5,44.9766 A2.5,2.5 0 0 1 188,47.4766 L188,119.12 A2.5,2.5 0 0 1 185.5,121.62 L8.5,121.62 A2.5,2.5 0 0 1 6,119.12 L6,8.5 A2.5,2.5 0 0 1 8.5,6 " fill="none" style="stroke:#000000;stroke-width:1.5;"/><line style="stroke:#000000;stroke-width:1.5;" x1="6" x2="115" y1="44.9766" y2="44.9766"/><text fill="#000000" font-family="sans-serif" font-size="14" font-weight="bold" lengthAdjust="spacing" textLength="96" x="10" y="21.5352">&lt;&lt;system&gt;&gt;</text><text fill="#000000" font-family="sans-serif" font-size="14" font-weight="bold" lengthAdjust="spacing" textLength="90" x="13" y="38.0234">RobDroneGo</text></g><!--MD5=[6cbdc6d2b2a89144bcda853962be094f]
entity Master Data--><g id="elem_Master Data"><rect fill="#00BFFF" height="48.625" rx="2.5" ry="2.5" style="stroke:#000000;stroke-width:0.5;" width="150" x="22" y="57"/><rect fill="#00BFFF" height="10" style="stroke:#000000;stroke-width:0.5;" width="15" x="152" y="62"/><rect fill="#00BFFF" height="2" style="stroke:#000000;stroke-width:0.5;" width="4" x="150" y="64"/><rect fill="#00BFFF" height="2" style="stroke:#000000;stroke-width:0.5;" width="4" x="150" y="68"/><text fill="#000000" font-family="Courier" font-size="16" lengthAdjust="spacing" textLength="110" x="37" y="91.8516">Master Data</text></g><!--MD5=[e2307af040e3f87d22824e7603ca28ec]
entity api--><g id="elem_api"><ellipse cx="216" cy="81.31" fill="#F1F1F1" rx="8" ry="8" style="stroke:#181818;stroke-width:0.5;"/><text fill="#000000" font-family="sans-serif" font-size="14" lengthAdjust="spacing" textLength="21" x="205.5" y="111.8452">api</text></g><!--MD5=[bb30ce3ccd2b7ddbbb0396bea8150b86]
link Master Data to api--><g id="link_Master Data_api"><path d="M172.3,81.31 C183.8,81.31 195.29,81.31 206.78,81.31 " fill="none" id="Master Data-api" style="stroke:#FF6655;stroke-width:1.0;"/></g><!--MD5=[46f31ac665006fcd98da97e7d9fa8a6d]
@startuml

skinparam component {
    FontSize 16
    BackgroundColor<<Apache>> LightCoral
    BorderColor<<Apache>> #FF6655
    FontName Courier
    BorderColor black
    BackgroundColor DeepSkyBlue
    ArrowFontName Impact
    ArrowColor #FF6655
    ArrowFontColor #777777
}

package "<<system>>\nRobDroneGo" {
    [Master Data]
}

api -left- [Master Data]

@enduml

PlantUML version 1.2022.7(Mon Aug 22 18:01:30 WEST 2022)
(GPL source distribution)
Java Runtime: OpenJDK Runtime Environment
JVM: OpenJDK 64-Bit Server VM
Default Encoding: UTF-8
Language: en
Country: PT
--></g></svg>