<?xml version="1.0" encoding="us-ascii" standalone="no"?><svg xmlns="http://www.w3.org/2000/svg" xmlns:xlink="http://www.w3.org/1999/xlink" contentStyleType="text/css" height="459px" preserveAspectRatio="none" style="width:365px;height:459px;background:#FFFFFF;" version="1.1" viewBox="0 0 365 459" width="365px" zoomAndPan="magnify"><defs/><g><rect fill="#FFFFFF" height="250.6387" style="stroke:#181818;stroke-width:1.0;" width="10" x="74" y="116.9121"/><rect fill="#FFFFFF" height="249.6387" style="stroke:#181818;stroke-width:1.0;" width="10" x="259" y="116.9121"/><rect fill="none" height="227.6387" style="stroke:#000000;stroke-width:1.5;" width="348" x="10" y="131.9121"/><rect fill="none" height="98.5039" style="stroke:#000000;stroke-width:1.5;" width="328" x="20" y="254.0469"/><line style="stroke:#181818;stroke-width:0.5;stroke-dasharray:5.0,5.0;" x1="79" x2="79" y1="83.6211" y2="376.5508"/><line style="stroke:#181818;stroke-width:0.5;stroke-dasharray:5.0,5.0;" x1="264" x2="264" y1="83.6211" y2="376.5508"/><text fill="#000000" font-family="sans-serif" font-size="14" lengthAdjust="spacing" textLength="92" x="30" y="80.1074">Fleet Manager</text><ellipse cx="79" cy="13.5" fill="#E2E2F0" rx="8" ry="8" style="stroke:#181818;stroke-width:0.5;"/><path d="M79,21.5 L79,48.5 M66,29.5 L92,29.5 M79,48.5 L66,63.5 M79,48.5 L92,63.5 " fill="none" style="stroke:#181818;stroke-width:0.5;"/><text fill="#000000" font-family="sans-serif" font-size="14" lengthAdjust="spacing" textLength="92" x="30" y="390.6582">Fleet Manager</text><ellipse cx="79" cy="402.6719" fill="#E2E2F0" rx="8" ry="8" style="stroke:#181818;stroke-width:0.5;"/><path d="M79,410.6719 L79,437.6719 M66,418.6719 L92,418.6719 M79,437.6719 L66,452.6719 M79,437.6719 L92,452.6719 " fill="none" style="stroke:#181818;stroke-width:0.5;"/><rect fill="#E2E2F0" height="51.2422" rx="2.5" ry="2.5" style="stroke:#181818;stroke-width:0.5;" width="148" x="190" y="31.3789"/><text fill="#000000" font-family="sans-serif" font-size="14" lengthAdjust="spacing" textLength="60" x="234" y="53.4863">&#171;system&#187;</text><text fill="#000000" font-family="sans-serif" font-size="14" lengthAdjust="spacing" textLength="134" x="197" y="72.1074">System RobDroneGo</text><rect fill="#E2E2F0" height="51.2422" rx="2.5" ry="2.5" style="stroke:#181818;stroke-width:0.5;" width="148" x="190" y="375.5508"/><text fill="#000000" font-family="sans-serif" font-size="14" lengthAdjust="spacing" textLength="60" x="234" y="397.6582">&#171;system&#187;</text><text fill="#000000" font-family="sans-serif" font-size="14" lengthAdjust="spacing" textLength="134" x="197" y="416.2793">System RobDroneGo</text><rect fill="#FFFFFF" height="250.6387" style="stroke:#181818;stroke-width:1.0;" width="10" x="74" y="116.9121"/><rect fill="#FFFFFF" height="249.6387" style="stroke:#181818;stroke-width:1.0;" width="10" x="259" y="116.9121"/><polygon fill="#181818" points="247,112.9121,257,116.9121,247,120.9121,251,116.9121" style="stroke:#181818;stroke-width:1.0;"/><line style="stroke:#181818;stroke-width:1.0;" x1="84" x2="253" y1="116.9121" y2="116.9121"/><text fill="#000000" font-family="sans-serif" font-size="13" font-weight="bold" lengthAdjust="spacing" textLength="7" x="91" y="111.6494">1</text><text fill="#000000" font-family="sans-serif" font-size="13" lengthAdjust="spacing" textLength="70" x="102" y="111.6494">GET /robots</text><path d="M10,131.9121 L71,131.9121 L71,141.2031 L61,151.2031 L10,151.2031 L10,131.9121 " fill="#EEEEEE" style="stroke:#000000;stroke-width:1.5;"/><rect fill="none" height="227.6387" style="stroke:#000000;stroke-width:1.5;" width="348" x="10" y="131.9121"/><text fill="#000000" font-family="sans-serif" font-size="13" font-weight="bold" lengthAdjust="spacing" textLength="16" x="25" y="146.9404">alt</text><text fill="#000000" font-family="sans-serif" font-size="11" font-weight="bold" lengthAdjust="spacing" textLength="82" x="86" y="145.7822">[unkown user]</text><polygon fill="#181818" points="95,170.4941,85,174.4941,95,178.4941,91,174.4941" style="stroke:#181818;stroke-width:1.0;"/><line style="stroke:#181818;stroke-width:1.0;stroke-dasharray:2.0,2.0;" x1="89" x2="258" y1="174.4941" y2="174.4941"/><text fill="#000000" font-family="sans-serif" font-size="13" font-weight="bold" lengthAdjust="spacing" textLength="7" x="101" y="169.2314">2</text><text fill="#000000" font-family="sans-serif" font-size="13" lengthAdjust="spacing" textLength="105" x="112" y="169.2314">401: Unauthorized</text><line style="stroke:#000000;stroke-width:1.0;stroke-dasharray:2.0,2.0;" x1="10" x2="358" y1="183.4941" y2="183.4941"/><text fill="#000000" font-family="sans-serif" font-size="11" font-weight="bold" lengthAdjust="spacing" textLength="117" x="15" y="195.3643">[user not authorized]</text><polygon fill="#181818" points="95,218.416,85,222.416,95,226.416,91,222.416" style="stroke:#181818;stroke-width:1.0;"/><line style="stroke:#181818;stroke-width:1.0;stroke-dasharray:2.0,2.0;" x1="89" x2="258" y1="222.416" y2="222.416"/><text fill="#000000" font-family="sans-serif" font-size="13" font-weight="bold" lengthAdjust="spacing" textLength="7" x="101" y="217.1533">3</text><text fill="#000000" font-family="sans-serif" font-size="13" lengthAdjust="spacing" textLength="86" x="112" y="217.1533">403: Forbidden</text><line style="stroke:#000000;stroke-width:1.0;stroke-dasharray:2.0,2.0;" x1="10" x2="358" y1="231.416" y2="231.416"/><text fill="#000000" font-family="sans-serif" font-size="11" font-weight="bold" lengthAdjust="spacing" textLength="96" x="15" y="243.2861">[user authorized]</text><path d="M20,254.0469 L81,254.0469 L81,263.3379 L71,273.3379 L20,273.3379 L20,254.0469 " fill="#EEEEEE" style="stroke:#000000;stroke-width:1.5;"/><rect fill="none" height="98.5039" style="stroke:#000000;stroke-width:1.5;" width="328" x="20" y="254.0469"/><text fill="#000000" font-family="sans-serif" font-size="13" font-weight="bold" lengthAdjust="spacing" textLength="16" x="35" y="269.0752">alt</text><text fill="#000000" font-family="sans-serif" font-size="11" font-weight="bold" lengthAdjust="spacing" textLength="101" x="96" y="267.917">[robots not found]</text><polygon fill="#181818" points="95,292.6289,85,296.6289,95,300.6289,91,296.6289" style="stroke:#181818;stroke-width:1.0;"/><line style="stroke:#181818;stroke-width:1.0;stroke-dasharray:2.0,2.0;" x1="89" x2="258" y1="296.6289" y2="296.6289"/><text fill="#000000" font-family="sans-serif" font-size="13" font-weight="bold" lengthAdjust="spacing" textLength="7" x="101" y="291.3662">4</text><text fill="#000000" font-family="sans-serif" font-size="13" lengthAdjust="spacing" textLength="140" x="112" y="291.3662">412: Precondition Failed</text><line style="stroke:#000000;stroke-width:1.0;stroke-dasharray:2.0,2.0;" x1="20" x2="348" y1="305.6289" y2="305.6289"/><text fill="#000000" font-family="sans-serif" font-size="11" font-weight="bold" lengthAdjust="spacing" textLength="73" x="25" y="317.499">[robots sent]</text><polygon fill="#181818" points="95,340.5508,85,344.5508,95,348.5508,91,344.5508" style="stroke:#181818;stroke-width:1.0;"/><line style="stroke:#181818;stroke-width:1.0;stroke-dasharray:2.0,2.0;" x1="89" x2="258" y1="344.5508" y2="344.5508"/><text fill="#000000" font-family="sans-serif" font-size="13" font-weight="bold" lengthAdjust="spacing" textLength="7" x="101" y="339.2881">5</text><text fill="#000000" font-family="sans-serif" font-size="13" lengthAdjust="spacing" textLength="126" x="112" y="339.2881">200: "OK" Successful</text><!--SRC=[XP71JiCm38RlVGghzufkS8ggdg0x80HYSEEIfXv4PFQKE21uUjAqGglOXAL8YUt_-sr5Hs6A-nvzKMWZxA7i7AB0dIRzYhu47I0NYeFsOeqzQ18ecoPy1S5zsxxGDj_WaVjhpuGRpg9KBsPcrOul1PkR9xZmtBE4iM0_jE0CXnI_gIpD6ISGwPq_2MB0gUiuKYDKYJvDhk2gNYbu9XtbZRtznc6XG1SmSu1Ou4pJQUobWevzRuS1wGppYBVe67UOTiwsEuxqrt5oQgfgj4w6gxM21u-6QR1YcQ3JrfrQPoO79FaFkgvh1UNzRGdRQ0o6i8ikQp0DD9u1bp_m0m00]--></g></svg>