<?xml version="1.0" encoding="us-ascii" standalone="no"?><svg xmlns="http://www.w3.org/2000/svg" xmlns:xlink="http://www.w3.org/1999/xlink" contentStyleType="text/css" height="1274px" preserveAspectRatio="none" style="width:1339px;height:1274px;background:#FFFFFF;" version="1.1" viewBox="0 0 1339 1274" width="1339px" zoomAndPan="magnify"><defs/><g><rect fill="#FFFFFF" height="1087.5645" style="stroke:#181818;stroke-width:1.0;" width="10" x="74" y="93.6211"/><rect fill="#FFFFFF" height="436.7441" style="stroke:#181818;stroke-width:1.0;" width="10" x="281" y="116.9121"/><rect fill="#FFFFFF" height="574.2383" style="stroke:#181818;stroke-width:1.0;" width="10" x="281" y="584.9473"/><rect fill="#FFFFFF" height="374.1621" style="stroke:#181818;stroke-width:1.0;" width="10" x="425" y="148.2031"/><rect fill="#FFFFFF" height="511.6563" style="stroke:#181818;stroke-width:1.0;" width="10" x="425" y="616.2383"/><rect fill="#FFFFFF" height="206.0762" style="stroke:#181818;stroke-width:1.0;" width="10" x="795.5" y="179.4941"/><rect fill="#FFFFFF" height="200.0762" style="stroke:#181818;stroke-width:1.0;" width="10" x="795.5" y="691.1504"/><rect fill="#FFFFFF" height="31.291" style="stroke:#181818;stroke-width:1.0;" width="10" x="795.5" y="1028.0215"/><rect fill="#FFFFFF" height="96.873" style="stroke:#181818;stroke-width:1.0;" width="10" x="1113.5" y="213.7852"/><rect fill="#FFFFFF" height="93.873" style="stroke:#181818;stroke-width:1.0;" width="10" x="1113.5" y="722.4414"/><rect fill="none" height="773.6152" style="stroke:#000000;stroke-width:1.5;" width="1313.5" x="10" y="400.5703"/><rect fill="none" height="260.959" style="stroke:#000000;stroke-width:1.5;" width="842" x="20" y="906.2266"/><line style="stroke:#181818;stroke-width:0.5;stroke-dasharray:5.0,5.0;" x1="79" x2="79" y1="83.6211" y2="1191.1855"/><line style="stroke:#181818;stroke-width:0.5;stroke-dasharray:5.0,5.0;" x1="285.5" x2="285.5" y1="83.6211" y2="1191.1855"/><line style="stroke:#181818;stroke-width:0.5;stroke-dasharray:5.0,5.0;" x1="430" x2="430" y1="83.6211" y2="1191.1855"/><line style="stroke:#181818;stroke-width:0.5;stroke-dasharray:5.0,5.0;" x1="533" x2="533" y1="856.125" y2="1191.1855"/><line style="stroke:#181818;stroke-width:0.5;stroke-dasharray:5.0,5.0;" x1="667" x2="667" y1="656.0488" y2="1191.1855"/><line style="stroke:#181818;stroke-width:0.5;stroke-dasharray:5.0,5.0;" x1="800" x2="800" y1="83.6211" y2="1191.1855"/><line style="stroke:#181818;stroke-width:0.5;stroke-dasharray:5.0,5.0;" x1="1118.5" x2="1118.5" y1="83.6211" y2="1191.1855"/><text fill="#000000" font-family="sans-serif" font-size="14" lengthAdjust="spacing" textLength="92" x="30" y="80.1074">Fleet Manager</text><ellipse cx="79" cy="13.5" fill="#E2E2F0" rx="8" ry="8" style="stroke:#181818;stroke-width:0.5;"/><path d="M79,21.5 L79,48.5 M66,29.5 L92,29.5 M79,48.5 L66,63.5 M79,48.5 L92,63.5 " fill="none" style="stroke:#181818;stroke-width:0.5;"/><text fill="#000000" font-family="sans-serif" font-size="14" lengthAdjust="spacing" textLength="92" x="30" y="1205.293">Fleet Manager</text><ellipse cx="79" cy="1217.3066" fill="#E2E2F0" rx="8" ry="8" style="stroke:#181818;stroke-width:0.5;"/><path d="M79,1225.3066 L79,1252.3066 M66,1233.3066 L92,1233.3066 M79,1252.3066 L66,1267.3066 M79,1252.3066 L92,1267.3066 " fill="none" style="stroke:#181818;stroke-width:0.5;"/><rect fill="#E2E2F0" height="32.6211" rx="2.5" ry="2.5" style="stroke:#181818;stroke-width:0.5;" width="43" x="264.5" y="50"/><text fill="#000000" font-family="sans-serif" font-size="14" lengthAdjust="spacing" textLength="29" x="271.5" y="72.1074">View</text><rect fill="#E2E2F0" height="32.6211" rx="2.5" ry="2.5" style="stroke:#181818;stroke-width:0.5;" width="43" x="264.5" y="1190.1855"/><text fill="#000000" font-family="sans-serif" font-size="14" lengthAdjust="spacing" textLength="29" x="271.5" y="1212.293">View</text><rect fill="#E2E2F0" height="32.6211" rx="2.5" ry="2.5" style="stroke:#181818;stroke-width:0.5;" width="80" x="390" y="50"/><text fill="#000000" font-family="sans-serif" font-size="14" lengthAdjust="spacing" textLength="66" x="397" y="72.1074">:Controller</text><rect fill="#E2E2F0" height="32.6211" rx="2.5" ry="2.5" style="stroke:#181818;stroke-width:0.5;" width="80" x="390" y="1190.1855"/><text fill="#000000" font-family="sans-serif" font-size="14" lengthAdjust="spacing" textLength="66" x="397" y="1212.293">:Controller</text><rect fill="#E2E2F0" height="32.6211" rx="2.5" ry="2.5" style="stroke:#181818;stroke-width:0.5;" width="106" x="480" y="1190.1855"/><text fill="#000000" font-family="sans-serif" font-size="14" lengthAdjust="spacing" textLength="92" x="487" y="1212.293">dto:RobotDTO</text><rect fill="#E2E2F0" height="32.6211" rx="2.5" ry="2.5" style="stroke:#181818;stroke-width:0.5;" width="143" x="596" y="1190.1855"/><text fill="#000000" font-family="sans-serif" font-size="14" lengthAdjust="spacing" textLength="129" x="603" y="1212.293">dto:InhibitRobotDTO</text><rect fill="#E2E2F0" height="32.6211" rx="2.5" ry="2.5" style="stroke:#181818;stroke-width:0.5;" width="103" x="749" y="50"/><text fill="#000000" font-family="sans-serif" font-size="14" lengthAdjust="spacing" textLength="89" x="756" y="72.1074">:RobotService</text><rect fill="#E2E2F0" height="32.6211" rx="2.5" ry="2.5" style="stroke:#181818;stroke-width:0.5;" width="103" x="749" y="1190.1855"/><text fill="#000000" font-family="sans-serif" font-size="14" lengthAdjust="spacing" textLength="89" x="756" y="1212.293">:RobotService</text><rect fill="#E2E2F0" height="32.6211" rx="2.5" ry="2.5" style="stroke:#181818;stroke-width:0.5;" width="92" x="1072.5" y="50"/><text fill="#000000" font-family="sans-serif" font-size="14" lengthAdjust="spacing" textLength="78" x="1079.5" y="72.1074">HTTP Driver</text><rect fill="#E2E2F0" height="32.6211" rx="2.5" ry="2.5" style="stroke:#181818;stroke-width:0.5;" width="92" x="1072.5" y="1190.1855"/><text fill="#000000" font-family="sans-serif" font-size="14" lengthAdjust="spacing" textLength="78" x="1079.5" y="1212.293">HTTP Driver</text><rect fill="#FFFFFF" height="1087.5645" style="stroke:#181818;stroke-width:1.0;" width="10" x="74" y="93.6211"/><rect fill="#FFFFFF" height="436.7441" style="stroke:#181818;stroke-width:1.0;" width="10" x="281" y="116.9121"/><rect fill="#FFFFFF" height="574.2383" style="stroke:#181818;stroke-width:1.0;" width="10" x="281" y="584.9473"/><rect fill="#FFFFFF" height="374.1621" style="stroke:#181818;stroke-width:1.0;" width="10" x="425" y="148.2031"/><rect fill="#FFFFFF" height="511.6563" style="stroke:#181818;stroke-width:1.0;" width="10" x="425" y="616.2383"/><rect fill="#FFFFFF" height="206.0762" style="stroke:#181818;stroke-width:1.0;" width="10" x="795.5" y="179.4941"/><rect fill="#FFFFFF" height="200.0762" style="stroke:#181818;stroke-width:1.0;" width="10" x="795.5" y="691.1504"/><rect fill="#FFFFFF" height="31.291" style="stroke:#181818;stroke-width:1.0;" width="10" x="795.5" y="1028.0215"/><rect fill="#FFFFFF" height="96.873" style="stroke:#181818;stroke-width:1.0;" width="10" x="1113.5" y="213.7852"/><rect fill="#FFFFFF" height="93.873" style="stroke:#181818;stroke-width:1.0;" width="10" x="1113.5" y="722.4414"/><polygon fill="#181818" points="269,112.9121,279,116.9121,269,120.9121,273,116.9121" style="stroke:#181818;stroke-width:1.0;"/><line style="stroke:#181818;stroke-width:1.0;" x1="84" x2="275" y1="116.9121" y2="116.9121"/><text fill="#000000" font-family="sans-serif" font-size="13" font-weight="bold" lengthAdjust="spacing" textLength="7" x="91" y="111.6494">1</text><text fill="#000000" font-family="sans-serif" font-size="13" lengthAdjust="spacing" textLength="131" x="102" y="111.6494">wants to inhibit a robot</text><polygon fill="#181818" points="413,144.2031,423,148.2031,413,152.2031,417,148.2031" style="stroke:#181818;stroke-width:1.0;"/><line style="stroke:#181818;stroke-width:1.0;" x1="291" x2="419" y1="148.2031" y2="148.2031"/><text fill="#000000" font-family="sans-serif" font-size="13" font-weight="bold" lengthAdjust="spacing" textLength="7" x="298" y="142.9404">2</text><text fill="#000000" font-family="sans-serif" font-size="13" lengthAdjust="spacing" textLength="56" x="309" y="142.9404">ngOnInit()</text><polygon fill="#181818" points="783.5,175.4941,793.5,179.4941,783.5,183.4941,787.5,179.4941" style="stroke:#181818;stroke-width:1.0;"/><line style="stroke:#181818;stroke-width:1.0;" x1="435" x2="789.5" y1="179.4941" y2="179.4941"/><text fill="#000000" font-family="sans-serif" font-size="13" font-weight="bold" lengthAdjust="spacing" textLength="7" x="442" y="174.2314">3</text><text fill="#000000" font-family="sans-serif" font-size="13" lengthAdjust="spacing" textLength="67" x="453" y="174.2314">getRobots()</text><polygon fill="#181818" points="1101.5,209.7852,1111.5,213.7852,1101.5,217.7852,1105.5,213.7852" style="stroke:#181818;stroke-width:1.0;"/><line style="stroke:#181818;stroke-width:1.0;" x1="805.5" x2="1107.5" y1="213.7852" y2="213.7852"/><text fill="#000000" font-family="sans-serif" font-size="13" font-weight="bold" lengthAdjust="spacing" textLength="7" x="812.5" y="208.5225">4</text><text fill="#000000" font-family="sans-serif" font-size="13" lengthAdjust="spacing" textLength="115" x="823.5" y="208.5225">get(API_URI/robots)</text><path d="M1128,192.4941 L1128,219.4941 L1298,219.4941 L1298,202.4941 L1288,192.4941 L1128,192.4941 " fill="#FEFFDD" style="stroke:#181818;stroke-width:0.5;"/><path d="M1288,192.4941 L1288,202.4941 L1298,202.4941 L1288,192.4941 " fill="#FEFFDD" style="stroke:#181818;stroke-width:0.5;"/><text fill="#000000" font-family="sans-serif" font-size="13" lengthAdjust="spacing" textLength="149" x="1134" y="211.5225">see us380 documentation</text><polygon fill="#181818" points="1321.5,244.0762,1331.5,248.0762,1321.5,252.0762,1325.5,248.0762" style="stroke:#181818;stroke-width:1.0;"/><line style="stroke:#181818;stroke-width:1.0;" x1="1123.5" x2="1327.5" y1="248.0762" y2="248.0762"/><text fill="#000000" font-family="sans-serif" font-size="13" font-weight="bold" lengthAdjust="spacing" textLength="7" x="1130.5" y="242.8135">5</text><text fill="#000000" font-family="sans-serif" font-size="13" lengthAdjust="spacing" textLength="70" x="1141.5" y="242.8135">GET /robots</text><polygon fill="#181818" points="1134.5,275.3672,1124.5,279.3672,1134.5,283.3672,1130.5,279.3672" style="stroke:#181818;stroke-width:1.0;"/><line style="stroke:#181818;stroke-width:1.0;stroke-dasharray:2.0,2.0;" x1="1128.5" x2="1332.5" y1="279.3672" y2="279.3672"/><text fill="#000000" font-family="sans-serif" font-size="13" font-weight="bold" lengthAdjust="spacing" textLength="7" x="1140.5" y="274.1045">6</text><text fill="#000000" font-family="sans-serif" font-size="13" lengthAdjust="spacing" textLength="36" x="1151.5" y="274.1045">robots</text><polygon fill="#181818" points="816.5,306.6582,806.5,310.6582,816.5,314.6582,812.5,310.6582" style="stroke:#181818;stroke-width:1.0;"/><line style="stroke:#181818;stroke-width:1.0;stroke-dasharray:2.0,2.0;" x1="810.5" x2="1117.5" y1="310.6582" y2="310.6582"/><text fill="#000000" font-family="sans-serif" font-size="13" font-weight="bold" lengthAdjust="spacing" textLength="7" x="822.5" y="305.3955">7</text><text fill="#000000" font-family="sans-serif" font-size="13" lengthAdjust="spacing" textLength="36" x="833.5" y="305.3955">robots</text><polygon fill="#181818" points="597,337.9492,587,341.9492,597,345.9492,593,341.9492" style="stroke:#181818;stroke-width:1.0;"/><line style="stroke:#181818;stroke-width:1.0;stroke-dasharray:2.0,2.0;" x1="591" x2="794.5" y1="341.9492" y2="341.9492"/><text fill="#000000" font-family="sans-serif" font-size="13" font-weight="bold" lengthAdjust="spacing" textLength="7" x="603" y="336.6865">8</text><text fill="#000000" font-family="sans-serif" font-size="13" lengthAdjust="spacing" textLength="44" x="614" y="336.6865">create()</text><rect fill="#E2E2F0" height="32.6211" rx="2.5" ry="2.5" style="stroke:#181818;stroke-width:0.5;" width="106" x="480" y="318.6582"/><text fill="#000000" font-family="sans-serif" font-size="14" lengthAdjust="spacing" textLength="92" x="487" y="340.7656">dto:RobotDTO</text><polygon fill="#181818" points="446,381.5703,436,385.5703,446,389.5703,442,385.5703" style="stroke:#181818;stroke-width:1.0;"/><line style="stroke:#181818;stroke-width:1.0;stroke-dasharray:2.0,2.0;" x1="440" x2="799.5" y1="385.5703" y2="385.5703"/><text fill="#000000" font-family="sans-serif" font-size="13" font-weight="bold" lengthAdjust="spacing" textLength="7" x="452" y="380.3076">9</text><text fill="#000000" font-family="sans-serif" font-size="13" lengthAdjust="spacing" textLength="132" x="463" y="380.3076">observer&lt;RobotDTO[]&gt;</text><path d="M10,400.5703 L71,400.5703 L71,409.8613 L61,419.8613 L10,419.8613 L10,400.5703 " fill="#EEEEEE" style="stroke:#000000;stroke-width:1.5;"/><rect fill="none" height="773.6152" style="stroke:#000000;stroke-width:1.5;" width="1313.5" x="10" y="400.5703"/><text fill="#000000" font-family="sans-serif" font-size="13" font-weight="bold" lengthAdjust="spacing" textLength="16" x="25" y="415.5986">alt</text><text fill="#000000" font-family="sans-serif" font-size="11" font-weight="bold" lengthAdjust="spacing" textLength="97" x="86" y="414.4404">[robotList empty]</text><polygon fill="#181818" points="302,439.1523,292,443.1523,302,447.1523,298,443.1523" style="stroke:#181818;stroke-width:1.0;"/><line style="stroke:#181818;stroke-width:1.0;stroke-dasharray:2.0,2.0;" x1="296" x2="424" y1="443.1523" y2="443.1523"/><text fill="#000000" font-family="sans-serif" font-size="13" font-weight="bold" lengthAdjust="spacing" textLength="14" x="308" y="437.8896">10</text><text fill="#000000" font-family="sans-serif" font-size="13" lengthAdjust="spacing" textLength="26" x="326" y="437.8896">error</text><polygon fill="#181818" points="95,470.4434,85,474.4434,95,478.4434,91,474.4434" style="stroke:#181818;stroke-width:1.0;"/><line style="stroke:#181818;stroke-width:1.0;stroke-dasharray:2.0,2.0;" x1="89" x2="280" y1="474.4434" y2="474.4434"/><text fill="#000000" font-family="sans-serif" font-size="13" font-weight="bold" lengthAdjust="spacing" textLength="14" x="101" y="469.1807">11</text><text fill="#000000" font-family="sans-serif" font-size="13" lengthAdjust="spacing" textLength="65" x="119" y="469.1807">inform error</text><line style="stroke:#000000;stroke-width:1.0;stroke-dasharray:2.0,2.0;" x1="10" x2="1323.5" y1="483.4434" y2="483.4434"/><text fill="#000000" font-family="sans-serif" font-size="11" font-weight="bold" lengthAdjust="spacing" textLength="88" x="15" y="495.3135">[robot(s) found]</text><polygon fill="#181818" points="302,518.3652,292,522.3652,302,526.3652,298,522.3652" style="stroke:#181818;stroke-width:1.0;"/><line style="stroke:#181818;stroke-width:1.0;stroke-dasharray:2.0,2.0;" x1="296" x2="429" y1="522.3652" y2="522.3652"/><text fill="#000000" font-family="sans-serif" font-size="13" font-weight="bold" lengthAdjust="spacing" textLength="14" x="308" y="517.1025">12</text><text fill="#000000" font-family="sans-serif" font-size="13" lengthAdjust="spacing" textLength="36" x="326" y="517.1025">robots</text><polygon fill="#181818" points="95,549.6563,85,553.6563,95,557.6563,91,553.6563" style="stroke:#181818;stroke-width:1.0;"/><line style="stroke:#181818;stroke-width:1.0;stroke-dasharray:2.0,2.0;" x1="89" x2="285" y1="553.6563" y2="553.6563"/><text fill="#000000" font-family="sans-serif" font-size="13" font-weight="bold" lengthAdjust="spacing" textLength="14" x="101" y="548.3936">13</text><text fill="#000000" font-family="sans-serif" font-size="13" lengthAdjust="spacing" textLength="81" x="119" y="548.3936">display robots</text><polygon fill="#181818" points="269,580.9473,279,584.9473,269,588.9473,273,584.9473" style="stroke:#181818;stroke-width:1.0;"/><line style="stroke:#181818;stroke-width:1.0;" x1="84" x2="275" y1="584.9473" y2="584.9473"/><text fill="#000000" font-family="sans-serif" font-size="13" font-weight="bold" lengthAdjust="spacing" textLength="14" x="91" y="579.6846">14</text><text fill="#000000" font-family="sans-serif" font-size="13" lengthAdjust="spacing" textLength="82" x="109" y="579.6846">chooses robot</text><polygon fill="#181818" points="413,612.2383,423,616.2383,413,620.2383,417,616.2383" style="stroke:#181818;stroke-width:1.0;"/><line style="stroke:#181818;stroke-width:1.0;" x1="291" x2="419" y1="616.2383" y2="616.2383"/><text fill="#000000" font-family="sans-serif" font-size="13" font-weight="bold" lengthAdjust="spacing" textLength="14" x="298" y="610.9756">15</text><text fill="#000000" font-family="sans-serif" font-size="13" lengthAdjust="spacing" textLength="97" x="316" y="610.9756">inhibit(robotDTO)</text><polygon fill="#181818" points="584,643.5293,594,647.5293,584,651.5293,588,647.5293" style="stroke:#181818;stroke-width:1.0;"/><line style="stroke:#181818;stroke-width:1.0;" x1="435" x2="590" y1="647.5293" y2="647.5293"/><text fill="#000000" font-family="sans-serif" font-size="13" font-weight="bold" lengthAdjust="spacing" textLength="14" x="442" y="642.2666">16</text><text fill="#000000" font-family="sans-serif" font-size="13" lengthAdjust="spacing" textLength="44" x="460" y="642.2666">create()</text><rect fill="#E2E2F0" height="32.6211" rx="2.5" ry="2.5" style="stroke:#181818;stroke-width:0.5;" width="143" x="596" y="624.2383"/><text fill="#000000" font-family="sans-serif" font-size="14" lengthAdjust="spacing" textLength="129" x="603" y="646.3457">dto:InhibitRobotDTO</text><polygon fill="#181818" points="783.5,687.1504,793.5,691.1504,783.5,695.1504,787.5,691.1504" style="stroke:#181818;stroke-width:1.0;"/><line style="stroke:#181818;stroke-width:1.0;" x1="435" x2="789.5" y1="691.1504" y2="691.1504"/><text fill="#000000" font-family="sans-serif" font-size="13" font-weight="bold" lengthAdjust="spacing" textLength="14" x="442" y="685.8877">17</text><text fill="#000000" font-family="sans-serif" font-size="13" lengthAdjust="spacing" textLength="136" x="460" y="685.8877">inhibit(inhibitRobotDTO)</text><polygon fill="#181818" points="1101.5,718.4414,1111.5,722.4414,1101.5,726.4414,1105.5,722.4414" style="stroke:#181818;stroke-width:1.0;"/><line style="stroke:#181818;stroke-width:1.0;" x1="805.5" x2="1107.5" y1="722.4414" y2="722.4414"/><text fill="#000000" font-family="sans-serif" font-size="13" font-weight="bold" lengthAdjust="spacing" textLength="14" x="812.5" y="717.1787">18</text><text fill="#000000" font-family="sans-serif" font-size="13" lengthAdjust="spacing" textLength="271" x="830.5" y="717.1787">patch(API_URI/robots/:code/inhibit, robotState)</text><polygon fill="#181818" points="1321.5,749.7324,1331.5,753.7324,1321.5,757.7324,1325.5,753.7324" style="stroke:#181818;stroke-width:1.0;"/><line style="stroke:#181818;stroke-width:1.0;" x1="1123.5" x2="1327.5" y1="753.7324" y2="753.7324"/><text fill="#000000" font-family="sans-serif" font-size="13" font-weight="bold" lengthAdjust="spacing" textLength="14" x="1130.5" y="748.4697">19</text><text fill="#000000" font-family="sans-serif" font-size="13" lengthAdjust="spacing" textLength="161" x="1148.5" y="748.4697">PATCH /robots/:code/inhibit</text><polygon fill="#181818" points="1134.5,781.0234,1124.5,785.0234,1134.5,789.0234,1130.5,785.0234" style="stroke:#181818;stroke-width:1.0;"/><line style="stroke:#181818;stroke-width:1.0;stroke-dasharray:2.0,2.0;" x1="1128.5" x2="1332.5" y1="785.0234" y2="785.0234"/><text fill="#000000" font-family="sans-serif" font-size="13" font-weight="bold" lengthAdjust="spacing" textLength="14" x="1140.5" y="779.7607">20</text><text fill="#000000" font-family="sans-serif" font-size="13" lengthAdjust="spacing" textLength="29" x="1158.5" y="779.7607">robot</text><polygon fill="#181818" points="816.5,812.3145,806.5,816.3145,816.5,820.3145,812.5,816.3145" style="stroke:#181818;stroke-width:1.0;"/><line style="stroke:#181818;stroke-width:1.0;stroke-dasharray:2.0,2.0;" x1="810.5" x2="1117.5" y1="816.3145" y2="816.3145"/><text fill="#000000" font-family="sans-serif" font-size="13" font-weight="bold" lengthAdjust="spacing" textLength="14" x="822.5" y="811.0518">21</text><text fill="#000000" font-family="sans-serif" font-size="13" lengthAdjust="spacing" textLength="29" x="840.5" y="811.0518">robot</text><polygon fill="#181818" points="597,843.6055,587,847.6055,597,851.6055,593,847.6055" style="stroke:#181818;stroke-width:1.0;"/><line style="stroke:#181818;stroke-width:1.0;stroke-dasharray:2.0,2.0;" x1="591" x2="794.5" y1="847.6055" y2="847.6055"/><text fill="#000000" font-family="sans-serif" font-size="13" font-weight="bold" lengthAdjust="spacing" textLength="14" x="603" y="842.3428">22</text><text fill="#000000" font-family="sans-serif" font-size="13" lengthAdjust="spacing" textLength="44" x="621" y="842.3428">create()</text><rect fill="#E2E2F0" height="32.6211" rx="2.5" ry="2.5" style="stroke:#181818;stroke-width:0.5;" width="106" x="480" y="824.3145"/><text fill="#000000" font-family="sans-serif" font-size="14" lengthAdjust="spacing" textLength="92" x="487" y="846.4219">dto:RobotDTO</text><polygon fill="#181818" points="446,887.2266,436,891.2266,446,895.2266,442,891.2266" style="stroke:#181818;stroke-width:1.0;"/><line style="stroke:#181818;stroke-width:1.0;stroke-dasharray:2.0,2.0;" x1="440" x2="799.5" y1="891.2266" y2="891.2266"/><text fill="#000000" font-family="sans-serif" font-size="13" font-weight="bold" lengthAdjust="spacing" textLength="14" x="452" y="885.9639">23</text><text fill="#000000" font-family="sans-serif" font-size="13" lengthAdjust="spacing" textLength="124" x="470" y="885.9639">observer&lt;RobotDTO&gt;</text><path d="M20,906.2266 L81,906.2266 L81,915.5176 L71,925.5176 L20,925.5176 L20,906.2266 " fill="#EEEEEE" style="stroke:#000000;stroke-width:1.5;"/><rect fill="none" height="260.959" style="stroke:#000000;stroke-width:1.5;" width="842" x="20" y="906.2266"/><text fill="#000000" font-family="sans-serif" font-size="13" font-weight="bold" lengthAdjust="spacing" textLength="16" x="35" y="921.2549">alt</text><text fill="#000000" font-family="sans-serif" font-size="11" font-weight="bold" lengthAdjust="spacing" textLength="74" x="96" y="920.0967">[inhibit error]</text><polygon fill="#181818" points="302,944.8086,292,948.8086,302,952.8086,298,948.8086" style="stroke:#181818;stroke-width:1.0;"/><line style="stroke:#181818;stroke-width:1.0;stroke-dasharray:2.0,2.0;" x1="296" x2="424" y1="948.8086" y2="948.8086"/><text fill="#000000" font-family="sans-serif" font-size="13" font-weight="bold" lengthAdjust="spacing" textLength="14" x="308" y="943.5459">24</text><text fill="#000000" font-family="sans-serif" font-size="13" lengthAdjust="spacing" textLength="26" x="326" y="943.5459">error</text><polygon fill="#181818" points="95,976.0996,85,980.0996,95,984.0996,91,980.0996" style="stroke:#181818;stroke-width:1.0;"/><line style="stroke:#181818;stroke-width:1.0;stroke-dasharray:2.0,2.0;" x1="89" x2="280" y1="980.0996" y2="980.0996"/><text fill="#000000" font-family="sans-serif" font-size="13" font-weight="bold" lengthAdjust="spacing" textLength="14" x="101" y="974.8369">25</text><text fill="#000000" font-family="sans-serif" font-size="13" lengthAdjust="spacing" textLength="65" x="119" y="974.8369">inform error</text><line style="stroke:#000000;stroke-width:1.0;stroke-dasharray:2.0,2.0;" x1="20" x2="862" y1="989.0996" y2="989.0996"/><text fill="#000000" font-family="sans-serif" font-size="11" font-weight="bold" lengthAdjust="spacing" textLength="55" x="25" y="1000.9697">[success]</text><polygon fill="#181818" points="783.5,1024.0215,793.5,1028.0215,783.5,1032.0215,787.5,1028.0215" style="stroke:#181818;stroke-width:1.0;"/><line style="stroke:#181818;stroke-width:1.0;" x1="435" x2="789.5" y1="1028.0215" y2="1028.0215"/><text fill="#000000" font-family="sans-serif" font-size="13" font-weight="bold" lengthAdjust="spacing" textLength="14" x="442" y="1022.7588">26</text><text fill="#000000" font-family="sans-serif" font-size="13" lengthAdjust="spacing" textLength="67" x="460" y="1022.7588">getRobots()</text><polygon fill="#181818" points="446,1055.3125,436,1059.3125,446,1063.3125,442,1059.3125" style="stroke:#181818;stroke-width:1.0;"/><line style="stroke:#181818;stroke-width:1.0;stroke-dasharray:2.0,2.0;" x1="440" x2="799.5" y1="1059.3125" y2="1059.3125"/><text fill="#000000" font-family="sans-serif" font-size="13" font-weight="bold" lengthAdjust="spacing" textLength="14" x="452" y="1054.0498">27</text><text fill="#000000" font-family="sans-serif" font-size="13" lengthAdjust="spacing" textLength="50" x="470" y="1054.0498">robotList</text><path d="M617,1072.3125 L617,1099.3125 L795,1099.3125 L795,1082.3125 L785,1072.3125 L617,1072.3125 " fill="#FEFFDD" style="stroke:#181818;stroke-width:0.5;"/><path d="M785,1072.3125 L785,1082.3125 L795,1082.3125 L785,1072.3125 " fill="#FEFFDD" style="stroke:#181818;stroke-width:0.5;"/><text fill="#000000" font-family="sans-serif" font-size="13" lengthAdjust="spacing" textLength="157" x="623" y="1091.3408">Same as initial getRobots()</text><polygon fill="#181818" points="302,1123.8945,292,1127.8945,302,1131.8945,298,1127.8945" style="stroke:#181818;stroke-width:1.0;"/><line style="stroke:#181818;stroke-width:1.0;stroke-dasharray:2.0,2.0;" x1="296" x2="429" y1="1127.8945" y2="1127.8945"/><text fill="#000000" font-family="sans-serif" font-size="13" font-weight="bold" lengthAdjust="spacing" textLength="14" x="308" y="1122.6318">28</text><text fill="#000000" font-family="sans-serif" font-size="13" lengthAdjust="spacing" textLength="50" x="326" y="1122.6318">robotList</text><polygon fill="#181818" points="95,1155.1855,85,1159.1855,95,1163.1855,91,1159.1855" style="stroke:#181818;stroke-width:1.0;"/><line style="stroke:#181818;stroke-width:1.0;stroke-dasharray:2.0,2.0;" x1="89" x2="285" y1="1159.1855" y2="1159.1855"/><text fill="#000000" font-family="sans-serif" font-size="13" font-weight="bold" lengthAdjust="spacing" textLength="14" x="101" y="1153.9229">29</text><text fill="#000000" font-family="sans-serif" font-size="13" lengthAdjust="spacing" textLength="155" x="119" y="1153.9229">show updated list of robots</text><!--SRC=[jLLTQnf157ttLrnygOQAXRuK2K98saPeYKJJbnB2E7jr1zQPPUQkad_VkxEZxgT9scP0N7RFkL-SSqTaP7IsNQ7jzOGaOw7_BK4a-2cqsA3jWt2GEVwQ2ajAgbHeWlulXNl_QSSFrK-JQwF9cYG9P4asgR4ZCfDxip9qixpp6Fl4hvgOcOxLIb45gZoqbj8Z5cXtIg97kPsiOMwNopdSMBKBPSL4gMzPxGIXRn7uy3-CfhujcC2UgGx8W2eg0G4sJ-MXHwwV0OJZcHmXRviZwCsTdcb5W-4HSUJvoK3fU0vpkNgcRh3et9Mu5NxU9DHEJkK8UNT5YC7LVFRqS3yR-yBTiC7GXaDPjOc92GxpKNp-yWaY8xCjQXAaZ6wGZZNuCKBByHMCfeySzFlN9OJqtT3BqIZ71jYPaCVvT4ICi5fS-uWuYXVTnGL7aXOPFcZEviEfqKAYJK0fNG7fp1SKOLQEXOhsyY3htu_JNaS3NiOYeQBN7yeHu3QbvnRLd4IBrXfRGHIQP4IkxWcBUMtiDk0mSLY47xWXh4scexFHQrCl5LkHSorbf5oQYESokyJq1cgnduoDSUZUwhbWre4D0twBzLHJ56SiUiYagelgh_sQ2f9npR7ZYJGHZaEAZyKm5knB7FwRBUTNo-jRQCtoEfk-tgNlQjAN_FMokmxRlUcS_-0jbqc9phtBeWzTJqxxuLolZQsVu9h0h4CP2x55VyFoTQL4qbbMwqQevAulXQwju6ApXooD61X1acytBkRCYa3UJVclz3w_j_y0]--></g></svg>