<?xml version="1.0" encoding="us-ascii" standalone="no"?><svg xmlns="http://www.w3.org/2000/svg" xmlns:xlink="http://www.w3.org/1999/xlink" contentStyleType="text/css" height="736px" preserveAspectRatio="none" style="width:747px;height:736px;background:#FFFFFF;" version="1.1" viewBox="0 0 747 736" width="747px" zoomAndPan="magnify"><defs/><g><rect fill="#FFFFFF" height="549.918" style="stroke:#181818;stroke-width:1.0;" width="10" x="84" y="93.6211"/><rect fill="#FFFFFF" height="236.668" style="stroke:#181818;stroke-width:1.0;" width="10" x="335" y="116.9121"/><rect fill="#FFFFFF" height="258.668" style="stroke:#181818;stroke-width:1.0;" width="10" x="335" y="384.8711"/><rect fill="#FFFFFF" height="174.0859" style="stroke:#181818;stroke-width:1.0;" width="10" x="537" y="148.2031"/><rect fill="#FFFFFF" height="174.0859" style="stroke:#181818;stroke-width:1.0;" width="10" x="537" y="416.1621"/><rect fill="none" height="436.0449" style="stroke:#000000;stroke-width:1.5;" width="730" x="10" y="200.4941"/><rect fill="none" height="161.0859" style="stroke:#000000;stroke-width:1.5;" width="549.5" x="20" y="468.4531"/><line style="stroke:#181818;stroke-width:0.5;stroke-dasharray:5.0,5.0;" x1="89" x2="89" y1="83.6211" y2="653.5391"/><line style="stroke:#181818;stroke-width:0.5;stroke-dasharray:5.0,5.0;" x1="340" x2="340" y1="83.6211" y2="653.5391"/><line style="stroke:#181818;stroke-width:0.5;stroke-dasharray:5.0,5.0;" x1="541.5" x2="541.5" y1="83.6211" y2="653.5391"/><text fill="#000000" font-family="sans-serif" font-size="14" lengthAdjust="spacing" textLength="112" x="30" y="80.1074">Campus Manager</text><ellipse cx="89" cy="13.5" fill="#E2E2F0" rx="8" ry="8" style="stroke:#181818;stroke-width:0.5;"/><path d="M89,21.5 L89,48.5 M76,29.5 L102,29.5 M89,48.5 L76,63.5 M89,48.5 L102,63.5 " fill="none" style="stroke:#181818;stroke-width:0.5;"/><text fill="#000000" font-family="sans-serif" font-size="14" lengthAdjust="spacing" textLength="112" x="30" y="667.6465">Campus Manager</text><ellipse cx="89" cy="679.6602" fill="#E2E2F0" rx="8" ry="8" style="stroke:#181818;stroke-width:0.5;"/><path d="M89,687.6602 L89,714.6602 M76,695.6602 L102,695.6602 M89,714.6602 L76,729.6602 M89,714.6602 L102,729.6602 " fill="none" style="stroke:#181818;stroke-width:0.5;"/><rect fill="#E2E2F0" height="32.6211" rx="2.5" ry="2.5" style="stroke:#181818;stroke-width:0.5;" width="32" x="324" y="50"/><text fill="#000000" font-family="sans-serif" font-size="14" lengthAdjust="spacing" textLength="18" x="331" y="72.1074">FE</text><rect fill="#E2E2F0" height="32.6211" rx="2.5" ry="2.5" style="stroke:#181818;stroke-width:0.5;" width="32" x="324" y="652.5391"/><text fill="#000000" font-family="sans-serif" font-size="14" lengthAdjust="spacing" textLength="18" x="331" y="674.6465">FE</text><rect fill="#E2E2F0" height="32.6211" rx="2.5" ry="2.5" style="stroke:#181818;stroke-width:0.5;" width="35" x="524.5" y="50"/><text fill="#000000" font-family="sans-serif" font-size="14" lengthAdjust="spacing" textLength="21" x="531.5" y="72.1074">MD</text><rect fill="#E2E2F0" height="32.6211" rx="2.5" ry="2.5" style="stroke:#181818;stroke-width:0.5;" width="35" x="524.5" y="652.5391"/><text fill="#000000" font-family="sans-serif" font-size="14" lengthAdjust="spacing" textLength="21" x="531.5" y="674.6465">MD</text><rect fill="#FFFFFF" height="549.918" style="stroke:#181818;stroke-width:1.0;" width="10" x="84" y="93.6211"/><rect fill="#FFFFFF" height="236.668" style="stroke:#181818;stroke-width:1.0;" width="10" x="335" y="116.9121"/><rect fill="#FFFFFF" height="258.668" style="stroke:#181818;stroke-width:1.0;" width="10" x="335" y="384.8711"/><rect fill="#FFFFFF" height="174.0859" style="stroke:#181818;stroke-width:1.0;" width="10" x="537" y="148.2031"/><rect fill="#FFFFFF" height="174.0859" style="stroke:#181818;stroke-width:1.0;" width="10" x="537" y="416.1621"/><polygon fill="#181818" points="323,112.9121,333,116.9121,323,120.9121,327,116.9121" style="stroke:#181818;stroke-width:1.0;"/><line style="stroke:#181818;stroke-width:1.0;" x1="94" x2="329" y1="116.9121" y2="116.9121"/><text fill="#000000" font-family="sans-serif" font-size="13" font-weight="bold" lengthAdjust="spacing" textLength="7" x="101" y="111.6494">1</text><text fill="#000000" font-family="sans-serif" font-size="13" lengthAdjust="spacing" textLength="211" x="112" y="111.6494">wants to list elevators inside building</text><polygon fill="#181818" points="525,144.2031,535,148.2031,525,152.2031,529,148.2031" style="stroke:#181818;stroke-width:1.0;"/><line style="stroke:#181818;stroke-width:1.0;" x1="345" x2="531" y1="148.2031" y2="148.2031"/><text fill="#000000" font-family="sans-serif" font-size="13" font-weight="bold" lengthAdjust="spacing" textLength="7" x="352" y="142.9404">2</text><text fill="#000000" font-family="sans-serif" font-size="13" lengthAdjust="spacing" textLength="85" x="363" y="142.9404">GET /buildings</text><path d="M552,161.2031 L552,188.2031 L730,188.2031 L730,171.2031 L720,161.2031 L552,161.2031 " fill="#FEFFDD" style="stroke:#181818;stroke-width:0.5;"/><path d="M720,161.2031 L720,171.2031 L730,171.2031 L720,161.2031 " fill="#FEFFDD" style="stroke:#181818;stroke-width:0.5;"/><text fill="#000000" font-family="sans-serif" font-size="13" lengthAdjust="spacing" textLength="157" x="558" y="180.2314">see US 170 documentation</text><path d="M10,200.4941 L71,200.4941 L71,209.7852 L61,219.7852 L10,219.7852 L10,200.4941 " fill="#EEEEEE" style="stroke:#000000;stroke-width:1.5;"/><rect fill="none" height="436.0449" style="stroke:#000000;stroke-width:1.5;" width="730" x="10" y="200.4941"/><text fill="#000000" font-family="sans-serif" font-size="13" font-weight="bold" lengthAdjust="spacing" textLength="16" x="25" y="215.5225">alt</text><text fill="#000000" font-family="sans-serif" font-size="11" font-weight="bold" lengthAdjust="spacing" textLength="123" x="86" y="214.3643">[building(s) not found]</text><polygon fill="#181818" points="356,239.0762,346,243.0762,356,247.0762,352,243.0762" style="stroke:#181818;stroke-width:1.0;"/><line style="stroke:#181818;stroke-width:1.0;stroke-dasharray:2.0,2.0;" x1="350" x2="536" y1="243.0762" y2="243.0762"/><text fill="#000000" font-family="sans-serif" font-size="13" font-weight="bold" lengthAdjust="spacing" textLength="7" x="362" y="237.8135">3</text><text fill="#000000" font-family="sans-serif" font-size="13" lengthAdjust="spacing" textLength="55" x="373" y="237.8135">404: error</text><polygon fill="#181818" points="105,270.3672,95,274.3672,105,278.3672,101,274.3672" style="stroke:#181818;stroke-width:1.0;"/><line style="stroke:#181818;stroke-width:1.0;stroke-dasharray:2.0,2.0;" x1="99" x2="334" y1="274.3672" y2="274.3672"/><text fill="#000000" font-family="sans-serif" font-size="13" font-weight="bold" lengthAdjust="spacing" textLength="7" x="111" y="269.1045">4</text><text fill="#000000" font-family="sans-serif" font-size="13" lengthAdjust="spacing" textLength="162" x="122" y="269.1045">informs building(s) not found</text><line style="stroke:#000000;stroke-width:1.0;stroke-dasharray:2.0,2.0;" x1="10" x2="740" y1="283.3672" y2="283.3672"/><text fill="#000000" font-family="sans-serif" font-size="11" font-weight="bold" lengthAdjust="spacing" textLength="102" x="15" y="295.2373">[building(s) found]</text><polygon fill="#181818" points="356,318.2891,346,322.2891,356,326.2891,352,322.2891" style="stroke:#181818;stroke-width:1.0;"/><line style="stroke:#181818;stroke-width:1.0;stroke-dasharray:2.0,2.0;" x1="350" x2="541" y1="322.2891" y2="322.2891"/><text fill="#000000" font-family="sans-serif" font-size="13" font-weight="bold" lengthAdjust="spacing" textLength="7" x="362" y="317.0264">5</text><text fill="#000000" font-family="sans-serif" font-size="13" lengthAdjust="spacing" textLength="80" x="373" y="317.0264">200: buildings</text><polygon fill="#181818" points="105,349.5801,95,353.5801,105,357.5801,101,353.5801" style="stroke:#181818;stroke-width:1.0;"/><line style="stroke:#181818;stroke-width:1.0;stroke-dasharray:2.0,2.0;" x1="99" x2="339" y1="353.5801" y2="353.5801"/><text fill="#000000" font-family="sans-serif" font-size="13" font-weight="bold" lengthAdjust="spacing" textLength="7" x="111" y="348.3174">6</text><text fill="#000000" font-family="sans-serif" font-size="13" lengthAdjust="spacing" textLength="189" x="122" y="348.3174">shows buildings and request one</text><polygon fill="#181818" points="323,380.8711,333,384.8711,323,388.8711,327,384.8711" style="stroke:#181818;stroke-width:1.0;"/><line style="stroke:#181818;stroke-width:1.0;" x1="94" x2="329" y1="384.8711" y2="384.8711"/><text fill="#000000" font-family="sans-serif" font-size="13" font-weight="bold" lengthAdjust="spacing" textLength="7" x="101" y="379.6084">7</text><text fill="#000000" font-family="sans-serif" font-size="13" lengthAdjust="spacing" textLength="97" x="112" y="379.6084">chooses building</text><polygon fill="#181818" points="525,412.1621,535,416.1621,525,420.1621,529,416.1621" style="stroke:#181818;stroke-width:1.0;"/><line style="stroke:#181818;stroke-width:1.0;" x1="345" x2="531" y1="416.1621" y2="416.1621"/><text fill="#000000" font-family="sans-serif" font-size="13" font-weight="bold" lengthAdjust="spacing" textLength="7" x="352" y="410.8994">8</text><text fill="#000000" font-family="sans-serif" font-size="13" lengthAdjust="spacing" textLength="162" x="363" y="410.8994">GET /buildings/{id}/elevators</text><path d="M552,429.1621 L552,456.1621 L730,456.1621 L730,439.1621 L720,429.1621 L552,429.1621 " fill="#FEFFDD" style="stroke:#181818;stroke-width:0.5;"/><path d="M720,429.1621 L720,439.1621 L730,439.1621 L720,429.1621 " fill="#FEFFDD" style="stroke:#181818;stroke-width:0.5;"/><text fill="#000000" font-family="sans-serif" font-size="13" lengthAdjust="spacing" textLength="157" x="558" y="448.1904">see US 290 documentation</text><path d="M20,468.4531 L81,468.4531 L81,477.7441 L71,487.7441 L20,487.7441 L20,468.4531 " fill="#EEEEEE" style="stroke:#000000;stroke-width:1.5;"/><rect fill="none" height="161.0859" style="stroke:#000000;stroke-width:1.5;" width="549.5" x="20" y="468.4531"/><text fill="#000000" font-family="sans-serif" font-size="13" font-weight="bold" lengthAdjust="spacing" textLength="16" x="35" y="483.4814">alt</text><text fill="#000000" font-family="sans-serif" font-size="11" font-weight="bold" lengthAdjust="spacing" textLength="124" x="96" y="482.3232">[elevator(s) not found]</text><polygon fill="#181818" points="356,507.0352,346,511.0352,356,515.0352,352,511.0352" style="stroke:#181818;stroke-width:1.0;"/><line style="stroke:#181818;stroke-width:1.0;stroke-dasharray:2.0,2.0;" x1="350" x2="536" y1="511.0352" y2="511.0352"/><text fill="#000000" font-family="sans-serif" font-size="13" font-weight="bold" lengthAdjust="spacing" textLength="7" x="362" y="505.7725">9</text><text fill="#000000" font-family="sans-serif" font-size="13" lengthAdjust="spacing" textLength="55" x="373" y="505.7725">404: error</text><polygon fill="#181818" points="105,538.3262,95,542.3262,105,546.3262,101,542.3262" style="stroke:#181818;stroke-width:1.0;"/><line style="stroke:#181818;stroke-width:1.0;stroke-dasharray:2.0,2.0;" x1="99" x2="334" y1="542.3262" y2="542.3262"/><text fill="#000000" font-family="sans-serif" font-size="13" font-weight="bold" lengthAdjust="spacing" textLength="14" x="111" y="537.0635">10</text><text fill="#000000" font-family="sans-serif" font-size="13" lengthAdjust="spacing" textLength="162" x="129" y="537.0635">informs elevator(s) not found</text><line style="stroke:#000000;stroke-width:1.0;stroke-dasharray:2.0,2.0;" x1="20" x2="569.5" y1="551.3262" y2="551.3262"/><text fill="#000000" font-family="sans-serif" font-size="11" font-weight="bold" lengthAdjust="spacing" textLength="103" x="25" y="563.1963">[elevator(s) found]</text><polygon fill="#181818" points="356,586.248,346,590.248,356,594.248,352,590.248" style="stroke:#181818;stroke-width:1.0;"/><line style="stroke:#181818;stroke-width:1.0;stroke-dasharray:2.0,2.0;" x1="350" x2="541" y1="590.248" y2="590.248"/><text fill="#000000" font-family="sans-serif" font-size="13" font-weight="bold" lengthAdjust="spacing" textLength="14" x="362" y="584.9854">11</text><text fill="#000000" font-family="sans-serif" font-size="13" lengthAdjust="spacing" textLength="80" x="380" y="584.9854">200: elevators</text><polygon fill="#181818" points="105,617.5391,95,621.5391,105,625.5391,101,621.5391" style="stroke:#181818;stroke-width:1.0;"/><line style="stroke:#181818;stroke-width:1.0;stroke-dasharray:2.0,2.0;" x1="99" x2="334" y1="621.5391" y2="621.5391"/><text fill="#000000" font-family="sans-serif" font-size="13" font-weight="bold" lengthAdjust="spacing" textLength="14" x="111" y="616.2764">12</text><text fill="#000000" font-family="sans-serif" font-size="13" lengthAdjust="spacing" textLength="92" x="129" y="616.2764">shows elevators</text><!--SRC=[fPEnJiCm48RtFCMf4mnLGrK9aO452bCdu07S-DfQIdp1PzC1yUvSqiPf28GYl5Ys__lljxz41Kysb6jqIQ9oJmucTwgi0iDAMRL5Dm7545YEA-MyoKsbh8V9m_9mOFhRg_jckzIDctbJ7fjYa24pJ6-b13BOYvh14nI6FM21eYJ7O2mRZR0Efj36RfkwpiWqwyRBr5Qb5gl7vJFCsWAE2ajIuSnsvu4s1oKZmiiJN5sde2aF9Lgll24RQsAdEd_SB7pCSy6NjJ5iA5WT5UsG9jFsWejqaG4wHsuWgxFNCdcEJ2wy8LVoBnsmOEn93iUZ2UPfci7mNUBGU7fT64t9Ezft6HcKrU3mDQ308ul95py1bGoGvpiYHlu7szcxqH-p-B6SWNf-ysVKhVtFgC_0_2tYSUS6yQdaY3WPvJjyZ3xMP0HdLzk5E0PgvpxJqvNyqvy0]--></g></svg>