<?xml version="1.0" encoding="us-ascii" standalone="no"?><svg xmlns="http://www.w3.org/2000/svg" xmlns:xlink="http://www.w3.org/1999/xlink" contentStyleType="text/css" height="736px" preserveAspectRatio="none" style="width:757px;height:736px;background:#FFFFFF;" version="1.1" viewBox="0 0 757 736" width="757px" zoomAndPan="magnify"><defs/><g><rect fill="#FFFFFF" height="549.918" style="stroke:#181818;stroke-width:1.0;" width="10" x="84" y="93.6211"/><rect fill="#FFFFFF" height="236.668" style="stroke:#181818;stroke-width:1.0;" width="10" x="335" y="116.9121"/><rect fill="#FFFFFF" height="258.668" style="stroke:#181818;stroke-width:1.0;" width="10" x="335" y="384.8711"/><rect fill="#FFFFFF" height="174.0859" style="stroke:#181818;stroke-width:1.0;" width="10" x="537" y="148.2031"/><rect fill="#FFFFFF" height="174.0859" style="stroke:#181818;stroke-width:1.0;" width="10" x="537" y="416.1621"/><rect fill="none" height="473.3359" style="stroke:#000000;stroke-width:1.5;" width="740" x="10" y="163.2031"/><rect fill="none" height="198.377" style="stroke:#000000;stroke-width:1.5;" width="720" x="20" y="431.1621"/><line style="stroke:#181818;stroke-width:0.5;stroke-dasharray:5.0,5.0;" x1="89" x2="89" y1="83.6211" y2="653.5391"/><line style="stroke:#181818;stroke-width:0.5;stroke-dasharray:5.0,5.0;" x1="340" x2="340" y1="83.6211" y2="653.5391"/><line style="stroke:#181818;stroke-width:0.5;stroke-dasharray:5.0,5.0;" x1="541.5" x2="541.5" y1="83.6211" y2="653.5391"/><text fill="#000000" font-family="sans-serif" font-size="14" lengthAdjust="spacing" textLength="112" x="30" y="80.1074">Campus Manager</text><ellipse cx="89" cy="13.5" fill="#E2E2F0" rx="8" ry="8" style="stroke:#181818;stroke-width:0.5;"/><path d="M89,21.5 L89,48.5 M76,29.5 L102,29.5 M89,48.5 L76,63.5 M89,48.5 L102,63.5 " fill="none" style="stroke:#181818;stroke-width:0.5;"/><text fill="#000000" font-family="sans-serif" font-size="14" lengthAdjust="spacing" textLength="112" x="30" y="667.6465">Campus Manager</text><ellipse cx="89" cy="679.6602" fill="#E2E2F0" rx="8" ry="8" style="stroke:#181818;stroke-width:0.5;"/><path d="M89,687.6602 L89,714.6602 M76,695.6602 L102,695.6602 M89,714.6602 L76,729.6602 M89,714.6602 L102,729.6602 " fill="none" style="stroke:#181818;stroke-width:0.5;"/><rect fill="#E2E2F0" height="32.6211" rx="2.5" ry="2.5" style="stroke:#181818;stroke-width:0.5;" width="32" x="324" y="50"/><text fill="#000000" font-family="sans-serif" font-size="14" lengthAdjust="spacing" textLength="18" x="331" y="72.1074">FE</text><rect fill="#E2E2F0" height="32.6211" rx="2.5" ry="2.5" style="stroke:#181818;stroke-width:0.5;" width="32" x="324" y="652.5391"/><text fill="#000000" font-family="sans-serif" font-size="14" lengthAdjust="spacing" textLength="18" x="331" y="674.6465">FE</text><rect fill="#E2E2F0" height="32.6211" rx="2.5" ry="2.5" style="stroke:#181818;stroke-width:0.5;" width="35" x="524.5" y="50"/><text fill="#000000" font-family="sans-serif" font-size="14" lengthAdjust="spacing" textLength="21" x="531.5" y="72.1074">MD</text><rect fill="#E2E2F0" height="32.6211" rx="2.5" ry="2.5" style="stroke:#181818;stroke-width:0.5;" width="35" x="524.5" y="652.5391"/><text fill="#000000" font-family="sans-serif" font-size="14" lengthAdjust="spacing" textLength="21" x="531.5" y="674.6465">MD</text><rect fill="#FFFFFF" height="549.918" style="stroke:#181818;stroke-width:1.0;" width="10" x="84" y="93.6211"/><rect fill="#FFFFFF" height="236.668" style="stroke:#181818;stroke-width:1.0;" width="10" x="335" y="116.9121"/><rect fill="#FFFFFF" height="258.668" style="stroke:#181818;stroke-width:1.0;" width="10" x="335" y="384.8711"/><rect fill="#FFFFFF" height="174.0859" style="stroke:#181818;stroke-width:1.0;" width="10" x="537" y="148.2031"/><rect fill="#FFFFFF" height="174.0859" style="stroke:#181818;stroke-width:1.0;" width="10" x="537" y="416.1621"/><polygon fill="#181818" points="323,112.9121,333,116.9121,323,120.9121,327,116.9121" style="stroke:#181818;stroke-width:1.0;"/><line style="stroke:#181818;stroke-width:1.0;" x1="94" x2="329" y1="116.9121" y2="116.9121"/><text fill="#000000" font-family="sans-serif" font-size="13" font-weight="bold" lengthAdjust="spacing" textLength="7" x="101" y="111.6494">1</text><text fill="#000000" font-family="sans-serif" font-size="13" lengthAdjust="spacing" textLength="211" x="112" y="111.6494">wants to list elevators inside building</text><polygon fill="#181818" points="525,144.2031,535,148.2031,525,152.2031,529,148.2031" style="stroke:#181818;stroke-width:1.0;"/><line style="stroke:#181818;stroke-width:1.0;" x1="345" x2="531" y1="148.2031" y2="148.2031"/><text fill="#000000" font-family="sans-serif" font-size="13" font-weight="bold" lengthAdjust="spacing" textLength="7" x="352" y="142.9404">2</text><text fill="#000000" font-family="sans-serif" font-size="13" lengthAdjust="spacing" textLength="85" x="363" y="142.9404">GET /buildings</text><path d="M10,163.2031 L71,163.2031 L71,172.4941 L61,182.4941 L10,182.4941 L10,163.2031 " fill="#EEEEEE" style="stroke:#000000;stroke-width:1.5;"/><rect fill="none" height="473.3359" style="stroke:#000000;stroke-width:1.5;" width="740" x="10" y="163.2031"/><text fill="#000000" font-family="sans-serif" font-size="13" font-weight="bold" lengthAdjust="spacing" textLength="16" x="25" y="178.2314">alt</text><text fill="#000000" font-family="sans-serif" font-size="11" font-weight="bold" lengthAdjust="spacing" textLength="123" x="86" y="177.0732">[building(s) not found]</text><polygon fill="#181818" points="356,201.7852,346,205.7852,356,209.7852,352,205.7852" style="stroke:#181818;stroke-width:1.0;"/><line style="stroke:#181818;stroke-width:1.0;stroke-dasharray:2.0,2.0;" x1="350" x2="536" y1="205.7852" y2="205.7852"/><text fill="#000000" font-family="sans-serif" font-size="13" font-weight="bold" lengthAdjust="spacing" textLength="7" x="362" y="200.5225">3</text><text fill="#000000" font-family="sans-serif" font-size="13" lengthAdjust="spacing" textLength="55" x="373" y="200.5225">404: error</text><polygon fill="#181818" points="105,233.0762,95,237.0762,105,241.0762,101,237.0762" style="stroke:#181818;stroke-width:1.0;"/><line style="stroke:#181818;stroke-width:1.0;stroke-dasharray:2.0,2.0;" x1="99" x2="334" y1="237.0762" y2="237.0762"/><text fill="#000000" font-family="sans-serif" font-size="13" font-weight="bold" lengthAdjust="spacing" textLength="7" x="111" y="231.8135">4</text><text fill="#000000" font-family="sans-serif" font-size="13" lengthAdjust="spacing" textLength="162" x="122" y="231.8135">informs building(s) not found</text><line style="stroke:#000000;stroke-width:1.0;stroke-dasharray:2.0,2.0;" x1="10" x2="750" y1="246.0762" y2="246.0762"/><text fill="#000000" font-family="sans-serif" font-size="11" font-weight="bold" lengthAdjust="spacing" textLength="102" x="15" y="257.9463">[building(s) found]</text><path d="M552,266.707 L552,293.707 L730,293.707 L730,276.707 L720,266.707 L552,266.707 " fill="#FEFFDD" style="stroke:#181818;stroke-width:0.5;"/><path d="M720,266.707 L720,276.707 L730,276.707 L720,266.707 " fill="#FEFFDD" style="stroke:#181818;stroke-width:0.5;"/><text fill="#000000" font-family="sans-serif" font-size="13" lengthAdjust="spacing" textLength="157" x="558" y="285.7354">see US 170 documentation</text><polygon fill="#181818" points="356,318.2891,346,322.2891,356,326.2891,352,322.2891" style="stroke:#181818;stroke-width:1.0;"/><line style="stroke:#181818;stroke-width:1.0;stroke-dasharray:2.0,2.0;" x1="350" x2="541" y1="322.2891" y2="322.2891"/><text fill="#000000" font-family="sans-serif" font-size="13" font-weight="bold" lengthAdjust="spacing" textLength="7" x="362" y="317.0264">5</text><text fill="#000000" font-family="sans-serif" font-size="13" lengthAdjust="spacing" textLength="80" x="373" y="317.0264">200: buildings</text><polygon fill="#181818" points="105,349.5801,95,353.5801,105,357.5801,101,353.5801" style="stroke:#181818;stroke-width:1.0;"/><line style="stroke:#181818;stroke-width:1.0;stroke-dasharray:2.0,2.0;" x1="99" x2="339" y1="353.5801" y2="353.5801"/><text fill="#000000" font-family="sans-serif" font-size="13" font-weight="bold" lengthAdjust="spacing" textLength="7" x="111" y="348.3174">6</text><text fill="#000000" font-family="sans-serif" font-size="13" lengthAdjust="spacing" textLength="189" x="122" y="348.3174">shows buildings and request one</text><polygon fill="#181818" points="323,380.8711,333,384.8711,323,388.8711,327,384.8711" style="stroke:#181818;stroke-width:1.0;"/><line style="stroke:#181818;stroke-width:1.0;" x1="94" x2="329" y1="384.8711" y2="384.8711"/><text fill="#000000" font-family="sans-serif" font-size="13" font-weight="bold" lengthAdjust="spacing" textLength="7" x="101" y="379.6084">7</text><text fill="#000000" font-family="sans-serif" font-size="13" lengthAdjust="spacing" textLength="97" x="112" y="379.6084">chooses building</text><polygon fill="#181818" points="525,412.1621,535,416.1621,525,420.1621,529,416.1621" style="stroke:#181818;stroke-width:1.0;"/><line style="stroke:#181818;stroke-width:1.0;" x1="345" x2="531" y1="416.1621" y2="416.1621"/><text fill="#000000" font-family="sans-serif" font-size="13" font-weight="bold" lengthAdjust="spacing" textLength="7" x="352" y="410.8994">8</text><text fill="#000000" font-family="sans-serif" font-size="13" lengthAdjust="spacing" textLength="162" x="363" y="410.8994">GET /buildings/{id}/elevators</text><path d="M20,431.1621 L81,431.1621 L81,440.4531 L71,450.4531 L20,450.4531 L20,431.1621 " fill="#EEEEEE" style="stroke:#000000;stroke-width:1.5;"/><rect fill="none" height="198.377" style="stroke:#000000;stroke-width:1.5;" width="720" x="20" y="431.1621"/><text fill="#000000" font-family="sans-serif" font-size="13" font-weight="bold" lengthAdjust="spacing" textLength="16" x="35" y="446.1904">alt</text><text fill="#000000" font-family="sans-serif" font-size="11" font-weight="bold" lengthAdjust="spacing" textLength="124" x="96" y="445.0322">[elevator(s) not found]</text><polygon fill="#181818" points="356,469.7441,346,473.7441,356,477.7441,352,473.7441" style="stroke:#181818;stroke-width:1.0;"/><line style="stroke:#181818;stroke-width:1.0;stroke-dasharray:2.0,2.0;" x1="350" x2="536" y1="473.7441" y2="473.7441"/><text fill="#000000" font-family="sans-serif" font-size="13" font-weight="bold" lengthAdjust="spacing" textLength="7" x="362" y="468.4814">9</text><text fill="#000000" font-family="sans-serif" font-size="13" lengthAdjust="spacing" textLength="55" x="373" y="468.4814">404: error</text><polygon fill="#181818" points="105,501.0352,95,505.0352,105,509.0352,101,505.0352" style="stroke:#181818;stroke-width:1.0;"/><line style="stroke:#181818;stroke-width:1.0;stroke-dasharray:2.0,2.0;" x1="99" x2="334" y1="505.0352" y2="505.0352"/><text fill="#000000" font-family="sans-serif" font-size="13" font-weight="bold" lengthAdjust="spacing" textLength="14" x="111" y="499.7725">10</text><text fill="#000000" font-family="sans-serif" font-size="13" lengthAdjust="spacing" textLength="162" x="129" y="499.7725">informs elevator(s) not found</text><line style="stroke:#000000;stroke-width:1.0;stroke-dasharray:2.0,2.0;" x1="20" x2="740" y1="514.0352" y2="514.0352"/><text fill="#000000" font-family="sans-serif" font-size="11" font-weight="bold" lengthAdjust="spacing" textLength="103" x="25" y="525.9053">[elevator(s) found]</text><path d="M552,534.666 L552,561.666 L730,561.666 L730,544.666 L720,534.666 L552,534.666 " fill="#FEFFDD" style="stroke:#181818;stroke-width:0.5;"/><path d="M720,534.666 L720,544.666 L730,544.666 L720,534.666 " fill="#FEFFDD" style="stroke:#181818;stroke-width:0.5;"/><text fill="#000000" font-family="sans-serif" font-size="13" lengthAdjust="spacing" textLength="157" x="558" y="553.6943">see US 290 documentation</text><polygon fill="#181818" points="356,586.248,346,590.248,356,594.248,352,590.248" style="stroke:#181818;stroke-width:1.0;"/><line style="stroke:#181818;stroke-width:1.0;stroke-dasharray:2.0,2.0;" x1="350" x2="541" y1="590.248" y2="590.248"/><text fill="#000000" font-family="sans-serif" font-size="13" font-weight="bold" lengthAdjust="spacing" textLength="14" x="362" y="584.9854">11</text><text fill="#000000" font-family="sans-serif" font-size="13" lengthAdjust="spacing" textLength="80" x="380" y="584.9854">200: elevators</text><polygon fill="#181818" points="105,617.5391,95,621.5391,105,625.5391,101,621.5391" style="stroke:#181818;stroke-width:1.0;"/><line style="stroke:#181818;stroke-width:1.0;stroke-dasharray:2.0,2.0;" x1="99" x2="334" y1="621.5391" y2="621.5391"/><text fill="#000000" font-family="sans-serif" font-size="13" font-weight="bold" lengthAdjust="spacing" textLength="14" x="111" y="616.2764">12</text><text fill="#000000" font-family="sans-serif" font-size="13" lengthAdjust="spacing" textLength="92" x="129" y="616.2764">shows elevators</text><!--SRC=[fPEnJiCm48RtFCMf4mnLGrK9aO452bCdu07S-DfQIdp1PzC1yUvSN98qfAILy6BP_l_VT_uI5JpPKAxH9OdAFJcOFAYo2WmhPTKMtGGKGs0vhfJp9ZULiXucJyl3WUblhnxZTgbZclbG7gCPPCWCqtknG0PxKJDuWiAm1onGbEGOZ6MZ4TR15DhORVHrGIQkOvQfeqejKS_BLvWr1cuLhQkkfTqiV9jznTTWoSE6WjMjeXaIFMsANQIB3D0vSWDPNKSjazOoANv3hkGpDs31s9ESBa2C2CviTnveS-YK4U7j1MvkKz2KXnAjLzwG7Ir-dgOP39-d7HgFNmf66-GTxRls69JLuF0ze30aYyclFE6L3CZdEo96_WVYsQVHNxFscpbFl97-JVm2sYT9ZoT7qiUImt5o6URvtHZc0UBXU_J99YD4EszN-qyVpTp7UhoIl_iR]--></g></svg>