<?xml version="1.0" encoding="us-ascii" standalone="no"?><svg xmlns="http://www.w3.org/2000/svg" xmlns:xlink="http://www.w3.org/1999/xlink" contentStyleType="text/css" height="784px" preserveAspectRatio="none" style="width:988px;height:784px;background:#FFFFFF;" version="1.1" viewBox="0 0 988 784" width="988px" zoomAndPan="magnify"><defs/><g><rect fill="#FFFFFF" height="588.4143" style="stroke:#181818;stroke-width:1.0;" width="10" x="78" y="94.0679"/><rect fill="#FFFFFF" height="95.118" style="stroke:#181818;stroke-width:1.0;" width="10" x="374" y="117.7739"/><rect fill="#FFFFFF" height="95.118" style="stroke:#181818;stroke-width:1.0;" width="10" x="374" y="244.598"/><rect fill="#FFFFFF" height="95.118" style="stroke:#181818;stroke-width:1.0;" width="10" x="374" y="398.1281"/><rect fill="#FFFFFF" height="150.5301" style="stroke:#181818;stroke-width:1.0;" width="10" x="374" y="531.9521"/><rect fill="#FFFFFF" height="31.706" style="stroke:#181818;stroke-width:1.0;" width="10" x="724" y="149.4799"/><rect fill="#FFFFFF" height="31.706" style="stroke:#181818;stroke-width:1.0;" width="10" x="724" y="276.304"/><rect fill="#FFFFFF" height="31.706" style="stroke:#181818;stroke-width:1.0;" width="10" x="724" y="429.8341"/><rect fill="#FFFFFF" height="87.118" style="stroke:#181818;stroke-width:1.0;" width="10" x="724" y="563.6582"/><rect fill="none" height="146.5301" style="stroke:#000000;stroke-width:1.5;" width="747.5" x="10" y="354.716"/><line style="stroke:#181818;stroke-width:0.5;stroke-dasharray:5.0,5.0;" x1="83" x2="83" y1="84.0679" y2="700.4822"/><line style="stroke:#181818;stroke-width:0.5;stroke-dasharray:5.0,5.0;" x1="379" x2="379" y1="84.0679" y2="700.4822"/><line style="stroke:#181818;stroke-width:0.5;stroke-dasharray:5.0,5.0;" x1="728.5" x2="728.5" y1="84.0679" y2="700.4822"/><text fill="#000000" font-family="sans-serif" font-size="14" lengthAdjust="spacing" textLength="120" x="20" y="79.9659">Campus Manager</text><ellipse cx="83" cy="13.5" fill="#E2E2F0" rx="8" ry="8" style="stroke:#181818;stroke-width:0.5;"/><path d="M83,21.5 L83,48.5 M70,29.5 L96,29.5 M83,48.5 L70,63.5 M83,48.5 L96,63.5 " fill="none" style="stroke:#181818;stroke-width:0.5;"/><text fill="#000000" font-family="sans-serif" font-size="14" lengthAdjust="spacing" textLength="120" x="20" y="714.4482">Campus Manager</text><ellipse cx="83" cy="727.0501" fill="#E2E2F0" rx="8" ry="8" style="stroke:#181818;stroke-width:0.5;"/><path d="M83,735.0501 L83,762.0501 M70,743.0501 L96,743.0501 M83,762.0501 L70,777.0501 M83,762.0501 L96,777.0501 " fill="none" style="stroke:#181818;stroke-width:0.5;"/><rect fill="#E2E2F0" height="33.0679" rx="2.5" ry="2.5" style="stroke:#181818;stroke-width:0.5;" width="80" x="339" y="50"/><text fill="#000000" font-family="sans-serif" font-size="14" lengthAdjust="spacing" textLength="66" x="346" y="71.9659">Front-end</text><rect fill="#E2E2F0" height="33.0679" rx="2.5" ry="2.5" style="stroke:#181818;stroke-width:0.5;" width="80" x="339" y="699.4822"/><text fill="#000000" font-family="sans-serif" font-size="14" lengthAdjust="spacing" textLength="66" x="346" y="721.4482">Front-end</text><rect fill="#E2E2F0" height="33.0679" rx="2.5" ry="2.5" style="stroke:#181818;stroke-width:0.5;" width="37" x="710.5" y="50"/><text fill="#000000" font-family="sans-serif" font-size="14" lengthAdjust="spacing" textLength="23" x="717.5" y="71.9659">MD</text><rect fill="#E2E2F0" height="33.0679" rx="2.5" ry="2.5" style="stroke:#181818;stroke-width:0.5;" width="37" x="710.5" y="699.4822"/><text fill="#000000" font-family="sans-serif" font-size="14" lengthAdjust="spacing" textLength="23" x="717.5" y="721.4482">MD</text><rect fill="#FFFFFF" height="588.4143" style="stroke:#181818;stroke-width:1.0;" width="10" x="78" y="94.0679"/><rect fill="#FFFFFF" height="95.118" style="stroke:#181818;stroke-width:1.0;" width="10" x="374" y="117.7739"/><rect fill="#FFFFFF" height="95.118" style="stroke:#181818;stroke-width:1.0;" width="10" x="374" y="244.598"/><rect fill="#FFFFFF" height="95.118" style="stroke:#181818;stroke-width:1.0;" width="10" x="374" y="398.1281"/><rect fill="#FFFFFF" height="150.5301" style="stroke:#181818;stroke-width:1.0;" width="10" x="374" y="531.9521"/><rect fill="#FFFFFF" height="31.706" style="stroke:#181818;stroke-width:1.0;" width="10" x="724" y="149.4799"/><rect fill="#FFFFFF" height="31.706" style="stroke:#181818;stroke-width:1.0;" width="10" x="724" y="276.304"/><rect fill="#FFFFFF" height="31.706" style="stroke:#181818;stroke-width:1.0;" width="10" x="724" y="429.8341"/><rect fill="#FFFFFF" height="87.118" style="stroke:#181818;stroke-width:1.0;" width="10" x="724" y="563.6582"/><polygon fill="#181818" points="362,113.7739,372,117.7739,362,121.7739,366,117.7739" style="stroke:#181818;stroke-width:1.0;"/><line style="stroke:#181818;stroke-width:1.0;" x1="88" x2="368" y1="117.7739" y2="117.7739"/><text fill="#000000" font-family="sans-serif" font-size="13" font-weight="bold" lengthAdjust="spacing" textLength="7" x="95" y="111.9649">1</text><text fill="#000000" font-family="sans-serif" font-size="13" lengthAdjust="spacing" textLength="130" x="106" y="111.9649">wants to edit elevator</text><polygon fill="#181818" points="712,145.4799,722,149.4799,712,153.4799,716,149.4799" style="stroke:#181818;stroke-width:1.0;"/><line style="stroke:#181818;stroke-width:1.0;" x1="384" x2="718" y1="149.4799" y2="149.4799"/><text fill="#000000" font-family="sans-serif" font-size="13" font-weight="bold" lengthAdjust="spacing" textLength="7" x="391" y="143.6709">2</text><text fill="#000000" font-family="sans-serif" font-size="13" lengthAdjust="spacing" textLength="86" x="402" y="143.6709">GET /buildings</text><polygon fill="#181818" points="395,177.186,385,181.186,395,185.186,391,181.186" style="stroke:#181818;stroke-width:1.0;"/><line style="stroke:#181818;stroke-width:1.0;stroke-dasharray:2.0,2.0;" x1="389" x2="728" y1="181.186" y2="181.186"/><text fill="#000000" font-family="sans-serif" font-size="13" font-weight="bold" lengthAdjust="spacing" textLength="7" x="401" y="175.377">3</text><text fill="#000000" font-family="sans-serif" font-size="13" lengthAdjust="spacing" textLength="55" x="412" y="175.377">buildings</text><polygon fill="#181818" points="99,208.892,89,212.892,99,216.892,95,212.892" style="stroke:#181818;stroke-width:1.0;"/><line style="stroke:#181818;stroke-width:1.0;stroke-dasharray:2.0,2.0;" x1="93" x2="378" y1="212.892" y2="212.892"/><text fill="#000000" font-family="sans-serif" font-size="13" font-weight="bold" lengthAdjust="spacing" textLength="7" x="105" y="207.083">4</text><text fill="#000000" font-family="sans-serif" font-size="13" lengthAdjust="spacing" textLength="146" x="116" y="207.083">show &amp; request building</text><polygon fill="#181818" points="362,240.598,372,244.598,362,248.598,366,244.598" style="stroke:#181818;stroke-width:1.0;"/><line style="stroke:#181818;stroke-width:1.0;" x1="88" x2="368" y1="244.598" y2="244.598"/><text fill="#000000" font-family="sans-serif" font-size="13" font-weight="bold" lengthAdjust="spacing" textLength="7" x="95" y="238.789">5</text><text fill="#000000" font-family="sans-serif" font-size="13" lengthAdjust="spacing" textLength="101" x="106" y="238.789">chooses building</text><polygon fill="#181818" points="712,272.304,722,276.304,712,280.304,716,276.304" style="stroke:#181818;stroke-width:1.0;"/><line style="stroke:#181818;stroke-width:1.0;" x1="384" x2="718" y1="276.304" y2="276.304"/><text fill="#000000" font-family="sans-serif" font-size="13" font-weight="bold" lengthAdjust="spacing" textLength="7" x="391" y="270.495">6</text><text fill="#000000" font-family="sans-serif" font-size="13" lengthAdjust="spacing" textLength="203" x="402" y="270.495">GET /buildings/{:bCode}/elevators</text><polygon fill="#181818" points="395,304.01,385,308.01,395,312.01,391,308.01" style="stroke:#181818;stroke-width:1.0;"/><line style="stroke:#181818;stroke-width:1.0;stroke-dasharray:2.0,2.0;" x1="389" x2="728" y1="308.01" y2="308.01"/><text fill="#000000" font-family="sans-serif" font-size="13" font-weight="bold" lengthAdjust="spacing" textLength="7" x="401" y="302.201">7</text><text fill="#000000" font-family="sans-serif" font-size="13" lengthAdjust="spacing" textLength="107" x="412" y="302.201">building elevators</text><polygon fill="#181818" points="99,335.716,89,339.716,99,343.716,95,339.716" style="stroke:#181818;stroke-width:1.0;"/><line style="stroke:#181818;stroke-width:1.0;stroke-dasharray:2.0,2.0;" x1="93" x2="378" y1="339.716" y2="339.716"/><text fill="#000000" font-family="sans-serif" font-size="13" font-weight="bold" lengthAdjust="spacing" textLength="7" x="105" y="333.907">8</text><text fill="#000000" font-family="sans-serif" font-size="13" lengthAdjust="spacing" textLength="142" x="116" y="333.907">show building elevators</text><path d="M10,354.716 L73,354.716 L73,364.4221 L63,374.4221 L10,374.4221 L10,354.716 " fill="#EEEEEE" style="stroke:#000000;stroke-width:1.5;"/><rect fill="none" height="146.5301" style="stroke:#000000;stroke-width:1.5;" width="747.5" x="10" y="354.716"/><text fill="#000000" font-family="sans-serif" font-size="13" font-weight="bold" lengthAdjust="spacing" textLength="18" x="25" y="369.6131">alt</text><polygon fill="#181818" points="362,394.1281,372,398.1281,362,402.1281,366,398.1281" style="stroke:#181818;stroke-width:1.0;"/><line style="stroke:#181818;stroke-width:1.0;" x1="88" x2="368" y1="398.1281" y2="398.1281"/><text fill="#000000" font-family="sans-serif" font-size="13" font-weight="bold" lengthAdjust="spacing" textLength="7" x="95" y="392.3191">9</text><text fill="#000000" font-family="sans-serif" font-size="13" lengthAdjust="spacing" textLength="199" x="106" y="392.3191">wants to edit the elevator's floors</text><polygon fill="#181818" points="712,425.8341,722,429.8341,712,433.8341,716,429.8341" style="stroke:#181818;stroke-width:1.0;"/><line style="stroke:#181818;stroke-width:1.0;" x1="384" x2="718" y1="429.8341" y2="429.8341"/><text fill="#000000" font-family="sans-serif" font-size="13" font-weight="bold" lengthAdjust="spacing" textLength="14" x="391" y="424.0251">10</text><text fill="#000000" font-family="sans-serif" font-size="13" lengthAdjust="spacing" textLength="182" x="409" y="424.0251">GET /buildings/{:bCode}/floors</text><polygon fill="#181818" points="395,457.5401,385,461.5401,395,465.5401,391,461.5401" style="stroke:#181818;stroke-width:1.0;"/><line style="stroke:#181818;stroke-width:1.0;stroke-dasharray:2.0,2.0;" x1="389" x2="728" y1="461.5401" y2="461.5401"/><text fill="#000000" font-family="sans-serif" font-size="13" font-weight="bold" lengthAdjust="spacing" textLength="14" x="401" y="455.7311">11</text><text fill="#000000" font-family="sans-serif" font-size="13" lengthAdjust="spacing" textLength="86" x="419" y="455.7311">building floors</text><polygon fill="#181818" points="99,489.2461,89,493.2461,99,497.2461,95,493.2461" style="stroke:#181818;stroke-width:1.0;"/><line style="stroke:#181818;stroke-width:1.0;stroke-dasharray:2.0,2.0;" x1="93" x2="378" y1="493.2461" y2="493.2461"/><text fill="#000000" font-family="sans-serif" font-size="13" font-weight="bold" lengthAdjust="spacing" textLength="14" x="105" y="487.4371">12</text><text fill="#000000" font-family="sans-serif" font-size="13" lengthAdjust="spacing" textLength="127" x="123" y="487.4371">shows building floors</text><polygon fill="#181818" points="362,527.9521,372,531.9521,362,535.9521,366,531.9521" style="stroke:#181818;stroke-width:1.0;"/><line style="stroke:#181818;stroke-width:1.0;" x1="88" x2="368" y1="531.9521" y2="531.9521"/><text fill="#000000" font-family="sans-serif" font-size="13" font-weight="bold" lengthAdjust="spacing" textLength="14" x="95" y="526.1431">13</text><text fill="#000000" font-family="sans-serif" font-size="13" lengthAdjust="spacing" textLength="249" x="113" y="526.1431">chooses elevator &amp; submits updated data</text><polygon fill="#181818" points="712,559.6582,722,563.6582,712,567.6582,716,563.6582" style="stroke:#181818;stroke-width:1.0;"/><line style="stroke:#181818;stroke-width:1.0;" x1="384" x2="718" y1="563.6582" y2="563.6582"/><text fill="#000000" font-family="sans-serif" font-size="13" font-weight="bold" lengthAdjust="spacing" textLength="14" x="391" y="557.8492">14</text><text fill="#000000" font-family="sans-serif" font-size="13" lengthAdjust="spacing" textLength="303" x="409" y="557.8492">PUT|PATCH /building/{:bCode}/elevators/{:eCode}</text><path d="M739,576.6582 L739,621.6582 L981,621.6582 L981,586.6582 L971,576.6582 L739,576.6582 " fill="#FEFFDD" style="stroke:#181818;stroke-width:0.5;"/><path d="M971,576.6582 L971,586.6582 L981,586.6582 L971,576.6582 " fill="#FEFFDD" style="stroke:#181818;stroke-width:0.5;"/><text fill="#000000" font-family="sans-serif" font-size="13" lengthAdjust="spacing" textLength="218" x="745" y="595.5552">user can choose between a full (PUT)</text><text fill="#000000" font-family="sans-serif" font-size="13" lengthAdjust="spacing" textLength="172" x="745" y="613.2612">and a partial (PATCH) update</text><polygon fill="#181818" points="395,646.7762,385,650.7762,395,654.7762,391,650.7762" style="stroke:#181818;stroke-width:1.0;"/><line style="stroke:#181818;stroke-width:1.0;stroke-dasharray:2.0,2.0;" x1="389" x2="728" y1="650.7762" y2="650.7762"/><text fill="#000000" font-family="sans-serif" font-size="13" font-weight="bold" lengthAdjust="spacing" textLength="14" x="401" y="644.9672">15</text><text fill="#000000" font-family="sans-serif" font-size="13" lengthAdjust="spacing" textLength="80" x="419" y="644.9672">error/success</text><polygon fill="#181818" points="94,678.4822,84,682.4822,94,686.4822,90,682.4822" style="stroke:#181818;stroke-width:1.0;"/><line style="stroke:#181818;stroke-width:1.0;stroke-dasharray:2.0,2.0;" x1="88" x2="378" y1="682.4822" y2="682.4822"/><text fill="#000000" font-family="sans-serif" font-size="13" font-weight="bold" lengthAdjust="spacing" textLength="14" x="100" y="676.6732">16</text><text fill="#000000" font-family="sans-serif" font-size="13" lengthAdjust="spacing" textLength="123" x="118" y="676.6732">inform error/success</text><!--SRC=[dLGzRuCm4DtpAquPscQ8s3DKgjAl9LA6TEjou2DO0flwx6Pe-zzxa8H00bMe1v3FzzxTUnp6uAq9HKnkCi74MmVJ9HPbO5YXmIsvAI13O3akqNcTw1ADX-cpiyRFoQZzkUwUhXxhSA5gKls9dceEa2LlcDyB11Qmasm6Ru6Kza0vIQRTfvrmkjxNK5qX2oN8bwSDH77GkT9coqr6WvBIq5g2cH-BNg8KjN6TSXL86bu0PtO7D-3e8n3xXcHoXfTkBrGccRLCtCMCqXTzBUAbLVGJ7JtwdsIuX5-jVO2ZHplc_iGp-BLzHWtLBKEQsrvLBNkkjEYCwI-F1dtguHWmgjSi7cJgsbL5v1yQ7fcZGJ9v7E92Yt-XL89M84-yPfBMRvllzSDc-NeogsUS94HrgA4mLYYTtcOURBgd2amE4ZI7zY0cloCoW926F8SxAJM3TuD6IQY-4B2ALiLdXxv7ZIqvPrt48Kc8nqsiDgbrHGz1r__sJgwdNm00]--></g></svg>