<?xml version="1.0" encoding="us-ascii" standalone="no"?><svg xmlns="http://www.w3.org/2000/svg" xmlns:xlink="http://www.w3.org/1999/xlink" contentStyleType="text/css" height="739px" preserveAspectRatio="none" style="width:1468px;height:739px;background:#FFFFFF;" version="1.1" viewBox="0 0 1468 739" width="1468px" zoomAndPan="magnify"><defs/><g><rect fill="#FFFFFF" height="572.1559" style="stroke:#181818;stroke-width:1.0;" width="10" x="335" y="91.8419"/><rect fill="#FFFFFF" height="508.7439" style="stroke:#181818;stroke-width:1.0;" width="10" x="530" y="123.5479"/><rect fill="#FFFFFF" height="53.1358" style="stroke:#181818;stroke-width:1.0;" width="10" x="724.5" y="165.2539"/><rect fill="#FFFFFF" height="350.49" style="stroke:#181818;stroke-width:1.0;" width="10" x="819" y="250.0957"/><rect fill="#FFFFFF" height="126.5479" style="stroke:#181818;stroke-width:1.0;" width="10" x="934" y="435.3318"/><rect fill="#FFFFFF" height="53.1358" style="stroke:#181818;stroke-width:1.0;" width="10" x="1060" y="477.0378"/><rect fill="#FFFFFF" height="95.118" style="stroke:#181818;stroke-width:1.0;" width="10" x="1143" y="281.8018"/><rect fill="none" height="177.9599" style="stroke:#000000;stroke-width:1.5;" width="341" x="768" y="391.9198"/><line style="stroke:#181818;stroke-width:0.5;stroke-dasharray:5.0,5.0;" x1="339.5" x2="339.5" y1="58.1358" y2="681.9977"/><line style="stroke:#181818;stroke-width:0.5;stroke-dasharray:5.0,5.0;" x1="534.5" x2="534.5" y1="58.1358" y2="681.9977"/><line style="stroke:#181818;stroke-width:0.5;stroke-dasharray:5.0,5.0;" x1="729" x2="729" y1="173.1158" y2="681.9977"/><line style="stroke:#181818;stroke-width:0.5;stroke-dasharray:5.0,5.0;" x1="824" x2="824" y1="58.1358" y2="681.9977"/><line style="stroke:#181818;stroke-width:0.5;stroke-dasharray:5.0,5.0;" x1="938.5" x2="938.5" y1="58.1358" y2="681.9977"/><line style="stroke:#181818;stroke-width:0.5;stroke-dasharray:5.0,5.0;" x1="1065" x2="1065" y1="484.8997" y2="681.9977"/><line style="stroke:#181818;stroke-width:0.5;stroke-dasharray:5.0,5.0;" x1="1148" x2="1148" y1="58.1358" y2="681.9977"/><rect fill="#E2E2F0" height="33.0679" rx="2.5" ry="2.5" style="stroke:#181818;stroke-width:0.5;" width="53" x="313.5" y="24.0679"/><text fill="#000000" font-family="sans-serif" font-size="14" lengthAdjust="spacing" textLength="39" x="320.5" y="46.0339">Route</text><rect fill="#E2E2F0" height="33.0679" rx="2.5" ry="2.5" style="stroke:#181818;stroke-width:0.5;" width="53" x="313.5" y="680.9977"/><text fill="#000000" font-family="sans-serif" font-size="14" lengthAdjust="spacing" textLength="39" x="320.5" y="702.9637">Route</text><rect fill="#E2E2F0" height="33.0679" rx="2.5" ry="2.5" style="stroke:#181818;stroke-width:0.5;" width="111" x="479.5" y="24.0679"/><text fill="#000000" font-family="sans-serif" font-size="14" lengthAdjust="spacing" textLength="97" x="486.5" y="46.0339">TaskController</text><rect fill="#E2E2F0" height="33.0679" rx="2.5" ry="2.5" style="stroke:#181818;stroke-width:0.5;" width="111" x="479.5" y="680.9977"/><text fill="#000000" font-family="sans-serif" font-size="14" lengthAdjust="spacing" textLength="97" x="486.5" y="702.9637">TaskController</text><rect fill="#E2E2F0" height="52.1358" rx="2.5" ry="2.5" style="stroke:#181818;stroke-width:0.5;" width="77" x="691" y="680.9977"/><text fill="#000000" font-family="sans-serif" font-size="14" lengthAdjust="spacing" textLength="26" x="716.5" y="702.9637">dto:</text><text fill="#000000" font-family="sans-serif" font-size="14" lengthAdjust="spacing" textLength="63" x="698" y="722.0316">FilterDTO</text><rect fill="#E2E2F0" height="33.0679" rx="2.5" ry="2.5" style="stroke:#181818;stroke-width:0.5;" width="92" x="778" y="24.0679"/><text fill="#000000" font-family="sans-serif" font-size="14" lengthAdjust="spacing" textLength="78" x="785" y="46.0339">TaskService</text><rect fill="#E2E2F0" height="33.0679" rx="2.5" ry="2.5" style="stroke:#181818;stroke-width:0.5;" width="92" x="778" y="680.9977"/><text fill="#000000" font-family="sans-serif" font-size="14" lengthAdjust="spacing" textLength="78" x="785" y="702.9637">TaskService</text><rect fill="#E2E2F0" height="33.0679" rx="2.5" ry="2.5" style="stroke:#181818;stroke-width:0.5;" width="67" x="905.5" y="24.0679"/><text fill="#000000" font-family="sans-serif" font-size="14" lengthAdjust="spacing" textLength="53" x="912.5" y="46.0339">Mapper</text><rect fill="#E2E2F0" height="33.0679" rx="2.5" ry="2.5" style="stroke:#181818;stroke-width:0.5;" width="67" x="905.5" y="680.9977"/><text fill="#000000" font-family="sans-serif" font-size="14" lengthAdjust="spacing" textLength="53" x="912.5" y="702.9637">Mapper</text><rect fill="#E2E2F0" height="52.1358" rx="2.5" ry="2.5" style="stroke:#181818;stroke-width:0.5;" width="68" x="1031" y="680.9977"/><text fill="#000000" font-family="sans-serif" font-size="14" lengthAdjust="spacing" textLength="54" x="1038" y="702.9637">taskDto:</text><text fill="#000000" font-family="sans-serif" font-size="14" lengthAdjust="spacing" textLength="53" x="1038.5" y="722.0316">TaskDto</text><rect fill="#E2E2F0" height="33.0679" rx="2.5" ry="2.5" style="stroke:#181818;stroke-width:0.5;" width="78" x="1109" y="24.0679"/><text fill="#000000" font-family="sans-serif" font-size="14" lengthAdjust="spacing" textLength="64" x="1116" y="46.0339">TaskRepo</text><rect fill="#E2E2F0" height="33.0679" rx="2.5" ry="2.5" style="stroke:#181818;stroke-width:0.5;" width="78" x="1109" y="680.9977"/><text fill="#000000" font-family="sans-serif" font-size="14" lengthAdjust="spacing" textLength="64" x="1116" y="702.9637">TaskRepo</text><rect fill="#FFFFFF" height="572.1559" style="stroke:#181818;stroke-width:1.0;" width="10" x="335" y="91.8419"/><rect fill="#FFFFFF" height="508.7439" style="stroke:#181818;stroke-width:1.0;" width="10" x="530" y="123.5479"/><rect fill="#FFFFFF" height="53.1358" style="stroke:#181818;stroke-width:1.0;" width="10" x="724.5" y="165.2539"/><rect fill="#FFFFFF" height="350.49" style="stroke:#181818;stroke-width:1.0;" width="10" x="819" y="250.0957"/><rect fill="#FFFFFF" height="126.5479" style="stroke:#181818;stroke-width:1.0;" width="10" x="934" y="435.3318"/><rect fill="#FFFFFF" height="53.1358" style="stroke:#181818;stroke-width:1.0;" width="10" x="1060" y="477.0378"/><rect fill="#FFFFFF" height="95.118" style="stroke:#181818;stroke-width:1.0;" width="10" x="1143" y="281.8018"/><polygon fill="#181818" points="323,87.8419,333,91.8419,323,95.8419,327,91.8419" style="stroke:#181818;stroke-width:1.0;"/><line style="stroke:#181818;stroke-width:1.0;" x1="0" x2="329" y1="91.8419" y2="91.8419"/><text fill="#000000" font-family="sans-serif" font-size="13" font-weight="bold" lengthAdjust="spacing" textLength="7" x="7" y="86.0328">1</text><text fill="#000000" font-family="sans-serif" font-size="13" lengthAdjust="spacing" textLength="305" x="18" y="86.0328">GET {baseURL}/task?criteria={criteria}&amp;filter={filter}</text><polygon fill="#181818" points="518,119.5479,528,123.5479,518,127.5479,522,123.5479" style="stroke:#181818;stroke-width:1.0;"/><line style="stroke:#181818;stroke-width:1.0;" x1="345" x2="524" y1="123.5479" y2="123.5479"/><text fill="#000000" font-family="sans-serif" font-size="13" font-weight="bold" lengthAdjust="spacing" textLength="7" x="352" y="117.7389">2</text><text fill="#000000" font-family="sans-serif" font-size="13" lengthAdjust="spacing" textLength="155" x="363" y="117.7389">tasksByFilter(req,res,next)</text><polygon fill="#181818" points="679,151.2539,689,155.2539,679,159.2539,683,155.2539" style="stroke:#181818;stroke-width:1.0;"/><line style="stroke:#181818;stroke-width:1.0;" x1="540" x2="685" y1="155.2539" y2="155.2539"/><text fill="#000000" font-family="sans-serif" font-size="13" font-weight="bold" lengthAdjust="spacing" textLength="7" x="547" y="149.4449">3</text><text fill="#000000" font-family="sans-serif" font-size="13" lengthAdjust="spacing" textLength="116" x="558" y="149.4449">create(criteria,filter)</text><rect fill="#E2E2F0" height="52.1358" rx="2.5" ry="2.5" style="stroke:#181818;stroke-width:0.5;" width="77" x="691" y="131.5479"/><text fill="#000000" font-family="sans-serif" font-size="14" lengthAdjust="spacing" textLength="26" x="716.5" y="153.5138">dto:</text><text fill="#000000" font-family="sans-serif" font-size="14" lengthAdjust="spacing" textLength="63" x="698" y="172.5817">FilterDTO</text><polygon fill="#181818" points="551,214.3897,541,218.3897,551,222.3897,547,218.3897" style="stroke:#181818;stroke-width:1.0;"/><line style="stroke:#181818;stroke-width:1.0;stroke-dasharray:2.0,2.0;" x1="545" x2="728.5" y1="218.3897" y2="218.3897"/><text fill="#000000" font-family="sans-serif" font-size="13" font-weight="bold" lengthAdjust="spacing" textLength="7" x="557" y="212.5807">4</text><text fill="#000000" font-family="sans-serif" font-size="13" lengthAdjust="spacing" textLength="21" x="568" y="212.5807">dto</text><polygon fill="#181818" points="807,246.0957,817,250.0957,807,254.0957,811,250.0957" style="stroke:#181818;stroke-width:1.0;"/><line style="stroke:#181818;stroke-width:1.0;" x1="540" x2="813" y1="250.0957" y2="250.0957"/><text fill="#000000" font-family="sans-serif" font-size="13" font-weight="bold" lengthAdjust="spacing" textLength="7" x="547" y="244.2867">5</text><text fill="#000000" font-family="sans-serif" font-size="13" lengthAdjust="spacing" textLength="94" x="558" y="244.2867">getByFilter(dto)</text><polygon fill="#181818" points="1131,277.8018,1141,281.8018,1131,285.8018,1135,281.8018" style="stroke:#181818;stroke-width:1.0;"/><line style="stroke:#181818;stroke-width:1.0;" x1="829" x2="1137" y1="281.8018" y2="281.8018"/><text fill="#000000" font-family="sans-serif" font-size="13" font-weight="bold" lengthAdjust="spacing" textLength="7" x="836" y="275.9927">6</text><text fill="#000000" font-family="sans-serif" font-size="13" lengthAdjust="spacing" textLength="94" x="847" y="275.9927">getByFilter(dto)</text><polygon fill="#181818" points="1450,309.5078,1460,313.5078,1450,317.5078,1454,313.5078" style="stroke:#181818;stroke-width:1.0;"/><line style="stroke:#181818;stroke-width:1.0;" x1="1153" x2="1456" y1="313.5078" y2="313.5078"/><text fill="#000000" font-family="sans-serif" font-size="13" font-weight="bold" lengthAdjust="spacing" textLength="7" x="1160" y="307.6988">7</text><text fill="#000000" font-family="sans-serif" font-size="13" lengthAdjust="spacing" textLength="274" x="1171" y="307.6988">GET /jobs/filter?criteria={criteria}&amp;filter={filter}</text><polygon fill="#181818" points="1164,341.2138,1154,345.2138,1164,349.2138,1160,345.2138" style="stroke:#181818;stroke-width:1.0;"/><line style="stroke:#181818;stroke-width:1.0;stroke-dasharray:2.0,2.0;" x1="1158" x2="1461" y1="345.2138" y2="345.2138"/><text fill="#000000" font-family="sans-serif" font-size="13" font-weight="bold" lengthAdjust="spacing" textLength="7" x="1170" y="339.4048">8</text><text fill="#000000" font-family="sans-serif" font-size="13" lengthAdjust="spacing" textLength="31" x="1181" y="339.4048">tasks</text><polygon fill="#181818" points="840,372.9198,830,376.9198,840,380.9198,836,376.9198" style="stroke:#181818;stroke-width:1.0;"/><line style="stroke:#181818;stroke-width:1.0;stroke-dasharray:2.0,2.0;" x1="834" x2="1147" y1="376.9198" y2="376.9198"/><text fill="#000000" font-family="sans-serif" font-size="13" font-weight="bold" lengthAdjust="spacing" textLength="7" x="846" y="371.1108">9</text><text fill="#000000" font-family="sans-serif" font-size="13" lengthAdjust="spacing" textLength="31" x="857" y="371.1108">tasks</text><path d="M768,391.9198 L841,391.9198 L841,401.6258 L831,411.6258 L768,411.6258 L768,391.9198 " fill="#EEEEEE" style="stroke:#000000;stroke-width:1.5;"/><rect fill="none" height="177.9599" style="stroke:#000000;stroke-width:1.5;" width="341" x="768" y="391.9198"/><text fill="#000000" font-family="sans-serif" font-size="13" font-weight="bold" lengthAdjust="spacing" textLength="28" x="783" y="406.8168">loop</text><text fill="#000000" font-family="sans-serif" font-size="11" font-weight="bold" lengthAdjust="spacing" textLength="77" x="856" y="405.6787">[task in tasks]</text><polygon fill="#181818" points="922,431.3318,932,435.3318,922,439.3318,926,435.3318" style="stroke:#181818;stroke-width:1.0;"/><line style="stroke:#181818;stroke-width:1.0;" x1="829" x2="928" y1="435.3318" y2="435.3318"/><text fill="#000000" font-family="sans-serif" font-size="13" font-weight="bold" lengthAdjust="spacing" textLength="14" x="836" y="429.5228">10</text><text fill="#000000" font-family="sans-serif" font-size="13" lengthAdjust="spacing" textLength="68" x="854" y="429.5228">toDto(task)</text><polygon fill="#181818" points="1019,463.0378,1029,467.0378,1019,471.0378,1023,467.0378" style="stroke:#181818;stroke-width:1.0;"/><line style="stroke:#181818;stroke-width:1.0;" x1="944" x2="1025" y1="467.0378" y2="467.0378"/><text fill="#000000" font-family="sans-serif" font-size="13" font-weight="bold" lengthAdjust="spacing" textLength="14" x="951" y="461.2288">11</text><text fill="#000000" font-family="sans-serif" font-size="13" lengthAdjust="spacing" textLength="45" x="969" y="461.2288">create()</text><rect fill="#E2E2F0" height="52.1358" rx="2.5" ry="2.5" style="stroke:#181818;stroke-width:0.5;" width="68" x="1031" y="443.3318"/><text fill="#000000" font-family="sans-serif" font-size="14" lengthAdjust="spacing" textLength="54" x="1038" y="465.2978">taskDto:</text><text fill="#000000" font-family="sans-serif" font-size="14" lengthAdjust="spacing" textLength="53" x="1038.5" y="484.3657">TaskDto</text><polygon fill="#181818" points="955,526.1737,945,530.1737,955,534.1737,951,530.1737" style="stroke:#181818;stroke-width:1.0;"/><line style="stroke:#181818;stroke-width:1.0;stroke-dasharray:2.0,2.0;" x1="949" x2="1064" y1="530.1737" y2="530.1737"/><text fill="#000000" font-family="sans-serif" font-size="13" font-weight="bold" lengthAdjust="spacing" textLength="14" x="961" y="524.3647">12</text><text fill="#000000" font-family="sans-serif" font-size="13" lengthAdjust="spacing" textLength="21" x="979" y="524.3647">dto</text><polygon fill="#181818" points="840,557.8797,830,561.8797,840,565.8797,836,561.8797" style="stroke:#181818;stroke-width:1.0;"/><line style="stroke:#181818;stroke-width:1.0;stroke-dasharray:2.0,2.0;" x1="834" x2="938" y1="561.8797" y2="561.8797"/><text fill="#000000" font-family="sans-serif" font-size="13" font-weight="bold" lengthAdjust="spacing" textLength="14" x="846" y="556.0707">13</text><text fill="#000000" font-family="sans-serif" font-size="13" lengthAdjust="spacing" textLength="47" x="864" y="556.0707">taskDto</text><polygon fill="#181818" points="551,596.5857,541,600.5857,551,604.5857,547,600.5857" style="stroke:#181818;stroke-width:1.0;"/><line style="stroke:#181818;stroke-width:1.0;stroke-dasharray:2.0,2.0;" x1="545" x2="823" y1="600.5857" y2="600.5857"/><text fill="#000000" font-family="sans-serif" font-size="13" font-weight="bold" lengthAdjust="spacing" textLength="14" x="557" y="594.7767">14</text><text fill="#000000" font-family="sans-serif" font-size="13" lengthAdjust="spacing" textLength="21" x="575" y="594.7767">dto</text><polygon fill="#181818" points="356,628.2917,346,632.2917,356,636.2917,352,632.2917" style="stroke:#181818;stroke-width:1.0;"/><line style="stroke:#181818;stroke-width:1.0;stroke-dasharray:2.0,2.0;" x1="350" x2="534" y1="632.2917" y2="632.2917"/><text fill="#000000" font-family="sans-serif" font-size="13" font-weight="bold" lengthAdjust="spacing" textLength="14" x="362" y="626.4827">15</text><text fill="#000000" font-family="sans-serif" font-size="13" lengthAdjust="spacing" textLength="21" x="380" y="626.4827">200</text><polygon fill="#181818" points="11,659.9977,1,663.9977,11,667.9977,7,663.9977" style="stroke:#181818;stroke-width:1.0;"/><line style="stroke:#181818;stroke-width:1.0;stroke-dasharray:2.0,2.0;" x1="5" x2="339" y1="663.9977" y2="663.9977"/><text fill="#000000" font-family="sans-serif" font-size="13" font-weight="bold" lengthAdjust="spacing" textLength="14" x="17" y="658.1887">16</text><text fill="#000000" font-family="sans-serif" font-size="13" lengthAdjust="spacing" textLength="42" x="35" y="658.1887">200 OK</text><!--SRC=[ZPHHJy8m4CVV-oakFXWWB10V5y54fpwe8S7vX3oKKSrqhBChH4FuxjvrR6xI3kw5Xlxxk-l_UkDhBTFrQY4KOnbNEexYZASQpgPohSKPy1nKSoFa-UUDJBMIIIAKKKHQ9KtHKal_DRsB4orK44wC2lyx93qBjOcZ8b6-YVuLySIpR9zZnRFcdiRJWKaJ5YiZqu4jorHanRR21MCpRmpA1xY_3M6xuBbucJxk1WIyYbIC9STyj2rNk_CtSutHjlZTCS3WaOutN0jq1_QX0B5a1VX0hFpwfp2WeyHNNucydufltQtq3Oon42nXW0X6zw3NGtIa11xebENrYwgwriCLdhot2OZg_PNjb8bMKbaZDX0Xxq9NDqVrOMKLYnfkIqSSQX4swnHUin_KOPl2qBpn78dKzy67NEI3mhoJksvbNdhUl6nvI-RA7xUmPhFp6ecKcK50dBQWzXRYr612YKFH8UqHxsZ6m16uHq2Qh_epx3eFL5Gpaj0I933-K0v_sQAk6THADSKs30-ElspNxKMwPCnjSllqrFZcysOV7Nhi2BWO3fdZSFLzcE5pKqOAamTMVp7i5m00]--></g></svg>