<?xml version="1.0" encoding="us-ascii" standalone="no"?><svg xmlns="http://www.w3.org/2000/svg" xmlns:xlink="http://www.w3.org/1999/xlink" contentStyleType="text/css" height="789px" preserveAspectRatio="none" style="width:1572px;height:789px;background:#FFFFFF;" version="1.1" viewBox="0 0 1572 789" width="1572px" zoomAndPan="magnify"><defs/><g><rect fill="#FFFFFF" height="668.4819" style="stroke:#181818;stroke-width:1.0;" width="10" x="286" y="72.7739"/><rect fill="#FFFFFF" height="75.7739" style="stroke:#181818;stroke-width:1.0;" width="10" x="429" y="104.4799"/><rect fill="#FFFFFF" height="407.196" style="stroke:#181818;stroke-width:1.0;" width="10" x="658" y="287.3538"/><rect fill="#FFFFFF" height="75.7739" style="stroke:#181818;stroke-width:1.0;" width="10" x="861" y="319.0598"/><rect fill="#FFFFFF" height="95.118" style="stroke:#181818;stroke-width:1.0;" width="10" x="1128.5" y="426.5398"/><rect fill="#FFFFFF" height="31.706" style="stroke:#181818;stroke-width:1.0;" width="10" x="1249.5" y="458.2458"/><rect fill="#FFFFFF" height="109.4799" style="stroke:#181818;stroke-width:1.0;" width="10" x="1342.5" y="553.3639"/><rect fill="none" height="539.002" style="stroke:#000000;stroke-width:1.5;" width="1562.5" x="3" y="195.2539"/><rect fill="none" height="63.7739" style="stroke:#000000;stroke-width:1.5;" width="262" x="1293.5" y="568.3639"/><line style="stroke:#181818;stroke-width:0.5;stroke-dasharray:5.0,5.0;" x1="290.5" x2="290.5" y1="39.0679" y2="751.2558"/><line style="stroke:#181818;stroke-width:0.5;stroke-dasharray:5.0,5.0;" x1="433.5" x2="433.5" y1="39.0679" y2="751.2558"/><line style="stroke:#181818;stroke-width:0.5;stroke-dasharray:5.0,5.0;" x1="570" x2="570" y1="144.5139" y2="751.2558"/><line style="stroke:#181818;stroke-width:0.5;stroke-dasharray:5.0,5.0;" x1="663" x2="663" y1="39.0679" y2="751.2558"/><line style="stroke:#181818;stroke-width:0.5;stroke-dasharray:5.0,5.0;" x1="865.5" x2="865.5" y1="39.0679" y2="751.2558"/><line style="stroke:#181818;stroke-width:0.5;stroke-dasharray:5.0,5.0;" x1="1016" x2="1016" y1="359.0938" y2="751.2558"/><line style="stroke:#181818;stroke-width:0.5;stroke-dasharray:5.0,5.0;" x1="1133" x2="1133" y1="39.0679" y2="751.2558"/><line style="stroke:#181818;stroke-width:0.5;stroke-dasharray:5.0,5.0;" x1="1254.5" x2="1254.5" y1="39.0679" y2="751.2558"/><line style="stroke:#181818;stroke-width:0.5;stroke-dasharray:5.0,5.0;" x1="1347.5" x2="1347.5" y1="39.0679" y2="751.2558"/><line style="stroke:#181818;stroke-width:0.5;stroke-dasharray:5.0,5.0;" x1="1492.5" x2="1492.5" y1="620.1038" y2="751.2558"/><rect fill="#E2E2F0" height="33.0679" rx="2.5" ry="2.5" style="stroke:#181818;stroke-width:0.5;" width="103" x="239.5" y="5"/><text fill="#000000" font-family="sans-serif" font-size="14" lengthAdjust="spacing" textLength="89" x="246.5" y="26.9659">APIController</text><rect fill="#E2E2F0" height="33.0679" rx="2.5" ry="2.5" style="stroke:#181818;stroke-width:0.5;" width="103" x="239.5" y="750.2558"/><text fill="#000000" font-family="sans-serif" font-size="14" lengthAdjust="spacing" textLength="89" x="246.5" y="772.2218">APIController</text><rect fill="#E2E2F0" height="33.0679" rx="2.5" ry="2.5" style="stroke:#181818;stroke-width:0.5;" width="101" x="383.5" y="5"/><text fill="#000000" font-family="sans-serif" font-size="14" lengthAdjust="spacing" textLength="87" x="390.5" y="26.9659">FilterMapper</text><rect fill="#E2E2F0" height="33.0679" rx="2.5" ry="2.5" style="stroke:#181818;stroke-width:0.5;" width="101" x="383.5" y="750.2558"/><text fill="#000000" font-family="sans-serif" font-size="14" lengthAdjust="spacing" textLength="87" x="390.5" y="772.2218">FilterMapper</text><rect fill="#E2E2F0" height="33.0679" rx="2.5" ry="2.5" style="stroke:#181818;stroke-width:0.5;" width="103" x="519" y="750.2558"/><text fill="#000000" font-family="sans-serif" font-size="14" lengthAdjust="spacing" textLength="89" x="526" y="772.2218">dto:FilterDTO</text><rect fill="#E2E2F0" height="33.0679" rx="2.5" ry="2.5" style="stroke:#181818;stroke-width:0.5;" width="62" x="632" y="5"/><text fill="#000000" font-family="sans-serif" font-size="14" lengthAdjust="spacing" textLength="48" x="639" y="26.9659">Service</text><rect fill="#E2E2F0" height="33.0679" rx="2.5" ry="2.5" style="stroke:#181818;stroke-width:0.5;" width="62" x="632" y="750.2558"/><text fill="#000000" font-family="sans-serif" font-size="14" lengthAdjust="spacing" textLength="48" x="639" y="772.2218">Service</text><rect fill="#E2E2F0" height="33.0679" rx="2.5" ry="2.5" style="stroke:#181818;stroke-width:0.5;" width="117" x="807.5" y="5"/><text fill="#000000" font-family="sans-serif" font-size="14" lengthAdjust="spacing" textLength="103" x="814.5" y="26.9659">JobFilterFactory</text><rect fill="#E2E2F0" height="33.0679" rx="2.5" ry="2.5" style="stroke:#181818;stroke-width:0.5;" width="117" x="807.5" y="750.2558"/><text fill="#000000" font-family="sans-serif" font-size="14" lengthAdjust="spacing" textLength="103" x="814.5" y="772.2218">JobFilterFactory</text><rect fill="#E2E2F0" height="33.0679" rx="2.5" ry="2.5" style="stroke:#181818;stroke-width:0.5;" width="130" x="951" y="750.2558"/><text fill="#000000" font-family="sans-serif" font-size="14" lengthAdjust="spacing" textLength="116" x="958" y="772.2218">IJobFilterStrategy</text><rect fill="#E2E2F0" height="33.0679" rx="2.5" ry="2.5" style="stroke:#181818;stroke-width:0.5;" width="85" x="1091" y="5"/><text fill="#000000" font-family="sans-serif" font-size="14" lengthAdjust="spacing" textLength="71" x="1098" y="26.9659">Repository</text><rect fill="#E2E2F0" height="33.0679" rx="2.5" ry="2.5" style="stroke:#181818;stroke-width:0.5;" width="85" x="1091" y="750.2558"/><text fill="#000000" font-family="sans-serif" font-size="14" lengthAdjust="spacing" textLength="71" x="1098" y="772.2218">Repository</text><rect fill="#E2E2F0" height="33.0679" rx="2.5" ry="2.5" style="stroke:#181818;stroke-width:0.5;" width="78" x="1215.5" y="5"/><text fill="#000000" font-family="sans-serif" font-size="14" lengthAdjust="spacing" textLength="64" x="1222.5" y="26.9659">DB Driver</text><rect fill="#E2E2F0" height="33.0679" rx="2.5" ry="2.5" style="stroke:#181818;stroke-width:0.5;" width="78" x="1215.5" y="750.2558"/><text fill="#000000" font-family="sans-serif" font-size="14" lengthAdjust="spacing" textLength="64" x="1222.5" y="772.2218">DB Driver</text><rect fill="#E2E2F0" height="33.0679" rx="2.5" ry="2.5" style="stroke:#181818;stroke-width:0.5;" width="88" x="1303.5" y="5"/><text fill="#000000" font-family="sans-serif" font-size="14" lengthAdjust="spacing" textLength="74" x="1310.5" y="26.9659">JobMapper</text><rect fill="#E2E2F0" height="33.0679" rx="2.5" ry="2.5" style="stroke:#181818;stroke-width:0.5;" width="88" x="1303.5" y="750.2558"/><text fill="#000000" font-family="sans-serif" font-size="14" lengthAdjust="spacing" textLength="74" x="1310.5" y="772.2218">JobMapper</text><rect fill="#E2E2F0" height="33.0679" rx="2.5" ry="2.5" style="stroke:#181818;stroke-width:0.5;" width="106" x="1439.5" y="750.2558"/><text fill="#000000" font-family="sans-serif" font-size="14" lengthAdjust="spacing" textLength="92" x="1446.5" y="772.2218">jobDto:JobDto</text><rect fill="#FFFFFF" height="668.4819" style="stroke:#181818;stroke-width:1.0;" width="10" x="286" y="72.7739"/><rect fill="#FFFFFF" height="75.7739" style="stroke:#181818;stroke-width:1.0;" width="10" x="429" y="104.4799"/><rect fill="#FFFFFF" height="407.196" style="stroke:#181818;stroke-width:1.0;" width="10" x="658" y="287.3538"/><rect fill="#FFFFFF" height="75.7739" style="stroke:#181818;stroke-width:1.0;" width="10" x="861" y="319.0598"/><rect fill="#FFFFFF" height="95.118" style="stroke:#181818;stroke-width:1.0;" width="10" x="1128.5" y="426.5398"/><rect fill="#FFFFFF" height="31.706" style="stroke:#181818;stroke-width:1.0;" width="10" x="1249.5" y="458.2458"/><rect fill="#FFFFFF" height="109.4799" style="stroke:#181818;stroke-width:1.0;" width="10" x="1342.5" y="553.3639"/><polygon fill="#181818" points="274,68.7739,284,72.7739,274,76.7739,278,72.7739" style="stroke:#181818;stroke-width:1.0;"/><line style="stroke:#181818;stroke-width:1.0;" x1="0" x2="280" y1="72.7739" y2="72.7739"/><text fill="#000000" font-family="sans-serif" font-size="13" font-weight="bold" lengthAdjust="spacing" textLength="7" x="7" y="66.9649">1</text><text fill="#000000" font-family="sans-serif" font-size="13" lengthAdjust="spacing" textLength="249" x="18" y="66.9649">GET /jobs/filter/?filter={:filter}&amp;rule={:rule}</text><polygon fill="#181818" points="417,100.4799,427,104.4799,417,108.4799,421,104.4799" style="stroke:#181818;stroke-width:1.0;"/><line style="stroke:#181818;stroke-width:1.0;" x1="296" x2="423" y1="104.4799" y2="104.4799"/><text fill="#000000" font-family="sans-serif" font-size="13" font-weight="bold" lengthAdjust="spacing" textLength="7" x="303" y="98.6709">2</text><text fill="#000000" font-family="sans-serif" font-size="13" lengthAdjust="spacing" textLength="103" x="314" y="98.6709">toDTO(filter, rule)</text><polygon fill="#181818" points="507,132.186,517,136.186,507,140.186,511,136.186" style="stroke:#181818;stroke-width:1.0;"/><line style="stroke:#181818;stroke-width:1.0;stroke-dasharray:2.0,2.0;" x1="439" x2="513" y1="136.186" y2="136.186"/><text fill="#000000" font-family="sans-serif" font-size="13" font-weight="bold" lengthAdjust="spacing" textLength="7" x="446" y="130.377">3</text><text fill="#000000" font-family="sans-serif" font-size="13" lengthAdjust="spacing" textLength="45" x="457" y="130.377">create()</text><rect fill="#E2E2F0" height="33.0679" rx="2.5" ry="2.5" style="stroke:#181818;stroke-width:0.5;" width="103" x="519" y="112.4799"/><text fill="#000000" font-family="sans-serif" font-size="14" lengthAdjust="spacing" textLength="89" x="526" y="134.4459">dto:FilterDTO</text><polygon fill="#181818" points="307,176.2539,297,180.2539,307,184.2539,303,180.2539" style="stroke:#181818;stroke-width:1.0;"/><line style="stroke:#181818;stroke-width:1.0;stroke-dasharray:2.0,2.0;" x1="301" x2="433" y1="180.2539" y2="180.2539"/><text fill="#000000" font-family="sans-serif" font-size="13" font-weight="bold" lengthAdjust="spacing" textLength="7" x="313" y="174.4449">4</text><text fill="#000000" font-family="sans-serif" font-size="13" lengthAdjust="spacing" textLength="53" x="324" y="174.4449">filterDTO</text><path d="M3,195.2539 L66,195.2539 L66,204.9599 L56,214.9599 L3,214.9599 L3,195.2539 " fill="#EEEEEE" style="stroke:#000000;stroke-width:1.5;"/><rect fill="none" height="539.002" style="stroke:#000000;stroke-width:1.5;" width="1562.5" x="3" y="195.2539"/><text fill="#000000" font-family="sans-serif" font-size="13" font-weight="bold" lengthAdjust="spacing" textLength="18" x="18" y="210.1509">alt</text><text fill="#000000" font-family="sans-serif" font-size="11" font-weight="bold" lengthAdjust="spacing" textLength="86" x="81" y="209.0128">[bad filter/rule]</text><polygon fill="#181818" points="11,234.6659,1,238.6659,11,242.6659,7,238.6659" style="stroke:#181818;stroke-width:1.0;"/><line style="stroke:#181818;stroke-width:1.0;stroke-dasharray:2.0,2.0;" x1="5" x2="285" y1="238.6659" y2="238.6659"/><text fill="#000000" font-family="sans-serif" font-size="13" font-weight="bold" lengthAdjust="spacing" textLength="7" x="17" y="232.8569">5</text><text fill="#000000" font-family="sans-serif" font-size="13" lengthAdjust="spacing" textLength="105" x="28" y="232.8569">400 : Bad Request</text><line style="stroke:#000000;stroke-width:1.0;stroke-dasharray:2.0,2.0;" x1="3" x2="1565.5" y1="247.6659" y2="247.6659"/><text fill="#000000" font-family="sans-serif" font-size="11" font-weight="bold" lengthAdjust="spacing" textLength="113" x="8" y="259.4248">[valid filter and rule]</text><polygon fill="#181818" points="646,283.3538,656,287.3538,646,291.3538,650,287.3538" style="stroke:#181818;stroke-width:1.0;"/><line style="stroke:#181818;stroke-width:1.0;" x1="296" x2="652" y1="287.3538" y2="287.3538"/><text fill="#000000" font-family="sans-serif" font-size="13" font-weight="bold" lengthAdjust="spacing" textLength="7" x="303" y="281.5448">6</text><text fill="#000000" font-family="sans-serif" font-size="13" lengthAdjust="spacing" textLength="127" x="314" y="281.5448">GetByFilter(filterDTO)</text><polygon fill="#181818" points="849,315.0598,859,319.0598,849,323.0598,853,319.0598" style="stroke:#181818;stroke-width:1.0;"/><line style="stroke:#181818;stroke-width:1.0;" x1="668" x2="855" y1="319.0598" y2="319.0598"/><text fill="#000000" font-family="sans-serif" font-size="13" font-weight="bold" lengthAdjust="spacing" textLength="7" x="675" y="313.2508">7</text><text fill="#000000" font-family="sans-serif" font-size="13" lengthAdjust="spacing" textLength="163" x="686" y="313.2508">GetFilterStrategy(filterDTO)</text><polygon fill="#181818" points="939,346.7659,949,350.7659,939,354.7659,943,350.7659" style="stroke:#181818;stroke-width:1.0;"/><line style="stroke:#181818;stroke-width:1.0;stroke-dasharray:2.0,2.0;" x1="871" x2="945" y1="350.7659" y2="350.7659"/><text fill="#000000" font-family="sans-serif" font-size="13" font-weight="bold" lengthAdjust="spacing" textLength="7" x="878" y="344.9569">8</text><text fill="#000000" font-family="sans-serif" font-size="13" lengthAdjust="spacing" textLength="45" x="889" y="344.9569">create()</text><rect fill="#E2E2F0" height="33.0679" rx="2.5" ry="2.5" style="stroke:#181818;stroke-width:0.5;" width="130" x="951" y="327.0598"/><text fill="#000000" font-family="sans-serif" font-size="14" lengthAdjust="spacing" textLength="116" x="958" y="349.0258">IJobFilterStrategy</text><polygon fill="#181818" points="679,390.8338,669,394.8338,679,398.8338,675,394.8338" style="stroke:#181818;stroke-width:1.0;"/><line style="stroke:#181818;stroke-width:1.0;stroke-dasharray:2.0,2.0;" x1="673" x2="865" y1="394.8338" y2="394.8338"/><text fill="#000000" font-family="sans-serif" font-size="13" font-weight="bold" lengthAdjust="spacing" textLength="7" x="685" y="389.0248">9</text><text fill="#000000" font-family="sans-serif" font-size="13" lengthAdjust="spacing" textLength="50" x="696" y="389.0248">strategy</text><polygon fill="#181818" points="1116.5,422.5398,1126.5,426.5398,1116.5,430.5398,1120.5,426.5398" style="stroke:#181818;stroke-width:1.0;"/><line style="stroke:#181818;stroke-width:1.0;" x1="668" x2="1122.5" y1="426.5398" y2="426.5398"/><text fill="#000000" font-family="sans-serif" font-size="13" font-weight="bold" lengthAdjust="spacing" textLength="14" x="675" y="420.7308">10</text><text fill="#000000" font-family="sans-serif" font-size="13" lengthAdjust="spacing" textLength="88" x="693" y="420.7308">Filter(strategy)</text><polygon fill="#181818" points="1237.5,454.2458,1247.5,458.2458,1237.5,462.2458,1241.5,458.2458" style="stroke:#181818;stroke-width:1.0;"/><line style="stroke:#181818;stroke-width:1.0;stroke-dasharray:2.0,2.0;" x1="1138.5" x2="1243.5" y1="458.2458" y2="458.2458"/><text fill="#000000" font-family="sans-serif" font-size="13" font-weight="bold" lengthAdjust="spacing" textLength="14" x="1145.5" y="452.4368">11</text><text fill="#000000" font-family="sans-serif" font-size="13" lengthAdjust="spacing" textLength="74" x="1163.5" y="452.4368">Where(filter)</text><polygon fill="#181818" points="1149.5,485.9518,1139.5,489.9518,1149.5,493.9518,1145.5,489.9518" style="stroke:#181818;stroke-width:1.0;"/><line style="stroke:#181818;stroke-width:1.0;stroke-dasharray:2.0,2.0;" x1="1143.5" x2="1253.5" y1="489.9518" y2="489.9518"/><text fill="#000000" font-family="sans-serif" font-size="13" font-weight="bold" lengthAdjust="spacing" textLength="14" x="1155.5" y="484.1428">12</text><text fill="#000000" font-family="sans-serif" font-size="13" lengthAdjust="spacing" textLength="25" x="1173.5" y="484.1428">jobs</text><polygon fill="#181818" points="679,517.6578,669,521.6578,679,525.6578,675,521.6578" style="stroke:#181818;stroke-width:1.0;"/><line style="stroke:#181818;stroke-width:1.0;stroke-dasharray:2.0,2.0;" x1="673" x2="1132.5" y1="521.6578" y2="521.6578"/><text fill="#000000" font-family="sans-serif" font-size="13" font-weight="bold" lengthAdjust="spacing" textLength="14" x="685" y="515.8488">13</text><text fill="#000000" font-family="sans-serif" font-size="13" lengthAdjust="spacing" textLength="25" x="703" y="515.8488">jobs</text><polygon fill="#181818" points="1330.5,549.3639,1340.5,553.3639,1330.5,557.3639,1334.5,553.3639" style="stroke:#181818;stroke-width:1.0;"/><line style="stroke:#181818;stroke-width:1.0;" x1="668" x2="1336.5" y1="553.3639" y2="553.3639"/><text fill="#000000" font-family="sans-serif" font-size="13" font-weight="bold" lengthAdjust="spacing" textLength="14" x="675" y="547.5549">14</text><text fill="#000000" font-family="sans-serif" font-size="13" lengthAdjust="spacing" textLength="72" x="693" y="547.5549">toDTO(jobs)</text><path d="M1293.5,568.3639 L1366.5,568.3639 L1366.5,578.0699 L1356.5,588.0699 L1293.5,588.0699 L1293.5,568.3639 " fill="#EEEEEE" style="stroke:#000000;stroke-width:1.5;"/><rect fill="none" height="63.7739" style="stroke:#000000;stroke-width:1.5;" width="262" x="1293.5" y="568.3639"/><text fill="#000000" font-family="sans-serif" font-size="13" font-weight="bold" lengthAdjust="spacing" textLength="28" x="1308.5" y="583.2609">loop</text><text fill="#000000" font-family="sans-serif" font-size="11" font-weight="bold" lengthAdjust="spacing" textLength="63" x="1381.5" y="582.1228">[job in jobs]</text><polygon fill="#181818" points="1427.5,607.7759,1437.5,611.7759,1427.5,615.7759,1431.5,611.7759" style="stroke:#181818;stroke-width:1.0;"/><line style="stroke:#181818;stroke-width:1.0;stroke-dasharray:2.0,2.0;" x1="1352.5" x2="1433.5" y1="611.7759" y2="611.7759"/><text fill="#000000" font-family="sans-serif" font-size="13" font-weight="bold" lengthAdjust="spacing" textLength="14" x="1359.5" y="605.9669">15</text><text fill="#000000" font-family="sans-serif" font-size="13" lengthAdjust="spacing" textLength="45" x="1377.5" y="605.9669">create()</text><rect fill="#E2E2F0" height="33.0679" rx="2.5" ry="2.5" style="stroke:#181818;stroke-width:0.5;" width="106" x="1439.5" y="588.0699"/><text fill="#000000" font-family="sans-serif" font-size="14" lengthAdjust="spacing" textLength="92" x="1446.5" y="610.0358">jobDto:JobDto</text><polygon fill="#181818" points="679,658.8438,669,662.8438,679,666.8438,675,662.8438" style="stroke:#181818;stroke-width:1.0;"/><line style="stroke:#181818;stroke-width:1.0;stroke-dasharray:2.0,2.0;" x1="673" x2="1346.5" y1="662.8438" y2="662.8438"/><text fill="#000000" font-family="sans-serif" font-size="13" font-weight="bold" lengthAdjust="spacing" textLength="14" x="685" y="657.0348">16</text><text fill="#000000" font-family="sans-serif" font-size="13" lengthAdjust="spacing" textLength="47" x="703" y="657.0348">jobDtos</text><polygon fill="#181818" points="307,690.5498,297,694.5498,307,698.5498,303,694.5498" style="stroke:#181818;stroke-width:1.0;"/><line style="stroke:#181818;stroke-width:1.0;stroke-dasharray:2.0,2.0;" x1="301" x2="662" y1="694.5498" y2="694.5498"/><text fill="#000000" font-family="sans-serif" font-size="13" font-weight="bold" lengthAdjust="spacing" textLength="14" x="313" y="688.7408">17</text><text fill="#000000" font-family="sans-serif" font-size="13" lengthAdjust="spacing" textLength="47" x="331" y="688.7408">jobDtos</text><polygon fill="#181818" points="11,722.2558,1,726.2558,11,730.2558,7,726.2558" style="stroke:#181818;stroke-width:1.0;"/><line style="stroke:#181818;stroke-width:1.0;stroke-dasharray:2.0,2.0;" x1="5" x2="285" y1="726.2558" y2="726.2558"/><text fill="#000000" font-family="sans-serif" font-size="13" font-weight="bold" lengthAdjust="spacing" textLength="14" x="17" y="720.4468">18</text><text fill="#000000" font-family="sans-serif" font-size="13" lengthAdjust="spacing" textLength="74" x="35" y="720.4468">200: jobDtos</text><!--SRC=[VLHDJzmm4BtdLumue0KrsbNLqwgqOhkb0gbg1KWzS41EObgZ4AUEDm9L_FVEZ1qdpWS-v6FtpVDxupSH1wkhmrCcJPBKmbYLgrfK5exEVrv-qPKrkYobEGBHG6vD6MCkL6cb-IxgsaEU-F5ULJ6ki7hhiFlR7mp4NmWLmswaQLKk6T2q-UZVAvqvZWkHMsrUlARd67KPO3VM22j_Ern3BoF2QrdhHWKgWwynOB-3lL6jzrPaKq4Jwp7YKMTxj7x5DqOztgFp9BbBFt4xOGlVljx26e7D-e5bhp-x-zc_hNjuFJQ7Kk8htLwJ1Dsh5fsvym1Sp8ICeVj8QpMsUkKOtW6LdZ0sLFT71NxrvIcIkHCwFKMkt4YiM9qi8BsHX-w06LR8cPsSWj929WgFNvEqG7ptCKqxlW-R3LvtYBoMVm-oiOoIPIEX5QNg241K1KGaNJimGjHVQNSlBX6h8B6t4bHIu62mg9hDFJkIE5HpL14T1HD6YxYeOHp6-SvEeEoXyRj6i467QRCvyHHfBFVkEvO5nPp_iGvcu3XaIFJhZpJIMvzg3amuAJ2pa2BjHL7a9x219ngtHJMkBHEAGJcxcUk9IsEO4E9OQ8YVwB68KkkQjWQC_wo9Va9OAu_yswSjgo9vWo6unQ_8ec6lTcgvdz0nmw2QFxTpK_X-iuaBIMiKFVm8_GS0]--></g></svg>