<?xml version="1.0" encoding="us-ascii" standalone="no"?><svg xmlns="http://www.w3.org/2000/svg" xmlns:xlink="http://www.w3.org/1999/xlink" contentStyleType="text/css" height="729px" preserveAspectRatio="none" style="width:1430px;height:729px;background:#FFFFFF;" version="1.1" viewBox="0 0 1430 729" width="1430px" zoomAndPan="magnify"><defs/><g><rect fill="#FFFFFF" height="564.5586" style="stroke:#181818;stroke-width:1.0;" width="10" x="324" y="90.5332"/><rect fill="#FFFFFF" height="501.9766" style="stroke:#181818;stroke-width:1.0;" width="10" x="518" y="121.8242"/><rect fill="#FFFFFF" height="52.2422" style="stroke:#181818;stroke-width:1.0;" width="10" x="707" y="163.1152"/><rect fill="#FFFFFF" height="345.8613" style="stroke:#181818;stroke-width:1.0;" width="10" x="801" y="246.6484"/><rect fill="#FFFFFF" height="124.8242" style="stroke:#181818;stroke-width:1.0;" width="10" x="912" y="429.3945"/><rect fill="#FFFFFF" height="52.2422" style="stroke:#181818;stroke-width:1.0;" width="10" x="1036.5" y="470.6855"/><rect fill="#FFFFFF" height="93.873" style="stroke:#181818;stroke-width:1.0;" width="10" x="1119.5" y="277.9395"/><rect fill="none" height="175.4063" style="stroke:#000000;stroke-width:1.5;" width="335" x="750" y="386.8125"/><line style="stroke:#181818;stroke-width:0.5;stroke-dasharray:5.0,5.0;" x1="329" x2="329" y1="57.2422" y2="673.0918"/><line style="stroke:#181818;stroke-width:0.5;stroke-dasharray:5.0,5.0;" x1="522.5" x2="522.5" y1="57.2422" y2="673.0918"/><line style="stroke:#181818;stroke-width:0.5;stroke-dasharray:5.0,5.0;" x1="712" x2="712" y1="170.9453" y2="673.0918"/><line style="stroke:#181818;stroke-width:0.5;stroke-dasharray:5.0,5.0;" x1="806" x2="806" y1="57.2422" y2="673.0918"/><line style="stroke:#181818;stroke-width:0.5;stroke-dasharray:5.0,5.0;" x1="917" x2="917" y1="57.2422" y2="673.0918"/><line style="stroke:#181818;stroke-width:0.5;stroke-dasharray:5.0,5.0;" x1="1041" x2="1041" y1="478.5156" y2="673.0918"/><line style="stroke:#181818;stroke-width:0.5;stroke-dasharray:5.0,5.0;" x1="1124" x2="1124" y1="57.2422" y2="673.0918"/><rect fill="#E2E2F0" height="32.6211" rx="2.5" ry="2.5" style="stroke:#181818;stroke-width:0.5;" width="52" x="303" y="23.6211"/><text fill="#000000" font-family="sans-serif" font-size="14" lengthAdjust="spacing" textLength="38" x="310" y="45.7285">Route</text><rect fill="#E2E2F0" height="32.6211" rx="2.5" ry="2.5" style="stroke:#181818;stroke-width:0.5;" width="52" x="303" y="672.0918"/><text fill="#000000" font-family="sans-serif" font-size="14" lengthAdjust="spacing" textLength="38" x="310" y="694.1992">Route</text><rect fill="#E2E2F0" height="32.6211" rx="2.5" ry="2.5" style="stroke:#181818;stroke-width:0.5;" width="107" x="469.5" y="23.6211"/><text fill="#000000" font-family="sans-serif" font-size="14" lengthAdjust="spacing" textLength="93" x="476.5" y="45.7285">TaskController</text><rect fill="#E2E2F0" height="32.6211" rx="2.5" ry="2.5" style="stroke:#181818;stroke-width:0.5;" width="107" x="469.5" y="672.0918"/><text fill="#000000" font-family="sans-serif" font-size="14" lengthAdjust="spacing" textLength="93" x="476.5" y="694.1992">TaskController</text><rect fill="#E2E2F0" height="51.2422" rx="2.5" ry="2.5" style="stroke:#181818;stroke-width:0.5;" width="76" x="674" y="672.0918"/><text fill="#000000" font-family="sans-serif" font-size="14" lengthAdjust="spacing" textLength="24" x="700" y="694.1992">dto:</text><text fill="#000000" font-family="sans-serif" font-size="14" lengthAdjust="spacing" textLength="62" x="681" y="712.8203">FilterDTO</text><rect fill="#E2E2F0" height="32.6211" rx="2.5" ry="2.5" style="stroke:#181818;stroke-width:0.5;" width="92" x="760" y="23.6211"/><text fill="#000000" font-family="sans-serif" font-size="14" lengthAdjust="spacing" textLength="78" x="767" y="45.7285">TaskService</text><rect fill="#E2E2F0" height="32.6211" rx="2.5" ry="2.5" style="stroke:#181818;stroke-width:0.5;" width="92" x="760" y="672.0918"/><text fill="#000000" font-family="sans-serif" font-size="14" lengthAdjust="spacing" textLength="78" x="767" y="694.1992">TaskService</text><rect fill="#E2E2F0" height="32.6211" rx="2.5" ry="2.5" style="stroke:#181818;stroke-width:0.5;" width="62" x="886" y="23.6211"/><text fill="#000000" font-family="sans-serif" font-size="14" lengthAdjust="spacing" textLength="48" x="893" y="45.7285">Mapper</text><rect fill="#E2E2F0" height="32.6211" rx="2.5" ry="2.5" style="stroke:#181818;stroke-width:0.5;" width="62" x="886" y="672.0918"/><text fill="#000000" font-family="sans-serif" font-size="14" lengthAdjust="spacing" textLength="48" x="893" y="694.1992">Mapper</text><rect fill="#E2E2F0" height="51.2422" rx="2.5" ry="2.5" style="stroke:#181818;stroke-width:0.5;" width="67" x="1008" y="672.0918"/><text fill="#000000" font-family="sans-serif" font-size="14" lengthAdjust="spacing" textLength="52" x="1015.5" y="694.1992">taskDto:</text><text fill="#000000" font-family="sans-serif" font-size="14" lengthAdjust="spacing" textLength="53" x="1015" y="712.8203">TaskDto</text><rect fill="#E2E2F0" height="32.6211" rx="2.5" ry="2.5" style="stroke:#181818;stroke-width:0.5;" width="79" x="1085" y="23.6211"/><text fill="#000000" font-family="sans-serif" font-size="14" lengthAdjust="spacing" textLength="65" x="1092" y="45.7285">TaskRepo</text><rect fill="#E2E2F0" height="32.6211" rx="2.5" ry="2.5" style="stroke:#181818;stroke-width:0.5;" width="79" x="1085" y="672.0918"/><text fill="#000000" font-family="sans-serif" font-size="14" lengthAdjust="spacing" textLength="65" x="1092" y="694.1992">TaskRepo</text><rect fill="#FFFFFF" height="564.5586" style="stroke:#181818;stroke-width:1.0;" width="10" x="324" y="90.5332"/><rect fill="#FFFFFF" height="501.9766" style="stroke:#181818;stroke-width:1.0;" width="10" x="518" y="121.8242"/><rect fill="#FFFFFF" height="52.2422" style="stroke:#181818;stroke-width:1.0;" width="10" x="707" y="163.1152"/><rect fill="#FFFFFF" height="345.8613" style="stroke:#181818;stroke-width:1.0;" width="10" x="801" y="246.6484"/><rect fill="#FFFFFF" height="124.8242" style="stroke:#181818;stroke-width:1.0;" width="10" x="912" y="429.3945"/><rect fill="#FFFFFF" height="52.2422" style="stroke:#181818;stroke-width:1.0;" width="10" x="1036.5" y="470.6855"/><rect fill="#FFFFFF" height="93.873" style="stroke:#181818;stroke-width:1.0;" width="10" x="1119.5" y="277.9395"/><polygon fill="#181818" points="312,86.5332,322,90.5332,312,94.5332,316,90.5332" style="stroke:#181818;stroke-width:1.0;"/><line style="stroke:#181818;stroke-width:1.0;" x1="0" x2="318" y1="90.5332" y2="90.5332"/><text fill="#000000" font-family="sans-serif" font-size="13" font-weight="bold" lengthAdjust="spacing" textLength="7" x="7" y="85.2705">1</text><text fill="#000000" font-family="sans-serif" font-size="13" lengthAdjust="spacing" textLength="294" x="18" y="85.2705">GET {baseURL}/task?criteria={criteria}&amp;filter={filter}</text><polygon fill="#181818" points="506,117.8242,516,121.8242,506,125.8242,510,121.8242" style="stroke:#181818;stroke-width:1.0;"/><line style="stroke:#181818;stroke-width:1.0;" x1="334" x2="512" y1="121.8242" y2="121.8242"/><text fill="#000000" font-family="sans-serif" font-size="13" font-weight="bold" lengthAdjust="spacing" textLength="7" x="341" y="116.5615">2</text><text fill="#000000" font-family="sans-serif" font-size="13" lengthAdjust="spacing" textLength="154" x="352" y="116.5615">tasksByFilter(req,res,next)</text><polygon fill="#181818" points="662,149.1152,672,153.1152,662,157.1152,666,153.1152" style="stroke:#181818;stroke-width:1.0;"/><line style="stroke:#181818;stroke-width:1.0;" x1="528" x2="668" y1="153.1152" y2="153.1152"/><text fill="#000000" font-family="sans-serif" font-size="13" font-weight="bold" lengthAdjust="spacing" textLength="7" x="535" y="147.8525">3</text><text fill="#000000" font-family="sans-serif" font-size="13" lengthAdjust="spacing" textLength="111" x="546" y="147.8525">create(criteria,filter)</text><rect fill="#E2E2F0" height="51.2422" rx="2.5" ry="2.5" style="stroke:#181818;stroke-width:0.5;" width="76" x="674" y="129.8242"/><text fill="#000000" font-family="sans-serif" font-size="14" lengthAdjust="spacing" textLength="24" x="700" y="151.9316">dto:</text><text fill="#000000" font-family="sans-serif" font-size="14" lengthAdjust="spacing" textLength="62" x="681" y="170.5527">FilterDTO</text><polygon fill="#181818" points="539,211.3574,529,215.3574,539,219.3574,535,215.3574" style="stroke:#181818;stroke-width:1.0;"/><line style="stroke:#181818;stroke-width:1.0;stroke-dasharray:2.0,2.0;" x1="533" x2="711" y1="215.3574" y2="215.3574"/><text fill="#000000" font-family="sans-serif" font-size="13" font-weight="bold" lengthAdjust="spacing" textLength="7" x="545" y="210.0947">4</text><text fill="#000000" font-family="sans-serif" font-size="13" lengthAdjust="spacing" textLength="18" x="556" y="210.0947">dto</text><polygon fill="#181818" points="789,242.6484,799,246.6484,789,250.6484,793,246.6484" style="stroke:#181818;stroke-width:1.0;"/><line style="stroke:#181818;stroke-width:1.0;" x1="528" x2="795" y1="246.6484" y2="246.6484"/><text fill="#000000" font-family="sans-serif" font-size="13" font-weight="bold" lengthAdjust="spacing" textLength="7" x="535" y="241.3857">5</text><text fill="#000000" font-family="sans-serif" font-size="13" lengthAdjust="spacing" textLength="89" x="546" y="241.3857">getByFilter(dto)</text><polygon fill="#181818" points="1107.5,273.9395,1117.5,277.9395,1107.5,281.9395,1111.5,277.9395" style="stroke:#181818;stroke-width:1.0;"/><line style="stroke:#181818;stroke-width:1.0;" x1="811" x2="1113.5" y1="277.9395" y2="277.9395"/><text fill="#000000" font-family="sans-serif" font-size="13" font-weight="bold" lengthAdjust="spacing" textLength="7" x="818" y="272.6768">6</text><text fill="#000000" font-family="sans-serif" font-size="13" lengthAdjust="spacing" textLength="89" x="829" y="272.6768">getByFilter(dto)</text><polygon fill="#181818" points="1412.5,305.2305,1422.5,309.2305,1412.5,313.2305,1416.5,309.2305" style="stroke:#181818;stroke-width:1.0;"/><line style="stroke:#181818;stroke-width:1.0;" x1="1129.5" x2="1418.5" y1="309.2305" y2="309.2305"/><text fill="#000000" font-family="sans-serif" font-size="13" font-weight="bold" lengthAdjust="spacing" textLength="7" x="1136.5" y="303.9678">7</text><text fill="#000000" font-family="sans-serif" font-size="13" lengthAdjust="spacing" textLength="260" x="1147.5" y="303.9678">GET /jobs/filter?criteria={criteria}&amp;filter={filter}</text><polygon fill="#181818" points="1140.5,336.5215,1130.5,340.5215,1140.5,344.5215,1136.5,340.5215" style="stroke:#181818;stroke-width:1.0;"/><line style="stroke:#181818;stroke-width:1.0;stroke-dasharray:2.0,2.0;" x1="1134.5" x2="1423.5" y1="340.5215" y2="340.5215"/><text fill="#000000" font-family="sans-serif" font-size="13" font-weight="bold" lengthAdjust="spacing" textLength="7" x="1146.5" y="335.2588">8</text><text fill="#000000" font-family="sans-serif" font-size="13" lengthAdjust="spacing" textLength="32" x="1157.5" y="335.2588">tasks</text><polygon fill="#181818" points="822,367.8125,812,371.8125,822,375.8125,818,371.8125" style="stroke:#181818;stroke-width:1.0;"/><line style="stroke:#181818;stroke-width:1.0;stroke-dasharray:2.0,2.0;" x1="816" x2="1123.5" y1="371.8125" y2="371.8125"/><text fill="#000000" font-family="sans-serif" font-size="13" font-weight="bold" lengthAdjust="spacing" textLength="7" x="828" y="366.5498">9</text><text fill="#000000" font-family="sans-serif" font-size="13" lengthAdjust="spacing" textLength="32" x="839" y="366.5498">tasks</text><path d="M750,386.8125 L823,386.8125 L823,396.1035 L813,406.1035 L750,406.1035 L750,386.8125 " fill="#EEEEEE" style="stroke:#000000;stroke-width:1.5;"/><rect fill="none" height="175.4063" style="stroke:#000000;stroke-width:1.5;" width="335" x="750" y="386.8125"/><text fill="#000000" font-family="sans-serif" font-size="13" font-weight="bold" lengthAdjust="spacing" textLength="28" x="765" y="401.8408">loop</text><text fill="#000000" font-family="sans-serif" font-size="11" font-weight="bold" lengthAdjust="spacing" textLength="79" x="838" y="400.6826">[task in tasks]</text><polygon fill="#181818" points="900,425.3945,910,429.3945,900,433.3945,904,429.3945" style="stroke:#181818;stroke-width:1.0;"/><line style="stroke:#181818;stroke-width:1.0;" x1="811" x2="906" y1="429.3945" y2="429.3945"/><text fill="#000000" font-family="sans-serif" font-size="13" font-weight="bold" lengthAdjust="spacing" textLength="14" x="818" y="424.1318">10</text><text fill="#000000" font-family="sans-serif" font-size="13" lengthAdjust="spacing" textLength="64" x="836" y="424.1318">toDto(task)</text><polygon fill="#181818" points="996,456.6855,1006,460.6855,996,464.6855,1000,460.6855" style="stroke:#181818;stroke-width:1.0;"/><line style="stroke:#181818;stroke-width:1.0;" x1="922" x2="1002" y1="460.6855" y2="460.6855"/><text fill="#000000" font-family="sans-serif" font-size="13" font-weight="bold" lengthAdjust="spacing" textLength="14" x="929" y="455.4229">11</text><text fill="#000000" font-family="sans-serif" font-size="13" lengthAdjust="spacing" textLength="44" x="947" y="455.4229">create()</text><rect fill="#E2E2F0" height="51.2422" rx="2.5" ry="2.5" style="stroke:#181818;stroke-width:0.5;" width="67" x="1008" y="437.3945"/><text fill="#000000" font-family="sans-serif" font-size="14" lengthAdjust="spacing" textLength="52" x="1015.5" y="459.502">taskDto:</text><text fill="#000000" font-family="sans-serif" font-size="14" lengthAdjust="spacing" textLength="53" x="1015" y="478.123">TaskDto</text><polygon fill="#181818" points="933,518.9277,923,522.9277,933,526.9277,929,522.9277" style="stroke:#181818;stroke-width:1.0;"/><line style="stroke:#181818;stroke-width:1.0;stroke-dasharray:2.0,2.0;" x1="927" x2="1040.5" y1="522.9277" y2="522.9277"/><text fill="#000000" font-family="sans-serif" font-size="13" font-weight="bold" lengthAdjust="spacing" textLength="14" x="939" y="517.665">12</text><text fill="#000000" font-family="sans-serif" font-size="13" lengthAdjust="spacing" textLength="18" x="957" y="517.665">dto</text><polygon fill="#181818" points="822,550.2188,812,554.2188,822,558.2188,818,554.2188" style="stroke:#181818;stroke-width:1.0;"/><line style="stroke:#181818;stroke-width:1.0;stroke-dasharray:2.0,2.0;" x1="816" x2="916" y1="554.2188" y2="554.2188"/><text fill="#000000" font-family="sans-serif" font-size="13" font-weight="bold" lengthAdjust="spacing" textLength="14" x="828" y="548.9561">13</text><text fill="#000000" font-family="sans-serif" font-size="13" lengthAdjust="spacing" textLength="45" x="846" y="548.9561">taskDto</text><polygon fill="#181818" points="539,588.5098,529,592.5098,539,596.5098,535,592.5098" style="stroke:#181818;stroke-width:1.0;"/><line style="stroke:#181818;stroke-width:1.0;stroke-dasharray:2.0,2.0;" x1="533" x2="805" y1="592.5098" y2="592.5098"/><text fill="#000000" font-family="sans-serif" font-size="13" font-weight="bold" lengthAdjust="spacing" textLength="14" x="545" y="587.2471">14</text><text fill="#000000" font-family="sans-serif" font-size="13" lengthAdjust="spacing" textLength="18" x="563" y="587.2471">dto</text><polygon fill="#181818" points="345,619.8008,335,623.8008,345,627.8008,341,623.8008" style="stroke:#181818;stroke-width:1.0;"/><line style="stroke:#181818;stroke-width:1.0;stroke-dasharray:2.0,2.0;" x1="339" x2="522" y1="623.8008" y2="623.8008"/><text fill="#000000" font-family="sans-serif" font-size="13" font-weight="bold" lengthAdjust="spacing" textLength="14" x="351" y="618.5381">15</text><text fill="#000000" font-family="sans-serif" font-size="13" lengthAdjust="spacing" textLength="21" x="369" y="618.5381">200</text><polygon fill="#181818" points="11,651.0918,1,655.0918,11,659.0918,7,655.0918" style="stroke:#181818;stroke-width:1.0;"/><line style="stroke:#181818;stroke-width:1.0;stroke-dasharray:2.0,2.0;" x1="5" x2="328" y1="655.0918" y2="655.0918"/><text fill="#000000" font-family="sans-serif" font-size="13" font-weight="bold" lengthAdjust="spacing" textLength="14" x="17" y="649.8291">16</text><text fill="#000000" font-family="sans-serif" font-size="13" lengthAdjust="spacing" textLength="44" x="35" y="649.8291">200 OK</text><!--SRC=[ZPHHJy8m4CVV-oakFXWWB10V5y54fpwe8S7vX3oKKSrqhBChH4FuxjvrR6xI3kw5Xlxxk-l_UkDhBTFrQY4KOnbNEexYZASQpgPohSKPy1nKSoFa-UUDJBMIIIAKKKHQ9KtHKal_DRsB4orK44wC2lyx93qBjOcZ8b6-YVuLySIpR9zZnRFcdiRJWKaJ5YiZqu4jorHanRR21MCpRmpA1xY_3M6xuBbucJxk1WIyYbIC9STyj2rNk_CtSutHjlZTCS3WaOutN0jq1_QX0B5a1VX0hFpwfp2WeyHNNucydufltQtq3Oon42nXW0X6zw3NGtIa11xebENrYwgwriCLdhot2OZg_PNjb8bMKbaZDX0Xxq9NDqVrOMKLYnfkIqSSQX4swnHUin_KOPl2qBpn78dKzy67NEI3mhoJksvbNdhUl6nvI-RA7xUmPhFp6ecKcK50dBQWzXRYr612YKFH8UqHxsZ6m16uHq2Qh_epx3eFL5Gpaj0I933-K0v_sQAk6THADSKs30-ElspNxKMwPCnjSllqrFZcysOV7Nhi2BWO3fdZSFLzcE5pKqOAamTMVp7i5m00]--></g></svg>