<?xml version="1.0" encoding="us-ascii" standalone="no"?><svg xmlns="http://www.w3.org/2000/svg" xmlns:xlink="http://www.w3.org/1999/xlink" contentStyleType="text/css" height="912px" preserveAspectRatio="none" style="width:1241px;height:912px;background:#FFFFFF;" version="1.1" viewBox="0 0 1241 912" width="1241px" zoomAndPan="magnify"><defs/><g><rect fill="#FFFFFF" height="725.334" style="stroke:#181818;stroke-width:1.0;" width="10" x="63.5" y="93.6211"/><rect fill="#FFFFFF" height="231.0078" style="stroke:#181818;stroke-width:1.0;" width="10" x="305.5" y="116.9121"/><rect fill="#FFFFFF" height="447.7441" style="stroke:#181818;stroke-width:1.0;" width="10" x="305.5" y="371.2109"/><rect fill="#FFFFFF" height="295.9492" style="stroke:#181818;stroke-width:1.0;" width="10" x="418.5" y="402.502"/><rect fill="#FFFFFF" height="233.3672" style="stroke:#181818;stroke-width:1.0;" width="10" x="610.5" y="433.793"/><rect fill="#FFFFFF" height="93.873" style="stroke:#181818;stroke-width:1.0;" width="10" x="951.5" y="465.084"/><rect fill="none" height="146.4258" style="stroke:#000000;stroke-width:1.5;" width="373.5" x="10" y="194.4941"/><rect fill="none" height="62.9121" style="stroke:#000000;stroke-width:1.5;" width="294" x="557.5" y="573.957"/><rect fill="none" height="98.5039" style="stroke:#000000;stroke-width:1.5;" width="373.5" x="10" y="713.4512"/><line style="stroke:#181818;stroke-width:0.5;stroke-dasharray:5.0,5.0;" x1="68" x2="68" y1="83.6211" y2="828.9551"/><line style="stroke:#181818;stroke-width:0.5;stroke-dasharray:5.0,5.0;" x1="310.5" x2="310.5" y1="83.6211" y2="828.9551"/><line style="stroke:#181818;stroke-width:0.5;stroke-dasharray:5.0,5.0;" x1="423.5" x2="423.5" y1="83.6211" y2="828.9551"/><line style="stroke:#181818;stroke-width:0.5;stroke-dasharray:5.0,5.0;" x1="615.5" x2="615.5" y1="83.6211" y2="828.9551"/><line style="stroke:#181818;stroke-width:0.5;stroke-dasharray:5.0,5.0;" x1="773.5" x2="773.5" y1="625.0586" y2="828.9551"/><line style="stroke:#181818;stroke-width:0.5;stroke-dasharray:5.0,5.0;" x1="956.5" x2="956.5" y1="83.6211" y2="828.9551"/><text fill="#000000" font-family="sans-serif" font-size="14" lengthAdjust="spacing" textLength="91" x="20" y="80.1074">Task Manager</text><ellipse cx="68.5" cy="13.5" fill="#E2E2F0" rx="8" ry="8" style="stroke:#181818;stroke-width:0.5;"/><path d="M68.5,21.5 L68.5,48.5 M55.5,29.5 L81.5,29.5 M68.5,48.5 L55.5,63.5 M68.5,48.5 L81.5,63.5 " fill="none" style="stroke:#181818;stroke-width:0.5;"/><text fill="#000000" font-family="sans-serif" font-size="14" lengthAdjust="spacing" textLength="91" x="20" y="843.0625">Task Manager</text><ellipse cx="68.5" cy="855.0762" fill="#E2E2F0" rx="8" ry="8" style="stroke:#181818;stroke-width:0.5;"/><path d="M68.5,863.0762 L68.5,890.0762 M55.5,871.0762 L81.5,871.0762 M68.5,890.0762 L55.5,905.0762 M68.5,890.0762 L81.5,905.0762 " fill="none" style="stroke:#181818;stroke-width:0.5;"/><rect fill="#E2E2F0" height="32.6211" rx="2.5" ry="2.5" style="stroke:#181818;stroke-width:0.5;" width="126" x="247.5" y="50"/><text fill="#000000" font-family="sans-serif" font-size="14" lengthAdjust="spacing" textLength="112" x="254.5" y="72.1074">HTML + CSS + JS</text><rect fill="#E2E2F0" height="32.6211" rx="2.5" ry="2.5" style="stroke:#181818;stroke-width:0.5;" width="126" x="247.5" y="827.9551"/><text fill="#000000" font-family="sans-serif" font-size="14" lengthAdjust="spacing" textLength="112" x="254.5" y="850.0625">HTML + CSS + JS</text><rect fill="#E2E2F0" height="32.6211" rx="2.5" ry="2.5" style="stroke:#181818;stroke-width:0.5;" width="80" x="383.5" y="50"/><text fill="#000000" font-family="sans-serif" font-size="14" lengthAdjust="spacing" textLength="66" x="390.5" y="72.1074">:Controller</text><rect fill="#E2E2F0" height="32.6211" rx="2.5" ry="2.5" style="stroke:#181818;stroke-width:0.5;" width="80" x="383.5" y="827.9551"/><text fill="#000000" font-family="sans-serif" font-size="14" lengthAdjust="spacing" textLength="66" x="390.5" y="850.0625">:Controller</text><rect fill="#E2E2F0" height="32.6211" rx="2.5" ry="2.5" style="stroke:#181818;stroke-width:0.5;" width="96" x="567.5" y="50"/><text fill="#000000" font-family="sans-serif" font-size="14" lengthAdjust="spacing" textLength="82" x="574.5" y="72.1074">:TaskService</text><rect fill="#E2E2F0" height="32.6211" rx="2.5" ry="2.5" style="stroke:#181818;stroke-width:0.5;" width="96" x="567.5" y="827.9551"/><text fill="#000000" font-family="sans-serif" font-size="14" lengthAdjust="spacing" textLength="82" x="574.5" y="850.0625">:TaskService</text><rect fill="#E2E2F0" height="32.6211" rx="2.5" ry="2.5" style="stroke:#181818;stroke-width:0.5;" width="135" x="706.5" y="827.9551"/><text fill="#000000" font-family="sans-serif" font-size="14" lengthAdjust="spacing" textLength="121" x="713.5" y="850.0625">taskDTO:TaskDTO</text><rect fill="#E2E2F0" height="32.6211" rx="2.5" ry="2.5" style="stroke:#181818;stroke-width:0.5;" width="92" x="910.5" y="50"/><text fill="#000000" font-family="sans-serif" font-size="14" lengthAdjust="spacing" textLength="78" x="917.5" y="72.1074">HTTP Driver</text><rect fill="#E2E2F0" height="32.6211" rx="2.5" ry="2.5" style="stroke:#181818;stroke-width:0.5;" width="92" x="910.5" y="827.9551"/><text fill="#000000" font-family="sans-serif" font-size="14" lengthAdjust="spacing" textLength="78" x="917.5" y="850.0625">HTTP Driver</text><rect fill="#FFFFFF" height="725.334" style="stroke:#181818;stroke-width:1.0;" width="10" x="63.5" y="93.6211"/><rect fill="#FFFFFF" height="231.0078" style="stroke:#181818;stroke-width:1.0;" width="10" x="305.5" y="116.9121"/><rect fill="#FFFFFF" height="447.7441" style="stroke:#181818;stroke-width:1.0;" width="10" x="305.5" y="371.2109"/><rect fill="#FFFFFF" height="295.9492" style="stroke:#181818;stroke-width:1.0;" width="10" x="418.5" y="402.502"/><rect fill="#FFFFFF" height="233.3672" style="stroke:#181818;stroke-width:1.0;" width="10" x="610.5" y="433.793"/><rect fill="#FFFFFF" height="93.873" style="stroke:#181818;stroke-width:1.0;" width="10" x="951.5" y="465.084"/><polygon fill="#181818" points="293.5,112.9121,303.5,116.9121,293.5,120.9121,297.5,116.9121" style="stroke:#181818;stroke-width:1.0;"/><line style="stroke:#181818;stroke-width:1.0;" x1="73.5" x2="299.5" y1="116.9121" y2="116.9121"/><text fill="#000000" font-family="sans-serif" font-size="13" font-weight="bold" lengthAdjust="spacing" textLength="7" x="80.5" y="111.6494">1</text><text fill="#000000" font-family="sans-serif" font-size="13" lengthAdjust="spacing" textLength="202" x="91.5" y="111.6494">wants to list tasks based on a filter</text><polygon fill="#181818" points="84.5,144.2031,74.5,148.2031,84.5,152.2031,80.5,148.2031" style="stroke:#181818;stroke-width:1.0;"/><line style="stroke:#181818;stroke-width:1.0;stroke-dasharray:2.0,2.0;" x1="78.5" x2="304.5" y1="148.2031" y2="148.2031"/><text fill="#000000" font-family="sans-serif" font-size="13" font-weight="bold" lengthAdjust="spacing" textLength="7" x="90.5" y="142.9404">2</text><text fill="#000000" font-family="sans-serif" font-size="13" lengthAdjust="spacing" textLength="87" x="101.5" y="142.9404">shows criterion</text><polygon fill="#181818" points="293.5,175.4941,303.5,179.4941,293.5,183.4941,297.5,179.4941" style="stroke:#181818;stroke-width:1.0;"/><line style="stroke:#181818;stroke-width:1.0;" x1="73.5" x2="299.5" y1="179.4941" y2="179.4941"/><text fill="#000000" font-family="sans-serif" font-size="13" font-weight="bold" lengthAdjust="spacing" textLength="7" x="80.5" y="174.2314">3</text><text fill="#000000" font-family="sans-serif" font-size="13" lengthAdjust="spacing" textLength="85" x="91.5" y="174.2314">selects criteria</text><path d="M10,194.4941 L71,194.4941 L71,203.7852 L61,213.7852 L10,213.7852 L10,194.4941 " fill="#EEEEEE" style="stroke:#000000;stroke-width:1.5;"/><rect fill="none" height="146.4258" style="stroke:#000000;stroke-width:1.5;" width="373.5" x="10" y="194.4941"/><text fill="#000000" font-family="sans-serif" font-size="13" font-weight="bold" lengthAdjust="spacing" textLength="16" x="25" y="209.5225">alt</text><text fill="#000000" font-family="sans-serif" font-size="11" font-weight="bold" lengthAdjust="spacing" textLength="78" x="86" y="208.3643">[selects user]</text><polygon fill="#181818" points="84.5,233.0762,74.5,237.0762,84.5,241.0762,80.5,237.0762" style="stroke:#181818;stroke-width:1.0;"/><line style="stroke:#181818;stroke-width:1.0;stroke-dasharray:2.0,2.0;" x1="78.5" x2="304.5" y1="237.0762" y2="237.0762"/><text fill="#000000" font-family="sans-serif" font-size="13" font-weight="bold" lengthAdjust="spacing" textLength="7" x="90.5" y="231.8135">4</text><text fill="#000000" font-family="sans-serif" font-size="13" lengthAdjust="spacing" textLength="81" x="101.5" y="231.8135">asks for email</text><line style="stroke:#000000;stroke-width:1.0;stroke-dasharray:2.0,2.0;" x1="10" x2="383.5" y1="246.0762" y2="246.0762"/><text fill="#000000" font-family="sans-serif" font-size="11" font-weight="bold" lengthAdjust="spacing" textLength="76" x="15" y="257.9463">[selects type]</text><polygon fill="#181818" points="84.5,280.998,74.5,284.998,84.5,288.998,80.5,284.998" style="stroke:#181818;stroke-width:1.0;"/><line style="stroke:#181818;stroke-width:1.0;stroke-dasharray:2.0,2.0;" x1="78.5" x2="304.5" y1="284.998" y2="284.998"/><text fill="#000000" font-family="sans-serif" font-size="13" font-weight="bold" lengthAdjust="spacing" textLength="7" x="90.5" y="279.7354">5</text><text fill="#000000" font-family="sans-serif" font-size="13" lengthAdjust="spacing" textLength="75" x="101.5" y="279.7354">asks for type</text><line style="stroke:#000000;stroke-width:1.0;stroke-dasharray:2.0,2.0;" x1="10" x2="383.5" y1="293.998" y2="293.998"/><text fill="#000000" font-family="sans-serif" font-size="11" font-weight="bold" lengthAdjust="spacing" textLength="80" x="15" y="305.8682">[selects state]</text><polygon fill="#181818" points="84.5,328.9199,74.5,332.9199,84.5,336.9199,80.5,332.9199" style="stroke:#181818;stroke-width:1.0;"/><line style="stroke:#181818;stroke-width:1.0;stroke-dasharray:2.0,2.0;" x1="78.5" x2="304.5" y1="332.9199" y2="332.9199"/><text fill="#000000" font-family="sans-serif" font-size="13" font-weight="bold" lengthAdjust="spacing" textLength="7" x="90.5" y="327.6572">6</text><text fill="#000000" font-family="sans-serif" font-size="13" lengthAdjust="spacing" textLength="79" x="101.5" y="327.6572">asks for state</text><polygon fill="#181818" points="293.5,367.2109,303.5,371.2109,293.5,375.2109,297.5,371.2109" style="stroke:#181818;stroke-width:1.0;"/><line style="stroke:#181818;stroke-width:1.0;" x1="73.5" x2="299.5" y1="371.2109" y2="371.2109"/><text fill="#000000" font-family="sans-serif" font-size="13" font-weight="bold" lengthAdjust="spacing" textLength="7" x="80.5" y="365.9482">7</text><text fill="#000000" font-family="sans-serif" font-size="13" lengthAdjust="spacing" textLength="75" x="91.5" y="365.9482">provides filter</text><polygon fill="#181818" points="406.5,398.502,416.5,402.502,406.5,406.502,410.5,402.502" style="stroke:#181818;stroke-width:1.0;"/><line style="stroke:#181818;stroke-width:1.0;" x1="315.5" x2="412.5" y1="402.502" y2="402.502"/><text fill="#000000" font-family="sans-serif" font-size="13" font-weight="bold" lengthAdjust="spacing" textLength="7" x="322.5" y="397.2393">8</text><text fill="#000000" font-family="sans-serif" font-size="13" lengthAdjust="spacing" textLength="63" x="333.5" y="397.2393">onSubmit()</text><polygon fill="#181818" points="598.5,429.793,608.5,433.793,598.5,437.793,602.5,433.793" style="stroke:#181818;stroke-width:1.0;"/><line style="stroke:#181818;stroke-width:1.0;" x1="428.5" x2="604.5" y1="433.793" y2="433.793"/><text fill="#000000" font-family="sans-serif" font-size="13" font-weight="bold" lengthAdjust="spacing" textLength="7" x="435.5" y="428.5303">9</text><text fill="#000000" font-family="sans-serif" font-size="13" lengthAdjust="spacing" textLength="152" x="446.5" y="428.5303">tasksByFilter(criteria,filter)</text><polygon fill="#181818" points="939.5,461.084,949.5,465.084,939.5,469.084,943.5,465.084" style="stroke:#181818;stroke-width:1.0;"/><line style="stroke:#181818;stroke-width:1.0;" x1="620.5" x2="945.5" y1="465.084" y2="465.084"/><text fill="#000000" font-family="sans-serif" font-size="13" font-weight="bold" lengthAdjust="spacing" textLength="14" x="627.5" y="459.8213">10</text><text fill="#000000" font-family="sans-serif" font-size="13" lengthAdjust="spacing" textLength="294" x="645.5" y="459.8213">GET {baseURL}/task?criteria={criteria}&amp;filter={filter}</text><polygon fill="#181818" points="1223.5,492.375,1233.5,496.375,1223.5,500.375,1227.5,496.375" style="stroke:#181818;stroke-width:1.0;"/><line style="stroke:#181818;stroke-width:1.0;" x1="961.5" x2="1229.5" y1="496.375" y2="496.375"/><text fill="#000000" font-family="sans-serif" font-size="13" font-weight="bold" lengthAdjust="spacing" textLength="14" x="968.5" y="491.1123">11</text><text fill="#000000" font-family="sans-serif" font-size="13" lengthAdjust="spacing" textLength="232" x="986.5" y="491.1123">GET /jobs?criteria={criteria}&amp;filter={filter}</text><polygon fill="#181818" points="972.5,523.666,962.5,527.666,972.5,531.666,968.5,527.666" style="stroke:#181818;stroke-width:1.0;"/><line style="stroke:#181818;stroke-width:1.0;stroke-dasharray:2.0,2.0;" x1="966.5" x2="1234.5" y1="527.666" y2="527.666"/><text fill="#000000" font-family="sans-serif" font-size="13" font-weight="bold" lengthAdjust="spacing" textLength="14" x="978.5" y="522.4033">12</text><text fill="#000000" font-family="sans-serif" font-size="13" lengthAdjust="spacing" textLength="32" x="996.5" y="522.4033">tasks</text><polygon fill="#181818" points="631.5,554.957,621.5,558.957,631.5,562.957,627.5,558.957" style="stroke:#181818;stroke-width:1.0;"/><line style="stroke:#181818;stroke-width:1.0;stroke-dasharray:2.0,2.0;" x1="625.5" x2="955.5" y1="558.957" y2="558.957"/><text fill="#000000" font-family="sans-serif" font-size="13" font-weight="bold" lengthAdjust="spacing" textLength="14" x="637.5" y="553.6943">13</text><text fill="#000000" font-family="sans-serif" font-size="13" lengthAdjust="spacing" textLength="109" x="655.5" y="553.6943">observable&lt;tasks&gt;</text><path d="M557.5,573.957 L630.5,573.957 L630.5,583.248 L620.5,593.248 L557.5,593.248 L557.5,573.957 " fill="#EEEEEE" style="stroke:#000000;stroke-width:1.5;"/><rect fill="none" height="62.9121" style="stroke:#000000;stroke-width:1.5;" width="294" x="557.5" y="573.957"/><text fill="#000000" font-family="sans-serif" font-size="13" font-weight="bold" lengthAdjust="spacing" textLength="28" x="572.5" y="588.9854">loop</text><text fill="#000000" font-family="sans-serif" font-size="11" font-weight="bold" lengthAdjust="spacing" textLength="80" x="645.5" y="587.8271">[for each task]</text><polygon fill="#181818" points="694.5,612.5391,704.5,616.5391,694.5,620.5391,698.5,616.5391" style="stroke:#181818;stroke-width:1.0;"/><line style="stroke:#181818;stroke-width:1.0;stroke-dasharray:2.0,2.0;" x1="620.5" x2="700.5" y1="616.5391" y2="616.5391"/><text fill="#000000" font-family="sans-serif" font-size="13" font-weight="bold" lengthAdjust="spacing" textLength="14" x="627.5" y="611.2764">14</text><text fill="#000000" font-family="sans-serif" font-size="13" lengthAdjust="spacing" textLength="44" x="645.5" y="611.2764">create()</text><rect fill="#E2E2F0" height="32.6211" rx="2.5" ry="2.5" style="stroke:#181818;stroke-width:0.5;" width="135" x="706.5" y="593.248"/><text fill="#000000" font-family="sans-serif" font-size="14" lengthAdjust="spacing" textLength="121" x="713.5" y="615.3555">taskDTO:TaskDTO</text><polygon fill="#181818" points="439.5,663.1602,429.5,667.1602,439.5,671.1602,435.5,667.1602" style="stroke:#181818;stroke-width:1.0;"/><line style="stroke:#181818;stroke-width:1.0;stroke-dasharray:2.0,2.0;" x1="433.5" x2="614.5" y1="667.1602" y2="667.1602"/><text fill="#000000" font-family="sans-serif" font-size="13" font-weight="bold" lengthAdjust="spacing" textLength="14" x="445.5" y="661.8975">15</text><text fill="#000000" font-family="sans-serif" font-size="13" lengthAdjust="spacing" textLength="32" x="463.5" y="661.8975">tasks</text><polygon fill="#181818" points="326.5,694.4512,316.5,698.4512,326.5,702.4512,322.5,698.4512" style="stroke:#181818;stroke-width:1.0;"/><line style="stroke:#181818;stroke-width:1.0;stroke-dasharray:2.0,2.0;" x1="320.5" x2="422.5" y1="698.4512" y2="698.4512"/><text fill="#000000" font-family="sans-serif" font-size="13" font-weight="bold" lengthAdjust="spacing" textLength="14" x="332.5" y="693.1885">16</text><text fill="#000000" font-family="sans-serif" font-size="13" lengthAdjust="spacing" textLength="32" x="350.5" y="693.1885">tasks</text><path d="M10,713.4512 L71,713.4512 L71,722.7422 L61,732.7422 L10,732.7422 L10,713.4512 " fill="#EEEEEE" style="stroke:#000000;stroke-width:1.5;"/><rect fill="none" height="98.5039" style="stroke:#000000;stroke-width:1.5;" width="373.5" x="10" y="713.4512"/><text fill="#000000" font-family="sans-serif" font-size="13" font-weight="bold" lengthAdjust="spacing" textLength="16" x="25" y="728.4795">alt</text><text fill="#000000" font-family="sans-serif" font-size="11" font-weight="bold" lengthAdjust="spacing" textLength="90" x="86" y="727.3213">[tasks is empty]</text><polygon fill="#181818" points="84.5,752.0332,74.5,756.0332,84.5,760.0332,80.5,756.0332" style="stroke:#181818;stroke-width:1.0;"/><line style="stroke:#181818;stroke-width:1.0;stroke-dasharray:2.0,2.0;" x1="78.5" x2="304.5" y1="756.0332" y2="756.0332"/><text fill="#000000" font-family="sans-serif" font-size="13" font-weight="bold" lengthAdjust="spacing" textLength="14" x="90.5" y="750.7705">17</text><text fill="#000000" font-family="sans-serif" font-size="13" lengthAdjust="spacing" textLength="128" x="108.5" y="750.7705">inform not tasks found</text><line style="stroke:#000000;stroke-width:1.0;stroke-dasharray:2.0,2.0;" x1="10" x2="383.5" y1="765.0332" y2="765.0332"/><text fill="#000000" font-family="sans-serif" font-size="11" font-weight="bold" lengthAdjust="spacing" textLength="98" x="15" y="776.9033">[tasks not empty]</text><polygon fill="#181818" points="84.5,799.9551,74.5,803.9551,84.5,807.9551,80.5,803.9551" style="stroke:#181818;stroke-width:1.0;"/><line style="stroke:#181818;stroke-width:1.0;stroke-dasharray:2.0,2.0;" x1="78.5" x2="304.5" y1="803.9551" y2="803.9551"/><text fill="#000000" font-family="sans-serif" font-size="13" font-weight="bold" lengthAdjust="spacing" textLength="14" x="90.5" y="798.6924">18</text><text fill="#000000" font-family="sans-serif" font-size="13" lengthAdjust="spacing" textLength="165" x="108.5" y="798.6924">shows tasks &amp; requests one</text><!--SRC=[dLHRRzem57xFhpZYeMgxeRwZbabhTz7KQjDWZtrmmc5uCtPcEq48yTztV9oOXC1QpGyu8T_b-5miAczqjSxHPfaelB4mcWlt6vw45Z_HZa0ug1nzB8Nrif2bq1v6d-TFZ_06xcSp-lqoOrGjSTD7JUwDzjOerUWKtgeZeKamcw6jPO6CSNLn1F64U9X_PIJjZ5fuCuXe_WqUhAmRhvNtPSP7ahNmo6S0MhJ3UCh1mWGsn7NW3IZfF0Gd1xbmk02ZGS1IAe-HbuJucD2ie7Ox7lEV4t0hiw5JMaaaQNGFrNWI21KMFi54GWdbqyVADRQdZ2Xk3dH9nSAra2eXKJbC6dvRugiq-i2UXlDqv5U9396e5_o-mFEvErIYjAQM2tGlvvm9H0pTH4IZPrM-blxowf39biSDrus9ESIbBYCgr_lzzYCxNhO5UHiZkCfwpAGP6XIELf0ZrT1p9FlfmnnseOj-V7_StmIJTwtstQvzsbz4cxjTtFVPG3LPSY_3YSM6u-bpOthpo-Jk_xoI6jNskKtDFpnJ3icHfbVa2c-PCnsGElMFGtaCKCQKiPb5iMBdayQSPFAbsR- -9kV28cbsojvjlEmSk-cQuVawOV8TD6oRGxFssHrclE6w4ntl5EbeKak_xQd6HYRLC0aJa9foi0PjMjBILCq8fRcC7mBaHRbu6KN21LZyKw6ZYJRwCANd9hJppbT_zXS0]--></g></svg>