<?xml version="1.0" encoding="us-ascii" standalone="no"?><svg xmlns="http://www.w3.org/2000/svg" xmlns:xlink="http://www.w3.org/1999/xlink" contentStyleType="text/css" height="922px" preserveAspectRatio="none" style="width:1269px;height:922px;background:#FFFFFF;" version="1.1" viewBox="0 0 1269 922" width="1269px" zoomAndPan="magnify"><defs/><g><rect fill="#FFFFFF" height="735.1339" style="stroke:#181818;stroke-width:1.0;" width="10" x="65.5" y="94.0679"/><rect fill="#FFFFFF" height="234.1999" style="stroke:#181818;stroke-width:1.0;" width="10" x="309.5" y="117.7739"/><rect fill="#FFFFFF" height="453.522" style="stroke:#181818;stroke-width:1.0;" width="10" x="309.5" y="375.6798"/><rect fill="#FFFFFF" height="299.716" style="stroke:#181818;stroke-width:1.0;" width="10" x="422.5" y="407.3858"/><rect fill="#FFFFFF" height="236.304" style="stroke:#181818;stroke-width:1.0;" width="10" x="617.5" y="439.0919"/><rect fill="#FFFFFF" height="95.118" style="stroke:#181818;stroke-width:1.0;" width="10" x="969.5" y="470.7979"/><rect fill="none" height="148.7878" style="stroke:#000000;stroke-width:1.5;" width="375" x="10" y="196.186"/><rect fill="none" height="63.7739" style="stroke:#000000;stroke-width:1.5;" width="293" x="564.5" y="580.9159"/><rect fill="none" height="100.0999" style="stroke:#000000;stroke-width:1.5;" width="375" x="10" y="722.1019"/><line style="stroke:#181818;stroke-width:0.5;stroke-dasharray:5.0,5.0;" x1="70" x2="70" y1="84.0679" y2="839.2018"/><line style="stroke:#181818;stroke-width:0.5;stroke-dasharray:5.0,5.0;" x1="314" x2="314" y1="84.0679" y2="839.2018"/><line style="stroke:#181818;stroke-width:0.5;stroke-dasharray:5.0,5.0;" x1="427" x2="427" y1="84.0679" y2="839.2018"/><line style="stroke:#181818;stroke-width:0.5;stroke-dasharray:5.0,5.0;" x1="622.5" x2="622.5" y1="84.0679" y2="839.2018"/><line style="stroke:#181818;stroke-width:0.5;stroke-dasharray:5.0,5.0;" x1="780.5" x2="780.5" y1="632.6559" y2="839.2018"/><line style="stroke:#181818;stroke-width:0.5;stroke-dasharray:5.0,5.0;" x1="974" x2="974" y1="84.0679" y2="839.2018"/><text fill="#000000" font-family="sans-serif" font-size="14" lengthAdjust="spacing" textLength="95" x="20" y="79.9659">Task Manager</text><ellipse cx="70.5" cy="13.5" fill="#E2E2F0" rx="8" ry="8" style="stroke:#181818;stroke-width:0.5;"/><path d="M70.5,21.5 L70.5,48.5 M57.5,29.5 L83.5,29.5 M70.5,48.5 L57.5,63.5 M70.5,48.5 L83.5,63.5 " fill="none" style="stroke:#181818;stroke-width:0.5;"/><text fill="#000000" font-family="sans-serif" font-size="14" lengthAdjust="spacing" textLength="95" x="20" y="853.1678">Task Manager</text><ellipse cx="70.5" cy="865.7697" fill="#E2E2F0" rx="8" ry="8" style="stroke:#181818;stroke-width:0.5;"/><path d="M70.5,873.7697 L70.5,900.7697 M57.5,881.7697 L83.5,881.7697 M70.5,900.7697 L57.5,915.7697 M70.5,900.7697 L83.5,915.7697 " fill="none" style="stroke:#181818;stroke-width:0.5;"/><rect fill="#E2E2F0" height="33.0679" rx="2.5" ry="2.5" style="stroke:#181818;stroke-width:0.5;" width="121" x="254" y="50"/><text fill="#000000" font-family="sans-serif" font-size="14" lengthAdjust="spacing" textLength="107" x="261" y="71.9659">HTML + CSS + JS</text><rect fill="#E2E2F0" height="33.0679" rx="2.5" ry="2.5" style="stroke:#181818;stroke-width:0.5;" width="121" x="254" y="838.2018"/><text fill="#000000" font-family="sans-serif" font-size="14" lengthAdjust="spacing" textLength="107" x="261" y="860.1678">HTML + CSS + JS</text><rect fill="#E2E2F0" height="33.0679" rx="2.5" ry="2.5" style="stroke:#181818;stroke-width:0.5;" width="85" x="385" y="50"/><text fill="#000000" font-family="sans-serif" font-size="14" lengthAdjust="spacing" textLength="71" x="392" y="71.9659">:Controller</text><rect fill="#E2E2F0" height="33.0679" rx="2.5" ry="2.5" style="stroke:#181818;stroke-width:0.5;" width="85" x="385" y="838.2018"/><text fill="#000000" font-family="sans-serif" font-size="14" lengthAdjust="spacing" textLength="71" x="392" y="860.1678">:Controller</text><rect fill="#E2E2F0" height="33.0679" rx="2.5" ry="2.5" style="stroke:#181818;stroke-width:0.5;" width="96" x="574.5" y="50"/><text fill="#000000" font-family="sans-serif" font-size="14" lengthAdjust="spacing" textLength="82" x="581.5" y="71.9659">:TaskService</text><rect fill="#E2E2F0" height="33.0679" rx="2.5" ry="2.5" style="stroke:#181818;stroke-width:0.5;" width="96" x="574.5" y="838.2018"/><text fill="#000000" font-family="sans-serif" font-size="14" lengthAdjust="spacing" textLength="82" x="581.5" y="860.1678">:TaskService</text><rect fill="#E2E2F0" height="33.0679" rx="2.5" ry="2.5" style="stroke:#181818;stroke-width:0.5;" width="133" x="714.5" y="838.2018"/><text fill="#000000" font-family="sans-serif" font-size="14" lengthAdjust="spacing" textLength="119" x="721.5" y="860.1678">taskDTO:TaskDTO</text><rect fill="#E2E2F0" height="33.0679" rx="2.5" ry="2.5" style="stroke:#181818;stroke-width:0.5;" width="93" x="928" y="50"/><text fill="#000000" font-family="sans-serif" font-size="14" lengthAdjust="spacing" textLength="79" x="935" y="71.9659">HTTP Driver</text><rect fill="#E2E2F0" height="33.0679" rx="2.5" ry="2.5" style="stroke:#181818;stroke-width:0.5;" width="93" x="928" y="838.2018"/><text fill="#000000" font-family="sans-serif" font-size="14" lengthAdjust="spacing" textLength="79" x="935" y="860.1678">HTTP Driver</text><rect fill="#FFFFFF" height="735.1339" style="stroke:#181818;stroke-width:1.0;" width="10" x="65.5" y="94.0679"/><rect fill="#FFFFFF" height="234.1999" style="stroke:#181818;stroke-width:1.0;" width="10" x="309.5" y="117.7739"/><rect fill="#FFFFFF" height="453.522" style="stroke:#181818;stroke-width:1.0;" width="10" x="309.5" y="375.6798"/><rect fill="#FFFFFF" height="299.716" style="stroke:#181818;stroke-width:1.0;" width="10" x="422.5" y="407.3858"/><rect fill="#FFFFFF" height="236.304" style="stroke:#181818;stroke-width:1.0;" width="10" x="617.5" y="439.0919"/><rect fill="#FFFFFF" height="95.118" style="stroke:#181818;stroke-width:1.0;" width="10" x="969.5" y="470.7979"/><polygon fill="#181818" points="297.5,113.7739,307.5,117.7739,297.5,121.7739,301.5,117.7739" style="stroke:#181818;stroke-width:1.0;"/><line style="stroke:#181818;stroke-width:1.0;" x1="75.5" x2="303.5" y1="117.7739" y2="117.7739"/><text fill="#000000" font-family="sans-serif" font-size="13" font-weight="bold" lengthAdjust="spacing" textLength="7" x="82.5" y="111.9649">1</text><text fill="#000000" font-family="sans-serif" font-size="13" lengthAdjust="spacing" textLength="204" x="93.5" y="111.9649">wants to list tasks based on a filter</text><polygon fill="#181818" points="86.5,145.4799,76.5,149.4799,86.5,153.4799,82.5,149.4799" style="stroke:#181818;stroke-width:1.0;"/><line style="stroke:#181818;stroke-width:1.0;stroke-dasharray:2.0,2.0;" x1="80.5" x2="308.5" y1="149.4799" y2="149.4799"/><text fill="#000000" font-family="sans-serif" font-size="13" font-weight="bold" lengthAdjust="spacing" textLength="7" x="92.5" y="143.6709">2</text><text fill="#000000" font-family="sans-serif" font-size="13" lengthAdjust="spacing" textLength="91" x="103.5" y="143.6709">shows criterion</text><polygon fill="#181818" points="297.5,177.186,307.5,181.186,297.5,185.186,301.5,181.186" style="stroke:#181818;stroke-width:1.0;"/><line style="stroke:#181818;stroke-width:1.0;" x1="75.5" x2="303.5" y1="181.186" y2="181.186"/><text fill="#000000" font-family="sans-serif" font-size="13" font-weight="bold" lengthAdjust="spacing" textLength="7" x="82.5" y="175.377">3</text><text fill="#000000" font-family="sans-serif" font-size="13" lengthAdjust="spacing" textLength="84" x="93.5" y="175.377">selects criteria</text><path d="M10,196.186 L73,196.186 L73,205.892 L63,215.892 L10,215.892 L10,196.186 " fill="#EEEEEE" style="stroke:#000000;stroke-width:1.5;"/><rect fill="none" height="148.7878" style="stroke:#000000;stroke-width:1.5;" width="375" x="10" y="196.186"/><text fill="#000000" font-family="sans-serif" font-size="13" font-weight="bold" lengthAdjust="spacing" textLength="18" x="25" y="211.083">alt</text><text fill="#000000" font-family="sans-serif" font-size="11" font-weight="bold" lengthAdjust="spacing" textLength="73" x="88" y="209.9449">[selects user]</text><polygon fill="#181818" points="86.5,235.598,76.5,239.598,86.5,243.598,82.5,239.598" style="stroke:#181818;stroke-width:1.0;"/><line style="stroke:#181818;stroke-width:1.0;stroke-dasharray:2.0,2.0;" x1="80.5" x2="308.5" y1="239.598" y2="239.598"/><text fill="#000000" font-family="sans-serif" font-size="13" font-weight="bold" lengthAdjust="spacing" textLength="7" x="92.5" y="233.789">4</text><text fill="#000000" font-family="sans-serif" font-size="13" lengthAdjust="spacing" textLength="81" x="103.5" y="233.789">asks for email</text><line style="stroke:#000000;stroke-width:1.0;stroke-dasharray:2.0,2.0;" x1="10" x2="385" y1="248.598" y2="248.598"/><text fill="#000000" font-family="sans-serif" font-size="11" font-weight="bold" lengthAdjust="spacing" textLength="74" x="15" y="260.3569">[selects type]</text><polygon fill="#181818" points="86.5,284.2859,76.5,288.2859,86.5,292.2859,82.5,288.2859" style="stroke:#181818;stroke-width:1.0;"/><line style="stroke:#181818;stroke-width:1.0;stroke-dasharray:2.0,2.0;" x1="80.5" x2="308.5" y1="288.2859" y2="288.2859"/><text fill="#000000" font-family="sans-serif" font-size="13" font-weight="bold" lengthAdjust="spacing" textLength="7" x="92.5" y="282.4769">5</text><text fill="#000000" font-family="sans-serif" font-size="13" lengthAdjust="spacing" textLength="76" x="103.5" y="282.4769">asks for type</text><line style="stroke:#000000;stroke-width:1.0;stroke-dasharray:2.0,2.0;" x1="10" x2="385" y1="297.2859" y2="297.2859"/><text fill="#000000" font-family="sans-serif" font-size="11" font-weight="bold" lengthAdjust="spacing" textLength="78" x="15" y="309.0448">[selects state]</text><polygon fill="#181818" points="86.5,332.9738,76.5,336.9738,86.5,340.9738,82.5,336.9738" style="stroke:#181818;stroke-width:1.0;"/><line style="stroke:#181818;stroke-width:1.0;stroke-dasharray:2.0,2.0;" x1="80.5" x2="308.5" y1="336.9738" y2="336.9738"/><text fill="#000000" font-family="sans-serif" font-size="13" font-weight="bold" lengthAdjust="spacing" textLength="7" x="92.5" y="331.1648">6</text><text fill="#000000" font-family="sans-serif" font-size="13" lengthAdjust="spacing" textLength="79" x="103.5" y="331.1648">asks for state</text><polygon fill="#181818" points="297.5,371.6798,307.5,375.6798,297.5,379.6798,301.5,375.6798" style="stroke:#181818;stroke-width:1.0;"/><line style="stroke:#181818;stroke-width:1.0;" x1="75.5" x2="303.5" y1="375.6798" y2="375.6798"/><text fill="#000000" font-family="sans-serif" font-size="13" font-weight="bold" lengthAdjust="spacing" textLength="7" x="82.5" y="369.8708">7</text><text fill="#000000" font-family="sans-serif" font-size="13" lengthAdjust="spacing" textLength="82" x="93.5" y="369.8708">provides filter</text><polygon fill="#181818" points="410.5,403.3858,420.5,407.3858,410.5,411.3858,414.5,407.3858" style="stroke:#181818;stroke-width:1.0;"/><line style="stroke:#181818;stroke-width:1.0;" x1="319.5" x2="416.5" y1="407.3858" y2="407.3858"/><text fill="#000000" font-family="sans-serif" font-size="13" font-weight="bold" lengthAdjust="spacing" textLength="7" x="326.5" y="401.5768">8</text><text fill="#000000" font-family="sans-serif" font-size="13" lengthAdjust="spacing" textLength="67" x="337.5" y="401.5768">onSubmit()</text><polygon fill="#181818" points="605.5,435.0919,615.5,439.0919,605.5,443.0919,609.5,439.0919" style="stroke:#181818;stroke-width:1.0;"/><line style="stroke:#181818;stroke-width:1.0;" x1="432.5" x2="611.5" y1="439.0919" y2="439.0919"/><text fill="#000000" font-family="sans-serif" font-size="13" font-weight="bold" lengthAdjust="spacing" textLength="7" x="439.5" y="433.2829">9</text><text fill="#000000" font-family="sans-serif" font-size="13" lengthAdjust="spacing" textLength="155" x="450.5" y="433.2829">tasksByFilter(criteria,filter)</text><polygon fill="#181818" points="957.5,466.7979,967.5,470.7979,957.5,474.7979,961.5,470.7979" style="stroke:#181818;stroke-width:1.0;"/><line style="stroke:#181818;stroke-width:1.0;" x1="627.5" x2="963.5" y1="470.7979" y2="470.7979"/><text fill="#000000" font-family="sans-serif" font-size="13" font-weight="bold" lengthAdjust="spacing" textLength="14" x="634.5" y="464.9889">10</text><text fill="#000000" font-family="sans-serif" font-size="13" lengthAdjust="spacing" textLength="305" x="652.5" y="464.9889">GET {baseURL}/task?criteria={criteria}&amp;filter={filter}</text><polygon fill="#181818" points="1251.5,498.5039,1261.5,502.5039,1251.5,506.5039,1255.5,502.5039" style="stroke:#181818;stroke-width:1.0;"/><line style="stroke:#181818;stroke-width:1.0;" x1="979.5" x2="1257.5" y1="502.5039" y2="502.5039"/><text fill="#000000" font-family="sans-serif" font-size="13" font-weight="bold" lengthAdjust="spacing" textLength="14" x="986.5" y="496.6949">11</text><text fill="#000000" font-family="sans-serif" font-size="13" lengthAdjust="spacing" textLength="242" x="1004.5" y="496.6949">GET /jobs?criteria={criteria}&amp;filter={filter}</text><polygon fill="#181818" points="990.5,530.2099,980.5,534.2099,990.5,538.2099,986.5,534.2099" style="stroke:#181818;stroke-width:1.0;"/><line style="stroke:#181818;stroke-width:1.0;stroke-dasharray:2.0,2.0;" x1="984.5" x2="1262.5" y1="534.2099" y2="534.2099"/><text fill="#000000" font-family="sans-serif" font-size="13" font-weight="bold" lengthAdjust="spacing" textLength="14" x="996.5" y="528.4009">12</text><text fill="#000000" font-family="sans-serif" font-size="13" lengthAdjust="spacing" textLength="31" x="1014.5" y="528.4009">tasks</text><polygon fill="#181818" points="638.5,561.9159,628.5,565.9159,638.5,569.9159,634.5,565.9159" style="stroke:#181818;stroke-width:1.0;"/><line style="stroke:#181818;stroke-width:1.0;stroke-dasharray:2.0,2.0;" x1="632.5" x2="973.5" y1="565.9159" y2="565.9159"/><text fill="#000000" font-family="sans-serif" font-size="13" font-weight="bold" lengthAdjust="spacing" textLength="14" x="644.5" y="560.1069">13</text><text fill="#000000" font-family="sans-serif" font-size="13" lengthAdjust="spacing" textLength="111" x="662.5" y="560.1069">observable&lt;tasks&gt;</text><path d="M564.5,580.9159 L637.5,580.9159 L637.5,590.6219 L627.5,600.6219 L564.5,600.6219 L564.5,580.9159 " fill="#EEEEEE" style="stroke:#000000;stroke-width:1.5;"/><rect fill="none" height="63.7739" style="stroke:#000000;stroke-width:1.5;" width="293" x="564.5" y="580.9159"/><text fill="#000000" font-family="sans-serif" font-size="13" font-weight="bold" lengthAdjust="spacing" textLength="28" x="579.5" y="595.8129">loop</text><text fill="#000000" font-family="sans-serif" font-size="11" font-weight="bold" lengthAdjust="spacing" textLength="81" x="652.5" y="594.6748">[for each task]</text><polygon fill="#181818" points="702.5,620.328,712.5,624.328,702.5,628.328,706.5,624.328" style="stroke:#181818;stroke-width:1.0;"/><line style="stroke:#181818;stroke-width:1.0;stroke-dasharray:2.0,2.0;" x1="627.5" x2="708.5" y1="624.328" y2="624.328"/><text fill="#000000" font-family="sans-serif" font-size="13" font-weight="bold" lengthAdjust="spacing" textLength="14" x="634.5" y="618.519">14</text><text fill="#000000" font-family="sans-serif" font-size="13" lengthAdjust="spacing" textLength="45" x="652.5" y="618.519">create()</text><rect fill="#E2E2F0" height="33.0679" rx="2.5" ry="2.5" style="stroke:#181818;stroke-width:0.5;" width="133" x="714.5" y="600.6219"/><text fill="#000000" font-family="sans-serif" font-size="14" lengthAdjust="spacing" textLength="119" x="721.5" y="622.5879">taskDTO:TaskDTO</text><polygon fill="#181818" points="443.5,671.3959,433.5,675.3959,443.5,679.3959,439.5,675.3959" style="stroke:#181818;stroke-width:1.0;"/><line style="stroke:#181818;stroke-width:1.0;stroke-dasharray:2.0,2.0;" x1="437.5" x2="621.5" y1="675.3959" y2="675.3959"/><text fill="#000000" font-family="sans-serif" font-size="13" font-weight="bold" lengthAdjust="spacing" textLength="14" x="449.5" y="669.5869">15</text><text fill="#000000" font-family="sans-serif" font-size="13" lengthAdjust="spacing" textLength="31" x="467.5" y="669.5869">tasks</text><polygon fill="#181818" points="330.5,703.1019,320.5,707.1019,330.5,711.1019,326.5,707.1019" style="stroke:#181818;stroke-width:1.0;"/><line style="stroke:#181818;stroke-width:1.0;stroke-dasharray:2.0,2.0;" x1="324.5" x2="426.5" y1="707.1019" y2="707.1019"/><text fill="#000000" font-family="sans-serif" font-size="13" font-weight="bold" lengthAdjust="spacing" textLength="14" x="336.5" y="701.2929">16</text><text fill="#000000" font-family="sans-serif" font-size="13" lengthAdjust="spacing" textLength="31" x="354.5" y="701.2929">tasks</text><path d="M10,722.1019 L73,722.1019 L73,731.8079 L63,741.8079 L10,741.8079 L10,722.1019 " fill="#EEEEEE" style="stroke:#000000;stroke-width:1.5;"/><rect fill="none" height="100.0999" style="stroke:#000000;stroke-width:1.5;" width="375" x="10" y="722.1019"/><text fill="#000000" font-family="sans-serif" font-size="13" font-weight="bold" lengthAdjust="spacing" textLength="18" x="25" y="736.9989">alt</text><text fill="#000000" font-family="sans-serif" font-size="11" font-weight="bold" lengthAdjust="spacing" textLength="87" x="88" y="735.8608">[tasks is empty]</text><polygon fill="#181818" points="86.5,761.5139,76.5,765.5139,86.5,769.5139,82.5,765.5139" style="stroke:#181818;stroke-width:1.0;"/><line style="stroke:#181818;stroke-width:1.0;stroke-dasharray:2.0,2.0;" x1="80.5" x2="308.5" y1="765.5139" y2="765.5139"/><text fill="#000000" font-family="sans-serif" font-size="13" font-weight="bold" lengthAdjust="spacing" textLength="14" x="92.5" y="759.7049">17</text><text fill="#000000" font-family="sans-serif" font-size="13" lengthAdjust="spacing" textLength="137" x="110.5" y="759.7049">inform not tasks found</text><line style="stroke:#000000;stroke-width:1.0;stroke-dasharray:2.0,2.0;" x1="10" x2="385" y1="774.5139" y2="774.5139"/><text fill="#000000" font-family="sans-serif" font-size="11" font-weight="bold" lengthAdjust="spacing" textLength="98" x="15" y="786.2728">[tasks not empty]</text><polygon fill="#181818" points="86.5,810.2018,76.5,814.2018,86.5,818.2018,82.5,814.2018" style="stroke:#181818;stroke-width:1.0;"/><line style="stroke:#181818;stroke-width:1.0;stroke-dasharray:2.0,2.0;" x1="80.5" x2="308.5" y1="814.2018" y2="814.2018"/><text fill="#000000" font-family="sans-serif" font-size="13" font-weight="bold" lengthAdjust="spacing" textLength="14" x="92.5" y="808.3928">18</text><text fill="#000000" font-family="sans-serif" font-size="13" lengthAdjust="spacing" textLength="166" x="110.5" y="808.3928">shows tasks &amp; requests one</text><!--SRC=[dLHRRzem57xFhpZYeMgxeRwZbabhTz7KQjDWZtrmmc5uCtPcEq48yTztV9oOXC1QpGyu8T_b-5miAczqjSxHPfaelB4mcWlt6vw45Z_HZa0ug1nzB8Nrif2bq1v6d-TFZ_06xcSp-lqoOrGjSTD7JUwDzjOerUWKtgeZeKamcw6jPO6CSNLn1F64U9X_PIJjZ5fuCuXe_WqUhAmRhvNtPSP7ahNmo6S0MhJ3UCh1mWGsn7NW3IZfF0Gd1xbmk02ZGS1IAe-HbuJucD2ie7Ox7lEV4t0hiw5JMaaaQNGFrNWI21KMFi54GWdbqyVADRQdZ2Xk3dH9nSAra2eXKJbC6dvRugiq-i2UXlDqv5U9396e5_o-mFEvErIYjAQM2tGlvvm9H0pTH4IZPrM-blxowf39biSDrus9ESIbBYCgr_lzzYCxNhO5UHiZkCfwpAGP6XIELf0ZrT1p9FlfmnnseOj-V7_StmIJTwtstQvzsbz4cxjTtFVPG3LPSY_3YSM6u-bpOthpo-Jk_xoI6jNskKtDFpnJ3icHfbVa2c-PCnsGElMFGtaCKCQKiPb5iMBdayQSPFAbsR- -9kV28cbsojvjlEmSk-cQuVawOV8TD6oRGxFssHrclE6w4ntl5EbeKak_xQd6HYRLC0aJa9foi0PjMjBILCq8fRcC7mBaHRbu6KN21LZyKw6ZYJRwCANd9hJppbT_zXS0]--></g></svg>