<?xml version="1.0" encoding="us-ascii" standalone="no"?><svg xmlns="http://www.w3.org/2000/svg" xmlns:xlink="http://www.w3.org/1999/xlink" contentStyleType="text/css" height="683px" preserveAspectRatio="none" style="width:446px;height:683px;background:#FFFFFF;" version="1.1" viewBox="0 0 446 683" width="446px" zoomAndPan="magnify"><defs/><g><rect fill="#FFFFFF" height="496.5977" style="stroke:#181818;stroke-width:1.0;" width="10" x="94" y="93.6211"/><rect fill="#FFFFFF" height="105.5039" style="stroke:#181818;stroke-width:1.0;" width="10" x="328" y="116.9121"/><rect fill="#FFFFFF" height="105.5039" style="stroke:#181818;stroke-width:1.0;" width="10" x="328" y="253.707"/><rect fill="#FFFFFF" height="182.4258" style="stroke:#181818;stroke-width:1.0;" width="10" x="328" y="407.793"/><rect fill="none" height="451.3066" style="stroke:#000000;stroke-width:1.5;" width="429" x="10" y="131.9121"/><rect fill="none" height="307.5117" style="stroke:#000000;stroke-width:1.5;" width="409" x="20" y="268.707"/><rect fill="none" height="146.4258" style="stroke:#000000;stroke-width:1.5;" width="389" x="30" y="422.793"/><line style="stroke:#181818;stroke-width:0.5;stroke-dasharray:5.0,5.0;" x1="99" x2="99" y1="83.6211" y2="600.2188"/><line style="stroke:#181818;stroke-width:0.5;stroke-dasharray:5.0,5.0;" x1="333" x2="333" y1="83.6211" y2="600.2188"/><text fill="#000000" font-family="sans-serif" font-size="14" lengthAdjust="spacing" textLength="112" x="40" y="80.1074">Campus Manager</text><ellipse cx="99" cy="13.5" fill="#E2E2F0" rx="8" ry="8" style="stroke:#181818;stroke-width:0.5;"/><path d="M99,21.5 L99,48.5 M86,29.5 L112,29.5 M99,48.5 L86,63.5 M99,48.5 L112,63.5 " fill="none" style="stroke:#181818;stroke-width:0.5;"/><text fill="#000000" font-family="sans-serif" font-size="14" lengthAdjust="spacing" textLength="112" x="40" y="614.3262">Campus Manager</text><ellipse cx="99" cy="626.3398" fill="#E2E2F0" rx="8" ry="8" style="stroke:#181818;stroke-width:0.5;"/><path d="M99,634.3398 L99,661.3398 M86,642.3398 L112,642.3398 M99,661.3398 L86,676.3398 M99,661.3398 L112,676.3398 " fill="none" style="stroke:#181818;stroke-width:0.5;"/><rect fill="#E2E2F0" height="51.2422" rx="2.5" ry="2.5" style="stroke:#181818;stroke-width:0.5;" width="152" x="257" y="31.3789"/><text fill="#000000" font-family="sans-serif" font-size="14" lengthAdjust="spacing" textLength="60" x="303" y="53.4863">&#171;system&#187;</text><text fill="#000000" font-family="sans-serif" font-size="14" lengthAdjust="spacing" textLength="134" x="268" y="72.1074">System RobDroneGo</text><rect fill="#E2E2F0" height="51.2422" rx="2.5" ry="2.5" style="stroke:#181818;stroke-width:0.5;" width="152" x="257" y="599.2188"/><text fill="#000000" font-family="sans-serif" font-size="14" lengthAdjust="spacing" textLength="60" x="303" y="621.3262">&#171;system&#187;</text><text fill="#000000" font-family="sans-serif" font-size="14" lengthAdjust="spacing" textLength="134" x="268" y="639.9473">System RobDroneGo</text><rect fill="#FFFFFF" height="496.5977" style="stroke:#181818;stroke-width:1.0;" width="10" x="94" y="93.6211"/><rect fill="#FFFFFF" height="105.5039" style="stroke:#181818;stroke-width:1.0;" width="10" x="328" y="116.9121"/><rect fill="#FFFFFF" height="105.5039" style="stroke:#181818;stroke-width:1.0;" width="10" x="328" y="253.707"/><rect fill="#FFFFFF" height="182.4258" style="stroke:#181818;stroke-width:1.0;" width="10" x="328" y="407.793"/><polygon fill="#181818" points="316,112.9121,326,116.9121,316,120.9121,320,116.9121" style="stroke:#181818;stroke-width:1.0;"/><line style="stroke:#181818;stroke-width:1.0;" x1="104" x2="322" y1="116.9121" y2="116.9121"/><text fill="#000000" font-family="sans-serif" font-size="13" font-weight="bold" lengthAdjust="spacing" textLength="7" x="111" y="111.6494">1</text><text fill="#000000" font-family="sans-serif" font-size="13" lengthAdjust="spacing" textLength="122" x="122" y="111.6494">wants to create room</text><path d="M10,131.9121 L71,131.9121 L71,141.2031 L61,151.2031 L10,151.2031 L10,131.9121 " fill="#EEEEEE" style="stroke:#000000;stroke-width:1.5;"/><rect fill="none" height="451.3066" style="stroke:#000000;stroke-width:1.5;" width="429" x="10" y="131.9121"/><text fill="#000000" font-family="sans-serif" font-size="13" font-weight="bold" lengthAdjust="spacing" textLength="16" x="25" y="146.9404">alt</text><text fill="#000000" font-family="sans-serif" font-size="11" font-weight="bold" lengthAdjust="spacing" textLength="123" x="86" y="145.7822">[building(s) not found]</text><polygon fill="#181818" points="115,170.4941,105,174.4941,115,178.4941,111,174.4941" style="stroke:#181818;stroke-width:1.0;"/><line style="stroke:#181818;stroke-width:1.0;stroke-dasharray:2.0,2.0;" x1="109" x2="327" y1="174.4941" y2="174.4941"/><text fill="#000000" font-family="sans-serif" font-size="13" font-weight="bold" lengthAdjust="spacing" textLength="7" x="121" y="169.2314">2</text><text fill="#000000" font-family="sans-serif" font-size="13" lengthAdjust="spacing" textLength="162" x="132" y="169.2314">informs building(s) not found</text><line style="stroke:#000000;stroke-width:1.0;stroke-dasharray:2.0,2.0;" x1="10" x2="439" y1="183.4941" y2="183.4941"/><text fill="#000000" font-family="sans-serif" font-size="11" font-weight="bold" lengthAdjust="spacing" textLength="102" x="15" y="195.3643">[building(s) found]</text><polygon fill="#181818" points="115,218.416,105,222.416,115,226.416,111,222.416" style="stroke:#181818;stroke-width:1.0;"/><line style="stroke:#181818;stroke-width:1.0;stroke-dasharray:2.0,2.0;" x1="109" x2="332" y1="222.416" y2="222.416"/><text fill="#000000" font-family="sans-serif" font-size="13" font-weight="bold" lengthAdjust="spacing" textLength="7" x="121" y="217.1533">3</text><text fill="#000000" font-family="sans-serif" font-size="13" lengthAdjust="spacing" textLength="189" x="132" y="217.1533">shows buildings and request one</text><polygon fill="#181818" points="316,249.707,326,253.707,316,257.707,320,253.707" style="stroke:#181818;stroke-width:1.0;"/><line style="stroke:#181818;stroke-width:1.0;" x1="104" x2="322" y1="253.707" y2="253.707"/><text fill="#000000" font-family="sans-serif" font-size="13" font-weight="bold" lengthAdjust="spacing" textLength="7" x="111" y="248.4443">4</text><text fill="#000000" font-family="sans-serif" font-size="13" lengthAdjust="spacing" textLength="97" x="122" y="248.4443">chooses building</text><path d="M20,268.707 L81,268.707 L81,277.998 L71,287.998 L20,287.998 L20,268.707 " fill="#EEEEEE" style="stroke:#000000;stroke-width:1.5;"/><rect fill="none" height="307.5117" style="stroke:#000000;stroke-width:1.5;" width="409" x="20" y="268.707"/><text fill="#000000" font-family="sans-serif" font-size="13" font-weight="bold" lengthAdjust="spacing" textLength="16" x="35" y="283.7354">alt</text><text fill="#000000" font-family="sans-serif" font-size="11" font-weight="bold" lengthAdjust="spacing" textLength="112" x="96" y="282.5771">[floors(s) not found]</text><polygon fill="#181818" points="115,307.2891,105,311.2891,115,315.2891,111,311.2891" style="stroke:#181818;stroke-width:1.0;"/><line style="stroke:#181818;stroke-width:1.0;stroke-dasharray:2.0,2.0;" x1="109" x2="327" y1="311.2891" y2="311.2891"/><text fill="#000000" font-family="sans-serif" font-size="13" font-weight="bold" lengthAdjust="spacing" textLength="7" x="121" y="306.0264">5</text><text fill="#000000" font-family="sans-serif" font-size="13" lengthAdjust="spacing" textLength="149" x="132" y="306.0264">informs floors(s) not found</text><line style="stroke:#000000;stroke-width:1.0;stroke-dasharray:2.0,2.0;" x1="20" x2="429" y1="320.2891" y2="320.2891"/><text fill="#000000" font-family="sans-serif" font-size="11" font-weight="bold" lengthAdjust="spacing" textLength="91" x="25" y="332.1592">[floors(s) found]</text><polygon fill="#181818" points="115,355.2109,105,359.2109,115,363.2109,111,359.2109" style="stroke:#181818;stroke-width:1.0;"/><line style="stroke:#181818;stroke-width:1.0;stroke-dasharray:2.0,2.0;" x1="109" x2="332" y1="359.2109" y2="359.2109"/><text fill="#000000" font-family="sans-serif" font-size="13" font-weight="bold" lengthAdjust="spacing" textLength="7" x="121" y="353.9482">6</text><text fill="#000000" font-family="sans-serif" font-size="13" lengthAdjust="spacing" textLength="173" x="132" y="353.9482">shows floors and request data</text><polygon fill="#181818" points="316,403.793,326,407.793,316,411.793,320,407.793" style="stroke:#181818;stroke-width:1.0;"/><line style="stroke:#181818;stroke-width:1.0;" x1="104" x2="322" y1="407.793" y2="407.793"/><text fill="#000000" font-family="sans-serif" font-size="13" font-weight="bold" lengthAdjust="spacing" textLength="7" x="111" y="393.8848">7</text><text fill="#000000" font-family="sans-serif" font-size="13" lengthAdjust="spacing" textLength="146" x="122" y="385.2393">choose floor and provides</text><text fill="#000000" font-family="sans-serif" font-size="13" lengthAdjust="spacing" textLength="58" x="126" y="402.5303">room data</text><path d="M30,422.793 L91,422.793 L91,432.084 L81,442.084 L30,442.084 L30,422.793 " fill="#EEEEEE" style="stroke:#000000;stroke-width:1.5;"/><rect fill="none" height="146.4258" style="stroke:#000000;stroke-width:1.5;" width="389" x="30" y="422.793"/><text fill="#000000" font-family="sans-serif" font-size="13" font-weight="bold" lengthAdjust="spacing" textLength="16" x="45" y="437.8213">alt</text><text fill="#000000" font-family="sans-serif" font-size="11" font-weight="bold" lengthAdjust="spacing" textLength="129" x="106" y="436.6631">[room bad parameters]</text><polygon fill="#181818" points="115,461.375,105,465.375,115,469.375,111,465.375" style="stroke:#181818;stroke-width:1.0;"/><line style="stroke:#181818;stroke-width:1.0;stroke-dasharray:2.0,2.0;" x1="109" x2="327" y1="465.375" y2="465.375"/><text fill="#000000" font-family="sans-serif" font-size="13" font-weight="bold" lengthAdjust="spacing" textLength="7" x="121" y="460.1123">8</text><text fill="#000000" font-family="sans-serif" font-size="13" lengthAdjust="spacing" textLength="65" x="132" y="460.1123">inform error</text><line style="stroke:#000000;stroke-width:1.0;stroke-dasharray:2.0,2.0;" x1="30" x2="419" y1="474.375" y2="474.375"/><text fill="#000000" font-family="sans-serif" font-size="11" font-weight="bold" lengthAdjust="spacing" textLength="118" x="35" y="486.2451">[room already exists]</text><polygon fill="#181818" points="115,509.2969,105,513.2969,115,517.2969,111,513.2969" style="stroke:#181818;stroke-width:1.0;"/><line style="stroke:#181818;stroke-width:1.0;stroke-dasharray:2.0,2.0;" x1="109" x2="327" y1="513.2969" y2="513.2969"/><text fill="#000000" font-family="sans-serif" font-size="13" font-weight="bold" lengthAdjust="spacing" textLength="7" x="121" y="508.0342">9</text><text fill="#000000" font-family="sans-serif" font-size="13" lengthAdjust="spacing" textLength="65" x="132" y="508.0342">inform error</text><line style="stroke:#000000;stroke-width:1.0;stroke-dasharray:2.0,2.0;" x1="30" x2="419" y1="522.2969" y2="522.2969"/><text fill="#000000" font-family="sans-serif" font-size="11" font-weight="bold" lengthAdjust="spacing" textLength="156" x="35" y="534.167">[room created successfully]</text><polygon fill="#181818" points="115,557.2188,105,561.2188,115,565.2188,111,561.2188" style="stroke:#181818;stroke-width:1.0;"/><line style="stroke:#181818;stroke-width:1.0;stroke-dasharray:2.0,2.0;" x1="109" x2="327" y1="561.2188" y2="561.2188"/><text fill="#000000" font-family="sans-serif" font-size="13" font-weight="bold" lengthAdjust="spacing" textLength="14" x="121" y="555.9561">10</text><text fill="#000000" font-family="sans-serif" font-size="13" lengthAdjust="spacing" textLength="129" x="139" y="555.9561">previews created room</text><!--SRC=[fPEnJiCm48RtFiMf4mnzWQhg0X8J2wmib_ZIMd9yuSvEwTjZEstJW4XLuSMs_F-Vyvyl60Fxs5OaYmNMWGMMJzXsKU4LFUv8be0AKTDnXn9iRJlq0PQRZHurKBlTVdXuBqjuu-fPsDCB5rCI5ARjCL11G1ffXjKs7y8Q3ecb41XgeImIvhQeBhOCWTD05w2ArXdhTm_w29u3D1ozkIZooEHLkY5Tj0Rh6vPMRzZ8AKqaizJqtRhdmmXLG6z0w3EI1aW5A4v3an2_mzTxPgKHCn-ySSoYTyQUCvNGe-06SKWyo2Tn3GQy9-_0A8XEkBU6D7LGVlWHzMSHYgp2P4N1bWA9phpIK0KW4PPfxC91bvhE786-h8P_S8RUDQ2nhacrYSuTPsYTK6yf5VFiAqq_CT3rCvtMv_b7cQ-s-G_x1W00]--></g></svg>