<?xml version="1.0" encoding="us-ascii" standalone="no"?><svg xmlns="http://www.w3.org/2000/svg" xmlns:xlink="http://www.w3.org/1999/xlink" contentStyleType="text/css" height="497px" preserveAspectRatio="none" style="width:362px;height:497px;background:#FFFFFF;" version="1.1" viewBox="0 0 362 497" width="362px" zoomAndPan="magnify"><defs/><g><rect fill="#DDDDDD" height="485.4629" style="stroke:#181818;stroke-width:0.5;" width="87" x="217" y="6"/><text fill="#000000" font-family="sans-serif" font-size="13" font-weight="bold" lengthAdjust="spacing" textLength="81" x="220" y="20.0283">RobDroneGo</text><rect fill="#FFFFFF" height="282.9297" style="stroke:#181818;stroke-width:1.0;" width="10" x="48.5" y="116.9121"/><rect fill="#FFFFFF" height="282.9297" style="stroke:#181818;stroke-width:1.0;" width="10" x="255.5" y="116.9121"/><rect fill="none" height="260.9297" style="stroke:#000000;stroke-width:1.5;" width="345" x="10" y="131.9121"/><rect fill="none" height="179.7168" style="stroke:#000000;stroke-width:1.5;" width="325" x="20" y="206.125"/><rect fill="none" height="98.5039" style="stroke:#000000;stroke-width:1.5;" width="305" x="30" y="280.3379"/><line style="stroke:#181818;stroke-width:0.5;stroke-dasharray:5.0,5.0;" x1="53" x2="53" y1="83.6211" y2="409.8418"/><line style="stroke:#181818;stroke-width:0.5;stroke-dasharray:5.0,5.0;" x1="260" x2="260" y1="83.6211" y2="409.8418"/><text fill="#000000" font-family="sans-serif" font-size="14" lengthAdjust="spacing" textLength="4" x="48.5" y="80.1074">&#160;</text><ellipse cx="53.5" cy="13.5" fill="#E2E2F0" rx="8" ry="8" style="stroke:#181818;stroke-width:0.5;"/><path d="M53.5,21.5 L53.5,48.5 M40.5,29.5 L66.5,29.5 M53.5,48.5 L40.5,63.5 M53.5,48.5 L66.5,63.5 " fill="none" style="stroke:#181818;stroke-width:0.5;"/><text fill="#000000" font-family="sans-serif" font-size="14" lengthAdjust="spacing" textLength="4" x="48.5" y="423.9492">&#160;</text><ellipse cx="53.5" cy="435.9629" fill="#E2E2F0" rx="8" ry="8" style="stroke:#181818;stroke-width:0.5;"/><path d="M53.5,443.9629 L53.5,470.9629 M40.5,451.9629 L66.5,451.9629 M53.5,470.9629 L40.5,485.9629 M53.5,470.9629 L66.5,485.9629 " fill="none" style="stroke:#181818;stroke-width:0.5;"/><rect fill="#E2E2F0" height="32.6211" rx="2.5" ry="2.5" style="stroke:#181818;stroke-width:0.5;" width="35" x="243" y="50"/><text fill="#000000" font-family="sans-serif" font-size="14" lengthAdjust="spacing" textLength="21" x="250" y="72.1074">MD</text><rect fill="#E2E2F0" height="32.6211" rx="2.5" ry="2.5" style="stroke:#181818;stroke-width:0.5;" width="35" x="243" y="408.8418"/><text fill="#000000" font-family="sans-serif" font-size="14" lengthAdjust="spacing" textLength="21" x="250" y="430.9492">MD</text><rect fill="#FFFFFF" height="282.9297" style="stroke:#181818;stroke-width:1.0;" width="10" x="48.5" y="116.9121"/><rect fill="#FFFFFF" height="282.9297" style="stroke:#181818;stroke-width:1.0;" width="10" x="255.5" y="116.9121"/><polygon fill="#181818" points="243.5,112.9121,253.5,116.9121,243.5,120.9121,247.5,116.9121" style="stroke:#181818;stroke-width:1.0;"/><line style="stroke:#181818;stroke-width:1.0;" x1="58.5" x2="249.5" y1="116.9121" y2="116.9121"/><text fill="#000000" font-family="sans-serif" font-size="13" font-weight="bold" lengthAdjust="spacing" textLength="7" x="65.5" y="111.6494">1</text><text fill="#000000" font-family="sans-serif" font-size="13" lengthAdjust="spacing" textLength="90" x="76.5" y="111.6494">GET /passages</text><path d="M10,131.9121 L71,131.9121 L71,141.2031 L61,151.2031 L10,151.2031 L10,131.9121 " fill="#EEEEEE" style="stroke:#000000;stroke-width:1.5;"/><rect fill="none" height="260.9297" style="stroke:#000000;stroke-width:1.5;" width="345" x="10" y="131.9121"/><text fill="#000000" font-family="sans-serif" font-size="13" font-weight="bold" lengthAdjust="spacing" textLength="16" x="25" y="146.9404">alt</text><text fill="#000000" font-family="sans-serif" font-size="11" font-weight="bold" lengthAdjust="spacing" textLength="108" x="86" y="145.7822">[building not found]</text><polygon fill="#181818" points="69.5,170.4941,59.5,174.4941,69.5,178.4941,65.5,174.4941" style="stroke:#181818;stroke-width:1.0;"/><line style="stroke:#181818;stroke-width:1.0;stroke-dasharray:2.0,2.0;" x1="63.5" x2="254.5" y1="174.4941" y2="174.4941"/><text fill="#000000" font-family="sans-serif" font-size="13" font-weight="bold" lengthAdjust="spacing" textLength="7" x="75.5" y="169.2314">2</text><text fill="#000000" font-family="sans-serif" font-size="13" lengthAdjust="spacing" textLength="140" x="86.5" y="169.2314">412: Precondition Failed</text><line style="stroke:#000000;stroke-width:1.0;stroke-dasharray:2.0,2.0;" x1="10" x2="355" y1="183.4941" y2="183.4941"/><text fill="#000000" font-family="sans-serif" font-size="11" font-weight="bold" lengthAdjust="spacing" textLength="87" x="15" y="195.3643">[building found]</text><path d="M20,206.125 L81,206.125 L81,215.416 L71,225.416 L20,225.416 L20,206.125 " fill="#EEEEEE" style="stroke:#000000;stroke-width:1.5;"/><rect fill="none" height="179.7168" style="stroke:#000000;stroke-width:1.5;" width="325" x="20" y="206.125"/><text fill="#000000" font-family="sans-serif" font-size="13" font-weight="bold" lengthAdjust="spacing" textLength="16" x="35" y="221.1533">alt</text><text fill="#000000" font-family="sans-serif" font-size="11" font-weight="bold" lengthAdjust="spacing" textLength="111" x="96" y="219.9951">[passage not found]</text><polygon fill="#181818" points="69.5,244.707,59.5,248.707,69.5,252.707,65.5,248.707" style="stroke:#181818;stroke-width:1.0;"/><line style="stroke:#181818;stroke-width:1.0;stroke-dasharray:2.0,2.0;" x1="63.5" x2="254.5" y1="248.707" y2="248.707"/><text fill="#000000" font-family="sans-serif" font-size="13" font-weight="bold" lengthAdjust="spacing" textLength="7" x="75.5" y="243.4443">3</text><text fill="#000000" font-family="sans-serif" font-size="13" lengthAdjust="spacing" textLength="140" x="86.5" y="243.4443">412: Precondition Failed</text><line style="stroke:#000000;stroke-width:1.0;stroke-dasharray:2.0,2.0;" x1="20" x2="345" y1="257.707" y2="257.707"/><text fill="#000000" font-family="sans-serif" font-size="11" font-weight="bold" lengthAdjust="spacing" textLength="97" x="25" y="269.5771">[passages found]</text><path d="M30,280.3379 L91,280.3379 L91,289.6289 L81,299.6289 L30,299.6289 L30,280.3379 " fill="#EEEEEE" style="stroke:#000000;stroke-width:1.5;"/><rect fill="none" height="98.5039" style="stroke:#000000;stroke-width:1.5;" width="305" x="30" y="280.3379"/><text fill="#000000" font-family="sans-serif" font-size="13" font-weight="bold" lengthAdjust="spacing" textLength="16" x="45" y="295.3662">alt</text><text fill="#000000" font-family="sans-serif" font-size="11" font-weight="bold" lengthAdjust="spacing" textLength="224" x="106" y="294.208">[passages between buildings not found]</text><polygon fill="#181818" points="69.5,318.9199,59.5,322.9199,69.5,326.9199,65.5,322.9199" style="stroke:#181818;stroke-width:1.0;"/><line style="stroke:#181818;stroke-width:1.0;stroke-dasharray:2.0,2.0;" x1="63.5" x2="254.5" y1="322.9199" y2="322.9199"/><text fill="#000000" font-family="sans-serif" font-size="13" font-weight="bold" lengthAdjust="spacing" textLength="7" x="75.5" y="317.6572">4</text><text fill="#000000" font-family="sans-serif" font-size="13" lengthAdjust="spacing" textLength="140" x="86.5" y="317.6572">412: Precondition Failed</text><line style="stroke:#000000;stroke-width:1.0;stroke-dasharray:2.0,2.0;" x1="30" x2="335" y1="331.9199" y2="331.9199"/><text fill="#000000" font-family="sans-serif" font-size="11" font-weight="bold" lengthAdjust="spacing" textLength="203" x="35" y="343.79">[passages between buildings found]</text><polygon fill="#181818" points="69.5,366.8418,59.5,370.8418,69.5,374.8418,65.5,370.8418" style="stroke:#181818;stroke-width:1.0;"/><line style="stroke:#181818;stroke-width:1.0;stroke-dasharray:2.0,2.0;" x1="63.5" x2="254.5" y1="370.8418" y2="370.8418"/><text fill="#000000" font-family="sans-serif" font-size="13" font-weight="bold" lengthAdjust="spacing" textLength="7" x="75.5" y="365.5791">5</text><text fill="#000000" font-family="sans-serif" font-size="13" lengthAdjust="spacing" textLength="126" x="86.5" y="365.5791">200: "OK" Successful</text><!--SRC=[dPBBQWCn34Nt_WhX_T0qT3MKhj9cKKfBaX_mGma6nnhyQFlviJsFP4XAeFB6agnxhh55YkJIKQ9dJAX87dXU8a1DcAHVu1kIAqyEryHP9tmqodJ2HU0VgthqgFFmCDsybBI5zUiE7ZeHWZXWA3tpBI8Egf1ZAfNfMh0HP39M6tS0Hn7sb9okhHBv63HPlSUqyFIuRE7BeoAdJJJau4qOY_q0se1diRbGuGp6Rc06Qndnt3GLUWSruSRBtX8y8mD8Z3-8Rh8N_d3nBoVNRgvnFUekQxbOjC0_tpbiar8OmZxPEUV2yBZ7KLdZx84lqluBi1C0]--></g></svg>