<?xml version="1.0" encoding="us-ascii" standalone="no"?><svg xmlns="http://www.w3.org/2000/svg" xmlns:xlink="http://www.w3.org/1999/xlink" contentStyleType="text/css" height="1193px" preserveAspectRatio="none" style="width:1721px;height:1193px;background:#FFFFFF;" version="1.1" viewBox="0 0 1721 1193" width="1721px" zoomAndPan="magnify"><defs/><g><!--cluster system--><g id="cluster_system"><path d="M8.5,6.602 L59.5,6.602 A3.75,3.75 0 0 1 62,9.102 L69,31.6699 L1711.5,31.6699 A2.5,2.5 0 0 1 1714,34.1699 L1714,1184.392 A2.5,2.5 0 0 1 1711.5,1186.892 L8.5,1186.892 A2.5,2.5 0 0 1 6,1184.392 L6,9.102 A2.5,2.5 0 0 1 8.5,6.602 " fill="none" style="stroke:#000000;stroke-width:1.5;"/><line style="stroke:#000000;stroke-width:1.5;" x1="6" x2="69" y1="31.6699" y2="31.6699"/><text fill="#000000" font-family="sans-serif" font-size="14" font-weight="bold" lengthAdjust="spacing" textLength="50" x="10" y="23.5679">system</text></g><!--cluster Infrastructure--><g id="cluster_Infrastructure"><path d="M1146.5,52.602 L1244.5,52.602 A3.75,3.75 0 0 1 1247,55.102 L1254,77.6699 L1668.5,77.6699 A2.5,2.5 0 0 1 1671,80.1699 L1671,222.102 A2.5,2.5 0 0 1 1668.5,224.602 L1146.5,224.602 A2.5,2.5 0 0 1 1144,222.102 L1144,55.102 A2.5,2.5 0 0 1 1146.5,52.602 " fill="none" style="stroke:#000000;stroke-width:1.5;"/><line style="stroke:#000000;stroke-width:1.5;" x1="1144" x2="1254" y1="77.6699" y2="77.6699"/><text fill="#000000" font-family="sans-serif" font-size="14" font-weight="bold" lengthAdjust="spacing" textLength="97" x="1148" y="69.5679">Infrastructure</text></g><!--cluster Routes--><g id="cluster_Routes"><path d="M1447.5,98.602 L1496.5,98.602 A3.75,3.75 0 0 1 1499,101.102 L1506,123.6699 L1644.5,123.6699 A2.5,2.5 0 0 1 1647,126.1699 L1647,198.102 A2.5,2.5 0 0 1 1644.5,200.602 L1447.5,200.602 A2.5,2.5 0 0 1 1445,198.102 L1445,101.102 A2.5,2.5 0 0 1 1447.5,98.602 " fill="none" style="stroke:#000000;stroke-width:1.5;"/><line style="stroke:#000000;stroke-width:1.5;" x1="1445" x2="1506" y1="123.6699" y2="123.6699"/><text fill="#000000" font-family="sans-serif" font-size="14" font-weight="bold" lengthAdjust="spacing" textLength="48" x="1449" y="115.5679">Routes</text></g><!--cluster Persistence--><g id="cluster_Persistence"><path d="M1170.5,98.602 L1250.5,98.602 A3.75,3.75 0 0 1 1253,101.102 L1260,123.6699 L1418.5,123.6699 A2.5,2.5 0 0 1 1421,126.1699 L1421,198.102 A2.5,2.5 0 0 1 1418.5,200.602 L1170.5,200.602 A2.5,2.5 0 0 1 1168,198.102 L1168,101.102 A2.5,2.5 0 0 1 1170.5,98.602 " fill="none" style="stroke:#000000;stroke-width:1.5;"/><line style="stroke:#000000;stroke-width:1.5;" x1="1168" x2="1260" y1="123.6699" y2="123.6699"/><text fill="#000000" font-family="sans-serif" font-size="14" font-weight="bold" lengthAdjust="spacing" textLength="79" x="1172" y="115.5679">Persistence</text></g><!--cluster Interface Adapters--><g id="cluster_Interface Adapters"><path d="M1144.5,248.602 L1274.5,248.602 A3.75,3.75 0 0 1 1277,251.102 L1284,273.6699 L1687.5,273.6699 A2.5,2.5 0 0 1 1690,276.1699 L1690,706.102 A2.5,2.5 0 0 1 1687.5,708.602 L1144.5,708.602 A2.5,2.5 0 0 1 1142,706.102 L1142,251.102 A2.5,2.5 0 0 1 1144.5,248.602 " fill="none" style="stroke:#000000;stroke-width:1.5;"/><line style="stroke:#000000;stroke-width:1.5;" x1="1142" x2="1284" y1="273.6699" y2="273.6699"/><text fill="#000000" font-family="sans-serif" font-size="14" font-weight="bold" lengthAdjust="spacing" textLength="129" x="1146" y="265.5679">Interface Adapters</text></g><!--cluster Controllers--><g id="cluster_Controllers"><path d="M1390.5,294.602 L1468.5,294.602 A3.75,3.75 0 0 1 1471,297.102 L1478,319.6699 L1663.5,319.6699 A2.5,2.5 0 0 1 1666,322.1699 L1666,682.102 A2.5,2.5 0 0 1 1663.5,684.602 L1390.5,684.602 A2.5,2.5 0 0 1 1388,682.102 L1388,297.102 A2.5,2.5 0 0 1 1390.5,294.602 " fill="none" style="stroke:#000000;stroke-width:1.5;"/><line style="stroke:#000000;stroke-width:1.5;" x1="1388" x2="1478" y1="319.6699" y2="319.6699"/><text fill="#000000" font-family="sans-serif" font-size="14" font-weight="bold" lengthAdjust="spacing" textLength="77" x="1392" y="311.5679">Controllers</text></g><!--cluster IControllers--><g id="cluster_IControllers"><path d="M1418.5,340.602 L1501.5,340.602 A3.75,3.75 0 0 1 1504,343.102 L1511,365.6699 L1637.5,365.6699 A2.5,2.5 0 0 1 1640,368.1699 L1640,440.102 A2.5,2.5 0 0 1 1637.5,442.602 L1418.5,442.602 A2.5,2.5 0 0 1 1416,440.102 L1416,343.102 A2.5,2.5 0 0 1 1418.5,340.602 " fill="none" style="stroke:#000000;stroke-width:1.5;"/><line style="stroke:#000000;stroke-width:1.5;" x1="1416" x2="1511" y1="365.6699" y2="365.6699"/><text fill="#000000" font-family="sans-serif" font-size="14" font-weight="bold" lengthAdjust="spacing" textLength="82" x="1420" y="357.5679">IControllers</text></g><!--cluster ImplControllers--><g id="cluster_ImplControllers"><path d="M1414.5,558.602 L1524.5,558.602 A3.75,3.75 0 0 1 1527,561.102 L1534,583.6699 L1639.5,583.6699 A2.5,2.5 0 0 1 1642,586.1699 L1642,658.102 A2.5,2.5 0 0 1 1639.5,660.602 L1414.5,660.602 A2.5,2.5 0 0 1 1412,658.102 L1412,561.102 A2.5,2.5 0 0 1 1414.5,558.602 " fill="none" style="stroke:#000000;stroke-width:1.5;"/><line style="stroke:#000000;stroke-width:1.5;" x1="1412" x2="1534" y1="583.6699" y2="583.6699"/><text fill="#000000" font-family="sans-serif" font-size="14" font-weight="bold" lengthAdjust="spacing" textLength="109" x="1416" y="575.5679">ImplControllers</text></g><!--cluster Repositories--><g id="cluster_Repositories"><path d="M1168.5,340.602 L1255.5,340.602 A3.75,3.75 0 0 1 1258,343.102 L1265,365.6699 L1361.5,365.6699 A2.5,2.5 0 0 1 1364,368.1699 L1364,440.102 A2.5,2.5 0 0 1 1361.5,442.602 L1168.5,442.602 A2.5,2.5 0 0 1 1166,440.102 L1166,343.102 A2.5,2.5 0 0 1 1168.5,340.602 " fill="none" style="stroke:#000000;stroke-width:1.5;"/><line style="stroke:#000000;stroke-width:1.5;" x1="1166" x2="1265" y1="365.6699" y2="365.6699"/><text fill="#000000" font-family="sans-serif" font-size="14" font-weight="bold" lengthAdjust="spacing" textLength="86" x="1170" y="357.5679">Repositories</text></g><!--cluster Application Services--><g id="cluster_Application Services"><path d="M786.5,466.602 L926.5,466.602 A3.75,3.75 0 0 1 929,469.102 L936,491.6699 L1115.5,491.6699 A2.5,2.5 0 0 1 1118,494.1699 L1118,1066.982 A2.5,2.5 0 0 1 1115.5,1069.482 L786.5,1069.482 A2.5,2.5 0 0 1 784,1066.982 L784,469.102 A2.5,2.5 0 0 1 786.5,466.602 " fill="none" style="stroke:#000000;stroke-width:1.5;"/><line style="stroke:#000000;stroke-width:1.5;" x1="784" x2="936" y1="491.6699" y2="491.6699"/><text fill="#000000" font-family="sans-serif" font-size="14" font-weight="bold" lengthAdjust="spacing" textLength="139" x="788" y="483.5679">Application Services</text></g><!--cluster App Services--><g id="cluster_App Services"><path d="M810.5,512.602 L899.5,512.602 A3.75,3.75 0 0 1 902,515.102 L909,537.6699 L1091.5,537.6699 A2.5,2.5 0 0 1 1094,540.1699 L1094,1042.982 A2.5,2.5 0 0 1 1091.5,1045.482 L810.5,1045.482 A2.5,2.5 0 0 1 808,1042.982 L808,515.102 A2.5,2.5 0 0 1 810.5,512.602 " fill="none" style="stroke:#000000;stroke-width:1.5;"/><line style="stroke:#000000;stroke-width:1.5;" x1="808" x2="909" y1="537.6699" y2="537.6699"/><text fill="#000000" font-family="sans-serif" font-size="14" font-weight="bold" lengthAdjust="spacing" textLength="88" x="812" y="529.5679">App Services</text></g><!--cluster IAppServices--><g id="cluster_IAppServices"><path d="M843.5,919.482 L933.5,919.482 A3.75,3.75 0 0 1 936,921.982 L943,944.5499 L1064.5,944.5499 A2.5,2.5 0 0 1 1067,947.0499 L1067,1018.982 A2.5,2.5 0 0 1 1064.5,1021.482 L843.5,1021.482 A2.5,2.5 0 0 1 841,1018.982 L841,921.982 A2.5,2.5 0 0 1 843.5,919.482 " fill="none" style="stroke:#000000;stroke-width:1.5;"/><line style="stroke:#000000;stroke-width:1.5;" x1="841" x2="943" y1="944.5499" y2="944.5499"/><text fill="#000000" font-family="sans-serif" font-size="14" font-weight="bold" lengthAdjust="spacing" textLength="89" x="845" y="936.4479">IAppServices</text></g><!--cluster ImplAppServices--><g id="cluster_ImplAppServices"><path d="M834.5,732.602 L951.5,732.602 A3.75,3.75 0 0 1 954,735.102 L961,757.6699 L1067.5,757.6699 A2.5,2.5 0 0 1 1070,760.1699 L1070,832.102 A2.5,2.5 0 0 1 1067.5,834.602 L834.5,834.602 A2.5,2.5 0 0 1 832,832.102 L832,735.102 A2.5,2.5 0 0 1 834.5,732.602 " fill="none" style="stroke:#000000;stroke-width:1.5;"/><line style="stroke:#000000;stroke-width:1.5;" x1="832" x2="961" y1="757.6699" y2="757.6699"/><text fill="#000000" font-family="sans-serif" font-size="14" font-weight="bold" lengthAdjust="spacing" textLength="116" x="836" y="749.5679">ImplAppServices</text></g><!--cluster IRepositories--><g id="cluster_IRepositories"><path d="M882.5,558.602 L974.5,558.602 A3.75,3.75 0 0 1 977,561.102 L984,583.6699 L1067.5,583.6699 A2.5,2.5 0 0 1 1070,586.1699 L1070,658.102 A2.5,2.5 0 0 1 1067.5,660.602 L882.5,660.602 A2.5,2.5 0 0 1 880,658.102 L880,561.102 A2.5,2.5 0 0 1 882.5,558.602 " fill="none" style="stroke:#000000;stroke-width:1.5;"/><line style="stroke:#000000;stroke-width:1.5;" x1="880" x2="984" y1="583.6699" y2="583.6699"/><text fill="#000000" font-family="sans-serif" font-size="14" font-weight="bold" lengthAdjust="spacing" textLength="91" x="884" y="575.5679">IRepositories</text></g><!--cluster Entities/Core/Domain--><g id="cluster_Entities/Core/Domain"><path d="M32.5,858.602 L183.5,858.602 A3.75,3.75 0 0 1 186,861.102 L193,883.6699 L757.5,883.6699 A2.5,2.5 0 0 1 760,886.1699 L760,1160.392 A2.5,2.5 0 0 1 757.5,1162.892 L32.5,1162.892 A2.5,2.5 0 0 1 30,1160.392 L30,861.102 A2.5,2.5 0 0 1 32.5,858.602 " fill="none" style="stroke:#000000;stroke-width:1.5;"/><line style="stroke:#000000;stroke-width:1.5;" x1="30" x2="193" y1="883.6699" y2="883.6699"/><text fill="#000000" font-family="sans-serif" font-size="14" font-weight="bold" lengthAdjust="spacing" textLength="150" x="34" y="875.5679">Entities/Core/Domain</text></g><!--cluster a_building--><g id="cluster_a_building"><path d="M464.5,904.602 L568.5,904.602 A3.75,3.75 0 0 1 571,907.102 L578,929.6699 L621.5,929.6699 A2.5,2.5 0 0 1 624,932.1699 L624,1033.862 A2.5,2.5 0 0 1 621.5,1036.362 L464.5,1036.362 A2.5,2.5 0 0 1 462,1033.862 L462,907.102 A2.5,2.5 0 0 1 464.5,904.602 " fill="none" style="stroke:#000000;stroke-width:1.5;"/><line style="stroke:#000000;stroke-width:1.5;" x1="462" x2="578" y1="929.6699" y2="929.6699"/><text fill="#000000" font-family="sans-serif" font-size="14" font-weight="bold" lengthAdjust="spacing" textLength="103" x="466" y="921.5679">BackofficeUser</text></g><!--cluster DTO--><g id="cluster_DTO"><path d="M697.5,340.602 L727.5,340.602 A3.75,3.75 0 0 1 730,343.102 L737,365.6699 L1115.5,365.6699 A2.5,2.5 0 0 1 1118,368.1699 L1118,440.102 A2.5,2.5 0 0 1 1115.5,442.602 L697.5,442.602 A2.5,2.5 0 0 1 695,440.102 L695,343.102 A2.5,2.5 0 0 1 697.5,340.602 " fill="none" style="stroke:#000000;stroke-width:1.5;"/><line style="stroke:#000000;stroke-width:1.5;" x1="695" x2="737" y1="365.6699" y2="365.6699"/><text fill="#000000" font-family="sans-serif" font-size="14" font-weight="bold" lengthAdjust="spacing" textLength="29" x="699" y="357.5679">DTO</text></g><!--class BackofficeUserRoute--><g id="elem_BackofficeUserRoute"><rect codeLine="16" fill="#F1F1F1" height="48" id="BackofficeUserRoute" rx="2.5" ry="2.5" style="stroke:#181818;stroke-width:0.5;" width="170" x="1461" y="136.602"/><ellipse cx="1476" cy="152.602" fill="#ADD1B2" rx="11" ry="11" style="stroke:#181818;stroke-width:1.0;"/><path d="M1478.5625,159.1176 Q1476.9063,159.7426 1475.7031,159.7426 Q1474.125,159.7426 1472.7813,158.8989 Q1471.4531,158.0395 1470.7188,156.3832 Q1469.9844,154.727 1469.9844,152.6489 Q1469.9844,150.5864 1470.7031,148.9301 Q1471.4219,147.2739 1472.7656,146.4145 Q1474.1094,145.5551 1475.7031,145.5551 Q1476.9063,145.5551 1478.5625,146.1645 L1478.5625,148.352 Q1476.875,147.3676 1475.6406,147.3676 Q1474.7344,147.3676 1473.9688,148.0082 Q1473.2188,148.6332 1472.7344,149.8989 Q1472.25,151.1489 1472.25,152.6489 Q1472.25,154.1645 1472.75,155.4457 Q1473.25,156.7114 1474,157.3207 Q1474.75,157.9301 1475.6406,157.9301 Q1476.875,157.9301 1478.5625,156.9457 L1478.5625,159.1176 Z " fill="#000000"/><text fill="#000000" font-family="sans-serif" font-size="14" lengthAdjust="spacing" textLength="138" x="1490" y="158.034">BackofficeUserRoute</text><line style="stroke:#181818;stroke-width:0.5;" x1="1462" x2="1630" y1="168.602" y2="168.602"/><line style="stroke:#181818;stroke-width:0.5;" x1="1462" x2="1630" y1="176.602" y2="176.602"/></g><!--class IDBDriver--><g id="elem_IDBDriver"><rect codeLine="20" fill="#F1F1F1" height="48" id="IDBDriver" rx="2.5" ry="2.5" style="stroke:#181818;stroke-width:0.5;" width="93" x="1311.5" y="136.602"/><ellipse cx="1326.5" cy="152.602" fill="#B4A7E5" rx="11" ry="11" style="stroke:#181818;stroke-width:1.0;"/><path d="M1322.4219,159.602 L1322.4219,157.7895 L1325.2656,157.7895 L1325.2656,148.0082 L1322.4219,148.0082 L1322.4219,146.1801 L1330.2969,146.1801 L1330.2969,148.0082 L1327.4688,148.0082 L1327.4688,157.7895 L1330.2969,157.7895 L1330.2969,159.602 L1322.4219,159.602 Z " fill="#000000"/><text fill="#000000" font-family="sans-serif" font-size="14" font-style="italic" lengthAdjust="spacing" textLength="61" x="1340.5" y="158.034">IDBDriver</text><line style="stroke:#181818;stroke-width:0.5;" x1="1312.5" x2="1403.5" y1="168.602" y2="168.602"/><line style="stroke:#181818;stroke-width:0.5;" x1="1312.5" x2="1403.5" y1="176.602" y2="176.602"/></g><!--class DBDriver--><g id="elem_DBDriver"><rect codeLine="21" fill="#F1F1F1" height="48" id="DBDriver" rx="2.5" ry="2.5" style="stroke:#181818;stroke-width:0.5;" width="92" x="1184" y="136.602"/><ellipse cx="1199" cy="152.602" fill="#ADD1B2" rx="11" ry="11" style="stroke:#181818;stroke-width:1.0;"/><path d="M1201.5625,159.1176 Q1199.9063,159.7426 1198.7031,159.7426 Q1197.125,159.7426 1195.7813,158.8989 Q1194.4531,158.0395 1193.7188,156.3832 Q1192.9844,154.727 1192.9844,152.6489 Q1192.9844,150.5864 1193.7031,148.9301 Q1194.4219,147.2739 1195.7656,146.4145 Q1197.1094,145.5551 1198.7031,145.5551 Q1199.9063,145.5551 1201.5625,146.1645 L1201.5625,148.352 Q1199.875,147.3676 1198.6406,147.3676 Q1197.7344,147.3676 1196.9688,148.0082 Q1196.2188,148.6332 1195.7344,149.8989 Q1195.25,151.1489 1195.25,152.6489 Q1195.25,154.1645 1195.75,155.4457 Q1196.25,156.7114 1197,157.3207 Q1197.75,157.9301 1198.6406,157.9301 Q1199.875,157.9301 1201.5625,156.9457 L1201.5625,159.1176 Z " fill="#000000"/><text fill="#000000" font-family="sans-serif" font-size="14" lengthAdjust="spacing" textLength="60" x="1213" y="158.034">DBDriver</text><line style="stroke:#181818;stroke-width:0.5;" x1="1185" x2="1275" y1="168.602" y2="168.602"/><line style="stroke:#181818;stroke-width:0.5;" x1="1185" x2="1275" y1="176.602" y2="176.602"/></g><!--class IBackofficeUserController--><g id="elem_IBackofficeUserController"><rect codeLine="30" fill="#F1F1F1" height="48" id="IBackofficeUserController" rx="2.5" ry="2.5" style="stroke:#181818;stroke-width:0.5;" width="191" x="1432.5" y="378.602"/><ellipse cx="1447.5" cy="394.602" fill="#B4A7E5" rx="11" ry="11" style="stroke:#181818;stroke-width:1.0;"/><path d="M1443.4219,401.602 L1443.4219,399.7895 L1446.2656,399.7895 L1446.2656,390.0082 L1443.4219,390.0082 L1443.4219,388.1801 L1451.2969,388.1801 L1451.2969,390.0082 L1448.4688,390.0082 L1448.4688,399.7895 L1451.2969,399.7895 L1451.2969,401.602 L1443.4219,401.602 Z " fill="#000000"/><text fill="#000000" font-family="sans-serif" font-size="14" font-style="italic" lengthAdjust="spacing" textLength="159" x="1461.5" y="400.034">IBackofficeUserController</text><line style="stroke:#181818;stroke-width:0.5;" x1="1433.5" x2="1622.5" y1="410.602" y2="410.602"/><line style="stroke:#181818;stroke-width:0.5;" x1="1433.5" x2="1622.5" y1="418.602" y2="418.602"/></g><!--class BackofficeUserController--><g id="elem_BackofficeUserController"><rect codeLine="34" fill="#F1F1F1" height="48" id="BackofficeUserController" rx="2.5" ry="2.5" style="stroke:#181818;stroke-width:0.5;" width="198" x="1428" y="596.602"/><ellipse cx="1443" cy="612.602" fill="#ADD1B2" rx="11" ry="11" style="stroke:#181818;stroke-width:1.0;"/><path d="M1445.5625,619.1176 Q1443.9063,619.7426 1442.7031,619.7426 Q1441.125,619.7426 1439.7813,618.8989 Q1438.4531,618.0395 1437.7188,616.3832 Q1436.9844,614.727 1436.9844,612.6489 Q1436.9844,610.5864 1437.7031,608.9301 Q1438.4219,607.2739 1439.7656,606.4145 Q1441.1094,605.5551 1442.7031,605.5551 Q1443.9063,605.5551 1445.5625,606.1645 L1445.5625,608.352 Q1443.875,607.3676 1442.6406,607.3676 Q1441.7344,607.3676 1440.9688,608.0082 Q1440.2188,608.6332 1439.7344,609.8989 Q1439.25,611.1489 1439.25,612.6489 Q1439.25,614.1645 1439.75,615.4457 Q1440.25,616.7114 1441,617.3207 Q1441.75,617.9301 1442.6406,617.9301 Q1443.875,617.9301 1445.5625,616.9457 L1445.5625,619.1176 Z " fill="#000000"/><text fill="#000000" font-family="sans-serif" font-size="14" lengthAdjust="spacing" textLength="166" x="1457" y="618.034">BackofficeUserController</text><line style="stroke:#181818;stroke-width:0.5;" x1="1429" x2="1625" y1="628.602" y2="628.602"/><line style="stroke:#181818;stroke-width:0.5;" x1="1429" x2="1625" y1="636.602" y2="636.602"/></g><!--class BackofficeUserRepo--><g id="elem_BackofficeUserRepo"><rect codeLine="40" fill="#F1F1F1" height="48" id="BackofficeUserRepo" rx="2.5" ry="2.5" style="stroke:#181818;stroke-width:0.5;" width="165" x="1182.5" y="378.602"/><ellipse cx="1197.5" cy="394.602" fill="#ADD1B2" rx="11" ry="11" style="stroke:#181818;stroke-width:1.0;"/><path d="M1200.0625,401.1176 Q1198.4063,401.7426 1197.2031,401.7426 Q1195.625,401.7426 1194.2813,400.8989 Q1192.9531,400.0395 1192.2188,398.3832 Q1191.4844,396.727 1191.4844,394.6489 Q1191.4844,392.5864 1192.2031,390.9301 Q1192.9219,389.2739 1194.2656,388.4145 Q1195.6094,387.5551 1197.2031,387.5551 Q1198.4063,387.5551 1200.0625,388.1645 L1200.0625,390.352 Q1198.375,389.3676 1197.1406,389.3676 Q1196.2344,389.3676 1195.4688,390.0082 Q1194.7188,390.6332 1194.2344,391.8989 Q1193.75,393.1489 1193.75,394.6489 Q1193.75,396.1645 1194.25,397.4457 Q1194.75,398.7114 1195.5,399.3207 Q1196.25,399.9301 1197.1406,399.9301 Q1198.375,399.9301 1200.0625,398.9457 L1200.0625,401.1176 Z " fill="#000000"/><text fill="#000000" font-family="sans-serif" font-size="14" lengthAdjust="spacing" textLength="133" x="1211.5" y="400.034">BackofficeUserRepo</text><line style="stroke:#181818;stroke-width:0.5;" x1="1183.5" x2="1346.5" y1="410.602" y2="410.602"/><line style="stroke:#181818;stroke-width:0.5;" x1="1183.5" x2="1346.5" y1="418.602" y2="418.602"/></g><!--class IBackofficeUserAppService--><g id="elem_IBackofficeUserAppService"><rect codeLine="51" fill="#F1F1F1" height="48" id="IBackofficeUserAppService" rx="2.5" ry="2.5" style="stroke:#181818;stroke-width:0.5;" width="195" x="856.5" y="957.482"/><ellipse cx="871.5" cy="973.482" fill="#B4A7E5" rx="11" ry="11" style="stroke:#181818;stroke-width:1.0;"/><path d="M867.4219,980.482 L867.4219,978.6695 L870.2656,978.6695 L870.2656,968.8882 L867.4219,968.8882 L867.4219,967.0601 L875.2969,967.0601 L875.2969,968.8882 L872.4688,968.8882 L872.4688,978.6695 L875.2969,978.6695 L875.2969,980.482 L867.4219,980.482 Z " fill="#000000"/><text fill="#000000" font-family="sans-serif" font-size="14" font-style="italic" lengthAdjust="spacing" textLength="163" x="885.5" y="978.914">IBackofficeUserAppService</text><line style="stroke:#181818;stroke-width:0.5;" x1="857.5" x2="1050.5" y1="989.482" y2="989.482"/><line style="stroke:#181818;stroke-width:0.5;" x1="857.5" x2="1050.5" y1="997.482" y2="997.482"/></g><!--class BackofficeUserAppService--><g id="elem_BackofficeUserAppService"><rect codeLine="55" fill="#F1F1F1" height="48" id="BackofficeUserAppService" rx="2.5" ry="2.5" style="stroke:#181818;stroke-width:0.5;" width="206" x="848" y="770.602"/><ellipse cx="863" cy="786.602" fill="#ADD1B2" rx="11" ry="11" style="stroke:#181818;stroke-width:1.0;"/><path d="M865.5625,793.1176 Q863.9063,793.7426 862.7031,793.7426 Q861.125,793.7426 859.7813,792.8989 Q858.4531,792.0395 857.7188,790.3832 Q856.9844,788.727 856.9844,786.6489 Q856.9844,784.5864 857.7031,782.9301 Q858.4219,781.2739 859.7656,780.4145 Q861.1094,779.5551 862.7031,779.5551 Q863.9063,779.5551 865.5625,780.1645 L865.5625,782.352 Q863.875,781.3676 862.6406,781.3676 Q861.7344,781.3676 860.9688,782.0082 Q860.2188,782.6332 859.7344,783.8989 Q859.25,785.1489 859.25,786.6489 Q859.25,788.1645 859.75,789.4457 Q860.25,790.7114 861,791.3207 Q861.75,791.9301 862.6406,791.9301 Q863.875,791.9301 865.5625,790.9457 L865.5625,793.1176 Z " fill="#000000"/><text fill="#000000" font-family="sans-serif" font-size="14" lengthAdjust="spacing" textLength="174" x="877" y="792.034">BackofficeUserAppService</text><line style="stroke:#181818;stroke-width:0.5;" x1="849" x2="1053" y1="802.602" y2="802.602"/><line style="stroke:#181818;stroke-width:0.5;" x1="849" x2="1053" y1="810.602" y2="810.602"/></g><!--class IBackofficeUserRepo--><g id="elem_IBackofficeUserRepo"><rect codeLine="61" fill="#F1F1F1" height="48" id="IBackofficeUserRepo" rx="2.5" ry="2.5" style="stroke:#181818;stroke-width:0.5;" width="158" x="896" y="596.602"/><ellipse cx="911" cy="612.602" fill="#B4A7E5" rx="11" ry="11" style="stroke:#181818;stroke-width:1.0;"/><path d="M906.9219,619.602 L906.9219,617.7895 L909.7656,617.7895 L909.7656,608.0082 L906.9219,608.0082 L906.9219,606.1801 L914.7969,606.1801 L914.7969,608.0082 L911.9688,608.0082 L911.9688,617.7895 L914.7969,617.7895 L914.7969,619.602 L906.9219,619.602 Z " fill="#000000"/><text fill="#000000" font-family="sans-serif" font-size="14" font-style="italic" lengthAdjust="spacing" textLength="126" x="925" y="618.034">IBackofficeUserRepo</text><line style="stroke:#181818;stroke-width:0.5;" x1="897" x2="1053" y1="628.602" y2="628.602"/><line style="stroke:#181818;stroke-width:0.5;" x1="897" x2="1053" y1="636.602" y2="636.602"/></g><!--class UserEmail--><g id="elem_UserEmail"><rect codeLine="78" fill="#F1F1F1" height="61.412" id="UserEmail" rx="2.5" ry="2.5" style="stroke:#181818;stroke-width:0.5;" width="107" x="72.5" y="950.772"/><ellipse cx="87.5" cy="973.478" fill="#ADD1B2" rx="11" ry="11" style="stroke:#181818;stroke-width:1.0;"/><path d="M90.0625,979.9936 Q88.4063,980.6186 87.2031,980.6186 Q85.625,980.6186 84.2813,979.7749 Q82.9531,978.9155 82.2188,977.2592 Q81.4844,975.603 81.4844,973.5249 Q81.4844,971.4624 82.2031,969.8061 Q82.9219,968.1499 84.2656,967.2905 Q85.6094,966.4311 87.2031,966.4311 Q88.4063,966.4311 90.0625,967.0405 L90.0625,969.228 Q88.375,968.2436 87.1406,968.2436 Q86.2344,968.2436 85.4688,968.8842 Q84.7188,969.5092 84.2344,970.7749 Q83.75,972.0249 83.75,973.5249 Q83.75,975.0405 84.25,976.3217 Q84.75,977.5874 85.5,978.1967 Q86.25,978.8061 87.1406,978.8061 Q88.375,978.8061 90.0625,977.8217 L90.0625,979.9936 Z " fill="#000000"/><text fill="#000000" font-family="sans-serif" font-size="12" font-style="italic" lengthAdjust="spacing" textLength="79" x="99.5" y="968.6001">&#171;Value Object&#187;</text><text fill="#000000" font-family="sans-serif" font-size="14" lengthAdjust="spacing" textLength="68" x="105" y="987.082">UserEmail</text><line style="stroke:#181818;stroke-width:0.5;" x1="73.5" x2="178.5" y1="996.184" y2="996.184"/><line style="stroke:#181818;stroke-width:0.5;" x1="73.5" x2="178.5" y1="1004.184" y2="1004.184"/></g><!--class UserName--><g id="elem_UserName"><rect codeLine="79" fill="#F1F1F1" height="61.412" id="UserName" rx="2.5" ry="2.5" style="stroke:#181818;stroke-width:0.5;" width="107" x="214.5" y="950.772"/><ellipse cx="229.5" cy="973.478" fill="#ADD1B2" rx="11" ry="11" style="stroke:#181818;stroke-width:1.0;"/><path d="M232.0625,979.9936 Q230.4063,980.6186 229.2031,980.6186 Q227.625,980.6186 226.2813,979.7749 Q224.9531,978.9155 224.2188,977.2592 Q223.4844,975.603 223.4844,973.5249 Q223.4844,971.4624 224.2031,969.8061 Q224.9219,968.1499 226.2656,967.2905 Q227.6094,966.4311 229.2031,966.4311 Q230.4063,966.4311 232.0625,967.0405 L232.0625,969.228 Q230.375,968.2436 229.1406,968.2436 Q228.2344,968.2436 227.4688,968.8842 Q226.7188,969.5092 226.2344,970.7749 Q225.75,972.0249 225.75,973.5249 Q225.75,975.0405 226.25,976.3217 Q226.75,977.5874 227.5,978.1967 Q228.25,978.8061 229.1406,978.8061 Q230.375,978.8061 232.0625,977.8217 L232.0625,979.9936 Z " fill="#000000"/><text fill="#000000" font-family="sans-serif" font-size="12" font-style="italic" lengthAdjust="spacing" textLength="79" x="241.5" y="968.6001">&#171;Value Object&#187;</text><text fill="#000000" font-family="sans-serif" font-size="14" lengthAdjust="spacing" textLength="71" x="245.5" y="987.082">UserName</text><line style="stroke:#181818;stroke-width:0.5;" x1="215.5" x2="320.5" y1="996.184" y2="996.184"/><line style="stroke:#181818;stroke-width:0.5;" x1="215.5" x2="320.5" y1="1004.184" y2="1004.184"/></g><!--class UserPhoneNumber--><g id="elem_UserPhoneNumber"><rect codeLine="80" fill="#F1F1F1" height="61.412" id="UserPhoneNumber" rx="2.5" ry="2.5" style="stroke:#181818;stroke-width:0.5;" width="161" x="45.5" y="1085.482"/><ellipse cx="60.5" cy="1108.188" fill="#ADD1B2" rx="11" ry="11" style="stroke:#181818;stroke-width:1.0;"/><path d="M63.0625,1114.7036 Q61.4063,1115.3286 60.2031,1115.3286 Q58.625,1115.3286 57.2813,1114.4849 Q55.9531,1113.6255 55.2188,1111.9692 Q54.4844,1110.313 54.4844,1108.2349 Q54.4844,1106.1724 55.2031,1104.5161 Q55.9219,1102.8599 57.2656,1102.0005 Q58.6094,1101.1411 60.2031,1101.1411 Q61.4063,1101.1411 63.0625,1101.7505 L63.0625,1103.938 Q61.375,1102.9536 60.1406,1102.9536 Q59.2344,1102.9536 58.4688,1103.5942 Q57.7188,1104.2192 57.2344,1105.4849 Q56.75,1106.7349 56.75,1108.2349 Q56.75,1109.7505 57.25,1111.0317 Q57.75,1112.2974 58.5,1112.9067 Q59.25,1113.5161 60.1406,1113.5161 Q61.375,1113.5161 63.0625,1112.5317 L63.0625,1114.7036 Z " fill="#000000"/><text fill="#000000" font-family="sans-serif" font-size="12" font-style="italic" lengthAdjust="spacing" textLength="79" x="99.5" y="1103.3101">&#171;Value Object&#187;</text><text fill="#000000" font-family="sans-serif" font-size="14" lengthAdjust="spacing" textLength="129" x="74.5" y="1121.792">UserPhoneNumber</text><line style="stroke:#181818;stroke-width:0.5;" x1="46.5" x2="205.5" y1="1130.894" y2="1130.894"/><line style="stroke:#181818;stroke-width:0.5;" x1="46.5" x2="205.5" y1="1138.894" y2="1138.894"/></g><!--class UserPassword--><g id="elem_UserPassword"><rect codeLine="81" fill="#F1F1F1" height="61.412" id="UserPassword" rx="2.5" ry="2.5" style="stroke:#181818;stroke-width:0.5;" width="127" x="241.5" y="1085.482"/><ellipse cx="256.5" cy="1108.188" fill="#ADD1B2" rx="11" ry="11" style="stroke:#181818;stroke-width:1.0;"/><path d="M259.0625,1114.7036 Q257.4063,1115.3286 256.2031,1115.3286 Q254.625,1115.3286 253.2813,1114.4849 Q251.9531,1113.6255 251.2188,1111.9692 Q250.4844,1110.313 250.4844,1108.2349 Q250.4844,1106.1724 251.2031,1104.5161 Q251.9219,1102.8599 253.2656,1102.0005 Q254.6094,1101.1411 256.2031,1101.1411 Q257.4063,1101.1411 259.0625,1101.7505 L259.0625,1103.938 Q257.375,1102.9536 256.1406,1102.9536 Q255.2344,1102.9536 254.4688,1103.5942 Q253.7188,1104.2192 253.2344,1105.4849 Q252.75,1106.7349 252.75,1108.2349 Q252.75,1109.7505 253.25,1111.0317 Q253.75,1112.2974 254.5,1112.9067 Q255.25,1113.5161 256.1406,1113.5161 Q257.375,1113.5161 259.0625,1112.5317 L259.0625,1114.7036 Z " fill="#000000"/><text fill="#000000" font-family="sans-serif" font-size="12" font-style="italic" lengthAdjust="spacing" textLength="79" x="278.5" y="1103.3101">&#171;Value Object&#187;</text><text fill="#000000" font-family="sans-serif" font-size="14" lengthAdjust="spacing" textLength="95" x="270.5" y="1121.792">UserPassword</text><line style="stroke:#181818;stroke-width:0.5;" x1="242.5" x2="367.5" y1="1130.894" y2="1130.894"/><line style="stroke:#181818;stroke-width:0.5;" x1="242.5" x2="367.5" y1="1138.894" y2="1138.894"/></g><!--class Email--><g id="elem_Email"><rect fill="#F1F1F1" height="48" id="Email" rx="2.5" ry="2.5" style="stroke:#181818;stroke-width:0.5;" width="69" x="403.5" y="1092.182"/><ellipse cx="418.5" cy="1108.182" fill="#ADD1B2" rx="11" ry="11" style="stroke:#181818;stroke-width:1.0;"/><path d="M421.0625,1114.6976 Q419.4063,1115.3226 418.2031,1115.3226 Q416.625,1115.3226 415.2813,1114.4789 Q413.9531,1113.6195 413.2188,1111.9632 Q412.4844,1110.307 412.4844,1108.2289 Q412.4844,1106.1664 413.2031,1104.5101 Q413.9219,1102.8539 415.2656,1101.9945 Q416.6094,1101.1351 418.2031,1101.1351 Q419.4063,1101.1351 421.0625,1101.7445 L421.0625,1103.932 Q419.375,1102.9476 418.1406,1102.9476 Q417.2344,1102.9476 416.4688,1103.5882 Q415.7188,1104.2132 415.2344,1105.4789 Q414.75,1106.7289 414.75,1108.2289 Q414.75,1109.7445 415.25,1111.0257 Q415.75,1112.2914 416.5,1112.9007 Q417.25,1113.5101 418.1406,1113.5101 Q419.375,1113.5101 421.0625,1112.5257 L421.0625,1114.6976 Z " fill="#000000"/><text fill="#000000" font-family="sans-serif" font-size="14" lengthAdjust="spacing" textLength="37" x="432.5" y="1113.614">Email</text><line style="stroke:#181818;stroke-width:0.5;" x1="404.5" x2="471.5" y1="1124.182" y2="1124.182"/><line style="stroke:#181818;stroke-width:0.5;" x1="404.5" x2="471.5" y1="1132.182" y2="1132.182"/></g><!--class Name--><g id="elem_Name"><rect fill="#F1F1F1" height="48" id="Name" rx="2.5" ry="2.5" style="stroke:#181818;stroke-width:0.5;" width="72" x="507" y="1092.182"/><ellipse cx="522" cy="1108.182" fill="#ADD1B2" rx="11" ry="11" style="stroke:#181818;stroke-width:1.0;"/><path d="M524.5625,1114.6976 Q522.9063,1115.3226 521.7031,1115.3226 Q520.125,1115.3226 518.7813,1114.4789 Q517.4531,1113.6195 516.7188,1111.9632 Q515.9844,1110.307 515.9844,1108.2289 Q515.9844,1106.1664 516.7031,1104.5101 Q517.4219,1102.8539 518.7656,1101.9945 Q520.1094,1101.1351 521.7031,1101.1351 Q522.9063,1101.1351 524.5625,1101.7445 L524.5625,1103.932 Q522.875,1102.9476 521.6406,1102.9476 Q520.7344,1102.9476 519.9688,1103.5882 Q519.2188,1104.2132 518.7344,1105.4789 Q518.25,1106.7289 518.25,1108.2289 Q518.25,1109.7445 518.75,1111.0257 Q519.25,1112.2914 520,1112.9007 Q520.75,1113.5101 521.6406,1113.5101 Q522.875,1113.5101 524.5625,1112.5257 L524.5625,1114.6976 Z " fill="#000000"/><text fill="#000000" font-family="sans-serif" font-size="14" lengthAdjust="spacing" textLength="40" x="536" y="1113.614">Name</text><line style="stroke:#181818;stroke-width:0.5;" x1="508" x2="578" y1="1124.182" y2="1124.182"/><line style="stroke:#181818;stroke-width:0.5;" x1="508" x2="578" y1="1132.182" y2="1132.182"/></g><!--class PhoneNumber--><g id="elem_PhoneNumber"><rect fill="#F1F1F1" height="48" id="PhoneNumber" rx="2.5" ry="2.5" style="stroke:#181818;stroke-width:0.5;" width="130" x="614" y="1092.182"/><ellipse cx="629" cy="1108.182" fill="#ADD1B2" rx="11" ry="11" style="stroke:#181818;stroke-width:1.0;"/><path d="M631.5625,1114.6976 Q629.9063,1115.3226 628.7031,1115.3226 Q627.125,1115.3226 625.7813,1114.4789 Q624.4531,1113.6195 623.7188,1111.9632 Q622.9844,1110.307 622.9844,1108.2289 Q622.9844,1106.1664 623.7031,1104.5101 Q624.4219,1102.8539 625.7656,1101.9945 Q627.1094,1101.1351 628.7031,1101.1351 Q629.9063,1101.1351 631.5625,1101.7445 L631.5625,1103.932 Q629.875,1102.9476 628.6406,1102.9476 Q627.7344,1102.9476 626.9688,1103.5882 Q626.2188,1104.2132 625.7344,1105.4789 Q625.25,1106.7289 625.25,1108.2289 Q625.25,1109.7445 625.75,1111.0257 Q626.25,1112.2914 627,1112.9007 Q627.75,1113.5101 628.6406,1113.5101 Q629.875,1113.5101 631.5625,1112.5257 L631.5625,1114.6976 Z " fill="#000000"/><text fill="#000000" font-family="sans-serif" font-size="14" lengthAdjust="spacing" textLength="98" x="643" y="1113.614">PhoneNumber</text><line style="stroke:#181818;stroke-width:0.5;" x1="615" x2="743" y1="1124.182" y2="1124.182"/><line style="stroke:#181818;stroke-width:0.5;" x1="615" x2="743" y1="1132.182" y2="1132.182"/></g><!--class BackofficeUser--><g id="elem_BackofficeUser"><rect codeLine="74" fill="#F1F1F1" height="77.7561" id="BackofficeUser" rx="2.5" ry="2.5" style="stroke:#181818;stroke-width:0.5;" width="131" x="477.5" y="942.602"/><ellipse cx="492.5" cy="973.4801" fill="#ADD1B2" rx="11" ry="11" style="stroke:#181818;stroke-width:1.0;"/><path d="M495.0625,979.9957 Q493.4063,980.6207 492.2031,980.6207 Q490.625,980.6207 489.2813,979.7769 Q487.9531,978.9176 487.2188,977.2613 Q486.4844,975.6051 486.4844,973.5269 Q486.4844,971.4644 487.2031,969.8082 Q487.9219,968.1519 489.2656,967.2926 Q490.6094,966.4332 492.2031,966.4332 Q493.4063,966.4332 495.0625,967.0426 L495.0625,969.2301 Q493.375,968.2457 492.1406,968.2457 Q491.2344,968.2457 490.4688,968.8863 Q489.7188,969.5113 489.2344,970.7769 Q488.75,972.0269 488.75,973.5269 Q488.75,975.0426 489.25,976.3238 Q489.75,977.5894 490.5,978.1988 Q491.25,978.8082 492.1406,978.8082 Q493.375,978.8082 495.0625,977.8238 L495.0625,979.9957 Z " fill="#000000"/><text fill="#000000" font-family="sans-serif" font-size="12" font-style="italic" lengthAdjust="spacing" textLength="35" x="538.5" y="960.4301">&#171;root&#187;</text><text fill="#000000" font-family="sans-serif" font-size="12" font-style="italic" lengthAdjust="spacing" textLength="42" x="535" y="976.7742">&#171;entity&#187;</text><text fill="#000000" font-family="sans-serif" font-size="14" lengthAdjust="spacing" textLength="99" x="506.5" y="995.2561">BackofficeUser</text><line style="stroke:#181818;stroke-width:0.5;" x1="478.5" x2="607.5" y1="1004.3581" y2="1004.3581"/><line style="stroke:#181818;stroke-width:0.5;" x1="478.5" x2="607.5" y1="1012.3581" y2="1012.3581"/></g><!--class IBackofficeUserDTO--><g id="elem_IBackofficeUserDTO"><rect codeLine="92" fill="#F1F1F1" height="48" id="IBackofficeUserDTO" rx="2.5" ry="2.5" style="stroke:#181818;stroke-width:0.5;" width="153" x="711.5" y="378.602"/><ellipse cx="726.5" cy="394.602" fill="#B4A7E5" rx="11" ry="11" style="stroke:#181818;stroke-width:1.0;"/><path d="M722.4219,401.602 L722.4219,399.7895 L725.2656,399.7895 L725.2656,390.0082 L722.4219,390.0082 L722.4219,388.1801 L730.2969,388.1801 L730.2969,390.0082 L727.4688,390.0082 L727.4688,399.7895 L730.2969,399.7895 L730.2969,401.602 L722.4219,401.602 Z " fill="#000000"/><text fill="#000000" font-family="sans-serif" font-size="14" font-style="italic" lengthAdjust="spacing" textLength="121" x="740.5" y="400.034">IBackofficeUserDTO</text><line style="stroke:#181818;stroke-width:0.5;" x1="712.5" x2="863.5" y1="410.602" y2="410.602"/><line style="stroke:#181818;stroke-width:0.5;" x1="712.5" x2="863.5" y1="418.602" y2="418.602"/></g><!--class ICreatedBackofficeUserDTO--><g id="elem_ICreatedBackofficeUserDTO"><rect codeLine="93" fill="#F1F1F1" height="48" id="ICreatedBackofficeUserDTO" rx="2.5" ry="2.5" style="stroke:#181818;stroke-width:0.5;" width="202" x="900" y="378.602"/><ellipse cx="915" cy="394.602" fill="#B4A7E5" rx="11" ry="11" style="stroke:#181818;stroke-width:1.0;"/><path d="M910.9219,401.602 L910.9219,399.7895 L913.7656,399.7895 L913.7656,390.0082 L910.9219,390.0082 L910.9219,388.1801 L918.7969,388.1801 L918.7969,390.0082 L915.9688,390.0082 L915.9688,399.7895 L918.7969,399.7895 L918.7969,401.602 L910.9219,401.602 Z " fill="#000000"/><text fill="#000000" font-family="sans-serif" font-size="14" font-style="italic" lengthAdjust="spacing" textLength="170" x="929" y="400.034">ICreatedBackofficeUserDTO</text><line style="stroke:#181818;stroke-width:0.5;" x1="901" x2="1101" y1="410.602" y2="410.602"/><line style="stroke:#181818;stroke-width:0.5;" x1="901" x2="1101" y1="418.602" y2="418.602"/></g><!--link DBDriver to IDBDriver--><g id="link_DBDriver_IDBDriver"><path codeLine="24" d="M1276.5,160.602 C1288.07,160.602 1281.63,160.602 1293.2,160.602 " fill="none" id="DBDriver-to-IDBDriver" style="stroke:#FF6655;stroke-width:1.0;"/><polygon fill="none" points="1311.2,160.602,1293.2,154.602,1293.2,166.602,1311.2,160.602" style="stroke:#FF6655;stroke-width:1.0;"/></g><!--reverse link IBackofficeUserController to BackofficeUserController--><g id="link_IBackofficeUserController_BackofficeUserController"><path codeLine="36" d="M1527.8075,444.7218 C1527.6175,486.1818 1527.3,554.742 1527.11,596.322 " fill="none" id="IBackofficeUserController-backto-BackofficeUserController" style="stroke:#FF6655;stroke-width:1.0;"/><polygon fill="none" points="1527.89,426.722,1521.8076,444.6943,1533.8074,444.7493,1527.89,426.722" style="stroke:#FF6655;stroke-width:1.0;"/></g><!--reverse link DBDriver to BackofficeUserRepo--><g id="link_DBDriver_BackofficeUserRepo"><path codeLine="43" d="M1234.2861,190.9891 C1240.9961,236.9891 1254.94,332.622 1261.62,378.412 " fill="none" id="DBDriver-backto-BackofficeUserRepo" style="stroke:#FF6655;stroke-width:1.0;stroke-dasharray:7.0,7.0;"/><polygon fill="#FF6655" points="1233.42,185.052,1230.761,194.5351,1234.1417,189.9996,1238.6772,193.3804,1233.42,185.052" style="stroke:#FF6655;stroke-width:1.0;"/></g><!--link BackofficeUserRoute to IBackofficeUserController--><g id="link_BackofficeUserRoute_IBackofficeUserController"><path codeLine="45" d="M1544.24,185.052 C1540.79,231.052 1533.6182,326.6387 1530.1882,372.4287 " fill="none" id="BackofficeUserRoute-to-IBackofficeUserController" style="stroke:#FF6655;stroke-width:1.0;stroke-dasharray:7.0,7.0;"/><polygon fill="#FF6655" points="1529.74,378.412,1534.4011,369.7359,1530.1135,373.426,1526.4235,369.1383,1529.74,378.412" style="stroke:#FF6655;stroke-width:1.0;"/></g><!--link BackofficeUserAppService to IBackofficeUserAppService--><g id="link_BackofficeUserAppService_IBackofficeUserAppService"><path codeLine="58" d="M951.38,819.012 C951.96,854.582 952.7606,903.8043 953.3306,939.2543 " fill="none" id="BackofficeUserAppService-to-IBackofficeUserAppService" style="stroke:#FF6655;stroke-width:1.0;"/><polygon fill="none" points="953.62,957.252,959.3298,939.1578,947.3314,939.3508,953.62,957.252" style="stroke:#FF6655;stroke-width:1.0;"/></g><!--link BackofficeUserRepo to IBackofficeUserRepo--><g id="link_BackofficeUserRepo_IBackofficeUserRepo"><path codeLine="64" d="M1233.69,426.922 C1177.89,468.482 1076.3251,544.1289 1020.6151,585.6289 " fill="none" id="BackofficeUserRepo-to-IBackofficeUserRepo" style="stroke:#FF6655;stroke-width:1.0;"/><polygon fill="none" points="1006.18,596.382,1024.1994,590.4406,1017.0307,580.8172,1006.18,596.382" style="stroke:#FF6655;stroke-width:1.0;"/></g><!--link BackofficeUserController to IBackofficeUserAppService--><g id="link_BackofficeUserController_IBackofficeUserAppService"><path codeLine="67" d="M1489.85,644.872 C1386.31,709.722 1100.4149,888.7771 996.5249,953.8471 " fill="none" id="BackofficeUserController-to-IBackofficeUserAppService" style="stroke:#FF6655;stroke-width:1.0;stroke-dasharray:7.0,7.0;"/><polygon fill="#FF6655" points="991.44,957.032,1001.1907,955.6446,995.6774,954.3779,996.9442,948.8647,991.44,957.032" style="stroke:#FF6655;stroke-width:1.0;"/></g><!--reverse link IBackofficeUserRepo to BackofficeUserAppService--><g id="link_IBackofficeUserRepo_BackofficeUserAppService"><path codeLine="69" d="M970.9307,650.7444 C966.3507,683.5644 958.86,737.302 954.26,770.222 " fill="none" id="IBackofficeUserRepo-backto-BackofficeUserAppService" style="stroke:#FF6655;stroke-width:1.0;stroke-dasharray:7.0,7.0;"/><polygon fill="#FF6655" points="971.76,644.802,966.5545,653.1628,971.069,649.754,974.4777,654.2684,971.76,644.802" style="stroke:#FF6655;stroke-width:1.0;"/></g><!--link BackofficeUserAppService to BackofficeUser--><g id="link_BackofficeUserAppService_BackofficeUser"><path codeLine="83" d="M899.33,819.012 C825.46,852.492 695.1352,911.5457 614.2052,948.2157 " fill="none" id="BackofficeUserAppService-to-BackofficeUser" style="stroke:#FF6655;stroke-width:1.0;stroke-dasharray:7.0,7.0;"/><polygon fill="#FF6655" points="608.74,950.692,618.5886,950.621,613.2943,948.6284,615.2869,943.3341,608.74,950.692" style="stroke:#FF6655;stroke-width:1.0;"/></g><!--link BackofficeUser to Email--><g id="link_BackofficeUser_Email"><path codeLine="85" d="M516.93,1020.812 C504.46,1038.482 489.02,1059.482 474,1077.482 C470.06,1082.202 469.7727,1082.7039 465.4527,1087.3139 " fill="none" id="BackofficeUser-to-Email" style="stroke:#FF6655;stroke-width:1.0;stroke-dasharray:7.0,7.0;"/><polygon fill="#FF6655" points="461.35,1091.692,470.4228,1087.8599,464.7689,1088.0436,464.5853,1082.3897,461.35,1091.692" style="stroke:#FF6655;stroke-width:1.0;"/></g><!--link BackofficeUser to Name--><g id="link_BackofficeUser_Name"><path codeLine="86" d="M543,1020.512 C543,1043.482 543,1066.042 543,1085.752 " fill="none" id="BackofficeUser-to-Name" style="stroke:#FF6655;stroke-width:1.0;stroke-dasharray:7.0,7.0;"/><polygon fill="#FF6655" points="543,1091.752,547,1082.752,543,1086.752,539,1082.752,543,1091.752" style="stroke:#FF6655;stroke-width:1.0;"/></g><!--link BackofficeUser to PhoneNumber--><g id="link_BackofficeUser_PhoneNumber"><path codeLine="87" d="M581.97,1020.512 C605.52,1043.482 630.4856,1067.8517 650.6856,1087.5617 " fill="none" id="BackofficeUser-to-PhoneNumber" style="stroke:#FF6655;stroke-width:1.0;stroke-dasharray:7.0,7.0;"/><polygon fill="#FF6655" points="654.98,1091.752,651.3319,1082.6037,651.4013,1088.2601,645.7449,1088.3296,654.98,1091.752" style="stroke:#FF6655;stroke-width:1.0;"/></g><!--link BackofficeUser to UserPassword--><g id="link_BackofficeUser_UserPassword"><path codeLine="88" d="M525.24,1020.792 C513.67,1041.212 496.51,1064.692 474,1077.482 C456.93,1087.182 405.16,1081.172 386,1085.482 C380.3,1086.762 380.2023,1086.6025 374.3923,1088.3625 " fill="none" id="BackofficeUser-to-UserPassword" style="stroke:#FF6655;stroke-width:1.0;stroke-dasharray:7.0,7.0;"/><polygon fill="#FF6655" points="368.65,1090.102,378.4231,1091.3209,373.4353,1088.6524,376.1038,1083.6645,368.65,1090.102" style="stroke:#FF6655;stroke-width:1.0;"/></g><!--reverse link IBackofficeUserDTO to BackofficeUserAppService--><g id="link_IBackofficeUserDTO_BackofficeUserAppService"><path codeLine="96" d="M784.4809,433.001 C778.8409,488.271 772.36,623.162 832,716.602 C846.89,739.942 871.68,757.632 894.78,770.142 " fill="none" id="IBackofficeUserDTO-backto-BackofficeUserAppService" style="stroke:#FF6655;stroke-width:1.0;"/><polygon fill="#FF6655" points="785.09,427.032,780.197,435.5794,784.5824,432.0062,788.1557,436.3916,785.09,427.032" style="stroke:#FF6655;stroke-width:1.0;"/></g><!--reverse link IBackofficeUserDTO to BackofficeUserController--><g id="link_IBackofficeUserDTO_BackofficeUserController"><path codeLine="97" d="M830.7005,429.7577 C847.3805,438.9077 862.39,445.532 882,450.602 C962.97,471.542 987.88,442.752 1070,458.602 C1222.8,488.092 1393.42,559.032 1476.3,596.122 " fill="none" id="IBackofficeUserDTO-backto-BackofficeUserController" style="stroke:#FF6655;stroke-width:1.0;"/><polygon fill="#FF6655" points="825.44,426.872,831.4069,434.7075,829.8237,429.2767,835.2545,427.6935,825.44,426.872" style="stroke:#FF6655;stroke-width:1.0;"/></g><!--reverse link ICreatedBackofficeUserDTO to BackofficeUserAppService--><g id="link_ICreatedBackofficeUserDTO_BackofficeUserAppService"><path codeLine="99" d="M910.7657,429.8624 C896.4757,437.6124 888.74,445.022 880,458.602 C817.92,555.012 838.27,609.792 880,716.602 C888.27,737.772 905.39,756.632 920.75,770.382 " fill="none" id="ICreatedBackofficeUserDTO-backto-BackofficeUserAppService" style="stroke:#FF6655;stroke-width:1.0;"/><polygon fill="#FF6655" points="916.04,427.002,906.2216,427.7765,911.6448,429.3857,910.0356,434.8088,916.04,427.002" style="stroke:#FF6655;stroke-width:1.0;"/></g><!--reverse link ICreatedBackofficeUserDTO to BackofficeUserController--><g id="link_ICreatedBackofficeUserDTO_BackofficeUserController"><path codeLine="100" d="M1063.5902,429.3013 C1164.7902,470.8613 1369.03,554.732 1470.11,596.242 " fill="none" id="ICreatedBackofficeUserDTO-backto-BackofficeUserController" style="stroke:#FF6655;stroke-width:1.0;"/><polygon fill="#FF6655" points="1058.04,427.022,1064.8458,434.1411,1062.6652,428.9214,1067.8848,426.7408,1058.04,427.022" style="stroke:#FF6655;stroke-width:1.0;"/></g><!--SRC=[ZLLDRzim3BtdLmZPEIbsQ4w6WNmqG86XBPfjrq5nc4IBB1cKt2BR-jz7k_cG7CcsJxRv7Xz9FO7c85J1aUSiqtcX5IZB_WuOFKkjx4hy0VPrKd_FU7ROeIxLPgwbnYIP5ZpRGvgoRsAtjtEDN7u2DMu0cw0lo-LaSdz_IVt4Ss1pNQ80RDBOMf9OI9Kj08hLuJYJ9TJnAQ9-l-Hxp4dENWEVdBFqns10uGFV0JD7Oo4_TNh-ENnKM-J6OfdP4c5u2dkGLrrQC6weUZB9ZQbhrTkjoE270QoH5nHft-Hw0JI2wb0PD1CAPG6tFAEM5hC5YhVJa7p1cv2ZSewn4LR7C_gNDbATi4xpPydfXXVqRe83cDEiKKlPYFkfMa2DxloPNNaUnsdBryaBsI4LEfceYliLex1HMTJ3xCmPEl9NABGHLfFh-vc8yA64joWsBejnUhL435gvaet7NGqqtJ4j2YaoReLMR0NuHgomFmWO1FW7HwWOgDKWLrvlWtH8XQRUJoN6OQE0FvoKaLBRhD4w4yyZdNNMNWbLsCzgpaK8c2ZKPNHCduQDLT4qu8Eomj9excZHmDr2vroee07zV4F63UE_rgMG6w5sFQuSInBKsjBAIXAeH8zfwivbu9ChoWCL8md-azDQOi_htv1PXtG5rakg1-vbJvlugSpNTJdTS7fvf_LvY-rn2dG6VZ16gg5rgss0giMskDDQ6ynjA-Y7nVTdz_YZjuDm8T0SWLlOXB4dhVW5fnMGneHQ5qUGrKkijU0kpIZvO_0V]--></g></svg>