<?xml version="1.0" encoding="us-ascii" standalone="no"?><svg xmlns="http://www.w3.org/2000/svg" xmlns:xlink="http://www.w3.org/1999/xlink" contentStyleType="text/css" height="809.6px" preserveAspectRatio="none" style="width:1141px;height:809px;background:#FFFFFF;" version="1.1" viewBox="0 0 1141 809" width="1141.6px" zoomAndPan="magnify"><defs/><g><rect fill="#FFFFFF" height="672.1813" style="stroke:#181818;stroke-width:0.8000000000000002;" width="8" x="166.4" y="72.4266"/><rect fill="#FFFFFF" height="622.1156" style="stroke:#181818;stroke-width:0.8000000000000002;" width="8" x="335.2" y="97.4594"/><rect fill="#FFFFFF" height="522.2563" style="stroke:#181818;stroke-width:0.8000000000000002;" width="8" x="545.2" y="172.2859"/><rect fill="#FFFFFF" height="49.0328" style="stroke:#181818;stroke-width:0.8000000000000002;" width="8" x="745.2" y="197.3188"/><rect fill="#FFFFFF" height="49.0328" style="stroke:#181818;stroke-width:0.8000000000000002;" width="8" x="745.2" y="520.6172"/><rect fill="#FFFFFF" height="24" style="stroke:#181818;stroke-width:0.8000000000000002;" width="8" x="818.8" y="222.3516"/><rect fill="#FFFFFF" height="24" style="stroke:#181818;stroke-width:0.8000000000000002;" width="8" x="818.8" y="545.65"/><rect fill="#FFFFFF" height="74.8266" style="stroke:#181818;stroke-width:0.8000000000000002;" width="8" x="880" y="594.6828"/><rect fill="#FFFFFF" height="41.7938" style="stroke:#181818;stroke-width:0.8000000000000002;" width="8" x="1048.4" y="627.7156"/><rect fill="none" height="492.6563" style="stroke:#000000;stroke-width:1.2000000000000002;" width="1133.6" x="2.4" y="258.3516"/><line style="stroke:#181818;stroke-width:0.4000000000000001;stroke-dasharray:5.0,5.0;" x1="170.4" x2="170.4" y1="45.7938" y2="764.6078"/><line style="stroke:#181818;stroke-width:0.4000000000000001;stroke-dasharray:5.0,5.0;" x1="339.2" x2="339.2" y1="45.7938" y2="764.6078"/><line style="stroke:#181818;stroke-width:0.4000000000000001;stroke-dasharray:5.0,5.0;" x1="461.6" x2="461.6" y1="136.7563" y2="764.6078"/><line style="stroke:#181818;stroke-width:0.4000000000000001;stroke-dasharray:5.0,5.0;" x1="548.8" x2="548.8" y1="45.7938" y2="764.6078"/><line style="stroke:#181818;stroke-width:0.4000000000000001;stroke-dasharray:5.0,5.0;" x1="665.2" x2="665.2" y1="383.3797" y2="764.6078"/><line style="stroke:#181818;stroke-width:0.4000000000000001;stroke-dasharray:5.0,5.0;" x1="749.2" x2="749.2" y1="45.7938" y2="764.6078"/><line style="stroke:#181818;stroke-width:0.4000000000000001;stroke-dasharray:5.0,5.0;" x1="822.4" x2="822.4" y1="45.7938" y2="764.6078"/><line style="stroke:#181818;stroke-width:0.4000000000000001;stroke-dasharray:5.0,5.0;" x1="884" x2="884" y1="45.7938" y2="764.6078"/><line style="stroke:#181818;stroke-width:0.4000000000000001;stroke-dasharray:5.0,5.0;" x1="1052" x2="1052" y1="633.9797" y2="764.6078"/><rect fill="#E2E2F0" height="26.0969" rx="2" ry="2" style="stroke:#181818;stroke-width:0.4000000000000001;" width="41.6" x="149.6" y="18.8969"/><text fill="#000000" font-family="sans-serif" font-size="11.2" lengthAdjust="spacing" textLength="30.4" x="155.2" y="36.5828">Route</text><rect fill="#E2E2F0" height="26.0969" rx="2" ry="2" style="stroke:#181818;stroke-width:0.4000000000000001;" width="41.6" x="149.6" y="763.8078"/><text fill="#000000" font-family="sans-serif" font-size="11.2" lengthAdjust="spacing" textLength="30.4" x="155.2" y="781.4938">Route</text><rect fill="#E2E2F0" height="26.0969" rx="2" ry="2" style="stroke:#181818;stroke-width:0.4000000000000001;" width="60.8" x="308.8" y="18.8969"/><text fill="#000000" font-family="sans-serif" font-size="11.2" lengthAdjust="spacing" textLength="49.6" x="314.4" y="36.5828">Controller</text><rect fill="#E2E2F0" height="26.0969" rx="2" ry="2" style="stroke:#181818;stroke-width:0.4000000000000001;" width="60.8" x="308.8" y="763.8078"/><text fill="#000000" font-family="sans-serif" font-size="11.2" lengthAdjust="spacing" textLength="49.6" x="314.4" y="781.4938">Controller</text><rect fill="#E2E2F0" height="40.9938" rx="2" ry="2" style="stroke:#181818;stroke-width:0.4000000000000001;" width="110.4" x="406.4" y="763.8078"/><text fill="#000000" font-family="sans-serif" font-size="11.2" lengthAdjust="spacing" textLength="19.2" x="452" y="781.4938">dto:</text><text fill="#000000" font-family="sans-serif" font-size="11.2" lengthAdjust="spacing" textLength="99.2" x="412" y="796.3906">BackofficeUserDTO</text><rect fill="#E2E2F0" height="26.0969" rx="2" ry="2" style="stroke:#181818;stroke-width:0.4000000000000001;" width="48.8" x="524.8" y="18.8969"/><text fill="#000000" font-family="sans-serif" font-size="11.2" lengthAdjust="spacing" textLength="37.6" x="530.4" y="36.5828">Service</text><rect fill="#E2E2F0" height="26.0969" rx="2" ry="2" style="stroke:#181818;stroke-width:0.4000000000000001;" width="48.8" x="524.8" y="763.8078"/><text fill="#000000" font-family="sans-serif" font-size="11.2" lengthAdjust="spacing" textLength="37.6" x="530.4" y="781.4938">Service</text><rect fill="#E2E2F0" height="40.9938" rx="2" ry="2" style="stroke:#181818;stroke-width:0.4000000000000001;" width="86.4" x="622" y="763.8078"/><text fill="#000000" font-family="sans-serif" font-size="11.2" lengthAdjust="spacing" textLength="25.6" x="652.4" y="781.4938">user:</text><text fill="#000000" font-family="sans-serif" font-size="11.2" lengthAdjust="spacing" textLength="75.2" x="627.6" y="796.3906">BackofficeUser</text><rect fill="#E2E2F0" height="26.0969" rx="2" ry="2" style="stroke:#181818;stroke-width:0.4000000000000001;" width="65.6" x="716.4" y="18.8969"/><text fill="#000000" font-family="sans-serif" font-size="11.2" lengthAdjust="spacing" textLength="54.4" x="722" y="36.5828">Repository</text><rect fill="#E2E2F0" height="26.0969" rx="2" ry="2" style="stroke:#181818;stroke-width:0.4000000000000001;" width="65.6" x="716.4" y="763.8078"/><text fill="#000000" font-family="sans-serif" font-size="11.2" lengthAdjust="spacing" textLength="54.4" x="722" y="781.4938">Repository</text><rect fill="#E2E2F0" height="26.0969" rx="2" ry="2" style="stroke:#181818;stroke-width:0.4000000000000001;" width="56.8" x="794.4" y="18.8969"/><text fill="#000000" font-family="sans-serif" font-size="11.2" lengthAdjust="spacing" textLength="45.6" x="800" y="36.5828">DBDriver</text><rect fill="#E2E2F0" height="26.0969" rx="2" ry="2" style="stroke:#181818;stroke-width:0.4000000000000001;" width="56.8" x="794.4" y="763.8078"/><text fill="#000000" font-family="sans-serif" font-size="11.2" lengthAdjust="spacing" textLength="45.6" x="800" y="781.4938">DBDriver</text><rect fill="#E2E2F0" height="26.0969" rx="2" ry="2" style="stroke:#181818;stroke-width:0.4000000000000001;" width="49.6" x="859.2" y="18.8969"/><text fill="#000000" font-family="sans-serif" font-size="11.2" lengthAdjust="spacing" textLength="38.4" x="864.8" y="36.5828">Mapper</text><rect fill="#E2E2F0" height="26.0969" rx="2" ry="2" style="stroke:#181818;stroke-width:0.4000000000000001;" width="49.6" x="859.2" y="763.8078"/><text fill="#000000" font-family="sans-serif" font-size="11.2" lengthAdjust="spacing" textLength="38.4" x="864.8" y="781.4938">Mapper</text><rect fill="#E2E2F0" height="40.9938" rx="2" ry="2" style="stroke:#181818;stroke-width:0.4000000000000001;" width="151.2" x="976.8" y="763.8078"/><text fill="#000000" font-family="sans-serif" font-size="11.2" lengthAdjust="spacing" textLength="59.2" x="1022.8" y="781.4938">createdDto:</text><text fill="#000000" font-family="sans-serif" font-size="11.2" lengthAdjust="spacing" textLength="140" x="982.4" y="796.3906">CreatedBackofficeUserDTO</text><rect fill="#FFFFFF" height="672.1813" style="stroke:#181818;stroke-width:0.8000000000000002;" width="8" x="166.4" y="72.4266"/><rect fill="#FFFFFF" height="622.1156" style="stroke:#181818;stroke-width:0.8000000000000002;" width="8" x="335.2" y="97.4594"/><rect fill="#FFFFFF" height="522.2563" style="stroke:#181818;stroke-width:0.8000000000000002;" width="8" x="545.2" y="172.2859"/><rect fill="#FFFFFF" height="49.0328" style="stroke:#181818;stroke-width:0.8000000000000002;" width="8" x="745.2" y="197.3188"/><rect fill="#FFFFFF" height="49.0328" style="stroke:#181818;stroke-width:0.8000000000000002;" width="8" x="745.2" y="520.6172"/><rect fill="#FFFFFF" height="24" style="stroke:#181818;stroke-width:0.8000000000000002;" width="8" x="818.8" y="222.3516"/><rect fill="#FFFFFF" height="24" style="stroke:#181818;stroke-width:0.8000000000000002;" width="8" x="818.8" y="545.65"/><rect fill="#FFFFFF" height="74.8266" style="stroke:#181818;stroke-width:0.8000000000000002;" width="8" x="880" y="594.6828"/><rect fill="#FFFFFF" height="41.7938" style="stroke:#181818;stroke-width:0.8000000000000002;" width="8" x="1048.4" y="627.7156"/><polygon fill="#181818" points="156.8,69.2266,164.8,72.4266,156.8,75.6266,160,72.4266" style="stroke:#181818;stroke-width:0.8000000000000002;"/><line style="stroke:#181818;stroke-width:0.8000000000000002;" x1="0" x2="161.6" y1="72.4266" y2="72.4266"/><text fill="#000000" font-family="sans-serif" font-size="10.4" font-weight="bold" lengthAdjust="spacing" textLength="5.6" x="5.6" y="68.2164">1</text><text fill="#000000" font-family="sans-serif" font-size="10.4" lengthAdjust="spacing" textLength="109.6" x="14.4" y="68.2164">POST /users-backoffice</text><polygon fill="#181818" points="325.6,94.2594,333.6,97.4594,325.6,100.6594,328.8,97.4594" style="stroke:#181818;stroke-width:0.8000000000000002;"/><line style="stroke:#181818;stroke-width:0.8000000000000002;" x1="174.4" x2="330.4" y1="97.4594" y2="97.4594"/><text fill="#000000" font-family="sans-serif" font-size="10.4" font-weight="bold" lengthAdjust="spacing" textLength="5.6" x="180" y="93.2492">2</text><text fill="#000000" font-family="sans-serif" font-size="10.4" lengthAdjust="spacing" textLength="136.8" x="188.8" y="93.2492">createBackofficeUser(req,res)</text><polygon fill="#181818" points="396.8,119.2922,404.8,122.4922,396.8,125.6922,400,122.4922" style="stroke:#181818;stroke-width:0.8000000000000002;"/><line style="stroke:#181818;stroke-width:0.8000000000000002;stroke-dasharray:2.0,2.0;" x1="343.2" x2="401.6" y1="122.4922" y2="122.4922"/><text fill="#000000" font-family="sans-serif" font-size="10.4" font-weight="bold" lengthAdjust="spacing" textLength="5.6" x="348.8" y="118.282">3</text><text fill="#000000" font-family="sans-serif" font-size="10.4" lengthAdjust="spacing" textLength="35.2" x="357.6" y="118.282">create()</text><rect fill="#E2E2F0" height="40.9938" rx="2" ry="2" style="stroke:#181818;stroke-width:0.4000000000000001;" width="110.4" x="406.4" y="103.8594"/><text fill="#000000" font-family="sans-serif" font-size="11.2" lengthAdjust="spacing" textLength="19.2" x="452" y="121.5453">dto:</text><text fill="#000000" font-family="sans-serif" font-size="11.2" lengthAdjust="spacing" textLength="99.2" x="412" y="136.4422">BackofficeUserDTO</text><polygon fill="#181818" points="535.6,169.0859,543.6,172.2859,535.6,175.4859,538.8,172.2859" style="stroke:#181818;stroke-width:0.8000000000000002;"/><line style="stroke:#181818;stroke-width:0.8000000000000002;" x1="343.2" x2="540.4" y1="172.2859" y2="172.2859"/><text fill="#000000" font-family="sans-serif" font-size="10.4" font-weight="bold" lengthAdjust="spacing" textLength="5.6" x="348.8" y="168.0758">4</text><text fill="#000000" font-family="sans-serif" font-size="10.4" lengthAdjust="spacing" textLength="119.2" x="357.6" y="168.0758">createBackofficeUser(dto)</text><polygon fill="#181818" points="735.6,194.1188,743.6,197.3188,735.6,200.5188,738.8,197.3188" style="stroke:#181818;stroke-width:0.8000000000000002;"/><line style="stroke:#181818;stroke-width:0.8000000000000002;" x1="553.2" x2="740.4" y1="197.3188" y2="197.3188"/><text fill="#000000" font-family="sans-serif" font-size="10.4" font-weight="bold" lengthAdjust="spacing" textLength="5.6" x="558.8" y="193.1086">5</text><text fill="#000000" font-family="sans-serif" font-size="10.4" lengthAdjust="spacing" textLength="47.2" x="567.6" y="193.1086">find(email)</text><polygon fill="#181818" points="809.2,219.1516,817.2,222.3516,809.2,225.5516,812.4,222.3516" style="stroke:#181818;stroke-width:0.8000000000000002;"/><line style="stroke:#181818;stroke-width:0.8000000000000002;" x1="753.2" x2="814" y1="222.3516" y2="222.3516"/><text fill="#000000" font-family="sans-serif" font-size="10.4" font-weight="bold" lengthAdjust="spacing" textLength="5.6" x="758.8" y="218.1414">6</text><text fill="#000000" font-family="sans-serif" font-size="10.4" lengthAdjust="spacing" textLength="41.6" x="767.6" y="218.1414">findOne()</text><path d="M2.4,258.3516 L51.2,258.3516 L51.2,265.7844 L43.2,273.7844 L2.4,273.7844 L2.4,258.3516 " fill="#EEEEEE" style="stroke:#000000;stroke-width:1.2000000000000002;"/><rect fill="none" height="492.6563" style="stroke:#000000;stroke-width:1.2000000000000002;" width="1133.6" x="2.4" y="258.3516"/><text fill="#000000" font-family="sans-serif" font-size="10.4" font-weight="bold" lengthAdjust="spacing" textLength="12.8" x="14.4" y="270.3742">alt</text><text fill="#000000" font-family="sans-serif" font-size="8.8" font-weight="bold" lengthAdjust="spacing" textLength="91.2" x="63.2" y="269.4477">[user already exists]</text><polygon fill="#181818" points="352,289.2172,344,292.4172,352,295.6172,348.8,292.4172" style="stroke:#181818;stroke-width:0.8000000000000002;"/><line style="stroke:#181818;stroke-width:0.8000000000000002;stroke-dasharray:2.0,2.0;" x1="347.2" x2="544.4" y1="292.4172" y2="292.4172"/><text fill="#000000" font-family="sans-serif" font-size="10.4" font-weight="bold" lengthAdjust="spacing" textLength="5.6" x="356.8" y="288.207">7</text><text fill="#000000" font-family="sans-serif" font-size="10.4" lengthAdjust="spacing" textLength="20.8" x="365.6" y="288.207">error</text><polygon fill="#181818" points="183.2,314.25,175.2,317.45,183.2,320.65,180,317.45" style="stroke:#181818;stroke-width:0.8000000000000002;"/><line style="stroke:#181818;stroke-width:0.8000000000000002;stroke-dasharray:2.0,2.0;" x1="178.4" x2="334.4" y1="317.45" y2="317.45"/><text fill="#000000" font-family="sans-serif" font-size="10.4" font-weight="bold" lengthAdjust="spacing" textLength="5.6" x="188" y="313.2398">8</text><text fill="#000000" font-family="sans-serif" font-size="10.4" lengthAdjust="spacing" textLength="47.2" x="196.8" y="313.2398">error (422)</text><polygon fill="#181818" points="8.8,339.2828,0.8,342.4828,8.8,345.6828,5.6,342.4828" style="stroke:#181818;stroke-width:0.8000000000000002;"/><line style="stroke:#181818;stroke-width:0.8000000000000002;stroke-dasharray:2.0,2.0;" x1="4" x2="165.6" y1="342.4828" y2="342.4828"/><text fill="#000000" font-family="sans-serif" font-size="10.4" font-weight="bold" lengthAdjust="spacing" textLength="5.6" x="13.6" y="338.2727">9</text><text fill="#000000" font-family="sans-serif" font-size="10.4" lengthAdjust="spacing" textLength="89.6" x="22.4" y="338.2727">422: Already exists</text><line style="stroke:#000000;stroke-width:0.8000000000000002;stroke-dasharray:2.0,2.0;" x1="2.4" x2="1136" y1="349.6828" y2="349.6828"/><polygon fill="#181818" points="612.4,365.9156,620.4,369.1156,612.4,372.3156,615.6,369.1156" style="stroke:#181818;stroke-width:0.8000000000000002;"/><line style="stroke:#181818;stroke-width:0.8000000000000002;stroke-dasharray:2.0,2.0;" x1="553.2" x2="617.2" y1="369.1156" y2="369.1156"/><text fill="#000000" font-family="sans-serif" font-size="10.4" font-weight="bold" lengthAdjust="spacing" textLength="11.2" x="558.8" y="364.9055">10</text><text fill="#000000" font-family="sans-serif" font-size="10.4" lengthAdjust="spacing" textLength="35.2" x="573.2" y="364.9055">create()</text><rect fill="#E2E2F0" height="40.9938" rx="2" ry="2" style="stroke:#181818;stroke-width:0.4000000000000001;" width="86.4" x="622" y="350.4828"/><text fill="#000000" font-family="sans-serif" font-size="11.2" lengthAdjust="spacing" textLength="25.6" x="652.4" y="368.1688">user:</text><text fill="#000000" font-family="sans-serif" font-size="11.2" lengthAdjust="spacing" textLength="75.2" x="627.6" y="383.0656">BackofficeUser</text><line style="stroke:#000000;stroke-width:0.8000000000000002;stroke-dasharray:2.0,2.0;" x1="2.4" x2="1136" y1="401.0766" y2="401.0766"/><text fill="#000000" font-family="sans-serif" font-size="8.8" font-weight="bold" lengthAdjust="spacing" textLength="80" x="6.4" y="410.5727">[user not created]</text><polygon fill="#181818" points="352,429.0141,344,432.2141,352,435.4141,348.8,432.2141" style="stroke:#181818;stroke-width:0.8000000000000002;"/><line style="stroke:#181818;stroke-width:0.8000000000000002;stroke-dasharray:2.0,2.0;" x1="347.2" x2="544.4" y1="432.2141" y2="432.2141"/><text fill="#000000" font-family="sans-serif" font-size="10.4" font-weight="bold" lengthAdjust="spacing" textLength="11.2" x="356.8" y="428.0039">11</text><text fill="#000000" font-family="sans-serif" font-size="10.4" lengthAdjust="spacing" textLength="20.8" x="371.2" y="428.0039">error</text><polygon fill="#181818" points="183.2,454.0469,175.2,457.2469,183.2,460.4469,180,457.2469" style="stroke:#181818;stroke-width:0.8000000000000002;"/><line style="stroke:#181818;stroke-width:0.8000000000000002;stroke-dasharray:2.0,2.0;" x1="178.4" x2="334.4" y1="457.2469" y2="457.2469"/><text fill="#000000" font-family="sans-serif" font-size="10.4" font-weight="bold" lengthAdjust="spacing" textLength="11.2" x="188" y="453.0367">12</text><text fill="#000000" font-family="sans-serif" font-size="10.4" lengthAdjust="spacing" textLength="47.2" x="202.4" y="453.0367">error (422)</text><polygon fill="#181818" points="8.8,479.0797,0.8,482.2797,8.8,485.4797,5.6,482.2797" style="stroke:#181818;stroke-width:0.8000000000000002;"/><line style="stroke:#181818;stroke-width:0.8000000000000002;stroke-dasharray:2.0,2.0;" x1="4" x2="165.6" y1="482.2797" y2="482.2797"/><text fill="#000000" font-family="sans-serif" font-size="10.4" font-weight="bold" lengthAdjust="spacing" textLength="11.2" x="13.6" y="478.0695">13</text><text fill="#000000" font-family="sans-serif" font-size="10.4" lengthAdjust="spacing" textLength="131.2" x="28" y="478.0695">422: Unprocessable Content</text><line style="stroke:#000000;stroke-width:0.8000000000000002;stroke-dasharray:2.0,2.0;" x1="2.4" x2="1136" y1="489.4797" y2="489.4797"/><text fill="#000000" font-family="sans-serif" font-size="8.8" font-weight="bold" lengthAdjust="spacing" textLength="121.6" x="6.4" y="498.9758">[user created successfully]</text><polygon fill="#181818" points="735.6,517.4172,743.6,520.6172,735.6,523.8172,738.8,520.6172" style="stroke:#181818;stroke-width:0.8000000000000002;"/><line style="stroke:#181818;stroke-width:0.8000000000000002;" x1="553.2" x2="740.4" y1="520.6172" y2="520.6172"/><text fill="#000000" font-family="sans-serif" font-size="10.4" font-weight="bold" lengthAdjust="spacing" textLength="11.2" x="558.8" y="516.407">14</text><text fill="#000000" font-family="sans-serif" font-size="10.4" lengthAdjust="spacing" textLength="47.2" x="573.2" y="516.407">save(user)</text><polygon fill="#181818" points="809.2,542.45,817.2,545.65,809.2,548.85,812.4,545.65" style="stroke:#181818;stroke-width:0.8000000000000002;"/><line style="stroke:#181818;stroke-width:0.8000000000000002;" x1="753.2" x2="814" y1="545.65" y2="545.65"/><text fill="#000000" font-family="sans-serif" font-size="10.4" font-weight="bold" lengthAdjust="spacing" textLength="11.2" x="758.8" y="541.4398">15</text><text fill="#000000" font-family="sans-serif" font-size="10.4" lengthAdjust="spacing" textLength="20.8" x="773.2" y="541.4398">save</text><polygon fill="#181818" points="870.4,591.4828,878.4,594.6828,870.4,597.8828,873.6,594.6828" style="stroke:#181818;stroke-width:0.8000000000000002;"/><line style="stroke:#181818;stroke-width:0.8000000000000002;" x1="553.2" x2="875.2" y1="594.6828" y2="594.6828"/><text fill="#000000" font-family="sans-serif" font-size="10.4" font-weight="bold" lengthAdjust="spacing" textLength="11.2" x="558.8" y="590.4727">16</text><text fill="#000000" font-family="sans-serif" font-size="10.4" lengthAdjust="spacing" textLength="56" x="573.2" y="590.4727">toDTO(user)</text><polygon fill="#181818" points="967.2,616.5156,975.2,619.7156,967.2,622.9156,970.4,619.7156" style="stroke:#181818;stroke-width:0.8000000000000002;"/><line style="stroke:#181818;stroke-width:0.8000000000000002;stroke-dasharray:2.0,2.0;" x1="888" x2="972" y1="619.7156" y2="619.7156"/><text fill="#000000" font-family="sans-serif" font-size="10.4" font-weight="bold" lengthAdjust="spacing" textLength="11.2" x="893.6" y="615.5055">17</text><text fill="#000000" font-family="sans-serif" font-size="10.4" lengthAdjust="spacing" textLength="55.2" x="908" y="615.5055">create(user)</text><rect fill="#E2E2F0" height="40.9938" rx="2" ry="2" style="stroke:#181818;stroke-width:0.4000000000000001;" width="151.2" x="976.8" y="601.0828"/><text fill="#000000" font-family="sans-serif" font-size="11.2" lengthAdjust="spacing" textLength="59.2" x="1022.8" y="618.7688">createdDto:</text><text fill="#000000" font-family="sans-serif" font-size="11.2" lengthAdjust="spacing" textLength="140" x="982.4" y="633.6656">CreatedBackofficeUserDTO</text><polygon fill="#181818" points="562,666.3094,554,669.5094,562,672.7094,558.8,669.5094" style="stroke:#181818;stroke-width:0.8000000000000002;"/><line style="stroke:#181818;stroke-width:0.8000000000000002;stroke-dasharray:2.0,2.0;" x1="557.2" x2="883.2" y1="669.5094" y2="669.5094"/><text fill="#000000" font-family="sans-serif" font-size="10.4" font-weight="bold" lengthAdjust="spacing" textLength="11.2" x="566.8" y="665.2992">18</text><text fill="#000000" font-family="sans-serif" font-size="10.4" lengthAdjust="spacing" textLength="50.4" x="581.2" y="665.2992">createdDto</text><polygon fill="#181818" points="352,691.3422,344,694.5422,352,697.7422,348.8,694.5422" style="stroke:#181818;stroke-width:0.8000000000000002;"/><line style="stroke:#181818;stroke-width:0.8000000000000002;stroke-dasharray:2.0,2.0;" x1="347.2" x2="548.4" y1="694.5422" y2="694.5422"/><text fill="#000000" font-family="sans-serif" font-size="10.4" font-weight="bold" lengthAdjust="spacing" textLength="11.2" x="356.8" y="690.332">19</text><text fill="#000000" font-family="sans-serif" font-size="10.4" lengthAdjust="spacing" textLength="50.4" x="371.2" y="690.332">createdDto</text><polygon fill="#181818" points="183.2,716.375,175.2,719.575,183.2,722.775,180,719.575" style="stroke:#181818;stroke-width:0.8000000000000002;"/><line style="stroke:#181818;stroke-width:0.8000000000000002;stroke-dasharray:2.0,2.0;" x1="178.4" x2="338.4" y1="719.575" y2="719.575"/><text fill="#000000" font-family="sans-serif" font-size="10.4" font-weight="bold" lengthAdjust="spacing" textLength="11.2" x="188" y="715.3648">20</text><text fill="#000000" font-family="sans-serif" font-size="10.4" lengthAdjust="spacing" textLength="76.8" x="202.4" y="715.3648">createdDto (201)</text><polygon fill="#181818" points="8.8,741.4078,0.8,744.6078,8.8,747.8078,5.6,744.6078" style="stroke:#181818;stroke-width:0.8000000000000002;"/><line style="stroke:#181818;stroke-width:0.8000000000000002;stroke-dasharray:2.0,2.0;" x1="4" x2="169.6" y1="744.6078" y2="744.6078"/><text fill="#000000" font-family="sans-serif" font-size="10.4" font-weight="bold" lengthAdjust="spacing" textLength="11.2" x="13.6" y="740.3977">21</text><text fill="#000000" font-family="sans-serif" font-size="10.4" lengthAdjust="spacing" textLength="59.2" x="28" y="740.3977">201: Created</text><!--SRC=[lLHDRzim3BthLn0zESMCRS5Enb1WRQv3XhKzTHVPPW1ZZkH9ij7y-v6oPql-I6xJASbxVEGZ6ShMQTMUSpH2DDAuggWQgHpS_TIjmpkG5amCF6dbZAvhD1ujdAbZGkbqzaizokAtFfsg0byjciFBqRFV2OpPpsWw8ddKTaKCjXIwqFBKV5OjDjfMJfjBNp9zZGc7nuEfkY6upCNCxNVPD0DubiqCB0nAX-N1-thglwpROtT2lAKFO2237yVd5_Z87coQZtmX2rTrf46D1Ne6YCvTf8W-KwoT6FppmQ3T2KyVettZONW-FYKXRZ3StuzQoMx6UU0kRwMYu8a_PkAnGF1OW2rIapCuLQfCy2ohUXUH9fSy2vWz_f4roXnwYQCAIrs8qCJcM8bRQ83uv75TjGCU2NsW3fGNmFVAEhkGzoQdoQ0nsYn8OzlDFmeaN_RxfP6thsdgIOHcy2rE7R6njhXPJ3uRxIAojwQq6pZbV_NrgXgZ2xHMvZK27mfKRgF6eJwmRS4HfxQkB-l5zfj6EQpiCE7WAukokcsBZMEbLTQrXRk-T3SNB_139uQAS9hEnYq_V8tM2c497b3_TnzNObqjTkRM6nIgXYU2xzxDNgnG0jYVr1kBk94iKE4p93QtT8g7PF_fyzI4G64ycUFQ4ZE3uQIBS7m2LId-0W00]--></g></svg>