<?xml version="1.0" encoding="us-ascii" standalone="no"?><svg xmlns="http://www.w3.org/2000/svg" xmlns:xlink="http://www.w3.org/1999/xlink" contentStyleType="text/css" height="806px" preserveAspectRatio="none" style="width:1407px;height:806px;background:#FFFFFF;" version="1.1" viewBox="0 0 1407 806" width="1407px" zoomAndPan="magnify"><defs/><g><rect fill="#FFFFFF" height="635.1406" style="stroke:#181818;stroke-width:1.0;" width="10" x="201" y="90.5332"/><rect fill="#FFFFFF" height="572.5586" style="stroke:#181818;stroke-width:1.0;" width="10" x="412" y="121.8242"/><rect fill="#FFFFFF" height="447.7344" style="stroke:#181818;stroke-width:1.0;" width="10" x="674.5" y="215.3574"/><rect fill="#FFFFFF" height="61.291" style="stroke:#181818;stroke-width:1.0;" width="10" x="917.5" y="445.6855"/><rect fill="#FFFFFF" height="30" style="stroke:#181818;stroke-width:1.0;" width="10" x="1004" y="476.9766"/><rect fill="#FFFFFF" height="93.5332" style="stroke:#181818;stroke-width:1.0;" width="10" x="1080.5" y="538.2676"/><rect fill="#FFFFFF" height="52.2422" style="stroke:#181818;stroke-width:1.0;" width="10" x="1291" y="579.5586"/><rect fill="none" height="441.0742" style="stroke:#000000;stroke-width:1.5;" width="1397.5" x="3" y="292.5996"/><line style="stroke:#181818;stroke-width:0.5;stroke-dasharray:5.0,5.0;" x1="206" x2="206" y1="57.2422" y2="750.6738"/><line style="stroke:#181818;stroke-width:0.5;stroke-dasharray:5.0,5.0;" x1="417" x2="417" y1="57.2422" y2="750.6738"/><line style="stroke:#181818;stroke-width:0.5;stroke-dasharray:5.0,5.0;" x1="570" x2="570" y1="170.9453" y2="750.6738"/><line style="stroke:#181818;stroke-width:0.5;stroke-dasharray:5.0,5.0;" x1="679" x2="679" y1="57.2422" y2="750.6738"/><line style="stroke:#181818;stroke-width:0.5;stroke-dasharray:5.0,5.0;" x1="817.5" x2="817.5" y1="264.4785" y2="750.6738"/><line style="stroke:#181818;stroke-width:0.5;stroke-dasharray:5.0,5.0;" x1="922.5" x2="922.5" y1="57.2422" y2="750.6738"/><line style="stroke:#181818;stroke-width:0.5;stroke-dasharray:5.0,5.0;" x1="1008.5" x2="1008.5" y1="57.2422" y2="750.6738"/><line style="stroke:#181818;stroke-width:0.5;stroke-dasharray:5.0,5.0;" x1="1085.5" x2="1085.5" y1="57.2422" y2="750.6738"/><line style="stroke:#181818;stroke-width:0.5;stroke-dasharray:5.0,5.0;" x1="1295.5" x2="1295.5" y1="587.3887" y2="750.6738"/><rect fill="#E2E2F0" height="32.6211" rx="2.5" ry="2.5" style="stroke:#181818;stroke-width:0.5;" width="52" x="180" y="23.6211"/><text fill="#000000" font-family="sans-serif" font-size="14" lengthAdjust="spacing" textLength="38" x="187" y="45.7285">Route</text><rect fill="#E2E2F0" height="32.6211" rx="2.5" ry="2.5" style="stroke:#181818;stroke-width:0.5;" width="52" x="180" y="749.6738"/><text fill="#000000" font-family="sans-serif" font-size="14" lengthAdjust="spacing" textLength="38" x="187" y="771.7813">Route</text><rect fill="#E2E2F0" height="32.6211" rx="2.5" ry="2.5" style="stroke:#181818;stroke-width:0.5;" width="76" x="379" y="23.6211"/><text fill="#000000" font-family="sans-serif" font-size="14" lengthAdjust="spacing" textLength="62" x="386" y="45.7285">Controller</text><rect fill="#E2E2F0" height="32.6211" rx="2.5" ry="2.5" style="stroke:#181818;stroke-width:0.5;" width="76" x="379" y="749.6738"/><text fill="#000000" font-family="sans-serif" font-size="14" lengthAdjust="spacing" textLength="62" x="386" y="771.7813">Controller</text><rect fill="#E2E2F0" height="51.2422" rx="2.5" ry="2.5" style="stroke:#181818;stroke-width:0.5;" width="138" x="501" y="749.6738"/><text fill="#000000" font-family="sans-serif" font-size="14" lengthAdjust="spacing" textLength="24" x="558" y="771.7813">dto:</text><text fill="#000000" font-family="sans-serif" font-size="14" lengthAdjust="spacing" textLength="124" x="508" y="790.4023">BackofficeUserDTO</text><rect fill="#E2E2F0" height="32.6211" rx="2.5" ry="2.5" style="stroke:#181818;stroke-width:0.5;" width="61" x="649" y="23.6211"/><text fill="#000000" font-family="sans-serif" font-size="14" lengthAdjust="spacing" textLength="47" x="656" y="45.7285">Service</text><rect fill="#E2E2F0" height="32.6211" rx="2.5" ry="2.5" style="stroke:#181818;stroke-width:0.5;" width="61" x="649" y="749.6738"/><text fill="#000000" font-family="sans-serif" font-size="14" lengthAdjust="spacing" textLength="47" x="656" y="771.7813">Service</text><rect fill="#E2E2F0" height="51.2422" rx="2.5" ry="2.5" style="stroke:#181818;stroke-width:0.5;" width="108" x="763.5" y="749.6738"/><text fill="#000000" font-family="sans-serif" font-size="14" lengthAdjust="spacing" textLength="32" x="801.5" y="771.7813">user:</text><text fill="#000000" font-family="sans-serif" font-size="14" lengthAdjust="spacing" textLength="94" x="770.5" y="790.4023">BackofficeUser</text><rect fill="#E2E2F0" height="32.6211" rx="2.5" ry="2.5" style="stroke:#181818;stroke-width:0.5;" width="82" x="881.5" y="23.6211"/><text fill="#000000" font-family="sans-serif" font-size="14" lengthAdjust="spacing" textLength="68" x="888.5" y="45.7285">Repository</text><rect fill="#E2E2F0" height="32.6211" rx="2.5" ry="2.5" style="stroke:#181818;stroke-width:0.5;" width="82" x="881.5" y="749.6738"/><text fill="#000000" font-family="sans-serif" font-size="14" lengthAdjust="spacing" textLength="68" x="888.5" y="771.7813">Repository</text><rect fill="#E2E2F0" height="32.6211" rx="2.5" ry="2.5" style="stroke:#181818;stroke-width:0.5;" width="71" x="973.5" y="23.6211"/><text fill="#000000" font-family="sans-serif" font-size="14" lengthAdjust="spacing" textLength="57" x="980.5" y="45.7285">DBDriver</text><rect fill="#E2E2F0" height="32.6211" rx="2.5" ry="2.5" style="stroke:#181818;stroke-width:0.5;" width="71" x="973.5" y="749.6738"/><text fill="#000000" font-family="sans-serif" font-size="14" lengthAdjust="spacing" textLength="57" x="980.5" y="771.7813">DBDriver</text><rect fill="#E2E2F0" height="32.6211" rx="2.5" ry="2.5" style="stroke:#181818;stroke-width:0.5;" width="62" x="1054.5" y="23.6211"/><text fill="#000000" font-family="sans-serif" font-size="14" lengthAdjust="spacing" textLength="48" x="1061.5" y="45.7285">Mapper</text><rect fill="#E2E2F0" height="32.6211" rx="2.5" ry="2.5" style="stroke:#181818;stroke-width:0.5;" width="62" x="1054.5" y="749.6738"/><text fill="#000000" font-family="sans-serif" font-size="14" lengthAdjust="spacing" textLength="48" x="1061.5" y="771.7813">Mapper</text><rect fill="#E2E2F0" height="51.2422" rx="2.5" ry="2.5" style="stroke:#181818;stroke-width:0.5;" width="189" x="1201.5" y="749.6738"/><text fill="#000000" font-family="sans-serif" font-size="14" lengthAdjust="spacing" textLength="74" x="1259" y="771.7813">createdDto:</text><text fill="#000000" font-family="sans-serif" font-size="14" lengthAdjust="spacing" textLength="175" x="1208.5" y="790.4023">CreatedBackofficeUserDTO</text><rect fill="#FFFFFF" height="635.1406" style="stroke:#181818;stroke-width:1.0;" width="10" x="201" y="90.5332"/><rect fill="#FFFFFF" height="572.5586" style="stroke:#181818;stroke-width:1.0;" width="10" x="412" y="121.8242"/><rect fill="#FFFFFF" height="447.7344" style="stroke:#181818;stroke-width:1.0;" width="10" x="674.5" y="215.3574"/><rect fill="#FFFFFF" height="61.291" style="stroke:#181818;stroke-width:1.0;" width="10" x="917.5" y="445.6855"/><rect fill="#FFFFFF" height="30" style="stroke:#181818;stroke-width:1.0;" width="10" x="1004" y="476.9766"/><rect fill="#FFFFFF" height="93.5332" style="stroke:#181818;stroke-width:1.0;" width="10" x="1080.5" y="538.2676"/><rect fill="#FFFFFF" height="52.2422" style="stroke:#181818;stroke-width:1.0;" width="10" x="1291" y="579.5586"/><polygon fill="#181818" points="189,86.5332,199,90.5332,189,94.5332,193,90.5332" style="stroke:#181818;stroke-width:1.0;"/><line style="stroke:#181818;stroke-width:1.0;" x1="0" x2="195" y1="90.5332" y2="90.5332"/><text fill="#000000" font-family="sans-serif" font-size="13" font-weight="bold" lengthAdjust="spacing" textLength="7" x="7" y="85.2705">1</text><text fill="#000000" font-family="sans-serif" font-size="13" lengthAdjust="spacing" textLength="137" x="18" y="85.2705">POST /users-backoffice</text><polygon fill="#181818" points="400,117.8242,410,121.8242,400,125.8242,404,121.8242" style="stroke:#181818;stroke-width:1.0;"/><line style="stroke:#181818;stroke-width:1.0;" x1="211" x2="406" y1="121.8242" y2="121.8242"/><text fill="#000000" font-family="sans-serif" font-size="13" font-weight="bold" lengthAdjust="spacing" textLength="7" x="218" y="116.5615">2</text><text fill="#000000" font-family="sans-serif" font-size="13" lengthAdjust="spacing" textLength="171" x="229" y="116.5615">createBackofficeUser(req,res)</text><polygon fill="#181818" points="489,149.1152,499,153.1152,489,157.1152,493,153.1152" style="stroke:#181818;stroke-width:1.0;"/><line style="stroke:#181818;stroke-width:1.0;stroke-dasharray:2.0,2.0;" x1="422" x2="495" y1="153.1152" y2="153.1152"/><text fill="#000000" font-family="sans-serif" font-size="13" font-weight="bold" lengthAdjust="spacing" textLength="7" x="429" y="147.8525">3</text><text fill="#000000" font-family="sans-serif" font-size="13" lengthAdjust="spacing" textLength="44" x="440" y="147.8525">create()</text><rect fill="#E2E2F0" height="51.2422" rx="2.5" ry="2.5" style="stroke:#181818;stroke-width:0.5;" width="138" x="501" y="129.8242"/><text fill="#000000" font-family="sans-serif" font-size="14" lengthAdjust="spacing" textLength="24" x="558" y="151.9316">dto:</text><text fill="#000000" font-family="sans-serif" font-size="14" lengthAdjust="spacing" textLength="124" x="508" y="170.5527">BackofficeUserDTO</text><polygon fill="#181818" points="662.5,211.3574,672.5,215.3574,662.5,219.3574,666.5,215.3574" style="stroke:#181818;stroke-width:1.0;"/><line style="stroke:#181818;stroke-width:1.0;" x1="422" x2="668.5" y1="215.3574" y2="215.3574"/><text fill="#000000" font-family="sans-serif" font-size="13" font-weight="bold" lengthAdjust="spacing" textLength="7" x="429" y="210.0947">4</text><text fill="#000000" font-family="sans-serif" font-size="13" lengthAdjust="spacing" textLength="149" x="440" y="210.0947">createBackofficeUser(dto)</text><polygon fill="#181818" points="751.5,242.6484,761.5,246.6484,751.5,250.6484,755.5,246.6484" style="stroke:#181818;stroke-width:1.0;"/><line style="stroke:#181818;stroke-width:1.0;stroke-dasharray:2.0,2.0;" x1="684.5" x2="757.5" y1="246.6484" y2="246.6484"/><text fill="#000000" font-family="sans-serif" font-size="13" font-weight="bold" lengthAdjust="spacing" textLength="7" x="691.5" y="241.3857">5</text><text fill="#000000" font-family="sans-serif" font-size="13" lengthAdjust="spacing" textLength="44" x="702.5" y="241.3857">create()</text><rect fill="#E2E2F0" height="51.2422" rx="2.5" ry="2.5" style="stroke:#181818;stroke-width:0.5;" width="108" x="763.5" y="223.3574"/><text fill="#000000" font-family="sans-serif" font-size="14" lengthAdjust="spacing" textLength="32" x="801.5" y="245.4648">user:</text><text fill="#000000" font-family="sans-serif" font-size="14" lengthAdjust="spacing" textLength="94" x="770.5" y="264.0859">BackofficeUser</text><path d="M3,292.5996 L64,292.5996 L64,301.8906 L54,311.8906 L3,311.8906 L3,292.5996 " fill="#EEEEEE" style="stroke:#000000;stroke-width:1.5;"/><rect fill="none" height="441.0742" style="stroke:#000000;stroke-width:1.5;" width="1397.5" x="3" y="292.5996"/><text fill="#000000" font-family="sans-serif" font-size="13" font-weight="bold" lengthAdjust="spacing" textLength="16" x="18" y="307.6279">alt</text><text fill="#000000" font-family="sans-serif" font-size="11" font-weight="bold" lengthAdjust="spacing" textLength="100" x="79" y="306.4697">[user not created]</text><polygon fill="#181818" points="433,331.1816,423,335.1816,433,339.1816,429,335.1816" style="stroke:#181818;stroke-width:1.0;"/><line style="stroke:#181818;stroke-width:1.0;stroke-dasharray:2.0,2.0;" x1="427" x2="673.5" y1="335.1816" y2="335.1816"/><text fill="#000000" font-family="sans-serif" font-size="13" font-weight="bold" lengthAdjust="spacing" textLength="7" x="439" y="329.9189">6</text><text fill="#000000" font-family="sans-serif" font-size="13" lengthAdjust="spacing" textLength="26" x="450" y="329.9189">error</text><polygon fill="#181818" points="222,362.4727,212,366.4727,222,370.4727,218,366.4727" style="stroke:#181818;stroke-width:1.0;"/><line style="stroke:#181818;stroke-width:1.0;stroke-dasharray:2.0,2.0;" x1="216" x2="411" y1="366.4727" y2="366.4727"/><text fill="#000000" font-family="sans-serif" font-size="13" font-weight="bold" lengthAdjust="spacing" textLength="7" x="228" y="361.21">7</text><text fill="#000000" font-family="sans-serif" font-size="13" lengthAdjust="spacing" textLength="59" x="239" y="361.21">error (422)</text><polygon fill="#181818" points="11,393.7637,1,397.7637,11,401.7637,7,397.7637" style="stroke:#181818;stroke-width:1.0;"/><line style="stroke:#181818;stroke-width:1.0;stroke-dasharray:2.0,2.0;" x1="5" x2="200" y1="397.7637" y2="397.7637"/><text fill="#000000" font-family="sans-serif" font-size="13" font-weight="bold" lengthAdjust="spacing" textLength="7" x="17" y="392.501">8</text><text fill="#000000" font-family="sans-serif" font-size="13" lengthAdjust="spacing" textLength="164" x="28" y="392.501">422: Unprocessable Content</text><line style="stroke:#000000;stroke-width:1.0;stroke-dasharray:2.0,2.0;" x1="3" x2="1400.5" y1="406.7637" y2="406.7637"/><text fill="#000000" font-family="sans-serif" font-size="11" font-weight="bold" lengthAdjust="spacing" textLength="152" x="8" y="418.6338">[user created successfully]</text><polygon fill="#181818" points="905.5,441.6855,915.5,445.6855,905.5,449.6855,909.5,445.6855" style="stroke:#181818;stroke-width:1.0;"/><line style="stroke:#181818;stroke-width:1.0;" x1="684.5" x2="911.5" y1="445.6855" y2="445.6855"/><text fill="#000000" font-family="sans-serif" font-size="13" font-weight="bold" lengthAdjust="spacing" textLength="7" x="691.5" y="440.4229">9</text><text fill="#000000" font-family="sans-serif" font-size="13" lengthAdjust="spacing" textLength="59" x="702.5" y="440.4229">save(user)</text><polygon fill="#181818" points="992,472.9766,1002,476.9766,992,480.9766,996,476.9766" style="stroke:#181818;stroke-width:1.0;"/><line style="stroke:#181818;stroke-width:1.0;" x1="927.5" x2="998" y1="476.9766" y2="476.9766"/><text fill="#000000" font-family="sans-serif" font-size="13" font-weight="bold" lengthAdjust="spacing" textLength="14" x="934.5" y="471.7139">10</text><text fill="#000000" font-family="sans-serif" font-size="13" lengthAdjust="spacing" textLength="26" x="952.5" y="471.7139">save</text><polygon fill="#181818" points="1068.5,534.2676,1078.5,538.2676,1068.5,542.2676,1072.5,538.2676" style="stroke:#181818;stroke-width:1.0;"/><line style="stroke:#181818;stroke-width:1.0;" x1="684.5" x2="1074.5" y1="538.2676" y2="538.2676"/><text fill="#000000" font-family="sans-serif" font-size="13" font-weight="bold" lengthAdjust="spacing" textLength="14" x="691.5" y="533.0049">11</text><text fill="#000000" font-family="sans-serif" font-size="13" lengthAdjust="spacing" textLength="70" x="709.5" y="533.0049">toDTO(user)</text><polygon fill="#181818" points="1189.5,565.5586,1199.5,569.5586,1189.5,573.5586,1193.5,569.5586" style="stroke:#181818;stroke-width:1.0;"/><line style="stroke:#181818;stroke-width:1.0;stroke-dasharray:2.0,2.0;" x1="1090.5" x2="1195.5" y1="569.5586" y2="569.5586"/><text fill="#000000" font-family="sans-serif" font-size="13" font-weight="bold" lengthAdjust="spacing" textLength="14" x="1097.5" y="564.2959">12</text><text fill="#000000" font-family="sans-serif" font-size="13" lengthAdjust="spacing" textLength="69" x="1115.5" y="564.2959">create(user)</text><rect fill="#E2E2F0" height="51.2422" rx="2.5" ry="2.5" style="stroke:#181818;stroke-width:0.5;" width="189" x="1201.5" y="546.2676"/><text fill="#000000" font-family="sans-serif" font-size="14" lengthAdjust="spacing" textLength="74" x="1259" y="568.375">createdDto:</text><text fill="#000000" font-family="sans-serif" font-size="14" lengthAdjust="spacing" textLength="175" x="1208.5" y="586.9961">CreatedBackofficeUserDTO</text><polygon fill="#181818" points="695.5,627.8008,685.5,631.8008,695.5,635.8008,691.5,631.8008" style="stroke:#181818;stroke-width:1.0;"/><line style="stroke:#181818;stroke-width:1.0;stroke-dasharray:2.0,2.0;" x1="689.5" x2="1084.5" y1="631.8008" y2="631.8008"/><text fill="#000000" font-family="sans-serif" font-size="13" font-weight="bold" lengthAdjust="spacing" textLength="14" x="701.5" y="626.5381">13</text><text fill="#000000" font-family="sans-serif" font-size="13" lengthAdjust="spacing" textLength="63" x="719.5" y="626.5381">createdDto</text><polygon fill="#181818" points="433,659.0918,423,663.0918,433,667.0918,429,663.0918" style="stroke:#181818;stroke-width:1.0;"/><line style="stroke:#181818;stroke-width:1.0;stroke-dasharray:2.0,2.0;" x1="427" x2="678.5" y1="663.0918" y2="663.0918"/><text fill="#000000" font-family="sans-serif" font-size="13" font-weight="bold" lengthAdjust="spacing" textLength="14" x="439" y="657.8291">14</text><text fill="#000000" font-family="sans-serif" font-size="13" lengthAdjust="spacing" textLength="63" x="457" y="657.8291">createdDto</text><polygon fill="#181818" points="222,690.3828,212,694.3828,222,698.3828,218,694.3828" style="stroke:#181818;stroke-width:1.0;"/><line style="stroke:#181818;stroke-width:1.0;stroke-dasharray:2.0,2.0;" x1="216" x2="416" y1="694.3828" y2="694.3828"/><text fill="#000000" font-family="sans-serif" font-size="13" font-weight="bold" lengthAdjust="spacing" textLength="14" x="228" y="689.1201">15</text><text fill="#000000" font-family="sans-serif" font-size="13" lengthAdjust="spacing" textLength="96" x="246" y="689.1201">createdDto (201)</text><polygon fill="#181818" points="11,721.6738,1,725.6738,11,729.6738,7,725.6738" style="stroke:#181818;stroke-width:1.0;"/><line style="stroke:#181818;stroke-width:1.0;stroke-dasharray:2.0,2.0;" x1="5" x2="205" y1="725.6738" y2="725.6738"/><text fill="#000000" font-family="sans-serif" font-size="13" font-weight="bold" lengthAdjust="spacing" textLength="14" x="17" y="720.4111">16</text><text fill="#000000" font-family="sans-serif" font-size="13" lengthAdjust="spacing" textLength="74" x="35" y="720.4111">201: Created</text><!--SRC=[XLJ1Rjim3BthAuYUd696js2dOCYXpRNeiBQdxYBB363CjJnADjQ_7obxYkKeYsx6Utpaevwi1s-xuRr2KghNv1lJzBhpSFF33XvlG3kW57YmdIVRjaW1DPxQb51xk_lPtMlponwFZS5NXtHuUGhiFmocx6UaaKa1TQD9mO5BpxG2jLfDYxrrZRVqCOtCdodXS7-WPfoBwqgjt3xglf_1TzslG4EeFTQ7uEjX-iZR4tTAlPLx8DZ1zwVd5xWJ3wwi8bzfuvkHDNYnm8U0wR95hfWwfTe5uUzFX6wZ0ZrMXyN3V49zoKAoOBYzZLh5PiNPovOljUBY4pzsack1nH41wLMj6YKatNeGwz1PFrFgXB1KckqZaQKpKlH6_oXGVDrkDsV4jszb6KYCxk2rwyaQT4vNBOAa5ZkVr63hS9fndW_SOAJYEBJjHtxOVSWMzt1wn4AAp-SuNR34438dQB1MNSrAMLRKuRpcy1h_nrYWOOvBVZZlF8ItdE5hVkHfv0OH2RcWANin4Ncrr9dFBsYfkiohFCAhkyXG5d1utrU2UA7PGaNUXBgOqbCz5DlFNqvBM2Z4znjZoymTpFyNjRm-XLsj_W80]--></g></svg>