<?xml version="1.0" encoding="us-ascii" standalone="no"?><svg xmlns="http://www.w3.org/2000/svg" xmlns:xlink="http://www.w3.org/1999/xlink" contentStyleType="text/css" height="761px" preserveAspectRatio="none" style="width:1425px;height:761px;background:#FFFFFF;" version="1.1" viewBox="0 0 1425 761" width="1425px" zoomAndPan="magnify"><defs/><g><rect fill="#FFFFFF" height="575.2383" style="stroke:#181818;stroke-width:1.0;" width="10" x="59.5" y="93.6211"/><rect fill="#FFFFFF" height="31.291" style="stroke:#181818;stroke-width:1.0;" width="10" x="290.5" y="116.9121"/><rect fill="#FFFFFF" height="474.3652" style="stroke:#181818;stroke-width:1.0;" width="10" x="290.5" y="179.4941"/><rect fill="#FFFFFF" height="411.7832" style="stroke:#181818;stroke-width:1.0;" width="10" x="377.5" y="210.7852"/><rect fill="#FFFFFF" height="200.0762" style="stroke:#181818;stroke-width:1.0;" width="10" x="987.5" y="285.6973"/><rect fill="#FFFFFF" height="93.873" style="stroke:#181818;stroke-width:1.0;" width="10" x="1237.5" y="316.9883"/><rect fill="none" height="161.0859" style="stroke:#000000;stroke-width:1.5;" width="422.5" x="10" y="500.7734"/><line style="stroke:#181818;stroke-width:0.5;stroke-dasharray:5.0,5.0;" x1="64" x2="64" y1="83.6211" y2="678.8594"/><line style="stroke:#181818;stroke-width:0.5;stroke-dasharray:5.0,5.0;" x1="295" x2="295" y1="83.6211" y2="678.8594"/><line style="stroke:#181818;stroke-width:0.5;stroke-dasharray:5.0,5.0;" x1="382.5" x2="382.5" y1="83.6211" y2="678.8594"/><line style="stroke:#181818;stroke-width:0.5;stroke-dasharray:5.0,5.0;" x1="547.5" x2="547.5" y1="250.5957" y2="678.8594"/><line style="stroke:#181818;stroke-width:0.5;stroke-dasharray:5.0,5.0;" x1="769.5" x2="769.5" y1="450.6719" y2="678.8594"/><line style="stroke:#181818;stroke-width:0.5;stroke-dasharray:5.0,5.0;" x1="992.5" x2="992.5" y1="83.6211" y2="678.8594"/><line style="stroke:#181818;stroke-width:0.5;stroke-dasharray:5.0,5.0;" x1="1242.5" x2="1242.5" y1="83.6211" y2="678.8594"/><text fill="#000000" font-family="sans-serif" font-size="14" lengthAdjust="spacing" textLength="83" x="20" y="80.1074">Administrator</text><ellipse cx="64.5" cy="13.5" fill="#E2E2F0" rx="8" ry="8" style="stroke:#181818;stroke-width:0.5;"/><path d="M64.5,21.5 L64.5,48.5 M51.5,29.5 L77.5,29.5 M64.5,48.5 L51.5,63.5 M64.5,48.5 L77.5,63.5 " fill="none" style="stroke:#181818;stroke-width:0.5;"/><text fill="#000000" font-family="sans-serif" font-size="14" lengthAdjust="spacing" textLength="83" x="20" y="692.9668">Administrator</text><ellipse cx="64.5" cy="704.9805" fill="#E2E2F0" rx="8" ry="8" style="stroke:#181818;stroke-width:0.5;"/><path d="M64.5,712.9805 L64.5,739.9805 M51.5,720.9805 L77.5,720.9805 M64.5,739.9805 L51.5,754.9805 M64.5,739.9805 L77.5,754.9805 " fill="none" style="stroke:#181818;stroke-width:0.5;"/><rect fill="#E2E2F0" height="32.6211" rx="2.5" ry="2.5" style="stroke:#181818;stroke-width:0.5;" width="43" x="274" y="50"/><text fill="#000000" font-family="sans-serif" font-size="14" lengthAdjust="spacing" textLength="29" x="281" y="72.1074">View</text><rect fill="#E2E2F0" height="32.6211" rx="2.5" ry="2.5" style="stroke:#181818;stroke-width:0.5;" width="43" x="274" y="677.8594"/><text fill="#000000" font-family="sans-serif" font-size="14" lengthAdjust="spacing" textLength="29" x="281" y="699.9668">View</text><rect fill="#E2E2F0" height="32.6211" rx="2.5" ry="2.5" style="stroke:#181818;stroke-width:0.5;" width="80" x="342.5" y="50"/><text fill="#000000" font-family="sans-serif" font-size="14" lengthAdjust="spacing" textLength="66" x="349.5" y="72.1074">:Controller</text><rect fill="#E2E2F0" height="32.6211" rx="2.5" ry="2.5" style="stroke:#181818;stroke-width:0.5;" width="80" x="342.5" y="677.8594"/><text fill="#000000" font-family="sans-serif" font-size="14" lengthAdjust="spacing" textLength="66" x="349.5" y="699.9668">:Controller</text><rect fill="#E2E2F0" height="32.6211" rx="2.5" ry="2.5" style="stroke:#181818;stroke-width:0.5;" width="162" x="466.5" y="677.8594"/><text fill="#000000" font-family="sans-serif" font-size="14" lengthAdjust="spacing" textLength="148" x="473.5" y="699.9668">dto:BackofficeUserDTO</text><rect fill="#E2E2F0" height="32.6211" rx="2.5" ry="2.5" style="stroke:#181818;stroke-width:0.5;" width="263" x="638.5" y="677.8594"/><text fill="#000000" font-family="sans-serif" font-size="14" lengthAdjust="spacing" textLength="249" x="645.5" y="699.9668">createdDto:CreatedBackofficeUserDTO</text><rect fill="#E2E2F0" height="32.6211" rx="2.5" ry="2.5" style="stroke:#181818;stroke-width:0.5;" width="94" x="945.5" y="50"/><text fill="#000000" font-family="sans-serif" font-size="14" lengthAdjust="spacing" textLength="80" x="952.5" y="72.1074">:UserService</text><rect fill="#E2E2F0" height="32.6211" rx="2.5" ry="2.5" style="stroke:#181818;stroke-width:0.5;" width="94" x="945.5" y="677.8594"/><text fill="#000000" font-family="sans-serif" font-size="14" lengthAdjust="spacing" textLength="80" x="952.5" y="699.9668">:UserService</text><rect fill="#E2E2F0" height="32.6211" rx="2.5" ry="2.5" style="stroke:#181818;stroke-width:0.5;" width="92" x="1196.5" y="50"/><text fill="#000000" font-family="sans-serif" font-size="14" lengthAdjust="spacing" textLength="78" x="1203.5" y="72.1074">HTTP Driver</text><rect fill="#E2E2F0" height="32.6211" rx="2.5" ry="2.5" style="stroke:#181818;stroke-width:0.5;" width="92" x="1196.5" y="677.8594"/><text fill="#000000" font-family="sans-serif" font-size="14" lengthAdjust="spacing" textLength="78" x="1203.5" y="699.9668">HTTP Driver</text><rect fill="#FFFFFF" height="575.2383" style="stroke:#181818;stroke-width:1.0;" width="10" x="59.5" y="93.6211"/><rect fill="#FFFFFF" height="31.291" style="stroke:#181818;stroke-width:1.0;" width="10" x="290.5" y="116.9121"/><rect fill="#FFFFFF" height="474.3652" style="stroke:#181818;stroke-width:1.0;" width="10" x="290.5" y="179.4941"/><rect fill="#FFFFFF" height="411.7832" style="stroke:#181818;stroke-width:1.0;" width="10" x="377.5" y="210.7852"/><rect fill="#FFFFFF" height="200.0762" style="stroke:#181818;stroke-width:1.0;" width="10" x="987.5" y="285.6973"/><rect fill="#FFFFFF" height="93.873" style="stroke:#181818;stroke-width:1.0;" width="10" x="1237.5" y="316.9883"/><polygon fill="#181818" points="278.5,112.9121,288.5,116.9121,278.5,120.9121,282.5,116.9121" style="stroke:#181818;stroke-width:1.0;"/><line style="stroke:#181818;stroke-width:1.0;" x1="69.5" x2="284.5" y1="116.9121" y2="116.9121"/><text fill="#000000" font-family="sans-serif" font-size="13" font-weight="bold" lengthAdjust="spacing" textLength="7" x="76.5" y="111.6494">1</text><text fill="#000000" font-family="sans-serif" font-size="13" lengthAdjust="spacing" textLength="191" x="87.5" y="111.6494">wants to create a backoffice user</text><polygon fill="#181818" points="80.5,144.2031,70.5,148.2031,80.5,152.2031,76.5,148.2031" style="stroke:#181818;stroke-width:1.0;"/><line style="stroke:#181818;stroke-width:1.0;stroke-dasharray:2.0,2.0;" x1="74.5" x2="294.5" y1="148.2031" y2="148.2031"/><text fill="#000000" font-family="sans-serif" font-size="13" font-weight="bold" lengthAdjust="spacing" textLength="7" x="86.5" y="142.9404">2</text><text fill="#000000" font-family="sans-serif" font-size="13" lengthAdjust="spacing" textLength="72" x="97.5" y="142.9404">request data</text><polygon fill="#181818" points="278.5,175.4941,288.5,179.4941,278.5,183.4941,282.5,179.4941" style="stroke:#181818;stroke-width:1.0;"/><line style="stroke:#181818;stroke-width:1.0;" x1="69.5" x2="284.5" y1="179.4941" y2="179.4941"/><text fill="#000000" font-family="sans-serif" font-size="13" font-weight="bold" lengthAdjust="spacing" textLength="7" x="76.5" y="174.2314">3</text><text fill="#000000" font-family="sans-serif" font-size="13" lengthAdjust="spacing" textLength="76" x="87.5" y="174.2314">provides data</text><polygon fill="#181818" points="365.5,206.7852,375.5,210.7852,365.5,214.7852,369.5,210.7852" style="stroke:#181818;stroke-width:1.0;"/><line style="stroke:#181818;stroke-width:1.0;" x1="300.5" x2="371.5" y1="210.7852" y2="210.7852"/><text fill="#000000" font-family="sans-serif" font-size="13" font-weight="bold" lengthAdjust="spacing" textLength="7" x="307.5" y="205.5225">4</text><text fill="#000000" font-family="sans-serif" font-size="13" lengthAdjust="spacing" textLength="47" x="318.5" y="205.5225">submit()</text><polygon fill="#181818" points="454.5,238.0762,464.5,242.0762,454.5,246.0762,458.5,242.0762" style="stroke:#181818;stroke-width:1.0;"/><line style="stroke:#181818;stroke-width:1.0;stroke-dasharray:2.0,2.0;" x1="387.5" x2="460.5" y1="242.0762" y2="242.0762"/><text fill="#000000" font-family="sans-serif" font-size="13" font-weight="bold" lengthAdjust="spacing" textLength="7" x="394.5" y="236.8135">5</text><text fill="#000000" font-family="sans-serif" font-size="13" lengthAdjust="spacing" textLength="44" x="405.5" y="236.8135">create()</text><rect fill="#E2E2F0" height="32.6211" rx="2.5" ry="2.5" style="stroke:#181818;stroke-width:0.5;" width="162" x="466.5" y="218.7852"/><text fill="#000000" font-family="sans-serif" font-size="14" lengthAdjust="spacing" textLength="148" x="473.5" y="240.8926">dto:BackofficeUserDTO</text><polygon fill="#181818" points="975.5,281.6973,985.5,285.6973,975.5,289.6973,979.5,285.6973" style="stroke:#181818;stroke-width:1.0;"/><line style="stroke:#181818;stroke-width:1.0;" x1="387.5" x2="981.5" y1="285.6973" y2="285.6973"/><text fill="#000000" font-family="sans-serif" font-size="13" font-weight="bold" lengthAdjust="spacing" textLength="7" x="394.5" y="280.4346">6</text><text fill="#000000" font-family="sans-serif" font-size="13" lengthAdjust="spacing" textLength="89" x="405.5" y="280.4346">createUser(dto)</text><polygon fill="#181818" points="1225.5,312.9883,1235.5,316.9883,1225.5,320.9883,1229.5,316.9883" style="stroke:#181818;stroke-width:1.0;"/><line style="stroke:#181818;stroke-width:1.0;" x1="997.5" x2="1231.5" y1="316.9883" y2="316.9883"/><text fill="#000000" font-family="sans-serif" font-size="13" font-weight="bold" lengthAdjust="spacing" textLength="7" x="1004.5" y="311.7256">7</text><text fill="#000000" font-family="sans-serif" font-size="13" lengthAdjust="spacing" textLength="210" x="1015.5" y="311.7256">post(API_URL/users-backoffice, dto)</text><polygon fill="#181818" points="1407.5,344.2793,1417.5,348.2793,1407.5,352.2793,1411.5,348.2793" style="stroke:#181818;stroke-width:1.0;"/><line style="stroke:#181818;stroke-width:1.0;" x1="1247.5" x2="1413.5" y1="348.2793" y2="348.2793"/><text fill="#000000" font-family="sans-serif" font-size="13" font-weight="bold" lengthAdjust="spacing" textLength="7" x="1254.5" y="343.0166">8</text><text fill="#000000" font-family="sans-serif" font-size="13" lengthAdjust="spacing" textLength="137" x="1265.5" y="343.0166">POST /users-backoffice</text><polygon fill="#181818" points="1258.5,375.5703,1248.5,379.5703,1258.5,383.5703,1254.5,379.5703" style="stroke:#181818;stroke-width:1.0;"/><line style="stroke:#181818;stroke-width:1.0;stroke-dasharray:2.0,2.0;" x1="1252.5" x2="1418.5" y1="379.5703" y2="379.5703"/><text fill="#000000" font-family="sans-serif" font-size="13" font-weight="bold" lengthAdjust="spacing" textLength="7" x="1264.5" y="374.3076">9</text><text fill="#000000" font-family="sans-serif" font-size="13" lengthAdjust="spacing" textLength="25" x="1275.5" y="374.3076">user</text><polygon fill="#181818" points="1008.5,406.8613,998.5,410.8613,1008.5,414.8613,1004.5,410.8613" style="stroke:#181818;stroke-width:1.0;"/><line style="stroke:#181818;stroke-width:1.0;stroke-dasharray:2.0,2.0;" x1="1002.5" x2="1241.5" y1="410.8613" y2="410.8613"/><text fill="#000000" font-family="sans-serif" font-size="13" font-weight="bold" lengthAdjust="spacing" textLength="14" x="1014.5" y="405.5986">10</text><text fill="#000000" font-family="sans-serif" font-size="13" lengthAdjust="spacing" textLength="25" x="1032.5" y="405.5986">user</text><polygon fill="#181818" points="912.5,438.1523,902.5,442.1523,912.5,446.1523,908.5,442.1523" style="stroke:#181818;stroke-width:1.0;"/><line style="stroke:#181818;stroke-width:1.0;stroke-dasharray:2.0,2.0;" x1="906.5" x2="986.5" y1="442.1523" y2="442.1523"/><text fill="#000000" font-family="sans-serif" font-size="13" font-weight="bold" lengthAdjust="spacing" textLength="14" x="918.5" y="436.8896">11</text><text fill="#000000" font-family="sans-serif" font-size="13" lengthAdjust="spacing" textLength="44" x="936.5" y="436.8896">create()</text><rect fill="#E2E2F0" height="32.6211" rx="2.5" ry="2.5" style="stroke:#181818;stroke-width:0.5;" width="263" x="638.5" y="418.8613"/><text fill="#000000" font-family="sans-serif" font-size="14" lengthAdjust="spacing" textLength="249" x="645.5" y="440.9688">createdDto:CreatedBackofficeUserDTO</text><polygon fill="#181818" points="398.5,481.7734,388.5,485.7734,398.5,489.7734,394.5,485.7734" style="stroke:#181818;stroke-width:1.0;"/><line style="stroke:#181818;stroke-width:1.0;stroke-dasharray:2.0,2.0;" x1="392.5" x2="991.5" y1="485.7734" y2="485.7734"/><text fill="#000000" font-family="sans-serif" font-size="13" font-weight="bold" lengthAdjust="spacing" textLength="14" x="404.5" y="480.5107">12</text><text fill="#000000" font-family="sans-serif" font-size="13" lengthAdjust="spacing" textLength="63" x="422.5" y="480.5107">createdDto</text><path d="M10,500.7734 L71,500.7734 L71,510.0645 L61,520.0645 L10,520.0645 L10,500.7734 " fill="#EEEEEE" style="stroke:#000000;stroke-width:1.5;"/><rect fill="none" height="161.0859" style="stroke:#000000;stroke-width:1.5;" width="422.5" x="10" y="500.7734"/><text fill="#000000" font-family="sans-serif" font-size="13" font-weight="bold" lengthAdjust="spacing" textLength="16" x="25" y="515.8018">alt</text><text fill="#000000" font-family="sans-serif" font-size="11" font-weight="bold" lengthAdjust="spacing" textLength="100" x="86" y="514.6436">[user not created]</text><polygon fill="#181818" points="311.5,539.3555,301.5,543.3555,311.5,547.3555,307.5,543.3555" style="stroke:#181818;stroke-width:1.0;"/><line style="stroke:#181818;stroke-width:1.0;stroke-dasharray:2.0,2.0;" x1="305.5" x2="376.5" y1="543.3555" y2="543.3555"/><text fill="#000000" font-family="sans-serif" font-size="13" font-weight="bold" lengthAdjust="spacing" textLength="14" x="317.5" y="538.0928">13</text><text fill="#000000" font-family="sans-serif" font-size="13" lengthAdjust="spacing" textLength="26" x="335.5" y="538.0928">error</text><polygon fill="#181818" points="80.5,570.6465,70.5,574.6465,80.5,578.6465,76.5,574.6465" style="stroke:#181818;stroke-width:1.0;"/><line style="stroke:#181818;stroke-width:1.0;stroke-dasharray:2.0,2.0;" x1="74.5" x2="289.5" y1="574.6465" y2="574.6465"/><text fill="#000000" font-family="sans-serif" font-size="13" font-weight="bold" lengthAdjust="spacing" textLength="14" x="86.5" y="569.3838">14</text><text fill="#000000" font-family="sans-serif" font-size="13" lengthAdjust="spacing" textLength="65" x="104.5" y="569.3838">inform error</text><line style="stroke:#000000;stroke-width:1.0;stroke-dasharray:2.0,2.0;" x1="10" x2="432.5" y1="583.6465" y2="583.6465"/><text fill="#000000" font-family="sans-serif" font-size="11" font-weight="bold" lengthAdjust="spacing" textLength="55" x="15" y="595.5166">[success]</text><polygon fill="#181818" points="311.5,618.5684,301.5,622.5684,311.5,626.5684,307.5,622.5684" style="stroke:#181818;stroke-width:1.0;"/><line style="stroke:#181818;stroke-width:1.0;stroke-dasharray:2.0,2.0;" x1="305.5" x2="381.5" y1="622.5684" y2="622.5684"/><text fill="#000000" font-family="sans-serif" font-size="13" font-weight="bold" lengthAdjust="spacing" textLength="14" x="317.5" y="617.3057">15</text><text fill="#000000" font-family="sans-serif" font-size="13" lengthAdjust="spacing" textLength="25" x="335.5" y="617.3057">user</text><polygon fill="#181818" points="80.5,649.8594,70.5,653.8594,80.5,657.8594,76.5,653.8594" style="stroke:#181818;stroke-width:1.0;"/><line style="stroke:#181818;stroke-width:1.0;stroke-dasharray:2.0,2.0;" x1="74.5" x2="294.5" y1="653.8594" y2="653.8594"/><text fill="#000000" font-family="sans-serif" font-size="13" font-weight="bold" lengthAdjust="spacing" textLength="14" x="86.5" y="648.5967">16</text><text fill="#000000" font-family="sans-serif" font-size="13" lengthAdjust="spacing" textLength="113" x="104.5" y="648.5967">shows created user</text><!--SRC=[VLHDR-8m4BtdLuoub5QDzXvLIDrow4gLG4lQswfod45O6spMCmb_VyTE6f8GEXSCVXypRn9KpSxMnm9zaYZDpiFYkJmQQuYzagyBK0GroUr9UJRQd9HbM7mOFCUhHWxZg-p5MVQkgh0bQ_RLX5sootug_TVjzqRZEw5VvviM_2btOx3sg1ZBjN1UskCyjOZKv0xopNgJ0Q6e25eElX4e6CiEYfuAofQWAuFYKM9fT506Pv4cumIFNQiHVQZHoMIUrppVmjgRfXlvm7oASPecT13Y0odvX7GL8uCCpa8ba9xQ0K4Dcwl5D79waHWqT1KbKj4AaXbu_5SZoHoALSIKEERDs9-yQqo9T25zPxMAQnGQrSNHyFA-l-zPSSymgCW8JSQbFZm8knrLs3F0LKYsnuJKbqAx7o5xix04c5IWYqe8FypdY9VFsr-Vxx_VVeGuARta-mXNqYFvTe4mKr4zNVqHX-rcbyELz6tMKve6Mh_QUUa-XrdSOB7pFSOGHAEuplmMjDlivJrBRZY6q5N5iJEmZhyeoVpQkmSDlNVZGIPFhx5xvuyT3YiIerfh9FfMTXJFeCdsx-Q65HtScRxQlaXCNnUqCjFWHo7_1m00]--></g></svg>