<?xml version="1.0" encoding="us-ascii" standalone="no"?><svg xmlns="http://www.w3.org/2000/svg" xmlns:xlink="http://www.w3.org/1999/xlink" contentStyleType="text/css" height="357px" preserveAspectRatio="none" style="width:206px;height:357px;background:#FFFFFF;" version="1.1" viewBox="0 0 206 357" width="206px" zoomAndPan="magnify"><defs/><g><!--cluster system--><g id="cluster_system"><path d="M8.5,6.0137 L58.5,6.0137 A3.75,3.75 0 0 1 61,8.5137 L68,30.6348 L196.5,30.6348 A2.5,2.5 0 0 1 199,33.1348 L199,347.5137 A2.5,2.5 0 0 1 196.5,350.0137 L8.5,350.0137 A2.5,2.5 0 0 1 6,347.5137 L6,8.5137 A2.5,2.5 0 0 1 8.5,6.0137 " fill="none" style="stroke:#000000;stroke-width:1.5;"/><line style="stroke:#000000;stroke-width:1.5;" x1="6" x2="68" y1="30.6348" y2="30.6348"/><text fill="#000000" font-family="sans-serif" font-size="14" font-weight="bold" lengthAdjust="spacing" textLength="49" x="10" y="23.1211">system</text></g><path d="M46,43.0137 L74,43.0137 A3.75,3.75 0 0 1 76.5,45.5137 L83.5,67.6348 L88,67.6348 A2.5,2.5 0 0 1 90.5,70.1348 L90.5,97.7559 A2.5,2.5 0 0 1 88,100.2559 L46,100.2559 A2.5,2.5 0 0 1 43.5,97.7559 L43.5,45.5137 A2.5,2.5 0 0 1 46,43.0137 " fill="#F1F1F1" style="stroke:#181818;stroke-width:0.5;"/><line style="stroke:#181818;stroke-width:0.5;" x1="43.5" x2="83.5" y1="67.6348" y2="67.6348"/><text fill="#000000" font-family="sans-serif" font-size="14" lengthAdjust="spacing" textLength="27" x="47.5" y="60.1211">SPA</text><path d="M110,277.0137 L166,277.0137 A3.75,3.75 0 0 1 168.5,279.5137 L175.5,301.6348 L180,301.6348 A2.5,2.5 0 0 1 182.5,304.1348 L182.5,331.7559 A2.5,2.5 0 0 1 180,334.2559 L110,334.2559 A2.5,2.5 0 0 1 107.5,331.7559 L107.5,279.5137 A2.5,2.5 0 0 1 110,277.0137 " fill="#F1F1F1" style="stroke:#181818;stroke-width:0.5;"/><line style="stroke:#181818;stroke-width:0.5;" x1="107.5" x2="175.5" y1="301.6348" y2="301.6348"/><text fill="#000000" font-family="sans-serif" font-size="14" lengthAdjust="spacing" textLength="55" x="111.5" y="294.1211">Planning</text><path d="M128.5,43.0137 L159.5,43.0137 A3.75,3.75 0 0 1 162,45.5137 L169,67.6348 L173.5,67.6348 A2.5,2.5 0 0 1 176,70.1348 L176,97.7559 A2.5,2.5 0 0 1 173.5,100.2559 L128.5,100.2559 A2.5,2.5 0 0 1 126,97.7559 L126,45.5137 A2.5,2.5 0 0 1 128.5,43.0137 " fill="#F1F1F1" style="stroke:#181818;stroke-width:0.5;"/><line style="stroke:#181818;stroke-width:0.5;" x1="126" x2="169" y1="67.6348" y2="67.6348"/><text fill="#000000" font-family="sans-serif" font-size="14" lengthAdjust="spacing" textLength="30" x="130" y="60.1211">MDV</text><path d="M122,160.0137 L154,160.0137 A3.75,3.75 0 0 1 156.5,162.5137 L163.5,184.6348 L168,184.6348 A2.5,2.5 0 0 1 170.5,187.1348 L170.5,214.7559 A2.5,2.5 0 0 1 168,217.2559 L122,217.2559 A2.5,2.5 0 0 1 119.5,214.7559 L119.5,162.5137 A2.5,2.5 0 0 1 122,160.0137 " fill="#F1F1F1" style="stroke:#181818;stroke-width:0.5;"/><line style="stroke:#181818;stroke-width:0.5;" x1="119.5" x2="163.5" y1="184.6348" y2="184.6348"/><text fill="#000000" font-family="sans-serif" font-size="14" lengthAdjust="spacing" textLength="31" x="123.5" y="177.1211">MDR</text><path d="M24.5,277.0137 L55.5,277.0137 A3.75,3.75 0 0 1 58,279.5137 L65,301.6348 L69.5,301.6348 A2.5,2.5 0 0 1 72,304.1348 L72,331.7559 A2.5,2.5 0 0 1 69.5,334.2559 L24.5,334.2559 A2.5,2.5 0 0 1 22,331.7559 L22,279.5137 A2.5,2.5 0 0 1 24.5,277.0137 " fill="#F1F1F1" style="stroke:#181818;stroke-width:0.5;"/><line style="stroke:#181818;stroke-width:0.5;" x1="22" x2="65" y1="301.6348" y2="301.6348"/><text fill="#000000" font-family="sans-serif" font-size="14" lengthAdjust="spacing" textLength="30" x="26" y="294.1211">MDT</text><!--link SPA to MDR--><g id="link_SPA_MDR"><path codeLine="30" d="M85.68,100.0637 C96.98,116.7237 111.44,138.0437 123.26,155.4537 " fill="none" id="SPA-to-MDR" style="stroke:#FF6655;stroke-width:1.0;stroke-dasharray:7.0,7.0;"/><polygon fill="#FF6655" points="126.2,159.7937,124.4515,150.1013,123.3904,155.6577,117.834,154.5966,126.2,159.7937" style="stroke:#FF6655;stroke-width:1.0;"/></g><!--link SPA to MDV--><g id="link_SPA_MDV"><path codeLine="31" d="M90.62,71.5137 C100.53,71.5137 110.44,71.5137 120.35,71.5137 " fill="none" id="SPA-to-MDV" style="stroke:#FF6655;stroke-width:1.0;stroke-dasharray:7.0,7.0;"/><polygon fill="#FF6655" points="125.53,71.5137,116.53,67.5137,120.53,71.5137,116.53,75.5137,125.53,71.5137" style="stroke:#FF6655;stroke-width:1.0;"/></g><!--link MDV to MDR--><g id="link_MDV_MDR"><path codeLine="32" d="M149.56,100.0637 C148.71,116.4337 147.62,137.3137 146.72,154.5637 " fill="none" id="MDV-to-MDR" style="stroke:#FF6655;stroke-width:1.0;stroke-dasharray:7.0,7.0;"/><polygon fill="#FF6655" points="146.45,159.7937,150.9083,151.0116,146.7075,154.8003,142.9189,150.5996,146.45,159.7937" style="stroke:#FF6655;stroke-width:1.0;"/></g><!--link MDR to MDT--><g id="link_MDR_MDT"><path codeLine="33" d="M121.53,217.0637 C107.21,233.8637 88.85,255.4037 73.94,272.8937 " fill="none" id="MDR-to-MDT" style="stroke:#FF6655;stroke-width:1.0;stroke-dasharray:7.0,7.0;"/><polygon fill="#FF6655" points="70.62,276.7937,79.4971,272.5278,73.8587,272.9843,73.4021,267.3459,70.62,276.7937" style="stroke:#FF6655;stroke-width:1.0;"/></g><!--link MDT to Planning--><g id="link_MDT_Planning"><path codeLine="34" d="M72.27,305.5137 C82.27,305.5137 92.27,305.5137 102.27,305.5137 " fill="none" id="MDT-to-Planning" style="stroke:#FF6655;stroke-width:1.0;stroke-dasharray:7.0,7.0;"/><polygon fill="#FF6655" points="107.5,305.5137,98.5,301.5137,102.5,305.5137,98.5,309.5137,107.5,305.5137" style="stroke:#FF6655;stroke-width:1.0;"/></g><!--link MDR to Planning--><g id="link_MDR_Planning"><path codeLine="35" d="M133.93,217.0637 C131.91,233.4337 131.71,254.3137 133.35,271.5637 " fill="none" id="MDR-to-Planning" style="stroke:#FF6655;stroke-width:1.0;stroke-dasharray:7.0,7.0;"/><polygon fill="#FF6655" points="133.91,276.7937,136.9094,267.4127,133.3672,271.8232,128.9567,268.2811,133.91,276.7937" style="stroke:#FF6655;stroke-width:1.0;"/></g><!--link Planning to MDR--><g id="link_Planning_MDR"><path codeLine="36" d="M156.74,276.7937 C158.87,260.3837 159.07,239.5037 157.32,222.2737 " fill="none" id="Planning-to-MDR" style="stroke:#FF6655;stroke-width:1.0;stroke-dasharray:7.0,7.0;"/><polygon fill="#FF6655" points="156.72,217.0637,153.7739,226.4616,157.291,222.031,161.7216,225.548,156.72,217.0637" style="stroke:#FF6655;stroke-width:1.0;"/></g><!--SRC=[TLFVQzim47xtNt5q3tqfXZqqWr42QKgWq6sb2TspBDzi4LdIJj9CDlQ_xoGxZfir9YPOttq_xdpsUsMS8D61j9sp1as0FmNmjR4cRDLlX8-B_7mlvBuX6qszjjhItTtA2TdYSWbFgcd3sfBGGw6b6kcywCDcirZStaxINqM7iBQH5D8v3IhDPk-vmWEYs-uFzpfYnbT4jf_q7Zks2oTWuCojf_eH-fIluczHC7Cl6WH_y06xSGZ7mwljy-fgFEFQDz2p5iOeqrp2lpoyNePUBaExCsZ8K5AQThaSo1U0rn78rcLjU_EMa7tdXDq4xER0rDgSzWvm6a4v6N7gw-8QNh0HL3C6eLKULESqThnb8YXhu9V2_WPwv1yXHECZ_rKOUaJ36saCoZ1m4LWLQaLyeWyi72mSRO7VfB6XX5sRP0JVZgm7OUeamgu6AXjQ48xFqqBwp_2zPGjcdTcmSZAQgUTyX7MKc7D86vrErLKC-M3Sc0hv4q8FhKYBd1Iy51fJ2XRrZ47qJ1UUYq8h0jGs1o3y6RcliSbTpczi3pKwD7Nw8dbI8rYorBVXYHjYcvRbRq3zI25PRspclu6bEEuuhf37r2kjEJHqbavDiNoQcW2fI4OjQ4eX3sNn3m00]--></g></svg>