<?xml version="1.0" encoding="us-ascii" standalone="no"?><svg xmlns="http://www.w3.org/2000/svg" xmlns:xlink="http://www.w3.org/1999/xlink" contentStyleType="text/css" height="375px" preserveAspectRatio="none" style="width:1296px;height:375px;background:#FFFFFF;" version="1.1" viewBox="0 0 1296 375" width="1296px" zoomAndPan="magnify"><defs/><g><!--cluster <<system>>\nRobDroneGo--><g id="cluster_&lt;&lt;system&gt;&gt;\nRobDroneGo"><rect fill="#FFFFFF" height="257.79" rx="2.5" ry="2.5" style="stroke:#000000;stroke-width:1.0;" width="1008" x="282.5" y="112"/><rect fill="#FFFFFF" height="10" style="stroke:#000000;stroke-width:1.0;" width="15" x="1270.5" y="117"/><rect fill="#FFFFFF" height="2" style="stroke:#000000;stroke-width:1.0;" width="4" x="1268.5" y="119"/><rect fill="#FFFFFF" height="2" style="stroke:#000000;stroke-width:1.0;" width="4" x="1268.5" y="123"/><text fill="#000000" font-family="Courier" font-size="16" font-weight="bold" lengthAdjust="spacing" textLength="80" x="746.5" y="142.104">&#171;system&#187;</text><text fill="#000000" font-family="Courier" font-size="16" font-weight="bold" lengthAdjust="spacing" textLength="100" x="736.5" y="163.8961">RobDroneGo</text></g><text fill="#000000" font-family="sans-serif" font-size="14" lengthAdjust="spacing" textLength="4" x="636.5" y="89.898">&#160;</text><rect fill="#F1F1F1" height="12" style="stroke:#181818;stroke-width:1.5;" width="12" x="632.5" y="106"/><text fill="#000000" font-family="sans-serif" font-size="14" lengthAdjust="spacing" textLength="4" x="408.5" y="89.898">&#160;</text><rect fill="#F1F1F1" height="12" style="stroke:#181818;stroke-width:1.5;" width="12" x="404.5" y="106"/><text fill="#000000" font-family="sans-serif" font-size="14" lengthAdjust="spacing" textLength="4" x="812.5" y="89.898">&#160;</text><rect fill="#F1F1F1" height="12" style="stroke:#181818;stroke-width:1.5;" width="12" x="808.5" y="106"/><text fill="#000000" font-family="sans-serif" font-size="14" lengthAdjust="spacing" textLength="4" x="564.5" y="89.898">&#160;</text><rect fill="#F1F1F1" height="12" style="stroke:#181818;stroke-width:1.5;" width="12" x="560.5" y="106"/><text fill="#000000" font-family="sans-serif" font-size="14" lengthAdjust="spacing" textLength="4" x="504.5" y="89.898">&#160;</text><rect fill="#F1F1F1" height="12" style="stroke:#181818;stroke-width:1.5;" width="12" x="500.5" y="106"/><text fill="#000000" font-family="sans-serif" font-size="14" lengthAdjust="spacing" textLength="4" x="929.5" y="89.898">&#160;</text><rect fill="#F1F1F1" height="12" style="stroke:#181818;stroke-width:1.5;" width="12" x="925.5" y="106"/><!--entity Planning--><g id="elem_Planning"><rect fill="#FFFFFF" height="51.792" rx="2.5" ry="2.5" style="stroke:#000000;stroke-width:0.5;" width="120" x="1003.5" y="178"/><rect fill="#FFFFFF" height="10" style="stroke:#000000;stroke-width:0.5;" width="15" x="1103.5" y="183"/><rect fill="#FFFFFF" height="2" style="stroke:#000000;stroke-width:0.5;" width="4" x="1101.5" y="185"/><rect fill="#FFFFFF" height="2" style="stroke:#000000;stroke-width:0.5;" width="4" x="1101.5" y="189"/><text fill="#000000" font-family="Courier" font-size="16" lengthAdjust="spacing" textLength="80" x="1018.5" y="215.104">Planning</text></g><!--entity Planning API--><g id="elem_Planning API"><ellipse cx="968.5" cy="321.79" fill="#F1F1F1" rx="8" ry="8" style="stroke:#181818;stroke-width:0.5;"/><text fill="#000000" font-family="sans-serif" font-size="14" lengthAdjust="spacing" textLength="86" x="925.5" y="353.7559">Planning API</text></g><!--entity Task API--><g id="elem_Task API"><ellipse cx="724.5" cy="321.79" fill="#F1F1F1" rx="8" ry="8" style="stroke:#181818;stroke-width:0.5;"/><text fill="#000000" font-family="sans-serif" font-size="14" lengthAdjust="spacing" textLength="56" x="696.5" y="353.7559">Task API</text></g><!--entity Fleet API--><g id="elem_Fleet API"><ellipse cx="459.5" cy="321.79" fill="#F1F1F1" rx="8" ry="8" style="stroke:#181818;stroke-width:0.5;"/><text fill="#000000" font-family="sans-serif" font-size="14" lengthAdjust="spacing" textLength="58" x="430.5" y="353.7559">Fleet API</text></g><!--entity campus--><g id="elem_campus"><rect fill="#FFFFFF" height="51.792" rx="2.5" ry="2.5" style="stroke:#000000;stroke-width:0.5;" width="210" x="533.5" y="178"/><rect fill="#FFFFFF" height="10" style="stroke:#000000;stroke-width:0.5;" width="15" x="723.5" y="183"/><rect fill="#FFFFFF" height="2" style="stroke:#000000;stroke-width:0.5;" width="4" x="721.5" y="185"/><rect fill="#FFFFFF" height="2" style="stroke:#000000;stroke-width:0.5;" width="4" x="721.5" y="189"/><text fill="#000000" font-family="Courier" font-size="16" lengthAdjust="spacing" textLength="170" x="548.5" y="215.104">Campus&#160;Management</text></g><!--entity fleet--><g id="elem_fleet"><rect fill="#FFFFFF" height="51.792" rx="2.5" ry="2.5" style="stroke:#000000;stroke-width:0.5;" width="200" x="298.5" y="178"/><rect fill="#FFFFFF" height="10" style="stroke:#000000;stroke-width:0.5;" width="15" x="478.5" y="183"/><rect fill="#FFFFFF" height="2" style="stroke:#000000;stroke-width:0.5;" width="4" x="476.5" y="185"/><rect fill="#FFFFFF" height="2" style="stroke:#000000;stroke-width:0.5;" width="4" x="476.5" y="189"/><text fill="#000000" font-family="Courier" font-size="16" lengthAdjust="spacing" textLength="160" x="313.5" y="215.104">Fleet&#160;Management</text></g><!--entity task--><g id="elem_task"><rect fill="#FFFFFF" height="51.792" rx="2.5" ry="2.5" style="stroke:#000000;stroke-width:0.5;" width="190" x="778.5" y="178"/><rect fill="#FFFFFF" height="10" style="stroke:#000000;stroke-width:0.5;" width="15" x="948.5" y="183"/><rect fill="#FFFFFF" height="2" style="stroke:#000000;stroke-width:0.5;" width="4" x="946.5" y="185"/><rect fill="#FFFFFF" height="2" style="stroke:#000000;stroke-width:0.5;" width="4" x="946.5" y="189"/><text fill="#000000" font-family="Courier" font-size="16" lengthAdjust="spacing" textLength="150" x="793.5" y="215.104">Task&#160;Management</text></g><!--entity Campus Management API--><g id="elem_Campus Management API"><ellipse cx="491.5" cy="14" fill="#F1F1F1" rx="8" ry="8" style="stroke:#181818;stroke-width:0.5;"/><text fill="#000000" font-family="sans-serif" font-size="14" lengthAdjust="spacing" textLength="175" x="404" y="45.9659">Campus Management API</text></g><!--entity Campus Management UI--><g id="elem_Campus Management UI"><ellipse cx="713.5" cy="14" fill="#F1F1F1" rx="8" ry="8" style="stroke:#181818;stroke-width:0.5;"/><text fill="#000000" font-family="sans-serif" font-size="14" lengthAdjust="spacing" textLength="168" x="629.5" y="45.9659">Campus Management UI</text></g><!--entity Fleet Management API--><g id="elem_Fleet Management API"><ellipse cx="277.5" cy="14" fill="#F1F1F1" rx="8" ry="8" style="stroke:#181818;stroke-width:0.5;"/><text fill="#000000" font-family="sans-serif" font-size="14" lengthAdjust="spacing" textLength="152" x="201.5" y="45.9659">Fleet Management API</text></g><!--entity Fleet Management UI--><g id="elem_Fleet Management UI"><ellipse cx="78.5" cy="14" fill="#F1F1F1" rx="8" ry="8" style="stroke:#181818;stroke-width:0.5;"/><text fill="#000000" font-family="sans-serif" font-size="14" lengthAdjust="spacing" textLength="145" x="6" y="45.9659">Fleet Management UI</text></g><!--entity Task Management API--><g id="elem_Task Management API"><ellipse cx="1116.5" cy="14" fill="#F1F1F1" rx="8" ry="8" style="stroke:#181818;stroke-width:0.5;"/><text fill="#000000" font-family="sans-serif" font-size="14" lengthAdjust="spacing" textLength="150" x="1041.5" y="45.9659">Task Management API</text></g><!--entity Task Management UI--><g id="elem_Task Management UI"><ellipse cx="919.5" cy="14" fill="#F1F1F1" rx="8" ry="8" style="stroke:#181818;stroke-width:0.5;"/><text fill="#000000" font-family="sans-serif" font-size="14" lengthAdjust="spacing" textLength="143" x="848" y="45.9659">Task Management UI</text></g><!--link Planning to Planning API--><g id="link_Planning_Planning API"><path d="M1042.89,230.04 C1021.28,256.41 988.6,296.27 974.9,312.99 " fill="none" id="Planning-Planning API" style="stroke:#FF6655;stroke-width:1.0;"/></g><!--link task to Planning API--><g id="link_task_Planning API"><path d="M894.11,230.04 C915.72,256.41 942.0621,288.535 955.7621,305.255 " fill="none" id="task-to-Planning API" style="stroke:#FF6655;stroke-width:1.0;"/><path d="M966.6908,305.2489 A9,9 0 0 0 953.6074 315.9691" fill="none" style="stroke:#FF6655;stroke-width:1.5;"/></g><!--link task to Task API--><g id="link_task_Task API"><path d="M841.17,230.04 C806.59,256.94 753.94,297.89 733.27,313.97 " fill="none" id="task-Task API" style="stroke:#FF6655;stroke-width:1.0;"/></g><!--link fleet to Fleet API--><g id="link_fleet_Fleet API"><path d="M411.74,230.04 C425.61,256.41 446.6,296.27 455.39,312.99 " fill="none" id="fleet-Fleet API" style="stroke:#FF6655;stroke-width:1.0;"/></g><!--link task to Fleet API--><g id="link_task_Fleet API"><path d="M782.9,230.26 C676.29,260.1 518.2695,304.3331 478.0295,315.6031 " fill="none" id="task-to-Fleet API" style="stroke:#FF6655;stroke-width:1.0;"/><path d="M473.645,325.6137 A9,9 0 0 0 469.0833 309.326" fill="none" style="stroke:#FF6655;stroke-width:1.5;"/></g><!--link fleet to Task API--><g id="link_fleet_Task API"><path d="M469.64,230.18 C552.07,259.49 671.6179,301.9899 706.2679,314.3099 " fill="none" id="fleet-to-Task API" style="stroke:#FF6655;stroke-width:1.0;"/><path d="M715.6229,308.6602 A9,9 0 0 0 709.9564 324.5973" fill="none" style="stroke:#FF6655;stroke-width:1.5;"/></g><!--link campus to p_campus_ui--><g id="link_campus_p_campus_ui"><path d="M638.5,177.65 C638.5,157.13 638.5,129.77 638.5,118.35 " fill="none" id="campus-p_campus_ui" style="stroke:#FF6655;stroke-width:1.0;"/></g><!--link campus to p_campus_api--><g id="link_campus_p_campus_api"><path d="M618.29,177.65 C601.85,157.13 579.93,129.77 570.79,118.35 " fill="none" id="campus-p_campus_api" style="stroke:#FF6655;stroke-width:1.0;"/></g><!--link Campus Management API to p_campus_api--><g id="link_Campus Management API_p_campus_api"><path d="M497.64,22.85 C512.47,41.84 549.96,89.83 562.41,105.76 " fill="none" id="Campus Management API-p_campus_api" style="stroke:#FF6655;stroke-width:1.0;"/></g><!--link Campus Management UI to p_campus_ui--><g id="link_Campus Management UI_p_campus_ui"><path d="M707.36,22.85 C692.53,41.84 655.04,89.83 642.59,105.76 " fill="none" id="Campus Management UI-p_campus_ui" style="stroke:#FF6655;stroke-width:1.0;"/></g><!--link fleet to p_fleet_ui--><g id="link_fleet_p_fleet_ui"><path d="M401.87,177.65 C404.61,157.13 408.26,129.77 409.79,118.35 " fill="none" id="fleet-p_fleet_ui" style="stroke:#FF6655;stroke-width:1.0;"/></g><!--link fleet to p_fleet_api--><g id="link_fleet_p_fleet_api"><path d="M428.82,177.65 C453.48,157.13 486.35,129.77 500.07,118.35 " fill="none" id="fleet-p_fleet_api" style="stroke:#FF6655;stroke-width:1.0;"/></g><!--link Fleet Management API to p_fleet_api--><g id="link_Fleet Management API_p_fleet_api"><path d="M286.48,18.76 C324.02,34.5 467.98,94.85 500.11,108.32 " fill="none" id="Fleet Management API-p_fleet_api" style="stroke:#FF6655;stroke-width:1.0;"/></g><!--link Fleet Management UI to p_fleet_ui--><g id="link_Fleet Management UI_p_fleet_ui"><path d="M87.29,17.94 C104.27,23.58 142.8,36.25 175.5,46 C265.97,72.95 377.14,102.27 404.3,109.38 " fill="none" id="Fleet Management UI-p_fleet_ui" style="stroke:#FF6655;stroke-width:1.0;"/></g><!--link task to p_task_ui--><g id="link_task_p_task_ui"><path d="M856.94,177.65 C843.46,157.13 825.51,129.77 818.01,118.35 " fill="none" id="task-p_task_ui" style="stroke:#FF6655;stroke-width:1.0;"/></g><!--link task to p_task_api--><g id="link_task_p_task_api"><path d="M889.78,177.65 C903.03,157.13 920.68,129.77 928.05,118.35 " fill="none" id="task-p_task_api" style="stroke:#FF6655;stroke-width:1.0;"/></g><!--link Task Management API to p_task_api--><g id="link_Task Management API_p_task_api"><path d="M1107.58,19.63 C1075.39,36.33 965.67,93.27 937.92,107.67 " fill="none" id="Task Management API-p_task_api" style="stroke:#FF6655;stroke-width:1.0;"/></g><!--link Task Management UI to p_task_ui--><g id="link_Task Management UI_p_task_ui"><path d="M910.91,22.85 C890.24,41.75 838.15,89.38 820.47,105.54 " fill="none" id="Task Management UI-p_task_ui" style="stroke:#FF6655;stroke-width:1.0;"/></g><!--SRC=[VLBBReCm4Bpp5IjwI2uSUaXwGKWf5LMajehwK0zj5Jd41IjWMyQeB-NVQsn3a6jg3jWxipExQpS7GZaIg8QSrPnHJ2Ny1A1MngXy8DyOpfVwV8doGo5OI_SfgvY8unL7UOcJ16v8KSgK2LGP8XDxB5pIMPOjbul587s7QWmfQmN1mas3NQNCVAxmN1A9DR8IWdqCIkjQ6SaJODXZqu5leGkzWcCGd3eFuxZvQYIka-ILthFTbL3nQnRQaN0c54Tzg06-pL7DssRR4W_sNc4i_P14pS6FM474fnNzc9Ri88sDsacr8jmYYWfSgv1EC3wcfQERadK-ReOsXucCH-Nk9dGL3Npzcm6X4Wl2p6s_R2f4AQ756qGHXFq9Lfjrg0bQ8Ohc_s3MUWYRAhkuQSAZvG1zndmifGgU0VwqnPfXTQhZ6_T4k_cF3n2rFF9SWJ4PYKqIdnGl69eQFQe_CUCzxAsYUvMzSwypHTE-_OnF3zQ96Cz-QxMSjz0xMea9KkVt2m00]--></g></svg>