<?xml version="1.0" encoding="us-ascii" standalone="no"?><svg xmlns="http://www.w3.org/2000/svg" xmlns:xlink="http://www.w3.org/1999/xlink" contentStyleType="text/css" height="369px" preserveAspectRatio="none" style="width:212px;height:369px;background:#FFFFFF;" version="1.1" viewBox="0 0 212 369" width="212px" zoomAndPan="magnify"><defs/><g><rect fill="#FFFFFF" height="272.9297" style="stroke:#181818;stroke-width:1.0;" width="10" x="163" y="48.6211"/><rect fill="none" height="227.6387" style="stroke:#000000;stroke-width:1.5;" width="202.5" x="3" y="86.9121"/><rect fill="none" height="98.5039" style="stroke:#000000;stroke-width:1.5;" width="192.5" x="3" y="209.0469"/><line style="stroke:#181818;stroke-width:0.5;stroke-dasharray:5.0,5.0;" x1="167.5" x2="167.5" y1="38.6211" y2="331.5508"/><rect fill="#E2E2F0" height="32.6211" rx="2.5" ry="2.5" style="stroke:#181818;stroke-width:0.5;" width="35" x="150.5" y="5"/><text fill="#000000" font-family="sans-serif" font-size="14" lengthAdjust="spacing" textLength="21" x="157.5" y="27.1074">MD</text><rect fill="#E2E2F0" height="32.6211" rx="2.5" ry="2.5" style="stroke:#181818;stroke-width:0.5;" width="35" x="150.5" y="330.5508"/><text fill="#000000" font-family="sans-serif" font-size="14" lengthAdjust="spacing" textLength="21" x="157.5" y="352.6582">MD</text><rect fill="#FFFFFF" height="272.9297" style="stroke:#181818;stroke-width:1.0;" width="10" x="163" y="48.6211"/><polygon fill="#181818" points="151,67.9121,161,71.9121,151,75.9121,155,71.9121" style="stroke:#181818;stroke-width:1.0;"/><line style="stroke:#181818;stroke-width:1.0;" x1="0" x2="157" y1="71.9121" y2="71.9121"/><text fill="#000000" font-family="sans-serif" font-size="13" font-weight="bold" lengthAdjust="spacing" textLength="7" x="7" y="66.6494">1</text><text fill="#000000" font-family="sans-serif" font-size="13" lengthAdjust="spacing" textLength="70" x="18" y="66.6494">GET /robots</text><path d="M3,86.9121 L64,86.9121 L64,96.2031 L54,106.2031 L3,106.2031 L3,86.9121 " fill="#EEEEEE" style="stroke:#000000;stroke-width:1.5;"/><rect fill="none" height="227.6387" style="stroke:#000000;stroke-width:1.5;" width="202.5" x="3" y="86.9121"/><text fill="#000000" font-family="sans-serif" font-size="13" font-weight="bold" lengthAdjust="spacing" textLength="16" x="18" y="101.9404">alt</text><text fill="#000000" font-family="sans-serif" font-size="11" font-weight="bold" lengthAdjust="spacing" textLength="82" x="79" y="100.7822">[unkown user]</text><polygon fill="#181818" points="11,125.4941,1,129.4941,11,133.4941,7,129.4941" style="stroke:#181818;stroke-width:1.0;"/><line style="stroke:#181818;stroke-width:1.0;stroke-dasharray:2.0,2.0;" x1="5" x2="162" y1="129.4941" y2="129.4941"/><text fill="#000000" font-family="sans-serif" font-size="13" font-weight="bold" lengthAdjust="spacing" textLength="7" x="17" y="124.2314">2</text><text fill="#000000" font-family="sans-serif" font-size="13" lengthAdjust="spacing" textLength="105" x="28" y="124.2314">401: Unauthorized</text><line style="stroke:#000000;stroke-width:1.0;stroke-dasharray:2.0,2.0;" x1="3" x2="205.5" y1="138.4941" y2="138.4941"/><text fill="#000000" font-family="sans-serif" font-size="11" font-weight="bold" lengthAdjust="spacing" textLength="117" x="8" y="150.3643">[user not authorized]</text><polygon fill="#181818" points="11,173.416,1,177.416,11,181.416,7,177.416" style="stroke:#181818;stroke-width:1.0;"/><line style="stroke:#181818;stroke-width:1.0;stroke-dasharray:2.0,2.0;" x1="5" x2="162" y1="177.416" y2="177.416"/><text fill="#000000" font-family="sans-serif" font-size="13" font-weight="bold" lengthAdjust="spacing" textLength="7" x="17" y="172.1533">3</text><text fill="#000000" font-family="sans-serif" font-size="13" lengthAdjust="spacing" textLength="86" x="28" y="172.1533">403: Forbidden</text><line style="stroke:#000000;stroke-width:1.0;stroke-dasharray:2.0,2.0;" x1="3" x2="205.5" y1="186.416" y2="186.416"/><text fill="#000000" font-family="sans-serif" font-size="11" font-weight="bold" lengthAdjust="spacing" textLength="96" x="8" y="198.2861">[user authorized]</text><path d="M3,209.0469 L64,209.0469 L64,218.3379 L54,228.3379 L3,228.3379 L3,209.0469 " fill="#EEEEEE" style="stroke:#000000;stroke-width:1.5;"/><rect fill="none" height="98.5039" style="stroke:#000000;stroke-width:1.5;" width="192.5" x="3" y="209.0469"/><text fill="#000000" font-family="sans-serif" font-size="13" font-weight="bold" lengthAdjust="spacing" textLength="16" x="18" y="224.0752">alt</text><text fill="#000000" font-family="sans-serif" font-size="11" font-weight="bold" lengthAdjust="spacing" textLength="101" x="79" y="222.917">[robots not found]</text><polygon fill="#181818" points="11,247.6289,1,251.6289,11,255.6289,7,251.6289" style="stroke:#181818;stroke-width:1.0;"/><line style="stroke:#181818;stroke-width:1.0;stroke-dasharray:2.0,2.0;" x1="5" x2="162" y1="251.6289" y2="251.6289"/><text fill="#000000" font-family="sans-serif" font-size="13" font-weight="bold" lengthAdjust="spacing" textLength="7" x="17" y="246.3662">4</text><text fill="#000000" font-family="sans-serif" font-size="13" lengthAdjust="spacing" textLength="84" x="28" y="246.3662">404: Not found</text><line style="stroke:#000000;stroke-width:1.0;stroke-dasharray:2.0,2.0;" x1="3" x2="195.5" y1="260.6289" y2="260.6289"/><text fill="#000000" font-family="sans-serif" font-size="11" font-weight="bold" lengthAdjust="spacing" textLength="73" x="8" y="272.499">[robots sent]</text><polygon fill="#181818" points="11,295.5508,1,299.5508,11,303.5508,7,299.5508" style="stroke:#181818;stroke-width:1.0;"/><line style="stroke:#181818;stroke-width:1.0;stroke-dasharray:2.0,2.0;" x1="5" x2="162" y1="299.5508" y2="299.5508"/><text fill="#000000" font-family="sans-serif" font-size="13" font-weight="bold" lengthAdjust="spacing" textLength="7" x="17" y="294.2881">5</text><text fill="#000000" font-family="sans-serif" font-size="13" lengthAdjust="spacing" textLength="126" x="28" y="294.2881">200: "OK" Successful</text><!--SRC=[RP0zZy8m38Rt_efNtIjwm1GX9Wu613SSJ4nfOqH4SL3Yt4dyUlg1e8XwYkNtUMn5Ht4SBmNv94ckseijxLMp8DqiKkY0YsackXJxfuMw5dKTiddJAAo-TnXvLpW9xK1NWiXdzy-8eTQYLuTPbZKKe33DlnJshAESdBStCiyaLO5Q5km40u5FrKHXwNnXZI4UyFGSoVF8xkPsnz55VkdVrLE5xLkarJxWG2o3t3ZF5TAVTOhVM9OKmZ5M7LrRNWz3_P-z0m00]--></g></svg>