<?xml version="1.0" encoding="us-ascii" standalone="no"?><svg xmlns="http://www.w3.org/2000/svg" xmlns:xlink="http://www.w3.org/1999/xlink" contentStyleType="text/css" height="406px" preserveAspectRatio="none" style="width:269px;height:406px;background:#FFFFFF;" version="1.1" viewBox="0 0 269 406" width="269px" zoomAndPan="magnify"><defs/><g><rect fill="#FFFFFF" height="249.6387" style="stroke:#181818;stroke-width:1.0;" width="10" x="163" y="90.5332"/><rect fill="none" height="227.6387" style="stroke:#000000;stroke-width:1.5;" width="259" x="3" y="105.5332"/><rect fill="none" height="98.5039" style="stroke:#000000;stroke-width:1.5;" width="249" x="3" y="227.668"/><line style="stroke:#181818;stroke-width:0.5;stroke-dasharray:5.0,5.0;" x1="168" x2="168" y1="57.2422" y2="350.1719"/><rect fill="#E2E2F0" height="51.2422" rx="2.5" ry="2.5" style="stroke:#181818;stroke-width:0.5;" width="148" x="94" y="5"/><text fill="#000000" font-family="sans-serif" font-size="14" lengthAdjust="spacing" textLength="60" x="138" y="27.1074">&#171;system&#187;</text><text fill="#000000" font-family="sans-serif" font-size="14" lengthAdjust="spacing" textLength="134" x="101" y="45.7285">System RobDroneGo</text><rect fill="#E2E2F0" height="51.2422" rx="2.5" ry="2.5" style="stroke:#181818;stroke-width:0.5;" width="148" x="94" y="349.1719"/><text fill="#000000" font-family="sans-serif" font-size="14" lengthAdjust="spacing" textLength="60" x="138" y="371.2793">&#171;system&#187;</text><text fill="#000000" font-family="sans-serif" font-size="14" lengthAdjust="spacing" textLength="134" x="101" y="389.9004">System RobDroneGo</text><rect fill="#FFFFFF" height="249.6387" style="stroke:#181818;stroke-width:1.0;" width="10" x="163" y="90.5332"/><polygon fill="#181818" points="151,86.5332,161,90.5332,151,94.5332,155,90.5332" style="stroke:#181818;stroke-width:1.0;"/><line style="stroke:#181818;stroke-width:1.0;" x1="0" x2="157" y1="90.5332" y2="90.5332"/><text fill="#000000" font-family="sans-serif" font-size="13" font-weight="bold" lengthAdjust="spacing" textLength="7" x="7" y="85.2705">1</text><text fill="#000000" font-family="sans-serif" font-size="13" lengthAdjust="spacing" textLength="70" x="18" y="85.2705">GET /robots</text><path d="M3,105.5332 L64,105.5332 L64,114.8242 L54,124.8242 L3,124.8242 L3,105.5332 " fill="#EEEEEE" style="stroke:#000000;stroke-width:1.5;"/><rect fill="none" height="227.6387" style="stroke:#000000;stroke-width:1.5;" width="259" x="3" y="105.5332"/><text fill="#000000" font-family="sans-serif" font-size="13" font-weight="bold" lengthAdjust="spacing" textLength="16" x="18" y="120.5615">alt</text><text fill="#000000" font-family="sans-serif" font-size="11" font-weight="bold" lengthAdjust="spacing" textLength="82" x="79" y="119.4033">[unkown user]</text><polygon fill="#181818" points="11,144.1152,1,148.1152,11,152.1152,7,148.1152" style="stroke:#181818;stroke-width:1.0;"/><line style="stroke:#181818;stroke-width:1.0;stroke-dasharray:2.0,2.0;" x1="5" x2="162" y1="148.1152" y2="148.1152"/><text fill="#000000" font-family="sans-serif" font-size="13" font-weight="bold" lengthAdjust="spacing" textLength="7" x="17" y="142.8525">2</text><text fill="#000000" font-family="sans-serif" font-size="13" lengthAdjust="spacing" textLength="105" x="28" y="142.8525">401: Unauthorized</text><line style="stroke:#000000;stroke-width:1.0;stroke-dasharray:2.0,2.0;" x1="3" x2="262" y1="157.1152" y2="157.1152"/><text fill="#000000" font-family="sans-serif" font-size="11" font-weight="bold" lengthAdjust="spacing" textLength="117" x="8" y="168.9854">[user not authorized]</text><polygon fill="#181818" points="11,192.0371,1,196.0371,11,200.0371,7,196.0371" style="stroke:#181818;stroke-width:1.0;"/><line style="stroke:#181818;stroke-width:1.0;stroke-dasharray:2.0,2.0;" x1="5" x2="162" y1="196.0371" y2="196.0371"/><text fill="#000000" font-family="sans-serif" font-size="13" font-weight="bold" lengthAdjust="spacing" textLength="7" x="17" y="190.7744">3</text><text fill="#000000" font-family="sans-serif" font-size="13" lengthAdjust="spacing" textLength="86" x="28" y="190.7744">403: Forbidden</text><line style="stroke:#000000;stroke-width:1.0;stroke-dasharray:2.0,2.0;" x1="3" x2="262" y1="205.0371" y2="205.0371"/><text fill="#000000" font-family="sans-serif" font-size="11" font-weight="bold" lengthAdjust="spacing" textLength="96" x="8" y="216.9072">[user authorized]</text><path d="M3,227.668 L64,227.668 L64,236.959 L54,246.959 L3,246.959 L3,227.668 " fill="#EEEEEE" style="stroke:#000000;stroke-width:1.5;"/><rect fill="none" height="98.5039" style="stroke:#000000;stroke-width:1.5;" width="249" x="3" y="227.668"/><text fill="#000000" font-family="sans-serif" font-size="13" font-weight="bold" lengthAdjust="spacing" textLength="16" x="18" y="242.6963">alt</text><text fill="#000000" font-family="sans-serif" font-size="11" font-weight="bold" lengthAdjust="spacing" textLength="101" x="79" y="241.5381">[robots not found]</text><polygon fill="#181818" points="11,266.25,1,270.25,11,274.25,7,270.25" style="stroke:#181818;stroke-width:1.0;"/><line style="stroke:#181818;stroke-width:1.0;stroke-dasharray:2.0,2.0;" x1="5" x2="162" y1="270.25" y2="270.25"/><text fill="#000000" font-family="sans-serif" font-size="13" font-weight="bold" lengthAdjust="spacing" textLength="7" x="17" y="264.9873">4</text><text fill="#000000" font-family="sans-serif" font-size="13" lengthAdjust="spacing" textLength="84" x="28" y="264.9873">404: Not found</text><line style="stroke:#000000;stroke-width:1.0;stroke-dasharray:2.0,2.0;" x1="3" x2="252" y1="279.25" y2="279.25"/><text fill="#000000" font-family="sans-serif" font-size="11" font-weight="bold" lengthAdjust="spacing" textLength="73" x="8" y="291.1201">[robots sent]</text><polygon fill="#181818" points="11,314.1719,1,318.1719,11,322.1719,7,318.1719" style="stroke:#181818;stroke-width:1.0;"/><line style="stroke:#181818;stroke-width:1.0;stroke-dasharray:2.0,2.0;" x1="5" x2="162" y1="318.1719" y2="318.1719"/><text fill="#000000" font-family="sans-serif" font-size="13" font-weight="bold" lengthAdjust="spacing" textLength="7" x="17" y="312.9092">5</text><text fill="#000000" font-family="sans-serif" font-size="13" lengthAdjust="spacing" textLength="126" x="28" y="312.9092">200: "OK" Successful</text><!--SRC=[XP2nJiCm48RtFCMlx141EbbH9g13fI9HcChY95TXaTvLzXa4Ju_ZCX2WS9Abq_dpzzksKONZlYDV5CN1UdMzErXMb4qJteBIlcqVUPCxt4btvOLfAILiGDfFXxPLEtK6o-jxd7dfHDCOgMolxiKg7S4y6HMHd-ML4KEAnBVQDbKrqJ1OrES63soZFebtxpJCO1e3PGLO52UW7yPBWnlndHi6uXEwBwePCTty-BQSk9F8_uGj3DQ_aZdiqnM8zI_DHLqRbBUh4flOznJ2BewPfoITra3pN_u0]--></g></svg>