<?xml version="1.0" encoding="us-ascii" standalone="no"?><svg xmlns="http://www.w3.org/2000/svg" xmlns:xlink="http://www.w3.org/1999/xlink" contentStyleType="text/css" height="1168px" preserveAspectRatio="none" style="width:1636px;height:1168px;background:#FFFFFF;" version="1.1" viewBox="0 0 1636 1168" width="1636px" zoomAndPan="magnify"><defs/><g><rect fill="#FFFFFF" height="970.7813" style="stroke:#181818;stroke-width:1.0;" width="10" x="78" y="91.4883"/><rect fill="#FFFFFF" height="29.3105" style="stroke:#181818;stroke-width:1.0;" width="10" x="447" y="128.1094"/><rect fill="#FFFFFF" height="875.5391" style="stroke:#181818;stroke-width:1.0;" width="10" x="447" y="186.7305"/><rect fill="#FFFFFF" height="846.2285" style="stroke:#181818;stroke-width:1.0;" width="10" x="563" y="216.041"/><rect fill="#FFFFFF" height="729.6309" style="stroke:#181818;stroke-width:1.0;" width="10" x="765" y="332.6387"/><rect fill="#FFFFFF" height="47.9766" style="stroke:#181818;stroke-width:1.0;" width="10" x="855" y="255.3516"/><rect fill="#FFFFFF" height="47.9766" style="stroke:#181818;stroke-width:1.0;" width="10" x="993" y="673.2324"/><rect fill="#FFFFFF" height="60.7988" style="stroke:#181818;stroke-width:1.0;" width="10" x="1134" y="371.9492"/><rect fill="#FFFFFF" height="600.2109" style="stroke:#181818;stroke-width:1.0;" width="10" x="1243.5" y="462.0586"/><rect fill="none" height="528.5898" style="stroke:#000000;stroke-width:1.5;" width="1377.5" x="10" y="541.6797"/><rect fill="none" height="104.5977" style="stroke:#000000;stroke-width:1.5;" width="358" x="729" y="624.6113"/><line style="stroke:#181818;stroke-width:0.5;stroke-dasharray:5.0,5.0;" x1="83" x2="83" y1="81.4883" y2="1087.2695"/><line style="stroke:#181818;stroke-width:0.5;stroke-dasharray:5.0,5.0;" x1="452" x2="452" y1="81.4883" y2="1087.2695"/><line style="stroke:#181818;stroke-width:0.5;stroke-dasharray:5.0,5.0;" x1="568" x2="568" y1="81.4883" y2="1087.2695"/><line style="stroke:#181818;stroke-width:0.5;stroke-dasharray:5.0,5.0;" x1="770" x2="770" y1="81.4883" y2="1087.2695"/><line style="stroke:#181818;stroke-width:0.5;stroke-dasharray:5.0,5.0;" x1="860" x2="860" y1="263.0293" y2="1087.2695"/><line style="stroke:#181818;stroke-width:0.5;stroke-dasharray:5.0,5.0;" x1="998" x2="998" y1="680.9102" y2="1087.2695"/><line style="stroke:#181818;stroke-width:0.5;stroke-dasharray:5.0,5.0;" x1="1139" x2="1139" y1="371.3828" y2="1087.2695"/><line style="stroke:#181818;stroke-width:0.5;stroke-dasharray:5.0,5.0;" x1="1248" x2="1248" y1="81.4883" y2="1087.2695"/><text fill="#000000" font-family="sans-serif" font-size="14" lengthAdjust="spacing" textLength="120" x="20" y="78.5352">Campus Manager</text><ellipse cx="83" cy="13.5" fill="#E2E2F0" rx="8" ry="8" style="stroke:#181818;stroke-width:0.5;"/><path d="M83,21.5 L83,48.5 M70,29.5 L96,29.5 M83,48.5 L70,63.5 M83,48.5 L96,63.5 " fill="none" style="stroke:#181818;stroke-width:0.5;"/><text fill="#000000" font-family="sans-serif" font-size="14" lengthAdjust="spacing" textLength="120" x="20" y="1099.8047">Campus Manager</text><ellipse cx="83" cy="1111.2578" fill="#E2E2F0" rx="8" ry="8" style="stroke:#181818;stroke-width:0.5;"/><path d="M83,1119.2578 L83,1146.2578 M70,1127.2578 L96,1127.2578 M83,1146.2578 L70,1161.2578 M83,1146.2578 L96,1161.2578 " fill="none" style="stroke:#181818;stroke-width:0.5;"/><rect fill="#E2E2F0" height="30.4883" rx="2.5" ry="2.5" style="stroke:#181818;stroke-width:0.5;" width="128" x="388" y="50"/><text fill="#000000" font-family="sans-serif" font-size="14" lengthAdjust="spacing" textLength="114" x="395" y="70.5352">HTML + CSS + JS</text><rect fill="#E2E2F0" height="30.4883" rx="2.5" ry="2.5" style="stroke:#181818;stroke-width:0.5;" width="128" x="388" y="1086.2695"/><text fill="#000000" font-family="sans-serif" font-size="14" lengthAdjust="spacing" textLength="114" x="395" y="1106.8047">HTML + CSS + JS</text><rect fill="#E2E2F0" height="30.4883" rx="2.5" ry="2.5" style="stroke:#181818;stroke-width:0.5;" width="84" x="526" y="50"/><text fill="#000000" font-family="sans-serif" font-size="14" lengthAdjust="spacing" textLength="70" x="533" y="70.5352">Controller</text><rect fill="#E2E2F0" height="30.4883" rx="2.5" ry="2.5" style="stroke:#181818;stroke-width:0.5;" width="84" x="526" y="1086.2695"/><text fill="#000000" font-family="sans-serif" font-size="14" lengthAdjust="spacing" textLength="70" x="533" y="1106.8047">Controller</text><rect fill="#E2E2F0" height="30.4883" rx="2.5" ry="2.5" style="stroke:#181818;stroke-width:0.5;" width="62" x="739" y="50"/><text fill="#000000" font-family="sans-serif" font-size="14" lengthAdjust="spacing" textLength="48" x="746" y="70.5352">Service</text><rect fill="#E2E2F0" height="30.4883" rx="2.5" ry="2.5" style="stroke:#181818;stroke-width:0.5;" width="62" x="739" y="1086.2695"/><text fill="#000000" font-family="sans-serif" font-size="14" lengthAdjust="spacing" textLength="48" x="746" y="1106.8047">Service</text><rect fill="#E2E2F0" height="46.9766" rx="2.5" ry="2.5" style="stroke:#181818;stroke-width:0.5;" width="98" x="811" y="1086.2695"/><text fill="#000000" font-family="sans-serif" font-size="14" lengthAdjust="spacing" textLength="27" x="846.5" y="1106.8047">dto:</text><text fill="#000000" font-family="sans-serif" font-size="14" lengthAdjust="spacing" textLength="84" x="818" y="1123.293">MinMaxDTO</text><rect fill="#E2E2F0" height="46.9766" rx="2.5" ry="2.5" style="stroke:#181818;stroke-width:0.5;" width="158" x="919" y="1086.2695"/><text fill="#000000" font-family="sans-serif" font-size="14" lengthAdjust="spacing" textLength="27" x="984.5" y="1106.8047">dto:</text><text fill="#000000" font-family="sans-serif" font-size="14" lengthAdjust="spacing" textLength="144" x="926" y="1123.293">BuildingByFloorsDTO</text><rect fill="#E2E2F0" height="30.4883" rx="2.5" ry="2.5" style="stroke:#181818;stroke-width:0.5;" width="104" x="1087" y="1086.2695"/><text fill="#000000" font-family="sans-serif" font-size="14" lengthAdjust="spacing" textLength="90" x="1094" y="1106.8047">HTTP Params</text><rect fill="#E2E2F0" height="30.4883" rx="2.5" ry="2.5" style="stroke:#181818;stroke-width:0.5;" width="95" x="1201" y="50"/><text fill="#000000" font-family="sans-serif" font-size="14" lengthAdjust="spacing" textLength="81" x="1208" y="70.5352">HTTP Driver</text><rect fill="#E2E2F0" height="30.4883" rx="2.5" ry="2.5" style="stroke:#181818;stroke-width:0.5;" width="95" x="1201" y="1086.2695"/><text fill="#000000" font-family="sans-serif" font-size="14" lengthAdjust="spacing" textLength="81" x="1208" y="1106.8047">HTTP Driver</text><rect fill="#FFFFFF" height="970.7813" style="stroke:#181818;stroke-width:1.0;" width="10" x="78" y="91.4883"/><rect fill="#FFFFFF" height="29.3105" style="stroke:#181818;stroke-width:1.0;" width="10" x="447" y="128.1094"/><rect fill="#FFFFFF" height="875.5391" style="stroke:#181818;stroke-width:1.0;" width="10" x="447" y="186.7305"/><rect fill="#FFFFFF" height="846.2285" style="stroke:#181818;stroke-width:1.0;" width="10" x="563" y="216.041"/><rect fill="#FFFFFF" height="729.6309" style="stroke:#181818;stroke-width:1.0;" width="10" x="765" y="332.6387"/><rect fill="#FFFFFF" height="47.9766" style="stroke:#181818;stroke-width:1.0;" width="10" x="855" y="255.3516"/><rect fill="#FFFFFF" height="47.9766" style="stroke:#181818;stroke-width:1.0;" width="10" x="993" y="673.2324"/><rect fill="#FFFFFF" height="60.7988" style="stroke:#181818;stroke-width:1.0;" width="10" x="1134" y="371.9492"/><rect fill="#FFFFFF" height="600.2109" style="stroke:#181818;stroke-width:1.0;" width="10" x="1243.5" y="462.0586"/><polygon fill="#181818" points="435,124.1094,445,128.1094,435,132.1094,439,128.1094" style="stroke:#181818;stroke-width:1.0;"/><line style="stroke:#181818;stroke-width:1.0;" x1="88" x2="441" y1="128.1094" y2="128.1094"/><text fill="#000000" font-family="sans-serif" font-size="13" font-weight="bold" lengthAdjust="spacing" textLength="9" x="95" y="115.7119">1</text><text fill="#000000" font-family="sans-serif" font-size="13" lengthAdjust="spacing" textLength="272" x="108" y="108.0566">wants to list buildings between a minimum</text><text fill="#000000" font-family="sans-serif" font-size="13" lengthAdjust="spacing" textLength="200" x="108" y="123.3672">and maximum number of floors</text><polygon fill="#181818" points="99,153.4199,89,157.4199,99,161.4199,95,157.4199" style="stroke:#181818;stroke-width:1.0;"/><line style="stroke:#181818;stroke-width:1.0;stroke-dasharray:2.0,2.0;" x1="93" x2="451" y1="157.4199" y2="157.4199"/><text fill="#000000" font-family="sans-serif" font-size="13" font-weight="bold" lengthAdjust="spacing" textLength="9" x="105" y="152.6777">2</text><text fill="#000000" font-family="sans-serif" font-size="13" lengthAdjust="spacing" textLength="322" x="118" y="152.6777">requests minimum and maximum number of floors</text><polygon fill="#181818" points="435,182.7305,445,186.7305,435,190.7305,439,186.7305" style="stroke:#181818;stroke-width:1.0;"/><line style="stroke:#181818;stroke-width:1.0;" x1="88" x2="441" y1="186.7305" y2="186.7305"/><text fill="#000000" font-family="sans-serif" font-size="13" font-weight="bold" lengthAdjust="spacing" textLength="9" x="95" y="181.9883">3</text><text fill="#000000" font-family="sans-serif" font-size="13" lengthAdjust="spacing" textLength="322" x="108" y="181.9883">provides minimum and maximum number of floors</text><polygon fill="#181818" points="551,212.041,561,216.041,551,220.041,555,216.041" style="stroke:#181818;stroke-width:1.0;"/><line style="stroke:#181818;stroke-width:1.0;" x1="457" x2="557" y1="216.041" y2="216.041"/><text fill="#000000" font-family="sans-serif" font-size="13" font-weight="bold" lengthAdjust="spacing" textLength="9" x="464" y="211.2988">4</text><text fill="#000000" font-family="sans-serif" font-size="13" lengthAdjust="spacing" textLength="68" x="477" y="211.2988">onSubmit()</text><polygon fill="#181818" points="799,241.3516,809,245.3516,799,249.3516,803,245.3516" style="stroke:#181818;stroke-width:1.0;"/><line style="stroke:#181818;stroke-width:1.0;stroke-dasharray:2.0,2.0;" x1="573" x2="805" y1="245.3516" y2="245.3516"/><text fill="#000000" font-family="sans-serif" font-size="13" font-weight="bold" lengthAdjust="spacing" textLength="9" x="580" y="240.6094">5</text><text fill="#000000" font-family="sans-serif" font-size="13" lengthAdjust="spacing" textLength="46" x="593" y="240.6094">create()</text><rect fill="#E2E2F0" height="46.9766" rx="2.5" ry="2.5" style="stroke:#181818;stroke-width:0.5;" width="98" x="811" y="224.041"/><text fill="#000000" font-family="sans-serif" font-size="14" lengthAdjust="spacing" textLength="27" x="846.5" y="244.5762">dto:</text><text fill="#000000" font-family="sans-serif" font-size="14" lengthAdjust="spacing" textLength="84" x="818" y="261.0645">MinMaxDTO</text><polygon fill="#181818" points="584,299.3281,574,303.3281,584,307.3281,580,303.3281" style="stroke:#181818;stroke-width:1.0;"/><line style="stroke:#181818;stroke-width:1.0;stroke-dasharray:2.0,2.0;" x1="578" x2="859" y1="303.3281" y2="303.3281"/><text fill="#000000" font-family="sans-serif" font-size="13" font-weight="bold" lengthAdjust="spacing" textLength="9" x="590" y="298.5859">6</text><text fill="#000000" font-family="sans-serif" font-size="13" lengthAdjust="spacing" textLength="21" x="603" y="298.5859">dto</text><polygon fill="#181818" points="753,328.6387,763,332.6387,753,336.6387,757,332.6387" style="stroke:#181818;stroke-width:1.0;"/><line style="stroke:#181818;stroke-width:1.0;" x1="573" x2="759" y1="332.6387" y2="332.6387"/><text fill="#000000" font-family="sans-serif" font-size="13" font-weight="bold" lengthAdjust="spacing" textLength="9" x="580" y="327.8965">7</text><text fill="#000000" font-family="sans-serif" font-size="13" lengthAdjust="spacing" textLength="160" x="593" y="327.8965">getBuildingsByFloors(dto)</text><polygon fill="#181818" points="1075,357.9492,1085,361.9492,1075,365.9492,1079,361.9492" style="stroke:#181818;stroke-width:1.0;"/><line style="stroke:#181818;stroke-width:1.0;stroke-dasharray:2.0,2.0;" x1="775" x2="1081" y1="361.9492" y2="361.9492"/><text fill="#000000" font-family="sans-serif" font-size="13" font-weight="bold" lengthAdjust="spacing" textLength="9" x="782" y="357.207">8</text><text fill="#000000" font-family="sans-serif" font-size="13" lengthAdjust="spacing" textLength="46" x="795" y="357.207">create()</text><rect fill="#E2E2F0" height="30.4883" rx="2.5" ry="2.5" style="stroke:#181818;stroke-width:0.5;" width="104" x="1087" y="340.6387"/><text fill="#000000" font-family="sans-serif" font-size="14" lengthAdjust="spacing" textLength="90" x="1094" y="361.1738">HTTP Params</text><polygon fill="#181818" points="1122,399.4375,1132,403.4375,1122,407.4375,1126,403.4375" style="stroke:#181818;stroke-width:1.0;"/><line style="stroke:#181818;stroke-width:1.0;" x1="775" x2="1128" y1="403.4375" y2="403.4375"/><text fill="#000000" font-family="sans-serif" font-size="13" font-weight="bold" lengthAdjust="spacing" textLength="9" x="782" y="398.6953">9</text><text fill="#000000" font-family="sans-serif" font-size="13" lengthAdjust="spacing" textLength="90" x="795" y="398.6953">set(minFloors)</text><polygon fill="#181818" points="1127,428.748,1137,432.748,1127,436.748,1131,432.748" style="stroke:#181818;stroke-width:1.0;"/><line style="stroke:#181818;stroke-width:1.0;" x1="775" x2="1133" y1="432.748" y2="432.748"/><text fill="#000000" font-family="sans-serif" font-size="13" font-weight="bold" lengthAdjust="spacing" textLength="18" x="782" y="428.0059">10</text><text fill="#000000" font-family="sans-serif" font-size="13" lengthAdjust="spacing" textLength="93" x="804" y="428.0059">set(maxFloors)</text><polygon fill="#181818" points="1231.5,458.0586,1241.5,462.0586,1231.5,466.0586,1235.5,462.0586" style="stroke:#181818;stroke-width:1.0;"/><line style="stroke:#181818;stroke-width:1.0;" x1="775" x2="1237.5" y1="462.0586" y2="462.0586"/><text fill="#000000" font-family="sans-serif" font-size="13" font-weight="bold" lengthAdjust="spacing" textLength="18" x="782" y="457.3164">11</text><text fill="#000000" font-family="sans-serif" font-size="13" lengthAdjust="spacing" textLength="162" x="804" y="457.3164">get({baseURL}/buildings/)</text><path d="M1258,475.0586 L1258,500.0586 L1442,500.0586 L1442,485.0586 L1432,475.0586 L1258,475.0586 " fill="#FEFFDD" style="stroke:#181818;stroke-width:0.5;"/><path d="M1432,475.0586 L1432,485.0586 L1442,485.0586 L1432,475.0586 " fill="#FEFFDD" style="stroke:#181818;stroke-width:0.5;"/><text fill="#000000" font-family="sans-serif" font-size="13" lengthAdjust="spacing" textLength="163" x="1264" y="492.627">see us180 documentation</text><polygon fill="#181818" points="1618.5,522.6797,1628.5,526.6797,1618.5,530.6797,1622.5,526.6797" style="stroke:#181818;stroke-width:1.0;"/><line style="stroke:#181818;stroke-width:1.0;" x1="1253.5" x2="1624.5" y1="526.6797" y2="526.6797"/><text fill="#000000" font-family="sans-serif" font-size="13" font-weight="bold" lengthAdjust="spacing" textLength="18" x="1260.5" y="521.9375">12</text><text fill="#000000" font-family="sans-serif" font-size="13" lengthAdjust="spacing" textLength="331" x="1282.5" y="521.9375">GET /buildings/?minFloors={min}&amp;maxFloors={max}</text><path d="M10,541.6797 L72,541.6797 L72,548.9902 L62,558.9902 L10,558.9902 L10,541.6797 " fill="#EEEEEE" style="stroke:#000000;stroke-width:1.5;"/><rect fill="none" height="528.5898" style="stroke:#000000;stroke-width:1.5;" width="1377.5" x="10" y="541.6797"/><text fill="#000000" font-family="sans-serif" font-size="13" font-weight="bold" lengthAdjust="spacing" textLength="17" x="25" y="555.248">alt</text><text fill="#000000" font-family="sans-serif" font-size="11" font-weight="bold" lengthAdjust="spacing" textLength="51" x="87" y="554.3145">[success]</text><polygon fill="#181818" points="1264.5,576.3008,1254.5,580.3008,1264.5,584.3008,1260.5,580.3008" style="stroke:#181818;stroke-width:1.0;"/><line style="stroke:#181818;stroke-width:1.0;stroke-dasharray:2.0,2.0;" x1="1258.5" x2="1629.5" y1="580.3008" y2="580.3008"/><text fill="#000000" font-family="sans-serif" font-size="13" font-weight="bold" lengthAdjust="spacing" textLength="18" x="1270.5" y="575.5586">13</text><text fill="#000000" font-family="sans-serif" font-size="13" lengthAdjust="spacing" textLength="91" x="1292.5" y="575.5586">200: buildings</text><polygon fill="#181818" points="786,605.6113,776,609.6113,786,613.6113,782,609.6113" style="stroke:#181818;stroke-width:1.0;"/><line style="stroke:#181818;stroke-width:1.0;stroke-dasharray:2.0,2.0;" x1="780" x2="1242.5" y1="609.6113" y2="609.6113"/><text fill="#000000" font-family="sans-serif" font-size="13" font-weight="bold" lengthAdjust="spacing" textLength="18" x="792" y="604.8691">14</text><text fill="#000000" font-family="sans-serif" font-size="13" lengthAdjust="spacing" textLength="68" x="814" y="604.8691">observable</text><path d="M729,624.6113 L803,624.6113 L803,631.9219 L793,641.9219 L729,641.9219 L729,624.6113 " fill="#EEEEEE" style="stroke:#000000;stroke-width:1.5;"/><rect fill="none" height="104.5977" style="stroke:#000000;stroke-width:1.5;" width="358" x="729" y="624.6113"/><text fill="#000000" font-family="sans-serif" font-size="13" font-weight="bold" lengthAdjust="spacing" textLength="29" x="744" y="638.1797">loop</text><text fill="#000000" font-family="sans-serif" font-size="11" font-weight="bold" lengthAdjust="spacing" textLength="105" x="818" y="637.2461">[for each building]</text><polygon fill="#181818" points="907,659.2324,917,663.2324,907,667.2324,911,663.2324" style="stroke:#181818;stroke-width:1.0;"/><line style="stroke:#181818;stroke-width:1.0;stroke-dasharray:2.0,2.0;" x1="775" x2="913" y1="663.2324" y2="663.2324"/><text fill="#000000" font-family="sans-serif" font-size="13" font-weight="bold" lengthAdjust="spacing" textLength="18" x="782" y="658.4902">15</text><text fill="#000000" font-family="sans-serif" font-size="13" lengthAdjust="spacing" textLength="46" x="804" y="658.4902">create()</text><rect fill="#E2E2F0" height="46.9766" rx="2.5" ry="2.5" style="stroke:#181818;stroke-width:0.5;" width="158" x="919" y="641.9219"/><text fill="#000000" font-family="sans-serif" font-size="14" lengthAdjust="spacing" textLength="27" x="984.5" y="662.457">dto:</text><text fill="#000000" font-family="sans-serif" font-size="14" lengthAdjust="spacing" textLength="144" x="926" y="678.9453">BuildingByFloorsDTO</text><polygon fill="#181818" points="786,717.209,776,721.209,786,725.209,782,721.209" style="stroke:#181818;stroke-width:1.0;"/><line style="stroke:#181818;stroke-width:1.0;stroke-dasharray:2.0,2.0;" x1="780" x2="997" y1="721.209" y2="721.209"/><text fill="#000000" font-family="sans-serif" font-size="13" font-weight="bold" lengthAdjust="spacing" textLength="18" x="792" y="716.4668">16</text><text fill="#000000" font-family="sans-serif" font-size="13" lengthAdjust="spacing" textLength="21" x="814" y="716.4668">dto</text><polygon fill="#181818" points="584,753.5195,574,757.5195,584,761.5195,580,757.5195" style="stroke:#181818;stroke-width:1.0;"/><line style="stroke:#181818;stroke-width:1.0;stroke-dasharray:2.0,2.0;" x1="578" x2="764" y1="757.5195" y2="757.5195"/><text fill="#000000" font-family="sans-serif" font-size="13" font-weight="bold" lengthAdjust="spacing" textLength="18" x="590" y="752.7773">17</text><text fill="#000000" font-family="sans-serif" font-size="13" lengthAdjust="spacing" textLength="29" x="612" y="752.7773">dto[]</text><line style="stroke:#181818;stroke-width:1.0;stroke-dasharray:2.0,2.0;" x1="573" x2="615" y1="786.8301" y2="786.8301"/><line style="stroke:#181818;stroke-width:1.0;stroke-dasharray:2.0,2.0;" x1="615" x2="615" y1="786.8301" y2="799.8301"/><line style="stroke:#181818;stroke-width:1.0;stroke-dasharray:2.0,2.0;" x1="574" x2="615" y1="799.8301" y2="799.8301"/><polygon fill="#181818" points="584,795.8301,574,799.8301,584,803.8301,580,799.8301" style="stroke:#181818;stroke-width:1.0;"/><text fill="#000000" font-family="sans-serif" font-size="13" font-weight="bold" lengthAdjust="spacing" textLength="18" x="580" y="782.0879">18</text><text fill="#000000" font-family="sans-serif" font-size="13" lengthAdjust="spacing" textLength="106" x="602" y="782.0879">buildings = dto[]</text><polygon fill="#181818" points="468,825.1406,458,829.1406,468,833.1406,464,829.1406" style="stroke:#181818;stroke-width:1.0;"/><line style="stroke:#181818;stroke-width:1.0;stroke-dasharray:2.0,2.0;" x1="462" x2="562" y1="829.1406" y2="829.1406"/><text fill="#000000" font-family="sans-serif" font-size="13" font-weight="bold" lengthAdjust="spacing" textLength="18" x="474" y="824.3984">19</text><text fill="#000000" font-family="sans-serif" font-size="13" lengthAdjust="spacing" textLength="59" x="496" y="824.3984">buildings</text><polygon fill="#181818" points="99,854.4512,89,858.4512,99,862.4512,95,858.4512" style="stroke:#181818;stroke-width:1.0;"/><line style="stroke:#181818;stroke-width:1.0;stroke-dasharray:2.0,2.0;" x1="93" x2="446" y1="858.4512" y2="858.4512"/><text fill="#000000" font-family="sans-serif" font-size="13" font-weight="bold" lengthAdjust="spacing" textLength="18" x="105" y="853.709">20</text><text fill="#000000" font-family="sans-serif" font-size="13" lengthAdjust="spacing" textLength="90" x="127" y="853.709">lists buildings</text><line style="stroke:#000000;stroke-width:1.0;stroke-dasharray:2.0,2.0;" x1="10" x2="1387.5" y1="867.4512" y2="867.4512"/><text fill="#000000" font-family="sans-serif" font-size="11" font-weight="bold" lengthAdjust="spacing" textLength="128" x="15" y="878.0859">[building(s) not found]</text><polygon fill="#181818" points="1264.5,898.7168,1254.5,902.7168,1264.5,906.7168,1260.5,902.7168" style="stroke:#181818;stroke-width:1.0;"/><line style="stroke:#181818;stroke-width:1.0;stroke-dasharray:2.0,2.0;" x1="1258.5" x2="1629.5" y1="902.7168" y2="902.7168"/><text fill="#000000" font-family="sans-serif" font-size="13" font-weight="bold" lengthAdjust="spacing" textLength="18" x="1270.5" y="897.9746">21</text><text fill="#000000" font-family="sans-serif" font-size="13" lengthAdjust="spacing" textLength="62" x="1292.5" y="897.9746">404: error</text><polygon fill="#181818" points="786,928.0273,776,932.0273,786,936.0273,782,932.0273" style="stroke:#181818;stroke-width:1.0;"/><line style="stroke:#181818;stroke-width:1.0;stroke-dasharray:2.0,2.0;" x1="780" x2="1242.5" y1="932.0273" y2="932.0273"/><text fill="#000000" font-family="sans-serif" font-size="13" font-weight="bold" lengthAdjust="spacing" textLength="18" x="792" y="927.2852">22</text><text fill="#000000" font-family="sans-serif" font-size="13" lengthAdjust="spacing" textLength="68" x="814" y="927.2852">observable</text><polygon fill="#181818" points="584,957.3379,574,961.3379,584,965.3379,580,961.3379" style="stroke:#181818;stroke-width:1.0;"/><line style="stroke:#181818;stroke-width:1.0;stroke-dasharray:2.0,2.0;" x1="578" x2="764" y1="961.3379" y2="961.3379"/><text fill="#000000" font-family="sans-serif" font-size="13" font-weight="bold" lengthAdjust="spacing" textLength="18" x="590" y="956.5957">23</text><text fill="#000000" font-family="sans-serif" font-size="13" lengthAdjust="spacing" textLength="30" x="612" y="956.5957">error</text><line style="stroke:#181818;stroke-width:1.0;stroke-dasharray:2.0,2.0;" x1="573" x2="615" y1="990.6484" y2="990.6484"/><line style="stroke:#181818;stroke-width:1.0;stroke-dasharray:2.0,2.0;" x1="615" x2="615" y1="990.6484" y2="1003.6484"/><line style="stroke:#181818;stroke-width:1.0;stroke-dasharray:2.0,2.0;" x1="574" x2="615" y1="1003.6484" y2="1003.6484"/><polygon fill="#181818" points="584,999.6484,574,1003.6484,584,1007.6484,580,1003.6484" style="stroke:#181818;stroke-width:1.0;"/><text fill="#000000" font-family="sans-serif" font-size="13" font-weight="bold" lengthAdjust="spacing" textLength="18" x="580" y="985.9063">24</text><text fill="#000000" font-family="sans-serif" font-size="13" lengthAdjust="spacing" textLength="85" x="602" y="985.9063">buildings = []</text><path d="M312,977.8379 L312,1002.8379 L558,1002.8379 L558,987.8379 L548,977.8379 L312,977.8379 " fill="#FEFFDD" style="stroke:#181818;stroke-width:0.5;"/><path d="M548,977.8379 L548,987.8379 L558,987.8379 L548,977.8379 " fill="#FEFFDD" style="stroke:#181818;stroke-width:0.5;"/><text fill="#000000" font-family="sans-serif" font-size="13" lengthAdjust="spacing" textLength="225" x="318" y="995.4063">creates alert with the error message</text><polygon fill="#181818" points="468,1028.959,458,1032.959,468,1036.959,464,1032.959" style="stroke:#181818;stroke-width:1.0;"/><line style="stroke:#181818;stroke-width:1.0;stroke-dasharray:2.0,2.0;" x1="462" x2="562" y1="1032.959" y2="1032.959"/><text fill="#000000" font-family="sans-serif" font-size="13" font-weight="bold" lengthAdjust="spacing" textLength="18" x="474" y="1028.2168">25</text><text fill="#000000" font-family="sans-serif" font-size="13" lengthAdjust="spacing" textLength="59" x="496" y="1028.2168">buildings</text><polygon fill="#181818" points="94,1058.2695,84,1062.2695,94,1066.2695,90,1062.2695" style="stroke:#181818;stroke-width:1.0;"/><line style="stroke:#181818;stroke-width:1.0;stroke-dasharray:2.0,2.0;" x1="88" x2="451" y1="1062.2695" y2="1062.2695"/><text fill="#000000" font-family="sans-serif" font-size="13" font-weight="bold" lengthAdjust="spacing" textLength="18" x="100" y="1057.5273">26</text><text fill="#000000" font-family="sans-serif" font-size="13" lengthAdjust="spacing" textLength="164" x="122" y="1057.5273">alerts buildings not found</text><!--SRC=[jLPRRzem57xdLnpnC44dL3RrOK8haqftqLIqQh2djPgSv02M4Zkp7M2g-EyzTYwOB0JwK3z04f_lEv_FBM6PaI9B0bIT3WkDLD2Ti2JDD4oPO4jKNM0QCatRALE6Xpnbma3tstnw1szXCflHx_UPirfpt1nQJQGmIiPnGHCQ5HyQp52jUOXkLw_3myt8oD63c78nPTlR-GzdbFoXfqrcDncF8owMD_- -n58gNGAiULtw_1xkcMA9TXQfksomkLLyNIXV6PEw0F4rC-ZY0RJe7mPZTt0OmOQW6eo4c6i3GI58Gu1cWoY0GS85JxBaGJ0HGSAszWRoy8DSmC8fTyoLAnTKA9PpD22Frl485FxDK9FFWXTEqaPuIDnmYbJ9DO_m1QHjMiSkwKGhnImB4cvw_SgYmhcw06yvZ3sdI_V51U53XMJgeGyOyhA0sd9F7KyXecxaXIDdQ50njeL9s2MQiiPqMMGzmXnHPAkvhiSIMJLvnHq_rW5HKPxGi1nVIKTa6asFifPhwvyFOTjZ42z0XOxE4KRR8NcKUay1q_Zhvztkikg1ovO3kjvgqYeaxIg-N1bRSDRCwhNTz-x3428PPWaAmmoNeX7l90t6ZoJhw-SvU6e-LL6wVgBBtPig17JFjhj6EYSwDg2pC4IjZzfKhZyE1jRt- -5mj9y6fs63gkHae6a-iY36JYkCbAUmeDbDsLfLhbeXVZcsjbXZ5ChKDJLTqohRC3_MEIYly4wPeuZQmrEUSpy4VZ-s0ghnKo3se_pw9UXYe9wN-jfejwyGVGOKOusLMK_tRTDGAMGKatFhysfuDG9KIghNgCrQy4_xQGl-YSYxWH7ZmfIrhAbXKHdOSBC2iyBSFIJKllHjy_fPTDwzDBPanolu_mQYj-U_Lhp7rHkq_eBtxkr7Y-kLPm00]--></g></svg>