<?xml version="1.0" encoding="us-ascii" standalone="no"?><svg xmlns="http://www.w3.org/2000/svg" xmlns:xlink="http://www.w3.org/1999/xlink" contentStyleType="text/css" height="1414px" preserveAspectRatio="none" style="width:2173px;height:1414px;background:#FFFFFF;" version="1.1" viewBox="0 0 2173 1414" width="2173px" zoomAndPan="magnify"><defs/><g><!--cluster system--><g id="cluster_system"><path d="M8.5,6 L61.5,6 A3.75,3.75 0 0 1 64,8.5 L71,28.4883 L2163.5,28.4883 A2.5,2.5 0 0 1 2166,30.9883 L2166,1404.63 A2.5,2.5 0 0 1 2163.5,1407.13 L8.5,1407.13 A2.5,2.5 0 0 1 6,1404.63 L6,8.5 A2.5,2.5 0 0 1 8.5,6 " fill="none" style="stroke:#000000;stroke-width:1.5;"/><line style="stroke:#000000;stroke-width:1.5;" x1="6" x2="71" y1="28.4883" y2="28.4883"/><text fill="#000000" font-family="sans-serif" font-size="14" font-weight="bold" lengthAdjust="spacing" textLength="52" x="10" y="21.5352">system</text></g><!--cluster Infrastructure--><g id="cluster_Infrastructure"><path d="M1587.5,49 L1687.5,49 A3.75,3.75 0 0 1 1690,51.5 L1697,71.4883 L2067.5,71.4883 A2.5,2.5 0 0 1 2070,73.9883 L2070,212.5 A2.5,2.5 0 0 1 2067.5,215 L1587.5,215 A2.5,2.5 0 0 1 1585,212.5 L1585,51.5 A2.5,2.5 0 0 1 1587.5,49 " fill="none" style="stroke:#000000;stroke-width:1.5;"/><line style="stroke:#000000;stroke-width:1.5;" x1="1585" x2="1697" y1="71.4883" y2="71.4883"/><text fill="#000000" font-family="sans-serif" font-size="14" font-weight="bold" lengthAdjust="spacing" textLength="99" x="1589" y="64.5352">Infrastructure</text></g><!--cluster Routes--><g id="cluster_Routes"><path d="M1888.5,92 L1939.5,92 A3.75,3.75 0 0 1 1942,94.5 L1949,114.4883 L2043.5,114.4883 A2.5,2.5 0 0 1 2046,116.9883 L2046,188.5 A2.5,2.5 0 0 1 2043.5,191 L1888.5,191 A2.5,2.5 0 0 1 1886,188.5 L1886,94.5 A2.5,2.5 0 0 1 1888.5,92 " fill="none" style="stroke:#000000;stroke-width:1.5;"/><line style="stroke:#000000;stroke-width:1.5;" x1="1886" x2="1949" y1="114.4883" y2="114.4883"/><text fill="#000000" font-family="sans-serif" font-size="14" font-weight="bold" lengthAdjust="spacing" textLength="50" x="1890" y="107.5352">Routes</text></g><!--cluster Persistence--><g id="cluster_Persistence"><path d="M1611.5,92 L1694.5,92 A3.75,3.75 0 0 1 1697,94.5 L1704,114.4883 L1859.5,114.4883 A2.5,2.5 0 0 1 1862,116.9883 L1862,188.5 A2.5,2.5 0 0 1 1859.5,191 L1611.5,191 A2.5,2.5 0 0 1 1609,188.5 L1609,94.5 A2.5,2.5 0 0 1 1611.5,92 " fill="none" style="stroke:#000000;stroke-width:1.5;"/><line style="stroke:#000000;stroke-width:1.5;" x1="1609" x2="1704" y1="114.4883" y2="114.4883"/><text fill="#000000" font-family="sans-serif" font-size="14" font-weight="bold" lengthAdjust="spacing" textLength="82" x="1613" y="107.5352">Persistence</text></g><!--cluster Interface Adapters--><g id="cluster_Interface Adapters"><path d="M1382.5,313 L1515.5,313 A3.75,3.75 0 0 1 1518,315.5 L1525,335.4883 L2139.5,335.4883 A2.5,2.5 0 0 1 2142,337.9883 L2142,752.5 A2.5,2.5 0 0 1 2139.5,755 L1382.5,755 A2.5,2.5 0 0 1 1380,752.5 L1380,315.5 A2.5,2.5 0 0 1 1382.5,313 " fill="none" style="stroke:#000000;stroke-width:1.5;"/><line style="stroke:#000000;stroke-width:1.5;" x1="1380" x2="1525" y1="335.4883" y2="335.4883"/><text fill="#000000" font-family="sans-serif" font-size="14" font-weight="bold" lengthAdjust="spacing" textLength="132" x="1384" y="328.5352">Interface Adapters</text></g><!--cluster Controllers--><g id="cluster_Controllers"><path d="M1880.5,356 L1962.5,356 A3.75,3.75 0 0 1 1965,358.5 L1972,378.4883 L2115.5,378.4883 A2.5,2.5 0 0 1 2118,380.9883 L2118,728.5 A2.5,2.5 0 0 1 2115.5,731 L1880.5,731 A2.5,2.5 0 0 1 1878,728.5 L1878,358.5 A2.5,2.5 0 0 1 1880.5,356 " fill="none" style="stroke:#000000;stroke-width:1.5;"/><line style="stroke:#000000;stroke-width:1.5;" x1="1878" x2="1972" y1="378.4883" y2="378.4883"/><text fill="#000000" font-family="sans-serif" font-size="14" font-weight="bold" lengthAdjust="spacing" textLength="81" x="1882" y="371.5352">Controllers</text></g><!--cluster IControllers--><g id="cluster_IControllers"><path d="M1904.5,399 L1991.5,399 A3.75,3.75 0 0 1 1994,401.5 L2001,421.4883 L2091.5,421.4883 A2.5,2.5 0 0 1 2094,423.9883 L2094,495.5 A2.5,2.5 0 0 1 2091.5,498 L1904.5,498 A2.5,2.5 0 0 1 1902,495.5 L1902,401.5 A2.5,2.5 0 0 1 1904.5,399 " fill="none" style="stroke:#000000;stroke-width:1.5;"/><line style="stroke:#000000;stroke-width:1.5;" x1="1902" x2="2001" y1="421.4883" y2="421.4883"/><text fill="#000000" font-family="sans-serif" font-size="14" font-weight="bold" lengthAdjust="spacing" textLength="86" x="1906" y="414.5352">IControllers</text></g><!--cluster ImplControllers--><g id="cluster_ImplControllers"><path d="M1904.5,608 L2019.5,608 A3.75,3.75 0 0 1 2022,610.5 L2029,630.4883 L2089.5,630.4883 A2.5,2.5 0 0 1 2092,632.9883 L2092,704.5 A2.5,2.5 0 0 1 2089.5,707 L1904.5,707 A2.5,2.5 0 0 1 1902,704.5 L1902,610.5 A2.5,2.5 0 0 1 1904.5,608 " fill="none" style="stroke:#000000;stroke-width:1.5;"/><line style="stroke:#000000;stroke-width:1.5;" x1="1902" x2="2029" y1="630.4883" y2="630.4883"/><text fill="#000000" font-family="sans-serif" font-size="14" font-weight="bold" lengthAdjust="spacing" textLength="114" x="1906" y="623.5352">ImplControllers</text></g><!--cluster Repositories--><g id="cluster_Repositories"><path d="M1406.5,399 L1498.5,399 A3.75,3.75 0 0 1 1501,401.5 L1508,421.4883 L1851.5,421.4883 A2.5,2.5 0 0 1 1854,423.9883 L1854,495.5 A2.5,2.5 0 0 1 1851.5,498 L1406.5,498 A2.5,2.5 0 0 1 1404,495.5 L1404,401.5 A2.5,2.5 0 0 1 1406.5,399 " fill="none" style="stroke:#000000;stroke-width:1.5;"/><line style="stroke:#000000;stroke-width:1.5;" x1="1404" x2="1508" y1="421.4883" y2="421.4883"/><text fill="#000000" font-family="sans-serif" font-size="14" font-weight="bold" lengthAdjust="spacing" textLength="91" x="1408" y="414.5352">Repositories</text></g><!--cluster Application Services--><g id="cluster_Application Services"><path d="M800.5,522 L946.5,522 A3.75,3.75 0 0 1 949,524.5 L956,544.4883 L1353.5,544.4883 A2.5,2.5 0 0 1 1356,546.9883 L1356,1166.63 A2.5,2.5 0 0 1 1353.5,1169.13 L800.5,1169.13 A2.5,2.5 0 0 1 798,1166.63 L798,524.5 A2.5,2.5 0 0 1 800.5,522 " fill="none" style="stroke:#000000;stroke-width:1.5;"/><line style="stroke:#000000;stroke-width:1.5;" x1="798" x2="956" y1="544.4883" y2="544.4883"/><text fill="#000000" font-family="sans-serif" font-size="14" font-weight="bold" lengthAdjust="spacing" textLength="145" x="802" y="537.5352">Application Services</text></g><!--cluster App Services--><g id="cluster_App Services"><path d="M824.5,565 L916.5,565 A3.75,3.75 0 0 1 919,567.5 L926,587.4883 L1329.5,587.4883 A2.5,2.5 0 0 1 1332,589.9883 L1332,1142.63 A2.5,2.5 0 0 1 1329.5,1145.13 L824.5,1145.13 A2.5,2.5 0 0 1 822,1142.63 L822,567.5 A2.5,2.5 0 0 1 824.5,565 " fill="none" style="stroke:#000000;stroke-width:1.5;"/><line style="stroke:#000000;stroke-width:1.5;" x1="822" x2="926" y1="587.4883" y2="587.4883"/><text fill="#000000" font-family="sans-serif" font-size="14" font-weight="bold" lengthAdjust="spacing" textLength="91" x="826" y="580.5352">App Services</text></g><!--cluster IAppServices--><g id="cluster_IAppServices"><path d="M1070.5,1022.13 L1162.5,1022.13 A3.75,3.75 0 0 1 1165,1024.63 L1172,1044.6183 L1263.5,1044.6183 A2.5,2.5 0 0 1 1266,1047.1183 L1266,1118.63 A2.5,2.5 0 0 1 1263.5,1121.13 L1070.5,1121.13 A2.5,2.5 0 0 1 1068,1118.63 L1068,1024.63 A2.5,2.5 0 0 1 1070.5,1022.13 " fill="none" style="stroke:#000000;stroke-width:1.5;"/><line style="stroke:#000000;stroke-width:1.5;" x1="1068" x2="1172" y1="1044.6183" y2="1044.6183"/><text fill="#000000" font-family="sans-serif" font-size="14" font-weight="bold" lengthAdjust="spacing" textLength="91" x="1072" y="1037.6652">IAppServices</text></g><!--cluster ImplAppServices--><g id="cluster_ImplAppServices"><path d="M1012.5,876.38 L1132.5,876.38 A3.75,3.75 0 0 1 1135,878.88 L1142,898.8683 L1203.5,898.8683 A2.5,2.5 0 0 1 1206,901.3683 L1206,972.88 A2.5,2.5 0 0 1 1203.5,975.38 L1012.5,975.38 A2.5,2.5 0 0 1 1010,972.88 L1010,878.88 A2.5,2.5 0 0 1 1012.5,876.38 " fill="none" style="stroke:#000000;stroke-width:1.5;"/><line style="stroke:#000000;stroke-width:1.5;" x1="1010" x2="1142" y1="898.8683" y2="898.8683"/><text fill="#000000" font-family="sans-serif" font-size="14" font-weight="bold" lengthAdjust="spacing" textLength="119" x="1014" y="891.9152">ImplAppServices</text></g><!--cluster IRepositories--><g id="cluster_IRepositories"><path d="M848.5,608 L945.5,608 A3.75,3.75 0 0 1 948,610.5 L955,630.4883 L1305.5,630.4883 A2.5,2.5 0 0 1 1308,632.9883 L1308,704.5 A2.5,2.5 0 0 1 1305.5,707 L848.5,707 A2.5,2.5 0 0 1 846,704.5 L846,610.5 A2.5,2.5 0 0 1 848.5,608 " fill="none" style="stroke:#000000;stroke-width:1.5;"/><line style="stroke:#000000;stroke-width:1.5;" x1="846" x2="955" y1="630.4883" y2="630.4883"/><text fill="#000000" font-family="sans-serif" font-size="14" font-weight="bold" lengthAdjust="spacing" textLength="96" x="850" y="623.5352">IRepositories</text></g><!--cluster p_DTO--><g id="cluster_p_DTO"><path d="M1652.5,1022.13 L1686.5,1022.13 A3.75,3.75 0 0 1 1689,1024.63 L1696,1044.6183 L1801.5,1044.6183 A2.5,2.5 0 0 1 1804,1047.1183 L1804,1118.63 A2.5,2.5 0 0 1 1801.5,1121.13 L1652.5,1121.13 A2.5,2.5 0 0 1 1650,1118.63 L1650,1024.63 A2.5,2.5 0 0 1 1652.5,1022.13 " fill="none" style="stroke:#000000;stroke-width:1.5;"/><line style="stroke:#000000;stroke-width:1.5;" x1="1650" x2="1696" y1="1044.6183" y2="1044.6183"/><text fill="#000000" font-family="sans-serif" font-size="14" font-weight="bold" lengthAdjust="spacing" textLength="33" x="1654" y="1037.6652">DTO</text></g><!--cluster Entities/Core/Domain--><g id="cluster_Entities/Core/Domain"><path d="M32.5,779 L193.5,779 A3.75,3.75 0 0 1 196,781.5 L203,801.4883 L771.5,801.4883 A2.5,2.5 0 0 1 774,803.9883 L774,1380.63 A2.5,2.5 0 0 1 771.5,1383.13 L32.5,1383.13 A2.5,2.5 0 0 1 30,1380.63 L30,781.5 A2.5,2.5 0 0 1 32.5,779 " fill="none" style="stroke:#000000;stroke-width:1.5;"/><line style="stroke:#000000;stroke-width:1.5;" x1="30" x2="203" y1="801.4883" y2="801.4883"/><text fill="#000000" font-family="sans-serif" font-size="14" font-weight="bold" lengthAdjust="spacing" textLength="160" x="34" y="794.5352">Entities/Core/Domain</text></g><!--cluster Aggregates--><g id="cluster_Aggregates"><path d="M399.5,822 L481.5,822 A3.75,3.75 0 0 1 484,824.5 L491,844.4883 L704.5,844.4883 A2.5,2.5 0 0 1 707,846.9883 L707,1154.01 A2.5,2.5 0 0 1 704.5,1156.51 L399.5,1156.51 A2.5,2.5 0 0 1 397,1154.01 L397,824.5 A2.5,2.5 0 0 1 399.5,822 " fill="none" style="stroke:#000000;stroke-width:1.5;"/><line style="stroke:#000000;stroke-width:1.5;" x1="397" x2="491" y1="844.4883" y2="844.4883"/><text fill="#000000" font-family="sans-serif" font-size="14" font-weight="bold" lengthAdjust="spacing" textLength="81" x="401" y="837.5352">Aggregates</text></g><!--cluster a_elevator--><g id="cluster_a_elevator"><path d="M423.5,1010.75 L482.5,1010.75 A3.75,3.75 0 0 1 485,1013.25 L492,1033.2383 L536.5,1033.2383 A2.5,2.5 0 0 1 539,1035.7383 L539,1130.01 A2.5,2.5 0 0 1 536.5,1132.51 L423.5,1132.51 A2.5,2.5 0 0 1 421,1130.01 L421,1013.25 A2.5,2.5 0 0 1 423.5,1010.75 " fill="none" style="stroke:#000000;stroke-width:1.5;"/><line style="stroke:#000000;stroke-width:1.5;" x1="421" x2="492" y1="1033.2383" y2="1033.2383"/><text fill="#000000" font-family="sans-serif" font-size="14" font-weight="bold" lengthAdjust="spacing" textLength="58" x="425" y="1026.2852">Elevator</text></g><!--cluster a_building--><g id="cluster_a_building"><path d="M565.5,1010.75 L626.5,1010.75 A3.75,3.75 0 0 1 629,1013.25 L636,1033.2383 L680.5,1033.2383 A2.5,2.5 0 0 1 683,1035.7383 L683,1130.01 A2.5,2.5 0 0 1 680.5,1132.51 L565.5,1132.51 A2.5,2.5 0 0 1 563,1130.01 L563,1013.25 A2.5,2.5 0 0 1 565.5,1010.75 " fill="none" style="stroke:#000000;stroke-width:1.5;"/><line style="stroke:#000000;stroke-width:1.5;" x1="563" x2="636" y1="1033.2383" y2="1033.2383"/><text fill="#000000" font-family="sans-serif" font-size="14" font-weight="bold" lengthAdjust="spacing" textLength="60" x="567" y="1026.2852">Building</text></g><!--cluster a_floor--><g id="cluster_a_floor"><path d="M431.5,865 L469.5,865 A3.75,3.75 0 0 1 472,867.5 L479,887.4883 L528.5,887.4883 A2.5,2.5 0 0 1 531,889.9883 L531,984.25 A2.5,2.5 0 0 1 528.5,986.75 L431.5,986.75 A2.5,2.5 0 0 1 429,984.25 L429,867.5 A2.5,2.5 0 0 1 431.5,865 " fill="none" style="stroke:#000000;stroke-width:1.5;"/><line style="stroke:#000000;stroke-width:1.5;" x1="429" x2="479" y1="887.4883" y2="887.4883"/><text fill="#000000" font-family="sans-serif" font-size="14" font-weight="bold" lengthAdjust="spacing" textLength="37" x="433" y="880.5352">Floor</text></g><!--cluster Value Objects--><g id="cluster_Value Objects"><path d="M56.5,1193.13 L157.5,1193.13 A3.75,3.75 0 0 1 160,1195.63 L167,1215.6183 L747.5,1215.6183 A2.5,2.5 0 0 1 750,1218.1183 L750,1356.63 A2.5,2.5 0 0 1 747.5,1359.13 L56.5,1359.13 A2.5,2.5 0 0 1 54,1356.63 L54,1195.63 A2.5,2.5 0 0 1 56.5,1193.13 " fill="none" style="stroke:#000000;stroke-width:1.5;"/><line style="stroke:#000000;stroke-width:1.5;" x1="54" x2="167" y1="1215.6183" y2="1215.6183"/><text fill="#000000" font-family="sans-serif" font-size="14" font-weight="bold" lengthAdjust="spacing" textLength="100" x="58" y="1208.6652">Value Objects</text></g><!--cluster vo_elevator--><g id="cluster_vo_elevator"><path d="M80.5,1236.13 L139.5,1236.13 A3.75,3.75 0 0 1 142,1238.63 L149,1258.6183 L723.5,1258.6183 A2.5,2.5 0 0 1 726,1261.1183 L726,1332.63 A2.5,2.5 0 0 1 723.5,1335.13 L80.5,1335.13 A2.5,2.5 0 0 1 78,1332.63 L78,1238.63 A2.5,2.5 0 0 1 80.5,1236.13 " fill="none" style="stroke:#000000;stroke-width:1.5;"/><line style="stroke:#000000;stroke-width:1.5;" x1="78" x2="149" y1="1258.6183" y2="1258.6183"/><text fill="#000000" font-family="sans-serif" font-size="14" font-weight="bold" lengthAdjust="spacing" textLength="58" x="82" y="1251.6652">Elevator</text></g><!--class RouteElevator--><g id="elem_RouteElevator"><rect codeLine="16" fill="#F1F1F1" height="48" id="RouteElevator" rx="2.5" ry="2.5" style="stroke:#181818;stroke-width:0.5;" width="127" x="1902.5" y="127"/><ellipse cx="1917.5" cy="143" fill="#ADD1B2" rx="11" ry="11" style="stroke:#181818;stroke-width:1.0;"/><path d="M1919.9731,149.1431 Q1919.3921,149.4419 1918.7529,149.5913 Q1918.1138,149.7407 1917.4082,149.7407 Q1914.9014,149.7407 1913.5815,148.0889 Q1912.2617,146.437 1912.2617,143.3159 Q1912.2617,140.1865 1913.5815,138.5347 Q1914.9014,136.8828 1917.4082,136.8828 Q1918.1138,136.8828 1918.7612,137.0322 Q1919.4087,137.1816 1919.9731,137.4805 L1919.9731,140.2031 Q1919.3423,139.6221 1918.7488,139.3523 Q1918.1553,139.0825 1917.5244,139.0825 Q1916.1797,139.0825 1915.4949,140.1492 Q1914.8101,141.2158 1914.8101,143.3159 Q1914.8101,145.4077 1915.4949,146.4744 Q1916.1797,147.541 1917.5244,147.541 Q1918.1553,147.541 1918.7488,147.2712 Q1919.3423,147.0015 1919.9731,146.4204 Z " fill="#000000"/><text fill="#000000" font-family="sans-serif" font-size="14" lengthAdjust="spacing" textLength="95" x="1931.5" y="148.291">RouteElevator</text><line style="stroke:#181818;stroke-width:0.5;" x1="1903.5" x2="2028.5" y1="159" y2="159"/><line style="stroke:#181818;stroke-width:0.5;" x1="1903.5" x2="2028.5" y1="167" y2="167"/></g><!--class IDBDriver--><g id="elem_IDBDriver"><rect codeLine="20" fill="#F1F1F1" height="48" id="IDBDriver" rx="2.5" ry="2.5" style="stroke:#181818;stroke-width:0.5;" width="95" x="1751.5" y="127"/><ellipse cx="1766.5" cy="143" fill="#B4A7E5" rx="11" ry="11" style="stroke:#181818;stroke-width:1.0;"/><path d="M1762.9277,139.2651 L1762.9277,137.1069 L1770.3071,137.1069 L1770.3071,139.2651 L1767.8418,139.2651 L1767.8418,147.3418 L1770.3071,147.3418 L1770.3071,149.5 L1762.9277,149.5 L1762.9277,147.3418 L1765.3931,147.3418 L1765.3931,139.2651 Z " fill="#000000"/><text fill="#000000" font-family="sans-serif" font-size="14" font-style="italic" lengthAdjust="spacing" textLength="63" x="1780.5" y="148.291">IDBDriver</text><line style="stroke:#181818;stroke-width:0.5;" x1="1752.5" x2="1845.5" y1="159" y2="159"/><line style="stroke:#181818;stroke-width:0.5;" x1="1752.5" x2="1845.5" y1="167" y2="167"/></g><!--class DBDriver--><g id="elem_DBDriver"><rect codeLine="21" fill="#F1F1F1" height="48" id="DBDriver" rx="2.5" ry="2.5" style="stroke:#181818;stroke-width:0.5;" width="91" x="1625.5" y="127"/><ellipse cx="1640.5" cy="143" fill="#ADD1B2" rx="11" ry="11" style="stroke:#181818;stroke-width:1.0;"/><path d="M1642.9731,149.1431 Q1642.3921,149.4419 1641.7529,149.5913 Q1641.1138,149.7407 1640.4082,149.7407 Q1637.9014,149.7407 1636.5815,148.0889 Q1635.2617,146.437 1635.2617,143.3159 Q1635.2617,140.1865 1636.5815,138.5347 Q1637.9014,136.8828 1640.4082,136.8828 Q1641.1138,136.8828 1641.7612,137.0322 Q1642.4087,137.1816 1642.9731,137.4805 L1642.9731,140.2031 Q1642.3423,139.6221 1641.7488,139.3523 Q1641.1553,139.0825 1640.5244,139.0825 Q1639.1797,139.0825 1638.4949,140.1492 Q1637.8101,141.2158 1637.8101,143.3159 Q1637.8101,145.4077 1638.4949,146.4744 Q1639.1797,147.541 1640.5244,147.541 Q1641.1553,147.541 1641.7488,147.2712 Q1642.3423,147.0015 1642.9731,146.4204 Z " fill="#000000"/><text fill="#000000" font-family="sans-serif" font-size="14" lengthAdjust="spacing" textLength="59" x="1654.5" y="148.291">DBDriver</text><line style="stroke:#181818;stroke-width:0.5;" x1="1626.5" x2="1715.5" y1="159" y2="159"/><line style="stroke:#181818;stroke-width:0.5;" x1="1626.5" x2="1715.5" y1="167" y2="167"/></g><!--class IControllerElevator--><g id="elem_IControllerElevator"><rect codeLine="30" fill="#F1F1F1" height="48" id="IControllerElevator" rx="2.5" ry="2.5" style="stroke:#181818;stroke-width:0.5;" width="161" x="1917.5" y="434"/><ellipse cx="1932.5" cy="450" fill="#B4A7E5" rx="11" ry="11" style="stroke:#181818;stroke-width:1.0;"/><path d="M1928.9277,446.2651 L1928.9277,444.1069 L1936.3071,444.1069 L1936.3071,446.2651 L1933.8418,446.2651 L1933.8418,454.3418 L1936.3071,454.3418 L1936.3071,456.5 L1928.9277,456.5 L1928.9277,454.3418 L1931.3931,454.3418 L1931.3931,446.2651 Z " fill="#000000"/><text fill="#000000" font-family="sans-serif" font-size="14" font-style="italic" lengthAdjust="spacing" textLength="129" x="1946.5" y="455.291">IControllerElevator</text><line style="stroke:#181818;stroke-width:0.5;" x1="1918.5" x2="2077.5" y1="466" y2="466"/><line style="stroke:#181818;stroke-width:0.5;" x1="1918.5" x2="2077.5" y1="474" y2="474"/></g><!--class ControllerElevator--><g id="elem_ControllerElevator"><rect codeLine="34" fill="#F1F1F1" height="48" id="ControllerElevator" rx="2.5" ry="2.5" style="stroke:#181818;stroke-width:0.5;" width="157" x="1918.5" y="643"/><ellipse cx="1933.5" cy="659" fill="#ADD1B2" rx="11" ry="11" style="stroke:#181818;stroke-width:1.0;"/><path d="M1935.9731,665.1431 Q1935.3921,665.4419 1934.7529,665.5913 Q1934.1138,665.7407 1933.4082,665.7407 Q1930.9014,665.7407 1929.5815,664.0889 Q1928.2617,662.437 1928.2617,659.3159 Q1928.2617,656.1865 1929.5815,654.5347 Q1930.9014,652.8828 1933.4082,652.8828 Q1934.1138,652.8828 1934.7612,653.0322 Q1935.4087,653.1816 1935.9731,653.4805 L1935.9731,656.2031 Q1935.3423,655.6221 1934.7488,655.3523 Q1934.1553,655.0825 1933.5244,655.0825 Q1932.1797,655.0825 1931.4949,656.1492 Q1930.8101,657.2158 1930.8101,659.3159 Q1930.8101,661.4077 1931.4949,662.4744 Q1932.1797,663.541 1933.5244,663.541 Q1934.1553,663.541 1934.7488,663.2712 Q1935.3423,663.0015 1935.9731,662.4204 Z " fill="#000000"/><text fill="#000000" font-family="sans-serif" font-size="14" lengthAdjust="spacing" textLength="125" x="1947.5" y="664.291">ControllerElevator</text><line style="stroke:#181818;stroke-width:0.5;" x1="1919.5" x2="2074.5" y1="675" y2="675"/><line style="stroke:#181818;stroke-width:0.5;" x1="1919.5" x2="2074.5" y1="683" y2="683"/></g><!--class RepoBuilding--><g id="elem_RepoBuilding"><rect codeLine="40" fill="#F1F1F1" height="48" id="RepoBuilding" rx="2.5" ry="2.5" style="stroke:#181818;stroke-width:0.5;" width="123" x="1715.5" y="434"/><ellipse cx="1730.5" cy="450" fill="#ADD1B2" rx="11" ry="11" style="stroke:#181818;stroke-width:1.0;"/><path d="M1732.9731,456.1431 Q1732.3921,456.4419 1731.7529,456.5913 Q1731.1138,456.7407 1730.4082,456.7407 Q1727.9014,456.7407 1726.5815,455.0889 Q1725.2617,453.437 1725.2617,450.3159 Q1725.2617,447.1865 1726.5815,445.5347 Q1727.9014,443.8828 1730.4082,443.8828 Q1731.1138,443.8828 1731.7612,444.0322 Q1732.4087,444.1816 1732.9731,444.4805 L1732.9731,447.2031 Q1732.3423,446.6221 1731.7488,446.3523 Q1731.1553,446.0825 1730.5244,446.0825 Q1729.1797,446.0825 1728.4949,447.1492 Q1727.8101,448.2158 1727.8101,450.3159 Q1727.8101,452.4077 1728.4949,453.4744 Q1729.1797,454.541 1730.5244,454.541 Q1731.1553,454.541 1731.7488,454.2712 Q1732.3423,454.0015 1732.9731,453.4204 Z " fill="#000000"/><text fill="#000000" font-family="sans-serif" font-size="14" lengthAdjust="spacing" textLength="91" x="1744.5" y="455.291">RepoBuilding</text><line style="stroke:#181818;stroke-width:0.5;" x1="1716.5" x2="1837.5" y1="466" y2="466"/><line style="stroke:#181818;stroke-width:0.5;" x1="1716.5" x2="1837.5" y1="474" y2="474"/></g><!--class RepoFloor--><g id="elem_RepoFloor"><rect codeLine="41" fill="#F1F1F1" height="48" id="RepoFloor" rx="2.5" ry="2.5" style="stroke:#181818;stroke-width:0.5;" width="103" x="1420.5" y="434"/><ellipse cx="1435.5" cy="450" fill="#ADD1B2" rx="11" ry="11" style="stroke:#181818;stroke-width:1.0;"/><path d="M1437.9731,456.1431 Q1437.3921,456.4419 1436.7529,456.5913 Q1436.1138,456.7407 1435.4082,456.7407 Q1432.9014,456.7407 1431.5815,455.0889 Q1430.2617,453.437 1430.2617,450.3159 Q1430.2617,447.1865 1431.5815,445.5347 Q1432.9014,443.8828 1435.4082,443.8828 Q1436.1138,443.8828 1436.7612,444.0322 Q1437.4087,444.1816 1437.9731,444.4805 L1437.9731,447.2031 Q1437.3423,446.6221 1436.7488,446.3523 Q1436.1553,446.0825 1435.5244,446.0825 Q1434.1797,446.0825 1433.4949,447.1492 Q1432.8101,448.2158 1432.8101,450.3159 Q1432.8101,452.4077 1433.4949,453.4744 Q1434.1797,454.541 1435.5244,454.541 Q1436.1553,454.541 1436.7488,454.2712 Q1437.3423,454.0015 1437.9731,453.4204 Z " fill="#000000"/><text fill="#000000" font-family="sans-serif" font-size="14" lengthAdjust="spacing" textLength="71" x="1449.5" y="455.291">RepoFloor</text><line style="stroke:#181818;stroke-width:0.5;" x1="1421.5" x2="1522.5" y1="466" y2="466"/><line style="stroke:#181818;stroke-width:0.5;" x1="1421.5" x2="1522.5" y1="474" y2="474"/></g><!--class RepoElevator--><g id="elem_RepoElevator"><rect codeLine="42" fill="#F1F1F1" height="48" id="RepoElevator" rx="2.5" ry="2.5" style="stroke:#181818;stroke-width:0.5;" width="122" x="1559" y="434"/><ellipse cx="1574" cy="450" fill="#ADD1B2" rx="11" ry="11" style="stroke:#181818;stroke-width:1.0;"/><path d="M1576.4731,456.1431 Q1575.8921,456.4419 1575.2529,456.5913 Q1574.6138,456.7407 1573.9082,456.7407 Q1571.4014,456.7407 1570.0815,455.0889 Q1568.7617,453.437 1568.7617,450.3159 Q1568.7617,447.1865 1570.0815,445.5347 Q1571.4014,443.8828 1573.9082,443.8828 Q1574.6138,443.8828 1575.2612,444.0322 Q1575.9087,444.1816 1576.4731,444.4805 L1576.4731,447.2031 Q1575.8423,446.6221 1575.2488,446.3523 Q1574.6553,446.0825 1574.0244,446.0825 Q1572.6797,446.0825 1571.9949,447.1492 Q1571.3101,448.2158 1571.3101,450.3159 Q1571.3101,452.4077 1571.9949,453.4744 Q1572.6797,454.541 1574.0244,454.541 Q1574.6553,454.541 1575.2488,454.2712 Q1575.8423,454.0015 1576.4731,453.4204 Z " fill="#000000"/><text fill="#000000" font-family="sans-serif" font-size="14" lengthAdjust="spacing" textLength="90" x="1588" y="455.291">RepoElevator</text><line style="stroke:#181818;stroke-width:0.5;" x1="1560" x2="1680" y1="466" y2="466"/><line style="stroke:#181818;stroke-width:0.5;" x1="1560" x2="1680" y1="474" y2="474"/></g><!--class IAppServiceElevator--><g id="elem_IAppServiceElevator"><rect codeLine="55" fill="#F1F1F1" height="48" id="IAppServiceElevator" rx="2.5" ry="2.5" style="stroke:#181818;stroke-width:0.5;" width="167" x="1083.5" y="1057.13"/><ellipse cx="1098.5" cy="1073.13" fill="#B4A7E5" rx="11" ry="11" style="stroke:#181818;stroke-width:1.0;"/><path d="M1094.9277,1069.3951 L1094.9277,1067.2369 L1102.3071,1067.2369 L1102.3071,1069.3951 L1099.8418,1069.3951 L1099.8418,1077.4718 L1102.3071,1077.4718 L1102.3071,1079.63 L1094.9277,1079.63 L1094.9277,1077.4718 L1097.3931,1077.4718 L1097.3931,1069.3951 Z " fill="#000000"/><text fill="#000000" font-family="sans-serif" font-size="14" font-style="italic" lengthAdjust="spacing" textLength="135" x="1112.5" y="1078.421">IAppServiceElevator</text><line style="stroke:#181818;stroke-width:0.5;" x1="1084.5" x2="1249.5" y1="1089.13" y2="1089.13"/><line style="stroke:#181818;stroke-width:0.5;" x1="1084.5" x2="1249.5" y1="1097.13" y2="1097.13"/></g><!--class AppServiceElevator--><g id="elem_AppServiceElevator"><rect codeLine="59" fill="#F1F1F1" height="48" id="AppServiceElevator" rx="2.5" ry="2.5" style="stroke:#181818;stroke-width:0.5;" width="163" x="1026.5" y="911.38"/><ellipse cx="1041.5" cy="927.38" fill="#ADD1B2" rx="11" ry="11" style="stroke:#181818;stroke-width:1.0;"/><path d="M1043.9731,933.5231 Q1043.3921,933.8219 1042.7529,933.9713 Q1042.1138,934.1207 1041.4082,934.1207 Q1038.9014,934.1207 1037.5815,932.4689 Q1036.2617,930.817 1036.2617,927.6959 Q1036.2617,924.5665 1037.5815,922.9147 Q1038.9014,921.2628 1041.4082,921.2628 Q1042.1138,921.2628 1042.7612,921.4122 Q1043.4087,921.5616 1043.9731,921.8605 L1043.9731,924.5831 Q1043.3423,924.0021 1042.7488,923.7323 Q1042.1553,923.4625 1041.5244,923.4625 Q1040.1797,923.4625 1039.4949,924.5292 Q1038.8101,925.5958 1038.8101,927.6959 Q1038.8101,929.7877 1039.4949,930.8544 Q1040.1797,931.921 1041.5244,931.921 Q1042.1553,931.921 1042.7488,931.6512 Q1043.3423,931.3815 1043.9731,930.8004 Z " fill="#000000"/><text fill="#000000" font-family="sans-serif" font-size="14" lengthAdjust="spacing" textLength="131" x="1055.5" y="932.671">AppServiceElevator</text><line style="stroke:#181818;stroke-width:0.5;" x1="1027.5" x2="1188.5" y1="943.38" y2="943.38"/><line style="stroke:#181818;stroke-width:0.5;" x1="1027.5" x2="1188.5" y1="951.38" y2="951.38"/></g><!--class IRepoBuilding--><g id="elem_IRepoBuilding"><rect codeLine="65" fill="#F1F1F1" height="48" id="IRepoBuilding" rx="2.5" ry="2.5" style="stroke:#181818;stroke-width:0.5;" width="127" x="1164.5" y="643"/><ellipse cx="1179.5" cy="659" fill="#B4A7E5" rx="11" ry="11" style="stroke:#181818;stroke-width:1.0;"/><path d="M1175.9277,655.2651 L1175.9277,653.1069 L1183.3071,653.1069 L1183.3071,655.2651 L1180.8418,655.2651 L1180.8418,663.3418 L1183.3071,663.3418 L1183.3071,665.5 L1175.9277,665.5 L1175.9277,663.3418 L1178.3931,663.3418 L1178.3931,655.2651 Z " fill="#000000"/><text fill="#000000" font-family="sans-serif" font-size="14" font-style="italic" lengthAdjust="spacing" textLength="95" x="1193.5" y="664.291">IRepoBuilding</text><line style="stroke:#181818;stroke-width:0.5;" x1="1165.5" x2="1290.5" y1="675" y2="675"/><line style="stroke:#181818;stroke-width:0.5;" x1="1165.5" x2="1290.5" y1="683" y2="683"/></g><!--class IRepoFloor--><g id="elem_IRepoFloor"><rect codeLine="66" fill="#F1F1F1" height="48" id="IRepoFloor" rx="2.5" ry="2.5" style="stroke:#181818;stroke-width:0.5;" width="107" x="861.5" y="643"/><ellipse cx="876.5" cy="659" fill="#B4A7E5" rx="11" ry="11" style="stroke:#181818;stroke-width:1.0;"/><path d="M872.9277,655.2651 L872.9277,653.1069 L880.3071,653.1069 L880.3071,655.2651 L877.8418,655.2651 L877.8418,663.3418 L880.3071,663.3418 L880.3071,665.5 L872.9277,665.5 L872.9277,663.3418 L875.3931,663.3418 L875.3931,655.2651 Z " fill="#000000"/><text fill="#000000" font-family="sans-serif" font-size="14" font-style="italic" lengthAdjust="spacing" textLength="75" x="890.5" y="664.291">IRepoFloor</text><line style="stroke:#181818;stroke-width:0.5;" x1="862.5" x2="967.5" y1="675" y2="675"/><line style="stroke:#181818;stroke-width:0.5;" x1="862.5" x2="967.5" y1="683" y2="683"/></g><!--class IRepoElevator--><g id="elem_IRepoElevator"><rect codeLine="67" fill="#F1F1F1" height="48" id="IRepoElevator" rx="2.5" ry="2.5" style="stroke:#181818;stroke-width:0.5;" width="126" x="1003" y="643"/><ellipse cx="1018" cy="659" fill="#B4A7E5" rx="11" ry="11" style="stroke:#181818;stroke-width:1.0;"/><path d="M1014.4277,655.2651 L1014.4277,653.1069 L1021.8071,653.1069 L1021.8071,655.2651 L1019.3418,655.2651 L1019.3418,663.3418 L1021.8071,663.3418 L1021.8071,665.5 L1014.4277,665.5 L1014.4277,663.3418 L1016.8931,663.3418 L1016.8931,655.2651 Z " fill="#000000"/><text fill="#000000" font-family="sans-serif" font-size="14" font-style="italic" lengthAdjust="spacing" textLength="94" x="1032" y="664.291">IRepoElevator</text><line style="stroke:#181818;stroke-width:0.5;" x1="1004" x2="1128" y1="675" y2="675"/><line style="stroke:#181818;stroke-width:0.5;" x1="1004" x2="1128" y1="683" y2="683"/></g><!--class IElevatorDTO--><g id="elem_IElevatorDTO"><rect codeLine="83" fill="#F1F1F1" height="48" id="IElevatorDTO" rx="2.5" ry="2.5" style="stroke:#181818;stroke-width:0.5;" width="121" x="1666.5" y="1057.13"/><ellipse cx="1681.5" cy="1073.13" fill="#B4A7E5" rx="11" ry="11" style="stroke:#181818;stroke-width:1.0;"/><path d="M1677.9277,1069.3951 L1677.9277,1067.2369 L1685.3071,1067.2369 L1685.3071,1069.3951 L1682.8418,1069.3951 L1682.8418,1077.4718 L1685.3071,1077.4718 L1685.3071,1079.63 L1677.9277,1079.63 L1677.9277,1077.4718 L1680.3931,1077.4718 L1680.3931,1069.3951 Z " fill="#000000"/><text fill="#000000" font-family="sans-serif" font-size="14" font-style="italic" lengthAdjust="spacing" textLength="89" x="1695.5" y="1078.421">IElevatorDTO</text><line style="stroke:#181818;stroke-width:0.5;" x1="1667.5" x2="1786.5" y1="1089.13" y2="1089.13"/><line style="stroke:#181818;stroke-width:0.5;" x1="1667.5" x2="1786.5" y1="1097.13" y2="1097.13"/></g><!--class Elevator--><g id="elem_Elevator"><rect codeLine="93" fill="#F1F1F1" height="70.7539" id="Elevator" rx="2.5" ry="2.5" style="stroke:#181818;stroke-width:0.5;" width="87" x="436.5" y="1045.75"/><ellipse cx="451.5" cy="1073.127" fill="#ADD1B2" rx="11" ry="11" style="stroke:#181818;stroke-width:1.0;"/><path d="M455.1143,1079.627 L447.3945,1079.627 L447.3945,1067.2339 L455.1143,1067.2339 L455.1143,1069.3921 L449.8433,1069.3921 L449.8433,1072.0649 L454.6162,1072.0649 L454.6162,1074.2231 L449.8433,1074.2231 L449.8433,1077.4688 L455.1143,1077.4688 Z " fill="#000000"/><text fill="#000000" font-family="sans-serif" font-size="12" font-style="italic" lengthAdjust="spacing" textLength="35" x="475.5" y="1062.3516">&#171;root&#187;</text><text fill="#000000" font-family="sans-serif" font-size="12" font-style="italic" lengthAdjust="spacing" textLength="43" x="471.5" y="1076.4844">&#171;entity&#187;</text><text fill="#000000" font-family="sans-serif" font-size="14" lengthAdjust="spacing" textLength="55" x="465.5" y="1092.5508">Elevator</text><line style="stroke:#181818;stroke-width:0.5;" x1="437.5" x2="522.5" y1="1100.5039" y2="1100.5039"/><line style="stroke:#181818;stroke-width:0.5;" x1="437.5" x2="522.5" y1="1108.5039" y2="1108.5039"/></g><!--class Building--><g id="elem_Building"><rect codeLine="97" fill="#F1F1F1" height="70.7539" id="Building" rx="2.5" ry="2.5" style="stroke:#181818;stroke-width:0.5;" width="88" x="579" y="1045.75"/><ellipse cx="594" cy="1073.127" fill="#ADD1B2" rx="11" ry="11" style="stroke:#181818;stroke-width:1.0;"/><path d="M597.6143,1079.627 L589.8945,1079.627 L589.8945,1067.2339 L597.6143,1067.2339 L597.6143,1069.3921 L592.3433,1069.3921 L592.3433,1072.0649 L597.1162,1072.0649 L597.1162,1074.2231 L592.3433,1074.2231 L592.3433,1077.4688 L597.6143,1077.4688 Z " fill="#000000"/><text fill="#000000" font-family="sans-serif" font-size="12" font-style="italic" lengthAdjust="spacing" textLength="35" x="618.5" y="1062.3516">&#171;root&#187;</text><text fill="#000000" font-family="sans-serif" font-size="12" font-style="italic" lengthAdjust="spacing" textLength="43" x="614.5" y="1076.4844">&#171;entity&#187;</text><text fill="#000000" font-family="sans-serif" font-size="14" lengthAdjust="spacing" textLength="56" x="608" y="1092.5508">Building</text><line style="stroke:#181818;stroke-width:0.5;" x1="580" x2="666" y1="1100.5039" y2="1100.5039"/><line style="stroke:#181818;stroke-width:0.5;" x1="580" x2="666" y1="1108.5039" y2="1108.5039"/></g><!--class Floor--><g id="elem_Floor"><rect codeLine="101" fill="#F1F1F1" height="70.7539" id="Floor" rx="2.5" ry="2.5" style="stroke:#181818;stroke-width:0.5;" width="71" x="444.5" y="900"/><ellipse cx="459.5" cy="927.377" fill="#ADD1B2" rx="11" ry="11" style="stroke:#181818;stroke-width:1.0;"/><path d="M463.1143,933.877 L455.3945,933.877 L455.3945,921.4839 L463.1143,921.4839 L463.1143,923.6421 L457.8433,923.6421 L457.8433,926.3149 L462.6162,926.3149 L462.6162,928.4731 L457.8433,928.4731 L457.8433,931.7188 L463.1143,931.7188 Z " fill="#000000"/><text fill="#000000" font-family="sans-serif" font-size="12" font-style="italic" lengthAdjust="spacing" textLength="35" x="475.5" y="916.6016">&#171;root&#187;</text><text fill="#000000" font-family="sans-serif" font-size="12" font-style="italic" lengthAdjust="spacing" textLength="43" x="471.5" y="930.7344">&#171;entity&#187;</text><text fill="#000000" font-family="sans-serif" font-size="14" lengthAdjust="spacing" textLength="36" x="475" y="946.8008">Floor</text><line style="stroke:#181818;stroke-width:0.5;" x1="445.5" x2="514.5" y1="954.7539" y2="954.7539"/><line style="stroke:#181818;stroke-width:0.5;" x1="445.5" x2="514.5" y1="962.7539" y2="962.7539"/></g><!--class Identifier--><g id="elem_Identifier"><rect codeLine="107" fill="#F1F1F1" height="48" id="Identifier" rx="2.5" ry="2.5" style="stroke:#181818;stroke-width:0.5;" width="94" x="616" y="1271.13"/><ellipse cx="631" cy="1287.13" fill="#ADD1B2" rx="11" ry="11" style="stroke:#181818;stroke-width:1.0;"/><path d="M633.4731,1293.2731 Q632.8921,1293.5719 632.2529,1293.7213 Q631.6138,1293.8707 630.9082,1293.8707 Q628.4014,1293.8707 627.0815,1292.2189 Q625.7617,1290.567 625.7617,1287.4459 Q625.7617,1284.3165 627.0815,1282.6647 Q628.4014,1281.0128 630.9082,1281.0128 Q631.6138,1281.0128 632.2612,1281.1622 Q632.9087,1281.3116 633.4731,1281.6105 L633.4731,1284.3331 Q632.8423,1283.7521 632.2488,1283.4823 Q631.6553,1283.2125 631.0244,1283.2125 Q629.6797,1283.2125 628.9949,1284.2792 Q628.3101,1285.3458 628.3101,1287.4459 Q628.3101,1289.5377 628.9949,1290.6044 Q629.6797,1291.671 631.0244,1291.671 Q631.6553,1291.671 632.2488,1291.4012 Q632.8423,1291.1315 633.4731,1290.5504 Z " fill="#000000"/><text fill="#000000" font-family="sans-serif" font-size="14" lengthAdjust="spacing" textLength="62" x="645" y="1292.421">Identifier</text><line style="stroke:#181818;stroke-width:0.5;" x1="617" x2="709" y1="1303.13" y2="1303.13"/><line style="stroke:#181818;stroke-width:0.5;" x1="617" x2="709" y1="1311.13" y2="1311.13"/></g><!--class Brand--><g id="elem_Brand"><rect codeLine="108" fill="#F1F1F1" height="48" id="Brand" rx="2.5" ry="2.5" style="stroke:#181818;stroke-width:0.5;" width="72" x="509" y="1271.13"/><ellipse cx="524" cy="1287.13" fill="#ADD1B2" rx="11" ry="11" style="stroke:#181818;stroke-width:1.0;"/><path d="M526.4731,1293.2731 Q525.8921,1293.5719 525.2529,1293.7213 Q524.6138,1293.8707 523.9082,1293.8707 Q521.4014,1293.8707 520.0815,1292.2189 Q518.7617,1290.567 518.7617,1287.4459 Q518.7617,1284.3165 520.0815,1282.6647 Q521.4014,1281.0128 523.9082,1281.0128 Q524.6138,1281.0128 525.2612,1281.1622 Q525.9087,1281.3116 526.4731,1281.6105 L526.4731,1284.3331 Q525.8423,1283.7521 525.2488,1283.4823 Q524.6553,1283.2125 524.0244,1283.2125 Q522.6797,1283.2125 521.9949,1284.2792 Q521.3101,1285.3458 521.3101,1287.4459 Q521.3101,1289.5377 521.9949,1290.6044 Q522.6797,1291.671 524.0244,1291.671 Q524.6553,1291.671 525.2488,1291.4012 Q525.8423,1291.1315 526.4731,1290.5504 Z " fill="#000000"/><text fill="#000000" font-family="sans-serif" font-size="14" lengthAdjust="spacing" textLength="40" x="538" y="1292.421">Brand</text><line style="stroke:#181818;stroke-width:0.5;" x1="510" x2="580" y1="1303.13" y2="1303.13"/><line style="stroke:#181818;stroke-width:0.5;" x1="510" x2="580" y1="1311.13" y2="1311.13"/></g><!--class Model--><g id="elem_Model"><rect codeLine="109" fill="#F1F1F1" height="48" id="Model" rx="2.5" ry="2.5" style="stroke:#181818;stroke-width:0.5;" width="74" x="400" y="1271.13"/><ellipse cx="415" cy="1287.13" fill="#ADD1B2" rx="11" ry="11" style="stroke:#181818;stroke-width:1.0;"/><path d="M417.4731,1293.2731 Q416.8921,1293.5719 416.2529,1293.7213 Q415.6138,1293.8707 414.9082,1293.8707 Q412.4014,1293.8707 411.0815,1292.2189 Q409.7617,1290.567 409.7617,1287.4459 Q409.7617,1284.3165 411.0815,1282.6647 Q412.4014,1281.0128 414.9082,1281.0128 Q415.6138,1281.0128 416.2612,1281.1622 Q416.9087,1281.3116 417.4731,1281.6105 L417.4731,1284.3331 Q416.8423,1283.7521 416.2488,1283.4823 Q415.6553,1283.2125 415.0244,1283.2125 Q413.6797,1283.2125 412.9949,1284.2792 Q412.3101,1285.3458 412.3101,1287.4459 Q412.3101,1289.5377 412.9949,1290.6044 Q413.6797,1291.671 415.0244,1291.671 Q415.6553,1291.671 416.2488,1291.4012 Q416.8423,1291.1315 417.4731,1290.5504 Z " fill="#000000"/><text fill="#000000" font-family="sans-serif" font-size="14" lengthAdjust="spacing" textLength="42" x="429" y="1292.421">Model</text><line style="stroke:#181818;stroke-width:0.5;" x1="401" x2="473" y1="1303.13" y2="1303.13"/><line style="stroke:#181818;stroke-width:0.5;" x1="401" x2="473" y1="1311.13" y2="1311.13"/></g><!--class SerialNumber--><g id="elem_SerialNumber"><rect codeLine="110" fill="#F1F1F1" height="48" id="SerialNumber" rx="2.5" ry="2.5" style="stroke:#181818;stroke-width:0.5;" width="125" x="239.5" y="1271.13"/><ellipse cx="254.5" cy="1287.13" fill="#ADD1B2" rx="11" ry="11" style="stroke:#181818;stroke-width:1.0;"/><path d="M256.9731,1293.2731 Q256.3921,1293.5719 255.7529,1293.7213 Q255.1138,1293.8707 254.4082,1293.8707 Q251.9014,1293.8707 250.5815,1292.2189 Q249.2617,1290.567 249.2617,1287.4459 Q249.2617,1284.3165 250.5815,1282.6647 Q251.9014,1281.0128 254.4082,1281.0128 Q255.1138,1281.0128 255.7612,1281.1622 Q256.4087,1281.3116 256.9731,1281.6105 L256.9731,1284.3331 Q256.3423,1283.7521 255.7488,1283.4823 Q255.1553,1283.2125 254.5244,1283.2125 Q253.1797,1283.2125 252.4949,1284.2792 Q251.8101,1285.3458 251.8101,1287.4459 Q251.8101,1289.5377 252.4949,1290.6044 Q253.1797,1291.671 254.5244,1291.671 Q255.1553,1291.671 255.7488,1291.4012 Q256.3423,1291.1315 256.9731,1290.5504 Z " fill="#000000"/><text fill="#000000" font-family="sans-serif" font-size="14" lengthAdjust="spacing" textLength="93" x="268.5" y="1292.421">SerialNumber</text><line style="stroke:#181818;stroke-width:0.5;" x1="240.5" x2="363.5" y1="1303.13" y2="1303.13"/><line style="stroke:#181818;stroke-width:0.5;" x1="240.5" x2="363.5" y1="1311.13" y2="1311.13"/></g><!--class Description--><g id="elem_Description"><rect codeLine="111" fill="#F1F1F1" height="48" id="Description" rx="2.5" ry="2.5" style="stroke:#181818;stroke-width:0.5;" width="110" x="94" y="1271.13"/><ellipse cx="109" cy="1287.13" fill="#ADD1B2" rx="11" ry="11" style="stroke:#181818;stroke-width:1.0;"/><path d="M111.4731,1293.2731 Q110.8921,1293.5719 110.2529,1293.7213 Q109.6138,1293.8707 108.9082,1293.8707 Q106.4014,1293.8707 105.0815,1292.2189 Q103.7617,1290.567 103.7617,1287.4459 Q103.7617,1284.3165 105.0815,1282.6647 Q106.4014,1281.0128 108.9082,1281.0128 Q109.6138,1281.0128 110.2612,1281.1622 Q110.9087,1281.3116 111.4731,1281.6105 L111.4731,1284.3331 Q110.8423,1283.7521 110.2488,1283.4823 Q109.6553,1283.2125 109.0244,1283.2125 Q107.6797,1283.2125 106.9949,1284.2792 Q106.3101,1285.3458 106.3101,1287.4459 Q106.3101,1289.5377 106.9949,1290.6044 Q107.6797,1291.671 109.0244,1291.671 Q109.6553,1291.671 110.2488,1291.4012 Q110.8423,1291.1315 111.4731,1290.5504 Z " fill="#000000"/><text fill="#000000" font-family="sans-serif" font-size="14" lengthAdjust="spacing" textLength="78" x="123" y="1292.421">Description</text><line style="stroke:#181818;stroke-width:0.5;" x1="95" x2="203" y1="1303.13" y2="1303.13"/><line style="stroke:#181818;stroke-width:0.5;" x1="95" x2="203" y1="1311.13" y2="1311.13"/></g><!--link DBDriver to IDBDriver--><g id="link_DBDriver_IDBDriver"><path codeLine="24" d="M1717,151 C1728.42,151 1721.85,151 1733.27,151 " fill="none" id="DBDriver-to-IDBDriver" style="stroke:#FF6655;stroke-width:1.0;"/><polygon fill="none" points="1751.27,151,1733.27,145,1733.27,157,1751.27,151" style="stroke:#FF6655;stroke-width:1.0;"/></g><!--reverse link IControllerElevator to ControllerElevator--><g id="link_IControllerElevator_ControllerElevator"><path codeLine="36" d="M1997.7997,500.3398 C1997.5997,540.1998 1997.3,602.94 1997.11,642.74 " fill="none" id="IControllerElevator-backto-ControllerElevator" style="stroke:#FF6655;stroke-width:1.0;"/><polygon fill="none" points="1997.89,482.34,1991.7998,500.3097,2003.7996,500.3699,1997.89,482.34" style="stroke:#FF6655;stroke-width:1.0;"/></g><!--reverse link DBDriver to RepoBuilding--><g id="link_DBDriver_RepoBuilding"><path codeLine="45" d="M1681.1098,181.0974 C1700.8898,238.0074 1749.32,377.35 1768.98,433.91 " fill="none" id="DBDriver-backto-RepoBuilding" style="stroke:#FF6655;stroke-width:1.0;stroke-dasharray:7.0,7.0;"/><polygon fill="#FF6655" points="1679.14,175.43,1678.3164,185.2444,1680.7815,180.1529,1685.873,182.6179,1679.14,175.43" style="stroke:#FF6655;stroke-width:1.0;"/></g><!--reverse link DBDriver to RepoFloor--><g id="link_DBDriver_RepoFloor"><path codeLine="46" d="M1643.6671,179.6409 C1616.0071,208.3509 1573.68,255.15 1542,305 C1514.81,347.79 1492.16,402.87 1480.5,433.6 " fill="none" id="DBDriver-backto-RepoFloor" style="stroke:#FF6655;stroke-width:1.0;stroke-dasharray:7.0,7.0;"/><polygon fill="#FF6655" points="1647.83,175.32,1638.7051,179.0261,1644.3609,178.9208,1644.4663,184.5766,1647.83,175.32" style="stroke:#FF6655;stroke-width:1.0;"/></g><!--reverse link DBDriver to RepoElevator--><g id="link_DBDriver_RepoElevator"><path codeLine="47" d="M1666.0911,181.3479 C1656.5811,238.2579 1633.32,377.35 1623.86,433.91 " fill="none" id="DBDriver-backto-RepoElevator" style="stroke:#FF6655;stroke-width:1.0;stroke-dasharray:7.0,7.0;"/><polygon fill="#FF6655" points="1667.08,175.43,1661.6513,183.6476,1666.2559,180.3616,1669.5419,184.9662,1667.08,175.43" style="stroke:#FF6655;stroke-width:1.0;"/></g><!--link RouteElevator to IControllerElevator--><g id="link_RouteElevator_IControllerElevator"><path codeLine="49" d="M1968.46,175.43 C1974.43,232.34 1989.0133,371.3828 1994.9533,427.9428 " fill="none" id="RouteElevator-to-IControllerElevator" style="stroke:#FF6655;stroke-width:1.0;stroke-dasharray:7.0,7.0;"/><polygon fill="#FF6655" points="1995.58,433.91,1998.6181,424.5414,1995.0578,428.9373,1990.6619,425.377,1995.58,433.91" style="stroke:#FF6655;stroke-width:1.0;"/></g><!--link AppServiceElevator to IAppServiceElevator--><g id="link_AppServiceElevator_IAppServiceElevator"><path codeLine="62" d="M1117.61,959.79 C1128.58,986.52 1139.5837,1013.3487 1150.5537,1040.0687 " fill="none" id="AppServiceElevator-to-IAppServiceElevator" style="stroke:#FF6655;stroke-width:1.0;"/><polygon fill="none" points="1157.39,1056.72,1156.1042,1037.79,1145.0033,1042.3475,1157.39,1056.72" style="stroke:#FF6655;stroke-width:1.0;"/></g><!--link RepoBuilding to IRepoBuilding--><g id="link_RepoBuilding_IRepoBuilding"><path codeLine="70" d="M1741.28,482.4 C1728.02,490.5 1712.64,499.24 1698,506 C1557.91,570.66 1401.2755,618.2744 1309.2955,643.9844 " fill="none" id="RepoBuilding-to-IRepoBuilding" style="stroke:#FF6655;stroke-width:1.0;"/><polygon fill="none" points="1291.96,648.83,1310.9107,649.7629,1307.6803,638.2059,1291.96,648.83" style="stroke:#FF6655;stroke-width:1.0;"/></g><!--link RepoFloor to IRepoFloor--><g id="link_RepoFloor_IRepoFloor"><path codeLine="71" d="M1420.23,458.63 C1309.58,458.82 1054.52,464.75 986,514 C943.08,544.85 928.776,590.6929 922.076,625.0429 " fill="none" id="RepoFloor-to-IRepoFloor" style="stroke:#FF6655;stroke-width:1.0;"/><polygon fill="none" points="918.63,642.71,927.965,626.1916,916.187,623.8943,918.63,642.71" style="stroke:#FF6655;stroke-width:1.0;"/></g><!--link RepoElevator to IRepoElevator--><g id="link_RepoElevator_IRepoElevator"><path codeLine="72" d="M1589.07,482.47 C1575.15,491.65 1558.03,501.13 1541,506 C1519.95,512.02 1165.66,502.54 1147,514 C1100.5,542.56 1083.3426,590.1499 1074.9126,625.1699 " fill="none" id="RepoElevator-to-IRepoElevator" style="stroke:#FF6655;stroke-width:1.0;"/><polygon fill="none" points="1070.7,642.67,1080.746,626.5741,1069.0792,623.7657,1070.7,642.67" style="stroke:#FF6655;stroke-width:1.0;"/></g><!--link ControllerElevator to IAppServiceElevator--><g id="link_ControllerElevator_IAppServiceElevator"><path codeLine="75" d="M1945.66,691.48 C1900.94,712.07 1834.44,743.01 1777,771 C1564.08,874.76 1317.8856,1001.7764 1217.2356,1054.0064 " fill="none" id="ControllerElevator-to-IAppServiceElevator" style="stroke:#FF6655;stroke-width:1.0;stroke-dasharray:7.0,7.0;"/><polygon fill="#FF6655" points="1211.91,1056.77,1221.7409,1056.175,1216.348,1054.467,1218.056,1049.0741,1211.91,1056.77" style="stroke:#FF6655;stroke-width:1.0;"/></g><!--reverse link IRepoBuilding to AppServiceElevator--><g id="link_IRepoBuilding_AppServiceElevator"><path codeLine="77" d="M1215.0961,696.6408 C1192.4061,747.0208 1141.25,860.57 1118.5,911.07 " fill="none" id="IRepoBuilding-backto-AppServiceElevator" style="stroke:#FF6655;stroke-width:1.0;stroke-dasharray:7.0,7.0;"/><polygon fill="#FF6655" points="1217.56,691.17,1210.217,697.7335,1215.5067,695.729,1217.5113,701.0187,1217.56,691.17" style="stroke:#FF6655;stroke-width:1.0;"/></g><!--reverse link IRepoFloor to AppServiceElevator--><g id="link_IRepoFloor_AppServiceElevator"><path codeLine="78" d="M935.3102,696.0288 C971.8102,746.4088 1054.52,860.57 1091.11,911.07 " fill="none" id="IRepoFloor-backto-AppServiceElevator" style="stroke:#FF6655;stroke-width:1.0;stroke-dasharray:7.0,7.0;"/><polygon fill="#FF6655" points="931.79,691.17,933.8311,700.805,934.7235,695.219,940.3095,696.1115,931.79,691.17" style="stroke:#FF6655;stroke-width:1.0;"/></g><!--reverse link IRepoElevator to AppServiceElevator--><g id="link_IRepoElevator_AppServiceElevator"><path codeLine="79" d="M1070.5852,697.0967 C1078.5352,747.4767 1096.36,860.57 1104.32,911.07 " fill="none" id="IRepoElevator-backto-AppServiceElevator" style="stroke:#FF6655;stroke-width:1.0;stroke-dasharray:7.0,7.0;"/><polygon fill="#FF6655" points="1069.65,691.17,1067.1017,700.6835,1070.4294,696.1089,1075.004,699.4365,1069.65,691.17" style="stroke:#FF6655;stroke-width:1.0;"/></g><!--link ControllerElevator to IElevatorDTO--><g id="link_ControllerElevator_IElevatorDTO"><path codeLine="85" d="M1981.71,691.34 C1934.24,763.79 1793.0483,979.3213 1745.5783,1051.7713 " fill="none" id="ControllerElevator-to-IElevatorDTO" style="stroke:#FF6655;stroke-width:1.0;stroke-dasharray:7.0,7.0;"/><polygon fill="#FF6655" points="1742.29,1056.79,1750.5682,1051.4542,1745.0302,1052.6078,1743.8767,1047.0698,1742.29,1056.79" style="stroke:#FF6655;stroke-width:1.0;"/></g><!--link AppServiceElevator to IElevatorDTO--><g id="link_AppServiceElevator_IElevatorDTO"><path codeLine="86" d="M1189.88,955.39 C1315.89,984.66 1548.6255,1038.7028 1660.4555,1064.6728 " fill="none" id="AppServiceElevator-to-IElevatorDTO" style="stroke:#FF6655;stroke-width:1.0;stroke-dasharray:7.0,7.0;"/><polygon fill="#FF6655" points="1666.3,1066.03,1658.4381,1060.0978,1661.4296,1064.899,1656.6285,1067.8904,1666.3,1066.03" style="stroke:#FF6655;stroke-width:1.0;"/></g><!--link Elevator to Identifier--><g id="link_Elevator_Identifier"><path codeLine="117" d="M501.72,1116.55 C516.53,1137.2 537.95,1162.26 563,1177.13 C577.09,1185.5 585.75,1175.48 599,1185.13 C628.27,1206.44 644.3386,1239.9252 653.5286,1265.0452 " fill="none" id="Elevator-to-Identifier" style="stroke:#FF6655;stroke-width:1.0;"/><polygon fill="#FF6655" points="655.59,1270.68,656.2543,1260.8536,653.8721,1265.9844,648.7413,1263.6022,655.59,1270.68" style="stroke:#FF6655;stroke-width:1.0;"/><text fill="#000000" font-family="Impact" font-size="13" lengthAdjust="spacing" textLength="5" x="647.9267" y="1260.3228">1</text></g><!--link Elevator to Brand--><g id="link_Elevator_Brand"><path codeLine="118" d="M490.59,1116.66 C503.9,1160.08 524.6314,1227.6835 536.0814,1265.0335 " fill="none" id="Elevator-to-Brand" style="stroke:#FF6655;stroke-width:1.0;"/><polygon fill="#FF6655" points="537.84,1270.77,539.0265,1260.9929,536.3745,1265.9896,531.3778,1263.3376,537.84,1270.77" style="stroke:#FF6655;stroke-width:1.0;"/><text fill="#000000" font-family="Impact" font-size="13" lengthAdjust="spacing" textLength="5" x="530.2439" y="1260.437">1</text></g><!--link Elevator to Model--><g id="link_Elevator_Model"><path codeLine="119" d="M473,1116.66 C464.19,1160.08 450.5018,1227.5396 442.9318,1264.8896 " fill="none" id="Elevator-to-Model" style="stroke:#FF6655;stroke-width:1.0;"/><polygon fill="#FF6655" points="441.74,1270.77,447.448,1262.7439,442.7332,1265.8696,439.6075,1261.1548,441.74,1270.77" style="stroke:#FF6655;stroke-width:1.0;"/><text fill="#000000" font-family="Impact" font-size="13" lengthAdjust="spacing" textLength="5" x="437.342" y="1260.437">1</text></g><!--link Elevator to SerialNumber--><g id="link_Elevator_SerialNumber"><path codeLine="120" d="M444.83,1116.85 C425.63,1136.36 401.8,1161.47 382,1185.13 C358.2,1213.57 336.7132,1243.4954 321.1432,1266.0054 " fill="none" id="Elevator-to-SerialNumber" style="stroke:#FF6655;stroke-width:1.0;"/><polygon fill="#FF6655" points="317.73,1270.94,326.1395,1265.8136,320.5743,1266.8279,319.5601,1261.2627,317.73,1270.94" style="stroke:#FF6655;stroke-width:1.0;"/><text fill="#000000" font-family="Impact" font-size="13" lengthAdjust="spacing" textLength="5" x="316.4509" y="1260.2619">1</text></g><!--link Elevator to Description--><g id="link_Elevator_Description"><path codeLine="121" d="M436.2,1091.15 C381.34,1104.23 286.68,1132.8 222,1185.13 C193.14,1208.48 174.0825,1240.9033 162.1225,1265.2833 " fill="none" id="Elevator-to-Description" style="stroke:#FF6655;stroke-width:1.0;"/><polygon fill="#FF6655" points="159.48,1270.67,167.035,1264.3516,161.6821,1266.1811,159.8527,1260.8282,159.48,1270.67" style="stroke:#FF6655;stroke-width:1.0;"/><text fill="#000000" font-family="Impact" font-size="13" lengthAdjust="spacing" textLength="5" x="156.6246" y="1260.3101">1</text></g><!--reverse link Building to Elevator--><g id="link_Building_Elevator"><path codeLine="123" d="M572.85,1081.13 C554.51,1081.13 542.18,1081.13 523.85,1081.13 " fill="none" id="Building-backto-Elevator" style="stroke:#FF6655;stroke-width:1.0;"/><polygon fill="#FF6655" points="578.85,1081.13,569.85,1077.13,573.85,1081.13,569.85,1085.13,578.85,1081.13" style="stroke:#FF6655;stroke-width:1.0;"/><text fill="#000000" font-family="Impact" font-size="13" lengthAdjust="spacing" textLength="5" x="566.1236" y="1078.0735">1</text></g><!--reverse link Floor to Elevator--><g id="link_Floor_Elevator"><path codeLine="124" d="M480,977.17 C480,999.69 480,1022.9 480,1045.4 " fill="none" id="Floor-backto-Elevator" style="stroke:#FF6655;stroke-width:1.0;"/><polygon fill="#FF6655" points="480,971.17,476,980.17,480,976.17,484,980.17,480,971.17" style="stroke:#FF6655;stroke-width:1.0;"/><text fill="#000000" font-family="Impact" font-size="13" lengthAdjust="spacing" textLength="4" x="475.6563" y="991.7989">*</text><text fill="#000000" font-family="Impact" font-size="13" lengthAdjust="spacing" textLength="5" x="474.5078" y="1035.0883">1</text></g><!--link AppServiceElevator to Elevator--><g id="link_AppServiceElevator_Elevator"><path codeLine="127" d="M1026.06,940.16 C894.65,947.25 643.36,965.33 563,1002.75 C541.93,1012.57 526.7464,1025.386 512.0764,1041.086 " fill="none" id="AppServiceElevator-to-Elevator" style="stroke:#FF6655;stroke-width:1.0;stroke-dasharray:7.0,7.0;"/><polygon fill="#FF6655" points="507.98,1045.47,517.0473,1041.6249,511.3937,1041.8167,511.2019,1036.1631,507.98,1045.47" style="stroke:#FF6655;stroke-width:1.0;"/></g><!--SRC=[dLRBRjim4BphAmZt4A207UIGd0m1ViH0W3OfagBNW9RM2cjA55QKYxJDlvTwItmvgKwoPxIpkvmbMHnPbbEaAOb4ceiCCad-14GzEv799_ORoDLD_NjDesE2eipYZU02byjLJgCN24FoXIKlSYEGyeOeC0RKIPzskvkRw-i-z3rDWMn4YGnG_upikHApgP8jGFvqV5tp4cfyXIX-zV7kKYKd1w3vffD-2m857sa2f7Wj9AHjfTsVixliWBIGM4QoH9Yry8JoA4e9nHYgdeZJeY0rTilXHAN07bUgHfHlW0LJ6MGHwA5O9W4FD5B5RDTRP2T0YvG1ZLGwZConMfZvtr0BrN97PNUIgvZcwhsmbhvHNKR1kOPFGtb8MdK3qsYPLj1K8Stv6P6cHMVZZt-PP38lyxfrdZYsfNs4N1HCiPZJ9egnBXcFMPOuu1qN0XsOBujnQB8eyqLeEgMFxoFqNT0u0sdiTR9GZxjLkjzMUSvPH2KJ6Na2FB48x8vJH2jXQWZ5Sf4qomtC3rlkZ4YpF1-BRxB9l7QS9OmZCP_PjDgThhFmJFjPIEyfSUB7fZXd7eCl1wAPoCIS0z4t59RPhjtgQxDbRPf9iEVlfq-hy7EzWxFz_Z0Zj23viteRBVTePRhl5U5y1yPaNteshfxRRIQPL3QyL1S1kDoAbBBCFjH9Wf3GzXIr6xiJgwkbpz1bOZeSAjbNqkUwNA8GKjqtbii62iDtpNYtfAtYlZEjKx6tzVygrgvevGwrxvrQpLYS5_ATIp-ekZAHX_rFYAHxCvqq_YHydM-slBkuokN001s4DT8iTc1VHGpSWIaJCihlotJl3Bs58aAML-T8uEv4_pxQDa8okvhPSZSuq_GDU5g10LkBC5ZMEWOMXuFiij4tdfvLeTMDHV4-pnh31C6veJRtlOlU2RRJxkAj7Vstu1y0]--></g></svg>