<?xml version="1.0" encoding="us-ascii" standalone="no"?><svg xmlns="http://www.w3.org/2000/svg" xmlns:xlink="http://www.w3.org/1999/xlink" contentStyleType="text/css" height="692.8px" preserveAspectRatio="none" style="width:829px;height:692px;background:#FFFFFF;" version="1.1" viewBox="0 0 829 692" width="829.6px" zoomAndPan="magnify"><defs/><g><rect fill="#FFFFFF" height="543.7703" style="stroke:#181818;stroke-width:0.8000000000000002;" width="8" x="75.2" y="74.8969"/><rect fill="#FFFFFF" height="189.3344" style="stroke:#181818;stroke-width:0.8000000000000002;" width="8" x="316" y="93.5297"/><rect fill="#FFFFFF" height="310.7703" style="stroke:#181818;stroke-width:0.8000000000000002;" width="8" x="316" y="307.8969"/><rect fill="#FFFFFF" height="139.2688" style="stroke:#181818;stroke-width:0.8000000000000002;" width="8" x="661.6" y="118.5625"/><rect fill="#FFFFFF" height="223.6719" style="stroke:#181818;stroke-width:0.8000000000000002;" width="8" x="661.6" y="332.9297"/><rect fill="none" height="452.6719" style="stroke:#000000;stroke-width:1.2000000000000002;" width="816" x="8" y="160.3953"/><rect fill="none" height="232.7047" style="stroke:#000000;stroke-width:1.2000000000000002;" width="679.6" x="16" y="374.7625"/><rect fill="none" height="142.7016" style="stroke:#000000;stroke-width:1.2000000000000002;" width="663.6" x="24" y="459.1656"/><line style="stroke:#181818;stroke-width:0.4000000000000001;stroke-dasharray:5.0,5.0;" x1="79.2" x2="79.2" y1="66.8969" y2="626.6672"/><line style="stroke:#181818;stroke-width:0.4000000000000001;stroke-dasharray:5.0,5.0;" x1="320" x2="320" y1="66.8969" y2="626.6672"/><line style="stroke:#181818;stroke-width:0.4000000000000001;stroke-dasharray:5.0,5.0;" x1="665.2" x2="665.2" y1="66.8969" y2="626.6672"/><text fill="#000000" font-family="sans-serif" font-size="11.2" lengthAdjust="spacing" textLength="89.6" x="32" y="64.0859">Campus Manager</text><ellipse cx="79.2" cy="10.8" fill="#E2E2F0" rx="6.4" ry="6.4" style="stroke:#181818;stroke-width:0.4000000000000001;"/><path d="M79.2,17.2 L79.2,38.8 M68.8,23.6 L89.6,23.6 M79.2,38.8 L68.8,50.8 M79.2,38.8 L89.6,50.8 " fill="none" style="stroke:#181818;stroke-width:0.4000000000000001;"/><text fill="#000000" font-family="sans-serif" font-size="11.2" lengthAdjust="spacing" textLength="89.6" x="32" y="637.9531">Campus Manager</text><ellipse cx="79.2" cy="647.5641" fill="#E2E2F0" rx="6.4" ry="6.4" style="stroke:#181818;stroke-width:0.4000000000000001;"/><path d="M79.2,653.9641 L79.2,675.5641 M68.8,660.3641 L89.6,660.3641 M79.2,675.5641 L68.8,687.5641 M79.2,675.5641 L89.6,687.5641 " fill="none" style="stroke:#181818;stroke-width:0.4000000000000001;"/><rect fill="#E2E2F0" height="26.0969" rx="2" ry="2" style="stroke:#181818;stroke-width:0.4000000000000001;" width="25.6" x="307.2" y="40"/><text fill="#000000" font-family="sans-serif" font-size="11.2" lengthAdjust="spacing" textLength="14.4" x="312.8" y="57.6859">FE</text><rect fill="#E2E2F0" height="26.0969" rx="2" ry="2" style="stroke:#181818;stroke-width:0.4000000000000001;" width="25.6" x="307.2" y="625.8672"/><text fill="#000000" font-family="sans-serif" font-size="11.2" lengthAdjust="spacing" textLength="14.4" x="312.8" y="643.5531">FE</text><rect fill="#E2E2F0" height="26.0969" rx="2" ry="2" style="stroke:#181818;stroke-width:0.4000000000000001;" width="28" x="651.6" y="40"/><text fill="#000000" font-family="sans-serif" font-size="11.2" lengthAdjust="spacing" textLength="16.8" x="657.2" y="57.6859">MD</text><rect fill="#E2E2F0" height="26.0969" rx="2" ry="2" style="stroke:#181818;stroke-width:0.4000000000000001;" width="28" x="651.6" y="625.8672"/><text fill="#000000" font-family="sans-serif" font-size="11.2" lengthAdjust="spacing" textLength="16.8" x="657.2" y="643.5531">MD</text><rect fill="#FFFFFF" height="543.7703" style="stroke:#181818;stroke-width:0.8000000000000002;" width="8" x="75.2" y="74.8969"/><rect fill="#FFFFFF" height="189.3344" style="stroke:#181818;stroke-width:0.8000000000000002;" width="8" x="316" y="93.5297"/><rect fill="#FFFFFF" height="310.7703" style="stroke:#181818;stroke-width:0.8000000000000002;" width="8" x="316" y="307.8969"/><rect fill="#FFFFFF" height="139.2688" style="stroke:#181818;stroke-width:0.8000000000000002;" width="8" x="661.6" y="118.5625"/><rect fill="#FFFFFF" height="223.6719" style="stroke:#181818;stroke-width:0.8000000000000002;" width="8" x="661.6" y="332.9297"/><polygon fill="#181818" points="306.4,90.3297,314.4,93.5297,306.4,96.7297,309.6,93.5297" style="stroke:#181818;stroke-width:0.8000000000000002;"/><line style="stroke:#181818;stroke-width:0.8000000000000002;" x1="83.2" x2="311.2" y1="93.5297" y2="93.5297"/><text fill="#000000" font-family="sans-serif" font-size="10.4" font-weight="bold" lengthAdjust="spacing" textLength="5.6" x="88.8" y="89.3195">1</text><text fill="#000000" font-family="sans-serif" font-size="10.4" lengthAdjust="spacing" textLength="208.8" x="97.6" y="89.3195">wants to list passages between two buildings</text><polygon fill="#181818" points="652,115.3625,660,118.5625,652,121.7625,655.2,118.5625" style="stroke:#181818;stroke-width:0.8000000000000002;"/><line style="stroke:#181818;stroke-width:0.8000000000000002;" x1="324" x2="656.8" y1="118.5625" y2="118.5625"/><text fill="#000000" font-family="sans-serif" font-size="10.4" font-weight="bold" lengthAdjust="spacing" textLength="5.6" x="329.6" y="114.3523">2</text><text fill="#000000" font-family="sans-serif" font-size="10.4" lengthAdjust="spacing" textLength="68" x="338.4" y="114.3523">GET /buildings</text><path d="M673.6,128.9625 L673.6,150.5625 L816,150.5625 L816,136.9625 L808,128.9625 L673.6,128.9625 " fill="#FEFFDD" style="stroke:#181818;stroke-width:0.4000000000000001;"/><path d="M808,128.9625 L808,136.9625 L816,136.9625 L808,128.9625 " fill="#FEFFDD" style="stroke:#181818;stroke-width:0.4000000000000001;"/><text fill="#000000" font-family="sans-serif" font-size="10.4" lengthAdjust="spacing" textLength="125.6" x="678.4" y="144.1852">see US 170 documentation</text><path d="M8,160.3953 L56.8,160.3953 L56.8,167.8281 L48.8,175.8281 L8,175.8281 L8,160.3953 " fill="#EEEEEE" style="stroke:#000000;stroke-width:1.2000000000000002;"/><rect fill="none" height="452.6719" style="stroke:#000000;stroke-width:1.2000000000000002;" width="816" x="8" y="160.3953"/><text fill="#000000" font-family="sans-serif" font-size="10.4" font-weight="bold" lengthAdjust="spacing" textLength="12.8" x="20" y="172.418">alt</text><text fill="#000000" font-family="sans-serif" font-size="8.8" font-weight="bold" lengthAdjust="spacing" textLength="98.4" x="68.8" y="171.4914">[building(s) not found]</text><polygon fill="#181818" points="332.8,191.2609,324.8,194.4609,332.8,197.6609,329.6,194.4609" style="stroke:#181818;stroke-width:0.8000000000000002;"/><line style="stroke:#181818;stroke-width:0.8000000000000002;stroke-dasharray:2.0,2.0;" x1="328" x2="660.8" y1="194.4609" y2="194.4609"/><text fill="#000000" font-family="sans-serif" font-size="10.4" font-weight="bold" lengthAdjust="spacing" textLength="5.6" x="337.6" y="190.2508">3</text><text fill="#000000" font-family="sans-serif" font-size="10.4" lengthAdjust="spacing" textLength="44" x="346.4" y="190.2508">404: error</text><polygon fill="#181818" points="92,216.2938,84,219.4938,92,222.6938,88.8,219.4938" style="stroke:#181818;stroke-width:0.8000000000000002;"/><line style="stroke:#181818;stroke-width:0.8000000000000002;stroke-dasharray:2.0,2.0;" x1="87.2" x2="315.2" y1="219.4938" y2="219.4938"/><text fill="#000000" font-family="sans-serif" font-size="10.4" font-weight="bold" lengthAdjust="spacing" textLength="5.6" x="96.8" y="215.2836">4</text><text fill="#000000" font-family="sans-serif" font-size="10.4" lengthAdjust="spacing" textLength="129.6" x="105.6" y="215.2836">informs building(s) not found</text><line style="stroke:#000000;stroke-width:0.8000000000000002;stroke-dasharray:2.0,2.0;" x1="8" x2="824" y1="226.6938" y2="226.6938"/><text fill="#000000" font-family="sans-serif" font-size="8.8" font-weight="bold" lengthAdjust="spacing" textLength="81.6" x="12" y="236.1898">[building(s) found]</text><polygon fill="#181818" points="332.8,254.6313,324.8,257.8313,332.8,261.0313,329.6,257.8313" style="stroke:#181818;stroke-width:0.8000000000000002;"/><line style="stroke:#181818;stroke-width:0.8000000000000002;stroke-dasharray:2.0,2.0;" x1="328" x2="664.8" y1="257.8313" y2="257.8313"/><text fill="#000000" font-family="sans-serif" font-size="10.4" font-weight="bold" lengthAdjust="spacing" textLength="5.6" x="337.6" y="253.6211">5</text><text fill="#000000" font-family="sans-serif" font-size="10.4" lengthAdjust="spacing" textLength="64" x="346.4" y="253.6211">200: buildings</text><polygon fill="#181818" points="92,279.6641,84,282.8641,92,286.0641,88.8,282.8641" style="stroke:#181818;stroke-width:0.8000000000000002;"/><line style="stroke:#181818;stroke-width:0.8000000000000002;stroke-dasharray:2.0,2.0;" x1="87.2" x2="319.2" y1="282.8641" y2="282.8641"/><text fill="#000000" font-family="sans-serif" font-size="10.4" font-weight="bold" lengthAdjust="spacing" textLength="5.6" x="96.8" y="278.6539">6</text><text fill="#000000" font-family="sans-serif" font-size="10.4" lengthAdjust="spacing" textLength="156" x="105.6" y="278.6539">shows buildings and requests two</text><polygon fill="#181818" points="306.4,304.6969,314.4,307.8969,306.4,311.0969,309.6,307.8969" style="stroke:#181818;stroke-width:0.8000000000000002;"/><line style="stroke:#181818;stroke-width:0.8000000000000002;" x1="83.2" x2="311.2" y1="307.8969" y2="307.8969"/><text fill="#000000" font-family="sans-serif" font-size="10.4" font-weight="bold" lengthAdjust="spacing" textLength="5.6" x="88.8" y="303.6867">7</text><text fill="#000000" font-family="sans-serif" font-size="10.4" lengthAdjust="spacing" textLength="102.4" x="97.6" y="303.6867">chooses two buildings</text><polygon fill="#181818" points="652,329.7297,660,332.9297,652,336.1297,655.2,332.9297" style="stroke:#181818;stroke-width:0.8000000000000002;"/><line style="stroke:#181818;stroke-width:0.8000000000000002;" x1="324" x2="656.8" y1="332.9297" y2="332.9297"/><text fill="#000000" font-family="sans-serif" font-size="10.4" font-weight="bold" lengthAdjust="spacing" textLength="5.6" x="329.6" y="328.7195">8</text><text fill="#000000" font-family="sans-serif" font-size="10.4" lengthAdjust="spacing" textLength="313.6" x="338.4" y="328.7195">GET /passages/?building1={buildingCode}&amp;building2={buildingCode}</text><path d="M673.6,343.3297 L673.6,364.9297 L816,364.9297 L816,351.3297 L808,343.3297 L673.6,343.3297 " fill="#FEFFDD" style="stroke:#181818;stroke-width:0.4000000000000001;"/><path d="M808,343.3297 L808,351.3297 L816,351.3297 L808,343.3297 " fill="#FEFFDD" style="stroke:#181818;stroke-width:0.4000000000000001;"/><text fill="#000000" font-family="sans-serif" font-size="10.4" lengthAdjust="spacing" textLength="125.6" x="678.4" y="358.5523">see US 260 documentation</text><path d="M16,374.7625 L64.8,374.7625 L64.8,382.1953 L56.8,390.1953 L16,390.1953 L16,374.7625 " fill="#EEEEEE" style="stroke:#000000;stroke-width:1.2000000000000002;"/><rect fill="none" height="232.7047" style="stroke:#000000;stroke-width:1.2000000000000002;" width="679.6" x="16" y="374.7625"/><text fill="#000000" font-family="sans-serif" font-size="10.4" font-weight="bold" lengthAdjust="spacing" textLength="12.8" x="28" y="386.7852">alt</text><text fill="#000000" font-family="sans-serif" font-size="8.8" font-weight="bold" lengthAdjust="spacing" textLength="68.8" x="76.8" y="385.8586">[same building]</text><polygon fill="#181818" points="332.8,405.6281,324.8,408.8281,332.8,412.0281,329.6,408.8281" style="stroke:#181818;stroke-width:0.8000000000000002;"/><line style="stroke:#181818;stroke-width:0.8000000000000002;stroke-dasharray:2.0,2.0;" x1="328" x2="660.8" y1="408.8281" y2="408.8281"/><text fill="#000000" font-family="sans-serif" font-size="10.4" font-weight="bold" lengthAdjust="spacing" textLength="5.6" x="337.6" y="404.618">9</text><text fill="#000000" font-family="sans-serif" font-size="10.4" lengthAdjust="spacing" textLength="44" x="346.4" y="404.618">412: error</text><polygon fill="#181818" points="92,430.6609,84,433.8609,92,437.0609,88.8,433.8609" style="stroke:#181818;stroke-width:0.8000000000000002;"/><line style="stroke:#181818;stroke-width:0.8000000000000002;stroke-dasharray:2.0,2.0;" x1="87.2" x2="315.2" y1="433.8609" y2="433.8609"/><text fill="#000000" font-family="sans-serif" font-size="10.4" font-weight="bold" lengthAdjust="spacing" textLength="11.2" x="96.8" y="429.6508">10</text><text fill="#000000" font-family="sans-serif" font-size="10.4" lengthAdjust="spacing" textLength="141.6" x="111.2" y="429.6508">informs same building provided</text><line style="stroke:#000000;stroke-width:0.8000000000000002;stroke-dasharray:2.0,2.0;" x1="16" x2="695.6" y1="441.0609" y2="441.0609"/><text fill="#000000" font-family="sans-serif" font-size="8.8" font-weight="bold" lengthAdjust="spacing" textLength="82.4" x="20" y="450.557">[different building]</text><path d="M24,459.1656 L72.8,459.1656 L72.8,466.5984 L64.8,474.5984 L24,474.5984 L24,459.1656 " fill="#EEEEEE" style="stroke:#000000;stroke-width:1.2000000000000002;"/><rect fill="none" height="142.7016" style="stroke:#000000;stroke-width:1.2000000000000002;" width="663.6" x="24" y="459.1656"/><text fill="#000000" font-family="sans-serif" font-size="10.4" font-weight="bold" lengthAdjust="spacing" textLength="12.8" x="36" y="471.1883">alt</text><text fill="#000000" font-family="sans-serif" font-size="8.8" font-weight="bold" lengthAdjust="spacing" textLength="106.4" x="84.8" y="470.2617">[passages(s) not found]</text><polygon fill="#181818" points="332.8,490.0313,324.8,493.2313,332.8,496.4313,329.6,493.2313" style="stroke:#181818;stroke-width:0.8000000000000002;"/><line style="stroke:#181818;stroke-width:0.8000000000000002;stroke-dasharray:2.0,2.0;" x1="328" x2="660.8" y1="493.2313" y2="493.2313"/><text fill="#000000" font-family="sans-serif" font-size="10.4" font-weight="bold" lengthAdjust="spacing" textLength="11.2" x="337.6" y="489.0211">11</text><text fill="#000000" font-family="sans-serif" font-size="10.4" lengthAdjust="spacing" textLength="44" x="352" y="489.0211">404: error</text><polygon fill="#181818" points="92,515.0641,84,518.2641,92,521.4641,88.8,518.2641" style="stroke:#181818;stroke-width:0.8000000000000002;"/><line style="stroke:#181818;stroke-width:0.8000000000000002;stroke-dasharray:2.0,2.0;" x1="87.2" x2="315.2" y1="518.2641" y2="518.2641"/><text fill="#000000" font-family="sans-serif" font-size="10.4" font-weight="bold" lengthAdjust="spacing" textLength="11.2" x="96.8" y="514.0539">12</text><text fill="#000000" font-family="sans-serif" font-size="10.4" lengthAdjust="spacing" textLength="139.2" x="111.2" y="514.0539">informs passages(s) not found</text><line style="stroke:#000000;stroke-width:0.8000000000000002;stroke-dasharray:2.0,2.0;" x1="24" x2="687.6" y1="525.4641" y2="525.4641"/><text fill="#000000" font-family="sans-serif" font-size="8.8" font-weight="bold" lengthAdjust="spacing" textLength="84" x="28" y="534.9602">[passage(s) found]</text><polygon fill="#181818" points="332.8,553.4016,324.8,556.6016,332.8,559.8016,329.6,556.6016" style="stroke:#181818;stroke-width:0.8000000000000002;"/><line style="stroke:#181818;stroke-width:0.8000000000000002;stroke-dasharray:2.0,2.0;" x1="328" x2="664.8" y1="556.6016" y2="556.6016"/><text fill="#000000" font-family="sans-serif" font-size="10.4" font-weight="bold" lengthAdjust="spacing" textLength="11.2" x="337.6" y="552.3914">13</text><text fill="#000000" font-family="sans-serif" font-size="10.4" lengthAdjust="spacing" textLength="68" x="352" y="552.3914">200: passages</text><polygon fill="#181818" points="92,592.2672,84,595.4672,92,598.6672,88.8,595.4672" style="stroke:#181818;stroke-width:0.8000000000000002;"/><line style="stroke:#181818;stroke-width:0.8000000000000002;stroke-dasharray:2.0,2.0;" x1="87.2" x2="315.2" y1="595.4672" y2="595.4672"/><text fill="#000000" font-family="sans-serif" font-size="10.4" font-weight="bold" lengthAdjust="spacing" textLength="11.2" x="96.8" y="584.3406">14</text><text fill="#000000" font-family="sans-serif" font-size="10.4" lengthAdjust="spacing" textLength="119.2" x="111.2" y="577.4242">shows passages between</text><text fill="#000000" font-family="sans-serif" font-size="10.4" lengthAdjust="spacing" textLength="60" x="114.4" y="591.257">two buildings</text><!--SRC=[fLGzJyCm4DtpAquT40oeRLI1L0aOIc7g16miRdrfBIM-u7EQ0V7VST8wYKjJYl3Yhxjtp_UUB0fBkiYMQA98h2mP6Cn4bXSC2w756iq014F1xZeNnggLoeMsC7YQxovKUBnuh8ypMQEfhR1O9uCRReRhUvS2KoXTD8CbI1LRo0MpgyMmH5iYQh0bmR9GgLHwpNLoYwQY-g16L1LW9XtWy_mLXc5ADJIv5AFM6mkKx28P4TvUO7mx0ach8aDjXLMacnoHsgRu9LzL691GeMKJ4H3AmlDWKmrNzDe_UpAQJ06D8HC5STL3gXZNeIaedP39k8T3auSfOn3pasEtT3mQJJiz3U8azhqc8CORAbjQ349BCFXH85TQbXGTO7cfkiAlDaIC_8l2VG9xemmVVExuxjClPoJnwyBlueEBComHt_HQejEUA30AYwnLeRVvat7iTJ_UtLRr011oGribKOQgIvKaQ1pBjd90ohUftxsddVf7evukLpFUXvnfKm_u3vSUVYdlnpwLXcANxdxjvz3FtPtxrhu1]--></g></svg>