<?xml version="1.0" encoding="us-ascii" standalone="no"?><svg xmlns="http://www.w3.org/2000/svg" xmlns:xlink="http://www.w3.org/1999/xlink" contentStyleType="text/css" height="866px" preserveAspectRatio="none" style="width:1057px;height:866px;background:#FFFFFF;" version="1.1" viewBox="0 0 1057 866" width="1057px" zoomAndPan="magnify"><defs/><g><rect fill="#FFFFFF" height="679.7129" style="stroke:#181818;stroke-width:1.0;" width="10" x="94" y="93.6211"/><rect fill="#FFFFFF" height="236.668" style="stroke:#181818;stroke-width:1.0;" width="10" x="395" y="116.9121"/><rect fill="#FFFFFF" height="388.4629" style="stroke:#181818;stroke-width:1.0;" width="10" x="395" y="384.8711"/><rect fill="#FFFFFF" height="174.0859" style="stroke:#181818;stroke-width:1.0;" width="10" x="827" y="148.2031"/><rect fill="#FFFFFF" height="279.5898" style="stroke:#181818;stroke-width:1.0;" width="10" x="827" y="416.1621"/><rect fill="none" height="603.1309" style="stroke:#000000;stroke-width:1.5;" width="1040" x="10" y="163.2031"/><rect fill="none" height="328.1719" style="stroke:#000000;stroke-width:1.5;" width="1020" x="20" y="431.1621"/><rect fill="none" height="215.668" style="stroke:#000000;stroke-width:1.5;" width="1000" x="30" y="536.666"/><line style="stroke:#181818;stroke-width:0.5;stroke-dasharray:5.0,5.0;" x1="99" x2="99" y1="83.6211" y2="783.334"/><line style="stroke:#181818;stroke-width:0.5;stroke-dasharray:5.0,5.0;" x1="400" x2="400" y1="83.6211" y2="783.334"/><line style="stroke:#181818;stroke-width:0.5;stroke-dasharray:5.0,5.0;" x1="831.5" x2="831.5" y1="83.6211" y2="783.334"/><text fill="#000000" font-family="sans-serif" font-size="14" lengthAdjust="spacing" textLength="112" x="40" y="80.1074">Campus Manager</text><ellipse cx="99" cy="13.5" fill="#E2E2F0" rx="8" ry="8" style="stroke:#181818;stroke-width:0.5;"/><path d="M99,21.5 L99,48.5 M86,29.5 L112,29.5 M99,48.5 L86,63.5 M99,48.5 L112,63.5 " fill="none" style="stroke:#181818;stroke-width:0.5;"/><text fill="#000000" font-family="sans-serif" font-size="14" lengthAdjust="spacing" textLength="112" x="40" y="797.4414">Campus Manager</text><ellipse cx="99" cy="809.4551" fill="#E2E2F0" rx="8" ry="8" style="stroke:#181818;stroke-width:0.5;"/><path d="M99,817.4551 L99,844.4551 M86,825.4551 L112,825.4551 M99,844.4551 L86,859.4551 M99,844.4551 L112,859.4551 " fill="none" style="stroke:#181818;stroke-width:0.5;"/><rect fill="#E2E2F0" height="32.6211" rx="2.5" ry="2.5" style="stroke:#181818;stroke-width:0.5;" width="32" x="384" y="50"/><text fill="#000000" font-family="sans-serif" font-size="14" lengthAdjust="spacing" textLength="18" x="391" y="72.1074">FE</text><rect fill="#E2E2F0" height="32.6211" rx="2.5" ry="2.5" style="stroke:#181818;stroke-width:0.5;" width="32" x="384" y="782.334"/><text fill="#000000" font-family="sans-serif" font-size="14" lengthAdjust="spacing" textLength="18" x="391" y="804.4414">FE</text><rect fill="#E2E2F0" height="32.6211" rx="2.5" ry="2.5" style="stroke:#181818;stroke-width:0.5;" width="35" x="814.5" y="50"/><text fill="#000000" font-family="sans-serif" font-size="14" lengthAdjust="spacing" textLength="21" x="821.5" y="72.1074">MD</text><rect fill="#E2E2F0" height="32.6211" rx="2.5" ry="2.5" style="stroke:#181818;stroke-width:0.5;" width="35" x="814.5" y="782.334"/><text fill="#000000" font-family="sans-serif" font-size="14" lengthAdjust="spacing" textLength="21" x="821.5" y="804.4414">MD</text><rect fill="#FFFFFF" height="679.7129" style="stroke:#181818;stroke-width:1.0;" width="10" x="94" y="93.6211"/><rect fill="#FFFFFF" height="236.668" style="stroke:#181818;stroke-width:1.0;" width="10" x="395" y="116.9121"/><rect fill="#FFFFFF" height="388.4629" style="stroke:#181818;stroke-width:1.0;" width="10" x="395" y="384.8711"/><rect fill="#FFFFFF" height="174.0859" style="stroke:#181818;stroke-width:1.0;" width="10" x="827" y="148.2031"/><rect fill="#FFFFFF" height="279.5898" style="stroke:#181818;stroke-width:1.0;" width="10" x="827" y="416.1621"/><polygon fill="#181818" points="383,112.9121,393,116.9121,383,120.9121,387,116.9121" style="stroke:#181818;stroke-width:1.0;"/><line style="stroke:#181818;stroke-width:1.0;" x1="104" x2="389" y1="116.9121" y2="116.9121"/><text fill="#000000" font-family="sans-serif" font-size="13" font-weight="bold" lengthAdjust="spacing" textLength="7" x="111" y="111.6494">1</text><text fill="#000000" font-family="sans-serif" font-size="13" lengthAdjust="spacing" textLength="261" x="122" y="111.6494">wants to list passages between two buildings</text><polygon fill="#181818" points="815,144.2031,825,148.2031,815,152.2031,819,148.2031" style="stroke:#181818;stroke-width:1.0;"/><line style="stroke:#181818;stroke-width:1.0;" x1="405" x2="821" y1="148.2031" y2="148.2031"/><text fill="#000000" font-family="sans-serif" font-size="13" font-weight="bold" lengthAdjust="spacing" textLength="7" x="412" y="142.9404">2</text><text fill="#000000" font-family="sans-serif" font-size="13" lengthAdjust="spacing" textLength="85" x="423" y="142.9404">GET /buildings</text><path d="M10,163.2031 L71,163.2031 L71,172.4941 L61,182.4941 L10,182.4941 L10,163.2031 " fill="#EEEEEE" style="stroke:#000000;stroke-width:1.5;"/><rect fill="none" height="603.1309" style="stroke:#000000;stroke-width:1.5;" width="1040" x="10" y="163.2031"/><text fill="#000000" font-family="sans-serif" font-size="13" font-weight="bold" lengthAdjust="spacing" textLength="16" x="25" y="178.2314">alt</text><text fill="#000000" font-family="sans-serif" font-size="11" font-weight="bold" lengthAdjust="spacing" textLength="123" x="86" y="177.0732">[building(s) not found]</text><path d="M842,187.4941 L842,214.4941 L1020,214.4941 L1020,197.4941 L1010,187.4941 L842,187.4941 " fill="#FEFFDD" style="stroke:#181818;stroke-width:0.5;"/><path d="M1010,187.4941 L1010,197.4941 L1020,197.4941 L1010,187.4941 " fill="#FEFFDD" style="stroke:#181818;stroke-width:0.5;"/><text fill="#000000" font-family="sans-serif" font-size="13" lengthAdjust="spacing" textLength="157" x="848" y="206.5225">see US 170 documentation</text><polygon fill="#181818" points="416,239.0762,406,243.0762,416,247.0762,412,243.0762" style="stroke:#181818;stroke-width:1.0;"/><line style="stroke:#181818;stroke-width:1.0;stroke-dasharray:2.0,2.0;" x1="410" x2="826" y1="243.0762" y2="243.0762"/><text fill="#000000" font-family="sans-serif" font-size="13" font-weight="bold" lengthAdjust="spacing" textLength="7" x="422" y="237.8135">3</text><text fill="#000000" font-family="sans-serif" font-size="13" lengthAdjust="spacing" textLength="55" x="433" y="237.8135">404: error</text><polygon fill="#181818" points="115,270.3672,105,274.3672,115,278.3672,111,274.3672" style="stroke:#181818;stroke-width:1.0;"/><line style="stroke:#181818;stroke-width:1.0;stroke-dasharray:2.0,2.0;" x1="109" x2="394" y1="274.3672" y2="274.3672"/><text fill="#000000" font-family="sans-serif" font-size="13" font-weight="bold" lengthAdjust="spacing" textLength="7" x="121" y="269.1045">4</text><text fill="#000000" font-family="sans-serif" font-size="13" lengthAdjust="spacing" textLength="162" x="132" y="269.1045">informs building(s) not found</text><line style="stroke:#000000;stroke-width:1.0;stroke-dasharray:2.0,2.0;" x1="10" x2="1050" y1="283.3672" y2="283.3672"/><text fill="#000000" font-family="sans-serif" font-size="11" font-weight="bold" lengthAdjust="spacing" textLength="102" x="15" y="295.2373">[building(s) found]</text><polygon fill="#181818" points="416,318.2891,406,322.2891,416,326.2891,412,322.2891" style="stroke:#181818;stroke-width:1.0;"/><line style="stroke:#181818;stroke-width:1.0;stroke-dasharray:2.0,2.0;" x1="410" x2="831" y1="322.2891" y2="322.2891"/><text fill="#000000" font-family="sans-serif" font-size="13" font-weight="bold" lengthAdjust="spacing" textLength="7" x="422" y="317.0264">5</text><text fill="#000000" font-family="sans-serif" font-size="13" lengthAdjust="spacing" textLength="80" x="433" y="317.0264">200: buildings</text><polygon fill="#181818" points="115,349.5801,105,353.5801,115,357.5801,111,353.5801" style="stroke:#181818;stroke-width:1.0;"/><line style="stroke:#181818;stroke-width:1.0;stroke-dasharray:2.0,2.0;" x1="109" x2="399" y1="353.5801" y2="353.5801"/><text fill="#000000" font-family="sans-serif" font-size="13" font-weight="bold" lengthAdjust="spacing" textLength="7" x="121" y="348.3174">6</text><text fill="#000000" font-family="sans-serif" font-size="13" lengthAdjust="spacing" textLength="195" x="132" y="348.3174">shows buildings and requests two</text><polygon fill="#181818" points="383,380.8711,393,384.8711,383,388.8711,387,384.8711" style="stroke:#181818;stroke-width:1.0;"/><line style="stroke:#181818;stroke-width:1.0;" x1="104" x2="389" y1="384.8711" y2="384.8711"/><text fill="#000000" font-family="sans-serif" font-size="13" font-weight="bold" lengthAdjust="spacing" textLength="7" x="111" y="379.6084">7</text><text fill="#000000" font-family="sans-serif" font-size="13" lengthAdjust="spacing" textLength="128" x="122" y="379.6084">chooses two buildings</text><polygon fill="#181818" points="815,412.1621,825,416.1621,815,420.1621,819,416.1621" style="stroke:#181818;stroke-width:1.0;"/><line style="stroke:#181818;stroke-width:1.0;" x1="405" x2="821" y1="416.1621" y2="416.1621"/><text fill="#000000" font-family="sans-serif" font-size="13" font-weight="bold" lengthAdjust="spacing" textLength="7" x="412" y="410.8994">8</text><text fill="#000000" font-family="sans-serif" font-size="13" lengthAdjust="spacing" textLength="392" x="423" y="410.8994">GET /passages/?building1={buildingCode}&amp;building2={buildingCode}</text><path d="M20,431.1621 L81,431.1621 L81,440.4531 L71,450.4531 L20,450.4531 L20,431.1621 " fill="#EEEEEE" style="stroke:#000000;stroke-width:1.5;"/><rect fill="none" height="328.1719" style="stroke:#000000;stroke-width:1.5;" width="1020" x="20" y="431.1621"/><text fill="#000000" font-family="sans-serif" font-size="13" font-weight="bold" lengthAdjust="spacing" textLength="16" x="35" y="446.1904">alt</text><text fill="#000000" font-family="sans-serif" font-size="11" font-weight="bold" lengthAdjust="spacing" textLength="86" x="96" y="445.0322">[same building]</text><polygon fill="#181818" points="416,469.7441,406,473.7441,416,477.7441,412,473.7441" style="stroke:#181818;stroke-width:1.0;"/><line style="stroke:#181818;stroke-width:1.0;stroke-dasharray:2.0,2.0;" x1="410" x2="826" y1="473.7441" y2="473.7441"/><text fill="#000000" font-family="sans-serif" font-size="13" font-weight="bold" lengthAdjust="spacing" textLength="7" x="422" y="468.4814">9</text><text fill="#000000" font-family="sans-serif" font-size="13" lengthAdjust="spacing" textLength="55" x="433" y="468.4814">412: error</text><polygon fill="#181818" points="115,501.0352,105,505.0352,115,509.0352,111,505.0352" style="stroke:#181818;stroke-width:1.0;"/><line style="stroke:#181818;stroke-width:1.0;stroke-dasharray:2.0,2.0;" x1="109" x2="394" y1="505.0352" y2="505.0352"/><text fill="#000000" font-family="sans-serif" font-size="13" font-weight="bold" lengthAdjust="spacing" textLength="14" x="121" y="499.7725">10</text><text fill="#000000" font-family="sans-serif" font-size="13" lengthAdjust="spacing" textLength="177" x="139" y="499.7725">informs same building provided</text><line style="stroke:#000000;stroke-width:1.0;stroke-dasharray:2.0,2.0;" x1="20" x2="1040" y1="514.0352" y2="514.0352"/><text fill="#000000" font-family="sans-serif" font-size="11" font-weight="bold" lengthAdjust="spacing" textLength="103" x="25" y="525.9053">[different building]</text><path d="M30,536.666 L91,536.666 L91,545.957 L81,555.957 L30,555.957 L30,536.666 " fill="#EEEEEE" style="stroke:#000000;stroke-width:1.5;"/><rect fill="none" height="215.668" style="stroke:#000000;stroke-width:1.5;" width="1000" x="30" y="536.666"/><text fill="#000000" font-family="sans-serif" font-size="13" font-weight="bold" lengthAdjust="spacing" textLength="16" x="45" y="551.6943">alt</text><text fill="#000000" font-family="sans-serif" font-size="11" font-weight="bold" lengthAdjust="spacing" textLength="133" x="106" y="550.5361">[passages(s) not found]</text><path d="M842,560.957 L842,587.957 L1020,587.957 L1020,570.957 L1010,560.957 L842,560.957 " fill="#FEFFDD" style="stroke:#181818;stroke-width:0.5;"/><path d="M1010,560.957 L1010,570.957 L1020,570.957 L1010,560.957 " fill="#FEFFDD" style="stroke:#181818;stroke-width:0.5;"/><text fill="#000000" font-family="sans-serif" font-size="13" lengthAdjust="spacing" textLength="157" x="848" y="579.9854">see US 260 documentation</text><polygon fill="#181818" points="416,612.5391,406,616.5391,416,620.5391,412,616.5391" style="stroke:#181818;stroke-width:1.0;"/><line style="stroke:#181818;stroke-width:1.0;stroke-dasharray:2.0,2.0;" x1="410" x2="826" y1="616.5391" y2="616.5391"/><text fill="#000000" font-family="sans-serif" font-size="13" font-weight="bold" lengthAdjust="spacing" textLength="14" x="422" y="611.2764">11</text><text fill="#000000" font-family="sans-serif" font-size="13" lengthAdjust="spacing" textLength="55" x="440" y="611.2764">404: error</text><polygon fill="#181818" points="115,643.8301,105,647.8301,115,651.8301,111,647.8301" style="stroke:#181818;stroke-width:1.0;"/><line style="stroke:#181818;stroke-width:1.0;stroke-dasharray:2.0,2.0;" x1="109" x2="394" y1="647.8301" y2="647.8301"/><text fill="#000000" font-family="sans-serif" font-size="13" font-weight="bold" lengthAdjust="spacing" textLength="14" x="121" y="642.5674">12</text><text fill="#000000" font-family="sans-serif" font-size="13" lengthAdjust="spacing" textLength="174" x="139" y="642.5674">informs passages(s) not found</text><line style="stroke:#000000;stroke-width:1.0;stroke-dasharray:2.0,2.0;" x1="30" x2="1030" y1="656.8301" y2="656.8301"/><text fill="#000000" font-family="sans-serif" font-size="11" font-weight="bold" lengthAdjust="spacing" textLength="105" x="35" y="668.7002">[passage(s) found]</text><polygon fill="#181818" points="416,691.752,406,695.752,416,699.752,412,695.752" style="stroke:#181818;stroke-width:1.0;"/><line style="stroke:#181818;stroke-width:1.0;stroke-dasharray:2.0,2.0;" x1="410" x2="831" y1="695.752" y2="695.752"/><text fill="#000000" font-family="sans-serif" font-size="13" font-weight="bold" lengthAdjust="spacing" textLength="14" x="422" y="690.4893">13</text><text fill="#000000" font-family="sans-serif" font-size="13" lengthAdjust="spacing" textLength="85" x="440" y="690.4893">200: passages</text><polygon fill="#181818" points="115,740.334,105,744.334,115,748.334,111,744.334" style="stroke:#181818;stroke-width:1.0;"/><line style="stroke:#181818;stroke-width:1.0;stroke-dasharray:2.0,2.0;" x1="109" x2="394" y1="744.334" y2="744.334"/><text fill="#000000" font-family="sans-serif" font-size="13" font-weight="bold" lengthAdjust="spacing" textLength="14" x="121" y="730.4258">14</text><text fill="#000000" font-family="sans-serif" font-size="13" lengthAdjust="spacing" textLength="149" x="139" y="721.7803">shows passages between</text><text fill="#000000" font-family="sans-serif" font-size="13" lengthAdjust="spacing" textLength="75" x="143" y="739.0713">two buildings</text><!--SRC=[fLGzJyCm4DtpAquT40oeRLI1L0aOIc7g16miRdnfBJM-u7EQ0V7VST8wYKjJYl3YhtVFT_UUB0fBkiYMQA9899OC36OYomk6XT1YXMO0Wg5WTvqBOrMYSg4j39xckmiL7YyUw-DCrcngAopMmU26c-7wteN054g7Ph046yKMSi7itc9OeYqHDTYIO5ceZLHwnNLmowQY-g1cL1LX9XtXy_mLXc587RQn3T4bNu4c2oaLMZQ8W3mBpnqQmQZLsWAbktSO4TvUO7mx0ab9aQ6smYhIGLmr7FhQLpiPJQQ0nf290boLVuLnZPc2qYcPZ7lIRU9mmnXWVfRJVJeUZQQTLWOuYNs51udnciesBGQX9HZyA90h2KkA3hYyGbszapKH8_yYR9-ktX_31nyxlllqonb9_Bhmk_ZW8ZgcSHJuWqNMThItaPDnx3KytgbMmO0GSaDR9L662agLfcYSUzgNWwHyoVscFMtG-EPiW_xHdwSpgulRGyvqfoVyXpaFFv3tOrz8as8ttVtQpw6DkpltYNq3]--></g></svg>