<?xml version="1.0" encoding="us-ascii" standalone="no"?><svg xmlns="http://www.w3.org/2000/svg" xmlns:xlink="http://www.w3.org/1999/xlink" contentStyleType="text/css" height="519.6px" preserveAspectRatio="none" style="width:425px;height:519px;background:#FFFFFF;" version="1.1" viewBox="0 0 425 519" width="425.4px" zoomAndPan="magnify"><defs/><g><rect fill="#FFFFFF" height="407.8277" style="stroke:#181818;stroke-width:0.6;" width="6" x="56.4" y="56.1727"/><rect fill="#FFFFFF" height="142.0008" style="stroke:#181818;stroke-width:0.6;" width="6" x="205.2" y="70.1473"/><rect fill="#FFFFFF" height="233.0777" style="stroke:#181818;stroke-width:0.6;" width="6" x="205.2" y="230.9227"/><rect fill="#FFFFFF" height="104.4516" style="stroke:#181818;stroke-width:0.6;" width="6" x="287.4" y="88.9219"/><rect fill="#FFFFFF" height="167.7539" style="stroke:#181818;stroke-width:0.6;" width="6" x="287.4" y="249.6973"/><rect fill="none" height="361.8785" style="stroke:#000000;stroke-width:0.8999999999999999;" width="415.2" x="6" y="97.9219"/><rect fill="none" height="196.9031" style="stroke:#000000;stroke-width:0.8999999999999999;" width="403.2" x="12" y="258.6973"/><rect fill="none" height="129.4008" style="stroke:#000000;stroke-width:0.8999999999999999;" width="391.2" x="18" y="321.9996"/><line style="stroke:#181818;stroke-width:0.3;stroke-dasharray:5.0,5.0;" x1="59.4" x2="59.4" y1="50.1727" y2="470.0004"/><line style="stroke:#181818;stroke-width:0.3;stroke-dasharray:5.0,5.0;" x1="208.2" x2="208.2" y1="50.1727" y2="470.0004"/><line style="stroke:#181818;stroke-width:0.3;stroke-dasharray:5.0,5.0;" x1="290.1" x2="290.1" y1="50.1727" y2="470.0004"/><text fill="#000000" font-family="sans-serif" font-size="8.4" lengthAdjust="spacing" textLength="67.2" x="24" y="48.0645">Campus Manager</text><ellipse cx="59.4" cy="8.1" fill="#E2E2F0" rx="4.8" ry="4.8" style="stroke:#181818;stroke-width:0.3;"/><path d="M59.4,12.9 L59.4,29.1 M51.6,17.7 L67.2,17.7 M59.4,29.1 L51.6,38.1 M59.4,29.1 L67.2,38.1 " fill="none" style="stroke:#181818;stroke-width:0.3;"/><text fill="#000000" font-family="sans-serif" font-size="8.4" lengthAdjust="spacing" textLength="67.2" x="24" y="478.4648">Campus Manager</text><ellipse cx="59.4" cy="485.673" fill="#E2E2F0" rx="4.8" ry="4.8" style="stroke:#181818;stroke-width:0.3;"/><path d="M59.4,490.473 L59.4,506.673 M51.6,495.273 L67.2,495.273 M59.4,506.673 L51.6,515.673 M59.4,506.673 L67.2,515.673 " fill="none" style="stroke:#181818;stroke-width:0.3;"/><rect fill="#E2E2F0" height="19.5727" rx="1.5" ry="1.5" style="stroke:#181818;stroke-width:0.3;" width="49.2" x="183.6" y="30"/><text fill="#000000" font-family="sans-serif" font-size="8.4" lengthAdjust="spacing" textLength="40.8" x="187.8" y="43.2645">Campus UI</text><rect fill="#E2E2F0" height="19.5727" rx="1.5" ry="1.5" style="stroke:#181818;stroke-width:0.3;" width="49.2" x="183.6" y="469.4004"/><text fill="#000000" font-family="sans-serif" font-size="8.4" lengthAdjust="spacing" textLength="40.8" x="187.8" y="482.6648">Campus UI</text><rect fill="#E2E2F0" height="19.5727" rx="1.5" ry="1.5" style="stroke:#181818;stroke-width:0.3;" width="54.6" x="263.1" y="30"/><text fill="#000000" font-family="sans-serif" font-size="8.4" lengthAdjust="spacing" textLength="46.2" x="267.3" y="43.2645">Campus MD</text><rect fill="#E2E2F0" height="19.5727" rx="1.5" ry="1.5" style="stroke:#181818;stroke-width:0.3;" width="54.6" x="263.1" y="469.4004"/><text fill="#000000" font-family="sans-serif" font-size="8.4" lengthAdjust="spacing" textLength="46.2" x="267.3" y="482.6648">Campus MD</text><rect fill="#FFFFFF" height="407.8277" style="stroke:#181818;stroke-width:0.6;" width="6" x="56.4" y="56.1727"/><rect fill="#FFFFFF" height="142.0008" style="stroke:#181818;stroke-width:0.6;" width="6" x="205.2" y="70.1473"/><rect fill="#FFFFFF" height="233.0777" style="stroke:#181818;stroke-width:0.6;" width="6" x="205.2" y="230.9227"/><rect fill="#FFFFFF" height="104.4516" style="stroke:#181818;stroke-width:0.6;" width="6" x="287.4" y="88.9219"/><rect fill="#FFFFFF" height="167.7539" style="stroke:#181818;stroke-width:0.6;" width="6" x="287.4" y="249.6973"/><polygon fill="#181818" points="198,67.7473,204,70.1473,198,72.5473,200.4,70.1473" style="stroke:#181818;stroke-width:0.6;"/><line style="stroke:#181818;stroke-width:0.6;" x1="62.4" x2="201.6" y1="70.1473" y2="70.1473"/><text fill="#000000" font-family="sans-serif" font-size="7.8" font-weight="bold" lengthAdjust="spacing" textLength="4.2" x="66.6" y="66.9896">1</text><text fill="#000000" font-family="sans-serif" font-size="7.8" lengthAdjust="spacing" textLength="124.8" x="73.2" y="66.9896">list passages between two buildings</text><polygon fill="#181818" points="280.2,86.5219,286.2,88.9219,280.2,91.3219,282.6,88.9219" style="stroke:#181818;stroke-width:0.6;"/><line style="stroke:#181818;stroke-width:0.6;" x1="211.2" x2="283.8" y1="88.9219" y2="88.9219"/><text fill="#000000" font-family="sans-serif" font-size="7.8" font-weight="bold" lengthAdjust="spacing" textLength="4.2" x="215.4" y="85.7643">2</text><text fill="#000000" font-family="sans-serif" font-size="7.8" lengthAdjust="spacing" textLength="51" x="222" y="85.7643">GET /buildings</text><path d="M6,97.9219 L42.6,97.9219 L42.6,103.4965 L36.6,109.4965 L6,109.4965 L6,97.9219 " fill="#EEEEEE" style="stroke:#000000;stroke-width:0.8999999999999999;"/><rect fill="none" height="361.8785" style="stroke:#000000;stroke-width:0.8999999999999999;" width="415.2" x="6" y="97.9219"/><text fill="#000000" font-family="sans-serif" font-size="7.8" font-weight="bold" lengthAdjust="spacing" textLength="9.6" x="15" y="106.9389">alt</text><text fill="#000000" font-family="sans-serif" font-size="6.6" font-weight="bold" lengthAdjust="spacing" textLength="73.8" x="51.6" y="106.2439">[building(s) not found]</text><path d="M296.4,112.4965 L296.4,128.6965 L403.2,128.6965 L403.2,118.4965 L397.2,112.4965 L296.4,112.4965 " fill="#FEFFDD" style="stroke:#181818;stroke-width:0.3;"/><path d="M397.2,112.4965 L397.2,118.4965 L403.2,118.4965 L397.2,112.4965 " fill="#FEFFDD" style="stroke:#181818;stroke-width:0.3;"/><text fill="#000000" font-family="sans-serif" font-size="7.8" lengthAdjust="spacing" textLength="94.2" x="300" y="123.9135">see US 170 documentation</text><polygon fill="#181818" points="217.8,143.4457,211.8,145.8457,217.8,148.2457,215.4,145.8457" style="stroke:#181818;stroke-width:0.6;"/><line style="stroke:#181818;stroke-width:0.6;stroke-dasharray:2.0,2.0;" x1="214.2" x2="286.8" y1="145.8457" y2="145.8457"/><text fill="#000000" font-family="sans-serif" font-size="7.8" font-weight="bold" lengthAdjust="spacing" textLength="4.2" x="221.4" y="142.6881">3</text><text fill="#000000" font-family="sans-serif" font-size="7.8" lengthAdjust="spacing" textLength="33" x="228" y="142.6881">404: error</text><polygon fill="#181818" points="69,162.2203,63,164.6203,69,167.0203,66.6,164.6203" style="stroke:#181818;stroke-width:0.6;"/><line style="stroke:#181818;stroke-width:0.6;stroke-dasharray:2.0,2.0;" x1="65.4" x2="204.6" y1="164.6203" y2="164.6203"/><text fill="#000000" font-family="sans-serif" font-size="7.8" font-weight="bold" lengthAdjust="spacing" textLength="4.2" x="72.6" y="161.4627">4</text><text fill="#000000" font-family="sans-serif" font-size="7.8" lengthAdjust="spacing" textLength="43.2" x="79.2" y="161.4627">informs error</text><line style="stroke:#000000;stroke-width:0.6;stroke-dasharray:2.0,2.0;" x1="6" x2="421.2" y1="170.0203" y2="170.0203"/><text fill="#000000" font-family="sans-serif" font-size="6.6" font-weight="bold" lengthAdjust="spacing" textLength="56.4" x="9" y="177.1424">[buildings found]</text><polygon fill="#181818" points="217.8,190.9734,211.8,193.3734,217.8,195.7734,215.4,193.3734" style="stroke:#181818;stroke-width:0.6;"/><line style="stroke:#181818;stroke-width:0.6;stroke-dasharray:2.0,2.0;" x1="214.2" x2="289.8" y1="193.3734" y2="193.3734"/><text fill="#000000" font-family="sans-serif" font-size="7.8" font-weight="bold" lengthAdjust="spacing" textLength="4.2" x="221.4" y="190.2158">5</text><text fill="#000000" font-family="sans-serif" font-size="7.8" lengthAdjust="spacing" textLength="48" x="228" y="190.2158">200: buildings</text><polygon fill="#181818" points="69,209.748,63,212.148,69,214.548,66.6,212.148" style="stroke:#181818;stroke-width:0.6;"/><line style="stroke:#181818;stroke-width:0.6;stroke-dasharray:2.0,2.0;" x1="65.4" x2="207.6" y1="212.148" y2="212.148"/><text fill="#000000" font-family="sans-serif" font-size="7.8" font-weight="bold" lengthAdjust="spacing" textLength="4.2" x="72.6" y="208.9904">6</text><text fill="#000000" font-family="sans-serif" font-size="7.8" lengthAdjust="spacing" textLength="117" x="79.2" y="208.9904">shows buildings and requests two</text><polygon fill="#181818" points="198,228.5227,204,230.9227,198,233.3227,200.4,230.9227" style="stroke:#181818;stroke-width:0.6;"/><line style="stroke:#181818;stroke-width:0.6;" x1="62.4" x2="201.6" y1="230.9227" y2="230.9227"/><text fill="#000000" font-family="sans-serif" font-size="7.8" font-weight="bold" lengthAdjust="spacing" textLength="4.2" x="66.6" y="227.765">7</text><text fill="#000000" font-family="sans-serif" font-size="7.8" lengthAdjust="spacing" textLength="76.8" x="73.2" y="227.765">chooses two buildings</text><polygon fill="#181818" points="280.2,247.2973,286.2,249.6973,280.2,252.0973,282.6,249.6973" style="stroke:#181818;stroke-width:0.6;"/><line style="stroke:#181818;stroke-width:0.6;" x1="211.2" x2="283.8" y1="249.6973" y2="249.6973"/><text fill="#000000" font-family="sans-serif" font-size="7.8" font-weight="bold" lengthAdjust="spacing" textLength="4.2" x="215.4" y="246.5396">8</text><text fill="#000000" font-family="sans-serif" font-size="7.8" lengthAdjust="spacing" textLength="54" x="222" y="246.5396">GET /passages</text><path d="M12,258.6973 L48.6,258.6973 L48.6,264.2719 L42.6,270.2719 L12,270.2719 L12,258.6973 " fill="#EEEEEE" style="stroke:#000000;stroke-width:0.8999999999999999;"/><rect fill="none" height="196.9031" style="stroke:#000000;stroke-width:0.8999999999999999;" width="403.2" x="12" y="258.6973"/><text fill="#000000" font-family="sans-serif" font-size="7.8" font-weight="bold" lengthAdjust="spacing" textLength="9.6" x="21" y="267.7143">alt</text><text fill="#000000" font-family="sans-serif" font-size="6.6" font-weight="bold" lengthAdjust="spacing" textLength="51.6" x="57.6" y="267.0193">[same building]</text><polygon fill="#181818" points="217.8,281.8465,211.8,284.2465,217.8,286.6465,215.4,284.2465" style="stroke:#181818;stroke-width:0.6;"/><line style="stroke:#181818;stroke-width:0.6;stroke-dasharray:2.0,2.0;" x1="214.2" x2="286.8" y1="284.2465" y2="284.2465"/><text fill="#000000" font-family="sans-serif" font-size="7.8" font-weight="bold" lengthAdjust="spacing" textLength="4.2" x="221.4" y="281.0889">9</text><text fill="#000000" font-family="sans-serif" font-size="7.8" lengthAdjust="spacing" textLength="33" x="228" y="281.0889">412: error</text><polygon fill="#181818" points="69,300.6211,63,303.0211,69,305.4211,66.6,303.0211" style="stroke:#181818;stroke-width:0.6;"/><line style="stroke:#181818;stroke-width:0.6;stroke-dasharray:2.0,2.0;" x1="65.4" x2="204.6" y1="303.0211" y2="303.0211"/><text fill="#000000" font-family="sans-serif" font-size="7.8" font-weight="bold" lengthAdjust="spacing" textLength="8.4" x="72.6" y="299.8635">10</text><text fill="#000000" font-family="sans-serif" font-size="7.8" lengthAdjust="spacing" textLength="43.2" x="83.4" y="299.8635">informs error</text><line style="stroke:#000000;stroke-width:0.6;stroke-dasharray:2.0,2.0;" x1="12" x2="415.2" y1="308.4211" y2="308.4211"/><text fill="#000000" font-family="sans-serif" font-size="6.6" font-weight="bold" lengthAdjust="spacing" textLength="61.8" x="15" y="315.5432">[different building]</text><path d="M18,321.9996 L54.6,321.9996 L54.6,327.5742 L48.6,333.5742 L18,333.5742 L18,321.9996 " fill="#EEEEEE" style="stroke:#000000;stroke-width:0.8999999999999999;"/><rect fill="none" height="129.4008" style="stroke:#000000;stroke-width:0.8999999999999999;" width="391.2" x="18" y="321.9996"/><text fill="#000000" font-family="sans-serif" font-size="7.8" font-weight="bold" lengthAdjust="spacing" textLength="9.6" x="27" y="331.0166">alt</text><text fill="#000000" font-family="sans-serif" font-size="6.6" font-weight="bold" lengthAdjust="spacing" textLength="79.8" x="63.6" y="330.3217">[passages(s) not found]</text><path d="M296.4,336.5742 L296.4,352.7742 L403.2,352.7742 L403.2,342.5742 L397.2,336.5742 L296.4,336.5742 " fill="#FEFFDD" style="stroke:#181818;stroke-width:0.3;"/><path d="M397.2,336.5742 L397.2,342.5742 L403.2,342.5742 L397.2,336.5742 " fill="#FEFFDD" style="stroke:#181818;stroke-width:0.3;"/><text fill="#000000" font-family="sans-serif" font-size="7.8" lengthAdjust="spacing" textLength="94.2" x="300" y="347.9912">see US 260 documentation</text><polygon fill="#181818" points="217.8,367.5234,211.8,369.9234,217.8,372.3234,215.4,369.9234" style="stroke:#181818;stroke-width:0.6;"/><line style="stroke:#181818;stroke-width:0.6;stroke-dasharray:2.0,2.0;" x1="214.2" x2="286.8" y1="369.9234" y2="369.9234"/><text fill="#000000" font-family="sans-serif" font-size="7.8" font-weight="bold" lengthAdjust="spacing" textLength="8.4" x="221.4" y="366.7658">11</text><text fill="#000000" font-family="sans-serif" font-size="7.8" lengthAdjust="spacing" textLength="33" x="232.2" y="366.7658">404: error</text><polygon fill="#181818" points="69,386.298,63,388.698,69,391.098,66.6,388.698" style="stroke:#181818;stroke-width:0.6;"/><line style="stroke:#181818;stroke-width:0.6;stroke-dasharray:2.0,2.0;" x1="65.4" x2="204.6" y1="388.698" y2="388.698"/><text fill="#000000" font-family="sans-serif" font-size="7.8" font-weight="bold" lengthAdjust="spacing" textLength="8.4" x="72.6" y="385.5404">12</text><text fill="#000000" font-family="sans-serif" font-size="7.8" lengthAdjust="spacing" textLength="43.2" x="83.4" y="385.5404">informs error</text><line style="stroke:#000000;stroke-width:0.6;stroke-dasharray:2.0,2.0;" x1="18" x2="409.2" y1="394.098" y2="394.098"/><text fill="#000000" font-family="sans-serif" font-size="6.6" font-weight="bold" lengthAdjust="spacing" textLength="58.2" x="21" y="401.2201">[passages found]</text><polygon fill="#181818" points="217.8,415.0512,211.8,417.4512,217.8,419.8512,215.4,417.4512" style="stroke:#181818;stroke-width:0.6;"/><line style="stroke:#181818;stroke-width:0.6;stroke-dasharray:2.0,2.0;" x1="214.2" x2="289.8" y1="417.4512" y2="417.4512"/><text fill="#000000" font-family="sans-serif" font-size="7.8" font-weight="bold" lengthAdjust="spacing" textLength="8.4" x="221.4" y="414.2936">13</text><text fill="#000000" font-family="sans-serif" font-size="7.8" lengthAdjust="spacing" textLength="51" x="232.2" y="414.2936">200: passages</text><polygon fill="#181818" points="69,444.2004,63,446.6004,69,449.0004,66.6,446.6004" style="stroke:#181818;stroke-width:0.6;"/><line style="stroke:#181818;stroke-width:0.6;stroke-dasharray:2.0,2.0;" x1="65.4" x2="204.6" y1="446.6004" y2="446.6004"/><text fill="#000000" font-family="sans-serif" font-size="7.8" font-weight="bold" lengthAdjust="spacing" textLength="8.4" x="72.6" y="438.2555">14</text><text fill="#000000" font-family="sans-serif" font-size="7.8" lengthAdjust="spacing" textLength="89.4" x="83.4" y="433.0682">shows passages between</text><text fill="#000000" font-family="sans-serif" font-size="7.8" lengthAdjust="spacing" textLength="45" x="85.8" y="443.4428">two buildings</text><!--SRC=[dLInJiCm4Dtz5QTEC5IaLGLI1fQ244CdwCRYnfVMKcm7dqr_7oULapXAe6eM9_RTkxltdiEzCzgh0rh6UE6CXSMMgzeJxBZcHxGBu0IUmd7DhPE5hBbsNT3-_N8k9qztB-sf4Yss_E4EMoW8JrXX-Hmo8OTAaeEQ4uM210TqPqGDxcpWu6Kbf3vIczE3IDPkj42omL4YuBozVi93cjAcLQu3kgDxqCP1QRmMNKG2hjBz48rWvV7am9INEeG8-mzOFMKWJE4LQiUTD3h9QvuGlOn3Rh9D3cYjiIo9Q_flOW8VEKXT6gje78SLOS_5HFF3GkiiomV49N42vyPCsg2JETEW8DS2B7vx94UDBco45VKOYbgSZ26aVsISKp6wWKt9mn9fYQkUd5bMDgjrf7zwx37v2VT2bYNQe7DVAEaXjZjlhx-jj7wysaetEIaPfhjfL_Yeq-5s6uqlzjVKrUuQ73GKt-EQ6cxu5Vuflm00]--></g></svg>