<?xml version="1.0" encoding="us-ascii" standalone="no"?><svg xmlns="http://www.w3.org/2000/svg" xmlns:xlink="http://www.w3.org/1999/xlink" contentStyleType="text/css" height="375px" preserveAspectRatio="none" style="width:441px;height:375px;background:#FFFFFF;" version="1.1" viewBox="0 0 441 375" width="441px" zoomAndPan="magnify"><defs/><g><rect fill="#FFFFFF" height="192.8184" style="stroke:#181818;stroke-width:1.0;" width="10" x="78" y="91.4883"/><rect fill="#FFFFFF" height="29.3105" style="stroke:#181818;stroke-width:1.0;" width="10" x="340" y="112.7988"/><rect fill="#FFFFFF" height="112.8867" style="stroke:#181818;stroke-width:1.0;" width="10" x="340" y="171.4199"/><rect fill="none" height="90.8867" style="stroke:#000000;stroke-width:1.5;" width="424" x="10" y="186.4199"/><line style="stroke:#181818;stroke-width:0.5;stroke-dasharray:5.0,5.0;" x1="83" x2="83" y1="81.4883" y2="294.3066"/><line style="stroke:#181818;stroke-width:0.5;stroke-dasharray:5.0,5.0;" x1="345" x2="345" y1="81.4883" y2="294.3066"/><text fill="#000000" font-family="sans-serif" font-size="14" lengthAdjust="spacing" textLength="120" x="20" y="78.5352">Campus Manager</text><ellipse cx="83" cy="13.5" fill="#E2E2F0" rx="8" ry="8" style="stroke:#181818;stroke-width:0.5;"/><path d="M83,21.5 L83,48.5 M70,29.5 L96,29.5 M83,48.5 L70,63.5 M83,48.5 L96,63.5 " fill="none" style="stroke:#181818;stroke-width:0.5;"/><text fill="#000000" font-family="sans-serif" font-size="14" lengthAdjust="spacing" textLength="120" x="20" y="306.8418">Campus Manager</text><ellipse cx="83" cy="318.2949" fill="#E2E2F0" rx="8" ry="8" style="stroke:#181818;stroke-width:0.5;"/><path d="M83,326.2949 L83,353.2949 M70,334.2949 L96,334.2949 M83,353.2949 L70,368.2949 M83,353.2949 L96,368.2949 " fill="none" style="stroke:#181818;stroke-width:0.5;"/><rect fill="#E2E2F0" height="46.9766" rx="2.5" ry="2.5" style="stroke:#181818;stroke-width:0.5;" width="158" x="266" y="33.5117"/><text fill="#000000" font-family="sans-serif" font-size="14" lengthAdjust="spacing" textLength="61" x="314.5" y="54.0469">&#171;system&#187;</text><text fill="#000000" font-family="sans-serif" font-size="14" lengthAdjust="spacing" textLength="140" x="277" y="70.5352">System RobDroneGo</text><rect fill="#E2E2F0" height="46.9766" rx="2.5" ry="2.5" style="stroke:#181818;stroke-width:0.5;" width="158" x="266" y="293.3066"/><text fill="#000000" font-family="sans-serif" font-size="14" lengthAdjust="spacing" textLength="61" x="314.5" y="313.8418">&#171;system&#187;</text><text fill="#000000" font-family="sans-serif" font-size="14" lengthAdjust="spacing" textLength="140" x="277" y="330.3301">System RobDroneGo</text><rect fill="#FFFFFF" height="192.8184" style="stroke:#181818;stroke-width:1.0;" width="10" x="78" y="91.4883"/><rect fill="#FFFFFF" height="29.3105" style="stroke:#181818;stroke-width:1.0;" width="10" x="340" y="112.7988"/><rect fill="#FFFFFF" height="112.8867" style="stroke:#181818;stroke-width:1.0;" width="10" x="340" y="171.4199"/><polygon fill="#181818" points="328,108.7988,338,112.7988,328,116.7988,332,112.7988" style="stroke:#181818;stroke-width:1.0;"/><line style="stroke:#181818;stroke-width:1.0;" x1="88" x2="334" y1="112.7988" y2="112.7988"/><text fill="#000000" font-family="sans-serif" font-size="13" font-weight="bold" lengthAdjust="spacing" textLength="9" x="95" y="108.0566">1</text><text fill="#000000" font-family="sans-serif" font-size="13" lengthAdjust="spacing" textLength="220" x="108" y="108.0566">wants to list floors from a building</text><polygon fill="#181818" points="99,138.1094,89,142.1094,99,146.1094,95,142.1094" style="stroke:#181818;stroke-width:1.0;"/><line style="stroke:#181818;stroke-width:1.0;stroke-dasharray:2.0,2.0;" x1="93" x2="344" y1="142.1094" y2="142.1094"/><text fill="#000000" font-family="sans-serif" font-size="13" font-weight="bold" lengthAdjust="spacing" textLength="9" x="105" y="137.3672">2</text><text fill="#000000" font-family="sans-serif" font-size="13" lengthAdjust="spacing" textLength="110" x="118" y="137.3672">requests building</text><polygon fill="#181818" points="328,167.4199,338,171.4199,328,175.4199,332,171.4199" style="stroke:#181818;stroke-width:1.0;"/><line style="stroke:#181818;stroke-width:1.0;" x1="88" x2="334" y1="171.4199" y2="171.4199"/><text fill="#000000" font-family="sans-serif" font-size="13" font-weight="bold" lengthAdjust="spacing" textLength="9" x="95" y="166.6777">3</text><text fill="#000000" font-family="sans-serif" font-size="13" lengthAdjust="spacing" textLength="110" x="108" y="166.6777">provides building</text><path d="M10,186.4199 L72,186.4199 L72,193.7305 L62,203.7305 L10,203.7305 L10,186.4199 " fill="#EEEEEE" style="stroke:#000000;stroke-width:1.5;"/><rect fill="none" height="90.8867" style="stroke:#000000;stroke-width:1.5;" width="424" x="10" y="186.4199"/><text fill="#000000" font-family="sans-serif" font-size="13" font-weight="bold" lengthAdjust="spacing" textLength="17" x="25" y="199.9883">alt</text><text fill="#000000" font-family="sans-serif" font-size="11" font-weight="bold" lengthAdjust="spacing" textLength="51" x="87" y="199.0547">[success]</text><polygon fill="#181818" points="99,221.041,89,225.041,99,229.041,95,225.041" style="stroke:#181818;stroke-width:1.0;"/><line style="stroke:#181818;stroke-width:1.0;stroke-dasharray:2.0,2.0;" x1="93" x2="339" y1="225.041" y2="225.041"/><text fill="#000000" font-family="sans-serif" font-size="13" font-weight="bold" lengthAdjust="spacing" textLength="9" x="105" y="220.2988">4</text><text fill="#000000" font-family="sans-serif" font-size="13" lengthAdjust="spacing" textLength="68" x="118" y="220.2988">lists floors</text><line style="stroke:#000000;stroke-width:1.0;stroke-dasharray:2.0,2.0;" x1="10" x2="434" y1="234.041" y2="234.041"/><text fill="#000000" font-family="sans-serif" font-size="11" font-weight="bold" lengthAdjust="spacing" textLength="109" x="15" y="244.6758">[floor(s) not found]</text><polygon fill="#181818" points="99,265.3066,89,269.3066,99,273.3066,95,269.3066" style="stroke:#181818;stroke-width:1.0;"/><line style="stroke:#181818;stroke-width:1.0;stroke-dasharray:2.0,2.0;" x1="93" x2="339" y1="269.3066" y2="269.3066"/><text fill="#000000" font-family="sans-serif" font-size="13" font-weight="bold" lengthAdjust="spacing" textLength="9" x="105" y="264.5645">5</text><text fill="#000000" font-family="sans-serif" font-size="13" lengthAdjust="spacing" textLength="83" x="118" y="264.5645">informs error</text><!--SRC=[XP2nQiGm38RtFCLFfdQu5pYEB2rqwjAkjoY9SXXiAvNiAttxshvGci9HWS6oz7_IRyf9OWuZQzVHb4JHFr5Oi-6L8brOUv0XMoclfCbDRgMOq9zEzcM9mp2S8zxR5MyoFgj4Vf4cAWsDwQwKk27AmM6e1HpnMJY69F3E4XOleeP59O0mPkTd5oyTIlmWAX1RLCQXi2ho2EMFp5PmE-7CEsbxswsmgbpTpFRFFF89bgU9xTxyQi4s3ws5lV4jVx17H2a69SVvZjp5HJGOM5Nqfjzw_rZubTR__0O0]--></g></svg>