<?xml version="1.0" encoding="us-ascii" standalone="no"?><svg xmlns="http://www.w3.org/2000/svg" xmlns:xlink="http://www.w3.org/1999/xlink" contentStyleType="text/css" height="461px" preserveAspectRatio="none" style="width:569px;height:461px;background:#FFFFFF;" version="1.1" viewBox="0 0 569 461" width="569px" zoomAndPan="magnify"><defs/><g><rect fill="#FFFFFF" height="274.959" style="stroke:#181818;stroke-width:1.0;" width="10" x="64" y="93.6211"/><rect fill="#FFFFFF" height="251.668" style="stroke:#181818;stroke-width:1.0;" width="10" x="259" y="116.9121"/><rect fill="#FFFFFF" height="174.0859" style="stroke:#181818;stroke-width:1.0;" width="10" x="369" y="148.2031"/><rect fill="none" height="161.0859" style="stroke:#000000;stroke-width:1.5;" width="391.5" x="10" y="200.4941"/><line style="stroke:#181818;stroke-width:0.5;stroke-dasharray:5.0,5.0;" x1="69" x2="69" y1="83.6211" y2="378.5801"/><line style="stroke:#181818;stroke-width:0.5;stroke-dasharray:5.0,5.0;" x1="264" x2="264" y1="83.6211" y2="378.5801"/><line style="stroke:#181818;stroke-width:0.5;stroke-dasharray:5.0,5.0;" x1="373.5" x2="373.5" y1="83.6211" y2="378.5801"/><text fill="#000000" font-family="sans-serif" font-size="14" lengthAdjust="spacing" textLength="92" x="20" y="80.1074">Fleet Manager</text><ellipse cx="69" cy="13.5" fill="#E2E2F0" rx="8" ry="8" style="stroke:#181818;stroke-width:0.5;"/><path d="M69,21.5 L69,48.5 M56,29.5 L82,29.5 M69,48.5 L56,63.5 M69,48.5 L82,63.5 " fill="none" style="stroke:#181818;stroke-width:0.5;"/><text fill="#000000" font-family="sans-serif" font-size="14" lengthAdjust="spacing" textLength="92" x="20" y="392.6875">Fleet Manager</text><ellipse cx="69" cy="404.7012" fill="#E2E2F0" rx="8" ry="8" style="stroke:#181818;stroke-width:0.5;"/><path d="M69,412.7012 L69,439.7012 M56,420.7012 L82,420.7012 M69,439.7012 L56,454.7012 M69,439.7012 L82,454.7012 " fill="none" style="stroke:#181818;stroke-width:0.5;"/><rect fill="#E2E2F0" height="32.6211" rx="2.5" ry="2.5" style="stroke:#181818;stroke-width:0.5;" width="32" x="248" y="50"/><text fill="#000000" font-family="sans-serif" font-size="14" lengthAdjust="spacing" textLength="18" x="255" y="72.1074">FE</text><rect fill="#E2E2F0" height="32.6211" rx="2.5" ry="2.5" style="stroke:#181818;stroke-width:0.5;" width="32" x="248" y="377.5801"/><text fill="#000000" font-family="sans-serif" font-size="14" lengthAdjust="spacing" textLength="18" x="255" y="399.6875">FE</text><rect fill="#E2E2F0" height="32.6211" rx="2.5" ry="2.5" style="stroke:#181818;stroke-width:0.5;" width="35" x="356.5" y="50"/><text fill="#000000" font-family="sans-serif" font-size="14" lengthAdjust="spacing" textLength="21" x="363.5" y="72.1074">MD</text><rect fill="#E2E2F0" height="32.6211" rx="2.5" ry="2.5" style="stroke:#181818;stroke-width:0.5;" width="35" x="356.5" y="377.5801"/><text fill="#000000" font-family="sans-serif" font-size="14" lengthAdjust="spacing" textLength="21" x="363.5" y="399.6875">MD</text><rect fill="#FFFFFF" height="274.959" style="stroke:#181818;stroke-width:1.0;" width="10" x="64" y="93.6211"/><rect fill="#FFFFFF" height="251.668" style="stroke:#181818;stroke-width:1.0;" width="10" x="259" y="116.9121"/><rect fill="#FFFFFF" height="174.0859" style="stroke:#181818;stroke-width:1.0;" width="10" x="369" y="148.2031"/><polygon fill="#181818" points="247,112.9121,257,116.9121,247,120.9121,251,116.9121" style="stroke:#181818;stroke-width:1.0;"/><line style="stroke:#181818;stroke-width:1.0;" x1="74" x2="253" y1="116.9121" y2="116.9121"/><text fill="#000000" font-family="sans-serif" font-size="13" font-weight="bold" lengthAdjust="spacing" textLength="7" x="81" y="111.6494">1</text><text fill="#000000" font-family="sans-serif" font-size="13" lengthAdjust="spacing" textLength="155" x="92" y="111.6494">wants to list all fleet robots</text><polygon fill="#181818" points="357,144.2031,367,148.2031,357,152.2031,361,148.2031" style="stroke:#181818;stroke-width:1.0;"/><line style="stroke:#181818;stroke-width:1.0;" x1="269" x2="363" y1="148.2031" y2="148.2031"/><text fill="#000000" font-family="sans-serif" font-size="13" font-weight="bold" lengthAdjust="spacing" textLength="7" x="276" y="142.9404">2</text><text fill="#000000" font-family="sans-serif" font-size="13" lengthAdjust="spacing" textLength="70" x="287" y="142.9404">GET /robots</text><path d="M384,161.2031 L384,188.2031 L562,188.2031 L562,171.2031 L552,161.2031 L384,161.2031 " fill="#FEFFDD" style="stroke:#181818;stroke-width:0.5;"/><path d="M552,161.2031 L552,171.2031 L562,171.2031 L552,161.2031 " fill="#FEFFDD" style="stroke:#181818;stroke-width:0.5;"/><text fill="#000000" font-family="sans-serif" font-size="13" lengthAdjust="spacing" textLength="157" x="390" y="180.2314">see US 380 documentation</text><path d="M10,200.4941 L71,200.4941 L71,209.7852 L61,219.7852 L10,219.7852 L10,200.4941 " fill="#EEEEEE" style="stroke:#000000;stroke-width:1.5;"/><rect fill="none" height="161.0859" style="stroke:#000000;stroke-width:1.5;" width="391.5" x="10" y="200.4941"/><text fill="#000000" font-family="sans-serif" font-size="13" font-weight="bold" lengthAdjust="spacing" textLength="16" x="25" y="215.5225">alt</text><text fill="#000000" font-family="sans-serif" font-size="11" font-weight="bold" lengthAdjust="spacing" textLength="109" x="86" y="214.3643">[robot(s) not found]</text><polygon fill="#181818" points="280,239.0762,270,243.0762,280,247.0762,276,243.0762" style="stroke:#181818;stroke-width:1.0;"/><line style="stroke:#181818;stroke-width:1.0;stroke-dasharray:2.0,2.0;" x1="274" x2="368" y1="243.0762" y2="243.0762"/><text fill="#000000" font-family="sans-serif" font-size="13" font-weight="bold" lengthAdjust="spacing" textLength="7" x="286" y="237.8135">3</text><text fill="#000000" font-family="sans-serif" font-size="13" lengthAdjust="spacing" textLength="55" x="297" y="237.8135">404: error</text><polygon fill="#181818" points="85,270.3672,75,274.3672,85,278.3672,81,274.3672" style="stroke:#181818;stroke-width:1.0;"/><line style="stroke:#181818;stroke-width:1.0;stroke-dasharray:2.0,2.0;" x1="79" x2="258" y1="274.3672" y2="274.3672"/><text fill="#000000" font-family="sans-serif" font-size="13" font-weight="bold" lengthAdjust="spacing" textLength="7" x="91" y="269.1045">4</text><text fill="#000000" font-family="sans-serif" font-size="13" lengthAdjust="spacing" textLength="147" x="102" y="269.1045">informs robot(s) not found</text><line style="stroke:#000000;stroke-width:1.0;stroke-dasharray:2.0,2.0;" x1="10" x2="401.5" y1="283.3672" y2="283.3672"/><text fill="#000000" font-family="sans-serif" font-size="11" font-weight="bold" lengthAdjust="spacing" textLength="88" x="15" y="295.2373">[robot(s) found]</text><polygon fill="#181818" points="280,318.2891,270,322.2891,280,326.2891,276,322.2891" style="stroke:#181818;stroke-width:1.0;"/><line style="stroke:#181818;stroke-width:1.0;stroke-dasharray:2.0,2.0;" x1="274" x2="373" y1="322.2891" y2="322.2891"/><text fill="#000000" font-family="sans-serif" font-size="13" font-weight="bold" lengthAdjust="spacing" textLength="7" x="286" y="317.0264">5</text><text fill="#000000" font-family="sans-serif" font-size="13" lengthAdjust="spacing" textLength="65" x="297" y="317.0264">200: robots</text><polygon fill="#181818" points="85,349.5801,75,353.5801,85,357.5801,81,353.5801" style="stroke:#181818;stroke-width:1.0;"/><line style="stroke:#181818;stroke-width:1.0;stroke-dasharray:2.0,2.0;" x1="79" x2="258" y1="353.5801" y2="353.5801"/><text fill="#000000" font-family="sans-serif" font-size="13" font-weight="bold" lengthAdjust="spacing" textLength="7" x="91" y="348.3174">6</text><text fill="#000000" font-family="sans-serif" font-size="13" lengthAdjust="spacing" textLength="77" x="102" y="348.3174">shows robots</text><!--SRC=[TL6zSi8m3Dxp53ecEd3DjGmz3vqAdPZQFe195F2TOt6I0gzVsU4dvOeNM_x-9DiFIcdejyXLvHibXjaw8YfiVF8xv1buWK4CFNZMq8I3JsgSrGY4wWxOV1IWRujTE7h58WTRjiFYtKJWu6Hi0IM8GHHyZD2LMAOjgHJwJMyfHH-ol6yTVAw-uVa_gkNcEf6TEUps2jJPfGKA8lnymUjR3IqrGuz9lGPAexMFv-YvF6KrT3IaqIilSrXSEb_MImV8J7o5SsCP5dOGKaVSooCtZ88tx46AWvUwTjEtQF5-nB-vUS0zdUIYkLBmx3yniEUSLlOvlm00]--></g></svg>