<?xml version="1.0" encoding="us-ascii" standalone="no"?><svg xmlns="http://www.w3.org/2000/svg" xmlns:xlink="http://www.w3.org/1999/xlink" contentStyleType="text/css" height="1001px" preserveAspectRatio="none" style="width:593px;height:1000px;background:#FFFFFF;" version="1.1" viewBox="0 0 593 1000" width="593.6px" zoomAndPan="magnify"><defs/><g><rect fill="#FFFFFF" height="870.5416" style="stroke:#181818;stroke-width:0.6999999999999998;" width="7" x="79.8" y="65.5348"/><rect fill="#FFFFFF" height="217.6166" style="stroke:#181818;stroke-width:0.6999999999999998;" width="7" x="248.5" y="81.8385"/><rect fill="#FFFFFF" height="165.6676" style="stroke:#181818;stroke-width:0.6999999999999998;" width="7" x="248.5" y="321.3588"/><rect fill="#FFFFFF" height="21.9037" style="stroke:#181818;stroke-width:0.6999999999999998;" width="7" x="248.5" y="508.9301"/><rect fill="#FFFFFF" height="378.4389" style="stroke:#181818;stroke-width:0.6999999999999998;" width="7" x="248.5" y="552.7375"/><rect fill="#FFFFFF" height="162.1676" style="stroke:#181818;stroke-width:0.6999999999999998;" width="7" x="425.6" y="103.7422"/><rect fill="#FFFFFF" height="121.8602" style="stroke:#181818;stroke-width:0.6999999999999998;" width="7" x="425.6" y="343.2625"/><rect fill="#FFFFFF" height="121.8602" style="stroke:#181818;stroke-width:0.6999999999999998;" width="7" x="425.6" y="574.6412"/><rect fill="#FFFFFF" height="121.8602" style="stroke:#181818;stroke-width:0.6999999999999998;" width="7" x="425.6" y="762.2125"/><rect fill="none" height="790.8305" style="stroke:#000000;stroke-width:1.0499999999999998;" width="581.7" x="7" y="140.3459"/><rect fill="none" height="690.174" style="stroke:#000000;stroke-width:1.0499999999999998;" width="567.7" x="14" y="236.1023"/><rect fill="none" height="541.5102" style="stroke:#000000;stroke-width:1.0499999999999998;" width="553.7" x="21" y="379.8662"/><rect fill="none" height="305.2314" style="stroke:#000000;stroke-width:1.0499999999999998;" width="539.7" x="28" y="611.2449"/><rect fill="none" height="112.7602" style="stroke:#000000;stroke-width:1.0499999999999998;" width="432.95" x="35" y="798.8162"/><line style="stroke:#181818;stroke-width:0.3499999999999999;stroke-dasharray:5.0,5.0;" x1="83.3" x2="83.3" y1="58.5348" y2="943.0764"/><line style="stroke:#181818;stroke-width:0.3499999999999999;stroke-dasharray:5.0,5.0;" x1="252" x2="252" y1="58.5348" y2="943.0764"/><line style="stroke:#181818;stroke-width:0.3499999999999999;stroke-dasharray:5.0,5.0;" x1="428.75" x2="428.75" y1="58.5348" y2="943.0764"/><text fill="#000000" font-family="sans-serif" font-size="9.8" lengthAdjust="spacing" textLength="78.4" x="42" y="56.0752">Campus Manager</text><ellipse cx="83.3" cy="9.45" fill="#E2E2F0" rx="5.6" ry="5.6" style="stroke:#181818;stroke-width:0.3499999999999999;"/><path d="M83.3,15.05 L83.3,33.95 M74.2,20.65 L92.4,20.65 M83.3,33.95 L74.2,44.45 M83.3,33.95 L92.4,44.45 " fill="none" style="stroke:#181818;stroke-width:0.3499999999999999;"/><text fill="#000000" font-family="sans-serif" font-size="9.8" lengthAdjust="spacing" textLength="78.4" x="42" y="952.9516">Campus Manager</text><ellipse cx="83.3" cy="961.3611" fill="#E2E2F0" rx="5.6" ry="5.6" style="stroke:#181818;stroke-width:0.3499999999999999;"/><path d="M83.3,966.9611 L83.3,985.8611 M74.2,972.5611 L92.4,972.5611 M83.3,985.8611 L74.2,996.3611 M83.3,985.8611 L92.4,996.3611 " fill="none" style="stroke:#181818;stroke-width:0.3499999999999999;"/><rect fill="#E2E2F0" height="22.8348" rx="1.75" ry="1.75" style="stroke:#181818;stroke-width:0.3499999999999999;" width="57.4" x="223.3" y="35"/><text fill="#000000" font-family="sans-serif" font-size="9.8" lengthAdjust="spacing" textLength="47.6" x="228.2" y="50.4752">Campus UI</text><rect fill="#E2E2F0" height="22.8348" rx="1.75" ry="1.75" style="stroke:#181818;stroke-width:0.3499999999999999;" width="57.4" x="223.3" y="942.3764"/><text fill="#000000" font-family="sans-serif" font-size="9.8" lengthAdjust="spacing" textLength="47.6" x="228.2" y="957.8516">Campus UI</text><rect fill="#E2E2F0" height="22.8348" rx="1.75" ry="1.75" style="stroke:#181818;stroke-width:0.3499999999999999;" width="63.7" x="397.25" y="35"/><text fill="#000000" font-family="sans-serif" font-size="9.8" lengthAdjust="spacing" textLength="53.9" x="402.15" y="50.4752">Campus MD</text><rect fill="#E2E2F0" height="22.8348" rx="1.75" ry="1.75" style="stroke:#181818;stroke-width:0.3499999999999999;" width="63.7" x="397.25" y="942.3764"/><text fill="#000000" font-family="sans-serif" font-size="9.8" lengthAdjust="spacing" textLength="53.9" x="402.15" y="957.8516">Campus MD</text><rect fill="#FFFFFF" height="870.5416" style="stroke:#181818;stroke-width:0.6999999999999998;" width="7" x="79.8" y="65.5348"/><rect fill="#FFFFFF" height="217.6166" style="stroke:#181818;stroke-width:0.6999999999999998;" width="7" x="248.5" y="81.8385"/><rect fill="#FFFFFF" height="165.6676" style="stroke:#181818;stroke-width:0.6999999999999998;" width="7" x="248.5" y="321.3588"/><rect fill="#FFFFFF" height="21.9037" style="stroke:#181818;stroke-width:0.6999999999999998;" width="7" x="248.5" y="508.9301"/><rect fill="#FFFFFF" height="378.4389" style="stroke:#181818;stroke-width:0.6999999999999998;" width="7" x="248.5" y="552.7375"/><rect fill="#FFFFFF" height="162.1676" style="stroke:#181818;stroke-width:0.6999999999999998;" width="7" x="425.6" y="103.7422"/><rect fill="#FFFFFF" height="121.8602" style="stroke:#181818;stroke-width:0.6999999999999998;" width="7" x="425.6" y="343.2625"/><rect fill="#FFFFFF" height="121.8602" style="stroke:#181818;stroke-width:0.6999999999999998;" width="7" x="425.6" y="574.6412"/><rect fill="#FFFFFF" height="121.8602" style="stroke:#181818;stroke-width:0.6999999999999998;" width="7" x="425.6" y="762.2125"/><polygon fill="#181818" points="240.1,79.0385,247.1,81.8385,240.1,84.6385,242.9,81.8385" style="stroke:#181818;stroke-width:0.6999999999999998;"/><line style="stroke:#181818;stroke-width:0.6999999999999998;" x1="86.8" x2="244.3" y1="81.8385" y2="81.8385"/><text fill="#000000" font-family="sans-serif" font-size="9.1" font-weight="bold" lengthAdjust="spacing" textLength="4.9" x="91.7" y="78.1546">1</text><text fill="#000000" font-family="sans-serif" font-size="9.1" lengthAdjust="spacing" textLength="99.4" x="99.4" y="78.1546">wants to create passage</text><polygon fill="#181818" points="417.2,100.9422,424.2,103.7422,417.2,106.5422,420,103.7422" style="stroke:#181818;stroke-width:0.6999999999999998;"/><line style="stroke:#181818;stroke-width:0.6999999999999998;" x1="255.5" x2="421.4" y1="103.7422" y2="103.7422"/><text fill="#000000" font-family="sans-serif" font-size="9.1" font-weight="bold" lengthAdjust="spacing" textLength="4.9" x="260.4" y="100.0583">2</text><text fill="#000000" font-family="sans-serif" font-size="9.1" lengthAdjust="spacing" textLength="59.5" x="268.1" y="100.0583">GET /buildings</text><path d="M436.1,112.8422 L436.1,131.7422 L560.7,131.7422 L560.7,119.8422 L553.7,112.8422 L436.1,112.8422 " fill="#FEFFDD" style="stroke:#181818;stroke-width:0.3499999999999999;"/><path d="M553.7,112.8422 L553.7,119.8422 L560.7,119.8422 L553.7,112.8422 " fill="#FEFFDD" style="stroke:#181818;stroke-width:0.3499999999999999;"/><text fill="#000000" font-family="sans-serif" font-size="9.1" lengthAdjust="spacing" textLength="109.9" x="440.3" y="126.162">see US 170 documentation</text><path d="M7,140.3459 L49.7,140.3459 L49.7,146.8496 L42.7,153.8496 L7,153.8496 L7,140.3459 " fill="#EEEEEE" style="stroke:#000000;stroke-width:1.0499999999999998;"/><rect fill="none" height="790.8305" style="stroke:#000000;stroke-width:1.0499999999999998;" width="581.7" x="7" y="140.3459"/><text fill="#000000" font-family="sans-serif" font-size="9.1" font-weight="bold" lengthAdjust="spacing" textLength="11.2" x="17.5" y="150.8657">alt</text><text fill="#000000" font-family="sans-serif" font-size="7.7" font-weight="bold" lengthAdjust="spacing" textLength="80.5" x="60.2" y="150.055">[buildings not found]</text><polygon fill="#181818" points="263.2,167.3533,256.2,170.1533,263.2,172.9533,260.4,170.1533" style="stroke:#181818;stroke-width:0.6999999999999998;"/><line style="stroke:#181818;stroke-width:0.6999999999999998;stroke-dasharray:2.0,2.0;" x1="259" x2="424.9" y1="170.1533" y2="170.1533"/><text fill="#000000" font-family="sans-serif" font-size="9.1" font-weight="bold" lengthAdjust="spacing" textLength="4.9" x="267.4" y="166.4694">3</text><text fill="#000000" font-family="sans-serif" font-size="9.1" lengthAdjust="spacing" textLength="38.5" x="275.1" y="166.4694">404: error</text><polygon fill="#181818" points="94.5,189.257,87.5,192.057,94.5,194.857,91.7,192.057" style="stroke:#181818;stroke-width:0.6999999999999998;"/><line style="stroke:#181818;stroke-width:0.6999999999999998;stroke-dasharray:2.0,2.0;" x1="90.3" x2="247.8" y1="192.057" y2="192.057"/><text fill="#000000" font-family="sans-serif" font-size="9.1" font-weight="bold" lengthAdjust="spacing" textLength="4.9" x="98.7" y="188.3731">4</text><text fill="#000000" font-family="sans-serif" font-size="9.1" lengthAdjust="spacing" textLength="50.4" x="106.4" y="188.3731">informs error</text><line style="stroke:#000000;stroke-width:0.6999999999999998;stroke-dasharray:2.0,2.0;" x1="7" x2="588.7" y1="198.357" y2="198.357"/><text fill="#000000" font-family="sans-serif" font-size="7.7" font-weight="bold" lengthAdjust="spacing" textLength="65.8" x="10.5" y="206.6661">[buildings found]</text><polygon fill="#181818" points="263.2,222.8023,256.2,225.6023,263.2,228.4023,260.4,225.6023" style="stroke:#181818;stroke-width:0.6999999999999998;"/><line style="stroke:#181818;stroke-width:0.6999999999999998;stroke-dasharray:2.0,2.0;" x1="259" x2="424.9" y1="225.6023" y2="225.6023"/><text fill="#000000" font-family="sans-serif" font-size="9.1" font-weight="bold" lengthAdjust="spacing" textLength="4.9" x="267.4" y="221.9185">5</text><text fill="#000000" font-family="sans-serif" font-size="9.1" lengthAdjust="spacing" textLength="56" x="275.1" y="221.9185">200: buildings</text><path d="M14,236.1023 L56.7,236.1023 L56.7,242.6061 L49.7,249.6061 L14,249.6061 L14,236.1023 " fill="#EEEEEE" style="stroke:#000000;stroke-width:1.0499999999999998;"/><rect fill="none" height="690.174" style="stroke:#000000;stroke-width:1.0499999999999998;" width="567.7" x="14" y="236.1023"/><text fill="#000000" font-family="sans-serif" font-size="9.1" font-weight="bold" lengthAdjust="spacing" textLength="11.2" x="24.5" y="246.6222">alt</text><text fill="#000000" font-family="sans-serif" font-size="7.7" font-weight="bold" lengthAdjust="spacing" textLength="60.9" x="67.2" y="245.8114">[only 1 building]</text><polygon fill="#181818" points="94.5,263.1098,87.5,265.9098,94.5,268.7098,91.7,265.9098" style="stroke:#181818;stroke-width:0.6999999999999998;"/><line style="stroke:#181818;stroke-width:0.6999999999999998;stroke-dasharray:2.0,2.0;" x1="90.3" x2="247.8" y1="265.9098" y2="265.9098"/><text fill="#000000" font-family="sans-serif" font-size="9.1" font-weight="bold" lengthAdjust="spacing" textLength="4.9" x="98.7" y="262.2259">6</text><text fill="#000000" font-family="sans-serif" font-size="9.1" lengthAdjust="spacing" textLength="50.4" x="106.4" y="262.2259">informs error</text><line style="stroke:#000000;stroke-width:0.6999999999999998;stroke-dasharray:2.0,2.0;" x1="14" x2="581.7" y1="272.2098" y2="272.2098"/><text fill="#000000" font-family="sans-serif" font-size="7.7" font-weight="bold" lengthAdjust="spacing" textLength="81.2" x="17.5" y="280.5188">[2 or more buildings]</text><polygon fill="#181818" points="94.5,296.6551,87.5,299.4551,94.5,302.2551,91.7,299.4551" style="stroke:#181818;stroke-width:0.6999999999999998;"/><line style="stroke:#181818;stroke-width:0.6999999999999998;stroke-dasharray:2.0,2.0;" x1="90.3" x2="251.3" y1="299.4551" y2="299.4551"/><text fill="#000000" font-family="sans-serif" font-size="9.1" font-weight="bold" lengthAdjust="spacing" textLength="4.9" x="98.7" y="295.7712">7</text><text fill="#000000" font-family="sans-serif" font-size="9.1" lengthAdjust="spacing" textLength="132.3" x="106.4" y="295.7712">shows buildings and request one</text><polygon fill="#181818" points="240.1,318.5588,247.1,321.3588,240.1,324.1588,242.9,321.3588" style="stroke:#181818;stroke-width:0.6999999999999998;"/><line style="stroke:#181818;stroke-width:0.6999999999999998;" x1="86.8" x2="244.3" y1="321.3588" y2="321.3588"/><text fill="#000000" font-family="sans-serif" font-size="9.1" font-weight="bold" lengthAdjust="spacing" textLength="4.9" x="91.7" y="317.6749">8</text><text fill="#000000" font-family="sans-serif" font-size="9.1" lengthAdjust="spacing" textLength="72.8" x="99.4" y="317.6749">chooses building1</text><polygon fill="#181818" points="417.2,340.4625,424.2,343.2625,417.2,346.0625,420,343.2625" style="stroke:#181818;stroke-width:0.6999999999999998;"/><line style="stroke:#181818;stroke-width:0.6999999999999998;" x1="255.5" x2="421.4" y1="343.2625" y2="343.2625"/><text fill="#000000" font-family="sans-serif" font-size="9.1" font-weight="bold" lengthAdjust="spacing" textLength="4.9" x="260.4" y="339.5786">9</text><text fill="#000000" font-family="sans-serif" font-size="9.1" lengthAdjust="spacing" textLength="144.2" x="268.1" y="339.5786">GET /buildings/{buildingCode}/floors</text><path d="M436.1,352.3625 L436.1,371.2625 L560.7,371.2625 L560.7,359.3625 L553.7,352.3625 L436.1,352.3625 " fill="#FEFFDD" style="stroke:#181818;stroke-width:0.3499999999999999;"/><path d="M553.7,352.3625 L553.7,359.3625 L560.7,359.3625 L553.7,352.3625 " fill="#FEFFDD" style="stroke:#181818;stroke-width:0.3499999999999999;"/><text fill="#000000" font-family="sans-serif" font-size="9.1" lengthAdjust="spacing" textLength="109.9" x="440.3" y="365.6823">see US 210 documentation</text><path d="M21,379.8662 L63.7,379.8662 L63.7,386.3699 L56.7,393.3699 L21,393.3699 L21,379.8662 " fill="#EEEEEE" style="stroke:#000000;stroke-width:1.0499999999999998;"/><rect fill="none" height="541.5102" style="stroke:#000000;stroke-width:1.0499999999999998;" width="553.7" x="21" y="379.8662"/><text fill="#000000" font-family="sans-serif" font-size="9.1" font-weight="bold" lengthAdjust="spacing" textLength="11.2" x="31.5" y="390.386">alt</text><text fill="#000000" font-family="sans-serif" font-size="7.7" font-weight="bold" lengthAdjust="spacing" textLength="67.9" x="74.2" y="389.5753">[floors not found]</text><polygon fill="#181818" points="263.2,406.8736,256.2,409.6736,263.2,412.4736,260.4,409.6736" style="stroke:#181818;stroke-width:0.6999999999999998;"/><line style="stroke:#181818;stroke-width:0.6999999999999998;stroke-dasharray:2.0,2.0;" x1="259" x2="424.9" y1="409.6736" y2="409.6736"/><text fill="#000000" font-family="sans-serif" font-size="9.1" font-weight="bold" lengthAdjust="spacing" textLength="9.8" x="267.4" y="405.9897">10</text><text fill="#000000" font-family="sans-serif" font-size="9.1" lengthAdjust="spacing" textLength="38.5" x="280" y="405.9897">404: error</text><polygon fill="#181818" points="94.5,428.7773,87.5,431.5773,94.5,434.3773,91.7,431.5773" style="stroke:#181818;stroke-width:0.6999999999999998;"/><line style="stroke:#181818;stroke-width:0.6999999999999998;stroke-dasharray:2.0,2.0;" x1="90.3" x2="247.8" y1="431.5773" y2="431.5773"/><text fill="#000000" font-family="sans-serif" font-size="9.1" font-weight="bold" lengthAdjust="spacing" textLength="9.8" x="98.7" y="427.8935">11</text><text fill="#000000" font-family="sans-serif" font-size="9.1" lengthAdjust="spacing" textLength="50.4" x="111.3" y="427.8935">informs error</text><line style="stroke:#000000;stroke-width:0.6999999999999998;stroke-dasharray:2.0,2.0;" x1="21" x2="574.7" y1="437.8773" y2="437.8773"/><text fill="#000000" font-family="sans-serif" font-size="7.7" font-weight="bold" lengthAdjust="spacing" textLength="53.2" x="24.5" y="446.1864">[floors found]</text><polygon fill="#181818" points="263.2,462.3227,256.2,465.1227,263.2,467.9227,260.4,465.1227" style="stroke:#181818;stroke-width:0.6999999999999998;"/><line style="stroke:#181818;stroke-width:0.6999999999999998;stroke-dasharray:2.0,2.0;" x1="259" x2="428.4" y1="465.1227" y2="465.1227"/><text fill="#000000" font-family="sans-serif" font-size="9.1" font-weight="bold" lengthAdjust="spacing" textLength="9.8" x="267.4" y="461.4388">12</text><text fill="#000000" font-family="sans-serif" font-size="9.1" lengthAdjust="spacing" textLength="42" x="280" y="461.4388">200: floors</text><polygon fill="#181818" points="94.5,484.2264,87.5,487.0264,94.5,489.8264,91.7,487.0264" style="stroke:#181818;stroke-width:0.6999999999999998;"/><line style="stroke:#181818;stroke-width:0.6999999999999998;stroke-dasharray:2.0,2.0;" x1="90.3" x2="251.3" y1="487.0264" y2="487.0264"/><text fill="#000000" font-family="sans-serif" font-size="9.1" font-weight="bold" lengthAdjust="spacing" textLength="9.8" x="98.7" y="483.3425">13</text><text fill="#000000" font-family="sans-serif" font-size="9.1" lengthAdjust="spacing" textLength="121.1" x="111.3" y="483.3425">shows floors and request data</text><polygon fill="#181818" points="240.1,506.1301,247.1,508.9301,240.1,511.7301,242.9,508.9301" style="stroke:#181818;stroke-width:0.6999999999999998;"/><line style="stroke:#181818;stroke-width:0.6999999999999998;" x1="86.8" x2="244.3" y1="508.9301" y2="508.9301"/><text fill="#000000" font-family="sans-serif" font-size="9.1" font-weight="bold" lengthAdjust="spacing" textLength="9.8" x="91.7" y="505.2462">14</text><text fill="#000000" font-family="sans-serif" font-size="9.1" lengthAdjust="spacing" textLength="58.8" x="104.3" y="505.2462">chooses floor1</text><polygon fill="#181818" points="94.5,528.0338,87.5,530.8338,94.5,533.6338,91.7,530.8338" style="stroke:#181818;stroke-width:0.6999999999999998;"/><line style="stroke:#181818;stroke-width:0.6999999999999998;stroke-dasharray:2.0,2.0;" x1="90.3" x2="251.3" y1="530.8338" y2="530.8338"/><text fill="#000000" font-family="sans-serif" font-size="9.1" font-weight="bold" lengthAdjust="spacing" textLength="9.8" x="98.7" y="527.1499">15</text><text fill="#000000" font-family="sans-serif" font-size="9.1" lengthAdjust="spacing" textLength="132.3" x="111.3" y="527.1499">shows buildings and request one</text><polygon fill="#181818" points="240.1,549.9375,247.1,552.7375,240.1,555.5375,242.9,552.7375" style="stroke:#181818;stroke-width:0.6999999999999998;"/><line style="stroke:#181818;stroke-width:0.6999999999999998;" x1="86.8" x2="244.3" y1="552.7375" y2="552.7375"/><text fill="#000000" font-family="sans-serif" font-size="9.1" font-weight="bold" lengthAdjust="spacing" textLength="9.8" x="91.7" y="549.0536">16</text><text fill="#000000" font-family="sans-serif" font-size="9.1" lengthAdjust="spacing" textLength="72.8" x="104.3" y="549.0536">chooses building2</text><polygon fill="#181818" points="417.2,571.8412,424.2,574.6412,417.2,577.4412,420,574.6412" style="stroke:#181818;stroke-width:0.6999999999999998;"/><line style="stroke:#181818;stroke-width:0.6999999999999998;" x1="255.5" x2="421.4" y1="574.6412" y2="574.6412"/><text fill="#000000" font-family="sans-serif" font-size="9.1" font-weight="bold" lengthAdjust="spacing" textLength="9.8" x="260.4" y="570.9573">17</text><text fill="#000000" font-family="sans-serif" font-size="9.1" lengthAdjust="spacing" textLength="144.2" x="273" y="570.9573">GET /buildings/{buildingCode}/floors</text><path d="M436.1,583.7412 L436.1,602.6412 L560.7,602.6412 L560.7,590.7412 L553.7,583.7412 L436.1,583.7412 " fill="#FEFFDD" style="stroke:#181818;stroke-width:0.3499999999999999;"/><path d="M553.7,583.7412 L553.7,590.7412 L560.7,590.7412 L553.7,583.7412 " fill="#FEFFDD" style="stroke:#181818;stroke-width:0.3499999999999999;"/><text fill="#000000" font-family="sans-serif" font-size="9.1" lengthAdjust="spacing" textLength="109.9" x="440.3" y="597.061">see US 210 documentation</text><path d="M28,611.2449 L70.7,611.2449 L70.7,617.7486 L63.7,624.7486 L28,624.7486 L28,611.2449 " fill="#EEEEEE" style="stroke:#000000;stroke-width:1.0499999999999998;"/><rect fill="none" height="305.2314" style="stroke:#000000;stroke-width:1.0499999999999998;" width="539.7" x="28" y="611.2449"/><text fill="#000000" font-family="sans-serif" font-size="9.1" font-weight="bold" lengthAdjust="spacing" textLength="11.2" x="38.5" y="621.7647">alt</text><text fill="#000000" font-family="sans-serif" font-size="7.7" font-weight="bold" lengthAdjust="spacing" textLength="67.9" x="81.2" y="620.954">[floors not found]</text><polygon fill="#181818" points="263.2,638.2523,256.2,641.0523,263.2,643.8523,260.4,641.0523" style="stroke:#181818;stroke-width:0.6999999999999998;"/><line style="stroke:#181818;stroke-width:0.6999999999999998;stroke-dasharray:2.0,2.0;" x1="259" x2="424.9" y1="641.0523" y2="641.0523"/><text fill="#000000" font-family="sans-serif" font-size="9.1" font-weight="bold" lengthAdjust="spacing" textLength="9.8" x="267.4" y="637.3685">18</text><text fill="#000000" font-family="sans-serif" font-size="9.1" lengthAdjust="spacing" textLength="38.5" x="280" y="637.3685">404: error</text><polygon fill="#181818" points="94.5,660.1561,87.5,662.9561,94.5,665.7561,91.7,662.9561" style="stroke:#181818;stroke-width:0.6999999999999998;"/><line style="stroke:#181818;stroke-width:0.6999999999999998;stroke-dasharray:2.0,2.0;" x1="90.3" x2="247.8" y1="662.9561" y2="662.9561"/><text fill="#000000" font-family="sans-serif" font-size="9.1" font-weight="bold" lengthAdjust="spacing" textLength="9.8" x="98.7" y="659.2722">19</text><text fill="#000000" font-family="sans-serif" font-size="9.1" lengthAdjust="spacing" textLength="50.4" x="111.3" y="659.2722">informs error</text><line style="stroke:#000000;stroke-width:0.6999999999999998;stroke-dasharray:2.0,2.0;" x1="28" x2="567.7" y1="669.2561" y2="669.2561"/><text fill="#000000" font-family="sans-serif" font-size="7.7" font-weight="bold" lengthAdjust="spacing" textLength="53.2" x="31.5" y="677.5651">[floors found]</text><polygon fill="#181818" points="263.2,693.7014,256.2,696.5014,263.2,699.3014,260.4,696.5014" style="stroke:#181818;stroke-width:0.6999999999999998;"/><line style="stroke:#181818;stroke-width:0.6999999999999998;stroke-dasharray:2.0,2.0;" x1="259" x2="428.4" y1="696.5014" y2="696.5014"/><text fill="#000000" font-family="sans-serif" font-size="9.1" font-weight="bold" lengthAdjust="spacing" textLength="9.8" x="267.4" y="692.8175">20</text><text fill="#000000" font-family="sans-serif" font-size="9.1" lengthAdjust="spacing" textLength="42" x="280" y="692.8175">200: floors</text><polygon fill="#181818" points="94.5,715.6051,87.5,718.4051,94.5,721.2051,91.7,718.4051" style="stroke:#181818;stroke-width:0.6999999999999998;"/><line style="stroke:#181818;stroke-width:0.6999999999999998;stroke-dasharray:2.0,2.0;" x1="90.3" x2="247.8" y1="718.4051" y2="718.4051"/><text fill="#000000" font-family="sans-serif" font-size="9.1" font-weight="bold" lengthAdjust="spacing" textLength="9.8" x="98.7" y="714.7212">21</text><text fill="#000000" font-family="sans-serif" font-size="9.1" lengthAdjust="spacing" textLength="121.1" x="111.3" y="714.7212">shows floors and request data</text><polygon fill="#181818" points="240.1,737.5088,247.1,740.3088,240.1,743.1088,242.9,740.3088" style="stroke:#181818;stroke-width:0.6999999999999998;"/><line style="stroke:#181818;stroke-width:0.6999999999999998;" x1="86.8" x2="244.3" y1="740.3088" y2="740.3088"/><text fill="#000000" font-family="sans-serif" font-size="9.1" font-weight="bold" lengthAdjust="spacing" textLength="9.8" x="91.7" y="736.6249">22</text><text fill="#000000" font-family="sans-serif" font-size="9.1" lengthAdjust="spacing" textLength="53.9" x="104.3" y="736.6249">choose floor2</text><polygon fill="#181818" points="417.2,759.4125,424.2,762.2125,417.2,765.0125,420,762.2125" style="stroke:#181818;stroke-width:0.6999999999999998;"/><line style="stroke:#181818;stroke-width:0.6999999999999998;" x1="255.5" x2="421.4" y1="762.2125" y2="762.2125"/><text fill="#000000" font-family="sans-serif" font-size="9.1" font-weight="bold" lengthAdjust="spacing" textLength="9.8" x="260.4" y="758.5286">23</text><text fill="#000000" font-family="sans-serif" font-size="9.1" lengthAdjust="spacing" textLength="69.3" x="273" y="758.5286">POST /passages</text><path d="M436.1,771.3125 L436.1,790.2125 L560.7,790.2125 L560.7,778.3125 L553.7,771.3125 L436.1,771.3125 " fill="#FEFFDD" style="stroke:#181818;stroke-width:0.3499999999999999;"/><path d="M553.7,771.3125 L553.7,778.3125 L560.7,778.3125 L553.7,771.3125 " fill="#FEFFDD" style="stroke:#181818;stroke-width:0.3499999999999999;"/><text fill="#000000" font-family="sans-serif" font-size="9.1" lengthAdjust="spacing" textLength="109.9" x="440.3" y="784.6323">see US 240 documentation</text><path d="M35,798.8162 L77.7,798.8162 L77.7,805.3199 L70.7,812.3199 L35,812.3199 L35,798.8162 " fill="#EEEEEE" style="stroke:#000000;stroke-width:1.0499999999999998;"/><rect fill="none" height="112.7602" style="stroke:#000000;stroke-width:1.0499999999999998;" width="432.95" x="35" y="798.8162"/><text fill="#000000" font-family="sans-serif" font-size="9.1" font-weight="bold" lengthAdjust="spacing" textLength="11.2" x="45.5" y="809.336">alt</text><text fill="#000000" font-family="sans-serif" font-size="7.7" font-weight="bold" lengthAdjust="spacing" textLength="84.7" x="88.2" y="808.5253">[passage not created]</text><polygon fill="#181818" points="263.2,825.8236,256.2,828.6236,263.2,831.4236,260.4,828.6236" style="stroke:#181818;stroke-width:0.6999999999999998;"/><line style="stroke:#181818;stroke-width:0.6999999999999998;stroke-dasharray:2.0,2.0;" x1="259" x2="424.9" y1="828.6236" y2="828.6236"/><text fill="#000000" font-family="sans-serif" font-size="9.1" font-weight="bold" lengthAdjust="spacing" textLength="9.8" x="267.4" y="824.9397">24</text><text fill="#000000" font-family="sans-serif" font-size="9.1" lengthAdjust="spacing" textLength="38.5" x="280" y="824.9397">422: error</text><polygon fill="#181818" points="94.5,847.7273,87.5,850.5273,94.5,853.3273,91.7,850.5273" style="stroke:#181818;stroke-width:0.6999999999999998;"/><line style="stroke:#181818;stroke-width:0.6999999999999998;stroke-dasharray:2.0,2.0;" x1="90.3" x2="247.8" y1="850.5273" y2="850.5273"/><text fill="#000000" font-family="sans-serif" font-size="9.1" font-weight="bold" lengthAdjust="spacing" textLength="9.8" x="98.7" y="846.8435">25</text><text fill="#000000" font-family="sans-serif" font-size="9.1" lengthAdjust="spacing" textLength="50.4" x="111.3" y="846.8435">informs error</text><line style="stroke:#000000;stroke-width:0.6999999999999998;stroke-dasharray:2.0,2.0;" x1="35" x2="467.95" y1="856.8273" y2="856.8273"/><text fill="#000000" font-family="sans-serif" font-size="7.7" font-weight="bold" lengthAdjust="spacing" textLength="121.1" x="38.5" y="865.1364">[passage created successfully]</text><polygon fill="#181818" points="263.2,881.2727,256.2,884.0727,263.2,886.8727,260.4,884.0727" style="stroke:#181818;stroke-width:0.6999999999999998;"/><line style="stroke:#181818;stroke-width:0.6999999999999998;stroke-dasharray:2.0,2.0;" x1="259" x2="428.4" y1="884.0727" y2="884.0727"/><text fill="#000000" font-family="sans-serif" font-size="9.1" font-weight="bold" lengthAdjust="spacing" textLength="9.8" x="267.4" y="880.3888">26</text><text fill="#000000" font-family="sans-serif" font-size="9.1" lengthAdjust="spacing" textLength="54.6" x="280" y="880.3888">201: passage</text><polygon fill="#181818" points="94.5,903.1764,87.5,905.9764,94.5,908.7764,91.7,905.9764" style="stroke:#181818;stroke-width:0.6999999999999998;"/><line style="stroke:#181818;stroke-width:0.6999999999999998;stroke-dasharray:2.0,2.0;" x1="90.3" x2="247.8" y1="905.9764" y2="905.9764"/><text fill="#000000" font-family="sans-serif" font-size="9.1" font-weight="bold" lengthAdjust="spacing" textLength="9.8" x="98.7" y="902.2925">27</text><text fill="#000000" font-family="sans-serif" font-size="9.1" lengthAdjust="spacing" textLength="104.3" x="111.3" y="902.2925">previews created passage</text><!--SRC=[xPRBJiCm44Nt_OeHUzGcgeIK1Hj0Y0K22VW0aqnQIuadU6mGGlmxZlEeqxIa5InOa4sJpEEEVMxh2cj8sV8PzMmcKaCQJYv4MLc6Mw742lK920RBBbm9RMGgAw5Cd_HqqyJbpkZjfO-McUyjNuL1tmhSvJxXzDnLGW9lheZ14AGQwvnAC3jjdxSfbFxPrygwjCnSwVNL8yoVhImogLRSP_HLJXk2Iv5xf-LgRO3ofWCZmjC3H6SBo2Yr9IeZZ2GrspGh3FGITGl8oQfXOzVgr2ydWULYcG1gJNgGKGzTPx1EGAgSTCbRMLWm1aBVYBYnuyKYWV72ktb95UyGzGc3-67J3AQAmJcZ98rx93CCTtmsLgatUarl7AnFg0mqlbZaUjo6Tj37yHuP9LqJCMwQHCTRPFxHtLvGXf_pl23IFp5E7EqrJWUZqTZZdCFSSpWppwjLd53hRBIr1yT3RUL2efamOXBfXgZl4C6OmnRJezmqbfyoLFnlg3zjgDtsQT8RTW6d-xi71wezJ7v4P3b9f5NnI9fJx7ieSVmBK3hHLX3OfYaovxOetYSWHSdWbDrFQIUaIkEhHCUfK-vwZK-FBRk4pxlk1r_NvkUW3eMltH-8Bm00]--></g></svg>