<?xml version="1.0" encoding="us-ascii" standalone="no"?><svg xmlns="http://www.w3.org/2000/svg" xmlns:xlink="http://www.w3.org/1999/xlink" contentStyleType="text/css" height="514px" preserveAspectRatio="none" style="width:626px;height:514px;background:#FFFFFF;" version="1.1" viewBox="0 0 626 514" width="626px" zoomAndPan="magnify"><defs/><g><rect fill="#FFFFFF" height="318.7662" style="stroke:#181818;stroke-width:1.0;" width="10" x="22.5" y="94.0679"/><rect fill="#FFFFFF" height="31.706" style="stroke:#181818;stroke-width:1.0;" width="10" x="187.5" y="135.4799"/><rect fill="#FFFFFF" height="213.9421" style="stroke:#181818;stroke-width:1.0;" width="10" x="187.5" y="198.892"/><rect fill="#FFFFFF" height="150.5301" style="stroke:#181818;stroke-width:1.0;" width="10" x="326.5" y="230.598"/><rect fill="#FFFFFF" height="31.706" style="stroke:#181818;stroke-width:1.0;" width="10" x="592.5" y="262.304"/><line style="stroke:#181818;stroke-width:0.5;stroke-dasharray:5.0,5.0;" x1="27" x2="27" y1="84.0679" y2="430.8341"/><line style="stroke:#181818;stroke-width:0.5;stroke-dasharray:5.0,5.0;" x1="192" x2="192" y1="84.0679" y2="430.8341"/><line style="stroke:#181818;stroke-width:0.5;stroke-dasharray:5.0,5.0;" x1="331.5" x2="331.5" y1="84.0679" y2="430.8341"/><line style="stroke:#181818;stroke-width:0.5;stroke-dasharray:5.0,5.0;" x1="597" x2="597" y1="84.0679" y2="430.8341"/><text fill="#000000" font-family="sans-serif" font-size="14" lengthAdjust="spacing" textLength="39" x="5" y="79.9659">Client</text><ellipse cx="27.5" cy="13.5" fill="#E2E2F0" rx="8" ry="8" style="stroke:#181818;stroke-width:0.5;"/><path d="M27.5,21.5 L27.5,48.5 M14.5,29.5 L40.5,29.5 M27.5,48.5 L14.5,63.5 M27.5,48.5 L40.5,63.5 " fill="none" style="stroke:#181818;stroke-width:0.5;"/><text fill="#000000" font-family="sans-serif" font-size="14" lengthAdjust="spacing" textLength="39" x="5" y="444.8">Client</text><ellipse cx="27.5" cy="457.402" fill="#E2E2F0" rx="8" ry="8" style="stroke:#181818;stroke-width:0.5;"/><path d="M27.5,465.402 L27.5,492.402 M14.5,473.402 L40.5,473.402 M27.5,492.402 L14.5,507.402 M27.5,492.402 L40.5,507.402 " fill="none" style="stroke:#181818;stroke-width:0.5;"/><rect fill="#E2E2F0" height="33.0679" rx="2.5" ry="2.5" style="stroke:#181818;stroke-width:0.5;" width="39" x="173" y="50"/><text fill="#000000" font-family="sans-serif" font-size="14" lengthAdjust="spacing" textLength="25" x="180" y="71.9659">SPA</text><rect fill="#E2E2F0" height="33.0679" rx="2.5" ry="2.5" style="stroke:#181818;stroke-width:0.5;" width="39" x="173" y="429.8341"/><text fill="#000000" font-family="sans-serif" font-size="14" lengthAdjust="spacing" textLength="25" x="180" y="451.8">SPA</text><rect fill="#E2E2F0" height="33.0679" rx="2.5" ry="2.5" style="stroke:#181818;stroke-width:0.5;" width="46" x="308.5" y="50"/><text fill="#000000" font-family="sans-serif" font-size="14" lengthAdjust="spacing" textLength="32" x="315.5" y="71.9659">MDR</text><rect fill="#E2E2F0" height="33.0679" rx="2.5" ry="2.5" style="stroke:#181818;stroke-width:0.5;" width="46" x="308.5" y="429.8341"/><text fill="#000000" font-family="sans-serif" font-size="14" lengthAdjust="spacing" textLength="32" x="315.5" y="451.8">MDR</text><rect fill="#E2E2F0" height="33.0679" rx="2.5" ry="2.5" style="stroke:#181818;stroke-width:0.5;" width="45" x="575" y="50"/><text fill="#000000" font-family="sans-serif" font-size="14" lengthAdjust="spacing" textLength="31" x="582" y="71.9659">MDT</text><rect fill="#E2E2F0" height="33.0679" rx="2.5" ry="2.5" style="stroke:#181818;stroke-width:0.5;" width="45" x="575" y="429.8341"/><text fill="#000000" font-family="sans-serif" font-size="14" lengthAdjust="spacing" textLength="31" x="582" y="451.8">MDT</text><rect fill="#FFFFFF" height="318.7662" style="stroke:#181818;stroke-width:1.0;" width="10" x="22.5" y="94.0679"/><rect fill="#FFFFFF" height="31.706" style="stroke:#181818;stroke-width:1.0;" width="10" x="187.5" y="135.4799"/><rect fill="#FFFFFF" height="213.9421" style="stroke:#181818;stroke-width:1.0;" width="10" x="187.5" y="198.892"/><rect fill="#FFFFFF" height="150.5301" style="stroke:#181818;stroke-width:1.0;" width="10" x="326.5" y="230.598"/><rect fill="#FFFFFF" height="31.706" style="stroke:#181818;stroke-width:1.0;" width="10" x="592.5" y="262.304"/><polygon fill="#181818" points="175.5,131.4799,185.5,135.4799,175.5,139.4799,179.5,135.4799" style="stroke:#181818;stroke-width:1.0;"/><line style="stroke:#181818;stroke-width:1.0;" x1="32.5" x2="181.5" y1="135.4799" y2="135.4799"/><text fill="#000000" font-family="sans-serif" font-size="13" lengthAdjust="spacing" textLength="136" x="39.5" y="111.9649">wants to obtain a copy</text><text fill="#000000" font-family="sans-serif" font-size="13" lengthAdjust="spacing" textLength="128" x="39.5" y="129.6709">of their personal data</text><polygon fill="#181818" points="43.5,163.186,33.5,167.186,43.5,171.186,39.5,167.186" style="stroke:#181818;stroke-width:1.0;"/><line style="stroke:#181818;stroke-width:1.0;stroke-dasharray:2.0,2.0;" x1="37.5" x2="191.5" y1="167.186" y2="167.186"/><text fill="#000000" font-family="sans-serif" font-size="13" lengthAdjust="spacing" textLength="107" x="49.5" y="161.377">request password</text><polygon fill="#181818" points="175.5,194.892,185.5,198.892,175.5,202.892,179.5,198.892" style="stroke:#181818;stroke-width:1.0;"/><line style="stroke:#181818;stroke-width:1.0;" x1="32.5" x2="181.5" y1="198.892" y2="198.892"/><text fill="#000000" font-family="sans-serif" font-size="13" lengthAdjust="spacing" textLength="115" x="39.5" y="193.083">re-enters password</text><polygon fill="#181818" points="314.5,226.598,324.5,230.598,314.5,234.598,318.5,230.598" style="stroke:#181818;stroke-width:1.0;"/><line style="stroke:#181818;stroke-width:1.0;" x1="197.5" x2="320.5" y1="230.598" y2="230.598"/><text fill="#000000" font-family="sans-serif" font-size="13" lengthAdjust="spacing" textLength="110" x="204.5" y="224.789">POST /clients/data</text><polygon fill="#181818" points="580.5,258.304,590.5,262.304,580.5,266.304,584.5,262.304" style="stroke:#181818;stroke-width:1.0;"/><line style="stroke:#181818;stroke-width:1.0;" x1="336.5" x2="586.5" y1="262.304" y2="262.304"/><text fill="#000000" font-family="sans-serif" font-size="13" lengthAdjust="spacing" textLength="237" x="343.5" y="256.495">GET /jobs/filter/?filter=client&amp;rule=email</text><polygon fill="#181818" points="347.5,290.01,337.5,294.01,347.5,298.01,343.5,294.01" style="stroke:#181818;stroke-width:1.0;"/><line style="stroke:#181818;stroke-width:1.0;stroke-dasharray:2.0,2.0;" x1="341.5" x2="596.5" y1="294.01" y2="294.01"/><text fill="#000000" font-family="sans-serif" font-size="13" lengthAdjust="spacing" textLength="139" x="353.5" y="288.201">client's requested tasks</text><path d="M341,307.01 L341,352.01 L511,352.01 L511,317.01 L501,307.01 L341,307.01 " fill="#FEFFDD" style="stroke:#181818;stroke-width:0.5;"/><path d="M501,307.01 L501,317.01 L511,317.01 L501,307.01 " fill="#FEFFDD" style="stroke:#181818;stroke-width:0.5;"/><text fill="#000000" font-family="sans-serif" font-size="13" lengthAdjust="spacing" textLength="149" x="347" y="325.907">client data is also fetched</text><text fill="#000000" font-family="sans-serif" font-size="13" lengthAdjust="spacing" textLength="101" x="347" y="343.6131">from within MDR</text><polygon fill="#181818" points="208.5,377.1281,198.5,381.1281,208.5,385.1281,204.5,381.1281" style="stroke:#181818;stroke-width:1.0;"/><line style="stroke:#181818;stroke-width:1.0;stroke-dasharray:2.0,2.0;" x1="202.5" x2="330.5" y1="381.1281" y2="381.1281"/><text fill="#000000" font-family="sans-serif" font-size="13" lengthAdjust="spacing" textLength="62" x="214.5" y="375.3191">client data</text><polygon fill="#181818" points="38.5,408.8341,28.5,412.8341,38.5,416.8341,34.5,412.8341" style="stroke:#181818;stroke-width:1.0;"/><line style="stroke:#181818;stroke-width:1.0;stroke-dasharray:2.0,2.0;" x1="32.5" x2="191.5" y1="412.8341" y2="412.8341"/><text fill="#000000" font-family="sans-serif" font-size="13" lengthAdjust="spacing" textLength="62" x="44.5" y="407.0251">client data</text><!--SRC=[TP91JyCm38Nl-HNM3d2QUf-q8GI84s9YE-xYjIaDT4cnFIR-FKuwHh91Bb7p-Zuxpy5Q0i7ahdVMomIGOSza1YHnjHlG2qnMoziay82by7J_aeHTG-V2-YY8CLYB-qIn2GowT8Vf8k9W1WSrC4Y0i1Lq7X3gC7njV6X1Eki81aiSFFRGeA19W1CnTWJ75N5JnKRw3CX-x2qB3CXy2DIatnfRE2-R8JlL5BHWwRjqdGekukNLkNnUhQ6gKufS_RPQs6DEaAreJGHHmkE30jx2bglMzTf3TJFkyn5wHVlUpkqENMyAI4QNGXWhI0fbR78aNVDFEhO1GNxdmfQ5bCQNQpxeARdNJa3daqFJTC0nOCy1MYjrPvkDRodiuE2aqydgQp6Nrpzbdt7CdxsG-MVMvywpCMUVyGL-0m00]--></g></svg>