<?xml version="1.0" encoding="us-ascii" standalone="no"?><svg xmlns="http://www.w3.org/2000/svg" xmlns:xlink="http://www.w3.org/1999/xlink" contentStyleType="text/css" height="1350px" preserveAspectRatio="none" style="width:1803px;height:1350px;background:#FFFFFF;" version="1.1" viewBox="0 0 1803 1350" width="1803px" zoomAndPan="magnify"><defs/><g><!--cluster system--><g id="cluster_system"><path d="M8.5,6.602 L59.5,6.602 A3.75,3.75 0 0 1 62,9.102 L69,31.6699 L1793.5,31.6699 A2.5,2.5 0 0 1 1796,34.1699 L1796,1340.732 A2.5,2.5 0 0 1 1793.5,1343.232 L8.5,1343.232 A2.5,2.5 0 0 1 6,1340.732 L6,9.102 A2.5,2.5 0 0 1 8.5,6.602 " fill="none" style="stroke:#000000;stroke-width:1.5;"/><line style="stroke:#000000;stroke-width:1.5;" x1="6" x2="69" y1="31.6699" y2="31.6699"/><text fill="#000000" font-family="sans-serif" font-size="14" font-weight="bold" lengthAdjust="spacing" textLength="50" x="10" y="23.5679">system</text></g><!--cluster Infrastructure--><g id="cluster_Infrastructure"><path d="M229.5,52.602 L327.5,52.602 A3.75,3.75 0 0 1 330,55.102 L337,77.6699 L707.5,77.6699 A2.5,2.5 0 0 1 710,80.1699 L710,222.102 A2.5,2.5 0 0 1 707.5,224.602 L229.5,224.602 A2.5,2.5 0 0 1 227,222.102 L227,55.102 A2.5,2.5 0 0 1 229.5,52.602 " fill="none" style="stroke:#000000;stroke-width:1.5;"/><line style="stroke:#000000;stroke-width:1.5;" x1="227" x2="337" y1="77.6699" y2="77.6699"/><text fill="#000000" font-family="sans-serif" font-size="14" font-weight="bold" lengthAdjust="spacing" textLength="97" x="231" y="69.5679">Infrastructure</text></g><!--cluster Persistence--><g id="cluster_Persistence"><path d="M435.5,98.602 L515.5,98.602 A3.75,3.75 0 0 1 518,101.102 L525,123.6699 L683.5,123.6699 A2.5,2.5 0 0 1 686,126.1699 L686,198.102 A2.5,2.5 0 0 1 683.5,200.602 L435.5,200.602 A2.5,2.5 0 0 1 433,198.102 L433,101.102 A2.5,2.5 0 0 1 435.5,98.602 " fill="none" style="stroke:#000000;stroke-width:1.5;"/><line style="stroke:#000000;stroke-width:1.5;" x1="433" x2="525" y1="123.6699" y2="123.6699"/><text fill="#000000" font-family="sans-serif" font-size="14" font-weight="bold" lengthAdjust="spacing" textLength="79" x="437" y="115.5679">Persistence</text></g><!--cluster Routes--><g id="cluster_Routes"><path d="M253.5,98.602 L302.5,98.602 A3.75,3.75 0 0 1 305,101.102 L312,123.6699 L406.5,123.6699 A2.5,2.5 0 0 1 409,126.1699 L409,198.102 A2.5,2.5 0 0 1 406.5,200.602 L253.5,200.602 A2.5,2.5 0 0 1 251,198.102 L251,101.102 A2.5,2.5 0 0 1 253.5,98.602 " fill="none" style="stroke:#000000;stroke-width:1.5;"/><line style="stroke:#000000;stroke-width:1.5;" x1="251" x2="312" y1="123.6699" y2="123.6699"/><text fill="#000000" font-family="sans-serif" font-size="14" font-weight="bold" lengthAdjust="spacing" textLength="48" x="255" y="115.5679">Routes</text></g><!--cluster Interface Adapters--><g id="cluster_Interface Adapters"><path d="M32.5,248.602 L162.5,248.602 A3.75,3.75 0 0 1 165,251.102 L172,273.6699 L823.5,273.6699 A2.5,2.5 0 0 1 826,276.1699 L826,706.102 A2.5,2.5 0 0 1 823.5,708.602 L32.5,708.602 A2.5,2.5 0 0 1 30,706.102 L30,251.102 A2.5,2.5 0 0 1 32.5,248.602 " fill="none" style="stroke:#000000;stroke-width:1.5;"/><line style="stroke:#000000;stroke-width:1.5;" x1="30" x2="172" y1="273.6699" y2="273.6699"/><text fill="#000000" font-family="sans-serif" font-size="14" font-weight="bold" lengthAdjust="spacing" textLength="129" x="34" y="265.5679">Interface Adapters</text></g><!--cluster Controllers--><g id="cluster_Controllers"><path d="M56.5,294.602 L134.5,294.602 A3.75,3.75 0 0 1 137,297.102 L144,319.6699 L329.5,319.6699 A2.5,2.5 0 0 1 332,322.1699 L332,682.102 A2.5,2.5 0 0 1 329.5,684.602 L56.5,684.602 A2.5,2.5 0 0 1 54,682.102 L54,297.102 A2.5,2.5 0 0 1 56.5,294.602 " fill="none" style="stroke:#000000;stroke-width:1.5;"/><line style="stroke:#000000;stroke-width:1.5;" x1="54" x2="144" y1="319.6699" y2="319.6699"/><text fill="#000000" font-family="sans-serif" font-size="14" font-weight="bold" lengthAdjust="spacing" textLength="77" x="58" y="311.5679">Controllers</text></g><!--cluster IControllers--><g id="cluster_IControllers"><path d="M83.5,340.602 L166.5,340.602 A3.75,3.75 0 0 1 169,343.102 L176,365.6699 L304.5,365.6699 A2.5,2.5 0 0 1 307,368.1699 L307,440.102 A2.5,2.5 0 0 1 304.5,442.602 L83.5,442.602 A2.5,2.5 0 0 1 81,440.102 L81,343.102 A2.5,2.5 0 0 1 83.5,340.602 " fill="none" style="stroke:#000000;stroke-width:1.5;"/><line style="stroke:#000000;stroke-width:1.5;" x1="81" x2="176" y1="365.6699" y2="365.6699"/><text fill="#000000" font-family="sans-serif" font-size="14" font-weight="bold" lengthAdjust="spacing" textLength="82" x="85" y="357.5679">IControllers</text></g><!--cluster ImplControllers--><g id="cluster_ImplControllers"><path d="M80.5,558.602 L190.5,558.602 A3.75,3.75 0 0 1 193,561.102 L200,583.6699 L305.5,583.6699 A2.5,2.5 0 0 1 308,586.1699 L308,658.102 A2.5,2.5 0 0 1 305.5,660.602 L80.5,660.602 A2.5,2.5 0 0 1 78,658.102 L78,561.102 A2.5,2.5 0 0 1 80.5,558.602 " fill="none" style="stroke:#000000;stroke-width:1.5;"/><line style="stroke:#000000;stroke-width:1.5;" x1="78" x2="200" y1="583.6699" y2="583.6699"/><text fill="#000000" font-family="sans-serif" font-size="14" font-weight="bold" lengthAdjust="spacing" textLength="109" x="82" y="575.5679">ImplControllers</text></g><!--cluster Repositories--><g id="cluster_Repositories"><path d="M358.5,340.602 L445.5,340.602 A3.75,3.75 0 0 1 448,343.102 L455,365.6699 L799.5,365.6699 A2.5,2.5 0 0 1 802,368.1699 L802,440.102 A2.5,2.5 0 0 1 799.5,442.602 L358.5,442.602 A2.5,2.5 0 0 1 356,440.102 L356,343.102 A2.5,2.5 0 0 1 358.5,340.602 " fill="none" style="stroke:#000000;stroke-width:1.5;"/><line style="stroke:#000000;stroke-width:1.5;" x1="356" x2="455" y1="365.6699" y2="365.6699"/><text fill="#000000" font-family="sans-serif" font-size="14" font-weight="bold" lengthAdjust="spacing" textLength="86" x="360" y="357.5679">Repositories</text></g><!--cluster Application Services--><g id="cluster_Application Services"><path d="M852.5,466.602 L992.5,466.602 A3.75,3.75 0 0 1 995,469.102 L1002,491.6699 L1387.5,491.6699 A2.5,2.5 0 0 1 1390,494.1699 L1390,1112.972 A2.5,2.5 0 0 1 1387.5,1115.472 L852.5,1115.472 A2.5,2.5 0 0 1 850,1112.972 L850,469.102 A2.5,2.5 0 0 1 852.5,466.602 " fill="none" style="stroke:#000000;stroke-width:1.5;"/><line style="stroke:#000000;stroke-width:1.5;" x1="850" x2="1002" y1="491.6699" y2="491.6699"/><text fill="#000000" font-family="sans-serif" font-size="14" font-weight="bold" lengthAdjust="spacing" textLength="139" x="854" y="483.5679">Application Services</text></g><!--cluster App Services--><g id="cluster_App Services"><path d="M876.5,512.602 L965.5,512.602 A3.75,3.75 0 0 1 968,515.102 L975,537.6699 L1363.5,537.6699 A2.5,2.5 0 0 1 1366,540.1699 L1366,1088.972 A2.5,2.5 0 0 1 1363.5,1091.472 L876.5,1091.472 A2.5,2.5 0 0 1 874,1088.972 L874,515.102 A2.5,2.5 0 0 1 876.5,512.602 " fill="none" style="stroke:#000000;stroke-width:1.5;"/><line style="stroke:#000000;stroke-width:1.5;" x1="874" x2="975" y1="537.6699" y2="537.6699"/><text fill="#000000" font-family="sans-serif" font-size="14" font-weight="bold" lengthAdjust="spacing" textLength="88" x="878" y="529.5679">App Services</text></g><!--cluster IAppServices--><g id="cluster_IAppServices"><path d="M1028.5,965.472 L1118.5,965.472 A3.75,3.75 0 0 1 1121,967.972 L1128,990.5399 L1211.5,990.5399 A2.5,2.5 0 0 1 1214,993.0399 L1214,1064.972 A2.5,2.5 0 0 1 1211.5,1067.472 L1028.5,1067.472 A2.5,2.5 0 0 1 1026,1064.972 L1026,967.972 A2.5,2.5 0 0 1 1028.5,965.472 " fill="none" style="stroke:#000000;stroke-width:1.5;"/><line style="stroke:#000000;stroke-width:1.5;" x1="1026" x2="1128" y1="990.5399" y2="990.5399"/><text fill="#000000" font-family="sans-serif" font-size="14" font-weight="bold" lengthAdjust="spacing" textLength="89" x="1030" y="982.4379">IAppServices</text></g><!--cluster ImplAppServices--><g id="cluster_ImplAppServices"><path d="M1083.5,732.602 L1200.5,732.602 A3.75,3.75 0 0 1 1203,735.102 L1210,757.6699 L1272.5,757.6699 A2.5,2.5 0 0 1 1275,760.1699 L1275,832.102 A2.5,2.5 0 0 1 1272.5,834.602 L1083.5,834.602 A2.5,2.5 0 0 1 1081,832.102 L1081,735.102 A2.5,2.5 0 0 1 1083.5,732.602 " fill="none" style="stroke:#000000;stroke-width:1.5;"/><line style="stroke:#000000;stroke-width:1.5;" x1="1081" x2="1210" y1="757.6699" y2="757.6699"/><text fill="#000000" font-family="sans-serif" font-size="14" font-weight="bold" lengthAdjust="spacing" textLength="116" x="1085" y="749.5679">ImplAppServices</text></g><!--cluster IRepositories--><g id="cluster_IRepositories"><path d="M900.5,558.602 L992.5,558.602 A3.75,3.75 0 0 1 995,561.102 L1002,583.6699 L1339.5,583.6699 A2.5,2.5 0 0 1 1342,586.1699 L1342,658.102 A2.5,2.5 0 0 1 1339.5,660.602 L900.5,660.602 A2.5,2.5 0 0 1 898,658.102 L898,561.102 A2.5,2.5 0 0 1 900.5,558.602 " fill="none" style="stroke:#000000;stroke-width:1.5;"/><line style="stroke:#000000;stroke-width:1.5;" x1="898" x2="1002" y1="583.6699" y2="583.6699"/><text fill="#000000" font-family="sans-serif" font-size="14" font-weight="bold" lengthAdjust="spacing" textLength="91" x="902" y="575.5679">IRepositories</text></g><!--cluster Entities/Core/Domain--><g id="cluster_Entities/Core/Domain"><path d="M1416.5,858.602 L1567.5,858.602 A3.75,3.75 0 0 1 1570,861.102 L1577,883.6699 L1769.5,883.6699 A2.5,2.5 0 0 1 1772,886.1699 L1772,1316.732 A2.5,2.5 0 0 1 1769.5,1319.232 L1416.5,1319.232 A2.5,2.5 0 0 1 1414,1316.732 L1414,861.102 A2.5,2.5 0 0 1 1416.5,858.602 " fill="none" style="stroke:#000000;stroke-width:1.5;"/><line style="stroke:#000000;stroke-width:1.5;" x1="1414" x2="1577" y1="883.6699" y2="883.6699"/><text fill="#000000" font-family="sans-serif" font-size="14" font-weight="bold" lengthAdjust="spacing" textLength="150" x="1418" y="875.5679">Entities/Core/Domain</text></g><!--cluster Aggregates--><g id="cluster_Aggregates"><path d="M1440.5,904.602 L1521.5,904.602 A3.75,3.75 0 0 1 1524,907.102 L1531,929.6699 L1745.5,929.6699 A2.5,2.5 0 0 1 1748,932.1699 L1748,1292.732 A2.5,2.5 0 0 1 1745.5,1295.232 L1440.5,1295.232 A2.5,2.5 0 0 1 1438,1292.732 L1438,907.102 A2.5,2.5 0 0 1 1440.5,904.602 " fill="none" style="stroke:#000000;stroke-width:1.5;"/><line style="stroke:#000000;stroke-width:1.5;" x1="1438" x2="1531" y1="929.6699" y2="929.6699"/><text fill="#000000" font-family="sans-serif" font-size="14" font-weight="bold" lengthAdjust="spacing" textLength="80" x="1442" y="921.5679">Aggregates</text></g><!--cluster a_Passage--><g id="cluster_a_Passage"><path d="M1608.5,1139.472 L1665.5,1139.472 A3.75,3.75 0 0 1 1668,1141.972 L1675,1164.5399 L1721.5,1164.5399 A2.5,2.5 0 0 1 1724,1167.0399 L1724,1268.732 A2.5,2.5 0 0 1 1721.5,1271.232 L1608.5,1271.232 A2.5,2.5 0 0 1 1606,1268.732 L1606,1141.972 A2.5,2.5 0 0 1 1608.5,1139.472 " fill="none" style="stroke:#000000;stroke-width:1.5;"/><line style="stroke:#000000;stroke-width:1.5;" x1="1606" x2="1675" y1="1164.5399" y2="1164.5399"/><text fill="#000000" font-family="sans-serif" font-size="14" font-weight="bold" lengthAdjust="spacing" textLength="56" x="1610" y="1156.4379">Passage</text></g><!--cluster a_building--><g id="cluster_a_building"><path d="M1464.5,1139.472 L1522.5,1139.472 A3.75,3.75 0 0 1 1525,1141.972 L1532,1164.5399 L1579.5,1164.5399 A2.5,2.5 0 0 1 1582,1167.0399 L1582,1268.732 A2.5,2.5 0 0 1 1579.5,1271.232 L1464.5,1271.232 A2.5,2.5 0 0 1 1462,1268.732 L1462,1141.972 A2.5,2.5 0 0 1 1464.5,1139.472 " fill="none" style="stroke:#000000;stroke-width:1.5;"/><line style="stroke:#000000;stroke-width:1.5;" x1="1462" x2="1532" y1="1164.5399" y2="1164.5399"/><text fill="#000000" font-family="sans-serif" font-size="14" font-weight="bold" lengthAdjust="spacing" textLength="57" x="1466" y="1156.4379">Building</text></g><!--cluster a_floor--><g id="cluster_a_floor"><path d="M1473.5,950.602 L1510.5,950.602 A3.75,3.75 0 0 1 1513,953.102 L1520,975.6699 L1570.5,975.6699 A2.5,2.5 0 0 1 1573,978.1699 L1573,1079.852 A2.5,2.5 0 0 1 1570.5,1082.352 L1473.5,1082.352 A2.5,2.5 0 0 1 1471,1079.852 L1471,953.102 A2.5,2.5 0 0 1 1473.5,950.602 " fill="none" style="stroke:#000000;stroke-width:1.5;"/><line style="stroke:#000000;stroke-width:1.5;" x1="1471" x2="1520" y1="975.6699" y2="975.6699"/><text fill="#000000" font-family="sans-serif" font-size="14" font-weight="bold" lengthAdjust="spacing" textLength="36" x="1475" y="967.5679">Floor</text></g><!--cluster DTO--><g id="cluster_DTO"><path d="M542.5,965.472 L572.5,965.472 A3.75,3.75 0 0 1 575,967.972 L582,990.5399 L683.5,990.5399 A2.5,2.5 0 0 1 686,993.0399 L686,1064.972 A2.5,2.5 0 0 1 683.5,1067.472 L542.5,1067.472 A2.5,2.5 0 0 1 540,1064.972 L540,967.972 A2.5,2.5 0 0 1 542.5,965.472 " fill="none" style="stroke:#000000;stroke-width:1.5;"/><line style="stroke:#000000;stroke-width:1.5;" x1="540" x2="582" y1="990.5399" y2="990.5399"/><text fill="#000000" font-family="sans-serif" font-size="14" font-weight="bold" lengthAdjust="spacing" textLength="29" x="544" y="982.4379">DTO</text></g><!--class IDBDriver--><g id="elem_IDBDriver"><rect codeLine="17" fill="#F1F1F1" height="48" id="IDBDriver" rx="2.5" ry="2.5" style="stroke:#181818;stroke-width:0.5;" width="93" x="576.5" y="136.602"/><ellipse cx="591.5" cy="152.602" fill="#B4A7E5" rx="11" ry="11" style="stroke:#181818;stroke-width:1.0;"/><path d="M587.4219,159.602 L587.4219,157.7895 L590.2656,157.7895 L590.2656,148.0082 L587.4219,148.0082 L587.4219,146.1801 L595.2969,146.1801 L595.2969,148.0082 L592.4688,148.0082 L592.4688,157.7895 L595.2969,157.7895 L595.2969,159.602 L587.4219,159.602 Z " fill="#000000"/><text fill="#000000" font-family="sans-serif" font-size="14" font-style="italic" lengthAdjust="spacing" textLength="61" x="605.5" y="158.034">IDBDriver</text><line style="stroke:#181818;stroke-width:0.5;" x1="577.5" x2="668.5" y1="168.602" y2="168.602"/><line style="stroke:#181818;stroke-width:0.5;" x1="577.5" x2="668.5" y1="176.602" y2="176.602"/></g><!--class DBDriver--><g id="elem_DBDriver"><rect codeLine="18" fill="#F1F1F1" height="48" id="DBDriver" rx="2.5" ry="2.5" style="stroke:#181818;stroke-width:0.5;" width="92" x="449" y="136.602"/><ellipse cx="464" cy="152.602" fill="#ADD1B2" rx="11" ry="11" style="stroke:#181818;stroke-width:1.0;"/><path d="M466.5625,159.1176 Q464.9063,159.7426 463.7031,159.7426 Q462.125,159.7426 460.7813,158.8989 Q459.4531,158.0395 458.7188,156.3832 Q457.9844,154.727 457.9844,152.6489 Q457.9844,150.5864 458.7031,148.9301 Q459.4219,147.2739 460.7656,146.4145 Q462.1094,145.5551 463.7031,145.5551 Q464.9063,145.5551 466.5625,146.1645 L466.5625,148.352 Q464.875,147.3676 463.6406,147.3676 Q462.7344,147.3676 461.9688,148.0082 Q461.2188,148.6332 460.7344,149.8989 Q460.25,151.1489 460.25,152.6489 Q460.25,154.1645 460.75,155.4457 Q461.25,156.7114 462,157.3207 Q462.75,157.9301 463.6406,157.9301 Q464.875,157.9301 466.5625,156.9457 L466.5625,159.1176 Z " fill="#000000"/><text fill="#000000" font-family="sans-serif" font-size="14" lengthAdjust="spacing" textLength="60" x="478" y="158.034">DBDriver</text><line style="stroke:#181818;stroke-width:0.5;" x1="450" x2="540" y1="168.602" y2="168.602"/><line style="stroke:#181818;stroke-width:0.5;" x1="450" x2="540" y1="176.602" y2="176.602"/></g><!--class RoutePassage--><g id="elem_RoutePassage"><rect codeLine="22" fill="#F1F1F1" height="48" id="RoutePassage" rx="2.5" ry="2.5" style="stroke:#181818;stroke-width:0.5;" width="126" x="267" y="136.602"/><ellipse cx="282" cy="152.602" fill="#ADD1B2" rx="11" ry="11" style="stroke:#181818;stroke-width:1.0;"/><path d="M284.5625,159.1176 Q282.9063,159.7426 281.7031,159.7426 Q280.125,159.7426 278.7813,158.8989 Q277.4531,158.0395 276.7188,156.3832 Q275.9844,154.727 275.9844,152.6489 Q275.9844,150.5864 276.7031,148.9301 Q277.4219,147.2739 278.7656,146.4145 Q280.1094,145.5551 281.7031,145.5551 Q282.9063,145.5551 284.5625,146.1645 L284.5625,148.352 Q282.875,147.3676 281.6406,147.3676 Q280.7344,147.3676 279.9688,148.0082 Q279.2188,148.6332 278.7344,149.8989 Q278.25,151.1489 278.25,152.6489 Q278.25,154.1645 278.75,155.4457 Q279.25,156.7114 280,157.3207 Q280.75,157.9301 281.6406,157.9301 Q282.875,157.9301 284.5625,156.9457 L284.5625,159.1176 Z " fill="#000000"/><text fill="#000000" font-family="sans-serif" font-size="14" lengthAdjust="spacing" textLength="94" x="296" y="158.034">RoutePassage</text><line style="stroke:#181818;stroke-width:0.5;" x1="268" x2="392" y1="168.602" y2="168.602"/><line style="stroke:#181818;stroke-width:0.5;" x1="268" x2="392" y1="176.602" y2="176.602"/></g><!--class IControllerCreatePassage--><g id="elem_IControllerCreatePassage"><rect codeLine="31" fill="#F1F1F1" height="48" id="IControllerCreatePassage" rx="2.5" ry="2.5" style="stroke:#181818;stroke-width:0.5;" width="193" x="97.5" y="378.602"/><ellipse cx="112.5" cy="394.602" fill="#B4A7E5" rx="11" ry="11" style="stroke:#181818;stroke-width:1.0;"/><path d="M108.4219,401.602 L108.4219,399.7895 L111.2656,399.7895 L111.2656,390.0082 L108.4219,390.0082 L108.4219,388.1801 L116.2969,388.1801 L116.2969,390.0082 L113.4688,390.0082 L113.4688,399.7895 L116.2969,399.7895 L116.2969,401.602 L108.4219,401.602 Z " fill="#000000"/><text fill="#000000" font-family="sans-serif" font-size="14" font-style="italic" lengthAdjust="spacing" textLength="161" x="126.5" y="400.034">IControllerCreatePassage</text><line style="stroke:#181818;stroke-width:0.5;" x1="98.5" x2="289.5" y1="410.602" y2="410.602"/><line style="stroke:#181818;stroke-width:0.5;" x1="98.5" x2="289.5" y1="418.602" y2="418.602"/></g><!--class ControllerCreatePassage--><g id="elem_ControllerCreatePassage"><rect codeLine="35" fill="#F1F1F1" height="48" id="ControllerCreatePassage" rx="2.5" ry="2.5" style="stroke:#181818;stroke-width:0.5;" width="198" x="94" y="596.602"/><ellipse cx="109" cy="612.602" fill="#ADD1B2" rx="11" ry="11" style="stroke:#181818;stroke-width:1.0;"/><path d="M111.5625,619.1176 Q109.9063,619.7426 108.7031,619.7426 Q107.125,619.7426 105.7813,618.8989 Q104.4531,618.0395 103.7188,616.3832 Q102.9844,614.727 102.9844,612.6489 Q102.9844,610.5864 103.7031,608.9301 Q104.4219,607.2739 105.7656,606.4145 Q107.1094,605.5551 108.7031,605.5551 Q109.9063,605.5551 111.5625,606.1645 L111.5625,608.352 Q109.875,607.3676 108.6406,607.3676 Q107.7344,607.3676 106.9688,608.0082 Q106.2188,608.6332 105.7344,609.8989 Q105.25,611.1489 105.25,612.6489 Q105.25,614.1645 105.75,615.4457 Q106.25,616.7114 107,617.3207 Q107.75,617.9301 108.6406,617.9301 Q109.875,617.9301 111.5625,616.9457 L111.5625,619.1176 Z " fill="#000000"/><text fill="#000000" font-family="sans-serif" font-size="14" lengthAdjust="spacing" textLength="166" x="123" y="618.034">ControllerCreatePassage</text><line style="stroke:#181818;stroke-width:0.5;" x1="95" x2="291" y1="628.602" y2="628.602"/><line style="stroke:#181818;stroke-width:0.5;" x1="95" x2="291" y1="636.602" y2="636.602"/></g><!--class RepoBuilding--><g id="elem_RepoBuilding"><rect codeLine="41" fill="#F1F1F1" height="48" id="RepoBuilding" rx="2.5" ry="2.5" style="stroke:#181818;stroke-width:0.5;" width="123" x="506.5" y="378.602"/><ellipse cx="521.5" cy="394.602" fill="#ADD1B2" rx="11" ry="11" style="stroke:#181818;stroke-width:1.0;"/><path d="M524.0625,401.1176 Q522.4063,401.7426 521.2031,401.7426 Q519.625,401.7426 518.2813,400.8989 Q516.9531,400.0395 516.2188,398.3832 Q515.4844,396.727 515.4844,394.6489 Q515.4844,392.5864 516.2031,390.9301 Q516.9219,389.2739 518.2656,388.4145 Q519.6094,387.5551 521.2031,387.5551 Q522.4063,387.5551 524.0625,388.1645 L524.0625,390.352 Q522.375,389.3676 521.1406,389.3676 Q520.2344,389.3676 519.4688,390.0082 Q518.7188,390.6332 518.2344,391.8989 Q517.75,393.1489 517.75,394.6489 Q517.75,396.1645 518.25,397.4457 Q518.75,398.7114 519.5,399.3207 Q520.25,399.9301 521.1406,399.9301 Q522.375,399.9301 524.0625,398.9457 L524.0625,401.1176 Z " fill="#000000"/><text fill="#000000" font-family="sans-serif" font-size="14" lengthAdjust="spacing" textLength="91" x="535.5" y="400.034">RepoBuilding</text><line style="stroke:#181818;stroke-width:0.5;" x1="507.5" x2="628.5" y1="410.602" y2="410.602"/><line style="stroke:#181818;stroke-width:0.5;" x1="507.5" x2="628.5" y1="418.602" y2="418.602"/></g><!--class RepoFloor--><g id="elem_RepoFloor"><rect codeLine="42" fill="#F1F1F1" height="48" id="RepoFloor" rx="2.5" ry="2.5" style="stroke:#181818;stroke-width:0.5;" width="99" x="372.5" y="378.602"/><ellipse cx="387.5" cy="394.602" fill="#ADD1B2" rx="11" ry="11" style="stroke:#181818;stroke-width:1.0;"/><path d="M390.0625,401.1176 Q388.4063,401.7426 387.2031,401.7426 Q385.625,401.7426 384.2813,400.8989 Q382.9531,400.0395 382.2188,398.3832 Q381.4844,396.727 381.4844,394.6489 Q381.4844,392.5864 382.2031,390.9301 Q382.9219,389.2739 384.2656,388.4145 Q385.6094,387.5551 387.2031,387.5551 Q388.4063,387.5551 390.0625,388.1645 L390.0625,390.352 Q388.375,389.3676 387.1406,389.3676 Q386.2344,389.3676 385.4688,390.0082 Q384.7188,390.6332 384.2344,391.8989 Q383.75,393.1489 383.75,394.6489 Q383.75,396.1645 384.25,397.4457 Q384.75,398.7114 385.5,399.3207 Q386.25,399.9301 387.1406,399.9301 Q388.375,399.9301 390.0625,398.9457 L390.0625,401.1176 Z " fill="#000000"/><text fill="#000000" font-family="sans-serif" font-size="14" lengthAdjust="spacing" textLength="67" x="401.5" y="400.034">RepoFloor</text><line style="stroke:#181818;stroke-width:0.5;" x1="373.5" x2="470.5" y1="410.602" y2="410.602"/><line style="stroke:#181818;stroke-width:0.5;" x1="373.5" x2="470.5" y1="418.602" y2="418.602"/></g><!--class RepoPassage--><g id="elem_RepoPassage"><rect codeLine="43" fill="#F1F1F1" height="48" id="RepoPassage" rx="2.5" ry="2.5" style="stroke:#181818;stroke-width:0.5;" width="121" x="664.5" y="378.602"/><ellipse cx="679.5" cy="394.602" fill="#ADD1B2" rx="11" ry="11" style="stroke:#181818;stroke-width:1.0;"/><path d="M682.0625,401.1176 Q680.4063,401.7426 679.2031,401.7426 Q677.625,401.7426 676.2813,400.8989 Q674.9531,400.0395 674.2188,398.3832 Q673.4844,396.727 673.4844,394.6489 Q673.4844,392.5864 674.2031,390.9301 Q674.9219,389.2739 676.2656,388.4145 Q677.6094,387.5551 679.2031,387.5551 Q680.4063,387.5551 682.0625,388.1645 L682.0625,390.352 Q680.375,389.3676 679.1406,389.3676 Q678.2344,389.3676 677.4688,390.0082 Q676.7188,390.6332 676.2344,391.8989 Q675.75,393.1489 675.75,394.6489 Q675.75,396.1645 676.25,397.4457 Q676.75,398.7114 677.5,399.3207 Q678.25,399.9301 679.1406,399.9301 Q680.375,399.9301 682.0625,398.9457 L682.0625,401.1176 Z " fill="#000000"/><text fill="#000000" font-family="sans-serif" font-size="14" lengthAdjust="spacing" textLength="89" x="693.5" y="400.034">RepoPassage</text><line style="stroke:#181818;stroke-width:0.5;" x1="665.5" x2="784.5" y1="410.602" y2="410.602"/><line style="stroke:#181818;stroke-width:0.5;" x1="665.5" x2="784.5" y1="418.602" y2="418.602"/></g><!--class IAppServicePassage--><g id="elem_IAppServicePassage"><rect codeLine="56" fill="#F1F1F1" height="48" id="IAppServicePassage" rx="2.5" ry="2.5" style="stroke:#181818;stroke-width:0.5;" width="156" x="1042" y="1003.472"/><ellipse cx="1057" cy="1019.472" fill="#B4A7E5" rx="11" ry="11" style="stroke:#181818;stroke-width:1.0;"/><path d="M1052.9219,1026.472 L1052.9219,1024.6595 L1055.7656,1024.6595 L1055.7656,1014.8782 L1052.9219,1014.8782 L1052.9219,1013.0501 L1060.7969,1013.0501 L1060.7969,1014.8782 L1057.9688,1014.8782 L1057.9688,1024.6595 L1060.7969,1024.6595 L1060.7969,1026.472 L1052.9219,1026.472 Z " fill="#000000"/><text fill="#000000" font-family="sans-serif" font-size="14" font-style="italic" lengthAdjust="spacing" textLength="124" x="1071" y="1024.904">IAppServicePassage</text><line style="stroke:#181818;stroke-width:0.5;" x1="1043" x2="1197" y1="1035.472" y2="1035.472"/><line style="stroke:#181818;stroke-width:0.5;" x1="1043" x2="1197" y1="1043.472" y2="1043.472"/></g><!--class AppServicePassage--><g id="elem_AppServicePassage"><rect codeLine="60" fill="#F1F1F1" height="48" id="AppServicePassage" rx="2.5" ry="2.5" style="stroke:#181818;stroke-width:0.5;" width="162" x="1097" y="770.602"/><ellipse cx="1112" cy="786.602" fill="#ADD1B2" rx="11" ry="11" style="stroke:#181818;stroke-width:1.0;"/><path d="M1114.5625,793.1176 Q1112.9063,793.7426 1111.7031,793.7426 Q1110.125,793.7426 1108.7813,792.8989 Q1107.4531,792.0395 1106.7188,790.3832 Q1105.9844,788.727 1105.9844,786.6489 Q1105.9844,784.5864 1106.7031,782.9301 Q1107.4219,781.2739 1108.7656,780.4145 Q1110.1094,779.5551 1111.7031,779.5551 Q1112.9063,779.5551 1114.5625,780.1645 L1114.5625,782.352 Q1112.875,781.3676 1111.6406,781.3676 Q1110.7344,781.3676 1109.9688,782.0082 Q1109.2188,782.6332 1108.7344,783.8989 Q1108.25,785.1489 1108.25,786.6489 Q1108.25,788.1645 1108.75,789.4457 Q1109.25,790.7114 1110,791.3207 Q1110.75,791.9301 1111.6406,791.9301 Q1112.875,791.9301 1114.5625,790.9457 L1114.5625,793.1176 Z " fill="#000000"/><text fill="#000000" font-family="sans-serif" font-size="14" lengthAdjust="spacing" textLength="130" x="1126" y="792.034">AppServicePassage</text><line style="stroke:#181818;stroke-width:0.5;" x1="1098" x2="1258" y1="802.602" y2="802.602"/><line style="stroke:#181818;stroke-width:0.5;" x1="1098" x2="1258" y1="810.602" y2="810.602"/></g><!--class IRepoBuilding--><g id="elem_IRepoBuilding"><rect codeLine="66" fill="#F1F1F1" height="48" id="IRepoBuilding" rx="2.5" ry="2.5" style="stroke:#181818;stroke-width:0.5;" width="120" x="1051" y="596.602"/><ellipse cx="1066" cy="612.602" fill="#B4A7E5" rx="11" ry="11" style="stroke:#181818;stroke-width:1.0;"/><path d="M1061.9219,619.602 L1061.9219,617.7895 L1064.7656,617.7895 L1064.7656,608.0082 L1061.9219,608.0082 L1061.9219,606.1801 L1069.7969,606.1801 L1069.7969,608.0082 L1066.9688,608.0082 L1066.9688,617.7895 L1069.7969,617.7895 L1069.7969,619.602 L1061.9219,619.602 Z " fill="#000000"/><text fill="#000000" font-family="sans-serif" font-size="14" font-style="italic" lengthAdjust="spacing" textLength="88" x="1080" y="618.034">IRepoBuilding</text><line style="stroke:#181818;stroke-width:0.5;" x1="1052" x2="1170" y1="628.602" y2="628.602"/><line style="stroke:#181818;stroke-width:0.5;" x1="1052" x2="1170" y1="636.602" y2="636.602"/></g><!--class IRepoFloor--><g id="elem_IRepoFloor"><rect codeLine="67" fill="#F1F1F1" height="48" id="IRepoFloor" rx="2.5" ry="2.5" style="stroke:#181818;stroke-width:0.5;" width="101" x="914.5" y="596.602"/><ellipse cx="929.5" cy="612.602" fill="#B4A7E5" rx="11" ry="11" style="stroke:#181818;stroke-width:1.0;"/><path d="M925.4219,619.602 L925.4219,617.7895 L928.2656,617.7895 L928.2656,608.0082 L925.4219,608.0082 L925.4219,606.1801 L933.2969,606.1801 L933.2969,608.0082 L930.4688,608.0082 L930.4688,617.7895 L933.2969,617.7895 L933.2969,619.602 L925.4219,619.602 Z " fill="#000000"/><text fill="#000000" font-family="sans-serif" font-size="14" font-style="italic" lengthAdjust="spacing" textLength="69" x="943.5" y="618.034">IRepoFloor</text><line style="stroke:#181818;stroke-width:0.5;" x1="915.5" x2="1014.5" y1="628.602" y2="628.602"/><line style="stroke:#181818;stroke-width:0.5;" x1="915.5" x2="1014.5" y1="636.602" y2="636.602"/></g><!--class IRepoPassage--><g id="elem_IRepoPassage"><rect codeLine="68" fill="#F1F1F1" height="48" id="IRepoPassage" rx="2.5" ry="2.5" style="stroke:#181818;stroke-width:0.5;" width="119" x="1206.5" y="596.602"/><ellipse cx="1221.5" cy="612.602" fill="#B4A7E5" rx="11" ry="11" style="stroke:#181818;stroke-width:1.0;"/><path d="M1217.4219,619.602 L1217.4219,617.7895 L1220.2656,617.7895 L1220.2656,608.0082 L1217.4219,608.0082 L1217.4219,606.1801 L1225.2969,606.1801 L1225.2969,608.0082 L1222.4688,608.0082 L1222.4688,617.7895 L1225.2969,617.7895 L1225.2969,619.602 L1217.4219,619.602 Z " fill="#000000"/><text fill="#000000" font-family="sans-serif" font-size="14" font-style="italic" lengthAdjust="spacing" textLength="87" x="1235.5" y="618.034">IRepoPassage</text><line style="stroke:#181818;stroke-width:0.5;" x1="1207.5" x2="1324.5" y1="628.602" y2="628.602"/><line style="stroke:#181818;stroke-width:0.5;" x1="1207.5" x2="1324.5" y1="636.602" y2="636.602"/></g><!--class Passage--><g id="elem_Passage"><rect codeLine="87" fill="#F1F1F1" height="77.7561" id="Passage" rx="2.5" ry="2.5" style="stroke:#181818;stroke-width:0.5;" width="87" x="1621.5" y="1177.472"/><ellipse cx="1636.5" cy="1208.3501" fill="#ADD1B2" rx="11" ry="11" style="stroke:#181818;stroke-width:1.0;"/><path d="M1639.6719,1213.3969 L1639.6719,1215.3501 L1632.1875,1215.3501 L1632.1875,1201.9282 L1639.5469,1201.9282 L1639.5469,1203.7563 L1634.3906,1203.7563 L1634.3906,1207.6001 L1639.0313,1207.6001 L1639.0313,1209.4282 L1634.3906,1209.4282 L1634.3906,1213.3969 L1639.6719,1213.3969 Z " fill="#000000"/><text fill="#000000" font-family="sans-serif" font-size="12" font-style="italic" lengthAdjust="spacing" textLength="35" x="1660.5" y="1195.3001">&#171;root&#187;</text><text fill="#000000" font-family="sans-serif" font-size="12" font-style="italic" lengthAdjust="spacing" textLength="42" x="1657" y="1211.6442">&#171;entity&#187;</text><text fill="#000000" font-family="sans-serif" font-size="14" lengthAdjust="spacing" textLength="55" x="1650.5" y="1230.1261">Passage</text><line style="stroke:#181818;stroke-width:0.5;" x1="1622.5" x2="1707.5" y1="1239.2281" y2="1239.2281"/><line style="stroke:#181818;stroke-width:0.5;" x1="1622.5" x2="1707.5" y1="1247.2281" y2="1247.2281"/></g><!--class Building--><g id="elem_Building"><rect codeLine="91" fill="#F1F1F1" height="77.7561" id="Building" rx="2.5" ry="2.5" style="stroke:#181818;stroke-width:0.5;" width="89" x="1477.5" y="1177.472"/><ellipse cx="1492.5" cy="1208.3501" fill="#ADD1B2" rx="11" ry="11" style="stroke:#181818;stroke-width:1.0;"/><path d="M1495.6719,1213.3969 L1495.6719,1215.3501 L1488.1875,1215.3501 L1488.1875,1201.9282 L1495.5469,1201.9282 L1495.5469,1203.7563 L1490.3906,1203.7563 L1490.3906,1207.6001 L1495.0313,1207.6001 L1495.0313,1209.4282 L1490.3906,1209.4282 L1490.3906,1213.3969 L1495.6719,1213.3969 Z " fill="#000000"/><text fill="#000000" font-family="sans-serif" font-size="12" font-style="italic" lengthAdjust="spacing" textLength="35" x="1517.5" y="1195.3001">&#171;root&#187;</text><text fill="#000000" font-family="sans-serif" font-size="12" font-style="italic" lengthAdjust="spacing" textLength="42" x="1514" y="1211.6442">&#171;entity&#187;</text><text fill="#000000" font-family="sans-serif" font-size="14" lengthAdjust="spacing" textLength="57" x="1506.5" y="1230.1261">Building</text><line style="stroke:#181818;stroke-width:0.5;" x1="1478.5" x2="1565.5" y1="1239.2281" y2="1239.2281"/><line style="stroke:#181818;stroke-width:0.5;" x1="1478.5" x2="1565.5" y1="1247.2281" y2="1247.2281"/></g><!--class Floor--><g id="elem_Floor"><rect codeLine="95" fill="#F1F1F1" height="77.7561" id="Floor" rx="2.5" ry="2.5" style="stroke:#181818;stroke-width:0.5;" width="70" x="1487" y="988.602"/><ellipse cx="1502" cy="1019.4801" fill="#ADD1B2" rx="11" ry="11" style="stroke:#181818;stroke-width:1.0;"/><path d="M1505.1719,1024.5269 L1505.1719,1026.4801 L1497.6875,1026.4801 L1497.6875,1013.0582 L1505.0469,1013.0582 L1505.0469,1014.8863 L1499.8906,1014.8863 L1499.8906,1018.7301 L1504.5313,1018.7301 L1504.5313,1020.5582 L1499.8906,1020.5582 L1499.8906,1024.5269 L1505.1719,1024.5269 Z " fill="#000000"/><text fill="#000000" font-family="sans-serif" font-size="12" font-style="italic" lengthAdjust="spacing" textLength="35" x="1517.5" y="1006.4301">&#171;root&#187;</text><text fill="#000000" font-family="sans-serif" font-size="12" font-style="italic" lengthAdjust="spacing" textLength="42" x="1514" y="1022.7742">&#171;entity&#187;</text><text fill="#000000" font-family="sans-serif" font-size="14" lengthAdjust="spacing" textLength="33" x="1518.5" y="1041.2561">Floor</text><line style="stroke:#181818;stroke-width:0.5;" x1="1488" x2="1556" y1="1050.3581" y2="1050.3581"/><line style="stroke:#181818;stroke-width:0.5;" x1="1488" x2="1556" y1="1058.3581" y2="1058.3581"/></g><!--class IPassageDTO--><g id="elem_IPassageDTO"><rect codeLine="108" fill="#F1F1F1" height="48" id="IPassageDTO" rx="2.5" ry="2.5" style="stroke:#181818;stroke-width:0.5;" width="114" x="556" y="1003.472"/><ellipse cx="571" cy="1019.472" fill="#B4A7E5" rx="11" ry="11" style="stroke:#181818;stroke-width:1.0;"/><path d="M566.9219,1026.472 L566.9219,1024.6595 L569.7656,1024.6595 L569.7656,1014.8782 L566.9219,1014.8782 L566.9219,1013.0501 L574.7969,1013.0501 L574.7969,1014.8782 L571.9688,1014.8782 L571.9688,1024.6595 L574.7969,1024.6595 L574.7969,1026.472 L566.9219,1026.472 Z " fill="#000000"/><text fill="#000000" font-family="sans-serif" font-size="14" font-style="italic" lengthAdjust="spacing" textLength="82" x="585" y="1024.904">IPassageDTO</text><line style="stroke:#181818;stroke-width:0.5;" x1="557" x2="669" y1="1035.472" y2="1035.472"/><line style="stroke:#181818;stroke-width:0.5;" x1="557" x2="669" y1="1043.472" y2="1043.472"/></g><!--link DBDriver to IDBDriver--><g id="link_DBDriver_IDBDriver"><path codeLine="25" d="M541.5,160.602 C553.07,160.602 546.63,160.602 558.2,160.602 " fill="none" id="DBDriver-to-IDBDriver" style="stroke:#FF6655;stroke-width:1.0;"/><polygon fill="none" points="576.2,160.602,558.2,154.602,558.2,166.602,576.2,160.602" style="stroke:#FF6655;stroke-width:1.0;"/></g><!--reverse link IControllerCreatePassage to ControllerCreatePassage--><g id="link_IControllerCreatePassage_ControllerCreatePassage"><path codeLine="37" d="M193.8075,444.7118 C193.6175,486.1818 193.3,554.742 193.11,596.322 " fill="none" id="IControllerCreatePassage-backto-ControllerCreatePassage" style="stroke:#FF6655;stroke-width:1.0;"/><polygon fill="none" points="193.89,426.712,187.8076,444.6843,199.8075,444.7393,193.89,426.712" style="stroke:#FF6655;stroke-width:1.0;"/></g><!--reverse link DBDriver to RepoBuilding--><g id="link_DBDriver_RepoBuilding"><path codeLine="46" d="M503.8755,190.7825 C517.8655,236.7925 547.02,332.612 560.95,378.402 " fill="none" id="DBDriver-backto-RepoBuilding" style="stroke:#FF6655;stroke-width:1.0;stroke-dasharray:7.0,7.0;"/><polygon fill="#FF6655" points="502.13,185.042,500.9212,194.8164,503.5846,189.8257,508.5752,192.4891,502.13,185.042" style="stroke:#FF6655;stroke-width:1.0;"/></g><!--reverse link DBDriver to RepoFloor--><g id="link_DBDriver_RepoFloor"><path codeLine="47" d="M486.1245,190.7825 C472.1345,236.7925 442.98,332.612 429.05,378.402 " fill="none" id="DBDriver-backto-RepoFloor" style="stroke:#FF6655;stroke-width:1.0;stroke-dasharray:7.0,7.0;"/><polygon fill="#FF6655" points="487.87,185.042,481.4248,192.4891,486.4154,189.8257,489.0788,194.8164,487.87,185.042" style="stroke:#FF6655;stroke-width:1.0;"/></g><!--reverse link DBDriver to RepoPassage--><g id="link_DBDriver_RepoPassage"><path codeLine="48" d="M512.6448,189.9555 C523.9548,206.2955 537.93,222.052 559,232.602 C576.56,241.382 630.85,229.422 647,240.602 C694,273.112 713.73,342.062 721.11,378.272 " fill="none" id="DBDriver-backto-RepoPassage" style="stroke:#FF6655;stroke-width:1.0;stroke-dasharray:7.0,7.0;"/><polygon fill="#FF6655" points="509.23,185.022,511.0632,194.6987,512.0757,189.1332,517.6412,190.1457,509.23,185.022" style="stroke:#FF6655;stroke-width:1.0;"/></g><!--link RoutePassage to IControllerCreatePassage--><g id="link_RoutePassage_IControllerCreatePassage"><path codeLine="50" d="M316.71,185.042 C290.65,231.052 236.0483,327.392 210.0983,373.182 " fill="none" id="RoutePassage-to-IControllerCreatePassage" style="stroke:#FF6655;stroke-width:1.0;stroke-dasharray:7.0,7.0;"/><polygon fill="#FF6655" points="207.14,378.402,215.0574,372.5441,209.6052,374.052,208.0974,368.5998,207.14,378.402" style="stroke:#FF6655;stroke-width:1.0;"/></g><!--link AppServicePassage to IAppServicePassage--><g id="link_AppServicePassage_IAppServicePassage"><path codeLine="63" d="M1172.12,819.002 C1161,863.262 1141.4023,941.2436 1130.2823,985.5436 " fill="none" id="AppServicePassage-to-IAppServicePassage" style="stroke:#FF6655;stroke-width:1.0;"/><polygon fill="none" points="1125.9,1003.002,1136.1018,987.0044,1124.4629,984.0828,1125.9,1003.002" style="stroke:#FF6655;stroke-width:1.0;"/></g><!--link RepoBuilding to IRepoBuilding--><g id="link_RepoBuilding_IRepoBuilding"><path codeLine="71" d="M598.93,427.062 C612.85,436.242 629.97,445.722 647,450.602 C667.62,456.502 1014.94,447.022 1033,458.602 C1081.24,489.532 1097.0989,541.8186 1104.0689,578.4886 " fill="none" id="RepoBuilding-to-IRepoBuilding" style="stroke:#FF6655;stroke-width:1.0;"/><polygon fill="none" points="1107.43,596.172,1109.9633,577.3682,1098.1744,579.609,1107.43,596.172" style="stroke:#FF6655;stroke-width:1.0;"/></g><!--link RepoFloor to IRepoFloor--><g id="link_RepoFloor_IRepoFloor"><path codeLine="72" d="M451.59,426.942 C462.87,435.142 476.12,443.952 489,450.602 C636.09,526.512 807.6641,577.6532 896.7841,601.7532 " fill="none" id="RepoFloor-to-IRepoFloor" style="stroke:#FF6655;stroke-width:1.0;"/><polygon fill="none" points="914.16,606.452,898.3504,595.9612,895.2179,607.5451,914.16,606.452" style="stroke:#FF6655;stroke-width:1.0;"/></g><!--link RepoPassage to IRepoPassage--><g id="link_RepoPassage_IRepoPassage"><path codeLine="73" d="M785.63,403.692 C896.34,404.992 1125.68,413.262 1189,458.602 C1235.23,491.692 1251.1607,542.4235 1258.5007,578.4935 " fill="none" id="RepoPassage-to-IRepoPassage" style="stroke:#FF6655;stroke-width:1.0;"/><polygon fill="none" points="1262.09,596.132,1264.3802,577.297,1252.6212,579.6899,1262.09,596.132" style="stroke:#FF6655;stroke-width:1.0;"/></g><!--link ControllerCreatePassage to IAppServicePassage--><g id="link_ControllerCreatePassage_IAppServicePassage"><path codeLine="76" d="M246.51,644.972 C410.08,716.412 896.8215,929.0006 1060.7415,1000.5906 " fill="none" id="ControllerCreatePassage-to-IAppServicePassage" style="stroke:#FF6655;stroke-width:1.0;stroke-dasharray:7.0,7.0;"/><polygon fill="#FF6655" points="1066.24,1002.992,1059.5932,995.7242,1061.6579,1000.9908,1056.3913,1003.0555,1066.24,1002.992" style="stroke:#FF6655;stroke-width:1.0;"/></g><!--reverse link IRepoBuilding to AppServicePassage--><g id="link_IRepoBuilding_AppServicePassage"><path codeLine="78" d="M1122.2166,650.3833 C1134.9966,683.2133 1156.07,737.292 1168.89,770.222 " fill="none" id="IRepoBuilding-backto-AppServicePassage" style="stroke:#FF6655;stroke-width:1.0;stroke-dasharray:7.0,7.0;"/><polygon fill="#FF6655" points="1120.04,644.792,1119.5773,654.63,1121.8538,649.4514,1127.0324,651.7279,1120.04,644.792" style="stroke:#FF6655;stroke-width:1.0;"/></g><!--reverse link IRepoFloor to AppServicePassage--><g id="link_IRepoFloor_AppServicePassage"><path codeLine="79" d="M980.6014,650.2215 C992.6714,671.0215 1009.49,696.032 1033,716.602 C1058.53,738.932 1091.65,757.142 1119.8,770.232 " fill="none" id="IRepoFloor-backto-AppServicePassage" style="stroke:#FF6655;stroke-width:1.0;stroke-dasharray:7.0,7.0;"/><polygon fill="#FF6655" points="977.59,645.032,978.6475,654.8239,980.0995,649.3566,985.5668,650.8087,977.59,645.032" style="stroke:#FF6655;stroke-width:1.0;"/></g><!--reverse link IRepoPassage to AppServicePassage--><g id="link_IRepoPassage_AppServicePassage"><path codeLine="80" d="M1251.398,650.1339 C1234.608,682.9639 1206.81,737.292 1189.96,770.222 " fill="none" id="IRepoPassage-backto-AppServicePassage" style="stroke:#FF6655;stroke-width:1.0;stroke-dasharray:7.0,7.0;"/><polygon fill="#FF6655" points="1254.13,644.792,1246.4707,650.9836,1251.8533,649.2436,1253.5933,654.6262,1254.13,644.792" style="stroke:#FF6655;stroke-width:1.0;"/></g><!--reverse link Floor to Passage--><g id="link_Floor_Passage"><path codeLine="98" d="M1554.9264,1071.5068 C1579.6064,1103.7568 1611.09,1144.902 1635.76,1177.132 " fill="none" id="Floor-backto-Passage" style="stroke:#FF6655;stroke-width:1.0;"/><polygon fill="#FF6655" points="1551.28,1066.742,1553.573,1076.3202,1554.3187,1070.7127,1559.9262,1071.4583,1551.28,1066.742" style="stroke:#FF6655;stroke-width:1.0;"/><text fill="#000000" font-family="Impact" font-size="13" lengthAdjust="spacing" textLength="7" x="1548.3887" y="1087.3772">2</text><text fill="#000000" font-family="Impact" font-size="13" lengthAdjust="spacing" textLength="5" x="1624.9079" y="1166.7115">1</text></g><!--link Floor to Building--><g id="link_Floor_Building"><path codeLine="99" d="M1522,1066.742 C1522,1098.992 1522,1138.902 1522,1171.132 " fill="none" id="Floor-to-Building" style="stroke:#FF6655;stroke-width:1.0;"/><polygon fill="#FF6655" points="1522,1177.132,1526,1168.132,1522,1172.132,1518,1168.132,1522,1177.132" style="stroke:#FF6655;stroke-width:1.0;"/><text fill="#000000" font-family="Impact" font-size="13" lengthAdjust="spacing" textLength="5" x="1516.6016" y="1087.3772">1</text><text fill="#000000" font-family="Impact" font-size="13" lengthAdjust="spacing" textLength="5" x="1516.5391" y="1166.7115">1</text></g><!--link AppServicePassage to Passage--><g id="link_AppServicePassage_Passage"><path codeLine="101" d="M1259.38,796.522 C1361.31,799.392 1528.09,810.322 1573,850.602 C1667.57,935.402 1671.8225,1095.9086 1668.2825,1171.0086 " fill="none" id="AppServicePassage-to-Passage" style="stroke:#FF6655;stroke-width:1.0;stroke-dasharray:7.0,7.0;"/><polygon fill="#FF6655" points="1668,1177.002,1672.4193,1168.2003,1668.2354,1172.0075,1664.4282,1167.8236,1668,1177.002" style="stroke:#FF6655;stroke-width:1.0;"/></g><!--link AppServicePassage to Floor--><g id="link_AppServicePassage_Floor"><path codeLine="102" d="M1212.88,819.002 C1278.64,863.142 1415.308,954.8683 1481.538,999.3183 " fill="none" id="AppServicePassage-to-Floor" style="stroke:#FF6655;stroke-width:1.0;stroke-dasharray:7.0,7.0;"/><polygon fill="#FF6655" points="1486.52,1002.662,1481.2761,994.3252,1482.3684,999.8756,1476.8179,1000.9678,1486.52,1002.662" style="stroke:#FF6655;stroke-width:1.0;"/></g><!--link AppServicePassage to Building--><g id="link_AppServicePassage_Building"><path codeLine="103" d="M1197.23,819.062 C1253.9,888.212 1416.8268,1087.0213 1486.7568,1172.3513 " fill="none" id="AppServicePassage-to-Building" style="stroke:#FF6655;stroke-width:1.0;stroke-dasharray:7.0,7.0;"/><polygon fill="#FF6655" points="1490.56,1176.992,1487.9491,1167.4955,1487.3907,1173.1247,1481.7615,1172.5664,1490.56,1176.992" style="stroke:#FF6655;stroke-width:1.0;"/></g><!--link AppServicePassage to IPassageDTO--><g id="link_AppServicePassage_IPassageDTO"><path codeLine="111" d="M1110.73,819.032 C1084.21,828.512 1053.55,839.752 1026,850.602 C895.1,902.102 748.9544,965.9786 670.9044,1000.6086 " fill="none" id="AppServicePassage-to-IPassageDTO" style="stroke:#FF6655;stroke-width:1.0;"/><polygon fill="#FF6655" points="665.42,1003.042,675.2689,1003.0482,669.9903,1001.0142,672.0244,995.7357,665.42,1003.042" style="stroke:#FF6655;stroke-width:1.0;"/></g><!--link ControllerCreatePassage to IPassageDTO--><g id="link_ControllerCreatePassage_IPassageDTO"><path codeLine="112" d="M217.09,644.822 C291.08,716.152 510.2101,927.3881 584.4301,998.9281 " fill="none" id="ControllerCreatePassage-to-IPassageDTO" style="stroke:#FF6655;stroke-width:1.0;"/><polygon fill="#FF6655" points="588.75,1003.092,585.0461,993.9661,585.1501,999.622,579.4942,999.726,588.75,1003.092" style="stroke:#FF6655;stroke-width:1.0;"/></g><!--SRC=[dPLTRziW58RlyokGTvrKdTHSMPRoiKYLfhPQTZzHXxWe6AnZt2dRyjz7iF471fpMDt5o7ivxpk4bb2VA2mmuHwd82y49b-Zl3Abd9xZSqpy4tI_rzpLEJnc8YXysWWc8urM1qpUI9EWxpTxaHW1cDIZWGC26lknso-N3Gvlw2US4RKG5b82z3Bqo9UPIHLj2Yltfl6OLqV4LWFZTvdlCbPpi0lKQ8tsPpLJuX3E2odCfITvqQdwC7laHS2cXIcK5959X7HymBmHAgXRpL0Eezr0k2HnngkhOhhT0tvlEp9CoN9Pe5BeuL7w8IfBI5gWJwDYBUbEaAuaHG7EuRipyNsBLqx2zjatTgmCkrFj0kCKsQieW6BFYmrG1o1fHHsw0u757LbT3cRnW4qhrh6uJwN_ph43pgj2JdChet4rIY99AeRpksrD5h2lA3fHddl2E2G6UMA28VcQqg8f5CdPWcpu4c45OICVqR8aMYubHsHvS5GMZAPPKSBGdy4vJudQX0ft0q1-Aya6M3JloemQSqAXtvqFfHp2QQy-DatYg2XdDwjlhE0Stjfu3kg6_WHVhrhnbT9xim74TVMDsNE0u-8wtDcnWpkEjgS-1ku4WFUmYY8PEp3SkgLJxVATkNdAt5Jcct7rYiWn8XflxnEsSHYX2k4JubwbaR21o5JqZ0yGn227LxHx7TIH9RZe-Pc2DtglnX5UmTSrd5VNG6xcZjfLNgtRTjD3upOmbke_qVP6Ww6k4XljTPzV4DQu-M_U4FA4SORlQJKswIp53HTjOsv_FVH_rZdcJGm5cfUzVAnd0mNlLOY-p_m00]--></g></svg>