<?xml version="1.0" encoding="us-ascii" standalone="no"?><svg xmlns="http://www.w3.org/2000/svg" xmlns:xlink="http://www.w3.org/1999/xlink" contentStyleType="text/css" height="643px" preserveAspectRatio="none" style="width:485px;height:643px;background:#FFFFFF;" version="1.1" viewBox="0 0 485 643" width="485px" zoomAndPan="magnify"><defs/><g><rect fill="#FFFFFF" height="461.2129" style="stroke:#181818;stroke-width:1.0;" width="10" x="98" y="91.4883"/><rect fill="#FFFFFF" height="97.8867" style="stroke:#181818;stroke-width:1.0;" width="10" x="364" y="112.7988"/><rect fill="#FFFFFF" height="97.8867" style="stroke:#181818;stroke-width:1.0;" width="10" x="364" y="239.9961"/><rect fill="#FFFFFF" height="29.3105" style="stroke:#181818;stroke-width:1.0;" width="10" x="364" y="367.1934"/><rect fill="#FFFFFF" height="126.8867" style="stroke:#181818;stroke-width:1.0;" width="10" x="364" y="425.8145"/><rect fill="none" height="417.9023" style="stroke:#000000;stroke-width:1.5;" width="468" x="10" y="127.7988"/><rect fill="none" height="283.7051" style="stroke:#000000;stroke-width:1.5;" width="448" x="20" y="254.9961"/><rect fill="none" height="90.8867" style="stroke:#000000;stroke-width:1.5;" width="428" x="30" y="440.8145"/><line style="stroke:#181818;stroke-width:0.5;stroke-dasharray:5.0,5.0;" x1="103" x2="103" y1="81.4883" y2="562.7012"/><line style="stroke:#181818;stroke-width:0.5;stroke-dasharray:5.0,5.0;" x1="369" x2="369" y1="81.4883" y2="562.7012"/><text fill="#000000" font-family="sans-serif" font-size="14" lengthAdjust="spacing" textLength="120" x="40" y="78.5352">Campus Manager</text><ellipse cx="103" cy="13.5" fill="#E2E2F0" rx="8" ry="8" style="stroke:#181818;stroke-width:0.5;"/><path d="M103,21.5 L103,48.5 M90,29.5 L116,29.5 M103,48.5 L90,63.5 M103,48.5 L116,63.5 " fill="none" style="stroke:#181818;stroke-width:0.5;"/><text fill="#000000" font-family="sans-serif" font-size="14" lengthAdjust="spacing" textLength="120" x="40" y="575.2363">Campus Manager</text><ellipse cx="103" cy="586.6895" fill="#E2E2F0" rx="8" ry="8" style="stroke:#181818;stroke-width:0.5;"/><path d="M103,594.6895 L103,621.6895 M90,602.6895 L116,602.6895 M103,621.6895 L90,636.6895 M103,621.6895 L116,636.6895 " fill="none" style="stroke:#181818;stroke-width:0.5;"/><rect fill="#E2E2F0" height="46.9766" rx="2.5" ry="2.5" style="stroke:#181818;stroke-width:0.5;" width="158" x="290" y="33.5117"/><text fill="#000000" font-family="sans-serif" font-size="14" lengthAdjust="spacing" textLength="61" x="338.5" y="54.0469">&#171;system&#187;</text><text fill="#000000" font-family="sans-serif" font-size="14" lengthAdjust="spacing" textLength="140" x="301" y="70.5352">System RobDroneGo</text><rect fill="#E2E2F0" height="46.9766" rx="2.5" ry="2.5" style="stroke:#181818;stroke-width:0.5;" width="158" x="290" y="561.7012"/><text fill="#000000" font-family="sans-serif" font-size="14" lengthAdjust="spacing" textLength="61" x="338.5" y="582.2363">&#171;system&#187;</text><text fill="#000000" font-family="sans-serif" font-size="14" lengthAdjust="spacing" textLength="140" x="301" y="598.7246">System RobDroneGo</text><rect fill="#FFFFFF" height="461.2129" style="stroke:#181818;stroke-width:1.0;" width="10" x="98" y="91.4883"/><rect fill="#FFFFFF" height="97.8867" style="stroke:#181818;stroke-width:1.0;" width="10" x="364" y="112.7988"/><rect fill="#FFFFFF" height="97.8867" style="stroke:#181818;stroke-width:1.0;" width="10" x="364" y="239.9961"/><rect fill="#FFFFFF" height="29.3105" style="stroke:#181818;stroke-width:1.0;" width="10" x="364" y="367.1934"/><rect fill="#FFFFFF" height="126.8867" style="stroke:#181818;stroke-width:1.0;" width="10" x="364" y="425.8145"/><polygon fill="#181818" points="352,108.7988,362,112.7988,352,116.7988,356,112.7988" style="stroke:#181818;stroke-width:1.0;"/><line style="stroke:#181818;stroke-width:1.0;" x1="108" x2="358" y1="112.7988" y2="112.7988"/><text fill="#000000" font-family="sans-serif" font-size="13" font-weight="bold" lengthAdjust="spacing" textLength="9" x="115" y="108.0566">1</text><text fill="#000000" font-family="sans-serif" font-size="13" lengthAdjust="spacing" textLength="116" x="128" y="108.0566">wants to edit floor</text><path d="M10,127.7988 L72,127.7988 L72,135.1094 L62,145.1094 L10,145.1094 L10,127.7988 " fill="#EEEEEE" style="stroke:#000000;stroke-width:1.5;"/><rect fill="none" height="417.9023" style="stroke:#000000;stroke-width:1.5;" width="468" x="10" y="127.7988"/><text fill="#000000" font-family="sans-serif" font-size="13" font-weight="bold" lengthAdjust="spacing" textLength="17" x="25" y="141.3672">alt</text><text fill="#000000" font-family="sans-serif" font-size="11" font-weight="bold" lengthAdjust="spacing" textLength="128" x="87" y="140.4336">[building(s) not found]</text><polygon fill="#181818" points="119,162.4199,109,166.4199,119,170.4199,115,166.4199" style="stroke:#181818;stroke-width:1.0;"/><line style="stroke:#181818;stroke-width:1.0;stroke-dasharray:2.0,2.0;" x1="113" x2="363" y1="166.4199" y2="166.4199"/><text fill="#000000" font-family="sans-serif" font-size="13" font-weight="bold" lengthAdjust="spacing" textLength="9" x="125" y="161.6777">2</text><text fill="#000000" font-family="sans-serif" font-size="13" lengthAdjust="spacing" textLength="83" x="138" y="161.6777">informs error</text><line style="stroke:#000000;stroke-width:1.0;stroke-dasharray:2.0,2.0;" x1="10" x2="478" y1="175.4199" y2="175.4199"/><text fill="#000000" font-family="sans-serif" font-size="11" font-weight="bold" lengthAdjust="spacing" textLength="106" x="15" y="186.0547">[building(s) found]</text><polygon fill="#181818" points="119,206.6855,109,210.6855,119,214.6855,115,210.6855" style="stroke:#181818;stroke-width:1.0;"/><line style="stroke:#181818;stroke-width:1.0;stroke-dasharray:2.0,2.0;" x1="113" x2="368" y1="210.6855" y2="210.6855"/><text fill="#000000" font-family="sans-serif" font-size="13" font-weight="bold" lengthAdjust="spacing" textLength="9" x="125" y="205.9434">3</text><text fill="#000000" font-family="sans-serif" font-size="13" lengthAdjust="spacing" textLength="110" x="138" y="205.9434">requests building</text><polygon fill="#181818" points="352,235.9961,362,239.9961,352,243.9961,356,239.9961" style="stroke:#181818;stroke-width:1.0;"/><line style="stroke:#181818;stroke-width:1.0;" x1="108" x2="358" y1="239.9961" y2="239.9961"/><text fill="#000000" font-family="sans-serif" font-size="13" font-weight="bold" lengthAdjust="spacing" textLength="9" x="115" y="235.2539">4</text><text fill="#000000" font-family="sans-serif" font-size="13" lengthAdjust="spacing" textLength="110" x="128" y="235.2539">provides building</text><path d="M20,254.9961 L82,254.9961 L82,262.3066 L72,272.3066 L20,272.3066 L20,254.9961 " fill="#EEEEEE" style="stroke:#000000;stroke-width:1.5;"/><rect fill="none" height="283.7051" style="stroke:#000000;stroke-width:1.5;" width="448" x="20" y="254.9961"/><text fill="#000000" font-family="sans-serif" font-size="13" font-weight="bold" lengthAdjust="spacing" textLength="17" x="35" y="268.5645">alt</text><text fill="#000000" font-family="sans-serif" font-size="11" font-weight="bold" lengthAdjust="spacing" textLength="109" x="97" y="267.6309">[floor(s) not found]</text><polygon fill="#181818" points="119,289.6172,109,293.6172,119,297.6172,115,293.6172" style="stroke:#181818;stroke-width:1.0;"/><line style="stroke:#181818;stroke-width:1.0;stroke-dasharray:2.0,2.0;" x1="113" x2="363" y1="293.6172" y2="293.6172"/><text fill="#000000" font-family="sans-serif" font-size="13" font-weight="bold" lengthAdjust="spacing" textLength="9" x="125" y="288.875">5</text><text fill="#000000" font-family="sans-serif" font-size="13" lengthAdjust="spacing" textLength="83" x="138" y="288.875">informs error</text><line style="stroke:#000000;stroke-width:1.0;stroke-dasharray:2.0,2.0;" x1="20" x2="468" y1="302.6172" y2="302.6172"/><text fill="#000000" font-family="sans-serif" font-size="11" font-weight="bold" lengthAdjust="spacing" textLength="87" x="25" y="313.252">[floor(s) found]</text><polygon fill="#181818" points="119,333.8828,109,337.8828,119,341.8828,115,337.8828" style="stroke:#181818;stroke-width:1.0;"/><line style="stroke:#181818;stroke-width:1.0;stroke-dasharray:2.0,2.0;" x1="113" x2="368" y1="337.8828" y2="337.8828"/><text fill="#000000" font-family="sans-serif" font-size="13" font-weight="bold" lengthAdjust="spacing" textLength="9" x="125" y="333.1406">6</text><text fill="#000000" font-family="sans-serif" font-size="13" lengthAdjust="spacing" textLength="88" x="138" y="333.1406">requests floor</text><polygon fill="#181818" points="352,363.1934,362,367.1934,352,371.1934,356,367.1934" style="stroke:#181818;stroke-width:1.0;"/><line style="stroke:#181818;stroke-width:1.0;" x1="108" x2="358" y1="367.1934" y2="367.1934"/><text fill="#000000" font-family="sans-serif" font-size="13" font-weight="bold" lengthAdjust="spacing" textLength="9" x="115" y="362.4512">7</text><text fill="#000000" font-family="sans-serif" font-size="13" lengthAdjust="spacing" textLength="88" x="128" y="362.4512">provides floor</text><polygon fill="#181818" points="119,392.5039,109,396.5039,119,400.5039,115,396.5039" style="stroke:#181818;stroke-width:1.0;"/><line style="stroke:#181818;stroke-width:1.0;stroke-dasharray:2.0,2.0;" x1="113" x2="368" y1="396.5039" y2="396.5039"/><text fill="#000000" font-family="sans-serif" font-size="13" font-weight="bold" lengthAdjust="spacing" textLength="9" x="125" y="391.7617">8</text><text fill="#000000" font-family="sans-serif" font-size="13" lengthAdjust="spacing" textLength="85" x="138" y="391.7617">requests data</text><polygon fill="#181818" points="352,421.8145,362,425.8145,352,429.8145,356,425.8145" style="stroke:#181818;stroke-width:1.0;"/><line style="stroke:#181818;stroke-width:1.0;" x1="108" x2="358" y1="425.8145" y2="425.8145"/><text fill="#000000" font-family="sans-serif" font-size="13" font-weight="bold" lengthAdjust="spacing" textLength="9" x="115" y="421.0723">9</text><text fill="#000000" font-family="sans-serif" font-size="13" lengthAdjust="spacing" textLength="85" x="128" y="421.0723">provides data</text><path d="M30,440.8145 L92,440.8145 L92,448.125 L82,458.125 L30,458.125 L30,440.8145 " fill="#EEEEEE" style="stroke:#000000;stroke-width:1.5;"/><rect fill="none" height="90.8867" style="stroke:#000000;stroke-width:1.5;" width="428" x="30" y="440.8145"/><text fill="#000000" font-family="sans-serif" font-size="13" font-weight="bold" lengthAdjust="spacing" textLength="17" x="45" y="454.3828">alt</text><text fill="#000000" font-family="sans-serif" font-size="11" font-weight="bold" lengthAdjust="spacing" textLength="126" x="107" y="453.4492">[bad floor parameters]</text><polygon fill="#181818" points="119,475.4355,109,479.4355,119,483.4355,115,479.4355" style="stroke:#181818;stroke-width:1.0;"/><line style="stroke:#181818;stroke-width:1.0;stroke-dasharray:2.0,2.0;" x1="113" x2="363" y1="479.4355" y2="479.4355"/><text fill="#000000" font-family="sans-serif" font-size="13" font-weight="bold" lengthAdjust="spacing" textLength="18" x="125" y="474.6934">10</text><text fill="#000000" font-family="sans-serif" font-size="13" lengthAdjust="spacing" textLength="83" x="147" y="474.6934">informs error</text><line style="stroke:#000000;stroke-width:1.0;stroke-dasharray:2.0,2.0;" x1="30" x2="458" y1="488.4355" y2="488.4355"/><text fill="#000000" font-family="sans-serif" font-size="11" font-weight="bold" lengthAdjust="spacing" textLength="51" x="35" y="499.0703">[success]</text><polygon fill="#181818" points="119,519.7012,109,523.7012,119,527.7012,115,523.7012" style="stroke:#181818;stroke-width:1.0;"/><line style="stroke:#181818;stroke-width:1.0;stroke-dasharray:2.0,2.0;" x1="113" x2="363" y1="523.7012" y2="523.7012"/><text fill="#000000" font-family="sans-serif" font-size="13" font-weight="bold" lengthAdjust="spacing" textLength="18" x="125" y="518.959">11</text><text fill="#000000" font-family="sans-serif" font-size="13" lengthAdjust="spacing" textLength="210" x="147" y="518.959">previews edited floor information</text><!--SRC=[dPF1ReCm38RlVGgBqtRe2rGLbqtQQPVjkeiXRXK9OcOdL7lx9Q7GjT0npPS4xF_3lqamU7QXhKWs6wmz2nHFs7P1uHKT7aaAG8MWCTsXU5lR3fs7Oh_NB_NKbkM7W_UyXJUkdeKTlN0MnOBCj3rwoWY84LVObYa9EpX5be9d86Cz71hceMXI9KP-qNYeWcsCTSS7VGJ7iPo3CpcR8W6t4PpuEx3kmD8gaCWPIOtI5MAGtz4BVGRIsDkeo7M6hXgR- -c4UsleHZPpCphAXfVj_CNIP6lYh34cMvTHZx7aROnbZtF6ej6LJWnwN6rakO59UdV05PgXJOY75rlo9Fg_4MkeQzBVn9rGR-ca-IpJ-Dq1YTwokm3F_oYju_x6zO_7T76-0G00]--></g></svg>