<?xml version="1.0" encoding="us-ascii" standalone="no"?><svg xmlns="http://www.w3.org/2000/svg" xmlns:xlink="http://www.w3.org/1999/xlink" contentStyleType="text/css" height="441px" preserveAspectRatio="none" style="width:443px;height:441px;background:#1B1B1B;" version="1.1" viewBox="0 0 443 441" width="443px" zoomAndPan="magnify"><defs/><g><rect fill="#1B1B1B" height="441" style="stroke:none;stroke-width:1.0;" width="443" x="0" y="0"/><rect fill="#000000" height="245.6481" style="stroke:#E7E7E7;stroke-width:1.0;" width="10" x="63" y="94.0679"/><rect fill="#000000" height="95.118" style="stroke:#E7E7E7;stroke-width:1.0;" width="10" x="238" y="117.7739"/><rect fill="#000000" height="95.118" style="stroke:#E7E7E7;stroke-width:1.0;" width="10" x="238" y="244.598"/><rect fill="#000000" height="31.706" style="stroke:#E7E7E7;stroke-width:1.0;" width="10" x="414" y="149.4799"/><rect fill="#000000" height="31.706" style="stroke:#E7E7E7;stroke-width:1.0;" width="10" x="414" y="276.304"/><line style="stroke:#E7E7E7;stroke-width:0.5;stroke-dasharray:5.0,5.0;" x1="68" x2="68" y1="84.0679" y2="357.716"/><line style="stroke:#E7E7E7;stroke-width:0.5;stroke-dasharray:5.0,5.0;" x1="243" x2="243" y1="84.0679" y2="357.716"/><line style="stroke:#E7E7E7;stroke-width:0.5;stroke-dasharray:5.0,5.0;" x1="418.5" x2="418.5" y1="84.0679" y2="357.716"/><text fill="#FFFFFF" font-family="sans-serif" font-size="14" lengthAdjust="spacing" textLength="120" x="5" y="79.9659">Campus Manager</text><ellipse cx="68" cy="13.5" fill="#222222" rx="8" ry="8" style="stroke:#E7E7E7;stroke-width:0.5;"/><path d="M68,21.5 L68,48.5 M55,29.5 L81,29.5 M68,48.5 L55,63.5 M68,48.5 L81,63.5 " fill="none" style="stroke:#E7E7E7;stroke-width:0.5;"/><text fill="#FFFFFF" font-family="sans-serif" font-size="14" lengthAdjust="spacing" textLength="120" x="5" y="371.682">Campus Manager</text><ellipse cx="68" cy="384.284" fill="#222222" rx="8" ry="8" style="stroke:#E7E7E7;stroke-width:0.5;"/><path d="M68,392.284 L68,419.284 M55,400.284 L81,400.284 M68,419.284 L55,434.284 M68,419.284 L81,434.284 " fill="none" style="stroke:#E7E7E7;stroke-width:0.5;"/><rect fill="#222222" height="33.0679" rx="2.5" ry="2.5" style="stroke:#E7E7E7;stroke-width:0.5;" width="80" x="203" y="50"/><text fill="#FFFFFF" font-family="sans-serif" font-size="14" lengthAdjust="spacing" textLength="66" x="210" y="71.9659">Front-end</text><rect fill="#222222" height="33.0679" rx="2.5" ry="2.5" style="stroke:#E7E7E7;stroke-width:0.5;" width="80" x="203" y="356.716"/><text fill="#FFFFFF" font-family="sans-serif" font-size="14" lengthAdjust="spacing" textLength="66" x="210" y="378.682">Front-end</text><rect fill="#222222" height="33.0679" rx="2.5" ry="2.5" style="stroke:#E7E7E7;stroke-width:0.5;" width="37" x="400.5" y="50"/><text fill="#FFFFFF" font-family="sans-serif" font-size="14" lengthAdjust="spacing" textLength="23" x="407.5" y="71.9659">MD</text><rect fill="#222222" height="33.0679" rx="2.5" ry="2.5" style="stroke:#E7E7E7;stroke-width:0.5;" width="37" x="400.5" y="356.716"/><text fill="#FFFFFF" font-family="sans-serif" font-size="14" lengthAdjust="spacing" textLength="23" x="407.5" y="378.682">MD</text><rect fill="#000000" height="245.6481" style="stroke:#E7E7E7;stroke-width:1.0;" width="10" x="63" y="94.0679"/><rect fill="#000000" height="95.118" style="stroke:#E7E7E7;stroke-width:1.0;" width="10" x="238" y="117.7739"/><rect fill="#000000" height="95.118" style="stroke:#E7E7E7;stroke-width:1.0;" width="10" x="238" y="244.598"/><rect fill="#000000" height="31.706" style="stroke:#E7E7E7;stroke-width:1.0;" width="10" x="414" y="149.4799"/><rect fill="#000000" height="31.706" style="stroke:#E7E7E7;stroke-width:1.0;" width="10" x="414" y="276.304"/><polygon fill="#E7E7E7" points="226,113.7739,236,117.7739,226,121.7739,230,117.7739" style="stroke:#E7E7E7;stroke-width:1.0;"/><line style="stroke:#E7E7E7;stroke-width:1.0;" x1="73" x2="232" y1="117.7739" y2="117.7739"/><text fill="#FFFFFF" font-family="sans-serif" font-size="13" font-weight="bold" lengthAdjust="spacing" textLength="7" x="80" y="111.9649">1</text><text fill="#FFFFFF" font-family="sans-serif" font-size="13" lengthAdjust="spacing" textLength="75" x="91" y="111.9649">inhibit robot</text><polygon fill="#E7E7E7" points="402,145.4799,412,149.4799,402,153.4799,406,149.4799" style="stroke:#E7E7E7;stroke-width:1.0;"/><line style="stroke:#E7E7E7;stroke-width:1.0;" x1="248" x2="408" y1="149.4799" y2="149.4799"/><text fill="#FFFFFF" font-family="sans-serif" font-size="13" font-weight="bold" lengthAdjust="spacing" textLength="7" x="255" y="143.6709">2</text><text fill="#FFFFFF" font-family="sans-serif" font-size="13" lengthAdjust="spacing" textLength="71" x="266" y="143.6709">GET /robots</text><polygon fill="#E7E7E7" points="259,177.186,249,181.186,259,185.186,255,181.186" style="stroke:#E7E7E7;stroke-width:1.0;"/><line style="stroke:#E7E7E7;stroke-width:1.0;stroke-dasharray:2.0,2.0;" x1="253" x2="418" y1="181.186" y2="181.186"/><text fill="#FFFFFF" font-family="sans-serif" font-size="13" font-weight="bold" lengthAdjust="spacing" textLength="7" x="265" y="175.377">3</text><text fill="#FFFFFF" font-family="sans-serif" font-size="13" lengthAdjust="spacing" textLength="40" x="276" y="175.377">robots</text><polygon fill="#E7E7E7" points="84,208.892,74,212.892,84,216.892,80,212.892" style="stroke:#E7E7E7;stroke-width:1.0;"/><line style="stroke:#E7E7E7;stroke-width:1.0;stroke-dasharray:2.0,2.0;" x1="78" x2="242" y1="212.892" y2="212.892"/><text fill="#FFFFFF" font-family="sans-serif" font-size="13" font-weight="bold" lengthAdjust="spacing" textLength="7" x="90" y="207.083">4</text><text fill="#FFFFFF" font-family="sans-serif" font-size="13" lengthAdjust="spacing" textLength="130" x="101" y="207.083">show available robots</text><polygon fill="#E7E7E7" points="226,240.598,236,244.598,226,248.598,230,244.598" style="stroke:#E7E7E7;stroke-width:1.0;"/><line style="stroke:#E7E7E7;stroke-width:1.0;" x1="73" x2="232" y1="244.598" y2="244.598"/><text fill="#FFFFFF" font-family="sans-serif" font-size="13" font-weight="bold" lengthAdjust="spacing" textLength="7" x="80" y="238.789">5</text><text fill="#FFFFFF" font-family="sans-serif" font-size="13" lengthAdjust="spacing" textLength="86" x="91" y="238.789">chooses robot</text><polygon fill="#E7E7E7" points="402,272.304,412,276.304,402,280.304,406,276.304" style="stroke:#E7E7E7;stroke-width:1.0;"/><line style="stroke:#E7E7E7;stroke-width:1.0;" x1="248" x2="408" y1="276.304" y2="276.304"/><text fill="#FFFFFF" font-family="sans-serif" font-size="13" font-weight="bold" lengthAdjust="spacing" textLength="7" x="255" y="270.495">6</text><text fill="#FFFFFF" font-family="sans-serif" font-size="13" lengthAdjust="spacing" textLength="136" x="266" y="270.495">PATCH /robots/{:code}</text><polygon fill="#E7E7E7" points="259,304.01,249,308.01,259,312.01,255,308.01" style="stroke:#E7E7E7;stroke-width:1.0;"/><line style="stroke:#E7E7E7;stroke-width:1.0;stroke-dasharray:2.0,2.0;" x1="253" x2="418" y1="308.01" y2="308.01"/><text fill="#FFFFFF" font-family="sans-serif" font-size="13" font-weight="bold" lengthAdjust="spacing" textLength="7" x="265" y="302.201">7</text><text fill="#FFFFFF" font-family="sans-serif" font-size="13" lengthAdjust="spacing" textLength="80" x="276" y="302.201">error/success</text><polygon fill="#E7E7E7" points="79,335.716,69,339.716,79,343.716,75,339.716" style="stroke:#E7E7E7;stroke-width:1.0;"/><line style="stroke:#E7E7E7;stroke-width:1.0;stroke-dasharray:2.0,2.0;" x1="73" x2="242" y1="339.716" y2="339.716"/><text fill="#FFFFFF" font-family="sans-serif" font-size="13" font-weight="bold" lengthAdjust="spacing" textLength="7" x="85" y="333.907">8</text><text fill="#FFFFFF" font-family="sans-serif" font-size="13" lengthAdjust="spacing" textLength="123" x="96" y="333.907">inform error/success</text><!--SRC=[bP4zRiCm38Ntd8BmRdZtKA18_vO07N81Mc9h0f5eK58w5Brx6HL9vRP3eqMW7hz7FWXBbbZ2HBhPeCkYq6qnB2N13YE-adQ02KeoUK7Dx7Z1cA5xK8cvf-Y_T5whkxlw77mrvIDcgXvWnsxeRmo14JZEF746bKboLR_RkTQLu1CGl06FztiOQdUwo1V4na5p3EZFWtuWdbfeDUX4s8OZf5dU08_81vmEr3eqj6tvAvIRHHAb_uTwljrldywnXlVHYQUFg-AHgkYGYdEKhal9yKKq_66m3jbMze-V]--></g></svg>