<?xml version="1.0" encoding="us-ascii" standalone="no"?><svg xmlns="http://www.w3.org/2000/svg" xmlns:xlink="http://www.w3.org/1999/xlink" contentStyleType="text/css" height="524px" preserveAspectRatio="none" style="width:603px;height:524px;background:#FFFFFF;" version="1.1" viewBox="0 0 603 524" width="603px" zoomAndPan="magnify"><defs/><g><rect fill="#FFFFFF" height="337.541" style="stroke:#181818;stroke-width:1.0;" width="10" x="64" y="93.6211"/><rect fill="#FFFFFF" height="31.291" style="stroke:#181818;stroke-width:1.0;" width="10" x="267" y="116.9121"/><rect fill="#FFFFFF" height="251.668" style="stroke:#181818;stroke-width:1.0;" width="10" x="267" y="179.4941"/><rect fill="#FFFFFF" height="220.377" style="stroke:#181818;stroke-width:1.0;" width="10" x="411" y="210.7852"/><rect fill="none" height="161.0859" style="stroke:#000000;stroke-width:1.5;" width="433.5" x="10" y="263.0762"/><line style="stroke:#181818;stroke-width:0.5;stroke-dasharray:5.0,5.0;" x1="69" x2="69" y1="83.6211" y2="441.1621"/><line style="stroke:#181818;stroke-width:0.5;stroke-dasharray:5.0,5.0;" x1="272" x2="272" y1="83.6211" y2="441.1621"/><line style="stroke:#181818;stroke-width:0.5;stroke-dasharray:5.0,5.0;" x1="415.5" x2="415.5" y1="83.6211" y2="441.1621"/><text fill="#000000" font-family="sans-serif" font-size="14" lengthAdjust="spacing" textLength="92" x="20" y="80.1074">Fleet Manager</text><ellipse cx="69" cy="13.5" fill="#E2E2F0" rx="8" ry="8" style="stroke:#181818;stroke-width:0.5;"/><path d="M69,21.5 L69,48.5 M56,29.5 L82,29.5 M69,48.5 L56,63.5 M69,48.5 L82,63.5 " fill="none" style="stroke:#181818;stroke-width:0.5;"/><text fill="#000000" font-family="sans-serif" font-size="14" lengthAdjust="spacing" textLength="92" x="20" y="455.2695">Fleet Manager</text><ellipse cx="69" cy="467.2832" fill="#E2E2F0" rx="8" ry="8" style="stroke:#181818;stroke-width:0.5;"/><path d="M69,475.2832 L69,502.2832 M56,483.2832 L82,483.2832 M69,502.2832 L56,517.2832 M69,502.2832 L82,517.2832 " fill="none" style="stroke:#181818;stroke-width:0.5;"/><rect fill="#E2E2F0" height="32.6211" rx="2.5" ry="2.5" style="stroke:#181818;stroke-width:0.5;" width="32" x="256" y="50"/><text fill="#000000" font-family="sans-serif" font-size="14" lengthAdjust="spacing" textLength="18" x="263" y="72.1074">FE</text><rect fill="#E2E2F0" height="32.6211" rx="2.5" ry="2.5" style="stroke:#181818;stroke-width:0.5;" width="32" x="256" y="440.1621"/><text fill="#000000" font-family="sans-serif" font-size="14" lengthAdjust="spacing" textLength="18" x="263" y="462.2695">FE</text><rect fill="#E2E2F0" height="32.6211" rx="2.5" ry="2.5" style="stroke:#181818;stroke-width:0.5;" width="35" x="398.5" y="50"/><text fill="#000000" font-family="sans-serif" font-size="14" lengthAdjust="spacing" textLength="21" x="405.5" y="72.1074">MD</text><rect fill="#E2E2F0" height="32.6211" rx="2.5" ry="2.5" style="stroke:#181818;stroke-width:0.5;" width="35" x="398.5" y="440.1621"/><text fill="#000000" font-family="sans-serif" font-size="14" lengthAdjust="spacing" textLength="21" x="405.5" y="462.2695">MD</text><rect fill="#FFFFFF" height="337.541" style="stroke:#181818;stroke-width:1.0;" width="10" x="64" y="93.6211"/><rect fill="#FFFFFF" height="31.291" style="stroke:#181818;stroke-width:1.0;" width="10" x="267" y="116.9121"/><rect fill="#FFFFFF" height="251.668" style="stroke:#181818;stroke-width:1.0;" width="10" x="267" y="179.4941"/><rect fill="#FFFFFF" height="220.377" style="stroke:#181818;stroke-width:1.0;" width="10" x="411" y="210.7852"/><polygon fill="#181818" points="255,112.9121,265,116.9121,255,120.9121,259,116.9121" style="stroke:#181818;stroke-width:1.0;"/><line style="stroke:#181818;stroke-width:1.0;" x1="74" x2="261" y1="116.9121" y2="116.9121"/><text fill="#000000" font-family="sans-serif" font-size="13" font-weight="bold" lengthAdjust="spacing" textLength="7" x="81" y="111.6494">1</text><text fill="#000000" font-family="sans-serif" font-size="13" lengthAdjust="spacing" textLength="151" x="92" y="111.6494">wants to create robot type</text><polygon fill="#181818" points="85,144.2031,75,148.2031,85,152.2031,81,148.2031" style="stroke:#181818;stroke-width:1.0;"/><line style="stroke:#181818;stroke-width:1.0;stroke-dasharray:2.0,2.0;" x1="79" x2="271" y1="148.2031" y2="148.2031"/><text fill="#000000" font-family="sans-serif" font-size="13" font-weight="bold" lengthAdjust="spacing" textLength="7" x="91" y="142.9404">2</text><text fill="#000000" font-family="sans-serif" font-size="13" lengthAdjust="spacing" textLength="79" x="102" y="142.9404">requests data</text><polygon fill="#181818" points="255,175.4941,265,179.4941,255,183.4941,259,179.4941" style="stroke:#181818;stroke-width:1.0;"/><line style="stroke:#181818;stroke-width:1.0;" x1="74" x2="261" y1="179.4941" y2="179.4941"/><text fill="#000000" font-family="sans-serif" font-size="13" font-weight="bold" lengthAdjust="spacing" textLength="7" x="81" y="174.2314">3</text><text fill="#000000" font-family="sans-serif" font-size="13" lengthAdjust="spacing" textLength="76" x="92" y="174.2314">provides data</text><polygon fill="#181818" points="399,206.7852,409,210.7852,399,214.7852,403,210.7852" style="stroke:#181818;stroke-width:1.0;"/><line style="stroke:#181818;stroke-width:1.0;" x1="277" x2="405" y1="210.7852" y2="210.7852"/><text fill="#000000" font-family="sans-serif" font-size="13" font-weight="bold" lengthAdjust="spacing" textLength="7" x="284" y="205.5225">4</text><text fill="#000000" font-family="sans-serif" font-size="13" lengthAdjust="spacing" textLength="104" x="295" y="205.5225">POST /robottypes</text><path d="M426,223.7852 L426,250.7852 L596,250.7852 L596,233.7852 L586,223.7852 L426,223.7852 " fill="#FEFFDD" style="stroke:#181818;stroke-width:0.5;"/><path d="M586,223.7852 L586,233.7852 L596,233.7852 L586,223.7852 " fill="#FEFFDD" style="stroke:#181818;stroke-width:0.5;"/><text fill="#000000" font-family="sans-serif" font-size="13" lengthAdjust="spacing" textLength="149" x="432" y="242.8135">see us350 documentation</text><path d="M10,263.0762 L71,263.0762 L71,272.3672 L61,282.3672 L10,282.3672 L10,263.0762 " fill="#EEEEEE" style="stroke:#000000;stroke-width:1.5;"/><rect fill="none" height="161.0859" style="stroke:#000000;stroke-width:1.5;" width="433.5" x="10" y="263.0762"/><text fill="#000000" font-family="sans-serif" font-size="13" font-weight="bold" lengthAdjust="spacing" textLength="16" x="25" y="278.1045">alt</text><text fill="#000000" font-family="sans-serif" font-size="11" font-weight="bold" lengthAdjust="spacing" textLength="55" x="86" y="276.9463">[success]</text><polygon fill="#181818" points="288,301.6582,278,305.6582,288,309.6582,284,305.6582" style="stroke:#181818;stroke-width:1.0;"/><line style="stroke:#181818;stroke-width:1.0;stroke-dasharray:2.0,2.0;" x1="282" x2="410" y1="305.6582" y2="305.6582"/><text fill="#000000" font-family="sans-serif" font-size="13" font-weight="bold" lengthAdjust="spacing" textLength="7" x="294" y="300.3955">5</text><text fill="#000000" font-family="sans-serif" font-size="13" lengthAdjust="spacing" textLength="86" x="305" y="300.3955">201: robotType</text><polygon fill="#181818" points="85,332.9492,75,336.9492,85,340.9492,81,336.9492" style="stroke:#181818;stroke-width:1.0;"/><line style="stroke:#181818;stroke-width:1.0;stroke-dasharray:2.0,2.0;" x1="79" x2="266" y1="336.9492" y2="336.9492"/><text fill="#000000" font-family="sans-serif" font-size="13" font-weight="bold" lengthAdjust="spacing" textLength="7" x="91" y="331.6865">6</text><text fill="#000000" font-family="sans-serif" font-size="13" lengthAdjust="spacing" textLength="158" x="102" y="331.6865">previews created robot type</text><line style="stroke:#000000;stroke-width:1.0;stroke-dasharray:2.0,2.0;" x1="10" x2="443.5" y1="345.9492" y2="345.9492"/><text fill="#000000" font-family="sans-serif" font-size="11" font-weight="bold" lengthAdjust="spacing" textLength="145" x="15" y="357.8193">[error creating robot type]</text><polygon fill="#181818" points="288,380.8711,278,384.8711,288,388.8711,284,384.8711" style="stroke:#181818;stroke-width:1.0;"/><line style="stroke:#181818;stroke-width:1.0;stroke-dasharray:2.0,2.0;" x1="282" x2="410" y1="384.8711" y2="384.8711"/><text fill="#000000" font-family="sans-serif" font-size="13" font-weight="bold" lengthAdjust="spacing" textLength="7" x="294" y="379.6084">7</text><text fill="#000000" font-family="sans-serif" font-size="13" lengthAdjust="spacing" textLength="55" x="305" y="379.6084">422: error</text><polygon fill="#181818" points="85,412.1621,75,416.1621,85,420.1621,81,416.1621" style="stroke:#181818;stroke-width:1.0;"/><line style="stroke:#181818;stroke-width:1.0;stroke-dasharray:2.0,2.0;" x1="79" x2="266" y1="416.1621" y2="416.1621"/><text fill="#000000" font-family="sans-serif" font-size="13" font-weight="bold" lengthAdjust="spacing" textLength="7" x="91" y="410.8994">8</text><text fill="#000000" font-family="sans-serif" font-size="13" lengthAdjust="spacing" textLength="72" x="102" y="410.8994">informs error</text><!--SRC=[TL9DJyCm3BttLrYxLum2bnvs0cuJIEmFP8bN8gr9YPrE_7kSb7westo9uhptR3z7HVOkjaSCHQ4q-m2RzpCYmruvrM3OW2A89A-T2corxPHZmRmD3tQLtx_cV6kockqLOsQ3X9nGxeG3DLm4JS0UTC242Vxe6VYtmmoTkJRVCzr2cUYYKaF0duWa4aQnoX23Iz9LmIxutXfS4ExLs4dtGlZy-3h0G-uhjKN519g8CkMOSpuDOPjl1dyQ10ZJw4ylMp1UnnOTAxRUpJ9d1efQ8z6KIo7aSkowsZxMWpU7qPgRTdG1UuiN-hVJhFrCWMT2m11anHbbNNCBjcxXkQhgWNQ_l7Kd7rfQmT3D_Yosa_x6zSAMD_alVm00]--></g></svg>