<?xml version="1.0" encoding="us-ascii" standalone="no"?><svg xmlns="http://www.w3.org/2000/svg" xmlns:xlink="http://www.w3.org/1999/xlink" contentStyleType="text/css" height="572px" preserveAspectRatio="none" style="width:646px;height:572px;background:#FFFFFF;" version="1.1" viewBox="0 0 646 572" width="646px" zoomAndPan="magnify"><defs/><g><rect fill="#FFFFFF" height="389.6367" style="stroke:#181818;stroke-width:1.0;" width="10" x="66.5" y="91.4883"/><rect fill="#FFFFFF" height="29.3105" style="stroke:#181818;stroke-width:1.0;" width="10" x="287.5" y="112.7988"/><rect fill="#FFFFFF" height="309.7051" style="stroke:#181818;stroke-width:1.0;" width="10" x="287.5" y="171.4199"/><rect fill="#FFFFFF" height="280.3945" style="stroke:#181818;stroke-width:1.0;" width="10" x="440.5" y="200.7305"/><rect fill="none" height="223.084" style="stroke:#000000;stroke-width:1.5;" width="482" x="10" y="251.041"/><line style="stroke:#181818;stroke-width:0.5;stroke-dasharray:5.0,5.0;" x1="71" x2="71" y1="81.4883" y2="491.125"/><line style="stroke:#181818;stroke-width:0.5;stroke-dasharray:5.0,5.0;" x1="292" x2="292" y1="81.4883" y2="491.125"/><line style="stroke:#181818;stroke-width:0.5;stroke-dasharray:5.0,5.0;" x1="445" x2="445" y1="81.4883" y2="491.125"/><text fill="#000000" font-family="sans-serif" font-size="14" lengthAdjust="spacing" textLength="97" x="20" y="78.5352">Fleet Manager</text><ellipse cx="71.5" cy="13.5" fill="#E2E2F0" rx="8" ry="8" style="stroke:#181818;stroke-width:0.5;"/><path d="M71.5,21.5 L71.5,48.5 M58.5,29.5 L84.5,29.5 M71.5,48.5 L58.5,63.5 M71.5,48.5 L84.5,63.5 " fill="none" style="stroke:#181818;stroke-width:0.5;"/><text fill="#000000" font-family="sans-serif" font-size="14" lengthAdjust="spacing" textLength="97" x="20" y="503.6602">Fleet Manager</text><ellipse cx="71.5" cy="515.1133" fill="#E2E2F0" rx="8" ry="8" style="stroke:#181818;stroke-width:0.5;"/><path d="M71.5,523.1133 L71.5,550.1133 M58.5,531.1133 L84.5,531.1133 M71.5,550.1133 L58.5,565.1133 M71.5,550.1133 L84.5,565.1133 " fill="none" style="stroke:#181818;stroke-width:0.5;"/><rect fill="#E2E2F0" height="30.4883" rx="2.5" ry="2.5" style="stroke:#181818;stroke-width:0.5;" width="65" x="260" y="50"/><text fill="#000000" font-family="sans-serif" font-size="14" lengthAdjust="spacing" textLength="51" x="267" y="70.5352">Fleet UI</text><rect fill="#E2E2F0" height="30.4883" rx="2.5" ry="2.5" style="stroke:#181818;stroke-width:0.5;" width="65" x="260" y="490.125"/><text fill="#000000" font-family="sans-serif" font-size="14" lengthAdjust="spacing" textLength="51" x="267" y="510.6602">Fleet UI</text><rect fill="#E2E2F0" height="30.4883" rx="2.5" ry="2.5" style="stroke:#181818;stroke-width:0.5;" width="73" x="409" y="50"/><text fill="#000000" font-family="sans-serif" font-size="14" lengthAdjust="spacing" textLength="59" x="416" y="70.5352">Fleet MD</text><rect fill="#E2E2F0" height="30.4883" rx="2.5" ry="2.5" style="stroke:#181818;stroke-width:0.5;" width="73" x="409" y="490.125"/><text fill="#000000" font-family="sans-serif" font-size="14" lengthAdjust="spacing" textLength="59" x="416" y="510.6602">Fleet MD</text><rect fill="#FFFFFF" height="389.6367" style="stroke:#181818;stroke-width:1.0;" width="10" x="66.5" y="91.4883"/><rect fill="#FFFFFF" height="29.3105" style="stroke:#181818;stroke-width:1.0;" width="10" x="287.5" y="112.7988"/><rect fill="#FFFFFF" height="309.7051" style="stroke:#181818;stroke-width:1.0;" width="10" x="287.5" y="171.4199"/><rect fill="#FFFFFF" height="280.3945" style="stroke:#181818;stroke-width:1.0;" width="10" x="440.5" y="200.7305"/><polygon fill="#181818" points="275.5,108.7988,285.5,112.7988,275.5,116.7988,279.5,112.7988" style="stroke:#181818;stroke-width:1.0;"/><line style="stroke:#181818;stroke-width:1.0;" x1="76.5" x2="281.5" y1="112.7988" y2="112.7988"/><text fill="#000000" font-family="sans-serif" font-size="13" font-weight="bold" lengthAdjust="spacing" textLength="9" x="83.5" y="108.0566">1</text><text fill="#000000" font-family="sans-serif" font-size="13" lengthAdjust="spacing" textLength="107" x="96.5" y="108.0566">create robot type</text><polygon fill="#181818" points="87.5,138.1094,77.5,142.1094,87.5,146.1094,83.5,142.1094" style="stroke:#181818;stroke-width:1.0;"/><line style="stroke:#181818;stroke-width:1.0;stroke-dasharray:2.0,2.0;" x1="81.5" x2="291.5" y1="142.1094" y2="142.1094"/><text fill="#000000" font-family="sans-serif" font-size="13" font-weight="bold" lengthAdjust="spacing" textLength="9" x="93.5" y="137.3672">2</text><text fill="#000000" font-family="sans-serif" font-size="13" lengthAdjust="spacing" textLength="85" x="106.5" y="137.3672">requests data</text><polygon fill="#181818" points="275.5,167.4199,285.5,171.4199,275.5,175.4199,279.5,171.4199" style="stroke:#181818;stroke-width:1.0;"/><line style="stroke:#181818;stroke-width:1.0;" x1="76.5" x2="281.5" y1="171.4199" y2="171.4199"/><text fill="#000000" font-family="sans-serif" font-size="13" font-weight="bold" lengthAdjust="spacing" textLength="9" x="83.5" y="166.6777">3</text><text fill="#000000" font-family="sans-serif" font-size="13" lengthAdjust="spacing" textLength="85" x="96.5" y="166.6777">provides data</text><polygon fill="#181818" points="428.5,196.7305,438.5,200.7305,428.5,204.7305,432.5,200.7305" style="stroke:#181818;stroke-width:1.0;"/><line style="stroke:#181818;stroke-width:1.0;" x1="297.5" x2="434.5" y1="200.7305" y2="200.7305"/><text fill="#000000" font-family="sans-serif" font-size="13" font-weight="bold" lengthAdjust="spacing" textLength="9" x="304.5" y="195.9883">4</text><text fill="#000000" font-family="sans-serif" font-size="13" lengthAdjust="spacing" textLength="111" x="317.5" y="195.9883">POST /robottypes</text><path d="M455,213.7305 L455,238.7305 L639,238.7305 L639,223.7305 L629,213.7305 L455,213.7305 " fill="#FEFFDD" style="stroke:#181818;stroke-width:0.5;"/><path d="M629,213.7305 L629,223.7305 L639,223.7305 L629,213.7305 " fill="#FEFFDD" style="stroke:#181818;stroke-width:0.5;"/><text fill="#000000" font-family="sans-serif" font-size="13" lengthAdjust="spacing" textLength="163" x="461" y="231.2988">see us350 documentation</text><path d="M10,251.041 L72,251.041 L72,258.3516 L62,268.3516 L10,268.3516 L10,251.041 " fill="#EEEEEE" style="stroke:#000000;stroke-width:1.5;"/><rect fill="none" height="223.084" style="stroke:#000000;stroke-width:1.5;" width="482" x="10" y="251.041"/><text fill="#000000" font-family="sans-serif" font-size="13" font-weight="bold" lengthAdjust="spacing" textLength="17" x="25" y="264.6094">alt</text><text fill="#000000" font-family="sans-serif" font-size="11" font-weight="bold" lengthAdjust="spacing" textLength="51" x="87" y="263.6758">[success]</text><polygon fill="#181818" points="308.5,285.6621,298.5,289.6621,308.5,293.6621,304.5,289.6621" style="stroke:#181818;stroke-width:1.0;"/><line style="stroke:#181818;stroke-width:1.0;stroke-dasharray:2.0,2.0;" x1="302.5" x2="439.5" y1="289.6621" y2="289.6621"/><text fill="#000000" font-family="sans-serif" font-size="13" font-weight="bold" lengthAdjust="spacing" textLength="9" x="314.5" y="284.9199">5</text><text fill="#000000" font-family="sans-serif" font-size="13" lengthAdjust="spacing" textLength="96" x="327.5" y="284.9199">201: robotType</text><polygon fill="#181818" points="87.5,314.9727,77.5,318.9727,87.5,322.9727,83.5,318.9727" style="stroke:#181818;stroke-width:1.0;"/><line style="stroke:#181818;stroke-width:1.0;stroke-dasharray:2.0,2.0;" x1="81.5" x2="286.5" y1="318.9727" y2="318.9727"/><text fill="#000000" font-family="sans-serif" font-size="13" font-weight="bold" lengthAdjust="spacing" textLength="9" x="93.5" y="314.2305">6</text><text fill="#000000" font-family="sans-serif" font-size="13" lengthAdjust="spacing" textLength="174" x="106.5" y="314.2305">previews created robot type</text><line style="stroke:#000000;stroke-width:1.0;stroke-dasharray:2.0,2.0;" x1="10" x2="492" y1="327.9727" y2="327.9727"/><text fill="#000000" font-family="sans-serif" font-size="11" font-weight="bold" lengthAdjust="spacing" textLength="145" x="15" y="338.6074">[robot type already exists]</text><polygon fill="#181818" points="308.5,359.2383,298.5,363.2383,308.5,367.2383,304.5,363.2383" style="stroke:#181818;stroke-width:1.0;"/><line style="stroke:#181818;stroke-width:1.0;stroke-dasharray:2.0,2.0;" x1="302.5" x2="439.5" y1="363.2383" y2="363.2383"/><text fill="#000000" font-family="sans-serif" font-size="13" font-weight="bold" lengthAdjust="spacing" textLength="9" x="314.5" y="358.4961">7</text><text fill="#000000" font-family="sans-serif" font-size="13" lengthAdjust="spacing" textLength="62" x="327.5" y="358.4961">412: error</text><polygon fill="#181818" points="87.5,388.5488,77.5,392.5488,87.5,396.5488,83.5,392.5488" style="stroke:#181818;stroke-width:1.0;"/><line style="stroke:#181818;stroke-width:1.0;stroke-dasharray:2.0,2.0;" x1="81.5" x2="286.5" y1="392.5488" y2="392.5488"/><text fill="#000000" font-family="sans-serif" font-size="13" font-weight="bold" lengthAdjust="spacing" textLength="9" x="93.5" y="387.8066">8</text><text fill="#000000" font-family="sans-serif" font-size="13" lengthAdjust="spacing" textLength="83" x="106.5" y="387.8066">informs error</text><line style="stroke:#000000;stroke-width:1.0;stroke-dasharray:2.0,2.0;" x1="10" x2="492" y1="401.5488" y2="401.5488"/><text fill="#000000" font-family="sans-serif" font-size="11" font-weight="bold" lengthAdjust="spacing" textLength="131" x="15" y="412.1836">[robot type not created]</text><polygon fill="#181818" points="308.5,432.8145,298.5,436.8145,308.5,440.8145,304.5,436.8145" style="stroke:#181818;stroke-width:1.0;"/><line style="stroke:#181818;stroke-width:1.0;stroke-dasharray:2.0,2.0;" x1="302.5" x2="439.5" y1="436.8145" y2="436.8145"/><text fill="#000000" font-family="sans-serif" font-size="13" font-weight="bold" lengthAdjust="spacing" textLength="9" x="314.5" y="432.0723">9</text><text fill="#000000" font-family="sans-serif" font-size="13" lengthAdjust="spacing" textLength="62" x="327.5" y="432.0723">422: error</text><polygon fill="#181818" points="87.5,462.125,77.5,466.125,87.5,470.125,83.5,466.125" style="stroke:#181818;stroke-width:1.0;"/><line style="stroke:#181818;stroke-width:1.0;stroke-dasharray:2.0,2.0;" x1="81.5" x2="286.5" y1="466.125" y2="466.125"/><text fill="#000000" font-family="sans-serif" font-size="13" font-weight="bold" lengthAdjust="spacing" textLength="18" x="93.5" y="461.3828">10</text><text fill="#000000" font-family="sans-serif" font-size="13" lengthAdjust="spacing" textLength="83" x="115.5" y="461.3828">informs error</text><!--SRC=[dLAnRi8m4Dtp5IUMJAX0soK3NQ9A7I8gbNw0YG_gAh7JyvcMl-_PD101MNgBPVkzU- -UJWLsDhGRf2nJDJk2oNE3o50fgtP84r0UWfVVJX6RsdJASezvVpb-copBrwjoLK2jcWOCmsVm37bLva-tU5MPUArEccQl69C6ICa9qwNq1Eb66B_8RHm37pfCY3F5f7jY6PX6bf0B8FmAwDc3LgmIHEEGTANJaTiRZGF2cCPIJ0lXTVMsXhlaAzhosGbq8ifm_PjrSGYp-s1mssC3Zt7Y-ySPQ5U75YqhDiwUspGCFjGrUdzwYoNaQUzwCPiNnspMVJGtu-W8zmQ__L-S-ZBFMDZuOSwYBrXz0Fmn4kIeXOVveW0aSZGkR-pMKUilO9U2ab7lRrnjyMyrU-uws8MuWDVhCRp9Klu2]--></g></svg>