<?xml version="1.0" encoding="us-ascii" standalone="no"?><svg xmlns="http://www.w3.org/2000/svg" xmlns:xlink="http://www.w3.org/1999/xlink" contentStyleType="text/css" height="1235px" preserveAspectRatio="none" style="width:1487px;height:1235px;background:#FFFFFF;" version="1.1" viewBox="0 0 1487 1235" width="1487px" zoomAndPan="magnify"><defs/><g><!--cluster system--><g id="cluster_system"><path d="M8.5,6.602 L59.5,6.602 A3.75,3.75 0 0 1 62,9.102 L69,31.6699 L1477.5,31.6699 A2.5,2.5 0 0 1 1480,34.1699 L1480,1225.862 A2.5,2.5 0 0 1 1477.5,1228.362 L8.5,1228.362 A2.5,2.5 0 0 1 6,1225.862 L6,9.102 A2.5,2.5 0 0 1 8.5,6.602 " fill="none" style="stroke:#000000;stroke-width:1.5;"/><line style="stroke:#000000;stroke-width:1.5;" x1="6" x2="69" y1="31.6699" y2="31.6699"/><text fill="#000000" font-family="sans-serif" font-size="14" font-weight="bold" lengthAdjust="spacing" textLength="50" x="10" y="23.5679">system</text></g><!--cluster Infrastructure--><g id="cluster_Infrastructure"><path d="M305.5,52.602 L403.5,52.602 A3.75,3.75 0 0 1 406,55.102 L413,77.6699 L783.5,77.6699 A2.5,2.5 0 0 1 786,80.1699 L786,222.102 A2.5,2.5 0 0 1 783.5,224.602 L305.5,224.602 A2.5,2.5 0 0 1 303,222.102 L303,55.102 A2.5,2.5 0 0 1 305.5,52.602 " fill="none" style="stroke:#000000;stroke-width:1.5;"/><line style="stroke:#000000;stroke-width:1.5;" x1="303" x2="413" y1="77.6699" y2="77.6699"/><text fill="#000000" font-family="sans-serif" font-size="14" font-weight="bold" lengthAdjust="spacing" textLength="97" x="307" y="69.5679">Infrastructure</text></g><!--cluster Routes--><g id="cluster_Routes"><path d="M606.5,98.602 L655.5,98.602 A3.75,3.75 0 0 1 658,101.102 L665,123.6699 L759.5,123.6699 A2.5,2.5 0 0 1 762,126.1699 L762,198.102 A2.5,2.5 0 0 1 759.5,200.602 L606.5,200.602 A2.5,2.5 0 0 1 604,198.102 L604,101.102 A2.5,2.5 0 0 1 606.5,98.602 " fill="none" style="stroke:#000000;stroke-width:1.5;"/><line style="stroke:#000000;stroke-width:1.5;" x1="604" x2="665" y1="123.6699" y2="123.6699"/><text fill="#000000" font-family="sans-serif" font-size="14" font-weight="bold" lengthAdjust="spacing" textLength="48" x="608" y="115.5679">Routes</text></g><!--cluster Persistence--><g id="cluster_Persistence"><path d="M329.5,98.602 L409.5,98.602 A3.75,3.75 0 0 1 412,101.102 L419,123.6699 L577.5,123.6699 A2.5,2.5 0 0 1 580,126.1699 L580,198.102 A2.5,2.5 0 0 1 577.5,200.602 L329.5,200.602 A2.5,2.5 0 0 1 327,198.102 L327,101.102 A2.5,2.5 0 0 1 329.5,98.602 " fill="none" style="stroke:#000000;stroke-width:1.5;"/><line style="stroke:#000000;stroke-width:1.5;" x1="327" x2="419" y1="123.6699" y2="123.6699"/><text fill="#000000" font-family="sans-serif" font-size="14" font-weight="bold" lengthAdjust="spacing" textLength="79" x="331" y="115.5679">Persistence</text></g><!--cluster Interface Adapters--><g id="cluster_Interface Adapters"><path d="M32.5,322.602 L162.5,322.602 A3.75,3.75 0 0 1 165,325.102 L172,347.6699 L644.5,347.6699 A2.5,2.5 0 0 1 647,350.1699 L647,780.102 A2.5,2.5 0 0 1 644.5,782.602 L32.5,782.602 A2.5,2.5 0 0 1 30,780.102 L30,325.102 A2.5,2.5 0 0 1 32.5,322.602 " fill="none" style="stroke:#000000;stroke-width:1.5;"/><line style="stroke:#000000;stroke-width:1.5;" x1="30" x2="172" y1="347.6699" y2="347.6699"/><text fill="#000000" font-family="sans-serif" font-size="14" font-weight="bold" lengthAdjust="spacing" textLength="129" x="34" y="339.5679">Interface Adapters</text></g><!--cluster Controllers--><g id="cluster_Controllers"><path d="M56.5,368.602 L134.5,368.602 A3.75,3.75 0 0 1 137,371.102 L144,393.6699 L285.5,393.6699 A2.5,2.5 0 0 1 288,396.1699 L288,756.102 A2.5,2.5 0 0 1 285.5,758.602 L56.5,758.602 A2.5,2.5 0 0 1 54,756.102 L54,371.102 A2.5,2.5 0 0 1 56.5,368.602 " fill="none" style="stroke:#000000;stroke-width:1.5;"/><line style="stroke:#000000;stroke-width:1.5;" x1="54" x2="144" y1="393.6699" y2="393.6699"/><text fill="#000000" font-family="sans-serif" font-size="14" font-weight="bold" lengthAdjust="spacing" textLength="77" x="58" y="385.5679">Controllers</text></g><!--cluster IControllers--><g id="cluster_IControllers"><path d="M82.5,414.602 L165.5,414.602 A3.75,3.75 0 0 1 168,417.102 L175,439.6699 L261.5,439.6699 A2.5,2.5 0 0 1 264,442.1699 L264,514.102 A2.5,2.5 0 0 1 261.5,516.602 L82.5,516.602 A2.5,2.5 0 0 1 80,514.102 L80,417.102 A2.5,2.5 0 0 1 82.5,414.602 " fill="none" style="stroke:#000000;stroke-width:1.5;"/><line style="stroke:#000000;stroke-width:1.5;" x1="80" x2="175" y1="439.6699" y2="439.6699"/><text fill="#000000" font-family="sans-serif" font-size="14" font-weight="bold" lengthAdjust="spacing" textLength="82" x="84" y="431.5679">IControllers</text></g><!--cluster ImplControllers--><g id="cluster_ImplControllers"><path d="M80.5,632.602 L190.5,632.602 A3.75,3.75 0 0 1 193,635.102 L200,657.6699 L261.5,657.6699 A2.5,2.5 0 0 1 264,660.1699 L264,732.102 A2.5,2.5 0 0 1 261.5,734.602 L80.5,734.602 A2.5,2.5 0 0 1 78,732.102 L78,635.102 A2.5,2.5 0 0 1 80.5,632.602 " fill="none" style="stroke:#000000;stroke-width:1.5;"/><line style="stroke:#000000;stroke-width:1.5;" x1="78" x2="200" y1="657.6699" y2="657.6699"/><text fill="#000000" font-family="sans-serif" font-size="14" font-weight="bold" lengthAdjust="spacing" textLength="109" x="82" y="649.5679">ImplControllers</text></g><!--cluster Repositories--><g id="cluster_Repositories"><path d="M314.5,414.602 L401.5,414.602 A3.75,3.75 0 0 1 404,417.102 L411,439.6699 L620.5,439.6699 A2.5,2.5 0 0 1 623,442.1699 L623,514.102 A2.5,2.5 0 0 1 620.5,516.602 L314.5,516.602 A2.5,2.5 0 0 1 312,514.102 L312,417.102 A2.5,2.5 0 0 1 314.5,414.602 " fill="none" style="stroke:#000000;stroke-width:1.5;"/><line style="stroke:#000000;stroke-width:1.5;" x1="312" x2="411" y1="439.6699" y2="439.6699"/><text fill="#000000" font-family="sans-serif" font-size="14" font-weight="bold" lengthAdjust="spacing" textLength="86" x="316" y="431.5679">Repositories</text></g><!--cluster Application Services--><g id="cluster_Application Services"><path d="M673.5,540.602 L813.5,540.602 A3.75,3.75 0 0 1 816,543.102 L823,565.6699 L1071.5,565.6699 A2.5,2.5 0 0 1 1074,568.1699 L1074,1186.982 A2.5,2.5 0 0 1 1071.5,1189.482 L673.5,1189.482 A2.5,2.5 0 0 1 671,1186.982 L671,543.102 A2.5,2.5 0 0 1 673.5,540.602 " fill="none" style="stroke:#000000;stroke-width:1.5;"/><line style="stroke:#000000;stroke-width:1.5;" x1="671" x2="823" y1="565.6699" y2="565.6699"/><text fill="#000000" font-family="sans-serif" font-size="14" font-weight="bold" lengthAdjust="spacing" textLength="139" x="675" y="557.5679">Application Services</text></g><!--cluster App Services--><g id="cluster_App Services"><path d="M697.5,586.602 L786.5,586.602 A3.75,3.75 0 0 1 789,589.102 L796,611.6699 L1047.5,611.6699 A2.5,2.5 0 0 1 1050,614.1699 L1050,1162.982 A2.5,2.5 0 0 1 1047.5,1165.482 L697.5,1165.482 A2.5,2.5 0 0 1 695,1162.982 L695,589.102 A2.5,2.5 0 0 1 697.5,586.602 " fill="none" style="stroke:#000000;stroke-width:1.5;"/><line style="stroke:#000000;stroke-width:1.5;" x1="695" x2="796" y1="611.6699" y2="611.6699"/><text fill="#000000" font-family="sans-serif" font-size="14" font-weight="bold" lengthAdjust="spacing" textLength="88" x="699" y="603.5679">App Services</text></g><!--cluster IAppServices--><g id="cluster_IAppServices"><path d="M779.5,1039.482 L869.5,1039.482 A3.75,3.75 0 0 1 872,1041.982 L879,1064.5499 L962.5,1064.5499 A2.5,2.5 0 0 1 965,1067.0499 L965,1138.982 A2.5,2.5 0 0 1 962.5,1141.482 L779.5,1141.482 A2.5,2.5 0 0 1 777,1138.982 L777,1041.982 A2.5,2.5 0 0 1 779.5,1039.482 " fill="none" style="stroke:#000000;stroke-width:1.5;"/><line style="stroke:#000000;stroke-width:1.5;" x1="777" x2="879" y1="1064.5499" y2="1064.5499"/><text fill="#000000" font-family="sans-serif" font-size="14" font-weight="bold" lengthAdjust="spacing" textLength="89" x="781" y="1056.4479">IAppServices</text></g><!--cluster ImplAppServices--><g id="cluster_ImplAppServices"><path d="M834.5,806.602 L951.5,806.602 A3.75,3.75 0 0 1 954,809.102 L961,831.6699 L1023.5,831.6699 A2.5,2.5 0 0 1 1026,834.1699 L1026,906.102 A2.5,2.5 0 0 1 1023.5,908.602 L834.5,908.602 A2.5,2.5 0 0 1 832,906.102 L832,809.102 A2.5,2.5 0 0 1 834.5,806.602 " fill="none" style="stroke:#000000;stroke-width:1.5;"/><line style="stroke:#000000;stroke-width:1.5;" x1="832" x2="961" y1="831.6699" y2="831.6699"/><text fill="#000000" font-family="sans-serif" font-size="14" font-weight="bold" lengthAdjust="spacing" textLength="116" x="836" y="823.5679">ImplAppServices</text></g><!--cluster IRepositories--><g id="cluster_IRepositories"><path d="M721.5,632.602 L813.5,632.602 A3.75,3.75 0 0 1 816,635.102 L823,657.6699 L1023.5,657.6699 A2.5,2.5 0 0 1 1026,660.1699 L1026,732.102 A2.5,2.5 0 0 1 1023.5,734.602 L721.5,734.602 A2.5,2.5 0 0 1 719,732.102 L719,635.102 A2.5,2.5 0 0 1 721.5,632.602 " fill="none" style="stroke:#000000;stroke-width:1.5;"/><line style="stroke:#000000;stroke-width:1.5;" x1="719" x2="823" y1="657.6699" y2="657.6699"/><text fill="#000000" font-family="sans-serif" font-size="14" font-weight="bold" lengthAdjust="spacing" textLength="91" x="723" y="649.5679">IRepositories</text></g><!--cluster Entities/Core/Domain--><g id="cluster_Entities/Core/Domain"><path d="M1100.5,932.602 L1251.5,932.602 A3.75,3.75 0 0 1 1254,935.102 L1261,957.6699 L1453.5,957.6699 A2.5,2.5 0 0 1 1456,960.1699 L1456,1201.862 A2.5,2.5 0 0 1 1453.5,1204.362 L1100.5,1204.362 A2.5,2.5 0 0 1 1098,1201.862 L1098,935.102 A2.5,2.5 0 0 1 1100.5,932.602 " fill="none" style="stroke:#000000;stroke-width:1.5;"/><line style="stroke:#000000;stroke-width:1.5;" x1="1098" x2="1261" y1="957.6699" y2="957.6699"/><text fill="#000000" font-family="sans-serif" font-size="14" font-weight="bold" lengthAdjust="spacing" textLength="150" x="1102" y="949.5679">Entities/Core/Domain</text></g><!--cluster Aggregates--><g id="cluster_Aggregates"><path d="M1124.5,978.602 L1205.5,978.602 A3.75,3.75 0 0 1 1208,981.102 L1215,1003.6699 L1429.5,1003.6699 A2.5,2.5 0 0 1 1432,1006.1699 L1432,1177.862 A2.5,2.5 0 0 1 1429.5,1180.362 L1124.5,1180.362 A2.5,2.5 0 0 1 1122,1177.862 L1122,981.102 A2.5,2.5 0 0 1 1124.5,978.602 " fill="none" style="stroke:#000000;stroke-width:1.5;"/><line style="stroke:#000000;stroke-width:1.5;" x1="1122" x2="1215" y1="1003.6699" y2="1003.6699"/><text fill="#000000" font-family="sans-serif" font-size="14" font-weight="bold" lengthAdjust="spacing" textLength="80" x="1126" y="995.5679">Aggregates</text></g><!--cluster a_Passage--><g id="cluster_a_Passage"><path d="M1292.5,1024.602 L1349.5,1024.602 A3.75,3.75 0 0 1 1352,1027.102 L1359,1049.6699 L1405.5,1049.6699 A2.5,2.5 0 0 1 1408,1052.1699 L1408,1153.862 A2.5,2.5 0 0 1 1405.5,1156.362 L1292.5,1156.362 A2.5,2.5 0 0 1 1290,1153.862 L1290,1027.102 A2.5,2.5 0 0 1 1292.5,1024.602 " fill="none" style="stroke:#000000;stroke-width:1.5;"/><line style="stroke:#000000;stroke-width:1.5;" x1="1290" x2="1359" y1="1049.6699" y2="1049.6699"/><text fill="#000000" font-family="sans-serif" font-size="14" font-weight="bold" lengthAdjust="spacing" textLength="56" x="1294" y="1041.5679">Passage</text></g><!--cluster a_building--><g id="cluster_a_building"><path d="M1148.5,1024.602 L1206.5,1024.602 A3.75,3.75 0 0 1 1209,1027.102 L1216,1049.6699 L1263.5,1049.6699 A2.5,2.5 0 0 1 1266,1052.1699 L1266,1153.862 A2.5,2.5 0 0 1 1263.5,1156.362 L1148.5,1156.362 A2.5,2.5 0 0 1 1146,1153.862 L1146,1027.102 A2.5,2.5 0 0 1 1148.5,1024.602 " fill="none" style="stroke:#000000;stroke-width:1.5;"/><line style="stroke:#000000;stroke-width:1.5;" x1="1146" x2="1216" y1="1049.6699" y2="1049.6699"/><text fill="#000000" font-family="sans-serif" font-size="14" font-weight="bold" lengthAdjust="spacing" textLength="57" x="1150" y="1041.5679">Building</text></g><!--class RoutePassage--><g id="elem_RoutePassage"><rect codeLine="16" fill="#F1F1F1" height="48" id="RoutePassage" rx="2.5" ry="2.5" style="stroke:#181818;stroke-width:0.5;" width="126" x="620" y="136.602"/><ellipse cx="635" cy="152.602" fill="#ADD1B2" rx="11" ry="11" style="stroke:#181818;stroke-width:1.0;"/><path d="M637.5625,159.1176 Q635.9063,159.7426 634.7031,159.7426 Q633.125,159.7426 631.7813,158.8989 Q630.4531,158.0395 629.7188,156.3832 Q628.9844,154.727 628.9844,152.6489 Q628.9844,150.5864 629.7031,148.9301 Q630.4219,147.2739 631.7656,146.4145 Q633.1094,145.5551 634.7031,145.5551 Q635.9063,145.5551 637.5625,146.1645 L637.5625,148.352 Q635.875,147.3676 634.6406,147.3676 Q633.7344,147.3676 632.9688,148.0082 Q632.2188,148.6332 631.7344,149.8989 Q631.25,151.1489 631.25,152.6489 Q631.25,154.1645 631.75,155.4457 Q632.25,156.7114 633,157.3207 Q633.75,157.9301 634.6406,157.9301 Q635.875,157.9301 637.5625,156.9457 L637.5625,159.1176 Z " fill="#000000"/><text fill="#000000" font-family="sans-serif" font-size="14" lengthAdjust="spacing" textLength="94" x="649" y="158.034">RoutePassage</text><line style="stroke:#181818;stroke-width:0.5;" x1="621" x2="745" y1="168.602" y2="168.602"/><line style="stroke:#181818;stroke-width:0.5;" x1="621" x2="745" y1="176.602" y2="176.602"/></g><!--class IDBDriver--><g id="elem_IDBDriver"><rect codeLine="20" fill="#F1F1F1" height="48" id="IDBDriver" rx="2.5" ry="2.5" style="stroke:#181818;stroke-width:0.5;" width="93" x="470.5" y="136.602"/><ellipse cx="485.5" cy="152.602" fill="#B4A7E5" rx="11" ry="11" style="stroke:#181818;stroke-width:1.0;"/><path d="M481.4219,159.602 L481.4219,157.7895 L484.2656,157.7895 L484.2656,148.0082 L481.4219,148.0082 L481.4219,146.1801 L489.2969,146.1801 L489.2969,148.0082 L486.4688,148.0082 L486.4688,157.7895 L489.2969,157.7895 L489.2969,159.602 L481.4219,159.602 Z " fill="#000000"/><text fill="#000000" font-family="sans-serif" font-size="14" font-style="italic" lengthAdjust="spacing" textLength="61" x="499.5" y="158.034">IDBDriver</text><line style="stroke:#181818;stroke-width:0.5;" x1="471.5" x2="562.5" y1="168.602" y2="168.602"/><line style="stroke:#181818;stroke-width:0.5;" x1="471.5" x2="562.5" y1="176.602" y2="176.602"/></g><!--class DBDriver--><g id="elem_DBDriver"><rect codeLine="21" fill="#F1F1F1" height="48" id="DBDriver" rx="2.5" ry="2.5" style="stroke:#181818;stroke-width:0.5;" width="92" x="343" y="136.602"/><ellipse cx="358" cy="152.602" fill="#ADD1B2" rx="11" ry="11" style="stroke:#181818;stroke-width:1.0;"/><path d="M360.5625,159.1176 Q358.9063,159.7426 357.7031,159.7426 Q356.125,159.7426 354.7813,158.8989 Q353.4531,158.0395 352.7188,156.3832 Q351.9844,154.727 351.9844,152.6489 Q351.9844,150.5864 352.7031,148.9301 Q353.4219,147.2739 354.7656,146.4145 Q356.1094,145.5551 357.7031,145.5551 Q358.9063,145.5551 360.5625,146.1645 L360.5625,148.352 Q358.875,147.3676 357.6406,147.3676 Q356.7344,147.3676 355.9688,148.0082 Q355.2188,148.6332 354.7344,149.8989 Q354.25,151.1489 354.25,152.6489 Q354.25,154.1645 354.75,155.4457 Q355.25,156.7114 356,157.3207 Q356.75,157.9301 357.6406,157.9301 Q358.875,157.9301 360.5625,156.9457 L360.5625,159.1176 Z " fill="#000000"/><text fill="#000000" font-family="sans-serif" font-size="14" lengthAdjust="spacing" textLength="60" x="372" y="158.034">DBDriver</text><line style="stroke:#181818;stroke-width:0.5;" x1="344" x2="434" y1="168.602" y2="168.602"/><line style="stroke:#181818;stroke-width:0.5;" x1="344" x2="434" y1="176.602" y2="176.602"/></g><!--class IControllerPassage--><g id="elem_IControllerPassage"><rect codeLine="30" fill="#F1F1F1" height="48" id="IControllerPassage" rx="2.5" ry="2.5" style="stroke:#181818;stroke-width:0.5;" width="152" x="96" y="452.602"/><ellipse cx="111" cy="468.602" fill="#B4A7E5" rx="11" ry="11" style="stroke:#181818;stroke-width:1.0;"/><path d="M106.9219,475.602 L106.9219,473.7895 L109.7656,473.7895 L109.7656,464.0082 L106.9219,464.0082 L106.9219,462.1801 L114.7969,462.1801 L114.7969,464.0082 L111.9688,464.0082 L111.9688,473.7895 L114.7969,473.7895 L114.7969,475.602 L106.9219,475.602 Z " fill="#000000"/><text fill="#000000" font-family="sans-serif" font-size="14" font-style="italic" lengthAdjust="spacing" textLength="120" x="125" y="474.034">IControllerPassage</text><line style="stroke:#181818;stroke-width:0.5;" x1="97" x2="247" y1="484.602" y2="484.602"/><line style="stroke:#181818;stroke-width:0.5;" x1="97" x2="247" y1="492.602" y2="492.602"/></g><!--class ControllerPassage--><g id="elem_ControllerPassage"><rect codeLine="34" fill="#F1F1F1" height="48" id="ControllerPassage" rx="2.5" ry="2.5" style="stroke:#181818;stroke-width:0.5;" width="154" x="94" y="670.602"/><ellipse cx="109" cy="686.602" fill="#ADD1B2" rx="11" ry="11" style="stroke:#181818;stroke-width:1.0;"/><path d="M111.5625,693.1176 Q109.9063,693.7426 108.7031,693.7426 Q107.125,693.7426 105.7813,692.8989 Q104.4531,692.0395 103.7188,690.3832 Q102.9844,688.727 102.9844,686.6489 Q102.9844,684.5864 103.7031,682.9301 Q104.4219,681.2739 105.7656,680.4145 Q107.1094,679.5551 108.7031,679.5551 Q109.9063,679.5551 111.5625,680.1645 L111.5625,682.352 Q109.875,681.3676 108.6406,681.3676 Q107.7344,681.3676 106.9688,682.0082 Q106.2188,682.6332 105.7344,683.8989 Q105.25,685.1489 105.25,686.6489 Q105.25,688.1645 105.75,689.4457 Q106.25,690.7114 107,691.3207 Q107.75,691.9301 108.6406,691.9301 Q109.875,691.9301 111.5625,690.9457 L111.5625,693.1176 Z " fill="#000000"/><text fill="#000000" font-family="sans-serif" font-size="14" lengthAdjust="spacing" textLength="122" x="123" y="692.034">ControllerPassage</text><line style="stroke:#181818;stroke-width:0.5;" x1="95" x2="247" y1="702.602" y2="702.602"/><line style="stroke:#181818;stroke-width:0.5;" x1="95" x2="247" y1="710.602" y2="710.602"/></g><!--class RepoBuilding--><g id="elem_RepoBuilding"><rect codeLine="40" fill="#F1F1F1" height="48" id="RepoBuilding" rx="2.5" ry="2.5" style="stroke:#181818;stroke-width:0.5;" width="123" x="327.5" y="452.602"/><ellipse cx="342.5" cy="468.602" fill="#ADD1B2" rx="11" ry="11" style="stroke:#181818;stroke-width:1.0;"/><path d="M345.0625,475.1176 Q343.4063,475.7426 342.2031,475.7426 Q340.625,475.7426 339.2813,474.8989 Q337.9531,474.0395 337.2188,472.3832 Q336.4844,470.727 336.4844,468.6489 Q336.4844,466.5864 337.2031,464.9301 Q337.9219,463.2739 339.2656,462.4145 Q340.6094,461.5551 342.2031,461.5551 Q343.4063,461.5551 345.0625,462.1645 L345.0625,464.352 Q343.375,463.3676 342.1406,463.3676 Q341.2344,463.3676 340.4688,464.0082 Q339.7188,464.6332 339.2344,465.8989 Q338.75,467.1489 338.75,468.6489 Q338.75,470.1645 339.25,471.4457 Q339.75,472.7114 340.5,473.3207 Q341.25,473.9301 342.1406,473.9301 Q343.375,473.9301 345.0625,472.9457 L345.0625,475.1176 Z " fill="#000000"/><text fill="#000000" font-family="sans-serif" font-size="14" lengthAdjust="spacing" textLength="91" x="356.5" y="474.034">RepoBuilding</text><line style="stroke:#181818;stroke-width:0.5;" x1="328.5" x2="449.5" y1="484.602" y2="484.602"/><line style="stroke:#181818;stroke-width:0.5;" x1="328.5" x2="449.5" y1="492.602" y2="492.602"/></g><!--class RepoPassage--><g id="elem_RepoPassage"><rect codeLine="41" fill="#F1F1F1" height="48" id="RepoPassage" rx="2.5" ry="2.5" style="stroke:#181818;stroke-width:0.5;" width="121" x="485.5" y="452.602"/><ellipse cx="500.5" cy="468.602" fill="#ADD1B2" rx="11" ry="11" style="stroke:#181818;stroke-width:1.0;"/><path d="M503.0625,475.1176 Q501.4063,475.7426 500.2031,475.7426 Q498.625,475.7426 497.2813,474.8989 Q495.9531,474.0395 495.2188,472.3832 Q494.4844,470.727 494.4844,468.6489 Q494.4844,466.5864 495.2031,464.9301 Q495.9219,463.2739 497.2656,462.4145 Q498.6094,461.5551 500.2031,461.5551 Q501.4063,461.5551 503.0625,462.1645 L503.0625,464.352 Q501.375,463.3676 500.1406,463.3676 Q499.2344,463.3676 498.4688,464.0082 Q497.7188,464.6332 497.2344,465.8989 Q496.75,467.1489 496.75,468.6489 Q496.75,470.1645 497.25,471.4457 Q497.75,472.7114 498.5,473.3207 Q499.25,473.9301 500.1406,473.9301 Q501.375,473.9301 503.0625,472.9457 L503.0625,475.1176 Z " fill="#000000"/><text fill="#000000" font-family="sans-serif" font-size="14" lengthAdjust="spacing" textLength="89" x="514.5" y="474.034">RepoPassage</text><line style="stroke:#181818;stroke-width:0.5;" x1="486.5" x2="605.5" y1="484.602" y2="484.602"/><line style="stroke:#181818;stroke-width:0.5;" x1="486.5" x2="605.5" y1="492.602" y2="492.602"/></g><!--class IAppServicePassage--><g id="elem_IAppServicePassage"><rect codeLine="53" fill="#F1F1F1" height="48" id="IAppServicePassage" rx="2.5" ry="2.5" style="stroke:#181818;stroke-width:0.5;" width="156" x="793" y="1077.482"/><ellipse cx="808" cy="1093.482" fill="#B4A7E5" rx="11" ry="11" style="stroke:#181818;stroke-width:1.0;"/><path d="M803.9219,1100.482 L803.9219,1098.6695 L806.7656,1098.6695 L806.7656,1088.8882 L803.9219,1088.8882 L803.9219,1087.0601 L811.7969,1087.0601 L811.7969,1088.8882 L808.9688,1088.8882 L808.9688,1098.6695 L811.7969,1098.6695 L811.7969,1100.482 L803.9219,1100.482 Z " fill="#000000"/><text fill="#000000" font-family="sans-serif" font-size="14" font-style="italic" lengthAdjust="spacing" textLength="124" x="822" y="1098.914">IAppServicePassage</text><line style="stroke:#181818;stroke-width:0.5;" x1="794" x2="948" y1="1109.482" y2="1109.482"/><line style="stroke:#181818;stroke-width:0.5;" x1="794" x2="948" y1="1117.482" y2="1117.482"/></g><!--class AppServicePassage--><g id="elem_AppServicePassage"><rect codeLine="57" fill="#F1F1F1" height="48" id="AppServicePassage" rx="2.5" ry="2.5" style="stroke:#181818;stroke-width:0.5;" width="162" x="848" y="844.602"/><ellipse cx="863" cy="860.602" fill="#ADD1B2" rx="11" ry="11" style="stroke:#181818;stroke-width:1.0;"/><path d="M865.5625,867.1176 Q863.9063,867.7426 862.7031,867.7426 Q861.125,867.7426 859.7813,866.8989 Q858.4531,866.0395 857.7188,864.3832 Q856.9844,862.727 856.9844,860.6489 Q856.9844,858.5864 857.7031,856.9301 Q858.4219,855.2739 859.7656,854.4145 Q861.1094,853.5551 862.7031,853.5551 Q863.9063,853.5551 865.5625,854.1645 L865.5625,856.352 Q863.875,855.3676 862.6406,855.3676 Q861.7344,855.3676 860.9688,856.0082 Q860.2188,856.6332 859.7344,857.8989 Q859.25,859.1489 859.25,860.6489 Q859.25,862.1645 859.75,863.4457 Q860.25,864.7114 861,865.3207 Q861.75,865.9301 862.6406,865.9301 Q863.875,865.9301 865.5625,864.9457 L865.5625,867.1176 Z " fill="#000000"/><text fill="#000000" font-family="sans-serif" font-size="14" lengthAdjust="spacing" textLength="130" x="877" y="866.034">AppServicePassage</text><line style="stroke:#181818;stroke-width:0.5;" x1="849" x2="1009" y1="876.602" y2="876.602"/><line style="stroke:#181818;stroke-width:0.5;" x1="849" x2="1009" y1="884.602" y2="884.602"/></g><!--class IRepoBuilding--><g id="elem_IRepoBuilding"><rect codeLine="63" fill="#F1F1F1" height="48" id="IRepoBuilding" rx="2.5" ry="2.5" style="stroke:#181818;stroke-width:0.5;" width="120" x="735" y="670.602"/><ellipse cx="750" cy="686.602" fill="#B4A7E5" rx="11" ry="11" style="stroke:#181818;stroke-width:1.0;"/><path d="M745.9219,693.602 L745.9219,691.7895 L748.7656,691.7895 L748.7656,682.0082 L745.9219,682.0082 L745.9219,680.1801 L753.7969,680.1801 L753.7969,682.0082 L750.9688,682.0082 L750.9688,691.7895 L753.7969,691.7895 L753.7969,693.602 L745.9219,693.602 Z " fill="#000000"/><text fill="#000000" font-family="sans-serif" font-size="14" font-style="italic" lengthAdjust="spacing" textLength="88" x="764" y="692.034">IRepoBuilding</text><line style="stroke:#181818;stroke-width:0.5;" x1="736" x2="854" y1="702.602" y2="702.602"/><line style="stroke:#181818;stroke-width:0.5;" x1="736" x2="854" y1="710.602" y2="710.602"/></g><!--class IRepoPassage--><g id="elem_IRepoPassage"><rect codeLine="64" fill="#F1F1F1" height="48" id="IRepoPassage" rx="2.5" ry="2.5" style="stroke:#181818;stroke-width:0.5;" width="119" x="890.5" y="670.602"/><ellipse cx="905.5" cy="686.602" fill="#B4A7E5" rx="11" ry="11" style="stroke:#181818;stroke-width:1.0;"/><path d="M901.4219,693.602 L901.4219,691.7895 L904.2656,691.7895 L904.2656,682.0082 L901.4219,682.0082 L901.4219,680.1801 L909.2969,680.1801 L909.2969,682.0082 L906.4688,682.0082 L906.4688,691.7895 L909.2969,691.7895 L909.2969,693.602 L901.4219,693.602 Z " fill="#000000"/><text fill="#000000" font-family="sans-serif" font-size="14" font-style="italic" lengthAdjust="spacing" textLength="87" x="919.5" y="692.034">IRepoPassage</text><line style="stroke:#181818;stroke-width:0.5;" x1="891.5" x2="1008.5" y1="702.602" y2="702.602"/><line style="stroke:#181818;stroke-width:0.5;" x1="891.5" x2="1008.5" y1="710.602" y2="710.602"/></g><!--class Passage--><g id="elem_Passage"><rect codeLine="81" fill="#F1F1F1" height="77.7561" id="Passage" rx="2.5" ry="2.5" style="stroke:#181818;stroke-width:0.5;" width="87" x="1305.5" y="1062.602"/><ellipse cx="1320.5" cy="1093.4801" fill="#ADD1B2" rx="11" ry="11" style="stroke:#181818;stroke-width:1.0;"/><path d="M1323.6719,1098.5269 L1323.6719,1100.4801 L1316.1875,1100.4801 L1316.1875,1087.0582 L1323.5469,1087.0582 L1323.5469,1088.8863 L1318.3906,1088.8863 L1318.3906,1092.7301 L1323.0313,1092.7301 L1323.0313,1094.5582 L1318.3906,1094.5582 L1318.3906,1098.5269 L1323.6719,1098.5269 Z " fill="#000000"/><text fill="#000000" font-family="sans-serif" font-size="12" font-style="italic" lengthAdjust="spacing" textLength="35" x="1344.5" y="1080.4301">&#171;root&#187;</text><text fill="#000000" font-family="sans-serif" font-size="12" font-style="italic" lengthAdjust="spacing" textLength="42" x="1341" y="1096.7742">&#171;entity&#187;</text><text fill="#000000" font-family="sans-serif" font-size="14" lengthAdjust="spacing" textLength="55" x="1334.5" y="1115.2561">Passage</text><line style="stroke:#181818;stroke-width:0.5;" x1="1306.5" x2="1391.5" y1="1124.3581" y2="1124.3581"/><line style="stroke:#181818;stroke-width:0.5;" x1="1306.5" x2="1391.5" y1="1132.3581" y2="1132.3581"/></g><!--class Building--><g id="elem_Building"><rect codeLine="85" fill="#F1F1F1" height="77.7561" id="Building" rx="2.5" ry="2.5" style="stroke:#181818;stroke-width:0.5;" width="89" x="1161.5" y="1062.602"/><ellipse cx="1176.5" cy="1093.4801" fill="#ADD1B2" rx="11" ry="11" style="stroke:#181818;stroke-width:1.0;"/><path d="M1179.6719,1098.5269 L1179.6719,1100.4801 L1172.1875,1100.4801 L1172.1875,1087.0582 L1179.5469,1087.0582 L1179.5469,1088.8863 L1174.3906,1088.8863 L1174.3906,1092.7301 L1179.0313,1092.7301 L1179.0313,1094.5582 L1174.3906,1094.5582 L1174.3906,1098.5269 L1179.6719,1098.5269 Z " fill="#000000"/><text fill="#000000" font-family="sans-serif" font-size="12" font-style="italic" lengthAdjust="spacing" textLength="35" x="1201.5" y="1080.4301">&#171;root&#187;</text><text fill="#000000" font-family="sans-serif" font-size="12" font-style="italic" lengthAdjust="spacing" textLength="42" x="1198" y="1096.7742">&#171;entity&#187;</text><text fill="#000000" font-family="sans-serif" font-size="14" lengthAdjust="spacing" textLength="57" x="1190.5" y="1115.2561">Building</text><line style="stroke:#181818;stroke-width:0.5;" x1="1162.5" x2="1249.5" y1="1124.3581" y2="1124.3581"/><line style="stroke:#181818;stroke-width:0.5;" x1="1162.5" x2="1249.5" y1="1132.3581" y2="1132.3581"/></g><!--link DBDriver to IDBDriver--><g id="link_DBDriver_IDBDriver"><path codeLine="24" d="M435.5,160.602 C447.07,160.602 440.63,160.602 452.2,160.602 " fill="none" id="DBDriver-to-IDBDriver" style="stroke:#FF6655;stroke-width:1.0;"/><polygon fill="none" points="470.2,160.602,452.2,154.602,452.2,166.602,470.2,160.602" style="stroke:#FF6655;stroke-width:1.0;"/></g><!--reverse link IControllerPassage to ControllerPassage--><g id="link_IControllerPassage_ControllerPassage"><path codeLine="36" d="M171.8075,518.7218 C171.6175,560.1818 171.3,628.752 171.11,670.332 " fill="none" id="IControllerPassage-backto-ControllerPassage" style="stroke:#FF6655;stroke-width:1.0;"/><polygon fill="none" points="171.89,500.722,165.8076,518.6943,177.8074,518.7493,171.89,500.722" style="stroke:#FF6655;stroke-width:1.0;"/></g><!--reverse link DBDriver to RepoBuilding--><g id="link_DBDriver_RepoBuilding"><path codeLine="44" d="M389,190.952 C389,249.082 389,393.812 389,452.112 " fill="none" id="DBDriver-backto-RepoBuilding" style="stroke:#FF6655;stroke-width:1.0;stroke-dasharray:7.0,7.0;"/><polygon fill="#FF6655" points="389,184.952,385,193.952,389,189.952,393,193.952,389,184.952" style="stroke:#FF6655;stroke-width:1.0;"/></g><!--reverse link DBDriver to RepoPassage--><g id="link_DBDriver_RepoPassage"><path codeLine="45" d="M404.1571,190.4154 C419.8671,220.3654 444.93,268.492 468,314.602 C492.39,363.352 520,420.932 534.95,452.322 " fill="none" id="DBDriver-backto-RepoPassage" style="stroke:#FF6655;stroke-width:1.0;stroke-dasharray:7.0,7.0;"/><polygon fill="#FF6655" points="401.37,185.102,402.0084,194.9301,403.6926,189.5298,409.0929,191.214,401.37,185.102" style="stroke:#FF6655;stroke-width:1.0;"/></g><!--link RoutePassage to IControllerPassage--><g id="link_RoutePassage_IControllerPassage"><path codeLine="47" d="M654.29,184.972 C634.4,200.232 606.79,219.662 580,232.602 C467.85,286.812 416.46,246.762 312,314.602 C255.46,351.322 211.782,412.1569 189.392,447.1769 " fill="none" id="RoutePassage-to-IControllerPassage" style="stroke:#FF6655;stroke-width:1.0;stroke-dasharray:7.0,7.0;"/><polygon fill="#FF6655" points="186.16,452.232,194.3781,446.804,188.8533,448.0194,187.6379,442.4946,186.16,452.232" style="stroke:#FF6655;stroke-width:1.0;"/></g><!--link AppServicePassage to IAppServicePassage--><g id="link_AppServicePassage_IAppServicePassage"><path codeLine="60" d="M923.12,893.012 C912,937.262 892.4023,1015.2536 881.2823,1059.5536 " fill="none" id="AppServicePassage-to-IAppServicePassage" style="stroke:#FF6655;stroke-width:1.0;"/><polygon fill="none" points="876.9,1077.012,887.1018,1061.0144,875.4629,1058.0928,876.9,1077.012" style="stroke:#FF6655;stroke-width:1.0;"/></g><!--link RepoBuilding to IRepoBuilding--><g id="link_RepoBuilding_IRepoBuilding"><path codeLine="67" d="M427.31,501.022 C440.15,508.702 454.61,517.172 468,524.602 C566.05,579.052 667.2327,630.2574 731.3027,662.1174 " fill="none" id="RepoBuilding-to-IRepoBuilding" style="stroke:#FF6655;stroke-width:1.0;"/><polygon fill="none" points="747.42,670.132,733.9743,656.745,728.6312,667.4898,747.42,670.132" style="stroke:#FF6655;stroke-width:1.0;"/></g><!--link RepoPassage to IRepoPassage--><g id="link_RepoPassage_IRepoPassage"><path codeLine="68" d="M606.83,481.202 C689.57,487.192 832.02,501.732 873,532.602 C918.29,566.722 934.4028,616.7306 942.0628,652.5206 " fill="none" id="RepoPassage-to-IRepoPassage" style="stroke:#FF6655;stroke-width:1.0;"/><polygon fill="none" points="945.83,670.122,947.93,651.2649,936.1957,653.7763,945.83,670.122" style="stroke:#FF6655;stroke-width:1.0;"/></g><!--link ControllerPassage to IAppServicePassage--><g id="link_ControllerPassage_IAppServicePassage"><path codeLine="71" d="M211.4,718.972 C335,790.462 701.8663,1002.6578 825.4263,1074.1278 " fill="none" id="ControllerPassage-to-IAppServicePassage" style="stroke:#FF6655;stroke-width:1.0;stroke-dasharray:7.0,7.0;"/><polygon fill="#FF6655" points="830.62,1077.132,824.8322,1069.1632,826.2919,1074.6285,820.8266,1076.0882,830.62,1077.132" style="stroke:#FF6655;stroke-width:1.0;"/></g><!--reverse link IRepoBuilding to AppServicePassage--><g id="link_IRepoBuilding_AppServicePassage"><path codeLine="73" d="M816.7577,723.5349 C842.3377,756.3649 885.13,811.302 910.79,844.232 " fill="none" id="IRepoBuilding-backto-AppServicePassage" style="stroke:#FF6655;stroke-width:1.0;stroke-dasharray:7.0,7.0;"/><polygon fill="#FF6655" points="813.07,718.802,815.4463,728.3599,816.1431,722.7461,821.7569,723.4429,813.07,718.802" style="stroke:#FF6655;stroke-width:1.0;"/></g><!--reverse link IRepoPassage to AppServicePassage--><g id="link_IRepoPassage_AppServicePassage"><path codeLine="74" d="M946.4425,724.7577 C942.4325,757.5877 935.87,811.302 931.85,844.232 " fill="none" id="IRepoPassage-backto-AppServicePassage" style="stroke:#FF6655;stroke-width:1.0;stroke-dasharray:7.0,7.0;"/><polygon fill="#FF6655" points="947.17,718.802,942.1083,727.2506,946.5638,723.7651,950.0493,728.2206,947.17,718.802" style="stroke:#FF6655;stroke-width:1.0;"/></g><!--link AppServicePassage to Passage--><g id="link_AppServicePassage_Passage"><path codeLine="91" d="M1010.49,874.272 C1097.06,880.702 1226.77,895.042 1266,924.602 C1310.49,958.132 1330.7161,1015.6661 1340.4661,1056.4861 " fill="none" id="AppServicePassage-to-Passage" style="stroke:#FF6655;stroke-width:1.0;stroke-dasharray:7.0,7.0;"/><polygon fill="#FF6655" points="1341.86,1062.322,1343.6597,1052.639,1340.6984,1057.4588,1335.8786,1054.4975,1341.86,1062.322" style="stroke:#FF6655;stroke-width:1.0;"/></g><!--link AppServicePassage to Building--><g id="link_AppServicePassage_Building"><path codeLine="92" d="M957.08,893.012 C1005.22,933.142 1099.2615,1011.5099 1156.8615,1059.5299 " fill="none" id="AppServicePassage-to-Building" style="stroke:#FF6655;stroke-width:1.0;stroke-dasharray:7.0,7.0;"/><polygon fill="#FF6655" points="1161.47,1063.372,1157.1186,1054.5365,1157.6295,1060.1703,1151.9958,1060.6813,1161.47,1063.372" style="stroke:#FF6655;stroke-width:1.0;"/></g><!--SRC=[bLNBRjim4BpxAmZta9CTz12V105-n42080ZY3oWOUQCGfaXYIQLmM_zxrtfPeYWvvedo37UuioFB7eGo77d64fqPhK0vzdV2Q6srSZln1zZFHV6yuiaXHPsh_LfBZL6qD3pvX3XcpoBzT6kDN9P4ZNj0d_HZkrqi7XwQqYyy0xRMEGf0_nXxboGMKcKR0BCx75SoXm9V8khVJRsdZEJS1IZFrDAdoOJW0q-1sQDra5MTrZzEdzG7SkimJroECAtW3kLDvmvi6pglH79hMO6zqewO3KoYlIAlW5RG1LG2VYMX7E07JwYNpMg3ugjofwlKWregDSPcU9xBx5_ibQguhQvhoUMU6zhROEThCXcrb1xUBJL2yhgxC7t7l7ww0fcHLpHAXwwLRp_rk6oMcyAtuIgXiRw1qLOuJP4UIWWnLhcGUw7I0NX4g7sQpNCpZ_j1Q9NmAHTEAwTiJckmKpygIsEaIBWJMh4Tu9T881mM8WO9tM4IQuZafUN2l3KjLpHAusygtoEpMH6MVf61MutbnEjxC301tZUktabGUUj1XNQIBjIHUFPVeo9P8xRqdImZ6xxKA7iijO_A2KTUtzCt2kutEkD2XLERfWWfh_xWmzEhXAQCMyP_rJVf3n7EeaTM4w88jNRq7OoY4edZRqMuTg7IUw-7DoZOZFS6HTgEkKmU-sCFivgHDRoxff7GItXtgkPrclm7]--></g></svg>