<?xml version="1.0" encoding="us-ascii" standalone="no"?><svg xmlns="http://www.w3.org/2000/svg" xmlns:xlink="http://www.w3.org/1999/xlink" contentStyleType="text/css" height="419px" preserveAspectRatio="none" style="width:227px;height:419px;background:#FFFFFF;" version="1.1" viewBox="0 0 227 419" width="227px" zoomAndPan="magnify"><defs/><g><rect fill="#FFFFFF" height="299.5898" style="stroke:#181818;stroke-width:1.0;" width="10" x="163" y="71.9121"/><rect fill="none" height="277.5898" style="stroke:#000000;stroke-width:1.5;" width="217.5" x="3" y="86.9121"/><rect fill="none" height="165.0859" style="stroke:#000000;stroke-width:1.5;" width="207.5" x="3" y="192.416"/><rect fill="none" height="98.5039" style="stroke:#000000;stroke-width:1.5;" width="197.5" x="3" y="251.998"/><line style="stroke:#181818;stroke-width:0.5;stroke-dasharray:5.0,5.0;" x1="167.5" x2="167.5" y1="38.6211" y2="381.502"/><rect fill="#E2E2F0" height="32.6211" rx="2.5" ry="2.5" style="stroke:#181818;stroke-width:0.5;" width="45" x="145.5" y="5"/><text fill="#000000" font-family="sans-serif" font-size="14" lengthAdjust="spacing" textLength="31" x="152.5" y="27.1074">MDR</text><rect fill="#E2E2F0" height="32.6211" rx="2.5" ry="2.5" style="stroke:#181818;stroke-width:0.5;" width="45" x="145.5" y="380.502"/><text fill="#000000" font-family="sans-serif" font-size="14" lengthAdjust="spacing" textLength="31" x="152.5" y="402.6094">MDR</text><rect fill="#FFFFFF" height="299.5898" style="stroke:#181818;stroke-width:1.0;" width="10" x="163" y="71.9121"/><polygon fill="#181818" points="151,67.9121,161,71.9121,151,75.9121,155,71.9121" style="stroke:#181818;stroke-width:1.0;"/><line style="stroke:#181818;stroke-width:1.0;" x1="0" x2="157" y1="71.9121" y2="71.9121"/><text fill="#000000" font-family="sans-serif" font-size="13" font-weight="bold" lengthAdjust="spacing" textLength="7" x="7" y="66.6494">1</text><text fill="#000000" font-family="sans-serif" font-size="13" lengthAdjust="spacing" textLength="95" x="18" y="66.6494">GET /task/tasks</text><path d="M3,86.9121 L64,86.9121 L64,96.2031 L54,106.2031 L3,106.2031 L3,86.9121 " fill="#EEEEEE" style="stroke:#000000;stroke-width:1.5;"/><rect fill="none" height="277.5898" style="stroke:#000000;stroke-width:1.5;" width="217.5" x="3" y="86.9121"/><text fill="#000000" font-family="sans-serif" font-size="13" font-weight="bold" lengthAdjust="spacing" textLength="16" x="18" y="101.9404">alt</text><text fill="#000000" font-family="sans-serif" font-size="11" font-weight="bold" lengthAdjust="spacing" textLength="103" x="79" y="100.7822">[task(s) not found]</text><polygon fill="#181818" points="11,125.4941,1,129.4941,11,133.4941,7,129.4941" style="stroke:#181818;stroke-width:1.0;"/><line style="stroke:#181818;stroke-width:1.0;stroke-dasharray:2.0,2.0;" x1="5" x2="162" y1="129.4941" y2="129.4941"/><text fill="#000000" font-family="sans-serif" font-size="13" font-weight="bold" lengthAdjust="spacing" textLength="7" x="17" y="124.2314">2</text><text fill="#000000" font-family="sans-serif" font-size="13" lengthAdjust="spacing" textLength="89" x="28" y="124.2314">404: Not Found</text><line style="stroke:#000000;stroke-width:1.0;stroke-dasharray:2.0,2.0;" x1="3" x2="220.5" y1="138.4941" y2="138.4941"/><text fill="#000000" font-family="sans-serif" font-size="11" font-weight="bold" lengthAdjust="spacing" textLength="82" x="8" y="150.3643">[task(s) found]</text><polygon fill="#181818" points="11,173.416,1,177.416,11,181.416,7,177.416" style="stroke:#181818;stroke-width:1.0;"/><line style="stroke:#181818;stroke-width:1.0;stroke-dasharray:2.0,2.0;" x1="5" x2="162" y1="177.416" y2="177.416"/><text fill="#000000" font-family="sans-serif" font-size="13" font-weight="bold" lengthAdjust="spacing" textLength="7" x="17" y="172.1533">3</text><text fill="#000000" font-family="sans-serif" font-size="13" lengthAdjust="spacing" textLength="126" x="28" y="172.1533">200: "OK" Successful</text><path d="M3,192.416 L64,192.416 L64,201.707 L54,211.707 L3,211.707 L3,192.416 " fill="#EEEEEE" style="stroke:#000000;stroke-width:1.5;"/><rect fill="none" height="165.0859" style="stroke:#000000;stroke-width:1.5;" width="207.5" x="3" y="192.416"/><text fill="#000000" font-family="sans-serif" font-size="13" font-weight="bold" lengthAdjust="spacing" textLength="16" x="18" y="207.4443">alt</text><text fill="#000000" font-family="sans-serif" font-size="11" font-weight="bold" lengthAdjust="spacing" textLength="76" x="79" y="206.2861">[selects task]</text><polygon fill="#181818" points="151,230.998,161,234.998,151,238.998,155,234.998" style="stroke:#181818;stroke-width:1.0;"/><line style="stroke:#181818;stroke-width:1.0;" x1="0" x2="157" y1="234.998" y2="234.998"/><text fill="#000000" font-family="sans-serif" font-size="13" font-weight="bold" lengthAdjust="spacing" textLength="7" x="7" y="229.7354">4</text><text fill="#000000" font-family="sans-serif" font-size="13" lengthAdjust="spacing" textLength="98" x="18" y="229.7354">PATCH /task/{id}</text><line style="stroke:#000000;stroke-width:1.0;stroke-dasharray:2.0,2.0;" x1="3" x2="210.5" y1="243.998" y2="243.998"/><path d="M3,251.998 L64,251.998 L64,261.2891 L54,271.2891 L3,271.2891 L3,251.998 " fill="#EEEEEE" style="stroke:#000000;stroke-width:1.5;"/><rect fill="none" height="98.5039" style="stroke:#000000;stroke-width:1.5;" width="197.5" x="3" y="251.998"/><text fill="#000000" font-family="sans-serif" font-size="13" font-weight="bold" lengthAdjust="spacing" textLength="16" x="18" y="267.0264">alt</text><text fill="#000000" font-family="sans-serif" font-size="11" font-weight="bold" lengthAdjust="spacing" textLength="88" x="79" y="265.8682">[task not found]</text><polygon fill="#181818" points="11,290.5801,1,294.5801,11,298.5801,7,294.5801" style="stroke:#181818;stroke-width:1.0;"/><line style="stroke:#181818;stroke-width:1.0;stroke-dasharray:2.0,2.0;" x1="5" x2="162" y1="294.5801" y2="294.5801"/><text fill="#000000" font-family="sans-serif" font-size="13" font-weight="bold" lengthAdjust="spacing" textLength="7" x="17" y="289.3174">5</text><text fill="#000000" font-family="sans-serif" font-size="13" lengthAdjust="spacing" textLength="89" x="28" y="289.3174">404: Not Found</text><line style="stroke:#000000;stroke-width:1.0;stroke-dasharray:2.0,2.0;" x1="3" x2="200.5" y1="303.5801" y2="303.5801"/><text fill="#000000" font-family="sans-serif" font-size="11" font-weight="bold" lengthAdjust="spacing" textLength="160" x="8" y="315.4502">[task approved successfully]</text><polygon fill="#181818" points="11,338.502,1,342.502,11,346.502,7,342.502" style="stroke:#181818;stroke-width:1.0;"/><line style="stroke:#181818;stroke-width:1.0;stroke-dasharray:2.0,2.0;" x1="5" x2="162" y1="342.502" y2="342.502"/><text fill="#000000" font-family="sans-serif" font-size="13" font-weight="bold" lengthAdjust="spacing" textLength="7" x="17" y="337.2393">6</text><text fill="#000000" font-family="sans-serif" font-size="13" lengthAdjust="spacing" textLength="126" x="28" y="337.2393">200: "OK" Successful</text><!--SRC=[XP5FQm8n4CNl-HJ3dlImT15FIob8hHPAQsczUHgJMLYQ_SFEH13nkxi9tU12hJaaWVVcpVmITDBKhjfJfrIBdPIwRB4MIDwNNmaWGsLwPPS- -KiEwvSjF0ZoJzXOATHI7b0e-A1VQ0MyDk4fr8r0qRZQ1CMltMEQUYlaCC_cENpqZbLqa6MAnJSBPrcMGx9vI-3RQKtCXRFHvzipMTB28IaA8MJ0-5nidrz_GKwbEKUNds1KCk3ymNAVPyG4sBPTSo037CUsnrjf_qA6tEiUm_lrfw7Hbrm0]--></g></svg>