<?xml version="1.0" encoding="us-ascii" standalone="no"?><svg xmlns="http://www.w3.org/2000/svg" xmlns:xlink="http://www.w3.org/1999/xlink" contentStyleType="text/css" height="606px" preserveAspectRatio="none" style="width:412px;height:606px;background:#FFFFFF;" version="1.1" viewBox="0 0 412 606" width="412px" zoomAndPan="magnify"><defs/><g><rect fill="#FFFFFF" height="487.3359" style="stroke:#181818;stroke-width:1.0;" width="10" x="170" y="71.9121"/><rect fill="#FFFFFF" height="427.0449" style="stroke:#181818;stroke-width:1.0;" width="10" x="348" y="103.2031"/><rect fill="none" height="434.0449" style="stroke:#000000;stroke-width:1.5;" width="402" x="3" y="118.2031"/><rect fill="none" height="258.959" style="stroke:#000000;stroke-width:1.5;" width="392" x="3" y="286.2891"/><rect fill="none" height="161.0859" style="stroke:#000000;stroke-width:1.5;" width="382" x="3" y="377.1621"/><line style="stroke:#181818;stroke-width:0.5;stroke-dasharray:5.0,5.0;" x1="174.5" x2="174.5" y1="38.6211" y2="569.248"/><line style="stroke:#181818;stroke-width:0.5;stroke-dasharray:5.0,5.0;" x1="353" x2="353" y1="38.6211" y2="569.248"/><rect fill="#E2E2F0" height="32.6211" rx="2.5" ry="2.5" style="stroke:#181818;stroke-width:0.5;" width="45" x="152.5" y="5"/><text fill="#000000" font-family="sans-serif" font-size="14" lengthAdjust="spacing" textLength="31" x="159.5" y="27.1074">MDR</text><rect fill="#E2E2F0" height="32.6211" rx="2.5" ry="2.5" style="stroke:#181818;stroke-width:0.5;" width="45" x="152.5" y="568.248"/><text fill="#000000" font-family="sans-serif" font-size="14" lengthAdjust="spacing" textLength="31" x="159.5" y="590.3555">MDR</text><rect fill="#E2E2F0" height="32.6211" rx="2.5" ry="2.5" style="stroke:#181818;stroke-width:0.5;" width="44" x="331" y="5"/><text fill="#000000" font-family="sans-serif" font-size="14" lengthAdjust="spacing" textLength="30" x="338" y="27.1074">MDT</text><rect fill="#E2E2F0" height="32.6211" rx="2.5" ry="2.5" style="stroke:#181818;stroke-width:0.5;" width="44" x="331" y="568.248"/><text fill="#000000" font-family="sans-serif" font-size="14" lengthAdjust="spacing" textLength="30" x="338" y="590.3555">MDT</text><rect fill="#FFFFFF" height="487.3359" style="stroke:#181818;stroke-width:1.0;" width="10" x="170" y="71.9121"/><rect fill="#FFFFFF" height="427.0449" style="stroke:#181818;stroke-width:1.0;" width="10" x="348" y="103.2031"/><polygon fill="#181818" points="158,67.9121,168,71.9121,158,75.9121,162,71.9121" style="stroke:#181818;stroke-width:1.0;"/><line style="stroke:#181818;stroke-width:1.0;" x1="0" x2="164" y1="71.9121" y2="71.9121"/><text fill="#000000" font-family="sans-serif" font-size="13" font-weight="bold" lengthAdjust="spacing" textLength="7" x="7" y="66.6494">1</text><text fill="#000000" font-family="sans-serif" font-size="13" lengthAdjust="spacing" textLength="95" x="18" y="66.6494">GET /task/tasks</text><polygon fill="#181818" points="336,99.2031,346,103.2031,336,107.2031,340,103.2031" style="stroke:#181818;stroke-width:1.0;"/><line style="stroke:#181818;stroke-width:1.0;" x1="180" x2="342" y1="103.2031" y2="103.2031"/><text fill="#000000" font-family="sans-serif" font-size="13" font-weight="bold" lengthAdjust="spacing" textLength="7" x="187" y="97.9404">2</text><text fill="#000000" font-family="sans-serif" font-size="13" lengthAdjust="spacing" textLength="138" x="198" y="97.9404">GET /jobs/non-approved</text><path d="M3,118.2031 L64,118.2031 L64,127.4941 L54,137.4941 L3,137.4941 L3,118.2031 " fill="#EEEEEE" style="stroke:#000000;stroke-width:1.5;"/><rect fill="none" height="434.0449" style="stroke:#000000;stroke-width:1.5;" width="402" x="3" y="118.2031"/><text fill="#000000" font-family="sans-serif" font-size="13" font-weight="bold" lengthAdjust="spacing" textLength="16" x="18" y="133.2314">alt</text><text fill="#000000" font-family="sans-serif" font-size="11" font-weight="bold" lengthAdjust="spacing" textLength="103" x="79" y="132.0732">[task(s) not found]</text><polygon fill="#181818" points="191,156.7852,181,160.7852,191,164.7852,187,160.7852" style="stroke:#181818;stroke-width:1.0;"/><line style="stroke:#181818;stroke-width:1.0;stroke-dasharray:2.0,2.0;" x1="185" x2="347" y1="160.7852" y2="160.7852"/><text fill="#000000" font-family="sans-serif" font-size="13" font-weight="bold" lengthAdjust="spacing" textLength="7" x="197" y="155.5225">3</text><text fill="#000000" font-family="sans-serif" font-size="13" lengthAdjust="spacing" textLength="55" x="208" y="155.5225">404: error</text><polygon fill="#181818" points="11,188.0762,1,192.0762,11,196.0762,7,192.0762" style="stroke:#181818;stroke-width:1.0;"/><line style="stroke:#181818;stroke-width:1.0;stroke-dasharray:2.0,2.0;" x1="5" x2="169" y1="192.0762" y2="192.0762"/><text fill="#000000" font-family="sans-serif" font-size="13" font-weight="bold" lengthAdjust="spacing" textLength="7" x="17" y="186.8135">4</text><text fill="#000000" font-family="sans-serif" font-size="13" lengthAdjust="spacing" textLength="89" x="28" y="186.8135">404: Not Found</text><line style="stroke:#000000;stroke-width:1.0;stroke-dasharray:2.0,2.0;" x1="3" x2="405" y1="201.0762" y2="201.0762"/><text fill="#000000" font-family="sans-serif" font-size="11" font-weight="bold" lengthAdjust="spacing" textLength="82" x="8" y="212.9463">[task(s) found]</text><polygon fill="#181818" points="191,235.998,181,239.998,191,243.998,187,239.998" style="stroke:#181818;stroke-width:1.0;"/><line style="stroke:#181818;stroke-width:1.0;stroke-dasharray:2.0,2.0;" x1="185" x2="347" y1="239.998" y2="239.998"/><text fill="#000000" font-family="sans-serif" font-size="13" font-weight="bold" lengthAdjust="spacing" textLength="7" x="197" y="234.7354">5</text><text fill="#000000" font-family="sans-serif" font-size="13" lengthAdjust="spacing" textLength="32" x="208" y="234.7354">tasks</text><polygon fill="#181818" points="11,267.2891,1,271.2891,11,275.2891,7,271.2891" style="stroke:#181818;stroke-width:1.0;"/><line style="stroke:#181818;stroke-width:1.0;stroke-dasharray:2.0,2.0;" x1="5" x2="169" y1="271.2891" y2="271.2891"/><text fill="#000000" font-family="sans-serif" font-size="13" font-weight="bold" lengthAdjust="spacing" textLength="7" x="17" y="266.0264">6</text><text fill="#000000" font-family="sans-serif" font-size="13" lengthAdjust="spacing" textLength="126" x="28" y="266.0264">200: "OK" Successful</text><path d="M3,286.2891 L64,286.2891 L64,295.5801 L54,305.5801 L3,305.5801 L3,286.2891 " fill="#EEEEEE" style="stroke:#000000;stroke-width:1.5;"/><rect fill="none" height="258.959" style="stroke:#000000;stroke-width:1.5;" width="392" x="3" y="286.2891"/><text fill="#000000" font-family="sans-serif" font-size="13" font-weight="bold" lengthAdjust="spacing" textLength="16" x="18" y="301.3174">alt</text><text fill="#000000" font-family="sans-serif" font-size="11" font-weight="bold" lengthAdjust="spacing" textLength="76" x="79" y="300.1592">[selects task]</text><polygon fill="#181818" points="158,324.8711,168,328.8711,158,332.8711,162,328.8711" style="stroke:#181818;stroke-width:1.0;"/><line style="stroke:#181818;stroke-width:1.0;" x1="0" x2="164" y1="328.8711" y2="328.8711"/><text fill="#000000" font-family="sans-serif" font-size="13" font-weight="bold" lengthAdjust="spacing" textLength="7" x="7" y="323.6084">7</text><text fill="#000000" font-family="sans-serif" font-size="13" lengthAdjust="spacing" textLength="98" x="18" y="323.6084">PATCH /task/{id}</text><polygon fill="#181818" points="336,356.1621,346,360.1621,336,364.1621,340,360.1621" style="stroke:#181818;stroke-width:1.0;"/><line style="stroke:#181818;stroke-width:1.0;" x1="180" x2="342" y1="360.1621" y2="360.1621"/><text fill="#000000" font-family="sans-serif" font-size="13" font-weight="bold" lengthAdjust="spacing" textLength="7" x="187" y="354.8994">8</text><text fill="#000000" font-family="sans-serif" font-size="13" lengthAdjust="spacing" textLength="97" x="198" y="354.8994">PATCH /jobs/{id}</text><line style="stroke:#000000;stroke-width:1.0;stroke-dasharray:2.0,2.0;" x1="3" x2="395" y1="369.1621" y2="369.1621"/><path d="M3,377.1621 L64,377.1621 L64,386.4531 L54,396.4531 L3,396.4531 L3,377.1621 " fill="#EEEEEE" style="stroke:#000000;stroke-width:1.5;"/><rect fill="none" height="161.0859" style="stroke:#000000;stroke-width:1.5;" width="382" x="3" y="377.1621"/><text fill="#000000" font-family="sans-serif" font-size="13" font-weight="bold" lengthAdjust="spacing" textLength="16" x="18" y="392.1904">alt</text><text fill="#000000" font-family="sans-serif" font-size="11" font-weight="bold" lengthAdjust="spacing" textLength="88" x="79" y="391.0322">[task not found]</text><polygon fill="#181818" points="191,415.7441,181,419.7441,191,423.7441,187,419.7441" style="stroke:#181818;stroke-width:1.0;"/><line style="stroke:#181818;stroke-width:1.0;stroke-dasharray:2.0,2.0;" x1="185" x2="347" y1="419.7441" y2="419.7441"/><text fill="#000000" font-family="sans-serif" font-size="13" font-weight="bold" lengthAdjust="spacing" textLength="7" x="197" y="414.4814">9</text><text fill="#000000" font-family="sans-serif" font-size="13" lengthAdjust="spacing" textLength="55" x="208" y="414.4814">404: error</text><polygon fill="#181818" points="11,447.0352,1,451.0352,11,455.0352,7,451.0352" style="stroke:#181818;stroke-width:1.0;"/><line style="stroke:#181818;stroke-width:1.0;stroke-dasharray:2.0,2.0;" x1="5" x2="169" y1="451.0352" y2="451.0352"/><text fill="#000000" font-family="sans-serif" font-size="13" font-weight="bold" lengthAdjust="spacing" textLength="14" x="17" y="445.7725">10</text><text fill="#000000" font-family="sans-serif" font-size="13" lengthAdjust="spacing" textLength="89" x="35" y="445.7725">404: Not Found</text><line style="stroke:#000000;stroke-width:1.0;stroke-dasharray:2.0,2.0;" x1="3" x2="385" y1="460.0352" y2="460.0352"/><text fill="#000000" font-family="sans-serif" font-size="11" font-weight="bold" lengthAdjust="spacing" textLength="160" x="8" y="471.9053">[task approved successfully]</text><polygon fill="#181818" points="191,494.957,181,498.957,191,502.957,187,498.957" style="stroke:#181818;stroke-width:1.0;"/><line style="stroke:#181818;stroke-width:1.0;stroke-dasharray:2.0,2.0;" x1="185" x2="347" y1="498.957" y2="498.957"/><text fill="#000000" font-family="sans-serif" font-size="13" font-weight="bold" lengthAdjust="spacing" textLength="14" x="197" y="493.6943">11</text><text fill="#000000" font-family="sans-serif" font-size="13" lengthAdjust="spacing" textLength="54" x="215" y="493.6943">200: task</text><polygon fill="#181818" points="11,526.248,1,530.248,11,534.248,7,530.248" style="stroke:#181818;stroke-width:1.0;"/><line style="stroke:#181818;stroke-width:1.0;stroke-dasharray:2.0,2.0;" x1="5" x2="169" y1="530.248" y2="530.248"/><text fill="#000000" font-family="sans-serif" font-size="13" font-weight="bold" lengthAdjust="spacing" textLength="14" x="17" y="524.9854">12</text><text fill="#000000" font-family="sans-serif" font-size="13" lengthAdjust="spacing" textLength="126" x="35" y="524.9854">200: "OK" Successful</text><!--SRC=[ZP9DQuGm48Rl-HM3f_OGLigUf1HAFxPG-a7hRKzPdGMxRYAPoK8f_U_LH5DbFrWF6fntdaaULOwDTjiLMY4QPRaggaPfXkJb_YC1HR0jzojvNs4XblAcYsImUCXXnees_aP2g8AhdM8C16YlTW4-pj3dlyoAPjfegPh6cXsMFZVgR2U4LpL3nxsWIz26OMsS3k40Pf33HkRfF0EqrjXONrvBwQVtrTUMyEW9Fe8rOQIV88U37O1UfMa6oTjp0f-kA91exUgOwxPEM6F1v0cnu243-_qsltlg1VvKvUyazIyk1hsvIR0xnQHhS7P0s3dIJeiRJmrJXay851tKtySc3jBsXPnfjSJ9Np96u7Xx_RfxJbgi-0C0]--></g></svg>