<?xml version="1.0" encoding="us-ascii" standalone="no"?><svg xmlns="http://www.w3.org/2000/svg" xmlns:xlink="http://www.w3.org/1999/xlink" contentStyleType="text/css" height="713px" preserveAspectRatio="none" style="width:747px;height:713px;background:#FFFFFF;" version="1.1" viewBox="0 0 747 713" width="747px" zoomAndPan="magnify"><defs/><g><rect fill="#FFFFFF" height="511.2782" style="stroke:#181818;stroke-width:1.0;" width="10" x="65.5" y="94.0679"/><rect fill="#FFFFFF" height="297.336" style="stroke:#181818;stroke-width:1.0;" width="10" x="304.5" y="117.7739"/><rect fill="#FFFFFF" height="158.5301" style="stroke:#181818;stroke-width:1.0;" width="10" x="304.5" y="446.816"/><rect fill="#FFFFFF" height="233.924" style="stroke:#181818;stroke-width:1.0;" width="10" x="506.5" y="149.4799"/><rect fill="#FFFFFF" height="95.118" style="stroke:#181818;stroke-width:1.0;" width="10" x="506.5" y="478.522"/><rect fill="#FFFFFF" height="170.512" style="stroke:#181818;stroke-width:1.0;" width="10" x="702.5" y="181.186"/><rect fill="#FFFFFF" height="31.706" style="stroke:#181818;stroke-width:1.0;" width="10" x="702.5" y="510.228"/><rect fill="none" height="417.1601" style="stroke:#000000;stroke-width:1.5;" width="730" x="10" y="196.186"/><line style="stroke:#181818;stroke-width:0.5;stroke-dasharray:5.0,5.0;" x1="70" x2="70" y1="84.0679" y2="630.3461"/><line style="stroke:#181818;stroke-width:0.5;stroke-dasharray:5.0,5.0;" x1="309" x2="309" y1="84.0679" y2="630.3461"/><line style="stroke:#181818;stroke-width:0.5;stroke-dasharray:5.0,5.0;" x1="511.5" x2="511.5" y1="84.0679" y2="630.3461"/><line style="stroke:#181818;stroke-width:0.5;stroke-dasharray:5.0,5.0;" x1="707" x2="707" y1="84.0679" y2="630.3461"/><text fill="#000000" font-family="sans-serif" font-size="14" lengthAdjust="spacing" textLength="95" x="20" y="79.9659">Task Manager</text><ellipse cx="70.5" cy="13.5" fill="#E2E2F0" rx="8" ry="8" style="stroke:#181818;stroke-width:0.5;"/><path d="M70.5,21.5 L70.5,48.5 M57.5,29.5 L83.5,29.5 M70.5,48.5 L57.5,63.5 M70.5,48.5 L83.5,63.5 " fill="none" style="stroke:#181818;stroke-width:0.5;"/><text fill="#000000" font-family="sans-serif" font-size="14" lengthAdjust="spacing" textLength="95" x="20" y="644.312">Task Manager</text><ellipse cx="70.5" cy="656.914" fill="#E2E2F0" rx="8" ry="8" style="stroke:#181818;stroke-width:0.5;"/><path d="M70.5,664.914 L70.5,691.914 M57.5,672.914 L83.5,672.914 M70.5,691.914 L57.5,706.914 M70.5,691.914 L83.5,706.914 " fill="none" style="stroke:#181818;stroke-width:0.5;"/><rect fill="#E2E2F0" height="33.0679" rx="2.5" ry="2.5" style="stroke:#181818;stroke-width:0.5;" width="39" x="290" y="50"/><text fill="#000000" font-family="sans-serif" font-size="14" lengthAdjust="spacing" textLength="25" x="297" y="71.9659">SPA</text><rect fill="#E2E2F0" height="33.0679" rx="2.5" ry="2.5" style="stroke:#181818;stroke-width:0.5;" width="39" x="290" y="629.3461"/><text fill="#000000" font-family="sans-serif" font-size="14" lengthAdjust="spacing" textLength="25" x="297" y="651.312">SPA</text><rect fill="#E2E2F0" height="33.0679" rx="2.5" ry="2.5" style="stroke:#181818;stroke-width:0.5;" width="46" x="488.5" y="50"/><text fill="#000000" font-family="sans-serif" font-size="14" lengthAdjust="spacing" textLength="32" x="495.5" y="71.9659">MDR</text><rect fill="#E2E2F0" height="33.0679" rx="2.5" ry="2.5" style="stroke:#181818;stroke-width:0.5;" width="46" x="488.5" y="629.3461"/><text fill="#000000" font-family="sans-serif" font-size="14" lengthAdjust="spacing" textLength="32" x="495.5" y="651.312">MDR</text><rect fill="#E2E2F0" height="33.0679" rx="2.5" ry="2.5" style="stroke:#181818;stroke-width:0.5;" width="45" x="685" y="50"/><text fill="#000000" font-family="sans-serif" font-size="14" lengthAdjust="spacing" textLength="31" x="692" y="71.9659">MDT</text><rect fill="#E2E2F0" height="33.0679" rx="2.5" ry="2.5" style="stroke:#181818;stroke-width:0.5;" width="45" x="685" y="629.3461"/><text fill="#000000" font-family="sans-serif" font-size="14" lengthAdjust="spacing" textLength="31" x="692" y="651.312">MDT</text><rect fill="#FFFFFF" height="511.2782" style="stroke:#181818;stroke-width:1.0;" width="10" x="65.5" y="94.0679"/><rect fill="#FFFFFF" height="297.336" style="stroke:#181818;stroke-width:1.0;" width="10" x="304.5" y="117.7739"/><rect fill="#FFFFFF" height="158.5301" style="stroke:#181818;stroke-width:1.0;" width="10" x="304.5" y="446.816"/><rect fill="#FFFFFF" height="233.924" style="stroke:#181818;stroke-width:1.0;" width="10" x="506.5" y="149.4799"/><rect fill="#FFFFFF" height="95.118" style="stroke:#181818;stroke-width:1.0;" width="10" x="506.5" y="478.522"/><rect fill="#FFFFFF" height="170.512" style="stroke:#181818;stroke-width:1.0;" width="10" x="702.5" y="181.186"/><rect fill="#FFFFFF" height="31.706" style="stroke:#181818;stroke-width:1.0;" width="10" x="702.5" y="510.228"/><polygon fill="#181818" points="292.5,113.7739,302.5,117.7739,292.5,121.7739,296.5,117.7739" style="stroke:#181818;stroke-width:1.0;"/><line style="stroke:#181818;stroke-width:1.0;" x1="75.5" x2="298.5" y1="117.7739" y2="117.7739"/><text fill="#000000" font-family="sans-serif" font-size="13" font-weight="bold" lengthAdjust="spacing" textLength="7" x="82.5" y="111.9649">1</text><text fill="#000000" font-family="sans-serif" font-size="13" lengthAdjust="spacing" textLength="199" x="93.5" y="111.9649">wants to approve or refuse a task</text><polygon fill="#181818" points="494.5,145.4799,504.5,149.4799,494.5,153.4799,498.5,149.4799" style="stroke:#181818;stroke-width:1.0;"/><line style="stroke:#181818;stroke-width:1.0;" x1="314.5" x2="500.5" y1="149.4799" y2="149.4799"/><text fill="#000000" font-family="sans-serif" font-size="13" font-weight="bold" lengthAdjust="spacing" textLength="7" x="321.5" y="143.6709">2</text><text fill="#000000" font-family="sans-serif" font-size="13" lengthAdjust="spacing" textLength="162" x="332.5" y="143.6709">GET /tasks?status=pending</text><polygon fill="#181818" points="690.5,177.186,700.5,181.186,690.5,185.186,694.5,181.186" style="stroke:#181818;stroke-width:1.0;"/><line style="stroke:#181818;stroke-width:1.0;" x1="516.5" x2="696.5" y1="181.186" y2="181.186"/><text fill="#000000" font-family="sans-serif" font-size="13" font-weight="bold" lengthAdjust="spacing" textLength="7" x="523.5" y="175.377">3</text><text fill="#000000" font-family="sans-serif" font-size="13" lengthAdjust="spacing" textLength="156" x="534.5" y="175.377">GET /jobs?status=pending</text><path d="M10,196.186 L73,196.186 L73,205.892 L63,215.892 L10,215.892 L10,196.186 " fill="#EEEEEE" style="stroke:#000000;stroke-width:1.5;"/><rect fill="none" height="417.1601" style="stroke:#000000;stroke-width:1.5;" width="730" x="10" y="196.186"/><text fill="#000000" font-family="sans-serif" font-size="13" font-weight="bold" lengthAdjust="spacing" textLength="18" x="25" y="211.083">alt</text><text fill="#000000" font-family="sans-serif" font-size="11" font-weight="bold" lengthAdjust="spacing" textLength="102" x="88" y="209.9449">[task(s) not found]</text><polygon fill="#181818" points="527.5,235.598,517.5,239.598,527.5,243.598,523.5,239.598" style="stroke:#181818;stroke-width:1.0;"/><line style="stroke:#181818;stroke-width:1.0;stroke-dasharray:2.0,2.0;" x1="521.5" x2="701.5" y1="239.598" y2="239.598"/><text fill="#000000" font-family="sans-serif" font-size="13" font-weight="bold" lengthAdjust="spacing" textLength="7" x="533.5" y="233.789">4</text><text fill="#000000" font-family="sans-serif" font-size="13" lengthAdjust="spacing" textLength="57" x="544.5" y="233.789">404: error</text><polygon fill="#181818" points="325.5,267.304,315.5,271.304,325.5,275.304,321.5,271.304" style="stroke:#181818;stroke-width:1.0;"/><line style="stroke:#181818;stroke-width:1.0;stroke-dasharray:2.0,2.0;" x1="319.5" x2="505.5" y1="271.304" y2="271.304"/><text fill="#000000" font-family="sans-serif" font-size="13" font-weight="bold" lengthAdjust="spacing" textLength="7" x="331.5" y="265.495">5</text><text fill="#000000" font-family="sans-serif" font-size="13" lengthAdjust="spacing" textLength="92" x="342.5" y="265.495">404: Not Found</text><polygon fill="#181818" points="86.5,299.01,76.5,303.01,86.5,307.01,82.5,303.01" style="stroke:#181818;stroke-width:1.0;"/><line style="stroke:#181818;stroke-width:1.0;stroke-dasharray:2.0,2.0;" x1="80.5" x2="303.5" y1="303.01" y2="303.01"/><text fill="#000000" font-family="sans-serif" font-size="13" font-weight="bold" lengthAdjust="spacing" textLength="7" x="92.5" y="297.201">6</text><text fill="#000000" font-family="sans-serif" font-size="13" lengthAdjust="spacing" textLength="79" x="103.5" y="297.201">informs error</text><line style="stroke:#000000;stroke-width:1.0;stroke-dasharray:2.0,2.0;" x1="10" x2="740" y1="312.01" y2="312.01"/><text fill="#000000" font-family="sans-serif" font-size="11" font-weight="bold" lengthAdjust="spacing" textLength="80" x="15" y="323.7689">[task(s) found]</text><polygon fill="#181818" points="527.5,347.6979,517.5,351.6979,527.5,355.6979,523.5,351.6979" style="stroke:#181818;stroke-width:1.0;"/><line style="stroke:#181818;stroke-width:1.0;stroke-dasharray:2.0,2.0;" x1="521.5" x2="706.5" y1="351.6979" y2="351.6979"/><text fill="#000000" font-family="sans-serif" font-size="13" font-weight="bold" lengthAdjust="spacing" textLength="7" x="533.5" y="345.8889">7</text><text fill="#000000" font-family="sans-serif" font-size="13" lengthAdjust="spacing" textLength="31" x="544.5" y="345.8889">tasks</text><polygon fill="#181818" points="325.5,379.404,315.5,383.404,325.5,387.404,321.5,383.404" style="stroke:#181818;stroke-width:1.0;"/><line style="stroke:#181818;stroke-width:1.0;stroke-dasharray:2.0,2.0;" x1="319.5" x2="510.5" y1="383.404" y2="383.404"/><text fill="#000000" font-family="sans-serif" font-size="13" font-weight="bold" lengthAdjust="spacing" textLength="7" x="331.5" y="377.595">8</text><text fill="#000000" font-family="sans-serif" font-size="13" lengthAdjust="spacing" textLength="31" x="342.5" y="377.595">tasks</text><polygon fill="#181818" points="86.5,411.11,76.5,415.11,86.5,419.11,82.5,415.11" style="stroke:#181818;stroke-width:1.0;"/><line style="stroke:#181818;stroke-width:1.0;stroke-dasharray:2.0,2.0;" x1="80.5" x2="308.5" y1="415.11" y2="415.11"/><text fill="#000000" font-family="sans-serif" font-size="13" font-weight="bold" lengthAdjust="spacing" textLength="7" x="92.5" y="409.301">9</text><text fill="#000000" font-family="sans-serif" font-size="13" lengthAdjust="spacing" textLength="166" x="103.5" y="409.301">shows tasks &amp; requests one</text><polygon fill="#181818" points="292.5,442.816,302.5,446.816,292.5,450.816,296.5,446.816" style="stroke:#181818;stroke-width:1.0;"/><line style="stroke:#181818;stroke-width:1.0;" x1="75.5" x2="298.5" y1="446.816" y2="446.816"/><text fill="#000000" font-family="sans-serif" font-size="13" font-weight="bold" lengthAdjust="spacing" textLength="14" x="82.5" y="441.007">10</text><text fill="#000000" font-family="sans-serif" font-size="13" lengthAdjust="spacing" textLength="80" x="100.5" y="441.007">provides task</text><polygon fill="#181818" points="494.5,474.522,504.5,478.522,494.5,482.522,498.5,478.522" style="stroke:#181818;stroke-width:1.0;"/><line style="stroke:#181818;stroke-width:1.0;" x1="314.5" x2="500.5" y1="478.522" y2="478.522"/><text fill="#000000" font-family="sans-serif" font-size="13" font-weight="bold" lengthAdjust="spacing" textLength="14" x="321.5" y="472.713">11</text><text fill="#000000" font-family="sans-serif" font-size="13" lengthAdjust="spacing" textLength="106" x="339.5" y="472.713">PATCH /tasks/{id}</text><polygon fill="#181818" points="690.5,506.228,700.5,510.228,690.5,514.228,694.5,510.228" style="stroke:#181818;stroke-width:1.0;"/><line style="stroke:#181818;stroke-width:1.0;" x1="516.5" x2="696.5" y1="510.228" y2="510.228"/><text fill="#000000" font-family="sans-serif" font-size="13" font-weight="bold" lengthAdjust="spacing" textLength="14" x="523.5" y="504.419">12</text><text fill="#000000" font-family="sans-serif" font-size="13" lengthAdjust="spacing" textLength="100" x="541.5" y="504.419">PATCH /jobs/{id}</text><polygon fill="#181818" points="527.5,537.934,517.5,541.934,527.5,545.934,523.5,541.934" style="stroke:#181818;stroke-width:1.0;"/><line style="stroke:#181818;stroke-width:1.0;stroke-dasharray:2.0,2.0;" x1="521.5" x2="706.5" y1="541.934" y2="541.934"/><text fill="#000000" font-family="sans-serif" font-size="13" font-weight="bold" lengthAdjust="spacing" textLength="14" x="533.5" y="536.125">13</text><text fill="#000000" font-family="sans-serif" font-size="13" lengthAdjust="spacing" textLength="106" x="551.5" y="536.125">200: updated task</text><polygon fill="#181818" points="325.5,569.6401,315.5,573.6401,325.5,577.6401,321.5,573.6401" style="stroke:#181818;stroke-width:1.0;"/><line style="stroke:#181818;stroke-width:1.0;stroke-dasharray:2.0,2.0;" x1="319.5" x2="510.5" y1="573.6401" y2="573.6401"/><text fill="#000000" font-family="sans-serif" font-size="13" font-weight="bold" lengthAdjust="spacing" textLength="14" x="331.5" y="567.831">14</text><text fill="#000000" font-family="sans-serif" font-size="13" lengthAdjust="spacing" textLength="25" x="349.5" y="567.831">task</text><polygon fill="#181818" points="81.5,601.3461,71.5,605.3461,81.5,609.3461,77.5,605.3461" style="stroke:#181818;stroke-width:1.0;"/><line style="stroke:#181818;stroke-width:1.0;stroke-dasharray:2.0,2.0;" x1="75.5" x2="308.5" y1="605.3461" y2="605.3461"/><text fill="#000000" font-family="sans-serif" font-size="13" font-weight="bold" lengthAdjust="spacing" textLength="14" x="87.5" y="599.5371">15</text><text fill="#000000" font-family="sans-serif" font-size="13" lengthAdjust="spacing" textLength="120" x="105.5" y="599.5371">shows updated task</text><!--SRC=[dLDDJm8n4BttLqmu63qGYE6qYHhYvmL3TFz0eGMhqAupBHoC_zrfMO6oe6WlctRUl7bzVIk3TpRCHng5a6Fl45gbf3SOI2kd6biW2G9niPBepTXKqdfeFG_xguh9pmStJ-byhd2tKDO5d-QOXVGw4GCl_aBxajcWW2NZ2Rm3MLNe5XfO4kf980qIF4jB7HiAa_Q9nKGI7iqizxSbT2AQhiXB7-YYqbOPErsZrmnHAsojI91u_3VFgnirQBAMBQvulPbFGa_f3AppC771gWo_6kEXlTRRw_OAq8WEzm0n0PCx2VV8f7TxIQC54KfOWB4JXtEgMOMUiOFViewHbDpBC4hd5pseCc_Dsb28fbXkeHUtf5KZdF23lmTDd0DdjTZXu1TlX2OcnIXDnmTas2-l7-g8T3wC-lnZCEh-68sylP67drq-xtOB29LYjDge_vVZlnf-mFJ6zDpixHt_hvn_yGK0]--></g></svg>