<?xml version="1.0" encoding="us-ascii" standalone="no"?><svg xmlns="http://www.w3.org/2000/svg" xmlns:xlink="http://www.w3.org/1999/xlink" contentStyleType="text/css" height="713px" preserveAspectRatio="none" style="width:743px;height:713px;background:#FFFFFF;" version="1.1" viewBox="0 0 743 713" width="743px" zoomAndPan="magnify"><defs/><g><rect fill="#FFFFFF" height="511.2782" style="stroke:#181818;stroke-width:1.0;" width="10" x="65.5" y="94.0679"/><rect fill="#FFFFFF" height="297.336" style="stroke:#181818;stroke-width:1.0;" width="10" x="300.5" y="117.7739"/><rect fill="#FFFFFF" height="158.5301" style="stroke:#181818;stroke-width:1.0;" width="10" x="300.5" y="446.816"/><rect fill="#FFFFFF" height="233.924" style="stroke:#181818;stroke-width:1.0;" width="10" x="502.5" y="149.4799"/><rect fill="#FFFFFF" height="95.118" style="stroke:#181818;stroke-width:1.0;" width="10" x="502.5" y="478.522"/><rect fill="#FFFFFF" height="170.512" style="stroke:#181818;stroke-width:1.0;" width="10" x="698.5" y="181.186"/><rect fill="#FFFFFF" height="31.706" style="stroke:#181818;stroke-width:1.0;" width="10" x="698.5" y="510.228"/><rect fill="none" height="417.1601" style="stroke:#000000;stroke-width:1.5;" width="726" x="10" y="196.186"/><line style="stroke:#181818;stroke-width:0.5;stroke-dasharray:5.0,5.0;" x1="70" x2="70" y1="84.0679" y2="630.3461"/><line style="stroke:#181818;stroke-width:0.5;stroke-dasharray:5.0,5.0;" x1="305" x2="305" y1="84.0679" y2="630.3461"/><line style="stroke:#181818;stroke-width:0.5;stroke-dasharray:5.0,5.0;" x1="507.5" x2="507.5" y1="84.0679" y2="630.3461"/><line style="stroke:#181818;stroke-width:0.5;stroke-dasharray:5.0,5.0;" x1="703" x2="703" y1="84.0679" y2="630.3461"/><text fill="#000000" font-family="sans-serif" font-size="14" lengthAdjust="spacing" textLength="95" x="20" y="79.9659">Task Manager</text><ellipse cx="70.5" cy="13.5" fill="#E2E2F0" rx="8" ry="8" style="stroke:#181818;stroke-width:0.5;"/><path d="M70.5,21.5 L70.5,48.5 M57.5,29.5 L83.5,29.5 M70.5,48.5 L57.5,63.5 M70.5,48.5 L83.5,63.5 " fill="none" style="stroke:#181818;stroke-width:0.5;"/><text fill="#000000" font-family="sans-serif" font-size="14" lengthAdjust="spacing" textLength="95" x="20" y="644.312">Task Manager</text><ellipse cx="70.5" cy="656.914" fill="#E2E2F0" rx="8" ry="8" style="stroke:#181818;stroke-width:0.5;"/><path d="M70.5,664.914 L70.5,691.914 M57.5,672.914 L83.5,672.914 M70.5,691.914 L57.5,706.914 M70.5,691.914 L83.5,706.914 " fill="none" style="stroke:#181818;stroke-width:0.5;"/><rect fill="#E2E2F0" height="33.0679" rx="2.5" ry="2.5" style="stroke:#181818;stroke-width:0.5;" width="39" x="286" y="50"/><text fill="#000000" font-family="sans-serif" font-size="14" lengthAdjust="spacing" textLength="25" x="293" y="71.9659">SPA</text><rect fill="#E2E2F0" height="33.0679" rx="2.5" ry="2.5" style="stroke:#181818;stroke-width:0.5;" width="39" x="286" y="629.3461"/><text fill="#000000" font-family="sans-serif" font-size="14" lengthAdjust="spacing" textLength="25" x="293" y="651.312">SPA</text><rect fill="#E2E2F0" height="33.0679" rx="2.5" ry="2.5" style="stroke:#181818;stroke-width:0.5;" width="46" x="484.5" y="50"/><text fill="#000000" font-family="sans-serif" font-size="14" lengthAdjust="spacing" textLength="32" x="491.5" y="71.9659">MDR</text><rect fill="#E2E2F0" height="33.0679" rx="2.5" ry="2.5" style="stroke:#181818;stroke-width:0.5;" width="46" x="484.5" y="629.3461"/><text fill="#000000" font-family="sans-serif" font-size="14" lengthAdjust="spacing" textLength="32" x="491.5" y="651.312">MDR</text><rect fill="#E2E2F0" height="33.0679" rx="2.5" ry="2.5" style="stroke:#181818;stroke-width:0.5;" width="45" x="681" y="50"/><text fill="#000000" font-family="sans-serif" font-size="14" lengthAdjust="spacing" textLength="31" x="688" y="71.9659">MDT</text><rect fill="#E2E2F0" height="33.0679" rx="2.5" ry="2.5" style="stroke:#181818;stroke-width:0.5;" width="45" x="681" y="629.3461"/><text fill="#000000" font-family="sans-serif" font-size="14" lengthAdjust="spacing" textLength="31" x="688" y="651.312">MDT</text><rect fill="#FFFFFF" height="511.2782" style="stroke:#181818;stroke-width:1.0;" width="10" x="65.5" y="94.0679"/><rect fill="#FFFFFF" height="297.336" style="stroke:#181818;stroke-width:1.0;" width="10" x="300.5" y="117.7739"/><rect fill="#FFFFFF" height="158.5301" style="stroke:#181818;stroke-width:1.0;" width="10" x="300.5" y="446.816"/><rect fill="#FFFFFF" height="233.924" style="stroke:#181818;stroke-width:1.0;" width="10" x="502.5" y="149.4799"/><rect fill="#FFFFFF" height="95.118" style="stroke:#181818;stroke-width:1.0;" width="10" x="502.5" y="478.522"/><rect fill="#FFFFFF" height="170.512" style="stroke:#181818;stroke-width:1.0;" width="10" x="698.5" y="181.186"/><rect fill="#FFFFFF" height="31.706" style="stroke:#181818;stroke-width:1.0;" width="10" x="698.5" y="510.228"/><polygon fill="#181818" points="288.5,113.7739,298.5,117.7739,288.5,121.7739,292.5,117.7739" style="stroke:#181818;stroke-width:1.0;"/><line style="stroke:#181818;stroke-width:1.0;" x1="75.5" x2="294.5" y1="117.7739" y2="117.7739"/><text fill="#000000" font-family="sans-serif" font-size="13" font-weight="bold" lengthAdjust="spacing" textLength="7" x="82.5" y="111.9649">1</text><text fill="#000000" font-family="sans-serif" font-size="13" lengthAdjust="spacing" textLength="195" x="93.5" y="111.9649">wants to approve or reject a task</text><polygon fill="#181818" points="490.5,145.4799,500.5,149.4799,490.5,153.4799,494.5,149.4799" style="stroke:#181818;stroke-width:1.0;"/><line style="stroke:#181818;stroke-width:1.0;" x1="310.5" x2="496.5" y1="149.4799" y2="149.4799"/><text fill="#000000" font-family="sans-serif" font-size="13" font-weight="bold" lengthAdjust="spacing" textLength="7" x="317.5" y="143.6709">2</text><text fill="#000000" font-family="sans-serif" font-size="13" lengthAdjust="spacing" textLength="162" x="328.5" y="143.6709">GET /tasks?status=pending</text><polygon fill="#181818" points="686.5,177.186,696.5,181.186,686.5,185.186,690.5,181.186" style="stroke:#181818;stroke-width:1.0;"/><line style="stroke:#181818;stroke-width:1.0;" x1="512.5" x2="692.5" y1="181.186" y2="181.186"/><text fill="#000000" font-family="sans-serif" font-size="13" font-weight="bold" lengthAdjust="spacing" textLength="7" x="519.5" y="175.377">3</text><text fill="#000000" font-family="sans-serif" font-size="13" lengthAdjust="spacing" textLength="156" x="530.5" y="175.377">GET /jobs?status=pending</text><path d="M10,196.186 L73,196.186 L73,205.892 L63,215.892 L10,215.892 L10,196.186 " fill="#EEEEEE" style="stroke:#000000;stroke-width:1.5;"/><rect fill="none" height="417.1601" style="stroke:#000000;stroke-width:1.5;" width="726" x="10" y="196.186"/><text fill="#000000" font-family="sans-serif" font-size="13" font-weight="bold" lengthAdjust="spacing" textLength="18" x="25" y="211.083">alt</text><text fill="#000000" font-family="sans-serif" font-size="11" font-weight="bold" lengthAdjust="spacing" textLength="102" x="88" y="209.9449">[task(s) not found]</text><polygon fill="#181818" points="523.5,235.598,513.5,239.598,523.5,243.598,519.5,239.598" style="stroke:#181818;stroke-width:1.0;"/><line style="stroke:#181818;stroke-width:1.0;stroke-dasharray:2.0,2.0;" x1="517.5" x2="697.5" y1="239.598" y2="239.598"/><text fill="#000000" font-family="sans-serif" font-size="13" font-weight="bold" lengthAdjust="spacing" textLength="7" x="529.5" y="233.789">4</text><text fill="#000000" font-family="sans-serif" font-size="13" lengthAdjust="spacing" textLength="57" x="540.5" y="233.789">404: error</text><polygon fill="#181818" points="321.5,267.304,311.5,271.304,321.5,275.304,317.5,271.304" style="stroke:#181818;stroke-width:1.0;"/><line style="stroke:#181818;stroke-width:1.0;stroke-dasharray:2.0,2.0;" x1="315.5" x2="501.5" y1="271.304" y2="271.304"/><text fill="#000000" font-family="sans-serif" font-size="13" font-weight="bold" lengthAdjust="spacing" textLength="7" x="327.5" y="265.495">5</text><text fill="#000000" font-family="sans-serif" font-size="13" lengthAdjust="spacing" textLength="92" x="338.5" y="265.495">404: Not Found</text><polygon fill="#181818" points="86.5,299.01,76.5,303.01,86.5,307.01,82.5,303.01" style="stroke:#181818;stroke-width:1.0;"/><line style="stroke:#181818;stroke-width:1.0;stroke-dasharray:2.0,2.0;" x1="80.5" x2="299.5" y1="303.01" y2="303.01"/><text fill="#000000" font-family="sans-serif" font-size="13" font-weight="bold" lengthAdjust="spacing" textLength="7" x="92.5" y="297.201">6</text><text fill="#000000" font-family="sans-serif" font-size="13" lengthAdjust="spacing" textLength="79" x="103.5" y="297.201">informs error</text><line style="stroke:#000000;stroke-width:1.0;stroke-dasharray:2.0,2.0;" x1="10" x2="736" y1="312.01" y2="312.01"/><text fill="#000000" font-family="sans-serif" font-size="11" font-weight="bold" lengthAdjust="spacing" textLength="80" x="15" y="323.7689">[task(s) found]</text><polygon fill="#181818" points="523.5,347.6979,513.5,351.6979,523.5,355.6979,519.5,351.6979" style="stroke:#181818;stroke-width:1.0;"/><line style="stroke:#181818;stroke-width:1.0;stroke-dasharray:2.0,2.0;" x1="517.5" x2="702.5" y1="351.6979" y2="351.6979"/><text fill="#000000" font-family="sans-serif" font-size="13" font-weight="bold" lengthAdjust="spacing" textLength="7" x="529.5" y="345.8889">7</text><text fill="#000000" font-family="sans-serif" font-size="13" lengthAdjust="spacing" textLength="31" x="540.5" y="345.8889">tasks</text><polygon fill="#181818" points="321.5,379.404,311.5,383.404,321.5,387.404,317.5,383.404" style="stroke:#181818;stroke-width:1.0;"/><line style="stroke:#181818;stroke-width:1.0;stroke-dasharray:2.0,2.0;" x1="315.5" x2="506.5" y1="383.404" y2="383.404"/><text fill="#000000" font-family="sans-serif" font-size="13" font-weight="bold" lengthAdjust="spacing" textLength="7" x="327.5" y="377.595">8</text><text fill="#000000" font-family="sans-serif" font-size="13" lengthAdjust="spacing" textLength="31" x="338.5" y="377.595">tasks</text><polygon fill="#181818" points="86.5,411.11,76.5,415.11,86.5,419.11,82.5,415.11" style="stroke:#181818;stroke-width:1.0;"/><line style="stroke:#181818;stroke-width:1.0;stroke-dasharray:2.0,2.0;" x1="80.5" x2="304.5" y1="415.11" y2="415.11"/><text fill="#000000" font-family="sans-serif" font-size="13" font-weight="bold" lengthAdjust="spacing" textLength="7" x="92.5" y="409.301">9</text><text fill="#000000" font-family="sans-serif" font-size="13" lengthAdjust="spacing" textLength="166" x="103.5" y="409.301">shows tasks &amp; requests one</text><polygon fill="#181818" points="288.5,442.816,298.5,446.816,288.5,450.816,292.5,446.816" style="stroke:#181818;stroke-width:1.0;"/><line style="stroke:#181818;stroke-width:1.0;" x1="75.5" x2="294.5" y1="446.816" y2="446.816"/><text fill="#000000" font-family="sans-serif" font-size="13" font-weight="bold" lengthAdjust="spacing" textLength="14" x="82.5" y="441.007">10</text><text fill="#000000" font-family="sans-serif" font-size="13" lengthAdjust="spacing" textLength="80" x="100.5" y="441.007">provides task</text><polygon fill="#181818" points="490.5,474.522,500.5,478.522,490.5,482.522,494.5,478.522" style="stroke:#181818;stroke-width:1.0;"/><line style="stroke:#181818;stroke-width:1.0;" x1="310.5" x2="496.5" y1="478.522" y2="478.522"/><text fill="#000000" font-family="sans-serif" font-size="13" font-weight="bold" lengthAdjust="spacing" textLength="14" x="317.5" y="472.713">11</text><text fill="#000000" font-family="sans-serif" font-size="13" lengthAdjust="spacing" textLength="106" x="335.5" y="472.713">PATCH /tasks/{id}</text><polygon fill="#181818" points="686.5,506.228,696.5,510.228,686.5,514.228,690.5,510.228" style="stroke:#181818;stroke-width:1.0;"/><line style="stroke:#181818;stroke-width:1.0;" x1="512.5" x2="692.5" y1="510.228" y2="510.228"/><text fill="#000000" font-family="sans-serif" font-size="13" font-weight="bold" lengthAdjust="spacing" textLength="14" x="519.5" y="504.419">12</text><text fill="#000000" font-family="sans-serif" font-size="13" lengthAdjust="spacing" textLength="100" x="537.5" y="504.419">PATCH /jobs/{id}</text><polygon fill="#181818" points="523.5,537.934,513.5,541.934,523.5,545.934,519.5,541.934" style="stroke:#181818;stroke-width:1.0;"/><line style="stroke:#181818;stroke-width:1.0;stroke-dasharray:2.0,2.0;" x1="517.5" x2="702.5" y1="541.934" y2="541.934"/><text fill="#000000" font-family="sans-serif" font-size="13" font-weight="bold" lengthAdjust="spacing" textLength="14" x="529.5" y="536.125">13</text><text fill="#000000" font-family="sans-serif" font-size="13" lengthAdjust="spacing" textLength="106" x="547.5" y="536.125">200: updated task</text><polygon fill="#181818" points="321.5,569.6401,311.5,573.6401,321.5,577.6401,317.5,573.6401" style="stroke:#181818;stroke-width:1.0;"/><line style="stroke:#181818;stroke-width:1.0;stroke-dasharray:2.0,2.0;" x1="315.5" x2="506.5" y1="573.6401" y2="573.6401"/><text fill="#000000" font-family="sans-serif" font-size="13" font-weight="bold" lengthAdjust="spacing" textLength="14" x="327.5" y="567.831">14</text><text fill="#000000" font-family="sans-serif" font-size="13" lengthAdjust="spacing" textLength="25" x="345.5" y="567.831">task</text><polygon fill="#181818" points="81.5,601.3461,71.5,605.3461,81.5,609.3461,77.5,605.3461" style="stroke:#181818;stroke-width:1.0;"/><line style="stroke:#181818;stroke-width:1.0;stroke-dasharray:2.0,2.0;" x1="75.5" x2="304.5" y1="605.3461" y2="605.3461"/><text fill="#000000" font-family="sans-serif" font-size="13" font-weight="bold" lengthAdjust="spacing" textLength="14" x="87.5" y="599.5371">15</text><text fill="#000000" font-family="sans-serif" font-size="13" lengthAdjust="spacing" textLength="120" x="105.5" y="599.5371">shows updated task</text><!--SRC=[dLDDJm8n4BtlhvXmC7eW4CDf4pN4pmk6wFw1GWiMeLqxKpWO_xlJiYwK1KHxsRJptflNwLlXoHg_62cNPM9Cra6h4FWE0s74LBaM20IFN2o58ptMfJ04hTTXVrtHwVdWxYMUBwJRBHHLWM8VlHIaeZ3muY-qhraDSbWn7e4iYB9qTgc0BJarKsC20SJM8cCZeUC-gkWWmgrPvV6-W4v0umsI88zNfJ9IcscDhXM2LzXQGI3gq8_Ep8uQCWbbIojSRqxHw3bUWB444-kDJF3hDWJjsc-lsyj1EMVT7g2Bm3YTY7jcqOUzec440Oek1sqcrYsmKitK75LjwnHBSNe9HghqeWTTfjI4vhAiQPOf-6PNk2R26J_uXrV8ER16PJiQ_EADq8IaQAdmz80C-yNjKnMHpgUMNtyCHiKFqKZfZJmSd_9bjvk3BoMZvSRzloR-wy0F3BtHFHtszex_Lyv_zWq0]--></g></svg>