<?xml version="1.0" encoding="us-ascii" standalone="no"?><svg xmlns="http://www.w3.org/2000/svg" xmlns:xlink="http://www.w3.org/1999/xlink" contentStyleType="text/css" height="947px" preserveAspectRatio="none" style="width:1004px;height:947px;background:#FFFFFF;" version="1.1" viewBox="0 0 1004 947" width="1004px" zoomAndPan="magnify"><defs/><g><rect fill="#FFFFFF" height="926.3096" style="stroke:#181818;stroke-width:1.5;" width="993" x="5" y="15"/><path d="M36,15 L36,26.6211 L26,36.6211 L5,36.6211 " fill="none" style="stroke:#181818;stroke-width:1.5;"/><text fill="#000000" font-family="sans-serif" font-size="14" lengthAdjust="spacing" textLength="21" x="8" y="31.1074">MD</text><rect fill="#ADD8E6" height="869.3047" style="stroke:#181818;stroke-width:0.5;" width="705" x="186" y="46.3838"/><text fill="#000000" font-family="sans-serif" font-size="13" font-weight="bold" lengthAdjust="spacing" textLength="59" x="509" y="60.4121">Back-End</text><rect fill="#DDDDDD" height="869.3047" style="stroke:#181818;stroke-width:0.5;" width="82" x="893" y="46.3838"/><text fill="#000000" font-family="sans-serif" font-size="13" font-weight="bold" lengthAdjust="spacing" textLength="59" x="904.5" y="60.4121">Database</text><rect fill="#FFFFFF" height="657.4805" style="stroke:#181818;stroke-width:1.0;" width="10" x="211" y="165.5869"/><rect fill="#FFFFFF" height="594.8984" style="stroke:#181818;stroke-width:1.0;" width="10" x="382" y="196.8779"/><rect fill="#FFFFFF" height="532.3164" style="stroke:#181818;stroke-width:1.0;" width="10" x="529" y="228.1689"/><rect fill="#FFFFFF" height="93.5332" style="stroke:#181818;stroke-width:1.0;" width="10" x="703" y="635.6611"/><rect fill="#FFFFFF" height="52.2422" style="stroke:#181818;stroke-width:1.0;" width="10" x="860" y="676.9521"/><rect fill="#FFFFFF" height="31.291" style="stroke:#181818;stroke-width:1.0;" width="10" x="929" y="259.46"/><rect fill="#FFFFFF" height="30" style="stroke:#181818;stroke-width:1.0;" width="10" x="929" y="441.8662"/><rect fill="#FFFFFF" height="30" style="stroke:#181818;stroke-width:1.0;" width="10" x="929" y="519.7881"/><rect fill="none" height="494.3652" style="stroke:#000000;stroke-width:1.5;" width="968" x="13" y="336.7021"/><line style="stroke:#181818;stroke-width:0.5;stroke-dasharray:5.0,5.0;" x1="216" x2="216" y1="132.2959" y2="848.0674"/><line style="stroke:#181818;stroke-width:0.5;stroke-dasharray:5.0,5.0;" x1="387" x2="387" y1="132.2959" y2="848.0674"/><line style="stroke:#181818;stroke-width:0.5;stroke-dasharray:5.0,5.0;" x1="533.5" x2="533.5" y1="132.2959" y2="848.0674"/><line style="stroke:#181818;stroke-width:0.5;stroke-dasharray:5.0,5.0;" x1="607.5" x2="607.5" y1="308.5811" y2="848.0674"/><line style="stroke:#181818;stroke-width:0.5;stroke-dasharray:5.0,5.0;" x1="708" x2="708" y1="132.2959" y2="848.0674"/><line style="stroke:#181818;stroke-width:0.5;stroke-dasharray:5.0,5.0;" x1="865" x2="865" y1="684.7822" y2="848.0674"/><line style="stroke:#181818;stroke-width:0.5;stroke-dasharray:5.0,5.0;" x1="934" x2="934" y1="132.2959" y2="848.0674"/><rect fill="#E2E2F0" height="32.6211" rx="2.5" ry="2.5" style="stroke:#181818;stroke-width:0.5;" width="52" x="190" y="98.6748"/><text fill="#000000" font-family="sans-serif" font-size="14" lengthAdjust="spacing" textLength="38" x="197" y="120.7822">Route</text><rect fill="#E2E2F0" height="32.6211" rx="2.5" ry="2.5" style="stroke:#181818;stroke-width:0.5;" width="52" x="190" y="847.0674"/><text fill="#000000" font-family="sans-serif" font-size="14" lengthAdjust="spacing" textLength="38" x="197" y="869.1748">Route</text><rect fill="#E2E2F0" height="32.6211" rx="2.5" ry="2.5" style="stroke:#181818;stroke-width:0.5;" width="76" x="349" y="98.6748"/><text fill="#000000" font-family="sans-serif" font-size="14" lengthAdjust="spacing" textLength="62" x="356" y="120.7822">Controller</text><rect fill="#E2E2F0" height="32.6211" rx="2.5" ry="2.5" style="stroke:#181818;stroke-width:0.5;" width="76" x="349" y="847.0674"/><text fill="#000000" font-family="sans-serif" font-size="14" lengthAdjust="spacing" textLength="62" x="356" y="869.1748">Controller</text><rect fill="#E2E2F0" height="32.6211" rx="2.5" ry="2.5" style="stroke:#181818;stroke-width:0.5;" width="61" x="503.5" y="98.6748"/><text fill="#000000" font-family="sans-serif" font-size="14" lengthAdjust="spacing" textLength="47" x="510.5" y="120.7822">Service</text><rect fill="#E2E2F0" height="32.6211" rx="2.5" ry="2.5" style="stroke:#181818;stroke-width:0.5;" width="61" x="503.5" y="847.0674"/><text fill="#000000" font-family="sans-serif" font-size="14" lengthAdjust="spacing" textLength="47" x="510.5" y="869.1748">Service</text><rect fill="#E2E2F0" height="51.2422" rx="2.5" ry="2.5" style="stroke:#181818;stroke-width:0.5;" width="67" x="574.5" y="847.0674"/><text fill="#000000" font-family="sans-serif" font-size="14" lengthAdjust="spacing" textLength="53" x="581.5" y="869.1748">building:</text><text fill="#000000" font-family="sans-serif" font-size="14" lengthAdjust="spacing" textLength="50" x="583" y="887.7959">Building</text><rect fill="#E2E2F0" height="32.6211" rx="2.5" ry="2.5" style="stroke:#181818;stroke-width:0.5;" width="62" x="677" y="98.6748"/><text fill="#000000" font-family="sans-serif" font-size="14" lengthAdjust="spacing" textLength="48" x="684" y="120.7822">Mapper</text><rect fill="#E2E2F0" height="32.6211" rx="2.5" ry="2.5" style="stroke:#181818;stroke-width:0.5;" width="62" x="677" y="847.0674"/><text fill="#000000" font-family="sans-serif" font-size="14" lengthAdjust="spacing" textLength="48" x="684" y="869.1748">Mapper</text><rect fill="#E2E2F0" height="51.2422" rx="2.5" ry="2.5" style="stroke:#181818;stroke-width:0.5;" width="44" x="843" y="847.0674"/><text fill="#000000" font-family="sans-serif" font-size="14" lengthAdjust="spacing" textLength="24" x="853" y="869.1748">dto:</text><text fill="#000000" font-family="sans-serif" font-size="14" lengthAdjust="spacing" textLength="30" x="850" y="887.7959">DTO</text><text fill="#000000" font-family="sans-serif" font-size="14" lengthAdjust="spacing" textLength="68" x="897" y="128.7822">Repository</text><path d="M916,77.6748 C916,67.6748 934,67.6748 934,67.6748 C934,67.6748 952,67.6748 952,77.6748 L952,103.6748 C952,113.6748 934,113.6748 934,113.6748 C934,113.6748 916,113.6748 916,103.6748 L916,77.6748 " fill="#E2E2F0" style="stroke:#181818;stroke-width:1.5;"/><path d="M916,77.6748 C916,87.6748 934,87.6748 934,87.6748 C934,87.6748 952,87.6748 952,77.6748 " fill="none" style="stroke:#181818;stroke-width:1.5;"/><text fill="#000000" font-family="sans-serif" font-size="14" lengthAdjust="spacing" textLength="68" x="897" y="862.1748">Repository</text><path d="M916,875.6885 C916,865.6885 934,865.6885 934,865.6885 C934,865.6885 952,865.6885 952,875.6885 L952,901.6885 C952,911.6885 934,911.6885 934,911.6885 C934,911.6885 916,911.6885 916,901.6885 L916,875.6885 " fill="#E2E2F0" style="stroke:#181818;stroke-width:1.5;"/><path d="M916,875.6885 C916,885.6885 934,885.6885 934,885.6885 C934,885.6885 952,885.6885 952,875.6885 " fill="none" style="stroke:#181818;stroke-width:1.5;"/><rect fill="#FFFFFF" height="657.4805" style="stroke:#181818;stroke-width:1.0;" width="10" x="211" y="165.5869"/><rect fill="#FFFFFF" height="594.8984" style="stroke:#181818;stroke-width:1.0;" width="10" x="382" y="196.8779"/><rect fill="#FFFFFF" height="532.3164" style="stroke:#181818;stroke-width:1.0;" width="10" x="529" y="228.1689"/><rect fill="#FFFFFF" height="93.5332" style="stroke:#181818;stroke-width:1.0;" width="10" x="703" y="635.6611"/><rect fill="#FFFFFF" height="52.2422" style="stroke:#181818;stroke-width:1.0;" width="10" x="860" y="676.9521"/><rect fill="#FFFFFF" height="31.291" style="stroke:#181818;stroke-width:1.0;" width="10" x="929" y="259.46"/><rect fill="#FFFFFF" height="30" style="stroke:#181818;stroke-width:1.0;" width="10" x="929" y="441.8662"/><rect fill="#FFFFFF" height="30" style="stroke:#181818;stroke-width:1.0;" width="10" x="929" y="519.7881"/><polygon fill="#181818" points="199,161.5869,209,165.5869,199,169.5869,203,165.5869" style="stroke:#181818;stroke-width:1.0;"/><line style="stroke:#181818;stroke-width:1.0;" x1="10" x2="205" y1="165.5869" y2="165.5869"/><text fill="#000000" font-family="sans-serif" font-size="13" font-weight="bold" lengthAdjust="spacing" textLength="7" x="17" y="160.3242">1</text><text fill="#000000" font-family="sans-serif" font-size="13" lengthAdjust="spacing" textLength="106" x="28" y="160.3242">patch /building/{id}</text><polygon fill="#181818" points="370,192.8779,380,196.8779,370,200.8779,374,196.8779" style="stroke:#181818;stroke-width:1.0;"/><line style="stroke:#181818;stroke-width:1.0;" x1="221" x2="376" y1="196.8779" y2="196.8779"/><text fill="#000000" font-family="sans-serif" font-size="13" font-weight="bold" lengthAdjust="spacing" textLength="7" x="228" y="191.6152">2</text><text fill="#000000" font-family="sans-serif" font-size="13" lengthAdjust="spacing" textLength="131" x="239" y="191.6152">editBuilding(req,res,...)</text><polygon fill="#181818" points="517,224.1689,527,228.1689,517,232.1689,521,228.1689" style="stroke:#181818;stroke-width:1.0;"/><line style="stroke:#181818;stroke-width:1.0;" x1="392" x2="523" y1="228.1689" y2="228.1689"/><text fill="#000000" font-family="sans-serif" font-size="13" font-weight="bold" lengthAdjust="spacing" textLength="7" x="399" y="222.9063">3</text><text fill="#000000" font-family="sans-serif" font-size="13" lengthAdjust="spacing" textLength="107" x="410" y="222.9063">editBuilding(id,dto)</text><polygon fill="#181818" points="917,255.46,927,259.46,917,263.46,921,259.46" style="stroke:#181818;stroke-width:1.0;"/><line style="stroke:#181818;stroke-width:1.0;" x1="539" x2="923" y1="259.46" y2="259.46"/><text fill="#000000" font-family="sans-serif" font-size="13" font-weight="bold" lengthAdjust="spacing" textLength="7" x="546" y="254.1973">4</text><text fill="#000000" font-family="sans-serif" font-size="13" lengthAdjust="spacing" textLength="118" x="557" y="254.1973">findByCode(building)</text><polygon fill="#181818" points="652.5,286.751,642.5,290.751,652.5,294.751,648.5,290.751" style="stroke:#181818;stroke-width:1.0;"/><line style="stroke:#181818;stroke-width:1.0;stroke-dasharray:2.0,2.0;" x1="646.5" x2="933" y1="290.751" y2="290.751"/><text fill="#000000" font-family="sans-serif" font-size="13" font-weight="bold" lengthAdjust="spacing" textLength="7" x="658.5" y="285.4883">5</text><text fill="#000000" font-family="sans-serif" font-size="13" lengthAdjust="spacing" textLength="44" x="669.5" y="285.4883">create()</text><rect fill="#E2E2F0" height="51.2422" rx="2.5" ry="2.5" style="stroke:#181818;stroke-width:0.5;" width="67" x="574.5" y="267.46"/><text fill="#000000" font-family="sans-serif" font-size="14" lengthAdjust="spacing" textLength="53" x="581.5" y="289.5674">building:</text><text fill="#000000" font-family="sans-serif" font-size="14" lengthAdjust="spacing" textLength="50" x="583" y="308.1885">Building</text><path d="M13,336.7021 L74,336.7021 L74,345.9932 L64,355.9932 L13,355.9932 L13,336.7021 " fill="#EEEEEE" style="stroke:#000000;stroke-width:1.5;"/><rect fill="none" height="494.3652" style="stroke:#000000;stroke-width:1.5;" width="968" x="13" y="336.7021"/><text fill="#000000" font-family="sans-serif" font-size="13" font-weight="bold" lengthAdjust="spacing" textLength="16" x="28" y="351.7305">alt</text><text fill="#000000" font-family="sans-serif" font-size="11" font-weight="bold" lengthAdjust="spacing" textLength="108" x="89" y="350.5723">[building not found]</text><polygon fill="#181818" points="403,375.2842,393,379.2842,403,383.2842,399,379.2842" style="stroke:#181818;stroke-width:1.0;"/><line style="stroke:#181818;stroke-width:1.0;stroke-dasharray:2.0,2.0;" x1="397" x2="528" y1="379.2842" y2="379.2842"/><text fill="#000000" font-family="sans-serif" font-size="13" font-weight="bold" lengthAdjust="spacing" textLength="7" x="409" y="374.0215">6</text><text fill="#000000" font-family="sans-serif" font-size="13" lengthAdjust="spacing" textLength="26" x="420" y="374.0215">error</text><polygon fill="#181818" points="232,406.5752,222,410.5752,232,414.5752,228,410.5752" style="stroke:#181818;stroke-width:1.0;"/><line style="stroke:#181818;stroke-width:1.0;stroke-dasharray:2.0,2.0;" x1="226" x2="381" y1="410.5752" y2="410.5752"/><text fill="#000000" font-family="sans-serif" font-size="13" font-weight="bold" lengthAdjust="spacing" textLength="7" x="238" y="405.3125">7</text><text fill="#000000" font-family="sans-serif" font-size="13" lengthAdjust="spacing" textLength="78" x="249" y="405.3125">response 422</text><polygon fill="#181818" points="21,437.8662,11,441.8662,21,445.8662,17,441.8662" style="stroke:#181818;stroke-width:1.0;"/><line style="stroke:#181818;stroke-width:1.0;stroke-dasharray:2.0,2.0;" x1="15" x2="210" y1="441.8662" y2="441.8662"/><text fill="#000000" font-family="sans-serif" font-size="13" font-weight="bold" lengthAdjust="spacing" textLength="7" x="27" y="436.6035">8</text><text fill="#000000" font-family="sans-serif" font-size="13" lengthAdjust="spacing" textLength="164" x="38" y="436.6035">422: Unprocessable Content</text><line style="stroke:#000000;stroke-width:1.0;stroke-dasharray:2.0,2.0;" x1="13" x2="981" y1="480.8662" y2="480.8662"/><text fill="#000000" font-family="sans-serif" font-size="11" font-weight="bold" lengthAdjust="spacing" textLength="89" x="18" y="492.7363">[building exists]</text><polygon fill="#181818" points="917,515.7881,927,519.7881,917,523.7881,921,519.7881" style="stroke:#181818;stroke-width:1.0;"/><line style="stroke:#181818;stroke-width:1.0;" x1="539" x2="923" y1="519.7881" y2="519.7881"/><text fill="#000000" font-family="sans-serif" font-size="13" font-weight="bold" lengthAdjust="spacing" textLength="7" x="546" y="514.5254">9</text><text fill="#000000" font-family="sans-serif" font-size="13" lengthAdjust="spacing" textLength="78" x="557" y="514.5254">save(building)</text><path d="M544,562.7881 L544,606.7881 L717,606.7881 L717,572.7881 L707,562.7881 L544,562.7881 " fill="#FEFFDD" style="stroke:#181818;stroke-width:0.5;"/><path d="M707,562.7881 L707,572.7881 L717,572.7881 L707,562.7881 " fill="#FEFFDD" style="stroke:#181818;stroke-width:0.5;"/><text fill="#000000" font-family="sans-serif" font-size="13" lengthAdjust="spacing" textLength="152" x="550" y="581.8164">edit building specifications</text><text fill="#000000" font-family="sans-serif" font-size="13" lengthAdjust="spacing" textLength="112" x="550" y="599.1074">based on new ones</text><polygon fill="#181818" points="691,631.6611,701,635.6611,691,639.6611,695,635.6611" style="stroke:#181818;stroke-width:1.0;"/><line style="stroke:#181818;stroke-width:1.0;" x1="539" x2="697" y1="635.6611" y2="635.6611"/><text fill="#000000" font-family="sans-serif" font-size="13" font-weight="bold" lengthAdjust="spacing" textLength="14" x="546" y="630.3984">10</text><text fill="#000000" font-family="sans-serif" font-size="13" lengthAdjust="spacing" textLength="127" x="564" y="630.3984">domain2DTO(building)</text><polygon fill="#181818" points="831,662.9521,841,666.9521,831,670.9521,835,666.9521" style="stroke:#181818;stroke-width:1.0;"/><line style="stroke:#181818;stroke-width:1.0;stroke-dasharray:2.0,2.0;" x1="713" x2="837" y1="666.9521" y2="666.9521"/><text fill="#000000" font-family="sans-serif" font-size="13" font-weight="bold" lengthAdjust="spacing" textLength="14" x="720" y="661.6895">11</text><text fill="#000000" font-family="sans-serif" font-size="13" lengthAdjust="spacing" textLength="88" x="738" y="661.6895">create(building)</text><rect fill="#E2E2F0" height="51.2422" rx="2.5" ry="2.5" style="stroke:#181818;stroke-width:0.5;" width="44" x="843" y="643.6611"/><text fill="#000000" font-family="sans-serif" font-size="14" lengthAdjust="spacing" textLength="24" x="853" y="665.7686">dto:</text><text fill="#000000" font-family="sans-serif" font-size="14" lengthAdjust="spacing" textLength="30" x="850" y="684.3896">DTO</text><polygon fill="#181818" points="550,725.1943,540,729.1943,550,733.1943,546,729.1943" style="stroke:#181818;stroke-width:1.0;"/><line style="stroke:#181818;stroke-width:1.0;stroke-dasharray:2.0,2.0;" x1="544" x2="707" y1="729.1943" y2="729.1943"/><text fill="#000000" font-family="sans-serif" font-size="13" font-weight="bold" lengthAdjust="spacing" textLength="14" x="556" y="723.9316">12</text><text fill="#000000" font-family="sans-serif" font-size="13" lengthAdjust="spacing" textLength="18" x="574" y="723.9316">dto</text><polygon fill="#181818" points="403,756.4854,393,760.4854,403,764.4854,399,760.4854" style="stroke:#181818;stroke-width:1.0;"/><line style="stroke:#181818;stroke-width:1.0;stroke-dasharray:2.0,2.0;" x1="397" x2="533" y1="760.4854" y2="760.4854"/><text fill="#000000" font-family="sans-serif" font-size="13" font-weight="bold" lengthAdjust="spacing" textLength="14" x="409" y="755.2227">13</text><text fill="#000000" font-family="sans-serif" font-size="13" lengthAdjust="spacing" textLength="18" x="427" y="755.2227">dto</text><polygon fill="#181818" points="232,787.7764,222,791.7764,232,795.7764,228,791.7764" style="stroke:#181818;stroke-width:1.0;"/><line style="stroke:#181818;stroke-width:1.0;stroke-dasharray:2.0,2.0;" x1="226" x2="386" y1="791.7764" y2="791.7764"/><text fill="#000000" font-family="sans-serif" font-size="13" font-weight="bold" lengthAdjust="spacing" textLength="14" x="238" y="786.5137">14</text><text fill="#000000" font-family="sans-serif" font-size="13" lengthAdjust="spacing" textLength="21" x="256" y="786.5137">200</text><polygon fill="#181818" points="21,819.0674,11,823.0674,21,827.0674,17,823.0674" style="stroke:#181818;stroke-width:1.0;"/><line style="stroke:#181818;stroke-width:1.0;stroke-dasharray:2.0,2.0;" x1="15" x2="215" y1="823.0674" y2="823.0674"/><text fill="#000000" font-family="sans-serif" font-size="13" font-weight="bold" lengthAdjust="spacing" textLength="14" x="27" y="817.8047">15</text><text fill="#000000" font-family="sans-serif" font-size="13" lengthAdjust="spacing" textLength="44" x="45" y="817.8047">200 OK</text><!--SRC=[fLNBRjim4BppAnRk8NPWEO7Har7quBYdDWZGnycvKEGw8IgJAacv2Oh-UtTfMv5SoH5QNYoQioFEx4EoYivMsnoz45jfxCRBBSBjIkJk2KPBgRvd7wmUmPjFvk4nBeiAXIYbZqQPKje8ey-kYZW26S2t3swSZTuL1Vfqgg8lse0lw7T6xMF3JftmvfKfjB4FYtkxF3mcPDw6tSgoFBnXAylscOwEebTVxz8nxGHQ3IHiBsubeynbm97GXoTIWwKB9Zh_l9T4spf8N4WLpKv6XBLOP-_1Bw2KKJt2rV6oLx-C_Yq4qAgnFcrvUQ0WzW4MWDh4ewwnnnzJZs4wcyqcDRf5ajo3avMeY9BCEsKqUafw9t-5r8HiE7Givc9f99muDyRgvVEDqpW-IfnqXhsePSUw48an8-eSBYyNe3mIVDpDfl5rFbb4EDu9h8kmSPNLdT1QLyD-xvtl1JVUd_U2zkwpLyH7sIkTfGfwEv_tHgpVPHc32RE0RxRqJc48CYyGk5dGnivGB8YtbefF9iGW_Z4BfywUfyd5W1e9SlV_rJ4auvHaEkKn16xJMy39CMg55yT2YSfiZ9BHK8fwWtW0Q70MBFwa7-n6yZ3WYvnrXYOH6QCT3zGvpP-Xzl04wxiUStArKLit6-WySukT1-2hzFjPmj01pT47Qq1OaXZGa5rK3PhqVJZRWVFhQz4Jd8Odhxe94npkFefctOb3ViL5uz-r-0C0]--></g></svg>