<?xml version="1.0" encoding="us-ascii" standalone="no"?><svg xmlns="http://www.w3.org/2000/svg" xmlns:xlink="http://www.w3.org/1999/xlink" contentStyleType="text/css" height="1123px" preserveAspectRatio="none" style="width:1453px;height:1123px;background:#FFFFFF;" version="1.1" viewBox="0 0 1453 1123" width="1453px" zoomAndPan="magnify"><defs/><g><rect fill="#FFFFFF" height="942.8859" style="stroke:#181818;stroke-width:1.0;" width="10" x="212" y="91.8419"/><rect fill="#FFFFFF" height="879.4738" style="stroke:#181818;stroke-width:1.0;" width="10" x="466" y="123.5479"/><rect fill="#FFFFFF" height="53.1358" style="stroke:#181818;stroke-width:1.0;" width="10" x="635.5" y="165.2539"/><rect fill="#FFFFFF" height="721.2199" style="stroke:#181818;stroke-width:1.0;" width="10" x="776" y="250.0957"/><rect fill="#FFFFFF" height="126.5479" style="stroke:#181818;stroke-width:1.0;" width="10" x="967" y="686.2377"/><rect fill="#FFFFFF" height="53.1358" style="stroke:#181818;stroke-width:1.0;" width="10" x="1093" y="727.9437"/><rect fill="#FFFFFF" height="95.118" style="stroke:#181818;stroke-width:1.0;" width="10" x="1176" y="844.4916"/><rect fill="#FFFFFF" height="170.512" style="stroke:#181818;stroke-width:1.0;" width="10" x="1265.5" y="281.8018"/><rect fill="#FFFFFF" height="170.512" style="stroke:#181818;stroke-width:1.0;" width="10" x="1364" y="484.0197"/><rect fill="none" height="752.926" style="stroke:#000000;stroke-width:1.5;" width="1434" x="3" y="296.8018"/><rect fill="none" height="543.708" style="stroke:#000000;stroke-width:1.5;" width="1424" x="3" y="499.0197"/><line style="stroke:#181818;stroke-width:0.5;stroke-dasharray:5.0,5.0;" x1="216.5" x2="216.5" y1="58.1358" y2="1066.7277"/><line style="stroke:#181818;stroke-width:0.5;stroke-dasharray:5.0,5.0;" x1="470.5" x2="470.5" y1="58.1358" y2="1066.7277"/><line style="stroke:#181818;stroke-width:0.5;stroke-dasharray:5.0,5.0;" x1="640" x2="640" y1="173.1158" y2="1066.7277"/><line style="stroke:#181818;stroke-width:0.5;stroke-dasharray:5.0,5.0;" x1="781" x2="781" y1="58.1358" y2="1066.7277"/><line style="stroke:#181818;stroke-width:0.5;stroke-dasharray:5.0,5.0;" x1="971.5" x2="971.5" y1="58.1358" y2="1066.7277"/><line style="stroke:#181818;stroke-width:0.5;stroke-dasharray:5.0,5.0;" x1="1098" x2="1098" y1="735.8056" y2="1066.7277"/><line style="stroke:#181818;stroke-width:0.5;stroke-dasharray:5.0,5.0;" x1="1181" x2="1181" y1="58.1358" y2="1066.7277"/><line style="stroke:#181818;stroke-width:0.5;stroke-dasharray:5.0,5.0;" x1="1270" x2="1270" y1="58.1358" y2="1066.7277"/><line style="stroke:#181818;stroke-width:0.5;stroke-dasharray:5.0,5.0;" x1="1369" x2="1369" y1="58.1358" y2="1066.7277"/><rect fill="#E2E2F0" height="33.0679" rx="2.5" ry="2.5" style="stroke:#181818;stroke-width:0.5;" width="53" x="190.5" y="24.0679"/><text fill="#000000" font-family="sans-serif" font-size="14" lengthAdjust="spacing" textLength="39" x="197.5" y="46.0339">Route</text><rect fill="#E2E2F0" height="33.0679" rx="2.5" ry="2.5" style="stroke:#181818;stroke-width:0.5;" width="53" x="190.5" y="1065.7277"/><text fill="#000000" font-family="sans-serif" font-size="14" lengthAdjust="spacing" textLength="39" x="197.5" y="1087.6936">Route</text><rect fill="#E2E2F0" height="33.0679" rx="2.5" ry="2.5" style="stroke:#181818;stroke-width:0.5;" width="111" x="415.5" y="24.0679"/><text fill="#000000" font-family="sans-serif" font-size="14" lengthAdjust="spacing" textLength="97" x="422.5" y="46.0339">TaskController</text><rect fill="#E2E2F0" height="33.0679" rx="2.5" ry="2.5" style="stroke:#181818;stroke-width:0.5;" width="111" x="415.5" y="1065.7277"/><text fill="#000000" font-family="sans-serif" font-size="14" lengthAdjust="spacing" textLength="97" x="422.5" y="1087.6936">TaskController</text><rect fill="#E2E2F0" height="52.1358" rx="2.5" ry="2.5" style="stroke:#181818;stroke-width:0.5;" width="169" x="556" y="1065.7277"/><text fill="#000000" font-family="sans-serif" font-size="14" lengthAdjust="spacing" textLength="26" x="627.5" y="1087.6936">dto:</text><text fill="#000000" font-family="sans-serif" font-size="14" lengthAdjust="spacing" textLength="155" x="563" y="1106.7616">CreateSurveillanceDTO</text><rect fill="#E2E2F0" height="33.0679" rx="2.5" ry="2.5" style="stroke:#181818;stroke-width:0.5;" width="92" x="735" y="24.0679"/><text fill="#000000" font-family="sans-serif" font-size="14" lengthAdjust="spacing" textLength="78" x="742" y="46.0339">TaskService</text><rect fill="#E2E2F0" height="33.0679" rx="2.5" ry="2.5" style="stroke:#181818;stroke-width:0.5;" width="92" x="735" y="1065.7277"/><text fill="#000000" font-family="sans-serif" font-size="14" lengthAdjust="spacing" textLength="78" x="742" y="1087.6936">TaskService</text><rect fill="#E2E2F0" height="33.0679" rx="2.5" ry="2.5" style="stroke:#181818;stroke-width:0.5;" width="67" x="938.5" y="24.0679"/><text fill="#000000" font-family="sans-serif" font-size="14" lengthAdjust="spacing" textLength="53" x="945.5" y="46.0339">Mapper</text><rect fill="#E2E2F0" height="33.0679" rx="2.5" ry="2.5" style="stroke:#181818;stroke-width:0.5;" width="67" x="938.5" y="1065.7277"/><text fill="#000000" font-family="sans-serif" font-size="14" lengthAdjust="spacing" textLength="53" x="945.5" y="1087.6936">Mapper</text><rect fill="#E2E2F0" height="52.1358" rx="2.5" ry="2.5" style="stroke:#181818;stroke-width:0.5;" width="68" x="1064" y="1065.7277"/><text fill="#000000" font-family="sans-serif" font-size="14" lengthAdjust="spacing" textLength="54" x="1071" y="1087.6936">taskDto:</text><text fill="#000000" font-family="sans-serif" font-size="14" lengthAdjust="spacing" textLength="53" x="1071.5" y="1106.7616">TaskDto</text><rect fill="#E2E2F0" height="33.0679" rx="2.5" ry="2.5" style="stroke:#181818;stroke-width:0.5;" width="78" x="1142" y="24.0679"/><text fill="#000000" font-family="sans-serif" font-size="14" lengthAdjust="spacing" textLength="64" x="1149" y="46.0339">TaskRepo</text><rect fill="#E2E2F0" height="33.0679" rx="2.5" ry="2.5" style="stroke:#181818;stroke-width:0.5;" width="78" x="1142" y="1065.7277"/><text fill="#000000" font-family="sans-serif" font-size="14" lengthAdjust="spacing" textLength="64" x="1149" y="1087.6936">TaskRepo</text><rect fill="#E2E2F0" height="33.0679" rx="2.5" ry="2.5" style="stroke:#181818;stroke-width:0.5;" width="81" x="1230" y="24.0679"/><text fill="#000000" font-family="sans-serif" font-size="14" lengthAdjust="spacing" textLength="67" x="1237" y="46.0339">FloorRepo</text><rect fill="#E2E2F0" height="33.0679" rx="2.5" ry="2.5" style="stroke:#181818;stroke-width:0.5;" width="81" x="1230" y="1065.7277"/><text fill="#000000" font-family="sans-serif" font-size="14" lengthAdjust="spacing" textLength="67" x="1237" y="1087.6936">FloorRepo</text><rect fill="#E2E2F0" height="33.0679" rx="2.5" ry="2.5" style="stroke:#181818;stroke-width:0.5;" width="96" x="1321" y="24.0679"/><text fill="#000000" font-family="sans-serif" font-size="14" lengthAdjust="spacing" textLength="82" x="1328" y="46.0339">MapStorage</text><rect fill="#E2E2F0" height="33.0679" rx="2.5" ry="2.5" style="stroke:#181818;stroke-width:0.5;" width="96" x="1321" y="1065.7277"/><text fill="#000000" font-family="sans-serif" font-size="14" lengthAdjust="spacing" textLength="82" x="1328" y="1087.6936">MapStorage</text><rect fill="#FFFFFF" height="942.8859" style="stroke:#181818;stroke-width:1.0;" width="10" x="212" y="91.8419"/><rect fill="#FFFFFF" height="879.4738" style="stroke:#181818;stroke-width:1.0;" width="10" x="466" y="123.5479"/><rect fill="#FFFFFF" height="53.1358" style="stroke:#181818;stroke-width:1.0;" width="10" x="635.5" y="165.2539"/><rect fill="#FFFFFF" height="721.2199" style="stroke:#181818;stroke-width:1.0;" width="10" x="776" y="250.0957"/><rect fill="#FFFFFF" height="126.5479" style="stroke:#181818;stroke-width:1.0;" width="10" x="967" y="686.2377"/><rect fill="#FFFFFF" height="53.1358" style="stroke:#181818;stroke-width:1.0;" width="10" x="1093" y="727.9437"/><rect fill="#FFFFFF" height="95.118" style="stroke:#181818;stroke-width:1.0;" width="10" x="1176" y="844.4916"/><rect fill="#FFFFFF" height="170.512" style="stroke:#181818;stroke-width:1.0;" width="10" x="1265.5" y="281.8018"/><rect fill="#FFFFFF" height="170.512" style="stroke:#181818;stroke-width:1.0;" width="10" x="1364" y="484.0197"/><polygon fill="#181818" points="200,87.8419,210,91.8419,200,95.8419,204,91.8419" style="stroke:#181818;stroke-width:1.0;"/><line style="stroke:#181818;stroke-width:1.0;" x1="0" x2="206" y1="91.8419" y2="91.8419"/><text fill="#000000" font-family="sans-serif" font-size="13" font-weight="bold" lengthAdjust="spacing" textLength="7" x="7" y="86.0328">1</text><text fill="#000000" font-family="sans-serif" font-size="13" lengthAdjust="spacing" textLength="140" x="18" y="86.0328">POST /task/surveillance</text><polygon fill="#181818" points="454,119.5479,464,123.5479,454,127.5479,458,123.5479" style="stroke:#181818;stroke-width:1.0;"/><line style="stroke:#181818;stroke-width:1.0;" x1="222" x2="460" y1="123.5479" y2="123.5479"/><text fill="#000000" font-family="sans-serif" font-size="13" font-weight="bold" lengthAdjust="spacing" textLength="7" x="229" y="117.7389">2</text><text fill="#000000" font-family="sans-serif" font-size="13" lengthAdjust="spacing" textLength="214" x="240" y="117.7389">createSurveillanceTask(req,res,next)</text><polygon fill="#181818" points="544,151.2539,554,155.2539,544,159.2539,548,155.2539" style="stroke:#181818;stroke-width:1.0;"/><line style="stroke:#181818;stroke-width:1.0;" x1="476" x2="550" y1="155.2539" y2="155.2539"/><text fill="#000000" font-family="sans-serif" font-size="13" font-weight="bold" lengthAdjust="spacing" textLength="7" x="483" y="149.4449">3</text><text fill="#000000" font-family="sans-serif" font-size="13" lengthAdjust="spacing" textLength="45" x="494" y="149.4449">create()</text><rect fill="#E2E2F0" height="52.1358" rx="2.5" ry="2.5" style="stroke:#181818;stroke-width:0.5;" width="169" x="556" y="131.5479"/><text fill="#000000" font-family="sans-serif" font-size="14" lengthAdjust="spacing" textLength="26" x="627.5" y="153.5138">dto:</text><text fill="#000000" font-family="sans-serif" font-size="14" lengthAdjust="spacing" textLength="155" x="563" y="172.5817">CreateSurveillanceDTO</text><polygon fill="#181818" points="487,214.3897,477,218.3897,487,222.3897,483,218.3897" style="stroke:#181818;stroke-width:1.0;"/><line style="stroke:#181818;stroke-width:1.0;stroke-dasharray:2.0,2.0;" x1="481" x2="639.5" y1="218.3897" y2="218.3897"/><text fill="#000000" font-family="sans-serif" font-size="13" font-weight="bold" lengthAdjust="spacing" textLength="7" x="493" y="212.5807">4</text><text fill="#000000" font-family="sans-serif" font-size="13" lengthAdjust="spacing" textLength="21" x="504" y="212.5807">dto</text><polygon fill="#181818" points="764,246.0957,774,250.0957,764,254.0957,768,250.0957" style="stroke:#181818;stroke-width:1.0;"/><line style="stroke:#181818;stroke-width:1.0;" x1="476" x2="770" y1="250.0957" y2="250.0957"/><text fill="#000000" font-family="sans-serif" font-size="13" font-weight="bold" lengthAdjust="spacing" textLength="7" x="483" y="244.2867">5</text><text fill="#000000" font-family="sans-serif" font-size="13" lengthAdjust="spacing" textLength="164" x="494" y="244.2867">createSurveillanceTask(dto)</text><polygon fill="#181818" points="1253.5,277.8018,1263.5,281.8018,1253.5,285.8018,1257.5,281.8018" style="stroke:#181818;stroke-width:1.0;"/><line style="stroke:#181818;stroke-width:1.0;" x1="786" x2="1259.5" y1="281.8018" y2="281.8018"/><text fill="#000000" font-family="sans-serif" font-size="13" font-weight="bold" lengthAdjust="spacing" textLength="7" x="793" y="275.9927">6</text><text fill="#000000" font-family="sans-serif" font-size="13" lengthAdjust="spacing" textLength="336" x="804" y="275.9927">findByCodeNumber(dto.buildingCode,dto.floorNumber)</text><path d="M3,296.8018 L66,296.8018 L66,306.5078 L56,316.5078 L3,316.5078 L3,296.8018 " fill="#EEEEEE" style="stroke:#000000;stroke-width:1.5;"/><rect fill="none" height="752.926" style="stroke:#000000;stroke-width:1.5;" width="1434" x="3" y="296.8018"/><text fill="#000000" font-family="sans-serif" font-size="13" font-weight="bold" lengthAdjust="spacing" textLength="18" x="18" y="311.6988">alt</text><text fill="#000000" font-family="sans-serif" font-size="11" font-weight="bold" lengthAdjust="spacing" textLength="114" x="81" y="310.5607">[floor does not exist]</text><polygon fill="#181818" points="487,336.2138,477,340.2138,487,344.2138,483,340.2138" style="stroke:#181818;stroke-width:1.0;"/><line style="stroke:#181818;stroke-width:1.0;stroke-dasharray:2.0,2.0;" x1="481" x2="775" y1="340.2138" y2="340.2138"/><text fill="#000000" font-family="sans-serif" font-size="13" font-weight="bold" lengthAdjust="spacing" textLength="7" x="493" y="334.4048">7</text><text fill="#000000" font-family="sans-serif" font-size="13" lengthAdjust="spacing" textLength="30" x="504" y="334.4048">error</text><polygon fill="#181818" points="233,367.9198,223,371.9198,233,375.9198,229,371.9198" style="stroke:#181818;stroke-width:1.0;"/><line style="stroke:#181818;stroke-width:1.0;stroke-dasharray:2.0,2.0;" x1="227" x2="465" y1="371.9198" y2="371.9198"/><text fill="#000000" font-family="sans-serif" font-size="13" font-weight="bold" lengthAdjust="spacing" textLength="7" x="239" y="366.1108">8</text><text fill="#000000" font-family="sans-serif" font-size="13" lengthAdjust="spacing" textLength="79" x="250" y="366.1108">response 422</text><polygon fill="#181818" points="11,399.6258,1,403.6258,11,407.6258,7,403.6258" style="stroke:#181818;stroke-width:1.0;"/><line style="stroke:#181818;stroke-width:1.0;stroke-dasharray:2.0,2.0;" x1="5" x2="211" y1="403.6258" y2="403.6258"/><text fill="#000000" font-family="sans-serif" font-size="13" font-weight="bold" lengthAdjust="spacing" textLength="7" x="17" y="397.8168">9</text><text fill="#000000" font-family="sans-serif" font-size="13" lengthAdjust="spacing" textLength="168" x="28" y="397.8168">422: Unprocessable Content</text><line style="stroke:#000000;stroke-width:1.0;stroke-dasharray:2.0,2.0;" x1="3" x2="1437" y1="412.6258" y2="412.6258"/><text fill="#000000" font-family="sans-serif" font-size="11" font-weight="bold" lengthAdjust="spacing" textLength="69" x="8" y="424.3847">[floor found]</text><polygon fill="#181818" points="797,448.3137,787,452.3137,797,456.3137,793,452.3137" style="stroke:#181818;stroke-width:1.0;"/><line style="stroke:#181818;stroke-width:1.0;stroke-dasharray:2.0,2.0;" x1="791" x2="1269.5" y1="452.3137" y2="452.3137"/><text fill="#000000" font-family="sans-serif" font-size="13" font-weight="bold" lengthAdjust="spacing" textLength="14" x="803" y="446.5047">10</text><text fill="#000000" font-family="sans-serif" font-size="13" lengthAdjust="spacing" textLength="28" x="821" y="446.5047">floor</text><polygon fill="#181818" points="1352,480.0197,1362,484.0197,1352,488.0197,1356,484.0197" style="stroke:#181818;stroke-width:1.0;"/><line style="stroke:#181818;stroke-width:1.0;" x1="786" x2="1358" y1="484.0197" y2="484.0197"/><text fill="#000000" font-family="sans-serif" font-size="13" font-weight="bold" lengthAdjust="spacing" textLength="14" x="793" y="478.2107">11</text><text fill="#000000" font-family="sans-serif" font-size="13" lengthAdjust="spacing" textLength="56" x="811" y="478.2107">get(floor)</text><path d="M3,499.0197 L66,499.0197 L66,508.7258 L56,518.7258 L3,518.7258 L3,499.0197 " fill="#EEEEEE" style="stroke:#000000;stroke-width:1.5;"/><rect fill="none" height="543.708" style="stroke:#000000;stroke-width:1.5;" width="1424" x="3" y="499.0197"/><text fill="#000000" font-family="sans-serif" font-size="13" font-weight="bold" lengthAdjust="spacing" textLength="18" x="18" y="513.9168">alt</text><text fill="#000000" font-family="sans-serif" font-size="11" font-weight="bold" lengthAdjust="spacing" textLength="113" x="81" y="512.7786">[map does not exist]</text><polygon fill="#181818" points="487,538.4318,477,542.4318,487,546.4318,483,542.4318" style="stroke:#181818;stroke-width:1.0;"/><line style="stroke:#181818;stroke-width:1.0;stroke-dasharray:2.0,2.0;" x1="481" x2="775" y1="542.4318" y2="542.4318"/><text fill="#000000" font-family="sans-serif" font-size="13" font-weight="bold" lengthAdjust="spacing" textLength="14" x="493" y="536.6228">12</text><text fill="#000000" font-family="sans-serif" font-size="13" lengthAdjust="spacing" textLength="30" x="511" y="536.6228">error</text><polygon fill="#181818" points="233,570.1378,223,574.1378,233,578.1378,229,574.1378" style="stroke:#181818;stroke-width:1.0;"/><line style="stroke:#181818;stroke-width:1.0;stroke-dasharray:2.0,2.0;" x1="227" x2="465" y1="574.1378" y2="574.1378"/><text fill="#000000" font-family="sans-serif" font-size="13" font-weight="bold" lengthAdjust="spacing" textLength="14" x="239" y="568.3288">13</text><text fill="#000000" font-family="sans-serif" font-size="13" lengthAdjust="spacing" textLength="79" x="257" y="568.3288">response 422</text><polygon fill="#181818" points="11,601.8438,1,605.8438,11,609.8438,7,605.8438" style="stroke:#181818;stroke-width:1.0;"/><line style="stroke:#181818;stroke-width:1.0;stroke-dasharray:2.0,2.0;" x1="5" x2="211" y1="605.8438" y2="605.8438"/><text fill="#000000" font-family="sans-serif" font-size="13" font-weight="bold" lengthAdjust="spacing" textLength="14" x="17" y="600.0348">14</text><text fill="#000000" font-family="sans-serif" font-size="13" lengthAdjust="spacing" textLength="168" x="35" y="600.0348">422: Unprocessable Content</text><line style="stroke:#000000;stroke-width:1.0;stroke-dasharray:2.0,2.0;" x1="3" x2="1427" y1="614.8438" y2="614.8438"/><text fill="#000000" font-family="sans-serif" font-size="11" font-weight="bold" lengthAdjust="spacing" textLength="67" x="8" y="626.6027">[map exists]</text><polygon fill="#181818" points="797,650.5317,787,654.5317,797,658.5317,793,654.5317" style="stroke:#181818;stroke-width:1.0;"/><line style="stroke:#181818;stroke-width:1.0;stroke-dasharray:2.0,2.0;" x1="791" x2="1368" y1="654.5317" y2="654.5317"/><text fill="#000000" font-family="sans-serif" font-size="13" font-weight="bold" lengthAdjust="spacing" textLength="14" x="803" y="648.7227">15</text><text fill="#000000" font-family="sans-serif" font-size="13" lengthAdjust="spacing" textLength="27" x="821" y="648.7227">map</text><polygon fill="#181818" points="955,682.2377,965,686.2377,955,690.2377,959,686.2377" style="stroke:#181818;stroke-width:1.0;"/><line style="stroke:#181818;stroke-width:1.0;" x1="786" x2="961" y1="686.2377" y2="686.2377"/><text fill="#000000" font-family="sans-serif" font-size="13" font-weight="bold" lengthAdjust="spacing" textLength="14" x="793" y="680.4287">16</text><text fill="#000000" font-family="sans-serif" font-size="13" lengthAdjust="spacing" textLength="144" x="811" y="680.4287">toDto(dto,map.x,map.y)</text><polygon fill="#181818" points="1052,713.9437,1062,717.9437,1052,721.9437,1056,717.9437" style="stroke:#181818;stroke-width:1.0;"/><line style="stroke:#181818;stroke-width:1.0;" x1="977" x2="1058" y1="717.9437" y2="717.9437"/><text fill="#000000" font-family="sans-serif" font-size="13" font-weight="bold" lengthAdjust="spacing" textLength="14" x="984" y="712.1347">17</text><text fill="#000000" font-family="sans-serif" font-size="13" lengthAdjust="spacing" textLength="45" x="1002" y="712.1347">create()</text><rect fill="#E2E2F0" height="52.1358" rx="2.5" ry="2.5" style="stroke:#181818;stroke-width:0.5;" width="68" x="1064" y="694.2377"/><text fill="#000000" font-family="sans-serif" font-size="14" lengthAdjust="spacing" textLength="54" x="1071" y="716.2037">taskDto:</text><text fill="#000000" font-family="sans-serif" font-size="14" lengthAdjust="spacing" textLength="53" x="1071.5" y="735.2716">TaskDto</text><polygon fill="#181818" points="988,777.0796,978,781.0796,988,785.0796,984,781.0796" style="stroke:#181818;stroke-width:1.0;"/><line style="stroke:#181818;stroke-width:1.0;stroke-dasharray:2.0,2.0;" x1="982" x2="1097" y1="781.0796" y2="781.0796"/><text fill="#000000" font-family="sans-serif" font-size="13" font-weight="bold" lengthAdjust="spacing" textLength="14" x="994" y="775.2706">18</text><text fill="#000000" font-family="sans-serif" font-size="13" lengthAdjust="spacing" textLength="21" x="1012" y="775.2706">dto</text><polygon fill="#181818" points="797,808.7856,787,812.7856,797,816.7856,793,812.7856" style="stroke:#181818;stroke-width:1.0;"/><line style="stroke:#181818;stroke-width:1.0;stroke-dasharray:2.0,2.0;" x1="791" x2="971" y1="812.7856" y2="812.7856"/><text fill="#000000" font-family="sans-serif" font-size="13" font-weight="bold" lengthAdjust="spacing" textLength="14" x="803" y="806.9766">19</text><text fill="#000000" font-family="sans-serif" font-size="13" lengthAdjust="spacing" textLength="25" x="821" y="806.9766">task</text><polygon fill="#181818" points="1164,840.4916,1174,844.4916,1164,848.4916,1168,844.4916" style="stroke:#181818;stroke-width:1.0;"/><line style="stroke:#181818;stroke-width:1.0;" x1="786" x2="1170" y1="844.4916" y2="844.4916"/><text fill="#000000" font-family="sans-serif" font-size="13" font-weight="bold" lengthAdjust="spacing" textLength="14" x="793" y="838.6826">20</text><text fill="#000000" font-family="sans-serif" font-size="13" lengthAdjust="spacing" textLength="164" x="811" y="838.6826">createSurveillanceTask(dto)</text><polygon fill="#181818" points="1435,872.1976,1445,876.1976,1435,880.1976,1439,876.1976" style="stroke:#181818;stroke-width:1.0;"/><line style="stroke:#181818;stroke-width:1.0;" x1="1186" x2="1441" y1="876.1976" y2="876.1976"/><text fill="#000000" font-family="sans-serif" font-size="13" font-weight="bold" lengthAdjust="spacing" textLength="14" x="1193" y="870.3886">21</text><text fill="#000000" font-family="sans-serif" font-size="13" lengthAdjust="spacing" textLength="140" x="1211" y="870.3886">POST /task/surveillance</text><polygon fill="#181818" points="1197,903.9036,1187,907.9036,1197,911.9036,1193,907.9036" style="stroke:#181818;stroke-width:1.0;"/><line style="stroke:#181818;stroke-width:1.0;stroke-dasharray:2.0,2.0;" x1="1191" x2="1446" y1="907.9036" y2="907.9036"/><text fill="#000000" font-family="sans-serif" font-size="13" font-weight="bold" lengthAdjust="spacing" textLength="14" x="1203" y="902.0946">22</text><text fill="#000000" font-family="sans-serif" font-size="13" lengthAdjust="spacing" textLength="25" x="1221" y="902.0946">task</text><polygon fill="#181818" points="797,935.6097,787,939.6097,797,943.6097,793,939.6097" style="stroke:#181818;stroke-width:1.0;"/><line style="stroke:#181818;stroke-width:1.0;stroke-dasharray:2.0,2.0;" x1="791" x2="1180" y1="939.6097" y2="939.6097"/><text fill="#000000" font-family="sans-serif" font-size="13" font-weight="bold" lengthAdjust="spacing" textLength="14" x="803" y="933.8007">23</text><text fill="#000000" font-family="sans-serif" font-size="13" lengthAdjust="spacing" textLength="25" x="821" y="933.8007">task</text><polygon fill="#181818" points="487,967.3157,477,971.3157,487,975.3157,483,971.3157" style="stroke:#181818;stroke-width:1.0;"/><line style="stroke:#181818;stroke-width:1.0;stroke-dasharray:2.0,2.0;" x1="481" x2="780" y1="971.3157" y2="971.3157"/><text fill="#000000" font-family="sans-serif" font-size="13" font-weight="bold" lengthAdjust="spacing" textLength="14" x="493" y="965.5067">24</text><text fill="#000000" font-family="sans-serif" font-size="13" lengthAdjust="spacing" textLength="21" x="511" y="965.5067">dto</text><polygon fill="#181818" points="233,999.0217,223,1003.0217,233,1007.0217,229,1003.0217" style="stroke:#181818;stroke-width:1.0;"/><line style="stroke:#181818;stroke-width:1.0;stroke-dasharray:2.0,2.0;" x1="227" x2="470" y1="1003.0217" y2="1003.0217"/><text fill="#000000" font-family="sans-serif" font-size="13" font-weight="bold" lengthAdjust="spacing" textLength="14" x="239" y="997.2127">25</text><text fill="#000000" font-family="sans-serif" font-size="13" lengthAdjust="spacing" textLength="21" x="257" y="997.2127">200</text><polygon fill="#181818" points="11,1030.7277,1,1034.7277,11,1038.7277,7,1034.7277" style="stroke:#181818;stroke-width:1.0;"/><line style="stroke:#181818;stroke-width:1.0;stroke-dasharray:2.0,2.0;" x1="5" x2="216" y1="1034.7277" y2="1034.7277"/><text fill="#000000" font-family="sans-serif" font-size="13" font-weight="bold" lengthAdjust="spacing" textLength="14" x="17" y="1028.9187">26</text><text fill="#000000" font-family="sans-serif" font-size="13" lengthAdjust="spacing" textLength="42" x="35" y="1028.9187">200 OK</text><!--SRC=[fLR1Rk8m4BtdAqOzGGLjXVOKhNfOK2-hNLQ5FNLxCCc0egPsrdOG_VkTSO83JPpGhYLGYD-y6R_diH6bLR9ytQ2Eea9ecoLP8QI5gqTLMhm2OK2VJwo5UPahQRNASzGEaLYTduDIg-8_SgvHM5oLUezPdWkPu6AzT14qtsPTeTvdIPNKx9Dt1VqGHL7dUnN5-Pobw8LBkQwU7Cmkkh8yOb5DQteudtx8bT9-VdlyrQfZPPKMkwhG-ZcAdgRte6FujLojuPOBkZKd2u-0XaXijYT5I5AeXmOAO_qWXgGb5zSxqlXtej5C91xis0UUyJa3e6CuPif0UiFrjSyn6dUYFH_RqmLWccbJS126lKp7eiZZyAefi5saf-NjqPMPAOdPMqVysqoctzxcAiMVRfypyyscpF8qapj-FU4NBg8236ZJR8jEM6uh1AGA3KXb0G-PiPrWNt4ZAMgjT11SASSRZQ2q9meb3SANsImOyVHrEcKmOMBuBGkj4ZH6R784RcAKtPLXRkgLmbQLCWtoDqfFlQFktT36w9Unzh5kBkBSeHsva76m54zzRCaWa3oY8-HIXpxbrEST-q_dl7kyGhSm4yGTvMsiuvCrX3unRqZXsZvYYy4gEeQvwIRqy-RWljykSB6l51wyFih1X_pmoTPYTtV3a0KCSk9mhZWTY3ZHPv3T5UzLvzlY4jb3ajHoyuNsiVEq9OiEDQI_hrohtpz3_qtN6quR-tberKsk3wlarX1TqC5TXfxmkByWlVqykxkB0i7-HdPjxA2m_1wTbXaXdQly-GS0]--></g></svg>