<?xml version="1.0" encoding="us-ascii" standalone="no"?><svg xmlns="http://www.w3.org/2000/svg" xmlns:xlink="http://www.w3.org/1999/xlink" contentStyleType="text/css" height="1108px" preserveAspectRatio="none" style="width:1426px;height:1108px;background:#FFFFFF;" version="1.1" viewBox="0 0 1426 1108" width="1426px" zoomAndPan="magnify"><defs/><g><rect fill="#FFFFFF" height="930.0215" style="stroke:#181818;stroke-width:1.0;" width="10" x="208" y="90.5332"/><rect fill="#FFFFFF" height="867.4395" style="stroke:#181818;stroke-width:1.0;" width="10" x="458" y="121.8242"/><rect fill="#FFFFFF" height="52.2422" style="stroke:#181818;stroke-width:1.0;" width="10" x="624" y="163.1152"/><rect fill="#FFFFFF" height="711.3242" style="stroke:#181818;stroke-width:1.0;" width="10" x="762" y="246.6484"/><rect fill="#FFFFFF" height="124.8242" style="stroke:#181818;stroke-width:1.0;" width="10" x="946" y="676.6934"/><rect fill="#FFFFFF" height="52.2422" style="stroke:#181818;stroke-width:1.0;" width="10" x="1070.5" y="717.9844"/><rect fill="#FFFFFF" height="93.873" style="stroke:#181818;stroke-width:1.0;" width="10" x="1153.5" y="832.8086"/><rect fill="#FFFFFF" height="168.0859" style="stroke:#181818;stroke-width:1.0;" width="10" x="1243.5" y="277.9395"/><rect fill="#FFFFFF" height="168.0859" style="stroke:#181818;stroke-width:1.0;" width="10" x="1339.5" y="477.3164"/><rect fill="none" height="742.6152" style="stroke:#000000;stroke-width:1.5;" width="1407" x="3" y="292.9395"/><rect fill="none" height="536.2383" style="stroke:#000000;stroke-width:1.5;" width="1397" x="3" y="492.3164"/><line style="stroke:#181818;stroke-width:0.5;stroke-dasharray:5.0,5.0;" x1="213" x2="213" y1="57.2422" y2="1052.5547"/><line style="stroke:#181818;stroke-width:0.5;stroke-dasharray:5.0,5.0;" x1="462.5" x2="462.5" y1="57.2422" y2="1052.5547"/><line style="stroke:#181818;stroke-width:0.5;stroke-dasharray:5.0,5.0;" x1="629" x2="629" y1="170.9453" y2="1052.5547"/><line style="stroke:#181818;stroke-width:0.5;stroke-dasharray:5.0,5.0;" x1="767" x2="767" y1="57.2422" y2="1052.5547"/><line style="stroke:#181818;stroke-width:0.5;stroke-dasharray:5.0,5.0;" x1="951" x2="951" y1="57.2422" y2="1052.5547"/><line style="stroke:#181818;stroke-width:0.5;stroke-dasharray:5.0,5.0;" x1="1075" x2="1075" y1="725.8145" y2="1052.5547"/><line style="stroke:#181818;stroke-width:0.5;stroke-dasharray:5.0,5.0;" x1="1158" x2="1158" y1="57.2422" y2="1052.5547"/><line style="stroke:#181818;stroke-width:0.5;stroke-dasharray:5.0,5.0;" x1="1248" x2="1248" y1="57.2422" y2="1052.5547"/><line style="stroke:#181818;stroke-width:0.5;stroke-dasharray:5.0,5.0;" x1="1344" x2="1344" y1="57.2422" y2="1052.5547"/><rect fill="#E2E2F0" height="32.6211" rx="2.5" ry="2.5" style="stroke:#181818;stroke-width:0.5;" width="52" x="187" y="23.6211"/><text fill="#000000" font-family="sans-serif" font-size="14" lengthAdjust="spacing" textLength="38" x="194" y="45.7285">Route</text><rect fill="#E2E2F0" height="32.6211" rx="2.5" ry="2.5" style="stroke:#181818;stroke-width:0.5;" width="52" x="187" y="1051.5547"/><text fill="#000000" font-family="sans-serif" font-size="14" lengthAdjust="spacing" textLength="38" x="194" y="1073.6621">Route</text><rect fill="#E2E2F0" height="32.6211" rx="2.5" ry="2.5" style="stroke:#181818;stroke-width:0.5;" width="107" x="409.5" y="23.6211"/><text fill="#000000" font-family="sans-serif" font-size="14" lengthAdjust="spacing" textLength="93" x="416.5" y="45.7285">TaskController</text><rect fill="#E2E2F0" height="32.6211" rx="2.5" ry="2.5" style="stroke:#181818;stroke-width:0.5;" width="107" x="409.5" y="1051.5547"/><text fill="#000000" font-family="sans-serif" font-size="14" lengthAdjust="spacing" textLength="93" x="416.5" y="1073.6621">TaskController</text><rect fill="#E2E2F0" height="51.2422" rx="2.5" ry="2.5" style="stroke:#181818;stroke-width:0.5;" width="164" x="547" y="1051.5547"/><text fill="#000000" font-family="sans-serif" font-size="14" lengthAdjust="spacing" textLength="24" x="617" y="1073.6621">dto:</text><text fill="#000000" font-family="sans-serif" font-size="14" lengthAdjust="spacing" textLength="150" x="554" y="1092.2832">CreateSurveillanceDTO</text><rect fill="#E2E2F0" height="32.6211" rx="2.5" ry="2.5" style="stroke:#181818;stroke-width:0.5;" width="92" x="721" y="23.6211"/><text fill="#000000" font-family="sans-serif" font-size="14" lengthAdjust="spacing" textLength="78" x="728" y="45.7285">TaskService</text><rect fill="#E2E2F0" height="32.6211" rx="2.5" ry="2.5" style="stroke:#181818;stroke-width:0.5;" width="92" x="721" y="1051.5547"/><text fill="#000000" font-family="sans-serif" font-size="14" lengthAdjust="spacing" textLength="78" x="728" y="1073.6621">TaskService</text><rect fill="#E2E2F0" height="32.6211" rx="2.5" ry="2.5" style="stroke:#181818;stroke-width:0.5;" width="62" x="920" y="23.6211"/><text fill="#000000" font-family="sans-serif" font-size="14" lengthAdjust="spacing" textLength="48" x="927" y="45.7285">Mapper</text><rect fill="#E2E2F0" height="32.6211" rx="2.5" ry="2.5" style="stroke:#181818;stroke-width:0.5;" width="62" x="920" y="1051.5547"/><text fill="#000000" font-family="sans-serif" font-size="14" lengthAdjust="spacing" textLength="48" x="927" y="1073.6621">Mapper</text><rect fill="#E2E2F0" height="51.2422" rx="2.5" ry="2.5" style="stroke:#181818;stroke-width:0.5;" width="67" x="1042" y="1051.5547"/><text fill="#000000" font-family="sans-serif" font-size="14" lengthAdjust="spacing" textLength="52" x="1049.5" y="1073.6621">taskDto:</text><text fill="#000000" font-family="sans-serif" font-size="14" lengthAdjust="spacing" textLength="53" x="1049" y="1092.2832">TaskDto</text><rect fill="#E2E2F0" height="32.6211" rx="2.5" ry="2.5" style="stroke:#181818;stroke-width:0.5;" width="79" x="1119" y="23.6211"/><text fill="#000000" font-family="sans-serif" font-size="14" lengthAdjust="spacing" textLength="65" x="1126" y="45.7285">TaskRepo</text><rect fill="#E2E2F0" height="32.6211" rx="2.5" ry="2.5" style="stroke:#181818;stroke-width:0.5;" width="79" x="1119" y="1051.5547"/><text fill="#000000" font-family="sans-serif" font-size="14" lengthAdjust="spacing" textLength="65" x="1126" y="1073.6621">TaskRepo</text><rect fill="#E2E2F0" height="32.6211" rx="2.5" ry="2.5" style="stroke:#181818;stroke-width:0.5;" width="81" x="1208" y="23.6211"/><text fill="#000000" font-family="sans-serif" font-size="14" lengthAdjust="spacing" textLength="67" x="1215" y="45.7285">FloorRepo</text><rect fill="#E2E2F0" height="32.6211" rx="2.5" ry="2.5" style="stroke:#181818;stroke-width:0.5;" width="81" x="1208" y="1051.5547"/><text fill="#000000" font-family="sans-serif" font-size="14" lengthAdjust="spacing" textLength="67" x="1215" y="1073.6621">FloorRepo</text><rect fill="#E2E2F0" height="32.6211" rx="2.5" ry="2.5" style="stroke:#181818;stroke-width:0.5;" width="91" x="1299" y="23.6211"/><text fill="#000000" font-family="sans-serif" font-size="14" lengthAdjust="spacing" textLength="77" x="1306" y="45.7285">MapStorage</text><rect fill="#E2E2F0" height="32.6211" rx="2.5" ry="2.5" style="stroke:#181818;stroke-width:0.5;" width="91" x="1299" y="1051.5547"/><text fill="#000000" font-family="sans-serif" font-size="14" lengthAdjust="spacing" textLength="77" x="1306" y="1073.6621">MapStorage</text><rect fill="#FFFFFF" height="930.0215" style="stroke:#181818;stroke-width:1.0;" width="10" x="208" y="90.5332"/><rect fill="#FFFFFF" height="867.4395" style="stroke:#181818;stroke-width:1.0;" width="10" x="458" y="121.8242"/><rect fill="#FFFFFF" height="52.2422" style="stroke:#181818;stroke-width:1.0;" width="10" x="624" y="163.1152"/><rect fill="#FFFFFF" height="711.3242" style="stroke:#181818;stroke-width:1.0;" width="10" x="762" y="246.6484"/><rect fill="#FFFFFF" height="124.8242" style="stroke:#181818;stroke-width:1.0;" width="10" x="946" y="676.6934"/><rect fill="#FFFFFF" height="52.2422" style="stroke:#181818;stroke-width:1.0;" width="10" x="1070.5" y="717.9844"/><rect fill="#FFFFFF" height="93.873" style="stroke:#181818;stroke-width:1.0;" width="10" x="1153.5" y="832.8086"/><rect fill="#FFFFFF" height="168.0859" style="stroke:#181818;stroke-width:1.0;" width="10" x="1243.5" y="277.9395"/><rect fill="#FFFFFF" height="168.0859" style="stroke:#181818;stroke-width:1.0;" width="10" x="1339.5" y="477.3164"/><polygon fill="#181818" points="196,86.5332,206,90.5332,196,94.5332,200,90.5332" style="stroke:#181818;stroke-width:1.0;"/><line style="stroke:#181818;stroke-width:1.0;" x1="0" x2="202" y1="90.5332" y2="90.5332"/><text fill="#000000" font-family="sans-serif" font-size="13" font-weight="bold" lengthAdjust="spacing" textLength="7" x="7" y="85.2705">1</text><text fill="#000000" font-family="sans-serif" font-size="13" lengthAdjust="spacing" textLength="139" x="18" y="85.2705">POST /task/surveillance</text><polygon fill="#181818" points="446,117.8242,456,121.8242,446,125.8242,450,121.8242" style="stroke:#181818;stroke-width:1.0;"/><line style="stroke:#181818;stroke-width:1.0;" x1="218" x2="452" y1="121.8242" y2="121.8242"/><text fill="#000000" font-family="sans-serif" font-size="13" font-weight="bold" lengthAdjust="spacing" textLength="7" x="225" y="116.5615">2</text><text fill="#000000" font-family="sans-serif" font-size="13" lengthAdjust="spacing" textLength="210" x="236" y="116.5615">createSurveillanceTask(req,res,next)</text><polygon fill="#181818" points="535,149.1152,545,153.1152,535,157.1152,539,153.1152" style="stroke:#181818;stroke-width:1.0;"/><line style="stroke:#181818;stroke-width:1.0;" x1="468" x2="541" y1="153.1152" y2="153.1152"/><text fill="#000000" font-family="sans-serif" font-size="13" font-weight="bold" lengthAdjust="spacing" textLength="7" x="475" y="147.8525">3</text><text fill="#000000" font-family="sans-serif" font-size="13" lengthAdjust="spacing" textLength="44" x="486" y="147.8525">create()</text><rect fill="#E2E2F0" height="51.2422" rx="2.5" ry="2.5" style="stroke:#181818;stroke-width:0.5;" width="164" x="547" y="129.8242"/><text fill="#000000" font-family="sans-serif" font-size="14" lengthAdjust="spacing" textLength="24" x="617" y="151.9316">dto:</text><text fill="#000000" font-family="sans-serif" font-size="14" lengthAdjust="spacing" textLength="150" x="554" y="170.5527">CreateSurveillanceDTO</text><polygon fill="#181818" points="479,211.3574,469,215.3574,479,219.3574,475,215.3574" style="stroke:#181818;stroke-width:1.0;"/><line style="stroke:#181818;stroke-width:1.0;stroke-dasharray:2.0,2.0;" x1="473" x2="628" y1="215.3574" y2="215.3574"/><text fill="#000000" font-family="sans-serif" font-size="13" font-weight="bold" lengthAdjust="spacing" textLength="7" x="485" y="210.0947">4</text><text fill="#000000" font-family="sans-serif" font-size="13" lengthAdjust="spacing" textLength="18" x="496" y="210.0947">dto</text><polygon fill="#181818" points="750,242.6484,760,246.6484,750,250.6484,754,246.6484" style="stroke:#181818;stroke-width:1.0;"/><line style="stroke:#181818;stroke-width:1.0;" x1="468" x2="756" y1="246.6484" y2="246.6484"/><text fill="#000000" font-family="sans-serif" font-size="13" font-weight="bold" lengthAdjust="spacing" textLength="7" x="475" y="241.3857">5</text><text fill="#000000" font-family="sans-serif" font-size="13" lengthAdjust="spacing" textLength="159" x="486" y="241.3857">createSurveillanceTask(dto)</text><polygon fill="#181818" points="1231.5,273.9395,1241.5,277.9395,1231.5,281.9395,1235.5,277.9395" style="stroke:#181818;stroke-width:1.0;"/><line style="stroke:#181818;stroke-width:1.0;" x1="772" x2="1237.5" y1="277.9395" y2="277.9395"/><text fill="#000000" font-family="sans-serif" font-size="13" font-weight="bold" lengthAdjust="spacing" textLength="7" x="779" y="272.6768">6</text><text fill="#000000" font-family="sans-serif" font-size="13" lengthAdjust="spacing" textLength="310" x="790" y="272.6768">findByCodeNumber(dto.buildingCode,dto.floorNumber)</text><path d="M3,292.9395 L64,292.9395 L64,302.2305 L54,312.2305 L3,312.2305 L3,292.9395 " fill="#EEEEEE" style="stroke:#000000;stroke-width:1.5;"/><rect fill="none" height="742.6152" style="stroke:#000000;stroke-width:1.5;" width="1407" x="3" y="292.9395"/><text fill="#000000" font-family="sans-serif" font-size="13" font-weight="bold" lengthAdjust="spacing" textLength="16" x="18" y="307.9678">alt</text><text fill="#000000" font-family="sans-serif" font-size="11" font-weight="bold" lengthAdjust="spacing" textLength="116" x="79" y="306.8096">[floor does not exist]</text><polygon fill="#181818" points="479,331.5215,469,335.5215,479,339.5215,475,335.5215" style="stroke:#181818;stroke-width:1.0;"/><line style="stroke:#181818;stroke-width:1.0;stroke-dasharray:2.0,2.0;" x1="473" x2="761" y1="335.5215" y2="335.5215"/><text fill="#000000" font-family="sans-serif" font-size="13" font-weight="bold" lengthAdjust="spacing" textLength="7" x="485" y="330.2588">7</text><text fill="#000000" font-family="sans-serif" font-size="13" lengthAdjust="spacing" textLength="26" x="496" y="330.2588">error</text><polygon fill="#181818" points="229,362.8125,219,366.8125,229,370.8125,225,366.8125" style="stroke:#181818;stroke-width:1.0;"/><line style="stroke:#181818;stroke-width:1.0;stroke-dasharray:2.0,2.0;" x1="223" x2="457" y1="366.8125" y2="366.8125"/><text fill="#000000" font-family="sans-serif" font-size="13" font-weight="bold" lengthAdjust="spacing" textLength="7" x="235" y="361.5498">8</text><text fill="#000000" font-family="sans-serif" font-size="13" lengthAdjust="spacing" textLength="78" x="246" y="361.5498">response 422</text><polygon fill="#181818" points="11,394.1035,1,398.1035,11,402.1035,7,398.1035" style="stroke:#181818;stroke-width:1.0;"/><line style="stroke:#181818;stroke-width:1.0;stroke-dasharray:2.0,2.0;" x1="5" x2="207" y1="398.1035" y2="398.1035"/><text fill="#000000" font-family="sans-serif" font-size="13" font-weight="bold" lengthAdjust="spacing" textLength="7" x="17" y="392.8408">9</text><text fill="#000000" font-family="sans-serif" font-size="13" lengthAdjust="spacing" textLength="164" x="28" y="392.8408">422: Unprocessable Content</text><line style="stroke:#000000;stroke-width:1.0;stroke-dasharray:2.0,2.0;" x1="3" x2="1410" y1="407.1035" y2="407.1035"/><text fill="#000000" font-family="sans-serif" font-size="11" font-weight="bold" lengthAdjust="spacing" textLength="69" x="8" y="418.9736">[floor found]</text><polygon fill="#181818" points="783,442.0254,773,446.0254,783,450.0254,779,446.0254" style="stroke:#181818;stroke-width:1.0;"/><line style="stroke:#181818;stroke-width:1.0;stroke-dasharray:2.0,2.0;" x1="777" x2="1247.5" y1="446.0254" y2="446.0254"/><text fill="#000000" font-family="sans-serif" font-size="13" font-weight="bold" lengthAdjust="spacing" textLength="14" x="789" y="440.7627">10</text><text fill="#000000" font-family="sans-serif" font-size="13" lengthAdjust="spacing" textLength="24" x="807" y="440.7627">floor</text><polygon fill="#181818" points="1327.5,473.3164,1337.5,477.3164,1327.5,481.3164,1331.5,477.3164" style="stroke:#181818;stroke-width:1.0;"/><line style="stroke:#181818;stroke-width:1.0;" x1="772" x2="1333.5" y1="477.3164" y2="477.3164"/><text fill="#000000" font-family="sans-serif" font-size="13" font-weight="bold" lengthAdjust="spacing" textLength="14" x="779" y="472.0537">11</text><text fill="#000000" font-family="sans-serif" font-size="13" lengthAdjust="spacing" textLength="50" x="797" y="472.0537">get(floor)</text><path d="M3,492.3164 L64,492.3164 L64,501.6074 L54,511.6074 L3,511.6074 L3,492.3164 " fill="#EEEEEE" style="stroke:#000000;stroke-width:1.5;"/><rect fill="none" height="536.2383" style="stroke:#000000;stroke-width:1.5;" width="1397" x="3" y="492.3164"/><text fill="#000000" font-family="sans-serif" font-size="13" font-weight="bold" lengthAdjust="spacing" textLength="16" x="18" y="507.3447">alt</text><text fill="#000000" font-family="sans-serif" font-size="11" font-weight="bold" lengthAdjust="spacing" textLength="114" x="79" y="506.1865">[map does not exist]</text><polygon fill="#181818" points="479,530.8984,469,534.8984,479,538.8984,475,534.8984" style="stroke:#181818;stroke-width:1.0;"/><line style="stroke:#181818;stroke-width:1.0;stroke-dasharray:2.0,2.0;" x1="473" x2="761" y1="534.8984" y2="534.8984"/><text fill="#000000" font-family="sans-serif" font-size="13" font-weight="bold" lengthAdjust="spacing" textLength="14" x="485" y="529.6357">12</text><text fill="#000000" font-family="sans-serif" font-size="13" lengthAdjust="spacing" textLength="26" x="503" y="529.6357">error</text><polygon fill="#181818" points="229,562.1895,219,566.1895,229,570.1895,225,566.1895" style="stroke:#181818;stroke-width:1.0;"/><line style="stroke:#181818;stroke-width:1.0;stroke-dasharray:2.0,2.0;" x1="223" x2="457" y1="566.1895" y2="566.1895"/><text fill="#000000" font-family="sans-serif" font-size="13" font-weight="bold" lengthAdjust="spacing" textLength="14" x="235" y="560.9268">13</text><text fill="#000000" font-family="sans-serif" font-size="13" lengthAdjust="spacing" textLength="78" x="253" y="560.9268">response 422</text><polygon fill="#181818" points="11,593.4805,1,597.4805,11,601.4805,7,597.4805" style="stroke:#181818;stroke-width:1.0;"/><line style="stroke:#181818;stroke-width:1.0;stroke-dasharray:2.0,2.0;" x1="5" x2="207" y1="597.4805" y2="597.4805"/><text fill="#000000" font-family="sans-serif" font-size="13" font-weight="bold" lengthAdjust="spacing" textLength="14" x="17" y="592.2178">14</text><text fill="#000000" font-family="sans-serif" font-size="13" lengthAdjust="spacing" textLength="164" x="35" y="592.2178">422: Unprocessable Content</text><line style="stroke:#000000;stroke-width:1.0;stroke-dasharray:2.0,2.0;" x1="3" x2="1400" y1="606.4805" y2="606.4805"/><text fill="#000000" font-family="sans-serif" font-size="11" font-weight="bold" lengthAdjust="spacing" textLength="69" x="8" y="618.3506">[map exists]</text><polygon fill="#181818" points="783,641.4023,773,645.4023,783,649.4023,779,645.4023" style="stroke:#181818;stroke-width:1.0;"/><line style="stroke:#181818;stroke-width:1.0;stroke-dasharray:2.0,2.0;" x1="777" x2="1343.5" y1="645.4023" y2="645.4023"/><text fill="#000000" font-family="sans-serif" font-size="13" font-weight="bold" lengthAdjust="spacing" textLength="14" x="789" y="640.1396">15</text><text fill="#000000" font-family="sans-serif" font-size="13" lengthAdjust="spacing" textLength="25" x="807" y="640.1396">map</text><polygon fill="#181818" points="934,672.6934,944,676.6934,934,680.6934,938,676.6934" style="stroke:#181818;stroke-width:1.0;"/><line style="stroke:#181818;stroke-width:1.0;" x1="772" x2="940" y1="676.6934" y2="676.6934"/><text fill="#000000" font-family="sans-serif" font-size="13" font-weight="bold" lengthAdjust="spacing" textLength="14" x="779" y="671.4307">16</text><text fill="#000000" font-family="sans-serif" font-size="13" lengthAdjust="spacing" textLength="137" x="797" y="671.4307">toDto(dto,map.x,map.y)</text><polygon fill="#181818" points="1030,703.9844,1040,707.9844,1030,711.9844,1034,707.9844" style="stroke:#181818;stroke-width:1.0;"/><line style="stroke:#181818;stroke-width:1.0;" x1="956" x2="1036" y1="707.9844" y2="707.9844"/><text fill="#000000" font-family="sans-serif" font-size="13" font-weight="bold" lengthAdjust="spacing" textLength="14" x="963" y="702.7217">17</text><text fill="#000000" font-family="sans-serif" font-size="13" lengthAdjust="spacing" textLength="44" x="981" y="702.7217">create()</text><rect fill="#E2E2F0" height="51.2422" rx="2.5" ry="2.5" style="stroke:#181818;stroke-width:0.5;" width="67" x="1042" y="684.6934"/><text fill="#000000" font-family="sans-serif" font-size="14" lengthAdjust="spacing" textLength="52" x="1049.5" y="706.8008">taskDto:</text><text fill="#000000" font-family="sans-serif" font-size="14" lengthAdjust="spacing" textLength="53" x="1049" y="725.4219">TaskDto</text><polygon fill="#181818" points="967,766.2266,957,770.2266,967,774.2266,963,770.2266" style="stroke:#181818;stroke-width:1.0;"/><line style="stroke:#181818;stroke-width:1.0;stroke-dasharray:2.0,2.0;" x1="961" x2="1074.5" y1="770.2266" y2="770.2266"/><text fill="#000000" font-family="sans-serif" font-size="13" font-weight="bold" lengthAdjust="spacing" textLength="14" x="973" y="764.9639">18</text><text fill="#000000" font-family="sans-serif" font-size="13" lengthAdjust="spacing" textLength="18" x="991" y="764.9639">dto</text><polygon fill="#181818" points="783,797.5176,773,801.5176,783,805.5176,779,801.5176" style="stroke:#181818;stroke-width:1.0;"/><line style="stroke:#181818;stroke-width:1.0;stroke-dasharray:2.0,2.0;" x1="777" x2="950" y1="801.5176" y2="801.5176"/><text fill="#000000" font-family="sans-serif" font-size="13" font-weight="bold" lengthAdjust="spacing" textLength="14" x="789" y="796.2549">19</text><text fill="#000000" font-family="sans-serif" font-size="13" lengthAdjust="spacing" textLength="25" x="807" y="796.2549">task</text><polygon fill="#181818" points="1141.5,828.8086,1151.5,832.8086,1141.5,836.8086,1145.5,832.8086" style="stroke:#181818;stroke-width:1.0;"/><line style="stroke:#181818;stroke-width:1.0;" x1="772" x2="1147.5" y1="832.8086" y2="832.8086"/><text fill="#000000" font-family="sans-serif" font-size="13" font-weight="bold" lengthAdjust="spacing" textLength="14" x="779" y="827.5459">20</text><text fill="#000000" font-family="sans-serif" font-size="13" lengthAdjust="spacing" textLength="159" x="797" y="827.5459">createSurveillanceTask(dto)</text><polygon fill="#181818" points="1408,860.0996,1418,864.0996,1408,868.0996,1412,864.0996" style="stroke:#181818;stroke-width:1.0;"/><line style="stroke:#181818;stroke-width:1.0;" x1="1163.5" x2="1414" y1="864.0996" y2="864.0996"/><text fill="#000000" font-family="sans-serif" font-size="13" font-weight="bold" lengthAdjust="spacing" textLength="14" x="1170.5" y="858.8369">21</text><text fill="#000000" font-family="sans-serif" font-size="13" lengthAdjust="spacing" textLength="139" x="1188.5" y="858.8369">POST /task/surveillance</text><polygon fill="#181818" points="1174.5,891.3906,1164.5,895.3906,1174.5,899.3906,1170.5,895.3906" style="stroke:#181818;stroke-width:1.0;"/><line style="stroke:#181818;stroke-width:1.0;stroke-dasharray:2.0,2.0;" x1="1168.5" x2="1419" y1="895.3906" y2="895.3906"/><text fill="#000000" font-family="sans-serif" font-size="13" font-weight="bold" lengthAdjust="spacing" textLength="14" x="1180.5" y="890.1279">22</text><text fill="#000000" font-family="sans-serif" font-size="13" lengthAdjust="spacing" textLength="25" x="1198.5" y="890.1279">task</text><polygon fill="#181818" points="783,922.6816,773,926.6816,783,930.6816,779,926.6816" style="stroke:#181818;stroke-width:1.0;"/><line style="stroke:#181818;stroke-width:1.0;stroke-dasharray:2.0,2.0;" x1="777" x2="1157.5" y1="926.6816" y2="926.6816"/><text fill="#000000" font-family="sans-serif" font-size="13" font-weight="bold" lengthAdjust="spacing" textLength="14" x="789" y="921.4189">23</text><text fill="#000000" font-family="sans-serif" font-size="13" lengthAdjust="spacing" textLength="25" x="807" y="921.4189">task</text><polygon fill="#181818" points="479,953.9727,469,957.9727,479,961.9727,475,957.9727" style="stroke:#181818;stroke-width:1.0;"/><line style="stroke:#181818;stroke-width:1.0;stroke-dasharray:2.0,2.0;" x1="473" x2="766" y1="957.9727" y2="957.9727"/><text fill="#000000" font-family="sans-serif" font-size="13" font-weight="bold" lengthAdjust="spacing" textLength="14" x="485" y="952.71">24</text><text fill="#000000" font-family="sans-serif" font-size="13" lengthAdjust="spacing" textLength="18" x="503" y="952.71">dto</text><polygon fill="#181818" points="229,985.2637,219,989.2637,229,993.2637,225,989.2637" style="stroke:#181818;stroke-width:1.0;"/><line style="stroke:#181818;stroke-width:1.0;stroke-dasharray:2.0,2.0;" x1="223" x2="462" y1="989.2637" y2="989.2637"/><text fill="#000000" font-family="sans-serif" font-size="13" font-weight="bold" lengthAdjust="spacing" textLength="14" x="235" y="984.001">25</text><text fill="#000000" font-family="sans-serif" font-size="13" lengthAdjust="spacing" textLength="21" x="253" y="984.001">200</text><polygon fill="#181818" points="11,1016.5547,1,1020.5547,11,1024.5547,7,1020.5547" style="stroke:#181818;stroke-width:1.0;"/><line style="stroke:#181818;stroke-width:1.0;stroke-dasharray:2.0,2.0;" x1="5" x2="212" y1="1020.5547" y2="1020.5547"/><text fill="#000000" font-family="sans-serif" font-size="13" font-weight="bold" lengthAdjust="spacing" textLength="14" x="17" y="1015.292">26</text><text fill="#000000" font-family="sans-serif" font-size="13" lengthAdjust="spacing" textLength="44" x="35" y="1015.292">200 OK</text><!--SRC=[fLR1Rk8m4BtdAqOzGGLjXVOKhNfOK2-hNLQ5FNLxCCc0egPsrdOG_VkTSO83JPpGhYLGYD-y6R_diH6bLR9ytQ2Eea9ecoLP8QI5gqTLMhm2OK2VJwo5UPahQRNASzGEaLYTduDIg-8_SgvHM5oLUezPdWkPu6AzT14qtsPTeTvdIPNKx9Dt1VqGHL7dUnN5-Pobw8LBkQwU7Cmkkh8yOb5DQteudtx8bT9-VdlyrQfZPPKMkwhG-ZcAdgRte6FujLojuPOBkZKd2u-0XaXijYT5I5AeXmOAO_qWXgGb5zSxqlXtej5C91xis0UUyJa3e6CuPif0UiFrjSyn6dUYFH_RqmLWccbJS126lKp7eiZZyAefi5saf-NjqPMPAOdPMqVysqoctzxcAiMVRfypyyscpF8qapj-FU4NBg8236ZJR8jEM6uh1AGA3KXb0G-PiPrWNt4ZAMgjT11SASSRZQ2q9meb3SANsImOyVHrEcKmOMBuBGkj4ZH6R784RcAKtPLXRkgLmbQLCWtoDqfFlQFktT36w9Unzh5kBkBSeHsva76m54zzRCaWa3oY8-HIXpxbrEST-q_dl7kyGhSm4yGTvMsiuvCrX3unRqZXsZvYYy4gEeQvwIRqy-RWljykSB6l51wyFih1X_pmoTPYTtV3a0KCSk9mhZWTY3ZHPv3T5UzLvzlY4jb3ajHoyuNsiVEq9OiEDQI_hrohtpz3_qtN6quR-tberKsk3wlarX1TqC5TXfxmkByWlVqykxkB0i7-HdPjxA2m_1wTbXaXdQly-GS0]--></g></svg>