<?xml version="1.0" encoding="us-ascii" standalone="no"?><svg xmlns="http://www.w3.org/2000/svg" xmlns:xlink="http://www.w3.org/1999/xlink" contentStyleType="text/css" height="832.3px" preserveAspectRatio="none" style="width:946px;height:832px;background:#FFFFFF;" version="1.1" viewBox="0 0 946 832" width="946.4px" zoomAndPan="magnify"><defs/><g><rect fill="#FFFFFF" height="686.4566" style="stroke:#181818;stroke-width:0.6999999999999998;" width="7" x="58.8" y="65.5348"/><rect fill="#FFFFFF" height="275.1861" style="stroke:#181818;stroke-width:0.6999999999999998;" width="7" x="233.1" y="81.8385"/><rect fill="#FFFFFF" height="373.0631" style="stroke:#181818;stroke-width:0.6999999999999998;" width="7" x="233.1" y="378.9283"/><rect fill="#FFFFFF" height="231.3787" style="stroke:#181818;stroke-width:0.6999999999999998;" width="7" x="327.6" y="103.7422"/><rect fill="#FFFFFF" height="329.2557" style="stroke:#181818;stroke-width:0.6999999999999998;" width="7" x="327.6" y="400.832"/><rect fill="#FFFFFF" height="113.7186" style="stroke:#181818;stroke-width:0.6999999999999998;" width="7" x="422.1" y="125.6459"/><rect fill="#FFFFFF" height="285.4482" style="stroke:#181818;stroke-width:0.6999999999999998;" width="7" x="422.1" y="422.7357"/><rect fill="#FFFFFF" height="69.9111" style="stroke:#181818;stroke-width:0.6999999999999998;" width="7" x="621.6" y="147.5496"/><rect fill="#FFFFFF" height="43.8074" style="stroke:#181818;stroke-width:0.6999999999999998;" width="7" x="621.6" y="463.0432"/><rect fill="#FFFFFF" height="70.6111" style="stroke:#181818;stroke-width:0.6999999999999998;" width="7" x="621.6" y="530.1543"/><rect fill="#FFFFFF" height="24.0037" style="stroke:#181818;stroke-width:0.6999999999999998;" width="7" x="786.1" y="171.5533"/><rect fill="#FFFFFF" height="21.9037" style="stroke:#181818;stroke-width:0.6999999999999998;" width="7" x="786.1" y="484.9469"/><rect fill="none" height="512.627" style="stroke:#000000;stroke-width:1.0499999999999998;" width="934.85" x="7" y="249.8645"/><rect fill="none" height="146.326" style="stroke:#000000;stroke-width:1.0499999999999998;" width="411.6" x="397.25" y="433.2357"/><rect fill="none" height="146.326" style="stroke:#000000;stroke-width:1.0499999999999998;" width="439.95" x="14" y="611.2654"/><line style="stroke:#181818;stroke-width:0.3499999999999999;stroke-dasharray:5.0,5.0;" x1="62.3" x2="62.3" y1="58.5348" y2="774.3914"/><line style="stroke:#181818;stroke-width:0.3499999999999999;stroke-dasharray:5.0,5.0;" x1="236.6" x2="236.6" y1="58.5348" y2="774.3914"/><line style="stroke:#181818;stroke-width:0.3499999999999999;stroke-dasharray:5.0,5.0;" x1="331.1" x2="331.1" y1="58.5348" y2="774.3914"/><line style="stroke:#181818;stroke-width:0.3499999999999999;stroke-dasharray:5.0,5.0;" x1="425.25" x2="425.25" y1="58.5348" y2="774.3914"/><line style="stroke:#181818;stroke-width:0.3499999999999999;stroke-dasharray:5.0,5.0;" x1="625.1" x2="625.1" y1="58.5348" y2="774.3914"/><line style="stroke:#181818;stroke-width:0.3499999999999999;stroke-dasharray:5.0,5.0;" x1="789.25" x2="789.25" y1="58.5348" y2="774.3914"/><text fill="#000000" font-family="sans-serif" font-size="9.8" lengthAdjust="spacing" textLength="78.4" x="21" y="56.0752">Campus Manager</text><ellipse cx="62.3" cy="9.45" fill="#E2E2F0" rx="5.6" ry="5.6" style="stroke:#181818;stroke-width:0.3499999999999999;"/><path d="M62.3,15.05 L62.3,33.95 M53.2,20.65 L71.4,20.65 M62.3,33.95 L53.2,44.45 M62.3,33.95 L71.4,44.45 " fill="none" style="stroke:#181818;stroke-width:0.3499999999999999;"/><text fill="#000000" font-family="sans-serif" font-size="9.8" lengthAdjust="spacing" textLength="78.4" x="21" y="784.2666">Campus Manager</text><ellipse cx="62.3" cy="792.6762" fill="#E2E2F0" rx="5.6" ry="5.6" style="stroke:#181818;stroke-width:0.3499999999999999;"/><path d="M62.3,798.2762 L62.3,817.1762 M53.2,803.8762 L71.4,803.8762 M62.3,817.1762 L53.2,827.6762 M62.3,817.1762 L71.4,827.6762 " fill="none" style="stroke:#181818;stroke-width:0.3499999999999999;"/><rect fill="#E2E2F0" height="22.8348" rx="1.75" ry="1.75" style="stroke:#181818;stroke-width:0.3499999999999999;" width="88.2" x="192.5" y="35"/><text fill="#000000" font-family="sans-serif" font-size="9.8" lengthAdjust="spacing" textLength="78.4" x="197.4" y="50.4752">HTML + CSS + JS</text><rect fill="#E2E2F0" height="22.8348" rx="1.75" ry="1.75" style="stroke:#181818;stroke-width:0.3499999999999999;" width="88.2" x="192.5" y="773.6914"/><text fill="#000000" font-family="sans-serif" font-size="9.8" lengthAdjust="spacing" textLength="78.4" x="197.4" y="789.1666">HTML + CSS + JS</text><rect fill="#E2E2F0" height="22.8348" rx="1.75" ry="1.75" style="stroke:#181818;stroke-width:0.3499999999999999;" width="53.2" x="304.5" y="35"/><text fill="#000000" font-family="sans-serif" font-size="9.8" lengthAdjust="spacing" textLength="43.4" x="309.4" y="50.4752">Controller</text><rect fill="#E2E2F0" height="22.8348" rx="1.75" ry="1.75" style="stroke:#181818;stroke-width:0.3499999999999999;" width="53.2" x="304.5" y="773.6914"/><text fill="#000000" font-family="sans-serif" font-size="9.8" lengthAdjust="spacing" textLength="43.4" x="309.4" y="789.1666">Controller</text><rect fill="#E2E2F0" height="22.8348" rx="1.75" ry="1.75" style="stroke:#181818;stroke-width:0.3499999999999999;" width="42.7" x="404.25" y="35"/><text fill="#000000" font-family="sans-serif" font-size="9.8" lengthAdjust="spacing" textLength="32.9" x="409.15" y="50.4752">Service</text><rect fill="#E2E2F0" height="22.8348" rx="1.75" ry="1.75" style="stroke:#181818;stroke-width:0.3499999999999999;" width="42.7" x="404.25" y="773.6914"/><text fill="#000000" font-family="sans-serif" font-size="9.8" lengthAdjust="spacing" textLength="32.9" x="409.15" y="789.1666">Service</text><rect fill="#E2E2F0" height="22.8348" rx="1.75" ry="1.75" style="stroke:#181818;stroke-width:0.3499999999999999;" width="64.4" x="592.9" y="35"/><text fill="#000000" font-family="sans-serif" font-size="9.8" lengthAdjust="spacing" textLength="54.6" x="597.8" y="50.4752">HTTP Driver</text><rect fill="#E2E2F0" height="22.8348" rx="1.75" ry="1.75" style="stroke:#181818;stroke-width:0.3499999999999999;" width="64.4" x="592.9" y="773.6914"/><text fill="#000000" font-family="sans-serif" font-size="9.8" lengthAdjust="spacing" textLength="54.6" x="597.8" y="789.1666">HTTP Driver</text><rect fill="#E2E2F0" height="22.8348" rx="1.75" ry="1.75" style="stroke:#181818;stroke-width:0.3499999999999999;" width="24.5" x="777.35" y="35"/><text fill="#000000" font-family="sans-serif" font-size="9.8" lengthAdjust="spacing" textLength="14.7" x="782.25" y="50.4752">MD</text><rect fill="#E2E2F0" height="22.8348" rx="1.75" ry="1.75" style="stroke:#181818;stroke-width:0.3499999999999999;" width="24.5" x="777.35" y="773.6914"/><text fill="#000000" font-family="sans-serif" font-size="9.8" lengthAdjust="spacing" textLength="14.7" x="782.25" y="789.1666">MD</text><rect fill="#FFFFFF" height="686.4566" style="stroke:#181818;stroke-width:0.6999999999999998;" width="7" x="58.8" y="65.5348"/><rect fill="#FFFFFF" height="275.1861" style="stroke:#181818;stroke-width:0.6999999999999998;" width="7" x="233.1" y="81.8385"/><rect fill="#FFFFFF" height="373.0631" style="stroke:#181818;stroke-width:0.6999999999999998;" width="7" x="233.1" y="378.9283"/><rect fill="#FFFFFF" height="231.3787" style="stroke:#181818;stroke-width:0.6999999999999998;" width="7" x="327.6" y="103.7422"/><rect fill="#FFFFFF" height="329.2557" style="stroke:#181818;stroke-width:0.6999999999999998;" width="7" x="327.6" y="400.832"/><rect fill="#FFFFFF" height="113.7186" style="stroke:#181818;stroke-width:0.6999999999999998;" width="7" x="422.1" y="125.6459"/><rect fill="#FFFFFF" height="285.4482" style="stroke:#181818;stroke-width:0.6999999999999998;" width="7" x="422.1" y="422.7357"/><rect fill="#FFFFFF" height="69.9111" style="stroke:#181818;stroke-width:0.6999999999999998;" width="7" x="621.6" y="147.5496"/><rect fill="#FFFFFF" height="43.8074" style="stroke:#181818;stroke-width:0.6999999999999998;" width="7" x="621.6" y="463.0432"/><rect fill="#FFFFFF" height="70.6111" style="stroke:#181818;stroke-width:0.6999999999999998;" width="7" x="621.6" y="530.1543"/><rect fill="#FFFFFF" height="24.0037" style="stroke:#181818;stroke-width:0.6999999999999998;" width="7" x="786.1" y="171.5533"/><rect fill="#FFFFFF" height="21.9037" style="stroke:#181818;stroke-width:0.6999999999999998;" width="7" x="786.1" y="484.9469"/><polygon fill="#181818" points="224.7,79.0385,231.7,81.8385,224.7,84.6385,227.5,81.8385" style="stroke:#181818;stroke-width:0.6999999999999998;"/><line style="stroke:#181818;stroke-width:0.6999999999999998;" x1="65.8" x2="228.9" y1="81.8385" y2="81.8385"/><text fill="#000000" font-family="sans-serif" font-size="9.1" font-weight="bold" lengthAdjust="spacing" textLength="4.9" x="70.7" y="78.1546">1</text><text fill="#000000" font-family="sans-serif" font-size="9.1" lengthAdjust="spacing" textLength="87.5" x="78.4" y="78.1546">wants to list buildings</text><polygon fill="#181818" points="319.2,100.9422,326.2,103.7422,319.2,106.5422,322,103.7422" style="stroke:#181818;stroke-width:0.6999999999999998;"/><line style="stroke:#181818;stroke-width:0.6999999999999998;" x1="240.1" x2="323.4" y1="103.7422" y2="103.7422"/><text fill="#000000" font-family="sans-serif" font-size="9.1" font-weight="bold" lengthAdjust="spacing" textLength="4.9" x="245" y="100.0583">2</text><text fill="#000000" font-family="sans-serif" font-size="9.1" lengthAdjust="spacing" textLength="39.2" x="252.7" y="100.0583">ngOnInit()</text><polygon fill="#181818" points="413.7,122.8459,420.7,125.6459,413.7,128.4459,416.5,125.6459" style="stroke:#181818;stroke-width:0.6999999999999998;"/><line style="stroke:#181818;stroke-width:0.6999999999999998;" x1="334.6" x2="417.9" y1="125.6459" y2="125.6459"/><text fill="#000000" font-family="sans-serif" font-size="9.1" font-weight="bold" lengthAdjust="spacing" textLength="4.9" x="339.5" y="121.962">3</text><text fill="#000000" font-family="sans-serif" font-size="9.1" lengthAdjust="spacing" textLength="55.3" x="347.2" y="121.962">getBuildings()</text><polygon fill="#181818" points="613.2,144.7496,620.2,147.5496,613.2,150.3496,616,147.5496" style="stroke:#181818;stroke-width:0.6999999999999998;"/><line style="stroke:#181818;stroke-width:0.6999999999999998;" x1="429.1" x2="617.4" y1="147.5496" y2="147.5496"/><text fill="#000000" font-family="sans-serif" font-size="9.1" font-weight="bold" lengthAdjust="spacing" textLength="4.9" x="434" y="143.8657">4</text><text fill="#000000" font-family="sans-serif" font-size="9.1" lengthAdjust="spacing" textLength="99.4" x="441.7" y="143.8657">get({baseURL}/buildings)</text><polygon fill="#181818" points="777.7,168.7533,784.7,171.5533,777.7,174.3533,780.5,171.5533" style="stroke:#181818;stroke-width:0.6999999999999998;"/><line style="stroke:#181818;stroke-width:0.6999999999999998;" x1="628.6" x2="781.9" y1="171.5533" y2="171.5533"/><text fill="#000000" font-family="sans-serif" font-size="9.1" font-weight="bold" lengthAdjust="spacing" textLength="4.9" x="633.5" y="167.8694">5</text><text fill="#000000" font-family="sans-serif" font-size="9.1" lengthAdjust="spacing" textLength="59.5" x="641.2" y="167.8694">GET /buildings</text><path d="M796.6,156.6496 L796.6,175.5496 L915.6,175.5496 L915.6,163.6496 L908.6,156.6496 L796.6,156.6496 " fill="#FEFFDD" style="stroke:#181818;stroke-width:0.3499999999999999;"/><path d="M908.6,156.6496 L908.6,163.6496 L915.6,163.6496 L908.6,156.6496 " fill="#FEFFDD" style="stroke:#181818;stroke-width:0.3499999999999999;"/><text fill="#000000" font-family="sans-serif" font-size="9.1" lengthAdjust="spacing" textLength="104.3" x="800.8" y="169.9694">see us170 documentation</text><polygon fill="#181818" points="636.3,192.757,629.3,195.557,636.3,198.357,633.5,195.557" style="stroke:#181818;stroke-width:0.6999999999999998;"/><line style="stroke:#181818;stroke-width:0.6999999999999998;stroke-dasharray:2.0,2.0;" x1="632.1" x2="788.9" y1="195.557" y2="195.557"/><text fill="#000000" font-family="sans-serif" font-size="9.1" font-weight="bold" lengthAdjust="spacing" textLength="4.9" x="640.5" y="191.8731">6</text><text fill="#000000" font-family="sans-serif" font-size="9.1" lengthAdjust="spacing" textLength="14.7" x="648.2" y="191.8731">200</text><polygon fill="#181818" points="436.8,214.6607,429.8,217.4607,436.8,220.2607,434,217.4607" style="stroke:#181818;stroke-width:0.6999999999999998;"/><line style="stroke:#181818;stroke-width:0.6999999999999998;stroke-dasharray:2.0,2.0;" x1="432.6" x2="624.4" y1="217.4607" y2="217.4607"/><text fill="#000000" font-family="sans-serif" font-size="9.1" font-weight="bold" lengthAdjust="spacing" textLength="4.9" x="441" y="213.7769">7</text><text fill="#000000" font-family="sans-serif" font-size="9.1" lengthAdjust="spacing" textLength="42.7" x="448.7" y="213.7769">observable</text><polygon fill="#181818" points="342.3,236.5645,335.3,239.3645,342.3,242.1645,339.5,239.3645" style="stroke:#181818;stroke-width:0.6999999999999998;"/><line style="stroke:#181818;stroke-width:0.6999999999999998;stroke-dasharray:2.0,2.0;" x1="338.1" x2="424.9" y1="239.3645" y2="239.3645"/><text fill="#000000" font-family="sans-serif" font-size="9.1" font-weight="bold" lengthAdjust="spacing" textLength="4.9" x="346.5" y="235.6806">8</text><text fill="#000000" font-family="sans-serif" font-size="9.1" lengthAdjust="spacing" textLength="35.7" x="354.2" y="235.6806">buildings</text><path d="M7,249.8645 L49.7,249.8645 L49.7,256.3682 L42.7,263.3682 L7,263.3682 L7,249.8645 " fill="#EEEEEE" style="stroke:#000000;stroke-width:1.0499999999999998;"/><rect fill="none" height="512.627" style="stroke:#000000;stroke-width:1.0499999999999998;" width="934.85" x="7" y="249.8645"/><text fill="#000000" font-family="sans-serif" font-size="9.1" font-weight="bold" lengthAdjust="spacing" textLength="11.2" x="17.5" y="260.3843">alt</text><text fill="#000000" font-family="sans-serif" font-size="7.7" font-weight="bold" lengthAdjust="spacing" textLength="67.9" x="60.2" y="259.5735">[buildings empty]</text><polygon fill="#181818" points="247.8,276.8719,240.8,279.6719,247.8,282.4719,245,279.6719" style="stroke:#181818;stroke-width:0.6999999999999998;"/><line style="stroke:#181818;stroke-width:0.6999999999999998;stroke-dasharray:2.0,2.0;" x1="243.6" x2="326.9" y1="279.6719" y2="279.6719"/><text fill="#000000" font-family="sans-serif" font-size="9.1" font-weight="bold" lengthAdjust="spacing" textLength="4.9" x="252" y="275.988">9</text><text fill="#000000" font-family="sans-serif" font-size="9.1" lengthAdjust="spacing" textLength="58.1" x="259.7" y="275.988">error message</text><polygon fill="#181818" points="73.5,298.7756,66.5,301.5756,73.5,304.3756,70.7,301.5756" style="stroke:#181818;stroke-width:0.6999999999999998;"/><line style="stroke:#181818;stroke-width:0.6999999999999998;stroke-dasharray:2.0,2.0;" x1="69.3" x2="232.4" y1="301.5756" y2="301.5756"/><text fill="#000000" font-family="sans-serif" font-size="9.1" font-weight="bold" lengthAdjust="spacing" textLength="9.8" x="77.7" y="297.8917">10</text><text fill="#000000" font-family="sans-serif" font-size="9.1" lengthAdjust="spacing" textLength="86.8" x="90.3" y="297.8917">shows error message</text><line style="stroke:#000000;stroke-width:0.6999999999999998;stroke-dasharray:2.0,2.0;" x1="7" x2="941.85" y1="307.8756" y2="307.8756"/><text fill="#000000" font-family="sans-serif" font-size="7.7" font-weight="bold" lengthAdjust="spacing" textLength="71.4" x="10.5" y="316.1847">[building(s) found]</text><polygon fill="#181818" points="247.8,332.3209,240.8,335.1209,247.8,337.9209,245,335.1209" style="stroke:#181818;stroke-width:0.6999999999999998;"/><line style="stroke:#181818;stroke-width:0.6999999999999998;stroke-dasharray:2.0,2.0;" x1="243.6" x2="330.4" y1="335.1209" y2="335.1209"/><text fill="#000000" font-family="sans-serif" font-size="9.1" font-weight="bold" lengthAdjust="spacing" textLength="9.8" x="252" y="331.437">11</text><text fill="#000000" font-family="sans-serif" font-size="9.1" lengthAdjust="spacing" textLength="35.7" x="264.6" y="331.437">buildings</text><polygon fill="#181818" points="73.5,354.2246,66.5,357.0246,73.5,359.8246,70.7,357.0246" style="stroke:#181818;stroke-width:0.6999999999999998;"/><line style="stroke:#181818;stroke-width:0.6999999999999998;stroke-dasharray:2.0,2.0;" x1="69.3" x2="235.9" y1="357.0246" y2="357.0246"/><text fill="#000000" font-family="sans-serif" font-size="9.1" font-weight="bold" lengthAdjust="spacing" textLength="9.8" x="77.7" y="353.3407">12</text><text fill="#000000" font-family="sans-serif" font-size="9.1" lengthAdjust="spacing" textLength="64.4" x="90.3" y="353.3407">shows buildings</text><polygon fill="#181818" points="224.7,376.1283,231.7,378.9283,224.7,381.7283,227.5,378.9283" style="stroke:#181818;stroke-width:0.6999999999999998;"/><line style="stroke:#181818;stroke-width:0.6999999999999998;" x1="65.8" x2="228.9" y1="378.9283" y2="378.9283"/><text fill="#000000" font-family="sans-serif" font-size="9.1" font-weight="bold" lengthAdjust="spacing" textLength="9.8" x="70.7" y="375.2444">13</text><text fill="#000000" font-family="sans-serif" font-size="9.1" lengthAdjust="spacing" textLength="141.4" x="83.3" y="375.2444">chooses building and provides data</text><polygon fill="#181818" points="319.2,398.032,326.2,400.832,319.2,403.632,322,400.832" style="stroke:#181818;stroke-width:0.6999999999999998;"/><line style="stroke:#181818;stroke-width:0.6999999999999998;" x1="240.1" x2="323.4" y1="400.832" y2="400.832"/><text fill="#000000" font-family="sans-serif" font-size="9.1" font-weight="bold" lengthAdjust="spacing" textLength="9.8" x="245" y="397.1481">14</text><text fill="#000000" font-family="sans-serif" font-size="9.1" lengthAdjust="spacing" textLength="49.7" x="257.6" y="397.1481">buildingData</text><polygon fill="#181818" points="413.7,419.9357,420.7,422.7357,413.7,425.5357,416.5,422.7357" style="stroke:#181818;stroke-width:0.6999999999999998;"/><line style="stroke:#181818;stroke-width:0.6999999999999998;" x1="334.6" x2="417.9" y1="422.7357" y2="422.7357"/><text fill="#000000" font-family="sans-serif" font-size="9.1" font-weight="bold" lengthAdjust="spacing" textLength="9.8" x="339.5" y="419.0519">15</text><text fill="#000000" font-family="sans-serif" font-size="9.1" lengthAdjust="spacing" textLength="52.5" x="352.1" y="419.0519">editBuilding()</text><path d="M397.25,433.2357 L439.95,433.2357 L439.95,439.7395 L432.95,446.7395 L397.25,446.7395 L397.25,433.2357 " fill="#EEEEEE" style="stroke:#000000;stroke-width:1.0499999999999998;"/><rect fill="none" height="146.326" style="stroke:#000000;stroke-width:1.0499999999999998;" width="411.6" x="397.25" y="433.2357"/><text fill="#000000" font-family="sans-serif" font-size="9.1" font-weight="bold" lengthAdjust="spacing" textLength="11.2" x="407.75" y="443.7556">alt</text><text fill="#000000" font-family="sans-serif" font-size="7.7" font-weight="bold" lengthAdjust="spacing" textLength="38.5" x="450.45" y="442.9448">[override]</text><path d="M812.35,436.7357 L812.35,455.6357 L931.35,455.6357 L931.35,443.7357 L924.35,436.7357 L812.35,436.7357 " fill="#FEFFDD" style="stroke:#181818;stroke-width:0.3499999999999999;"/><path d="M924.35,436.7357 L924.35,443.7357 L931.35,443.7357 L924.35,436.7357 " fill="#FEFFDD" style="stroke:#181818;stroke-width:0.3499999999999999;"/><text fill="#000000" font-family="sans-serif" font-size="9.1" lengthAdjust="spacing" textLength="104.3" x="816.55" y="450.0556">see us160 documentation</text><polygon fill="#181818" points="613.2,460.2432,620.2,463.0432,613.2,465.8432,616,463.0432" style="stroke:#181818;stroke-width:0.6999999999999998;"/><line style="stroke:#181818;stroke-width:0.6999999999999998;" x1="429.1" x2="617.4" y1="463.0432" y2="463.0432"/><text fill="#000000" font-family="sans-serif" font-size="9.1" font-weight="bold" lengthAdjust="spacing" textLength="9.8" x="434" y="459.3593">16</text><text fill="#000000" font-family="sans-serif" font-size="9.1" lengthAdjust="spacing" textLength="166.6" x="446.6" y="459.3593">patch({baseURL}/buildings/{buildingCode}</text><polygon fill="#181818" points="777.7,482.1469,784.7,484.9469,777.7,487.7469,780.5,484.9469" style="stroke:#181818;stroke-width:0.6999999999999998;"/><line style="stroke:#181818;stroke-width:0.6999999999999998;" x1="628.6" x2="781.9" y1="484.9469" y2="484.9469"/><text fill="#000000" font-family="sans-serif" font-size="9.1" font-weight="bold" lengthAdjust="spacing" textLength="9.8" x="633.5" y="481.263">17</text><text fill="#000000" font-family="sans-serif" font-size="9.1" lengthAdjust="spacing" textLength="131.6" x="646.1" y="481.263">PATCH /buildings/{buildingCode}</text><polygon fill="#181818" points="632.8,504.0506,625.8,506.8506,632.8,509.6506,630,506.8506" style="stroke:#181818;stroke-width:0.6999999999999998;"/><line style="stroke:#181818;stroke-width:0.6999999999999998;stroke-dasharray:2.0,2.0;" x1="628.6" x2="788.9" y1="506.8506" y2="506.8506"/><text fill="#000000" font-family="sans-serif" font-size="9.1" font-weight="bold" lengthAdjust="spacing" textLength="9.8" x="637" y="503.1667">18</text><text fill="#000000" font-family="sans-serif" font-size="9.1" lengthAdjust="spacing" textLength="47.6" x="649.6" y="503.1667">status code</text><line style="stroke:#000000;stroke-width:0.6999999999999998;stroke-dasharray:2.0,2.0;" x1="397.25" x2="808.85" y1="513.1506" y2="513.1506"/><polygon fill="#181818" points="613.2,527.3543,620.2,530.1543,613.2,532.9543,616,530.1543" style="stroke:#181818;stroke-width:0.6999999999999998;"/><line style="stroke:#181818;stroke-width:0.6999999999999998;" x1="429.1" x2="617.4" y1="530.1543" y2="530.1543"/><text fill="#000000" font-family="sans-serif" font-size="9.1" font-weight="bold" lengthAdjust="spacing" textLength="9.8" x="434" y="526.4704">19</text><text fill="#000000" font-family="sans-serif" font-size="9.1" lengthAdjust="spacing" textLength="156.8" x="446.6" y="526.4704">put({baseURL}/buildings/{buildingCode}</text><polygon fill="#181818" points="781.2,549.258,788.2,552.058,781.2,554.858,784,552.058" style="stroke:#181818;stroke-width:0.6999999999999998;"/><line style="stroke:#181818;stroke-width:0.6999999999999998;" x1="628.6" x2="785.4" y1="552.058" y2="552.058"/><text fill="#000000" font-family="sans-serif" font-size="9.1" font-weight="bold" lengthAdjust="spacing" textLength="9.8" x="633.5" y="548.3741">20</text><text fill="#000000" font-family="sans-serif" font-size="9.1" lengthAdjust="spacing" textLength="119" x="646.1" y="548.3741">PUT /buildings/{buildingCode}</text><polygon fill="#181818" points="636.3,571.1617,629.3,573.9617,636.3,576.7617,633.5,573.9617" style="stroke:#181818;stroke-width:0.6999999999999998;"/><line style="stroke:#181818;stroke-width:0.6999999999999998;stroke-dasharray:2.0,2.0;" x1="632.1" x2="788.9" y1="573.9617" y2="573.9617"/><text fill="#000000" font-family="sans-serif" font-size="9.1" font-weight="bold" lengthAdjust="spacing" textLength="9.8" x="640.5" y="570.2778">21</text><text fill="#000000" font-family="sans-serif" font-size="9.1" lengthAdjust="spacing" textLength="47.6" x="653.1" y="570.2778">status code</text><polygon fill="#181818" points="436.8,597.9654,429.8,600.7654,436.8,603.5654,434,600.7654" style="stroke:#181818;stroke-width:0.6999999999999998;"/><line style="stroke:#181818;stroke-width:0.6999999999999998;stroke-dasharray:2.0,2.0;" x1="432.6" x2="624.4" y1="600.7654" y2="600.7654"/><text fill="#000000" font-family="sans-serif" font-size="9.1" font-weight="bold" lengthAdjust="spacing" textLength="9.8" x="441" y="597.0815">22</text><text fill="#000000" font-family="sans-serif" font-size="9.1" lengthAdjust="spacing" textLength="42.7" x="453.6" y="597.0815">observable</text><path d="M14,611.2654 L56.7,611.2654 L56.7,617.7691 L49.7,624.7691 L14,624.7691 L14,611.2654 " fill="#EEEEEE" style="stroke:#000000;stroke-width:1.0499999999999998;"/><rect fill="none" height="146.326" style="stroke:#000000;stroke-width:1.0499999999999998;" width="439.95" x="14" y="611.2654"/><text fill="#000000" font-family="sans-serif" font-size="9.1" font-weight="bold" lengthAdjust="spacing" textLength="11.2" x="24.5" y="621.7853">alt</text><text fill="#000000" font-family="sans-serif" font-size="7.7" font-weight="bold" lengthAdjust="spacing" textLength="51.1" x="67.2" y="620.9745">[status==200]</text><polygon fill="#181818" points="342.3,638.2729,335.3,641.0729,342.3,643.8729,339.5,641.0729" style="stroke:#181818;stroke-width:0.6999999999999998;"/><line style="stroke:#181818;stroke-width:0.6999999999999998;stroke-dasharray:2.0,2.0;" x1="338.1" x2="421.4" y1="641.0729" y2="641.0729"/><text fill="#000000" font-family="sans-serif" font-size="9.1" font-weight="bold" lengthAdjust="spacing" textLength="9.8" x="346.5" y="637.389">23</text><text fill="#000000" font-family="sans-serif" font-size="9.1" lengthAdjust="spacing" textLength="30.8" x="359.1" y="637.389">building</text><polygon fill="#181818" points="247.8,660.1766,240.8,662.9766,247.8,665.7766,245,662.9766" style="stroke:#181818;stroke-width:0.6999999999999998;"/><line style="stroke:#181818;stroke-width:0.6999999999999998;stroke-dasharray:2.0,2.0;" x1="243.6" x2="326.9" y1="662.9766" y2="662.9766"/><text fill="#000000" font-family="sans-serif" font-size="9.1" font-weight="bold" lengthAdjust="spacing" textLength="9.8" x="252" y="659.2927">24</text><text fill="#000000" font-family="sans-serif" font-size="9.1" lengthAdjust="spacing" textLength="30.8" x="264.6" y="659.2927">building</text><polygon fill="#181818" points="73.5,682.0803,66.5,684.8803,73.5,687.6803,70.7,684.8803" style="stroke:#181818;stroke-width:0.6999999999999998;"/><line style="stroke:#181818;stroke-width:0.6999999999999998;stroke-dasharray:2.0,2.0;" x1="69.3" x2="232.4" y1="684.8803" y2="684.8803"/><text fill="#000000" font-family="sans-serif" font-size="9.1" font-weight="bold" lengthAdjust="spacing" textLength="9.8" x="77.7" y="681.1964">25</text><text fill="#000000" font-family="sans-serif" font-size="9.1" lengthAdjust="spacing" textLength="59.5" x="90.3" y="681.1964">shows building</text><line style="stroke:#000000;stroke-width:0.6999999999999998;stroke-dasharray:2.0,2.0;" x1="14" x2="453.95" y1="691.1803" y2="691.1803"/><polygon fill="#181818" points="342.3,705.384,335.3,708.184,342.3,710.984,339.5,708.184" style="stroke:#181818;stroke-width:0.6999999999999998;"/><line style="stroke:#181818;stroke-width:0.6999999999999998;stroke-dasharray:2.0,2.0;" x1="338.1" x2="424.9" y1="708.184" y2="708.184"/><text fill="#000000" font-family="sans-serif" font-size="9.1" font-weight="bold" lengthAdjust="spacing" textLength="9.8" x="346.5" y="704.5001">26</text><text fill="#000000" font-family="sans-serif" font-size="9.1" lengthAdjust="spacing" textLength="58.1" x="359.1" y="704.5001">error message</text><polygon fill="#181818" points="247.8,727.2877,240.8,730.0877,247.8,732.8877,245,730.0877" style="stroke:#181818;stroke-width:0.6999999999999998;"/><line style="stroke:#181818;stroke-width:0.6999999999999998;stroke-dasharray:2.0,2.0;" x1="243.6" x2="330.4" y1="730.0877" y2="730.0877"/><text fill="#000000" font-family="sans-serif" font-size="9.1" font-weight="bold" lengthAdjust="spacing" textLength="9.8" x="252" y="726.4038">27</text><text fill="#000000" font-family="sans-serif" font-size="9.1" lengthAdjust="spacing" textLength="58.1" x="264.6" y="726.4038">error message</text><polygon fill="#181818" points="70,749.1914,63,751.9914,70,754.7914,67.2,751.9914" style="stroke:#181818;stroke-width:0.6999999999999998;"/><line style="stroke:#181818;stroke-width:0.6999999999999998;stroke-dasharray:2.0,2.0;" x1="65.8" x2="235.9" y1="751.9914" y2="751.9914"/><text fill="#000000" font-family="sans-serif" font-size="9.1" font-weight="bold" lengthAdjust="spacing" textLength="9.8" x="74.2" y="748.3075">28</text><text fill="#000000" font-family="sans-serif" font-size="9.1" lengthAdjust="spacing" textLength="86.8" x="86.8" y="748.3075">shows error message</text><!--SRC=[lLRRYjim47ttLmnvIYXBqZwqKDY5rYdTbWrTckm7A9Pg2sp9IB93MVRVEvOJnuxaIvQbWiJ1ddCqCvfp758OAOfiprGGaCX81REGP7cXOKC4YPcQ0T5GQ7oS4sLun7CY3CpkTvi7U0VXTelVFxSsgkJiq8qAfJ1AfkcH9Z8gxGPicIfvnEnJNKRE9hj7M2jU7l69CVb5o6PjdsJKfizBOfZD5ZzmSsTJWizmm5WDHaBAjO5zmLFAHQm3mDN0RFfmN1Q815NAI23YN-A7u6Q-Q28QdAqAMijY48i58JHcvkjfmnQyGr6L3XUhGYD9LNFDCd_U4ysUVZ-yB9iA5WwiuRJD0i-oZCYSKUJz_cq7osv3saj8P58yJWp6QbRrzlsd5L0P5HaJXXWkXRyaF95BCjpmvbpHXzNAYQ1i25ydtZHMxZLE3zcdR8Z7smRRs_FfklMJj3KcmBBS_1tQn7T-zHISPv0fXUhAcDOeAoUwdZUChWONMvt8W-w1i5Ip9hcvNi0VMGWQ3EtjF-1M0SuCU_CPemayp1rLTLKP9L9gTgO58YZaIfQSubrA3775rg7p2FN4jMwZX-NgIfPHtcXsxf4O3eT4JrAOPx_-V3FXwZed9afyobu-dtw6ah8NBzMurXszFtxPXVTmtJPZkkxNk4Q7m5T993sDcgRvAMgk135YdtbX_cUJdtQlQF5m-zog1Prarn-7xFfwQvro82UHrFdVtlgiVi26Wr4lRI8dsMXlj7TmF8aDM_URlmkkzkL-kZuZRjsl_Ysrvmcl_m00]--></g></svg>