<?xml version="1.0" encoding="us-ascii" standalone="no"?><svg xmlns="http://www.w3.org/2000/svg" xmlns:xlink="http://www.w3.org/1999/xlink" contentStyleType="text/css" height="456px" preserveAspectRatio="none" style="width:256px;height:456px;background:#FFFFFF;" version="1.1" viewBox="0 0 256 456" width="256px" zoomAndPan="magnify"><defs/><g><rect fill="#FFFFFF" height="299.5898" style="stroke:#181818;stroke-width:1.0;" width="10" x="163" y="90.5332"/><rect fill="none" height="277.5898" style="stroke:#000000;stroke-width:1.5;" width="246" x="3" y="105.5332"/><rect fill="none" height="165.0859" style="stroke:#000000;stroke-width:1.5;" width="236" x="3" y="211.0371"/><rect fill="none" height="98.5039" style="stroke:#000000;stroke-width:1.5;" width="226" x="3" y="270.6191"/><line style="stroke:#181818;stroke-width:0.5;stroke-dasharray:5.0,5.0;" x1="168" x2="168" y1="57.2422" y2="400.123"/><rect fill="#E2E2F0" height="51.2422" rx="2.5" ry="2.5" style="stroke:#181818;stroke-width:0.5;" width="102" x="117" y="5"/><text fill="#000000" font-family="sans-serif" font-size="14" lengthAdjust="spacing" textLength="60" x="138" y="27.1074">&#171;system&#187;</text><text fill="#000000" font-family="sans-serif" font-size="14" lengthAdjust="spacing" textLength="84" x="128" y="45.7285">RobDroneGo</text><rect fill="#E2E2F0" height="51.2422" rx="2.5" ry="2.5" style="stroke:#181818;stroke-width:0.5;" width="102" x="117" y="399.123"/><text fill="#000000" font-family="sans-serif" font-size="14" lengthAdjust="spacing" textLength="60" x="138" y="421.2305">&#171;system&#187;</text><text fill="#000000" font-family="sans-serif" font-size="14" lengthAdjust="spacing" textLength="84" x="128" y="439.8516">RobDroneGo</text><rect fill="#FFFFFF" height="299.5898" style="stroke:#181818;stroke-width:1.0;" width="10" x="163" y="90.5332"/><polygon fill="#181818" points="151,86.5332,161,90.5332,151,94.5332,155,90.5332" style="stroke:#181818;stroke-width:1.0;"/><line style="stroke:#181818;stroke-width:1.0;" x1="0" x2="157" y1="90.5332" y2="90.5332"/><text fill="#000000" font-family="sans-serif" font-size="13" font-weight="bold" lengthAdjust="spacing" textLength="7" x="7" y="85.2705">1</text><text fill="#000000" font-family="sans-serif" font-size="13" lengthAdjust="spacing" textLength="95" x="18" y="85.2705">GET /task/tasks</text><path d="M3,105.5332 L64,105.5332 L64,114.8242 L54,124.8242 L3,124.8242 L3,105.5332 " fill="#EEEEEE" style="stroke:#000000;stroke-width:1.5;"/><rect fill="none" height="277.5898" style="stroke:#000000;stroke-width:1.5;" width="246" x="3" y="105.5332"/><text fill="#000000" font-family="sans-serif" font-size="13" font-weight="bold" lengthAdjust="spacing" textLength="16" x="18" y="120.5615">alt</text><text fill="#000000" font-family="sans-serif" font-size="11" font-weight="bold" lengthAdjust="spacing" textLength="103" x="79" y="119.4033">[task(s) not found]</text><polygon fill="#181818" points="11,144.1152,1,148.1152,11,152.1152,7,148.1152" style="stroke:#181818;stroke-width:1.0;"/><line style="stroke:#181818;stroke-width:1.0;stroke-dasharray:2.0,2.0;" x1="5" x2="162" y1="148.1152" y2="148.1152"/><text fill="#000000" font-family="sans-serif" font-size="13" font-weight="bold" lengthAdjust="spacing" textLength="7" x="17" y="142.8525">2</text><text fill="#000000" font-family="sans-serif" font-size="13" lengthAdjust="spacing" textLength="89" x="28" y="142.8525">404: Not Found</text><line style="stroke:#000000;stroke-width:1.0;stroke-dasharray:2.0,2.0;" x1="3" x2="249" y1="157.1152" y2="157.1152"/><text fill="#000000" font-family="sans-serif" font-size="11" font-weight="bold" lengthAdjust="spacing" textLength="82" x="8" y="168.9854">[task(s) found]</text><polygon fill="#181818" points="11,192.0371,1,196.0371,11,200.0371,7,196.0371" style="stroke:#181818;stroke-width:1.0;"/><line style="stroke:#181818;stroke-width:1.0;stroke-dasharray:2.0,2.0;" x1="5" x2="162" y1="196.0371" y2="196.0371"/><text fill="#000000" font-family="sans-serif" font-size="13" font-weight="bold" lengthAdjust="spacing" textLength="7" x="17" y="190.7744">3</text><text fill="#000000" font-family="sans-serif" font-size="13" lengthAdjust="spacing" textLength="126" x="28" y="190.7744">200: "OK" Successful</text><path d="M3,211.0371 L64,211.0371 L64,220.3281 L54,230.3281 L3,230.3281 L3,211.0371 " fill="#EEEEEE" style="stroke:#000000;stroke-width:1.5;"/><rect fill="none" height="165.0859" style="stroke:#000000;stroke-width:1.5;" width="236" x="3" y="211.0371"/><text fill="#000000" font-family="sans-serif" font-size="13" font-weight="bold" lengthAdjust="spacing" textLength="16" x="18" y="226.0654">alt</text><text fill="#000000" font-family="sans-serif" font-size="11" font-weight="bold" lengthAdjust="spacing" textLength="76" x="79" y="224.9072">[selects task]</text><polygon fill="#181818" points="151,249.6191,161,253.6191,151,257.6191,155,253.6191" style="stroke:#181818;stroke-width:1.0;"/><line style="stroke:#181818;stroke-width:1.0;" x1="0" x2="157" y1="253.6191" y2="253.6191"/><text fill="#000000" font-family="sans-serif" font-size="13" font-weight="bold" lengthAdjust="spacing" textLength="7" x="7" y="248.3564">4</text><text fill="#000000" font-family="sans-serif" font-size="13" lengthAdjust="spacing" textLength="98" x="18" y="248.3564">PATCH /task/{id}</text><line style="stroke:#000000;stroke-width:1.0;stroke-dasharray:2.0,2.0;" x1="3" x2="239" y1="262.6191" y2="262.6191"/><path d="M3,270.6191 L64,270.6191 L64,279.9102 L54,289.9102 L3,289.9102 L3,270.6191 " fill="#EEEEEE" style="stroke:#000000;stroke-width:1.5;"/><rect fill="none" height="98.5039" style="stroke:#000000;stroke-width:1.5;" width="226" x="3" y="270.6191"/><text fill="#000000" font-family="sans-serif" font-size="13" font-weight="bold" lengthAdjust="spacing" textLength="16" x="18" y="285.6475">alt</text><text fill="#000000" font-family="sans-serif" font-size="11" font-weight="bold" lengthAdjust="spacing" textLength="88" x="79" y="284.4893">[task not found]</text><polygon fill="#181818" points="11,309.2012,1,313.2012,11,317.2012,7,313.2012" style="stroke:#181818;stroke-width:1.0;"/><line style="stroke:#181818;stroke-width:1.0;stroke-dasharray:2.0,2.0;" x1="5" x2="162" y1="313.2012" y2="313.2012"/><text fill="#000000" font-family="sans-serif" font-size="13" font-weight="bold" lengthAdjust="spacing" textLength="7" x="17" y="307.9385">5</text><text fill="#000000" font-family="sans-serif" font-size="13" lengthAdjust="spacing" textLength="89" x="28" y="307.9385">404: Not Found</text><line style="stroke:#000000;stroke-width:1.0;stroke-dasharray:2.0,2.0;" x1="3" x2="229" y1="322.2012" y2="322.2012"/><text fill="#000000" font-family="sans-serif" font-size="11" font-weight="bold" lengthAdjust="spacing" textLength="160" x="8" y="334.0713">[task approved successfully]</text><polygon fill="#181818" points="11,357.123,1,361.123,11,365.123,7,361.123" style="stroke:#181818;stroke-width:1.0;"/><line style="stroke:#181818;stroke-width:1.0;stroke-dasharray:2.0,2.0;" x1="5" x2="162" y1="361.123" y2="361.123"/><text fill="#000000" font-family="sans-serif" font-size="13" font-weight="bold" lengthAdjust="spacing" textLength="7" x="17" y="355.8604">6</text><text fill="#000000" font-family="sans-serif" font-size="13" lengthAdjust="spacing" textLength="126" x="28" y="355.8604">200: "OK" Successful</text><!--SRC=[XP5FQyCm3CNl-HGYf_OG5afF8GJ6_dGmQCVMMtTH7HN2N3j4Sg6KVVVPPZ4Bh9iFjk4zFUbdenDht75FGvRrE4YdkXwDG5xNV6QXOzEy6tYr-_l16bhP7931ArcsAvfmgM3ri8KRGVw8crTGINT2eUW3lr0B16t6Sp1Mu62TQQCIrgukYc252fRbieArTpmc1sccL7orS56M5UIRvnpUd5B4V70w-K9x9arAE2Ob8OQC62-tsxkdRv1BrtucLvXWKZBY_CBoFy-42R3l1tkY5ZYDhS_Nqlw4ZBa_Uuplvy-M9b_o1G00]--></g></svg>