<?xml version="1.0" encoding="us-ascii" standalone="no"?><svg xmlns="http://www.w3.org/2000/svg" xmlns:xlink="http://www.w3.org/1999/xlink" contentStyleType="text/css" height="396px" preserveAspectRatio="none" style="width:385px;height:396px;background:#FFFFFF;" version="1.1" viewBox="0 0 385 396" width="385px" zoomAndPan="magnify"><defs/><g><rect fill="#FFFFFF" height="194.218" style="stroke:#181818;stroke-width:1.0;" width="10" x="65.5" y="94.0679"/><rect fill="#FFFFFF" height="107.0999" style="stroke:#181818;stroke-width:1.0;" width="10" x="311.5" y="117.7739"/><rect fill="#FFFFFF" height="31.706" style="stroke:#181818;stroke-width:1.0;" width="10" x="311.5" y="256.5799"/><rect fill="none" height="163.512" style="stroke:#000000;stroke-width:1.5;" width="368" x="10" y="132.7739"/><line style="stroke:#181818;stroke-width:0.5;stroke-dasharray:5.0,5.0;" x1="70" x2="70" y1="84.0679" y2="313.2859"/><line style="stroke:#181818;stroke-width:0.5;stroke-dasharray:5.0,5.0;" x1="316" x2="316" y1="84.0679" y2="313.2859"/><text fill="#000000" font-family="sans-serif" font-size="14" lengthAdjust="spacing" textLength="95" x="20" y="79.9659">Task Manager</text><ellipse cx="70.5" cy="13.5" fill="#E2E2F0" rx="8" ry="8" style="stroke:#181818;stroke-width:0.5;"/><path d="M70.5,21.5 L70.5,48.5 M57.5,29.5 L83.5,29.5 M70.5,48.5 L57.5,63.5 M70.5,48.5 L83.5,63.5 " fill="none" style="stroke:#181818;stroke-width:0.5;"/><text fill="#000000" font-family="sans-serif" font-size="14" lengthAdjust="spacing" textLength="95" x="20" y="327.2518">Task Manager</text><ellipse cx="70.5" cy="339.8538" fill="#E2E2F0" rx="8" ry="8" style="stroke:#181818;stroke-width:0.5;"/><path d="M70.5,347.8538 L70.5,374.8538 M57.5,355.8538 L83.5,355.8538 M70.5,374.8538 L57.5,389.8538 M70.5,374.8538 L83.5,389.8538 " fill="none" style="stroke:#181818;stroke-width:0.5;"/><rect fill="#E2E2F0" height="52.1358" rx="2.5" ry="2.5" style="stroke:#181818;stroke-width:0.5;" width="103" x="265" y="30.9321"/><text fill="#000000" font-family="sans-serif" font-size="14" lengthAdjust="spacing" textLength="61" x="286" y="52.898">&#171;system&#187;</text><text fill="#000000" font-family="sans-serif" font-size="14" lengthAdjust="spacing" textLength="85" x="276" y="71.9659">RobDroneGo</text><rect fill="#E2E2F0" height="52.1358" rx="2.5" ry="2.5" style="stroke:#181818;stroke-width:0.5;" width="103" x="265" y="312.2859"/><text fill="#000000" font-family="sans-serif" font-size="14" lengthAdjust="spacing" textLength="61" x="286" y="334.2518">&#171;system&#187;</text><text fill="#000000" font-family="sans-serif" font-size="14" lengthAdjust="spacing" textLength="85" x="276" y="353.3198">RobDroneGo</text><rect fill="#FFFFFF" height="194.218" style="stroke:#181818;stroke-width:1.0;" width="10" x="65.5" y="94.0679"/><rect fill="#FFFFFF" height="107.0999" style="stroke:#181818;stroke-width:1.0;" width="10" x="311.5" y="117.7739"/><rect fill="#FFFFFF" height="31.706" style="stroke:#181818;stroke-width:1.0;" width="10" x="311.5" y="256.5799"/><polygon fill="#181818" points="299.5,113.7739,309.5,117.7739,299.5,121.7739,303.5,117.7739" style="stroke:#181818;stroke-width:1.0;"/><line style="stroke:#181818;stroke-width:1.0;" x1="75.5" x2="305.5" y1="117.7739" y2="117.7739"/><text fill="#000000" font-family="sans-serif" font-size="13" font-weight="bold" lengthAdjust="spacing" textLength="7" x="82.5" y="111.9649">1</text><text fill="#000000" font-family="sans-serif" font-size="13" lengthAdjust="spacing" textLength="195" x="93.5" y="111.9649">wants to approve or reject a task</text><path d="M10,132.7739 L73,132.7739 L73,142.4799 L63,152.4799 L10,152.4799 L10,132.7739 " fill="#EEEEEE" style="stroke:#000000;stroke-width:1.5;"/><rect fill="none" height="163.512" style="stroke:#000000;stroke-width:1.5;" width="368" x="10" y="132.7739"/><text fill="#000000" font-family="sans-serif" font-size="13" font-weight="bold" lengthAdjust="spacing" textLength="18" x="25" y="147.6709">alt</text><text fill="#000000" font-family="sans-serif" font-size="11" font-weight="bold" lengthAdjust="spacing" textLength="102" x="88" y="146.5328">[task(s) not found]</text><polygon fill="#181818" points="86.5,172.186,76.5,176.186,86.5,180.186,82.5,176.186" style="stroke:#181818;stroke-width:1.0;"/><line style="stroke:#181818;stroke-width:1.0;stroke-dasharray:2.0,2.0;" x1="80.5" x2="310.5" y1="176.186" y2="176.186"/><text fill="#000000" font-family="sans-serif" font-size="13" font-weight="bold" lengthAdjust="spacing" textLength="7" x="92.5" y="170.377">2</text><text fill="#000000" font-family="sans-serif" font-size="13" lengthAdjust="spacing" textLength="201" x="103.5" y="170.377">inform no pending tasks available</text><line style="stroke:#000000;stroke-width:1.0;stroke-dasharray:2.0,2.0;" x1="10" x2="378" y1="185.186" y2="185.186"/><text fill="#000000" font-family="sans-serif" font-size="11" font-weight="bold" lengthAdjust="spacing" textLength="80" x="15" y="196.9449">[task(s) found]</text><polygon fill="#181818" points="86.5,220.8739,76.5,224.8739,86.5,228.8739,82.5,224.8739" style="stroke:#181818;stroke-width:1.0;"/><line style="stroke:#181818;stroke-width:1.0;stroke-dasharray:2.0,2.0;" x1="80.5" x2="315.5" y1="224.8739" y2="224.8739"/><text fill="#000000" font-family="sans-serif" font-size="13" font-weight="bold" lengthAdjust="spacing" textLength="7" x="92.5" y="219.0649">3</text><text fill="#000000" font-family="sans-serif" font-size="13" lengthAdjust="spacing" textLength="166" x="103.5" y="219.0649">shows tasks &amp; requests one</text><polygon fill="#181818" points="299.5,252.5799,309.5,256.5799,299.5,260.5799,303.5,256.5799" style="stroke:#181818;stroke-width:1.0;"/><line style="stroke:#181818;stroke-width:1.0;" x1="75.5" x2="305.5" y1="256.5799" y2="256.5799"/><text fill="#000000" font-family="sans-serif" font-size="13" font-weight="bold" lengthAdjust="spacing" textLength="7" x="82.5" y="250.7709">4</text><text fill="#000000" font-family="sans-serif" font-size="13" lengthAdjust="spacing" textLength="174" x="93.5" y="250.7709">approves/rejects chosen task</text><polygon fill="#181818" points="81.5,284.2859,71.5,288.2859,81.5,292.2859,77.5,288.2859" style="stroke:#181818;stroke-width:1.0;"/><line style="stroke:#181818;stroke-width:1.0;stroke-dasharray:2.0,2.0;" x1="75.5" x2="315.5" y1="288.2859" y2="288.2859"/><text fill="#000000" font-family="sans-serif" font-size="13" font-weight="bold" lengthAdjust="spacing" textLength="7" x="87.5" y="282.4769">5</text><text fill="#000000" font-family="sans-serif" font-size="13" lengthAdjust="spacing" textLength="120" x="98.5" y="282.4769">shows updated task</text><!--SRC=[XL4zJyGm3DtxAwmE28OJ- -dK2Oc91J6ok8tlBj3Q8Kvwuj_ZXAfGGC9B5BqllmHp4ivJJx5fS4WIeNr2VOK7P3nHR04LiXeOC2O_-82Se3qSz5qJJLttpF0e_LqKfdkfR4EgbPynKTM2ZPsmwme8UxYOYK8Im12Yp0GM6-c5XWG8oUAhPFKeZh0CZgaohlK6M18S9RDRqJ8bOcTH9N4FdeyI9wD287QUJrMjW3Fw4VkHLYsDIglrrdPhgMUvw69pPNk_PLAhOozG1OusY_zklvJMsy_A2iDPbFYVud_ja8CpcljI_iZ-TYt_O0_GV000]--></g></svg>