<?xml version="1.0" encoding="us-ascii" standalone="no"?><svg xmlns="http://www.w3.org/2000/svg" xmlns:xlink="http://www.w3.org/1999/xlink" contentStyleType="text/css" height="1366px" preserveAspectRatio="none" style="width:2039px;height:1366px;background:#FFFFFF;" version="1.1" viewBox="0 0 2039 1366" width="2039px" zoomAndPan="magnify"><defs/><g><!--cluster system--><g id="cluster_system"><path d="M8.5,6.602 L59.5,6.602 A3.75,3.75 0 0 1 62,9.102 L69,31.6699 L2029.5,31.6699 A2.5,2.5 0 0 1 2032,34.1699 L2032,1356.982 A2.5,2.5 0 0 1 2029.5,1359.482 L8.5,1359.482 A2.5,2.5 0 0 1 6,1356.982 L6,9.102 A2.5,2.5 0 0 1 8.5,6.602 " fill="none" style="stroke:#000000;stroke-width:1.5;"/><line style="stroke:#000000;stroke-width:1.5;" x1="6" x2="69" y1="31.6699" y2="31.6699"/><text fill="#000000" font-family="sans-serif" font-size="14" font-weight="bold" lengthAdjust="spacing" textLength="50" x="10" y="23.5679">system</text></g><!--cluster Infrastructure--><g id="cluster_Infrastructure"><path d="M114.5,52.602 L212.5,52.602 A3.75,3.75 0 0 1 215,55.102 L222,77.6699 L576.5,77.6699 A2.5,2.5 0 0 1 579,80.1699 L579,222.102 A2.5,2.5 0 0 1 576.5,224.602 L114.5,224.602 A2.5,2.5 0 0 1 112,222.102 L112,55.102 A2.5,2.5 0 0 1 114.5,52.602 " fill="none" style="stroke:#000000;stroke-width:1.5;"/><line style="stroke:#000000;stroke-width:1.5;" x1="112" x2="222" y1="77.6699" y2="77.6699"/><text fill="#000000" font-family="sans-serif" font-size="14" font-weight="bold" lengthAdjust="spacing" textLength="97" x="116" y="69.5679">Infrastructure</text></g><!--cluster Persistence--><g id="cluster_Persistence"><path d="M304.5,98.602 L384.5,98.602 A3.75,3.75 0 0 1 387,101.102 L394,123.6699 L552.5,123.6699 A2.5,2.5 0 0 1 555,126.1699 L555,198.102 A2.5,2.5 0 0 1 552.5,200.602 L304.5,200.602 A2.5,2.5 0 0 1 302,198.102 L302,101.102 A2.5,2.5 0 0 1 304.5,98.602 " fill="none" style="stroke:#000000;stroke-width:1.5;"/><line style="stroke:#000000;stroke-width:1.5;" x1="302" x2="394" y1="123.6699" y2="123.6699"/><text fill="#000000" font-family="sans-serif" font-size="14" font-weight="bold" lengthAdjust="spacing" textLength="79" x="306" y="115.5679">Persistence</text></g><!--cluster Routes--><g id="cluster_Routes"><path d="M138.5,98.602 L187.5,98.602 A3.75,3.75 0 0 1 190,101.102 L197,123.6699 L275.5,123.6699 A2.5,2.5 0 0 1 278,126.1699 L278,198.102 A2.5,2.5 0 0 1 275.5,200.602 L138.5,200.602 A2.5,2.5 0 0 1 136,198.102 L136,101.102 A2.5,2.5 0 0 1 138.5,98.602 " fill="none" style="stroke:#000000;stroke-width:1.5;"/><line style="stroke:#000000;stroke-width:1.5;" x1="136" x2="197" y1="123.6699" y2="123.6699"/><text fill="#000000" font-family="sans-serif" font-size="14" font-weight="bold" lengthAdjust="spacing" textLength="48" x="140" y="115.5679">Routes</text></g><!--cluster Interface Adapters--><g id="cluster_Interface Adapters"><path d="M32.5,248.602 L162.5,248.602 A3.75,3.75 0 0 1 165,251.102 L172,273.6699 L626.5,273.6699 A2.5,2.5 0 0 1 629,276.1699 L629,706.102 A2.5,2.5 0 0 1 626.5,708.602 L32.5,708.602 A2.5,2.5 0 0 1 30,706.102 L30,251.102 A2.5,2.5 0 0 1 32.5,248.602 " fill="none" style="stroke:#000000;stroke-width:1.5;"/><line style="stroke:#000000;stroke-width:1.5;" x1="30" x2="172" y1="273.6699" y2="273.6699"/><text fill="#000000" font-family="sans-serif" font-size="14" font-weight="bold" lengthAdjust="spacing" textLength="129" x="34" y="265.5679">Interface Adapters</text></g><!--cluster Controllers--><g id="cluster_Controllers"><path d="M56.5,294.602 L134.5,294.602 A3.75,3.75 0 0 1 137,297.102 L144,319.6699 L269.5,319.6699 A2.5,2.5 0 0 1 272,322.1699 L272,682.102 A2.5,2.5 0 0 1 269.5,684.602 L56.5,684.602 A2.5,2.5 0 0 1 54,682.102 L54,297.102 A2.5,2.5 0 0 1 56.5,294.602 " fill="none" style="stroke:#000000;stroke-width:1.5;"/><line style="stroke:#000000;stroke-width:1.5;" x1="54" x2="144" y1="319.6699" y2="319.6699"/><text fill="#000000" font-family="sans-serif" font-size="14" font-weight="bold" lengthAdjust="spacing" textLength="77" x="58" y="311.5679">Controllers</text></g><!--cluster IControllers--><g id="cluster_IControllers"><path d="M80.5,340.602 L163.5,340.602 A3.75,3.75 0 0 1 166,343.102 L173,365.6699 L245.5,365.6699 A2.5,2.5 0 0 1 248,368.1699 L248,440.102 A2.5,2.5 0 0 1 245.5,442.602 L80.5,442.602 A2.5,2.5 0 0 1 78,440.102 L78,343.102 A2.5,2.5 0 0 1 80.5,340.602 " fill="none" style="stroke:#000000;stroke-width:1.5;"/><line style="stroke:#000000;stroke-width:1.5;" x1="78" x2="173" y1="365.6699" y2="365.6699"/><text fill="#000000" font-family="sans-serif" font-size="14" font-weight="bold" lengthAdjust="spacing" textLength="82" x="82" y="357.5679">IControllers</text></g><!--cluster ImplControllers--><g id="cluster_ImplControllers"><path d="M80.5,558.602 L190.5,558.602 A3.75,3.75 0 0 1 193,561.102 L200,583.6699 L245.5,583.6699 A2.5,2.5 0 0 1 248,586.1699 L248,658.102 A2.5,2.5 0 0 1 245.5,660.602 L80.5,660.602 A2.5,2.5 0 0 1 78,658.102 L78,561.102 A2.5,2.5 0 0 1 80.5,558.602 " fill="none" style="stroke:#000000;stroke-width:1.5;"/><line style="stroke:#000000;stroke-width:1.5;" x1="78" x2="200" y1="583.6699" y2="583.6699"/><text fill="#000000" font-family="sans-serif" font-size="14" font-weight="bold" lengthAdjust="spacing" textLength="109" x="82" y="575.5679">ImplControllers</text></g><!--cluster Repositories--><g id="cluster_Repositories"><path d="M298.5,340.602 L385.5,340.602 A3.75,3.75 0 0 1 388,343.102 L395,365.6699 L602.5,365.6699 A2.5,2.5 0 0 1 605,368.1699 L605,440.102 A2.5,2.5 0 0 1 602.5,442.602 L298.5,442.602 A2.5,2.5 0 0 1 296,440.102 L296,343.102 A2.5,2.5 0 0 1 298.5,340.602 " fill="none" style="stroke:#000000;stroke-width:1.5;"/><line style="stroke:#000000;stroke-width:1.5;" x1="296" x2="395" y1="365.6699" y2="365.6699"/><text fill="#000000" font-family="sans-serif" font-size="14" font-weight="bold" lengthAdjust="spacing" textLength="86" x="300" y="357.5679">Repositories</text></g><!--cluster Application Services--><g id="cluster_Application Services"><path d="M655.5,466.602 L795.5,466.602 A3.75,3.75 0 0 1 798,469.102 L805,491.6699 L1051.5,491.6699 A2.5,2.5 0 0 1 1054,494.1699 L1054,1112.982 A2.5,2.5 0 0 1 1051.5,1115.482 L655.5,1115.482 A2.5,2.5 0 0 1 653,1112.982 L653,469.102 A2.5,2.5 0 0 1 655.5,466.602 " fill="none" style="stroke:#000000;stroke-width:1.5;"/><line style="stroke:#000000;stroke-width:1.5;" x1="653" x2="805" y1="491.6699" y2="491.6699"/><text fill="#000000" font-family="sans-serif" font-size="14" font-weight="bold" lengthAdjust="spacing" textLength="139" x="657" y="483.5679">Application Services</text></g><!--cluster App Services--><g id="cluster_App Services"><path d="M679.5,512.602 L768.5,512.602 A3.75,3.75 0 0 1 771,515.102 L778,537.6699 L1027.5,537.6699 A2.5,2.5 0 0 1 1030,540.1699 L1030,1088.982 A2.5,2.5 0 0 1 1027.5,1091.482 L679.5,1091.482 A2.5,2.5 0 0 1 677,1088.982 L677,515.102 A2.5,2.5 0 0 1 679.5,512.602 " fill="none" style="stroke:#000000;stroke-width:1.5;"/><line style="stroke:#000000;stroke-width:1.5;" x1="677" x2="778" y1="537.6699" y2="537.6699"/><text fill="#000000" font-family="sans-serif" font-size="14" font-weight="bold" lengthAdjust="spacing" textLength="88" x="681" y="529.5679">App Services</text></g><!--cluster IAppServices--><g id="cluster_IAppServices"><path d="M767.5,965.482 L857.5,965.482 A3.75,3.75 0 0 1 860,967.982 L867,990.5499 L936.5,990.5499 A2.5,2.5 0 0 1 939,993.0499 L939,1064.982 A2.5,2.5 0 0 1 936.5,1067.482 L767.5,1067.482 A2.5,2.5 0 0 1 765,1064.982 L765,967.982 A2.5,2.5 0 0 1 767.5,965.482 " fill="none" style="stroke:#000000;stroke-width:1.5;"/><line style="stroke:#000000;stroke-width:1.5;" x1="765" x2="867" y1="990.5499" y2="990.5499"/><text fill="#000000" font-family="sans-serif" font-size="14" font-weight="bold" lengthAdjust="spacing" textLength="89" x="769" y="982.4479">IAppServices</text></g><!--cluster ImplAppServices--><g id="cluster_ImplAppServices"><path d="M830.5,732.602 L947.5,732.602 A3.75,3.75 0 0 1 950,735.102 L957,757.6699 L1003.5,757.6699 A2.5,2.5 0 0 1 1006,760.1699 L1006,832.102 A2.5,2.5 0 0 1 1003.5,834.602 L830.5,834.602 A2.5,2.5 0 0 1 828,832.102 L828,735.102 A2.5,2.5 0 0 1 830.5,732.602 " fill="none" style="stroke:#000000;stroke-width:1.5;"/><line style="stroke:#000000;stroke-width:1.5;" x1="828" x2="957" y1="757.6699" y2="757.6699"/><text fill="#000000" font-family="sans-serif" font-size="14" font-weight="bold" lengthAdjust="spacing" textLength="116" x="832" y="749.5679">ImplAppServices</text></g><!--cluster IRepositories--><g id="cluster_IRepositories"><path d="M703.5,558.602 L795.5,558.602 A3.75,3.75 0 0 1 798,561.102 L805,583.6699 L1003.5,583.6699 A2.5,2.5 0 0 1 1006,586.1699 L1006,658.102 A2.5,2.5 0 0 1 1003.5,660.602 L703.5,660.602 A2.5,2.5 0 0 1 701,658.102 L701,561.102 A2.5,2.5 0 0 1 703.5,558.602 " fill="none" style="stroke:#000000;stroke-width:1.5;"/><line style="stroke:#000000;stroke-width:1.5;" x1="701" x2="805" y1="583.6699" y2="583.6699"/><text fill="#000000" font-family="sans-serif" font-size="14" font-weight="bold" lengthAdjust="spacing" textLength="91" x="705" y="575.5679">IRepositories</text></g><!--cluster Entities/Core/Domain--><g id="cluster_Entities/Core/Domain"><path d="M1080.5,858.602 L1231.5,858.602 A3.75,3.75 0 0 1 1234,861.102 L1241,883.6699 L2005.5,883.6699 A2.5,2.5 0 0 1 2008,886.1699 L2008,1332.982 A2.5,2.5 0 0 1 2005.5,1335.482 L1080.5,1335.482 A2.5,2.5 0 0 1 1078,1332.982 L1078,861.102 A2.5,2.5 0 0 1 1080.5,858.602 " fill="none" style="stroke:#000000;stroke-width:1.5;"/><line style="stroke:#000000;stroke-width:1.5;" x1="1078" x2="1241" y1="883.6699" y2="883.6699"/><text fill="#000000" font-family="sans-serif" font-size="14" font-weight="bold" lengthAdjust="spacing" textLength="150" x="1082" y="875.5679">Entities/Core/Domain</text></g><!--cluster Aggregates--><g id="cluster_Aggregates"><path d="M1379.5,904.602 L1460.5,904.602 A3.75,3.75 0 0 1 1463,907.102 L1470,929.6699 L1684.5,929.6699 A2.5,2.5 0 0 1 1687,932.1699 L1687,1103.862 A2.5,2.5 0 0 1 1684.5,1106.362 L1379.5,1106.362 A2.5,2.5 0 0 1 1377,1103.862 L1377,907.102 A2.5,2.5 0 0 1 1379.5,904.602 " fill="none" style="stroke:#000000;stroke-width:1.5;"/><line style="stroke:#000000;stroke-width:1.5;" x1="1377" x2="1470" y1="929.6699" y2="929.6699"/><text fill="#000000" font-family="sans-serif" font-size="14" font-weight="bold" lengthAdjust="spacing" textLength="80" x="1381" y="921.5679">Aggregates</text></g><!--cluster a_robottype--><g id="cluster_a_robottype"><path d="M1529.5,950.602 L1605.5,950.602 A3.75,3.75 0 0 1 1608,953.102 L1615,975.6699 L1660.5,975.6699 A2.5,2.5 0 0 1 1663,978.1699 L1663,1079.862 A2.5,2.5 0 0 1 1660.5,1082.362 L1529.5,1082.362 A2.5,2.5 0 0 1 1527,1079.862 L1527,953.102 A2.5,2.5 0 0 1 1529.5,950.602 " fill="none" style="stroke:#000000;stroke-width:1.5;"/><line style="stroke:#000000;stroke-width:1.5;" x1="1527" x2="1615" y1="975.6699" y2="975.6699"/><text fill="#000000" font-family="sans-serif" font-size="14" font-weight="bold" lengthAdjust="spacing" textLength="75" x="1531" y="967.5679">RobotType</text></g><!--cluster a_robot--><g id="cluster_a_robot"><path d="M1403.5,950.602 L1446.5,950.602 A3.75,3.75 0 0 1 1449,953.102 L1456,975.6699 L1500.5,975.6699 A2.5,2.5 0 0 1 1503,978.1699 L1503,1079.862 A2.5,2.5 0 0 1 1500.5,1082.362 L1403.5,1082.362 A2.5,2.5 0 0 1 1401,1079.862 L1401,953.102 A2.5,2.5 0 0 1 1403.5,950.602 " fill="none" style="stroke:#000000;stroke-width:1.5;"/><line style="stroke:#000000;stroke-width:1.5;" x1="1401" x2="1456" y1="975.6699" y2="975.6699"/><text fill="#000000" font-family="sans-serif" font-size="14" font-weight="bold" lengthAdjust="spacing" textLength="42" x="1405" y="967.5679">Robot</text></g><!--cluster Value Objects--><g id="cluster_Value Objects"><path d="M1104.5,1139.482 L1199.5,1139.482 A3.75,3.75 0 0 1 1202,1141.982 L1209,1164.5499 L1981.5,1164.5499 A2.5,2.5 0 0 1 1984,1167.0499 L1984,1308.982 A2.5,2.5 0 0 1 1981.5,1311.482 L1104.5,1311.482 A2.5,2.5 0 0 1 1102,1308.982 L1102,1141.982 A2.5,2.5 0 0 1 1104.5,1139.482 " fill="none" style="stroke:#000000;stroke-width:1.5;"/><line style="stroke:#000000;stroke-width:1.5;" x1="1102" x2="1209" y1="1164.5499" y2="1164.5499"/><text fill="#000000" font-family="sans-serif" font-size="14" font-weight="bold" lengthAdjust="spacing" textLength="94" x="1106" y="1156.4479">Value Objects</text></g><!--cluster vo_robot--><g id="cluster_vo_robot"><path d="M1128.5,1185.482 L1171.5,1185.482 A3.75,3.75 0 0 1 1174,1187.982 L1181,1210.5499 L1957.5,1210.5499 A2.5,2.5 0 0 1 1960,1213.0499 L1960,1284.982 A2.5,2.5 0 0 1 1957.5,1287.482 L1128.5,1287.482 A2.5,2.5 0 0 1 1126,1284.982 L1126,1187.982 A2.5,2.5 0 0 1 1128.5,1185.482 " fill="none" style="stroke:#000000;stroke-width:1.5;"/><line style="stroke:#000000;stroke-width:1.5;" x1="1126" x2="1181" y1="1210.5499" y2="1210.5499"/><text fill="#000000" font-family="sans-serif" font-size="14" font-weight="bold" lengthAdjust="spacing" textLength="42" x="1130" y="1202.4479">Robot</text></g><!--class IDBDriver--><g id="elem_IDBDriver"><rect codeLine="16" fill="#F1F1F1" height="48" id="IDBDriver" rx="2.5" ry="2.5" style="stroke:#181818;stroke-width:0.5;" width="93" x="445.5" y="136.602"/><ellipse cx="460.5" cy="152.602" fill="#B4A7E5" rx="11" ry="11" style="stroke:#181818;stroke-width:1.0;"/><path d="M456.4219,159.602 L456.4219,157.7895 L459.2656,157.7895 L459.2656,148.0082 L456.4219,148.0082 L456.4219,146.1801 L464.2969,146.1801 L464.2969,148.0082 L461.4688,148.0082 L461.4688,157.7895 L464.2969,157.7895 L464.2969,159.602 L456.4219,159.602 Z " fill="#000000"/><text fill="#000000" font-family="sans-serif" font-size="14" font-style="italic" lengthAdjust="spacing" textLength="61" x="474.5" y="158.034">IDBDriver</text><line style="stroke:#181818;stroke-width:0.5;" x1="446.5" x2="537.5" y1="168.602" y2="168.602"/><line style="stroke:#181818;stroke-width:0.5;" x1="446.5" x2="537.5" y1="176.602" y2="176.602"/></g><!--class DBDriver--><g id="elem_DBDriver"><rect codeLine="17" fill="#F1F1F1" height="48" id="DBDriver" rx="2.5" ry="2.5" style="stroke:#181818;stroke-width:0.5;" width="92" x="318" y="136.602"/><ellipse cx="333" cy="152.602" fill="#ADD1B2" rx="11" ry="11" style="stroke:#181818;stroke-width:1.0;"/><path d="M335.5625,159.1176 Q333.9063,159.7426 332.7031,159.7426 Q331.125,159.7426 329.7813,158.8989 Q328.4531,158.0395 327.7188,156.3832 Q326.9844,154.727 326.9844,152.6489 Q326.9844,150.5864 327.7031,148.9301 Q328.4219,147.2739 329.7656,146.4145 Q331.1094,145.5551 332.7031,145.5551 Q333.9063,145.5551 335.5625,146.1645 L335.5625,148.352 Q333.875,147.3676 332.6406,147.3676 Q331.7344,147.3676 330.9688,148.0082 Q330.2188,148.6332 329.7344,149.8989 Q329.25,151.1489 329.25,152.6489 Q329.25,154.1645 329.75,155.4457 Q330.25,156.7114 331,157.3207 Q331.75,157.9301 332.6406,157.9301 Q333.875,157.9301 335.5625,156.9457 L335.5625,159.1176 Z " fill="#000000"/><text fill="#000000" font-family="sans-serif" font-size="14" lengthAdjust="spacing" textLength="60" x="347" y="158.034">DBDriver</text><line style="stroke:#181818;stroke-width:0.5;" x1="319" x2="409" y1="168.602" y2="168.602"/><line style="stroke:#181818;stroke-width:0.5;" x1="319" x2="409" y1="176.602" y2="176.602"/></g><!--class RouteRobot--><g id="elem_RouteRobot"><rect codeLine="21" fill="#F1F1F1" height="48" id="RouteRobot" rx="2.5" ry="2.5" style="stroke:#181818;stroke-width:0.5;" width="110" x="152" y="136.602"/><ellipse cx="167" cy="152.602" fill="#ADD1B2" rx="11" ry="11" style="stroke:#181818;stroke-width:1.0;"/><path d="M169.5625,159.1176 Q167.9063,159.7426 166.7031,159.7426 Q165.125,159.7426 163.7813,158.8989 Q162.4531,158.0395 161.7188,156.3832 Q160.9844,154.727 160.9844,152.6489 Q160.9844,150.5864 161.7031,148.9301 Q162.4219,147.2739 163.7656,146.4145 Q165.1094,145.5551 166.7031,145.5551 Q167.9063,145.5551 169.5625,146.1645 L169.5625,148.352 Q167.875,147.3676 166.6406,147.3676 Q165.7344,147.3676 164.9688,148.0082 Q164.2188,148.6332 163.7344,149.8989 Q163.25,151.1489 163.25,152.6489 Q163.25,154.1645 163.75,155.4457 Q164.25,156.7114 165,157.3207 Q165.75,157.9301 166.6406,157.9301 Q167.875,157.9301 169.5625,156.9457 L169.5625,159.1176 Z " fill="#000000"/><text fill="#000000" font-family="sans-serif" font-size="14" lengthAdjust="spacing" textLength="78" x="181" y="158.034">RouteRobot</text><line style="stroke:#181818;stroke-width:0.5;" x1="153" x2="261" y1="168.602" y2="168.602"/><line style="stroke:#181818;stroke-width:0.5;" x1="153" x2="261" y1="176.602" y2="176.602"/></g><!--class IControllerRobot--><g id="elem_IControllerRobot"><rect codeLine="30" fill="#F1F1F1" height="48" id="IControllerRobot" rx="2.5" ry="2.5" style="stroke:#181818;stroke-width:0.5;" width="138" x="94" y="378.602"/><ellipse cx="109" cy="394.602" fill="#B4A7E5" rx="11" ry="11" style="stroke:#181818;stroke-width:1.0;"/><path d="M104.9219,401.602 L104.9219,399.7895 L107.7656,399.7895 L107.7656,390.0082 L104.9219,390.0082 L104.9219,388.1801 L112.7969,388.1801 L112.7969,390.0082 L109.9688,390.0082 L109.9688,399.7895 L112.7969,399.7895 L112.7969,401.602 L104.9219,401.602 Z " fill="#000000"/><text fill="#000000" font-family="sans-serif" font-size="14" font-style="italic" lengthAdjust="spacing" textLength="106" x="123" y="400.034">IControllerRobot</text><line style="stroke:#181818;stroke-width:0.5;" x1="95" x2="231" y1="410.602" y2="410.602"/><line style="stroke:#181818;stroke-width:0.5;" x1="95" x2="231" y1="418.602" y2="418.602"/></g><!--class ControllerRobot--><g id="elem_ControllerRobot"><rect codeLine="34" fill="#F1F1F1" height="48" id="ControllerRobot" rx="2.5" ry="2.5" style="stroke:#181818;stroke-width:0.5;" width="138" x="94" y="596.602"/><ellipse cx="109" cy="612.602" fill="#ADD1B2" rx="11" ry="11" style="stroke:#181818;stroke-width:1.0;"/><path d="M111.5625,619.1176 Q109.9063,619.7426 108.7031,619.7426 Q107.125,619.7426 105.7813,618.8989 Q104.4531,618.0395 103.7188,616.3832 Q102.9844,614.727 102.9844,612.6489 Q102.9844,610.5864 103.7031,608.9301 Q104.4219,607.2739 105.7656,606.4145 Q107.1094,605.5551 108.7031,605.5551 Q109.9063,605.5551 111.5625,606.1645 L111.5625,608.352 Q109.875,607.3676 108.6406,607.3676 Q107.7344,607.3676 106.9688,608.0082 Q106.2188,608.6332 105.7344,609.8989 Q105.25,611.1489 105.25,612.6489 Q105.25,614.1645 105.75,615.4457 Q106.25,616.7114 107,617.3207 Q107.75,617.9301 108.6406,617.9301 Q109.875,617.9301 111.5625,616.9457 L111.5625,619.1176 Z " fill="#000000"/><text fill="#000000" font-family="sans-serif" font-size="14" lengthAdjust="spacing" textLength="106" x="123" y="618.034">ControllerRobot</text><line style="stroke:#181818;stroke-width:0.5;" x1="95" x2="231" y1="628.602" y2="628.602"/><line style="stroke:#181818;stroke-width:0.5;" x1="95" x2="231" y1="636.602" y2="636.602"/></g><!--class RepoRobotType--><g id="elem_RepoRobotType"><rect codeLine="40" fill="#F1F1F1" height="48" id="RepoRobotType" rx="2.5" ry="2.5" style="stroke:#181818;stroke-width:0.5;" width="137" x="451.5" y="378.602"/><ellipse cx="466.5" cy="394.602" fill="#ADD1B2" rx="11" ry="11" style="stroke:#181818;stroke-width:1.0;"/><path d="M469.0625,401.1176 Q467.4063,401.7426 466.2031,401.7426 Q464.625,401.7426 463.2813,400.8989 Q461.9531,400.0395 461.2188,398.3832 Q460.4844,396.727 460.4844,394.6489 Q460.4844,392.5864 461.2031,390.9301 Q461.9219,389.2739 463.2656,388.4145 Q464.6094,387.5551 466.2031,387.5551 Q467.4063,387.5551 469.0625,388.1645 L469.0625,390.352 Q467.375,389.3676 466.1406,389.3676 Q465.2344,389.3676 464.4688,390.0082 Q463.7188,390.6332 463.2344,391.8989 Q462.75,393.1489 462.75,394.6489 Q462.75,396.1645 463.25,397.4457 Q463.75,398.7114 464.5,399.3207 Q465.25,399.9301 466.1406,399.9301 Q467.375,399.9301 469.0625,398.9457 L469.0625,401.1176 Z " fill="#000000"/><text fill="#000000" font-family="sans-serif" font-size="14" lengthAdjust="spacing" textLength="105" x="480.5" y="400.034">RepoRobotType</text><line style="stroke:#181818;stroke-width:0.5;" x1="452.5" x2="587.5" y1="410.602" y2="410.602"/><line style="stroke:#181818;stroke-width:0.5;" x1="452.5" x2="587.5" y1="418.602" y2="418.602"/></g><!--class RepoRobot--><g id="elem_RepoRobot"><rect codeLine="41" fill="#F1F1F1" height="48" id="RepoRobot" rx="2.5" ry="2.5" style="stroke:#181818;stroke-width:0.5;" width="105" x="311.5" y="378.602"/><ellipse cx="326.5" cy="394.602" fill="#ADD1B2" rx="11" ry="11" style="stroke:#181818;stroke-width:1.0;"/><path d="M329.0625,401.1176 Q327.4063,401.7426 326.2031,401.7426 Q324.625,401.7426 323.2813,400.8989 Q321.9531,400.0395 321.2188,398.3832 Q320.4844,396.727 320.4844,394.6489 Q320.4844,392.5864 321.2031,390.9301 Q321.9219,389.2739 323.2656,388.4145 Q324.6094,387.5551 326.2031,387.5551 Q327.4063,387.5551 329.0625,388.1645 L329.0625,390.352 Q327.375,389.3676 326.1406,389.3676 Q325.2344,389.3676 324.4688,390.0082 Q323.7188,390.6332 323.2344,391.8989 Q322.75,393.1489 322.75,394.6489 Q322.75,396.1645 323.25,397.4457 Q323.75,398.7114 324.5,399.3207 Q325.25,399.9301 326.1406,399.9301 Q327.375,399.9301 329.0625,398.9457 L329.0625,401.1176 Z " fill="#000000"/><text fill="#000000" font-family="sans-serif" font-size="14" lengthAdjust="spacing" textLength="73" x="340.5" y="400.034">RepoRobot</text><line style="stroke:#181818;stroke-width:0.5;" x1="312.5" x2="415.5" y1="410.602" y2="410.602"/><line style="stroke:#181818;stroke-width:0.5;" x1="312.5" x2="415.5" y1="418.602" y2="418.602"/></g><!--class IAppServiceRobot--><g id="elem_IAppServiceRobot"><rect codeLine="53" fill="#F1F1F1" height="48" id="IAppServiceRobot" rx="2.5" ry="2.5" style="stroke:#181818;stroke-width:0.5;" width="142" x="781" y="1003.482"/><ellipse cx="796" cy="1019.482" fill="#B4A7E5" rx="11" ry="11" style="stroke:#181818;stroke-width:1.0;"/><path d="M791.9219,1026.482 L791.9219,1024.6695 L794.7656,1024.6695 L794.7656,1014.8882 L791.9219,1014.8882 L791.9219,1013.0601 L799.7969,1013.0601 L799.7969,1014.8882 L796.9688,1014.8882 L796.9688,1024.6695 L799.7969,1024.6695 L799.7969,1026.482 L791.9219,1026.482 Z " fill="#000000"/><text fill="#000000" font-family="sans-serif" font-size="14" font-style="italic" lengthAdjust="spacing" textLength="110" x="810" y="1024.914">IAppServiceRobot</text><line style="stroke:#181818;stroke-width:0.5;" x1="782" x2="922" y1="1035.482" y2="1035.482"/><line style="stroke:#181818;stroke-width:0.5;" x1="782" x2="922" y1="1043.482" y2="1043.482"/></g><!--class AppServiceRobot--><g id="elem_AppServiceRobot"><rect codeLine="57" fill="#F1F1F1" height="48" id="AppServiceRobot" rx="2.5" ry="2.5" style="stroke:#181818;stroke-width:0.5;" width="146" x="844" y="770.602"/><ellipse cx="859" cy="786.602" fill="#ADD1B2" rx="11" ry="11" style="stroke:#181818;stroke-width:1.0;"/><path d="M861.5625,793.1176 Q859.9063,793.7426 858.7031,793.7426 Q857.125,793.7426 855.7813,792.8989 Q854.4531,792.0395 853.7188,790.3832 Q852.9844,788.727 852.9844,786.6489 Q852.9844,784.5864 853.7031,782.9301 Q854.4219,781.2739 855.7656,780.4145 Q857.1094,779.5551 858.7031,779.5551 Q859.9063,779.5551 861.5625,780.1645 L861.5625,782.352 Q859.875,781.3676 858.6406,781.3676 Q857.7344,781.3676 856.9688,782.0082 Q856.2188,782.6332 855.7344,783.8989 Q855.25,785.1489 855.25,786.6489 Q855.25,788.1645 855.75,789.4457 Q856.25,790.7114 857,791.3207 Q857.75,791.9301 858.6406,791.9301 Q859.875,791.9301 861.5625,790.9457 L861.5625,793.1176 Z " fill="#000000"/><text fill="#000000" font-family="sans-serif" font-size="14" lengthAdjust="spacing" textLength="114" x="873" y="792.034">AppServiceRobot</text><line style="stroke:#181818;stroke-width:0.5;" x1="845" x2="989" y1="802.602" y2="802.602"/><line style="stroke:#181818;stroke-width:0.5;" x1="845" x2="989" y1="810.602" y2="810.602"/></g><!--class IRepoRobotType--><g id="elem_IRepoRobotType"><rect codeLine="63" fill="#F1F1F1" height="48" id="IRepoRobotType" rx="2.5" ry="2.5" style="stroke:#181818;stroke-width:0.5;" width="134" x="856" y="596.602"/><ellipse cx="871" cy="612.602" fill="#B4A7E5" rx="11" ry="11" style="stroke:#181818;stroke-width:1.0;"/><path d="M866.9219,619.602 L866.9219,617.7895 L869.7656,617.7895 L869.7656,608.0082 L866.9219,608.0082 L866.9219,606.1801 L874.7969,606.1801 L874.7969,608.0082 L871.9688,608.0082 L871.9688,617.7895 L874.7969,617.7895 L874.7969,619.602 L866.9219,619.602 Z " fill="#000000"/><text fill="#000000" font-family="sans-serif" font-size="14" font-style="italic" lengthAdjust="spacing" textLength="102" x="885" y="618.034">IRepoRobotType</text><line style="stroke:#181818;stroke-width:0.5;" x1="857" x2="989" y1="628.602" y2="628.602"/><line style="stroke:#181818;stroke-width:0.5;" x1="857" x2="989" y1="636.602" y2="636.602"/></g><!--class IRepoRobot--><g id="elem_IRepoRobot"><rect codeLine="64" fill="#F1F1F1" height="48" id="IRepoRobot" rx="2.5" ry="2.5" style="stroke:#181818;stroke-width:0.5;" width="105" x="716.5" y="596.602"/><ellipse cx="731.5" cy="612.602" fill="#B4A7E5" rx="11" ry="11" style="stroke:#181818;stroke-width:1.0;"/><path d="M727.4219,619.602 L727.4219,617.7895 L730.2656,617.7895 L730.2656,608.0082 L727.4219,608.0082 L727.4219,606.1801 L735.2969,606.1801 L735.2969,608.0082 L732.4688,608.0082 L732.4688,617.7895 L735.2969,617.7895 L735.2969,619.602 L727.4219,619.602 Z " fill="#000000"/><text fill="#000000" font-family="sans-serif" font-size="14" font-style="italic" lengthAdjust="spacing" textLength="73" x="745.5" y="618.034">IRepoRobot</text><line style="stroke:#181818;stroke-width:0.5;" x1="717.5" x2="820.5" y1="628.602" y2="628.602"/><line style="stroke:#181818;stroke-width:0.5;" x1="717.5" x2="820.5" y1="636.602" y2="636.602"/></g><!--class RobotType--><g id="elem_RobotType"><rect codeLine="81" fill="#F1F1F1" height="77.7561" id="RobotType" rx="2.5" ry="2.5" style="stroke:#181818;stroke-width:0.5;" width="103" x="1543.5" y="988.602"/><ellipse cx="1558.5" cy="1019.4801" fill="#ADD1B2" rx="11" ry="11" style="stroke:#181818;stroke-width:1.0;"/><path d="M1561.6719,1024.5269 L1561.6719,1026.4801 L1554.1875,1026.4801 L1554.1875,1013.0582 L1561.5469,1013.0582 L1561.5469,1014.8863 L1556.3906,1014.8863 L1556.3906,1018.7301 L1561.0313,1018.7301 L1561.0313,1020.5582 L1556.3906,1020.5582 L1556.3906,1024.5269 L1561.6719,1024.5269 Z " fill="#000000"/><text fill="#000000" font-family="sans-serif" font-size="12" font-style="italic" lengthAdjust="spacing" textLength="35" x="1590.5" y="1006.4301">&#171;root&#187;</text><text fill="#000000" font-family="sans-serif" font-size="12" font-style="italic" lengthAdjust="spacing" textLength="42" x="1587" y="1022.7742">&#171;entity&#187;</text><text fill="#000000" font-family="sans-serif" font-size="14" lengthAdjust="spacing" textLength="71" x="1572.5" y="1041.2561">RobotType</text><line style="stroke:#181818;stroke-width:0.5;" x1="1544.5" x2="1645.5" y1="1050.3581" y2="1050.3581"/><line style="stroke:#181818;stroke-width:0.5;" x1="1544.5" x2="1645.5" y1="1058.3581" y2="1058.3581"/></g><!--class Robot--><g id="elem_Robot"><rect codeLine="84" fill="#F1F1F1" height="77.7561" id="Robot" rx="2.5" ry="2.5" style="stroke:#181818;stroke-width:0.5;" width="71" x="1416.5" y="988.602"/><ellipse cx="1431.5" cy="1019.4801" fill="#ADD1B2" rx="11" ry="11" style="stroke:#181818;stroke-width:1.0;"/><path d="M1434.6719,1024.5269 L1434.6719,1026.4801 L1427.1875,1026.4801 L1427.1875,1013.0582 L1434.5469,1013.0582 L1434.5469,1014.8863 L1429.3906,1014.8863 L1429.3906,1018.7301 L1434.0313,1018.7301 L1434.0313,1020.5582 L1429.3906,1020.5582 L1429.3906,1024.5269 L1434.6719,1024.5269 Z " fill="#000000"/><text fill="#000000" font-family="sans-serif" font-size="12" font-style="italic" lengthAdjust="spacing" textLength="35" x="1447.5" y="1006.4301">&#171;root&#187;</text><text fill="#000000" font-family="sans-serif" font-size="12" font-style="italic" lengthAdjust="spacing" textLength="42" x="1444" y="1022.7742">&#171;entity&#187;</text><text fill="#000000" font-family="sans-serif" font-size="14" lengthAdjust="spacing" textLength="39" x="1445.5" y="1041.2561">Robot</text><line style="stroke:#181818;stroke-width:0.5;" x1="1417.5" x2="1486.5" y1="1050.3581" y2="1050.3581"/><line style="stroke:#181818;stroke-width:0.5;" x1="1417.5" x2="1486.5" y1="1058.3581" y2="1058.3581"/></g><!--class RobotCode--><g id="elem_RobotCode"><rect codeLine="91" fill="#F1F1F1" height="48" id="RobotCode" rx="2.5" ry="2.5" style="stroke:#181818;stroke-width:0.5;" width="105" x="1839.5" y="1223.482"/><ellipse cx="1854.5" cy="1239.482" fill="#ADD1B2" rx="11" ry="11" style="stroke:#181818;stroke-width:1.0;"/><path d="M1857.0625,1245.9976 Q1855.4063,1246.6226 1854.2031,1246.6226 Q1852.625,1246.6226 1851.2813,1245.7789 Q1849.9531,1244.9195 1849.2188,1243.2632 Q1848.4844,1241.607 1848.4844,1239.5289 Q1848.4844,1237.4664 1849.2031,1235.8101 Q1849.9219,1234.1539 1851.2656,1233.2945 Q1852.6094,1232.4351 1854.2031,1232.4351 Q1855.4063,1232.4351 1857.0625,1233.0445 L1857.0625,1235.232 Q1855.375,1234.2476 1854.1406,1234.2476 Q1853.2344,1234.2476 1852.4688,1234.8882 Q1851.7188,1235.5132 1851.2344,1236.7789 Q1850.75,1238.0289 1850.75,1239.5289 Q1850.75,1241.0445 1851.25,1242.3257 Q1851.75,1243.5914 1852.5,1244.2007 Q1853.25,1244.8101 1854.1406,1244.8101 Q1855.375,1244.8101 1857.0625,1243.8257 L1857.0625,1245.9976 Z " fill="#000000"/><text fill="#000000" font-family="sans-serif" font-size="14" lengthAdjust="spacing" textLength="73" x="1868.5" y="1244.914">RobotCode</text><line style="stroke:#181818;stroke-width:0.5;" x1="1840.5" x2="1943.5" y1="1255.482" y2="1255.482"/><line style="stroke:#181818;stroke-width:0.5;" x1="1840.5" x2="1943.5" y1="1263.482" y2="1263.482"/></g><!--class RobotNickname--><g id="elem_RobotNickname"><rect codeLine="92" fill="#F1F1F1" height="48" id="RobotNickname" rx="2.5" ry="2.5" style="stroke:#181818;stroke-width:0.5;" width="138" x="1666" y="1223.482"/><ellipse cx="1681" cy="1239.482" fill="#ADD1B2" rx="11" ry="11" style="stroke:#181818;stroke-width:1.0;"/><path d="M1683.5625,1245.9976 Q1681.9063,1246.6226 1680.7031,1246.6226 Q1679.125,1246.6226 1677.7813,1245.7789 Q1676.4531,1244.9195 1675.7188,1243.2632 Q1674.9844,1241.607 1674.9844,1239.5289 Q1674.9844,1237.4664 1675.7031,1235.8101 Q1676.4219,1234.1539 1677.7656,1233.2945 Q1679.1094,1232.4351 1680.7031,1232.4351 Q1681.9063,1232.4351 1683.5625,1233.0445 L1683.5625,1235.232 Q1681.875,1234.2476 1680.6406,1234.2476 Q1679.7344,1234.2476 1678.9688,1234.8882 Q1678.2188,1235.5132 1677.7344,1236.7789 Q1677.25,1238.0289 1677.25,1239.5289 Q1677.25,1241.0445 1677.75,1242.3257 Q1678.25,1243.5914 1679,1244.2007 Q1679.75,1244.8101 1680.6406,1244.8101 Q1681.875,1244.8101 1683.5625,1243.8257 L1683.5625,1245.9976 Z " fill="#000000"/><text fill="#000000" font-family="sans-serif" font-size="14" lengthAdjust="spacing" textLength="106" x="1695" y="1244.914">RobotNickname</text><line style="stroke:#181818;stroke-width:0.5;" x1="1667" x2="1803" y1="1255.482" y2="1255.482"/><line style="stroke:#181818;stroke-width:0.5;" x1="1667" x2="1803" y1="1263.482" y2="1263.482"/></g><!--class RobotSerialNumber--><g id="elem_RobotSerialNumber"><rect codeLine="93" fill="#F1F1F1" height="48" id="RobotSerialNumber" rx="2.5" ry="2.5" style="stroke:#181818;stroke-width:0.5;" width="165" x="1465.5" y="1223.482"/><ellipse cx="1480.5" cy="1239.482" fill="#ADD1B2" rx="11" ry="11" style="stroke:#181818;stroke-width:1.0;"/><path d="M1483.0625,1245.9976 Q1481.4063,1246.6226 1480.2031,1246.6226 Q1478.625,1246.6226 1477.2813,1245.7789 Q1475.9531,1244.9195 1475.2188,1243.2632 Q1474.4844,1241.607 1474.4844,1239.5289 Q1474.4844,1237.4664 1475.2031,1235.8101 Q1475.9219,1234.1539 1477.2656,1233.2945 Q1478.6094,1232.4351 1480.2031,1232.4351 Q1481.4063,1232.4351 1483.0625,1233.0445 L1483.0625,1235.232 Q1481.375,1234.2476 1480.1406,1234.2476 Q1479.2344,1234.2476 1478.4688,1234.8882 Q1477.7188,1235.5132 1477.2344,1236.7789 Q1476.75,1238.0289 1476.75,1239.5289 Q1476.75,1241.0445 1477.25,1242.3257 Q1477.75,1243.5914 1478.5,1244.2007 Q1479.25,1244.8101 1480.1406,1244.8101 Q1481.375,1244.8101 1483.0625,1243.8257 L1483.0625,1245.9976 Z " fill="#000000"/><text fill="#000000" font-family="sans-serif" font-size="14" lengthAdjust="spacing" textLength="133" x="1494.5" y="1244.914">RobotSerialNumber</text><line style="stroke:#181818;stroke-width:0.5;" x1="1466.5" x2="1629.5" y1="1255.482" y2="1255.482"/><line style="stroke:#181818;stroke-width:0.5;" x1="1466.5" x2="1629.5" y1="1263.482" y2="1263.482"/></g><!--class RobotDescription--><g id="elem_RobotDescription"><rect codeLine="94" fill="#F1F1F1" height="48" id="RobotDescription" rx="2.5" ry="2.5" style="stroke:#181818;stroke-width:0.5;" width="148" x="1282" y="1223.482"/><ellipse cx="1297" cy="1239.482" fill="#ADD1B2" rx="11" ry="11" style="stroke:#181818;stroke-width:1.0;"/><path d="M1299.5625,1245.9976 Q1297.9063,1246.6226 1296.7031,1246.6226 Q1295.125,1246.6226 1293.7813,1245.7789 Q1292.4531,1244.9195 1291.7188,1243.2632 Q1290.9844,1241.607 1290.9844,1239.5289 Q1290.9844,1237.4664 1291.7031,1235.8101 Q1292.4219,1234.1539 1293.7656,1233.2945 Q1295.1094,1232.4351 1296.7031,1232.4351 Q1297.9063,1232.4351 1299.5625,1233.0445 L1299.5625,1235.232 Q1297.875,1234.2476 1296.6406,1234.2476 Q1295.7344,1234.2476 1294.9688,1234.8882 Q1294.2188,1235.5132 1293.7344,1236.7789 Q1293.25,1238.0289 1293.25,1239.5289 Q1293.25,1241.0445 1293.75,1242.3257 Q1294.25,1243.5914 1295,1244.2007 Q1295.75,1244.8101 1296.6406,1244.8101 Q1297.875,1244.8101 1299.5625,1243.8257 L1299.5625,1245.9976 Z " fill="#000000"/><text fill="#000000" font-family="sans-serif" font-size="14" lengthAdjust="spacing" textLength="116" x="1311" y="1244.914">RobotDescription</text><line style="stroke:#181818;stroke-width:0.5;" x1="1283" x2="1429" y1="1255.482" y2="1255.482"/><line style="stroke:#181818;stroke-width:0.5;" x1="1283" x2="1429" y1="1263.482" y2="1263.482"/></g><!--class RobotState--><g id="elem_RobotState"><rect codeLine="95" fill="#F1F1F1" height="48" id="RobotState" rx="2.5" ry="2.5" style="stroke:#181818;stroke-width:0.5;" width="105" x="1141.5" y="1223.482"/><ellipse cx="1156.5" cy="1239.482" fill="#ADD1B2" rx="11" ry="11" style="stroke:#181818;stroke-width:1.0;"/><path d="M1159.0625,1245.9976 Q1157.4063,1246.6226 1156.2031,1246.6226 Q1154.625,1246.6226 1153.2813,1245.7789 Q1151.9531,1244.9195 1151.2188,1243.2632 Q1150.4844,1241.607 1150.4844,1239.5289 Q1150.4844,1237.4664 1151.2031,1235.8101 Q1151.9219,1234.1539 1153.2656,1233.2945 Q1154.6094,1232.4351 1156.2031,1232.4351 Q1157.4063,1232.4351 1159.0625,1233.0445 L1159.0625,1235.232 Q1157.375,1234.2476 1156.1406,1234.2476 Q1155.2344,1234.2476 1154.4688,1234.8882 Q1153.7188,1235.5132 1153.2344,1236.7789 Q1152.75,1238.0289 1152.75,1239.5289 Q1152.75,1241.0445 1153.25,1242.3257 Q1153.75,1243.5914 1154.5,1244.2007 Q1155.25,1244.8101 1156.1406,1244.8101 Q1157.375,1244.8101 1159.0625,1243.8257 L1159.0625,1245.9976 Z " fill="#000000"/><text fill="#000000" font-family="sans-serif" font-size="14" lengthAdjust="spacing" textLength="73" x="1170.5" y="1244.914">RobotState</text><line style="stroke:#181818;stroke-width:0.5;" x1="1142.5" x2="1245.5" y1="1255.482" y2="1255.482"/><line style="stroke:#181818;stroke-width:0.5;" x1="1142.5" x2="1245.5" y1="1263.482" y2="1263.482"/></g><!--link DBDriver to IDBDriver--><g id="link_DBDriver_IDBDriver"><path codeLine="24" d="M410.5,160.602 C422.07,160.602 415.63,160.602 427.2,160.602 " fill="none" id="DBDriver-to-IDBDriver" style="stroke:#FF6655;stroke-width:1.0;"/><polygon fill="none" points="445.2,160.602,427.2,154.602,427.2,166.602,445.2,160.602" style="stroke:#FF6655;stroke-width:1.0;"/></g><!--reverse link IControllerRobot to ControllerRobot--><g id="link_IControllerRobot_ControllerRobot"><path codeLine="36" d="M163,444.722 C163,486.182 163,554.742 163,596.332 " fill="none" id="IControllerRobot-backto-ControllerRobot" style="stroke:#FF6655;stroke-width:1.0;"/><polygon fill="none" points="163,426.722,157,444.722,169,444.722,163,426.722" style="stroke:#FF6655;stroke-width:1.0;"/></g><!--reverse link DBDriver to RepoRobotType--><g id="link_DBDriver_RepoRobotType"><path codeLine="44" d="M389.747,189.2533 C407.227,208.2133 426.1,229.242 434,240.602 C466.03,286.652 494.88,345.982 509.64,378.222 " fill="none" id="DBDriver-backto-RepoRobotType" style="stroke:#FF6655;stroke-width:1.0;stroke-dasharray:7.0,7.0;"/><polygon fill="#FF6655" points="385.68,184.842,388.8396,194.1703,389.0691,188.5181,394.7213,188.7476,385.68,184.842" style="stroke:#FF6655;stroke-width:1.0;"/></g><!--reverse link DBDriver to RepoRobot--><g id="link_DBDriver_RepoRobot"><path codeLine="45" d="M364,191.052 C364,237.052 364,332.622 364,378.412 " fill="none" id="DBDriver-backto-RepoRobot" style="stroke:#FF6655;stroke-width:1.0;stroke-dasharray:7.0,7.0;"/><polygon fill="#FF6655" points="364,185.052,360,194.052,364,190.052,368,194.052,364,185.052" style="stroke:#FF6655;stroke-width:1.0;"/></g><!--link RouteRobot to IControllerRobot--><g id="link_RouteRobot_IControllerRobot"><path codeLine="47" d="M202.7,185.052 C194.27,231.052 176.7326,326.7205 168.3326,372.5105 " fill="none" id="RouteRobot-to-IControllerRobot" style="stroke:#FF6655;stroke-width:1.0;stroke-dasharray:7.0,7.0;"/><polygon fill="#FF6655" points="167.25,378.412,172.8083,370.2814,168.1522,373.494,164.9396,368.838,167.25,378.412" style="stroke:#FF6655;stroke-width:1.0;"/></g><!--link AppServiceRobot to IAppServiceRobot--><g id="link_AppServiceRobot_IAppServiceRobot"><path codeLine="60" d="M910.41,819.012 C897.95,863.262 875.9573,941.3853 863.4873,985.6853 " fill="none" id="AppServiceRobot-to-IAppServiceRobot" style="stroke:#FF6655;stroke-width:1.0;"/><polygon fill="none" points="858.61,1003.012,869.2628,987.3111,857.7117,984.0596,858.61,1003.012" style="stroke:#FF6655;stroke-width:1.0;"/></g><!--link RepoRobotType to IRepoRobotType--><g id="link_RepoRobotType_IRepoRobotType"><path codeLine="67" d="M588.95,408.372 C670.51,415.212 800.13,430.242 839,458.602 C885.74,492.702 904.1337,543.2126 913.3537,578.9526 " fill="none" id="RepoRobotType-to-IRepoRobotType" style="stroke:#FF6655;stroke-width:1.0;"/><polygon fill="none" points="917.85,596.382,919.1635,577.4538,907.5439,580.4514,917.85,596.382" style="stroke:#FF6655;stroke-width:1.0;"/></g><!--link RepoRobot to IRepoRobot--><g id="link_RepoRobot_IRepoRobot"><path codeLine="68" d="M396.93,426.942 C408.46,434.772 421.62,443.362 434,450.602 C531.7,507.752 634.7799,557.579 701.4099,588.579 " fill="none" id="RepoRobot-to-IRepoRobot" style="stroke:#FF6655;stroke-width:1.0;"/><polygon fill="none" points="717.73,596.172,703.9409,583.1389,698.8789,594.019,717.73,596.172" style="stroke:#FF6655;stroke-width:1.0;"/></g><!--link ControllerRobot to IAppServiceRobot--><g id="link_ControllerRobot_IAppServiceRobot"><path codeLine="72" d="M202.77,644.972 C324.42,716.462 685.4669,928.6224 807.0869,1000.0824 " fill="none" id="ControllerRobot-to-IAppServiceRobot" style="stroke:#FF6655;stroke-width:1.0;stroke-dasharray:7.0,7.0;"/><polygon fill="#FF6655" points="812.26,1003.122,806.5267,995.1139,807.9491,1000.589,802.474,1002.0114,812.26,1003.122" style="stroke:#FF6655;stroke-width:1.0;"/></g><!--reverse link IRepoRobotType to AppServiceRobot--><g id="link_IRepoRobotType_AppServiceRobot"><path codeLine="74" d="M921.9818,650.7984 C920.8418,683.6284 918.96,737.302 917.82,770.222 " fill="none" id="IRepoRobotType-backto-AppServiceRobot" style="stroke:#FF6655;stroke-width:1.0;stroke-dasharray:7.0,7.0;"/><polygon fill="#FF6655" points="922.19,644.802,917.8801,653.6577,922.0165,649.799,925.8753,653.9354,922.19,644.802" style="stroke:#FF6655;stroke-width:1.0;"/></g><!--link AppServiceRobot to Robot--><g id="link_AppServiceRobot_Robot"><path codeLine="99" d="M971.24,819.012 C1080.42,866.132 1318.6012,968.9144 1410.4912,1008.5744 " fill="none" id="AppServiceRobot-to-Robot" style="stroke:#FF6655;stroke-width:1.0;stroke-dasharray:7.0,7.0;"/><polygon fill="#FF6655" points="1416,1010.952,1409.3219,1003.713,1411.4093,1008.9706,1406.1517,1011.0581,1416,1010.952" style="stroke:#FF6655;stroke-width:1.0;"/></g><!--reverse link RobotType to Robot--><g id="link_RobotType_Robot"><path codeLine="101" d="M1537.05,1027.482 C1518.62,1027.482 1506.18,1027.482 1487.75,1027.482 " fill="none" id="RobotType-backto-Robot" style="stroke:#FF6655;stroke-width:1.0;"/><polygon fill="#FF6655" points="1543.05,1027.482,1534.05,1023.482,1538.05,1027.482,1534.05,1031.482,1543.05,1027.482" style="stroke:#FF6655;stroke-width:1.0;"/><text fill="#000000" font-family="Impact" font-size="13" lengthAdjust="spacing" textLength="5" x="1530.393" y="1024.602">1</text><text fill="#000000" font-family="Impact" font-size="13" lengthAdjust="spacing" textLength="5" x="1495.6391" y="1024.1381">1</text></g><!--link Robot to RobotCode--><g id="link_Robot_RobotCode"><path codeLine="103" d="M1471.17,1066.452 C1483.91,1087.302 1502.77,1111.332 1527,1123.482 C1556.31,1138.182 1793.64,1115.032 1822,1131.482 C1856.37,1151.412 1874.0347,1189.9093 1883.3247,1217.3293 " fill="none" id="Robot-to-RobotCode" style="stroke:#FF6655;stroke-width:1.0;"/><polygon fill="#FF6655" points="1885.25,1223.012,1886.1505,1213.2044,1883.6456,1218.2764,1878.5735,1215.7715,1885.25,1223.012" style="stroke:#FF6655;stroke-width:1.0;"/><text fill="#000000" font-family="Impact" font-size="13" lengthAdjust="spacing" textLength="5" x="1468.931" y="1087.3341">1</text><text fill="#000000" font-family="Impact" font-size="13" lengthAdjust="spacing" textLength="5" x="1877.7641" y="1212.6494">1</text></g><!--link Robot to RobotNickname--><g id="link_Robot_RobotNickname"><path codeLine="104" d="M1471.65,1066.592 C1484.45,1087.212 1503.2,1110.962 1527,1123.482 C1550.85,1136.032 1624.28,1118.692 1648,1131.482 C1685.46,1151.682 1708.9061,1190.3761 1722.1961,1217.7061 " fill="none" id="Robot-to-RobotNickname" style="stroke:#FF6655;stroke-width:1.0;"/><polygon fill="#FF6655" points="1724.82,1223.102,1724.4814,1213.2589,1722.6334,1218.6054,1717.2869,1216.7575,1724.82,1223.102" style="stroke:#FF6655;stroke-width:1.0;"/><text fill="#000000" font-family="Impact" font-size="13" lengthAdjust="spacing" textLength="5" x="1475.3186" y="1087.4973">1</text><text fill="#000000" font-family="Impact" font-size="13" lengthAdjust="spacing" textLength="5" x="1716.4122" y="1212.7636">1</text></g><!--link Robot to RobotSerialNumber--><g id="link_Robot_RobotSerialNumber"><path codeLine="105" d="M1468.83,1066.702 C1488.73,1111.882 1518.7916,1180.161 1535.2816,1217.601 " fill="none" id="Robot-to-RobotSerialNumber" style="stroke:#FF6655;stroke-width:1.0;"/><polygon fill="#FF6655" points="1537.7,1223.092,1537.733,1213.2432,1535.6846,1218.5161,1530.4117,1216.4678,1537.7,1223.092" style="stroke:#FF6655;stroke-width:1.0;"/><text fill="#000000" font-family="Impact" font-size="13" lengthAdjust="spacing" textLength="5" x="1466.1138" y="1087.3308">1</text><text fill="#000000" font-family="Impact" font-size="13" lengthAdjust="spacing" textLength="5" x="1529.26" y="1212.7509">1</text></g><!--link Robot to RobotDescription--><g id="link_Robot_RobotDescription"><path codeLine="106" d="M1435.17,1066.702 C1415.27,1111.882 1385.2084,1180.161 1368.7184,1217.601 " fill="none" id="Robot-to-RobotDescription" style="stroke:#FF6655;stroke-width:1.0;"/><polygon fill="#FF6655" points="1366.3,1223.092,1373.5883,1216.4678,1368.3154,1218.5161,1366.267,1213.2432,1366.3,1223.092" style="stroke:#FF6655;stroke-width:1.0;"/><text fill="#000000" font-family="Impact" font-size="13" lengthAdjust="spacing" textLength="5" x="1427.0893" y="1087.3308">1</text><text fill="#000000" font-family="Impact" font-size="13" lengthAdjust="spacing" textLength="5" x="1363.3963" y="1212.7509">1</text></g><!--link Robot to RobotState--><g id="link_Robot_RobotState"><path codeLine="107" d="M1416.29,1041.462 C1375.65,1057.612 1309.07,1088.422 1264,1131.482 C1236.12,1158.122 1217.5823,1192.7296 1206.1623,1217.8596 " fill="none" id="Robot-to-RobotState" style="stroke:#FF6655;stroke-width:1.0;"/><polygon fill="#FF6655" points="1203.68,1223.322,1211.0451,1216.7832,1205.7486,1218.77,1203.7619,1213.4735,1203.68,1223.322" style="stroke:#FF6655;stroke-width:1.0;"/><text fill="#000000" font-family="Impact" font-size="13" lengthAdjust="spacing" textLength="5" x="1403.4092" y="1041.0015">1</text><text fill="#000000" font-family="Impact" font-size="13" lengthAdjust="spacing" textLength="5" x="1200.6994" y="1212.6523">1</text></g><!--SRC=[bLLDZzem5BppAonw3gizBASe4Xz5MgcYrLBrMXdpoBeujcKxLBJT_rud0K9Ux21oIlB6C- -D9x4zSAcfeGLXgj1AWdJaxuZuQwMas_0_G9wdzVESiaDkL2bt2oMKITEPfkmTienyuVcxMoX3HGDKPWS6WpwjLjFfoykLUaqB80jL6Wu6BoDRuSL2gcG9e3U7qroKKDTdngZVLxxNmikvjj2ikKX_Z4Q-VA0v47ko3ehpf9UNurUvDzGwKp9N6XYVont8Dp2M-xMITUhLnQK3iwVCjx6SBmq_dWUxN4nGQqclvBlggRofqe750Wr1NNjJM-L251TwafXgLv9_6UhcZBsP-TBrR4UrlxV1kHVUOgE4GFKkrG086TGYkvEWQRhqXHPt51g7Xibldn2I9AMk7Oin1FSAjBBSAH_as8vvHCtp_QHXg1xIwImcar9Fidw6hY0CQ17Nr939938XZiPCQy4PTLn9iW5pv0p2uV308A2xVHuL0w5qjCZ7qd57eN7x0N849KaT3amGwMSe5sZUU41YmA6kkubfUeuhjD51o54eZVY3gRCKDGJxruGJDHECtcVfkFF6FVbZ1PwMgg1SXgENvmPowWQ2TvKQ4se9_McgPrTvqzyKg7HFfBKlJOrIpfzVQThKicpWVzBLlDMxe_M0ZhUgRyCFwWz4ydNx2vYxuqJTrL4rRSK-aXgvK3iOggyvEqX_x0vX_FvpAjPbiKMd8S8jmJB3TVMl6QHpVglZnaI3vsE7ijaKnizZaWZOkoIhxr4i4V0Mr34dWkaP5C45JOfWGqR5Q6kppj_Nn-W_]--></g></svg>