<?xml version="1.0" encoding="us-ascii" standalone="no"?><svg xmlns="http://www.w3.org/2000/svg" xmlns:xlink="http://www.w3.org/1999/xlink" contentStyleType="text/css" height="820px" preserveAspectRatio="none" style="width:1021px;height:820px;background:#FFFFFF;" version="1.1" viewBox="0 0 1021 820" width="1021px" zoomAndPan="magnify"><defs/><g><rect fill="#FFFFFF" height="610.708" style="stroke:#181818;stroke-width:1.0;" width="10" x="198" y="103.7739"/><rect fill="#FFFFFF" height="547.2959" style="stroke:#181818;stroke-width:1.0;" width="10" x="321" y="135.4799"/><rect fill="#FFFFFF" height="483.8839" style="stroke:#181818;stroke-width:1.0;" width="10" x="444" y="167.186"/><rect fill="#FFFFFF" height="93.412" style="stroke:#181818;stroke-width:1.0;" width="10" x="617" y="198.892"/><rect fill="#FFFFFF" height="30" style="stroke:#181818;stroke-width:1.0;" width="10" x="696.5" y="462.816"/><rect fill="#FFFFFF" height="94.8419" style="stroke:#181818;stroke-width:1.0;" width="10" x="767" y="524.522"/><rect fill="#FFFFFF" height="53.1358" style="stroke:#181818;stroke-width:1.0;" width="10" x="914.5" y="566.228"/><rect fill="#FFFFFF" height="30" style="stroke:#181818;stroke-width:1.0;" width="10" x="980.5" y="230.598"/><rect fill="none" height="415.1779" style="stroke:#000000;stroke-width:1.5;" width="948" x="3" y="307.304"/><line style="stroke:#181818;stroke-width:0.5;stroke-dasharray:5.0,5.0;" x1="202.5" x2="202.5" y1="70.0679" y2="739.4819"/><line style="stroke:#181818;stroke-width:0.5;stroke-dasharray:5.0,5.0;" x1="325.5" x2="325.5" y1="70.0679" y2="739.4819"/><line style="stroke:#181818;stroke-width:0.5;stroke-dasharray:5.0,5.0;" x1="449" x2="449" y1="70.0679" y2="739.4819"/><line style="stroke:#181818;stroke-width:0.5;stroke-dasharray:5.0,5.0;" x1="621.5" x2="621.5" y1="70.0679" y2="739.4819"/><line style="stroke:#181818;stroke-width:0.5;stroke-dasharray:5.0,5.0;" x1="701.5" x2="701.5" y1="70.0679" y2="739.4819"/><line style="stroke:#181818;stroke-width:0.5;stroke-dasharray:5.0,5.0;" x1="771.5" x2="771.5" y1="70.0679" y2="739.4819"/><line style="stroke:#181818;stroke-width:0.5;stroke-dasharray:5.0,5.0;" x1="919" x2="919" y1="574.0899" y2="739.4819"/><line style="stroke:#181818;stroke-width:0.5;stroke-dasharray:5.0,5.0;" x1="985" x2="985" y1="70.0679" y2="739.4819"/><rect fill="#E2E2F0" height="33.0679" rx="2.5" ry="2.5" style="stroke:#181818;stroke-width:0.5;" width="53" x="176.5" y="36"/><text fill="#000000" font-family="sans-serif" font-size="14" lengthAdjust="spacing" textLength="39" x="183.5" y="57.9659">Route</text><rect fill="#E2E2F0" height="33.0679" rx="2.5" ry="2.5" style="stroke:#181818;stroke-width:0.5;" width="53" x="176.5" y="738.4819"/><text fill="#000000" font-family="sans-serif" font-size="14" lengthAdjust="spacing" textLength="39" x="183.5" y="760.4478">Route</text><rect fill="#E2E2F0" height="33.0679" rx="2.5" ry="2.5" style="stroke:#181818;stroke-width:0.5;" width="81" x="285.5" y="36"/><text fill="#000000" font-family="sans-serif" font-size="14" lengthAdjust="spacing" textLength="67" x="292.5" y="57.9659">Controller</text><rect fill="#E2E2F0" height="33.0679" rx="2.5" ry="2.5" style="stroke:#181818;stroke-width:0.5;" width="81" x="285.5" y="738.4819"/><text fill="#000000" font-family="sans-serif" font-size="14" lengthAdjust="spacing" textLength="67" x="292.5" y="760.4478">Controller</text><rect fill="#E2E2F0" height="33.0679" rx="2.5" ry="2.5" style="stroke:#181818;stroke-width:0.5;" width="62" x="418" y="36"/><text fill="#000000" font-family="sans-serif" font-size="14" lengthAdjust="spacing" textLength="48" x="425" y="57.9659">Service</text><rect fill="#E2E2F0" height="33.0679" rx="2.5" ry="2.5" style="stroke:#181818;stroke-width:0.5;" width="62" x="418" y="738.4819"/><text fill="#000000" font-family="sans-serif" font-size="14" lengthAdjust="spacing" textLength="48" x="425" y="760.4478">Service</text><rect fill="#E2E2F0" height="33.0679" rx="2.5" ry="2.5" style="stroke:#181818;stroke-width:0.5;" width="85" x="579.5" y="36"/><text fill="#000000" font-family="sans-serif" font-size="14" lengthAdjust="spacing" textLength="71" x="586.5" y="57.9659">Repository</text><rect fill="#E2E2F0" height="33.0679" rx="2.5" ry="2.5" style="stroke:#181818;stroke-width:0.5;" width="85" x="579.5" y="738.4819"/><text fill="#000000" font-family="sans-serif" font-size="14" lengthAdjust="spacing" textLength="71" x="586.5" y="760.4478">Repository</text><rect fill="#E2E2F0" height="52.1358" rx="2.5" ry="2.5" style="stroke:#181818;stroke-width:0.5;" width="54" x="674.5" y="16.9321"/><text fill="#000000" font-family="sans-serif" font-size="14" lengthAdjust="spacing" textLength="40" x="681.5" y="38.898">robot:</text><text fill="#000000" font-family="sans-serif" font-size="14" lengthAdjust="spacing" textLength="39" x="682" y="57.9659">Robot</text><rect fill="#E2E2F0" height="52.1358" rx="2.5" ry="2.5" style="stroke:#181818;stroke-width:0.5;" width="54" x="674.5" y="738.4819"/><text fill="#000000" font-family="sans-serif" font-size="14" lengthAdjust="spacing" textLength="40" x="681.5" y="760.4478">robot:</text><text fill="#000000" font-family="sans-serif" font-size="14" lengthAdjust="spacing" textLength="39" x="682" y="779.5158">Robot</text><rect fill="#E2E2F0" height="33.0679" rx="2.5" ry="2.5" style="stroke:#181818;stroke-width:0.5;" width="67" x="738.5" y="36"/><text fill="#000000" font-family="sans-serif" font-size="14" lengthAdjust="spacing" textLength="53" x="745.5" y="57.9659">Mapper</text><rect fill="#E2E2F0" height="33.0679" rx="2.5" ry="2.5" style="stroke:#181818;stroke-width:0.5;" width="67" x="738.5" y="738.4819"/><text fill="#000000" font-family="sans-serif" font-size="14" lengthAdjust="spacing" textLength="53" x="745.5" y="760.4478">Mapper</text><rect fill="#E2E2F0" height="52.1358" rx="2.5" ry="2.5" style="stroke:#181818;stroke-width:0.5;" width="43" x="898" y="738.4819"/><text fill="#000000" font-family="sans-serif" font-size="14" lengthAdjust="spacing" textLength="26" x="906.5" y="760.4478">dto:</text><text fill="#000000" font-family="sans-serif" font-size="14" lengthAdjust="spacing" textLength="29" x="905" y="779.5158">DTO</text><text fill="#000000" font-family="sans-serif" font-size="14" lengthAdjust="spacing" textLength="63" x="951" y="65.9659">Database</text><path d="M967.5,15 C967.5,5 985.5,5 985.5,5 C985.5,5 1003.5,5 1003.5,15 L1003.5,41 C1003.5,51 985.5,51 985.5,51 C985.5,51 967.5,51 967.5,41 L967.5,15 " fill="#E2E2F0" style="stroke:#181818;stroke-width:1.5;"/><path d="M967.5,15 C967.5,25 985.5,25 985.5,25 C985.5,25 1003.5,25 1003.5,15 " fill="none" style="stroke:#181818;stroke-width:1.5;"/><text fill="#000000" font-family="sans-serif" font-size="14" lengthAdjust="spacing" textLength="63" x="951" y="753.4478">Database</text><path d="M967.5,767.5498 C967.5,757.5498 985.5,757.5498 985.5,757.5498 C985.5,757.5498 1003.5,757.5498 1003.5,767.5498 L1003.5,793.5498 C1003.5,803.5498 985.5,803.5498 985.5,803.5498 C985.5,803.5498 967.5,803.5498 967.5,793.5498 L967.5,767.5498 " fill="#E2E2F0" style="stroke:#181818;stroke-width:1.5;"/><path d="M967.5,767.5498 C967.5,777.5498 985.5,777.5498 985.5,777.5498 C985.5,777.5498 1003.5,777.5498 1003.5,767.5498 " fill="none" style="stroke:#181818;stroke-width:1.5;"/><rect fill="#FFFFFF" height="610.708" style="stroke:#181818;stroke-width:1.0;" width="10" x="198" y="103.7739"/><rect fill="#FFFFFF" height="547.2959" style="stroke:#181818;stroke-width:1.0;" width="10" x="321" y="135.4799"/><rect fill="#FFFFFF" height="483.8839" style="stroke:#181818;stroke-width:1.0;" width="10" x="444" y="167.186"/><rect fill="#FFFFFF" height="93.412" style="stroke:#181818;stroke-width:1.0;" width="10" x="617" y="198.892"/><rect fill="#FFFFFF" height="30" style="stroke:#181818;stroke-width:1.0;" width="10" x="696.5" y="462.816"/><rect fill="#FFFFFF" height="94.8419" style="stroke:#181818;stroke-width:1.0;" width="10" x="767" y="524.522"/><rect fill="#FFFFFF" height="53.1358" style="stroke:#181818;stroke-width:1.0;" width="10" x="914.5" y="566.228"/><rect fill="#FFFFFF" height="30" style="stroke:#181818;stroke-width:1.0;" width="10" x="980.5" y="230.598"/><polygon fill="#181818" points="186,99.7739,196,103.7739,186,107.7739,190,103.7739" style="stroke:#181818;stroke-width:1.0;"/><line style="stroke:#181818;stroke-width:1.0;" x1="0" x2="192" y1="103.7739" y2="103.7739"/><text fill="#000000" font-family="sans-serif" font-size="13" font-weight="bold" lengthAdjust="spacing" textLength="7" x="7" y="97.9649">1</text><text fill="#000000" font-family="sans-serif" font-size="13" lengthAdjust="spacing" textLength="161" x="18" y="97.9649">PATCH /robots/{:id}/inhibit</text><polygon fill="#181818" points="309,131.4799,319,135.4799,309,139.4799,313,135.4799" style="stroke:#181818;stroke-width:1.0;"/><line style="stroke:#181818;stroke-width:1.0;" x1="208" x2="315" y1="135.4799" y2="135.4799"/><text fill="#000000" font-family="sans-serif" font-size="13" font-weight="bold" lengthAdjust="spacing" textLength="7" x="215" y="129.6709">2</text><text fill="#000000" font-family="sans-serif" font-size="13" lengthAdjust="spacing" textLength="83" x="226" y="129.6709">inhibitRobot()</text><polygon fill="#181818" points="432,163.186,442,167.186,432,171.186,436,167.186" style="stroke:#181818;stroke-width:1.0;"/><line style="stroke:#181818;stroke-width:1.0;" x1="331" x2="438" y1="167.186" y2="167.186"/><text fill="#000000" font-family="sans-serif" font-size="13" font-weight="bold" lengthAdjust="spacing" textLength="7" x="338" y="161.377">3</text><text fill="#000000" font-family="sans-serif" font-size="13" lengthAdjust="spacing" textLength="83" x="349" y="161.377">inhibitRobot()</text><polygon fill="#181818" points="605,194.892,615,198.892,605,202.892,609,198.892" style="stroke:#181818;stroke-width:1.0;"/><line style="stroke:#181818;stroke-width:1.0;" x1="454" x2="611" y1="198.892" y2="198.892"/><text fill="#000000" font-family="sans-serif" font-size="13" font-weight="bold" lengthAdjust="spacing" textLength="7" x="461" y="193.083">4</text><text fill="#000000" font-family="sans-serif" font-size="13" lengthAdjust="spacing" textLength="133" x="472" y="193.083">findRobot(robotCode)</text><polygon fill="#181818" points="968.5,226.598,978.5,230.598,968.5,234.598,972.5,230.598" style="stroke:#181818;stroke-width:1.0;"/><line style="stroke:#181818;stroke-width:1.0;" x1="627" x2="974.5" y1="230.598" y2="230.598"/><text fill="#000000" font-family="sans-serif" font-size="13" font-weight="bold" lengthAdjust="spacing" textLength="7" x="634" y="224.789">5</text><text fill="#000000" font-family="sans-serif" font-size="13" lengthAdjust="spacing" textLength="31" x="645" y="224.789">find()</text><polygon fill="#181818" points="465,288.304,455,292.304,465,296.304,461,292.304" style="stroke:#181818;stroke-width:1.0;"/><line style="stroke:#181818;stroke-width:1.0;stroke-dasharray:2.0,2.0;" x1="459" x2="621" y1="292.304" y2="292.304"/><text fill="#000000" font-family="sans-serif" font-size="13" font-weight="bold" lengthAdjust="spacing" textLength="7" x="471" y="286.495">6</text><text fill="#000000" font-family="sans-serif" font-size="13" lengthAdjust="spacing" textLength="34" x="482" y="286.495">robot</text><path d="M3,307.304 L66,307.304 L66,317.01 L56,327.01 L3,327.01 L3,307.304 " fill="#EEEEEE" style="stroke:#000000;stroke-width:1.5;"/><rect fill="none" height="415.1779" style="stroke:#000000;stroke-width:1.5;" width="948" x="3" y="307.304"/><text fill="#000000" font-family="sans-serif" font-size="13" font-weight="bold" lengthAdjust="spacing" textLength="18" x="18" y="322.201">alt</text><text fill="#000000" font-family="sans-serif" font-size="11" font-weight="bold" lengthAdjust="spacing" textLength="96" x="81" y="321.0629">[robot not found]</text><polygon fill="#181818" points="342,346.716,332,350.716,342,354.716,338,350.716" style="stroke:#181818;stroke-width:1.0;"/><line style="stroke:#181818;stroke-width:1.0;stroke-dasharray:2.0,2.0;" x1="336" x2="443" y1="350.716" y2="350.716"/><text fill="#000000" font-family="sans-serif" font-size="13" font-weight="bold" lengthAdjust="spacing" textLength="7" x="348" y="344.907">7</text><text fill="#000000" font-family="sans-serif" font-size="13" lengthAdjust="spacing" textLength="30" x="359" y="344.907">error</text><polygon fill="#181818" points="219,378.4221,209,382.4221,219,386.4221,215,382.4221" style="stroke:#181818;stroke-width:1.0;"/><line style="stroke:#181818;stroke-width:1.0;stroke-dasharray:2.0,2.0;" x1="213" x2="320" y1="382.4221" y2="382.4221"/><text fill="#000000" font-family="sans-serif" font-size="13" font-weight="bold" lengthAdjust="spacing" textLength="7" x="225" y="376.6131">8</text><text fill="#000000" font-family="sans-serif" font-size="13" lengthAdjust="spacing" textLength="62" x="236" y="376.6131">error (404)</text><polygon fill="#181818" points="11,410.1281,1,414.1281,11,418.1281,7,414.1281" style="stroke:#181818;stroke-width:1.0;"/><line style="stroke:#181818;stroke-width:1.0;stroke-dasharray:2.0,2.0;" x1="5" x2="197" y1="414.1281" y2="414.1281"/><text fill="#000000" font-family="sans-serif" font-size="13" font-weight="bold" lengthAdjust="spacing" textLength="7" x="17" y="408.3191">9</text><text fill="#000000" font-family="sans-serif" font-size="13" lengthAdjust="spacing" textLength="62" x="28" y="408.3191">error (404)</text><line style="stroke:#000000;stroke-width:1.0;stroke-dasharray:2.0,2.0;" x1="3" x2="951" y1="423.1281" y2="423.1281"/><text fill="#000000" font-family="sans-serif" font-size="11" font-weight="bold" lengthAdjust="spacing" textLength="74" x="8" y="434.887">[robot found]</text><polygon fill="#181818" points="684.5,458.816,694.5,462.816,684.5,466.816,688.5,462.816" style="stroke:#181818;stroke-width:1.0;"/><line style="stroke:#181818;stroke-width:1.0;" x1="454" x2="690.5" y1="462.816" y2="462.816"/><text fill="#000000" font-family="sans-serif" font-size="13" font-weight="bold" lengthAdjust="spacing" textLength="14" x="461" y="457.007">10</text><text fill="#000000" font-family="sans-serif" font-size="13" lengthAdjust="spacing" textLength="46" x="479" y="457.007">inhibit()</text><polygon fill="#181818" points="755,520.522,765,524.522,755,528.522,759,524.522" style="stroke:#181818;stroke-width:1.0;"/><line style="stroke:#181818;stroke-width:1.0;" x1="454" x2="761" y1="524.522" y2="524.522"/><text fill="#000000" font-family="sans-serif" font-size="13" font-weight="bold" lengthAdjust="spacing" textLength="14" x="461" y="518.713">11</text><text fill="#000000" font-family="sans-serif" font-size="13" lengthAdjust="spacing" textLength="81" x="479" y="518.713">toDTO(robot)</text><polygon fill="#181818" points="886,552.228,896,556.228,886,560.228,890,556.228" style="stroke:#181818;stroke-width:1.0;"/><line style="stroke:#181818;stroke-width:1.0;stroke-dasharray:2.0,2.0;" x1="777" x2="892" y1="556.228" y2="556.228"/><text fill="#000000" font-family="sans-serif" font-size="13" font-weight="bold" lengthAdjust="spacing" textLength="14" x="784" y="550.419">12</text><text fill="#000000" font-family="sans-serif" font-size="13" lengthAdjust="spacing" textLength="79" x="802" y="550.419">create(robot)</text><rect fill="#E2E2F0" height="52.1358" rx="2.5" ry="2.5" style="stroke:#181818;stroke-width:0.5;" width="43" x="898" y="532.522"/><text fill="#000000" font-family="sans-serif" font-size="14" lengthAdjust="spacing" textLength="26" x="906.5" y="554.4879">dto:</text><text fill="#000000" font-family="sans-serif" font-size="14" lengthAdjust="spacing" textLength="29" x="905" y="573.5559">DTO</text><polygon fill="#181818" points="465,615.3639,455,619.3639,465,623.3639,461,619.3639" style="stroke:#181818;stroke-width:1.0;"/><line style="stroke:#181818;stroke-width:1.0;stroke-dasharray:2.0,2.0;" x1="459" x2="771" y1="619.3639" y2="619.3639"/><text fill="#000000" font-family="sans-serif" font-size="13" font-weight="bold" lengthAdjust="spacing" textLength="14" x="471" y="613.5549">13</text><text fill="#000000" font-family="sans-serif" font-size="13" lengthAdjust="spacing" textLength="21" x="489" y="613.5549">dto</text><polygon fill="#181818" points="342,647.0699,332,651.0699,342,655.0699,338,651.0699" style="stroke:#181818;stroke-width:1.0;"/><line style="stroke:#181818;stroke-width:1.0;stroke-dasharray:2.0,2.0;" x1="336" x2="448" y1="651.0699" y2="651.0699"/><text fill="#000000" font-family="sans-serif" font-size="13" font-weight="bold" lengthAdjust="spacing" textLength="14" x="348" y="645.2609">14</text><text fill="#000000" font-family="sans-serif" font-size="13" lengthAdjust="spacing" textLength="21" x="366" y="645.2609">dto</text><polygon fill="#181818" points="219,678.7759,209,682.7759,219,686.7759,215,682.7759" style="stroke:#181818;stroke-width:1.0;"/><line style="stroke:#181818;stroke-width:1.0;stroke-dasharray:2.0,2.0;" x1="213" x2="325" y1="682.7759" y2="682.7759"/><text fill="#000000" font-family="sans-serif" font-size="13" font-weight="bold" lengthAdjust="spacing" textLength="14" x="225" y="676.9669">15</text><text fill="#000000" font-family="sans-serif" font-size="13" lengthAdjust="spacing" textLength="53" x="243" y="676.9669">dto (200)</text><polygon fill="#181818" points="11,710.4819,1,714.4819,11,718.4819,7,714.4819" style="stroke:#181818;stroke-width:1.0;"/><line style="stroke:#181818;stroke-width:1.0;stroke-dasharray:2.0,2.0;" x1="5" x2="202" y1="714.4819" y2="714.4819"/><text fill="#000000" font-family="sans-serif" font-size="13" font-weight="bold" lengthAdjust="spacing" textLength="14" x="17" y="708.6729">16</text><text fill="#000000" font-family="sans-serif" font-size="13" lengthAdjust="spacing" textLength="53" x="35" y="708.6729">dto (200)</text><!--SRC=[XLDDRzim3BthLn2vB2aG9DroCee0HOfXbs93rvtQYspHZJ1NCcGvGpVilu_wc2D_fRh42jzxfCX7tbgjsjSS3MCrDrOMikRAmk91jnONm1im_S11AsjqLQ7nqSAQgW_uZkOaYy1jJiL05clTIAlDMz2cwo2nqRcssRDwSBy1vBxwe7jUrx60LrxtOy9gejyzVlLXkZ4ckEKvRn0MT_4hn7B6djPxC931jzl7mnVO-5pDvaycnT-DL4UPIyjuOUM9MwHM09qFeBIxo9UZ9UO9ZIpVG9RGDcX0Di3XMPKLegNY57_1_pHUMMZLJ_rBUMZyrnq3QwgZbIItsrvdy4FnrXwraRzHH1XMLB_FGDbX51wfVChWipQv50BLI2AXiyZS-r4IDRxQzt-vyk6k0NxQ48_74u-6F4thKPqL83cEvNfF3Y1sAPK8L3-1WnQuwi7FCt2MWS7nAgGcygYrN8qmdGADVHWJc4PdvBkd1aFEy8EbUubfx9xY9rVgLebH1j-DympG66r6eD3mQ5WFWULkkni_zUbclRu8yau8DOLwfWlQHqmttKjj7NTbs1aFcCj4UqnvhAR53HwuaChjF4mSf-7wGqiFLrSP50O9FYVNDuNLau1KDan_3fbwQ0AIX5tvxpaWbKYeRelOf1_ScvSVjzlmpeJIxMpdYZCqdGvZ3Ca9_m00]--></g></svg>