<?xml version="1.0" encoding="us-ascii" standalone="no"?><svg xmlns="http://www.w3.org/2000/svg" xmlns:xlink="http://www.w3.org/1999/xlink" contentStyleType="text/css" height="538px" preserveAspectRatio="none" style="width:552px;height:538px;background:#FFFFFF;" version="1.1" viewBox="0 0 552 538" width="552px" zoomAndPan="magnify"><defs/><g><rect fill="#FFFFFF" height="342.4722" style="stroke:#181818;stroke-width:1.0;" width="10" x="50.5" y="94.0679"/><rect fill="#FFFFFF" height="298.0602" style="stroke:#181818;stroke-width:1.0;" width="10" x="187.5" y="138.4799"/><rect fill="#FFFFFF" height="158.5301" style="stroke:#181818;stroke-width:1.0;" width="10" x="421.5" y="278.01"/><rect fill="#FFFFFF" height="63.412" style="stroke:#181818;stroke-width:1.0;" width="10" x="504.5" y="309.716"/><line style="stroke:#181818;stroke-width:0.5;stroke-dasharray:5.0,5.0;" x1="55" x2="55" y1="84.0679" y2="454.5401"/><line style="stroke:#181818;stroke-width:0.5;stroke-dasharray:5.0,5.0;" x1="192" x2="192" y1="84.0679" y2="454.5401"/><line style="stroke:#181818;stroke-width:0.5;stroke-dasharray:5.0,5.0;" x1="426" x2="426" y1="84.0679" y2="454.5401"/><line style="stroke:#181818;stroke-width:0.5;stroke-dasharray:5.0,5.0;" x1="509.5" x2="509.5" y1="84.0679" y2="454.5401"/><text fill="#000000" font-family="sans-serif" font-size="14" lengthAdjust="spacing" textLength="95" x="5" y="79.9659">Task Manager</text><ellipse cx="55.5" cy="13.5" fill="#E2E2F0" rx="8" ry="8" style="stroke:#181818;stroke-width:0.5;"/><path d="M55.5,21.5 L55.5,48.5 M42.5,29.5 L68.5,29.5 M55.5,48.5 L42.5,63.5 M55.5,48.5 L68.5,63.5 " fill="none" style="stroke:#181818;stroke-width:0.5;"/><text fill="#000000" font-family="sans-serif" font-size="14" lengthAdjust="spacing" textLength="95" x="5" y="468.5061">Task Manager</text><ellipse cx="55.5" cy="481.108" fill="#E2E2F0" rx="8" ry="8" style="stroke:#181818;stroke-width:0.5;"/><path d="M55.5,489.108 L55.5,516.108 M42.5,497.108 L68.5,497.108 M55.5,516.108 L42.5,531.108 M55.5,516.108 L68.5,531.108 " fill="none" style="stroke:#181818;stroke-width:0.5;"/><rect fill="#E2E2F0" height="33.0679" rx="2.5" ry="2.5" style="stroke:#181818;stroke-width:0.5;" width="29" x="178" y="50"/><text fill="#000000" font-family="sans-serif" font-size="14" lengthAdjust="spacing" textLength="15" x="185" y="71.9659">FE</text><rect fill="#E2E2F0" height="33.0679" rx="2.5" ry="2.5" style="stroke:#181818;stroke-width:0.5;" width="29" x="178" y="453.5401"/><text fill="#000000" font-family="sans-serif" font-size="14" lengthAdjust="spacing" textLength="15" x="185" y="475.5061">FE</text><rect fill="#E2E2F0" height="33.0679" rx="2.5" ry="2.5" style="stroke:#181818;stroke-width:0.5;" width="37" x="408" y="50"/><text fill="#000000" font-family="sans-serif" font-size="14" lengthAdjust="spacing" textLength="23" x="415" y="71.9659">MD</text><rect fill="#E2E2F0" height="33.0679" rx="2.5" ry="2.5" style="stroke:#181818;stroke-width:0.5;" width="37" x="408" y="453.5401"/><text fill="#000000" font-family="sans-serif" font-size="14" lengthAdjust="spacing" textLength="23" x="415" y="475.5061">MD</text><rect fill="#E2E2F0" height="33.0679" rx="2.5" ry="2.5" style="stroke:#181818;stroke-width:0.5;" width="74" x="472.5" y="50"/><text fill="#000000" font-family="sans-serif" font-size="14" lengthAdjust="spacing" textLength="60" x="479.5" y="71.9659">Planning</text><rect fill="#E2E2F0" height="33.0679" rx="2.5" ry="2.5" style="stroke:#181818;stroke-width:0.5;" width="74" x="472.5" y="453.5401"/><text fill="#000000" font-family="sans-serif" font-size="14" lengthAdjust="spacing" textLength="60" x="479.5" y="475.5061">Planning</text><rect fill="#FFFFFF" height="342.4722" style="stroke:#181818;stroke-width:1.0;" width="10" x="50.5" y="94.0679"/><rect fill="#FFFFFF" height="298.0602" style="stroke:#181818;stroke-width:1.0;" width="10" x="187.5" y="138.4799"/><rect fill="#FFFFFF" height="158.5301" style="stroke:#181818;stroke-width:1.0;" width="10" x="421.5" y="278.01"/><rect fill="#FFFFFF" height="63.412" style="stroke:#181818;stroke-width:1.0;" width="10" x="504.5" y="309.716"/><polygon fill="#181818" points="175.5,134.4799,185.5,138.4799,175.5,142.4799,179.5,138.4799" style="stroke:#181818;stroke-width:1.0;"/><line style="stroke:#181818;stroke-width:1.0;" x1="60.5" x2="181.5" y1="138.4799" y2="138.4799"/><text fill="#000000" font-family="sans-serif" font-size="13" font-weight="bold" lengthAdjust="spacing" textLength="7" x="67.5" y="132.6709">1</text><text fill="#000000" font-family="sans-serif" font-size="13" lengthAdjust="spacing" textLength="92" x="78.5" y="132.6709">chooses room1</text><path d="M202,99.0679 L202,162.0679 L354,162.0679 L354,109.0679 L344,99.0679 L202,99.0679 " fill="#FEFFDD" style="stroke:#181818;stroke-width:0.5;"/><path d="M344,99.0679 L344,109.0679 L354,109.0679 L344,99.0679 " fill="#FEFFDD" style="stroke:#181818;stroke-width:0.5;"/><text fill="#000000" font-family="sans-serif" font-size="13" lengthAdjust="spacing" textLength="116" x="208" y="117.9649">see documentation</text><text fill="#000000" font-family="sans-serif" font-size="13" lengthAdjust="spacing" textLength="131" x="208" y="135.6709">for selecting buildings</text><text fill="#000000" font-family="sans-serif" font-size="13" lengthAdjust="spacing" textLength="34" x="208" y="153.377">floors</text><polygon fill="#181818" points="175.5,186.892,185.5,190.892,175.5,194.892,179.5,190.892" style="stroke:#181818;stroke-width:1.0;"/><line style="stroke:#181818;stroke-width:1.0;" x1="60.5" x2="181.5" y1="190.892" y2="190.892"/><text fill="#000000" font-family="sans-serif" font-size="13" font-weight="bold" lengthAdjust="spacing" textLength="7" x="67.5" y="185.083">2</text><text fill="#000000" font-family="sans-serif" font-size="13" lengthAdjust="spacing" textLength="92" x="78.5" y="185.083">chooses room2</text><polygon fill="#181818" points="175.5,230.451,185.5,234.451,175.5,238.451,179.5,234.451" style="stroke:#181818;stroke-width:1.0;"/><line style="stroke:#181818;stroke-width:1.0;" x1="60.5" x2="181.5" y1="234.451" y2="234.451"/><text fill="#000000" font-family="sans-serif" font-size="13" font-weight="bold" lengthAdjust="spacing" textLength="7" x="67.5" y="228.642">3</text><text fill="#000000" font-family="sans-serif" font-size="13" lengthAdjust="spacing" textLength="91" x="78.5" y="228.642">chosses criteria</text><path d="M202,203.892 L202,248.892 L303,248.892 L303,213.892 L293,203.892 L202,203.892 " fill="#FEFFDD" style="stroke:#181818;stroke-width:0.5;"/><path d="M293,203.892 L293,213.892 L303,213.892 L293,203.892 " fill="#FEFFDD" style="stroke:#181818;stroke-width:0.5;"/><text fill="#000000" font-family="sans-serif" font-size="13" lengthAdjust="spacing" textLength="80" x="208" y="222.789">less elevators</text><text fill="#000000" font-family="sans-serif" font-size="13" lengthAdjust="spacing" textLength="80" x="208" y="240.495">less buildings</text><polygon fill="#181818" points="409.5,274.01,419.5,278.01,409.5,282.01,413.5,278.01" style="stroke:#181818;stroke-width:1.0;"/><line style="stroke:#181818;stroke-width:1.0;" x1="197.5" x2="415.5" y1="278.01" y2="278.01"/><text fill="#000000" font-family="sans-serif" font-size="13" font-weight="bold" lengthAdjust="spacing" textLength="7" x="204.5" y="272.201">4</text><text fill="#000000" font-family="sans-serif" font-size="13" lengthAdjust="spacing" textLength="194" x="215.5" y="272.201">findRoute(room1,room2,criteria)</text><polygon fill="#181818" points="492.5,305.716,502.5,309.716,492.5,313.716,496.5,309.716" style="stroke:#181818;stroke-width:1.0;"/><line style="stroke:#181818;stroke-width:1.0;" x1="431.5" x2="498.5" y1="309.716" y2="309.716"/><text fill="#000000" font-family="sans-serif" font-size="13" font-weight="bold" lengthAdjust="spacing" textLength="7" x="438.5" y="303.907">5</text><text fill="#000000" font-family="sans-serif" font-size="13" lengthAdjust="spacing" textLength="42" x="449.5" y="303.907">paths()</text><polygon fill="#181818" points="442.5,337.4221,432.5,341.4221,442.5,345.4221,438.5,341.4221" style="stroke:#181818;stroke-width:1.0;"/><line style="stroke:#181818;stroke-width:1.0;stroke-dasharray:2.0,2.0;" x1="436.5" x2="503.5" y1="341.4221" y2="341.4221"/><text fill="#000000" font-family="sans-serif" font-size="13" font-weight="bold" lengthAdjust="spacing" textLength="7" x="448.5" y="335.6131">6</text><text fill="#000000" font-family="sans-serif" font-size="13" lengthAdjust="spacing" textLength="38" x="459.5" y="335.6131">gets....</text><polygon fill="#181818" points="442.5,369.1281,432.5,373.1281,442.5,377.1281,438.5,373.1281" style="stroke:#181818;stroke-width:1.0;"/><line style="stroke:#181818;stroke-width:1.0;stroke-dasharray:2.0,2.0;" x1="436.5" x2="508.5" y1="373.1281" y2="373.1281"/><text fill="#000000" font-family="sans-serif" font-size="13" font-weight="bold" lengthAdjust="spacing" textLength="7" x="448.5" y="367.3191">7</text><text fill="#000000" font-family="sans-serif" font-size="13" lengthAdjust="spacing" textLength="34" x="459.5" y="367.3191">paths</text><polygon fill="#181818" points="208.5,400.8341,198.5,404.8341,208.5,408.8341,204.5,404.8341" style="stroke:#181818;stroke-width:1.0;"/><line style="stroke:#181818;stroke-width:1.0;stroke-dasharray:2.0,2.0;" x1="202.5" x2="420.5" y1="404.8341" y2="404.8341"/><text fill="#000000" font-family="sans-serif" font-size="13" font-weight="bold" lengthAdjust="spacing" textLength="7" x="214.5" y="399.0251">8</text><text fill="#000000" font-family="sans-serif" font-size="13" lengthAdjust="spacing" textLength="34" x="225.5" y="399.0251">paths</text><polygon fill="#181818" points="66.5,432.5401,56.5,436.5401,66.5,440.5401,62.5,436.5401" style="stroke:#181818;stroke-width:1.0;"/><line style="stroke:#181818;stroke-width:1.0;stroke-dasharray:2.0,2.0;" x1="60.5" x2="191.5" y1="436.5401" y2="436.5401"/><text fill="#000000" font-family="sans-serif" font-size="13" font-weight="bold" lengthAdjust="spacing" textLength="7" x="72.5" y="430.7311">9</text><text fill="#000000" font-family="sans-serif" font-size="13" lengthAdjust="spacing" textLength="34" x="83.5" y="430.7311">paths</text><!--SRC=[RLB1JiCm3BttAwoUDcb3WcCFd83R98GuxkArNckHEbMSyFsuwLfQc2-9ttFUYvrWYbvIVw5G55X77w3yHFs24mgs54f0XQH63XWYrpoWH2ZVNYU2j_3f9SDziuNV7Ogmj9aSN3RYRuoKbS72LZW-cnvK07NdlP92yBv_pFHlFUTSlEq3jrs4IecWyNNgII96zdAMgtMXvCXEIGkNnAwnZHhXl0-wTQmsVaztI1t9Ed2amFZF7nofWhdP1KtyB3bVJ2Sz7kNwngglBCs7Jv5skRr3DZtCwljYswzD4cvXfqrZSAOnOEnqjr-efTncEsDZvN4sRIdgWyLzDiijL4DhkMAslerZgbsQ6b4D2pmHAmMx_r_8dd2TsGVu0G00]--></g></svg>