<?xml version="1.0" encoding="us-ascii" standalone="no"?><svg xmlns="http://www.w3.org/2000/svg" xmlns:xlink="http://www.w3.org/1999/xlink" contentStyleType="text/css" height="657px" preserveAspectRatio="none" style="width:767px;height:657px;background:#FFFFFF;" version="1.1" viewBox="0 0 767 657" width="767px" zoomAndPan="magnify"><defs/><g><rect fill="#FFFFFF" height="474.6133" style="stroke:#181818;stroke-width:1.0;" width="10" x="78" y="91.4883"/><rect fill="#FFFFFF" height="93.9316" style="stroke:#181818;stroke-width:1.0;" width="10" x="344" y="112.7988"/><rect fill="#FFFFFF" height="93.9316" style="stroke:#181818;stroke-width:1.0;" width="10" x="344" y="236.041"/><rect fill="#FFFFFF" height="206.8184" style="stroke:#181818;stroke-width:1.0;" width="10" x="344" y="359.2832"/><rect fill="#FFFFFF" height="32.3105" style="stroke:#181818;stroke-width:1.0;" width="10" x="561" y="142.1094"/><rect fill="#FFFFFF" height="32.3105" style="stroke:#181818;stroke-width:1.0;" width="10" x="561" y="265.3516"/><rect fill="#FFFFFF" height="174.5078" style="stroke:#181818;stroke-width:1.0;" width="10" x="561" y="391.5938"/><rect fill="none" height="149.5078" style="stroke:#000000;stroke-width:1.5;" width="614" x="10" y="409.5938"/><line style="stroke:#181818;stroke-width:0.5;stroke-dasharray:5.0,5.0;" x1="83" x2="83" y1="81.4883" y2="576.1016"/><line style="stroke:#181818;stroke-width:0.5;stroke-dasharray:5.0,5.0;" x1="349" x2="349" y1="81.4883" y2="576.1016"/><line style="stroke:#181818;stroke-width:0.5;stroke-dasharray:5.0,5.0;" x1="566" x2="566" y1="81.4883" y2="576.1016"/><text fill="#000000" font-family="sans-serif" font-size="14" lengthAdjust="spacing" textLength="120" x="20" y="78.5352">Campus Manager</text><ellipse cx="83" cy="13.5" fill="#E2E2F0" rx="8" ry="8" style="stroke:#181818;stroke-width:0.5;"/><path d="M83,21.5 L83,48.5 M70,29.5 L96,29.5 M83,48.5 L70,63.5 M83,48.5 L96,63.5 " fill="none" style="stroke:#181818;stroke-width:0.5;"/><text fill="#000000" font-family="sans-serif" font-size="14" lengthAdjust="spacing" textLength="120" x="20" y="588.6367">Campus Manager</text><ellipse cx="83" cy="600.0898" fill="#E2E2F0" rx="8" ry="8" style="stroke:#181818;stroke-width:0.5;"/><path d="M83,608.0898 L83,635.0898 M70,616.0898 L96,616.0898 M83,635.0898 L70,650.0898 M83,635.0898 L96,650.0898 " fill="none" style="stroke:#181818;stroke-width:0.5;"/><rect fill="#E2E2F0" height="30.4883" rx="2.5" ry="2.5" style="stroke:#181818;stroke-width:0.5;" width="88" x="305" y="50"/><text fill="#000000" font-family="sans-serif" font-size="14" lengthAdjust="spacing" textLength="74" x="312" y="70.5352">Campus UI</text><rect fill="#E2E2F0" height="30.4883" rx="2.5" ry="2.5" style="stroke:#181818;stroke-width:0.5;" width="88" x="305" y="575.1016"/><text fill="#000000" font-family="sans-serif" font-size="14" lengthAdjust="spacing" textLength="74" x="312" y="595.6367">Campus UI</text><rect fill="#E2E2F0" height="30.4883" rx="2.5" ry="2.5" style="stroke:#181818;stroke-width:0.5;" width="96" x="518" y="50"/><text fill="#000000" font-family="sans-serif" font-size="14" lengthAdjust="spacing" textLength="82" x="525" y="70.5352">Campus MD</text><rect fill="#E2E2F0" height="30.4883" rx="2.5" ry="2.5" style="stroke:#181818;stroke-width:0.5;" width="96" x="518" y="575.1016"/><text fill="#000000" font-family="sans-serif" font-size="14" lengthAdjust="spacing" textLength="82" x="525" y="595.6367">Campus MD</text><rect fill="#FFFFFF" height="474.6133" style="stroke:#181818;stroke-width:1.0;" width="10" x="78" y="91.4883"/><rect fill="#FFFFFF" height="93.9316" style="stroke:#181818;stroke-width:1.0;" width="10" x="344" y="112.7988"/><rect fill="#FFFFFF" height="93.9316" style="stroke:#181818;stroke-width:1.0;" width="10" x="344" y="236.041"/><rect fill="#FFFFFF" height="206.8184" style="stroke:#181818;stroke-width:1.0;" width="10" x="344" y="359.2832"/><rect fill="#FFFFFF" height="32.3105" style="stroke:#181818;stroke-width:1.0;" width="10" x="561" y="142.1094"/><rect fill="#FFFFFF" height="32.3105" style="stroke:#181818;stroke-width:1.0;" width="10" x="561" y="265.3516"/><rect fill="#FFFFFF" height="174.5078" style="stroke:#181818;stroke-width:1.0;" width="10" x="561" y="391.5938"/><polygon fill="#181818" points="332,108.7988,342,112.7988,332,116.7988,336,112.7988" style="stroke:#181818;stroke-width:1.0;"/><line style="stroke:#181818;stroke-width:1.0;" x1="88" x2="338" y1="112.7988" y2="112.7988"/><text fill="#000000" font-family="sans-serif" font-size="13" font-weight="bold" lengthAdjust="spacing" textLength="9" x="95" y="108.0566">1</text><text fill="#000000" font-family="sans-serif" font-size="13" lengthAdjust="spacing" textLength="130" x="108" y="108.0566">wants to create floor</text><polygon fill="#181818" points="549,138.1094,559,142.1094,549,146.1094,553,142.1094" style="stroke:#181818;stroke-width:1.0;"/><line style="stroke:#181818;stroke-width:1.0;" x1="354" x2="555" y1="142.1094" y2="142.1094"/><text fill="#000000" font-family="sans-serif" font-size="13" font-weight="bold" lengthAdjust="spacing" textLength="9" x="361" y="137.3672">2</text><text fill="#000000" font-family="sans-serif" font-size="13" lengthAdjust="spacing" textLength="94" x="374" y="137.3672">GET /buildings</text><polygon fill="#181818" points="365,170.4199,355,174.4199,365,178.4199,361,174.4199" style="stroke:#181818;stroke-width:1.0;"/><line style="stroke:#181818;stroke-width:1.0;stroke-dasharray:2.0,2.0;" x1="359" x2="565" y1="174.4199" y2="174.4199"/><text fill="#000000" font-family="sans-serif" font-size="13" font-weight="bold" lengthAdjust="spacing" textLength="9" x="371" y="169.6777">3</text><text fill="#000000" font-family="sans-serif" font-size="13" lengthAdjust="spacing" textLength="59" x="384" y="169.6777">buildings</text><path d="M576,155.1094 L576,180.1094 L760,180.1094 L760,165.1094 L750,155.1094 L576,155.1094 " fill="#FEFFDD" style="stroke:#181818;stroke-width:0.5;"/><path d="M750,155.1094 L750,165.1094 L760,165.1094 L750,155.1094 " fill="#FEFFDD" style="stroke:#181818;stroke-width:0.5;"/><text fill="#000000" font-family="sans-serif" font-size="13" lengthAdjust="spacing" textLength="163" x="582" y="172.6777">see us170 documentation</text><polygon fill="#181818" points="99,202.7305,89,206.7305,99,210.7305,95,206.7305" style="stroke:#181818;stroke-width:1.0;"/><line style="stroke:#181818;stroke-width:1.0;stroke-dasharray:2.0,2.0;" x1="93" x2="348" y1="206.7305" y2="206.7305"/><text fill="#000000" font-family="sans-serif" font-size="13" font-weight="bold" lengthAdjust="spacing" textLength="9" x="105" y="201.9883">4</text><text fill="#000000" font-family="sans-serif" font-size="13" lengthAdjust="spacing" textLength="110" x="118" y="201.9883">requests building</text><polygon fill="#181818" points="332,232.041,342,236.041,332,240.041,336,236.041" style="stroke:#181818;stroke-width:1.0;"/><line style="stroke:#181818;stroke-width:1.0;" x1="88" x2="338" y1="236.041" y2="236.041"/><text fill="#000000" font-family="sans-serif" font-size="13" font-weight="bold" lengthAdjust="spacing" textLength="9" x="95" y="231.2988">5</text><text fill="#000000" font-family="sans-serif" font-size="13" lengthAdjust="spacing" textLength="110" x="108" y="231.2988">provides building</text><polygon fill="#181818" points="549,261.3516,559,265.3516,549,269.3516,553,265.3516" style="stroke:#181818;stroke-width:1.0;"/><line style="stroke:#181818;stroke-width:1.0;" x1="354" x2="555" y1="265.3516" y2="265.3516"/><text fill="#000000" font-family="sans-serif" font-size="13" font-weight="bold" lengthAdjust="spacing" textLength="9" x="361" y="260.6094">6</text><text fill="#000000" font-family="sans-serif" font-size="13" lengthAdjust="spacing" textLength="165" x="374" y="260.6094">GET /buildings/{id}/floors</text><polygon fill="#181818" points="365,293.6621,355,297.6621,365,301.6621,361,297.6621" style="stroke:#181818;stroke-width:1.0;"/><line style="stroke:#181818;stroke-width:1.0;stroke-dasharray:2.0,2.0;" x1="359" x2="565" y1="297.6621" y2="297.6621"/><text fill="#000000" font-family="sans-serif" font-size="13" font-weight="bold" lengthAdjust="spacing" textLength="9" x="371" y="292.9199">7</text><text fill="#000000" font-family="sans-serif" font-size="13" lengthAdjust="spacing" textLength="37" x="384" y="292.9199">floors</text><path d="M576,278.3516 L576,303.3516 L760,303.3516 L760,288.3516 L750,278.3516 L576,278.3516 " fill="#FEFFDD" style="stroke:#181818;stroke-width:0.5;"/><path d="M750,278.3516 L750,288.3516 L760,288.3516 L750,278.3516 " fill="#FEFFDD" style="stroke:#181818;stroke-width:0.5;"/><text fill="#000000" font-family="sans-serif" font-size="13" lengthAdjust="spacing" textLength="163" x="582" y="295.9199">see us210 documentation</text><polygon fill="#181818" points="99,325.9727,89,329.9727,99,333.9727,95,329.9727" style="stroke:#181818;stroke-width:1.0;"/><line style="stroke:#181818;stroke-width:1.0;stroke-dasharray:2.0,2.0;" x1="93" x2="348" y1="329.9727" y2="329.9727"/><text fill="#000000" font-family="sans-serif" font-size="13" font-weight="bold" lengthAdjust="spacing" textLength="9" x="105" y="325.2305">8</text><text fill="#000000" font-family="sans-serif" font-size="13" lengthAdjust="spacing" textLength="85" x="118" y="325.2305">requests data</text><polygon fill="#181818" points="332,355.2832,342,359.2832,332,363.2832,336,359.2832" style="stroke:#181818;stroke-width:1.0;"/><line style="stroke:#181818;stroke-width:1.0;" x1="88" x2="338" y1="359.2832" y2="359.2832"/><text fill="#000000" font-family="sans-serif" font-size="13" font-weight="bold" lengthAdjust="spacing" textLength="9" x="95" y="354.541">9</text><text fill="#000000" font-family="sans-serif" font-size="13" lengthAdjust="spacing" textLength="85" x="108" y="354.541">provides data</text><polygon fill="#181818" points="549,387.5938,559,391.5938,549,395.5938,553,391.5938" style="stroke:#181818;stroke-width:1.0;"/><line style="stroke:#181818;stroke-width:1.0;" x1="354" x2="555" y1="391.5938" y2="391.5938"/><text fill="#000000" font-family="sans-serif" font-size="13" font-weight="bold" lengthAdjust="spacing" textLength="18" x="361" y="386.8516">10</text><text fill="#000000" font-family="sans-serif" font-size="13" lengthAdjust="spacing" textLength="166" x="383" y="386.8516">POST /building/{id}/floors</text><path d="M576,372.2832 L576,397.2832 L760,397.2832 L760,382.2832 L750,372.2832 L576,372.2832 " fill="#FEFFDD" style="stroke:#181818;stroke-width:0.5;"/><path d="M750,372.2832 L750,382.2832 L760,382.2832 L750,372.2832 " fill="#FEFFDD" style="stroke:#181818;stroke-width:0.5;"/><text fill="#000000" font-family="sans-serif" font-size="13" lengthAdjust="spacing" textLength="163" x="582" y="389.8516">see us190 documentation</text><path d="M10,409.5938 L72,409.5938 L72,416.9043 L62,426.9043 L10,426.9043 L10,409.5938 " fill="#EEEEEE" style="stroke:#000000;stroke-width:1.5;"/><rect fill="none" height="149.5078" style="stroke:#000000;stroke-width:1.5;" width="614" x="10" y="409.5938"/><text fill="#000000" font-family="sans-serif" font-size="13" font-weight="bold" lengthAdjust="spacing" textLength="17" x="25" y="423.1621">alt</text><text fill="#000000" font-family="sans-serif" font-size="11" font-weight="bold" lengthAdjust="spacing" textLength="51" x="87" y="422.2285">[success]</text><polygon fill="#181818" points="365,444.2148,355,448.2148,365,452.2148,361,448.2148" style="stroke:#181818;stroke-width:1.0;"/><line style="stroke:#181818;stroke-width:1.0;stroke-dasharray:2.0,2.0;" x1="359" x2="560" y1="448.2148" y2="448.2148"/><text fill="#000000" font-family="sans-serif" font-size="13" font-weight="bold" lengthAdjust="spacing" textLength="18" x="371" y="443.4727">11</text><text fill="#000000" font-family="sans-serif" font-size="13" lengthAdjust="spacing" textLength="62" x="393" y="443.4727">201: floor</text><polygon fill="#181818" points="99,473.5254,89,477.5254,99,481.5254,95,477.5254" style="stroke:#181818;stroke-width:1.0;"/><line style="stroke:#181818;stroke-width:1.0;stroke-dasharray:2.0,2.0;" x1="93" x2="343" y1="477.5254" y2="477.5254"/><text fill="#000000" font-family="sans-serif" font-size="13" font-weight="bold" lengthAdjust="spacing" textLength="18" x="105" y="472.7832">12</text><text fill="#000000" font-family="sans-serif" font-size="13" lengthAdjust="spacing" textLength="210" x="127" y="472.7832">preview created floor information</text><line style="stroke:#000000;stroke-width:1.0;stroke-dasharray:2.0,2.0;" x1="10" x2="624" y1="486.5254" y2="486.5254"/><text fill="#000000" font-family="sans-serif" font-size="11" font-weight="bold" lengthAdjust="spacing" textLength="116" x="15" y="497.1602">[floor already exists]</text><polygon fill="#181818" points="365,517.791,355,521.791,365,525.791,361,521.791" style="stroke:#181818;stroke-width:1.0;"/><line style="stroke:#181818;stroke-width:1.0;stroke-dasharray:2.0,2.0;" x1="359" x2="560" y1="521.791" y2="521.791"/><text fill="#000000" font-family="sans-serif" font-size="13" font-weight="bold" lengthAdjust="spacing" textLength="18" x="371" y="517.0488">13</text><text fill="#000000" font-family="sans-serif" font-size="13" lengthAdjust="spacing" textLength="62" x="393" y="517.0488">422: error</text><polygon fill="#181818" points="99,547.1016,89,551.1016,99,555.1016,95,551.1016" style="stroke:#181818;stroke-width:1.0;"/><line style="stroke:#181818;stroke-width:1.0;stroke-dasharray:2.0,2.0;" x1="93" x2="343" y1="551.1016" y2="551.1016"/><text fill="#000000" font-family="sans-serif" font-size="13" font-weight="bold" lengthAdjust="spacing" textLength="18" x="105" y="546.3594">14</text><text fill="#000000" font-family="sans-serif" font-size="13" lengthAdjust="spacing" textLength="76" x="127" y="546.3594">inform error</text><!--SRC=[hPFFJi9048VlVOe95qu4Q4oCFUW1ZF50C14VOEaEEARThVi7DCPtTxf0BQM094xImsRtsz_ijrtXdLO-dwE98f4wRQ0p4ddXBKo44aiq7H0MlENfGXX7AHL2kMhHo-DcdgAeEvkEfmca8ik07Bnvww3hgNlN2ax60SnbYAMLS1XI-8FUBMy82QmPiE0qf0RB-KMcjOc0wnUXC2wB4GPpoU33_GpwSq-P9BMqrOgAubIe5JEzNUOXLPRIJ1bQlZfUOh5iTNWz0AbJdwDomf5M5I2nBQXihmpXyoLWyDsZvSFjug86M0eDL4r7OVIA93QWYrJqlqX-zuF7oxGqa2DEuk5_E972YOjyLC0P5q_JvvgCFxjek_oROmSDcsGEh4zJjFl6cbBZmJ2f_TJrsZDJ65mHhhVFG6uG8BNG9ZzCnynkdmetmeJy1FmW5dkobwiuJW2DETVB9hLb9IfvuhRthx8-uZV_0m00]--></g></svg>