<?xml version="1.0" encoding="us-ascii" standalone="no"?><svg xmlns="http://www.w3.org/2000/svg" xmlns:xlink="http://www.w3.org/1999/xlink" contentStyleType="text/css" height="807px" preserveAspectRatio="none" style="width:822px;height:807px;background:#FFFFFF;" version="1.1" viewBox="0 0 822 807" width="822px" zoomAndPan="magnify"><defs/><g><rect fill="#FFFFFF" height="625.4316" style="stroke:#181818;stroke-width:1.0;" width="10" x="88" y="91.4883"/><rect fill="#FFFFFF" height="191.8184" style="stroke:#181818;stroke-width:1.0;" width="10" x="354" y="112.7988"/><rect fill="#FFFFFF" height="139.8633" style="stroke:#181818;stroke-width:1.0;" width="10" x="354" y="333.9277"/><rect fill="#FFFFFF" height="213.8184" style="stroke:#181818;stroke-width:1.0;" width="10" x="354" y="503.1016"/><rect fill="#FFFFFF" height="56.6211" style="stroke:#181818;stroke-width:1.0;" width="10" x="571" y="142.1094"/><rect fill="#FFFFFF" height="44.2656" style="stroke:#181818;stroke-width:1.0;" width="10" x="571" y="231.041"/><rect fill="#FFFFFF" height="55.2764" style="stroke:#181818;stroke-width:1.0;" width="10" x="571" y="363.2383"/><rect fill="#FFFFFF" height="181.5078" style="stroke:#181818;stroke-width:1.0;" width="10" x="571" y="535.4121"/><rect fill="none" height="552.8105" style="stroke:#000000;stroke-width:1.5;" width="805" x="10" y="157.1094"/><rect fill="none" height="149.5078" style="stroke:#000000;stroke-width:1.5;" width="584" x="20" y="553.4121"/><line style="stroke:#181818;stroke-width:0.5;stroke-dasharray:5.0,5.0;" x1="93" x2="93" y1="81.4883" y2="726.9199"/><line style="stroke:#181818;stroke-width:0.5;stroke-dasharray:5.0,5.0;" x1="359" x2="359" y1="81.4883" y2="726.9199"/><line style="stroke:#181818;stroke-width:0.5;stroke-dasharray:5.0,5.0;" x1="576" x2="576" y1="81.4883" y2="726.9199"/><text fill="#000000" font-family="sans-serif" font-size="14" lengthAdjust="spacing" textLength="120" x="30" y="78.5352">Campus Manager</text><ellipse cx="93" cy="13.5" fill="#E2E2F0" rx="8" ry="8" style="stroke:#181818;stroke-width:0.5;"/><path d="M93,21.5 L93,48.5 M80,29.5 L106,29.5 M93,48.5 L80,63.5 M93,48.5 L106,63.5 " fill="none" style="stroke:#181818;stroke-width:0.5;"/><text fill="#000000" font-family="sans-serif" font-size="14" lengthAdjust="spacing" textLength="120" x="30" y="739.4551">Campus Manager</text><ellipse cx="93" cy="750.9082" fill="#E2E2F0" rx="8" ry="8" style="stroke:#181818;stroke-width:0.5;"/><path d="M93,758.9082 L93,785.9082 M80,766.9082 L106,766.9082 M93,785.9082 L80,800.9082 M93,785.9082 L106,800.9082 " fill="none" style="stroke:#181818;stroke-width:0.5;"/><rect fill="#E2E2F0" height="30.4883" rx="2.5" ry="2.5" style="stroke:#181818;stroke-width:0.5;" width="30" x="344" y="50"/><text fill="#000000" font-family="sans-serif" font-size="14" lengthAdjust="spacing" textLength="16" x="351" y="70.5352">FE</text><rect fill="#E2E2F0" height="30.4883" rx="2.5" ry="2.5" style="stroke:#181818;stroke-width:0.5;" width="30" x="344" y="725.9199"/><text fill="#000000" font-family="sans-serif" font-size="14" lengthAdjust="spacing" textLength="16" x="351" y="746.4551">FE</text><rect fill="#E2E2F0" height="30.4883" rx="2.5" ry="2.5" style="stroke:#181818;stroke-width:0.5;" width="36" x="558" y="50"/><text fill="#000000" font-family="sans-serif" font-size="14" lengthAdjust="spacing" textLength="22" x="565" y="70.5352">MD</text><rect fill="#E2E2F0" height="30.4883" rx="2.5" ry="2.5" style="stroke:#181818;stroke-width:0.5;" width="36" x="558" y="725.9199"/><text fill="#000000" font-family="sans-serif" font-size="14" lengthAdjust="spacing" textLength="22" x="565" y="746.4551">MD</text><rect fill="#FFFFFF" height="625.4316" style="stroke:#181818;stroke-width:1.0;" width="10" x="88" y="91.4883"/><rect fill="#FFFFFF" height="191.8184" style="stroke:#181818;stroke-width:1.0;" width="10" x="354" y="112.7988"/><rect fill="#FFFFFF" height="139.8633" style="stroke:#181818;stroke-width:1.0;" width="10" x="354" y="333.9277"/><rect fill="#FFFFFF" height="213.8184" style="stroke:#181818;stroke-width:1.0;" width="10" x="354" y="503.1016"/><rect fill="#FFFFFF" height="56.6211" style="stroke:#181818;stroke-width:1.0;" width="10" x="571" y="142.1094"/><rect fill="#FFFFFF" height="44.2656" style="stroke:#181818;stroke-width:1.0;" width="10" x="571" y="231.041"/><rect fill="#FFFFFF" height="55.2764" style="stroke:#181818;stroke-width:1.0;" width="10" x="571" y="363.2383"/><rect fill="#FFFFFF" height="181.5078" style="stroke:#181818;stroke-width:1.0;" width="10" x="571" y="535.4121"/><polygon fill="#181818" points="342,108.7988,352,112.7988,342,116.7988,346,112.7988" style="stroke:#181818;stroke-width:1.0;"/><line style="stroke:#181818;stroke-width:1.0;" x1="98" x2="348" y1="112.7988" y2="112.7988"/><text fill="#000000" font-family="sans-serif" font-size="13" font-weight="bold" lengthAdjust="spacing" textLength="9" x="105" y="108.0566">1</text><text fill="#000000" font-family="sans-serif" font-size="13" lengthAdjust="spacing" textLength="130" x="118" y="108.0566">wants to create floor</text><polygon fill="#181818" points="559,138.1094,569,142.1094,559,146.1094,563,142.1094" style="stroke:#181818;stroke-width:1.0;"/><line style="stroke:#181818;stroke-width:1.0;" x1="364" x2="565" y1="142.1094" y2="142.1094"/><text fill="#000000" font-family="sans-serif" font-size="13" font-weight="bold" lengthAdjust="spacing" textLength="9" x="371" y="137.3672">2</text><text fill="#000000" font-family="sans-serif" font-size="13" lengthAdjust="spacing" textLength="94" x="384" y="137.3672">GET /buildings</text><path d="M10,157.1094 L72,157.1094 L72,164.4199 L62,174.4199 L10,174.4199 L10,157.1094 " fill="#EEEEEE" style="stroke:#000000;stroke-width:1.5;"/><rect fill="none" height="552.8105" style="stroke:#000000;stroke-width:1.5;" width="805" x="10" y="157.1094"/><text fill="#000000" font-family="sans-serif" font-size="13" font-weight="bold" lengthAdjust="spacing" textLength="17" x="25" y="170.6777">alt</text><text fill="#000000" font-family="sans-serif" font-size="11" font-weight="bold" lengthAdjust="spacing" textLength="128" x="87" y="169.7441">[building(s) not found]</text><polygon fill="#181818" points="375,194.7305,365,198.7305,375,202.7305,371,198.7305" style="stroke:#181818;stroke-width:1.0;"/><line style="stroke:#181818;stroke-width:1.0;stroke-dasharray:2.0,2.0;" x1="369" x2="575" y1="198.7305" y2="198.7305"/><text fill="#000000" font-family="sans-serif" font-size="13" font-weight="bold" lengthAdjust="spacing" textLength="9" x="381" y="193.9883">3</text><text fill="#000000" font-family="sans-serif" font-size="13" lengthAdjust="spacing" textLength="95" x="394" y="193.9883">204: empty list</text><path d="M586,179.4199 L586,204.4199 L770,204.4199 L770,189.4199 L760,179.4199 L586,179.4199 " fill="#FEFFDD" style="stroke:#181818;stroke-width:0.5;"/><path d="M760,179.4199 L760,189.4199 L770,189.4199 L760,179.4199 " fill="#FEFFDD" style="stroke:#181818;stroke-width:0.5;"/><text fill="#000000" font-family="sans-serif" font-size="13" lengthAdjust="spacing" textLength="163" x="592" y="196.9883">see us170 documentation</text><polygon fill="#181818" points="109,227.041,99,231.041,109,235.041,105,231.041" style="stroke:#181818;stroke-width:1.0;"/><line style="stroke:#181818;stroke-width:1.0;stroke-dasharray:2.0,2.0;" x1="103" x2="353" y1="231.041" y2="231.041"/><text fill="#000000" font-family="sans-serif" font-size="13" font-weight="bold" lengthAdjust="spacing" textLength="9" x="115" y="226.2988">4</text><text fill="#000000" font-family="sans-serif" font-size="13" lengthAdjust="spacing" textLength="186" x="128" y="226.2988">informs building(s) not found</text><line style="stroke:#000000;stroke-width:1.0;stroke-dasharray:2.0,2.0;" x1="10" x2="815" y1="240.041" y2="240.041"/><text fill="#000000" font-family="sans-serif" font-size="11" font-weight="bold" lengthAdjust="spacing" textLength="106" x="15" y="250.6758">[building(s) found]</text><polygon fill="#181818" points="375,271.3066,365,275.3066,375,279.3066,371,275.3066" style="stroke:#181818;stroke-width:1.0;"/><line style="stroke:#181818;stroke-width:1.0;stroke-dasharray:2.0,2.0;" x1="369" x2="575" y1="275.3066" y2="275.3066"/><text fill="#000000" font-family="sans-serif" font-size="13" font-weight="bold" lengthAdjust="spacing" textLength="9" x="381" y="270.5645">5</text><text fill="#000000" font-family="sans-serif" font-size="13" lengthAdjust="spacing" textLength="91" x="394" y="270.5645">200: buildings</text><polygon fill="#181818" points="109,300.6172,99,304.6172,109,308.6172,105,304.6172" style="stroke:#181818;stroke-width:1.0;"/><line style="stroke:#181818;stroke-width:1.0;stroke-dasharray:2.0,2.0;" x1="103" x2="358" y1="304.6172" y2="304.6172"/><text fill="#000000" font-family="sans-serif" font-size="13" font-weight="bold" lengthAdjust="spacing" textLength="9" x="115" y="299.875">6</text><text fill="#000000" font-family="sans-serif" font-size="13" lengthAdjust="spacing" textLength="110" x="128" y="299.875">requests building</text><polygon fill="#181818" points="342,329.9277,352,333.9277,342,337.9277,346,333.9277" style="stroke:#181818;stroke-width:1.0;"/><line style="stroke:#181818;stroke-width:1.0;" x1="98" x2="348" y1="333.9277" y2="333.9277"/><text fill="#000000" font-family="sans-serif" font-size="13" font-weight="bold" lengthAdjust="spacing" textLength="9" x="105" y="329.1855">7</text><text fill="#000000" font-family="sans-serif" font-size="13" lengthAdjust="spacing" textLength="110" x="118" y="329.1855">provides building</text><polygon fill="#181818" points="559,359.2383,569,363.2383,559,367.2383,563,363.2383" style="stroke:#181818;stroke-width:1.0;"/><line style="stroke:#181818;stroke-width:1.0;" x1="364" x2="565" y1="363.2383" y2="363.2383"/><text fill="#000000" font-family="sans-serif" font-size="13" font-weight="bold" lengthAdjust="spacing" textLength="9" x="371" y="358.4961">8</text><text fill="#000000" font-family="sans-serif" font-size="13" lengthAdjust="spacing" textLength="165" x="384" y="358.4961">GET /buildings/{id}/floors</text><polygon fill="#181818" points="375,414.5146,365,418.5146,375,422.5146,371,418.5146" style="stroke:#181818;stroke-width:1.0;"/><line style="stroke:#181818;stroke-width:1.0;stroke-dasharray:2.0,2.0;" x1="369" x2="575" y1="418.5146" y2="418.5146"/><text fill="#000000" font-family="sans-serif" font-size="13" font-weight="bold" lengthAdjust="spacing" textLength="9" x="381" y="413.7725">9</text><text fill="#000000" font-family="sans-serif" font-size="13" lengthAdjust="spacing" textLength="37" x="394" y="413.7725">floors</text><path d="M586,376.2383 L586,447.2383 L800,447.2383 L800,386.2383 L790,376.2383 L586,376.2383 " fill="#FEFFDD" style="stroke:#181818;stroke-width:0.5;"/><path d="M790,376.2383 L790,386.2383 L800,386.2383 L790,376.2383 " fill="#FEFFDD" style="stroke:#181818;stroke-width:0.5;"/><text fill="#000000" font-family="sans-serif" font-size="13" lengthAdjust="spacing" textLength="167" x="592" y="393.8066">see us210 documentation,</text><text fill="#000000" font-family="sans-serif" font-size="13" lengthAdjust="spacing" textLength="4" x="592" y="409.1172">&#160;</text><text fill="#000000" font-family="sans-serif" font-size="13" lengthAdjust="spacing" textLength="193" x="592" y="424.4277">in this case, if 204 is returned,</text><text fill="#000000" font-family="sans-serif" font-size="13" lengthAdjust="spacing" textLength="168" x="592" y="439.7383">floors will be an empty list</text><polygon fill="#181818" points="109,469.791,99,473.791,109,477.791,105,473.791" style="stroke:#181818;stroke-width:1.0;"/><line style="stroke:#181818;stroke-width:1.0;stroke-dasharray:2.0,2.0;" x1="103" x2="358" y1="473.791" y2="473.791"/><text fill="#000000" font-family="sans-serif" font-size="13" font-weight="bold" lengthAdjust="spacing" textLength="18" x="115" y="469.0488">10</text><text fill="#000000" font-family="sans-serif" font-size="13" lengthAdjust="spacing" textLength="85" x="137" y="469.0488">requests data</text><polygon fill="#181818" points="342,499.1016,352,503.1016,342,507.1016,346,503.1016" style="stroke:#181818;stroke-width:1.0;"/><line style="stroke:#181818;stroke-width:1.0;" x1="98" x2="348" y1="503.1016" y2="503.1016"/><text fill="#000000" font-family="sans-serif" font-size="13" font-weight="bold" lengthAdjust="spacing" textLength="18" x="105" y="498.3594">11</text><text fill="#000000" font-family="sans-serif" font-size="13" lengthAdjust="spacing" textLength="85" x="127" y="498.3594">provides data</text><polygon fill="#181818" points="559,531.4121,569,535.4121,559,539.4121,563,535.4121" style="stroke:#181818;stroke-width:1.0;"/><line style="stroke:#181818;stroke-width:1.0;" x1="364" x2="565" y1="535.4121" y2="535.4121"/><text fill="#000000" font-family="sans-serif" font-size="13" font-weight="bold" lengthAdjust="spacing" textLength="18" x="371" y="530.6699">12</text><text fill="#000000" font-family="sans-serif" font-size="13" lengthAdjust="spacing" textLength="166" x="393" y="530.6699">POST /building/{id}/floors</text><path d="M586,516.1016 L586,541.1016 L770,541.1016 L770,526.1016 L760,516.1016 L586,516.1016 " fill="#FEFFDD" style="stroke:#181818;stroke-width:0.5;"/><path d="M760,516.1016 L760,526.1016 L770,526.1016 L760,516.1016 " fill="#FEFFDD" style="stroke:#181818;stroke-width:0.5;"/><text fill="#000000" font-family="sans-serif" font-size="13" lengthAdjust="spacing" textLength="163" x="592" y="533.6699">see us190 documentation</text><path d="M20,553.4121 L82,553.4121 L82,560.7227 L72,570.7227 L20,570.7227 L20,553.4121 " fill="#EEEEEE" style="stroke:#000000;stroke-width:1.5;"/><rect fill="none" height="149.5078" style="stroke:#000000;stroke-width:1.5;" width="584" x="20" y="553.4121"/><text fill="#000000" font-family="sans-serif" font-size="13" font-weight="bold" lengthAdjust="spacing" textLength="17" x="35" y="566.9805">alt</text><text fill="#000000" font-family="sans-serif" font-size="11" font-weight="bold" lengthAdjust="spacing" textLength="51" x="97" y="566.0469">[success]</text><polygon fill="#181818" points="375,588.0332,365,592.0332,375,596.0332,371,592.0332" style="stroke:#181818;stroke-width:1.0;"/><line style="stroke:#181818;stroke-width:1.0;stroke-dasharray:2.0,2.0;" x1="369" x2="570" y1="592.0332" y2="592.0332"/><text fill="#000000" font-family="sans-serif" font-size="13" font-weight="bold" lengthAdjust="spacing" textLength="18" x="381" y="587.291">13</text><text fill="#000000" font-family="sans-serif" font-size="13" lengthAdjust="spacing" textLength="62" x="403" y="587.291">201: floor</text><polygon fill="#181818" points="109,617.3438,99,621.3438,109,625.3438,105,621.3438" style="stroke:#181818;stroke-width:1.0;"/><line style="stroke:#181818;stroke-width:1.0;stroke-dasharray:2.0,2.0;" x1="103" x2="353" y1="621.3438" y2="621.3438"/><text fill="#000000" font-family="sans-serif" font-size="13" font-weight="bold" lengthAdjust="spacing" textLength="18" x="115" y="616.6016">14</text><text fill="#000000" font-family="sans-serif" font-size="13" lengthAdjust="spacing" textLength="210" x="137" y="616.6016">preview created floor information</text><line style="stroke:#000000;stroke-width:1.0;stroke-dasharray:2.0,2.0;" x1="20" x2="604" y1="630.3438" y2="630.3438"/><text fill="#000000" font-family="sans-serif" font-size="11" font-weight="bold" lengthAdjust="spacing" textLength="116" x="25" y="640.9785">[floor already exists]</text><polygon fill="#181818" points="375,661.6094,365,665.6094,375,669.6094,371,665.6094" style="stroke:#181818;stroke-width:1.0;"/><line style="stroke:#181818;stroke-width:1.0;stroke-dasharray:2.0,2.0;" x1="369" x2="570" y1="665.6094" y2="665.6094"/><text fill="#000000" font-family="sans-serif" font-size="13" font-weight="bold" lengthAdjust="spacing" textLength="18" x="381" y="660.8672">15</text><text fill="#000000" font-family="sans-serif" font-size="13" lengthAdjust="spacing" textLength="62" x="403" y="660.8672">422: error</text><polygon fill="#181818" points="109,690.9199,99,694.9199,109,698.9199,105,694.9199" style="stroke:#181818;stroke-width:1.0;"/><line style="stroke:#181818;stroke-width:1.0;stroke-dasharray:2.0,2.0;" x1="103" x2="353" y1="694.9199" y2="694.9199"/><text fill="#000000" font-family="sans-serif" font-size="13" font-weight="bold" lengthAdjust="spacing" textLength="18" x="115" y="690.1777">16</text><text fill="#000000" font-family="sans-serif" font-size="13" lengthAdjust="spacing" textLength="167" x="137" y="690.1777">inform floor already exists</text><!--SRC=[fLHDJ-Cm4BttLunwOYLGFuI4o84Bi9mga7QFNDnuMaPAxAndt2v2-zztaj2ID6bfmLAas7vlF7v-CoQATp6VOnWCJ2e-mF3Mv4Lac1bdbXY6O1WYwtPXWb1AXN42mv_tzGRjhC_kglNSLk5ePGGhjdvmSQDuI62jI0Rna0OiznUPzs40EZueLCtBeHGbvbQ93_U_OJIFb5boIzuYJ2QmMJtZ7-2ymC97PxU8LkoylLuEZNwnoMuwlam0yq9U8IEM3bQZ8mHQleY26SlhJQx6O7qQStHYXBnhaIpkExgyMdciQfC0kOKFENzo4ymOMv3lN7ISG5VD4r8E-2SYoqVEWvu0fKMsx8OBYk1NPB67tEU2WquOlP7zDwfin5-IeeUwvwcdavsdFdzspuuSo0inf8Rn76XHcWXq7b1YS6WLL1y1Qyeoc2COjyzZfsflZPWlwTuY7g7vq-ElXkWdQzvNDzU7wcPJsXpJ5BdxEbq_Jv96BzaTBVMAW2l2zNi7iZNjlGJxCwaAhuQPJ5ds5V2lljtdULrEfzfGGZWchpg3uyx1Pbje_7SDr7P5SyRXFm00]--></g></svg>