<?xml version="1.0" encoding="us-ascii" standalone="no"?><svg xmlns="http://www.w3.org/2000/svg" xmlns:xlink="http://www.w3.org/1999/xlink" contentStyleType="text/css" height="881px" preserveAspectRatio="none" style="width:829px;height:881px;background:#FFFFFF;" version="1.1" viewBox="0 0 829 881" width="829px" zoomAndPan="magnify"><defs/><g><rect fill="#FFFFFF" height="699.0078" style="stroke:#181818;stroke-width:1.0;" width="10" x="88" y="91.4883"/><rect fill="#FFFFFF" height="191.8184" style="stroke:#181818;stroke-width:1.0;" width="10" x="361" y="112.7988"/><rect fill="#FFFFFF" height="139.8633" style="stroke:#181818;stroke-width:1.0;" width="10" x="361" y="333.9277"/><rect fill="#FFFFFF" height="287.3945" style="stroke:#181818;stroke-width:1.0;" width="10" x="361" y="503.1016"/><rect fill="#FFFFFF" height="56.6211" style="stroke:#181818;stroke-width:1.0;" width="10" x="578" y="142.1094"/><rect fill="#FFFFFF" height="44.2656" style="stroke:#181818;stroke-width:1.0;" width="10" x="578" y="231.041"/><rect fill="#FFFFFF" height="55.2764" style="stroke:#181818;stroke-width:1.0;" width="10" x="578" y="363.2383"/><rect fill="#FFFFFF" height="255.084" style="stroke:#181818;stroke-width:1.0;" width="10" x="578" y="535.4121"/><rect fill="none" height="626.3867" style="stroke:#000000;stroke-width:1.5;" width="812" x="10" y="157.1094"/><rect fill="none" height="223.084" style="stroke:#000000;stroke-width:1.5;" width="591" x="20" y="553.4121"/><line style="stroke:#181818;stroke-width:0.5;stroke-dasharray:5.0,5.0;" x1="93" x2="93" y1="81.4883" y2="800.4961"/><line style="stroke:#181818;stroke-width:0.5;stroke-dasharray:5.0,5.0;" x1="366" x2="366" y1="81.4883" y2="800.4961"/><line style="stroke:#181818;stroke-width:0.5;stroke-dasharray:5.0,5.0;" x1="583" x2="583" y1="81.4883" y2="800.4961"/><text fill="#000000" font-family="sans-serif" font-size="14" lengthAdjust="spacing" textLength="120" x="30" y="78.5352">Campus Manager</text><ellipse cx="93" cy="13.5" fill="#E2E2F0" rx="8" ry="8" style="stroke:#181818;stroke-width:0.5;"/><path d="M93,21.5 L93,48.5 M80,29.5 L106,29.5 M93,48.5 L80,63.5 M93,48.5 L106,63.5 " fill="none" style="stroke:#181818;stroke-width:0.5;"/><text fill="#000000" font-family="sans-serif" font-size="14" lengthAdjust="spacing" textLength="120" x="30" y="813.0313">Campus Manager</text><ellipse cx="93" cy="824.4844" fill="#E2E2F0" rx="8" ry="8" style="stroke:#181818;stroke-width:0.5;"/><path d="M93,832.4844 L93,859.4844 M80,840.4844 L106,840.4844 M93,859.4844 L80,874.4844 M93,859.4844 L106,874.4844 " fill="none" style="stroke:#181818;stroke-width:0.5;"/><rect fill="#E2E2F0" height="30.4883" rx="2.5" ry="2.5" style="stroke:#181818;stroke-width:0.5;" width="30" x="351" y="50"/><text fill="#000000" font-family="sans-serif" font-size="14" lengthAdjust="spacing" textLength="16" x="358" y="70.5352">FE</text><rect fill="#E2E2F0" height="30.4883" rx="2.5" ry="2.5" style="stroke:#181818;stroke-width:0.5;" width="30" x="351" y="799.4961"/><text fill="#000000" font-family="sans-serif" font-size="14" lengthAdjust="spacing" textLength="16" x="358" y="820.0313">FE</text><rect fill="#E2E2F0" height="30.4883" rx="2.5" ry="2.5" style="stroke:#181818;stroke-width:0.5;" width="36" x="565" y="50"/><text fill="#000000" font-family="sans-serif" font-size="14" lengthAdjust="spacing" textLength="22" x="572" y="70.5352">MD</text><rect fill="#E2E2F0" height="30.4883" rx="2.5" ry="2.5" style="stroke:#181818;stroke-width:0.5;" width="36" x="565" y="799.4961"/><text fill="#000000" font-family="sans-serif" font-size="14" lengthAdjust="spacing" textLength="22" x="572" y="820.0313">MD</text><rect fill="#FFFFFF" height="699.0078" style="stroke:#181818;stroke-width:1.0;" width="10" x="88" y="91.4883"/><rect fill="#FFFFFF" height="191.8184" style="stroke:#181818;stroke-width:1.0;" width="10" x="361" y="112.7988"/><rect fill="#FFFFFF" height="139.8633" style="stroke:#181818;stroke-width:1.0;" width="10" x="361" y="333.9277"/><rect fill="#FFFFFF" height="287.3945" style="stroke:#181818;stroke-width:1.0;" width="10" x="361" y="503.1016"/><rect fill="#FFFFFF" height="56.6211" style="stroke:#181818;stroke-width:1.0;" width="10" x="578" y="142.1094"/><rect fill="#FFFFFF" height="44.2656" style="stroke:#181818;stroke-width:1.0;" width="10" x="578" y="231.041"/><rect fill="#FFFFFF" height="55.2764" style="stroke:#181818;stroke-width:1.0;" width="10" x="578" y="363.2383"/><rect fill="#FFFFFF" height="255.084" style="stroke:#181818;stroke-width:1.0;" width="10" x="578" y="535.4121"/><polygon fill="#181818" points="349,108.7988,359,112.7988,349,116.7988,353,112.7988" style="stroke:#181818;stroke-width:1.0;"/><line style="stroke:#181818;stroke-width:1.0;" x1="98" x2="355" y1="112.7988" y2="112.7988"/><text fill="#000000" font-family="sans-serif" font-size="13" font-weight="bold" lengthAdjust="spacing" textLength="9" x="105" y="108.0566">1</text><text fill="#000000" font-family="sans-serif" font-size="13" lengthAdjust="spacing" textLength="130" x="118" y="108.0566">wants to create floor</text><polygon fill="#181818" points="566,138.1094,576,142.1094,566,146.1094,570,142.1094" style="stroke:#181818;stroke-width:1.0;"/><line style="stroke:#181818;stroke-width:1.0;" x1="371" x2="572" y1="142.1094" y2="142.1094"/><text fill="#000000" font-family="sans-serif" font-size="13" font-weight="bold" lengthAdjust="spacing" textLength="9" x="378" y="137.3672">2</text><text fill="#000000" font-family="sans-serif" font-size="13" lengthAdjust="spacing" textLength="94" x="391" y="137.3672">GET /buildings</text><path d="M10,157.1094 L72,157.1094 L72,164.4199 L62,174.4199 L10,174.4199 L10,157.1094 " fill="#EEEEEE" style="stroke:#000000;stroke-width:1.5;"/><rect fill="none" height="626.3867" style="stroke:#000000;stroke-width:1.5;" width="812" x="10" y="157.1094"/><text fill="#000000" font-family="sans-serif" font-size="13" font-weight="bold" lengthAdjust="spacing" textLength="17" x="25" y="170.6777">alt</text><text fill="#000000" font-family="sans-serif" font-size="11" font-weight="bold" lengthAdjust="spacing" textLength="128" x="87" y="169.7441">[building(s) not found]</text><polygon fill="#181818" points="382,194.7305,372,198.7305,382,202.7305,378,198.7305" style="stroke:#181818;stroke-width:1.0;"/><line style="stroke:#181818;stroke-width:1.0;stroke-dasharray:2.0,2.0;" x1="376" x2="582" y1="198.7305" y2="198.7305"/><text fill="#000000" font-family="sans-serif" font-size="13" font-weight="bold" lengthAdjust="spacing" textLength="9" x="388" y="193.9883">3</text><text fill="#000000" font-family="sans-serif" font-size="13" lengthAdjust="spacing" textLength="62" x="401" y="193.9883">404: error</text><path d="M593,179.4199 L593,204.4199 L777,204.4199 L777,189.4199 L767,179.4199 L593,179.4199 " fill="#FEFFDD" style="stroke:#181818;stroke-width:0.5;"/><path d="M767,179.4199 L767,189.4199 L777,189.4199 L767,179.4199 " fill="#FEFFDD" style="stroke:#181818;stroke-width:0.5;"/><text fill="#000000" font-family="sans-serif" font-size="13" lengthAdjust="spacing" textLength="163" x="599" y="196.9883">see us170 documentation</text><polygon fill="#181818" points="109,227.041,99,231.041,109,235.041,105,231.041" style="stroke:#181818;stroke-width:1.0;"/><line style="stroke:#181818;stroke-width:1.0;stroke-dasharray:2.0,2.0;" x1="103" x2="360" y1="231.041" y2="231.041"/><text fill="#000000" font-family="sans-serif" font-size="13" font-weight="bold" lengthAdjust="spacing" textLength="9" x="115" y="226.2988">4</text><text fill="#000000" font-family="sans-serif" font-size="13" lengthAdjust="spacing" textLength="83" x="128" y="226.2988">informs error</text><line style="stroke:#000000;stroke-width:1.0;stroke-dasharray:2.0,2.0;" x1="10" x2="822" y1="240.041" y2="240.041"/><text fill="#000000" font-family="sans-serif" font-size="11" font-weight="bold" lengthAdjust="spacing" textLength="106" x="15" y="250.6758">[building(s) found]</text><polygon fill="#181818" points="382,271.3066,372,275.3066,382,279.3066,378,275.3066" style="stroke:#181818;stroke-width:1.0;"/><line style="stroke:#181818;stroke-width:1.0;stroke-dasharray:2.0,2.0;" x1="376" x2="582" y1="275.3066" y2="275.3066"/><text fill="#000000" font-family="sans-serif" font-size="13" font-weight="bold" lengthAdjust="spacing" textLength="9" x="388" y="270.5645">5</text><text fill="#000000" font-family="sans-serif" font-size="13" lengthAdjust="spacing" textLength="91" x="401" y="270.5645">200: buildings</text><polygon fill="#181818" points="109,300.6172,99,304.6172,109,308.6172,105,304.6172" style="stroke:#181818;stroke-width:1.0;"/><line style="stroke:#181818;stroke-width:1.0;stroke-dasharray:2.0,2.0;" x1="103" x2="365" y1="304.6172" y2="304.6172"/><text fill="#000000" font-family="sans-serif" font-size="13" font-weight="bold" lengthAdjust="spacing" textLength="9" x="115" y="299.875">6</text><text fill="#000000" font-family="sans-serif" font-size="13" lengthAdjust="spacing" textLength="110" x="128" y="299.875">requests building</text><polygon fill="#181818" points="349,329.9277,359,333.9277,349,337.9277,353,333.9277" style="stroke:#181818;stroke-width:1.0;"/><line style="stroke:#181818;stroke-width:1.0;" x1="98" x2="355" y1="333.9277" y2="333.9277"/><text fill="#000000" font-family="sans-serif" font-size="13" font-weight="bold" lengthAdjust="spacing" textLength="9" x="105" y="329.1855">7</text><text fill="#000000" font-family="sans-serif" font-size="13" lengthAdjust="spacing" textLength="110" x="118" y="329.1855">provides building</text><polygon fill="#181818" points="566,359.2383,576,363.2383,566,367.2383,570,363.2383" style="stroke:#181818;stroke-width:1.0;"/><line style="stroke:#181818;stroke-width:1.0;" x1="371" x2="572" y1="363.2383" y2="363.2383"/><text fill="#000000" font-family="sans-serif" font-size="13" font-weight="bold" lengthAdjust="spacing" textLength="9" x="378" y="358.4961">8</text><text fill="#000000" font-family="sans-serif" font-size="13" lengthAdjust="spacing" textLength="165" x="391" y="358.4961">GET /buildings/{id}/floors</text><polygon fill="#181818" points="382,414.5146,372,418.5146,382,422.5146,378,418.5146" style="stroke:#181818;stroke-width:1.0;"/><line style="stroke:#181818;stroke-width:1.0;stroke-dasharray:2.0,2.0;" x1="376" x2="582" y1="418.5146" y2="418.5146"/><text fill="#000000" font-family="sans-serif" font-size="13" font-weight="bold" lengthAdjust="spacing" textLength="9" x="388" y="413.7725">9</text><text fill="#000000" font-family="sans-serif" font-size="13" lengthAdjust="spacing" textLength="37" x="401" y="413.7725">floors</text><path d="M593,376.2383 L593,447.2383 L807,447.2383 L807,386.2383 L797,376.2383 L593,376.2383 " fill="#FEFFDD" style="stroke:#181818;stroke-width:0.5;"/><path d="M797,376.2383 L797,386.2383 L807,386.2383 L797,376.2383 " fill="#FEFFDD" style="stroke:#181818;stroke-width:0.5;"/><text fill="#000000" font-family="sans-serif" font-size="13" lengthAdjust="spacing" textLength="167" x="599" y="393.8066">see us210 documentation,</text><text fill="#000000" font-family="sans-serif" font-size="13" lengthAdjust="spacing" textLength="4" x="599" y="409.1172">&#160;</text><text fill="#000000" font-family="sans-serif" font-size="13" lengthAdjust="spacing" textLength="193" x="599" y="424.4277">in this case, if 404 is returned,</text><text fill="#000000" font-family="sans-serif" font-size="13" lengthAdjust="spacing" textLength="168" x="599" y="439.7383">floors will be an empty list</text><polygon fill="#181818" points="109,469.791,99,473.791,109,477.791,105,473.791" style="stroke:#181818;stroke-width:1.0;"/><line style="stroke:#181818;stroke-width:1.0;stroke-dasharray:2.0,2.0;" x1="103" x2="365" y1="473.791" y2="473.791"/><text fill="#000000" font-family="sans-serif" font-size="13" font-weight="bold" lengthAdjust="spacing" textLength="18" x="115" y="469.0488">10</text><text fill="#000000" font-family="sans-serif" font-size="13" lengthAdjust="spacing" textLength="85" x="137" y="469.0488">requests data</text><polygon fill="#181818" points="349,499.1016,359,503.1016,349,507.1016,353,503.1016" style="stroke:#181818;stroke-width:1.0;"/><line style="stroke:#181818;stroke-width:1.0;" x1="98" x2="355" y1="503.1016" y2="503.1016"/><text fill="#000000" font-family="sans-serif" font-size="13" font-weight="bold" lengthAdjust="spacing" textLength="18" x="105" y="498.3594">11</text><text fill="#000000" font-family="sans-serif" font-size="13" lengthAdjust="spacing" textLength="85" x="127" y="498.3594">provides data</text><polygon fill="#181818" points="566,531.4121,576,535.4121,566,539.4121,570,535.4121" style="stroke:#181818;stroke-width:1.0;"/><line style="stroke:#181818;stroke-width:1.0;" x1="371" x2="572" y1="535.4121" y2="535.4121"/><text fill="#000000" font-family="sans-serif" font-size="13" font-weight="bold" lengthAdjust="spacing" textLength="18" x="378" y="530.6699">12</text><text fill="#000000" font-family="sans-serif" font-size="13" lengthAdjust="spacing" textLength="166" x="400" y="530.6699">POST /building/{id}/floors</text><path d="M593,516.1016 L593,541.1016 L777,541.1016 L777,526.1016 L767,516.1016 L593,516.1016 " fill="#FEFFDD" style="stroke:#181818;stroke-width:0.5;"/><path d="M767,516.1016 L767,526.1016 L777,526.1016 L767,516.1016 " fill="#FEFFDD" style="stroke:#181818;stroke-width:0.5;"/><text fill="#000000" font-family="sans-serif" font-size="13" lengthAdjust="spacing" textLength="163" x="599" y="533.6699">see us190 documentation</text><path d="M20,553.4121 L82,553.4121 L82,560.7227 L72,570.7227 L20,570.7227 L20,553.4121 " fill="#EEEEEE" style="stroke:#000000;stroke-width:1.5;"/><rect fill="none" height="223.084" style="stroke:#000000;stroke-width:1.5;" width="591" x="20" y="553.4121"/><text fill="#000000" font-family="sans-serif" font-size="13" font-weight="bold" lengthAdjust="spacing" textLength="17" x="35" y="566.9805">alt</text><text fill="#000000" font-family="sans-serif" font-size="11" font-weight="bold" lengthAdjust="spacing" textLength="51" x="97" y="566.0469">[success]</text><polygon fill="#181818" points="382,588.0332,372,592.0332,382,596.0332,378,592.0332" style="stroke:#181818;stroke-width:1.0;"/><line style="stroke:#181818;stroke-width:1.0;stroke-dasharray:2.0,2.0;" x1="376" x2="577" y1="592.0332" y2="592.0332"/><text fill="#000000" font-family="sans-serif" font-size="13" font-weight="bold" lengthAdjust="spacing" textLength="18" x="388" y="587.291">13</text><text fill="#000000" font-family="sans-serif" font-size="13" lengthAdjust="spacing" textLength="62" x="410" y="587.291">201: floor</text><polygon fill="#181818" points="109,617.3438,99,621.3438,109,625.3438,105,621.3438" style="stroke:#181818;stroke-width:1.0;"/><line style="stroke:#181818;stroke-width:1.0;stroke-dasharray:2.0,2.0;" x1="103" x2="360" y1="621.3438" y2="621.3438"/><text fill="#000000" font-family="sans-serif" font-size="13" font-weight="bold" lengthAdjust="spacing" textLength="18" x="115" y="616.6016">14</text><text fill="#000000" font-family="sans-serif" font-size="13" lengthAdjust="spacing" textLength="217" x="137" y="616.6016">previews created floor information</text><line style="stroke:#000000;stroke-width:1.0;stroke-dasharray:2.0,2.0;" x1="20" x2="611" y1="630.3438" y2="630.3438"/><text fill="#000000" font-family="sans-serif" font-size="11" font-weight="bold" lengthAdjust="spacing" textLength="116" x="25" y="640.9785">[floor already exists]</text><polygon fill="#181818" points="382,661.6094,372,665.6094,382,669.6094,378,665.6094" style="stroke:#181818;stroke-width:1.0;"/><line style="stroke:#181818;stroke-width:1.0;stroke-dasharray:2.0,2.0;" x1="376" x2="577" y1="665.6094" y2="665.6094"/><text fill="#000000" font-family="sans-serif" font-size="13" font-weight="bold" lengthAdjust="spacing" textLength="18" x="388" y="660.8672">15</text><text fill="#000000" font-family="sans-serif" font-size="13" lengthAdjust="spacing" textLength="62" x="410" y="660.8672">422: error</text><polygon fill="#181818" points="109,690.9199,99,694.9199,109,698.9199,105,694.9199" style="stroke:#181818;stroke-width:1.0;"/><line style="stroke:#181818;stroke-width:1.0;stroke-dasharray:2.0,2.0;" x1="103" x2="360" y1="694.9199" y2="694.9199"/><text fill="#000000" font-family="sans-serif" font-size="13" font-weight="bold" lengthAdjust="spacing" textLength="18" x="115" y="690.1777">16</text><text fill="#000000" font-family="sans-serif" font-size="13" lengthAdjust="spacing" textLength="83" x="137" y="690.1777">informs error</text><line style="stroke:#000000;stroke-width:1.0;stroke-dasharray:2.0,2.0;" x1="20" x2="611" y1="703.9199" y2="703.9199"/><text fill="#000000" font-family="sans-serif" font-size="11" font-weight="bold" lengthAdjust="spacing" textLength="126" x="25" y="714.5547">[bad floor parameters]</text><polygon fill="#181818" points="382,735.1855,372,739.1855,382,743.1855,378,739.1855" style="stroke:#181818;stroke-width:1.0;"/><line style="stroke:#181818;stroke-width:1.0;stroke-dasharray:2.0,2.0;" x1="376" x2="577" y1="739.1855" y2="739.1855"/><text fill="#000000" font-family="sans-serif" font-size="13" font-weight="bold" lengthAdjust="spacing" textLength="18" x="388" y="734.4434">17</text><text fill="#000000" font-family="sans-serif" font-size="13" lengthAdjust="spacing" textLength="62" x="410" y="734.4434">422: error</text><polygon fill="#181818" points="109,764.4961,99,768.4961,109,772.4961,105,768.4961" style="stroke:#181818;stroke-width:1.0;"/><line style="stroke:#181818;stroke-width:1.0;stroke-dasharray:2.0,2.0;" x1="103" x2="360" y1="768.4961" y2="768.4961"/><text fill="#000000" font-family="sans-serif" font-size="13" font-weight="bold" lengthAdjust="spacing" textLength="18" x="115" y="763.7539">18</text><text fill="#000000" font-family="sans-serif" font-size="13" lengthAdjust="spacing" textLength="83" x="137" y="763.7539">informs error</text><!--SRC=[lLHBRzim3BxdLn0vTK2BF11Wc0-zh8zJiG7TiHV6Ob82bkIAKhAYs7yVxSIPdJXzP4096B0eVYJryO4fUfVidC9WW7dq0ORVqPP9u0uTBYaC0GMIw7M98NBE9Re8mvlhpGNlwU-kQhqrjJjUOQGQhHzSNAezPB1MIu7e8GzKtIyAxyC0LFv1k3vNeX05MgF0s-jVC9edBWoxfUmii8ZGQC_a2pWVOU6JCpkBZc_RrLUYtY-Qx6RZMGOKmZQbjgXZWi3BnwXsGjNB9b_7O7oUBBc8aRthW0mTYrgzgegej6J0Rk63bRseL0XrtdNwcwRZSGQ7n7qWnK1FYKJBrdWPz3Yekc67RXMy37x5Xdh0VGL_jUYZ5pP_HdN7o4bKz42Fb7OwsIlj-ODxSEmWFh90ZaBdm8kgNq3FWM8AZemQRKB0cei2vWJeW6mPdw5WYV_5lS689_7U0Rw3yvy_xbkaVvZplZdvzjgSD5CiASz93gjpsC-JhBKszgN3NXbenRIMxROn6znsvlfJgITlOuQ5eimpq6yjtjk9pQRJOylZdLFVdNviqjKbYvOYXK_DeRLksl-7VTjjnlP9mby0]--></g></svg>