<?xml version="1.0" encoding="us-ascii" standalone="no"?><svg xmlns="http://www.w3.org/2000/svg" xmlns:xlink="http://www.w3.org/1999/xlink" contentStyleType="text/css" height="854.4px" preserveAspectRatio="none" style="width:1263px;height:854px;background:#FFFFFF;" version="1.1" viewBox="0 0 1263 854" width="1263px" zoomAndPan="magnify"><defs/><g><!--cluster system--><g id="cluster_system"><path d="M5.1,3.6082 L35.1,3.6082 A2.25,2.25 0 0 1 36.6,5.1082 L40.8,18.3809 L1257.3,18.3809 A1.5,1.5 0 0 1 1258.8,19.8809 L1258.8,849.0082 A1.5,1.5 0 0 1 1257.3,850.5082 L5.1,850.5082 A1.5,1.5 0 0 1 3.6,849.0082 L3.6,5.1082 A1.5,1.5 0 0 1 5.1,3.6082 " fill="none" style="stroke:#000000;stroke-width:0.8999999999999999;"/><line style="stroke:#000000;stroke-width:0.8999999999999999;" x1="3.6" x2="40.8" y1="18.3809" y2="18.3809"/><text fill="#000000" font-family="sans-serif" font-size="8.4" font-weight="bold" lengthAdjust="spacing" textLength="29.4" x="6" y="13.8727">system</text></g><!--cluster Infrastructure--><g id="cluster_Infrastructure"><path d="M228.9,30.6082 L287.7,30.6082 A2.25,2.25 0 0 1 289.2,32.1082 L293.4,45.3809 L510.9,45.3809 A1.5,1.5 0 0 1 512.4,46.8809 L512.4,131.1082 A1.5,1.5 0 0 1 510.9,132.6082 L228.9,132.6082 A1.5,1.5 0 0 1 227.4,131.1082 L227.4,32.1082 A1.5,1.5 0 0 1 228.9,30.6082 " fill="none" style="stroke:#000000;stroke-width:0.8999999999999999;"/><line style="stroke:#000000;stroke-width:0.8999999999999999;" x1="227.4" x2="293.4" y1="45.3809" y2="45.3809"/><text fill="#000000" font-family="sans-serif" font-size="8.4" font-weight="bold" lengthAdjust="spacing" textLength="58.2" x="229.8" y="40.8727">Infrastructure</text></g><!--cluster Routes--><g id="cluster_Routes"><path d="M407.1,57.6082 L437.7,57.6082 A2.25,2.25 0 0 1 439.2,59.1082 L443.4,72.3809 L496.5,72.3809 A1.5,1.5 0 0 1 498,73.8809 L498,116.7082 A1.5,1.5 0 0 1 496.5,118.2082 L407.1,118.2082 A1.5,1.5 0 0 1 405.6,116.7082 L405.6,59.1082 A1.5,1.5 0 0 1 407.1,57.6082 " fill="none" style="stroke:#000000;stroke-width:0.8999999999999999;"/><line style="stroke:#000000;stroke-width:0.8999999999999999;" x1="405.6" x2="443.4" y1="72.3809" y2="72.3809"/><text fill="#000000" font-family="sans-serif" font-size="8.4" font-weight="bold" lengthAdjust="spacing" textLength="30" x="408" y="67.8727">Routes</text></g><!--cluster Persistence--><g id="cluster_Persistence"><path d="M243.3,57.6082 L294.3,57.6082 A2.25,2.25 0 0 1 295.8,59.1082 L300,72.3809 L389.7,72.3809 A1.5,1.5 0 0 1 391.2,73.8809 L391.2,116.7082 A1.5,1.5 0 0 1 389.7,118.2082 L243.3,118.2082 A1.5,1.5 0 0 1 241.8,116.7082 L241.8,59.1082 A1.5,1.5 0 0 1 243.3,57.6082 " fill="none" style="stroke:#000000;stroke-width:0.8999999999999999;"/><line style="stroke:#000000;stroke-width:0.8999999999999999;" x1="241.8" x2="300" y1="72.3809" y2="72.3809"/><text fill="#000000" font-family="sans-serif" font-size="8.4" font-weight="bold" lengthAdjust="spacing" textLength="50.4" x="244.2" y="67.8727">Persistence</text></g><!--cluster Interface Adapters--><g id="cluster_Interface Adapters"><path d="M19.5,191.4082 L98.1,191.4082 A2.25,2.25 0 0 1 99.6,192.9082 L103.8,206.1809 L459.3,206.1809 A1.5,1.5 0 0 1 460.8,207.6809 L460.8,462.3082 A1.5,1.5 0 0 1 459.3,463.8082 L19.5,463.8082 A1.5,1.5 0 0 1 18,462.3082 L18,192.9082 A1.5,1.5 0 0 1 19.5,191.4082 " fill="none" style="stroke:#000000;stroke-width:0.8999999999999999;"/><line style="stroke:#000000;stroke-width:0.8999999999999999;" x1="18" x2="103.8" y1="206.1809" y2="206.1809"/><text fill="#000000" font-family="sans-serif" font-size="8.4" font-weight="bold" lengthAdjust="spacing" textLength="78" x="20.4" y="201.6727">Interface Adapters</text></g><!--cluster Controllers--><g id="cluster_Controllers"><path d="M33.9,218.4082 L81.9,218.4082 A2.25,2.25 0 0 1 83.4,219.9082 L87.6,233.1809 L168.9,233.1809 A1.5,1.5 0 0 1 170.4,234.6809 L170.4,447.9082 A1.5,1.5 0 0 1 168.9,449.4082 L33.9,449.4082 A1.5,1.5 0 0 1 32.4,447.9082 L32.4,219.9082 A1.5,1.5 0 0 1 33.9,218.4082 " fill="none" style="stroke:#000000;stroke-width:0.8999999999999999;"/><line style="stroke:#000000;stroke-width:0.8999999999999999;" x1="32.4" x2="87.6" y1="233.1809" y2="233.1809"/><text fill="#000000" font-family="sans-serif" font-size="8.4" font-weight="bold" lengthAdjust="spacing" textLength="47.4" x="34.8" y="228.6727">Controllers</text></g><!--cluster IControllers--><g id="cluster_IControllers"><path d="M48.3,245.4082 L98.7,245.4082 A2.25,2.25 0 0 1 100.2,246.9082 L104.4,260.1809 L154.5,260.1809 A1.5,1.5 0 0 1 156,261.6809 L156,304.5082 A1.5,1.5 0 0 1 154.5,306.0082 L48.3,306.0082 A1.5,1.5 0 0 1 46.8,304.5082 L46.8,246.9082 A1.5,1.5 0 0 1 48.3,245.4082 " fill="none" style="stroke:#000000;stroke-width:0.8999999999999999;"/><line style="stroke:#000000;stroke-width:0.8999999999999999;" x1="46.8" x2="104.4" y1="260.1809" y2="260.1809"/><text fill="#000000" font-family="sans-serif" font-size="8.4" font-weight="bold" lengthAdjust="spacing" textLength="49.8" x="49.2" y="255.6727">IControllers</text></g><!--cluster ImplControllers--><g id="cluster_ImplControllers"><path d="M50.1,374.4082 L115.5,374.4082 A2.25,2.25 0 0 1 117,375.9082 L121.2,389.1809 L153.9,389.1809 A1.5,1.5 0 0 1 155.4,390.6809 L155.4,433.5082 A1.5,1.5 0 0 1 153.9,435.0082 L50.1,435.0082 A1.5,1.5 0 0 1 48.6,433.5082 L48.6,375.9082 A1.5,1.5 0 0 1 50.1,374.4082 " fill="none" style="stroke:#000000;stroke-width:0.8999999999999999;"/><line style="stroke:#000000;stroke-width:0.8999999999999999;" x1="48.6" x2="121.2" y1="389.1809" y2="389.1809"/><text fill="#000000" font-family="sans-serif" font-size="8.4" font-weight="bold" lengthAdjust="spacing" textLength="64.8" x="51" y="384.6727">ImplControllers</text></g><!--cluster Repositories--><g id="cluster_Repositories"><path d="M186.3,245.4082 L240.9,245.4082 A2.25,2.25 0 0 1 242.4,246.9082 L246.6,260.1809 L444.9,260.1809 A1.5,1.5 0 0 1 446.4,261.6809 L446.4,304.5082 A1.5,1.5 0 0 1 444.9,306.0082 L186.3,306.0082 A1.5,1.5 0 0 1 184.8,304.5082 L184.8,246.9082 A1.5,1.5 0 0 1 186.3,245.4082 " fill="none" style="stroke:#000000;stroke-width:0.8999999999999999;"/><line style="stroke:#000000;stroke-width:0.8999999999999999;" x1="184.8" x2="246.6" y1="260.1809" y2="260.1809"/><text fill="#000000" font-family="sans-serif" font-size="8.4" font-weight="bold" lengthAdjust="spacing" textLength="54" x="187.2" y="255.6727">Repositories</text></g><!--cluster Application Services--><g id="cluster_Application Services"><path d="M476.7,320.4082 L563.7,320.4082 A2.25,2.25 0 0 1 565.2,321.9082 L569.4,335.1809 L799.5,335.1809 A1.5,1.5 0 0 1 801,336.6809 L801,703.8082 A1.5,1.5 0 0 1 799.5,705.3082 L476.7,705.3082 A1.5,1.5 0 0 1 475.2,703.8082 L475.2,321.9082 A1.5,1.5 0 0 1 476.7,320.4082 " fill="none" style="stroke:#000000;stroke-width:0.8999999999999999;"/><line style="stroke:#000000;stroke-width:0.8999999999999999;" x1="475.2" x2="569.4" y1="335.1809" y2="335.1809"/><text fill="#000000" font-family="sans-serif" font-size="8.4" font-weight="bold" lengthAdjust="spacing" textLength="86.4" x="477.6" y="330.6727">Application Services</text></g><!--cluster App Services--><g id="cluster_App Services"><path d="M491.1,347.4082 L547.5,347.4082 A2.25,2.25 0 0 1 549,348.9082 L553.2,362.1809 L785.1,362.1809 A1.5,1.5 0 0 1 786.6,363.6809 L786.6,689.4082 A1.5,1.5 0 0 1 785.1,690.9082 L491.1,690.9082 A1.5,1.5 0 0 1 489.6,689.4082 L489.6,348.9082 A1.5,1.5 0 0 1 491.1,347.4082 " fill="none" style="stroke:#000000;stroke-width:0.8999999999999999;"/><line style="stroke:#000000;stroke-width:0.8999999999999999;" x1="489.6" x2="553.2" y1="362.1809" y2="362.1809"/><text fill="#000000" font-family="sans-serif" font-size="8.4" font-weight="bold" lengthAdjust="spacing" textLength="55.8" x="492" y="357.6727">App Services</text></g><!--cluster IAppServices--><g id="cluster_IAppServices"><path d="M541.5,615.9082 L597.9,615.9082 A2.25,2.25 0 0 1 599.4,617.4082 L603.6,630.6809 L652.5,630.6809 A1.5,1.5 0 0 1 654,632.1809 L654,675.0082 A1.5,1.5 0 0 1 652.5,676.5082 L541.5,676.5082 A1.5,1.5 0 0 1 540,675.0082 L540,617.4082 A1.5,1.5 0 0 1 541.5,615.9082 " fill="none" style="stroke:#000000;stroke-width:0.8999999999999999;"/><line style="stroke:#000000;stroke-width:0.8999999999999999;" x1="540" x2="603.6" y1="630.6809" y2="630.6809"/><text fill="#000000" font-family="sans-serif" font-size="8.4" font-weight="bold" lengthAdjust="spacing" textLength="55.8" x="542.4" y="626.1727">IAppServices</text></g><!--cluster ImplAppServices--><g id="cluster_ImplAppServices"><path d="M578.1,478.2082 L649.5,478.2082 A2.25,2.25 0 0 1 651,479.7082 L655.2,492.9809 L687.9,492.9809 A1.5,1.5 0 0 1 689.4,494.4809 L689.4,537.3082 A1.5,1.5 0 0 1 687.9,538.8082 L578.1,538.8082 A1.5,1.5 0 0 1 576.6,537.3082 L576.6,479.7082 A1.5,1.5 0 0 1 578.1,478.2082 " fill="none" style="stroke:#000000;stroke-width:0.8999999999999999;"/><line style="stroke:#000000;stroke-width:0.8999999999999999;" x1="576.6" x2="655.2" y1="492.9809" y2="492.9809"/><text fill="#000000" font-family="sans-serif" font-size="8.4" font-weight="bold" lengthAdjust="spacing" textLength="70.8" x="579" y="488.4727">ImplAppServices</text></g><!--cluster IRepositories--><g id="cluster_IRepositories"><path d="M505.5,374.4082 L562.5,374.4082 A2.25,2.25 0 0 1 564,375.9082 L568.2,389.1809 L770.7,389.1809 A1.5,1.5 0 0 1 772.2,390.6809 L772.2,433.5082 A1.5,1.5 0 0 1 770.7,435.0082 L505.5,435.0082 A1.5,1.5 0 0 1 504,433.5082 L504,375.9082 A1.5,1.5 0 0 1 505.5,374.4082 " fill="none" style="stroke:#000000;stroke-width:0.8999999999999999;"/><line style="stroke:#000000;stroke-width:0.8999999999999999;" x1="504" x2="568.2" y1="389.1809" y2="389.1809"/><text fill="#000000" font-family="sans-serif" font-size="8.4" font-weight="bold" lengthAdjust="spacing" textLength="56.4" x="506.4" y="384.6727">IRepositories</text></g><!--cluster Entities/Core/Domain--><g id="cluster_Entities/Core/Domain"><path d="M816.9,553.2082 L905.7,553.2082 A2.25,2.25 0 0 1 907.2,554.7082 L911.4,567.9809 L1242.9,567.9809 A1.5,1.5 0 0 1 1244.4,569.4809 L1244.4,834.6082 A1.5,1.5 0 0 1 1242.9,836.1082 L816.9,836.1082 A1.5,1.5 0 0 1 815.4,834.6082 L815.4,554.7082 A1.5,1.5 0 0 1 816.9,553.2082 " fill="none" style="stroke:#000000;stroke-width:0.8999999999999999;"/><line style="stroke:#000000;stroke-width:0.8999999999999999;" x1="815.4" x2="911.4" y1="567.9809" y2="567.9809"/><text fill="#000000" font-family="sans-serif" font-size="8.4" font-weight="bold" lengthAdjust="spacing" textLength="88.2" x="817.8" y="563.4727">Entities/Core/Domain</text></g><!--cluster Aggregates--><g id="cluster_Aggregates"><path d="M962.7,580.2082 L1011.9,580.2082 A2.25,2.25 0 0 1 1013.4,581.7082 L1017.6,594.9809 L1058.1,594.9809 A1.5,1.5 0 0 1 1059.6,596.4809 L1059.6,698.1082 A1.5,1.5 0 0 1 1058.1,699.6082 L962.7,699.6082 A1.5,1.5 0 0 1 961.2,698.1082 L961.2,581.7082 A1.5,1.5 0 0 1 962.7,580.2082 " fill="none" style="stroke:#000000;stroke-width:0.8999999999999999;"/><line style="stroke:#000000;stroke-width:0.8999999999999999;" x1="961.2" x2="1017.6" y1="594.9809" y2="594.9809"/><text fill="#000000" font-family="sans-serif" font-size="8.4" font-weight="bold" lengthAdjust="spacing" textLength="48.6" x="963.6" y="590.4727">Aggregates</text></g><!--cluster a_elevator--><g id="cluster_a_elevator"><path d="M977.1,607.2082 L1013.1,607.2082 A2.25,2.25 0 0 1 1014.6,608.7082 L1018.8,621.9809 L1043.7,621.9809 A1.5,1.5 0 0 1 1045.2,623.4809 L1045.2,683.7082 A1.5,1.5 0 0 1 1043.7,685.2082 L977.1,685.2082 A1.5,1.5 0 0 1 975.6,683.7082 L975.6,608.7082 A1.5,1.5 0 0 1 977.1,607.2082 " fill="none" style="stroke:#000000;stroke-width:0.8999999999999999;"/><line style="stroke:#000000;stroke-width:0.8999999999999999;" x1="975.6" x2="1018.8" y1="621.9809" y2="621.9809"/><text fill="#000000" font-family="sans-serif" font-size="8.4" font-weight="bold" lengthAdjust="spacing" textLength="35.4" x="978" y="617.4727">Elevator</text></g><!--cluster Value Objects--><g id="cluster_Value Objects"><path d="M831.3,719.7082 L890.1,719.7082 A2.25,2.25 0 0 1 891.6,721.2082 L895.8,734.4809 L1228.5,734.4809 A1.5,1.5 0 0 1 1230,735.9809 L1230,820.2082 A1.5,1.5 0 0 1 1228.5,821.7082 L831.3,821.7082 A1.5,1.5 0 0 1 829.8,820.2082 L829.8,721.2082 A1.5,1.5 0 0 1 831.3,719.7082 " fill="none" style="stroke:#000000;stroke-width:0.8999999999999999;"/><line style="stroke:#000000;stroke-width:0.8999999999999999;" x1="829.8" x2="895.8" y1="734.4809" y2="734.4809"/><text fill="#000000" font-family="sans-serif" font-size="8.4" font-weight="bold" lengthAdjust="spacing" textLength="58.2" x="832.2" y="729.9727">Value Objects</text></g><!--cluster vo_elevator--><g id="cluster_vo_elevator"><path d="M845.7,746.7082 L881.7,746.7082 A2.25,2.25 0 0 1 883.2,748.2082 L887.4,761.4809 L1214.1,761.4809 A1.5,1.5 0 0 1 1215.6,762.9809 L1215.6,805.8082 A1.5,1.5 0 0 1 1214.1,807.3082 L845.7,807.3082 A1.5,1.5 0 0 1 844.2,805.8082 L844.2,748.2082 A1.5,1.5 0 0 1 845.7,746.7082 " fill="none" style="stroke:#000000;stroke-width:0.8999999999999999;"/><line style="stroke:#000000;stroke-width:0.8999999999999999;" x1="844.2" x2="887.4" y1="761.4809" y2="761.4809"/><text fill="#000000" font-family="sans-serif" font-size="8.4" font-weight="bold" lengthAdjust="spacing" textLength="35.4" x="846.6" y="756.9727">Elevator</text></g><!--class RouteElevator--><g id="elem_RouteElevator"><rect codeLine="16" fill="#F1F1F1" height="28.8" id="RouteElevator" rx="1.5" ry="1.5" style="stroke:#181818;stroke-width:0.3;" width="73.2" x="415.2" y="79.8082"/><ellipse cx="424.2" cy="89.4082" fill="#ADD1B2" rx="6.6" ry="6.6" style="stroke:#181818;stroke-width:0.6;"/><path d="M425.8594,86.9332 Q425.9531,86.802 426.0656,86.7363 Q426.1781,86.6707 426.3094,86.6707 Q426.5344,86.6707 426.675,86.8301 Q426.8156,86.9801 426.8156,87.3457 L426.8156,88.2176 Q426.8156,88.5832 426.675,88.7426 Q426.5344,88.902 426.3094,88.902 Q426.1031,88.902 425.9813,88.7801 Q425.8594,88.6676 425.7938,88.3582 Q425.7656,88.1426 425.6531,88.0301 Q425.4563,87.8051 425.0906,87.6738 Q424.725,87.5426 424.35,87.5426 Q423.8906,87.5426 423.5062,87.7395 Q423.1312,87.9363 422.8313,88.3863 Q422.5406,88.8363 422.5406,89.4551 L422.5406,90.1113 Q422.5406,90.852 423.075,91.3488 Q423.6094,91.8363 424.5656,91.8363 Q425.1281,91.8363 425.5219,91.6863 Q425.7562,91.5926 426.0094,91.3301 Q426.1688,91.1707 426.2531,91.1238 Q426.3469,91.077 426.4688,91.077 Q426.6656,91.077 426.8156,91.2363 Q426.975,91.3863 426.975,91.5926 Q426.975,91.7988 426.7688,92.0426 Q426.4688,92.3895 425.9906,92.5863 Q425.3438,92.8582 424.5656,92.8582 Q423.6563,92.8582 422.9344,92.4832 Q422.3438,92.1832 421.9313,91.5457 Q421.5188,90.8988 421.5188,90.1301 L421.5188,89.4363 Q421.5188,88.6395 421.8844,87.9551 Q422.2594,87.2613 422.9156,86.8957 Q423.5719,86.5207 424.3125,86.5207 Q424.7531,86.5207 425.1375,86.6238 Q425.5313,86.7176 425.8594,86.9332 Z " fill="#000000"/><text fill="#000000" font-family="sans-serif" font-size="8.4" lengthAdjust="spacing" textLength="54" x="432.6" y="92.8863">RouteElevator</text><line style="stroke:#181818;stroke-width:0.3;" x1="415.8" x2="487.8" y1="99.0082" y2="99.0082"/><line style="stroke:#181818;stroke-width:0.3;" x1="415.8" x2="487.8" y1="103.8082" y2="103.8082"/></g><!--class IDBDriver--><g id="elem_IDBDriver"><rect codeLine="20" fill="#F1F1F1" height="28.8" id="IDBDriver" rx="1.5" ry="1.5" style="stroke:#181818;stroke-width:0.3;" width="55.2" x="326.4" y="79.8082"/><ellipse cx="335.4" cy="89.4082" fill="#B4A7E5" rx="6.6" ry="6.6" style="stroke:#181818;stroke-width:0.6;"/><path d="M335.9719,87.3926 L335.9719,91.3863 L337.0031,91.3863 Q337.3688,91.3863 337.5281,91.527 Q337.6875,91.6676 337.6875,91.902 Q337.6875,92.127 337.5281,92.2676 Q337.3688,92.4082 337.0031,92.4082 L333.9188,92.4082 Q333.5531,92.4082 333.3938,92.2676 Q333.2344,92.127 333.2344,91.8926 Q333.2344,91.6676 333.3938,91.527 Q333.5531,91.3863 333.9188,91.3863 L334.95,91.3863 L334.95,87.3926 L333.9188,87.3926 Q333.5531,87.3926 333.3938,87.252 Q333.2344,87.1113 333.2344,86.877 Q333.2344,86.652 333.3938,86.5113 Q333.5531,86.3707 333.9188,86.3707 L337.0031,86.3707 Q337.3688,86.3707 337.5281,86.5113 Q337.6875,86.652 337.6875,86.877 Q337.6875,87.1113 337.5281,87.252 Q337.3688,87.3926 337.0031,87.3926 L335.9719,87.3926 Z " fill="#000000"/><text fill="#000000" font-family="sans-serif" font-size="8.4" font-style="italic" lengthAdjust="spacing" textLength="36" x="343.8" y="92.8863">IDBDriver</text><line style="stroke:#181818;stroke-width:0.3;" x1="327" x2="381" y1="99.0082" y2="99.0082"/><line style="stroke:#181818;stroke-width:0.3;" x1="327" x2="381" y1="103.8082" y2="103.8082"/></g><!--class DBDriver--><g id="elem_DBDriver"><rect codeLine="21" fill="#F1F1F1" height="28.8" id="DBDriver" rx="1.5" ry="1.5" style="stroke:#181818;stroke-width:0.3;" width="53.4" x="251.7" y="79.8082"/><ellipse cx="260.7" cy="89.4082" fill="#ADD1B2" rx="6.6" ry="6.6" style="stroke:#181818;stroke-width:0.6;"/><path d="M262.3594,86.9332 Q262.4531,86.802 262.5656,86.7363 Q262.6781,86.6707 262.8094,86.6707 Q263.0344,86.6707 263.175,86.8301 Q263.3156,86.9801 263.3156,87.3457 L263.3156,88.2176 Q263.3156,88.5832 263.175,88.7426 Q263.0344,88.902 262.8094,88.902 Q262.6031,88.902 262.4813,88.7801 Q262.3594,88.6676 262.2938,88.3582 Q262.2656,88.1426 262.1531,88.0301 Q261.9563,87.8051 261.5906,87.6738 Q261.225,87.5426 260.85,87.5426 Q260.3906,87.5426 260.0062,87.7395 Q259.6312,87.9363 259.3313,88.3863 Q259.0406,88.8363 259.0406,89.4551 L259.0406,90.1113 Q259.0406,90.852 259.575,91.3488 Q260.1094,91.8363 261.0656,91.8363 Q261.6281,91.8363 262.0219,91.6863 Q262.2562,91.5926 262.5094,91.3301 Q262.6688,91.1707 262.7531,91.1238 Q262.8469,91.077 262.9688,91.077 Q263.1656,91.077 263.3156,91.2363 Q263.475,91.3863 263.475,91.5926 Q263.475,91.7988 263.2688,92.0426 Q262.9688,92.3895 262.4906,92.5863 Q261.8438,92.8582 261.0656,92.8582 Q260.1563,92.8582 259.4344,92.4832 Q258.8438,92.1832 258.4313,91.5457 Q258.0188,90.8988 258.0188,90.1301 L258.0188,89.4363 Q258.0188,88.6395 258.3844,87.9551 Q258.7594,87.2613 259.4156,86.8957 Q260.0719,86.5207 260.8125,86.5207 Q261.2531,86.5207 261.6375,86.6238 Q262.0313,86.7176 262.3594,86.9332 Z " fill="#000000"/><text fill="#000000" font-family="sans-serif" font-size="8.4" lengthAdjust="spacing" textLength="34.2" x="269.1" y="92.8863">DBDriver</text><line style="stroke:#181818;stroke-width:0.3;" x1="252.3" x2="304.5" y1="99.0082" y2="99.0082"/><line style="stroke:#181818;stroke-width:0.3;" x1="252.3" x2="304.5" y1="103.8082" y2="103.8082"/></g><!--class IControllerElevator--><g id="elem_IControllerElevator"><rect codeLine="30" fill="#F1F1F1" height="28.8" id="IControllerElevator" rx="1.5" ry="1.5" style="stroke:#181818;stroke-width:0.3;" width="89.4" x="56.7" y="267.6082"/><ellipse cx="65.7" cy="277.2082" fill="#B4A7E5" rx="6.6" ry="6.6" style="stroke:#181818;stroke-width:0.6;"/><path d="M66.2719,275.1926 L66.2719,279.1863 L67.3031,279.1863 Q67.6688,279.1863 67.8281,279.327 Q67.9875,279.4676 67.9875,279.702 Q67.9875,279.927 67.8281,280.0676 Q67.6688,280.2082 67.3031,280.2082 L64.2188,280.2082 Q63.8531,280.2082 63.6937,280.0676 Q63.5344,279.927 63.5344,279.6926 Q63.5344,279.4676 63.6937,279.327 Q63.8531,279.1863 64.2188,279.1863 L65.25,279.1863 L65.25,275.1926 L64.2188,275.1926 Q63.8531,275.1926 63.6937,275.052 Q63.5344,274.9113 63.5344,274.677 Q63.5344,274.452 63.6937,274.3113 Q63.8531,274.1707 64.2188,274.1707 L67.3031,274.1707 Q67.6688,274.1707 67.8281,274.3113 Q67.9875,274.452 67.9875,274.677 Q67.9875,274.9113 67.8281,275.052 Q67.6688,275.1926 67.3031,275.1926 L66.2719,275.1926 Z " fill="#000000"/><text fill="#000000" font-family="sans-serif" font-size="8.4" font-style="italic" lengthAdjust="spacing" textLength="70.2" x="74.1" y="280.6863">IControllerElevator</text><line style="stroke:#181818;stroke-width:0.3;" x1="57.3" x2="145.5" y1="286.8082" y2="286.8082"/><line style="stroke:#181818;stroke-width:0.3;" x1="57.3" x2="145.5" y1="291.6082" y2="291.6082"/></g><!--class ControllerElevator--><g id="elem_ControllerElevator"><rect codeLine="34" fill="#F1F1F1" height="28.8" id="ControllerElevator" rx="1.5" ry="1.5" style="stroke:#181818;stroke-width:0.3;" width="87.6" x="58.2" y="396.6082"/><ellipse cx="67.2" cy="406.2082" fill="#ADD1B2" rx="6.6" ry="6.6" style="stroke:#181818;stroke-width:0.6;"/><path d="M68.8594,403.7332 Q68.9531,403.602 69.0656,403.5363 Q69.1781,403.4707 69.3094,403.4707 Q69.5344,403.4707 69.675,403.6301 Q69.8156,403.7801 69.8156,404.1457 L69.8156,405.0176 Q69.8156,405.3832 69.675,405.5426 Q69.5344,405.702 69.3094,405.702 Q69.1031,405.702 68.9813,405.5801 Q68.8594,405.4676 68.7938,405.1582 Q68.7656,404.9426 68.6531,404.8301 Q68.4563,404.6051 68.0906,404.4738 Q67.725,404.3426 67.35,404.3426 Q66.8906,404.3426 66.5063,404.5395 Q66.1313,404.7363 65.8313,405.1863 Q65.5406,405.6363 65.5406,406.2551 L65.5406,406.9113 Q65.5406,407.652 66.075,408.1488 Q66.6094,408.6363 67.5656,408.6363 Q68.1281,408.6363 68.5219,408.4863 Q68.7563,408.3926 69.0094,408.1301 Q69.1688,407.9707 69.2531,407.9238 Q69.3469,407.877 69.4688,407.877 Q69.6656,407.877 69.8156,408.0363 Q69.975,408.1863 69.975,408.3926 Q69.975,408.5988 69.7688,408.8426 Q69.4688,409.1895 68.9906,409.3863 Q68.3438,409.6582 67.5656,409.6582 Q66.6563,409.6582 65.9344,409.2832 Q65.3438,408.9832 64.9312,408.3457 Q64.5188,407.6988 64.5188,406.9301 L64.5188,406.2363 Q64.5188,405.4395 64.8844,404.7551 Q65.2594,404.0613 65.9156,403.6957 Q66.5719,403.3207 67.3125,403.3207 Q67.7531,403.3207 68.1375,403.4238 Q68.5313,403.5176 68.8594,403.7332 Z " fill="#000000"/><text fill="#000000" font-family="sans-serif" font-size="8.4" lengthAdjust="spacing" textLength="68.4" x="75.6" y="409.6863">ControllerElevator</text><line style="stroke:#181818;stroke-width:0.3;" x1="58.8" x2="145.2" y1="415.8082" y2="415.8082"/><line style="stroke:#181818;stroke-width:0.3;" x1="58.8" x2="145.2" y1="420.6082" y2="420.6082"/></g><!--class RepoBuilding--><g id="elem_RepoBuilding"><rect codeLine="40" fill="#F1F1F1" height="28.8" id="RepoBuilding" rx="1.5" ry="1.5" style="stroke:#181818;stroke-width:0.3;" width="69.6" x="367.2" y="267.6082"/><ellipse cx="376.2" cy="277.2082" fill="#ADD1B2" rx="6.6" ry="6.6" style="stroke:#181818;stroke-width:0.6;"/><path d="M377.8594,274.7332 Q377.9531,274.602 378.0656,274.5363 Q378.1781,274.4707 378.3094,274.4707 Q378.5344,274.4707 378.675,274.6301 Q378.8156,274.7801 378.8156,275.1457 L378.8156,276.0176 Q378.8156,276.3832 378.675,276.5426 Q378.5344,276.702 378.3094,276.702 Q378.1031,276.702 377.9813,276.5801 Q377.8594,276.4676 377.7938,276.1582 Q377.7656,275.9426 377.6531,275.8301 Q377.4563,275.6051 377.0906,275.4738 Q376.725,275.3426 376.35,275.3426 Q375.8906,275.3426 375.5062,275.5395 Q375.1312,275.7363 374.8313,276.1863 Q374.5406,276.6363 374.5406,277.2551 L374.5406,277.9113 Q374.5406,278.652 375.075,279.1488 Q375.6094,279.6363 376.5656,279.6363 Q377.1281,279.6363 377.5219,279.4863 Q377.7562,279.3926 378.0094,279.1301 Q378.1688,278.9707 378.2531,278.9238 Q378.3469,278.877 378.4688,278.877 Q378.6656,278.877 378.8156,279.0363 Q378.975,279.1863 378.975,279.3926 Q378.975,279.5988 378.7688,279.8426 Q378.4688,280.1895 377.9906,280.3863 Q377.3438,280.6582 376.5656,280.6582 Q375.6563,280.6582 374.9344,280.2832 Q374.3438,279.9832 373.9313,279.3457 Q373.5188,278.6988 373.5188,277.9301 L373.5188,277.2363 Q373.5188,276.4395 373.8844,275.7551 Q374.2594,275.0613 374.9156,274.6957 Q375.5719,274.3207 376.3125,274.3207 Q376.7531,274.3207 377.1375,274.4238 Q377.5313,274.5176 377.8594,274.7332 Z " fill="#000000"/><text fill="#000000" font-family="sans-serif" font-size="8.4" lengthAdjust="spacing" textLength="50.4" x="384.6" y="280.6863">RepoBuilding</text><line style="stroke:#181818;stroke-width:0.3;" x1="367.8" x2="436.2" y1="286.8082" y2="286.8082"/><line style="stroke:#181818;stroke-width:0.3;" x1="367.8" x2="436.2" y1="291.6082" y2="291.6082"/></g><!--class RepoFloor--><g id="elem_RepoFloor"><rect codeLine="41" fill="#F1F1F1" height="28.8" id="RepoFloor" rx="1.5" ry="1.5" style="stroke:#181818;stroke-width:0.3;" width="59.4" x="194.7" y="267.6082"/><ellipse cx="203.7" cy="277.2082" fill="#ADD1B2" rx="6.6" ry="6.6" style="stroke:#181818;stroke-width:0.6;"/><path d="M205.3594,274.7332 Q205.4531,274.602 205.5656,274.5363 Q205.6781,274.4707 205.8094,274.4707 Q206.0344,274.4707 206.175,274.6301 Q206.3156,274.7801 206.3156,275.1457 L206.3156,276.0176 Q206.3156,276.3832 206.175,276.5426 Q206.0344,276.702 205.8094,276.702 Q205.6031,276.702 205.4813,276.5801 Q205.3594,276.4676 205.2938,276.1582 Q205.2656,275.9426 205.1531,275.8301 Q204.9562,275.6051 204.5906,275.4738 Q204.225,275.3426 203.85,275.3426 Q203.3906,275.3426 203.0063,275.5395 Q202.6313,275.7363 202.3312,276.1863 Q202.0406,276.6363 202.0406,277.2551 L202.0406,277.9113 Q202.0406,278.652 202.575,279.1488 Q203.1094,279.6363 204.0656,279.6363 Q204.6281,279.6363 205.0219,279.4863 Q205.2563,279.3926 205.5094,279.1301 Q205.6688,278.9707 205.7531,278.9238 Q205.8469,278.877 205.9688,278.877 Q206.1656,278.877 206.3156,279.0363 Q206.475,279.1863 206.475,279.3926 Q206.475,279.5988 206.2687,279.8426 Q205.9688,280.1895 205.4906,280.3863 Q204.8438,280.6582 204.0656,280.6582 Q203.1563,280.6582 202.4344,280.2832 Q201.8438,279.9832 201.4313,279.3457 Q201.0187,278.6988 201.0187,277.9301 L201.0187,277.2363 Q201.0187,276.4395 201.3844,275.7551 Q201.7594,275.0613 202.4156,274.6957 Q203.0719,274.3207 203.8125,274.3207 Q204.2531,274.3207 204.6375,274.4238 Q205.0313,274.5176 205.3594,274.7332 Z " fill="#000000"/><text fill="#000000" font-family="sans-serif" font-size="8.4" lengthAdjust="spacing" textLength="40.2" x="212.1" y="280.6863">RepoFloor</text><line style="stroke:#181818;stroke-width:0.3;" x1="195.3" x2="253.5" y1="286.8082" y2="286.8082"/><line style="stroke:#181818;stroke-width:0.3;" x1="195.3" x2="253.5" y1="291.6082" y2="291.6082"/></g><!--class RepoElevator--><g id="elem_RepoElevator"><rect codeLine="42" fill="#F1F1F1" height="28.8" id="RepoElevator" rx="1.5" ry="1.5" style="stroke:#181818;stroke-width:0.3;" width="70.8" x="275.4" y="267.6082"/><ellipse cx="284.4" cy="277.2082" fill="#ADD1B2" rx="6.6" ry="6.6" style="stroke:#181818;stroke-width:0.6;"/><path d="M286.0594,274.7332 Q286.1531,274.602 286.2656,274.5363 Q286.3781,274.4707 286.5094,274.4707 Q286.7344,274.4707 286.875,274.6301 Q287.0156,274.7801 287.0156,275.1457 L287.0156,276.0176 Q287.0156,276.3832 286.875,276.5426 Q286.7344,276.702 286.5094,276.702 Q286.3031,276.702 286.1813,276.5801 Q286.0594,276.4676 285.9938,276.1582 Q285.9656,275.9426 285.8531,275.8301 Q285.6563,275.6051 285.2906,275.4738 Q284.925,275.3426 284.55,275.3426 Q284.0906,275.3426 283.7063,275.5395 Q283.3313,275.7363 283.0313,276.1863 Q282.7406,276.6363 282.7406,277.2551 L282.7406,277.9113 Q282.7406,278.652 283.275,279.1488 Q283.8094,279.6363 284.7656,279.6363 Q285.3281,279.6363 285.7219,279.4863 Q285.9563,279.3926 286.2094,279.1301 Q286.3688,278.9707 286.4531,278.9238 Q286.5469,278.877 286.6688,278.877 Q286.8656,278.877 287.0156,279.0363 Q287.175,279.1863 287.175,279.3926 Q287.175,279.5988 286.9688,279.8426 Q286.6688,280.1895 286.1906,280.3863 Q285.5438,280.6582 284.7656,280.6582 Q283.8563,280.6582 283.1344,280.2832 Q282.5438,279.9832 282.1312,279.3457 Q281.7188,278.6988 281.7188,277.9301 L281.7188,277.2363 Q281.7188,276.4395 282.0844,275.7551 Q282.4594,275.0613 283.1156,274.6957 Q283.7719,274.3207 284.5125,274.3207 Q284.9531,274.3207 285.3375,274.4238 Q285.7313,274.5176 286.0594,274.7332 Z " fill="#000000"/><text fill="#000000" font-family="sans-serif" font-size="8.4" lengthAdjust="spacing" textLength="51.6" x="292.8" y="280.6863">RepoElevator</text><line style="stroke:#181818;stroke-width:0.3;" x1="276" x2="345.6" y1="286.8082" y2="286.8082"/><line style="stroke:#181818;stroke-width:0.3;" x1="276" x2="345.6" y1="291.6082" y2="291.6082"/></g><!--class IAppServiceElevator--><g id="elem_IAppServiceElevator"><rect codeLine="55" fill="#F1F1F1" height="28.8" id="IAppServiceElevator" rx="1.5" ry="1.5" style="stroke:#181818;stroke-width:0.3;" width="94.8" x="549.6" y="638.1082"/><ellipse cx="558.6" cy="647.7082" fill="#B4A7E5" rx="6.6" ry="6.6" style="stroke:#181818;stroke-width:0.6;"/><path d="M559.1719,645.6926 L559.1719,649.6863 L560.2031,649.6863 Q560.5688,649.6863 560.7281,649.827 Q560.8875,649.9676 560.8875,650.202 Q560.8875,650.427 560.7281,650.5676 Q560.5688,650.7082 560.2031,650.7082 L557.1188,650.7082 Q556.7531,650.7082 556.5938,650.5676 Q556.4344,650.427 556.4344,650.1926 Q556.4344,649.9676 556.5938,649.827 Q556.7531,649.6863 557.1188,649.6863 L558.15,649.6863 L558.15,645.6926 L557.1188,645.6926 Q556.7531,645.6926 556.5938,645.552 Q556.4344,645.4113 556.4344,645.177 Q556.4344,644.952 556.5938,644.8113 Q556.7531,644.6707 557.1188,644.6707 L560.2031,644.6707 Q560.5688,644.6707 560.7281,644.8113 Q560.8875,644.952 560.8875,645.177 Q560.8875,645.4113 560.7281,645.552 Q560.5688,645.6926 560.2031,645.6926 L559.1719,645.6926 Z " fill="#000000"/><text fill="#000000" font-family="sans-serif" font-size="8.4" font-style="italic" lengthAdjust="spacing" textLength="75.6" x="567" y="651.1863">IAppServiceElevator</text><line style="stroke:#181818;stroke-width:0.3;" x1="550.2" x2="643.8" y1="657.3082" y2="657.3082"/><line style="stroke:#181818;stroke-width:0.3;" x1="550.2" x2="643.8" y1="662.1082" y2="662.1082"/></g><!--class AppServiceElevator--><g id="elem_AppServiceElevator"><rect codeLine="59" fill="#F1F1F1" height="28.8" id="AppServiceElevator" rx="1.5" ry="1.5" style="stroke:#181818;stroke-width:0.3;" width="93.6" x="586.2" y="500.4082"/><ellipse cx="595.2" cy="510.0082" fill="#ADD1B2" rx="6.6" ry="6.6" style="stroke:#181818;stroke-width:0.6;"/><path d="M596.8594,507.5332 Q596.9531,507.402 597.0656,507.3363 Q597.1781,507.2707 597.3094,507.2707 Q597.5344,507.2707 597.675,507.4301 Q597.8156,507.5801 597.8156,507.9457 L597.8156,508.8176 Q597.8156,509.1832 597.675,509.3426 Q597.5344,509.502 597.3094,509.502 Q597.1031,509.502 596.9812,509.3801 Q596.8594,509.2676 596.7937,508.9582 Q596.7656,508.7426 596.6531,508.6301 Q596.4563,508.4051 596.0906,508.2738 Q595.725,508.1426 595.35,508.1426 Q594.8906,508.1426 594.5063,508.3395 Q594.1313,508.5363 593.8313,508.9863 Q593.5406,509.4363 593.5406,510.0551 L593.5406,510.7113 Q593.5406,511.452 594.075,511.9488 Q594.6094,512.4363 595.5656,512.4363 Q596.1281,512.4363 596.5219,512.2863 Q596.7563,512.1926 597.0094,511.9301 Q597.1687,511.7707 597.2531,511.7238 Q597.3469,511.677 597.4688,511.677 Q597.6656,511.677 597.8156,511.8363 Q597.975,511.9863 597.975,512.1926 Q597.975,512.3988 597.7688,512.6426 Q597.4688,512.9895 596.9906,513.1863 Q596.3438,513.4582 595.5656,513.4582 Q594.6563,513.4582 593.9344,513.0832 Q593.3438,512.7832 592.9313,512.1457 Q592.5188,511.4988 592.5188,510.7301 L592.5188,510.0363 Q592.5188,509.2395 592.8844,508.5551 Q593.2594,507.8613 593.9156,507.4957 Q594.5719,507.1207 595.3125,507.1207 Q595.7531,507.1207 596.1375,507.2238 Q596.5313,507.3176 596.8594,507.5332 Z " fill="#000000"/><text fill="#000000" font-family="sans-serif" font-size="8.4" lengthAdjust="spacing" textLength="74.4" x="603.6" y="513.4863">AppServiceElevator</text><line style="stroke:#181818;stroke-width:0.3;" x1="586.8" x2="679.2" y1="519.6082" y2="519.6082"/><line style="stroke:#181818;stroke-width:0.3;" x1="586.8" x2="679.2" y1="524.4082" y2="524.4082"/></g><!--class IRepoBuilding--><g id="elem_IRepoBuilding"><rect codeLine="65" fill="#F1F1F1" height="28.8" id="IRepoBuilding" rx="1.5" ry="1.5" style="stroke:#181818;stroke-width:0.3;" width="72" x="690.6" y="396.6082"/><ellipse cx="699.6" cy="406.2082" fill="#B4A7E5" rx="6.6" ry="6.6" style="stroke:#181818;stroke-width:0.6;"/><path d="M700.1719,404.1926 L700.1719,408.1863 L701.2031,408.1863 Q701.5688,408.1863 701.7281,408.327 Q701.8875,408.4676 701.8875,408.702 Q701.8875,408.927 701.7281,409.0676 Q701.5688,409.2082 701.2031,409.2082 L698.1188,409.2082 Q697.7531,409.2082 697.5938,409.0676 Q697.4344,408.927 697.4344,408.6926 Q697.4344,408.4676 697.5938,408.327 Q697.7531,408.1863 698.1188,408.1863 L699.15,408.1863 L699.15,404.1926 L698.1188,404.1926 Q697.7531,404.1926 697.5938,404.052 Q697.4344,403.9113 697.4344,403.677 Q697.4344,403.452 697.5938,403.3113 Q697.7531,403.1707 698.1188,403.1707 L701.2031,403.1707 Q701.5688,403.1707 701.7281,403.3113 Q701.8875,403.452 701.8875,403.677 Q701.8875,403.9113 701.7281,404.052 Q701.5688,404.1926 701.2031,404.1926 L700.1719,404.1926 Z " fill="#000000"/><text fill="#000000" font-family="sans-serif" font-size="8.4" font-style="italic" lengthAdjust="spacing" textLength="52.8" x="708" y="409.6863">IRepoBuilding</text><line style="stroke:#181818;stroke-width:0.3;" x1="691.2" x2="762" y1="415.8082" y2="415.8082"/><line style="stroke:#181818;stroke-width:0.3;" x1="691.2" x2="762" y1="420.6082" y2="420.6082"/></g><!--class IRepoFloor--><g id="elem_IRepoFloor"><rect codeLine="66" fill="#F1F1F1" height="28.8" id="IRepoFloor" rx="1.5" ry="1.5" style="stroke:#181818;stroke-width:0.3;" width="61.8" x="513.9" y="396.6082"/><ellipse cx="522.9" cy="406.2082" fill="#B4A7E5" rx="6.6" ry="6.6" style="stroke:#181818;stroke-width:0.6;"/><path d="M523.4719,404.1926 L523.4719,408.1863 L524.5031,408.1863 Q524.8688,408.1863 525.0281,408.327 Q525.1875,408.4676 525.1875,408.702 Q525.1875,408.927 525.0281,409.0676 Q524.8688,409.2082 524.5031,409.2082 L521.4187,409.2082 Q521.0531,409.2082 520.8938,409.0676 Q520.7344,408.927 520.7344,408.6926 Q520.7344,408.4676 520.8938,408.327 Q521.0531,408.1863 521.4187,408.1863 L522.45,408.1863 L522.45,404.1926 L521.4187,404.1926 Q521.0531,404.1926 520.8938,404.052 Q520.7344,403.9113 520.7344,403.677 Q520.7344,403.452 520.8938,403.3113 Q521.0531,403.1707 521.4187,403.1707 L524.5031,403.1707 Q524.8688,403.1707 525.0281,403.3113 Q525.1875,403.452 525.1875,403.677 Q525.1875,403.9113 525.0281,404.052 Q524.8688,404.1926 524.5031,404.1926 L523.4719,404.1926 Z " fill="#000000"/><text fill="#000000" font-family="sans-serif" font-size="8.4" font-style="italic" lengthAdjust="spacing" textLength="42.6" x="531.3" y="409.6863">IRepoFloor</text><line style="stroke:#181818;stroke-width:0.3;" x1="514.5" x2="575.1" y1="415.8082" y2="415.8082"/><line style="stroke:#181818;stroke-width:0.3;" x1="514.5" x2="575.1" y1="420.6082" y2="420.6082"/></g><!--class IRepoElevator--><g id="elem_IRepoElevator"><rect codeLine="67" fill="#F1F1F1" height="28.8" id="IRepoElevator" rx="1.5" ry="1.5" style="stroke:#181818;stroke-width:0.3;" width="72.6" x="596.7" y="396.6082"/><ellipse cx="605.7" cy="406.2082" fill="#B4A7E5" rx="6.6" ry="6.6" style="stroke:#181818;stroke-width:0.6;"/><path d="M606.2719,404.1926 L606.2719,408.1863 L607.3031,408.1863 Q607.6687,408.1863 607.8281,408.327 Q607.9875,408.4676 607.9875,408.702 Q607.9875,408.927 607.8281,409.0676 Q607.6687,409.2082 607.3031,409.2082 L604.2188,409.2082 Q603.8531,409.2082 603.6938,409.0676 Q603.5344,408.927 603.5344,408.6926 Q603.5344,408.4676 603.6938,408.327 Q603.8531,408.1863 604.2188,408.1863 L605.25,408.1863 L605.25,404.1926 L604.2188,404.1926 Q603.8531,404.1926 603.6938,404.052 Q603.5344,403.9113 603.5344,403.677 Q603.5344,403.452 603.6938,403.3113 Q603.8531,403.1707 604.2188,403.1707 L607.3031,403.1707 Q607.6687,403.1707 607.8281,403.3113 Q607.9875,403.452 607.9875,403.677 Q607.9875,403.9113 607.8281,404.052 Q607.6687,404.1926 607.3031,404.1926 L606.2719,404.1926 Z " fill="#000000"/><text fill="#000000" font-family="sans-serif" font-size="8.4" font-style="italic" lengthAdjust="spacing" textLength="53.4" x="614.1" y="409.6863">IRepoElevator</text><line style="stroke:#181818;stroke-width:0.3;" x1="597.3" x2="668.7" y1="415.8082" y2="415.8082"/><line style="stroke:#181818;stroke-width:0.3;" x1="597.3" x2="668.7" y1="420.6082" y2="420.6082"/></g><!--class Elevator--><g id="elem_Elevator"><rect codeLine="86" fill="#F1F1F1" height="45.9258" id="Elevator" rx="1.5" ry="1.5" style="stroke:#181818;stroke-width:0.3;" width="50.4" x="985.2" y="629.4082"/><ellipse cx="994.2" cy="647.5711" fill="#ADD1B2" rx="6.6" ry="6.6" style="stroke:#181818;stroke-width:0.6;"/><path d="M993.5156,648.0492 L993.5156,649.5492 L996.1125,649.5492 L996.1125,648.9961 Q996.1125,648.6305 996.2531,648.4711 Q996.4031,648.3117 996.6281,648.3117 Q996.8531,648.3117 996.9938,648.4711 Q997.1344,648.6305 997.1344,648.9961 L997.1344,650.5711 L992.3344,650.5711 Q991.9594,650.5711 991.8,650.4305 Q991.65,650.2898 991.65,650.0555 Q991.65,649.8305 991.8094,649.6898 Q991.9688,649.5492 992.3344,649.5492 L992.4938,649.5492 L992.4938,645.5555 L992.3344,645.5555 Q991.9594,645.5555 991.8,645.4148 Q991.65,645.2742 991.65,645.0398 Q991.65,644.8148 991.8,644.6742 Q991.9594,644.5336 992.3344,644.5336 L996.9094,644.5336 L996.9094,646.0898 Q996.9094,646.4555 996.7688,646.6148 Q996.6375,646.7648 996.4031,646.7648 Q996.1781,646.7648 996.0375,646.6148 Q995.8969,646.4555 995.8969,646.0898 L995.8969,645.5555 L993.5156,645.5555 L993.5156,647.0273 L994.4063,647.0273 Q994.4063,646.6336 994.4812,646.5211 Q994.6406,646.2773 994.9219,646.2773 Q995.1469,646.2773 995.2875,646.4367 Q995.4281,646.5867 995.4281,646.9523 L995.4281,648.1336 Q995.4281,648.4617 995.3531,648.5742 Q995.1937,648.8086 994.9219,648.8086 Q994.6406,648.8086 994.4812,648.5648 Q994.4063,648.4523 994.4063,648.0492 L993.5156,648.0492 Z " fill="#000000"/><text fill="#000000" font-family="sans-serif" font-size="7.2" font-style="italic" lengthAdjust="spacing" textLength="21" x="1007.7" y="640.1777">&#171;root&#187;</text><text fill="#000000" font-family="sans-serif" font-size="7.2" font-style="italic" lengthAdjust="spacing" textLength="25.8" x="1005.3" y="649.7543">&#171;entity&#187;</text><text fill="#000000" font-family="sans-serif" font-size="8.4" lengthAdjust="spacing" textLength="31.2" x="1002.6" y="660.6258">Elevator</text><line style="stroke:#181818;stroke-width:0.3;" x1="985.8" x2="1035" y1="665.734" y2="665.734"/><line style="stroke:#181818;stroke-width:0.3;" x1="985.8" x2="1035" y1="670.534" y2="670.534"/></g><!--class Identifier--><g id="elem_Identifier"><rect codeLine="93" fill="#F1F1F1" height="28.8" id="Identifier" rx="1.5" ry="1.5" style="stroke:#181818;stroke-width:0.3;" width="51.6" x="1154.4" y="768.9082"/><ellipse cx="1163.4" cy="778.5082" fill="#ADD1B2" rx="6.6" ry="6.6" style="stroke:#181818;stroke-width:0.6;"/><path d="M1165.0594,776.0332 Q1165.1531,775.902 1165.2656,775.8363 Q1165.3781,775.7707 1165.5094,775.7707 Q1165.7344,775.7707 1165.875,775.9301 Q1166.0156,776.0801 1166.0156,776.4457 L1166.0156,777.3176 Q1166.0156,777.6832 1165.875,777.8426 Q1165.7344,778.002 1165.5094,778.002 Q1165.3031,778.002 1165.1812,777.8801 Q1165.0594,777.7676 1164.9937,777.4582 Q1164.9656,777.2426 1164.8531,777.1301 Q1164.6563,776.9051 1164.2906,776.7738 Q1163.925,776.6426 1163.55,776.6426 Q1163.0906,776.6426 1162.7063,776.8395 Q1162.3313,777.0363 1162.0313,777.4863 Q1161.7406,777.9363 1161.7406,778.5551 L1161.7406,779.2113 Q1161.7406,779.952 1162.275,780.4488 Q1162.8094,780.9363 1163.7656,780.9363 Q1164.3281,780.9363 1164.7219,780.7863 Q1164.9563,780.6926 1165.2094,780.4301 Q1165.3687,780.2707 1165.4531,780.2238 Q1165.5469,780.177 1165.6688,780.177 Q1165.8656,780.177 1166.0156,780.3363 Q1166.175,780.4863 1166.175,780.6926 Q1166.175,780.8988 1165.9688,781.1426 Q1165.6688,781.4895 1165.1906,781.6863 Q1164.5438,781.9582 1163.7656,781.9582 Q1162.8563,781.9582 1162.1344,781.5832 Q1161.5438,781.2832 1161.1313,780.6457 Q1160.7188,779.9988 1160.7188,779.2301 L1160.7188,778.5363 Q1160.7188,777.7395 1161.0844,777.0551 Q1161.4594,776.3613 1162.1156,775.9957 Q1162.7719,775.6207 1163.5125,775.6207 Q1163.9531,775.6207 1164.3375,775.7238 Q1164.7313,775.8176 1165.0594,776.0332 Z " fill="#000000"/><text fill="#000000" font-family="sans-serif" font-size="8.4" lengthAdjust="spacing" textLength="32.4" x="1171.8" y="781.9863">Identifier</text><line style="stroke:#181818;stroke-width:0.3;" x1="1155" x2="1205.4" y1="788.1082" y2="788.1082"/><line style="stroke:#181818;stroke-width:0.3;" x1="1155" x2="1205.4" y1="792.9082" y2="792.9082"/></g><!--class Brand--><g id="elem_Brand"><rect codeLine="94" fill="#F1F1F1" height="28.8" id="Brand" rx="1.5" ry="1.5" style="stroke:#181818;stroke-width:0.3;" width="42" x="1091.4" y="768.9082"/><ellipse cx="1100.4" cy="778.5082" fill="#ADD1B2" rx="6.6" ry="6.6" style="stroke:#181818;stroke-width:0.6;"/><path d="M1102.0594,776.0332 Q1102.1531,775.902 1102.2656,775.8363 Q1102.3781,775.7707 1102.5094,775.7707 Q1102.7344,775.7707 1102.875,775.9301 Q1103.0156,776.0801 1103.0156,776.4457 L1103.0156,777.3176 Q1103.0156,777.6832 1102.875,777.8426 Q1102.7344,778.002 1102.5094,778.002 Q1102.3031,778.002 1102.1812,777.8801 Q1102.0594,777.7676 1101.9937,777.4582 Q1101.9656,777.2426 1101.8531,777.1301 Q1101.6563,776.9051 1101.2906,776.7738 Q1100.925,776.6426 1100.55,776.6426 Q1100.0906,776.6426 1099.7063,776.8395 Q1099.3313,777.0363 1099.0313,777.4863 Q1098.7406,777.9363 1098.7406,778.5551 L1098.7406,779.2113 Q1098.7406,779.952 1099.275,780.4488 Q1099.8094,780.9363 1100.7656,780.9363 Q1101.3281,780.9363 1101.7219,780.7863 Q1101.9563,780.6926 1102.2094,780.4301 Q1102.3687,780.2707 1102.4531,780.2238 Q1102.5469,780.177 1102.6688,780.177 Q1102.8656,780.177 1103.0156,780.3363 Q1103.175,780.4863 1103.175,780.6926 Q1103.175,780.8988 1102.9688,781.1426 Q1102.6688,781.4895 1102.1906,781.6863 Q1101.5438,781.9582 1100.7656,781.9582 Q1099.8563,781.9582 1099.1344,781.5832 Q1098.5438,781.2832 1098.1313,780.6457 Q1097.7188,779.9988 1097.7188,779.2301 L1097.7188,778.5363 Q1097.7188,777.7395 1098.0844,777.0551 Q1098.4594,776.3613 1099.1156,775.9957 Q1099.7719,775.6207 1100.5125,775.6207 Q1100.9531,775.6207 1101.3375,775.7238 Q1101.7313,775.8176 1102.0594,776.0332 Z " fill="#000000"/><text fill="#000000" font-family="sans-serif" font-size="8.4" lengthAdjust="spacing" textLength="22.8" x="1108.8" y="781.9863">Brand</text><line style="stroke:#181818;stroke-width:0.3;" x1="1092" x2="1132.8" y1="788.1082" y2="788.1082"/><line style="stroke:#181818;stroke-width:0.3;" x1="1092" x2="1132.8" y1="792.9082" y2="792.9082"/></g><!--class Model--><g id="elem_Model"><rect codeLine="95" fill="#F1F1F1" height="28.8" id="Model" rx="1.5" ry="1.5" style="stroke:#181818;stroke-width:0.3;" width="42" x="1028.4" y="768.9082"/><ellipse cx="1037.4" cy="778.5082" fill="#ADD1B2" rx="6.6" ry="6.6" style="stroke:#181818;stroke-width:0.6;"/><path d="M1039.0594,776.0332 Q1039.1531,775.902 1039.2656,775.8363 Q1039.3781,775.7707 1039.5094,775.7707 Q1039.7344,775.7707 1039.875,775.9301 Q1040.0156,776.0801 1040.0156,776.4457 L1040.0156,777.3176 Q1040.0156,777.6832 1039.875,777.8426 Q1039.7344,778.002 1039.5094,778.002 Q1039.3031,778.002 1039.1812,777.8801 Q1039.0594,777.7676 1038.9937,777.4582 Q1038.9656,777.2426 1038.8531,777.1301 Q1038.6563,776.9051 1038.2906,776.7738 Q1037.925,776.6426 1037.55,776.6426 Q1037.0906,776.6426 1036.7063,776.8395 Q1036.3313,777.0363 1036.0313,777.4863 Q1035.7406,777.9363 1035.7406,778.5551 L1035.7406,779.2113 Q1035.7406,779.952 1036.275,780.4488 Q1036.8094,780.9363 1037.7656,780.9363 Q1038.3281,780.9363 1038.7219,780.7863 Q1038.9563,780.6926 1039.2094,780.4301 Q1039.3687,780.2707 1039.4531,780.2238 Q1039.5469,780.177 1039.6688,780.177 Q1039.8656,780.177 1040.0156,780.3363 Q1040.175,780.4863 1040.175,780.6926 Q1040.175,780.8988 1039.9688,781.1426 Q1039.6688,781.4895 1039.1906,781.6863 Q1038.5438,781.9582 1037.7656,781.9582 Q1036.8563,781.9582 1036.1344,781.5832 Q1035.5438,781.2832 1035.1313,780.6457 Q1034.7188,779.9988 1034.7188,779.2301 L1034.7188,778.5363 Q1034.7188,777.7395 1035.0844,777.0551 Q1035.4594,776.3613 1036.1156,775.9957 Q1036.7719,775.6207 1037.5125,775.6207 Q1037.9531,775.6207 1038.3375,775.7238 Q1038.7313,775.8176 1039.0594,776.0332 Z " fill="#000000"/><text fill="#000000" font-family="sans-serif" font-size="8.4" lengthAdjust="spacing" textLength="22.8" x="1045.8" y="781.9863">Model</text><line style="stroke:#181818;stroke-width:0.3;" x1="1029" x2="1069.8" y1="788.1082" y2="788.1082"/><line style="stroke:#181818;stroke-width:0.3;" x1="1029" x2="1069.8" y1="792.9082" y2="792.9082"/></g><!--class SerialNumber--><g id="elem_SerialNumber"><rect codeLine="96" fill="#F1F1F1" height="28.8" id="SerialNumber" rx="1.5" ry="1.5" style="stroke:#181818;stroke-width:0.3;" width="70.2" x="936.9" y="768.9082"/><ellipse cx="945.9" cy="778.5082" fill="#ADD1B2" rx="6.6" ry="6.6" style="stroke:#181818;stroke-width:0.6;"/><path d="M947.5594,776.0332 Q947.6531,775.902 947.7656,775.8363 Q947.8781,775.7707 948.0094,775.7707 Q948.2344,775.7707 948.375,775.9301 Q948.5156,776.0801 948.5156,776.4457 L948.5156,777.3176 Q948.5156,777.6832 948.375,777.8426 Q948.2344,778.002 948.0094,778.002 Q947.8031,778.002 947.6813,777.8801 Q947.5594,777.7676 947.4938,777.4582 Q947.4656,777.2426 947.3531,777.1301 Q947.1563,776.9051 946.7906,776.7738 Q946.425,776.6426 946.05,776.6426 Q945.5906,776.6426 945.2063,776.8395 Q944.8313,777.0363 944.5313,777.4863 Q944.2406,777.9363 944.2406,778.5551 L944.2406,779.2113 Q944.2406,779.952 944.775,780.4488 Q945.3094,780.9363 946.2656,780.9363 Q946.8281,780.9363 947.2219,780.7863 Q947.4563,780.6926 947.7094,780.4301 Q947.8688,780.2707 947.9531,780.2238 Q948.0469,780.177 948.1687,780.177 Q948.3656,780.177 948.5156,780.3363 Q948.675,780.4863 948.675,780.6926 Q948.675,780.8988 948.4688,781.1426 Q948.1687,781.4895 947.6906,781.6863 Q947.0437,781.9582 946.2656,781.9582 Q945.3562,781.9582 944.6344,781.5832 Q944.0437,781.2832 943.6312,780.6457 Q943.2188,779.9988 943.2188,779.2301 L943.2188,778.5363 Q943.2188,777.7395 943.5844,777.0551 Q943.9594,776.3613 944.6156,775.9957 Q945.2719,775.6207 946.0125,775.6207 Q946.4531,775.6207 946.8375,775.7238 Q947.2312,775.8176 947.5594,776.0332 Z " fill="#000000"/><text fill="#000000" font-family="sans-serif" font-size="8.4" lengthAdjust="spacing" textLength="51" x="954.3" y="781.9863">SerialNumber</text><line style="stroke:#181818;stroke-width:0.3;" x1="937.5" x2="1006.5" y1="788.1082" y2="788.1082"/><line style="stroke:#181818;stroke-width:0.3;" x1="937.5" x2="1006.5" y1="792.9082" y2="792.9082"/></g><!--class Description--><g id="elem_Description"><rect codeLine="97" fill="#F1F1F1" height="28.8" id="Description" rx="1.5" ry="1.5" style="stroke:#181818;stroke-width:0.3;" width="61.8" x="854.1" y="768.9082"/><ellipse cx="863.1" cy="778.5082" fill="#ADD1B2" rx="6.6" ry="6.6" style="stroke:#181818;stroke-width:0.6;"/><path d="M864.7594,776.0332 Q864.8531,775.902 864.9656,775.8363 Q865.0781,775.7707 865.2094,775.7707 Q865.4344,775.7707 865.575,775.9301 Q865.7156,776.0801 865.7156,776.4457 L865.7156,777.3176 Q865.7156,777.6832 865.575,777.8426 Q865.4344,778.002 865.2094,778.002 Q865.0031,778.002 864.8813,777.8801 Q864.7594,777.7676 864.6938,777.4582 Q864.6656,777.2426 864.5531,777.1301 Q864.3562,776.9051 863.9906,776.7738 Q863.625,776.6426 863.25,776.6426 Q862.7906,776.6426 862.4063,776.8395 Q862.0313,777.0363 861.7312,777.4863 Q861.4406,777.9363 861.4406,778.5551 L861.4406,779.2113 Q861.4406,779.952 861.975,780.4488 Q862.5094,780.9363 863.4656,780.9363 Q864.0281,780.9363 864.4219,780.7863 Q864.6563,780.6926 864.9094,780.4301 Q865.0688,780.2707 865.1531,780.2238 Q865.2469,780.177 865.3688,780.177 Q865.5656,780.177 865.7156,780.3363 Q865.875,780.4863 865.875,780.6926 Q865.875,780.8988 865.6687,781.1426 Q865.3688,781.4895 864.8906,781.6863 Q864.2438,781.9582 863.4656,781.9582 Q862.5563,781.9582 861.8344,781.5832 Q861.2438,781.2832 860.8313,780.6457 Q860.4187,779.9988 860.4187,779.2301 L860.4187,778.5363 Q860.4187,777.7395 860.7844,777.0551 Q861.1594,776.3613 861.8156,775.9957 Q862.4719,775.6207 863.2125,775.6207 Q863.6531,775.6207 864.0375,775.7238 Q864.4313,775.8176 864.7594,776.0332 Z " fill="#000000"/><text fill="#000000" font-family="sans-serif" font-size="8.4" lengthAdjust="spacing" textLength="42.6" x="871.5" y="781.9863">Description</text><line style="stroke:#181818;stroke-width:0.3;" x1="854.7" x2="915.3" y1="788.1082" y2="788.1082"/><line style="stroke:#181818;stroke-width:0.3;" x1="854.7" x2="915.3" y1="792.9082" y2="792.9082"/></g><!--link DBDriver to IDBDriver--><g id="link_DBDriver_IDBDriver"><path codeLine="24" d="M305.274,94.2082 C308.22,94.2082 311.16,94.2082 314.106,94.2082 " fill="none" id="DBDriver-to-IDBDriver" style="stroke:#FF6655;stroke-width:0.6;"/><polygon fill="none" points="314.208,90.0082,326.208,94.2082,314.208,98.4082,314.208,90.0082" style="stroke:#FF6655;stroke-width:0.6;"/></g><!--reverse link IControllerElevator to ControllerElevator--><g id="link_IControllerElevator_ControllerElevator"><path codeLine="36" d="M101.52,308.6722 C101.646,335.2522 101.838,375.4882 101.934,396.5062 " fill="none" id="IControllerElevator-backto-ControllerElevator" style="stroke:#FF6655;stroke-width:0.6;"/><polygon fill="none" points="97.32,308.5462,101.466,296.5282,105.72,308.5102,97.32,308.5462" style="stroke:#FF6655;stroke-width:0.6;"/></g><!--reverse link DBDriver to RepoBuilding--><g id="link_DBDriver_RepoBuilding"><path codeLine="45" d="M292.62,110.9422 C313.818,135.0622 351.774,178.5502 357,186.6082 C374.502,213.5842 389.262,248.4262 396.738,267.4642 " fill="none" id="DBDriver-backto-RepoBuilding" style="stroke:#FF6655;stroke-width:0.6;stroke-dasharray:7.0,7.0;"/><polygon fill="#FF6655" points="290.622,108.6742,292.3824,114.3152,292.6018,110.9282,295.9888,111.1476,290.622,108.6742" style="stroke:#FF6655;stroke-width:0.6;"/></g><!--reverse link DBDriver to RepoFloor--><g id="link_DBDriver_RepoFloor"><path codeLine="46" d="M273.528,111.6382 C262.98,148.0822 238.194,233.7502 228.444,267.4462 " fill="none" id="DBDriver-backto-RepoFloor" style="stroke:#FF6655;stroke-width:0.6;stroke-dasharray:7.0,7.0;"/><polygon fill="#FF6655" points="274.386,108.6802,270.5824,113.2027,273.5539,111.5625,275.1941,114.534,274.386,108.6802" style="stroke:#FF6655;stroke-width:0.6;"/></g><!--reverse link DBDriver to RepoElevator--><g id="link_DBDriver_RepoElevator"><path codeLine="47" d="M281.358,111.8542 C287.712,148.4302 302.538,233.8162 308.376,267.4462 " fill="none" id="DBDriver-backto-RepoElevator" style="stroke:#FF6655;stroke-width:0.6;stroke-dasharray:7.0,7.0;"/><polygon fill="#FF6655" points="280.806,108.6802,279.3695,114.4123,281.3215,111.6356,284.0982,113.5875,280.806,108.6802" style="stroke:#FF6655;stroke-width:0.6;"/></g><!--link RouteElevator to IControllerElevator--><g id="link_RouteElevator_IControllerElevator"><path codeLine="49" d="M435.606,108.7702 C423.96,118.1362 407.496,130.0642 391.2,137.4082 C305.22,176.1502 265.608,137.9902 184.8,186.6082 C151.992,206.3482 125.13,243.2782 111.372,264.7582 " fill="none" id="RouteElevator-to-IControllerElevator" style="stroke:#FF6655;stroke-width:0.6;stroke-dasharray:7.0,7.0;"/><polygon fill="#FF6655" points="109.602,267.5542,114.5202,264.2783,111.2082,265.0204,110.4661,261.7084,109.602,267.5542" style="stroke:#FF6655;stroke-width:0.6;"/></g><!--link AppServiceElevator to IAppServiceElevator--><g id="link_AppServiceElevator_IAppServiceElevator"><path codeLine="62" d="M629.352,529.2502 C623.352,551.9842 611.328,597.5902 603.744,626.3302 " fill="none" id="AppServiceElevator-to-IAppServiceElevator" style="stroke:#FF6655;stroke-width:0.6;"/><polygon fill="none" points="607.782,627.5002,600.66,638.0302,599.658,625.3582,607.782,627.5002" style="stroke:#FF6655;stroke-width:0.6;"/></g><!--link RepoBuilding to IRepoBuilding--><g id="link_RepoBuilding_IRepoBuilding"><path codeLine="70" d="M436.98,282.7042 C502.71,283.5262 641.478,288.5242 679.8,315.6082 C702.846,331.8982 715.092,362.8162 721.194,384.9142 " fill="none" id="RepoBuilding-to-IRepoBuilding" style="stroke:#FF6655;stroke-width:0.6;"/><polygon fill="none" points="725.28,383.9242,724.086,396.5842,717.126,385.9402,725.28,383.9242" style="stroke:#FF6655;stroke-width:0.6;"/></g><!--link RepoFloor to IRepoFloor--><g id="link_RepoFloor_IRepoFloor"><path codeLine="71" d="M242.244,296.4502 C249.162,301.4062 257.304,306.7642 265.2,310.8082 C345.204,351.8002 446.01,383.1742 502.11,399.0022 " fill="none" id="RepoFloor-to-IRepoFloor" style="stroke:#FF6655;stroke-width:0.6;"/><polygon fill="none" points="503.28,394.9702,513.714,402.2362,501.03,403.0642,503.28,394.9702" style="stroke:#FF6655;stroke-width:0.6;"/></g><!--link RepoElevator to IRepoElevator--><g id="link_RepoElevator_IRepoElevator"><path codeLine="72" d="M328.62,296.5342 C336.792,302.0902 346.896,307.8562 357,310.8082 C369.222,314.3842 575.454,308.7742 586.2,315.6082 C610.194,330.8722 622.29,362.3902 628.098,384.8902 " fill="none" id="RepoElevator-to-IRepoElevator" style="stroke:#FF6655;stroke-width:0.6;"/><polygon fill="none" points="632.196,383.9722,630.774,396.6082,624.006,385.8442,632.196,383.9722" style="stroke:#FF6655;stroke-width:0.6;"/></g><!--link ControllerElevator to IAppServiceElevator--><g id="link_ControllerElevator_IAppServiceElevator"><path codeLine="75" d="M130.572,425.4802 C217.032,467.4502 475.44,592.8982 565.572,636.6502 " fill="none" id="ControllerElevator-to-IAppServiceElevator" style="stroke:#FF6655;stroke-width:0.6;stroke-dasharray:7.0,7.0;"/><polygon fill="#FF6655" points="568.446,638.0482,564.6372,633.5301,565.7475,636.7375,562.5401,637.8477,568.446,638.0482" style="stroke:#FF6655;stroke-width:0.6;"/></g><!--reverse link IRepoBuilding to AppServiceElevator--><g id="link_IRepoBuilding_AppServiceElevator"><path codeLine="77" d="M713.844,428.1142 C704.682,439.7182 691.878,455.4562 679.8,468.6082 C669.672,479.6362 657.546,491.4142 648.174,500.2402 " fill="none" id="IRepoBuilding-backto-AppServiceElevator" style="stroke:#FF6655;stroke-width:0.6;stroke-dasharray:7.0,7.0;"/><polygon fill="#FF6655" points="715.854,425.5582,710.631,428.3224,714.0009,427.9175,714.4058,431.2873,715.854,425.5582" style="stroke:#FF6655;stroke-width:0.6;"/></g><!--reverse link IRepoFloor to AppServiceElevator--><g id="link_IRepoFloor_AppServiceElevator"><path codeLine="78" d="M555.63,428.0422 C563.604,439.7422 574.968,455.6242 586.2,468.6082 C595.926,479.8462 607.95,491.5222 617.376,500.2462 " fill="none" id="IRepoFloor-backto-AppServiceElevator" style="stroke:#FF6655;stroke-width:0.6;stroke-dasharray:7.0,7.0;"/><polygon fill="#FF6655" points="553.884,425.4622,554.9331,431.2776,555.5698,427.9438,558.9036,428.5804,553.884,425.4622" style="stroke:#FF6655;stroke-width:0.6;"/></g><!--reverse link IRepoElevator to AppServiceElevator--><g id="link_IRepoElevator_AppServiceElevator"><path codeLine="79" d="M633,428.5462 C633,448.5982 633,481.6222 633,500.2642 " fill="none" id="IRepoElevator-backto-AppServiceElevator" style="stroke:#FF6655;stroke-width:0.6;stroke-dasharray:7.0,7.0;"/><polygon fill="#FF6655" points="633,425.4442,630.6,430.8442,633,428.4442,635.4,430.8442,633,425.4442" style="stroke:#FF6655;stroke-width:0.6;"/></g><!--link Elevator to Identifier--><g id="link_Elevator_Identifier"><path codeLine="103" d="M1035.63,659.4502 C1064.826,667.8802 1112.88,685.2802 1144.2,714.9082 C1159.176,729.0742 1169.196,750.8782 1174.782,765.9142 " fill="none" id="Elevator-to-Identifier" style="stroke:#FF6655;stroke-width:0.6;"/><polygon fill="#FF6655" points="1175.844,768.8242,1176.2642,762.9298,1174.8236,766.0031,1171.7504,764.5625,1175.844,768.8242" style="stroke:#FF6655;stroke-width:0.6;"/><text fill="#000000" font-family="Impact" font-size="7.8" lengthAdjust="spacing" textLength="3" x="1171.197" y="762.4258">1</text></g><!--link Elevator to Brand--><g id="link_Elevator_Brand"><path codeLine="104" d="M1035.738,670.9402 C1050.438,682.2502 1068.498,697.9222 1081.2,714.9082 C1092.936,730.5982 1101.696,751.4182 1106.898,765.8242 " fill="none" id="Elevator-to-Brand" style="stroke:#FF6655;stroke-width:0.6;"/><polygon fill="#FF6655" points="1107.954,768.7942,1108.4115,762.9026,1106.9515,765.9667,1103.8875,764.5066,1107.954,768.7942" style="stroke:#FF6655;stroke-width:0.6;"/><text fill="#000000" font-family="Impact" font-size="7.8" lengthAdjust="spacing" textLength="3" x="1103.2817" y="762.3873">1</text></g><!--link Elevator to Model--><g id="link_Elevator_Model"><path codeLine="105" d="M1017.192,675.6802 C1024.92,701.3602 1037.364,742.7122 1044.306,765.7762 " fill="none" id="Elevator-to-Model" style="stroke:#FF6655;stroke-width:0.6;"/><polygon fill="#FF6655" points="1045.206,768.7702,1045.9451,762.9073,1044.34,765.8979,1041.3494,764.2929,1045.206,768.7702" style="stroke:#FF6655;stroke-width:0.6;"/><text fill="#000000" font-family="Impact" font-size="7.8" lengthAdjust="spacing" textLength="3" x="1040.6046" y="762.3566">1</text></g><!--link Elevator to SerialNumber--><g id="link_Elevator_SerialNumber"><path codeLine="106" d="M1003.71,675.6802 C996.102,701.3602 983.85,742.7122 977.016,765.7762 " fill="none" id="Elevator-to-SerialNumber" style="stroke:#FF6655;stroke-width:0.6;"/><polygon fill="#FF6655" points="976.128,768.7702,979.96,764.2718,976.9782,765.8932,975.3568,762.9114,976.128,768.7702" style="stroke:#FF6655;stroke-width:0.6;"/><text fill="#000000" font-family="Impact" font-size="7.8" lengthAdjust="spacing" textLength="3" x="973.8671" y="762.3566">1</text></g><!--link Elevator to Description--><g id="link_Elevator_Description"><path codeLine="107" d="M985.032,668.0482 C967.218,679.3822 943.596,696.1642 926.4,714.9082 C912.24,730.3402 900.312,751.3282 892.95,765.8422 " fill="none" id="Elevator-to-Description" style="stroke:#FF6655;stroke-width:0.6;"/><polygon fill="#FF6655" points="891.54,768.6562,896.1064,764.9054,892.8851,765.9746,891.8159,762.7533,891.54,768.6562" style="stroke:#FF6655;stroke-width:0.6;"/><text fill="#000000" font-family="Impact" font-size="7.8" lengthAdjust="spacing" textLength="3" x="889.8945" y="762.4467">1</text></g><!--link AppServiceElevator to Elevator--><g id="link_AppServiceElevator_Elevator"><path codeLine="112" d="M671.262,529.2502 C747.156,556.6942 915.168,617.4622 982.092,641.6662 " fill="none" id="AppServiceElevator-to-Elevator" style="stroke:#FF6655;stroke-width:0.6;stroke-dasharray:7.0,7.0;"/><polygon fill="#FF6655" points="985.008,642.7222,980.7463,638.6286,982.1869,641.7018,979.1136,643.1424,985.008,642.7222" style="stroke:#FF6655;stroke-width:0.6;"/></g><!--SRC=[bLNBZjem5DtdAoowc1MCPZ6ieaWy1WcfdLQ3r6rbaal6nR6Z6uUAjlnxJKAUVj39Ad1ExhcFS-tYo4HEaMOabbak1GX5_WH4Fnifr8xz1l8qhtulQNnCKPOYMKakCGmNEOtV8Oh8PvQ-gvL4ockYn0HmJFgqsSpdpyzjw5UQ0Ld94XdW-3EovrhCfahM0FdkU5xo4YfyWIX_jV6scPPJ7L1_qqXVWa33Hve2ASw5WknMQVFdP2iEI0k5PQnAXCaD7b3UPAcWw4FN9-QqA4Y5lN0uKIMnnRMg4UKROC5q1YA6SIWc5E21nhgOzNADx0HeaJAWdag3aIbU1pFz6ur2tRYziXl9HK9p_LvOIr_fBgFaV8GFGtb8e-ewfj6oKK53XIpdTqJg5jsDt_zbaicqpAlMUUBOHli6kIoOPZ6dJJHZMJAUC94wu0sN4XsOBuj-Q38hyrbaEgMDxoEqNHXnEbBVwsIc7tUhndvRv3bdCLLC2h83FB4Ox8xJH2jXQ0ZDSf56bkkO7xRS7P5wF1-BRxB9j7AS9OmZCP_PHhKxNMVXcVQpaFwdn84Vw-ASUNI-x8Xc8WDpTaJVKbXsktAhhysMsTIROC_VJnzMuUTw5-T5AARqg1_rPGkFQvbH9koBawO8ARtTL7RpD4eJGWj2Vq2JZEaYkCgUIPjk6AAKIj_fOLX3KUGuMhqdvNUgBt7oTVyJOkLUxq6Q9-dBirx2RN9Dwi007OGbKf4ui2yo0Ux0zDGOvQzbjdU6NaCH8ykl9rlWQ8dkHFlUCt949ayJM-u6PvY-0GyhC61h4GPhK4VWNmljN7D_7jhvsKxDXylDtfVW7m00]--></g></svg>