<?xml version="1.0" encoding="us-ascii" standalone="no"?><svg xmlns="http://www.w3.org/2000/svg" xmlns:xlink="http://www.w3.org/1999/xlink" contentStyleType="text/css" height="1295px" preserveAspectRatio="none" style="width:1136px;height:1295px;background:#FFFFFF;" version="1.1" viewBox="0 0 1136 1295" width="1136px" zoomAndPan="magnify"><defs/><g><rect fill="#FFFFFF" height="1274.2393" style="stroke:#181818;stroke-width:1.5;" width="1125" x="5" y="15"/><path d="M36,15 L36,26.6211 L26,36.6211 L5,36.6211 " fill="none" style="stroke:#181818;stroke-width:1.5;"/><text fill="#000000" font-family="sans-serif" font-size="14" lengthAdjust="spacing" textLength="21" x="8" y="31.1074">MD</text><rect fill="#ADD8E6" height="1217.2344" style="stroke:#181818;stroke-width:0.5;" width="710" x="293" y="46.3838"/><text fill="#000000" font-family="sans-serif" font-size="13" font-weight="bold" lengthAdjust="spacing" textLength="59" x="618.5" y="60.4121">Back-End</text><rect fill="#DDDDDD" height="1217.2344" style="stroke:#181818;stroke-width:0.5;" width="82" x="1005" y="46.3838"/><text fill="#000000" font-family="sans-serif" font-size="13" font-weight="bold" lengthAdjust="spacing" textLength="59" x="1016.5" y="60.4121">Database</text><rect fill="#FFFFFF" height="1020.4102" style="stroke:#181818;stroke-width:1.0;" width="10" x="318" y="165.5869"/><rect fill="#FFFFFF" height="928.8281" style="stroke:#181818;stroke-width:1.0;" width="10" x="486" y="196.8779"/><rect fill="#FFFFFF" height="866.2461" style="stroke:#181818;stroke-width:1.0;" width="10" x="679" y="228.1689"/><rect fill="#FFFFFF" height="93.5332" style="stroke:#181818;stroke-width:1.0;" width="10" x="815" y="969.5908"/><rect fill="#FFFFFF" height="52.2422" style="stroke:#181818;stroke-width:1.0;" width="10" x="972" y="1010.8818"/><rect fill="#FFFFFF" height="30" style="stroke:#181818;stroke-width:1.0;" width="10" x="1041" y="259.46"/><rect fill="#FFFFFF" height="30" style="stroke:#181818;stroke-width:1.0;" width="10" x="1041" y="457.5459"/><rect fill="#FFFFFF" height="30" style="stroke:#181818;stroke-width:1.0;" width="10" x="1041" y="655.6318"/><rect fill="#FFFFFF" height="30" style="stroke:#181818;stroke-width:1.0;" width="10" x="1041" y="908.2998"/><rect fill="none" height="874.5371" style="stroke:#000000;stroke-width:1.5;" width="1093" x="20" y="304.46"/><rect fill="none" height="669.4512" style="stroke:#000000;stroke-width:1.5;" width="1073" x="30" y="502.5459"/><rect fill="none" height="409.7832" style="stroke:#000000;stroke-width:1.5;" width="1053" x="40" y="755.2139"/><line style="stroke:#181818;stroke-width:0.5;stroke-dasharray:5.0,5.0;" x1="65" x2="65" y1="132.2959" y2="1195.9971"/><line style="stroke:#181818;stroke-width:0.5;stroke-dasharray:5.0,5.0;" x1="323" x2="323" y1="132.2959" y2="1195.9971"/><line style="stroke:#181818;stroke-width:0.5;stroke-dasharray:5.0,5.0;" x1="491" x2="491" y1="132.2959" y2="1195.9971"/><line style="stroke:#181818;stroke-width:0.5;stroke-dasharray:5.0,5.0;" x1="683.5" x2="683.5" y1="132.2959" y2="1195.9971"/><line style="stroke:#181818;stroke-width:0.5;stroke-dasharray:5.0,5.0;" x1="820" x2="820" y1="132.2959" y2="1195.9971"/><line style="stroke:#181818;stroke-width:0.5;stroke-dasharray:5.0,5.0;" x1="977" x2="977" y1="1018.7119" y2="1195.9971"/><line style="stroke:#181818;stroke-width:0.5;stroke-dasharray:5.0,5.0;" x1="1046" x2="1046" y1="132.2959" y2="1195.9971"/><rect fill="#E2E2F0" height="32.6211" rx="2.5" ry="2.5" style="stroke:#181818;stroke-width:0.5;" width="30" x="50" y="98.6748"/><text fill="#000000" font-family="sans-serif" font-size="14" lengthAdjust="spacing" textLength="16" x="57" y="120.7822">??</text><rect fill="#E2E2F0" height="32.6211" rx="2.5" ry="2.5" style="stroke:#181818;stroke-width:0.5;" width="30" x="50" y="1194.9971"/><text fill="#000000" font-family="sans-serif" font-size="14" lengthAdjust="spacing" textLength="16" x="57" y="1217.1045">??</text><rect fill="#E2E2F0" height="32.6211" rx="2.5" ry="2.5" style="stroke:#181818;stroke-width:0.5;" width="52" x="297" y="98.6748"/><text fill="#000000" font-family="sans-serif" font-size="14" lengthAdjust="spacing" textLength="38" x="304" y="120.7822">Route</text><rect fill="#E2E2F0" height="32.6211" rx="2.5" ry="2.5" style="stroke:#181818;stroke-width:0.5;" width="52" x="297" y="1194.9971"/><text fill="#000000" font-family="sans-serif" font-size="14" lengthAdjust="spacing" textLength="38" x="304" y="1217.1045">Route</text><rect fill="#E2E2F0" height="32.6211" rx="2.5" ry="2.5" style="stroke:#181818;stroke-width:0.5;" width="76" x="453" y="98.6748"/><text fill="#000000" font-family="sans-serif" font-size="14" lengthAdjust="spacing" textLength="62" x="460" y="120.7822">Controller</text><rect fill="#E2E2F0" height="32.6211" rx="2.5" ry="2.5" style="stroke:#181818;stroke-width:0.5;" width="76" x="453" y="1194.9971"/><text fill="#000000" font-family="sans-serif" font-size="14" lengthAdjust="spacing" textLength="62" x="460" y="1217.1045">Controller</text><rect fill="#E2E2F0" height="32.6211" rx="2.5" ry="2.5" style="stroke:#181818;stroke-width:0.5;" width="61" x="653.5" y="98.6748"/><text fill="#000000" font-family="sans-serif" font-size="14" lengthAdjust="spacing" textLength="47" x="660.5" y="120.7822">Service</text><rect fill="#E2E2F0" height="32.6211" rx="2.5" ry="2.5" style="stroke:#181818;stroke-width:0.5;" width="61" x="653.5" y="1194.9971"/><text fill="#000000" font-family="sans-serif" font-size="14" lengthAdjust="spacing" textLength="47" x="660.5" y="1217.1045">Service</text><rect fill="#E2E2F0" height="32.6211" rx="2.5" ry="2.5" style="stroke:#181818;stroke-width:0.5;" width="62" x="789" y="98.6748"/><text fill="#000000" font-family="sans-serif" font-size="14" lengthAdjust="spacing" textLength="48" x="796" y="120.7822">Mapper</text><rect fill="#E2E2F0" height="32.6211" rx="2.5" ry="2.5" style="stroke:#181818;stroke-width:0.5;" width="62" x="789" y="1194.9971"/><text fill="#000000" font-family="sans-serif" font-size="14" lengthAdjust="spacing" textLength="48" x="796" y="1217.1045">Mapper</text><rect fill="#E2E2F0" height="51.2422" rx="2.5" ry="2.5" style="stroke:#181818;stroke-width:0.5;" width="44" x="955" y="1194.9971"/><text fill="#000000" font-family="sans-serif" font-size="14" lengthAdjust="spacing" textLength="24" x="965" y="1217.1045">dto:</text><text fill="#000000" font-family="sans-serif" font-size="14" lengthAdjust="spacing" textLength="30" x="962" y="1235.7256">DTO</text><text fill="#000000" font-family="sans-serif" font-size="14" lengthAdjust="spacing" textLength="68" x="1009" y="128.7822">Repository</text><path d="M1028,77.6748 C1028,67.6748 1046,67.6748 1046,67.6748 C1046,67.6748 1064,67.6748 1064,77.6748 L1064,103.6748 C1064,113.6748 1046,113.6748 1046,113.6748 C1046,113.6748 1028,113.6748 1028,103.6748 L1028,77.6748 " fill="#E2E2F0" style="stroke:#181818;stroke-width:1.5;"/><path d="M1028,77.6748 C1028,87.6748 1046,87.6748 1046,87.6748 C1046,87.6748 1064,87.6748 1064,77.6748 " fill="none" style="stroke:#181818;stroke-width:1.5;"/><text fill="#000000" font-family="sans-serif" font-size="14" lengthAdjust="spacing" textLength="68" x="1009" y="1210.1045">Repository</text><path d="M1028,1223.6182 C1028,1213.6182 1046,1213.6182 1046,1213.6182 C1046,1213.6182 1064,1213.6182 1064,1223.6182 L1064,1249.6182 C1064,1259.6182 1046,1259.6182 1046,1259.6182 C1046,1259.6182 1028,1259.6182 1028,1249.6182 L1028,1223.6182 " fill="#E2E2F0" style="stroke:#181818;stroke-width:1.5;"/><path d="M1028,1223.6182 C1028,1233.6182 1046,1233.6182 1046,1233.6182 C1046,1233.6182 1064,1233.6182 1064,1223.6182 " fill="none" style="stroke:#181818;stroke-width:1.5;"/><rect fill="#FFFFFF" height="1020.4102" style="stroke:#181818;stroke-width:1.0;" width="10" x="318" y="165.5869"/><rect fill="#FFFFFF" height="928.8281" style="stroke:#181818;stroke-width:1.0;" width="10" x="486" y="196.8779"/><rect fill="#FFFFFF" height="866.2461" style="stroke:#181818;stroke-width:1.0;" width="10" x="679" y="228.1689"/><rect fill="#FFFFFF" height="93.5332" style="stroke:#181818;stroke-width:1.0;" width="10" x="815" y="969.5908"/><rect fill="#FFFFFF" height="52.2422" style="stroke:#181818;stroke-width:1.0;" width="10" x="972" y="1010.8818"/><rect fill="#FFFFFF" height="30" style="stroke:#181818;stroke-width:1.0;" width="10" x="1041" y="259.46"/><rect fill="#FFFFFF" height="30" style="stroke:#181818;stroke-width:1.0;" width="10" x="1041" y="457.5459"/><rect fill="#FFFFFF" height="30" style="stroke:#181818;stroke-width:1.0;" width="10" x="1041" y="655.6318"/><rect fill="#FFFFFF" height="30" style="stroke:#181818;stroke-width:1.0;" width="10" x="1041" y="908.2998"/><polygon fill="#181818" points="306,161.5869,316,165.5869,306,169.5869,310,165.5869" style="stroke:#181818;stroke-width:1.0;"/><line style="stroke:#181818;stroke-width:1.0;stroke-dasharray:2.0,2.0;" x1="65" x2="312" y1="165.5869" y2="165.5869"/><text fill="#000000" font-family="sans-serif" font-size="13" font-weight="bold" lengthAdjust="spacing" textLength="7" x="72" y="160.3242">1</text><text fill="#000000" font-family="sans-serif" font-size="13" lengthAdjust="spacing" textLength="223" x="83" y="160.3242">PATCH (/buildings/{idb}/elevators/{ide})</text><polygon fill="#181818" points="474,192.8779,484,196.8779,474,200.8779,478,196.8779" style="stroke:#181818;stroke-width:1.0;"/><line style="stroke:#181818;stroke-width:1.0;" x1="328" x2="480" y1="196.8779" y2="196.8779"/><text fill="#000000" font-family="sans-serif" font-size="13" font-weight="bold" lengthAdjust="spacing" textLength="7" x="335" y="191.6152">2</text><text fill="#000000" font-family="sans-serif" font-size="13" lengthAdjust="spacing" textLength="128" x="346" y="191.6152">putElevator(req,res,...)</text><polygon fill="#181818" points="667,224.1689,677,228.1689,667,232.1689,671,228.1689" style="stroke:#181818;stroke-width:1.0;"/><line style="stroke:#181818;stroke-width:1.0;" x1="496" x2="673" y1="228.1689" y2="228.1689"/><text fill="#000000" font-family="sans-serif" font-size="13" font-weight="bold" lengthAdjust="spacing" textLength="7" x="503" y="222.9063">3</text><text fill="#000000" font-family="sans-serif" font-size="13" lengthAdjust="spacing" textLength="153" x="514" y="222.9063">editElevator(idElevator,dto)</text><polygon fill="#181818" points="1029,255.46,1039,259.46,1029,263.46,1033,259.46" style="stroke:#181818;stroke-width:1.0;"/><line style="stroke:#181818;stroke-width:1.0;" x1="689" x2="1035" y1="259.46" y2="259.46"/><text fill="#000000" font-family="sans-serif" font-size="13" font-weight="bold" lengthAdjust="spacing" textLength="7" x="696" y="254.1973">4</text><text fill="#000000" font-family="sans-serif" font-size="13" lengthAdjust="spacing" textLength="148" x="707" y="254.1973">findByCode(buildingCode)</text><path d="M20,304.46 L81,304.46 L81,313.751 L71,323.751 L20,323.751 L20,304.46 " fill="#EEEEEE" style="stroke:#000000;stroke-width:1.5;"/><rect fill="none" height="874.5371" style="stroke:#000000;stroke-width:1.5;" width="1093" x="20" y="304.46"/><text fill="#000000" font-family="sans-serif" font-size="13" font-weight="bold" lengthAdjust="spacing" textLength="16" x="35" y="319.4883">alt</text><text fill="#000000" font-family="sans-serif" font-size="11" font-weight="bold" lengthAdjust="spacing" textLength="108" x="96" y="318.3301">[building not found]</text><polygon fill="#181818" points="507,343.042,497,347.042,507,351.042,503,347.042" style="stroke:#181818;stroke-width:1.0;"/><line style="stroke:#181818;stroke-width:1.0;stroke-dasharray:2.0,2.0;" x1="501" x2="678" y1="347.042" y2="347.042"/><text fill="#000000" font-family="sans-serif" font-size="13" font-weight="bold" lengthAdjust="spacing" textLength="7" x="513" y="341.7793">5</text><text fill="#000000" font-family="sans-serif" font-size="13" lengthAdjust="spacing" textLength="26" x="524" y="341.7793">error</text><polygon fill="#181818" points="339,374.333,329,378.333,339,382.333,335,378.333" style="stroke:#181818;stroke-width:1.0;"/><line style="stroke:#181818;stroke-width:1.0;stroke-dasharray:2.0,2.0;" x1="333" x2="485" y1="378.333" y2="378.333"/><text fill="#000000" font-family="sans-serif" font-size="13" font-weight="bold" lengthAdjust="spacing" textLength="7" x="345" y="373.0703">6</text><text fill="#000000" font-family="sans-serif" font-size="13" lengthAdjust="spacing" textLength="78" x="356" y="373.0703">response 412</text><polygon fill="#181818" points="76,405.624,66,409.624,76,413.624,72,409.624" style="stroke:#181818;stroke-width:1.0;"/><line style="stroke:#181818;stroke-width:1.0;stroke-dasharray:2.0,2.0;" x1="70" x2="317" y1="409.624" y2="409.624"/><text fill="#000000" font-family="sans-serif" font-size="13" font-weight="bold" lengthAdjust="spacing" textLength="7" x="82" y="404.3613">7</text><text fill="#000000" font-family="sans-serif" font-size="13" lengthAdjust="spacing" textLength="140" x="93" y="404.3613">412: Precondition Failed</text><line style="stroke:#000000;stroke-width:1.0;stroke-dasharray:2.0,2.0;" x1="20" x2="1113" y1="418.624" y2="418.624"/><text fill="#000000" font-family="sans-serif" font-size="11" font-weight="bold" lengthAdjust="spacing" textLength="87" x="25" y="430.4941">[building found]</text><polygon fill="#181818" points="1029,453.5459,1039,457.5459,1029,461.5459,1033,457.5459" style="stroke:#181818;stroke-width:1.0;"/><line style="stroke:#181818;stroke-width:1.0;" x1="689" x2="1035" y1="457.5459" y2="457.5459"/><text fill="#000000" font-family="sans-serif" font-size="13" font-weight="bold" lengthAdjust="spacing" textLength="7" x="696" y="452.2832">8</text><text fill="#000000" font-family="sans-serif" font-size="13" lengthAdjust="spacing" textLength="232" x="707" y="452.2832">exitsInBuilding(building,elevatorIdentifier)</text><path d="M30,502.5459 L91,502.5459 L91,511.8369 L81,521.8369 L30,521.8369 L30,502.5459 " fill="#EEEEEE" style="stroke:#000000;stroke-width:1.5;"/><rect fill="none" height="669.4512" style="stroke:#000000;stroke-width:1.5;" width="1073" x="30" y="502.5459"/><text fill="#000000" font-family="sans-serif" font-size="13" font-weight="bold" lengthAdjust="spacing" textLength="16" x="45" y="517.5742">alt</text><text fill="#000000" font-family="sans-serif" font-size="11" font-weight="bold" lengthAdjust="spacing" textLength="109" x="106" y="516.416">[elevator not found]</text><polygon fill="#181818" points="507,541.1279,497,545.1279,507,549.1279,503,545.1279" style="stroke:#181818;stroke-width:1.0;"/><line style="stroke:#181818;stroke-width:1.0;stroke-dasharray:2.0,2.0;" x1="501" x2="678" y1="545.1279" y2="545.1279"/><text fill="#000000" font-family="sans-serif" font-size="13" font-weight="bold" lengthAdjust="spacing" textLength="7" x="513" y="539.8652">9</text><text fill="#000000" font-family="sans-serif" font-size="13" lengthAdjust="spacing" textLength="26" x="524" y="539.8652">error</text><polygon fill="#181818" points="339,572.4189,329,576.4189,339,580.4189,335,576.4189" style="stroke:#181818;stroke-width:1.0;"/><line style="stroke:#181818;stroke-width:1.0;stroke-dasharray:2.0,2.0;" x1="333" x2="485" y1="576.4189" y2="576.4189"/><text fill="#000000" font-family="sans-serif" font-size="13" font-weight="bold" lengthAdjust="spacing" textLength="14" x="345" y="571.1563">10</text><text fill="#000000" font-family="sans-serif" font-size="13" lengthAdjust="spacing" textLength="78" x="363" y="571.1563">response 412</text><polygon fill="#181818" points="76,603.71,66,607.71,76,611.71,72,607.71" style="stroke:#181818;stroke-width:1.0;"/><line style="stroke:#181818;stroke-width:1.0;stroke-dasharray:2.0,2.0;" x1="70" x2="317" y1="607.71" y2="607.71"/><text fill="#000000" font-family="sans-serif" font-size="13" font-weight="bold" lengthAdjust="spacing" textLength="14" x="82" y="602.4473">11</text><text fill="#000000" font-family="sans-serif" font-size="13" lengthAdjust="spacing" textLength="140" x="100" y="602.4473">412: Precondition Failed</text><line style="stroke:#000000;stroke-width:1.0;stroke-dasharray:2.0,2.0;" x1="30" x2="1103" y1="616.71" y2="616.71"/><text fill="#000000" font-family="sans-serif" font-size="11" font-weight="bold" lengthAdjust="spacing" textLength="90" x="35" y="628.5801">[elevator exists]</text><polygon fill="#181818" points="1029,651.6318,1039,655.6318,1029,659.6318,1033,655.6318" style="stroke:#181818;stroke-width:1.0;"/><line style="stroke:#181818;stroke-width:1.0;" x1="689" x2="1035" y1="655.6318" y2="655.6318"/><text fill="#000000" font-family="sans-serif" font-size="13" font-weight="bold" lengthAdjust="spacing" textLength="14" x="696" y="650.3691">12</text><text fill="#000000" font-family="sans-serif" font-size="13" lengthAdjust="spacing" textLength="232" x="714" y="650.3691">findByIdentifier(building,elevatorIdentifier)</text><path d="M694,698.6318 L694,742.6318 L867,742.6318 L867,708.6318 L857,698.6318 L694,698.6318 " fill="#FEFFDD" style="stroke:#181818;stroke-width:0.5;"/><path d="M857,698.6318 L857,708.6318 L867,708.6318 L857,698.6318 " fill="#FEFFDD" style="stroke:#181818;stroke-width:0.5;"/><text fill="#000000" font-family="sans-serif" font-size="13" lengthAdjust="spacing" textLength="152" x="700" y="717.6602">edit building specifications</text><text fill="#000000" font-family="sans-serif" font-size="13" lengthAdjust="spacing" textLength="112" x="700" y="734.9512">based on new ones</text><path d="M40,755.2139 L101,755.2139 L101,764.5049 L91,774.5049 L40,774.5049 L40,755.2139 " fill="#EEEEEE" style="stroke:#000000;stroke-width:1.5;"/><rect fill="none" height="409.7832" style="stroke:#000000;stroke-width:1.5;" width="1053" x="40" y="755.2139"/><text fill="#000000" font-family="sans-serif" font-size="13" font-weight="bold" lengthAdjust="spacing" textLength="16" x="55" y="770.2422">alt</text><text fill="#000000" font-family="sans-serif" font-size="11" font-weight="bold" lengthAdjust="spacing" textLength="144" x="116" y="769.084">[elevator bad parameters]</text><polygon fill="#181818" points="507,793.7959,497,797.7959,507,801.7959,503,797.7959" style="stroke:#181818;stroke-width:1.0;"/><line style="stroke:#181818;stroke-width:1.0;stroke-dasharray:2.0,2.0;" x1="501" x2="678" y1="797.7959" y2="797.7959"/><text fill="#000000" font-family="sans-serif" font-size="13" font-weight="bold" lengthAdjust="spacing" textLength="14" x="513" y="792.5332">13</text><text fill="#000000" font-family="sans-serif" font-size="13" lengthAdjust="spacing" textLength="26" x="531" y="792.5332">error</text><polygon fill="#181818" points="339,825.0869,329,829.0869,339,833.0869,335,829.0869" style="stroke:#181818;stroke-width:1.0;"/><line style="stroke:#181818;stroke-width:1.0;stroke-dasharray:2.0,2.0;" x1="333" x2="485" y1="829.0869" y2="829.0869"/><text fill="#000000" font-family="sans-serif" font-size="13" font-weight="bold" lengthAdjust="spacing" textLength="14" x="345" y="823.8242">14</text><text fill="#000000" font-family="sans-serif" font-size="13" lengthAdjust="spacing" textLength="78" x="363" y="823.8242">response 422</text><polygon fill="#181818" points="76,856.3779,66,860.3779,76,864.3779,72,860.3779" style="stroke:#181818;stroke-width:1.0;"/><line style="stroke:#181818;stroke-width:1.0;stroke-dasharray:2.0,2.0;" x1="70" x2="317" y1="860.3779" y2="860.3779"/><text fill="#000000" font-family="sans-serif" font-size="13" font-weight="bold" lengthAdjust="spacing" textLength="14" x="82" y="855.1152">15</text><text fill="#000000" font-family="sans-serif" font-size="13" lengthAdjust="spacing" textLength="164" x="100" y="855.1152">422: Unprocessable Content</text><line style="stroke:#000000;stroke-width:1.0;stroke-dasharray:2.0,2.0;" x1="40" x2="1093" y1="869.3779" y2="869.3779"/><text fill="#000000" font-family="sans-serif" font-size="11" font-weight="bold" lengthAdjust="spacing" textLength="164" x="45" y="881.248">[elevator edited successfully]</text><polygon fill="#181818" points="1029,904.2998,1039,908.2998,1029,912.2998,1033,908.2998" style="stroke:#181818;stroke-width:1.0;"/><line style="stroke:#181818;stroke-width:1.0;" x1="689" x2="1035" y1="908.2998" y2="908.2998"/><text fill="#000000" font-family="sans-serif" font-size="13" font-weight="bold" lengthAdjust="spacing" textLength="14" x="696" y="903.0371">16</text><text fill="#000000" font-family="sans-serif" font-size="13" lengthAdjust="spacing" textLength="78" x="714" y="903.0371">save(elevator)</text><polygon fill="#181818" points="803,965.5908,813,969.5908,803,973.5908,807,969.5908" style="stroke:#181818;stroke-width:1.0;"/><line style="stroke:#181818;stroke-width:1.0;" x1="689" x2="809" y1="969.5908" y2="969.5908"/><text fill="#000000" font-family="sans-serif" font-size="13" font-weight="bold" lengthAdjust="spacing" textLength="14" x="696" y="964.3281">17</text><text fill="#000000" font-family="sans-serif" font-size="13" lengthAdjust="spacing" textLength="89" x="714" y="964.3281">toDTO(elevator)</text><polygon fill="#181818" points="943,996.8818,953,1000.8818,943,1004.8818,947,1000.8818" style="stroke:#181818;stroke-width:1.0;"/><line style="stroke:#181818;stroke-width:1.0;stroke-dasharray:2.0,2.0;" x1="825" x2="949" y1="1000.8818" y2="1000.8818"/><text fill="#000000" font-family="sans-serif" font-size="13" font-weight="bold" lengthAdjust="spacing" textLength="14" x="832" y="995.6191">18</text><text fill="#000000" font-family="sans-serif" font-size="13" lengthAdjust="spacing" textLength="88" x="850" y="995.6191">create(elevator)</text><rect fill="#E2E2F0" height="51.2422" rx="2.5" ry="2.5" style="stroke:#181818;stroke-width:0.5;" width="44" x="955" y="977.5908"/><text fill="#000000" font-family="sans-serif" font-size="14" lengthAdjust="spacing" textLength="24" x="965" y="999.6982">dto:</text><text fill="#000000" font-family="sans-serif" font-size="14" lengthAdjust="spacing" textLength="30" x="962" y="1018.3193">DTO</text><polygon fill="#181818" points="700,1059.124,690,1063.124,700,1067.124,696,1063.124" style="stroke:#181818;stroke-width:1.0;"/><line style="stroke:#181818;stroke-width:1.0;stroke-dasharray:2.0,2.0;" x1="694" x2="819" y1="1063.124" y2="1063.124"/><text fill="#000000" font-family="sans-serif" font-size="13" font-weight="bold" lengthAdjust="spacing" textLength="14" x="706" y="1057.8613">19</text><text fill="#000000" font-family="sans-serif" font-size="13" lengthAdjust="spacing" textLength="18" x="724" y="1057.8613">dto</text><polygon fill="#181818" points="507,1090.415,497,1094.415,507,1098.415,503,1094.415" style="stroke:#181818;stroke-width:1.0;"/><line style="stroke:#181818;stroke-width:1.0;stroke-dasharray:2.0,2.0;" x1="501" x2="683" y1="1094.415" y2="1094.415"/><text fill="#000000" font-family="sans-serif" font-size="13" font-weight="bold" lengthAdjust="spacing" textLength="14" x="513" y="1089.1523">20</text><text fill="#000000" font-family="sans-serif" font-size="13" lengthAdjust="spacing" textLength="18" x="531" y="1089.1523">dto</text><polygon fill="#181818" points="339,1121.7061,329,1125.7061,339,1129.7061,335,1125.7061" style="stroke:#181818;stroke-width:1.0;"/><line style="stroke:#181818;stroke-width:1.0;stroke-dasharray:2.0,2.0;" x1="333" x2="490" y1="1125.7061" y2="1125.7061"/><text fill="#000000" font-family="sans-serif" font-size="13" font-weight="bold" lengthAdjust="spacing" textLength="14" x="345" y="1120.4434">21</text><text fill="#000000" font-family="sans-serif" font-size="13" lengthAdjust="spacing" textLength="21" x="363" y="1120.4434">200</text><polygon fill="#181818" points="76,1152.9971,66,1156.9971,76,1160.9971,72,1156.9971" style="stroke:#181818;stroke-width:1.0;"/><line style="stroke:#181818;stroke-width:1.0;stroke-dasharray:2.0,2.0;" x1="70" x2="317" y1="1156.9971" y2="1156.9971"/><text fill="#000000" font-family="sans-serif" font-size="13" font-weight="bold" lengthAdjust="spacing" textLength="14" x="82" y="1151.7344">22</text><text fill="#000000" font-family="sans-serif" font-size="13" lengthAdjust="spacing" textLength="119" x="100" y="1151.7344">200: "OK" Sucessful</text><!--SRC=[lLPDSzCm4BthL-oOGvDEFag6KuQXGv8oTA1JXfOR5zdQ50sEP2GvjCFqlxEIupWkYMFdW2wnujst7-_9AvuxhV9LZ8QnZ1id4vbnvI2wl8o0MyWbOoikrTBm5SBDWiNw4Q8PJtuEhvI8uDLd-V33pT8Sw-vVTUum89ZwYxbMpkWqHHFU9iwaTOCxD6kP5BvsdR0NUTtmBDluhdXMVoUSddvNY_lRy9fs39K0ofWLQI-uup6t636nUQ94CTDMEcsUYcnfoyvgg9ZYcfC1GLzj7eCfLkYvXE7m7PWfV7b_F_y8lN6SorH8zM37VwI8dySbIDZZSvy1BPuuIVyYzGXsbW72yes1AMIvAuFs3FuQ6BI3qMZKhpdKi497OSyAY8HCJILW5B92bg9y753N-dlTjm4yAN1WUMpV2EeYnLXA9MPFSosmL_R3R_e7tQk6U1gWOPs54Bxf2EVdKqWCab_lCBJ0ElZX7587PRQWj8EbpfLeJ2PKNN66ncZJw51GuHj5vaHffXLfySthIQCNgUpjSEXTo9AaPZ3HYcYKMi47BbCKT5WE8c1A8RQ55KKThshB9JvAPw_LR0Em9NHGAljQe79oAT7q6s7RSzoQifAsCfMMj9r4tUdqjQImoJrmkAsIAB7EidOr5aIMPx8YwtGYkv7PcL2_Y4SozHC6zBBnmrFh4ZMqKhhDCA5g4kwRR5i1-CaWW2XH-9j-yBYNdmG-MTP1f34NG8E6vgf3O_-hKYUTb3eXfNvJcT49MilZ5C4FSH995wqI9zHJcoSUP9cdwHDhBrlAml8rzagueyBifCj_PCbQVHZf-a5vEKttZPQ9RSFucyin0ZoyPuu6ykw4Qzs2Afg_2BKELzmEl4k7qtpCVCVKbzvbc3P1xy26csAhKp2vk617mC8LwgKADWSY04mXklqKmLs-4JFRyprW1_VbPbTtx2y0]--></g></svg>