<?xml version="1.0" encoding="us-ascii" standalone="no"?><svg xmlns="http://www.w3.org/2000/svg" xmlns:xlink="http://www.w3.org/1999/xlink" contentStyleType="text/css" height="1071.2px" preserveAspectRatio="none" style="width:954px;height:1071px;background:#FFFFFF;" version="1.1" viewBox="0 0 954 1071" width="954.4px" zoomAndPan="magnify"><defs/><g><rect fill="#FFFFFF" height="916.4594" style="stroke:#181818;stroke-width:0.8000000000000002;" width="8" x="208" y="82.3297"/><rect fill="#FFFFFF" height="843.1938" style="stroke:#181818;stroke-width:0.8000000000000002;" width="8" x="342.4" y="107.3625"/><rect fill="#FFFFFF" height="793.1281" style="stroke:#181818;stroke-width:0.8000000000000002;" width="8" x="496.8" y="132.3953"/><rect fill="#FFFFFF" height="74.8266" style="stroke:#181818;stroke-width:0.8000000000000002;" width="8" x="605.6" y="825.6641"/><rect fill="#FFFFFF" height="41.7938" style="stroke:#181818;stroke-width:0.8000000000000002;" width="8" x="731.2" y="858.6969"/><rect fill="#FFFFFF" height="49.0328" style="stroke:#181818;stroke-width:0.8000000000000002;" width="8" x="789.6" y="157.4281"/><rect fill="#FFFFFF" height="49.0328" style="stroke:#181818;stroke-width:0.8000000000000002;" width="8" x="789.6" y="340.9297"/><rect fill="#FFFFFF" height="49.0328" style="stroke:#181818;stroke-width:0.8000000000000002;" width="8" x="789.6" y="524.4313"/><rect fill="#FFFFFF" height="49.0328" style="stroke:#181818;stroke-width:0.8000000000000002;" width="8" x="789.6" y="751.5984"/><rect fill="#FFFFFF" height="24" style="stroke:#181818;stroke-width:0.8000000000000002;" width="8" x="894.4" y="182.4609"/><rect fill="#FFFFFF" height="24" style="stroke:#181818;stroke-width:0.8000000000000002;" width="8" x="894.4" y="365.9625"/><rect fill="#FFFFFF" height="24" style="stroke:#181818;stroke-width:0.8000000000000002;" width="8" x="894.4" y="549.4641"/><rect fill="#FFFFFF" height="24" style="stroke:#181818;stroke-width:0.8000000000000002;" width="8" x="894.4" y="776.6313"/><rect fill="none" height="774.7281" style="stroke:#000000;stroke-width:1.2000000000000002;" width="946.8" x="2.4" y="218.4609"/><rect fill="none" height="585.6266" style="stroke:#000000;stroke-width:1.2000000000000002;" width="938.8" x="2.4" y="401.9625"/><rect fill="none" height="352.8594" style="stroke:#000000;stroke-width:1.2000000000000002;" width="930.8" x="2.4" y="629.1297"/><line style="stroke:#181818;stroke-width:0.4000000000000001;stroke-dasharray:5.0,5.0;" x1="212" x2="212" y1="55.6969" y2="1006.7891"/><line style="stroke:#181818;stroke-width:0.4000000000000001;stroke-dasharray:5.0,5.0;" x1="346.4" x2="346.4" y1="55.6969" y2="1006.7891"/><line style="stroke:#181818;stroke-width:0.4000000000000001;stroke-dasharray:5.0,5.0;" x1="500.4" x2="500.4" y1="55.6969" y2="1006.7891"/><line style="stroke:#181818;stroke-width:0.4000000000000001;stroke-dasharray:5.0,5.0;" x1="609.6" x2="609.6" y1="55.6969" y2="1006.7891"/><line style="stroke:#181818;stroke-width:0.4000000000000001;stroke-dasharray:5.0,5.0;" x1="735.2" x2="735.2" y1="864.9609" y2="1006.7891"/><line style="stroke:#181818;stroke-width:0.4000000000000001;stroke-dasharray:5.0,5.0;" x1="793.6" x2="793.6" y1="55.6969" y2="1006.7891"/><line style="stroke:#181818;stroke-width:0.4000000000000001;stroke-dasharray:5.0,5.0;" x1="898" x2="898" y1="55.6969" y2="1006.7891"/><rect fill="#E2E2F0" height="26.0969" rx="2" ry="2" style="stroke:#181818;stroke-width:0.4000000000000001;" width="41.6" x="191.2" y="28.8"/><text fill="#000000" font-family="sans-serif" font-size="11.2" lengthAdjust="spacing" textLength="30.4" x="196.8" y="46.4859">Route</text><rect fill="#E2E2F0" height="26.0969" rx="2" ry="2" style="stroke:#181818;stroke-width:0.4000000000000001;" width="41.6" x="191.2" y="1005.9891"/><text fill="#000000" font-family="sans-serif" font-size="11.2" lengthAdjust="spacing" textLength="30.4" x="196.8" y="1023.675">Route</text><rect fill="#E2E2F0" height="26.0969" rx="2" ry="2" style="stroke:#181818;stroke-width:0.4000000000000001;" width="60.8" x="316" y="28.8"/><text fill="#000000" font-family="sans-serif" font-size="11.2" lengthAdjust="spacing" textLength="49.6" x="321.6" y="46.4859">Controller</text><rect fill="#E2E2F0" height="26.0969" rx="2" ry="2" style="stroke:#181818;stroke-width:0.4000000000000001;" width="60.8" x="316" y="1005.9891"/><text fill="#000000" font-family="sans-serif" font-size="11.2" lengthAdjust="spacing" textLength="49.6" x="321.6" y="1023.675">Controller</text><rect fill="#E2E2F0" height="26.0969" rx="2" ry="2" style="stroke:#181818;stroke-width:0.4000000000000001;" width="48.8" x="476.4" y="28.8"/><text fill="#000000" font-family="sans-serif" font-size="11.2" lengthAdjust="spacing" textLength="37.6" x="482" y="46.4859">Service</text><rect fill="#E2E2F0" height="26.0969" rx="2" ry="2" style="stroke:#181818;stroke-width:0.4000000000000001;" width="48.8" x="476.4" y="1005.9891"/><text fill="#000000" font-family="sans-serif" font-size="11.2" lengthAdjust="spacing" textLength="37.6" x="482" y="1023.675">Service</text><rect fill="#E2E2F0" height="26.0969" rx="2" ry="2" style="stroke:#181818;stroke-width:0.4000000000000001;" width="49.6" x="584.8" y="28.8"/><text fill="#000000" font-family="sans-serif" font-size="11.2" lengthAdjust="spacing" textLength="38.4" x="590.4" y="46.4859">Mapper</text><rect fill="#E2E2F0" height="26.0969" rx="2" ry="2" style="stroke:#181818;stroke-width:0.4000000000000001;" width="49.6" x="584.8" y="1005.9891"/><text fill="#000000" font-family="sans-serif" font-size="11.2" lengthAdjust="spacing" textLength="38.4" x="590.4" y="1023.675">Mapper</text><rect fill="#E2E2F0" height="40.9938" rx="2" ry="2" style="stroke:#181818;stroke-width:0.4000000000000001;" width="35.2" x="717.6" y="1005.9891"/><text fill="#000000" font-family="sans-serif" font-size="11.2" lengthAdjust="spacing" textLength="19.2" x="725.6" y="1023.675">dto:</text><text fill="#000000" font-family="sans-serif" font-size="11.2" lengthAdjust="spacing" textLength="24" x="723.2" y="1038.5719">DTO</text><rect fill="#E2E2F0" height="26.0969" rx="2" ry="2" style="stroke:#181818;stroke-width:0.4000000000000001;" width="65.6" x="760.8" y="28.8"/><text fill="#000000" font-family="sans-serif" font-size="11.2" lengthAdjust="spacing" textLength="54.4" x="766.4" y="46.4859">Repository</text><rect fill="#E2E2F0" height="26.0969" rx="2" ry="2" style="stroke:#181818;stroke-width:0.4000000000000001;" width="65.6" x="760.8" y="1005.9891"/><text fill="#000000" font-family="sans-serif" font-size="11.2" lengthAdjust="spacing" textLength="54.4" x="766.4" y="1023.675">Repository</text><text fill="#000000" font-family="sans-serif" font-size="11.2" lengthAdjust="spacing" textLength="48.8" x="871.6" y="52.8859">Database</text><path d="M884,12 C884,4 898.4,4 898.4,4 C898.4,4 912.8,4 912.8,12 L912.8,32.8 C912.8,40.8 898.4,40.8 898.4,40.8 C898.4,40.8 884,40.8 884,32.8 L884,12 " fill="#E2E2F0" style="stroke:#181818;stroke-width:1.2000000000000002;"/><path d="M884,12 C884,20 898.4,20 898.4,20 C898.4,20 912.8,20 912.8,12 " fill="none" style="stroke:#181818;stroke-width:1.2000000000000002;"/><text fill="#000000" font-family="sans-serif" font-size="11.2" lengthAdjust="spacing" textLength="48.8" x="871.6" y="1018.075">Database</text><path d="M884,1028.8859 C884,1020.8859 898.4,1020.8859 898.4,1020.8859 C898.4,1020.8859 912.8,1020.8859 912.8,1028.8859 L912.8,1049.6859 C912.8,1057.6859 898.4,1057.6859 898.4,1057.6859 C898.4,1057.6859 884,1057.6859 884,1049.6859 L884,1028.8859 " fill="#E2E2F0" style="stroke:#181818;stroke-width:1.2000000000000002;"/><path d="M884,1028.8859 C884,1036.8859 898.4,1036.8859 898.4,1036.8859 C898.4,1036.8859 912.8,1036.8859 912.8,1028.8859 " fill="none" style="stroke:#181818;stroke-width:1.2000000000000002;"/><rect fill="#FFFFFF" height="916.4594" style="stroke:#181818;stroke-width:0.8000000000000002;" width="8" x="208" y="82.3297"/><rect fill="#FFFFFF" height="843.1938" style="stroke:#181818;stroke-width:0.8000000000000002;" width="8" x="342.4" y="107.3625"/><rect fill="#FFFFFF" height="793.1281" style="stroke:#181818;stroke-width:0.8000000000000002;" width="8" x="496.8" y="132.3953"/><rect fill="#FFFFFF" height="74.8266" style="stroke:#181818;stroke-width:0.8000000000000002;" width="8" x="605.6" y="825.6641"/><rect fill="#FFFFFF" height="41.7938" style="stroke:#181818;stroke-width:0.8000000000000002;" width="8" x="731.2" y="858.6969"/><rect fill="#FFFFFF" height="49.0328" style="stroke:#181818;stroke-width:0.8000000000000002;" width="8" x="789.6" y="157.4281"/><rect fill="#FFFFFF" height="49.0328" style="stroke:#181818;stroke-width:0.8000000000000002;" width="8" x="789.6" y="340.9297"/><rect fill="#FFFFFF" height="49.0328" style="stroke:#181818;stroke-width:0.8000000000000002;" width="8" x="789.6" y="524.4313"/><rect fill="#FFFFFF" height="49.0328" style="stroke:#181818;stroke-width:0.8000000000000002;" width="8" x="789.6" y="751.5984"/><rect fill="#FFFFFF" height="24" style="stroke:#181818;stroke-width:0.8000000000000002;" width="8" x="894.4" y="182.4609"/><rect fill="#FFFFFF" height="24" style="stroke:#181818;stroke-width:0.8000000000000002;" width="8" x="894.4" y="365.9625"/><rect fill="#FFFFFF" height="24" style="stroke:#181818;stroke-width:0.8000000000000002;" width="8" x="894.4" y="549.4641"/><rect fill="#FFFFFF" height="24" style="stroke:#181818;stroke-width:0.8000000000000002;" width="8" x="894.4" y="776.6313"/><polygon fill="#181818" points="198.4,79.1297,206.4,82.3297,198.4,85.5297,201.6,82.3297" style="stroke:#181818;stroke-width:0.8000000000000002;"/><line style="stroke:#181818;stroke-width:0.8000000000000002;" x1="0" x2="203.2" y1="82.3297" y2="82.3297"/><text fill="#000000" font-family="sans-serif" font-size="10.4" font-weight="bold" lengthAdjust="spacing" textLength="5.6" x="5.6" y="78.1195">1</text><text fill="#000000" font-family="sans-serif" font-size="10.4" lengthAdjust="spacing" textLength="178.4" x="14.4" y="78.1195">PATCH (/buildings/{idb}/elevators/{ide})</text><polygon fill="#181818" points="332.8,104.1625,340.8,107.3625,332.8,110.5625,336,107.3625" style="stroke:#181818;stroke-width:0.8000000000000002;"/><line style="stroke:#181818;stroke-width:0.8000000000000002;" x1="216" x2="337.6" y1="107.3625" y2="107.3625"/><text fill="#000000" font-family="sans-serif" font-size="10.4" font-weight="bold" lengthAdjust="spacing" textLength="5.6" x="221.6" y="103.1523">2</text><text fill="#000000" font-family="sans-serif" font-size="10.4" lengthAdjust="spacing" textLength="102.4" x="230.4" y="103.1523">putElevator(req,res,...)</text><polygon fill="#181818" points="487.2,129.1953,495.2,132.3953,487.2,135.5953,490.4,132.3953" style="stroke:#181818;stroke-width:0.8000000000000002;"/><line style="stroke:#181818;stroke-width:0.8000000000000002;" x1="350.4" x2="492" y1="132.3953" y2="132.3953"/><text fill="#000000" font-family="sans-serif" font-size="10.4" font-weight="bold" lengthAdjust="spacing" textLength="5.6" x="356" y="128.1852">3</text><text fill="#000000" font-family="sans-serif" font-size="10.4" lengthAdjust="spacing" textLength="122.4" x="364.8" y="128.1852">editElevator(idElevator,dto)</text><polygon fill="#181818" points="780,154.2281,788,157.4281,780,160.6281,783.2,157.4281" style="stroke:#181818;stroke-width:0.8000000000000002;"/><line style="stroke:#181818;stroke-width:0.8000000000000002;" x1="504.8" x2="784.8" y1="157.4281" y2="157.4281"/><text fill="#000000" font-family="sans-serif" font-size="10.4" font-weight="bold" lengthAdjust="spacing" textLength="5.6" x="510.4" y="153.218">4</text><text fill="#000000" font-family="sans-serif" font-size="10.4" lengthAdjust="spacing" textLength="118.4" x="519.2" y="153.218">findByCode(buildingCode)</text><polygon fill="#181818" points="884.8,179.2609,892.8,182.4609,884.8,185.6609,888,182.4609" style="stroke:#181818;stroke-width:0.8000000000000002;"/><line style="stroke:#181818;stroke-width:0.8000000000000002;" x1="797.6" x2="889.6" y1="182.4609" y2="182.4609"/><text fill="#000000" font-family="sans-serif" font-size="10.4" font-weight="bold" lengthAdjust="spacing" textLength="5.6" x="803.2" y="178.2508">5</text><text fill="#000000" font-family="sans-serif" font-size="10.4" lengthAdjust="spacing" textLength="69.6" x="812" y="178.2508">findOne(bcode)</text><path d="M2.4,218.4609 L51.2,218.4609 L51.2,225.8938 L43.2,233.8938 L2.4,233.8938 L2.4,218.4609 " fill="#EEEEEE" style="stroke:#000000;stroke-width:1.2000000000000002;"/><rect fill="none" height="774.7281" style="stroke:#000000;stroke-width:1.2000000000000002;" width="946.8" x="2.4" y="218.4609"/><text fill="#000000" font-family="sans-serif" font-size="10.4" font-weight="bold" lengthAdjust="spacing" textLength="12.8" x="14.4" y="230.4836">alt</text><text fill="#000000" font-family="sans-serif" font-size="8.8" font-weight="bold" lengthAdjust="spacing" textLength="86.4" x="63.2" y="229.557">[building not found]</text><polygon fill="#181818" points="359.2,249.3266,351.2,252.5266,359.2,255.7266,356,252.5266" style="stroke:#181818;stroke-width:0.8000000000000002;"/><line style="stroke:#181818;stroke-width:0.8000000000000002;stroke-dasharray:2.0,2.0;" x1="354.4" x2="496" y1="252.5266" y2="252.5266"/><text fill="#000000" font-family="sans-serif" font-size="10.4" font-weight="bold" lengthAdjust="spacing" textLength="5.6" x="364" y="248.3164">6</text><text fill="#000000" font-family="sans-serif" font-size="10.4" lengthAdjust="spacing" textLength="20.8" x="372.8" y="248.3164">error</text><polygon fill="#181818" points="224.8,274.3594,216.8,277.5594,224.8,280.7594,221.6,277.5594" style="stroke:#181818;stroke-width:0.8000000000000002;"/><line style="stroke:#181818;stroke-width:0.8000000000000002;stroke-dasharray:2.0,2.0;" x1="220" x2="341.6" y1="277.5594" y2="277.5594"/><text fill="#000000" font-family="sans-serif" font-size="10.4" font-weight="bold" lengthAdjust="spacing" textLength="5.6" x="229.6" y="273.3492">7</text><text fill="#000000" font-family="sans-serif" font-size="10.4" lengthAdjust="spacing" textLength="62.4" x="238.4" y="273.3492">response 412</text><polygon fill="#181818" points="8.8,299.3922,0.8,302.5922,8.8,305.7922,5.6,302.5922" style="stroke:#181818;stroke-width:0.8000000000000002;"/><line style="stroke:#181818;stroke-width:0.8000000000000002;stroke-dasharray:2.0,2.0;" x1="4" x2="207.2" y1="302.5922" y2="302.5922"/><text fill="#000000" font-family="sans-serif" font-size="10.4" font-weight="bold" lengthAdjust="spacing" textLength="5.6" x="13.6" y="298.382">8</text><text fill="#000000" font-family="sans-serif" font-size="10.4" lengthAdjust="spacing" textLength="112" x="22.4" y="298.382">412: Precondition Failed</text><line style="stroke:#000000;stroke-width:0.8000000000000002;stroke-dasharray:2.0,2.0;" x1="2.4" x2="949.2" y1="309.7922" y2="309.7922"/><text fill="#000000" font-family="sans-serif" font-size="8.8" font-weight="bold" lengthAdjust="spacing" textLength="69.6" x="6.4" y="319.2883">[building found]</text><polygon fill="#181818" points="780,337.7297,788,340.9297,780,344.1297,783.2,340.9297" style="stroke:#181818;stroke-width:0.8000000000000002;"/><line style="stroke:#181818;stroke-width:0.8000000000000002;" x1="504.8" x2="784.8" y1="340.9297" y2="340.9297"/><text fill="#000000" font-family="sans-serif" font-size="10.4" font-weight="bold" lengthAdjust="spacing" textLength="5.6" x="510.4" y="336.7195">9</text><text fill="#000000" font-family="sans-serif" font-size="10.4" lengthAdjust="spacing" textLength="185.6" x="519.2" y="336.7195">exitsInBuilding(building,elevatorIdentifier)</text><polygon fill="#181818" points="884.8,362.7625,892.8,365.9625,884.8,369.1625,888,365.9625" style="stroke:#181818;stroke-width:0.8000000000000002;"/><line style="stroke:#181818;stroke-width:0.8000000000000002;" x1="797.6" x2="889.6" y1="365.9625" y2="365.9625"/><text fill="#000000" font-family="sans-serif" font-size="10.4" font-weight="bold" lengthAdjust="spacing" textLength="11.2" x="803.2" y="361.7523">10</text><text fill="#000000" font-family="sans-serif" font-size="10.4" lengthAdjust="spacing" textLength="67.2" x="817.6" y="361.7523">findOne(query)</text><path d="M2.4,401.9625 L51.2,401.9625 L51.2,409.3953 L43.2,417.3953 L2.4,417.3953 L2.4,401.9625 " fill="#EEEEEE" style="stroke:#000000;stroke-width:1.2000000000000002;"/><rect fill="none" height="585.6266" style="stroke:#000000;stroke-width:1.2000000000000002;" width="938.8" x="2.4" y="401.9625"/><text fill="#000000" font-family="sans-serif" font-size="10.4" font-weight="bold" lengthAdjust="spacing" textLength="12.8" x="14.4" y="413.9852">alt</text><text fill="#000000" font-family="sans-serif" font-size="8.8" font-weight="bold" lengthAdjust="spacing" textLength="87.2" x="63.2" y="413.0586">[elevator not found]</text><polygon fill="#181818" points="359.2,432.8281,351.2,436.0281,359.2,439.2281,356,436.0281" style="stroke:#181818;stroke-width:0.8000000000000002;"/><line style="stroke:#181818;stroke-width:0.8000000000000002;stroke-dasharray:2.0,2.0;" x1="354.4" x2="496" y1="436.0281" y2="436.0281"/><text fill="#000000" font-family="sans-serif" font-size="10.4" font-weight="bold" lengthAdjust="spacing" textLength="11.2" x="364" y="431.818">11</text><text fill="#000000" font-family="sans-serif" font-size="10.4" lengthAdjust="spacing" textLength="20.8" x="378.4" y="431.818">error</text><polygon fill="#181818" points="224.8,457.8609,216.8,461.0609,224.8,464.2609,221.6,461.0609" style="stroke:#181818;stroke-width:0.8000000000000002;"/><line style="stroke:#181818;stroke-width:0.8000000000000002;stroke-dasharray:2.0,2.0;" x1="220" x2="341.6" y1="461.0609" y2="461.0609"/><text fill="#000000" font-family="sans-serif" font-size="10.4" font-weight="bold" lengthAdjust="spacing" textLength="11.2" x="229.6" y="456.8508">12</text><text fill="#000000" font-family="sans-serif" font-size="10.4" lengthAdjust="spacing" textLength="62.4" x="244" y="456.8508">response 412</text><polygon fill="#181818" points="8.8,482.8938,0.8,486.0938,8.8,489.2938,5.6,486.0938" style="stroke:#181818;stroke-width:0.8000000000000002;"/><line style="stroke:#181818;stroke-width:0.8000000000000002;stroke-dasharray:2.0,2.0;" x1="4" x2="207.2" y1="486.0938" y2="486.0938"/><text fill="#000000" font-family="sans-serif" font-size="10.4" font-weight="bold" lengthAdjust="spacing" textLength="11.2" x="13.6" y="481.8836">13</text><text fill="#000000" font-family="sans-serif" font-size="10.4" lengthAdjust="spacing" textLength="112" x="28" y="481.8836">412: Precondition Failed</text><line style="stroke:#000000;stroke-width:0.8000000000000002;stroke-dasharray:2.0,2.0;" x1="2.4" x2="941.2" y1="493.2938" y2="493.2938"/><text fill="#000000" font-family="sans-serif" font-size="8.8" font-weight="bold" lengthAdjust="spacing" textLength="72" x="6.4" y="502.7898">[elevator exists]</text><polygon fill="#181818" points="780,521.2313,788,524.4313,780,527.6313,783.2,524.4313" style="stroke:#181818;stroke-width:0.8000000000000002;"/><line style="stroke:#181818;stroke-width:0.8000000000000002;" x1="504.8" x2="784.8" y1="524.4313" y2="524.4313"/><text fill="#000000" font-family="sans-serif" font-size="10.4" font-weight="bold" lengthAdjust="spacing" textLength="11.2" x="510.4" y="520.2211">14</text><text fill="#000000" font-family="sans-serif" font-size="10.4" lengthAdjust="spacing" textLength="185.6" x="524.8" y="520.2211">findByIdentifier(building,elevatorIdentifier)</text><polygon fill="#181818" points="884.8,546.2641,892.8,549.4641,884.8,552.6641,888,549.4641" style="stroke:#181818;stroke-width:0.8000000000000002;"/><line style="stroke:#181818;stroke-width:0.8000000000000002;" x1="797.6" x2="889.6" y1="549.4641" y2="549.4641"/><text fill="#000000" font-family="sans-serif" font-size="10.4" font-weight="bold" lengthAdjust="spacing" textLength="11.2" x="803.2" y="545.2539">15</text><text fill="#000000" font-family="sans-serif" font-size="10.4" lengthAdjust="spacing" textLength="67.2" x="817.6" y="545.2539">findOne(query)</text><path d="M508.8,583.8641 L508.8,619.0641 L647.2,619.0641 L647.2,591.8641 L639.2,583.8641 L508.8,583.8641 " fill="#FEFFDD" style="stroke:#181818;stroke-width:0.4000000000000001;"/><path d="M639.2,583.8641 L639.2,591.8641 L647.2,591.8641 L639.2,583.8641 " fill="#FEFFDD" style="stroke:#181818;stroke-width:0.4000000000000001;"/><text fill="#000000" font-family="sans-serif" font-size="10.4" lengthAdjust="spacing" textLength="121.6" x="513.6" y="599.0867">edit building specifications</text><text fill="#000000" font-family="sans-serif" font-size="10.4" lengthAdjust="spacing" textLength="89.6" x="513.6" y="612.9195">based on new ones</text><path d="M2.4,629.1297 L51.2,629.1297 L51.2,636.5625 L43.2,644.5625 L2.4,644.5625 L2.4,629.1297 " fill="#EEEEEE" style="stroke:#000000;stroke-width:1.2000000000000002;"/><rect fill="none" height="352.8594" style="stroke:#000000;stroke-width:1.2000000000000002;" width="930.8" x="2.4" y="629.1297"/><text fill="#000000" font-family="sans-serif" font-size="10.4" font-weight="bold" lengthAdjust="spacing" textLength="12.8" x="14.4" y="641.1523">alt</text><text fill="#000000" font-family="sans-serif" font-size="8.8" font-weight="bold" lengthAdjust="spacing" textLength="115.2" x="63.2" y="640.2258">[elevator bad parameters]</text><polygon fill="#181818" points="359.2,659.9953,351.2,663.1953,359.2,666.3953,356,663.1953" style="stroke:#181818;stroke-width:0.8000000000000002;"/><line style="stroke:#181818;stroke-width:0.8000000000000002;stroke-dasharray:2.0,2.0;" x1="354.4" x2="496" y1="663.1953" y2="663.1953"/><text fill="#000000" font-family="sans-serif" font-size="10.4" font-weight="bold" lengthAdjust="spacing" textLength="11.2" x="364" y="658.9852">16</text><text fill="#000000" font-family="sans-serif" font-size="10.4" lengthAdjust="spacing" textLength="20.8" x="378.4" y="658.9852">error</text><polygon fill="#181818" points="224.8,685.0281,216.8,688.2281,224.8,691.4281,221.6,688.2281" style="stroke:#181818;stroke-width:0.8000000000000002;"/><line style="stroke:#181818;stroke-width:0.8000000000000002;stroke-dasharray:2.0,2.0;" x1="220" x2="341.6" y1="688.2281" y2="688.2281"/><text fill="#000000" font-family="sans-serif" font-size="10.4" font-weight="bold" lengthAdjust="spacing" textLength="11.2" x="229.6" y="684.018">17</text><text fill="#000000" font-family="sans-serif" font-size="10.4" lengthAdjust="spacing" textLength="62.4" x="244" y="684.018">response 422</text><polygon fill="#181818" points="8.8,710.0609,0.8,713.2609,8.8,716.4609,5.6,713.2609" style="stroke:#181818;stroke-width:0.8000000000000002;"/><line style="stroke:#181818;stroke-width:0.8000000000000002;stroke-dasharray:2.0,2.0;" x1="4" x2="207.2" y1="713.2609" y2="713.2609"/><text fill="#000000" font-family="sans-serif" font-size="10.4" font-weight="bold" lengthAdjust="spacing" textLength="11.2" x="13.6" y="709.0508">18</text><text fill="#000000" font-family="sans-serif" font-size="10.4" lengthAdjust="spacing" textLength="131.2" x="28" y="709.0508">422: Unprocessable Content</text><line style="stroke:#000000;stroke-width:0.8000000000000002;stroke-dasharray:2.0,2.0;" x1="2.4" x2="933.2" y1="720.4609" y2="720.4609"/><text fill="#000000" font-family="sans-serif" font-size="8.8" font-weight="bold" lengthAdjust="spacing" textLength="131.2" x="6.4" y="729.957">[elevator edited successfully]</text><polygon fill="#181818" points="780,748.3984,788,751.5984,780,754.7984,783.2,751.5984" style="stroke:#181818;stroke-width:0.8000000000000002;"/><line style="stroke:#181818;stroke-width:0.8000000000000002;" x1="504.8" x2="784.8" y1="751.5984" y2="751.5984"/><text fill="#000000" font-family="sans-serif" font-size="10.4" font-weight="bold" lengthAdjust="spacing" textLength="11.2" x="510.4" y="747.3883">19</text><text fill="#000000" font-family="sans-serif" font-size="10.4" lengthAdjust="spacing" textLength="62.4" x="524.8" y="747.3883">save(elevator)</text><polygon fill="#181818" points="884.8,773.4313,892.8,776.6313,884.8,779.8313,888,776.6313" style="stroke:#181818;stroke-width:0.8000000000000002;"/><line style="stroke:#181818;stroke-width:0.8000000000000002;" x1="797.6" x2="889.6" y1="776.6313" y2="776.6313"/><text fill="#000000" font-family="sans-serif" font-size="10.4" font-weight="bold" lengthAdjust="spacing" textLength="11.2" x="803.2" y="772.4211">20</text><text fill="#000000" font-family="sans-serif" font-size="10.4" lengthAdjust="spacing" textLength="27.2" x="817.6" y="772.4211">save()</text><polygon fill="#181818" points="596,822.4641,604,825.6641,596,828.8641,599.2,825.6641" style="stroke:#181818;stroke-width:0.8000000000000002;"/><line style="stroke:#181818;stroke-width:0.8000000000000002;" x1="504.8" x2="600.8" y1="825.6641" y2="825.6641"/><text fill="#000000" font-family="sans-serif" font-size="10.4" font-weight="bold" lengthAdjust="spacing" textLength="11.2" x="510.4" y="821.4539">21</text><text fill="#000000" font-family="sans-serif" font-size="10.4" lengthAdjust="spacing" textLength="71.2" x="524.8" y="821.4539">toDTO(elevator)</text><polygon fill="#181818" points="708,847.4969,716,850.6969,708,853.8969,711.2,850.6969" style="stroke:#181818;stroke-width:0.8000000000000002;"/><line style="stroke:#181818;stroke-width:0.8000000000000002;stroke-dasharray:2.0,2.0;" x1="613.6" x2="712.8" y1="850.6969" y2="850.6969"/><text fill="#000000" font-family="sans-serif" font-size="10.4" font-weight="bold" lengthAdjust="spacing" textLength="11.2" x="619.2" y="846.4867">22</text><text fill="#000000" font-family="sans-serif" font-size="10.4" lengthAdjust="spacing" textLength="70.4" x="633.6" y="846.4867">create(elevator)</text><rect fill="#E2E2F0" height="40.9938" rx="2" ry="2" style="stroke:#181818;stroke-width:0.4000000000000001;" width="35.2" x="717.6" y="832.0641"/><text fill="#000000" font-family="sans-serif" font-size="11.2" lengthAdjust="spacing" textLength="19.2" x="725.6" y="849.75">dto:</text><text fill="#000000" font-family="sans-serif" font-size="11.2" lengthAdjust="spacing" textLength="24" x="723.2" y="864.6469">DTO</text><polygon fill="#181818" points="513.6,897.2906,505.6,900.4906,513.6,903.6906,510.4,900.4906" style="stroke:#181818;stroke-width:0.8000000000000002;"/><line style="stroke:#181818;stroke-width:0.8000000000000002;stroke-dasharray:2.0,2.0;" x1="508.8" x2="608.8" y1="900.4906" y2="900.4906"/><text fill="#000000" font-family="sans-serif" font-size="10.4" font-weight="bold" lengthAdjust="spacing" textLength="11.2" x="518.4" y="896.2805">23</text><text fill="#000000" font-family="sans-serif" font-size="10.4" lengthAdjust="spacing" textLength="14.4" x="532.8" y="896.2805">dto</text><polygon fill="#181818" points="359.2,922.3234,351.2,925.5234,359.2,928.7234,356,925.5234" style="stroke:#181818;stroke-width:0.8000000000000002;"/><line style="stroke:#181818;stroke-width:0.8000000000000002;stroke-dasharray:2.0,2.0;" x1="354.4" x2="500" y1="925.5234" y2="925.5234"/><text fill="#000000" font-family="sans-serif" font-size="10.4" font-weight="bold" lengthAdjust="spacing" textLength="11.2" x="364" y="921.3133">24</text><text fill="#000000" font-family="sans-serif" font-size="10.4" lengthAdjust="spacing" textLength="14.4" x="378.4" y="921.3133">dto</text><polygon fill="#181818" points="224.8,947.3563,216.8,950.5563,224.8,953.7563,221.6,950.5563" style="stroke:#181818;stroke-width:0.8000000000000002;"/><line style="stroke:#181818;stroke-width:0.8000000000000002;stroke-dasharray:2.0,2.0;" x1="220" x2="345.6" y1="950.5563" y2="950.5563"/><text fill="#000000" font-family="sans-serif" font-size="10.4" font-weight="bold" lengthAdjust="spacing" textLength="11.2" x="229.6" y="946.3461">25</text><text fill="#000000" font-family="sans-serif" font-size="10.4" lengthAdjust="spacing" textLength="16.8" x="244" y="946.3461">200</text><polygon fill="#181818" points="8.8,972.3891,0.8,975.5891,8.8,978.7891,5.6,975.5891" style="stroke:#181818;stroke-width:0.8000000000000002;"/><line style="stroke:#181818;stroke-width:0.8000000000000002;stroke-dasharray:2.0,2.0;" x1="4" x2="207.2" y1="975.5891" y2="975.5891"/><text fill="#000000" font-family="sans-serif" font-size="10.4" font-weight="bold" lengthAdjust="spacing" textLength="11.2" x="13.6" y="971.3789">26</text><text fill="#000000" font-family="sans-serif" font-size="10.4" lengthAdjust="spacing" textLength="95.2" x="28" y="971.3789">200: "OK" Sucessful</text><!--SRC=[pPVVRzem4CVVyrUSU8AA7ntQ4vechNJJgcbYMjkdxiM9ZyvIi5FROKDJ__UTdGG8WyIXqpI_W8dlUxxpvvo3vLR9V1MZZjp8cBOY4HcJ5dfVLMwn1yo0hZ-OAscrIbFK_cbYTLfVS8jwBPB2rgoJ0ztFBCjAqnNBwi-uLRDlylfkuH_Jx61Bc2aZhDARObyqZJYpB6O6eNTTVYjiOuhdOVGMz0o-lBkRVuJ-9Cv5oeLyD9DVWiVF4qnnpKZDp_5v404DbbX1lo953Nj30scvK646MMxVbwPzZKz3ZMOu7ey7DOEQbiyH71bUaPGfJIICNEoK1Q- -3YaHWwFcMmSkpN1YE6sN2CeM-LWAoQysSyMnN-N3JGOdpUj9SIc7bk4zaKSUb_uMafmbuLxey9hMSJnZfT_voSKijL2b0wIoi5Ivv8tQFgqxA51hfHiDYhDs9q7BYPbCISBszQjfezN3cz78Mz12GbbZeYHX8fI43qoao5tXdZB6b3niuofYQWzgomh-5DRSoAjIO0lCiAgS6uxIYgL0FMYbeXj39pbwob5l1a7sePHqvweJMnLVLT82-JgBiVCv2sEjoTh3jWsIs37MH64X5iHLbzEEgfSHTnvrVuEyS-ZhJc1d2jqW-6YfUFnkGIqRtnkrioKCTXU9oJ2XCqYOGyC42RWNCmS2IU8F-i1sAvJSRpRgK5anuq0T0rkXHMt-QNbDkvJNbChhNcPQ9MWCYrC4rrGHsLqAZ8w4Kchon8aiypJTHE6rHhimR8tzIgwLwvTStwMl_-3M_gDSeg3t8JMgb32hg3CDpDZMZUjnsq9myeuewlFWuc86YKOo3J-RlPpPW2kWSbSqdSwaIuvRbkyjTQ5tQQ6QfFTa_L-AeEgSNbv6BMA-Cp-ae2XKRp-3tk9J3sxpiiYY8zTKT79UJVQnYtu3]--></g></svg>