<?xml version="1.0" encoding="us-ascii" standalone="no"?><svg xmlns="http://www.w3.org/2000/svg" xmlns:xlink="http://www.w3.org/1999/xlink" contentStyleType="text/css" height="1280px" preserveAspectRatio="none" style="width:1103px;height:1280px;background:#FFFFFF;" version="1.1" viewBox="0 0 1103 1280" width="1103px" zoomAndPan="magnify"><defs/><g><rect fill="#FFFFFF" height="1259.6084" style="stroke:#181818;stroke-width:1.5;" width="1092" x="5" y="15"/><path d="M36,15 L36,26.6211 L26,36.6211 L5,36.6211 " fill="none" style="stroke:#181818;stroke-width:1.5;"/><text fill="#000000" font-family="sans-serif" font-size="14" lengthAdjust="spacing" textLength="21" x="8" y="31.1074">MD</text><rect fill="#ADD8E6" height="1202.6035" style="stroke:#181818;stroke-width:0.5;" width="724" x="246" y="46.3838"/><text fill="#000000" font-family="sans-serif" font-size="13" font-weight="bold" lengthAdjust="spacing" textLength="59" x="578.5" y="60.4121">Back-End</text><rect fill="#DDDDDD" height="1202.6035" style="stroke:#181818;stroke-width:0.5;" width="82" x="972" y="46.3838"/><text fill="#000000" font-family="sans-serif" font-size="13" font-weight="bold" lengthAdjust="spacing" textLength="59" x="983.5" y="60.4121">Database</text><rect fill="#FFFFFF" height="1005.7793" style="stroke:#181818;stroke-width:1.0;" width="10" x="271" y="165.5869"/><rect fill="#FFFFFF" height="914.1973" style="stroke:#181818;stroke-width:1.0;" width="10" x="453" y="196.8779"/><rect fill="#FFFFFF" height="851.6152" style="stroke:#181818;stroke-width:1.0;" width="10" x="646" y="228.1689"/><rect fill="#FFFFFF" height="93.5332" style="stroke:#181818;stroke-width:1.0;" width="10" x="782" y="954.96"/><rect fill="#FFFFFF" height="52.2422" style="stroke:#181818;stroke-width:1.0;" width="10" x="939" y="996.251"/><rect fill="#FFFFFF" height="30" style="stroke:#181818;stroke-width:1.0;" width="10" x="1008" y="259.46"/><rect fill="#FFFFFF" height="30" style="stroke:#181818;stroke-width:1.0;" width="10" x="1008" y="457.5459"/><rect fill="#FFFFFF" height="30" style="stroke:#181818;stroke-width:1.0;" width="10" x="1008" y="655.6318"/><rect fill="#FFFFFF" height="30" style="stroke:#181818;stroke-width:1.0;" width="10" x="1008" y="893.6689"/><rect fill="none" height="859.9063" style="stroke:#000000;stroke-width:1.5;" width="1060" x="20" y="304.46"/><rect fill="none" height="654.8203" style="stroke:#000000;stroke-width:1.5;" width="1040" x="30" y="502.5459"/><rect fill="none" height="395.1523" style="stroke:#000000;stroke-width:1.5;" width="1020" x="40" y="755.2139"/><line style="stroke:#181818;stroke-width:0.5;stroke-dasharray:5.0,5.0;" x1="65" x2="65" y1="132.2959" y2="1181.3662"/><line style="stroke:#181818;stroke-width:0.5;stroke-dasharray:5.0,5.0;" x1="276" x2="276" y1="132.2959" y2="1181.3662"/><line style="stroke:#181818;stroke-width:0.5;stroke-dasharray:5.0,5.0;" x1="458" x2="458" y1="132.2959" y2="1181.3662"/><line style="stroke:#181818;stroke-width:0.5;stroke-dasharray:5.0,5.0;" x1="650.5" x2="650.5" y1="132.2959" y2="1181.3662"/><line style="stroke:#181818;stroke-width:0.5;stroke-dasharray:5.0,5.0;" x1="787" x2="787" y1="132.2959" y2="1181.3662"/><line style="stroke:#181818;stroke-width:0.5;stroke-dasharray:5.0,5.0;" x1="944" x2="944" y1="1004.0811" y2="1181.3662"/><line style="stroke:#181818;stroke-width:0.5;stroke-dasharray:5.0,5.0;" x1="1013" x2="1013" y1="132.2959" y2="1181.3662"/><rect fill="#E2E2F0" height="32.6211" rx="2.5" ry="2.5" style="stroke:#181818;stroke-width:0.5;" width="30" x="50" y="98.6748"/><text fill="#000000" font-family="sans-serif" font-size="14" lengthAdjust="spacing" textLength="16" x="57" y="120.7822">??</text><rect fill="#E2E2F0" height="32.6211" rx="2.5" ry="2.5" style="stroke:#181818;stroke-width:0.5;" width="30" x="50" y="1180.3662"/><text fill="#000000" font-family="sans-serif" font-size="14" lengthAdjust="spacing" textLength="16" x="57" y="1202.4736">??</text><rect fill="#E2E2F0" height="32.6211" rx="2.5" ry="2.5" style="stroke:#181818;stroke-width:0.5;" width="52" x="250" y="98.6748"/><text fill="#000000" font-family="sans-serif" font-size="14" lengthAdjust="spacing" textLength="38" x="257" y="120.7822">Route</text><rect fill="#E2E2F0" height="32.6211" rx="2.5" ry="2.5" style="stroke:#181818;stroke-width:0.5;" width="52" x="250" y="1180.3662"/><text fill="#000000" font-family="sans-serif" font-size="14" lengthAdjust="spacing" textLength="38" x="257" y="1202.4736">Route</text><rect fill="#E2E2F0" height="32.6211" rx="2.5" ry="2.5" style="stroke:#181818;stroke-width:0.5;" width="76" x="420" y="98.6748"/><text fill="#000000" font-family="sans-serif" font-size="14" lengthAdjust="spacing" textLength="62" x="427" y="120.7822">Controller</text><rect fill="#E2E2F0" height="32.6211" rx="2.5" ry="2.5" style="stroke:#181818;stroke-width:0.5;" width="76" x="420" y="1180.3662"/><text fill="#000000" font-family="sans-serif" font-size="14" lengthAdjust="spacing" textLength="62" x="427" y="1202.4736">Controller</text><rect fill="#E2E2F0" height="32.6211" rx="2.5" ry="2.5" style="stroke:#181818;stroke-width:0.5;" width="61" x="620.5" y="98.6748"/><text fill="#000000" font-family="sans-serif" font-size="14" lengthAdjust="spacing" textLength="47" x="627.5" y="120.7822">Service</text><rect fill="#E2E2F0" height="32.6211" rx="2.5" ry="2.5" style="stroke:#181818;stroke-width:0.5;" width="61" x="620.5" y="1180.3662"/><text fill="#000000" font-family="sans-serif" font-size="14" lengthAdjust="spacing" textLength="47" x="627.5" y="1202.4736">Service</text><rect fill="#E2E2F0" height="32.6211" rx="2.5" ry="2.5" style="stroke:#181818;stroke-width:0.5;" width="62" x="756" y="98.6748"/><text fill="#000000" font-family="sans-serif" font-size="14" lengthAdjust="spacing" textLength="48" x="763" y="120.7822">Mapper</text><rect fill="#E2E2F0" height="32.6211" rx="2.5" ry="2.5" style="stroke:#181818;stroke-width:0.5;" width="62" x="756" y="1180.3662"/><text fill="#000000" font-family="sans-serif" font-size="14" lengthAdjust="spacing" textLength="48" x="763" y="1202.4736">Mapper</text><rect fill="#E2E2F0" height="51.2422" rx="2.5" ry="2.5" style="stroke:#181818;stroke-width:0.5;" width="44" x="922" y="1180.3662"/><text fill="#000000" font-family="sans-serif" font-size="14" lengthAdjust="spacing" textLength="24" x="932" y="1202.4736">dto:</text><text fill="#000000" font-family="sans-serif" font-size="14" lengthAdjust="spacing" textLength="30" x="929" y="1221.0947">DTO</text><text fill="#000000" font-family="sans-serif" font-size="14" lengthAdjust="spacing" textLength="68" x="976" y="128.7822">Repository</text><path d="M995,77.6748 C995,67.6748 1013,67.6748 1013,67.6748 C1013,67.6748 1031,67.6748 1031,77.6748 L1031,103.6748 C1031,113.6748 1013,113.6748 1013,113.6748 C1013,113.6748 995,113.6748 995,103.6748 L995,77.6748 " fill="#E2E2F0" style="stroke:#181818;stroke-width:1.5;"/><path d="M995,77.6748 C995,87.6748 1013,87.6748 1013,87.6748 C1013,87.6748 1031,87.6748 1031,77.6748 " fill="none" style="stroke:#181818;stroke-width:1.5;"/><text fill="#000000" font-family="sans-serif" font-size="14" lengthAdjust="spacing" textLength="68" x="976" y="1195.4736">Repository</text><path d="M995,1208.9873 C995,1198.9873 1013,1198.9873 1013,1198.9873 C1013,1198.9873 1031,1198.9873 1031,1208.9873 L1031,1234.9873 C1031,1244.9873 1013,1244.9873 1013,1244.9873 C1013,1244.9873 995,1244.9873 995,1234.9873 L995,1208.9873 " fill="#E2E2F0" style="stroke:#181818;stroke-width:1.5;"/><path d="M995,1208.9873 C995,1218.9873 1013,1218.9873 1013,1218.9873 C1013,1218.9873 1031,1218.9873 1031,1208.9873 " fill="none" style="stroke:#181818;stroke-width:1.5;"/><rect fill="#FFFFFF" height="1005.7793" style="stroke:#181818;stroke-width:1.0;" width="10" x="271" y="165.5869"/><rect fill="#FFFFFF" height="914.1973" style="stroke:#181818;stroke-width:1.0;" width="10" x="453" y="196.8779"/><rect fill="#FFFFFF" height="851.6152" style="stroke:#181818;stroke-width:1.0;" width="10" x="646" y="228.1689"/><rect fill="#FFFFFF" height="93.5332" style="stroke:#181818;stroke-width:1.0;" width="10" x="782" y="954.96"/><rect fill="#FFFFFF" height="52.2422" style="stroke:#181818;stroke-width:1.0;" width="10" x="939" y="996.251"/><rect fill="#FFFFFF" height="30" style="stroke:#181818;stroke-width:1.0;" width="10" x="1008" y="259.46"/><rect fill="#FFFFFF" height="30" style="stroke:#181818;stroke-width:1.0;" width="10" x="1008" y="457.5459"/><rect fill="#FFFFFF" height="30" style="stroke:#181818;stroke-width:1.0;" width="10" x="1008" y="655.6318"/><rect fill="#FFFFFF" height="30" style="stroke:#181818;stroke-width:1.0;" width="10" x="1008" y="893.6689"/><polygon fill="#181818" points="259,161.5869,269,165.5869,259,169.5869,263,165.5869" style="stroke:#181818;stroke-width:1.0;"/><line style="stroke:#181818;stroke-width:1.0;stroke-dasharray:2.0,2.0;" x1="65" x2="265" y1="165.5869" y2="165.5869"/><text fill="#000000" font-family="sans-serif" font-size="13" font-weight="bold" lengthAdjust="spacing" textLength="7" x="72" y="160.3242">1</text><text fill="#000000" font-family="sans-serif" font-size="13" lengthAdjust="spacing" textLength="128" x="83" y="160.3242">PATCH (elevators/{id})</text><polygon fill="#181818" points="441,192.8779,451,196.8779,441,200.8779,445,196.8779" style="stroke:#181818;stroke-width:1.0;"/><line style="stroke:#181818;stroke-width:1.0;" x1="281" x2="447" y1="196.8779" y2="196.8779"/><text fill="#000000" font-family="sans-serif" font-size="13" font-weight="bold" lengthAdjust="spacing" textLength="7" x="288" y="191.6152">2</text><text fill="#000000" font-family="sans-serif" font-size="13" lengthAdjust="spacing" textLength="142" x="299" y="191.6152">patchElevator(req,res,...)</text><polygon fill="#181818" points="634,224.1689,644,228.1689,634,232.1689,638,228.1689" style="stroke:#181818;stroke-width:1.0;"/><line style="stroke:#181818;stroke-width:1.0;" x1="463" x2="640" y1="228.1689" y2="228.1689"/><text fill="#000000" font-family="sans-serif" font-size="13" font-weight="bold" lengthAdjust="spacing" textLength="7" x="470" y="222.9063">3</text><text fill="#000000" font-family="sans-serif" font-size="13" lengthAdjust="spacing" textLength="153" x="481" y="222.9063">editElevator(idElevator,dto)</text><polygon fill="#181818" points="996,255.46,1006,259.46,996,263.46,1000,259.46" style="stroke:#181818;stroke-width:1.0;"/><line style="stroke:#181818;stroke-width:1.0;" x1="656" x2="1002" y1="259.46" y2="259.46"/><text fill="#000000" font-family="sans-serif" font-size="13" font-weight="bold" lengthAdjust="spacing" textLength="7" x="663" y="254.1973">4</text><text fill="#000000" font-family="sans-serif" font-size="13" lengthAdjust="spacing" textLength="148" x="674" y="254.1973">findByCode(buildingCode)</text><path d="M20,304.46 L81,304.46 L81,313.751 L71,323.751 L20,323.751 L20,304.46 " fill="#EEEEEE" style="stroke:#000000;stroke-width:1.5;"/><rect fill="none" height="859.9063" style="stroke:#000000;stroke-width:1.5;" width="1060" x="20" y="304.46"/><text fill="#000000" font-family="sans-serif" font-size="13" font-weight="bold" lengthAdjust="spacing" textLength="16" x="35" y="319.4883">alt</text><text fill="#000000" font-family="sans-serif" font-size="11" font-weight="bold" lengthAdjust="spacing" textLength="108" x="96" y="318.3301">[building not found]</text><polygon fill="#181818" points="474,343.042,464,347.042,474,351.042,470,347.042" style="stroke:#181818;stroke-width:1.0;"/><line style="stroke:#181818;stroke-width:1.0;stroke-dasharray:2.0,2.0;" x1="468" x2="645" y1="347.042" y2="347.042"/><text fill="#000000" font-family="sans-serif" font-size="13" font-weight="bold" lengthAdjust="spacing" textLength="7" x="480" y="341.7793">5</text><text fill="#000000" font-family="sans-serif" font-size="13" lengthAdjust="spacing" textLength="26" x="491" y="341.7793">error</text><polygon fill="#181818" points="292,374.333,282,378.333,292,382.333,288,378.333" style="stroke:#181818;stroke-width:1.0;"/><line style="stroke:#181818;stroke-width:1.0;stroke-dasharray:2.0,2.0;" x1="286" x2="452" y1="378.333" y2="378.333"/><text fill="#000000" font-family="sans-serif" font-size="13" font-weight="bold" lengthAdjust="spacing" textLength="7" x="298" y="373.0703">6</text><text fill="#000000" font-family="sans-serif" font-size="13" lengthAdjust="spacing" textLength="78" x="309" y="373.0703">response 422</text><polygon fill="#181818" points="76,405.624,66,409.624,76,413.624,72,409.624" style="stroke:#181818;stroke-width:1.0;"/><line style="stroke:#181818;stroke-width:1.0;stroke-dasharray:2.0,2.0;" x1="70" x2="270" y1="409.624" y2="409.624"/><text fill="#000000" font-family="sans-serif" font-size="13" font-weight="bold" lengthAdjust="spacing" textLength="7" x="82" y="404.3613">7</text><text fill="#000000" font-family="sans-serif" font-size="13" lengthAdjust="spacing" textLength="140" x="93" y="404.3613">412: Precondition Failed</text><line style="stroke:#000000;stroke-width:1.0;stroke-dasharray:2.0,2.0;" x1="20" x2="1080" y1="418.624" y2="418.624"/><text fill="#000000" font-family="sans-serif" font-size="11" font-weight="bold" lengthAdjust="spacing" textLength="87" x="25" y="430.4941">[building found]</text><polygon fill="#181818" points="996,453.5459,1006,457.5459,996,461.5459,1000,457.5459" style="stroke:#181818;stroke-width:1.0;"/><line style="stroke:#181818;stroke-width:1.0;" x1="656" x2="1002" y1="457.5459" y2="457.5459"/><text fill="#000000" font-family="sans-serif" font-size="13" font-weight="bold" lengthAdjust="spacing" textLength="7" x="663" y="452.2832">8</text><text fill="#000000" font-family="sans-serif" font-size="13" lengthAdjust="spacing" textLength="232" x="674" y="452.2832">exitsInBuilding(building,elevatorIdentifier)</text><path d="M30,502.5459 L91,502.5459 L91,511.8369 L81,521.8369 L30,521.8369 L30,502.5459 " fill="#EEEEEE" style="stroke:#000000;stroke-width:1.5;"/><rect fill="none" height="654.8203" style="stroke:#000000;stroke-width:1.5;" width="1040" x="30" y="502.5459"/><text fill="#000000" font-family="sans-serif" font-size="13" font-weight="bold" lengthAdjust="spacing" textLength="16" x="45" y="517.5742">alt</text><text fill="#000000" font-family="sans-serif" font-size="11" font-weight="bold" lengthAdjust="spacing" textLength="109" x="106" y="516.416">[elevator not found]</text><polygon fill="#181818" points="474,541.1279,464,545.1279,474,549.1279,470,545.1279" style="stroke:#181818;stroke-width:1.0;"/><line style="stroke:#181818;stroke-width:1.0;stroke-dasharray:2.0,2.0;" x1="468" x2="645" y1="545.1279" y2="545.1279"/><text fill="#000000" font-family="sans-serif" font-size="13" font-weight="bold" lengthAdjust="spacing" textLength="7" x="480" y="539.8652">9</text><text fill="#000000" font-family="sans-serif" font-size="13" lengthAdjust="spacing" textLength="26" x="491" y="539.8652">error</text><polygon fill="#181818" points="292,572.4189,282,576.4189,292,580.4189,288,576.4189" style="stroke:#181818;stroke-width:1.0;"/><line style="stroke:#181818;stroke-width:1.0;stroke-dasharray:2.0,2.0;" x1="286" x2="452" y1="576.4189" y2="576.4189"/><text fill="#000000" font-family="sans-serif" font-size="13" font-weight="bold" lengthAdjust="spacing" textLength="14" x="298" y="571.1563">10</text><text fill="#000000" font-family="sans-serif" font-size="13" lengthAdjust="spacing" textLength="78" x="316" y="571.1563">response 422</text><polygon fill="#181818" points="76,603.71,66,607.71,76,611.71,72,607.71" style="stroke:#181818;stroke-width:1.0;"/><line style="stroke:#181818;stroke-width:1.0;stroke-dasharray:2.0,2.0;" x1="70" x2="270" y1="607.71" y2="607.71"/><text fill="#000000" font-family="sans-serif" font-size="13" font-weight="bold" lengthAdjust="spacing" textLength="14" x="82" y="602.4473">11</text><text fill="#000000" font-family="sans-serif" font-size="13" lengthAdjust="spacing" textLength="140" x="100" y="602.4473">412: Precondition Failed</text><line style="stroke:#000000;stroke-width:1.0;stroke-dasharray:2.0,2.0;" x1="30" x2="1070" y1="616.71" y2="616.71"/><text fill="#000000" font-family="sans-serif" font-size="11" font-weight="bold" lengthAdjust="spacing" textLength="90" x="35" y="628.5801">[elevator exists]</text><polygon fill="#181818" points="996,651.6318,1006,655.6318,996,659.6318,1000,655.6318" style="stroke:#181818;stroke-width:1.0;"/><line style="stroke:#181818;stroke-width:1.0;" x1="656" x2="1002" y1="655.6318" y2="655.6318"/><text fill="#000000" font-family="sans-serif" font-size="13" font-weight="bold" lengthAdjust="spacing" textLength="14" x="663" y="650.3691">12</text><text fill="#000000" font-family="sans-serif" font-size="13" lengthAdjust="spacing" textLength="232" x="681" y="650.3691">findByIdentifier(building,elevatorIdentifier)</text><path d="M661,698.6318 L661,742.6318 L834,742.6318 L834,708.6318 L824,698.6318 L661,698.6318 " fill="#FEFFDD" style="stroke:#181818;stroke-width:0.5;"/><path d="M824,698.6318 L824,708.6318 L834,708.6318 L824,698.6318 " fill="#FEFFDD" style="stroke:#181818;stroke-width:0.5;"/><text fill="#000000" font-family="sans-serif" font-size="13" lengthAdjust="spacing" textLength="152" x="667" y="717.6602">edit building specifications</text><text fill="#000000" font-family="sans-serif" font-size="13" lengthAdjust="spacing" textLength="112" x="667" y="734.9512">based on new ones</text><path d="M40,755.2139 L101,755.2139 L101,764.5049 L91,774.5049 L40,774.5049 L40,755.2139 " fill="#EEEEEE" style="stroke:#000000;stroke-width:1.5;"/><rect fill="none" height="395.1523" style="stroke:#000000;stroke-width:1.5;" width="1020" x="40" y="755.2139"/><text fill="#000000" font-family="sans-serif" font-size="13" font-weight="bold" lengthAdjust="spacing" textLength="16" x="55" y="770.2422">alt</text><text fill="#000000" font-family="sans-serif" font-size="11" font-weight="bold" lengthAdjust="spacing" textLength="144" x="116" y="769.084">[elevator bad parameters]</text><polygon fill="#181818" points="474,793.7959,464,797.7959,474,801.7959,470,797.7959" style="stroke:#181818;stroke-width:1.0;"/><line style="stroke:#181818;stroke-width:1.0;stroke-dasharray:2.0,2.0;" x1="468" x2="645" y1="797.7959" y2="797.7959"/><text fill="#000000" font-family="sans-serif" font-size="13" font-weight="bold" lengthAdjust="spacing" textLength="14" x="480" y="792.5332">13</text><text fill="#000000" font-family="sans-serif" font-size="13" lengthAdjust="spacing" textLength="26" x="498" y="792.5332">error</text><polygon fill="#181818" points="292,825.0869,282,829.0869,292,833.0869,288,829.0869" style="stroke:#181818;stroke-width:1.0;"/><line style="stroke:#181818;stroke-width:1.0;stroke-dasharray:2.0,2.0;" x1="286" x2="452" y1="829.0869" y2="829.0869"/><text fill="#000000" font-family="sans-serif" font-size="13" font-weight="bold" lengthAdjust="spacing" textLength="14" x="298" y="823.8242">14</text><text fill="#000000" font-family="sans-serif" font-size="13" lengthAdjust="spacing" textLength="78" x="316" y="823.8242">response 422</text><polygon fill="#181818" points="76,856.3779,66,860.3779,76,864.3779,72,860.3779" style="stroke:#181818;stroke-width:1.0;"/><line style="stroke:#181818;stroke-width:1.0;stroke-dasharray:2.0,2.0;" x1="70" x2="270" y1="860.3779" y2="860.3779"/><text fill="#000000" font-family="sans-serif" font-size="13" font-weight="bold" lengthAdjust="spacing" textLength="14" x="82" y="855.1152">15</text><text fill="#000000" font-family="sans-serif" font-size="13" lengthAdjust="spacing" textLength="164" x="100" y="855.1152">422: Unprocessable Content</text><line style="stroke:#000000;stroke-width:1.0;stroke-dasharray:2.0,2.0;" x1="40" x2="1060" y1="869.3779" y2="869.3779"/><polygon fill="#181818" points="996,889.6689,1006,893.6689,996,897.6689,1000,893.6689" style="stroke:#181818;stroke-width:1.0;"/><line style="stroke:#181818;stroke-width:1.0;" x1="656" x2="1002" y1="893.6689" y2="893.6689"/><text fill="#000000" font-family="sans-serif" font-size="13" font-weight="bold" lengthAdjust="spacing" textLength="14" x="663" y="888.4063">16</text><text fill="#000000" font-family="sans-serif" font-size="13" lengthAdjust="spacing" textLength="78" x="681" y="888.4063">save(elevator)</text><polygon fill="#181818" points="770,950.96,780,954.96,770,958.96,774,954.96" style="stroke:#181818;stroke-width:1.0;"/><line style="stroke:#181818;stroke-width:1.0;" x1="656" x2="776" y1="954.96" y2="954.96"/><text fill="#000000" font-family="sans-serif" font-size="13" font-weight="bold" lengthAdjust="spacing" textLength="14" x="663" y="949.6973">17</text><text fill="#000000" font-family="sans-serif" font-size="13" lengthAdjust="spacing" textLength="89" x="681" y="949.6973">toDTO(elevator)</text><polygon fill="#181818" points="910,982.251,920,986.251,910,990.251,914,986.251" style="stroke:#181818;stroke-width:1.0;"/><line style="stroke:#181818;stroke-width:1.0;stroke-dasharray:2.0,2.0;" x1="792" x2="916" y1="986.251" y2="986.251"/><text fill="#000000" font-family="sans-serif" font-size="13" font-weight="bold" lengthAdjust="spacing" textLength="14" x="799" y="980.9883">18</text><text fill="#000000" font-family="sans-serif" font-size="13" lengthAdjust="spacing" textLength="88" x="817" y="980.9883">create(elevator)</text><rect fill="#E2E2F0" height="51.2422" rx="2.5" ry="2.5" style="stroke:#181818;stroke-width:0.5;" width="44" x="922" y="962.96"/><text fill="#000000" font-family="sans-serif" font-size="14" lengthAdjust="spacing" textLength="24" x="932" y="985.0674">dto:</text><text fill="#000000" font-family="sans-serif" font-size="14" lengthAdjust="spacing" textLength="30" x="929" y="1003.6885">DTO</text><polygon fill="#181818" points="667,1044.4932,657,1048.4932,667,1052.4932,663,1048.4932" style="stroke:#181818;stroke-width:1.0;"/><line style="stroke:#181818;stroke-width:1.0;stroke-dasharray:2.0,2.0;" x1="661" x2="786" y1="1048.4932" y2="1048.4932"/><text fill="#000000" font-family="sans-serif" font-size="13" font-weight="bold" lengthAdjust="spacing" textLength="14" x="673" y="1043.2305">19</text><text fill="#000000" font-family="sans-serif" font-size="13" lengthAdjust="spacing" textLength="18" x="691" y="1043.2305">dto</text><polygon fill="#181818" points="474,1075.7842,464,1079.7842,474,1083.7842,470,1079.7842" style="stroke:#181818;stroke-width:1.0;"/><line style="stroke:#181818;stroke-width:1.0;stroke-dasharray:2.0,2.0;" x1="468" x2="650" y1="1079.7842" y2="1079.7842"/><text fill="#000000" font-family="sans-serif" font-size="13" font-weight="bold" lengthAdjust="spacing" textLength="14" x="480" y="1074.5215">20</text><text fill="#000000" font-family="sans-serif" font-size="13" lengthAdjust="spacing" textLength="18" x="498" y="1074.5215">dto</text><polygon fill="#181818" points="292,1107.0752,282,1111.0752,292,1115.0752,288,1111.0752" style="stroke:#181818;stroke-width:1.0;"/><line style="stroke:#181818;stroke-width:1.0;stroke-dasharray:2.0,2.0;" x1="286" x2="457" y1="1111.0752" y2="1111.0752"/><text fill="#000000" font-family="sans-serif" font-size="13" font-weight="bold" lengthAdjust="spacing" textLength="14" x="298" y="1105.8125">21</text><text fill="#000000" font-family="sans-serif" font-size="13" lengthAdjust="spacing" textLength="21" x="316" y="1105.8125">200</text><polygon fill="#181818" points="76,1138.3662,66,1142.3662,76,1146.3662,72,1142.3662" style="stroke:#181818;stroke-width:1.0;"/><line style="stroke:#181818;stroke-width:1.0;stroke-dasharray:2.0,2.0;" x1="70" x2="270" y1="1142.3662" y2="1142.3662"/><text fill="#000000" font-family="sans-serif" font-size="13" font-weight="bold" lengthAdjust="spacing" textLength="14" x="82" y="1137.1035">22</text><text fill="#000000" font-family="sans-serif" font-size="13" lengthAdjust="spacing" textLength="119" x="100" y="1137.1035">200: "OK" Sucessful</text><!--SRC=[pLRBRjim4BppAnRg8NPWkwcHar4qgEqK3TeWHPFUUg74TK9K9bMISXCK-VSk9Kkod5WFdygBHOix-vWHTtdgj4hN8Hh64cwSZ6J2bOFWuY80RY6LZAsvL2l3rmZNInRgHmZcFFerlbGYW3TVvVs3cySfris_wzHXXc3gBnPQEQFZ64tsDd8chX-uHREHKMvhDn7RY-kQ9ydMTisJ-ZlXzEodMjxTPAzfnr09e8XP7lQIEnvoYm4JsoSA51DjfTFcAO-MjkoaXeenRZWT8EZBxMDs52lqLC9u_07C3Bvzl5jyXa5XOz_-bU9vo80MZvoaFv4g0ZlB05dwCi0C4kwYXyB9mE3laK4xcamcmvf93Ish8BooCap2fY8ID0hfIcGfYiSHLMdugddfm9C01vR7zebJrSZ7IYenVrfeWOCmbR6GwjvlXWVDgvBuiaF3EibS-28Zd9xE8398TeF3q0Bhu8TZY1qKqOBI3bOwLQ8nc2phYZKqHfj6WvmANoWwJfGcMf7spgVJHYjIrVlns9kSlvkIj0n6MX6DKYlun6MCWZwEWmWOauioiJofzgnABl5HEdkbvbk0aj1H8UqhWSh9bKGpR8Jjpd5doWhQYb0wqdOKTSVJrv729lECmp9BeiGwoxhbc1DPV9CLMSSJsO_CteJwHJpIKTzHGAyQBvvQbQYWbT9jWX5b4t5VPDi9m7S20KI9mZ_qW-rM_kRtmR8U8Wsve0lUzr67nlx7IfsIKd-enEW8hULXZE2RDecaLQkikpB9aUKRB3jbg_PwIU-5ybYdkuyc2ehBQHeXEWPMkl73I5kDFRmdXthkRXFhN8BAcvzjEhlB1m1lqkE3RJk-SzIdtgTVDa7lm6R3NoUXJy_EM0jODYNjgs2h-GnW1i7Dbm1kKo_wLVfofCAzxbBR5vjTtR5_]--></g></svg>