<?xml version="1.0" encoding="us-ascii" standalone="no"?><svg xmlns="http://www.w3.org/2000/svg" xmlns:xlink="http://www.w3.org/1999/xlink" contentStyleType="text/css" height="666px" preserveAspectRatio="none" style="width:958px;height:666px;background:#FFFFFF;" version="1.1" viewBox="0 0 958 666" width="958px" zoomAndPan="magnify"><defs/><g><rect fill="#FFFFFF" height="471.2963" style="stroke:#181818;stroke-width:1.0;" width="10" x="63" y="94.0679"/><rect fill="#FFFFFF" height="176.2361" style="stroke:#181818;stroke-width:1.0;" width="10" x="313" y="117.7739"/><rect fill="#FFFFFF" height="239.6481" style="stroke:#181818;stroke-width:1.0;" width="10" x="313" y="325.716"/><rect fill="#FFFFFF" height="95.118" style="stroke:#181818;stroke-width:1.0;" width="10" x="528" y="149.4799"/><rect fill="#FFFFFF" height="158.5301" style="stroke:#181818;stroke-width:1.0;" width="10" x="528" y="357.4221"/><rect fill="#FFFFFF" height="31.706" style="stroke:#181818;stroke-width:1.0;" width="10" x="737" y="181.186"/><rect fill="#FFFFFF" height="95.118" style="stroke:#181818;stroke-width:1.0;" width="10" x="737" y="389.1281"/><rect fill="#FFFFFF" height="31.706" style="stroke:#181818;stroke-width:1.0;" width="10" x="910" y="420.8341"/><line style="stroke:#181818;stroke-width:0.5;stroke-dasharray:5.0,5.0;" x1="68" x2="68" y1="84.0679" y2="583.3642"/><line style="stroke:#181818;stroke-width:0.5;stroke-dasharray:5.0,5.0;" x1="317.5" x2="317.5" y1="84.0679" y2="583.3642"/><line style="stroke:#181818;stroke-width:0.5;stroke-dasharray:5.0,5.0;" x1="533" x2="533" y1="84.0679" y2="583.3642"/><line style="stroke:#181818;stroke-width:0.5;stroke-dasharray:5.0,5.0;" x1="741.5" x2="741.5" y1="84.0679" y2="583.3642"/><line style="stroke:#181818;stroke-width:0.5;stroke-dasharray:5.0,5.0;" x1="915" x2="915" y1="84.0679" y2="583.3642"/><text fill="#000000" font-family="sans-serif" font-size="14" lengthAdjust="spacing" textLength="120" x="5" y="79.9659">Campus Manager</text><ellipse cx="68" cy="13.5" fill="#E2E2F0" rx="8" ry="8" style="stroke:#181818;stroke-width:0.5;"/><path d="M68,21.5 L68,48.5 M55,29.5 L81,29.5 M68,48.5 L55,63.5 M68,48.5 L81,63.5 " fill="none" style="stroke:#181818;stroke-width:0.5;"/><text fill="#000000" font-family="sans-serif" font-size="14" lengthAdjust="spacing" textLength="120" x="5" y="597.3301">Campus Manager</text><ellipse cx="68" cy="609.9321" fill="#E2E2F0" rx="8" ry="8" style="stroke:#181818;stroke-width:0.5;"/><path d="M68,617.9321 L68,644.9321 M55,625.9321 L81,625.9321 M68,644.9321 L55,659.9321 M68,644.9321 L81,659.9321 " fill="none" style="stroke:#181818;stroke-width:0.5;"/><rect fill="#E2E2F0" height="33.0679" rx="2.5" ry="2.5" style="stroke:#181818;stroke-width:0.5;" width="39" x="298.5" y="50"/><text fill="#000000" font-family="sans-serif" font-size="14" lengthAdjust="spacing" textLength="25" x="305.5" y="71.9659">SPA</text><rect fill="#E2E2F0" height="33.0679" rx="2.5" ry="2.5" style="stroke:#181818;stroke-width:0.5;" width="39" x="298.5" y="582.3642"/><text fill="#000000" font-family="sans-serif" font-size="14" lengthAdjust="spacing" textLength="25" x="305.5" y="604.3301">SPA</text><rect fill="#E2E2F0" height="33.0679" rx="2.5" ry="2.5" style="stroke:#181818;stroke-width:0.5;" width="46" x="510" y="50"/><text fill="#000000" font-family="sans-serif" font-size="14" lengthAdjust="spacing" textLength="32" x="517" y="71.9659">MDR</text><rect fill="#E2E2F0" height="33.0679" rx="2.5" ry="2.5" style="stroke:#181818;stroke-width:0.5;" width="46" x="510" y="582.3642"/><text fill="#000000" font-family="sans-serif" font-size="14" lengthAdjust="spacing" textLength="32" x="517" y="604.3301">MDR</text><rect fill="#E2E2F0" height="33.0679" rx="2.5" ry="2.5" style="stroke:#181818;stroke-width:0.5;" width="45" x="719.5" y="50"/><text fill="#000000" font-family="sans-serif" font-size="14" lengthAdjust="spacing" textLength="31" x="726.5" y="71.9659">MDT</text><rect fill="#E2E2F0" height="33.0679" rx="2.5" ry="2.5" style="stroke:#181818;stroke-width:0.5;" width="45" x="719.5" y="582.3642"/><text fill="#000000" font-family="sans-serif" font-size="14" lengthAdjust="spacing" textLength="31" x="726.5" y="604.3301">MDT</text><rect fill="#E2E2F0" height="33.0679" rx="2.5" ry="2.5" style="stroke:#181818;stroke-width:0.5;" width="74" x="878" y="50"/><text fill="#000000" font-family="sans-serif" font-size="14" lengthAdjust="spacing" textLength="60" x="885" y="71.9659">Planning</text><rect fill="#E2E2F0" height="33.0679" rx="2.5" ry="2.5" style="stroke:#181818;stroke-width:0.5;" width="74" x="878" y="582.3642"/><text fill="#000000" font-family="sans-serif" font-size="14" lengthAdjust="spacing" textLength="60" x="885" y="604.3301">Planning</text><rect fill="#FFFFFF" height="471.2963" style="stroke:#181818;stroke-width:1.0;" width="10" x="63" y="94.0679"/><rect fill="#FFFFFF" height="176.2361" style="stroke:#181818;stroke-width:1.0;" width="10" x="313" y="117.7739"/><rect fill="#FFFFFF" height="239.6481" style="stroke:#181818;stroke-width:1.0;" width="10" x="313" y="325.716"/><rect fill="#FFFFFF" height="95.118" style="stroke:#181818;stroke-width:1.0;" width="10" x="528" y="149.4799"/><rect fill="#FFFFFF" height="158.5301" style="stroke:#181818;stroke-width:1.0;" width="10" x="528" y="357.4221"/><rect fill="#FFFFFF" height="31.706" style="stroke:#181818;stroke-width:1.0;" width="10" x="737" y="181.186"/><rect fill="#FFFFFF" height="95.118" style="stroke:#181818;stroke-width:1.0;" width="10" x="737" y="389.1281"/><rect fill="#FFFFFF" height="31.706" style="stroke:#181818;stroke-width:1.0;" width="10" x="910" y="420.8341"/><polygon fill="#181818" points="301,113.7739,311,117.7739,301,121.7739,305,117.7739" style="stroke:#181818;stroke-width:1.0;"/><line style="stroke:#181818;stroke-width:1.0;" x1="73" x2="307" y1="117.7739" y2="117.7739"/><text fill="#000000" font-family="sans-serif" font-size="13" font-weight="bold" lengthAdjust="spacing" textLength="7" x="80" y="111.9649">1</text><text fill="#000000" font-family="sans-serif" font-size="13" lengthAdjust="spacing" textLength="207" x="91" y="111.9649">wants to sequence approved tasks</text><polygon fill="#181818" points="516,145.4799,526,149.4799,516,153.4799,520,149.4799" style="stroke:#181818;stroke-width:1.0;"/><line style="stroke:#181818;stroke-width:1.0;" x1="323" x2="522" y1="149.4799" y2="149.4799"/><text fill="#000000" font-family="sans-serif" font-size="13" font-weight="bold" lengthAdjust="spacing" textLength="7" x="330" y="143.6709">2</text><text fill="#000000" font-family="sans-serif" font-size="13" lengthAdjust="spacing" textLength="175" x="341" y="143.6709">GET /tasks/?status=approved</text><polygon fill="#181818" points="725,177.186,735,181.186,725,185.186,729,181.186" style="stroke:#181818;stroke-width:1.0;"/><line style="stroke:#181818;stroke-width:1.0;" x1="538" x2="731" y1="181.186" y2="181.186"/><text fill="#000000" font-family="sans-serif" font-size="13" font-weight="bold" lengthAdjust="spacing" textLength="7" x="545" y="175.377">3</text><text fill="#000000" font-family="sans-serif" font-size="13" lengthAdjust="spacing" textLength="169" x="556" y="175.377">GET /jobs/?status=approved</text><polygon fill="#181818" points="549,208.892,539,212.892,549,216.892,545,212.892" style="stroke:#181818;stroke-width:1.0;"/><line style="stroke:#181818;stroke-width:1.0;stroke-dasharray:2.0,2.0;" x1="543" x2="741" y1="212.892" y2="212.892"/><text fill="#000000" font-family="sans-serif" font-size="13" font-weight="bold" lengthAdjust="spacing" textLength="7" x="555" y="207.083">4</text><text fill="#000000" font-family="sans-serif" font-size="13" lengthAdjust="spacing" textLength="58" x="566" y="207.083">200: tasks</text><polygon fill="#181818" points="334,240.598,324,244.598,334,248.598,330,244.598" style="stroke:#181818;stroke-width:1.0;"/><line style="stroke:#181818;stroke-width:1.0;stroke-dasharray:2.0,2.0;" x1="328" x2="532" y1="244.598" y2="244.598"/><text fill="#000000" font-family="sans-serif" font-size="13" font-weight="bold" lengthAdjust="spacing" textLength="7" x="340" y="238.789">5</text><text fill="#000000" font-family="sans-serif" font-size="13" lengthAdjust="spacing" textLength="58" x="351" y="238.789">200: tasks</text><polygon fill="#181818" points="84,290.01,74,294.01,84,298.01,80,294.01" style="stroke:#181818;stroke-width:1.0;"/><line style="stroke:#181818;stroke-width:1.0;stroke-dasharray:2.0,2.0;" x1="78" x2="317" y1="294.01" y2="294.01"/><text fill="#000000" font-family="sans-serif" font-size="13" font-weight="bold" lengthAdjust="spacing" textLength="7" x="90" y="279.348">6</text><text fill="#000000" font-family="sans-serif" font-size="13" lengthAdjust="spacing" textLength="202" x="101" y="270.495">presents approved tasks and asks</text><text fill="#000000" font-family="sans-serif" font-size="13" lengthAdjust="spacing" textLength="163" x="101" y="288.201">to select those to sequence</text><polygon fill="#181818" points="301,321.716,311,325.716,301,329.716,305,325.716" style="stroke:#181818;stroke-width:1.0;"/><line style="stroke:#181818;stroke-width:1.0;" x1="73" x2="307" y1="325.716" y2="325.716"/><text fill="#000000" font-family="sans-serif" font-size="13" font-weight="bold" lengthAdjust="spacing" textLength="7" x="80" y="319.907">7</text><text fill="#000000" font-family="sans-serif" font-size="13" lengthAdjust="spacing" textLength="138" x="91" y="319.907">provides selected tasks</text><polygon fill="#181818" points="516,353.4221,526,357.4221,516,361.4221,520,357.4221" style="stroke:#181818;stroke-width:1.0;"/><line style="stroke:#181818;stroke-width:1.0;" x1="323" x2="522" y1="357.4221" y2="357.4221"/><text fill="#000000" font-family="sans-serif" font-size="13" font-weight="bold" lengthAdjust="spacing" textLength="7" x="330" y="351.6131">8</text><text fill="#000000" font-family="sans-serif" font-size="13" lengthAdjust="spacing" textLength="142" x="341" y="351.6131">PATCH /tasks/sequence</text><polygon fill="#181818" points="725,385.1281,735,389.1281,725,393.1281,729,389.1281" style="stroke:#181818;stroke-width:1.0;"/><line style="stroke:#181818;stroke-width:1.0;" x1="538" x2="731" y1="389.1281" y2="389.1281"/><text fill="#000000" font-family="sans-serif" font-size="13" font-weight="bold" lengthAdjust="spacing" textLength="7" x="545" y="383.3191">9</text><text fill="#000000" font-family="sans-serif" font-size="13" lengthAdjust="spacing" textLength="136" x="556" y="383.3191">PATCH /jobs/sequence</text><polygon fill="#181818" points="898,416.8341,908,420.8341,898,424.8341,902,420.8341" style="stroke:#181818;stroke-width:1.0;"/><line style="stroke:#181818;stroke-width:1.0;" x1="747" x2="904" y1="420.8341" y2="420.8341"/><text fill="#000000" font-family="sans-serif" font-size="13" font-weight="bold" lengthAdjust="spacing" textLength="14" x="754" y="415.0251">10</text><text fill="#000000" font-family="sans-serif" font-size="13" lengthAdjust="spacing" textLength="126" x="772" y="415.0251">POST /task-sequence</text><polygon fill="#181818" points="758,448.5401,748,452.5401,758,456.5401,754,452.5401" style="stroke:#181818;stroke-width:1.0;"/><line style="stroke:#181818;stroke-width:1.0;stroke-dasharray:2.0,2.0;" x1="752" x2="914" y1="452.5401" y2="452.5401"/><text fill="#000000" font-family="sans-serif" font-size="13" font-weight="bold" lengthAdjust="spacing" textLength="14" x="764" y="446.7311">11</text><text fill="#000000" font-family="sans-serif" font-size="13" lengthAdjust="spacing" textLength="112" x="782" y="446.7311">200: task sequence</text><polygon fill="#181818" points="549,480.2461,539,484.2461,549,488.2461,545,484.2461" style="stroke:#181818;stroke-width:1.0;"/><line style="stroke:#181818;stroke-width:1.0;stroke-dasharray:2.0,2.0;" x1="543" x2="741" y1="484.2461" y2="484.2461"/><text fill="#000000" font-family="sans-serif" font-size="13" font-weight="bold" lengthAdjust="spacing" textLength="14" x="555" y="478.4371">12</text><text fill="#000000" font-family="sans-serif" font-size="13" lengthAdjust="spacing" textLength="58" x="573" y="478.4371">200: tasks</text><polygon fill="#181818" points="334,511.9521,324,515.9521,334,519.9521,330,515.9521" style="stroke:#181818;stroke-width:1.0;"/><line style="stroke:#181818;stroke-width:1.0;stroke-dasharray:2.0,2.0;" x1="328" x2="532" y1="515.9521" y2="515.9521"/><text fill="#000000" font-family="sans-serif" font-size="13" font-weight="bold" lengthAdjust="spacing" textLength="14" x="340" y="510.1431">13</text><text fill="#000000" font-family="sans-serif" font-size="13" lengthAdjust="spacing" textLength="58" x="358" y="510.1431">200: tasks</text><polygon fill="#181818" points="79,561.3642,69,565.3642,79,569.3642,75,565.3642" style="stroke:#181818;stroke-width:1.0;"/><line style="stroke:#181818;stroke-width:1.0;stroke-dasharray:2.0,2.0;" x1="73" x2="317" y1="565.3642" y2="565.3642"/><text fill="#000000" font-family="sans-serif" font-size="13" font-weight="bold" lengthAdjust="spacing" textLength="14" x="85" y="550.7022">14</text><text fill="#000000" font-family="sans-serif" font-size="13" lengthAdjust="spacing" textLength="166" x="103" y="541.8492">presents task sequence and</text><text fill="#000000" font-family="sans-serif" font-size="13" lengthAdjust="spacing" textLength="100" x="103" y="559.5552">associated robot</text><!--SRC=[pPB1Ri8m38RlF8N5lGBjY3GcnARjWeO6HowcZLWsIBBOPQ-_nBHTKyh4RlZIEeu_E_wD9LjJ7hRA3mQOi_KmdEF1bGGBDBXJVWX8K588E_IiS-tGC0nNozafejFpnUERd1yAtmsigm2dWUKUZT5c9r4N76b47v6Lr8LWuGlPD1I32No7B0AsGEghL2PNWCvvUrG5CD8dIS8lGOil41qPeR40UNvQmqYkZnw8aKkwhodD_OOHtm8jYmWXSKtwiDi_G1qO9u4Ja25hUhiRZoUjfzHMg8iCQQYUJqzwakgJWSGiYbMTLwJYPDDf0fe2v6TZPEPxbJFmkoNLrc3GAHF6VYPSnEf2KGNvbrxBsNh-KYkM5BrUgOeXMfqXhjDeAWiQMQ-hQe6oNbI2awM67XDOrZJOA0SNcQqHzr9lQfEIfyWYRGmIsLnZLD_RhUMUnMbxv7y0]--></g></svg>