<?xml version="1.0" encoding="us-ascii" standalone="no"?><svg xmlns="http://www.w3.org/2000/svg" xmlns:xlink="http://www.w3.org/1999/xlink" contentStyleType="text/css" height="484px" preserveAspectRatio="none" style="width:971px;height:484px;background:#FFFFFF;" version="1.1" viewBox="0 0 971 484" width="971px" zoomAndPan="magnify"><defs/><g><rect fill="#FFFFFF" height="302.0605" style="stroke:#181818;stroke-width:1.0;" width="10" x="78" y="91.4883"/><rect fill="#FFFFFF" height="29.3105" style="stroke:#181818;stroke-width:1.0;" width="10" x="392" y="128.1094"/><rect fill="#FFFFFF" height="206.8184" style="stroke:#181818;stroke-width:1.0;" width="10" x="392" y="186.7305"/><rect fill="#FFFFFF" height="174.5078" style="stroke:#181818;stroke-width:1.0;" width="10" x="765" y="219.041"/><rect fill="none" height="149.5078" style="stroke:#000000;stroke-width:1.5;" width="788" x="10" y="237.041"/><line style="stroke:#181818;stroke-width:0.5;stroke-dasharray:5.0,5.0;" x1="83" x2="83" y1="81.4883" y2="403.5488"/><line style="stroke:#181818;stroke-width:0.5;stroke-dasharray:5.0,5.0;" x1="397" x2="397" y1="81.4883" y2="403.5488"/><line style="stroke:#181818;stroke-width:0.5;stroke-dasharray:5.0,5.0;" x1="770" x2="770" y1="81.4883" y2="403.5488"/><text fill="#000000" font-family="sans-serif" font-size="14" lengthAdjust="spacing" textLength="120" x="20" y="78.5352">Campus Manager</text><ellipse cx="83" cy="13.5" fill="#E2E2F0" rx="8" ry="8" style="stroke:#181818;stroke-width:0.5;"/><path d="M83,21.5 L83,48.5 M70,29.5 L96,29.5 M83,48.5 L70,63.5 M83,48.5 L96,63.5 " fill="none" style="stroke:#181818;stroke-width:0.5;"/><text fill="#000000" font-family="sans-serif" font-size="14" lengthAdjust="spacing" textLength="120" x="20" y="416.084">Campus Manager</text><ellipse cx="83" cy="427.5371" fill="#E2E2F0" rx="8" ry="8" style="stroke:#181818;stroke-width:0.5;"/><path d="M83,435.5371 L83,462.5371 M70,443.5371 L96,443.5371 M83,462.5371 L70,477.5371 M83,462.5371 L96,477.5371 " fill="none" style="stroke:#181818;stroke-width:0.5;"/><rect fill="#E2E2F0" height="30.4883" rx="2.5" ry="2.5" style="stroke:#181818;stroke-width:0.5;" width="30" x="382" y="50"/><text fill="#000000" font-family="sans-serif" font-size="14" lengthAdjust="spacing" textLength="16" x="389" y="70.5352">FE</text><rect fill="#E2E2F0" height="30.4883" rx="2.5" ry="2.5" style="stroke:#181818;stroke-width:0.5;" width="30" x="382" y="402.5488"/><text fill="#000000" font-family="sans-serif" font-size="14" lengthAdjust="spacing" textLength="16" x="389" y="423.084">FE</text><rect fill="#E2E2F0" height="30.4883" rx="2.5" ry="2.5" style="stroke:#181818;stroke-width:0.5;" width="36" x="752" y="50"/><text fill="#000000" font-family="sans-serif" font-size="14" lengthAdjust="spacing" textLength="22" x="759" y="70.5352">MD</text><rect fill="#E2E2F0" height="30.4883" rx="2.5" ry="2.5" style="stroke:#181818;stroke-width:0.5;" width="36" x="752" y="402.5488"/><text fill="#000000" font-family="sans-serif" font-size="14" lengthAdjust="spacing" textLength="22" x="759" y="423.084">MD</text><rect fill="#FFFFFF" height="302.0605" style="stroke:#181818;stroke-width:1.0;" width="10" x="78" y="91.4883"/><rect fill="#FFFFFF" height="29.3105" style="stroke:#181818;stroke-width:1.0;" width="10" x="392" y="128.1094"/><rect fill="#FFFFFF" height="206.8184" style="stroke:#181818;stroke-width:1.0;" width="10" x="392" y="186.7305"/><rect fill="#FFFFFF" height="174.5078" style="stroke:#181818;stroke-width:1.0;" width="10" x="765" y="219.041"/><polygon fill="#181818" points="380,124.1094,390,128.1094,380,132.1094,384,128.1094" style="stroke:#181818;stroke-width:1.0;"/><line style="stroke:#181818;stroke-width:1.0;" x1="88" x2="386" y1="128.1094" y2="128.1094"/><text fill="#000000" font-family="sans-serif" font-size="13" font-weight="bold" lengthAdjust="spacing" textLength="9" x="95" y="115.7119">1</text><text fill="#000000" font-family="sans-serif" font-size="13" lengthAdjust="spacing" textLength="272" x="108" y="108.0566">wants to list buildings between a minimum</text><text fill="#000000" font-family="sans-serif" font-size="13" lengthAdjust="spacing" textLength="200" x="108" y="123.3672">and maximum number of floors</text><polygon fill="#181818" points="99,153.4199,89,157.4199,99,161.4199,95,157.4199" style="stroke:#181818;stroke-width:1.0;"/><line style="stroke:#181818;stroke-width:1.0;stroke-dasharray:2.0,2.0;" x1="93" x2="396" y1="157.4199" y2="157.4199"/><text fill="#000000" font-family="sans-serif" font-size="13" font-weight="bold" lengthAdjust="spacing" textLength="9" x="105" y="152.6777">2</text><text fill="#000000" font-family="sans-serif" font-size="13" lengthAdjust="spacing" textLength="85" x="118" y="152.6777">requests data</text><polygon fill="#181818" points="380,182.7305,390,186.7305,380,190.7305,384,186.7305" style="stroke:#181818;stroke-width:1.0;"/><line style="stroke:#181818;stroke-width:1.0;" x1="88" x2="386" y1="186.7305" y2="186.7305"/><text fill="#000000" font-family="sans-serif" font-size="13" font-weight="bold" lengthAdjust="spacing" textLength="9" x="95" y="181.9883">3</text><text fill="#000000" font-family="sans-serif" font-size="13" lengthAdjust="spacing" textLength="85" x="108" y="181.9883">provides data</text><polygon fill="#181818" points="753,215.041,763,219.041,753,223.041,757,219.041" style="stroke:#181818;stroke-width:1.0;"/><line style="stroke:#181818;stroke-width:1.0;" x1="402" x2="759" y1="219.041" y2="219.041"/><text fill="#000000" font-family="sans-serif" font-size="13" font-weight="bold" lengthAdjust="spacing" textLength="9" x="409" y="214.2988">4</text><text fill="#000000" font-family="sans-serif" font-size="13" lengthAdjust="spacing" textLength="331" x="422" y="214.2988">GET /buildings/?minFloors={min}&amp;maxFloors={max}</text><path d="M780,199.7305 L780,224.7305 L964,224.7305 L964,209.7305 L954,199.7305 L780,199.7305 " fill="#FEFFDD" style="stroke:#181818;stroke-width:0.5;"/><path d="M954,199.7305 L954,209.7305 L964,209.7305 L954,199.7305 " fill="#FEFFDD" style="stroke:#181818;stroke-width:0.5;"/><text fill="#000000" font-family="sans-serif" font-size="13" lengthAdjust="spacing" textLength="163" x="786" y="217.2988">see us180 documentation</text><path d="M10,237.041 L72,237.041 L72,244.3516 L62,254.3516 L10,254.3516 L10,237.041 " fill="#EEEEEE" style="stroke:#000000;stroke-width:1.5;"/><rect fill="none" height="149.5078" style="stroke:#000000;stroke-width:1.5;" width="788" x="10" y="237.041"/><text fill="#000000" font-family="sans-serif" font-size="13" font-weight="bold" lengthAdjust="spacing" textLength="17" x="25" y="250.6094">alt</text><text fill="#000000" font-family="sans-serif" font-size="11" font-weight="bold" lengthAdjust="spacing" textLength="51" x="87" y="249.6758">[success]</text><polygon fill="#181818" points="413,271.6621,403,275.6621,413,279.6621,409,275.6621" style="stroke:#181818;stroke-width:1.0;"/><line style="stroke:#181818;stroke-width:1.0;stroke-dasharray:2.0,2.0;" x1="407" x2="764" y1="275.6621" y2="275.6621"/><text fill="#000000" font-family="sans-serif" font-size="13" font-weight="bold" lengthAdjust="spacing" textLength="9" x="419" y="270.9199">5</text><text fill="#000000" font-family="sans-serif" font-size="13" lengthAdjust="spacing" textLength="91" x="432" y="270.9199">200: buildings</text><polygon fill="#181818" points="99,300.9727,89,304.9727,99,308.9727,95,304.9727" style="stroke:#181818;stroke-width:1.0;"/><line style="stroke:#181818;stroke-width:1.0;stroke-dasharray:2.0,2.0;" x1="93" x2="391" y1="304.9727" y2="304.9727"/><text fill="#000000" font-family="sans-serif" font-size="13" font-weight="bold" lengthAdjust="spacing" textLength="9" x="105" y="300.2305">6</text><text fill="#000000" font-family="sans-serif" font-size="13" lengthAdjust="spacing" textLength="90" x="118" y="300.2305">lists buildings</text><line style="stroke:#000000;stroke-width:1.0;stroke-dasharray:2.0,2.0;" x1="10" x2="798" y1="313.9727" y2="313.9727"/><text fill="#000000" font-family="sans-serif" font-size="11" font-weight="bold" lengthAdjust="spacing" textLength="128" x="15" y="324.6074">[building(s) not found]</text><polygon fill="#181818" points="413,345.2383,403,349.2383,413,353.2383,409,349.2383" style="stroke:#181818;stroke-width:1.0;"/><line style="stroke:#181818;stroke-width:1.0;stroke-dasharray:2.0,2.0;" x1="407" x2="764" y1="349.2383" y2="349.2383"/><text fill="#000000" font-family="sans-serif" font-size="13" font-weight="bold" lengthAdjust="spacing" textLength="9" x="419" y="344.4961">7</text><text fill="#000000" font-family="sans-serif" font-size="13" lengthAdjust="spacing" textLength="95" x="432" y="344.4961">200: empty list</text><polygon fill="#181818" points="99,374.5488,89,378.5488,99,382.5488,95,378.5488" style="stroke:#181818;stroke-width:1.0;"/><line style="stroke:#181818;stroke-width:1.0;stroke-dasharray:2.0,2.0;" x1="93" x2="391" y1="378.5488" y2="378.5488"/><text fill="#000000" font-family="sans-serif" font-size="13" font-weight="bold" lengthAdjust="spacing" textLength="9" x="105" y="373.8066">8</text><text fill="#000000" font-family="sans-serif" font-size="13" lengthAdjust="spacing" textLength="138" x="118" y="373.8066">does not list anything</text><!--SRC=[XL8zJmCn3DtxAwmE28QgXGbLeWpGCdLZP74lRebqIOxOwOTG_pjE2jSx4E3bpb_lFTl19C4djw8u660b8SBm0LsJ69ReSKDn2CYGMDCDHh6LRT0B31VpKy9-YoyVIzoP0cUtA5IwGKs_C9ff3qnXfzKC4g2sBB1AjZRMRnXM93iY3mZEUkkIU_7e3JZSPmTEKY6iOLs74BdWdebiyGkNXL7cKiefH7fBnCfdKB2K6Ees_L3NnB2rXZeDlt7CT5HjU9e_mxYTOdoluXT5uDsx_XulL7_hu_xOGhImkZ3ec0yQYtRpAWhEb7TuVJi14whao0kA3RxNWBK0fweYvbuycoeSVKrsCvbCp-l-KTfRMpuD_r9CDLERkkIhh1ZM8NdpFpsvHWu5_Mz-4_G26RUy4VG7ULMolemEN-UcdzliNxdhvVVy0G00]--></g></svg>