<?xml version="1.0" encoding="us-ascii" standalone="no"?><svg xmlns="http://www.w3.org/2000/svg" xmlns:xlink="http://www.w3.org/1999/xlink" contentStyleType="text/css" height="920px" preserveAspectRatio="none" style="width:1188px;height:920px;background:#FFFFFF;" version="1.1" viewBox="0 0 1188 920" width="1188px" zoomAndPan="magnify"><defs/><g><rect fill="#FFFFFF" height="723.1191" style="stroke:#181818;stroke-width:1.0;" width="10" x="78" y="91.4883"/><rect fill="#FFFFFF" height="29.3105" style="stroke:#181818;stroke-width:1.0;" width="10" x="280" y="112.7988"/><rect fill="#FFFFFF" height="643.1875" style="stroke:#181818;stroke-width:1.0;" width="10" x="280" y="171.4199"/><rect fill="#FFFFFF" height="613.877" style="stroke:#181818;stroke-width:1.0;" width="10" x="396" y="200.7305"/><rect fill="#FFFFFF" height="425.6582" style="stroke:#181818;stroke-width:1.0;" width="10" x="634" y="317.3281"/><rect fill="#FFFFFF" height="47.9766" style="stroke:#181818;stroke-width:1.0;" width="10" x="753" y="240.041"/><rect fill="#FFFFFF" height="47.9766" style="stroke:#181818;stroke-width:1.0;" width="10" x="753" y="665.6992"/><rect fill="#FFFFFF" height="279.75" style="stroke:#181818;stroke-width:1.0;" width="10" x="833" y="346.6387"/><rect fill="#FFFFFF" height="221.1289" style="stroke:#181818;stroke-width:1.0;" width="10" x="977" y="375.9492"/><rect fill="none" height="396.3477" style="stroke:#000000;stroke-width:1.5;" width="1000" x="10" y="426.2598"/><line style="stroke:#181818;stroke-width:0.5;stroke-dasharray:5.0,5.0;" x1="83" x2="83" y1="81.4883" y2="839.6074"/><line style="stroke:#181818;stroke-width:0.5;stroke-dasharray:5.0,5.0;" x1="285" x2="285" y1="81.4883" y2="839.6074"/><line style="stroke:#181818;stroke-width:0.5;stroke-dasharray:5.0,5.0;" x1="401" x2="401" y1="81.4883" y2="839.6074"/><line style="stroke:#181818;stroke-width:0.5;stroke-dasharray:5.0,5.0;" x1="639" x2="639" y1="81.4883" y2="839.6074"/><line style="stroke:#181818;stroke-width:0.5;stroke-dasharray:5.0,5.0;" x1="758" x2="758" y1="673.377" y2="839.6074"/><line style="stroke:#181818;stroke-width:0.5;stroke-dasharray:5.0,5.0;" x1="837.5" x2="837.5" y1="81.4883" y2="839.6074"/><line style="stroke:#181818;stroke-width:0.5;stroke-dasharray:5.0,5.0;" x1="982" x2="982" y1="81.4883" y2="839.6074"/><text fill="#000000" font-family="sans-serif" font-size="14" lengthAdjust="spacing" textLength="120" x="20" y="78.5352">Campus Manager</text><ellipse cx="83" cy="13.5" fill="#E2E2F0" rx="8" ry="8" style="stroke:#181818;stroke-width:0.5;"/><path d="M83,21.5 L83,48.5 M70,29.5 L96,29.5 M83,48.5 L70,63.5 M83,48.5 L96,63.5 " fill="none" style="stroke:#181818;stroke-width:0.5;"/><text fill="#000000" font-family="sans-serif" font-size="14" lengthAdjust="spacing" textLength="120" x="20" y="852.1426">Campus Manager</text><ellipse cx="83" cy="863.5957" fill="#E2E2F0" rx="8" ry="8" style="stroke:#181818;stroke-width:0.5;"/><path d="M83,871.5957 L83,898.5957 M70,879.5957 L96,879.5957 M83,898.5957 L70,913.5957 M83,898.5957 L96,913.5957 " fill="none" style="stroke:#181818;stroke-width:0.5;"/><rect fill="#E2E2F0" height="30.4883" rx="2.5" ry="2.5" style="stroke:#181818;stroke-width:0.5;" width="128" x="221" y="50"/><text fill="#000000" font-family="sans-serif" font-size="14" lengthAdjust="spacing" textLength="114" x="228" y="70.5352">HTML + CSS + JS</text><rect fill="#E2E2F0" height="30.4883" rx="2.5" ry="2.5" style="stroke:#181818;stroke-width:0.5;" width="128" x="221" y="838.6074"/><text fill="#000000" font-family="sans-serif" font-size="14" lengthAdjust="spacing" textLength="114" x="228" y="859.1426">HTML + CSS + JS</text><rect fill="#E2E2F0" height="30.4883" rx="2.5" ry="2.5" style="stroke:#181818;stroke-width:0.5;" width="84" x="359" y="50"/><text fill="#000000" font-family="sans-serif" font-size="14" lengthAdjust="spacing" textLength="70" x="366" y="70.5352">Controller</text><rect fill="#E2E2F0" height="30.4883" rx="2.5" ry="2.5" style="stroke:#181818;stroke-width:0.5;" width="84" x="359" y="838.6074"/><text fill="#000000" font-family="sans-serif" font-size="14" lengthAdjust="spacing" textLength="70" x="366" y="859.1426">Controller</text><rect fill="#E2E2F0" height="30.4883" rx="2.5" ry="2.5" style="stroke:#181818;stroke-width:0.5;" width="62" x="608" y="50"/><text fill="#000000" font-family="sans-serif" font-size="14" lengthAdjust="spacing" textLength="48" x="615" y="70.5352">Service</text><rect fill="#E2E2F0" height="30.4883" rx="2.5" ry="2.5" style="stroke:#181818;stroke-width:0.5;" width="62" x="608" y="838.6074"/><text fill="#000000" font-family="sans-serif" font-size="14" lengthAdjust="spacing" textLength="48" x="615" y="859.1426">Service</text><rect fill="#E2E2F0" height="46.9766" rx="2.5" ry="2.5" style="stroke:#181818;stroke-width:0.5;" width="44" x="736" y="838.6074"/><text fill="#000000" font-family="sans-serif" font-size="14" lengthAdjust="spacing" textLength="27" x="744.5" y="859.1426">dto:</text><text fill="#000000" font-family="sans-serif" font-size="14" lengthAdjust="spacing" textLength="30" x="743" y="875.6309">DTO</text><rect fill="#E2E2F0" height="30.4883" rx="2.5" ry="2.5" style="stroke:#181818;stroke-width:0.5;" width="95" x="790.5" y="50"/><text fill="#000000" font-family="sans-serif" font-size="14" lengthAdjust="spacing" textLength="81" x="797.5" y="70.5352">HTTP Driver</text><rect fill="#E2E2F0" height="30.4883" rx="2.5" ry="2.5" style="stroke:#181818;stroke-width:0.5;" width="95" x="790.5" y="838.6074"/><text fill="#000000" font-family="sans-serif" font-size="14" lengthAdjust="spacing" textLength="81" x="797.5" y="859.1426">HTTP Driver</text><rect fill="#E2E2F0" height="30.4883" rx="2.5" ry="2.5" style="stroke:#181818;stroke-width:0.5;" width="36" x="964" y="50"/><text fill="#000000" font-family="sans-serif" font-size="14" lengthAdjust="spacing" textLength="22" x="971" y="70.5352">MD</text><rect fill="#E2E2F0" height="30.4883" rx="2.5" ry="2.5" style="stroke:#181818;stroke-width:0.5;" width="36" x="964" y="838.6074"/><text fill="#000000" font-family="sans-serif" font-size="14" lengthAdjust="spacing" textLength="22" x="971" y="859.1426">MD</text><rect fill="#FFFFFF" height="723.1191" style="stroke:#181818;stroke-width:1.0;" width="10" x="78" y="91.4883"/><rect fill="#FFFFFF" height="29.3105" style="stroke:#181818;stroke-width:1.0;" width="10" x="280" y="112.7988"/><rect fill="#FFFFFF" height="643.1875" style="stroke:#181818;stroke-width:1.0;" width="10" x="280" y="171.4199"/><rect fill="#FFFFFF" height="613.877" style="stroke:#181818;stroke-width:1.0;" width="10" x="396" y="200.7305"/><rect fill="#FFFFFF" height="425.6582" style="stroke:#181818;stroke-width:1.0;" width="10" x="634" y="317.3281"/><rect fill="#FFFFFF" height="47.9766" style="stroke:#181818;stroke-width:1.0;" width="10" x="753" y="240.041"/><rect fill="#FFFFFF" height="47.9766" style="stroke:#181818;stroke-width:1.0;" width="10" x="753" y="665.6992"/><rect fill="#FFFFFF" height="279.75" style="stroke:#181818;stroke-width:1.0;" width="10" x="833" y="346.6387"/><rect fill="#FFFFFF" height="221.1289" style="stroke:#181818;stroke-width:1.0;" width="10" x="977" y="375.9492"/><polygon fill="#181818" points="268,108.7988,278,112.7988,268,116.7988,272,112.7988" style="stroke:#181818;stroke-width:1.0;"/><line style="stroke:#181818;stroke-width:1.0;" x1="88" x2="274" y1="112.7988" y2="112.7988"/><text fill="#000000" font-family="sans-serif" font-size="13" font-weight="bold" lengthAdjust="spacing" textLength="9" x="95" y="108.0566">1</text><text fill="#000000" font-family="sans-serif" font-size="13" lengthAdjust="spacing" textLength="152" x="108" y="108.0566">wants to create building</text><polygon fill="#181818" points="99,138.1094,89,142.1094,99,146.1094,95,142.1094" style="stroke:#181818;stroke-width:1.0;"/><line style="stroke:#181818;stroke-width:1.0;stroke-dasharray:2.0,2.0;" x1="93" x2="284" y1="142.1094" y2="142.1094"/><text fill="#000000" font-family="sans-serif" font-size="13" font-weight="bold" lengthAdjust="spacing" textLength="9" x="105" y="137.3672">2</text><text fill="#000000" font-family="sans-serif" font-size="13" lengthAdjust="spacing" textLength="78" x="118" y="137.3672">request data</text><polygon fill="#181818" points="268,167.4199,278,171.4199,268,175.4199,272,171.4199" style="stroke:#181818;stroke-width:1.0;"/><line style="stroke:#181818;stroke-width:1.0;" x1="88" x2="274" y1="171.4199" y2="171.4199"/><text fill="#000000" font-family="sans-serif" font-size="13" font-weight="bold" lengthAdjust="spacing" textLength="9" x="95" y="166.6777">3</text><text fill="#000000" font-family="sans-serif" font-size="13" lengthAdjust="spacing" textLength="85" x="108" y="166.6777">provides data</text><polygon fill="#181818" points="384,196.7305,394,200.7305,384,204.7305,388,200.7305" style="stroke:#181818;stroke-width:1.0;"/><line style="stroke:#181818;stroke-width:1.0;" x1="290" x2="390" y1="200.7305" y2="200.7305"/><text fill="#000000" font-family="sans-serif" font-size="13" font-weight="bold" lengthAdjust="spacing" textLength="9" x="297" y="195.9883">4</text><text fill="#000000" font-family="sans-serif" font-size="13" lengthAdjust="spacing" textLength="52" x="310" y="195.9883">submit()</text><polygon fill="#181818" points="724,226.041,734,230.041,724,234.041,728,230.041" style="stroke:#181818;stroke-width:1.0;"/><line style="stroke:#181818;stroke-width:1.0;stroke-dasharray:2.0,2.0;" x1="406" x2="730" y1="230.041" y2="230.041"/><text fill="#000000" font-family="sans-serif" font-size="13" font-weight="bold" lengthAdjust="spacing" textLength="9" x="413" y="225.2988">5</text><text fill="#000000" font-family="sans-serif" font-size="13" lengthAdjust="spacing" textLength="46" x="426" y="225.2988">create()</text><rect fill="#E2E2F0" height="46.9766" rx="2.5" ry="2.5" style="stroke:#181818;stroke-width:0.5;" width="44" x="736" y="208.7305"/><text fill="#000000" font-family="sans-serif" font-size="14" lengthAdjust="spacing" textLength="27" x="744.5" y="229.2656">dto:</text><text fill="#000000" font-family="sans-serif" font-size="14" lengthAdjust="spacing" textLength="30" x="743" y="245.7539">DTO</text><polygon fill="#181818" points="417,284.0176,407,288.0176,417,292.0176,413,288.0176" style="stroke:#181818;stroke-width:1.0;"/><line style="stroke:#181818;stroke-width:1.0;stroke-dasharray:2.0,2.0;" x1="411" x2="757" y1="288.0176" y2="288.0176"/><text fill="#000000" font-family="sans-serif" font-size="13" font-weight="bold" lengthAdjust="spacing" textLength="9" x="423" y="283.2754">6</text><text fill="#000000" font-family="sans-serif" font-size="13" lengthAdjust="spacing" textLength="21" x="436" y="283.2754">dto</text><polygon fill="#181818" points="622,313.3281,632,317.3281,622,321.3281,626,317.3281" style="stroke:#181818;stroke-width:1.0;"/><line style="stroke:#181818;stroke-width:1.0;" x1="406" x2="628" y1="317.3281" y2="317.3281"/><text fill="#000000" font-family="sans-serif" font-size="13" font-weight="bold" lengthAdjust="spacing" textLength="9" x="413" y="312.5859">7</text><text fill="#000000" font-family="sans-serif" font-size="13" lengthAdjust="spacing" textLength="118" x="426" y="312.5859">createBuilding(dto)</text><polygon fill="#181818" points="821,342.6387,831,346.6387,821,350.6387,825,346.6387" style="stroke:#181818;stroke-width:1.0;"/><line style="stroke:#181818;stroke-width:1.0;" x1="644" x2="827" y1="346.6387" y2="346.6387"/><text fill="#000000" font-family="sans-serif" font-size="13" font-weight="bold" lengthAdjust="spacing" textLength="9" x="651" y="341.8965">8</text><text fill="#000000" font-family="sans-serif" font-size="13" lengthAdjust="spacing" textLength="157" x="664" y="341.8965">post({baseUrl}/buildings)</text><polygon fill="#181818" points="965,371.9492,975,375.9492,965,379.9492,969,375.9492" style="stroke:#181818;stroke-width:1.0;"/><line style="stroke:#181818;stroke-width:1.0;" x1="843" x2="971" y1="375.9492" y2="375.9492"/><text fill="#000000" font-family="sans-serif" font-size="13" font-weight="bold" lengthAdjust="spacing" textLength="9" x="850" y="371.207">9</text><text fill="#000000" font-family="sans-serif" font-size="13" lengthAdjust="spacing" textLength="102" x="863" y="371.207">POST /buildings</text><path d="M992,388.9492 L992,413.9492 L1181,413.9492 L1181,398.9492 L1171,388.9492 L992,388.9492 " fill="#FEFFDD" style="stroke:#181818;stroke-width:0.5;"/><path d="M1171,388.9492 L1171,398.9492 L1181,398.9492 L1171,388.9492 " fill="#FEFFDD" style="stroke:#181818;stroke-width:0.5;"/><text fill="#000000" font-family="sans-serif" font-size="13" lengthAdjust="spacing" textLength="168" x="998" y="406.5176">see US 150 documentation</text><path d="M10,426.2598 L72,426.2598 L72,433.5703 L62,443.5703 L10,443.5703 L10,426.2598 " fill="#EEEEEE" style="stroke:#000000;stroke-width:1.5;"/><rect fill="none" height="396.3477" style="stroke:#000000;stroke-width:1.5;" width="1000" x="10" y="426.2598"/><text fill="#000000" font-family="sans-serif" font-size="13" font-weight="bold" lengthAdjust="spacing" textLength="17" x="25" y="439.8281">alt</text><text fill="#000000" font-family="sans-serif" font-size="11" font-weight="bold" lengthAdjust="spacing" textLength="121" x="87" y="438.8945">[building not created]</text><polygon fill="#181818" points="854,460.8809,844,464.8809,854,468.8809,850,464.8809" style="stroke:#181818;stroke-width:1.0;"/><line style="stroke:#181818;stroke-width:1.0;stroke-dasharray:2.0,2.0;" x1="848" x2="976" y1="464.8809" y2="464.8809"/><text fill="#000000" font-family="sans-serif" font-size="13" font-weight="bold" lengthAdjust="spacing" textLength="18" x="860" y="460.1387">10</text><text fill="#000000" font-family="sans-serif" font-size="13" lengthAdjust="spacing" textLength="62" x="882" y="460.1387">422: error</text><polygon fill="#181818" points="655,490.1914,645,494.1914,655,498.1914,651,494.1914" style="stroke:#181818;stroke-width:1.0;"/><line style="stroke:#181818;stroke-width:1.0;stroke-dasharray:2.0,2.0;" x1="649" x2="832" y1="494.1914" y2="494.1914"/><text fill="#000000" font-family="sans-serif" font-size="13" font-weight="bold" lengthAdjust="spacing" textLength="18" x="661" y="489.4492">11</text><text fill="#000000" font-family="sans-serif" font-size="13" lengthAdjust="spacing" textLength="54" x="683" y="489.4492">observer</text><polygon fill="#181818" points="417,519.502,407,523.502,417,527.502,413,523.502" style="stroke:#181818;stroke-width:1.0;"/><line style="stroke:#181818;stroke-width:1.0;stroke-dasharray:2.0,2.0;" x1="411" x2="633" y1="523.502" y2="523.502"/><text fill="#000000" font-family="sans-serif" font-size="13" font-weight="bold" lengthAdjust="spacing" textLength="18" x="423" y="518.7598">12</text><text fill="#000000" font-family="sans-serif" font-size="13" lengthAdjust="spacing" textLength="30" x="445" y="518.7598">error</text><polygon fill="#181818" points="99,548.8125,89,552.8125,99,556.8125,95,552.8125" style="stroke:#181818;stroke-width:1.0;"/><line style="stroke:#181818;stroke-width:1.0;stroke-dasharray:2.0,2.0;" x1="93" x2="279" y1="552.8125" y2="552.8125"/><text fill="#000000" font-family="sans-serif" font-size="13" font-weight="bold" lengthAdjust="spacing" textLength="18" x="105" y="548.0703">13</text><text fill="#000000" font-family="sans-serif" font-size="13" lengthAdjust="spacing" textLength="83" x="127" y="548.0703">informs error</text><line style="stroke:#000000;stroke-width:1.0;stroke-dasharray:2.0,2.0;" x1="10" x2="1010" y1="561.8125" y2="561.8125"/><text fill="#000000" font-family="sans-serif" font-size="11" font-weight="bold" lengthAdjust="spacing" textLength="51" x="15" y="572.4473">[success]</text><polygon fill="#181818" points="854,593.0781,844,597.0781,854,601.0781,850,597.0781" style="stroke:#181818;stroke-width:1.0;"/><line style="stroke:#181818;stroke-width:1.0;stroke-dasharray:2.0,2.0;" x1="848" x2="981" y1="597.0781" y2="597.0781"/><text fill="#000000" font-family="sans-serif" font-size="13" font-weight="bold" lengthAdjust="spacing" textLength="18" x="860" y="592.3359">14</text><text fill="#000000" font-family="sans-serif" font-size="13" lengthAdjust="spacing" textLength="84" x="882" y="592.3359">201: building</text><polygon fill="#181818" points="655,622.3887,645,626.3887,655,630.3887,651,626.3887" style="stroke:#181818;stroke-width:1.0;"/><line style="stroke:#181818;stroke-width:1.0;stroke-dasharray:2.0,2.0;" x1="649" x2="837" y1="626.3887" y2="626.3887"/><text fill="#000000" font-family="sans-serif" font-size="13" font-weight="bold" lengthAdjust="spacing" textLength="18" x="661" y="621.6465">15</text><text fill="#000000" font-family="sans-serif" font-size="13" lengthAdjust="spacing" textLength="54" x="683" y="621.6465">observer</text><polygon fill="#181818" points="724,651.6992,734,655.6992,724,659.6992,728,655.6992" style="stroke:#181818;stroke-width:1.0;"/><line style="stroke:#181818;stroke-width:1.0;stroke-dasharray:2.0,2.0;" x1="644" x2="730" y1="655.6992" y2="655.6992"/><text fill="#000000" font-family="sans-serif" font-size="13" font-weight="bold" lengthAdjust="spacing" textLength="18" x="651" y="650.957">16</text><text fill="#000000" font-family="sans-serif" font-size="13" lengthAdjust="spacing" textLength="46" x="673" y="650.957">create()</text><rect fill="#E2E2F0" height="46.9766" rx="2.5" ry="2.5" style="stroke:#181818;stroke-width:0.5;" width="44" x="736" y="634.3887"/><text fill="#000000" font-family="sans-serif" font-size="14" lengthAdjust="spacing" textLength="27" x="744.5" y="654.9238">dto:</text><text fill="#000000" font-family="sans-serif" font-size="14" lengthAdjust="spacing" textLength="30" x="743" y="671.4121">DTO</text><polygon fill="#181818" points="655,709.6758,645,713.6758,655,717.6758,651,713.6758" style="stroke:#181818;stroke-width:1.0;"/><line style="stroke:#181818;stroke-width:1.0;stroke-dasharray:2.0,2.0;" x1="649" x2="757" y1="713.6758" y2="713.6758"/><text fill="#000000" font-family="sans-serif" font-size="13" font-weight="bold" lengthAdjust="spacing" textLength="18" x="661" y="708.9336">17</text><text fill="#000000" font-family="sans-serif" font-size="13" lengthAdjust="spacing" textLength="21" x="683" y="708.9336">dto</text><polygon fill="#181818" points="417,738.9863,407,742.9863,417,746.9863,413,742.9863" style="stroke:#181818;stroke-width:1.0;"/><line style="stroke:#181818;stroke-width:1.0;stroke-dasharray:2.0,2.0;" x1="411" x2="638" y1="742.9863" y2="742.9863"/><text fill="#000000" font-family="sans-serif" font-size="13" font-weight="bold" lengthAdjust="spacing" textLength="18" x="423" y="738.2441">18</text><text fill="#000000" font-family="sans-serif" font-size="13" lengthAdjust="spacing" textLength="21" x="445" y="738.2441">dto</text><line style="stroke:#181818;stroke-width:1.0;stroke-dasharray:2.0,2.0;" x1="406" x2="448" y1="772.2969" y2="772.2969"/><line style="stroke:#181818;stroke-width:1.0;stroke-dasharray:2.0,2.0;" x1="448" x2="448" y1="772.2969" y2="785.2969"/><line style="stroke:#181818;stroke-width:1.0;stroke-dasharray:2.0,2.0;" x1="407" x2="448" y1="785.2969" y2="785.2969"/><polygon fill="#181818" points="417,781.2969,407,785.2969,417,789.2969,413,785.2969" style="stroke:#181818;stroke-width:1.0;"/><text fill="#000000" font-family="sans-serif" font-size="13" font-weight="bold" lengthAdjust="spacing" textLength="18" x="413" y="767.5547">19</text><text fill="#000000" font-family="sans-serif" font-size="13" lengthAdjust="spacing" textLength="192" x="435" y="767.5547">buildingCreated.emit(building)</text><polygon fill="#181818" points="94,810.6074,84,814.6074,94,818.6074,90,814.6074" style="stroke:#181818;stroke-width:1.0;"/><line style="stroke:#181818;stroke-width:1.0;stroke-dasharray:2.0,2.0;" x1="88" x2="284" y1="814.6074" y2="814.6074"/><text fill="#000000" font-family="sans-serif" font-size="13" font-weight="bold" lengthAdjust="spacing" textLength="18" x="100" y="809.8652">20</text><text fill="#000000" font-family="sans-serif" font-size="13" lengthAdjust="spacing" textLength="146" x="122" y="809.8652">shows created building</text><!--SRC=[ZLGzRzim4DtzAmwUd1Hk4gDTD7YeFGH5ZGIGitMXn8jDG29LafA7el-zH-h34cKfuI11klVUVPELLiaoJr0l5YorIiDon_AYD71WafrGBu4PA0sP2wQjI4N1f8Nby_7m2xx0Bexf-JFsg4hWPOZQAMcroh969hKw6m9Yr9L8qLjDbGwDtAhejzmVNxoPlaOn75zXhqNLo9-jBGB8OUyjEVVPYOfPzCa07Nh3UkkZXWWkX3TW5QGQ7IefHSQ5F7ben_KfGdCySqqIJYa2ZNzAD1OuiynZE0vvDxmMMbM2excIvbnjVGM9Piea5tPrrzaxbYynz8vdk22fVlVtnAtpwt47V5Tb20xzymgDyn3IIpCqrSwthhMTvnzDOLS4dWZ2JK8OX9CW9TTZLpTbxEflmWo-wUpVGziiSpVYTQ9-EaAhboFPd9FewqjyXAlM23oGev62YICLsRKudIsezrhQ8C9R34_V7u6hjCnHMcQ5aWkMsMxK7B4fqhGuoQslTVYssKI0MYizIQXJx9gW4aCxXzDuN-Xhj-V5WnKGybtft3Gap0prianJDEQJ-MmUdwBXwes64JzgmMSJxYdTd8ss4BEBy-7oz1Ue3kZcYk6iID2JcGqCLwTR_uRQrdPNZzbNTFT8-tEOMj1RSrONquxdk4Uz6BexABm0Uz_k4aR9_mC0]--></g></svg>