<?xml version="1.0" encoding="us-ascii" standalone="no"?><svg xmlns="http://www.w3.org/2000/svg" xmlns:xlink="http://www.w3.org/1999/xlink" contentStyleType="text/css" height="947px" preserveAspectRatio="none" style="width:959px;height:947px;background:#FFFFFF;" version="1.1" viewBox="0 0 959 947" width="959px" zoomAndPan="magnify"><defs/><g><rect fill="#FFFFFF" height="760.0977" style="stroke:#181818;stroke-width:1.0;" width="10" x="226" y="98.7988"/><rect fill="#FFFFFF" height="730.7871" style="stroke:#181818;stroke-width:1.0;" width="10" x="348" y="128.1094"/><rect fill="#FFFFFF" height="701.4766" style="stroke:#181818;stroke-width:1.0;" width="10" x="457" y="157.4199"/><rect fill="#FFFFFF" height="87.2871" style="stroke:#181818;stroke-width:1.0;" width="10" x="592" y="654.6777"/><rect fill="#FFFFFF" height="47.9766" style="stroke:#181818;stroke-width:1.0;" width="10" x="711" y="693.9883"/><rect fill="#FFFFFF" height="62.3105" style="stroke:#181818;stroke-width:1.0;" width="10" x="786.5" y="189.7305"/><rect fill="#FFFFFF" height="62.3105" style="stroke:#181818;stroke-width:1.0;" width="10" x="786.5" y="411.5488"/><rect fill="#FFFFFF" height="30" style="stroke:#181818;stroke-width:1.0;" width="10" x="874.5" y="222.041"/><rect fill="#FFFFFF" height="30" style="stroke:#181818;stroke-width:1.0;" width="10" x="874.5" y="443.8594"/><rect fill="none" height="584.8555" style="stroke:#000000;stroke-width:1.5;" width="939.5" x="3" y="267.041"/><rect fill="none" height="356.0371" style="stroke:#000000;stroke-width:1.5;" width="755" x="3" y="488.8594"/><rect fill="none" height="133.9082" style="stroke:#000000;stroke-width:1.5;" width="327" x="421" y="616.0566"/><line style="stroke:#181818;stroke-width:0.5;stroke-dasharray:5.0,5.0;" x1="231" x2="231" y1="67.4883" y2="868.8965"/><line style="stroke:#181818;stroke-width:0.5;stroke-dasharray:5.0,5.0;" x1="353" x2="353" y1="67.4883" y2="868.8965"/><line style="stroke:#181818;stroke-width:0.5;stroke-dasharray:5.0,5.0;" x1="462" x2="462" y1="67.4883" y2="868.8965"/><line style="stroke:#181818;stroke-width:0.5;stroke-dasharray:5.0,5.0;" x1="528" x2="528" y1="67.4883" y2="868.8965"/><line style="stroke:#181818;stroke-width:0.5;stroke-dasharray:5.0,5.0;" x1="597" x2="597" y1="67.4883" y2="868.8965"/><line style="stroke:#181818;stroke-width:0.5;stroke-dasharray:5.0,5.0;" x1="716" x2="716" y1="701.666" y2="868.8965"/><line style="stroke:#181818;stroke-width:0.5;stroke-dasharray:5.0,5.0;" x1="791" x2="791" y1="67.4883" y2="868.8965"/><line style="stroke:#181818;stroke-width:0.5;stroke-dasharray:5.0,5.0;" x1="879" x2="879" y1="67.4883" y2="868.8965"/><rect fill="#E2E2F0" height="30.4883" rx="2.5" ry="2.5" style="stroke:#181818;stroke-width:0.5;" width="54" x="204" y="36"/><text fill="#000000" font-family="sans-serif" font-size="14" lengthAdjust="spacing" textLength="40" x="211" y="56.5352">Route</text><rect fill="#E2E2F0" height="30.4883" rx="2.5" ry="2.5" style="stroke:#181818;stroke-width:0.5;" width="54" x="204" y="867.8965"/><text fill="#000000" font-family="sans-serif" font-size="14" lengthAdjust="spacing" textLength="40" x="211" y="888.4316">Route</text><rect fill="#E2E2F0" height="30.4883" rx="2.5" ry="2.5" style="stroke:#181818;stroke-width:0.5;" width="84" x="311" y="36"/><text fill="#000000" font-family="sans-serif" font-size="14" lengthAdjust="spacing" textLength="70" x="318" y="56.5352">Controller</text><rect fill="#E2E2F0" height="30.4883" rx="2.5" ry="2.5" style="stroke:#181818;stroke-width:0.5;" width="84" x="311" y="867.8965"/><text fill="#000000" font-family="sans-serif" font-size="14" lengthAdjust="spacing" textLength="70" x="318" y="888.4316">Controller</text><rect fill="#E2E2F0" height="30.4883" rx="2.5" ry="2.5" style="stroke:#181818;stroke-width:0.5;" width="62" x="431" y="36"/><text fill="#000000" font-family="sans-serif" font-size="14" lengthAdjust="spacing" textLength="48" x="438" y="56.5352">Service</text><rect fill="#E2E2F0" height="30.4883" rx="2.5" ry="2.5" style="stroke:#181818;stroke-width:0.5;" width="62" x="431" y="867.8965"/><text fill="#000000" font-family="sans-serif" font-size="14" lengthAdjust="spacing" textLength="48" x="438" y="888.4316">Service</text><rect fill="#E2E2F0" height="46.9766" rx="2.5" ry="2.5" style="stroke:#181818;stroke-width:0.5;" width="51" x="503" y="19.5117"/><text fill="#000000" font-family="sans-serif" font-size="14" lengthAdjust="spacing" textLength="37" x="510" y="40.0469">floor:</text><text fill="#000000" font-family="sans-serif" font-size="14" lengthAdjust="spacing" textLength="36" x="510.5" y="56.5352">Floor</text><rect fill="#E2E2F0" height="46.9766" rx="2.5" ry="2.5" style="stroke:#181818;stroke-width:0.5;" width="51" x="503" y="867.8965"/><text fill="#000000" font-family="sans-serif" font-size="14" lengthAdjust="spacing" textLength="37" x="510" y="888.4316">floor:</text><text fill="#000000" font-family="sans-serif" font-size="14" lengthAdjust="spacing" textLength="36" x="510.5" y="904.9199">Floor</text><rect fill="#E2E2F0" height="30.4883" rx="2.5" ry="2.5" style="stroke:#181818;stroke-width:0.5;" width="66" x="564" y="36"/><text fill="#000000" font-family="sans-serif" font-size="14" lengthAdjust="spacing" textLength="52" x="571" y="56.5352">Mapper</text><rect fill="#E2E2F0" height="30.4883" rx="2.5" ry="2.5" style="stroke:#181818;stroke-width:0.5;" width="66" x="564" y="867.8965"/><text fill="#000000" font-family="sans-serif" font-size="14" lengthAdjust="spacing" textLength="52" x="571" y="888.4316">Mapper</text><rect fill="#E2E2F0" height="46.9766" rx="2.5" ry="2.5" style="stroke:#181818;stroke-width:0.5;" width="44" x="694" y="867.8965"/><text fill="#000000" font-family="sans-serif" font-size="14" lengthAdjust="spacing" textLength="27" x="702.5" y="888.4316">dto:</text><text fill="#000000" font-family="sans-serif" font-size="14" lengthAdjust="spacing" textLength="30" x="701" y="904.9199">DTO</text><rect fill="#E2E2F0" height="30.4883" rx="2.5" ry="2.5" style="stroke:#181818;stroke-width:0.5;" width="87" x="748" y="36"/><text fill="#000000" font-family="sans-serif" font-size="14" lengthAdjust="spacing" textLength="73" x="755" y="56.5352">Repository</text><rect fill="#E2E2F0" height="30.4883" rx="2.5" ry="2.5" style="stroke:#181818;stroke-width:0.5;" width="87" x="748" y="867.8965"/><text fill="#000000" font-family="sans-serif" font-size="14" lengthAdjust="spacing" textLength="73" x="755" y="888.4316">Repository</text><text fill="#000000" font-family="sans-serif" font-size="14" lengthAdjust="spacing" textLength="63" x="845" y="64.5352">Database</text><path d="M861.5,15 C861.5,5 879.5,5 879.5,5 C879.5,5 897.5,5 897.5,15 L897.5,41 C897.5,51 879.5,51 879.5,51 C879.5,51 861.5,51 861.5,41 L861.5,15 " fill="#E2E2F0" style="stroke:#181818;stroke-width:1.5;"/><path d="M861.5,15 C861.5,25 879.5,25 879.5,25 C879.5,25 897.5,25 897.5,15 " fill="none" style="stroke:#181818;stroke-width:1.5;"/><text fill="#000000" font-family="sans-serif" font-size="14" lengthAdjust="spacing" textLength="63" x="845" y="881.4316">Database</text><path d="M861.5,894.3848 C861.5,884.3848 879.5,884.3848 879.5,884.3848 C879.5,884.3848 897.5,884.3848 897.5,894.3848 L897.5,920.3848 C897.5,930.3848 879.5,930.3848 879.5,930.3848 C879.5,930.3848 861.5,930.3848 861.5,920.3848 L861.5,894.3848 " fill="#E2E2F0" style="stroke:#181818;stroke-width:1.5;"/><path d="M861.5,894.3848 C861.5,904.3848 879.5,904.3848 879.5,904.3848 C879.5,904.3848 897.5,904.3848 897.5,894.3848 " fill="none" style="stroke:#181818;stroke-width:1.5;"/><rect fill="#FFFFFF" height="760.0977" style="stroke:#181818;stroke-width:1.0;" width="10" x="226" y="98.7988"/><rect fill="#FFFFFF" height="730.7871" style="stroke:#181818;stroke-width:1.0;" width="10" x="348" y="128.1094"/><rect fill="#FFFFFF" height="701.4766" style="stroke:#181818;stroke-width:1.0;" width="10" x="457" y="157.4199"/><rect fill="#FFFFFF" height="87.2871" style="stroke:#181818;stroke-width:1.0;" width="10" x="592" y="654.6777"/><rect fill="#FFFFFF" height="47.9766" style="stroke:#181818;stroke-width:1.0;" width="10" x="711" y="693.9883"/><rect fill="#FFFFFF" height="62.3105" style="stroke:#181818;stroke-width:1.0;" width="10" x="786.5" y="189.7305"/><rect fill="#FFFFFF" height="62.3105" style="stroke:#181818;stroke-width:1.0;" width="10" x="786.5" y="411.5488"/><rect fill="#FFFFFF" height="30" style="stroke:#181818;stroke-width:1.0;" width="10" x="874.5" y="222.041"/><rect fill="#FFFFFF" height="30" style="stroke:#181818;stroke-width:1.0;" width="10" x="874.5" y="443.8594"/><polygon fill="#181818" points="214,94.7988,224,98.7988,214,102.7988,218,98.7988" style="stroke:#181818;stroke-width:1.0;"/><line style="stroke:#181818;stroke-width:1.0;stroke-dasharray:2.0,2.0;" x1="0" x2="220" y1="98.7988" y2="98.7988"/><text fill="#000000" font-family="sans-serif" font-size="13" font-weight="bold" lengthAdjust="spacing" textLength="9" x="7" y="94.0566">1</text><text fill="#000000" font-family="sans-serif" font-size="13" lengthAdjust="spacing" textLength="165" x="20" y="94.0566">GET /buildings/{id}/floors</text><polygon fill="#181818" points="336,124.1094,346,128.1094,336,132.1094,340,128.1094" style="stroke:#181818;stroke-width:1.0;"/><line style="stroke:#181818;stroke-width:1.0;" x1="236" x2="342" y1="128.1094" y2="128.1094"/><text fill="#000000" font-family="sans-serif" font-size="13" font-weight="bold" lengthAdjust="spacing" textLength="9" x="243" y="123.3672">2</text><text fill="#000000" font-family="sans-serif" font-size="13" lengthAdjust="spacing" textLength="67" x="256" y="123.3672">getFloors()</text><polygon fill="#181818" points="445,153.4199,455,157.4199,445,161.4199,449,157.4199" style="stroke:#181818;stroke-width:1.0;"/><line style="stroke:#181818;stroke-width:1.0;" x1="358" x2="451" y1="157.4199" y2="157.4199"/><text fill="#000000" font-family="sans-serif" font-size="13" font-weight="bold" lengthAdjust="spacing" textLength="9" x="365" y="152.6777">3</text><text fill="#000000" font-family="sans-serif" font-size="13" lengthAdjust="spacing" textLength="67" x="378" y="152.6777">getFloors()</text><polygon fill="#181818" points="774.5,185.7305,784.5,189.7305,774.5,193.7305,778.5,189.7305" style="stroke:#181818;stroke-width:1.0;"/><line style="stroke:#181818;stroke-width:1.0;" x1="467" x2="780.5" y1="189.7305" y2="189.7305"/><text fill="#000000" font-family="sans-serif" font-size="13" font-weight="bold" lengthAdjust="spacing" textLength="9" x="474" y="184.9883">4</text><text fill="#000000" font-family="sans-serif" font-size="13" lengthAdjust="spacing" textLength="79" x="487" y="184.9883">findByCode()</text><path d="M801,170.4199 L801,195.4199 L952,195.4199 L952,180.4199 L942,170.4199 L801,170.4199 " fill="#FEFFDD" style="stroke:#181818;stroke-width:0.5;"/><path d="M942,170.4199 L942,180.4199 L952,180.4199 L942,170.4199 " fill="#FEFFDD" style="stroke:#181818;stroke-width:0.5;"/><text fill="#000000" font-family="sans-serif" font-size="13" lengthAdjust="spacing" textLength="130" x="807" y="187.9883">tries to find building</text><polygon fill="#181818" points="862.5,218.041,872.5,222.041,862.5,226.041,866.5,222.041" style="stroke:#181818;stroke-width:1.0;"/><line style="stroke:#181818;stroke-width:1.0;" x1="796.5" x2="868.5" y1="222.041" y2="222.041"/><text fill="#000000" font-family="sans-serif" font-size="13" font-weight="bold" lengthAdjust="spacing" textLength="9" x="803.5" y="217.2988">5</text><text fill="#000000" font-family="sans-serif" font-size="13" lengthAdjust="spacing" textLength="33" x="816.5" y="217.2988">find()</text><path d="M3,267.041 L65,267.041 L65,274.3516 L55,284.3516 L3,284.3516 L3,267.041 " fill="#EEEEEE" style="stroke:#000000;stroke-width:1.5;"/><rect fill="none" height="584.8555" style="stroke:#000000;stroke-width:1.5;" width="939.5" x="3" y="267.041"/><text fill="#000000" font-family="sans-serif" font-size="13" font-weight="bold" lengthAdjust="spacing" textLength="17" x="18" y="280.6094">alt</text><text fill="#000000" font-family="sans-serif" font-size="11" font-weight="bold" lengthAdjust="spacing" textLength="114" x="80" y="279.6758">[building not found]</text><polygon fill="#181818" points="369,301.6621,359,305.6621,369,309.6621,365,305.6621" style="stroke:#181818;stroke-width:1.0;"/><line style="stroke:#181818;stroke-width:1.0;stroke-dasharray:2.0,2.0;" x1="363" x2="456" y1="305.6621" y2="305.6621"/><text fill="#000000" font-family="sans-serif" font-size="13" font-weight="bold" lengthAdjust="spacing" textLength="9" x="375" y="300.9199">6</text><text fill="#000000" font-family="sans-serif" font-size="13" lengthAdjust="spacing" textLength="30" x="388" y="300.9199">error</text><polygon fill="#181818" points="247,330.9727,237,334.9727,247,338.9727,243,334.9727" style="stroke:#181818;stroke-width:1.0;"/><line style="stroke:#181818;stroke-width:1.0;stroke-dasharray:2.0,2.0;" x1="241" x2="347" y1="334.9727" y2="334.9727"/><text fill="#000000" font-family="sans-serif" font-size="13" font-weight="bold" lengthAdjust="spacing" textLength="9" x="253" y="330.2305">7</text><text fill="#000000" font-family="sans-serif" font-size="13" lengthAdjust="spacing" textLength="62" x="266" y="330.2305">error(422)</text><polygon fill="#181818" points="11,360.2832,1,364.2832,11,368.2832,7,364.2832" style="stroke:#181818;stroke-width:1.0;"/><line style="stroke:#181818;stroke-width:1.0;stroke-dasharray:2.0,2.0;" x1="5" x2="225" y1="364.2832" y2="364.2832"/><text fill="#000000" font-family="sans-serif" font-size="13" font-weight="bold" lengthAdjust="spacing" textLength="9" x="17" y="359.541">8</text><text fill="#000000" font-family="sans-serif" font-size="13" lengthAdjust="spacing" textLength="178" x="30" y="359.541">422: Unprocessable Content</text><line style="stroke:#000000;stroke-width:1.0;stroke-dasharray:2.0,2.0;" x1="3" x2="942.5" y1="373.2832" y2="373.2832"/><text fill="#000000" font-family="sans-serif" font-size="11" font-weight="bold" lengthAdjust="spacing" textLength="92" x="8" y="383.918">[building found]</text><polygon fill="#181818" points="774.5,407.5488,784.5,411.5488,774.5,415.5488,778.5,411.5488" style="stroke:#181818;stroke-width:1.0;"/><line style="stroke:#181818;stroke-width:1.0;" x1="467" x2="780.5" y1="411.5488" y2="411.5488"/><text fill="#000000" font-family="sans-serif" font-size="13" font-weight="bold" lengthAdjust="spacing" textLength="9" x="474" y="406.8066">9</text><text fill="#000000" font-family="sans-serif" font-size="13" lengthAdjust="spacing" textLength="130" x="487" y="406.8066">findByBuildingCode()</text><path d="M801,392.2383 L801,417.2383 L937,417.2383 L937,402.2383 L927,392.2383 L801,392.2383 " fill="#FEFFDD" style="stroke:#181818;stroke-width:0.5;"/><path d="M927,392.2383 L927,402.2383 L937,402.2383 L927,392.2383 " fill="#FEFFDD" style="stroke:#181818;stroke-width:0.5;"/><text fill="#000000" font-family="sans-serif" font-size="13" lengthAdjust="spacing" textLength="115" x="807" y="409.8066">tries to find floors</text><polygon fill="#181818" points="862.5,439.8594,872.5,443.8594,862.5,447.8594,866.5,443.8594" style="stroke:#181818;stroke-width:1.0;"/><line style="stroke:#181818;stroke-width:1.0;" x1="796.5" x2="868.5" y1="443.8594" y2="443.8594"/><text fill="#000000" font-family="sans-serif" font-size="13" font-weight="bold" lengthAdjust="spacing" textLength="18" x="803.5" y="439.1172">10</text><text fill="#000000" font-family="sans-serif" font-size="13" lengthAdjust="spacing" textLength="33" x="825.5" y="439.1172">find()</text><path d="M3,488.8594 L65,488.8594 L65,496.1699 L55,506.1699 L3,506.1699 L3,488.8594 " fill="#EEEEEE" style="stroke:#000000;stroke-width:1.5;"/><rect fill="none" height="356.0371" style="stroke:#000000;stroke-width:1.5;" width="755" x="3" y="488.8594"/><text fill="#000000" font-family="sans-serif" font-size="13" font-weight="bold" lengthAdjust="spacing" textLength="17" x="18" y="502.4277">alt</text><text fill="#000000" font-family="sans-serif" font-size="11" font-weight="bold" lengthAdjust="spacing" textLength="101" x="80" y="501.4941">[floors not found]</text><polygon fill="#181818" points="369,523.4805,359,527.4805,369,531.4805,365,527.4805" style="stroke:#181818;stroke-width:1.0;"/><line style="stroke:#181818;stroke-width:1.0;stroke-dasharray:2.0,2.0;" x1="363" x2="456" y1="527.4805" y2="527.4805"/><text fill="#000000" font-family="sans-serif" font-size="13" font-weight="bold" lengthAdjust="spacing" textLength="18" x="375" y="522.7383">11</text><text fill="#000000" font-family="sans-serif" font-size="13" lengthAdjust="spacing" textLength="30" x="397" y="522.7383">error</text><polygon fill="#181818" points="247,552.791,237,556.791,247,560.791,243,556.791" style="stroke:#181818;stroke-width:1.0;"/><line style="stroke:#181818;stroke-width:1.0;stroke-dasharray:2.0,2.0;" x1="241" x2="347" y1="556.791" y2="556.791"/><text fill="#000000" font-family="sans-serif" font-size="13" font-weight="bold" lengthAdjust="spacing" textLength="18" x="253" y="552.0488">12</text><text fill="#000000" font-family="sans-serif" font-size="13" lengthAdjust="spacing" textLength="66" x="275" y="552.0488">error (422)</text><polygon fill="#181818" points="11,582.1016,1,586.1016,11,590.1016,7,586.1016" style="stroke:#181818;stroke-width:1.0;"/><line style="stroke:#181818;stroke-width:1.0;stroke-dasharray:2.0,2.0;" x1="5" x2="225" y1="586.1016" y2="586.1016"/><text fill="#000000" font-family="sans-serif" font-size="13" font-weight="bold" lengthAdjust="spacing" textLength="18" x="17" y="581.3594">13</text><text fill="#000000" font-family="sans-serif" font-size="13" lengthAdjust="spacing" textLength="178" x="39" y="581.3594">422: Unprocessable Content</text><line style="stroke:#000000;stroke-width:1.0;stroke-dasharray:2.0,2.0;" x1="3" x2="758" y1="595.1016" y2="595.1016"/><text fill="#000000" font-family="sans-serif" font-size="11" font-weight="bold" lengthAdjust="spacing" textLength="153" x="8" y="605.7363">[floor created successfully]</text><path d="M421,616.0566 L495,616.0566 L495,623.3672 L485,633.3672 L421,633.3672 L421,616.0566 " fill="#EEEEEE" style="stroke:#000000;stroke-width:1.5;"/><rect fill="none" height="133.9082" style="stroke:#000000;stroke-width:1.5;" width="327" x="421" y="616.0566"/><text fill="#000000" font-family="sans-serif" font-size="13" font-weight="bold" lengthAdjust="spacing" textLength="29" x="436" y="629.625">loop</text><text fill="#000000" font-family="sans-serif" font-size="11" font-weight="bold" lengthAdjust="spacing" textLength="86" x="510" y="628.6914">[for each floor]</text><polygon fill="#181818" points="580,650.6777,590,654.6777,580,658.6777,584,654.6777" style="stroke:#181818;stroke-width:1.0;"/><line style="stroke:#181818;stroke-width:1.0;" x1="467" x2="586" y1="654.6777" y2="654.6777"/><text fill="#000000" font-family="sans-serif" font-size="13" font-weight="bold" lengthAdjust="spacing" textLength="18" x="474" y="649.9355">14</text><text fill="#000000" font-family="sans-serif" font-size="13" lengthAdjust="spacing" textLength="79" x="496" y="649.9355">toDTO(floor)</text><polygon fill="#181818" points="682,679.9883,692,683.9883,682,687.9883,686,683.9883" style="stroke:#181818;stroke-width:1.0;"/><line style="stroke:#181818;stroke-width:1.0;stroke-dasharray:2.0,2.0;" x1="602" x2="688" y1="683.9883" y2="683.9883"/><text fill="#000000" font-family="sans-serif" font-size="13" font-weight="bold" lengthAdjust="spacing" textLength="18" x="609" y="679.2461">15</text><text fill="#000000" font-family="sans-serif" font-size="13" lengthAdjust="spacing" textLength="46" x="631" y="679.2461">create()</text><rect fill="#E2E2F0" height="46.9766" rx="2.5" ry="2.5" style="stroke:#181818;stroke-width:0.5;" width="44" x="694" y="662.6777"/><text fill="#000000" font-family="sans-serif" font-size="14" lengthAdjust="spacing" textLength="27" x="702.5" y="683.2129">dto:</text><text fill="#000000" font-family="sans-serif" font-size="14" lengthAdjust="spacing" textLength="30" x="701" y="699.7012">DTO</text><polygon fill="#181818" points="478,737.9648,468,741.9648,478,745.9648,474,741.9648" style="stroke:#181818;stroke-width:1.0;"/><line style="stroke:#181818;stroke-width:1.0;stroke-dasharray:2.0,2.0;" x1="472" x2="596" y1="741.9648" y2="741.9648"/><text fill="#000000" font-family="sans-serif" font-size="13" font-weight="bold" lengthAdjust="spacing" textLength="18" x="484" y="737.2227">16</text><text fill="#000000" font-family="sans-serif" font-size="13" lengthAdjust="spacing" textLength="21" x="506" y="737.2227">dto</text><polygon fill="#181818" points="369,774.2754,359,778.2754,369,782.2754,365,778.2754" style="stroke:#181818;stroke-width:1.0;"/><line style="stroke:#181818;stroke-width:1.0;stroke-dasharray:2.0,2.0;" x1="363" x2="456" y1="778.2754" y2="778.2754"/><text fill="#000000" font-family="sans-serif" font-size="13" font-weight="bold" lengthAdjust="spacing" textLength="18" x="375" y="773.5332">17</text><text fill="#000000" font-family="sans-serif" font-size="13" lengthAdjust="spacing" textLength="44" x="397" y="773.5332">dtoList</text><polygon fill="#181818" points="247,803.5859,237,807.5859,247,811.5859,243,807.5859" style="stroke:#181818;stroke-width:1.0;"/><line style="stroke:#181818;stroke-width:1.0;stroke-dasharray:2.0,2.0;" x1="241" x2="347" y1="807.5859" y2="807.5859"/><text fill="#000000" font-family="sans-serif" font-size="13" font-weight="bold" lengthAdjust="spacing" textLength="18" x="253" y="802.8438">18</text><text fill="#000000" font-family="sans-serif" font-size="13" lengthAdjust="spacing" textLength="57" x="275" y="802.8438">response</text><polygon fill="#181818" points="11,832.8965,1,836.8965,11,840.8965,7,836.8965" style="stroke:#181818;stroke-width:1.0;"/><line style="stroke:#181818;stroke-width:1.0;stroke-dasharray:2.0,2.0;" x1="5" x2="225" y1="836.8965" y2="836.8965"/><text fill="#000000" font-family="sans-serif" font-size="13" font-weight="bold" lengthAdjust="spacing" textLength="18" x="17" y="832.1543">19</text><text fill="#000000" font-family="sans-serif" font-size="13" lengthAdjust="spacing" textLength="50" x="39" y="832.1543">200: OK</text><!--SRC=[dLJ1Rjim3BthAuYSqW91Yc2dOEYXxRP3EnJOkbDtaIqc5Q1A1YK728Rz-oZPIIt7TeBfajXyfFZUeodhu6pzNY09KKaAkjILj05cFrmTS0RI0-M1UsS3EMEGKhGCP7B0JwITBfjSlojxTJV6ELh_jb_ZRyAaDpdekwogjlwxhFAO2exJ7rwUKvYV-erZvRmEZlPDz_meb0ooa1vXzj3-Qv8B8LuNYrkWDNpxyWBBejP6QRlropzQ_LscphoGPT0x6P2L03u4d15fmngs618HFxzAiICqoGBjIM1EOZK6ShAyA1XqJao93J8BJjreg-xszqvX9pSUws9xUliM61L8euVW4XmEd3By1wKe3_HEkerlLKLxP- -sh0ABs8yf78js8kdcl2aJZjr6Hh1njLKdrPCa7nOWaQCJK2DvLEu0cNzQhKvfl7vUB1A6esluPIjo9Nel2uCG9nrjo7BGy1GTcvneiEVPNPiouDqP_zeX7DL_qC5BNJpdvBIRPnqzkDfmcF3qOb-7lOLXS__7uAF9gMSe2PcQ0b-NCMrJ6xC_vSZGYfaHi1XlxK8RfNWRTrgqsV4IcoVmbPXs9Yv163cnM1I3D-7rDPTjEXxnElSxk55GjtApjgRGtH4PWNKWGsoG9psgA2uP3RxZIVjmVZW8VUMin-d9MDtShE7vSQWdCVRSeNDOsPrNQVjtlmpn3m00]--></g></svg>