<?xml version="1.0" encoding="us-ascii" standalone="no"?><svg xmlns="http://www.w3.org/2000/svg" xmlns:xlink="http://www.w3.org/1999/xlink" contentStyleType="text/css" height="1004px" preserveAspectRatio="none" style="width:937px;height:1004px;background:#FFFFFF;" version="1.1" viewBox="0 0 937 1004" width="937px" zoomAndPan="magnify"><defs/><g><rect fill="#FFFFFF" height="817.3398" style="stroke:#181818;stroke-width:1.0;" width="10" x="204" y="98.7988"/><rect fill="#FFFFFF" height="788.0293" style="stroke:#181818;stroke-width:1.0;" width="10" x="326" y="128.1094"/><rect fill="#FFFFFF" height="758.7188" style="stroke:#181818;stroke-width:1.0;" width="10" x="435" y="157.4199"/><rect fill="#FFFFFF" height="87.2871" style="stroke:#181818;stroke-width:1.0;" width="10" x="570" y="711.9199"/><rect fill="#FFFFFF" height="47.9766" style="stroke:#181818;stroke-width:1.0;" width="10" x="689" y="751.2305"/><rect fill="#FFFFFF" height="90.9316" style="stroke:#181818;stroke-width:1.0;" width="10" x="764.5" y="189.7305"/><rect fill="#FFFFFF" height="90.9316" style="stroke:#181818;stroke-width:1.0;" width="10" x="764.5" y="440.1699"/><rect fill="#FFFFFF" height="29.3105" style="stroke:#181818;stroke-width:1.0;" width="10" x="863.5" y="222.041"/><rect fill="#FFFFFF" height="29.3105" style="stroke:#181818;stroke-width:1.0;" width="10" x="863.5" y="472.4805"/><rect fill="none" height="613.4766" style="stroke:#000000;stroke-width:1.5;" width="917.5" x="3" y="295.6621"/><rect fill="none" height="356.0371" style="stroke:#000000;stroke-width:1.5;" width="733" x="3" y="546.1016"/><rect fill="none" height="133.9082" style="stroke:#000000;stroke-width:1.5;" width="327" x="399" y="673.2988"/><line style="stroke:#181818;stroke-width:0.5;stroke-dasharray:5.0,5.0;" x1="209" x2="209" y1="67.4883" y2="926.1387"/><line style="stroke:#181818;stroke-width:0.5;stroke-dasharray:5.0,5.0;" x1="331" x2="331" y1="67.4883" y2="926.1387"/><line style="stroke:#181818;stroke-width:0.5;stroke-dasharray:5.0,5.0;" x1="440" x2="440" y1="67.4883" y2="926.1387"/><line style="stroke:#181818;stroke-width:0.5;stroke-dasharray:5.0,5.0;" x1="506" x2="506" y1="67.4883" y2="926.1387"/><line style="stroke:#181818;stroke-width:0.5;stroke-dasharray:5.0,5.0;" x1="575" x2="575" y1="67.4883" y2="926.1387"/><line style="stroke:#181818;stroke-width:0.5;stroke-dasharray:5.0,5.0;" x1="694" x2="694" y1="758.9082" y2="926.1387"/><line style="stroke:#181818;stroke-width:0.5;stroke-dasharray:5.0,5.0;" x1="769" x2="769" y1="67.4883" y2="926.1387"/><line style="stroke:#181818;stroke-width:0.5;stroke-dasharray:5.0,5.0;" x1="868" x2="868" y1="67.4883" y2="926.1387"/><rect fill="#E2E2F0" height="30.4883" rx="2.5" ry="2.5" style="stroke:#181818;stroke-width:0.5;" width="54" x="182" y="36"/><text fill="#000000" font-family="sans-serif" font-size="14" lengthAdjust="spacing" textLength="40" x="189" y="56.5352">Route</text><rect fill="#E2E2F0" height="30.4883" rx="2.5" ry="2.5" style="stroke:#181818;stroke-width:0.5;" width="54" x="182" y="925.1387"/><text fill="#000000" font-family="sans-serif" font-size="14" lengthAdjust="spacing" textLength="40" x="189" y="945.6738">Route</text><rect fill="#E2E2F0" height="30.4883" rx="2.5" ry="2.5" style="stroke:#181818;stroke-width:0.5;" width="84" x="289" y="36"/><text fill="#000000" font-family="sans-serif" font-size="14" lengthAdjust="spacing" textLength="70" x="296" y="56.5352">Controller</text><rect fill="#E2E2F0" height="30.4883" rx="2.5" ry="2.5" style="stroke:#181818;stroke-width:0.5;" width="84" x="289" y="925.1387"/><text fill="#000000" font-family="sans-serif" font-size="14" lengthAdjust="spacing" textLength="70" x="296" y="945.6738">Controller</text><rect fill="#E2E2F0" height="30.4883" rx="2.5" ry="2.5" style="stroke:#181818;stroke-width:0.5;" width="62" x="409" y="36"/><text fill="#000000" font-family="sans-serif" font-size="14" lengthAdjust="spacing" textLength="48" x="416" y="56.5352">Service</text><rect fill="#E2E2F0" height="30.4883" rx="2.5" ry="2.5" style="stroke:#181818;stroke-width:0.5;" width="62" x="409" y="925.1387"/><text fill="#000000" font-family="sans-serif" font-size="14" lengthAdjust="spacing" textLength="48" x="416" y="945.6738">Service</text><rect fill="#E2E2F0" height="46.9766" rx="2.5" ry="2.5" style="stroke:#181818;stroke-width:0.5;" width="51" x="481" y="19.5117"/><text fill="#000000" font-family="sans-serif" font-size="14" lengthAdjust="spacing" textLength="37" x="488" y="40.0469">floor:</text><text fill="#000000" font-family="sans-serif" font-size="14" lengthAdjust="spacing" textLength="36" x="488.5" y="56.5352">Floor</text><rect fill="#E2E2F0" height="46.9766" rx="2.5" ry="2.5" style="stroke:#181818;stroke-width:0.5;" width="51" x="481" y="925.1387"/><text fill="#000000" font-family="sans-serif" font-size="14" lengthAdjust="spacing" textLength="37" x="488" y="945.6738">floor:</text><text fill="#000000" font-family="sans-serif" font-size="14" lengthAdjust="spacing" textLength="36" x="488.5" y="962.1621">Floor</text><rect fill="#E2E2F0" height="30.4883" rx="2.5" ry="2.5" style="stroke:#181818;stroke-width:0.5;" width="66" x="542" y="36"/><text fill="#000000" font-family="sans-serif" font-size="14" lengthAdjust="spacing" textLength="52" x="549" y="56.5352">Mapper</text><rect fill="#E2E2F0" height="30.4883" rx="2.5" ry="2.5" style="stroke:#181818;stroke-width:0.5;" width="66" x="542" y="925.1387"/><text fill="#000000" font-family="sans-serif" font-size="14" lengthAdjust="spacing" textLength="52" x="549" y="945.6738">Mapper</text><rect fill="#E2E2F0" height="46.9766" rx="2.5" ry="2.5" style="stroke:#181818;stroke-width:0.5;" width="44" x="672" y="925.1387"/><text fill="#000000" font-family="sans-serif" font-size="14" lengthAdjust="spacing" textLength="27" x="680.5" y="945.6738">dto:</text><text fill="#000000" font-family="sans-serif" font-size="14" lengthAdjust="spacing" textLength="30" x="679" y="962.1621">DTO</text><rect fill="#E2E2F0" height="30.4883" rx="2.5" ry="2.5" style="stroke:#181818;stroke-width:0.5;" width="87" x="726" y="36"/><text fill="#000000" font-family="sans-serif" font-size="14" lengthAdjust="spacing" textLength="73" x="733" y="56.5352">Repository</text><rect fill="#E2E2F0" height="30.4883" rx="2.5" ry="2.5" style="stroke:#181818;stroke-width:0.5;" width="87" x="726" y="925.1387"/><text fill="#000000" font-family="sans-serif" font-size="14" lengthAdjust="spacing" textLength="73" x="733" y="945.6738">Repository</text><text fill="#000000" font-family="sans-serif" font-size="14" lengthAdjust="spacing" textLength="63" x="834" y="64.5352">Database</text><path d="M850.5,15 C850.5,5 868.5,5 868.5,5 C868.5,5 886.5,5 886.5,15 L886.5,41 C886.5,51 868.5,51 868.5,51 C868.5,51 850.5,51 850.5,41 L850.5,15 " fill="#E2E2F0" style="stroke:#181818;stroke-width:1.5;"/><path d="M850.5,15 C850.5,25 868.5,25 868.5,25 C868.5,25 886.5,25 886.5,15 " fill="none" style="stroke:#181818;stroke-width:1.5;"/><text fill="#000000" font-family="sans-serif" font-size="14" lengthAdjust="spacing" textLength="63" x="834" y="938.6738">Database</text><path d="M850.5,951.627 C850.5,941.627 868.5,941.627 868.5,941.627 C868.5,941.627 886.5,941.627 886.5,951.627 L886.5,977.627 C886.5,987.627 868.5,987.627 868.5,987.627 C868.5,987.627 850.5,987.627 850.5,977.627 L850.5,951.627 " fill="#E2E2F0" style="stroke:#181818;stroke-width:1.5;"/><path d="M850.5,951.627 C850.5,961.627 868.5,961.627 868.5,961.627 C868.5,961.627 886.5,961.627 886.5,951.627 " fill="none" style="stroke:#181818;stroke-width:1.5;"/><rect fill="#FFFFFF" height="817.3398" style="stroke:#181818;stroke-width:1.0;" width="10" x="204" y="98.7988"/><rect fill="#FFFFFF" height="788.0293" style="stroke:#181818;stroke-width:1.0;" width="10" x="326" y="128.1094"/><rect fill="#FFFFFF" height="758.7188" style="stroke:#181818;stroke-width:1.0;" width="10" x="435" y="157.4199"/><rect fill="#FFFFFF" height="87.2871" style="stroke:#181818;stroke-width:1.0;" width="10" x="570" y="711.9199"/><rect fill="#FFFFFF" height="47.9766" style="stroke:#181818;stroke-width:1.0;" width="10" x="689" y="751.2305"/><rect fill="#FFFFFF" height="90.9316" style="stroke:#181818;stroke-width:1.0;" width="10" x="764.5" y="189.7305"/><rect fill="#FFFFFF" height="90.9316" style="stroke:#181818;stroke-width:1.0;" width="10" x="764.5" y="440.1699"/><rect fill="#FFFFFF" height="29.3105" style="stroke:#181818;stroke-width:1.0;" width="10" x="863.5" y="222.041"/><rect fill="#FFFFFF" height="29.3105" style="stroke:#181818;stroke-width:1.0;" width="10" x="863.5" y="472.4805"/><polygon fill="#181818" points="192,94.7988,202,98.7988,192,102.7988,196,98.7988" style="stroke:#181818;stroke-width:1.0;"/><line style="stroke:#181818;stroke-width:1.0;" x1="0" x2="198" y1="98.7988" y2="98.7988"/><text fill="#000000" font-family="sans-serif" font-size="13" font-weight="bold" lengthAdjust="spacing" textLength="9" x="7" y="94.0566">1</text><text fill="#000000" font-family="sans-serif" font-size="13" lengthAdjust="spacing" textLength="165" x="20" y="94.0566">GET /buildings/{id}/floors</text><polygon fill="#181818" points="314,124.1094,324,128.1094,314,132.1094,318,128.1094" style="stroke:#181818;stroke-width:1.0;"/><line style="stroke:#181818;stroke-width:1.0;" x1="214" x2="320" y1="128.1094" y2="128.1094"/><text fill="#000000" font-family="sans-serif" font-size="13" font-weight="bold" lengthAdjust="spacing" textLength="9" x="221" y="123.3672">2</text><text fill="#000000" font-family="sans-serif" font-size="13" lengthAdjust="spacing" textLength="67" x="234" y="123.3672">getFloors()</text><polygon fill="#181818" points="423,153.4199,433,157.4199,423,161.4199,427,157.4199" style="stroke:#181818;stroke-width:1.0;"/><line style="stroke:#181818;stroke-width:1.0;" x1="336" x2="429" y1="157.4199" y2="157.4199"/><text fill="#000000" font-family="sans-serif" font-size="13" font-weight="bold" lengthAdjust="spacing" textLength="9" x="343" y="152.6777">3</text><text fill="#000000" font-family="sans-serif" font-size="13" lengthAdjust="spacing" textLength="67" x="356" y="152.6777">getFloors()</text><polygon fill="#181818" points="752.5,185.7305,762.5,189.7305,752.5,193.7305,756.5,189.7305" style="stroke:#181818;stroke-width:1.0;"/><line style="stroke:#181818;stroke-width:1.0;" x1="445" x2="758.5" y1="189.7305" y2="189.7305"/><text fill="#000000" font-family="sans-serif" font-size="13" font-weight="bold" lengthAdjust="spacing" textLength="9" x="452" y="184.9883">4</text><text fill="#000000" font-family="sans-serif" font-size="13" lengthAdjust="spacing" textLength="79" x="465" y="184.9883">findByCode()</text><path d="M779,170.4199 L779,195.4199 L930,195.4199 L930,180.4199 L920,170.4199 L779,170.4199 " fill="#FEFFDD" style="stroke:#181818;stroke-width:0.5;"/><path d="M920,170.4199 L920,180.4199 L930,180.4199 L920,170.4199 " fill="#FEFFDD" style="stroke:#181818;stroke-width:0.5;"/><text fill="#000000" font-family="sans-serif" font-size="13" lengthAdjust="spacing" textLength="130" x="785" y="187.9883">tries to find building</text><polygon fill="#181818" points="851.5,218.041,861.5,222.041,851.5,226.041,855.5,222.041" style="stroke:#181818;stroke-width:1.0;"/><line style="stroke:#181818;stroke-width:1.0;" x1="774.5" x2="857.5" y1="222.041" y2="222.041"/><text fill="#000000" font-family="sans-serif" font-size="13" font-weight="bold" lengthAdjust="spacing" textLength="9" x="781.5" y="217.2988">5</text><text fill="#000000" font-family="sans-serif" font-size="13" lengthAdjust="spacing" textLength="33" x="794.5" y="217.2988">find()</text><polygon fill="#181818" points="785.5,247.3516,775.5,251.3516,785.5,255.3516,781.5,251.3516" style="stroke:#181818;stroke-width:1.0;"/><line style="stroke:#181818;stroke-width:1.0;stroke-dasharray:2.0,2.0;" x1="779.5" x2="867.5" y1="251.3516" y2="251.3516"/><text fill="#000000" font-family="sans-serif" font-size="13" font-weight="bold" lengthAdjust="spacing" textLength="9" x="791.5" y="246.6094">6</text><text fill="#000000" font-family="sans-serif" font-size="13" lengthAdjust="spacing" textLength="52" x="804.5" y="246.6094">building</text><polygon fill="#181818" points="456,276.6621,446,280.6621,456,284.6621,452,280.6621" style="stroke:#181818;stroke-width:1.0;"/><line style="stroke:#181818;stroke-width:1.0;stroke-dasharray:2.0,2.0;" x1="450" x2="768.5" y1="280.6621" y2="280.6621"/><text fill="#000000" font-family="sans-serif" font-size="13" font-weight="bold" lengthAdjust="spacing" textLength="9" x="462" y="275.9199">7</text><text fill="#000000" font-family="sans-serif" font-size="13" lengthAdjust="spacing" textLength="52" x="475" y="275.9199">building</text><path d="M3,295.6621 L65,295.6621 L65,302.9727 L55,312.9727 L3,312.9727 L3,295.6621 " fill="#EEEEEE" style="stroke:#000000;stroke-width:1.5;"/><rect fill="none" height="613.4766" style="stroke:#000000;stroke-width:1.5;" width="917.5" x="3" y="295.6621"/><text fill="#000000" font-family="sans-serif" font-size="13" font-weight="bold" lengthAdjust="spacing" textLength="17" x="18" y="309.2305">alt</text><text fill="#000000" font-family="sans-serif" font-size="11" font-weight="bold" lengthAdjust="spacing" textLength="114" x="80" y="308.2969">[building not found]</text><polygon fill="#181818" points="347,330.2832,337,334.2832,347,338.2832,343,334.2832" style="stroke:#181818;stroke-width:1.0;"/><line style="stroke:#181818;stroke-width:1.0;stroke-dasharray:2.0,2.0;" x1="341" x2="434" y1="334.2832" y2="334.2832"/><text fill="#000000" font-family="sans-serif" font-size="13" font-weight="bold" lengthAdjust="spacing" textLength="9" x="353" y="329.541">8</text><text fill="#000000" font-family="sans-serif" font-size="13" lengthAdjust="spacing" textLength="30" x="366" y="329.541">error</text><polygon fill="#181818" points="225,359.5938,215,363.5938,225,367.5938,221,363.5938" style="stroke:#181818;stroke-width:1.0;"/><line style="stroke:#181818;stroke-width:1.0;stroke-dasharray:2.0,2.0;" x1="219" x2="325" y1="363.5938" y2="363.5938"/><text fill="#000000" font-family="sans-serif" font-size="13" font-weight="bold" lengthAdjust="spacing" textLength="9" x="231" y="358.8516">9</text><text fill="#000000" font-family="sans-serif" font-size="13" lengthAdjust="spacing" textLength="62" x="244" y="358.8516">error(404)</text><polygon fill="#181818" points="11,388.9043,1,392.9043,11,396.9043,7,392.9043" style="stroke:#181818;stroke-width:1.0;"/><line style="stroke:#181818;stroke-width:1.0;stroke-dasharray:2.0,2.0;" x1="5" x2="203" y1="392.9043" y2="392.9043"/><text fill="#000000" font-family="sans-serif" font-size="13" font-weight="bold" lengthAdjust="spacing" textLength="18" x="17" y="388.1621">10</text><text fill="#000000" font-family="sans-serif" font-size="13" lengthAdjust="spacing" textLength="98" x="39" y="388.1621">404: Not Found</text><line style="stroke:#000000;stroke-width:1.0;stroke-dasharray:2.0,2.0;" x1="3" x2="920.5" y1="401.9043" y2="401.9043"/><text fill="#000000" font-family="sans-serif" font-size="11" font-weight="bold" lengthAdjust="spacing" textLength="92" x="8" y="412.5391">[building found]</text><polygon fill="#181818" points="752.5,436.1699,762.5,440.1699,752.5,444.1699,756.5,440.1699" style="stroke:#181818;stroke-width:1.0;"/><line style="stroke:#181818;stroke-width:1.0;" x1="445" x2="758.5" y1="440.1699" y2="440.1699"/><text fill="#000000" font-family="sans-serif" font-size="13" font-weight="bold" lengthAdjust="spacing" textLength="18" x="452" y="435.4277">11</text><text fill="#000000" font-family="sans-serif" font-size="13" lengthAdjust="spacing" textLength="130" x="474" y="435.4277">findByBuildingCode()</text><path d="M779,420.8594 L779,445.8594 L915,445.8594 L915,430.8594 L905,420.8594 L779,420.8594 " fill="#FEFFDD" style="stroke:#181818;stroke-width:0.5;"/><path d="M905,420.8594 L905,430.8594 L915,430.8594 L905,420.8594 " fill="#FEFFDD" style="stroke:#181818;stroke-width:0.5;"/><text fill="#000000" font-family="sans-serif" font-size="13" lengthAdjust="spacing" textLength="115" x="785" y="438.4277">tries to find floors</text><polygon fill="#181818" points="851.5,468.4805,861.5,472.4805,851.5,476.4805,855.5,472.4805" style="stroke:#181818;stroke-width:1.0;"/><line style="stroke:#181818;stroke-width:1.0;" x1="774.5" x2="857.5" y1="472.4805" y2="472.4805"/><text fill="#000000" font-family="sans-serif" font-size="13" font-weight="bold" lengthAdjust="spacing" textLength="18" x="781.5" y="467.7383">12</text><text fill="#000000" font-family="sans-serif" font-size="13" lengthAdjust="spacing" textLength="33" x="803.5" y="467.7383">find()</text><polygon fill="#181818" points="785.5,497.791,775.5,501.791,785.5,505.791,781.5,501.791" style="stroke:#181818;stroke-width:1.0;"/><line style="stroke:#181818;stroke-width:1.0;stroke-dasharray:2.0,2.0;" x1="779.5" x2="867.5" y1="501.791" y2="501.791"/><text fill="#000000" font-family="sans-serif" font-size="13" font-weight="bold" lengthAdjust="spacing" textLength="18" x="791.5" y="497.0488">13</text><text fill="#000000" font-family="sans-serif" font-size="13" lengthAdjust="spacing" textLength="37" x="813.5" y="497.0488">floors</text><polygon fill="#181818" points="456,527.1016,446,531.1016,456,535.1016,452,531.1016" style="stroke:#181818;stroke-width:1.0;"/><line style="stroke:#181818;stroke-width:1.0;stroke-dasharray:2.0,2.0;" x1="450" x2="768.5" y1="531.1016" y2="531.1016"/><text fill="#000000" font-family="sans-serif" font-size="13" font-weight="bold" lengthAdjust="spacing" textLength="18" x="462" y="526.3594">14</text><text fill="#000000" font-family="sans-serif" font-size="13" lengthAdjust="spacing" textLength="37" x="484" y="526.3594">floors</text><path d="M3,546.1016 L65,546.1016 L65,553.4121 L55,563.4121 L3,563.4121 L3,546.1016 " fill="#EEEEEE" style="stroke:#000000;stroke-width:1.5;"/><rect fill="none" height="356.0371" style="stroke:#000000;stroke-width:1.5;" width="733" x="3" y="546.1016"/><text fill="#000000" font-family="sans-serif" font-size="13" font-weight="bold" lengthAdjust="spacing" textLength="17" x="18" y="559.6699">alt</text><text fill="#000000" font-family="sans-serif" font-size="11" font-weight="bold" lengthAdjust="spacing" textLength="101" x="80" y="558.7363">[floors not found]</text><polygon fill="#181818" points="347,580.7227,337,584.7227,347,588.7227,343,584.7227" style="stroke:#181818;stroke-width:1.0;"/><line style="stroke:#181818;stroke-width:1.0;stroke-dasharray:2.0,2.0;" x1="341" x2="434" y1="584.7227" y2="584.7227"/><text fill="#000000" font-family="sans-serif" font-size="13" font-weight="bold" lengthAdjust="spacing" textLength="18" x="353" y="579.9805">15</text><text fill="#000000" font-family="sans-serif" font-size="13" lengthAdjust="spacing" textLength="30" x="375" y="579.9805">error</text><polygon fill="#181818" points="225,610.0332,215,614.0332,225,618.0332,221,614.0332" style="stroke:#181818;stroke-width:1.0;"/><line style="stroke:#181818;stroke-width:1.0;stroke-dasharray:2.0,2.0;" x1="219" x2="325" y1="614.0332" y2="614.0332"/><text fill="#000000" font-family="sans-serif" font-size="13" font-weight="bold" lengthAdjust="spacing" textLength="18" x="231" y="609.291">16</text><text fill="#000000" font-family="sans-serif" font-size="13" lengthAdjust="spacing" textLength="66" x="253" y="609.291">error (404)</text><polygon fill="#181818" points="11,639.3438,1,643.3438,11,647.3438,7,643.3438" style="stroke:#181818;stroke-width:1.0;"/><line style="stroke:#181818;stroke-width:1.0;stroke-dasharray:2.0,2.0;" x1="5" x2="203" y1="643.3438" y2="643.3438"/><text fill="#000000" font-family="sans-serif" font-size="13" font-weight="bold" lengthAdjust="spacing" textLength="18" x="17" y="638.6016">17</text><text fill="#000000" font-family="sans-serif" font-size="13" lengthAdjust="spacing" textLength="98" x="39" y="638.6016">404: Not Found</text><line style="stroke:#000000;stroke-width:1.0;stroke-dasharray:2.0,2.0;" x1="3" x2="736" y1="652.3438" y2="652.3438"/><text fill="#000000" font-family="sans-serif" font-size="11" font-weight="bold" lengthAdjust="spacing" textLength="79" x="8" y="662.9785">[floors found]</text><path d="M399,673.2988 L473,673.2988 L473,680.6094 L463,690.6094 L399,690.6094 L399,673.2988 " fill="#EEEEEE" style="stroke:#000000;stroke-width:1.5;"/><rect fill="none" height="133.9082" style="stroke:#000000;stroke-width:1.5;" width="327" x="399" y="673.2988"/><text fill="#000000" font-family="sans-serif" font-size="13" font-weight="bold" lengthAdjust="spacing" textLength="29" x="414" y="686.8672">loop</text><text fill="#000000" font-family="sans-serif" font-size="11" font-weight="bold" lengthAdjust="spacing" textLength="86" x="488" y="685.9336">[for each floor]</text><polygon fill="#181818" points="558,707.9199,568,711.9199,558,715.9199,562,711.9199" style="stroke:#181818;stroke-width:1.0;"/><line style="stroke:#181818;stroke-width:1.0;" x1="445" x2="564" y1="711.9199" y2="711.9199"/><text fill="#000000" font-family="sans-serif" font-size="13" font-weight="bold" lengthAdjust="spacing" textLength="18" x="452" y="707.1777">18</text><text fill="#000000" font-family="sans-serif" font-size="13" lengthAdjust="spacing" textLength="79" x="474" y="707.1777">toDTO(floor)</text><polygon fill="#181818" points="660,737.2305,670,741.2305,660,745.2305,664,741.2305" style="stroke:#181818;stroke-width:1.0;"/><line style="stroke:#181818;stroke-width:1.0;stroke-dasharray:2.0,2.0;" x1="580" x2="666" y1="741.2305" y2="741.2305"/><text fill="#000000" font-family="sans-serif" font-size="13" font-weight="bold" lengthAdjust="spacing" textLength="18" x="587" y="736.4883">19</text><text fill="#000000" font-family="sans-serif" font-size="13" lengthAdjust="spacing" textLength="46" x="609" y="736.4883">create()</text><rect fill="#E2E2F0" height="46.9766" rx="2.5" ry="2.5" style="stroke:#181818;stroke-width:0.5;" width="44" x="672" y="719.9199"/><text fill="#000000" font-family="sans-serif" font-size="14" lengthAdjust="spacing" textLength="27" x="680.5" y="740.4551">dto:</text><text fill="#000000" font-family="sans-serif" font-size="14" lengthAdjust="spacing" textLength="30" x="679" y="756.9434">DTO</text><polygon fill="#181818" points="456,795.207,446,799.207,456,803.207,452,799.207" style="stroke:#181818;stroke-width:1.0;"/><line style="stroke:#181818;stroke-width:1.0;stroke-dasharray:2.0,2.0;" x1="450" x2="574" y1="799.207" y2="799.207"/><text fill="#000000" font-family="sans-serif" font-size="13" font-weight="bold" lengthAdjust="spacing" textLength="18" x="462" y="794.4648">20</text><text fill="#000000" font-family="sans-serif" font-size="13" lengthAdjust="spacing" textLength="21" x="484" y="794.4648">dto</text><polygon fill="#181818" points="347,831.5176,337,835.5176,347,839.5176,343,835.5176" style="stroke:#181818;stroke-width:1.0;"/><line style="stroke:#181818;stroke-width:1.0;stroke-dasharray:2.0,2.0;" x1="341" x2="434" y1="835.5176" y2="835.5176"/><text fill="#000000" font-family="sans-serif" font-size="13" font-weight="bold" lengthAdjust="spacing" textLength="18" x="353" y="830.7754">21</text><text fill="#000000" font-family="sans-serif" font-size="13" lengthAdjust="spacing" textLength="44" x="375" y="830.7754">dtoList</text><polygon fill="#181818" points="225,860.8281,215,864.8281,225,868.8281,221,864.8281" style="stroke:#181818;stroke-width:1.0;"/><line style="stroke:#181818;stroke-width:1.0;stroke-dasharray:2.0,2.0;" x1="219" x2="325" y1="864.8281" y2="864.8281"/><text fill="#000000" font-family="sans-serif" font-size="13" font-weight="bold" lengthAdjust="spacing" textLength="18" x="231" y="860.0859">22</text><text fill="#000000" font-family="sans-serif" font-size="13" lengthAdjust="spacing" textLength="57" x="253" y="860.0859">response</text><polygon fill="#181818" points="11,890.1387,1,894.1387,11,898.1387,7,894.1387" style="stroke:#181818;stroke-width:1.0;"/><line style="stroke:#181818;stroke-width:1.0;stroke-dasharray:2.0,2.0;" x1="5" x2="203" y1="894.1387" y2="894.1387"/><text fill="#000000" font-family="sans-serif" font-size="13" font-weight="bold" lengthAdjust="spacing" textLength="18" x="17" y="889.3965">23</text><text fill="#000000" font-family="sans-serif" font-size="13" lengthAdjust="spacing" textLength="50" x="39" y="889.3965">200: OK</text><!--SRC=[ZLN1Rjim3BthAuYSqW91Wg8dO-YXxRf3jnNOUkikigsa0bp9eEG0nR1_7oKxZcnBZdL97Bv7Ff8lCc-iLir7Bf2ncgELXQovih3wfHihLi0Du33me9L5NLK2VRImM0q1lmKUPT5opR4OvTrNMcFsHpsvJu_nlmn1FtXTT_a_U3sCbLOJ_V7rnOVfQInSrDf8g_6pLK-FhEIMvzm8M3rstrfopjZRvWumWszVNs6RDx8gfJgOxLzP_jjwOORnmieZju860NGGYE6wXWmEmle-pFhAntgedmfqnuE9HCE8S0OyDoy8ZgCuWTG4KVTIbVUV3xeK0TSTfPqyUNYtXB8eXG6hFHnEFGtmvvRST61qV3MgMkPTpL6rGGQQ8KGESJTduL4H7YRc4hL2-ib5imGPV3F3FYlRizoGOAyRLKxg-2cVjoeGDKv0xHPTJoV8-dPtEvtCsvVDncCeci5FAleqAIegyc8lR4RKQFNt7ILYWGiswBoSN6FK24lDiCGGKrCa95ssHSGQYLopvZWPfENEs6EnHU8sWRXFbdgbzqkdizKuWL2mfXW2jVpUtQd9HkxSjUeyekaUNNlm5PjVgxk7KtjroLpBT1bVNrFQ0WLH4aOPciNg92ZCt6vv3XrQ9W4B8B5k1FrDt1JP4WDGZU_IsCiMG65ghOoOt__DRfV1otDC4qiz1-sSNXl1J_uD5FgV_GS0]--></g></svg>