<?xml version="1.0" encoding="us-ascii" standalone="no"?><svg xmlns="http://www.w3.org/2000/svg" xmlns:xlink="http://www.w3.org/1999/xlink" contentStyleType="text/css" height="390px" preserveAspectRatio="none" style="width:548px;height:390px;background:#FFFFFF;" version="1.1" viewBox="0 0 548 390" width="548px" zoomAndPan="magnify"><defs/><g><rect fill="#FFFFFF" height="208.1289" style="stroke:#181818;stroke-width:1.0;" width="10" x="78" y="91.4883"/><rect fill="#FFFFFF" height="29.3105" style="stroke:#181818;stroke-width:1.0;" width="10" x="447" y="128.1094"/><rect fill="#FFFFFF" height="112.8867" style="stroke:#181818;stroke-width:1.0;" width="10" x="447" y="186.7305"/><rect fill="none" height="90.8867" style="stroke:#000000;stroke-width:1.5;" width="531" x="10" y="201.7305"/><line style="stroke:#181818;stroke-width:0.5;stroke-dasharray:5.0,5.0;" x1="83" x2="83" y1="81.4883" y2="309.6172"/><line style="stroke:#181818;stroke-width:0.5;stroke-dasharray:5.0,5.0;" x1="452" x2="452" y1="81.4883" y2="309.6172"/><text fill="#000000" font-family="sans-serif" font-size="14" lengthAdjust="spacing" textLength="120" x="20" y="78.5352">Campus Manager</text><ellipse cx="83" cy="13.5" fill="#E2E2F0" rx="8" ry="8" style="stroke:#181818;stroke-width:0.5;"/><path d="M83,21.5 L83,48.5 M70,29.5 L96,29.5 M83,48.5 L70,63.5 M83,48.5 L96,63.5 " fill="none" style="stroke:#181818;stroke-width:0.5;"/><text fill="#000000" font-family="sans-serif" font-size="14" lengthAdjust="spacing" textLength="120" x="20" y="322.1523">Campus Manager</text><ellipse cx="83" cy="333.6055" fill="#E2E2F0" rx="8" ry="8" style="stroke:#181818;stroke-width:0.5;"/><path d="M83,341.6055 L83,368.6055 M70,349.6055 L96,349.6055 M83,368.6055 L70,383.6055 M83,368.6055 L96,383.6055 " fill="none" style="stroke:#181818;stroke-width:0.5;"/><rect fill="#E2E2F0" height="46.9766" rx="2.5" ry="2.5" style="stroke:#181818;stroke-width:0.5;" width="158" x="373" y="33.5117"/><text fill="#000000" font-family="sans-serif" font-size="14" lengthAdjust="spacing" textLength="61" x="421.5" y="54.0469">&#171;system&#187;</text><text fill="#000000" font-family="sans-serif" font-size="14" lengthAdjust="spacing" textLength="140" x="384" y="70.5352">System RobDroneGo</text><rect fill="#E2E2F0" height="46.9766" rx="2.5" ry="2.5" style="stroke:#181818;stroke-width:0.5;" width="158" x="373" y="308.6172"/><text fill="#000000" font-family="sans-serif" font-size="14" lengthAdjust="spacing" textLength="61" x="421.5" y="329.1523">&#171;system&#187;</text><text fill="#000000" font-family="sans-serif" font-size="14" lengthAdjust="spacing" textLength="140" x="384" y="345.6406">System RobDroneGo</text><rect fill="#FFFFFF" height="208.1289" style="stroke:#181818;stroke-width:1.0;" width="10" x="78" y="91.4883"/><rect fill="#FFFFFF" height="29.3105" style="stroke:#181818;stroke-width:1.0;" width="10" x="447" y="128.1094"/><rect fill="#FFFFFF" height="112.8867" style="stroke:#181818;stroke-width:1.0;" width="10" x="447" y="186.7305"/><polygon fill="#181818" points="435,124.1094,445,128.1094,435,132.1094,439,128.1094" style="stroke:#181818;stroke-width:1.0;"/><line style="stroke:#181818;stroke-width:1.0;" x1="88" x2="441" y1="128.1094" y2="128.1094"/><text fill="#000000" font-family="sans-serif" font-size="13" font-weight="bold" lengthAdjust="spacing" textLength="9" x="95" y="115.7119">1</text><text fill="#000000" font-family="sans-serif" font-size="13" lengthAdjust="spacing" textLength="272" x="108" y="108.0566">wants to list buildings between a minimum</text><text fill="#000000" font-family="sans-serif" font-size="13" lengthAdjust="spacing" textLength="200" x="108" y="123.3672">and maximum number of floors</text><polygon fill="#181818" points="99,153.4199,89,157.4199,99,161.4199,95,157.4199" style="stroke:#181818;stroke-width:1.0;"/><line style="stroke:#181818;stroke-width:1.0;stroke-dasharray:2.0,2.0;" x1="93" x2="451" y1="157.4199" y2="157.4199"/><text fill="#000000" font-family="sans-serif" font-size="13" font-weight="bold" lengthAdjust="spacing" textLength="9" x="105" y="152.6777">2</text><text fill="#000000" font-family="sans-serif" font-size="13" lengthAdjust="spacing" textLength="322" x="118" y="152.6777">requests minimum and maximum number of floors</text><polygon fill="#181818" points="435,182.7305,445,186.7305,435,190.7305,439,186.7305" style="stroke:#181818;stroke-width:1.0;"/><line style="stroke:#181818;stroke-width:1.0;" x1="88" x2="441" y1="186.7305" y2="186.7305"/><text fill="#000000" font-family="sans-serif" font-size="13" font-weight="bold" lengthAdjust="spacing" textLength="9" x="95" y="181.9883">3</text><text fill="#000000" font-family="sans-serif" font-size="13" lengthAdjust="spacing" textLength="322" x="108" y="181.9883">provides minimum and maximum number of floors</text><path d="M10,201.7305 L72,201.7305 L72,209.041 L62,219.041 L10,219.041 L10,201.7305 " fill="#EEEEEE" style="stroke:#000000;stroke-width:1.5;"/><rect fill="none" height="90.8867" style="stroke:#000000;stroke-width:1.5;" width="531" x="10" y="201.7305"/><text fill="#000000" font-family="sans-serif" font-size="13" font-weight="bold" lengthAdjust="spacing" textLength="17" x="25" y="215.2988">alt</text><text fill="#000000" font-family="sans-serif" font-size="11" font-weight="bold" lengthAdjust="spacing" textLength="51" x="87" y="214.3652">[success]</text><polygon fill="#181818" points="99,236.3516,89,240.3516,99,244.3516,95,240.3516" style="stroke:#181818;stroke-width:1.0;"/><line style="stroke:#181818;stroke-width:1.0;stroke-dasharray:2.0,2.0;" x1="93" x2="446" y1="240.3516" y2="240.3516"/><text fill="#000000" font-family="sans-serif" font-size="13" font-weight="bold" lengthAdjust="spacing" textLength="9" x="105" y="235.6094">4</text><text fill="#000000" font-family="sans-serif" font-size="13" lengthAdjust="spacing" textLength="90" x="118" y="235.6094">lists buildings</text><line style="stroke:#000000;stroke-width:1.0;stroke-dasharray:2.0,2.0;" x1="10" x2="541" y1="249.3516" y2="249.3516"/><text fill="#000000" font-family="sans-serif" font-size="11" font-weight="bold" lengthAdjust="spacing" textLength="128" x="15" y="259.9863">[building(s) not found]</text><polygon fill="#181818" points="99,280.6172,89,284.6172,99,288.6172,95,284.6172" style="stroke:#181818;stroke-width:1.0;"/><line style="stroke:#181818;stroke-width:1.0;stroke-dasharray:2.0,2.0;" x1="93" x2="446" y1="284.6172" y2="284.6172"/><text fill="#000000" font-family="sans-serif" font-size="13" font-weight="bold" lengthAdjust="spacing" textLength="9" x="105" y="279.875">5</text><text fill="#000000" font-family="sans-serif" font-size="13" lengthAdjust="spacing" textLength="164" x="118" y="279.875">alerts buildings not found</text><!--SRC=[bP6nJWCn38RtFiMlcs3e2rJLBI0niS3QnNVdgo9Tx2DEslBs9E5KIgiAuSLnR7-_dL2AAibt75OhwgC6D4_avsHu9Q4zXmPaI9RJCuNeUZUJH3JRhNrQPD-sEy5xFU9Dk-UWmYzQct91PRe3HQu8PCiUwxOaiS4nimnHCJcBw9AR1YTxGyVno2mWU2VE9xyJaW6UJYN0zy3G4UEa6go2pqf55uiLcNMMAweR1Fv8R5bneU9FwC2_iBSRp44FRk1_86_cf2d2Kj-ptPkxl8xzF4-juiduVFLWZn2D63N9S0T24uTBobK3B_vguukm_E0N]--></g></svg>