<?xml version="1.0" encoding="us-ascii" standalone="no"?><svg xmlns="http://www.w3.org/2000/svg" xmlns:xlink="http://www.w3.org/1999/xlink" contentStyleType="text/css" height="837px" preserveAspectRatio="none" style="width:695px;height:837px;background:#FFFFFF;" version="1.1" viewBox="0 0 695 837" width="695px" zoomAndPan="magnify"><defs/><g><rect fill="#FFFFFF" height="632.7422" style="stroke:#181818;stroke-width:1.0;" width="10" x="76.5" y="91.4883"/><rect fill="#FFFFFF" height="191.8184" style="stroke:#181818;stroke-width:1.0;" width="10" x="275.5" y="112.7988"/><rect fill="#FFFFFF" height="139.8633" style="stroke:#181818;stroke-width:1.0;" width="10" x="275.5" y="333.9277"/><rect fill="#FFFFFF" height="221.1289" style="stroke:#181818;stroke-width:1.0;" width="10" x="275.5" y="503.1016"/><rect fill="#FFFFFF" height="130.1973" style="stroke:#181818;stroke-width:1.0;" width="10" x="429.5" y="145.1094"/><rect fill="#FFFFFF" height="55.2764" style="stroke:#181818;stroke-width:1.0;" width="10" x="429.5" y="363.2383"/><rect fill="#FFFFFF" height="191.8184" style="stroke:#181818;stroke-width:1.0;" width="10" x="429.5" y="532.4121"/><rect fill="none" height="576.1211" style="stroke:#000000;stroke-width:1.5;" width="663.5" x="10" y="163.1094"/><rect fill="none" height="149.5078" style="stroke:#000000;stroke-width:1.5;" width="442.5" x="20" y="582.7227"/><line style="stroke:#181818;stroke-width:0.5;stroke-dasharray:5.0,5.0;" x1="81" x2="81" y1="81.4883" y2="756.2305"/><line style="stroke:#181818;stroke-width:0.5;stroke-dasharray:5.0,5.0;" x1="280.5" x2="280.5" y1="81.4883" y2="756.2305"/><line style="stroke:#181818;stroke-width:0.5;stroke-dasharray:5.0,5.0;" x1="434.5" x2="434.5" y1="81.4883" y2="756.2305"/><text fill="#000000" font-family="sans-serif" font-size="14" lengthAdjust="spacing" textLength="97" x="30" y="78.5352">Fleet Manager</text><ellipse cx="81.5" cy="13.5" fill="#E2E2F0" rx="8" ry="8" style="stroke:#181818;stroke-width:0.5;"/><path d="M81.5,21.5 L81.5,48.5 M68.5,29.5 L94.5,29.5 M81.5,48.5 L68.5,63.5 M81.5,48.5 L94.5,63.5 " fill="none" style="stroke:#181818;stroke-width:0.5;"/><text fill="#000000" font-family="sans-serif" font-size="14" lengthAdjust="spacing" textLength="97" x="30" y="768.7656">Fleet Manager</text><ellipse cx="81.5" cy="780.2188" fill="#E2E2F0" rx="8" ry="8" style="stroke:#181818;stroke-width:0.5;"/><path d="M81.5,788.2188 L81.5,815.2188 M68.5,796.2188 L94.5,796.2188 M81.5,815.2188 L68.5,830.2188 M81.5,815.2188 L94.5,830.2188 " fill="none" style="stroke:#181818;stroke-width:0.5;"/><rect fill="#E2E2F0" height="30.4883" rx="2.5" ry="2.5" style="stroke:#181818;stroke-width:0.5;" width="30" x="265.5" y="50"/><text fill="#000000" font-family="sans-serif" font-size="14" lengthAdjust="spacing" textLength="16" x="272.5" y="70.5352">FE</text><rect fill="#E2E2F0" height="30.4883" rx="2.5" ry="2.5" style="stroke:#181818;stroke-width:0.5;" width="30" x="265.5" y="755.2305"/><text fill="#000000" font-family="sans-serif" font-size="14" lengthAdjust="spacing" textLength="16" x="272.5" y="775.7656">FE</text><rect fill="#E2E2F0" height="30.4883" rx="2.5" ry="2.5" style="stroke:#181818;stroke-width:0.5;" width="36" x="416.5" y="50"/><text fill="#000000" font-family="sans-serif" font-size="14" lengthAdjust="spacing" textLength="22" x="423.5" y="70.5352">MD</text><rect fill="#E2E2F0" height="30.4883" rx="2.5" ry="2.5" style="stroke:#181818;stroke-width:0.5;" width="36" x="416.5" y="755.2305"/><text fill="#000000" font-family="sans-serif" font-size="14" lengthAdjust="spacing" textLength="22" x="423.5" y="775.7656">MD</text><rect fill="#FFFFFF" height="632.7422" style="stroke:#181818;stroke-width:1.0;" width="10" x="76.5" y="91.4883"/><rect fill="#FFFFFF" height="191.8184" style="stroke:#181818;stroke-width:1.0;" width="10" x="275.5" y="112.7988"/><rect fill="#FFFFFF" height="139.8633" style="stroke:#181818;stroke-width:1.0;" width="10" x="275.5" y="333.9277"/><rect fill="#FFFFFF" height="221.1289" style="stroke:#181818;stroke-width:1.0;" width="10" x="275.5" y="503.1016"/><rect fill="#FFFFFF" height="130.1973" style="stroke:#181818;stroke-width:1.0;" width="10" x="429.5" y="145.1094"/><rect fill="#FFFFFF" height="55.2764" style="stroke:#181818;stroke-width:1.0;" width="10" x="429.5" y="363.2383"/><rect fill="#FFFFFF" height="191.8184" style="stroke:#181818;stroke-width:1.0;" width="10" x="429.5" y="532.4121"/><polygon fill="#181818" points="263.5,108.7988,273.5,112.7988,263.5,116.7988,267.5,112.7988" style="stroke:#181818;stroke-width:1.0;"/><line style="stroke:#181818;stroke-width:1.0;" x1="86.5" x2="269.5" y1="112.7988" y2="112.7988"/><text fill="#000000" font-family="sans-serif" font-size="13" font-weight="bold" lengthAdjust="spacing" textLength="9" x="93.5" y="108.0566">1</text><text fill="#000000" font-family="sans-serif" font-size="13" lengthAdjust="spacing" textLength="134" x="106.5" y="108.0566">wants to create robot</text><polygon fill="#181818" points="417.5,141.1094,427.5,145.1094,417.5,149.1094,421.5,145.1094" style="stroke:#181818;stroke-width:1.0;"/><line style="stroke:#181818;stroke-width:1.0;" x1="285.5" x2="423.5" y1="145.1094" y2="145.1094"/><text fill="#000000" font-family="sans-serif" font-size="13" font-weight="bold" lengthAdjust="spacing" textLength="9" x="292.5" y="140.3672">2</text><text fill="#000000" font-family="sans-serif" font-size="13" lengthAdjust="spacing" textLength="103" x="305.5" y="140.3672">GET /robottypes</text><path d="M444,125.7988 L444,150.7988 L688,150.7988 L688,135.7988 L678,125.7988 L444,125.7988 " fill="#FEFFDD" style="stroke:#181818;stroke-width:0.5;"/><path d="M678,125.7988 L678,135.7988 L688,135.7988 L678,125.7988 " fill="#FEFFDD" style="stroke:#181818;stroke-width:0.5;"/><text fill="#000000" font-family="sans-serif" font-size="13" lengthAdjust="spacing" textLength="223" x="450" y="143.3672">see list-robotTypes documentation</text><path d="M10,163.1094 L72,163.1094 L72,170.4199 L62,180.4199 L10,180.4199 L10,163.1094 " fill="#EEEEEE" style="stroke:#000000;stroke-width:1.5;"/><rect fill="none" height="576.1211" style="stroke:#000000;stroke-width:1.5;" width="663.5" x="10" y="163.1094"/><text fill="#000000" font-family="sans-serif" font-size="13" font-weight="bold" lengthAdjust="spacing" textLength="17" x="25" y="176.6777">alt</text><text fill="#000000" font-family="sans-serif" font-size="11" font-weight="bold" lengthAdjust="spacing" textLength="138" x="87" y="175.7441">[robot type(s) not found]</text><polygon fill="#181818" points="296.5,197.7305,286.5,201.7305,296.5,205.7305,292.5,201.7305" style="stroke:#181818;stroke-width:1.0;"/><line style="stroke:#181818;stroke-width:1.0;stroke-dasharray:2.0,2.0;" x1="290.5" x2="428.5" y1="201.7305" y2="201.7305"/><text fill="#000000" font-family="sans-serif" font-size="13" font-weight="bold" lengthAdjust="spacing" textLength="9" x="302.5" y="196.9883">3</text><text fill="#000000" font-family="sans-serif" font-size="13" lengthAdjust="spacing" textLength="62" x="315.5" y="196.9883">404: error</text><polygon fill="#181818" points="97.5,227.041,87.5,231.041,97.5,235.041,93.5,231.041" style="stroke:#181818;stroke-width:1.0;"/><line style="stroke:#181818;stroke-width:1.0;stroke-dasharray:2.0,2.0;" x1="91.5" x2="274.5" y1="231.041" y2="231.041"/><text fill="#000000" font-family="sans-serif" font-size="13" font-weight="bold" lengthAdjust="spacing" textLength="9" x="103.5" y="226.2988">4</text><text fill="#000000" font-family="sans-serif" font-size="13" lengthAdjust="spacing" textLength="83" x="116.5" y="226.2988">informs error</text><line style="stroke:#000000;stroke-width:1.0;stroke-dasharray:2.0,2.0;" x1="10" x2="673.5" y1="240.041" y2="240.041"/><text fill="#000000" font-family="sans-serif" font-size="11" font-weight="bold" lengthAdjust="spacing" textLength="116" x="15" y="250.6758">[robot type(s) found]</text><polygon fill="#181818" points="296.5,271.3066,286.5,275.3066,296.5,279.3066,292.5,275.3066" style="stroke:#181818;stroke-width:1.0;"/><line style="stroke:#181818;stroke-width:1.0;stroke-dasharray:2.0,2.0;" x1="290.5" x2="433.5" y1="275.3066" y2="275.3066"/><text fill="#000000" font-family="sans-serif" font-size="13" font-weight="bold" lengthAdjust="spacing" textLength="9" x="302.5" y="270.5645">5</text><text fill="#000000" font-family="sans-serif" font-size="13" lengthAdjust="spacing" textLength="107" x="315.5" y="270.5645">200 : robotTypes</text><polygon fill="#181818" points="97.5,300.6172,87.5,304.6172,97.5,308.6172,93.5,304.6172" style="stroke:#181818;stroke-width:1.0;"/><line style="stroke:#181818;stroke-width:1.0;stroke-dasharray:2.0,2.0;" x1="91.5" x2="279.5" y1="304.6172" y2="304.6172"/><text fill="#000000" font-family="sans-serif" font-size="13" font-weight="bold" lengthAdjust="spacing" textLength="9" x="103.5" y="299.875">6</text><text fill="#000000" font-family="sans-serif" font-size="13" lengthAdjust="spacing" textLength="123" x="116.5" y="299.875">requests robot type</text><polygon fill="#181818" points="263.5,329.9277,273.5,333.9277,263.5,337.9277,267.5,333.9277" style="stroke:#181818;stroke-width:1.0;"/><line style="stroke:#181818;stroke-width:1.0;" x1="86.5" x2="269.5" y1="333.9277" y2="333.9277"/><text fill="#000000" font-family="sans-serif" font-size="13" font-weight="bold" lengthAdjust="spacing" textLength="9" x="93.5" y="329.1855">7</text><text fill="#000000" font-family="sans-serif" font-size="13" lengthAdjust="spacing" textLength="123" x="106.5" y="329.1855">provides robot type</text><polygon fill="#181818" points="417.5,359.2383,427.5,363.2383,417.5,367.2383,421.5,363.2383" style="stroke:#181818;stroke-width:1.0;"/><line style="stroke:#181818;stroke-width:1.0;" x1="285.5" x2="423.5" y1="363.2383" y2="363.2383"/><text fill="#000000" font-family="sans-serif" font-size="13" font-weight="bold" lengthAdjust="spacing" textLength="9" x="292.5" y="358.4961">8</text><text fill="#000000" font-family="sans-serif" font-size="13" lengthAdjust="spacing" textLength="76" x="305.5" y="358.4961">GET /robots</text><polygon fill="#181818" points="296.5,414.5146,286.5,418.5146,296.5,422.5146,292.5,418.5146" style="stroke:#181818;stroke-width:1.0;"/><line style="stroke:#181818;stroke-width:1.0;stroke-dasharray:2.0,2.0;" x1="290.5" x2="433.5" y1="418.5146" y2="418.5146"/><text fill="#000000" font-family="sans-serif" font-size="13" font-weight="bold" lengthAdjust="spacing" textLength="9" x="302.5" y="413.7725">9</text><text fill="#000000" font-family="sans-serif" font-size="13" lengthAdjust="spacing" textLength="41" x="315.5" y="413.7725">robots</text><path d="M444,376.2383 L444,447.2383 L658,447.2383 L658,386.2383 L648,376.2383 L444,376.2383 " fill="#FEFFDD" style="stroke:#181818;stroke-width:0.5;"/><path d="M648,376.2383 L648,386.2383 L658,386.2383 L648,376.2383 " fill="#FEFFDD" style="stroke:#181818;stroke-width:0.5;"/><text fill="#000000" font-family="sans-serif" font-size="13" lengthAdjust="spacing" textLength="167" x="450" y="393.8066">see us380 documentation,</text><text fill="#000000" font-family="sans-serif" font-size="13" lengthAdjust="spacing" textLength="4" x="450" y="409.1172">&#160;</text><text fill="#000000" font-family="sans-serif" font-size="13" lengthAdjust="spacing" textLength="193" x="450" y="424.4277">in this case, if 404 is returned,</text><text fill="#000000" font-family="sans-serif" font-size="13" lengthAdjust="spacing" textLength="172" x="450" y="439.7383">robots will be an empty list</text><polygon fill="#181818" points="97.5,469.791,87.5,473.791,97.5,477.791,93.5,473.791" style="stroke:#181818;stroke-width:1.0;"/><line style="stroke:#181818;stroke-width:1.0;stroke-dasharray:2.0,2.0;" x1="91.5" x2="279.5" y1="473.791" y2="473.791"/><text fill="#000000" font-family="sans-serif" font-size="13" font-weight="bold" lengthAdjust="spacing" textLength="18" x="103.5" y="469.0488">10</text><text fill="#000000" font-family="sans-serif" font-size="13" lengthAdjust="spacing" textLength="85" x="125.5" y="469.0488">requests data</text><polygon fill="#181818" points="263.5,499.1016,273.5,503.1016,263.5,507.1016,267.5,503.1016" style="stroke:#181818;stroke-width:1.0;"/><line style="stroke:#181818;stroke-width:1.0;" x1="86.5" x2="269.5" y1="503.1016" y2="503.1016"/><text fill="#000000" font-family="sans-serif" font-size="13" font-weight="bold" lengthAdjust="spacing" textLength="18" x="93.5" y="498.3594">11</text><text fill="#000000" font-family="sans-serif" font-size="13" lengthAdjust="spacing" textLength="85" x="115.5" y="498.3594">provides data</text><polygon fill="#181818" points="417.5,528.4121,427.5,532.4121,417.5,536.4121,421.5,532.4121" style="stroke:#181818;stroke-width:1.0;"/><line style="stroke:#181818;stroke-width:1.0;" x1="285.5" x2="423.5" y1="532.4121" y2="532.4121"/><text fill="#000000" font-family="sans-serif" font-size="13" font-weight="bold" lengthAdjust="spacing" textLength="18" x="292.5" y="527.6699">12</text><text fill="#000000" font-family="sans-serif" font-size="13" lengthAdjust="spacing" textLength="84" x="314.5" y="527.6699">POST /robots</text><path d="M444,545.4121 L444,570.4121 L628,570.4121 L628,555.4121 L618,545.4121 L444,545.4121 " fill="#FEFFDD" style="stroke:#181818;stroke-width:0.5;"/><path d="M618,545.4121 L618,555.4121 L628,555.4121 L618,545.4121 " fill="#FEFFDD" style="stroke:#181818;stroke-width:0.5;"/><text fill="#000000" font-family="sans-serif" font-size="13" lengthAdjust="spacing" textLength="163" x="450" y="562.9805">see us360 documentation</text><path d="M20,582.7227 L82,582.7227 L82,590.0332 L72,600.0332 L20,600.0332 L20,582.7227 " fill="#EEEEEE" style="stroke:#000000;stroke-width:1.5;"/><rect fill="none" height="149.5078" style="stroke:#000000;stroke-width:1.5;" width="442.5" x="20" y="582.7227"/><text fill="#000000" font-family="sans-serif" font-size="13" font-weight="bold" lengthAdjust="spacing" textLength="17" x="35" y="596.291">alt</text><text fill="#000000" font-family="sans-serif" font-size="11" font-weight="bold" lengthAdjust="spacing" textLength="128" x="97" y="595.3574">[bad robot parameters]</text><polygon fill="#181818" points="296.5,617.3438,286.5,621.3438,296.5,625.3438,292.5,621.3438" style="stroke:#181818;stroke-width:1.0;"/><line style="stroke:#181818;stroke-width:1.0;stroke-dasharray:2.0,2.0;" x1="290.5" x2="428.5" y1="621.3438" y2="621.3438"/><text fill="#000000" font-family="sans-serif" font-size="13" font-weight="bold" lengthAdjust="spacing" textLength="18" x="302.5" y="616.6016">13</text><text fill="#000000" font-family="sans-serif" font-size="13" lengthAdjust="spacing" textLength="62" x="324.5" y="616.6016">422: error</text><polygon fill="#181818" points="97.5,646.6543,87.5,650.6543,97.5,654.6543,93.5,650.6543" style="stroke:#181818;stroke-width:1.0;"/><line style="stroke:#181818;stroke-width:1.0;stroke-dasharray:2.0,2.0;" x1="91.5" x2="274.5" y1="650.6543" y2="650.6543"/><text fill="#000000" font-family="sans-serif" font-size="13" font-weight="bold" lengthAdjust="spacing" textLength="18" x="103.5" y="645.9121">14</text><text fill="#000000" font-family="sans-serif" font-size="13" lengthAdjust="spacing" textLength="83" x="125.5" y="645.9121">informs error</text><line style="stroke:#000000;stroke-width:1.0;stroke-dasharray:2.0,2.0;" x1="20" x2="462.5" y1="659.6543" y2="659.6543"/><text fill="#000000" font-family="sans-serif" font-size="11" font-weight="bold" lengthAdjust="spacing" textLength="51" x="25" y="670.2891">[success]</text><polygon fill="#181818" points="296.5,690.9199,286.5,694.9199,296.5,698.9199,292.5,694.9199" style="stroke:#181818;stroke-width:1.0;"/><line style="stroke:#181818;stroke-width:1.0;stroke-dasharray:2.0,2.0;" x1="290.5" x2="428.5" y1="694.9199" y2="694.9199"/><text fill="#000000" font-family="sans-serif" font-size="13" font-weight="bold" lengthAdjust="spacing" textLength="18" x="302.5" y="690.1777">15</text><text fill="#000000" font-family="sans-serif" font-size="13" lengthAdjust="spacing" textLength="66" x="324.5" y="690.1777">201: robot</text><polygon fill="#181818" points="92.5,720.2305,82.5,724.2305,92.5,728.2305,88.5,724.2305" style="stroke:#181818;stroke-width:1.0;"/><line style="stroke:#181818;stroke-width:1.0;stroke-dasharray:2.0,2.0;" x1="86.5" x2="279.5" y1="724.2305" y2="724.2305"/><text fill="#000000" font-family="sans-serif" font-size="13" font-weight="bold" lengthAdjust="spacing" textLength="18" x="98.5" y="719.4883">16</text><text fill="#000000" font-family="sans-serif" font-size="13" lengthAdjust="spacing" textLength="143" x="120.5" y="719.4883">previews created robot</text><!--SRC=[dLJBJiCm4BptArOzWKH5A1L2EN2YSAf0eiTUt7WBbX8xUDUj-lUitPAc8ULbAG_RCxlh6TigiBEXMg8V35J1piFmeKHac2chNj4FGH44ajbQUJQ5gPLbmKnt4wOpFhjFuvLEqSnQCIOsI9ClZEw40pbi14t03WgF4UFTqd527MWczHFJH6AbXVWudSDbGlEsHceW3KrIgv9t0I5YpkWShFolNB2wmSScevBPlBwn12P4A0tnA37dCJXeLuGABIispXvHfPRHvrecsIG7zDxv8qWiEa9arJaOktA-eZqCIy9EXL-hQwSOPvcy3vKrG8tjXVUczlWUa4JjGy91Xnfjx3fKUxSs6h_GVkrFlpUdLjYXzDeJwFesEpRbOc4NrbZWDqDGAC8BCAle24ZV8mTlKGje5nusfYnXYQ0iO5NpDZd-Bp6rOlKd6Hl23m8-FxqS5FnMmfO-RhKZxrMwwQYKJiHIwRsNSc9LXOoUJk_fyVW_Uvf2KI3HD_luAc-TzTwmjSUrmGtjhmRTmH-Rr6D1koSt3ygnYiy7]--></g></svg>