<?xml version="1.0" encoding="us-ascii" standalone="no"?><svg xmlns="http://www.w3.org/2000/svg" xmlns:xlink="http://www.w3.org/1999/xlink" contentStyleType="text/css" height="1466px" preserveAspectRatio="none" style="width:1072px;height:1466px;background:#FFFFFF;" version="1.1" viewBox="0 0 1072 1466" width="1072px" zoomAndPan="magnify"><defs/><g><rect fill="#FFFFFF" height="543.2383" style="stroke:#181818;stroke-width:1.0;" width="10" x="208" y="102.9121"/><rect fill="#FFFFFF" height="676.4023" style="stroke:#181818;stroke-width:1.0;" width="10" x="208" y="684.4414"/><rect fill="#FFFFFF" height="480.6563" style="stroke:#181818;stroke-width:1.0;" width="10" x="387" y="134.2031"/><rect fill="#FFFFFF" height="613.8203" style="stroke:#181818;stroke-width:1.0;" width="10" x="387" y="715.7324"/><rect fill="#FFFFFF" height="418.0742" style="stroke:#181818;stroke-width:1.0;" width="10" x="528" y="165.4941"/><rect fill="#FFFFFF" height="488.9961" style="stroke:#181818;stroke-width:1.0;" width="10" x="528" y="809.2656"/><rect fill="#FFFFFF" height="93.5332" style="stroke:#181818;stroke-width:1.0;" width="10" x="651" y="458.7441"/><rect fill="#FFFFFF" height="52.2422" style="stroke:#181818;stroke-width:1.0;" width="10" x="809" y="500.0352"/><rect fill="#FFFFFF" height="93.873" style="stroke:#181818;stroke-width:1.0;" width="10" x="927" y="196.7852"/><rect fill="#FFFFFF" height="93.873" style="stroke:#181818;stroke-width:1.0;" width="10" x="927" y="840.5566"/><rect fill="#FFFFFF" height="143.6641" style="stroke:#181818;stroke-width:1.0;" width="10" x="927" y="1102.5156"/><rect fill="#FFFFFF" height="31.291" style="stroke:#181818;stroke-width:1.0;" width="10" x="1017" y="228.0762"/><rect fill="#FFFFFF" height="31.291" style="stroke:#181818;stroke-width:1.0;" width="10" x="1017" y="871.8477"/><rect fill="#FFFFFF" height="30" style="stroke:#181818;stroke-width:1.0;" width="10" x="1017" y="1133.8066"/><rect fill="none" height="348.4922" style="stroke:#000000;stroke-width:1.5;" width="888" x="3" y="305.6582"/><rect fill="none" height="419.4141" style="stroke:#000000;stroke-width:1.5;" width="1062.5" x="3" y="949.4297"/><line style="stroke:#181818;stroke-width:0.5;stroke-dasharray:5.0,5.0;" x1="213" x2="213" y1="69.6211" y2="1385.8438"/><line style="stroke:#181818;stroke-width:0.5;stroke-dasharray:5.0,5.0;" x1="392" x2="392" y1="69.6211" y2="1385.8438"/><line style="stroke:#181818;stroke-width:0.5;stroke-dasharray:5.0,5.0;" x1="532.5" x2="532.5" y1="69.6211" y2="1385.8438"/><line style="stroke:#181818;stroke-width:0.5;stroke-dasharray:5.0,5.0;" x1="656" x2="656" y1="69.6211" y2="1385.8438"/><line style="stroke:#181818;stroke-width:0.5;stroke-dasharray:5.0,5.0;" x1="814" x2="814" y1="764.8535" y2="1385.8438"/><line style="stroke:#181818;stroke-width:0.5;stroke-dasharray:5.0,5.0;" x1="932" x2="932" y1="69.6211" y2="1385.8438"/><line style="stroke:#181818;stroke-width:0.5;stroke-dasharray:5.0,5.0;" x1="1021.5" x2="1021.5" y1="69.6211" y2="1385.8438"/><rect fill="#E2E2F0" height="32.6211" rx="2.5" ry="2.5" style="stroke:#181818;stroke-width:0.5;" width="52" x="187" y="36"/><text fill="#000000" font-family="sans-serif" font-size="14" lengthAdjust="spacing" textLength="38" x="194" y="58.1074">Route</text><rect fill="#E2E2F0" height="32.6211" rx="2.5" ry="2.5" style="stroke:#181818;stroke-width:0.5;" width="52" x="187" y="1384.8438"/><text fill="#000000" font-family="sans-serif" font-size="14" lengthAdjust="spacing" textLength="38" x="194" y="1406.9512">Route</text><rect fill="#E2E2F0" height="32.6211" rx="2.5" ry="2.5" style="stroke:#181818;stroke-width:0.5;" width="76" x="354" y="36"/><text fill="#000000" font-family="sans-serif" font-size="14" lengthAdjust="spacing" textLength="62" x="361" y="58.1074">Controller</text><rect fill="#E2E2F0" height="32.6211" rx="2.5" ry="2.5" style="stroke:#181818;stroke-width:0.5;" width="76" x="354" y="1384.8438"/><text fill="#000000" font-family="sans-serif" font-size="14" lengthAdjust="spacing" textLength="62" x="361" y="1406.9512">Controller</text><rect fill="#E2E2F0" height="32.6211" rx="2.5" ry="2.5" style="stroke:#181818;stroke-width:0.5;" width="61" x="502.5" y="36"/><text fill="#000000" font-family="sans-serif" font-size="14" lengthAdjust="spacing" textLength="47" x="509.5" y="58.1074">Service</text><rect fill="#E2E2F0" height="32.6211" rx="2.5" ry="2.5" style="stroke:#181818;stroke-width:0.5;" width="61" x="502.5" y="1384.8438"/><text fill="#000000" font-family="sans-serif" font-size="14" lengthAdjust="spacing" textLength="47" x="509.5" y="1406.9512">Service</text><rect fill="#E2E2F0" height="32.6211" rx="2.5" ry="2.5" style="stroke:#181818;stroke-width:0.5;" width="62" x="625" y="36"/><text fill="#000000" font-family="sans-serif" font-size="14" lengthAdjust="spacing" textLength="48" x="632" y="58.1074">Mapper</text><rect fill="#E2E2F0" height="32.6211" rx="2.5" ry="2.5" style="stroke:#181818;stroke-width:0.5;" width="62" x="625" y="1384.8438"/><text fill="#000000" font-family="sans-serif" font-size="14" lengthAdjust="spacing" textLength="48" x="632" y="1406.9512">Mapper</text><rect fill="#E2E2F0" height="51.2422" rx="2.5" ry="2.5" style="stroke:#181818;stroke-width:0.5;" width="134" x="747" y="1384.8438"/><text fill="#000000" font-family="sans-serif" font-size="14" lengthAdjust="spacing" textLength="24" x="802" y="1406.9512">dto:</text><text fill="#000000" font-family="sans-serif" font-size="14" lengthAdjust="spacing" textLength="120" x="754" y="1425.5723">ICreatedClientDTO</text><rect fill="#E2E2F0" height="32.6211" rx="2.5" ry="2.5" style="stroke:#181818;stroke-width:0.5;" width="82" x="891" y="36"/><text fill="#000000" font-family="sans-serif" font-size="14" lengthAdjust="spacing" textLength="68" x="898" y="58.1074">Repository</text><rect fill="#E2E2F0" height="32.6211" rx="2.5" ry="2.5" style="stroke:#181818;stroke-width:0.5;" width="82" x="891" y="1384.8438"/><text fill="#000000" font-family="sans-serif" font-size="14" lengthAdjust="spacing" textLength="68" x="898" y="1406.9512">Repository</text><text fill="#000000" font-family="sans-serif" font-size="14" lengthAdjust="spacing" textLength="61" x="988.5" y="66.1074">Database</text><path d="M1004,15 C1004,5 1022,5 1022,5 C1022,5 1040,5 1040,15 L1040,41 C1040,51 1022,51 1022,51 C1022,51 1004,51 1004,41 L1004,15 " fill="#E2E2F0" style="stroke:#181818;stroke-width:1.5;"/><path d="M1004,15 C1004,25 1022,25 1022,25 C1022,25 1040,25 1040,15 " fill="none" style="stroke:#181818;stroke-width:1.5;"/><text fill="#000000" font-family="sans-serif" font-size="14" lengthAdjust="spacing" textLength="61" x="988.5" y="1399.9512">Database</text><path d="M1004,1413.4648 C1004,1403.4648 1022,1403.4648 1022,1403.4648 C1022,1403.4648 1040,1403.4648 1040,1413.4648 L1040,1439.4648 C1040,1449.4648 1022,1449.4648 1022,1449.4648 C1022,1449.4648 1004,1449.4648 1004,1439.4648 L1004,1413.4648 " fill="#E2E2F0" style="stroke:#181818;stroke-width:1.5;"/><path d="M1004,1413.4648 C1004,1423.4648 1022,1423.4648 1022,1423.4648 C1022,1423.4648 1040,1423.4648 1040,1413.4648 " fill="none" style="stroke:#181818;stroke-width:1.5;"/><rect fill="#FFFFFF" height="543.2383" style="stroke:#181818;stroke-width:1.0;" width="10" x="208" y="102.9121"/><rect fill="#FFFFFF" height="676.4023" style="stroke:#181818;stroke-width:1.0;" width="10" x="208" y="684.4414"/><rect fill="#FFFFFF" height="480.6563" style="stroke:#181818;stroke-width:1.0;" width="10" x="387" y="134.2031"/><rect fill="#FFFFFF" height="613.8203" style="stroke:#181818;stroke-width:1.0;" width="10" x="387" y="715.7324"/><rect fill="#FFFFFF" height="418.0742" style="stroke:#181818;stroke-width:1.0;" width="10" x="528" y="165.4941"/><rect fill="#FFFFFF" height="488.9961" style="stroke:#181818;stroke-width:1.0;" width="10" x="528" y="809.2656"/><rect fill="#FFFFFF" height="93.5332" style="stroke:#181818;stroke-width:1.0;" width="10" x="651" y="458.7441"/><rect fill="#FFFFFF" height="52.2422" style="stroke:#181818;stroke-width:1.0;" width="10" x="809" y="500.0352"/><rect fill="#FFFFFF" height="93.873" style="stroke:#181818;stroke-width:1.0;" width="10" x="927" y="196.7852"/><rect fill="#FFFFFF" height="93.873" style="stroke:#181818;stroke-width:1.0;" width="10" x="927" y="840.5566"/><rect fill="#FFFFFF" height="143.6641" style="stroke:#181818;stroke-width:1.0;" width="10" x="927" y="1102.5156"/><rect fill="#FFFFFF" height="31.291" style="stroke:#181818;stroke-width:1.0;" width="10" x="1017" y="228.0762"/><rect fill="#FFFFFF" height="31.291" style="stroke:#181818;stroke-width:1.0;" width="10" x="1017" y="871.8477"/><rect fill="#FFFFFF" height="30" style="stroke:#181818;stroke-width:1.0;" width="10" x="1017" y="1133.8066"/><polygon fill="#181818" points="196,98.9121,206,102.9121,196,106.9121,200,102.9121" style="stroke:#181818;stroke-width:1.0;"/><line style="stroke:#181818;stroke-width:1.0;" x1="0" x2="202" y1="102.9121" y2="102.9121"/><text fill="#000000" font-family="sans-serif" font-size="13" font-weight="bold" lengthAdjust="spacing" textLength="7" x="7" y="97.6494">1</text><text fill="#000000" font-family="sans-serif" font-size="13" lengthAdjust="spacing" textLength="123" x="18" y="97.6494">GET (/clients/{email})</text><polygon fill="#181818" points="375,130.2031,385,134.2031,375,138.2031,379,134.2031" style="stroke:#181818;stroke-width:1.0;"/><line style="stroke:#181818;stroke-width:1.0;" x1="218" x2="381" y1="134.2031" y2="134.2031"/><text fill="#000000" font-family="sans-serif" font-size="13" font-weight="bold" lengthAdjust="spacing" textLength="7" x="225" y="128.9404">2</text><text fill="#000000" font-family="sans-serif" font-size="13" lengthAdjust="spacing" textLength="115" x="236" y="128.9404">getClient(req,res,...)</text><polygon fill="#181818" points="516,161.4941,526,165.4941,516,169.4941,520,165.4941" style="stroke:#181818;stroke-width:1.0;"/><line style="stroke:#181818;stroke-width:1.0;" x1="397" x2="522" y1="165.4941" y2="165.4941"/><text fill="#000000" font-family="sans-serif" font-size="13" font-weight="bold" lengthAdjust="spacing" textLength="7" x="404" y="160.2314">3</text><text fill="#000000" font-family="sans-serif" font-size="13" lengthAdjust="spacing" textLength="90" x="415" y="160.2314">getClient(email)</text><polygon fill="#181818" points="915,192.7852,925,196.7852,915,200.7852,919,196.7852" style="stroke:#181818;stroke-width:1.0;"/><line style="stroke:#181818;stroke-width:1.0;" x1="538" x2="921" y1="196.7852" y2="196.7852"/><text fill="#000000" font-family="sans-serif" font-size="13" font-weight="bold" lengthAdjust="spacing" textLength="7" x="545" y="191.5225">4</text><text fill="#000000" font-family="sans-serif" font-size="13" lengthAdjust="spacing" textLength="59" x="556" y="191.5225">find(email)</text><polygon fill="#181818" points="1005,224.0762,1015,228.0762,1005,232.0762,1009,228.0762" style="stroke:#181818;stroke-width:1.0;"/><line style="stroke:#181818;stroke-width:1.0;" x1="937" x2="1011" y1="228.0762" y2="228.0762"/><text fill="#000000" font-family="sans-serif" font-size="13" font-weight="bold" lengthAdjust="spacing" textLength="7" x="944" y="222.8135">5</text><text fill="#000000" font-family="sans-serif" font-size="13" lengthAdjust="spacing" textLength="28" x="955" y="222.8135">find()</text><polygon fill="#181818" points="948,255.3672,938,259.3672,948,263.3672,944,259.3672" style="stroke:#181818;stroke-width:1.0;"/><line style="stroke:#181818;stroke-width:1.0;stroke-dasharray:2.0,2.0;" x1="942" x2="1021" y1="259.3672" y2="259.3672"/><text fill="#000000" font-family="sans-serif" font-size="13" font-weight="bold" lengthAdjust="spacing" textLength="7" x="954" y="254.1045">6</text><text fill="#000000" font-family="sans-serif" font-size="13" lengthAdjust="spacing" textLength="31" x="965" y="254.1045">client</text><polygon fill="#181818" points="549,286.6582,539,290.6582,549,294.6582,545,290.6582" style="stroke:#181818;stroke-width:1.0;"/><line style="stroke:#181818;stroke-width:1.0;stroke-dasharray:2.0,2.0;" x1="543" x2="931" y1="290.6582" y2="290.6582"/><text fill="#000000" font-family="sans-serif" font-size="13" font-weight="bold" lengthAdjust="spacing" textLength="7" x="555" y="285.3955">7</text><text fill="#000000" font-family="sans-serif" font-size="13" lengthAdjust="spacing" textLength="31" x="566" y="285.3955">client</text><path d="M3,305.6582 L64,305.6582 L64,314.9492 L54,324.9492 L3,324.9492 L3,305.6582 " fill="#EEEEEE" style="stroke:#000000;stroke-width:1.5;"/><rect fill="none" height="348.4922" style="stroke:#000000;stroke-width:1.5;" width="888" x="3" y="305.6582"/><text fill="#000000" font-family="sans-serif" font-size="13" font-weight="bold" lengthAdjust="spacing" textLength="16" x="18" y="320.6865">alt</text><text fill="#000000" font-family="sans-serif" font-size="11" font-weight="bold" lengthAdjust="spacing" textLength="94" x="79" y="319.5283">[client not found]</text><polygon fill="#181818" points="408,344.2402,398,348.2402,408,352.2402,404,348.2402" style="stroke:#181818;stroke-width:1.0;"/><line style="stroke:#181818;stroke-width:1.0;stroke-dasharray:2.0,2.0;" x1="402" x2="527" y1="348.2402" y2="348.2402"/><text fill="#000000" font-family="sans-serif" font-size="13" font-weight="bold" lengthAdjust="spacing" textLength="7" x="414" y="342.9775">8</text><text fill="#000000" font-family="sans-serif" font-size="13" lengthAdjust="spacing" textLength="26" x="425" y="342.9775">error</text><polygon fill="#181818" points="229,375.5313,219,379.5313,229,383.5313,225,379.5313" style="stroke:#181818;stroke-width:1.0;"/><line style="stroke:#181818;stroke-width:1.0;stroke-dasharray:2.0,2.0;" x1="223" x2="386" y1="379.5313" y2="379.5313"/><text fill="#000000" font-family="sans-serif" font-size="13" font-weight="bold" lengthAdjust="spacing" textLength="7" x="235" y="374.2686">9</text><text fill="#000000" font-family="sans-serif" font-size="13" lengthAdjust="spacing" textLength="78" x="246" y="374.2686">response 404</text><polygon fill="#181818" points="11,406.8223,1,410.8223,11,414.8223,7,410.8223" style="stroke:#181818;stroke-width:1.0;"/><line style="stroke:#181818;stroke-width:1.0;stroke-dasharray:2.0,2.0;" x1="5" x2="207" y1="410.8223" y2="410.8223"/><text fill="#000000" font-family="sans-serif" font-size="13" font-weight="bold" lengthAdjust="spacing" textLength="14" x="17" y="405.5596">10</text><text fill="#000000" font-family="sans-serif" font-size="13" lengthAdjust="spacing" textLength="89" x="35" y="405.5596">404: Not Found</text><line style="stroke:#000000;stroke-width:1.0;stroke-dasharray:2.0,2.0;" x1="3" x2="891" y1="419.8223" y2="419.8223"/><text fill="#000000" font-family="sans-serif" font-size="11" font-weight="bold" lengthAdjust="spacing" textLength="73" x="8" y="431.6924">[client found]</text><polygon fill="#181818" points="639,454.7441,649,458.7441,639,462.7441,643,458.7441" style="stroke:#181818;stroke-width:1.0;"/><line style="stroke:#181818;stroke-width:1.0;" x1="538" x2="645" y1="458.7441" y2="458.7441"/><text fill="#000000" font-family="sans-serif" font-size="13" font-weight="bold" lengthAdjust="spacing" textLength="14" x="545" y="453.4814">11</text><text fill="#000000" font-family="sans-serif" font-size="13" lengthAdjust="spacing" textLength="76" x="563" y="453.4814">toDTO(client)</text><polygon fill="#181818" points="735,486.0352,745,490.0352,735,494.0352,739,490.0352" style="stroke:#181818;stroke-width:1.0;"/><line style="stroke:#181818;stroke-width:1.0;stroke-dasharray:2.0,2.0;" x1="661" x2="741" y1="490.0352" y2="490.0352"/><text fill="#000000" font-family="sans-serif" font-size="13" font-weight="bold" lengthAdjust="spacing" textLength="14" x="668" y="484.7725">12</text><text fill="#000000" font-family="sans-serif" font-size="13" lengthAdjust="spacing" textLength="44" x="686" y="484.7725">create()</text><rect fill="#E2E2F0" height="51.2422" rx="2.5" ry="2.5" style="stroke:#181818;stroke-width:0.5;" width="134" x="747" y="466.7441"/><text fill="#000000" font-family="sans-serif" font-size="14" lengthAdjust="spacing" textLength="24" x="802" y="488.8516">dto:</text><text fill="#000000" font-family="sans-serif" font-size="14" lengthAdjust="spacing" textLength="120" x="754" y="507.4727">ICreatedClientDTO</text><polygon fill="#181818" points="549,548.2773,539,552.2773,549,556.2773,545,552.2773" style="stroke:#181818;stroke-width:1.0;"/><line style="stroke:#181818;stroke-width:1.0;stroke-dasharray:2.0,2.0;" x1="543" x2="655" y1="552.2773" y2="552.2773"/><text fill="#000000" font-family="sans-serif" font-size="13" font-weight="bold" lengthAdjust="spacing" textLength="14" x="555" y="547.0146">13</text><text fill="#000000" font-family="sans-serif" font-size="13" lengthAdjust="spacing" textLength="18" x="573" y="547.0146">dto</text><polygon fill="#181818" points="408,579.5684,398,583.5684,408,587.5684,404,583.5684" style="stroke:#181818;stroke-width:1.0;"/><line style="stroke:#181818;stroke-width:1.0;stroke-dasharray:2.0,2.0;" x1="402" x2="532" y1="583.5684" y2="583.5684"/><text fill="#000000" font-family="sans-serif" font-size="13" font-weight="bold" lengthAdjust="spacing" textLength="14" x="414" y="578.3057">14</text><text fill="#000000" font-family="sans-serif" font-size="13" lengthAdjust="spacing" textLength="18" x="432" y="578.3057">dto</text><polygon fill="#181818" points="229,610.8594,219,614.8594,229,618.8594,225,614.8594" style="stroke:#181818;stroke-width:1.0;"/><line style="stroke:#181818;stroke-width:1.0;stroke-dasharray:2.0,2.0;" x1="223" x2="391" y1="614.8594" y2="614.8594"/><text fill="#000000" font-family="sans-serif" font-size="13" font-weight="bold" lengthAdjust="spacing" textLength="14" x="235" y="609.5967">15</text><text fill="#000000" font-family="sans-serif" font-size="13" lengthAdjust="spacing" textLength="78" x="253" y="609.5967">response 200</text><polygon fill="#181818" points="11,642.1504,1,646.1504,11,650.1504,7,646.1504" style="stroke:#181818;stroke-width:1.0;"/><line style="stroke:#181818;stroke-width:1.0;stroke-dasharray:2.0,2.0;" x1="5" x2="212" y1="646.1504" y2="646.1504"/><text fill="#000000" font-family="sans-serif" font-size="13" font-weight="bold" lengthAdjust="spacing" textLength="14" x="17" y="640.8877">16</text><text fill="#000000" font-family="sans-serif" font-size="13" lengthAdjust="spacing" textLength="48" x="35" y="640.8877">200: OK</text><polygon fill="#181818" points="196,680.4414,206,684.4414,196,688.4414,200,684.4414" style="stroke:#181818;stroke-width:1.0;"/><line style="stroke:#181818;stroke-width:1.0;" x1="0" x2="202" y1="684.4414" y2="684.4414"/><text fill="#000000" font-family="sans-serif" font-size="13" font-weight="bold" lengthAdjust="spacing" textLength="14" x="7" y="679.1787">17</text><text fill="#000000" font-family="sans-serif" font-size="13" lengthAdjust="spacing" textLength="148" x="25" y="679.1787">DELETE (/clients/{token})</text><polygon fill="#181818" points="375,711.7324,385,715.7324,375,719.7324,379,715.7324" style="stroke:#181818;stroke-width:1.0;"/><line style="stroke:#181818;stroke-width:1.0;" x1="218" x2="381" y1="715.7324" y2="715.7324"/><text fill="#000000" font-family="sans-serif" font-size="13" font-weight="bold" lengthAdjust="spacing" textLength="14" x="225" y="710.4697">18</text><text fill="#000000" font-family="sans-serif" font-size="13" lengthAdjust="spacing" textLength="132" x="243" y="710.4697">deleteClient(req,res,...)</text><polygon fill="#181818" points="735,743.0234,745,747.0234,735,751.0234,739,747.0234" style="stroke:#181818;stroke-width:1.0;"/><line style="stroke:#181818;stroke-width:1.0;" x1="397" x2="741" y1="747.0234" y2="747.0234"/><text fill="#000000" font-family="sans-serif" font-size="13" font-weight="bold" lengthAdjust="spacing" textLength="14" x="404" y="741.7607">19</text><text fill="#000000" font-family="sans-serif" font-size="13" lengthAdjust="spacing" textLength="94" x="422" y="741.7607">create(req.body)</text><rect fill="#E2E2F0" height="51.2422" rx="2.5" ry="2.5" style="stroke:#181818;stroke-width:0.5;" width="134" x="747" y="723.7324"/><text fill="#000000" font-family="sans-serif" font-size="14" lengthAdjust="spacing" textLength="24" x="802" y="745.8398">dto:</text><text fill="#000000" font-family="sans-serif" font-size="14" lengthAdjust="spacing" textLength="120" x="754" y="764.4609">ICreatedClientDTO</text><polygon fill="#181818" points="516,805.2656,526,809.2656,516,813.2656,520,809.2656" style="stroke:#181818;stroke-width:1.0;"/><line style="stroke:#181818;stroke-width:1.0;" x1="397" x2="522" y1="809.2656" y2="809.2656"/><text fill="#000000" font-family="sans-serif" font-size="13" font-weight="bold" lengthAdjust="spacing" textLength="14" x="404" y="804.0029">20</text><text fill="#000000" font-family="sans-serif" font-size="13" lengthAdjust="spacing" textLength="94" x="422" y="804.0029">deleteClient(dto)</text><polygon fill="#181818" points="915,836.5566,925,840.5566,915,844.5566,919,840.5566" style="stroke:#181818;stroke-width:1.0;"/><line style="stroke:#181818;stroke-width:1.0;" x1="538" x2="921" y1="840.5566" y2="840.5566"/><text fill="#000000" font-family="sans-serif" font-size="13" font-weight="bold" lengthAdjust="spacing" textLength="14" x="545" y="835.2939">21</text><text fill="#000000" font-family="sans-serif" font-size="13" lengthAdjust="spacing" textLength="59" x="563" y="835.2939">find(email)</text><polygon fill="#181818" points="1005,867.8477,1015,871.8477,1005,875.8477,1009,871.8477" style="stroke:#181818;stroke-width:1.0;"/><line style="stroke:#181818;stroke-width:1.0;" x1="937" x2="1011" y1="871.8477" y2="871.8477"/><text fill="#000000" font-family="sans-serif" font-size="13" font-weight="bold" lengthAdjust="spacing" textLength="14" x="944" y="866.585">22</text><text fill="#000000" font-family="sans-serif" font-size="13" lengthAdjust="spacing" textLength="28" x="962" y="866.585">find()</text><polygon fill="#181818" points="948,899.1387,938,903.1387,948,907.1387,944,903.1387" style="stroke:#181818;stroke-width:1.0;"/><line style="stroke:#181818;stroke-width:1.0;stroke-dasharray:2.0,2.0;" x1="942" x2="1021" y1="903.1387" y2="903.1387"/><text fill="#000000" font-family="sans-serif" font-size="13" font-weight="bold" lengthAdjust="spacing" textLength="14" x="954" y="897.876">23</text><text fill="#000000" font-family="sans-serif" font-size="13" lengthAdjust="spacing" textLength="31" x="972" y="897.876">client</text><polygon fill="#181818" points="549,930.4297,539,934.4297,549,938.4297,545,934.4297" style="stroke:#181818;stroke-width:1.0;"/><line style="stroke:#181818;stroke-width:1.0;stroke-dasharray:2.0,2.0;" x1="543" x2="931" y1="934.4297" y2="934.4297"/><text fill="#000000" font-family="sans-serif" font-size="13" font-weight="bold" lengthAdjust="spacing" textLength="14" x="555" y="929.167">24</text><text fill="#000000" font-family="sans-serif" font-size="13" lengthAdjust="spacing" textLength="31" x="573" y="929.167">client</text><path d="M3,949.4297 L64,949.4297 L64,958.7207 L54,968.7207 L3,968.7207 L3,949.4297 " fill="#EEEEEE" style="stroke:#000000;stroke-width:1.5;"/><rect fill="none" height="419.4141" style="stroke:#000000;stroke-width:1.5;" width="1062.5" x="3" y="949.4297"/><text fill="#000000" font-family="sans-serif" font-size="13" font-weight="bold" lengthAdjust="spacing" textLength="16" x="18" y="964.458">alt</text><text fill="#000000" font-family="sans-serif" font-size="11" font-weight="bold" lengthAdjust="spacing" textLength="136" x="79" y="963.2998">[wrong client password]</text><polygon fill="#181818" points="408,988.0117,398,992.0117,408,996.0117,404,992.0117" style="stroke:#181818;stroke-width:1.0;"/><line style="stroke:#181818;stroke-width:1.0;stroke-dasharray:2.0,2.0;" x1="402" x2="527" y1="992.0117" y2="992.0117"/><text fill="#000000" font-family="sans-serif" font-size="13" font-weight="bold" lengthAdjust="spacing" textLength="14" x="414" y="986.749">25</text><text fill="#000000" font-family="sans-serif" font-size="13" lengthAdjust="spacing" textLength="26" x="432" y="986.749">error</text><polygon fill="#181818" points="229,1019.3027,219,1023.3027,229,1027.3027,225,1023.3027" style="stroke:#181818;stroke-width:1.0;"/><line style="stroke:#181818;stroke-width:1.0;stroke-dasharray:2.0,2.0;" x1="223" x2="386" y1="1023.3027" y2="1023.3027"/><text fill="#000000" font-family="sans-serif" font-size="13" font-weight="bold" lengthAdjust="spacing" textLength="14" x="235" y="1018.04">26</text><text fill="#000000" font-family="sans-serif" font-size="13" lengthAdjust="spacing" textLength="78" x="253" y="1018.04">response 422</text><polygon fill="#181818" points="11,1050.5938,1,1054.5938,11,1058.5938,7,1054.5938" style="stroke:#181818;stroke-width:1.0;"/><line style="stroke:#181818;stroke-width:1.0;stroke-dasharray:2.0,2.0;" x1="5" x2="207" y1="1054.5938" y2="1054.5938"/><text fill="#000000" font-family="sans-serif" font-size="13" font-weight="bold" lengthAdjust="spacing" textLength="14" x="17" y="1049.3311">27</text><text fill="#000000" font-family="sans-serif" font-size="13" lengthAdjust="spacing" textLength="164" x="35" y="1049.3311">422: Unprocessable Content</text><line style="stroke:#000000;stroke-width:1.0;stroke-dasharray:2.0,2.0;" x1="3" x2="1065.5" y1="1063.5938" y2="1063.5938"/><text fill="#000000" font-family="sans-serif" font-size="11" font-weight="bold" lengthAdjust="spacing" textLength="55" x="8" y="1075.4639">[success]</text><polygon fill="#181818" points="915,1098.5156,925,1102.5156,915,1106.5156,919,1102.5156" style="stroke:#181818;stroke-width:1.0;"/><line style="stroke:#181818;stroke-width:1.0;" x1="538" x2="921" y1="1102.5156" y2="1102.5156"/><text fill="#000000" font-family="sans-serif" font-size="13" font-weight="bold" lengthAdjust="spacing" textLength="14" x="545" y="1097.2529">28</text><text fill="#000000" font-family="sans-serif" font-size="13" lengthAdjust="spacing" textLength="74" x="563" y="1097.2529">delete(client)</text><polygon fill="#181818" points="1005,1129.8066,1015,1133.8066,1005,1137.8066,1009,1133.8066" style="stroke:#181818;stroke-width:1.0;"/><line style="stroke:#181818;stroke-width:1.0;" x1="937" x2="1011" y1="1133.8066" y2="1133.8066"/><text fill="#000000" font-family="sans-serif" font-size="13" font-weight="bold" lengthAdjust="spacing" textLength="14" x="944" y="1128.5439">29</text><text fill="#000000" font-family="sans-serif" font-size="13" lengthAdjust="spacing" textLength="43" x="962" y="1128.5439">delete()</text><polygon fill="#181818" points="549,1191.0977,539,1195.0977,549,1199.0977,545,1195.0977" style="stroke:#181818;stroke-width:1.0;"/><line style="stroke:#181818;stroke-width:1.0;stroke-dasharray:2.0,2.0;" x1="543" x2="926" y1="1195.0977" y2="1195.0977"/><text fill="#000000" font-family="sans-serif" font-size="13" font-weight="bold" lengthAdjust="spacing" textLength="14" x="555" y="1189.835">30</text><text fill="#000000" font-family="sans-serif" font-size="13" lengthAdjust="spacing" textLength="22" x="573" y="1189.835">true</text><line style="stroke:#181818;stroke-width:1.0;" x1="538" x2="580" y1="1245.1797" y2="1245.1797"/><line style="stroke:#181818;stroke-width:1.0;" x1="580" x2="580" y1="1245.1797" y2="1258.1797"/><line style="stroke:#181818;stroke-width:1.0;" x1="533" x2="580" y1="1258.1797" y2="1258.1797"/><polygon fill="#181818" points="543,1254.1797,533,1258.1797,543,1262.1797,539,1258.1797" style="stroke:#181818;stroke-width:1.0;"/><text fill="#000000" font-family="sans-serif" font-size="13" font-weight="bold" lengthAdjust="spacing" textLength="14" x="545" y="1239.917">31</text><text fill="#000000" font-family="sans-serif" font-size="13" lengthAdjust="spacing" textLength="74" x="563" y="1239.917">logout(client)</text><path d="M649,1208.0977 L649,1269.0977 L975,1269.0977 L975,1218.0977 L965,1208.0977 L649,1208.0977 " fill="#FEFFDD" style="stroke:#181818;stroke-width:0.5;"/><path d="M965,1208.0977 L965,1218.0977 L975,1218.0977 L965,1208.0977 " fill="#FEFFDD" style="stroke:#181818;stroke-width:0.5;"/><text fill="#000000" font-family="sans-serif" font-size="13" lengthAdjust="spacing" textLength="191" x="655" y="1227.126">DEPOIS DE APAGAR A CONTA</text><text fill="#000000" font-family="sans-serif" font-size="13" lengthAdjust="spacing" textLength="305" x="655" y="1244.417">DEVE AUTOMATICAMENTE DAR LOGOUT !!!!!!!!!!!!!!!</text><text fill="#000000" font-family="sans-serif" font-size="13" lengthAdjust="spacing" textLength="136" x="655" y="1261.708">IMPLEMENTAR AINDA</text><polygon fill="#181818" points="408,1294.2617,398,1298.2617,408,1302.2617,404,1298.2617" style="stroke:#181818;stroke-width:1.0;"/><line style="stroke:#181818;stroke-width:1.0;stroke-dasharray:2.0,2.0;" x1="402" x2="532" y1="1298.2617" y2="1298.2617"/><text fill="#000000" font-family="sans-serif" font-size="13" font-weight="bold" lengthAdjust="spacing" textLength="14" x="414" y="1292.999">32</text><text fill="#000000" font-family="sans-serif" font-size="13" lengthAdjust="spacing" textLength="22" x="432" y="1292.999">true</text><polygon fill="#181818" points="229,1325.5527,219,1329.5527,229,1333.5527,225,1329.5527" style="stroke:#181818;stroke-width:1.0;"/><line style="stroke:#181818;stroke-width:1.0;stroke-dasharray:2.0,2.0;" x1="223" x2="391" y1="1329.5527" y2="1329.5527"/><text fill="#000000" font-family="sans-serif" font-size="13" font-weight="bold" lengthAdjust="spacing" textLength="14" x="235" y="1324.29">33</text><text fill="#000000" font-family="sans-serif" font-size="13" lengthAdjust="spacing" textLength="78" x="253" y="1324.29">response 200</text><polygon fill="#181818" points="11,1356.8438,1,1360.8438,11,1364.8438,7,1360.8438" style="stroke:#181818;stroke-width:1.0;"/><line style="stroke:#181818;stroke-width:1.0;stroke-dasharray:2.0,2.0;" x1="5" x2="212" y1="1360.8438" y2="1360.8438"/><text fill="#000000" font-family="sans-serif" font-size="13" font-weight="bold" lengthAdjust="spacing" textLength="14" x="17" y="1355.5811">34</text><text fill="#000000" font-family="sans-serif" font-size="13" lengthAdjust="spacing" textLength="48" x="35" y="1355.5811">200: OK</text><!--SRC=[xLLDRzf04BtlhvXo0XG8GZbPLIGBkmWLC4fCBubKBVQ6MZMxxdfD55NzxvrT6ySsngWzzDIzW3tlpSURcJNDbE3POSSa8IIXKaL1b52keFSWCiLwG5EGTSDCS2L573Dfh86ISHtmoEGn2d9kUWmQVbSqIGhgWIPrMwY4zSmNCyceOk4iZXXNZk_bSPAlQ6ucoHAHHah8jpnJV2GXLNH7KmOzf_XdRE6EaAVHFKWBvguF_Tl0k4zlVx83ZU9V0q835HqnC1OCU2GWMbS75koPohFfI_RZHhBqPZmU3moiP1aXe3Y6XtoilqOtiGObh2HhdQ1oD4ydYmKX_oNYOPDQevl2eN4C6Ps4kvEBmHccz83oGCj1xkWzZrooCs38kjpaQPHQjFYey4qXD5O53BXGy28o7fwhyzuT9gMGDK0klquSpTYkH70SYBl9NGtrz74qqW1yRy4Q8tqoaLYCs2B-XTZtUdQHgGIEPp_7NcYD7lAc99fiyZSp3SCXoc9clgj3nGAqTUdaBrUu3LMHkCLFnTfCjo5rbLbXLSUtNVlfP4AQYPmMnlJ1qX0BlC-aEWw4eVodlNNSfUkxrTLLuZlZtQiRifWfzdVRcqir74BP7tGmtedmRK0kh7ej79B_x_hrNN-LWkzF6vVGD7qLCZppVNNfEnP_EZr3bii_dLgmvOaK0KjJkeiPw2-SpjjS16aMQ4D7n_AMTzy2rvjMUFcpjjMxSQqTIcQCjEjwWiHYZz_zrbhqmUiOQudstnJeTTnuYqVy0NjZp-q7i67chNqRdhdZVi6tMzzRsVvYPg_SDUwjWv2bD_UsFdoe7_pchpPBLyEqcyNQiRjADMAIhclALFhlxwdV]--></g></svg>