<?xml version="1.0" encoding="us-ascii" standalone="no"?><svg xmlns="http://www.w3.org/2000/svg" xmlns:xlink="http://www.w3.org/1999/xlink" contentStyleType="text/css" height="1408px" preserveAspectRatio="none" style="width:1077px;height:1408px;background:#FFFFFF;" version="1.1" viewBox="0 0 1077 1408" width="1077px" zoomAndPan="magnify"><defs/><g><rect fill="#FFFFFF" height="1199.9805" style="stroke:#181818;stroke-width:1.0;" width="10" x="46" y="93.6211"/><rect fill="#FFFFFF" height="635.1113" style="stroke:#181818;stroke-width:1.0;" width="10" x="224" y="116.9121"/><rect fill="#FFFFFF" height="510.2871" style="stroke:#181818;stroke-width:1.0;" width="10" x="224" y="783.3145"/><rect fill="#FFFFFF" height="572.5293" style="stroke:#181818;stroke-width:1.0;" width="10" x="334" y="148.2031"/><rect fill="#FFFFFF" height="430.4141" style="stroke:#181818;stroke-width:1.0;" width="10" x="334" y="814.6055"/><rect fill="#FFFFFF" height="455.3652" style="stroke:#181818;stroke-width:1.0;" width="10" x="475" y="234.0762"/><rect fill="#FFFFFF" height="364.832" style="stroke:#181818;stroke-width:1.0;" width="10" x="475" y="845.8965"/><rect fill="#FFFFFF" height="52.2422" style="stroke:#181818;stroke-width:1.0;" width="10" x="633" y="605.9082"/><rect fill="#FFFFFF" height="299.25" style="stroke:#181818;stroke-width:1.0;" width="10" x="873" y="265.3672"/><rect fill="#FFFFFF" height="299.25" style="stroke:#181818;stroke-width:1.0;" width="10" x="873" y="877.1875"/><rect fill="none" height="996.9434" style="stroke:#000000;stroke-width:1.5;" width="1051" x="10" y="311.6582"/><rect fill="none" height="378.123" style="stroke:#000000;stroke-width:1.5;" width="957" x="20" y="923.4785"/><line style="stroke:#181818;stroke-width:0.5;stroke-dasharray:5.0,5.0;" x1="51" x2="51" y1="83.6211" y2="1325.6016"/><line style="stroke:#181818;stroke-width:0.5;stroke-dasharray:5.0,5.0;" x1="228.5" x2="228.5" y1="83.6211" y2="1325.6016"/><line style="stroke:#181818;stroke-width:0.5;stroke-dasharray:5.0,5.0;" x1="339" x2="339" y1="83.6211" y2="1325.6016"/><line style="stroke:#181818;stroke-width:0.5;stroke-dasharray:5.0,5.0;" x1="479.5" x2="479.5" y1="83.6211" y2="1325.6016"/><line style="stroke:#181818;stroke-width:0.5;stroke-dasharray:5.0,5.0;" x1="638" x2="638" y1="613.7383" y2="1325.6016"/><line style="stroke:#181818;stroke-width:0.5;stroke-dasharray:5.0,5.0;" x1="768" x2="768" y1="83.6211" y2="1325.6016"/><line style="stroke:#181818;stroke-width:0.5;stroke-dasharray:5.0,5.0;" x1="878" x2="878" y1="83.6211" y2="1325.6016"/><text fill="#000000" font-family="sans-serif" font-size="14" lengthAdjust="spacing" textLength="36" x="30" y="80.1074">Client</text><ellipse cx="51" cy="13.5" fill="#E2E2F0" rx="8" ry="8" style="stroke:#181818;stroke-width:0.5;"/><path d="M51,21.5 L51,48.5 M38,29.5 L64,29.5 M51,48.5 L38,63.5 M51,48.5 L64,63.5 " fill="none" style="stroke:#181818;stroke-width:0.5;"/><text fill="#000000" font-family="sans-serif" font-size="14" lengthAdjust="spacing" textLength="36" x="30" y="1339.709">Client</text><ellipse cx="51" cy="1351.7227" fill="#E2E2F0" rx="8" ry="8" style="stroke:#181818;stroke-width:0.5;"/><path d="M51,1359.7227 L51,1386.7227 M38,1367.7227 L64,1367.7227 M51,1386.7227 L38,1401.7227 M51,1386.7227 L64,1401.7227 " fill="none" style="stroke:#181818;stroke-width:0.5;"/><rect fill="#E2E2F0" height="32.6211" rx="2.5" ry="2.5" style="stroke:#181818;stroke-width:0.5;" width="43" x="207.5" y="50"/><text fill="#000000" font-family="sans-serif" font-size="14" lengthAdjust="spacing" textLength="29" x="214.5" y="72.1074">View</text><rect fill="#E2E2F0" height="32.6211" rx="2.5" ry="2.5" style="stroke:#181818;stroke-width:0.5;" width="43" x="207.5" y="1324.6016"/><text fill="#000000" font-family="sans-serif" font-size="14" lengthAdjust="spacing" textLength="29" x="214.5" y="1346.709">View</text><rect fill="#E2E2F0" height="32.6211" rx="2.5" ry="2.5" style="stroke:#181818;stroke-width:0.5;" width="76" x="301" y="50"/><text fill="#000000" font-family="sans-serif" font-size="14" lengthAdjust="spacing" textLength="62" x="308" y="72.1074">Controller</text><rect fill="#E2E2F0" height="32.6211" rx="2.5" ry="2.5" style="stroke:#181818;stroke-width:0.5;" width="76" x="301" y="1324.6016"/><text fill="#000000" font-family="sans-serif" font-size="14" lengthAdjust="spacing" textLength="62" x="308" y="1346.709">Controller</text><rect fill="#E2E2F0" height="32.6211" rx="2.5" ry="2.5" style="stroke:#181818;stroke-width:0.5;" width="61" x="449.5" y="50"/><text fill="#000000" font-family="sans-serif" font-size="14" lengthAdjust="spacing" textLength="47" x="456.5" y="72.1074">Service</text><rect fill="#E2E2F0" height="32.6211" rx="2.5" ry="2.5" style="stroke:#181818;stroke-width:0.5;" width="61" x="449.5" y="1324.6016"/><text fill="#000000" font-family="sans-serif" font-size="14" lengthAdjust="spacing" textLength="47" x="456.5" y="1346.709">Service</text><rect fill="#E2E2F0" height="51.2422" rx="2.5" ry="2.5" style="stroke:#181818;stroke-width:0.5;" width="134" x="571" y="1324.6016"/><text fill="#000000" font-family="sans-serif" font-size="14" lengthAdjust="spacing" textLength="24" x="626" y="1346.709">dto:</text><text fill="#000000" font-family="sans-serif" font-size="14" lengthAdjust="spacing" textLength="120" x="578" y="1365.3301">ICreatedClientDTO</text><rect fill="#E2E2F0" height="51.2422" rx="2.5" ry="2.5" style="stroke:#181818;stroke-width:0.5;" width="107" x="715" y="31.3789"/><text fill="#000000" font-family="sans-serif" font-size="14" lengthAdjust="spacing" textLength="24" x="756.5" y="53.4863">dto:</text><text fill="#000000" font-family="sans-serif" font-size="14" lengthAdjust="spacing" textLength="93" x="722" y="72.1074">IEditClientDTO</text><rect fill="#E2E2F0" height="51.2422" rx="2.5" ry="2.5" style="stroke:#181818;stroke-width:0.5;" width="107" x="715" y="1324.6016"/><text fill="#000000" font-family="sans-serif" font-size="14" lengthAdjust="spacing" textLength="24" x="756.5" y="1346.709">dto:</text><text fill="#000000" font-family="sans-serif" font-size="14" lengthAdjust="spacing" textLength="93" x="722" y="1365.3301">IEditClientDTO</text><rect fill="#E2E2F0" height="32.6211" rx="2.5" ry="2.5" style="stroke:#181818;stroke-width:0.5;" width="92" x="832" y="50"/><text fill="#000000" font-family="sans-serif" font-size="14" lengthAdjust="spacing" textLength="78" x="839" y="72.1074">HTTP Driver</text><rect fill="#E2E2F0" height="32.6211" rx="2.5" ry="2.5" style="stroke:#181818;stroke-width:0.5;" width="92" x="832" y="1324.6016"/><text fill="#000000" font-family="sans-serif" font-size="14" lengthAdjust="spacing" textLength="78" x="839" y="1346.709">HTTP Driver</text><rect fill="#FFFFFF" height="1199.9805" style="stroke:#181818;stroke-width:1.0;" width="10" x="46" y="93.6211"/><rect fill="#FFFFFF" height="635.1113" style="stroke:#181818;stroke-width:1.0;" width="10" x="224" y="116.9121"/><rect fill="#FFFFFF" height="510.2871" style="stroke:#181818;stroke-width:1.0;" width="10" x="224" y="783.3145"/><rect fill="#FFFFFF" height="572.5293" style="stroke:#181818;stroke-width:1.0;" width="10" x="334" y="148.2031"/><rect fill="#FFFFFF" height="430.4141" style="stroke:#181818;stroke-width:1.0;" width="10" x="334" y="814.6055"/><rect fill="#FFFFFF" height="455.3652" style="stroke:#181818;stroke-width:1.0;" width="10" x="475" y="234.0762"/><rect fill="#FFFFFF" height="364.832" style="stroke:#181818;stroke-width:1.0;" width="10" x="475" y="845.8965"/><rect fill="#FFFFFF" height="52.2422" style="stroke:#181818;stroke-width:1.0;" width="10" x="633" y="605.9082"/><rect fill="#FFFFFF" height="299.25" style="stroke:#181818;stroke-width:1.0;" width="10" x="873" y="265.3672"/><rect fill="#FFFFFF" height="299.25" style="stroke:#181818;stroke-width:1.0;" width="10" x="873" y="877.1875"/><polygon fill="#181818" points="212,112.9121,222,116.9121,212,120.9121,216,116.9121" style="stroke:#181818;stroke-width:1.0;"/><line style="stroke:#181818;stroke-width:1.0;" x1="56" x2="218" y1="116.9121" y2="116.9121"/><text fill="#000000" font-family="sans-serif" font-size="13" font-weight="bold" lengthAdjust="spacing" textLength="7" x="63" y="111.6494">1</text><text fill="#000000" font-family="sans-serif" font-size="13" lengthAdjust="spacing" textLength="138" x="74" y="111.6494">wants to delete account</text><polygon fill="#181818" points="322,144.2031,332,148.2031,322,152.2031,326,148.2031" style="stroke:#181818;stroke-width:1.0;"/><line style="stroke:#181818;stroke-width:1.0;" x1="234" x2="328" y1="148.2031" y2="148.2031"/><text fill="#000000" font-family="sans-serif" font-size="13" font-weight="bold" lengthAdjust="spacing" textLength="7" x="241" y="142.9404">2</text><text fill="#000000" font-family="sans-serif" font-size="13" lengthAdjust="spacing" textLength="56" x="252" y="142.9404">ngOnInit()</text><path d="M349,161.2031 L349,205.2031 L552,205.2031 L552,171.2031 L542,161.2031 L349,161.2031 " fill="#FEFFDD" style="stroke:#181818;stroke-width:0.5;"/><path d="M542,161.2031 L542,171.2031 L552,171.2031 L542,161.2031 " fill="#FEFFDD" style="stroke:#181818;stroke-width:0.5;"/><text fill="#000000" font-family="sans-serif" font-size="13" lengthAdjust="spacing" textLength="178" x="355" y="180.2314">client email should be retrieved</text><text fill="#000000" font-family="sans-serif" font-size="13" lengthAdjust="spacing" textLength="133" x="355" y="197.5225">from the active session</text><polygon fill="#181818" points="463,230.0762,473,234.0762,463,238.0762,467,234.0762" style="stroke:#181818;stroke-width:1.0;"/><line style="stroke:#181818;stroke-width:1.0;" x1="344" x2="469" y1="234.0762" y2="234.0762"/><text fill="#000000" font-family="sans-serif" font-size="13" font-weight="bold" lengthAdjust="spacing" textLength="7" x="351" y="228.8135">3</text><text fill="#000000" font-family="sans-serif" font-size="13" lengthAdjust="spacing" textLength="90" x="362" y="228.8135">getClient(email)</text><polygon fill="#181818" points="861,261.3672,871,265.3672,861,269.3672,865,265.3672" style="stroke:#181818;stroke-width:1.0;"/><line style="stroke:#181818;stroke-width:1.0;" x1="485" x2="867" y1="265.3672" y2="265.3672"/><text fill="#000000" font-family="sans-serif" font-size="13" font-weight="bold" lengthAdjust="spacing" textLength="7" x="492" y="260.1045">4</text><text fill="#000000" font-family="sans-serif" font-size="13" lengthAdjust="spacing" textLength="59" x="503" y="260.1045">getClient()</text><polygon fill="#181818" points="1059,292.6582,1069,296.6582,1059,300.6582,1063,296.6582" style="stroke:#181818;stroke-width:1.0;"/><line style="stroke:#181818;stroke-width:1.0;" x1="883" x2="1065" y1="296.6582" y2="296.6582"/><text fill="#000000" font-family="sans-serif" font-size="13" font-weight="bold" lengthAdjust="spacing" textLength="7" x="890" y="291.3955">5</text><text fill="#000000" font-family="sans-serif" font-size="13" lengthAdjust="spacing" textLength="115" x="901" y="291.3955">GET /clients/{email}</text><path d="M10,311.6582 L71,311.6582 L71,320.9492 L61,330.9492 L10,330.9492 L10,311.6582 " fill="#EEEEEE" style="stroke:#000000;stroke-width:1.5;"/><rect fill="none" height="996.9434" style="stroke:#000000;stroke-width:1.5;" width="1051" x="10" y="311.6582"/><text fill="#000000" font-family="sans-serif" font-size="13" font-weight="bold" lengthAdjust="spacing" textLength="16" x="25" y="326.6865">alt</text><text fill="#000000" font-family="sans-serif" font-size="11" font-weight="bold" lengthAdjust="spacing" textLength="94" x="86" y="325.5283">[client not found]</text><polygon fill="#181818" points="894,350.2402,884,354.2402,894,358.2402,890,354.2402" style="stroke:#181818;stroke-width:1.0;"/><line style="stroke:#181818;stroke-width:1.0;stroke-dasharray:2.0,2.0;" x1="888" x2="1070" y1="354.2402" y2="354.2402"/><text fill="#000000" font-family="sans-serif" font-size="13" font-weight="bold" lengthAdjust="spacing" textLength="7" x="900" y="348.9775">6</text><text fill="#000000" font-family="sans-serif" font-size="13" lengthAdjust="spacing" textLength="55" x="911" y="348.9775">404: error</text><polygon fill="#181818" points="496,381.5313,486,385.5313,496,389.5313,492,385.5313" style="stroke:#181818;stroke-width:1.0;"/><line style="stroke:#181818;stroke-width:1.0;stroke-dasharray:2.0,2.0;" x1="490" x2="872" y1="385.5313" y2="385.5313"/><text fill="#000000" font-family="sans-serif" font-size="13" font-weight="bold" lengthAdjust="spacing" textLength="7" x="502" y="380.2686">7</text><text fill="#000000" font-family="sans-serif" font-size="13" lengthAdjust="spacing" textLength="61" x="513" y="380.2686">observable</text><polygon fill="#181818" points="355,415.8223,345,419.8223,355,423.8223,351,419.8223" style="stroke:#181818;stroke-width:1.0;"/><line style="stroke:#181818;stroke-width:1.0;stroke-dasharray:2.0,2.0;" x1="349" x2="474" y1="419.8223" y2="419.8223"/><text fill="#000000" font-family="sans-serif" font-size="13" font-weight="bold" lengthAdjust="spacing" textLength="7" x="361" y="414.5596">8</text><text fill="#000000" font-family="sans-serif" font-size="13" lengthAdjust="spacing" textLength="26" x="372" y="414.5596">error</text><path d="M100,398.5313 L100,425.5313 L329,425.5313 L329,408.5313 L319,398.5313 L100,398.5313 " fill="#FEFFDD" style="stroke:#181818;stroke-width:0.5;"/><path d="M319,398.5313 L319,408.5313 L329,408.5313 L319,398.5313 " fill="#FEFFDD" style="stroke:#181818;stroke-width:0.5;"/><text fill="#000000" font-family="sans-serif" font-size="13" lengthAdjust="spacing" textLength="208" x="106" y="417.5596">creates alert with the error message</text><polygon fill="#181818" points="245,450.1133,235,454.1133,245,458.1133,241,454.1133" style="stroke:#181818;stroke-width:1.0;"/><line style="stroke:#181818;stroke-width:1.0;stroke-dasharray:2.0,2.0;" x1="239" x2="333" y1="454.1133" y2="454.1133"/><text fill="#000000" font-family="sans-serif" font-size="13" font-weight="bold" lengthAdjust="spacing" textLength="7" x="251" y="448.8506">9</text><text fill="#000000" font-family="sans-serif" font-size="13" lengthAdjust="spacing" textLength="25" x="262" y="448.8506">alert</text><polygon fill="#181818" points="67,481.4043,57,485.4043,67,489.4043,63,485.4043" style="stroke:#181818;stroke-width:1.0;"/><line style="stroke:#181818;stroke-width:1.0;stroke-dasharray:2.0,2.0;" x1="61" x2="223" y1="485.4043" y2="485.4043"/><text fill="#000000" font-family="sans-serif" font-size="13" font-weight="bold" lengthAdjust="spacing" textLength="14" x="73" y="480.1416">10</text><text fill="#000000" font-family="sans-serif" font-size="13" lengthAdjust="spacing" textLength="72" x="91" y="480.1416">informs error</text><line style="stroke:#000000;stroke-width:1.0;stroke-dasharray:2.0,2.0;" x1="10" x2="1061" y1="494.4043" y2="494.4043"/><text fill="#000000" font-family="sans-serif" font-size="11" font-weight="bold" lengthAdjust="spacing" textLength="73" x="15" y="506.2744">[client found]</text><polygon fill="#181818" points="894,529.3262,884,533.3262,894,537.3262,890,533.3262" style="stroke:#181818;stroke-width:1.0;"/><line style="stroke:#181818;stroke-width:1.0;stroke-dasharray:2.0,2.0;" x1="888" x2="1070" y1="533.3262" y2="533.3262"/><text fill="#000000" font-family="sans-serif" font-size="13" font-weight="bold" lengthAdjust="spacing" textLength="14" x="900" y="528.0635">11</text><text fill="#000000" font-family="sans-serif" font-size="13" lengthAdjust="spacing" textLength="60" x="918" y="528.0635">200: client</text><polygon fill="#181818" points="496,560.6172,486,564.6172,496,568.6172,492,564.6172" style="stroke:#181818;stroke-width:1.0;"/><line style="stroke:#181818;stroke-width:1.0;stroke-dasharray:2.0,2.0;" x1="490" x2="877" y1="564.6172" y2="564.6172"/><text fill="#000000" font-family="sans-serif" font-size="13" font-weight="bold" lengthAdjust="spacing" textLength="14" x="502" y="559.3545">12</text><text fill="#000000" font-family="sans-serif" font-size="13" lengthAdjust="spacing" textLength="61" x="520" y="559.3545">observable</text><polygon fill="#181818" points="559,591.9082,569,595.9082,559,599.9082,563,595.9082" style="stroke:#181818;stroke-width:1.0;"/><line style="stroke:#181818;stroke-width:1.0;stroke-dasharray:2.0,2.0;" x1="485" x2="565" y1="595.9082" y2="595.9082"/><text fill="#000000" font-family="sans-serif" font-size="13" font-weight="bold" lengthAdjust="spacing" textLength="14" x="492" y="590.6455">13</text><text fill="#000000" font-family="sans-serif" font-size="13" lengthAdjust="spacing" textLength="44" x="510" y="590.6455">create()</text><rect fill="#E2E2F0" height="51.2422" rx="2.5" ry="2.5" style="stroke:#181818;stroke-width:0.5;" width="134" x="571" y="572.6172"/><text fill="#000000" font-family="sans-serif" font-size="14" lengthAdjust="spacing" textLength="24" x="626" y="594.7246">dto:</text><text fill="#000000" font-family="sans-serif" font-size="14" lengthAdjust="spacing" textLength="120" x="578" y="613.3457">ICreatedClientDTO</text><polygon fill="#181818" points="496,654.1504,486,658.1504,496,662.1504,492,658.1504" style="stroke:#181818;stroke-width:1.0;"/><line style="stroke:#181818;stroke-width:1.0;stroke-dasharray:2.0,2.0;" x1="490" x2="637" y1="658.1504" y2="658.1504"/><text fill="#000000" font-family="sans-serif" font-size="13" font-weight="bold" lengthAdjust="spacing" textLength="14" x="502" y="652.8877">14</text><text fill="#000000" font-family="sans-serif" font-size="13" lengthAdjust="spacing" textLength="18" x="520" y="652.8877">dto</text><polygon fill="#181818" points="355,685.4414,345,689.4414,355,693.4414,351,689.4414" style="stroke:#181818;stroke-width:1.0;"/><line style="stroke:#181818;stroke-width:1.0;stroke-dasharray:2.0,2.0;" x1="349" x2="479" y1="689.4414" y2="689.4414"/><text fill="#000000" font-family="sans-serif" font-size="13" font-weight="bold" lengthAdjust="spacing" textLength="14" x="361" y="684.1787">15</text><text fill="#000000" font-family="sans-serif" font-size="13" lengthAdjust="spacing" textLength="18" x="379" y="684.1787">dto</text><polygon fill="#181818" points="245,716.7324,235,720.7324,245,724.7324,241,720.7324" style="stroke:#181818;stroke-width:1.0;"/><line style="stroke:#181818;stroke-width:1.0;stroke-dasharray:2.0,2.0;" x1="239" x2="338" y1="720.7324" y2="720.7324"/><text fill="#000000" font-family="sans-serif" font-size="13" font-weight="bold" lengthAdjust="spacing" textLength="14" x="251" y="715.4697">16</text><text fill="#000000" font-family="sans-serif" font-size="13" lengthAdjust="spacing" textLength="18" x="269" y="715.4697">dto</text><polygon fill="#181818" points="67,748.0234,57,752.0234,67,756.0234,63,752.0234" style="stroke:#181818;stroke-width:1.0;"/><line style="stroke:#181818;stroke-width:1.0;stroke-dasharray:2.0,2.0;" x1="61" x2="228" y1="752.0234" y2="752.0234"/><text fill="#000000" font-family="sans-serif" font-size="13" font-weight="bold" lengthAdjust="spacing" textLength="14" x="73" y="746.7607">17</text><text fill="#000000" font-family="sans-serif" font-size="13" lengthAdjust="spacing" textLength="109" x="91" y="746.7607">requests password</text><polygon fill="#181818" points="212,779.3145,222,783.3145,212,787.3145,216,783.3145" style="stroke:#181818;stroke-width:1.0;"/><line style="stroke:#181818;stroke-width:1.0;" x1="56" x2="218" y1="783.3145" y2="783.3145"/><text fill="#000000" font-family="sans-serif" font-size="13" font-weight="bold" lengthAdjust="spacing" textLength="14" x="63" y="778.0518">18</text><text fill="#000000" font-family="sans-serif" font-size="13" lengthAdjust="spacing" textLength="106" x="81" y="778.0518">provides password</text><polygon fill="#181818" points="322,810.6055,332,814.6055,322,818.6055,326,814.6055" style="stroke:#181818;stroke-width:1.0;"/><line style="stroke:#181818;stroke-width:1.0;" x1="234" x2="328" y1="814.6055" y2="814.6055"/><text fill="#000000" font-family="sans-serif" font-size="13" font-weight="bold" lengthAdjust="spacing" textLength="14" x="241" y="809.3428">19</text><text fill="#000000" font-family="sans-serif" font-size="13" lengthAdjust="spacing" textLength="63" x="259" y="809.3428">onSubmit()</text><polygon fill="#181818" points="463,841.8965,473,845.8965,463,849.8965,467,845.8965" style="stroke:#181818;stroke-width:1.0;"/><line style="stroke:#181818;stroke-width:1.0;" x1="344" x2="469" y1="845.8965" y2="845.8965"/><text fill="#000000" font-family="sans-serif" font-size="13" font-weight="bold" lengthAdjust="spacing" textLength="14" x="351" y="840.6338">20</text><text fill="#000000" font-family="sans-serif" font-size="13" lengthAdjust="spacing" textLength="94" x="369" y="840.6338">deleteClient(dto)</text><polygon fill="#181818" points="861,873.1875,871,877.1875,861,881.1875,865,877.1875" style="stroke:#181818;stroke-width:1.0;"/><line style="stroke:#181818;stroke-width:1.0;" x1="485" x2="867" y1="877.1875" y2="877.1875"/><text fill="#000000" font-family="sans-serif" font-size="13" font-weight="bold" lengthAdjust="spacing" textLength="14" x="492" y="871.9248">21</text><text fill="#000000" font-family="sans-serif" font-size="13" lengthAdjust="spacing" textLength="76" x="510" y="871.9248">deleteClient()</text><polygon fill="#181818" points="1059,904.4785,1069,908.4785,1059,912.4785,1063,908.4785" style="stroke:#181818;stroke-width:1.0;"/><line style="stroke:#181818;stroke-width:1.0;" x1="883" x2="1065" y1="908.4785" y2="908.4785"/><text fill="#000000" font-family="sans-serif" font-size="13" font-weight="bold" lengthAdjust="spacing" textLength="14" x="890" y="903.2158">22</text><text fill="#000000" font-family="sans-serif" font-size="13" lengthAdjust="spacing" textLength="139" x="908" y="903.2158">DELETE /clients/{email}</text><path d="M20,923.4785 L81,923.4785 L81,932.7695 L71,942.7695 L20,942.7695 L20,923.4785 " fill="#EEEEEE" style="stroke:#000000;stroke-width:1.5;"/><rect fill="none" height="378.123" style="stroke:#000000;stroke-width:1.5;" width="957" x="20" y="923.4785"/><text fill="#000000" font-family="sans-serif" font-size="13" font-weight="bold" lengthAdjust="spacing" textLength="16" x="35" y="938.5068">alt</text><text fill="#000000" font-family="sans-serif" font-size="11" font-weight="bold" lengthAdjust="spacing" textLength="136" x="96" y="937.3486">[wrong client password]</text><polygon fill="#181818" points="894,962.0605,884,966.0605,894,970.0605,890,966.0605" style="stroke:#181818;stroke-width:1.0;"/><line style="stroke:#181818;stroke-width:1.0;stroke-dasharray:2.0,2.0;" x1="888" x2="1070" y1="966.0605" y2="966.0605"/><text fill="#000000" font-family="sans-serif" font-size="13" font-weight="bold" lengthAdjust="spacing" textLength="14" x="900" y="960.7979">23</text><text fill="#000000" font-family="sans-serif" font-size="13" lengthAdjust="spacing" textLength="55" x="918" y="960.7979">422: error</text><polygon fill="#181818" points="496,993.3516,486,997.3516,496,1001.3516,492,997.3516" style="stroke:#181818;stroke-width:1.0;"/><line style="stroke:#181818;stroke-width:1.0;stroke-dasharray:2.0,2.0;" x1="490" x2="872" y1="997.3516" y2="997.3516"/><text fill="#000000" font-family="sans-serif" font-size="13" font-weight="bold" lengthAdjust="spacing" textLength="14" x="502" y="992.0889">24</text><text fill="#000000" font-family="sans-serif" font-size="13" lengthAdjust="spacing" textLength="61" x="520" y="992.0889">observable</text><polygon fill="#181818" points="355,1027.6426,345,1031.6426,355,1035.6426,351,1031.6426" style="stroke:#181818;stroke-width:1.0;"/><line style="stroke:#181818;stroke-width:1.0;stroke-dasharray:2.0,2.0;" x1="349" x2="474" y1="1031.6426" y2="1031.6426"/><text fill="#000000" font-family="sans-serif" font-size="13" font-weight="bold" lengthAdjust="spacing" textLength="14" x="361" y="1026.3799">25</text><text fill="#000000" font-family="sans-serif" font-size="13" lengthAdjust="spacing" textLength="26" x="379" y="1026.3799">error</text><path d="M100,1010.3516 L100,1037.3516 L329,1037.3516 L329,1020.3516 L319,1010.3516 L100,1010.3516 " fill="#FEFFDD" style="stroke:#181818;stroke-width:0.5;"/><path d="M319,1010.3516 L319,1020.3516 L329,1020.3516 L319,1010.3516 " fill="#FEFFDD" style="stroke:#181818;stroke-width:0.5;"/><text fill="#000000" font-family="sans-serif" font-size="13" lengthAdjust="spacing" textLength="208" x="106" y="1029.3799">creates alert with the error message</text><polygon fill="#181818" points="245,1061.9336,235,1065.9336,245,1069.9336,241,1065.9336" style="stroke:#181818;stroke-width:1.0;"/><line style="stroke:#181818;stroke-width:1.0;stroke-dasharray:2.0,2.0;" x1="239" x2="333" y1="1065.9336" y2="1065.9336"/><text fill="#000000" font-family="sans-serif" font-size="13" font-weight="bold" lengthAdjust="spacing" textLength="14" x="251" y="1060.6709">26</text><text fill="#000000" font-family="sans-serif" font-size="13" lengthAdjust="spacing" textLength="25" x="269" y="1060.6709">alert</text><polygon fill="#181818" points="67,1093.2246,57,1097.2246,67,1101.2246,63,1097.2246" style="stroke:#181818;stroke-width:1.0;"/><line style="stroke:#181818;stroke-width:1.0;stroke-dasharray:2.0,2.0;" x1="61" x2="223" y1="1097.2246" y2="1097.2246"/><text fill="#000000" font-family="sans-serif" font-size="13" font-weight="bold" lengthAdjust="spacing" textLength="14" x="73" y="1091.9619">27</text><text fill="#000000" font-family="sans-serif" font-size="13" lengthAdjust="spacing" textLength="72" x="91" y="1091.9619">informs error</text><line style="stroke:#000000;stroke-width:1.0;stroke-dasharray:2.0,2.0;" x1="20" x2="977" y1="1106.2246" y2="1106.2246"/><text fill="#000000" font-family="sans-serif" font-size="11" font-weight="bold" lengthAdjust="spacing" textLength="176" x="25" y="1118.0947">[success and  client logged out]</text><polygon fill="#181818" points="894,1141.1465,884,1145.1465,894,1149.1465,890,1145.1465" style="stroke:#181818;stroke-width:1.0;"/><line style="stroke:#181818;stroke-width:1.0;stroke-dasharray:2.0,2.0;" x1="888" x2="1070" y1="1145.1465" y2="1145.1465"/><text fill="#000000" font-family="sans-serif" font-size="13" font-weight="bold" lengthAdjust="spacing" textLength="14" x="900" y="1139.8838">28</text><text fill="#000000" font-family="sans-serif" font-size="13" lengthAdjust="spacing" textLength="48" x="918" y="1139.8838">200: OK</text><polygon fill="#181818" points="496,1172.4375,486,1176.4375,496,1180.4375,492,1176.4375" style="stroke:#181818;stroke-width:1.0;"/><line style="stroke:#181818;stroke-width:1.0;stroke-dasharray:2.0,2.0;" x1="490" x2="877" y1="1176.4375" y2="1176.4375"/><text fill="#000000" font-family="sans-serif" font-size="13" font-weight="bold" lengthAdjust="spacing" textLength="14" x="502" y="1171.1748">29</text><text fill="#000000" font-family="sans-serif" font-size="13" lengthAdjust="spacing" textLength="61" x="520" y="1171.1748">observable</text><polygon fill="#181818" points="355,1206.7285,345,1210.7285,355,1214.7285,351,1210.7285" style="stroke:#181818;stroke-width:1.0;"/><line style="stroke:#181818;stroke-width:1.0;stroke-dasharray:2.0,2.0;" x1="349" x2="479" y1="1210.7285" y2="1210.7285"/><text fill="#000000" font-family="sans-serif" font-size="13" font-weight="bold" lengthAdjust="spacing" textLength="14" x="361" y="1205.4658">30</text><text fill="#000000" font-family="sans-serif" font-size="13" lengthAdjust="spacing" textLength="19" x="379" y="1205.4658">OK</text><path d="M77,1189.4375 L77,1216.4375 L329,1216.4375 L329,1199.4375 L319,1189.4375 L77,1189.4375 " fill="#FEFFDD" style="stroke:#181818;stroke-width:0.5;"/><path d="M319,1189.4375 L319,1199.4375 L329,1199.4375 L319,1189.4375 " fill="#FEFFDD" style="stroke:#181818;stroke-width:0.5;"/><text fill="#000000" font-family="sans-serif" font-size="13" lengthAdjust="spacing" textLength="231" x="83" y="1208.4658">creates alert with the success operation</text><polygon fill="#181818" points="245,1241.0195,235,1245.0195,245,1249.0195,241,1245.0195" style="stroke:#181818;stroke-width:1.0;"/><line style="stroke:#181818;stroke-width:1.0;stroke-dasharray:2.0,2.0;" x1="239" x2="338" y1="1245.0195" y2="1245.0195"/><text fill="#000000" font-family="sans-serif" font-size="13" font-weight="bold" lengthAdjust="spacing" textLength="14" x="251" y="1239.7568">31</text><text fill="#000000" font-family="sans-serif" font-size="13" lengthAdjust="spacing" textLength="25" x="269" y="1239.7568">alert</text><polygon fill="#181818" points="62,1289.6016,52,1293.6016,62,1297.6016,58,1293.6016" style="stroke:#181818;stroke-width:1.0;"/><line style="stroke:#181818;stroke-width:1.0;stroke-dasharray:2.0,2.0;" x1="56" x2="228" y1="1293.6016" y2="1293.6016"/><text fill="#000000" font-family="sans-serif" font-size="13" font-weight="bold" lengthAdjust="spacing" textLength="14" x="68" y="1279.6934">32</text><text fill="#000000" font-family="sans-serif" font-size="13" lengthAdjust="spacing" textLength="106" x="86" y="1271.0479">success message</text><text fill="#000000" font-family="sans-serif" font-size="13" lengthAdjust="spacing" textLength="121" x="86" y="1288.3389">and  logout message</text><!--SRC=[xLPDQzj04BtxLmm-nG4JOt8o9HVRjA455s9wIYbhQImlIBlgxaW-bFxtZaOVaHHPCKsFNJ0ssZTlPzxiF5bbP4sM7D1D9YeWws2wZZKQceBoa7b-d2f7Ej2fCWJJRnhFifNpZ-xMsXfoDexH2I0W5_U2dz3bEa3PzddGsmt9hfxDuzgX8WpBB3RxNKcM_k3jGVmsrDG5Oo3WBlhJVlyLDaxdLNedebHArZaV9vK2B_w6-ODK1oiuSwW7iX1YZ8nIGM0pGu9iGaK9g9O4Ca5HFHEOQ6SUZQQRMODeuaIW-gcn_CJfw4HWZtLq86K19ah7u4ysYqCuC0p9QSmnX6TpT3O1Ec59Y-3HUsrDmriiOUESM78cZR2IwqPuPnrearpH7kYj8fvf2kKwFBDNo8P6L8Q19IJpX-zCz76xXxkoL7_tIvBwFL4nrUMpD71asSFBH1_cyuBfVd6_0dJEkf4p6o7imVDzL8SO1z5IxKidBzDAws8yKj4nkRmU54y1mLdJIPeZmP1mRrGqV5hPevUR9mI3oFA6CRAugYlGvcXTuglyCFPOwtQTPil5ehvexnGjnF6sDuBABD_UDdADNQ1gy0SbawrMRaF0Lb8Ng7fzxaDQ1FsPwFUi7Te-jptdlUuv_9cXPuz9bVTdwyf-jOB5N0QSANKsro7s0g_o96kUiaCouacJ4VSeZR0QV2xuh-sZG_HE1zbilsptss4JEJjhedeaEcADEibo-Tz9k8rP4F1He4m8jOQnZI9-zTYChlEMtUT_x2jlJN3lm941laBlMW6RebCq_6RjQttH12wvG7r8rLP-hOlWh3Iht6dsAsVWrNfM_8j1Ddt-_040]--></g></svg>