<?xml version="1.0" encoding="us-ascii" standalone="no"?><svg xmlns="http://www.w3.org/2000/svg" xmlns:xlink="http://www.w3.org/1999/xlink" contentStyleType="text/css" height="572px" preserveAspectRatio="none" style="width:463px;height:572px;background:#FFFFFF;" version="1.1" viewBox="0 0 463 572" width="463px" zoomAndPan="magnify"><defs/><g><rect fill="#FFFFFF" height="384.73" style="stroke:#181818;stroke-width:1.0;" width="10" x="69" y="94.0679"/><rect fill="#FFFFFF" height="31.706" style="stroke:#181818;stroke-width:1.0;" width="10" x="300" y="117.7739"/><rect fill="#FFFFFF" height="297.6119" style="stroke:#181818;stroke-width:1.0;" width="10" x="300" y="181.186"/><rect fill="#FFFFFF" height="265.9059" style="stroke:#181818;stroke-width:1.0;" width="10" x="418" y="212.892"/><rect fill="none" height="243.9059" style="stroke:#000000;stroke-width:1.5;" width="446" x="10" y="227.892"/><line style="stroke:#181818;stroke-width:0.5;stroke-dasharray:5.0,5.0;" x1="74" x2="74" y1="84.0679" y2="488.7979"/><line style="stroke:#181818;stroke-width:0.5;stroke-dasharray:5.0,5.0;" x1="304.5" x2="304.5" y1="84.0679" y2="488.7979"/><line style="stroke:#181818;stroke-width:0.5;stroke-dasharray:5.0,5.0;" x1="423" x2="423" y1="84.0679" y2="488.7979"/><text fill="#000000" font-family="sans-serif" font-size="14" lengthAdjust="spacing" textLength="102" x="20" y="79.9659">Potential Client</text><ellipse cx="74" cy="13.5" fill="#E2E2F0" rx="8" ry="8" style="stroke:#181818;stroke-width:0.5;"/><path d="M74,21.5 L74,48.5 M61,29.5 L87,29.5 M74,48.5 L61,63.5 M74,48.5 L87,63.5 " fill="none" style="stroke:#181818;stroke-width:0.5;"/><text fill="#000000" font-family="sans-serif" font-size="14" lengthAdjust="spacing" textLength="102" x="20" y="502.7638">Potential Client</text><ellipse cx="74" cy="515.3658" fill="#E2E2F0" rx="8" ry="8" style="stroke:#181818;stroke-width:0.5;"/><path d="M74,523.3658 L74,550.3658 M61,531.3658 L87,531.3658 M74,550.3658 L61,565.3658 M74,550.3658 L87,565.3658 " fill="none" style="stroke:#181818;stroke-width:0.5;"/><rect fill="#E2E2F0" height="33.0679" rx="2.5" ry="2.5" style="stroke:#181818;stroke-width:0.5;" width="39" x="285.5" y="50"/><text fill="#000000" font-family="sans-serif" font-size="14" lengthAdjust="spacing" textLength="25" x="292.5" y="71.9659">SPA</text><rect fill="#E2E2F0" height="33.0679" rx="2.5" ry="2.5" style="stroke:#181818;stroke-width:0.5;" width="39" x="285.5" y="487.7979"/><text fill="#000000" font-family="sans-serif" font-size="14" lengthAdjust="spacing" textLength="25" x="292.5" y="509.7638">SPA</text><rect fill="#E2E2F0" height="33.0679" rx="2.5" ry="2.5" style="stroke:#181818;stroke-width:0.5;" width="46" x="400" y="50"/><text fill="#000000" font-family="sans-serif" font-size="14" lengthAdjust="spacing" textLength="32" x="407" y="71.9659">MDR</text><rect fill="#E2E2F0" height="33.0679" rx="2.5" ry="2.5" style="stroke:#181818;stroke-width:0.5;" width="46" x="400" y="487.7979"/><text fill="#000000" font-family="sans-serif" font-size="14" lengthAdjust="spacing" textLength="32" x="407" y="509.7638">MDR</text><rect fill="#FFFFFF" height="384.73" style="stroke:#181818;stroke-width:1.0;" width="10" x="69" y="94.0679"/><rect fill="#FFFFFF" height="31.706" style="stroke:#181818;stroke-width:1.0;" width="10" x="300" y="117.7739"/><rect fill="#FFFFFF" height="297.6119" style="stroke:#181818;stroke-width:1.0;" width="10" x="300" y="181.186"/><rect fill="#FFFFFF" height="265.9059" style="stroke:#181818;stroke-width:1.0;" width="10" x="418" y="212.892"/><polygon fill="#181818" points="288,113.7739,298,117.7739,288,121.7739,292,117.7739" style="stroke:#181818;stroke-width:1.0;"/><line style="stroke:#181818;stroke-width:1.0;" x1="79" x2="294" y1="117.7739" y2="117.7739"/><text fill="#000000" font-family="sans-serif" font-size="13" font-weight="bold" lengthAdjust="spacing" textLength="7" x="86" y="111.9649">1</text><text fill="#000000" font-family="sans-serif" font-size="13" lengthAdjust="spacing" textLength="191" x="97" y="111.9649">wants to register as a client user</text><polygon fill="#181818" points="90,145.4799,80,149.4799,90,153.4799,86,149.4799" style="stroke:#181818;stroke-width:1.0;"/><line style="stroke:#181818;stroke-width:1.0;stroke-dasharray:2.0,2.0;" x1="84" x2="304" y1="149.4799" y2="149.4799"/><text fill="#000000" font-family="sans-serif" font-size="13" font-weight="bold" lengthAdjust="spacing" textLength="7" x="96" y="143.6709">2</text><text fill="#000000" font-family="sans-serif" font-size="13" lengthAdjust="spacing" textLength="76" x="107" y="143.6709">request data</text><polygon fill="#181818" points="288,177.186,298,181.186,288,185.186,292,181.186" style="stroke:#181818;stroke-width:1.0;"/><line style="stroke:#181818;stroke-width:1.0;" x1="79" x2="294" y1="181.186" y2="181.186"/><text fill="#000000" font-family="sans-serif" font-size="13" font-weight="bold" lengthAdjust="spacing" textLength="7" x="86" y="175.377">3</text><text fill="#000000" font-family="sans-serif" font-size="13" lengthAdjust="spacing" textLength="82" x="97" y="175.377">provides data</text><polygon fill="#181818" points="406,208.892,416,212.892,406,216.892,410,212.892" style="stroke:#181818;stroke-width:1.0;"/><line style="stroke:#181818;stroke-width:1.0;" x1="310" x2="412" y1="212.892" y2="212.892"/><text fill="#000000" font-family="sans-serif" font-size="13" font-weight="bold" lengthAdjust="spacing" textLength="7" x="317" y="207.083">4</text><text fill="#000000" font-family="sans-serif" font-size="13" lengthAdjust="spacing" textLength="78" x="328" y="207.083">POST /clients</text><path d="M10,227.892 L73,227.892 L73,237.598 L63,247.598 L10,247.598 L10,227.892 " fill="#EEEEEE" style="stroke:#000000;stroke-width:1.5;"/><rect fill="none" height="243.9059" style="stroke:#000000;stroke-width:1.5;" width="446" x="10" y="227.892"/><text fill="#000000" font-family="sans-serif" font-size="13" font-weight="bold" lengthAdjust="spacing" textLength="18" x="25" y="242.789">alt</text><text fill="#000000" font-family="sans-serif" font-size="11" font-weight="bold" lengthAdjust="spacing" textLength="111" x="88" y="241.6509">[user already exists]</text><polygon fill="#181818" points="321,267.304,311,271.304,321,275.304,317,271.304" style="stroke:#181818;stroke-width:1.0;"/><line style="stroke:#181818;stroke-width:1.0;stroke-dasharray:2.0,2.0;" x1="315" x2="417" y1="271.304" y2="271.304"/><text fill="#000000" font-family="sans-serif" font-size="13" font-weight="bold" lengthAdjust="spacing" textLength="7" x="327" y="265.495">5</text><text fill="#000000" font-family="sans-serif" font-size="13" lengthAdjust="spacing" textLength="57" x="338" y="265.495">422: error</text><polygon fill="#181818" points="90,299.01,80,303.01,90,307.01,86,303.01" style="stroke:#181818;stroke-width:1.0;"/><line style="stroke:#181818;stroke-width:1.0;stroke-dasharray:2.0,2.0;" x1="84" x2="299" y1="303.01" y2="303.01"/><text fill="#000000" font-family="sans-serif" font-size="13" font-weight="bold" lengthAdjust="spacing" textLength="7" x="96" y="297.201">6</text><text fill="#000000" font-family="sans-serif" font-size="13" lengthAdjust="spacing" textLength="79" x="107" y="297.201">informs error</text><line style="stroke:#000000;stroke-width:1.0;stroke-dasharray:2.0,2.0;" x1="10" x2="456" y1="312.01" y2="312.01"/><text fill="#000000" font-family="sans-serif" font-size="11" font-weight="bold" lengthAdjust="spacing" textLength="101" x="15" y="323.7689">[user not created]</text><polygon fill="#181818" points="321,347.6979,311,351.6979,321,355.6979,317,351.6979" style="stroke:#181818;stroke-width:1.0;"/><line style="stroke:#181818;stroke-width:1.0;stroke-dasharray:2.0,2.0;" x1="315" x2="417" y1="351.6979" y2="351.6979"/><text fill="#000000" font-family="sans-serif" font-size="13" font-weight="bold" lengthAdjust="spacing" textLength="7" x="327" y="345.8889">7</text><text fill="#000000" font-family="sans-serif" font-size="13" lengthAdjust="spacing" textLength="57" x="338" y="345.8889">422: error</text><polygon fill="#181818" points="90,379.404,80,383.404,90,387.404,86,383.404" style="stroke:#181818;stroke-width:1.0;"/><line style="stroke:#181818;stroke-width:1.0;stroke-dasharray:2.0,2.0;" x1="84" x2="299" y1="383.404" y2="383.404"/><text fill="#000000" font-family="sans-serif" font-size="13" font-weight="bold" lengthAdjust="spacing" textLength="7" x="96" y="377.595">8</text><text fill="#000000" font-family="sans-serif" font-size="13" lengthAdjust="spacing" textLength="79" x="107" y="377.595">informs error</text><line style="stroke:#000000;stroke-width:1.0;stroke-dasharray:2.0,2.0;" x1="10" x2="456" y1="392.404" y2="392.404"/><text fill="#000000" font-family="sans-serif" font-size="11" font-weight="bold" lengthAdjust="spacing" textLength="146" x="15" y="404.1629">[user created successfully]</text><polygon fill="#181818" points="321,428.0919,311,432.0919,321,436.0919,317,432.0919" style="stroke:#181818;stroke-width:1.0;"/><line style="stroke:#181818;stroke-width:1.0;stroke-dasharray:2.0,2.0;" x1="315" x2="417" y1="432.0919" y2="432.0919"/><text fill="#000000" font-family="sans-serif" font-size="13" font-weight="bold" lengthAdjust="spacing" textLength="7" x="327" y="426.2829">9</text><text fill="#000000" font-family="sans-serif" font-size="13" lengthAdjust="spacing" textLength="53" x="338" y="426.2829">201: user</text><polygon fill="#181818" points="90,459.7979,80,463.7979,90,467.7979,86,463.7979" style="stroke:#181818;stroke-width:1.0;"/><line style="stroke:#181818;stroke-width:1.0;stroke-dasharray:2.0,2.0;" x1="84" x2="299" y1="463.7979" y2="463.7979"/><text fill="#000000" font-family="sans-serif" font-size="13" font-weight="bold" lengthAdjust="spacing" textLength="14" x="96" y="457.9889">10</text><text fill="#000000" font-family="sans-serif" font-size="13" lengthAdjust="spacing" textLength="115" x="114" y="457.9889">shows created user</text><!--SRC=[lPBDJiCm48JlVOfLxn4GSOfG9GHNH4Hv0MDlmL9Y1- -wfM_FnWxvKQ17V8djpCpdaQqYUnVRDmoRZTBi0snhp-ZOgWOU6YkpBIY2I2BeL62hRQSSmtPVt-S_Thd_zFYIzbiZZXHgZuen9O0C-KAn4njKS1870Ni8-6w9CVH61JfnHOdPCcNOj4un5ee-Hj8giNz690QZM2M5mRbdnUs2Frg3b0qN6Rk-28YdVjw_mbK-6esIqPRgmcoe9ZUGIK1bpe1VKf4McW5oLnG_bDkoh013yE4tuTJOkeCFBGtIXHORmansda4BdD7y9tP00aMjaUWGc-PyYLz1UNrJJTVz9vq-_8d6-9KUtLHpzW3wcrc_YVbANkOt]--></g></svg>