<?xml version="1.0" encoding="us-ascii" standalone="no"?><svg xmlns="http://www.w3.org/2000/svg" xmlns:xlink="http://www.w3.org/1999/xlink" contentStyleType="text/css" height="1350px" preserveAspectRatio="none" style="width:1619px;height:1350px;background:#FFFFFF;" version="1.1" viewBox="0 0 1619 1350" width="1619px" zoomAndPan="magnify"><defs/><g><!--cluster system--><g id="cluster_system"><path d="M8.5,6.0137 L58.5,6.0137 A3.75,3.75 0 0 1 61,8.5137 L68,30.6348 L1609.5,30.6348 A2.5,2.5 0 0 1 1612,33.1348 L1612,1341.0137 A2.5,2.5 0 0 1 1609.5,1343.5137 L8.5,1343.5137 A2.5,2.5 0 0 1 6,1341.0137 L6,8.5137 A2.5,2.5 0 0 1 8.5,6.0137 " fill="none" style="stroke:#000000;stroke-width:1.5;"/><line style="stroke:#000000;stroke-width:1.5;" x1="6" x2="68" y1="30.6348" y2="30.6348"/><text fill="#000000" font-family="sans-serif" font-size="14" font-weight="bold" lengthAdjust="spacing" textLength="49" x="10" y="23.1211">system</text></g><!--cluster Infrastructure--><g id="cluster_Infrastructure"><path d="M164.5,51.0137 L262.5,51.0137 A3.75,3.75 0 0 1 265,53.5137 L272,75.6348 L632.5,75.6348 A2.5,2.5 0 0 1 635,78.1348 L635,218.5137 A2.5,2.5 0 0 1 632.5,221.0137 L164.5,221.0137 A2.5,2.5 0 0 1 162,218.5137 L162,53.5137 A2.5,2.5 0 0 1 164.5,51.0137 " fill="none" style="stroke:#000000;stroke-width:1.5;"/><line style="stroke:#000000;stroke-width:1.5;" x1="162" x2="272" y1="75.6348" y2="75.6348"/><text fill="#000000" font-family="sans-serif" font-size="14" font-weight="bold" lengthAdjust="spacing" textLength="97" x="166" y="68.1211">Infrastructure</text></g><!--cluster Routes--><g id="cluster_Routes"><path d="M461.5,96.0137 L512.5,96.0137 A3.75,3.75 0 0 1 515,98.5137 L522,120.6348 L608.5,120.6348 A2.5,2.5 0 0 1 611,123.1348 L611,194.5137 A2.5,2.5 0 0 1 608.5,197.0137 L461.5,197.0137 A2.5,2.5 0 0 1 459,194.5137 L459,98.5137 A2.5,2.5 0 0 1 461.5,96.0137 " fill="none" style="stroke:#000000;stroke-width:1.5;"/><line style="stroke:#000000;stroke-width:1.5;" x1="459" x2="522" y1="120.6348" y2="120.6348"/><text fill="#000000" font-family="sans-serif" font-size="14" font-weight="bold" lengthAdjust="spacing" textLength="50" x="463" y="113.1211">Routes</text></g><!--cluster Persistence--><g id="cluster_Persistence"><path d="M188.5,96.0137 L273.5,96.0137 A3.75,3.75 0 0 1 276,98.5137 L283,120.6348 L432.5,120.6348 A2.5,2.5 0 0 1 435,123.1348 L435,194.5137 A2.5,2.5 0 0 1 432.5,197.0137 L188.5,197.0137 A2.5,2.5 0 0 1 186,194.5137 L186,98.5137 A2.5,2.5 0 0 1 188.5,96.0137 " fill="none" style="stroke:#000000;stroke-width:1.5;"/><line style="stroke:#000000;stroke-width:1.5;" x1="186" x2="283" y1="120.6348" y2="120.6348"/><text fill="#000000" font-family="sans-serif" font-size="14" font-weight="bold" lengthAdjust="spacing" textLength="84" x="190" y="113.1211">Persistence</text></g><!--cluster Interface Adapters--><g id="cluster_Interface Adapters"><path d="M32.5,245.0137 L163.5,245.0137 A3.75,3.75 0 0 1 166,247.5137 L173,269.6348 L475.5,269.6348 A2.5,2.5 0 0 1 478,272.1348 L478,696.5137 A2.5,2.5 0 0 1 475.5,699.0137 L32.5,699.0137 A2.5,2.5 0 0 1 30,696.5137 L30,247.5137 A2.5,2.5 0 0 1 32.5,245.0137 " fill="none" style="stroke:#000000;stroke-width:1.5;"/><line style="stroke:#000000;stroke-width:1.5;" x1="30" x2="173" y1="269.6348" y2="269.6348"/><text fill="#000000" font-family="sans-serif" font-size="14" font-weight="bold" lengthAdjust="spacing" textLength="130" x="34" y="262.1211">Interface Adapters</text></g><!--cluster Controllers--><g id="cluster_Controllers"><path d="M56.5,290.0137 L136.5,290.0137 A3.75,3.75 0 0 1 139,292.5137 L146,314.6348 L279.5,314.6348 A2.5,2.5 0 0 1 282,317.1348 L282,672.5137 A2.5,2.5 0 0 1 279.5,675.0137 L56.5,675.0137 A2.5,2.5 0 0 1 54,672.5137 L54,292.5137 A2.5,2.5 0 0 1 56.5,290.0137 " fill="none" style="stroke:#000000;stroke-width:1.5;"/><line style="stroke:#000000;stroke-width:1.5;" x1="54" x2="146" y1="314.6348" y2="314.6348"/><text fill="#000000" font-family="sans-serif" font-size="14" font-weight="bold" lengthAdjust="spacing" textLength="79" x="58" y="307.1211">Controllers</text></g><!--cluster IControllers--><g id="cluster_IControllers"><path d="M80.5,335.0137 L164.5,335.0137 A3.75,3.75 0 0 1 167,337.5137 L174,359.6348 L255.5,359.6348 A2.5,2.5 0 0 1 258,362.1348 L258,433.5137 A2.5,2.5 0 0 1 255.5,436.0137 L80.5,436.0137 A2.5,2.5 0 0 1 78,433.5137 L78,337.5137 A2.5,2.5 0 0 1 80.5,335.0137 " fill="none" style="stroke:#000000;stroke-width:1.5;"/><line style="stroke:#000000;stroke-width:1.5;" x1="78" x2="174" y1="359.6348" y2="359.6348"/><text fill="#000000" font-family="sans-serif" font-size="14" font-weight="bold" lengthAdjust="spacing" textLength="83" x="82" y="352.1211">IControllers</text></g><!--cluster ImplControllers--><g id="cluster_ImplControllers"><path d="M83.5,550.0137 L192.5,550.0137 A3.75,3.75 0 0 1 195,552.5137 L202,574.6348 L254.5,574.6348 A2.5,2.5 0 0 1 257,577.1348 L257,648.5137 A2.5,2.5 0 0 1 254.5,651.0137 L83.5,651.0137 A2.5,2.5 0 0 1 81,648.5137 L81,552.5137 A2.5,2.5 0 0 1 83.5,550.0137 " fill="none" style="stroke:#000000;stroke-width:1.5;"/><line style="stroke:#000000;stroke-width:1.5;" x1="81" x2="202" y1="574.6348" y2="574.6348"/><text fill="#000000" font-family="sans-serif" font-size="14" font-weight="bold" lengthAdjust="spacing" textLength="108" x="85" y="567.1211">ImplControllers</text></g><!--cluster Repositories--><g id="cluster_Repositories"><path d="M308.5,335.0137 L399.5,335.0137 A3.75,3.75 0 0 1 402,337.5137 L409,359.6348 L451.5,359.6348 A2.5,2.5 0 0 1 454,362.1348 L454,433.5137 A2.5,2.5 0 0 1 451.5,436.0137 L308.5,436.0137 A2.5,2.5 0 0 1 306,433.5137 L306,337.5137 A2.5,2.5 0 0 1 308.5,335.0137 " fill="none" style="stroke:#000000;stroke-width:1.5;"/><line style="stroke:#000000;stroke-width:1.5;" x1="306" x2="409" y1="359.6348" y2="359.6348"/><text fill="#000000" font-family="sans-serif" font-size="14" font-weight="bold" lengthAdjust="spacing" textLength="90" x="310" y="352.1211">Repositories</text></g><!--cluster Application Services--><g id="cluster_Application Services"><path d="M504.5,460.0137 L649.5,460.0137 A3.75,3.75 0 0 1 652,462.5137 L659,484.6348 L785.5,484.6348 A2.5,2.5 0 0 1 788,487.1348 L788,1099.0137 A2.5,2.5 0 0 1 785.5,1101.5137 L504.5,1101.5137 A2.5,2.5 0 0 1 502,1099.0137 L502,462.5137 A2.5,2.5 0 0 1 504.5,460.0137 " fill="none" style="stroke:#000000;stroke-width:1.5;"/><line style="stroke:#000000;stroke-width:1.5;" x1="502" x2="659" y1="484.6348" y2="484.6348"/><text fill="#000000" font-family="sans-serif" font-size="14" font-weight="bold" lengthAdjust="spacing" textLength="144" x="506" y="477.1211">Application Services</text></g><!--cluster App Services--><g id="cluster_App Services"><path d="M528.5,505.0137 L622.5,505.0137 A3.75,3.75 0 0 1 625,507.5137 L632,529.6348 L761.5,529.6348 A2.5,2.5 0 0 1 764,532.1348 L764,1075.0137 A2.5,2.5 0 0 1 761.5,1077.5137 L528.5,1077.5137 A2.5,2.5 0 0 1 526,1075.0137 L526,507.5137 A2.5,2.5 0 0 1 528.5,505.0137 " fill="none" style="stroke:#000000;stroke-width:1.5;"/><line style="stroke:#000000;stroke-width:1.5;" x1="526" x2="632" y1="529.6348" y2="529.6348"/><text fill="#000000" font-family="sans-serif" font-size="14" font-weight="bold" lengthAdjust="spacing" textLength="93" x="530" y="522.1211">App Services</text></g><!--cluster IAppServices--><g id="cluster_IAppServices"><path d="M552.5,952.5137 L646.5,952.5137 A3.75,3.75 0 0 1 649,955.0137 L656,977.1348 L737.5,977.1348 A2.5,2.5 0 0 1 740,979.6348 L740,1051.0137 A2.5,2.5 0 0 1 737.5,1053.5137 L552.5,1053.5137 A2.5,2.5 0 0 1 550,1051.0137 L550,955.0137 A2.5,2.5 0 0 1 552.5,952.5137 " fill="none" style="stroke:#000000;stroke-width:1.5;"/><line style="stroke:#000000;stroke-width:1.5;" x1="550" x2="656" y1="977.1348" y2="977.1348"/><text fill="#000000" font-family="sans-serif" font-size="14" font-weight="bold" lengthAdjust="spacing" textLength="93" x="554" y="969.6211">IAppServices</text></g><!--cluster ImplAppServices--><g id="cluster_ImplAppServices"><path d="M554.5,723.0137 L673.5,723.0137 A3.75,3.75 0 0 1 676,725.5137 L683,747.6348 L735.5,747.6348 A2.5,2.5 0 0 1 738,750.1348 L738,821.5137 A2.5,2.5 0 0 1 735.5,824.0137 L554.5,824.0137 A2.5,2.5 0 0 1 552,821.5137 L552,725.5137 A2.5,2.5 0 0 1 554.5,723.0137 " fill="none" style="stroke:#000000;stroke-width:1.5;"/><line style="stroke:#000000;stroke-width:1.5;" x1="552" x2="683" y1="747.6348" y2="747.6348"/><text fill="#000000" font-family="sans-serif" font-size="14" font-weight="bold" lengthAdjust="spacing" textLength="118" x="556" y="740.1211">ImplAppServices</text></g><!--cluster IRepositories--><g id="cluster_IRepositories"><path d="M561.5,550.0137 L656.5,550.0137 A3.75,3.75 0 0 1 659,552.5137 L666,574.6348 L708.5,574.6348 A2.5,2.5 0 0 1 711,577.1348 L711,648.5137 A2.5,2.5 0 0 1 708.5,651.0137 L561.5,651.0137 A2.5,2.5 0 0 1 559,648.5137 L559,552.5137 A2.5,2.5 0 0 1 561.5,550.0137 " fill="none" style="stroke:#000000;stroke-width:1.5;"/><line style="stroke:#000000;stroke-width:1.5;" x1="559" x2="666" y1="574.6348" y2="574.6348"/><text fill="#000000" font-family="sans-serif" font-size="14" font-weight="bold" lengthAdjust="spacing" textLength="94" x="563" y="567.1211">IRepositories</text></g><!--cluster Entities/Core/Domain--><g id="cluster_Entities/Core/Domain"><path d="M814.5,848.0137 L962.5,848.0137 A3.75,3.75 0 0 1 965,850.5137 L972,872.6348 L1585.5,872.6348 A2.5,2.5 0 0 1 1588,875.1348 L1588,1317.0137 A2.5,2.5 0 0 1 1585.5,1319.5137 L814.5,1319.5137 A2.5,2.5 0 0 1 812,1317.0137 L812,850.5137 A2.5,2.5 0 0 1 814.5,848.0137 " fill="none" style="stroke:#000000;stroke-width:1.5;"/><line style="stroke:#000000;stroke-width:1.5;" x1="812" x2="972" y1="872.6348" y2="872.6348"/><text fill="#000000" font-family="sans-serif" font-size="14" font-weight="bold" lengthAdjust="spacing" textLength="147" x="816" y="865.1211">Entities/Core/Domain</text></g><!--cluster Aggregates--><g id="cluster_Aggregates"><path d="M1064.5,893.0137 L1146.5,893.0137 A3.75,3.75 0 0 1 1149,895.5137 L1156,917.6348 L1221.5,917.6348 A2.5,2.5 0 0 1 1224,920.1348 L1224,1089.5137 A2.5,2.5 0 0 1 1221.5,1092.0137 L1064.5,1092.0137 A2.5,2.5 0 0 1 1062,1089.5137 L1062,895.5137 A2.5,2.5 0 0 1 1064.5,893.0137 " fill="none" style="stroke:#000000;stroke-width:1.5;"/><line style="stroke:#000000;stroke-width:1.5;" x1="1062" x2="1156" y1="917.6348" y2="917.6348"/><text fill="#000000" font-family="sans-serif" font-size="14" font-weight="bold" lengthAdjust="spacing" textLength="81" x="1066" y="910.1211">Aggregates</text></g><!--cluster a_building--><g id="cluster_a_building"><path d="M1088.5,938.0137 L1147.5,938.0137 A3.75,3.75 0 0 1 1150,940.5137 L1157,962.6348 L1197.5,962.6348 A2.5,2.5 0 0 1 1200,965.1348 L1200,1065.5137 A2.5,2.5 0 0 1 1197.5,1068.0137 L1088.5,1068.0137 A2.5,2.5 0 0 1 1086,1065.5137 L1086,940.5137 A2.5,2.5 0 0 1 1088.5,938.0137 " fill="none" style="stroke:#000000;stroke-width:1.5;"/><line style="stroke:#000000;stroke-width:1.5;" x1="1086" x2="1157" y1="962.6348" y2="962.6348"/><text fill="#000000" font-family="sans-serif" font-size="14" font-weight="bold" lengthAdjust="spacing" textLength="58" x="1090" y="955.1211">Building</text></g><!--cluster Value Objects--><g id="cluster_Value Objects"><path d="M838.5,1125.5137 L936.5,1125.5137 A3.75,3.75 0 0 1 939,1128.0137 L946,1150.1348 L1561.5,1150.1348 A2.5,2.5 0 0 1 1564,1152.6348 L1564,1293.0137 A2.5,2.5 0 0 1 1561.5,1295.5137 L838.5,1295.5137 A2.5,2.5 0 0 1 836,1293.0137 L836,1128.0137 A2.5,2.5 0 0 1 838.5,1125.5137 " fill="none" style="stroke:#000000;stroke-width:1.5;"/><line style="stroke:#000000;stroke-width:1.5;" x1="836" x2="946" y1="1150.1348" y2="1150.1348"/><text fill="#000000" font-family="sans-serif" font-size="14" font-weight="bold" lengthAdjust="spacing" textLength="97" x="840" y="1142.6211">Value Objects</text></g><!--cluster vo_building--><g id="cluster_vo_building"><path d="M862.5,1170.5137 L921.5,1170.5137 A3.75,3.75 0 0 1 924,1173.0137 L931,1195.1348 L1537.5,1195.1348 A2.5,2.5 0 0 1 1540,1197.6348 L1540,1269.0137 A2.5,2.5 0 0 1 1537.5,1271.5137 L862.5,1271.5137 A2.5,2.5 0 0 1 860,1269.0137 L860,1173.0137 A2.5,2.5 0 0 1 862.5,1170.5137 " fill="none" style="stroke:#000000;stroke-width:1.5;"/><line style="stroke:#000000;stroke-width:1.5;" x1="860" x2="931" y1="1195.1348" y2="1195.1348"/><text fill="#000000" font-family="sans-serif" font-size="14" font-weight="bold" lengthAdjust="spacing" textLength="58" x="864" y="1187.6211">Building</text></g><!--class RouteBuilding--><g id="elem_RouteBuilding"><rect codeLine="16" fill="#F1F1F1" height="48" id="RouteBuilding" rx="2.5" ry="2.5" style="stroke:#181818;stroke-width:0.5;" width="120" x="475" y="133.0137"/><ellipse cx="490" cy="149.0137" fill="#ADD1B2" rx="11" ry="11" style="stroke:#181818;stroke-width:1.0;"/><path d="M492.7656,144.8887 Q492.9219,144.6699 493.1094,144.5605 Q493.2969,144.4512 493.5156,144.4512 Q493.8906,144.4512 494.125,144.7168 Q494.3594,144.9668 494.3594,145.5762 L494.3594,147.0293 Q494.3594,147.6387 494.125,147.9043 Q493.8906,148.1699 493.5156,148.1699 Q493.1719,148.1699 492.9688,147.9668 Q492.7656,147.7793 492.6563,147.2637 Q492.6094,146.9043 492.4219,146.7168 Q492.0938,146.3418 491.4844,146.123 Q490.875,145.9043 490.25,145.9043 Q489.4844,145.9043 488.8438,146.2324 Q488.2188,146.5605 487.7188,147.3105 Q487.2344,148.0605 487.2344,149.0918 L487.2344,150.1855 Q487.2344,151.4199 488.125,152.248 Q489.0156,153.0605 490.6094,153.0605 Q491.5469,153.0605 492.2031,152.8105 Q492.5938,152.6543 493.0156,152.2168 Q493.2813,151.9512 493.4219,151.873 Q493.5781,151.7949 493.7813,151.7949 Q494.1094,151.7949 494.3594,152.0605 Q494.625,152.3105 494.625,152.6543 Q494.625,152.998 494.2813,153.4043 Q493.7813,153.9824 492.9844,154.3105 Q491.9063,154.7637 490.6094,154.7637 Q489.0938,154.7637 487.8906,154.1387 Q486.9063,153.6387 486.2188,152.5762 Q485.5313,151.498 485.5313,150.2168 L485.5313,149.0605 Q485.5313,147.7324 486.1406,146.5918 Q486.7656,145.4355 487.8594,144.8262 Q488.9531,144.2012 490.1875,144.2012 Q490.9219,144.2012 491.5625,144.373 Q492.2188,144.5293 492.7656,144.8887 Z " fill="#000000"/><text fill="#000000" font-family="sans-serif" font-size="14" lengthAdjust="spacing" textLength="88" x="504" y="154.8105">RouteBuilding</text><line style="stroke:#181818;stroke-width:0.5;" x1="476" x2="594" y1="165.0137" y2="165.0137"/><line style="stroke:#181818;stroke-width:0.5;" x1="476" x2="594" y1="173.0137" y2="173.0137"/></g><!--class IDBDriver--><g id="elem_IDBDriver"><rect codeLine="20" fill="#F1F1F1" height="48" id="IDBDriver" rx="2.5" ry="2.5" style="stroke:#181818;stroke-width:0.5;" width="92" x="327" y="133.0137"/><ellipse cx="342" cy="149.0137" fill="#B4A7E5" rx="11" ry="11" style="stroke:#181818;stroke-width:1.0;"/><path d="M342.9531,145.6543 L342.9531,152.3105 L344.6719,152.3105 Q345.2813,152.3105 345.5469,152.5449 Q345.8125,152.7793 345.8125,153.1699 Q345.8125,153.5449 345.5469,153.7793 Q345.2813,154.0137 344.6719,154.0137 L339.5313,154.0137 Q338.9219,154.0137 338.6563,153.7793 Q338.3906,153.5449 338.3906,153.1543 Q338.3906,152.7793 338.6563,152.5449 Q338.9219,152.3105 339.5313,152.3105 L341.25,152.3105 L341.25,145.6543 L339.5313,145.6543 Q338.9219,145.6543 338.6563,145.4199 Q338.3906,145.1855 338.3906,144.7949 Q338.3906,144.4199 338.6563,144.1855 Q338.9219,143.9512 339.5313,143.9512 L344.6719,143.9512 Q345.2813,143.9512 345.5469,144.1855 Q345.8125,144.4199 345.8125,144.7949 Q345.8125,145.1855 345.5469,145.4199 Q345.2813,145.6543 344.6719,145.6543 L342.9531,145.6543 Z " fill="#000000"/><text fill="#000000" font-family="sans-serif" font-size="14" font-style="italic" lengthAdjust="spacing" textLength="60" x="356" y="154.8105">IDBDriver</text><line style="stroke:#181818;stroke-width:0.5;" x1="328" x2="418" y1="165.0137" y2="165.0137"/><line style="stroke:#181818;stroke-width:0.5;" x1="328" x2="418" y1="173.0137" y2="173.0137"/></g><!--class DBDriver--><g id="elem_DBDriver"><rect codeLine="21" fill="#F1F1F1" height="48" id="DBDriver" rx="2.5" ry="2.5" style="stroke:#181818;stroke-width:0.5;" width="89" x="202.5" y="133.0137"/><ellipse cx="217.5" cy="149.0137" fill="#ADD1B2" rx="11" ry="11" style="stroke:#181818;stroke-width:1.0;"/><path d="M220.2656,144.8887 Q220.4219,144.6699 220.6094,144.5605 Q220.7969,144.4512 221.0156,144.4512 Q221.3906,144.4512 221.625,144.7168 Q221.8594,144.9668 221.8594,145.5762 L221.8594,147.0293 Q221.8594,147.6387 221.625,147.9043 Q221.3906,148.1699 221.0156,148.1699 Q220.6719,148.1699 220.4688,147.9668 Q220.2656,147.7793 220.1563,147.2637 Q220.1094,146.9043 219.9219,146.7168 Q219.5938,146.3418 218.9844,146.123 Q218.375,145.9043 217.75,145.9043 Q216.9844,145.9043 216.3438,146.2324 Q215.7188,146.5605 215.2188,147.3105 Q214.7344,148.0605 214.7344,149.0918 L214.7344,150.1855 Q214.7344,151.4199 215.625,152.248 Q216.5156,153.0605 218.1094,153.0605 Q219.0469,153.0605 219.7031,152.8105 Q220.0938,152.6543 220.5156,152.2168 Q220.7813,151.9512 220.9219,151.873 Q221.0781,151.7949 221.2813,151.7949 Q221.6094,151.7949 221.8594,152.0605 Q222.125,152.3105 222.125,152.6543 Q222.125,152.998 221.7813,153.4043 Q221.2813,153.9824 220.4844,154.3105 Q219.4063,154.7637 218.1094,154.7637 Q216.5938,154.7637 215.3906,154.1387 Q214.4063,153.6387 213.7188,152.5762 Q213.0313,151.498 213.0313,150.2168 L213.0313,149.0605 Q213.0313,147.7324 213.6406,146.5918 Q214.2656,145.4355 215.3594,144.8262 Q216.4531,144.2012 217.6875,144.2012 Q218.4219,144.2012 219.0625,144.373 Q219.7188,144.5293 220.2656,144.8887 Z " fill="#000000"/><text fill="#000000" font-family="sans-serif" font-size="14" lengthAdjust="spacing" textLength="57" x="231.5" y="154.8105">DBDriver</text><line style="stroke:#181818;stroke-width:0.5;" x1="203.5" x2="290.5" y1="165.0137" y2="165.0137"/><line style="stroke:#181818;stroke-width:0.5;" x1="203.5" x2="290.5" y1="173.0137" y2="173.0137"/></g><!--class IControllerBuilding--><g id="elem_IControllerBuilding"><rect codeLine="30" fill="#F1F1F1" height="48" id="IControllerBuilding" rx="2.5" ry="2.5" style="stroke:#181818;stroke-width:0.5;" width="148" x="94" y="372.0137"/><ellipse cx="109" cy="388.0137" fill="#B4A7E5" rx="11" ry="11" style="stroke:#181818;stroke-width:1.0;"/><path d="M109.9531,384.6543 L109.9531,391.3105 L111.6719,391.3105 Q112.2813,391.3105 112.5469,391.5449 Q112.8125,391.7793 112.8125,392.1699 Q112.8125,392.5449 112.5469,392.7793 Q112.2813,393.0137 111.6719,393.0137 L106.5313,393.0137 Q105.9219,393.0137 105.6563,392.7793 Q105.3906,392.5449 105.3906,392.1543 Q105.3906,391.7793 105.6563,391.5449 Q105.9219,391.3105 106.5313,391.3105 L108.25,391.3105 L108.25,384.6543 L106.5313,384.6543 Q105.9219,384.6543 105.6563,384.4199 Q105.3906,384.1855 105.3906,383.7949 Q105.3906,383.4199 105.6563,383.1855 Q105.9219,382.9512 106.5313,382.9512 L111.6719,382.9512 Q112.2813,382.9512 112.5469,383.1855 Q112.8125,383.4199 112.8125,383.7949 Q112.8125,384.1855 112.5469,384.4199 Q112.2813,384.6543 111.6719,384.6543 L109.9531,384.6543 Z " fill="#000000"/><text fill="#000000" font-family="sans-serif" font-size="14" font-style="italic" lengthAdjust="spacing" textLength="116" x="123" y="393.8105">IControllerBuilding</text><line style="stroke:#181818;stroke-width:0.5;" x1="95" x2="241" y1="404.0137" y2="404.0137"/><line style="stroke:#181818;stroke-width:0.5;" x1="95" x2="241" y1="412.0137" y2="412.0137"/></g><!--class ControllerBuilding--><g id="elem_ControllerBuilding"><rect codeLine="34" fill="#F1F1F1" height="48" id="ControllerBuilding" rx="2.5" ry="2.5" style="stroke:#181818;stroke-width:0.5;" width="144" x="97" y="587.0137"/><ellipse cx="112" cy="603.0137" fill="#ADD1B2" rx="11" ry="11" style="stroke:#181818;stroke-width:1.0;"/><path d="M114.7656,598.8887 Q114.9219,598.6699 115.1094,598.5605 Q115.2969,598.4512 115.5156,598.4512 Q115.8906,598.4512 116.125,598.7168 Q116.3594,598.9668 116.3594,599.5762 L116.3594,601.0293 Q116.3594,601.6387 116.125,601.9043 Q115.8906,602.1699 115.5156,602.1699 Q115.1719,602.1699 114.9688,601.9668 Q114.7656,601.7793 114.6563,601.2637 Q114.6094,600.9043 114.4219,600.7168 Q114.0938,600.3418 113.4844,600.123 Q112.875,599.9043 112.25,599.9043 Q111.4844,599.9043 110.8438,600.2324 Q110.2188,600.5605 109.7188,601.3105 Q109.2344,602.0605 109.2344,603.0918 L109.2344,604.1855 Q109.2344,605.4199 110.125,606.248 Q111.0156,607.0605 112.6094,607.0605 Q113.5469,607.0605 114.2031,606.8105 Q114.5938,606.6543 115.0156,606.2168 Q115.2813,605.9512 115.4219,605.873 Q115.5781,605.7949 115.7813,605.7949 Q116.1094,605.7949 116.3594,606.0605 Q116.625,606.3105 116.625,606.6543 Q116.625,606.998 116.2813,607.4043 Q115.7813,607.9824 114.9844,608.3105 Q113.9063,608.7637 112.6094,608.7637 Q111.0938,608.7637 109.8906,608.1387 Q108.9063,607.6387 108.2188,606.5762 Q107.5313,605.498 107.5313,604.2168 L107.5313,603.0605 Q107.5313,601.7324 108.1406,600.5918 Q108.7656,599.4355 109.8594,598.8262 Q110.9531,598.2012 112.1875,598.2012 Q112.9219,598.2012 113.5625,598.373 Q114.2188,598.5293 114.7656,598.8887 Z " fill="#000000"/><text fill="#000000" font-family="sans-serif" font-size="14" lengthAdjust="spacing" textLength="112" x="126" y="608.8105">ControllerBuilding</text><line style="stroke:#181818;stroke-width:0.5;" x1="98" x2="240" y1="619.0137" y2="619.0137"/><line style="stroke:#181818;stroke-width:0.5;" x1="98" x2="240" y1="627.0137" y2="627.0137"/></g><!--class RepoBuilding--><g id="elem_RepoBuilding"><rect codeLine="40" fill="#F1F1F1" height="48" id="RepoBuilding" rx="2.5" ry="2.5" style="stroke:#181818;stroke-width:0.5;" width="116" x="322" y="372.0137"/><ellipse cx="337" cy="388.0137" fill="#ADD1B2" rx="11" ry="11" style="stroke:#181818;stroke-width:1.0;"/><path d="M339.7656,383.8887 Q339.9219,383.6699 340.1094,383.5605 Q340.2969,383.4512 340.5156,383.4512 Q340.8906,383.4512 341.125,383.7168 Q341.3594,383.9668 341.3594,384.5762 L341.3594,386.0293 Q341.3594,386.6387 341.125,386.9043 Q340.8906,387.1699 340.5156,387.1699 Q340.1719,387.1699 339.9688,386.9668 Q339.7656,386.7793 339.6563,386.2637 Q339.6094,385.9043 339.4219,385.7168 Q339.0938,385.3418 338.4844,385.123 Q337.875,384.9043 337.25,384.9043 Q336.4844,384.9043 335.8438,385.2324 Q335.2188,385.5605 334.7188,386.3105 Q334.2344,387.0605 334.2344,388.0918 L334.2344,389.1855 Q334.2344,390.4199 335.125,391.248 Q336.0156,392.0605 337.6094,392.0605 Q338.5469,392.0605 339.2031,391.8105 Q339.5938,391.6543 340.0156,391.2168 Q340.2813,390.9512 340.4219,390.873 Q340.5781,390.7949 340.7813,390.7949 Q341.1094,390.7949 341.3594,391.0605 Q341.625,391.3105 341.625,391.6543 Q341.625,391.998 341.2813,392.4043 Q340.7813,392.9824 339.9844,393.3105 Q338.9063,393.7637 337.6094,393.7637 Q336.0938,393.7637 334.8906,393.1387 Q333.9063,392.6387 333.2188,391.5762 Q332.5313,390.498 332.5313,389.2168 L332.5313,388.0605 Q332.5313,386.7324 333.1406,385.5918 Q333.7656,384.4355 334.8594,383.8262 Q335.9531,383.2012 337.1875,383.2012 Q337.9219,383.2012 338.5625,383.373 Q339.2188,383.5293 339.7656,383.8887 Z " fill="#000000"/><text fill="#000000" font-family="sans-serif" font-size="14" lengthAdjust="spacing" textLength="84" x="351" y="393.8105">RepoBuilding</text><line style="stroke:#181818;stroke-width:0.5;" x1="323" x2="437" y1="404.0137" y2="404.0137"/><line style="stroke:#181818;stroke-width:0.5;" x1="323" x2="437" y1="412.0137" y2="412.0137"/></g><!--class IAppServiceBuilding--><g id="elem_IAppServiceBuilding"><rect codeLine="53" fill="#F1F1F1" height="48" id="IAppServiceBuilding" rx="2.5" ry="2.5" style="stroke:#181818;stroke-width:0.5;" width="157" x="566.5" y="989.5137"/><ellipse cx="581.5" cy="1005.5137" fill="#B4A7E5" rx="11" ry="11" style="stroke:#181818;stroke-width:1.0;"/><path d="M582.4531,1002.1543 L582.4531,1008.8105 L584.1719,1008.8105 Q584.7813,1008.8105 585.0469,1009.0449 Q585.3125,1009.2793 585.3125,1009.6699 Q585.3125,1010.0449 585.0469,1010.2793 Q584.7813,1010.5137 584.1719,1010.5137 L579.0313,1010.5137 Q578.4219,1010.5137 578.1563,1010.2793 Q577.8906,1010.0449 577.8906,1009.6543 Q577.8906,1009.2793 578.1563,1009.0449 Q578.4219,1008.8105 579.0313,1008.8105 L580.75,1008.8105 L580.75,1002.1543 L579.0313,1002.1543 Q578.4219,1002.1543 578.1563,1001.9199 Q577.8906,1001.6855 577.8906,1001.2949 Q577.8906,1000.9199 578.1563,1000.6855 Q578.4219,1000.4512 579.0313,1000.4512 L584.1719,1000.4512 Q584.7813,1000.4512 585.0469,1000.6855 Q585.3125,1000.9199 585.3125,1001.2949 Q585.3125,1001.6855 585.0469,1001.9199 Q584.7813,1002.1543 584.1719,1002.1543 L582.4531,1002.1543 Z " fill="#000000"/><text fill="#000000" font-family="sans-serif" font-size="14" font-style="italic" lengthAdjust="spacing" textLength="125" x="595.5" y="1011.3105">IAppServiceBuilding</text><line style="stroke:#181818;stroke-width:0.5;" x1="567.5" x2="722.5" y1="1021.5137" y2="1021.5137"/><line style="stroke:#181818;stroke-width:0.5;" x1="567.5" x2="722.5" y1="1029.5137" y2="1029.5137"/></g><!--class AppServiceBuilding--><g id="elem_AppServiceBuilding"><rect codeLine="57" fill="#F1F1F1" height="48" id="AppServiceBuilding" rx="2.5" ry="2.5" style="stroke:#181818;stroke-width:0.5;" width="154" x="568" y="760.0137"/><ellipse cx="583" cy="776.0137" fill="#ADD1B2" rx="11" ry="11" style="stroke:#181818;stroke-width:1.0;"/><path d="M585.7656,771.8887 Q585.9219,771.6699 586.1094,771.5605 Q586.2969,771.4512 586.5156,771.4512 Q586.8906,771.4512 587.125,771.7168 Q587.3594,771.9668 587.3594,772.5762 L587.3594,774.0293 Q587.3594,774.6387 587.125,774.9043 Q586.8906,775.1699 586.5156,775.1699 Q586.1719,775.1699 585.9688,774.9668 Q585.7656,774.7793 585.6563,774.2637 Q585.6094,773.9043 585.4219,773.7168 Q585.0938,773.3418 584.4844,773.123 Q583.875,772.9043 583.25,772.9043 Q582.4844,772.9043 581.8438,773.2324 Q581.2188,773.5605 580.7188,774.3105 Q580.2344,775.0605 580.2344,776.0918 L580.2344,777.1855 Q580.2344,778.4199 581.125,779.248 Q582.0156,780.0605 583.6094,780.0605 Q584.5469,780.0605 585.2031,779.8105 Q585.5938,779.6543 586.0156,779.2168 Q586.2813,778.9512 586.4219,778.873 Q586.5781,778.7949 586.7813,778.7949 Q587.1094,778.7949 587.3594,779.0605 Q587.625,779.3105 587.625,779.6543 Q587.625,779.998 587.2813,780.4043 Q586.7813,780.9824 585.9844,781.3105 Q584.9063,781.7637 583.6094,781.7637 Q582.0938,781.7637 580.8906,781.1387 Q579.9063,780.6387 579.2188,779.5762 Q578.5313,778.498 578.5313,777.2168 L578.5313,776.0605 Q578.5313,774.7324 579.1406,773.5918 Q579.7656,772.4355 580.8594,771.8262 Q581.9531,771.2012 583.1875,771.2012 Q583.9219,771.2012 584.5625,771.373 Q585.2188,771.5293 585.7656,771.8887 Z " fill="#000000"/><text fill="#000000" font-family="sans-serif" font-size="14" lengthAdjust="spacing" textLength="122" x="597" y="781.8105">AppServiceBuilding</text><line style="stroke:#181818;stroke-width:0.5;" x1="569" x2="721" y1="792.0137" y2="792.0137"/><line style="stroke:#181818;stroke-width:0.5;" x1="569" x2="721" y1="800.0137" y2="800.0137"/></g><!--class IRepoBuilding--><g id="elem_IRepoBuilding"><rect codeLine="63" fill="#F1F1F1" height="48" id="IRepoBuilding" rx="2.5" ry="2.5" style="stroke:#181818;stroke-width:0.5;" width="120" x="575" y="587.0137"/><ellipse cx="590" cy="603.0137" fill="#B4A7E5" rx="11" ry="11" style="stroke:#181818;stroke-width:1.0;"/><path d="M590.9531,599.6543 L590.9531,606.3105 L592.6719,606.3105 Q593.2813,606.3105 593.5469,606.5449 Q593.8125,606.7793 593.8125,607.1699 Q593.8125,607.5449 593.5469,607.7793 Q593.2813,608.0137 592.6719,608.0137 L587.5313,608.0137 Q586.9219,608.0137 586.6563,607.7793 Q586.3906,607.5449 586.3906,607.1543 Q586.3906,606.7793 586.6563,606.5449 Q586.9219,606.3105 587.5313,606.3105 L589.25,606.3105 L589.25,599.6543 L587.5313,599.6543 Q586.9219,599.6543 586.6563,599.4199 Q586.3906,599.1855 586.3906,598.7949 Q586.3906,598.4199 586.6563,598.1855 Q586.9219,597.9512 587.5313,597.9512 L592.6719,597.9512 Q593.2813,597.9512 593.5469,598.1855 Q593.8125,598.4199 593.8125,598.7949 Q593.8125,599.1855 593.5469,599.4199 Q593.2813,599.6543 592.6719,599.6543 L590.9531,599.6543 Z " fill="#000000"/><text fill="#000000" font-family="sans-serif" font-size="14" font-style="italic" lengthAdjust="spacing" textLength="88" x="604" y="608.8105">IRepoBuilding</text><line style="stroke:#181818;stroke-width:0.5;" x1="576" x2="694" y1="619.0137" y2="619.0137"/><line style="stroke:#181818;stroke-width:0.5;" x1="576" x2="694" y1="627.0137" y2="627.0137"/></g><!--class Building--><g id="elem_Building"><rect codeLine="82" fill="#F1F1F1" height="76.543" id="Building" rx="2.5" ry="2.5" style="stroke:#181818;stroke-width:0.5;" width="82" x="1102" y="975.0137"/><ellipse cx="1117" cy="1005.2852" fill="#ADD1B2" rx="11" ry="11" style="stroke:#181818;stroke-width:1.0;"/><path d="M1115.8594,1006.082 L1115.8594,1008.582 L1120.1875,1008.582 L1120.1875,1007.6602 Q1120.1875,1007.0508 1120.4219,1006.7852 Q1120.6719,1006.5195 1121.0469,1006.5195 Q1121.4219,1006.5195 1121.6563,1006.7852 Q1121.8906,1007.0508 1121.8906,1007.6602 L1121.8906,1010.2852 L1113.8906,1010.2852 Q1113.2656,1010.2852 1113,1010.0508 Q1112.75,1009.8164 1112.75,1009.4258 Q1112.75,1009.0508 1113.0156,1008.8164 Q1113.2813,1008.582 1113.8906,1008.582 L1114.1563,1008.582 L1114.1563,1001.9258 L1113.8906,1001.9258 Q1113.2656,1001.9258 1113,1001.6914 Q1112.75,1001.457 1112.75,1001.0664 Q1112.75,1000.6914 1113,1000.457 Q1113.2656,1000.2227 1113.8906,1000.2227 L1121.5156,1000.2227 L1121.5156,1002.8164 Q1121.5156,1003.4258 1121.2813,1003.6914 Q1121.0625,1003.9414 1120.6719,1003.9414 Q1120.2969,1003.9414 1120.0625,1003.6914 Q1119.8281,1003.4258 1119.8281,1002.8164 L1119.8281,1001.9258 L1115.8594,1001.9258 L1115.8594,1004.3789 L1117.3438,1004.3789 Q1117.3438,1003.7227 1117.4688,1003.5352 Q1117.7344,1003.1289 1118.2031,1003.1289 Q1118.5781,1003.1289 1118.8125,1003.3945 Q1119.0469,1003.6445 1119.0469,1004.2539 L1119.0469,1006.2227 Q1119.0469,1006.7695 1118.9219,1006.957 Q1118.6563,1007.3477 1118.2031,1007.3477 Q1117.7344,1007.3477 1117.4688,1006.9414 Q1117.3438,1006.7539 1117.3438,1006.082 L1115.8594,1006.082 Z " fill="#000000"/><text fill="#000000" font-family="sans-serif" font-size="12" font-style="italic" lengthAdjust="spacing" textLength="35" x="1138.5" y="992.9629">&#171;root&#187;</text><text fill="#000000" font-family="sans-serif" font-size="12" font-style="italic" lengthAdjust="spacing" textLength="43" x="1134.5" y="1008.9238">&#171;entity&#187;</text><text fill="#000000" font-family="sans-serif" font-size="14" lengthAdjust="spacing" textLength="50" x="1131" y="1027.043">Building</text><line style="stroke:#181818;stroke-width:0.5;" x1="1103" x2="1183" y1="1035.5566" y2="1035.5566"/><line style="stroke:#181818;stroke-width:0.5;" x1="1103" x2="1183" y1="1043.5566" y2="1043.5566"/></g><!--class BuildingCode--><g id="elem_BuildingCode"><rect codeLine="90" fill="#F1F1F1" height="48" id="BuildingCode" rx="2.5" ry="2.5" style="stroke:#181818;stroke-width:0.5;" width="116" x="1408" y="1207.5137"/><ellipse cx="1423" cy="1223.5137" fill="#ADD1B2" rx="11" ry="11" style="stroke:#181818;stroke-width:1.0;"/><path d="M1425.7656,1219.3887 Q1425.9219,1219.1699 1426.1094,1219.0605 Q1426.2969,1218.9512 1426.5156,1218.9512 Q1426.8906,1218.9512 1427.125,1219.2168 Q1427.3594,1219.4668 1427.3594,1220.0762 L1427.3594,1221.5293 Q1427.3594,1222.1387 1427.125,1222.4043 Q1426.8906,1222.6699 1426.5156,1222.6699 Q1426.1719,1222.6699 1425.9688,1222.4668 Q1425.7656,1222.2793 1425.6563,1221.7637 Q1425.6094,1221.4043 1425.4219,1221.2168 Q1425.0938,1220.8418 1424.4844,1220.623 Q1423.875,1220.4043 1423.25,1220.4043 Q1422.4844,1220.4043 1421.8438,1220.7324 Q1421.2188,1221.0605 1420.7188,1221.8105 Q1420.2344,1222.5605 1420.2344,1223.5918 L1420.2344,1224.6855 Q1420.2344,1225.9199 1421.125,1226.748 Q1422.0156,1227.5605 1423.6094,1227.5605 Q1424.5469,1227.5605 1425.2031,1227.3105 Q1425.5938,1227.1543 1426.0156,1226.7168 Q1426.2813,1226.4512 1426.4219,1226.373 Q1426.5781,1226.2949 1426.7813,1226.2949 Q1427.1094,1226.2949 1427.3594,1226.5605 Q1427.625,1226.8105 1427.625,1227.1543 Q1427.625,1227.498 1427.2813,1227.9043 Q1426.7813,1228.4824 1425.9844,1228.8105 Q1424.9063,1229.2637 1423.6094,1229.2637 Q1422.0938,1229.2637 1420.8906,1228.6387 Q1419.9063,1228.1387 1419.2188,1227.0762 Q1418.5313,1225.998 1418.5313,1224.7168 L1418.5313,1223.5605 Q1418.5313,1222.2324 1419.1406,1221.0918 Q1419.7656,1219.9355 1420.8594,1219.3262 Q1421.9531,1218.7012 1423.1875,1218.7012 Q1423.9219,1218.7012 1424.5625,1218.873 Q1425.2188,1219.0293 1425.7656,1219.3887 Z " fill="#000000"/><text fill="#000000" font-family="sans-serif" font-size="14" lengthAdjust="spacing" textLength="84" x="1437" y="1229.3105">BuildingCode</text><line style="stroke:#181818;stroke-width:0.5;" x1="1409" x2="1523" y1="1239.5137" y2="1239.5137"/><line style="stroke:#181818;stroke-width:0.5;" x1="1409" x2="1523" y1="1247.5137" y2="1247.5137"/></g><!--class BuildingName--><g id="elem_BuildingName"><rect codeLine="91" fill="#F1F1F1" height="48" id="BuildingName" rx="2.5" ry="2.5" style="stroke:#181818;stroke-width:0.5;" width="118" x="1255" y="1207.5137"/><ellipse cx="1270" cy="1223.5137" fill="#ADD1B2" rx="11" ry="11" style="stroke:#181818;stroke-width:1.0;"/><path d="M1272.7656,1219.3887 Q1272.9219,1219.1699 1273.1094,1219.0605 Q1273.2969,1218.9512 1273.5156,1218.9512 Q1273.8906,1218.9512 1274.125,1219.2168 Q1274.3594,1219.4668 1274.3594,1220.0762 L1274.3594,1221.5293 Q1274.3594,1222.1387 1274.125,1222.4043 Q1273.8906,1222.6699 1273.5156,1222.6699 Q1273.1719,1222.6699 1272.9688,1222.4668 Q1272.7656,1222.2793 1272.6563,1221.7637 Q1272.6094,1221.4043 1272.4219,1221.2168 Q1272.0938,1220.8418 1271.4844,1220.623 Q1270.875,1220.4043 1270.25,1220.4043 Q1269.4844,1220.4043 1268.8438,1220.7324 Q1268.2188,1221.0605 1267.7188,1221.8105 Q1267.2344,1222.5605 1267.2344,1223.5918 L1267.2344,1224.6855 Q1267.2344,1225.9199 1268.125,1226.748 Q1269.0156,1227.5605 1270.6094,1227.5605 Q1271.5469,1227.5605 1272.2031,1227.3105 Q1272.5938,1227.1543 1273.0156,1226.7168 Q1273.2813,1226.4512 1273.4219,1226.373 Q1273.5781,1226.2949 1273.7813,1226.2949 Q1274.1094,1226.2949 1274.3594,1226.5605 Q1274.625,1226.8105 1274.625,1227.1543 Q1274.625,1227.498 1274.2813,1227.9043 Q1273.7813,1228.4824 1272.9844,1228.8105 Q1271.9063,1229.2637 1270.6094,1229.2637 Q1269.0938,1229.2637 1267.8906,1228.6387 Q1266.9063,1228.1387 1266.2188,1227.0762 Q1265.5313,1225.998 1265.5313,1224.7168 L1265.5313,1223.5605 Q1265.5313,1222.2324 1266.1406,1221.0918 Q1266.7656,1219.9355 1267.8594,1219.3262 Q1268.9531,1218.7012 1270.1875,1218.7012 Q1270.9219,1218.7012 1271.5625,1218.873 Q1272.2188,1219.0293 1272.7656,1219.3887 Z " fill="#000000"/><text fill="#000000" font-family="sans-serif" font-size="14" lengthAdjust="spacing" textLength="86" x="1284" y="1229.3105">BuildingName</text><line style="stroke:#181818;stroke-width:0.5;" x1="1256" x2="1372" y1="1239.5137" y2="1239.5137"/><line style="stroke:#181818;stroke-width:0.5;" x1="1256" x2="1372" y1="1247.5137" y2="1247.5137"/></g><!--class BuildingDescription--><g id="elem_BuildingDescription"><rect codeLine="92" fill="#F1F1F1" height="48" id="BuildingDescription" rx="2.5" ry="2.5" style="stroke:#181818;stroke-width:0.5;" width="153" x="1066.5" y="1207.5137"/><ellipse cx="1081.5" cy="1223.5137" fill="#ADD1B2" rx="11" ry="11" style="stroke:#181818;stroke-width:1.0;"/><path d="M1084.2656,1219.3887 Q1084.4219,1219.1699 1084.6094,1219.0605 Q1084.7969,1218.9512 1085.0156,1218.9512 Q1085.3906,1218.9512 1085.625,1219.2168 Q1085.8594,1219.4668 1085.8594,1220.0762 L1085.8594,1221.5293 Q1085.8594,1222.1387 1085.625,1222.4043 Q1085.3906,1222.6699 1085.0156,1222.6699 Q1084.6719,1222.6699 1084.4688,1222.4668 Q1084.2656,1222.2793 1084.1563,1221.7637 Q1084.1094,1221.4043 1083.9219,1221.2168 Q1083.5938,1220.8418 1082.9844,1220.623 Q1082.375,1220.4043 1081.75,1220.4043 Q1080.9844,1220.4043 1080.3438,1220.7324 Q1079.7188,1221.0605 1079.2188,1221.8105 Q1078.7344,1222.5605 1078.7344,1223.5918 L1078.7344,1224.6855 Q1078.7344,1225.9199 1079.625,1226.748 Q1080.5156,1227.5605 1082.1094,1227.5605 Q1083.0469,1227.5605 1083.7031,1227.3105 Q1084.0938,1227.1543 1084.5156,1226.7168 Q1084.7813,1226.4512 1084.9219,1226.373 Q1085.0781,1226.2949 1085.2813,1226.2949 Q1085.6094,1226.2949 1085.8594,1226.5605 Q1086.125,1226.8105 1086.125,1227.1543 Q1086.125,1227.498 1085.7813,1227.9043 Q1085.2813,1228.4824 1084.4844,1228.8105 Q1083.4063,1229.2637 1082.1094,1229.2637 Q1080.5938,1229.2637 1079.3906,1228.6387 Q1078.4063,1228.1387 1077.7188,1227.0762 Q1077.0313,1225.998 1077.0313,1224.7168 L1077.0313,1223.5605 Q1077.0313,1222.2324 1077.6406,1221.0918 Q1078.2656,1219.9355 1079.3594,1219.3262 Q1080.4531,1218.7012 1081.6875,1218.7012 Q1082.4219,1218.7012 1083.0625,1218.873 Q1083.7188,1219.0293 1084.2656,1219.3887 Z " fill="#000000"/><text fill="#000000" font-family="sans-serif" font-size="14" lengthAdjust="spacing" textLength="121" x="1095.5" y="1229.3105">BuildingDescription</text><line style="stroke:#181818;stroke-width:0.5;" x1="1067.5" x2="1218.5" y1="1239.5137" y2="1239.5137"/><line style="stroke:#181818;stroke-width:0.5;" x1="1067.5" x2="1218.5" y1="1247.5137" y2="1247.5137"/></g><!--class BuildingDimensions--><g id="elem_BuildingDimensions"><rect codeLine="93" fill="#F1F1F1" height="48" id="BuildingDimensions" rx="2.5" ry="2.5" style="stroke:#181818;stroke-width:0.5;" width="155" x="876.5" y="1207.5137"/><ellipse cx="891.5" cy="1223.5137" fill="#ADD1B2" rx="11" ry="11" style="stroke:#181818;stroke-width:1.0;"/><path d="M894.2656,1219.3887 Q894.4219,1219.1699 894.6094,1219.0605 Q894.7969,1218.9512 895.0156,1218.9512 Q895.3906,1218.9512 895.625,1219.2168 Q895.8594,1219.4668 895.8594,1220.0762 L895.8594,1221.5293 Q895.8594,1222.1387 895.625,1222.4043 Q895.3906,1222.6699 895.0156,1222.6699 Q894.6719,1222.6699 894.4688,1222.4668 Q894.2656,1222.2793 894.1563,1221.7637 Q894.1094,1221.4043 893.9219,1221.2168 Q893.5938,1220.8418 892.9844,1220.623 Q892.375,1220.4043 891.75,1220.4043 Q890.9844,1220.4043 890.3438,1220.7324 Q889.7188,1221.0605 889.2188,1221.8105 Q888.7344,1222.5605 888.7344,1223.5918 L888.7344,1224.6855 Q888.7344,1225.9199 889.625,1226.748 Q890.5156,1227.5605 892.1094,1227.5605 Q893.0469,1227.5605 893.7031,1227.3105 Q894.0938,1227.1543 894.5156,1226.7168 Q894.7813,1226.4512 894.9219,1226.373 Q895.0781,1226.2949 895.2813,1226.2949 Q895.6094,1226.2949 895.8594,1226.5605 Q896.125,1226.8105 896.125,1227.1543 Q896.125,1227.498 895.7813,1227.9043 Q895.2813,1228.4824 894.4844,1228.8105 Q893.4063,1229.2637 892.1094,1229.2637 Q890.5938,1229.2637 889.3906,1228.6387 Q888.4063,1228.1387 887.7188,1227.0762 Q887.0313,1225.998 887.0313,1224.7168 L887.0313,1223.5605 Q887.0313,1222.2324 887.6406,1221.0918 Q888.2656,1219.9355 889.3594,1219.3262 Q890.4531,1218.7012 891.6875,1218.7012 Q892.4219,1218.7012 893.0625,1218.873 Q893.7188,1219.0293 894.2656,1219.3887 Z " fill="#000000"/><text fill="#000000" font-family="sans-serif" font-size="14" lengthAdjust="spacing" textLength="123" x="905.5" y="1229.3105">BuildingDimensions</text><line style="stroke:#181818;stroke-width:0.5;" x1="877.5" x2="1030.5" y1="1239.5137" y2="1239.5137"/><line style="stroke:#181818;stroke-width:0.5;" x1="877.5" x2="1030.5" y1="1247.5137" y2="1247.5137"/></g><!--link DBDriver to IDBDriver--><g id="link_DBDriver_IDBDriver"><path codeLine="24" d="M291.79,157.0137 C296.7,157.0137 301.6,157.0137 306.51,157.0137 " fill="none" id="DBDriver-to-IDBDriver" style="stroke:#FF6655;stroke-width:1.0;"/><polygon fill="none" points="306.68,150.0137,326.68,157.0137,306.68,164.0137,306.68,150.0137" style="stroke:#FF6655;stroke-width:1.0;"/></g><!--reverse link IControllerBuilding to ControllerBuilding--><g id="link_IControllerBuilding_ControllerBuilding"><path codeLine="36" d="M168.2,440.4537 C168.41,484.7537 168.73,551.8137 168.89,586.8437 " fill="none" id="IControllerBuilding-backto-ControllerBuilding" style="stroke:#FF6655;stroke-width:1.0;"/><polygon fill="none" points="161.2,440.2437,168.11,420.2137,175.2,440.1837,161.2,440.2437" style="stroke:#FF6655;stroke-width:1.0;"/></g><!--reverse link DBDriver to RepoBuilding--><g id="link_DBDriver_RepoBuilding"><path codeLine="44" d="M262.47,185.5737 C288.9,232.6737 342.28,327.7937 366.95,371.7637 " fill="none" id="DBDriver-backto-RepoBuilding" style="stroke:#FF6655;stroke-width:1.0;stroke-dasharray:7.0,7.0;"/><polygon fill="#FF6655" points="259.99,181.1737,260.9023,190.9802,262.4352,185.535,267.8804,187.0679,259.99,181.1737" style="stroke:#FF6655;stroke-width:1.0;"/></g><!--link RouteBuilding to IControllerBuilding--><g id="link_RouteBuilding_IControllerBuilding"><path codeLine="47" d="M510.93,181.0237 C491.94,197.6137 463.91,218.7937 435,229.0137 C407.92,238.5837 331.77,224.3337 306,237.0137 C248.07,265.5337 204.19,330.3337 182.68,367.4737 " fill="none" id="RouteBuilding-to-IControllerBuilding" style="stroke:#FF6655;stroke-width:1.0;stroke-dasharray:7.0,7.0;"/><polygon fill="#FF6655" points="180.17,371.8637,188.1206,366.051,182.6599,367.5277,181.1831,362.0671,180.17,371.8637" style="stroke:#FF6655;stroke-width:1.0;"/></g><!--link AppServiceBuilding to IAppServiceBuilding--><g id="link_AppServiceBuilding_IAppServiceBuilding"><path codeLine="60" d="M645,808.0837 C645,845.8037 645,921.3037 645,969.2437 " fill="none" id="AppServiceBuilding-to-IAppServiceBuilding" style="stroke:#FF6655;stroke-width:1.0;"/><polygon fill="none" points="652,969.3837,645,989.3837,638,969.3837,652,969.3837" style="stroke:#FF6655;stroke-width:1.0;"/></g><!--link RepoBuilding to IRepoBuilding--><g id="link_RepoBuilding_IRepoBuilding"><path codeLine="67" d="M407.77,420.2137 C452.13,457.2637 539.3,530.0737 591.84,573.9637 " fill="none" id="RepoBuilding-to-IRepoBuilding" style="stroke:#FF6655;stroke-width:1.0;"/><polygon fill="none" points="596.4,568.6437,607.26,586.8437,587.42,579.3937,596.4,568.6437" style="stroke:#FF6655;stroke-width:1.0;"/></g><!--link ControllerBuilding to IAppServiceBuilding--><g id="link_ControllerBuilding_IAppServiceBuilding"><path codeLine="71" d="M196.65,635.2737 C279.56,705.0437 525.78,912.2037 613.52,986.0237 " fill="none" id="ControllerBuilding-to-IAppServiceBuilding" style="stroke:#FF6655;stroke-width:1.0;stroke-dasharray:7.0,7.0;"/><polygon fill="#FF6655" points="617.57,989.4337,613.2491,980.5833,613.7406,986.2187,608.1052,986.7102,617.57,989.4337" style="stroke:#FF6655;stroke-width:1.0;"/></g><!--reverse link IRepoBuilding to AppServiceBuilding--><g id="link_IRepoBuilding_AppServiceBuilding"><path codeLine="73" d="M636.65,640.2437 C638.61,673.6637 641.82,728.7037 643.64,759.7737 " fill="none" id="IRepoBuilding-backto-AppServiceBuilding" style="stroke:#FF6655;stroke-width:1.0;stroke-dasharray:7.0,7.0;"/><polygon fill="#FF6655" points="636.35,635.0737,632.8962,644.2971,636.6495,640.0647,640.8818,643.8179,636.35,635.0737" style="stroke:#FF6655;stroke-width:1.0;"/></g><!--link Building to BuildingCode--><g id="link_Building_BuildingCode"><path codeLine="98" d="M1184.22,1023.6837 C1236.85,1037.0437 1328.58,1066.0737 1391,1117.5137 C1419.23,1140.7737 1440.81,1177.4137 1453.42,1202.6237 " fill="none" id="Building-to-BuildingCode" style="stroke:#FF6655;stroke-width:1.0;"/><polygon fill="#FF6655" points="1455.67,1207.1937,1455.2731,1197.3528,1453.4568,1202.7102,1448.0995,1200.8939,1455.67,1207.1937" style="stroke:#FF6655;stroke-width:1.0;"/><text fill="#000000" font-family="Impact" font-size="13" lengthAdjust="spacing" textLength="5" x="1192.0076" y="1022.3905">1</text><text fill="#000000" font-family="Impact" font-size="13" lengthAdjust="spacing" textLength="5" x="1447.2219" y="1196.8714">1</text></g><!--link Building to BuildingName--><g id="link_Building_BuildingName"><path codeLine="99" d="M1179.6,1052.0237 C1197.57,1071.0637 1219.13,1094.9137 1237,1117.5137 C1259.18,1145.5637 1281.91,1179.7237 1296.87,1203.0937 " fill="none" id="Building-to-BuildingName" style="stroke:#FF6655;stroke-width:1.0;"/><polygon fill="#FF6655" points="1299.57,1207.3337,1298.1064,1197.5942,1296.8828,1203.1171,1291.3599,1201.8936,1299.57,1207.3337" style="stroke:#FF6655;stroke-width:1.0;"/><text fill="#000000" font-family="Impact" font-size="13" lengthAdjust="spacing" textLength="5" x="1180.0347" y="1072.5754">1</text><text fill="#000000" font-family="Impact" font-size="13" lengthAdjust="spacing" textLength="5" x="1289.8084" y="1196.6584">1</text></g><!--link Building to BuildingDescription--><g id="link_Building_BuildingDescription"><path codeLine="100" d="M1143,1052.1337 C1143,1094.7637 1143,1163.2937 1143,1201.8237 " fill="none" id="Building-to-BuildingDescription" style="stroke:#FF6655;stroke-width:1.0;"/><polygon fill="#FF6655" points="1143,1207.2837,1147,1198.2837,1143,1202.2837,1139,1198.2837,1143,1207.2837" style="stroke:#FF6655;stroke-width:1.0;"/><text fill="#000000" font-family="Impact" font-size="13" lengthAdjust="spacing" textLength="5" x="1137.6016" y="1072.703">1</text><text fill="#000000" font-family="Impact" font-size="13" lengthAdjust="spacing" textLength="5" x="1137.2969" y="1196.5943">1</text></g><!--link Building to BuildingDimensions--><g id="link_Building_BuildingDimensions"><path codeLine="101" d="M1107.81,1052.3337 C1089.99,1071.6637 1068.14,1095.6637 1049,1117.5137 C1023.62,1146.4937 995.29,1180.3937 976.23,1203.4537 " fill="none" id="Building-to-BuildingDimensions" style="stroke:#FF6655;stroke-width:1.0;"/><polygon fill="#FF6655" points="973.02,1207.3437,981.8354,1202.9517,976.204,1203.4886,975.6672,1197.8572,973.02,1207.3437" style="stroke:#FF6655;stroke-width:1.0;"/><text fill="#000000" font-family="Impact" font-size="13" lengthAdjust="spacing" textLength="5" x="1097.0387" y="1072.6412">1</text><text fill="#000000" font-family="Impact" font-size="13" lengthAdjust="spacing" textLength="5" x="972.6663" y="1196.6712">1</text></g><!--link AppServiceBuilding to Building--><g id="link_AppServiceBuilding_Building"><path codeLine="103" d="M695.49,808.0837 C792.64,852.4637 1004.18,949.0937 1097.37,991.6637 " fill="none" id="AppServiceBuilding-to-Building" style="stroke:#FF6655;stroke-width:1.0;stroke-dasharray:7.0,7.0;"/><polygon fill="#FF6655" points="1101.99,993.7737,1095.471,986.391,1097.4436,991.6929,1092.1417,993.6654,1101.99,993.7737" style="stroke:#FF6655;stroke-width:1.0;"/></g><!--SRC=[bLNBRjim4BpxAmZra9CTv12V105-r420eYrYeDU2fZOAQuaabfGBj_M_bzPR52KXkbZo3dTsTeUaFdEXADACC9afAK0OydT1x7EGmXpv7o1Fw-9xIzavGPcBU2TJYM6uKPIzGnIHBpnvDpk9D2s14cD05_JfS5Yldv-Rr5zf1cGdS-I0xZ9oIYsPZvNi0TJnVDscEHJn3QBytUHxoIoTQGFbcfhwjbZOy9acGFHL6yWgfVMVmOjuGweDvipa244Lxa5UPMv0TqFtXwLKQrB4jZbFOowI9cvP1rc-0sfkAn0Ct5HS6C0togoO_NQF_5Arfqyr27LOwXXPudqmot-Hawh2TcJNb9kOAlkklT9tjiieqzI9zrDDW1nrBNBGCaTGdo5JwGn9sQBP_Dsl8PWiSrMqRYAFRxIleAJcHbfVZzd48ffKlbnT05dbQXMry-wWkcuZgzLugUwyDqgbd573fI17m0jdu9-u1Ne1_O5Or1Z86NcB_F38PqZApdui_n1DbiN4FMb62fiQjgFTFtLFMRtfbmNDEiPZty8GKqeyyaklUUXS1tqMXXkh-T6U-l2ubndbmk-W9458Q7LaZhInvWe8rOJ-FDNb3Fi9TzuhQGeEGvJIsDib3CjG58riSgl0irb_K7kFa6-dNy3CkCDxzLtaL86b3-i5End33EH-RSr0zg0PSdNVhdD8de7G5gSdkb2_DqqCdWBhiwZuzLO-YUm9c4JwT4mlQELCkjPwTcZlXsPyldFZuLRv-hRu3m00]--></g></svg>