<?xml version="1.0" encoding="us-ascii" standalone="no"?><svg xmlns="http://www.w3.org/2000/svg" xmlns:xlink="http://www.w3.org/1999/xlink" contentStyleType="text/css" height="1366px" preserveAspectRatio="none" style="width:1682px;height:1366px;background:#FFFFFF;" version="1.1" viewBox="0 0 1682 1366" width="1682px" zoomAndPan="magnify"><defs/><g><!--cluster system--><g id="cluster_system"><path d="M8.5,6.602 L59.5,6.602 A3.75,3.75 0 0 1 62,9.102 L69,31.6699 L1672.5,31.6699 A2.5,2.5 0 0 1 1675,34.1699 L1675,1356.982 A2.5,2.5 0 0 1 1672.5,1359.482 L8.5,1359.482 A2.5,2.5 0 0 1 6,1356.982 L6,9.102 A2.5,2.5 0 0 1 8.5,6.602 " fill="none" style="stroke:#000000;stroke-width:1.5;"/><line style="stroke:#000000;stroke-width:1.5;" x1="6" x2="69" y1="31.6699" y2="31.6699"/><text fill="#000000" font-family="sans-serif" font-size="14" font-weight="bold" lengthAdjust="spacing" textLength="50" x="10" y="23.5679">system</text></g><!--cluster Infrastructure--><g id="cluster_Infrastructure"><path d="M169.5,52.602 L267.5,52.602 A3.75,3.75 0 0 1 270,55.102 L277,77.6699 L649.5,77.6699 A2.5,2.5 0 0 1 652,80.1699 L652,222.102 A2.5,2.5 0 0 1 649.5,224.602 L169.5,224.602 A2.5,2.5 0 0 1 167,222.102 L167,55.102 A2.5,2.5 0 0 1 169.5,52.602 " fill="none" style="stroke:#000000;stroke-width:1.5;"/><line style="stroke:#000000;stroke-width:1.5;" x1="167" x2="277" y1="77.6699" y2="77.6699"/><text fill="#000000" font-family="sans-serif" font-size="14" font-weight="bold" lengthAdjust="spacing" textLength="97" x="171" y="69.5679">Infrastructure</text></g><!--cluster Routes--><g id="cluster_Routes"><path d="M470.5,98.602 L519.5,98.602 A3.75,3.75 0 0 1 522,101.102 L529,123.6699 L625.5,123.6699 A2.5,2.5 0 0 1 628,126.1699 L628,198.102 A2.5,2.5 0 0 1 625.5,200.602 L470.5,200.602 A2.5,2.5 0 0 1 468,198.102 L468,101.102 A2.5,2.5 0 0 1 470.5,98.602 " fill="none" style="stroke:#000000;stroke-width:1.5;"/><line style="stroke:#000000;stroke-width:1.5;" x1="468" x2="529" y1="123.6699" y2="123.6699"/><text fill="#000000" font-family="sans-serif" font-size="14" font-weight="bold" lengthAdjust="spacing" textLength="48" x="472" y="115.5679">Routes</text></g><!--cluster Persistence--><g id="cluster_Persistence"><path d="M193.5,98.602 L273.5,98.602 A3.75,3.75 0 0 1 276,101.102 L283,123.6699 L441.5,123.6699 A2.5,2.5 0 0 1 444,126.1699 L444,198.102 A2.5,2.5 0 0 1 441.5,200.602 L193.5,200.602 A2.5,2.5 0 0 1 191,198.102 L191,101.102 A2.5,2.5 0 0 1 193.5,98.602 " fill="none" style="stroke:#000000;stroke-width:1.5;"/><line style="stroke:#000000;stroke-width:1.5;" x1="191" x2="283" y1="123.6699" y2="123.6699"/><text fill="#000000" font-family="sans-serif" font-size="14" font-weight="bold" lengthAdjust="spacing" textLength="79" x="195" y="115.5679">Persistence</text></g><!--cluster Interface Adapters--><g id="cluster_Interface Adapters"><path d="M32.5,248.602 L162.5,248.602 A3.75,3.75 0 0 1 165,251.102 L172,273.6699 L489.5,273.6699 A2.5,2.5 0 0 1 492,276.1699 L492,706.102 A2.5,2.5 0 0 1 489.5,708.602 L32.5,708.602 A2.5,2.5 0 0 1 30,706.102 L30,251.102 A2.5,2.5 0 0 1 32.5,248.602 " fill="none" style="stroke:#000000;stroke-width:1.5;"/><line style="stroke:#000000;stroke-width:1.5;" x1="30" x2="172" y1="273.6699" y2="273.6699"/><text fill="#000000" font-family="sans-serif" font-size="14" font-weight="bold" lengthAdjust="spacing" textLength="129" x="34" y="265.5679">Interface Adapters</text></g><!--cluster Controllers--><g id="cluster_Controllers"><path d="M56.5,294.602 L134.5,294.602 A3.75,3.75 0 0 1 137,297.102 L144,319.6699 L287.5,319.6699 A2.5,2.5 0 0 1 290,322.1699 L290,682.102 A2.5,2.5 0 0 1 287.5,684.602 L56.5,684.602 A2.5,2.5 0 0 1 54,682.102 L54,297.102 A2.5,2.5 0 0 1 56.5,294.602 " fill="none" style="stroke:#000000;stroke-width:1.5;"/><line style="stroke:#000000;stroke-width:1.5;" x1="54" x2="144" y1="319.6699" y2="319.6699"/><text fill="#000000" font-family="sans-serif" font-size="14" font-weight="bold" lengthAdjust="spacing" textLength="77" x="58" y="311.5679">Controllers</text></g><!--cluster IControllers--><g id="cluster_IControllers"><path d="M81.5,340.602 L164.5,340.602 A3.75,3.75 0 0 1 167,343.102 L174,365.6699 L262.5,365.6699 A2.5,2.5 0 0 1 265,368.1699 L265,440.102 A2.5,2.5 0 0 1 262.5,442.602 L81.5,442.602 A2.5,2.5 0 0 1 79,440.102 L79,343.102 A2.5,2.5 0 0 1 81.5,340.602 " fill="none" style="stroke:#000000;stroke-width:1.5;"/><line style="stroke:#000000;stroke-width:1.5;" x1="79" x2="174" y1="365.6699" y2="365.6699"/><text fill="#000000" font-family="sans-serif" font-size="14" font-weight="bold" lengthAdjust="spacing" textLength="82" x="83" y="357.5679">IControllers</text></g><!--cluster ImplControllers--><g id="cluster_ImplControllers"><path d="M80.5,558.602 L190.5,558.602 A3.75,3.75 0 0 1 193,561.102 L200,583.6699 L263.5,583.6699 A2.5,2.5 0 0 1 266,586.1699 L266,658.102 A2.5,2.5 0 0 1 263.5,660.602 L80.5,660.602 A2.5,2.5 0 0 1 78,658.102 L78,561.102 A2.5,2.5 0 0 1 80.5,558.602 " fill="none" style="stroke:#000000;stroke-width:1.5;"/><line style="stroke:#000000;stroke-width:1.5;" x1="78" x2="200" y1="583.6699" y2="583.6699"/><text fill="#000000" font-family="sans-serif" font-size="14" font-weight="bold" lengthAdjust="spacing" textLength="109" x="82" y="575.5679">ImplControllers</text></g><!--cluster Repositories--><g id="cluster_Repositories"><path d="M316.5,340.602 L403.5,340.602 A3.75,3.75 0 0 1 406,343.102 L413,365.6699 L465.5,365.6699 A2.5,2.5 0 0 1 468,368.1699 L468,440.102 A2.5,2.5 0 0 1 465.5,442.602 L316.5,442.602 A2.5,2.5 0 0 1 314,440.102 L314,343.102 A2.5,2.5 0 0 1 316.5,340.602 " fill="none" style="stroke:#000000;stroke-width:1.5;"/><line style="stroke:#000000;stroke-width:1.5;" x1="314" x2="413" y1="365.6699" y2="365.6699"/><text fill="#000000" font-family="sans-serif" font-size="14" font-weight="bold" lengthAdjust="spacing" textLength="86" x="318" y="357.5679">Repositories</text></g><!--cluster Application Services--><g id="cluster_Application Services"><path d="M518.5,466.602 L658.5,466.602 A3.75,3.75 0 0 1 661,469.102 L668,491.6699 L805.5,491.6699 A2.5,2.5 0 0 1 808,494.1699 L808,1112.982 A2.5,2.5 0 0 1 805.5,1115.482 L518.5,1115.482 A2.5,2.5 0 0 1 516,1112.982 L516,469.102 A2.5,2.5 0 0 1 518.5,466.602 " fill="none" style="stroke:#000000;stroke-width:1.5;"/><line style="stroke:#000000;stroke-width:1.5;" x1="516" x2="668" y1="491.6699" y2="491.6699"/><text fill="#000000" font-family="sans-serif" font-size="14" font-weight="bold" lengthAdjust="spacing" textLength="139" x="520" y="483.5679">Application Services</text></g><!--cluster App Services--><g id="cluster_App Services"><path d="M542.5,512.602 L631.5,512.602 A3.75,3.75 0 0 1 634,515.102 L641,537.6699 L781.5,537.6699 A2.5,2.5 0 0 1 784,540.1699 L784,1088.982 A2.5,2.5 0 0 1 781.5,1091.482 L542.5,1091.482 A2.5,2.5 0 0 1 540,1088.982 L540,515.102 A2.5,2.5 0 0 1 542.5,512.602 " fill="none" style="stroke:#000000;stroke-width:1.5;"/><line style="stroke:#000000;stroke-width:1.5;" x1="540" x2="641" y1="537.6699" y2="537.6699"/><text fill="#000000" font-family="sans-serif" font-size="14" font-weight="bold" lengthAdjust="spacing" textLength="88" x="544" y="529.5679">App Services</text></g><!--cluster IAppServices--><g id="cluster_IAppServices"><path d="M567.5,965.482 L657.5,965.482 A3.75,3.75 0 0 1 660,967.982 L667,990.5499 L752.5,990.5499 A2.5,2.5 0 0 1 755,993.0499 L755,1064.982 A2.5,2.5 0 0 1 752.5,1067.482 L567.5,1067.482 A2.5,2.5 0 0 1 565,1064.982 L565,967.982 A2.5,2.5 0 0 1 567.5,965.482 " fill="none" style="stroke:#000000;stroke-width:1.5;"/><line style="stroke:#000000;stroke-width:1.5;" x1="565" x2="667" y1="990.5499" y2="990.5499"/><text fill="#000000" font-family="sans-serif" font-size="14" font-weight="bold" lengthAdjust="spacing" textLength="89" x="569" y="982.4479">IAppServices</text></g><!--cluster ImplAppServices--><g id="cluster_ImplAppServices"><path d="M566.5,732.602 L683.5,732.602 A3.75,3.75 0 0 1 686,735.102 L693,757.6699 L757.5,757.6699 A2.5,2.5 0 0 1 760,760.1699 L760,832.102 A2.5,2.5 0 0 1 757.5,834.602 L566.5,834.602 A2.5,2.5 0 0 1 564,832.102 L564,735.102 A2.5,2.5 0 0 1 566.5,732.602 " fill="none" style="stroke:#000000;stroke-width:1.5;"/><line style="stroke:#000000;stroke-width:1.5;" x1="564" x2="693" y1="757.6699" y2="757.6699"/><text fill="#000000" font-family="sans-serif" font-size="14" font-weight="bold" lengthAdjust="spacing" textLength="116" x="568" y="749.5679">ImplAppServices</text></g><!--cluster IRepositories--><g id="cluster_IRepositories"><path d="M577.5,558.602 L669.5,558.602 A3.75,3.75 0 0 1 672,561.102 L679,583.6699 L724.5,583.6699 A2.5,2.5 0 0 1 727,586.1699 L727,658.102 A2.5,2.5 0 0 1 724.5,660.602 L577.5,660.602 A2.5,2.5 0 0 1 575,658.102 L575,561.102 A2.5,2.5 0 0 1 577.5,558.602 " fill="none" style="stroke:#000000;stroke-width:1.5;"/><line style="stroke:#000000;stroke-width:1.5;" x1="575" x2="679" y1="583.6699" y2="583.6699"/><text fill="#000000" font-family="sans-serif" font-size="14" font-weight="bold" lengthAdjust="spacing" textLength="91" x="579" y="575.5679">IRepositories</text></g><!--cluster Entities/Core/Domain--><g id="cluster_Entities/Core/Domain"><path d="M834.5,858.602 L985.5,858.602 A3.75,3.75 0 0 1 988,861.102 L995,883.6699 L1648.5,883.6699 A2.5,2.5 0 0 1 1651,886.1699 L1651,1332.982 A2.5,2.5 0 0 1 1648.5,1335.482 L834.5,1335.482 A2.5,2.5 0 0 1 832,1332.982 L832,861.102 A2.5,2.5 0 0 1 834.5,858.602 " fill="none" style="stroke:#000000;stroke-width:1.5;"/><line style="stroke:#000000;stroke-width:1.5;" x1="832" x2="995" y1="883.6699" y2="883.6699"/><text fill="#000000" font-family="sans-serif" font-size="14" font-weight="bold" lengthAdjust="spacing" textLength="150" x="836" y="875.5679">Entities/Core/Domain</text></g><!--cluster Aggregates--><g id="cluster_Aggregates"><path d="M1100.5,904.602 L1181.5,904.602 A3.75,3.75 0 0 1 1184,907.102 L1191,929.6699 L1263.5,929.6699 A2.5,2.5 0 0 1 1266,932.1699 L1266,1103.862 A2.5,2.5 0 0 1 1263.5,1106.362 L1100.5,1106.362 A2.5,2.5 0 0 1 1098,1103.862 L1098,907.102 A2.5,2.5 0 0 1 1100.5,904.602 " fill="none" style="stroke:#000000;stroke-width:1.5;"/><line style="stroke:#000000;stroke-width:1.5;" x1="1098" x2="1191" y1="929.6699" y2="929.6699"/><text fill="#000000" font-family="sans-serif" font-size="14" font-weight="bold" lengthAdjust="spacing" textLength="80" x="1102" y="921.5679">Aggregates</text></g><!--cluster a_building--><g id="cluster_a_building"><path d="M1124.5,950.602 L1182.5,950.602 A3.75,3.75 0 0 1 1185,953.102 L1192,975.6699 L1239.5,975.6699 A2.5,2.5 0 0 1 1242,978.1699 L1242,1079.862 A2.5,2.5 0 0 1 1239.5,1082.362 L1124.5,1082.362 A2.5,2.5 0 0 1 1122,1079.862 L1122,953.102 A2.5,2.5 0 0 1 1124.5,950.602 " fill="none" style="stroke:#000000;stroke-width:1.5;"/><line style="stroke:#000000;stroke-width:1.5;" x1="1122" x2="1192" y1="975.6699" y2="975.6699"/><text fill="#000000" font-family="sans-serif" font-size="14" font-weight="bold" lengthAdjust="spacing" textLength="57" x="1126" y="967.5679">Building</text></g><!--cluster Value Objects--><g id="cluster_Value Objects"><path d="M858.5,1139.482 L953.5,1139.482 A3.75,3.75 0 0 1 956,1141.982 L963,1164.5499 L1624.5,1164.5499 A2.5,2.5 0 0 1 1627,1167.0499 L1627,1308.982 A2.5,2.5 0 0 1 1624.5,1311.482 L858.5,1311.482 A2.5,2.5 0 0 1 856,1308.982 L856,1141.982 A2.5,2.5 0 0 1 858.5,1139.482 " fill="none" style="stroke:#000000;stroke-width:1.5;"/><line style="stroke:#000000;stroke-width:1.5;" x1="856" x2="963" y1="1164.5499" y2="1164.5499"/><text fill="#000000" font-family="sans-serif" font-size="14" font-weight="bold" lengthAdjust="spacing" textLength="94" x="860" y="1156.4479">Value Objects</text></g><!--cluster vo_building--><g id="cluster_vo_building"><path d="M882.5,1185.482 L940.5,1185.482 A3.75,3.75 0 0 1 943,1187.982 L950,1210.5499 L1600.5,1210.5499 A2.5,2.5 0 0 1 1603,1213.0499 L1603,1284.982 A2.5,2.5 0 0 1 1600.5,1287.482 L882.5,1287.482 A2.5,2.5 0 0 1 880,1284.982 L880,1187.982 A2.5,2.5 0 0 1 882.5,1185.482 " fill="none" style="stroke:#000000;stroke-width:1.5;"/><line style="stroke:#000000;stroke-width:1.5;" x1="880" x2="950" y1="1210.5499" y2="1210.5499"/><text fill="#000000" font-family="sans-serif" font-size="14" font-weight="bold" lengthAdjust="spacing" textLength="57" x="884" y="1202.4479">Building</text></g><!--class RouteBuilding--><g id="elem_RouteBuilding"><rect codeLine="16" fill="#F1F1F1" height="48" id="RouteBuilding" rx="2.5" ry="2.5" style="stroke:#181818;stroke-width:0.5;" width="128" x="484" y="136.602"/><ellipse cx="499" cy="152.602" fill="#ADD1B2" rx="11" ry="11" style="stroke:#181818;stroke-width:1.0;"/><path d="M501.5625,159.1176 Q499.9063,159.7426 498.7031,159.7426 Q497.125,159.7426 495.7813,158.8989 Q494.4531,158.0395 493.7188,156.3832 Q492.9844,154.727 492.9844,152.6489 Q492.9844,150.5864 493.7031,148.9301 Q494.4219,147.2739 495.7656,146.4145 Q497.1094,145.5551 498.7031,145.5551 Q499.9063,145.5551 501.5625,146.1645 L501.5625,148.352 Q499.875,147.3676 498.6406,147.3676 Q497.7344,147.3676 496.9688,148.0082 Q496.2188,148.6332 495.7344,149.8989 Q495.25,151.1489 495.25,152.6489 Q495.25,154.1645 495.75,155.4457 Q496.25,156.7114 497,157.3207 Q497.75,157.9301 498.6406,157.9301 Q499.875,157.9301 501.5625,156.9457 L501.5625,159.1176 Z " fill="#000000"/><text fill="#000000" font-family="sans-serif" font-size="14" lengthAdjust="spacing" textLength="96" x="513" y="158.034">RouteBuilding</text><line style="stroke:#181818;stroke-width:0.5;" x1="485" x2="611" y1="168.602" y2="168.602"/><line style="stroke:#181818;stroke-width:0.5;" x1="485" x2="611" y1="176.602" y2="176.602"/></g><!--class IDBDriver--><g id="elem_IDBDriver"><rect codeLine="20" fill="#F1F1F1" height="48" id="IDBDriver" rx="2.5" ry="2.5" style="stroke:#181818;stroke-width:0.5;" width="93" x="334.5" y="136.602"/><ellipse cx="349.5" cy="152.602" fill="#B4A7E5" rx="11" ry="11" style="stroke:#181818;stroke-width:1.0;"/><path d="M345.4219,159.602 L345.4219,157.7895 L348.2656,157.7895 L348.2656,148.0082 L345.4219,148.0082 L345.4219,146.1801 L353.2969,146.1801 L353.2969,148.0082 L350.4688,148.0082 L350.4688,157.7895 L353.2969,157.7895 L353.2969,159.602 L345.4219,159.602 Z " fill="#000000"/><text fill="#000000" font-family="sans-serif" font-size="14" font-style="italic" lengthAdjust="spacing" textLength="61" x="363.5" y="158.034">IDBDriver</text><line style="stroke:#181818;stroke-width:0.5;" x1="335.5" x2="426.5" y1="168.602" y2="168.602"/><line style="stroke:#181818;stroke-width:0.5;" x1="335.5" x2="426.5" y1="176.602" y2="176.602"/></g><!--class DBDriver--><g id="elem_DBDriver"><rect codeLine="21" fill="#F1F1F1" height="48" id="DBDriver" rx="2.5" ry="2.5" style="stroke:#181818;stroke-width:0.5;" width="92" x="207" y="136.602"/><ellipse cx="222" cy="152.602" fill="#ADD1B2" rx="11" ry="11" style="stroke:#181818;stroke-width:1.0;"/><path d="M224.5625,159.1176 Q222.9063,159.7426 221.7031,159.7426 Q220.125,159.7426 218.7813,158.8989 Q217.4531,158.0395 216.7188,156.3832 Q215.9844,154.727 215.9844,152.6489 Q215.9844,150.5864 216.7031,148.9301 Q217.4219,147.2739 218.7656,146.4145 Q220.1094,145.5551 221.7031,145.5551 Q222.9063,145.5551 224.5625,146.1645 L224.5625,148.352 Q222.875,147.3676 221.6406,147.3676 Q220.7344,147.3676 219.9688,148.0082 Q219.2188,148.6332 218.7344,149.8989 Q218.25,151.1489 218.25,152.6489 Q218.25,154.1645 218.75,155.4457 Q219.25,156.7114 220,157.3207 Q220.75,157.9301 221.6406,157.9301 Q222.875,157.9301 224.5625,156.9457 L224.5625,159.1176 Z " fill="#000000"/><text fill="#000000" font-family="sans-serif" font-size="14" lengthAdjust="spacing" textLength="60" x="236" y="158.034">DBDriver</text><line style="stroke:#181818;stroke-width:0.5;" x1="208" x2="298" y1="168.602" y2="168.602"/><line style="stroke:#181818;stroke-width:0.5;" x1="208" x2="298" y1="176.602" y2="176.602"/></g><!--class IControllerBuilding--><g id="elem_IControllerBuilding"><rect codeLine="30" fill="#F1F1F1" height="48" id="IControllerBuilding" rx="2.5" ry="2.5" style="stroke:#181818;stroke-width:0.5;" width="153" x="95.5" y="378.602"/><ellipse cx="110.5" cy="394.602" fill="#B4A7E5" rx="11" ry="11" style="stroke:#181818;stroke-width:1.0;"/><path d="M106.4219,401.602 L106.4219,399.7895 L109.2656,399.7895 L109.2656,390.0082 L106.4219,390.0082 L106.4219,388.1801 L114.2969,388.1801 L114.2969,390.0082 L111.4688,390.0082 L111.4688,399.7895 L114.2969,399.7895 L114.2969,401.602 L106.4219,401.602 Z " fill="#000000"/><text fill="#000000" font-family="sans-serif" font-size="14" font-style="italic" lengthAdjust="spacing" textLength="121" x="124.5" y="400.034">IControllerBuilding</text><line style="stroke:#181818;stroke-width:0.5;" x1="96.5" x2="247.5" y1="410.602" y2="410.602"/><line style="stroke:#181818;stroke-width:0.5;" x1="96.5" x2="247.5" y1="418.602" y2="418.602"/></g><!--class ControllerBuilding--><g id="elem_ControllerBuilding"><rect codeLine="34" fill="#F1F1F1" height="48" id="ControllerBuilding" rx="2.5" ry="2.5" style="stroke:#181818;stroke-width:0.5;" width="156" x="94" y="596.602"/><ellipse cx="109" cy="612.602" fill="#ADD1B2" rx="11" ry="11" style="stroke:#181818;stroke-width:1.0;"/><path d="M111.5625,619.1176 Q109.9063,619.7426 108.7031,619.7426 Q107.125,619.7426 105.7813,618.8989 Q104.4531,618.0395 103.7188,616.3832 Q102.9844,614.727 102.9844,612.6489 Q102.9844,610.5864 103.7031,608.9301 Q104.4219,607.2739 105.7656,606.4145 Q107.1094,605.5551 108.7031,605.5551 Q109.9063,605.5551 111.5625,606.1645 L111.5625,608.352 Q109.875,607.3676 108.6406,607.3676 Q107.7344,607.3676 106.9688,608.0082 Q106.2188,608.6332 105.7344,609.8989 Q105.25,611.1489 105.25,612.6489 Q105.25,614.1645 105.75,615.4457 Q106.25,616.7114 107,617.3207 Q107.75,617.9301 108.6406,617.9301 Q109.875,617.9301 111.5625,616.9457 L111.5625,619.1176 Z " fill="#000000"/><text fill="#000000" font-family="sans-serif" font-size="14" lengthAdjust="spacing" textLength="124" x="123" y="618.034">ControllerBuilding</text><line style="stroke:#181818;stroke-width:0.5;" x1="95" x2="249" y1="628.602" y2="628.602"/><line style="stroke:#181818;stroke-width:0.5;" x1="95" x2="249" y1="636.602" y2="636.602"/></g><!--class RepoBuilding--><g id="elem_RepoBuilding"><rect codeLine="40" fill="#F1F1F1" height="48" id="RepoBuilding" rx="2.5" ry="2.5" style="stroke:#181818;stroke-width:0.5;" width="123" x="329.5" y="378.602"/><ellipse cx="344.5" cy="394.602" fill="#ADD1B2" rx="11" ry="11" style="stroke:#181818;stroke-width:1.0;"/><path d="M347.0625,401.1176 Q345.4063,401.7426 344.2031,401.7426 Q342.625,401.7426 341.2813,400.8989 Q339.9531,400.0395 339.2188,398.3832 Q338.4844,396.727 338.4844,394.6489 Q338.4844,392.5864 339.2031,390.9301 Q339.9219,389.2739 341.2656,388.4145 Q342.6094,387.5551 344.2031,387.5551 Q345.4063,387.5551 347.0625,388.1645 L347.0625,390.352 Q345.375,389.3676 344.1406,389.3676 Q343.2344,389.3676 342.4688,390.0082 Q341.7188,390.6332 341.2344,391.8989 Q340.75,393.1489 340.75,394.6489 Q340.75,396.1645 341.25,397.4457 Q341.75,398.7114 342.5,399.3207 Q343.25,399.9301 344.1406,399.9301 Q345.375,399.9301 347.0625,398.9457 L347.0625,401.1176 Z " fill="#000000"/><text fill="#000000" font-family="sans-serif" font-size="14" lengthAdjust="spacing" textLength="91" x="358.5" y="400.034">RepoBuilding</text><line style="stroke:#181818;stroke-width:0.5;" x1="330.5" x2="451.5" y1="410.602" y2="410.602"/><line style="stroke:#181818;stroke-width:0.5;" x1="330.5" x2="451.5" y1="418.602" y2="418.602"/></g><!--class IAppServiceBuilding--><g id="elem_IAppServiceBuilding"><rect codeLine="53" fill="#F1F1F1" height="48" id="IAppServiceBuilding" rx="2.5" ry="2.5" style="stroke:#181818;stroke-width:0.5;" width="157" x="581.5" y="1003.482"/><ellipse cx="596.5" cy="1019.482" fill="#B4A7E5" rx="11" ry="11" style="stroke:#181818;stroke-width:1.0;"/><path d="M592.4219,1026.482 L592.4219,1024.6695 L595.2656,1024.6695 L595.2656,1014.8882 L592.4219,1014.8882 L592.4219,1013.0601 L600.2969,1013.0601 L600.2969,1014.8882 L597.4688,1014.8882 L597.4688,1024.6695 L600.2969,1024.6695 L600.2969,1026.482 L592.4219,1026.482 Z " fill="#000000"/><text fill="#000000" font-family="sans-serif" font-size="14" font-style="italic" lengthAdjust="spacing" textLength="125" x="610.5" y="1024.914">IAppServiceBuilding</text><line style="stroke:#181818;stroke-width:0.5;" x1="582.5" x2="737.5" y1="1035.482" y2="1035.482"/><line style="stroke:#181818;stroke-width:0.5;" x1="582.5" x2="737.5" y1="1043.482" y2="1043.482"/></g><!--class AppServiceBuilding--><g id="elem_AppServiceBuilding"><rect codeLine="57" fill="#F1F1F1" height="48" id="AppServiceBuilding" rx="2.5" ry="2.5" style="stroke:#181818;stroke-width:0.5;" width="164" x="580" y="770.602"/><ellipse cx="595" cy="786.602" fill="#ADD1B2" rx="11" ry="11" style="stroke:#181818;stroke-width:1.0;"/><path d="M597.5625,793.1176 Q595.9063,793.7426 594.7031,793.7426 Q593.125,793.7426 591.7813,792.8989 Q590.4531,792.0395 589.7188,790.3832 Q588.9844,788.727 588.9844,786.6489 Q588.9844,784.5864 589.7031,782.9301 Q590.4219,781.2739 591.7656,780.4145 Q593.1094,779.5551 594.7031,779.5551 Q595.9063,779.5551 597.5625,780.1645 L597.5625,782.352 Q595.875,781.3676 594.6406,781.3676 Q593.7344,781.3676 592.9688,782.0082 Q592.2188,782.6332 591.7344,783.8989 Q591.25,785.1489 591.25,786.6489 Q591.25,788.1645 591.75,789.4457 Q592.25,790.7114 593,791.3207 Q593.75,791.9301 594.6406,791.9301 Q595.875,791.9301 597.5625,790.9457 L597.5625,793.1176 Z " fill="#000000"/><text fill="#000000" font-family="sans-serif" font-size="14" lengthAdjust="spacing" textLength="132" x="609" y="792.034">AppServiceBuilding</text><line style="stroke:#181818;stroke-width:0.5;" x1="581" x2="743" y1="802.602" y2="802.602"/><line style="stroke:#181818;stroke-width:0.5;" x1="581" x2="743" y1="810.602" y2="810.602"/></g><!--class IRepoBuilding--><g id="elem_IRepoBuilding"><rect codeLine="63" fill="#F1F1F1" height="48" id="IRepoBuilding" rx="2.5" ry="2.5" style="stroke:#181818;stroke-width:0.5;" width="120" x="591" y="596.602"/><ellipse cx="606" cy="612.602" fill="#B4A7E5" rx="11" ry="11" style="stroke:#181818;stroke-width:1.0;"/><path d="M601.9219,619.602 L601.9219,617.7895 L604.7656,617.7895 L604.7656,608.0082 L601.9219,608.0082 L601.9219,606.1801 L609.7969,606.1801 L609.7969,608.0082 L606.9688,608.0082 L606.9688,617.7895 L609.7969,617.7895 L609.7969,619.602 L601.9219,619.602 Z " fill="#000000"/><text fill="#000000" font-family="sans-serif" font-size="14" font-style="italic" lengthAdjust="spacing" textLength="88" x="620" y="618.034">IRepoBuilding</text><line style="stroke:#181818;stroke-width:0.5;" x1="592" x2="710" y1="628.602" y2="628.602"/><line style="stroke:#181818;stroke-width:0.5;" x1="592" x2="710" y1="636.602" y2="636.602"/></g><!--class Building--><g id="elem_Building"><rect codeLine="81" fill="#F1F1F1" height="77.7561" id="Building" rx="2.5" ry="2.5" style="stroke:#181818;stroke-width:0.5;" width="89" x="1137.5" y="988.602"/><ellipse cx="1152.5" cy="1019.4801" fill="#ADD1B2" rx="11" ry="11" style="stroke:#181818;stroke-width:1.0;"/><path d="M1155.6719,1024.5269 L1155.6719,1026.4801 L1148.1875,1026.4801 L1148.1875,1013.0582 L1155.5469,1013.0582 L1155.5469,1014.8863 L1150.3906,1014.8863 L1150.3906,1018.7301 L1155.0313,1018.7301 L1155.0313,1020.5582 L1150.3906,1020.5582 L1150.3906,1024.5269 L1155.6719,1024.5269 Z " fill="#000000"/><text fill="#000000" font-family="sans-serif" font-size="12" font-style="italic" lengthAdjust="spacing" textLength="35" x="1177.5" y="1006.4301">&#171;root&#187;</text><text fill="#000000" font-family="sans-serif" font-size="12" font-style="italic" lengthAdjust="spacing" textLength="42" x="1174" y="1022.7742">&#171;entity&#187;</text><text fill="#000000" font-family="sans-serif" font-size="14" lengthAdjust="spacing" textLength="57" x="1166.5" y="1041.2561">Building</text><line style="stroke:#181818;stroke-width:0.5;" x1="1138.5" x2="1225.5" y1="1050.3581" y2="1050.3581"/><line style="stroke:#181818;stroke-width:0.5;" x1="1138.5" x2="1225.5" y1="1058.3581" y2="1058.3581"/></g><!--class BuildingCode--><g id="elem_BuildingCode"><rect codeLine="89" fill="#F1F1F1" height="48" id="BuildingCode" rx="2.5" ry="2.5" style="stroke:#181818;stroke-width:0.5;" width="123" x="1464.5" y="1223.482"/><ellipse cx="1479.5" cy="1239.482" fill="#ADD1B2" rx="11" ry="11" style="stroke:#181818;stroke-width:1.0;"/><path d="M1482.0625,1245.9976 Q1480.4063,1246.6226 1479.2031,1246.6226 Q1477.625,1246.6226 1476.2813,1245.7789 Q1474.9531,1244.9195 1474.2188,1243.2632 Q1473.4844,1241.607 1473.4844,1239.5289 Q1473.4844,1237.4664 1474.2031,1235.8101 Q1474.9219,1234.1539 1476.2656,1233.2945 Q1477.6094,1232.4351 1479.2031,1232.4351 Q1480.4063,1232.4351 1482.0625,1233.0445 L1482.0625,1235.232 Q1480.375,1234.2476 1479.1406,1234.2476 Q1478.2344,1234.2476 1477.4688,1234.8882 Q1476.7188,1235.5132 1476.2344,1236.7789 Q1475.75,1238.0289 1475.75,1239.5289 Q1475.75,1241.0445 1476.25,1242.3257 Q1476.75,1243.5914 1477.5,1244.2007 Q1478.25,1244.8101 1479.1406,1244.8101 Q1480.375,1244.8101 1482.0625,1243.8257 L1482.0625,1245.9976 Z " fill="#000000"/><text fill="#000000" font-family="sans-serif" font-size="14" lengthAdjust="spacing" textLength="91" x="1493.5" y="1244.914">BuildingCode</text><line style="stroke:#181818;stroke-width:0.5;" x1="1465.5" x2="1586.5" y1="1255.482" y2="1255.482"/><line style="stroke:#181818;stroke-width:0.5;" x1="1465.5" x2="1586.5" y1="1263.482" y2="1263.482"/></g><!--class BuildingName--><g id="elem_BuildingName"><rect codeLine="90" fill="#F1F1F1" height="48" id="BuildingName" rx="2.5" ry="2.5" style="stroke:#181818;stroke-width:0.5;" width="129" x="1300.5" y="1223.482"/><ellipse cx="1315.5" cy="1239.482" fill="#ADD1B2" rx="11" ry="11" style="stroke:#181818;stroke-width:1.0;"/><path d="M1318.0625,1245.9976 Q1316.4063,1246.6226 1315.2031,1246.6226 Q1313.625,1246.6226 1312.2813,1245.7789 Q1310.9531,1244.9195 1310.2188,1243.2632 Q1309.4844,1241.607 1309.4844,1239.5289 Q1309.4844,1237.4664 1310.2031,1235.8101 Q1310.9219,1234.1539 1312.2656,1233.2945 Q1313.6094,1232.4351 1315.2031,1232.4351 Q1316.4063,1232.4351 1318.0625,1233.0445 L1318.0625,1235.232 Q1316.375,1234.2476 1315.1406,1234.2476 Q1314.2344,1234.2476 1313.4688,1234.8882 Q1312.7188,1235.5132 1312.2344,1236.7789 Q1311.75,1238.0289 1311.75,1239.5289 Q1311.75,1241.0445 1312.25,1242.3257 Q1312.75,1243.5914 1313.5,1244.2007 Q1314.25,1244.8101 1315.1406,1244.8101 Q1316.375,1244.8101 1318.0625,1243.8257 L1318.0625,1245.9976 Z " fill="#000000"/><text fill="#000000" font-family="sans-serif" font-size="14" lengthAdjust="spacing" textLength="97" x="1329.5" y="1244.914">BuildingName</text><line style="stroke:#181818;stroke-width:0.5;" x1="1301.5" x2="1428.5" y1="1255.482" y2="1255.482"/><line style="stroke:#181818;stroke-width:0.5;" x1="1301.5" x2="1428.5" y1="1263.482" y2="1263.482"/></g><!--class BuildingDescription--><g id="elem_BuildingDescription"><rect codeLine="91" fill="#F1F1F1" height="48" id="BuildingDescription" rx="2.5" ry="2.5" style="stroke:#181818;stroke-width:0.5;" width="166" x="1099" y="1223.482"/><ellipse cx="1114" cy="1239.482" fill="#ADD1B2" rx="11" ry="11" style="stroke:#181818;stroke-width:1.0;"/><path d="M1116.5625,1245.9976 Q1114.9063,1246.6226 1113.7031,1246.6226 Q1112.125,1246.6226 1110.7813,1245.7789 Q1109.4531,1244.9195 1108.7188,1243.2632 Q1107.9844,1241.607 1107.9844,1239.5289 Q1107.9844,1237.4664 1108.7031,1235.8101 Q1109.4219,1234.1539 1110.7656,1233.2945 Q1112.1094,1232.4351 1113.7031,1232.4351 Q1114.9063,1232.4351 1116.5625,1233.0445 L1116.5625,1235.232 Q1114.875,1234.2476 1113.6406,1234.2476 Q1112.7344,1234.2476 1111.9688,1234.8882 Q1111.2188,1235.5132 1110.7344,1236.7789 Q1110.25,1238.0289 1110.25,1239.5289 Q1110.25,1241.0445 1110.75,1242.3257 Q1111.25,1243.5914 1112,1244.2007 Q1112.75,1244.8101 1113.6406,1244.8101 Q1114.875,1244.8101 1116.5625,1243.8257 L1116.5625,1245.9976 Z " fill="#000000"/><text fill="#000000" font-family="sans-serif" font-size="14" lengthAdjust="spacing" textLength="134" x="1128" y="1244.914">BuildingDescription</text><line style="stroke:#181818;stroke-width:0.5;" x1="1100" x2="1264" y1="1255.482" y2="1255.482"/><line style="stroke:#181818;stroke-width:0.5;" x1="1100" x2="1264" y1="1263.482" y2="1263.482"/></g><!--class BuildingDimensions--><g id="elem_BuildingDimensions"><rect codeLine="92" fill="#F1F1F1" height="48" id="BuildingDimensions" rx="2.5" ry="2.5" style="stroke:#181818;stroke-width:0.5;" width="168" x="896" y="1223.482"/><ellipse cx="911" cy="1239.482" fill="#ADD1B2" rx="11" ry="11" style="stroke:#181818;stroke-width:1.0;"/><path d="M913.5625,1245.9976 Q911.9063,1246.6226 910.7031,1246.6226 Q909.125,1246.6226 907.7813,1245.7789 Q906.4531,1244.9195 905.7188,1243.2632 Q904.9844,1241.607 904.9844,1239.5289 Q904.9844,1237.4664 905.7031,1235.8101 Q906.4219,1234.1539 907.7656,1233.2945 Q909.1094,1232.4351 910.7031,1232.4351 Q911.9063,1232.4351 913.5625,1233.0445 L913.5625,1235.232 Q911.875,1234.2476 910.6406,1234.2476 Q909.7344,1234.2476 908.9688,1234.8882 Q908.2188,1235.5132 907.7344,1236.7789 Q907.25,1238.0289 907.25,1239.5289 Q907.25,1241.0445 907.75,1242.3257 Q908.25,1243.5914 909,1244.2007 Q909.75,1244.8101 910.6406,1244.8101 Q911.875,1244.8101 913.5625,1243.8257 L913.5625,1245.9976 Z " fill="#000000"/><text fill="#000000" font-family="sans-serif" font-size="14" lengthAdjust="spacing" textLength="136" x="925" y="1244.914">BuildingDimensions</text><line style="stroke:#181818;stroke-width:0.5;" x1="897" x2="1063" y1="1255.482" y2="1255.482"/><line style="stroke:#181818;stroke-width:0.5;" x1="897" x2="1063" y1="1263.482" y2="1263.482"/></g><!--link DBDriver to IDBDriver--><g id="link_DBDriver_IDBDriver"><path codeLine="24" d="M299.5,160.602 C311.07,160.602 304.63,160.602 316.2,160.602 " fill="none" id="DBDriver-to-IDBDriver" style="stroke:#FF6655;stroke-width:1.0;"/><polygon fill="none" points="334.2,160.602,316.2,154.602,316.2,166.602,334.2,160.602" style="stroke:#FF6655;stroke-width:1.0;"/></g><!--reverse link IControllerBuilding to ControllerBuilding--><g id="link_IControllerBuilding_ControllerBuilding"><path codeLine="36" d="M172,444.722 C172,486.182 172,554.742 172,596.332 " fill="none" id="IControllerBuilding-backto-ControllerBuilding" style="stroke:#FF6655;stroke-width:1.0;"/><polygon fill="none" points="172,426.722,166,444.722,178,444.722,172,426.722" style="stroke:#FF6655;stroke-width:1.0;"/></g><!--reverse link DBDriver to RepoBuilding--><g id="link_DBDriver_RepoBuilding"><path codeLine="44" d="M269.4708,190.2534 C295.9208,236.2534 351.33,332.622 377.67,378.412 " fill="none" id="DBDriver-backto-RepoBuilding" style="stroke:#FF6655;stroke-width:1.0;stroke-dasharray:7.0,7.0;"/><polygon fill="#FF6655" points="266.48,185.052,267.4986,194.848,268.9724,189.3865,274.4339,190.8603,266.48,185.052" style="stroke:#FF6655;stroke-width:1.0;"/></g><!--link RouteBuilding to IControllerBuilding--><g id="link_RouteBuilding_IControllerBuilding"><path codeLine="47" d="M522.38,184.962 C502.56,201.502 473.57,222.462 444,232.602 C416.62,241.992 340,227.892 314,240.602 C252.06,270.892 208.4584,336.2734 187.3984,373.1034 " fill="none" id="RouteBuilding-to-IControllerBuilding" style="stroke:#FF6655;stroke-width:1.0;stroke-dasharray:7.0,7.0;"/><polygon fill="#FF6655" points="184.42,378.312,192.3599,372.4847,186.902,373.9715,185.4151,368.5135,184.42,378.312" style="stroke:#FF6655;stroke-width:1.0;"/></g><!--link AppServiceBuilding to IAppServiceBuilding--><g id="link_AppServiceBuilding_IAppServiceBuilding"><path codeLine="60" d="M661.8,819.012 C661.41,863.262 660.7485,940.7127 660.3585,985.0127 " fill="none" id="AppServiceBuilding-to-IAppServiceBuilding" style="stroke:#FF6655;stroke-width:1.0;"/><polygon fill="none" points="660.2,1003.012,666.3582,985.0655,654.3587,984.9599,660.2,1003.012" style="stroke:#FF6655;stroke-width:1.0;"/></g><!--link RepoBuilding to IRepoBuilding--><g id="link_RepoBuilding_IRepoBuilding"><path codeLine="67" d="M418.82,426.722 C468.74,468.182 559.0859,543.238 609.1359,584.828 " fill="none" id="RepoBuilding-to-IRepoBuilding" style="stroke:#FF6655;stroke-width:1.0;"/><polygon fill="none" points="622.98,596.332,612.9706,580.2133,605.3013,589.4427,622.98,596.332" style="stroke:#FF6655;stroke-width:1.0;"/></g><!--link ControllerBuilding to IAppServiceBuilding--><g id="link_ControllerBuilding_IAppServiceBuilding"><path codeLine="71" d="M199.99,644.822 C285.96,716.152 540.9723,927.7309 627.2023,999.2709 " fill="none" id="ControllerBuilding-to-IAppServiceBuilding" style="stroke:#FF6655;stroke-width:1.0;stroke-dasharray:7.0,7.0;"/><polygon fill="#FF6655" points="631.82,1003.102,627.4475,994.277,627.9719,999.9095,622.3394,1000.4339,631.82,1003.102" style="stroke:#FF6655;stroke-width:1.0;"/></g><!--reverse link IRepoBuilding to AppServiceBuilding--><g id="link_IRepoBuilding_AppServiceBuilding"><path codeLine="73" d="M652.863,650.7897 C654.963,683.6197 658.4,737.302 660.5,770.222 " fill="none" id="IRepoBuilding-backto-AppServiceBuilding" style="stroke:#FF6655;stroke-width:1.0;stroke-dasharray:7.0,7.0;"/><polygon fill="#FF6655" points="652.48,644.802,649.0627,654.039,652.7992,649.7918,657.0464,653.5283,652.48,644.802" style="stroke:#FF6655;stroke-width:1.0;"/></g><!--link Building to BuildingCode--><g id="link_Building_BuildingCode"><path codeLine="97" d="M1226.88,1037.332 C1283.13,1050.232 1380.25,1078.622 1447,1131.482 C1478.52,1156.442 1499.6917,1192.0279 1512.5717,1217.7279 " fill="none" id="Building-to-BuildingCode" style="stroke:#FF6655;stroke-width:1.0;"/><polygon fill="#FF6655" points="1515.26,1223.092,1514.8036,1213.2537,1513.0198,1218.6219,1507.6515,1216.8381,1515.26,1223.092" style="stroke:#FF6655;stroke-width:1.0;"/><text fill="#000000" font-family="Impact" font-size="13" lengthAdjust="spacing" textLength="5" x="1234.4312" y="1035.8893">1</text><text fill="#000000" font-family="Impact" font-size="13" lengthAdjust="spacing" textLength="5" x="1506.7018" y="1212.7509">1</text></g><!--link Building to BuildingName--><g id="link_Building_BuildingName"><path codeLine="98" d="M1222.35,1066.742 C1241.46,1085.582 1264.18,1109.022 1283,1131.482 C1308.36,1161.742 1330.9417,1194.4165 1346.6717,1218.2165 " fill="none" id="Building-to-BuildingName" style="stroke:#FF6655;stroke-width:1.0;"/><polygon fill="#FF6655" points="1349.98,1223.222,1348.3546,1213.5082,1347.2231,1219.0507,1341.6806,1217.9192,1349.98,1223.222" style="stroke:#FF6655;stroke-width:1.0;"/><text fill="#000000" font-family="Impact" font-size="13" lengthAdjust="spacing" textLength="5" x="1223.3823" y="1087.3772">1</text><text fill="#000000" font-family="Impact" font-size="13" lengthAdjust="spacing" textLength="5" x="1340.2715" y="1212.9158">1</text></g><!--link Building to BuildingDescription--><g id="link_Building_BuildingDescription"><path codeLine="99" d="M1182,1066.702 C1182,1111.882 1182,1179.652 1182,1217.092 " fill="none" id="Building-to-BuildingDescription" style="stroke:#FF6655;stroke-width:1.0;"/><polygon fill="#FF6655" points="1182,1223.092,1186,1214.092,1182,1218.092,1178,1214.092,1182,1223.092" style="stroke:#FF6655;stroke-width:1.0;"/><text fill="#000000" font-family="Impact" font-size="13" lengthAdjust="spacing" textLength="5" x="1176.6016" y="1087.3308">1</text><text fill="#000000" font-family="Impact" font-size="13" lengthAdjust="spacing" textLength="5" x="1176.3281" y="1212.7509">1</text></g><!--link Building to BuildingDimensions--><g id="link_Building_BuildingDimensions"><path codeLine="100" d="M1143.6,1066.632 C1124.52,1085.842 1101.27,1109.642 1081,1131.482 C1052.08,1162.642 1023.7628,1195.2148 1003.6628,1218.6848 " fill="none" id="Building-to-BuildingDimensions" style="stroke:#FF6655;stroke-width:1.0;"/><polygon fill="#FF6655" points="999.76,1223.242,1008.6524,1219.0081,1003.0124,1219.4443,1002.5761,1213.8043,999.76,1223.242" style="stroke:#FF6655;stroke-width:1.0;"/><text fill="#000000" font-family="Impact" font-size="13" lengthAdjust="spacing" textLength="5" x="1131.8259" y="1087.5439">1</text><text fill="#000000" font-family="Impact" font-size="13" lengthAdjust="spacing" textLength="5" x="999.6144" y="1212.5498">1</text></g><!--link AppServiceBuilding to Building--><g id="link_AppServiceBuilding_Building"><path codeLine="102" d="M714.72,819.012 C817.1,864.472 1035.6663,961.507 1131.5363,1004.077 " fill="none" id="AppServiceBuilding-to-Building" style="stroke:#FF6655;stroke-width:1.0;stroke-dasharray:7.0,7.0;"/><polygon fill="#FF6655" points="1137.02,1006.512,1130.4178,999.2037,1132.4503,1004.4828,1127.1711,1006.5153,1137.02,1006.512" style="stroke:#FF6655;stroke-width:1.0;"/></g><!--SRC=[bLNBRjim4BpxAmZta9CTv12V105-r420eYrYeDU2fZOAQuaabfGBj_M_TwsNzQ0aH1TBtk7EpkwGj2Uf34UUCg5JenKen_xE63rxhTn1_W7sjCg_DroSOjIPYhOwqHW4QyF5EuGX-oBZTxVLo9C2g342x88-xVUhrVDpdVehJu5jTOOIiBkC7HCYyx6o7O0vd2wR98CylaRKl-jyBodHkNkWM5DHNsSp2fzu3CnUh8EqL5hzENzHRyYjmqou365UXbkGLvqviCtGxH49jvRbiKqcaqYgk8uJQo_BTq0hgG8be9jAAWVunWM9sMrsACzbUzfKlL23fOgn1Tu6i_WNTbALs8RiYd8TSKFlrYjzIrr6dIITU3lL2AYZxexijQmZgCsGccI2f6ZHPFxcLn_C5fd9MpUInpVQLp3QIgV9rqCs8KITofUh2M3Bp2p3-xmRgARRs78vN6fttcjZ4Ycuargn0-1P2l1Fd81UG7iWX1e2TKP-Htvuv1CaHMS_bh-FPejyufuq0uMD3RkZtJzrJrcjwHS5JJh6Oz_S46DAFF8BhxNfV0Rwh9nq9FcH3drutEcKI-KtK1mZnBmyCGUwM57D6RUC_pnMrVJR2JVU2wlh3GBKsj7b4WH5A0m7zZWfyEpL7vok4VRj-0k46pPugxwp7Ykmi66rOAiZc83SRgq9o0wiG6bkktKAALDGbd1sf0lLUzt4-TESR1RclzxAHv4j0QD8duxn1NSvewObo_RT_L2FptTiF5nBNrzd_m40]--></g></svg>