<?xml version="1.0" encoding="us-ascii" standalone="no"?><svg xmlns="http://www.w3.org/2000/svg" xmlns:xlink="http://www.w3.org/1999/xlink" contentStyleType="text/css" height="831px" preserveAspectRatio="none" style="width:1091px;height:831px;background:#FFFFFF;" version="1.1" viewBox="0 0 1091 831" width="1091px" zoomAndPan="magnify"><defs/><g><rect fill="#FFFFFF" height="810.4365" style="stroke:#181818;stroke-width:1.5;" width="1080" x="5" y="15"/><path d="M36,15 L36,26.6211 L26,36.6211 L5,36.6211 " fill="none" style="stroke:#181818;stroke-width:1.5;"/><text fill="#000000" font-family="sans-serif" font-size="14" lengthAdjust="spacing" textLength="21" x="8" y="31.1074">MD</text><rect fill="#ADD8E6" height="753.4316" style="stroke:#181818;stroke-width:0.5;" width="759" x="219" y="46.3838"/><text fill="#000000" font-family="sans-serif" font-size="13" font-weight="bold" lengthAdjust="spacing" textLength="59" x="569" y="60.4121">Back-End</text><rect fill="#DDDDDD" height="753.4316" style="stroke:#181818;stroke-width:0.5;" width="82" x="980" y="46.3838"/><text fill="#000000" font-family="sans-serif" font-size="13" font-weight="bold" lengthAdjust="spacing" textLength="59" x="991.5" y="60.4121">Database</text><rect fill="#FFFFFF" height="541.6074" style="stroke:#181818;stroke-width:1.0;" width="10" x="244" y="165.5869"/><rect fill="#FFFFFF" height="479.0254" style="stroke:#181818;stroke-width:1.0;" width="10" x="414" y="196.8779"/><rect fill="#FFFFFF" height="416.4434" style="stroke:#181818;stroke-width:1.0;" width="10" x="598" y="228.1689"/><rect fill="#FFFFFF" height="78.5332" style="stroke:#181818;stroke-width:1.0;" width="10" x="715.5" y="269.46"/><rect fill="#FFFFFF" height="93.5332" style="stroke:#181818;stroke-width:1.0;" width="10" x="790" y="519.7881"/><rect fill="#FFFFFF" height="52.2422" style="stroke:#181818;stroke-width:1.0;" width="10" x="947" y="561.0791"/><rect fill="#FFFFFF" height="30" style="stroke:#181818;stroke-width:1.0;" width="10" x="1016" y="458.4971"/><rect fill="none" height="409.7832" style="stroke:#000000;stroke-width:1.5;" width="1048" x="20" y="305.4111"/><line style="stroke:#181818;stroke-width:0.5;stroke-dasharray:5.0,5.0;" x1="45" x2="45" y1="132.2959" y2="732.1943"/><line style="stroke:#181818;stroke-width:0.5;stroke-dasharray:5.0,5.0;" x1="249" x2="249" y1="132.2959" y2="732.1943"/><line style="stroke:#181818;stroke-width:0.5;stroke-dasharray:5.0,5.0;" x1="419" x2="419" y1="132.2959" y2="732.1943"/><line style="stroke:#181818;stroke-width:0.5;stroke-dasharray:5.0,5.0;" x1="602.5" x2="602.5" y1="132.2959" y2="732.1943"/><line style="stroke:#181818;stroke-width:0.5;stroke-dasharray:5.0,5.0;" x1="720" x2="720" y1="277.29" y2="732.1943"/><line style="stroke:#181818;stroke-width:0.5;stroke-dasharray:5.0,5.0;" x1="795" x2="795" y1="132.2959" y2="732.1943"/><line style="stroke:#181818;stroke-width:0.5;stroke-dasharray:5.0,5.0;" x1="952" x2="952" y1="568.9092" y2="732.1943"/><line style="stroke:#181818;stroke-width:0.5;stroke-dasharray:5.0,5.0;" x1="1021" x2="1021" y1="132.2959" y2="732.1943"/><rect fill="#E2E2F0" height="32.6211" rx="2.5" ry="2.5" style="stroke:#181818;stroke-width:0.5;" width="30" x="30" y="98.6748"/><text fill="#000000" font-family="sans-serif" font-size="14" lengthAdjust="spacing" textLength="16" x="37" y="120.7822">??</text><rect fill="#E2E2F0" height="32.6211" rx="2.5" ry="2.5" style="stroke:#181818;stroke-width:0.5;" width="30" x="30" y="731.1943"/><text fill="#000000" font-family="sans-serif" font-size="14" lengthAdjust="spacing" textLength="16" x="37" y="753.3018">??</text><rect fill="#E2E2F0" height="32.6211" rx="2.5" ry="2.5" style="stroke:#181818;stroke-width:0.5;" width="52" x="223" y="98.6748"/><text fill="#000000" font-family="sans-serif" font-size="14" lengthAdjust="spacing" textLength="38" x="230" y="120.7822">Route</text><rect fill="#E2E2F0" height="32.6211" rx="2.5" ry="2.5" style="stroke:#181818;stroke-width:0.5;" width="52" x="223" y="731.1943"/><text fill="#000000" font-family="sans-serif" font-size="14" lengthAdjust="spacing" textLength="38" x="230" y="753.3018">Route</text><rect fill="#E2E2F0" height="32.6211" rx="2.5" ry="2.5" style="stroke:#181818;stroke-width:0.5;" width="76" x="381" y="98.6748"/><text fill="#000000" font-family="sans-serif" font-size="14" lengthAdjust="spacing" textLength="62" x="388" y="120.7822">Controller</text><rect fill="#E2E2F0" height="32.6211" rx="2.5" ry="2.5" style="stroke:#181818;stroke-width:0.5;" width="76" x="381" y="731.1943"/><text fill="#000000" font-family="sans-serif" font-size="14" lengthAdjust="spacing" textLength="62" x="388" y="753.3018">Controller</text><rect fill="#E2E2F0" height="32.6211" rx="2.5" ry="2.5" style="stroke:#181818;stroke-width:0.5;" width="61" x="572.5" y="98.6748"/><text fill="#000000" font-family="sans-serif" font-size="14" lengthAdjust="spacing" textLength="47" x="579.5" y="120.7822">Service</text><rect fill="#E2E2F0" height="32.6211" rx="2.5" ry="2.5" style="stroke:#181818;stroke-width:0.5;" width="61" x="572.5" y="731.1943"/><text fill="#000000" font-family="sans-serif" font-size="14" lengthAdjust="spacing" textLength="47" x="579.5" y="753.3018">Service</text><rect fill="#E2E2F0" height="51.2422" rx="2.5" ry="2.5" style="stroke:#181818;stroke-width:0.5;" width="67" x="687" y="731.1943"/><text fill="#000000" font-family="sans-serif" font-size="14" lengthAdjust="spacing" textLength="53" x="694" y="753.3018">building:</text><text fill="#000000" font-family="sans-serif" font-size="14" lengthAdjust="spacing" textLength="50" x="695.5" y="771.9229">Building</text><rect fill="#E2E2F0" height="32.6211" rx="2.5" ry="2.5" style="stroke:#181818;stroke-width:0.5;" width="62" x="764" y="98.6748"/><text fill="#000000" font-family="sans-serif" font-size="14" lengthAdjust="spacing" textLength="48" x="771" y="120.7822">Mapper</text><rect fill="#E2E2F0" height="32.6211" rx="2.5" ry="2.5" style="stroke:#181818;stroke-width:0.5;" width="62" x="764" y="731.1943"/><text fill="#000000" font-family="sans-serif" font-size="14" lengthAdjust="spacing" textLength="48" x="771" y="753.3018">Mapper</text><rect fill="#E2E2F0" height="51.2422" rx="2.5" ry="2.5" style="stroke:#181818;stroke-width:0.5;" width="44" x="930" y="731.1943"/><text fill="#000000" font-family="sans-serif" font-size="14" lengthAdjust="spacing" textLength="24" x="940" y="753.3018">dto:</text><text fill="#000000" font-family="sans-serif" font-size="14" lengthAdjust="spacing" textLength="30" x="937" y="771.9229">DTO</text><text fill="#000000" font-family="sans-serif" font-size="14" lengthAdjust="spacing" textLength="68" x="984" y="128.7822">Repository</text><path d="M1003,77.6748 C1003,67.6748 1021,67.6748 1021,67.6748 C1021,67.6748 1039,67.6748 1039,77.6748 L1039,103.6748 C1039,113.6748 1021,113.6748 1021,113.6748 C1021,113.6748 1003,113.6748 1003,103.6748 L1003,77.6748 " fill="#E2E2F0" style="stroke:#181818;stroke-width:1.5;"/><path d="M1003,77.6748 C1003,87.6748 1021,87.6748 1021,87.6748 C1021,87.6748 1039,87.6748 1039,77.6748 " fill="none" style="stroke:#181818;stroke-width:1.5;"/><text fill="#000000" font-family="sans-serif" font-size="14" lengthAdjust="spacing" textLength="68" x="984" y="746.3018">Repository</text><path d="M1003,759.8154 C1003,749.8154 1021,749.8154 1021,749.8154 C1021,749.8154 1039,749.8154 1039,759.8154 L1039,785.8154 C1039,795.8154 1021,795.8154 1021,795.8154 C1021,795.8154 1003,795.8154 1003,785.8154 L1003,759.8154 " fill="#E2E2F0" style="stroke:#181818;stroke-width:1.5;"/><path d="M1003,759.8154 C1003,769.8154 1021,769.8154 1021,769.8154 C1021,769.8154 1039,769.8154 1039,759.8154 " fill="none" style="stroke:#181818;stroke-width:1.5;"/><rect fill="#FFFFFF" height="541.6074" style="stroke:#181818;stroke-width:1.0;" width="10" x="244" y="165.5869"/><rect fill="#FFFFFF" height="479.0254" style="stroke:#181818;stroke-width:1.0;" width="10" x="414" y="196.8779"/><rect fill="#FFFFFF" height="416.4434" style="stroke:#181818;stroke-width:1.0;" width="10" x="598" y="228.1689"/><rect fill="#FFFFFF" height="78.5332" style="stroke:#181818;stroke-width:1.0;" width="10" x="715.5" y="269.46"/><rect fill="#FFFFFF" height="93.5332" style="stroke:#181818;stroke-width:1.0;" width="10" x="790" y="519.7881"/><rect fill="#FFFFFF" height="52.2422" style="stroke:#181818;stroke-width:1.0;" width="10" x="947" y="561.0791"/><rect fill="#FFFFFF" height="30" style="stroke:#181818;stroke-width:1.0;" width="10" x="1016" y="458.4971"/><polygon fill="#181818" points="232,161.5869,242,165.5869,232,169.5869,236,165.5869" style="stroke:#181818;stroke-width:1.0;"/><line style="stroke:#181818;stroke-width:1.0;stroke-dasharray:2.0,2.0;" x1="45" x2="238" y1="165.5869" y2="165.5869"/><text fill="#000000" font-family="sans-serif" font-size="13" font-weight="bold" lengthAdjust="spacing" textLength="7" x="52" y="160.3242">1</text><text fill="#000000" font-family="sans-serif" font-size="13" lengthAdjust="spacing" textLength="81" x="63" y="160.3242">post(/building)</text><polygon fill="#181818" points="402,192.8779,412,196.8779,402,200.8779,406,196.8779" style="stroke:#181818;stroke-width:1.0;"/><line style="stroke:#181818;stroke-width:1.0;" x1="254" x2="408" y1="196.8779" y2="196.8779"/><text fill="#000000" font-family="sans-serif" font-size="13" font-weight="bold" lengthAdjust="spacing" textLength="7" x="261" y="191.6152">2</text><text fill="#000000" font-family="sans-serif" font-size="13" lengthAdjust="spacing" textLength="130" x="272" y="191.6152">createBuilding(req,res)</text><polygon fill="#181818" points="586,224.1689,596,228.1689,586,232.1689,590,228.1689" style="stroke:#181818;stroke-width:1.0;"/><line style="stroke:#181818;stroke-width:1.0;" x1="424" x2="592" y1="228.1689" y2="228.1689"/><text fill="#000000" font-family="sans-serif" font-size="13" font-weight="bold" lengthAdjust="spacing" textLength="7" x="431" y="222.9063">3</text><text fill="#000000" font-family="sans-serif" font-size="13" lengthAdjust="spacing" textLength="144" x="442" y="222.9063">createBuilding(bodyDTO)</text><polygon fill="#181818" points="675,255.46,685,259.46,675,263.46,679,259.46" style="stroke:#181818;stroke-width:1.0;"/><line style="stroke:#181818;stroke-width:1.0;stroke-dasharray:2.0,2.0;" x1="608" x2="681" y1="259.46" y2="259.46"/><text fill="#000000" font-family="sans-serif" font-size="13" font-weight="bold" lengthAdjust="spacing" textLength="7" x="615" y="254.1973">4</text><text fill="#000000" font-family="sans-serif" font-size="13" lengthAdjust="spacing" textLength="44" x="626" y="254.1973">create()</text><rect fill="#E2E2F0" height="51.2422" rx="2.5" ry="2.5" style="stroke:#181818;stroke-width:0.5;" width="67" x="687" y="236.1689"/><text fill="#000000" font-family="sans-serif" font-size="14" lengthAdjust="spacing" textLength="53" x="694" y="258.2764">building:</text><text fill="#000000" font-family="sans-serif" font-size="14" lengthAdjust="spacing" textLength="50" x="695.5" y="276.8975">Building</text><path d="M20,305.4111 L81,305.4111 L81,314.7021 L71,324.7021 L20,324.7021 L20,305.4111 " fill="#EEEEEE" style="stroke:#000000;stroke-width:1.5;"/><rect fill="none" height="409.7832" style="stroke:#000000;stroke-width:1.5;" width="1048" x="20" y="305.4111"/><text fill="#000000" font-family="sans-serif" font-size="13" font-weight="bold" lengthAdjust="spacing" textLength="16" x="35" y="320.4395">alt</text><text fill="#000000" font-family="sans-serif" font-size="11" font-weight="bold" lengthAdjust="spacing" textLength="118" x="96" y="319.2813">[building not created]</text><polygon fill="#181818" points="435,343.9932,425,347.9932,435,351.9932,431,347.9932" style="stroke:#181818;stroke-width:1.0;"/><line style="stroke:#181818;stroke-width:1.0;stroke-dasharray:2.0,2.0;" x1="429" x2="597" y1="347.9932" y2="347.9932"/><text fill="#000000" font-family="sans-serif" font-size="13" font-weight="bold" lengthAdjust="spacing" textLength="7" x="441" y="342.7305">5</text><text fill="#000000" font-family="sans-serif" font-size="13" lengthAdjust="spacing" textLength="26" x="452" y="342.7305">error</text><polygon fill="#181818" points="265,375.2842,255,379.2842,265,383.2842,261,379.2842" style="stroke:#181818;stroke-width:1.0;"/><line style="stroke:#181818;stroke-width:1.0;stroke-dasharray:2.0,2.0;" x1="259" x2="413" y1="379.2842" y2="379.2842"/><text fill="#000000" font-family="sans-serif" font-size="13" font-weight="bold" lengthAdjust="spacing" textLength="7" x="271" y="374.0215">6</text><text fill="#000000" font-family="sans-serif" font-size="13" lengthAdjust="spacing" textLength="59" x="282" y="374.0215">error (422)</text><polygon fill="#181818" points="56,406.5752,46,410.5752,56,414.5752,52,410.5752" style="stroke:#181818;stroke-width:1.0;"/><line style="stroke:#181818;stroke-width:1.0;stroke-dasharray:2.0,2.0;" x1="50" x2="243" y1="410.5752" y2="410.5752"/><text fill="#000000" font-family="sans-serif" font-size="13" font-weight="bold" lengthAdjust="spacing" textLength="7" x="62" y="405.3125">7</text><text fill="#000000" font-family="sans-serif" font-size="13" lengthAdjust="spacing" textLength="164" x="73" y="405.3125">422: Unprocessable Content</text><line style="stroke:#000000;stroke-width:1.0;stroke-dasharray:2.0,2.0;" x1="20" x2="1068" y1="419.5752" y2="419.5752"/><text fill="#000000" font-family="sans-serif" font-size="11" font-weight="bold" lengthAdjust="spacing" textLength="170" x="25" y="431.4453">[building created successfully]</text><polygon fill="#181818" points="1004,454.4971,1014,458.4971,1004,462.4971,1008,458.4971" style="stroke:#181818;stroke-width:1.0;"/><line style="stroke:#181818;stroke-width:1.0;" x1="608" x2="1010" y1="458.4971" y2="458.4971"/><text fill="#000000" font-family="sans-serif" font-size="13" font-weight="bold" lengthAdjust="spacing" textLength="7" x="615" y="453.2344">8</text><text fill="#000000" font-family="sans-serif" font-size="13" lengthAdjust="spacing" textLength="78" x="626" y="453.2344">save(building)</text><polygon fill="#181818" points="778,515.7881,788,519.7881,778,523.7881,782,519.7881" style="stroke:#181818;stroke-width:1.0;"/><line style="stroke:#181818;stroke-width:1.0;" x1="608" x2="784" y1="519.7881" y2="519.7881"/><text fill="#000000" font-family="sans-serif" font-size="13" font-weight="bold" lengthAdjust="spacing" textLength="7" x="615" y="514.5254">9</text><text fill="#000000" font-family="sans-serif" font-size="13" lengthAdjust="spacing" textLength="89" x="626" y="514.5254">toDTO(building)</text><polygon fill="#181818" points="918,547.0791,928,551.0791,918,555.0791,922,551.0791" style="stroke:#181818;stroke-width:1.0;"/><line style="stroke:#181818;stroke-width:1.0;stroke-dasharray:2.0,2.0;" x1="800" x2="924" y1="551.0791" y2="551.0791"/><text fill="#000000" font-family="sans-serif" font-size="13" font-weight="bold" lengthAdjust="spacing" textLength="14" x="807" y="545.8164">10</text><text fill="#000000" font-family="sans-serif" font-size="13" lengthAdjust="spacing" textLength="88" x="825" y="545.8164">create(building)</text><rect fill="#E2E2F0" height="51.2422" rx="2.5" ry="2.5" style="stroke:#181818;stroke-width:0.5;" width="44" x="930" y="527.7881"/><text fill="#000000" font-family="sans-serif" font-size="14" lengthAdjust="spacing" textLength="24" x="940" y="549.8955">dto:</text><text fill="#000000" font-family="sans-serif" font-size="14" lengthAdjust="spacing" textLength="30" x="937" y="568.5166">DTO</text><polygon fill="#181818" points="619,609.3213,609,613.3213,619,617.3213,615,613.3213" style="stroke:#181818;stroke-width:1.0;"/><line style="stroke:#181818;stroke-width:1.0;stroke-dasharray:2.0,2.0;" x1="613" x2="794" y1="613.3213" y2="613.3213"/><text fill="#000000" font-family="sans-serif" font-size="13" font-weight="bold" lengthAdjust="spacing" textLength="14" x="625" y="608.0586">11</text><text fill="#000000" font-family="sans-serif" font-size="13" lengthAdjust="spacing" textLength="18" x="643" y="608.0586">dto</text><polygon fill="#181818" points="435,640.6123,425,644.6123,435,648.6123,431,644.6123" style="stroke:#181818;stroke-width:1.0;"/><line style="stroke:#181818;stroke-width:1.0;stroke-dasharray:2.0,2.0;" x1="429" x2="602" y1="644.6123" y2="644.6123"/><text fill="#000000" font-family="sans-serif" font-size="13" font-weight="bold" lengthAdjust="spacing" textLength="14" x="441" y="639.3496">12</text><text fill="#000000" font-family="sans-serif" font-size="13" lengthAdjust="spacing" textLength="18" x="459" y="639.3496">dto</text><polygon fill="#181818" points="265,671.9033,255,675.9033,265,679.9033,261,675.9033" style="stroke:#181818;stroke-width:1.0;"/><line style="stroke:#181818;stroke-width:1.0;stroke-dasharray:2.0,2.0;" x1="259" x2="418" y1="675.9033" y2="675.9033"/><text fill="#000000" font-family="sans-serif" font-size="13" font-weight="bold" lengthAdjust="spacing" textLength="14" x="271" y="670.6406">13</text><text fill="#000000" font-family="sans-serif" font-size="13" lengthAdjust="spacing" textLength="51" x="289" y="670.6406">dto (201)</text><polygon fill="#181818" points="56,703.1943,46,707.1943,56,711.1943,52,707.1943" style="stroke:#181818;stroke-width:1.0;"/><line style="stroke:#181818;stroke-width:1.0;stroke-dasharray:2.0,2.0;" x1="50" x2="248" y1="707.1943" y2="707.1943"/><text fill="#000000" font-family="sans-serif" font-size="13" font-weight="bold" lengthAdjust="spacing" textLength="14" x="62" y="701.9316">14</text><text fill="#000000" font-family="sans-serif" font-size="13" lengthAdjust="spacing" textLength="74" x="80" y="701.9316">201: Created</text><!--SRC=[ZLJBRjim4BppAnRg8L9GewtHamu9uBYt1WNwkFL2IfkKA4sgAzAe_xvBwb79aHpp98epizhXh6JmpeQ3GXAYaUHrfHjfFMJtznd85e8M1wdj4ya3mkDUAFSNifsiVcy-sJg3Dv_ryo-_Cm7Fw5zTy9WKQ7xmuAmdPmnIEgqycJdW6z9HLnstFLPdkYfeKslxNFwqk_un8TKSzYYRfgzmaCtyhFQEsVllNz8nxmJQ6hYnhhczz5B95ZDHzq_S3JQkrTxHgMk9joD9tCZAwwFq6CqA6ZQREw0IcE7pTyFt5a80hn5AQHiN0UEZ3L12HSY7GsCvuP-tX6qnOcSIoJeuMqc81TcvbthArIVkktZ16ZMJuR2mebviJC7jxQ2R5ulGKKo9PIrfF0o-W7M-bwiNmTFYlKj8v6WLNEFa0zP0dKtneWOzo3zkjyKgWHAQRxS4nfNmmpRaAcnRgGn233LQlyX6mmaQs-rRXJPKaVqKZ3cj6twNeiOrMtd4_7-MBjgUqlcACmbpgIvF3PVrZkDoRTquQ6lsHRbe84_RD42NbMVgSKvVbUzI7w5Nf6CDDe74biGLYLoIciWiJjKiWj6NVFl-mzo8YKGQTj4Fr1364fXImaC_FjFxJJZ-HOcRoLl-F_q3]--></g></svg>