<?xml version="1.0" encoding="us-ascii" standalone="no"?><svg xmlns="http://www.w3.org/2000/svg" xmlns:xlink="http://www.w3.org/1999/xlink" contentStyleType="text/css" height="831px" preserveAspectRatio="none" style="width:997px;height:831px;background:#FFFFFF;" version="1.1" viewBox="0 0 997 831" width="997px" zoomAndPan="magnify"><defs/><g><rect fill="#FFFFFF" height="810.4365" style="stroke:#181818;stroke-width:1.5;" width="986" x="5" y="15"/><path d="M36,15 L36,26.6211 L26,36.6211 L5,36.6211 " fill="none" style="stroke:#181818;stroke-width:1.5;"/><text fill="#000000" font-family="sans-serif" font-size="14" lengthAdjust="spacing" textLength="21" x="8" y="31.1074">MD</text><rect fill="#ADD8E6" height="753.4316" style="stroke:#181818;stroke-width:0.5;" width="665" x="219" y="46.3838"/><text fill="#000000" font-family="sans-serif" font-size="13" font-weight="bold" lengthAdjust="spacing" textLength="59" x="522" y="60.4121">Back-End</text><rect fill="#DDDDDD" height="753.4316" style="stroke:#181818;stroke-width:0.5;" width="82" x="886" y="46.3838"/><text fill="#000000" font-family="sans-serif" font-size="13" font-weight="bold" lengthAdjust="spacing" textLength="59" x="897.5" y="60.4121">Database</text><rect fill="#FFFFFF" height="541.6074" style="stroke:#181818;stroke-width:1.0;" width="10" x="244" y="165.5869"/><rect fill="#FFFFFF" height="479.0254" style="stroke:#181818;stroke-width:1.0;" width="10" x="374" y="196.8779"/><rect fill="#FFFFFF" height="416.4434" style="stroke:#181818;stroke-width:1.0;" width="10" x="504" y="228.1689"/><rect fill="#FFFFFF" height="78.5332" style="stroke:#181818;stroke-width:1.0;" width="10" x="621.5" y="269.46"/><rect fill="#FFFFFF" height="93.5332" style="stroke:#181818;stroke-width:1.0;" width="10" x="696" y="519.7881"/><rect fill="#FFFFFF" height="52.2422" style="stroke:#181818;stroke-width:1.0;" width="10" x="853" y="561.0791"/><rect fill="#FFFFFF" height="30" style="stroke:#181818;stroke-width:1.0;" width="10" x="922" y="458.4971"/><rect fill="none" height="409.7832" style="stroke:#000000;stroke-width:1.5;" width="954" x="20" y="305.4111"/><line style="stroke:#181818;stroke-width:0.5;stroke-dasharray:5.0,5.0;" x1="45" x2="45" y1="132.2959" y2="732.1943"/><line style="stroke:#181818;stroke-width:0.5;stroke-dasharray:5.0,5.0;" x1="249" x2="249" y1="132.2959" y2="732.1943"/><line style="stroke:#181818;stroke-width:0.5;stroke-dasharray:5.0,5.0;" x1="379" x2="379" y1="132.2959" y2="732.1943"/><line style="stroke:#181818;stroke-width:0.5;stroke-dasharray:5.0,5.0;" x1="508.5" x2="508.5" y1="132.2959" y2="732.1943"/><line style="stroke:#181818;stroke-width:0.5;stroke-dasharray:5.0,5.0;" x1="626" x2="626" y1="277.29" y2="732.1943"/><line style="stroke:#181818;stroke-width:0.5;stroke-dasharray:5.0,5.0;" x1="701" x2="701" y1="132.2959" y2="732.1943"/><line style="stroke:#181818;stroke-width:0.5;stroke-dasharray:5.0,5.0;" x1="858" x2="858" y1="568.9092" y2="732.1943"/><line style="stroke:#181818;stroke-width:0.5;stroke-dasharray:5.0,5.0;" x1="927" x2="927" y1="132.2959" y2="732.1943"/><rect fill="#E2E2F0" height="32.6211" rx="2.5" ry="2.5" style="stroke:#181818;stroke-width:0.5;" width="30" x="30" y="98.6748"/><text fill="#000000" font-family="sans-serif" font-size="14" lengthAdjust="spacing" textLength="16" x="37" y="120.7822">??</text><rect fill="#E2E2F0" height="32.6211" rx="2.5" ry="2.5" style="stroke:#181818;stroke-width:0.5;" width="30" x="30" y="731.1943"/><text fill="#000000" font-family="sans-serif" font-size="14" lengthAdjust="spacing" textLength="16" x="37" y="753.3018">??</text><rect fill="#E2E2F0" height="32.6211" rx="2.5" ry="2.5" style="stroke:#181818;stroke-width:0.5;" width="52" x="223" y="98.6748"/><text fill="#000000" font-family="sans-serif" font-size="14" lengthAdjust="spacing" textLength="38" x="230" y="120.7822">Route</text><rect fill="#E2E2F0" height="32.6211" rx="2.5" ry="2.5" style="stroke:#181818;stroke-width:0.5;" width="52" x="223" y="731.1943"/><text fill="#000000" font-family="sans-serif" font-size="14" lengthAdjust="spacing" textLength="38" x="230" y="753.3018">Route</text><rect fill="#E2E2F0" height="32.6211" rx="2.5" ry="2.5" style="stroke:#181818;stroke-width:0.5;" width="76" x="341" y="98.6748"/><text fill="#000000" font-family="sans-serif" font-size="14" lengthAdjust="spacing" textLength="62" x="348" y="120.7822">Controller</text><rect fill="#E2E2F0" height="32.6211" rx="2.5" ry="2.5" style="stroke:#181818;stroke-width:0.5;" width="76" x="341" y="731.1943"/><text fill="#000000" font-family="sans-serif" font-size="14" lengthAdjust="spacing" textLength="62" x="348" y="753.3018">Controller</text><rect fill="#E2E2F0" height="32.6211" rx="2.5" ry="2.5" style="stroke:#181818;stroke-width:0.5;" width="61" x="478.5" y="98.6748"/><text fill="#000000" font-family="sans-serif" font-size="14" lengthAdjust="spacing" textLength="47" x="485.5" y="120.7822">Service</text><rect fill="#E2E2F0" height="32.6211" rx="2.5" ry="2.5" style="stroke:#181818;stroke-width:0.5;" width="61" x="478.5" y="731.1943"/><text fill="#000000" font-family="sans-serif" font-size="14" lengthAdjust="spacing" textLength="47" x="485.5" y="753.3018">Service</text><rect fill="#E2E2F0" height="51.2422" rx="2.5" ry="2.5" style="stroke:#181818;stroke-width:0.5;" width="67" x="593" y="731.1943"/><text fill="#000000" font-family="sans-serif" font-size="14" lengthAdjust="spacing" textLength="53" x="600" y="753.3018">building:</text><text fill="#000000" font-family="sans-serif" font-size="14" lengthAdjust="spacing" textLength="50" x="601.5" y="771.9229">Building</text><rect fill="#E2E2F0" height="32.6211" rx="2.5" ry="2.5" style="stroke:#181818;stroke-width:0.5;" width="62" x="670" y="98.6748"/><text fill="#000000" font-family="sans-serif" font-size="14" lengthAdjust="spacing" textLength="48" x="677" y="120.7822">Mapper</text><rect fill="#E2E2F0" height="32.6211" rx="2.5" ry="2.5" style="stroke:#181818;stroke-width:0.5;" width="62" x="670" y="731.1943"/><text fill="#000000" font-family="sans-serif" font-size="14" lengthAdjust="spacing" textLength="48" x="677" y="753.3018">Mapper</text><rect fill="#E2E2F0" height="51.2422" rx="2.5" ry="2.5" style="stroke:#181818;stroke-width:0.5;" width="44" x="836" y="731.1943"/><text fill="#000000" font-family="sans-serif" font-size="14" lengthAdjust="spacing" textLength="24" x="846" y="753.3018">dto:</text><text fill="#000000" font-family="sans-serif" font-size="14" lengthAdjust="spacing" textLength="30" x="843" y="771.9229">DTO</text><text fill="#000000" font-family="sans-serif" font-size="14" lengthAdjust="spacing" textLength="68" x="890" y="128.7822">Repository</text><path d="M909,77.6748 C909,67.6748 927,67.6748 927,67.6748 C927,67.6748 945,67.6748 945,77.6748 L945,103.6748 C945,113.6748 927,113.6748 927,113.6748 C927,113.6748 909,113.6748 909,103.6748 L909,77.6748 " fill="#E2E2F0" style="stroke:#181818;stroke-width:1.5;"/><path d="M909,77.6748 C909,87.6748 927,87.6748 927,87.6748 C927,87.6748 945,87.6748 945,77.6748 " fill="none" style="stroke:#181818;stroke-width:1.5;"/><text fill="#000000" font-family="sans-serif" font-size="14" lengthAdjust="spacing" textLength="68" x="890" y="746.3018">Repository</text><path d="M909,759.8154 C909,749.8154 927,749.8154 927,749.8154 C927,749.8154 945,749.8154 945,759.8154 L945,785.8154 C945,795.8154 927,795.8154 927,795.8154 C927,795.8154 909,795.8154 909,785.8154 L909,759.8154 " fill="#E2E2F0" style="stroke:#181818;stroke-width:1.5;"/><path d="M909,759.8154 C909,769.8154 927,769.8154 927,769.8154 C927,769.8154 945,769.8154 945,759.8154 " fill="none" style="stroke:#181818;stroke-width:1.5;"/><rect fill="#FFFFFF" height="541.6074" style="stroke:#181818;stroke-width:1.0;" width="10" x="244" y="165.5869"/><rect fill="#FFFFFF" height="479.0254" style="stroke:#181818;stroke-width:1.0;" width="10" x="374" y="196.8779"/><rect fill="#FFFFFF" height="416.4434" style="stroke:#181818;stroke-width:1.0;" width="10" x="504" y="228.1689"/><rect fill="#FFFFFF" height="78.5332" style="stroke:#181818;stroke-width:1.0;" width="10" x="621.5" y="269.46"/><rect fill="#FFFFFF" height="93.5332" style="stroke:#181818;stroke-width:1.0;" width="10" x="696" y="519.7881"/><rect fill="#FFFFFF" height="52.2422" style="stroke:#181818;stroke-width:1.0;" width="10" x="853" y="561.0791"/><rect fill="#FFFFFF" height="30" style="stroke:#181818;stroke-width:1.0;" width="10" x="922" y="458.4971"/><polygon fill="#181818" points="232,161.5869,242,165.5869,232,169.5869,236,165.5869" style="stroke:#181818;stroke-width:1.0;"/><line style="stroke:#181818;stroke-width:1.0;stroke-dasharray:2.0,2.0;" x1="45" x2="238" y1="165.5869" y2="165.5869"/><text fill="#000000" font-family="sans-serif" font-size="13" font-weight="bold" lengthAdjust="spacing" textLength="7" x="52" y="160.3242">1</text><text fill="#000000" font-family="sans-serif" font-size="13" lengthAdjust="spacing" textLength="81" x="63" y="160.3242">post(/building)</text><polygon fill="#181818" points="362,192.8779,372,196.8779,362,200.8779,366,196.8779" style="stroke:#181818;stroke-width:1.0;"/><line style="stroke:#181818;stroke-width:1.0;" x1="254" x2="368" y1="196.8779" y2="196.8779"/><text fill="#000000" font-family="sans-serif" font-size="13" font-weight="bold" lengthAdjust="spacing" textLength="7" x="261" y="191.6152">2</text><text fill="#000000" font-family="sans-serif" font-size="13" lengthAdjust="spacing" textLength="90" x="272" y="191.6152">createBuilding()</text><polygon fill="#181818" points="492,224.1689,502,228.1689,492,232.1689,496,228.1689" style="stroke:#181818;stroke-width:1.0;"/><line style="stroke:#181818;stroke-width:1.0;" x1="384" x2="498" y1="228.1689" y2="228.1689"/><text fill="#000000" font-family="sans-serif" font-size="13" font-weight="bold" lengthAdjust="spacing" textLength="7" x="391" y="222.9063">3</text><text fill="#000000" font-family="sans-serif" font-size="13" lengthAdjust="spacing" textLength="90" x="402" y="222.9063">createBuilding()</text><polygon fill="#181818" points="581,255.46,591,259.46,581,263.46,585,259.46" style="stroke:#181818;stroke-width:1.0;"/><line style="stroke:#181818;stroke-width:1.0;stroke-dasharray:2.0,2.0;" x1="514" x2="587" y1="259.46" y2="259.46"/><text fill="#000000" font-family="sans-serif" font-size="13" font-weight="bold" lengthAdjust="spacing" textLength="7" x="521" y="254.1973">4</text><text fill="#000000" font-family="sans-serif" font-size="13" lengthAdjust="spacing" textLength="44" x="532" y="254.1973">create()</text><rect fill="#E2E2F0" height="51.2422" rx="2.5" ry="2.5" style="stroke:#181818;stroke-width:0.5;" width="67" x="593" y="236.1689"/><text fill="#000000" font-family="sans-serif" font-size="14" lengthAdjust="spacing" textLength="53" x="600" y="258.2764">building:</text><text fill="#000000" font-family="sans-serif" font-size="14" lengthAdjust="spacing" textLength="50" x="601.5" y="276.8975">Building</text><path d="M20,305.4111 L81,305.4111 L81,314.7021 L71,324.7021 L20,324.7021 L20,305.4111 " fill="#EEEEEE" style="stroke:#000000;stroke-width:1.5;"/><rect fill="none" height="409.7832" style="stroke:#000000;stroke-width:1.5;" width="954" x="20" y="305.4111"/><text fill="#000000" font-family="sans-serif" font-size="13" font-weight="bold" lengthAdjust="spacing" textLength="16" x="35" y="320.4395">alt</text><text fill="#000000" font-family="sans-serif" font-size="11" font-weight="bold" lengthAdjust="spacing" textLength="118" x="96" y="319.2813">[building not created]</text><polygon fill="#181818" points="395,343.9932,385,347.9932,395,351.9932,391,347.9932" style="stroke:#181818;stroke-width:1.0;"/><line style="stroke:#181818;stroke-width:1.0;stroke-dasharray:2.0,2.0;" x1="389" x2="503" y1="347.9932" y2="347.9932"/><text fill="#000000" font-family="sans-serif" font-size="13" font-weight="bold" lengthAdjust="spacing" textLength="7" x="401" y="342.7305">5</text><text fill="#000000" font-family="sans-serif" font-size="13" lengthAdjust="spacing" textLength="26" x="412" y="342.7305">error</text><polygon fill="#181818" points="265,375.2842,255,379.2842,265,383.2842,261,379.2842" style="stroke:#181818;stroke-width:1.0;"/><line style="stroke:#181818;stroke-width:1.0;stroke-dasharray:2.0,2.0;" x1="259" x2="373" y1="379.2842" y2="379.2842"/><text fill="#000000" font-family="sans-serif" font-size="13" font-weight="bold" lengthAdjust="spacing" textLength="7" x="271" y="374.0215">6</text><text fill="#000000" font-family="sans-serif" font-size="13" lengthAdjust="spacing" textLength="59" x="282" y="374.0215">error (422)</text><polygon fill="#181818" points="56,406.5752,46,410.5752,56,414.5752,52,410.5752" style="stroke:#181818;stroke-width:1.0;"/><line style="stroke:#181818;stroke-width:1.0;stroke-dasharray:2.0,2.0;" x1="50" x2="243" y1="410.5752" y2="410.5752"/><text fill="#000000" font-family="sans-serif" font-size="13" font-weight="bold" lengthAdjust="spacing" textLength="7" x="62" y="405.3125">7</text><text fill="#000000" font-family="sans-serif" font-size="13" lengthAdjust="spacing" textLength="164" x="73" y="405.3125">422: Unprocessable Content</text><line style="stroke:#000000;stroke-width:1.0;stroke-dasharray:2.0,2.0;" x1="20" x2="974" y1="419.5752" y2="419.5752"/><text fill="#000000" font-family="sans-serif" font-size="11" font-weight="bold" lengthAdjust="spacing" textLength="170" x="25" y="431.4453">[building created successfully]</text><polygon fill="#181818" points="910,454.4971,920,458.4971,910,462.4971,914,458.4971" style="stroke:#181818;stroke-width:1.0;"/><line style="stroke:#181818;stroke-width:1.0;" x1="514" x2="916" y1="458.4971" y2="458.4971"/><text fill="#000000" font-family="sans-serif" font-size="13" font-weight="bold" lengthAdjust="spacing" textLength="7" x="521" y="453.2344">8</text><text fill="#000000" font-family="sans-serif" font-size="13" lengthAdjust="spacing" textLength="78" x="532" y="453.2344">save(building)</text><polygon fill="#181818" points="684,515.7881,694,519.7881,684,523.7881,688,519.7881" style="stroke:#181818;stroke-width:1.0;"/><line style="stroke:#181818;stroke-width:1.0;" x1="514" x2="690" y1="519.7881" y2="519.7881"/><text fill="#000000" font-family="sans-serif" font-size="13" font-weight="bold" lengthAdjust="spacing" textLength="7" x="521" y="514.5254">9</text><text fill="#000000" font-family="sans-serif" font-size="13" lengthAdjust="spacing" textLength="89" x="532" y="514.5254">toDTO(building)</text><polygon fill="#181818" points="824,547.0791,834,551.0791,824,555.0791,828,551.0791" style="stroke:#181818;stroke-width:1.0;"/><line style="stroke:#181818;stroke-width:1.0;stroke-dasharray:2.0,2.0;" x1="706" x2="830" y1="551.0791" y2="551.0791"/><text fill="#000000" font-family="sans-serif" font-size="13" font-weight="bold" lengthAdjust="spacing" textLength="14" x="713" y="545.8164">10</text><text fill="#000000" font-family="sans-serif" font-size="13" lengthAdjust="spacing" textLength="88" x="731" y="545.8164">create(building)</text><rect fill="#E2E2F0" height="51.2422" rx="2.5" ry="2.5" style="stroke:#181818;stroke-width:0.5;" width="44" x="836" y="527.7881"/><text fill="#000000" font-family="sans-serif" font-size="14" lengthAdjust="spacing" textLength="24" x="846" y="549.8955">dto:</text><text fill="#000000" font-family="sans-serif" font-size="14" lengthAdjust="spacing" textLength="30" x="843" y="568.5166">DTO</text><polygon fill="#181818" points="525,609.3213,515,613.3213,525,617.3213,521,613.3213" style="stroke:#181818;stroke-width:1.0;"/><line style="stroke:#181818;stroke-width:1.0;stroke-dasharray:2.0,2.0;" x1="519" x2="700" y1="613.3213" y2="613.3213"/><text fill="#000000" font-family="sans-serif" font-size="13" font-weight="bold" lengthAdjust="spacing" textLength="14" x="531" y="608.0586">11</text><text fill="#000000" font-family="sans-serif" font-size="13" lengthAdjust="spacing" textLength="18" x="549" y="608.0586">dto</text><polygon fill="#181818" points="395,640.6123,385,644.6123,395,648.6123,391,644.6123" style="stroke:#181818;stroke-width:1.0;"/><line style="stroke:#181818;stroke-width:1.0;stroke-dasharray:2.0,2.0;" x1="389" x2="508" y1="644.6123" y2="644.6123"/><text fill="#000000" font-family="sans-serif" font-size="13" font-weight="bold" lengthAdjust="spacing" textLength="14" x="401" y="639.3496">12</text><text fill="#000000" font-family="sans-serif" font-size="13" lengthAdjust="spacing" textLength="18" x="419" y="639.3496">dto</text><polygon fill="#181818" points="265,671.9033,255,675.9033,265,679.9033,261,675.9033" style="stroke:#181818;stroke-width:1.0;"/><line style="stroke:#181818;stroke-width:1.0;stroke-dasharray:2.0,2.0;" x1="259" x2="378" y1="675.9033" y2="675.9033"/><text fill="#000000" font-family="sans-serif" font-size="13" font-weight="bold" lengthAdjust="spacing" textLength="14" x="271" y="670.6406">13</text><text fill="#000000" font-family="sans-serif" font-size="13" lengthAdjust="spacing" textLength="51" x="289" y="670.6406">dto (201)</text><polygon fill="#181818" points="56,703.1943,46,707.1943,56,711.1943,52,707.1943" style="stroke:#181818;stroke-width:1.0;"/><line style="stroke:#181818;stroke-width:1.0;stroke-dasharray:2.0,2.0;" x1="50" x2="248" y1="707.1943" y2="707.1943"/><text fill="#000000" font-family="sans-serif" font-size="13" font-weight="bold" lengthAdjust="spacing" textLength="14" x="62" y="701.9316">14</text><text fill="#000000" font-family="sans-serif" font-size="13" lengthAdjust="spacing" textLength="45" x="80" y="701.9316">Created</text><!--SRC=[ZLJ1Rjim3BthAmZlKAT0i2xOoOSMIBFRYW9hTzj5bjbEc28Pj1IiVpzAjZChi9Fe99cFZ-RJesJmpePzZIH4AybhfLjfFHGF3mN83e8MUwdj6yazmjDErEul55kf_go_sQQ0Jz_r-s-_DG5Fqd-uu34nK1vuTDQJCmOfHPKdamDUa0vQzRdTGPtmra6RHjltwfVT3jk4h7FOaspReS9UjdciyOwpTw_FASmdWRO1RgnlRYUzh6M7XMY67NU3hUkqT_JHjyJ7OvAuaShhW_GOnGeQrkjxe0eumvUVn_zT2G6yZb1AnxW861zbW0eK8GV7nihL4PJb9itWP2K6PcB9BX5bP4bYc5cHABPIm-tjI3X3b97LOfvB6W-Z4c2T7-YQMV2q-A0B4ZbQ13Su-O4bKAzFl9gH3yglcyrgCO4Ick-p0iPLyDEsv1HsdQmDGhGnMZ-RZOOzSsntQ1Mwe6BsMp3cOrdm-sGkhjd90vR_tNDMzkJ72yeapBcwF2TSrZiUZ6lhnj5QaY_IHG5vlgO6Ei-SiSV9l4ZVspr2ht374cm2YIs9AnmvHpMXcPsgp89Hbt9pzoKNOaAHfbmC0pMQiOB7ONAcLviW_1w9cybNVep-0G00]--></g></svg>