<?xml version="1.0" encoding="us-ascii" standalone="no"?><svg xmlns="http://www.w3.org/2000/svg" xmlns:xlink="http://www.w3.org/1999/xlink" contentStyleType="text/css" height="592px" preserveAspectRatio="none" style="width:1091px;height:592px;background:#FFFFFF;" version="1.1" viewBox="0 0 1091 592" width="1091px" zoomAndPan="magnify"><defs/><g><rect fill="#FFFFFF" height="394.9922" style="stroke:#181818;stroke-width:1.0;" width="10" x="66" y="91.4883"/><rect fill="#FFFFFF" height="191.8184" style="stroke:#181818;stroke-width:1.0;" width="10" x="346" y="112.7988"/><rect fill="#FFFFFF" height="152.5527" style="stroke:#181818;stroke-width:1.0;" width="10" x="346" y="333.9277"/><rect fill="#FFFFFF" height="130.1973" style="stroke:#181818;stroke-width:1.0;" width="10" x="590" y="145.1094"/><rect fill="#FFFFFF" height="93.9316" style="stroke:#181818;stroke-width:1.0;" width="10" x="590" y="363.2383"/><rect fill="#FFFFFF" height="32.3105" style="stroke:#181818;stroke-width:1.0;" width="10" x="834" y="395.5488"/><rect fill="none" height="331.3711" style="stroke:#000000;stroke-width:1.5;" width="1074" x="10" y="163.1094"/><line style="stroke:#181818;stroke-width:0.5;stroke-dasharray:5.0,5.0;" x1="71" x2="71" y1="81.4883" y2="511.4805"/><line style="stroke:#181818;stroke-width:0.5;stroke-dasharray:5.0,5.0;" x1="351" x2="351" y1="81.4883" y2="511.4805"/><line style="stroke:#181818;stroke-width:0.5;stroke-dasharray:5.0,5.0;" x1="594.5" x2="594.5" y1="81.4883" y2="511.4805"/><line style="stroke:#181818;stroke-width:0.5;stroke-dasharray:5.0,5.0;" x1="839" x2="839" y1="81.4883" y2="511.4805"/><text fill="#000000" font-family="sans-serif" font-size="14" lengthAdjust="spacing" textLength="96" x="20" y="78.5352">Task Manager</text><ellipse cx="71" cy="13.5" fill="#E2E2F0" rx="8" ry="8" style="stroke:#181818;stroke-width:0.5;"/><path d="M71,21.5 L71,48.5 M58,29.5 L84,29.5 M71,48.5 L58,63.5 M71,48.5 L84,63.5 " fill="none" style="stroke:#181818;stroke-width:0.5;"/><text fill="#000000" font-family="sans-serif" font-size="14" lengthAdjust="spacing" textLength="96" x="20" y="524.0156">Task Manager</text><ellipse cx="71" cy="535.4688" fill="#E2E2F0" rx="8" ry="8" style="stroke:#181818;stroke-width:0.5;"/><path d="M71,543.4688 L71,570.4688 M58,551.4688 L84,551.4688 M71,570.4688 L58,585.4688 M71,570.4688 L84,585.4688 " fill="none" style="stroke:#181818;stroke-width:0.5;"/><rect fill="#E2E2F0" height="30.4883" rx="2.5" ry="2.5" style="stroke:#181818;stroke-width:0.5;" width="30" x="336" y="50"/><text fill="#000000" font-family="sans-serif" font-size="14" lengthAdjust="spacing" textLength="16" x="343" y="70.5352">FE</text><rect fill="#E2E2F0" height="30.4883" rx="2.5" ry="2.5" style="stroke:#181818;stroke-width:0.5;" width="30" x="336" y="510.4805"/><text fill="#000000" font-family="sans-serif" font-size="14" lengthAdjust="spacing" textLength="16" x="343" y="531.0156">FE</text><rect fill="#E2E2F0" height="30.4883" rx="2.5" ry="2.5" style="stroke:#181818;stroke-width:0.5;" width="45" x="572.5" y="50"/><text fill="#000000" font-family="sans-serif" font-size="14" lengthAdjust="spacing" textLength="31" x="579.5" y="70.5352">MDT</text><rect fill="#E2E2F0" height="30.4883" rx="2.5" ry="2.5" style="stroke:#181818;stroke-width:0.5;" width="45" x="572.5" y="510.4805"/><text fill="#000000" font-family="sans-serif" font-size="14" lengthAdjust="spacing" textLength="31" x="579.5" y="531.0156">MDT</text><rect fill="#E2E2F0" height="30.4883" rx="2.5" ry="2.5" style="stroke:#181818;stroke-width:0.5;" width="74" x="802" y="50"/><text fill="#000000" font-family="sans-serif" font-size="14" lengthAdjust="spacing" textLength="60" x="809" y="70.5352">Planning</text><rect fill="#E2E2F0" height="30.4883" rx="2.5" ry="2.5" style="stroke:#181818;stroke-width:0.5;" width="74" x="802" y="510.4805"/><text fill="#000000" font-family="sans-serif" font-size="14" lengthAdjust="spacing" textLength="60" x="809" y="531.0156">Planning</text><rect fill="#FFFFFF" height="394.9922" style="stroke:#181818;stroke-width:1.0;" width="10" x="66" y="91.4883"/><rect fill="#FFFFFF" height="191.8184" style="stroke:#181818;stroke-width:1.0;" width="10" x="346" y="112.7988"/><rect fill="#FFFFFF" height="152.5527" style="stroke:#181818;stroke-width:1.0;" width="10" x="346" y="333.9277"/><rect fill="#FFFFFF" height="130.1973" style="stroke:#181818;stroke-width:1.0;" width="10" x="590" y="145.1094"/><rect fill="#FFFFFF" height="93.9316" style="stroke:#181818;stroke-width:1.0;" width="10" x="590" y="363.2383"/><rect fill="#FFFFFF" height="32.3105" style="stroke:#181818;stroke-width:1.0;" width="10" x="834" y="395.5488"/><polygon fill="#181818" points="334,108.7988,344,112.7988,334,116.7988,338,112.7988" style="stroke:#181818;stroke-width:1.0;"/><line style="stroke:#181818;stroke-width:1.0;" x1="76" x2="340" y1="112.7988" y2="112.7988"/><text fill="#000000" font-family="sans-serif" font-size="13" font-weight="bold" lengthAdjust="spacing" textLength="9" x="83" y="108.0566">1</text><text fill="#000000" font-family="sans-serif" font-size="13" lengthAdjust="spacing" textLength="238" x="96" y="108.0566">wants to list task execution sequence</text><polygon fill="#181818" points="578,141.1094,588,145.1094,578,149.1094,582,145.1094" style="stroke:#181818;stroke-width:1.0;"/><line style="stroke:#181818;stroke-width:1.0;" x1="356" x2="584" y1="145.1094" y2="145.1094"/><text fill="#000000" font-family="sans-serif" font-size="13" font-weight="bold" lengthAdjust="spacing" textLength="9" x="363" y="140.3672">2</text><text fill="#000000" font-family="sans-serif" font-size="13" lengthAdjust="spacing" textLength="69" x="376" y="140.3672">GET /tasks</text><path d="M605,125.7988 L605,150.7988 L789,150.7988 L789,135.7988 L779,125.7988 L605,125.7988 " fill="#FEFFDD" style="stroke:#181818;stroke-width:0.5;"/><path d="M779,125.7988 L779,135.7988 L789,135.7988 L779,125.7988 " fill="#FEFFDD" style="stroke:#181818;stroke-width:0.5;"/><text fill="#000000" font-family="sans-serif" font-size="13" lengthAdjust="spacing" textLength="163" x="611" y="143.3672">see usXXX documentation</text><path d="M10,163.1094 L72,163.1094 L72,170.4199 L62,180.4199 L10,180.4199 L10,163.1094 " fill="#EEEEEE" style="stroke:#000000;stroke-width:1.5;"/><rect fill="none" height="331.3711" style="stroke:#000000;stroke-width:1.5;" width="1074" x="10" y="163.1094"/><text fill="#000000" font-family="sans-serif" font-size="13" font-weight="bold" lengthAdjust="spacing" textLength="17" x="25" y="176.6777">alt</text><text fill="#000000" font-family="sans-serif" font-size="11" font-weight="bold" lengthAdjust="spacing" textLength="96" x="87" y="175.7441">[tasks not found]</text><polygon fill="#181818" points="367,197.7305,357,201.7305,367,205.7305,363,201.7305" style="stroke:#181818;stroke-width:1.0;"/><line style="stroke:#181818;stroke-width:1.0;stroke-dasharray:2.0,2.0;" x1="361" x2="589" y1="201.7305" y2="201.7305"/><text fill="#000000" font-family="sans-serif" font-size="13" font-weight="bold" lengthAdjust="spacing" textLength="9" x="373" y="196.9883">3</text><text fill="#000000" font-family="sans-serif" font-size="13" lengthAdjust="spacing" textLength="62" x="386" y="196.9883">404: error</text><polygon fill="#181818" points="87,227.041,77,231.041,87,235.041,83,231.041" style="stroke:#181818;stroke-width:1.0;"/><line style="stroke:#181818;stroke-width:1.0;stroke-dasharray:2.0,2.0;" x1="81" x2="345" y1="231.041" y2="231.041"/><text fill="#000000" font-family="sans-serif" font-size="13" font-weight="bold" lengthAdjust="spacing" textLength="9" x="93" y="226.2988">4</text><text fill="#000000" font-family="sans-serif" font-size="13" lengthAdjust="spacing" textLength="83" x="106" y="226.2988">informs error</text><line style="stroke:#000000;stroke-width:1.0;stroke-dasharray:2.0,2.0;" x1="10" x2="1084" y1="240.041" y2="240.041"/><text fill="#000000" font-family="sans-serif" font-size="11" font-weight="bold" lengthAdjust="spacing" textLength="74" x="15" y="250.6758">[tasks found]</text><polygon fill="#181818" points="367,271.3066,357,275.3066,367,279.3066,363,275.3066" style="stroke:#181818;stroke-width:1.0;"/><line style="stroke:#181818;stroke-width:1.0;stroke-dasharray:2.0,2.0;" x1="361" x2="594" y1="275.3066" y2="275.3066"/><text fill="#000000" font-family="sans-serif" font-size="13" font-weight="bold" lengthAdjust="spacing" textLength="9" x="373" y="270.5645">5</text><text fill="#000000" font-family="sans-serif" font-size="13" lengthAdjust="spacing" textLength="66" x="386" y="270.5645">200: tasks</text><polygon fill="#181818" points="87,300.6172,77,304.6172,87,308.6172,83,304.6172" style="stroke:#181818;stroke-width:1.0;"/><line style="stroke:#181818;stroke-width:1.0;stroke-dasharray:2.0,2.0;" x1="81" x2="350" y1="304.6172" y2="304.6172"/><text fill="#000000" font-family="sans-serif" font-size="13" font-weight="bold" lengthAdjust="spacing" textLength="9" x="93" y="299.875">6</text><text fill="#000000" font-family="sans-serif" font-size="13" lengthAdjust="spacing" textLength="92" x="106" y="299.875">requests tasks</text><polygon fill="#181818" points="334,329.9277,344,333.9277,334,337.9277,338,333.9277" style="stroke:#181818;stroke-width:1.0;"/><line style="stroke:#181818;stroke-width:1.0;" x1="76" x2="340" y1="333.9277" y2="333.9277"/><text fill="#000000" font-family="sans-serif" font-size="13" font-weight="bold" lengthAdjust="spacing" textLength="9" x="83" y="329.1855">7</text><text fill="#000000" font-family="sans-serif" font-size="13" lengthAdjust="spacing" textLength="92" x="96" y="329.1855">provides tasks</text><polygon fill="#181818" points="578,359.2383,588,363.2383,578,367.2383,582,363.2383" style="stroke:#181818;stroke-width:1.0;"/><line style="stroke:#181818;stroke-width:1.0;" x1="356" x2="584" y1="363.2383" y2="363.2383"/><text fill="#000000" font-family="sans-serif" font-size="13" font-weight="bold" lengthAdjust="spacing" textLength="9" x="363" y="358.4961">8</text><text fill="#000000" font-family="sans-serif" font-size="13" lengthAdjust="spacing" textLength="129" x="376" y="358.4961">POST /tasksequence</text><polygon fill="#181818" points="822,391.5488,832,395.5488,822,399.5488,826,395.5488" style="stroke:#181818;stroke-width:1.0;"/><line style="stroke:#181818;stroke-width:1.0;" x1="600" x2="828" y1="395.5488" y2="395.5488"/><text fill="#000000" font-family="sans-serif" font-size="13" font-weight="bold" lengthAdjust="spacing" textLength="9" x="607" y="390.8066">9</text><text fill="#000000" font-family="sans-serif" font-size="13" lengthAdjust="spacing" textLength="32" x="620" y="390.8066">POST</text><path d="M849,376.2383 L849,401.2383 L1079,401.2383 L1079,386.2383 L1069,376.2383 L849,376.2383 " fill="#FEFFDD" style="stroke:#181818;stroke-width:0.5;"/><path d="M1069,376.2383 L1069,386.2383 L1079,386.2383 L1069,376.2383 " fill="#FEFFDD" style="stroke:#181818;stroke-width:0.5;"/><text fill="#000000" font-family="sans-serif" font-size="13" lengthAdjust="spacing" textLength="209" x="855" y="393.8066">update later with proper requests</text><polygon fill="#181818" points="611,423.8594,601,427.8594,611,431.8594,607,427.8594" style="stroke:#181818;stroke-width:1.0;"/><line style="stroke:#181818;stroke-width:1.0;stroke-dasharray:2.0,2.0;" x1="605" x2="838" y1="427.8594" y2="427.8594"/><text fill="#000000" font-family="sans-serif" font-size="13" font-weight="bold" lengthAdjust="spacing" textLength="18" x="617" y="423.1172">10</text><text fill="#000000" font-family="sans-serif" font-size="13" lengthAdjust="spacing" textLength="188" x="639" y="423.1172">200: task execution sequence</text><polygon fill="#181818" points="367,453.1699,357,457.1699,367,461.1699,363,457.1699" style="stroke:#181818;stroke-width:1.0;"/><line style="stroke:#181818;stroke-width:1.0;stroke-dasharray:2.0,2.0;" x1="361" x2="594" y1="457.1699" y2="457.1699"/><text fill="#000000" font-family="sans-serif" font-size="13" font-weight="bold" lengthAdjust="spacing" textLength="18" x="373" y="452.4277">11</text><text fill="#000000" font-family="sans-serif" font-size="13" lengthAdjust="spacing" textLength="188" x="395" y="452.4277">200: task execution sequence</text><polygon fill="#181818" points="82,482.4805,72,486.4805,82,490.4805,78,486.4805" style="stroke:#181818;stroke-width:1.0;"/><line style="stroke:#181818;stroke-width:1.0;stroke-dasharray:2.0,2.0;" x1="76" x2="350" y1="486.4805" y2="486.4805"/><text fill="#000000" font-family="sans-serif" font-size="13" font-weight="bold" lengthAdjust="spacing" textLength="18" x="88" y="481.7383">12</text><text fill="#000000" font-family="sans-serif" font-size="13" lengthAdjust="spacing" textLength="187" x="110" y="481.7383">lists task execution sequence</text><!--SRC=[ZLGzSy8m3Dtv5JgMJbov7bC6fj9ENBah0wiRY-2hOwV-WFRVLp8an0GuD2HOrjEJz1H43DR4-WlTQ2JAO1sCry9_mr8OKQ4RW_0GFLqsmWLLgaQO0EEtnV52vUxbwphvQvdxLreOeqoLBXiw92wr5m5JSY2ZDqpcb18AE13AGx2WbGyGk1xynJ86PGru_8beIaoeSngLpcnFu7SsQWdMw3-eC81e6cVtA5CgtmKI5p7MaXZV5sjuFjyAVQJrO6o0hOr6TgYCjixzR8H0SAhQ1ShhaJlSR3OWRHbhD45m4mCG5J5fkvzDPmMWSzODmhXY3gDP5Q3CrhhQdqAxMDGUJyKF2-_pl4odnSL4s2JUwYvZToo3Pvco33qqIN8UTKzTra99l4HUa_92fTN7PojJVmaUKOKRdwVTE-KPH7JeuuBUbJKsaYCrFHmSLDXnKmtzRgSoWBCbzadRJ3V-MxjzGvHKthtzUJZnTQKpbVa3z7UJvOBtJ_olWKR-0m00]--></g></svg>