<?xml version="1.0" encoding="us-ascii" standalone="no"?><svg xmlns="http://www.w3.org/2000/svg" xmlns:xlink="http://www.w3.org/1999/xlink" contentStyleType="text/css" height="402px" preserveAspectRatio="none" style="width:360px;height:402px;background:#FFFFFF;" version="1.1" viewBox="0 0 360 402" width="360px" zoomAndPan="magnify"><defs/><g><rect fill="#FFFFFF" height="282.9297" style="stroke:#181818;stroke-width:1.0;" width="10" x="301" y="71.9121"/><rect fill="none" height="260.9297" style="stroke:#000000;stroke-width:1.5;" width="350.5" x="3" y="86.9121"/><rect fill="none" height="179.7168" style="stroke:#000000;stroke-width:1.5;" width="340.5" x="3" y="161.125"/><rect fill="none" height="98.5039" style="stroke:#000000;stroke-width:1.5;" width="330.5" x="3" y="235.3379"/><line style="stroke:#181818;stroke-width:0.5;stroke-dasharray:5.0,5.0;" x1="305.5" x2="305.5" y1="38.6211" y2="364.8418"/><rect fill="#E2E2F0" height="32.6211" rx="2.5" ry="2.5" style="stroke:#181818;stroke-width:0.5;" width="35" x="288.5" y="5"/><text fill="#000000" font-family="sans-serif" font-size="14" lengthAdjust="spacing" textLength="21" x="295.5" y="27.1074">MD</text><rect fill="#E2E2F0" height="32.6211" rx="2.5" ry="2.5" style="stroke:#181818;stroke-width:0.5;" width="35" x="288.5" y="363.8418"/><text fill="#000000" font-family="sans-serif" font-size="14" lengthAdjust="spacing" textLength="21" x="295.5" y="385.9492">MD</text><rect fill="#FFFFFF" height="282.9297" style="stroke:#181818;stroke-width:1.0;" width="10" x="301" y="71.9121"/><polygon fill="#181818" points="289,67.9121,299,71.9121,289,75.9121,293,71.9121" style="stroke:#181818;stroke-width:1.0;"/><line style="stroke:#181818;stroke-width:1.0;" x1="0" x2="295" y1="71.9121" y2="71.9121"/><text fill="#000000" font-family="sans-serif" font-size="13" font-weight="bold" lengthAdjust="spacing" textLength="7" x="7" y="66.6494">1</text><text fill="#000000" font-family="sans-serif" font-size="13" lengthAdjust="spacing" textLength="264" x="18" y="66.6494">PATCH/PUT  ( /buildings/{idb}/elevators/{ide} )</text><path d="M3,86.9121 L64,86.9121 L64,96.2031 L54,106.2031 L3,106.2031 L3,86.9121 " fill="#EEEEEE" style="stroke:#000000;stroke-width:1.5;"/><rect fill="none" height="260.9297" style="stroke:#000000;stroke-width:1.5;" width="350.5" x="3" y="86.9121"/><text fill="#000000" font-family="sans-serif" font-size="13" font-weight="bold" lengthAdjust="spacing" textLength="16" x="18" y="101.9404">alt</text><text fill="#000000" font-family="sans-serif" font-size="11" font-weight="bold" lengthAdjust="spacing" textLength="108" x="79" y="100.7822">[building not found]</text><polygon fill="#181818" points="11,125.4941,1,129.4941,11,133.4941,7,129.4941" style="stroke:#181818;stroke-width:1.0;"/><line style="stroke:#181818;stroke-width:1.0;stroke-dasharray:2.0,2.0;" x1="5" x2="300" y1="129.4941" y2="129.4941"/><text fill="#000000" font-family="sans-serif" font-size="13" font-weight="bold" lengthAdjust="spacing" textLength="7" x="17" y="124.2314">2</text><text fill="#000000" font-family="sans-serif" font-size="13" lengthAdjust="spacing" textLength="89" x="28" y="124.2314">404: Not Found</text><line style="stroke:#000000;stroke-width:1.0;stroke-dasharray:2.0,2.0;" x1="3" x2="353.5" y1="138.4941" y2="138.4941"/><text fill="#000000" font-family="sans-serif" font-size="11" font-weight="bold" lengthAdjust="spacing" textLength="87" x="8" y="150.3643">[building found]</text><path d="M3,161.125 L64,161.125 L64,170.416 L54,180.416 L3,180.416 L3,161.125 " fill="#EEEEEE" style="stroke:#000000;stroke-width:1.5;"/><rect fill="none" height="179.7168" style="stroke:#000000;stroke-width:1.5;" width="340.5" x="3" y="161.125"/><text fill="#000000" font-family="sans-serif" font-size="13" font-weight="bold" lengthAdjust="spacing" textLength="16" x="18" y="176.1533">alt</text><text fill="#000000" font-family="sans-serif" font-size="11" font-weight="bold" lengthAdjust="spacing" textLength="109" x="79" y="174.9951">[elevator not found]</text><polygon fill="#181818" points="11,199.707,1,203.707,11,207.707,7,203.707" style="stroke:#181818;stroke-width:1.0;"/><line style="stroke:#181818;stroke-width:1.0;stroke-dasharray:2.0,2.0;" x1="5" x2="300" y1="203.707" y2="203.707"/><text fill="#000000" font-family="sans-serif" font-size="13" font-weight="bold" lengthAdjust="spacing" textLength="7" x="17" y="198.4443">3</text><text fill="#000000" font-family="sans-serif" font-size="13" lengthAdjust="spacing" textLength="89" x="28" y="198.4443">404: Not Found</text><line style="stroke:#000000;stroke-width:1.0;stroke-dasharray:2.0,2.0;" x1="3" x2="343.5" y1="212.707" y2="212.707"/><text fill="#000000" font-family="sans-serif" font-size="11" font-weight="bold" lengthAdjust="spacing" textLength="90" x="8" y="224.5771">[elevator exists]</text><path d="M3,235.3379 L64,235.3379 L64,244.6289 L54,254.6289 L3,254.6289 L3,235.3379 " fill="#EEEEEE" style="stroke:#000000;stroke-width:1.5;"/><rect fill="none" height="98.5039" style="stroke:#000000;stroke-width:1.5;" width="330.5" x="3" y="235.3379"/><text fill="#000000" font-family="sans-serif" font-size="13" font-weight="bold" lengthAdjust="spacing" textLength="16" x="18" y="250.3662">alt</text><text fill="#000000" font-family="sans-serif" font-size="11" font-weight="bold" lengthAdjust="spacing" textLength="121" x="79" y="249.208">[elevator bad params]</text><polygon fill="#181818" points="11,273.9199,1,277.9199,11,281.9199,7,277.9199" style="stroke:#181818;stroke-width:1.0;"/><line style="stroke:#181818;stroke-width:1.0;stroke-dasharray:2.0,2.0;" x1="5" x2="300" y1="277.9199" y2="277.9199"/><text fill="#000000" font-family="sans-serif" font-size="13" font-weight="bold" lengthAdjust="spacing" textLength="7" x="17" y="272.6572">4</text><text fill="#000000" font-family="sans-serif" font-size="13" lengthAdjust="spacing" textLength="164" x="28" y="272.6572">422: Unprocessable Content</text><line style="stroke:#000000;stroke-width:1.0;stroke-dasharray:2.0,2.0;" x1="3" x2="333.5" y1="286.9199" y2="286.9199"/><text fill="#000000" font-family="sans-serif" font-size="11" font-weight="bold" lengthAdjust="spacing" textLength="164" x="8" y="298.79">[elevator edited successfully]</text><polygon fill="#181818" points="11,321.8418,1,325.8418,11,329.8418,7,325.8418" style="stroke:#181818;stroke-width:1.0;"/><line style="stroke:#181818;stroke-width:1.0;stroke-dasharray:2.0,2.0;" x1="5" x2="300" y1="325.8418" y2="325.8418"/><text fill="#000000" font-family="sans-serif" font-size="13" font-weight="bold" lengthAdjust="spacing" textLength="7" x="17" y="320.5791">5</text><text fill="#000000" font-family="sans-serif" font-size="13" lengthAdjust="spacing" textLength="126" x="28" y="320.5791">200: "OK" Successful</text><!--SRC=[fL9DIyD04BtdLpnoqaD823q54QGYWgW5svEdJNOg2vlTa9qLHVhVpQOajKaEGkSspFjYPeHdQtnTKXj5KIDQLfLgX674p_SnX4CjmmHTlIUteIkmkTkk7zFDRWjS8IszqbAP3vV-A5aUKjBqATYsVKy7NFVaKA9YrOteg8a_9JHZq86nZBtrHfv1-WGtIHB8AB3ALWLUEkJ334dQqKdjg3IJ2ev3qeiTHzTHaRwKOpUt7QnFo598T7iNjLi4JqFaUO6TQLfRaNEYr8IrDKo65zcJK58nIJXV1VBUQ_tz7yyyomh4hqyntaRcijlIMgR7cHv3qlbR_080]--></g></svg>