<?xml version="1.0" encoding="us-ascii" standalone="no"?><svg xmlns="http://www.w3.org/2000/svg" xmlns:xlink="http://www.w3.org/1999/xlink" contentStyleType="text/css" height="1424px" preserveAspectRatio="none" style="width:1832px;height:1424px;background:#FFFFFF;" version="1.1" viewBox="0 0 1832 1424" width="1832px" zoomAndPan="magnify"><defs/><g><!--cluster system--><g id="cluster_system"><path d="M8.5,6.0137 L58.5,6.0137 A3.75,3.75 0 0 1 61,8.5137 L68,30.6348 L1822.5,30.6348 A2.5,2.5 0 0 1 1825,33.1348 L1825,1415.0137 A2.5,2.5 0 0 1 1822.5,1417.5137 L8.5,1417.5137 A2.5,2.5 0 0 1 6,1415.0137 L6,8.5137 A2.5,2.5 0 0 1 8.5,6.0137 " fill="none" style="stroke:#000000;stroke-width:1.5;"/><line style="stroke:#000000;stroke-width:1.5;" x1="6" x2="68" y1="30.6348" y2="30.6348"/><text fill="#000000" font-family="sans-serif" font-size="14" font-weight="bold" lengthAdjust="spacing" textLength="49" x="10" y="23.1211">system</text></g><!--cluster Infrastructure--><g id="cluster_Infrastructure"><path d="M299.5,51.0137 L397.5,51.0137 A3.75,3.75 0 0 1 400,53.5137 L407,75.6348 L769.5,75.6348 A2.5,2.5 0 0 1 772,78.1348 L772,218.5137 A2.5,2.5 0 0 1 769.5,221.0137 L299.5,221.0137 A2.5,2.5 0 0 1 297,218.5137 L297,53.5137 A2.5,2.5 0 0 1 299.5,51.0137 " fill="none" style="stroke:#000000;stroke-width:1.5;"/><line style="stroke:#000000;stroke-width:1.5;" x1="297" x2="407" y1="75.6348" y2="75.6348"/><text fill="#000000" font-family="sans-serif" font-size="14" font-weight="bold" lengthAdjust="spacing" textLength="97" x="301" y="68.1211">Infrastructure</text></g><!--cluster Routes--><g id="cluster_Routes"><path d="M596.5,96.0137 L647.5,96.0137 A3.75,3.75 0 0 1 650,98.5137 L657,120.6348 L745.5,120.6348 A2.5,2.5 0 0 1 748,123.1348 L748,194.5137 A2.5,2.5 0 0 1 745.5,197.0137 L596.5,197.0137 A2.5,2.5 0 0 1 594,194.5137 L594,98.5137 A2.5,2.5 0 0 1 596.5,96.0137 " fill="none" style="stroke:#000000;stroke-width:1.5;"/><line style="stroke:#000000;stroke-width:1.5;" x1="594" x2="657" y1="120.6348" y2="120.6348"/><text fill="#000000" font-family="sans-serif" font-size="14" font-weight="bold" lengthAdjust="spacing" textLength="50" x="598" y="113.1211">Routes</text></g><!--cluster Persistence--><g id="cluster_Persistence"><path d="M323.5,96.0137 L408.5,96.0137 A3.75,3.75 0 0 1 411,98.5137 L418,120.6348 L567.5,120.6348 A2.5,2.5 0 0 1 570,123.1348 L570,194.5137 A2.5,2.5 0 0 1 567.5,197.0137 L323.5,197.0137 A2.5,2.5 0 0 1 321,194.5137 L321,98.5137 A2.5,2.5 0 0 1 323.5,96.0137 " fill="none" style="stroke:#000000;stroke-width:1.5;"/><line style="stroke:#000000;stroke-width:1.5;" x1="321" x2="418" y1="120.6348" y2="120.6348"/><text fill="#000000" font-family="sans-serif" font-size="14" font-weight="bold" lengthAdjust="spacing" textLength="84" x="325" y="113.1211">Persistence</text></g><!--cluster Interface Adapters--><g id="cluster_Interface Adapters"><path d="M32.5,319.0137 L163.5,319.0137 A3.75,3.75 0 0 1 166,321.5137 L173,343.6348 L630.5,343.6348 A2.5,2.5 0 0 1 633,346.1348 L633,770.5137 A2.5,2.5 0 0 1 630.5,773.0137 L32.5,773.0137 A2.5,2.5 0 0 1 30,770.5137 L30,321.5137 A2.5,2.5 0 0 1 32.5,319.0137 " fill="none" style="stroke:#000000;stroke-width:1.5;"/><line style="stroke:#000000;stroke-width:1.5;" x1="30" x2="173" y1="343.6348" y2="343.6348"/><text fill="#000000" font-family="sans-serif" font-size="14" font-weight="bold" lengthAdjust="spacing" textLength="130" x="34" y="336.1211">Interface Adapters</text></g><!--cluster Controllers--><g id="cluster_Controllers"><path d="M56.5,364.0137 L136.5,364.0137 A3.75,3.75 0 0 1 139,366.5137 L146,388.6348 L281.5,388.6348 A2.5,2.5 0 0 1 284,391.1348 L284,746.5137 A2.5,2.5 0 0 1 281.5,749.0137 L56.5,749.0137 A2.5,2.5 0 0 1 54,746.5137 L54,366.5137 A2.5,2.5 0 0 1 56.5,364.0137 " fill="none" style="stroke:#000000;stroke-width:1.5;"/><line style="stroke:#000000;stroke-width:1.5;" x1="54" x2="146" y1="388.6348" y2="388.6348"/><text fill="#000000" font-family="sans-serif" font-size="14" font-weight="bold" lengthAdjust="spacing" textLength="79" x="58" y="381.1211">Controllers</text></g><!--cluster IControllers--><g id="cluster_IControllers"><path d="M80.5,409.0137 L164.5,409.0137 A3.75,3.75 0 0 1 167,411.5137 L174,433.6348 L257.5,433.6348 A2.5,2.5 0 0 1 260,436.1348 L260,507.5137 A2.5,2.5 0 0 1 257.5,510.0137 L80.5,510.0137 A2.5,2.5 0 0 1 78,507.5137 L78,411.5137 A2.5,2.5 0 0 1 80.5,409.0137 " fill="none" style="stroke:#000000;stroke-width:1.5;"/><line style="stroke:#000000;stroke-width:1.5;" x1="78" x2="174" y1="433.6348" y2="433.6348"/><text fill="#000000" font-family="sans-serif" font-size="14" font-weight="bold" lengthAdjust="spacing" textLength="83" x="82" y="426.1211">IControllers</text></g><!--cluster ImplControllers--><g id="cluster_ImplControllers"><path d="M83.5,624.0137 L192.5,624.0137 A3.75,3.75 0 0 1 195,626.5137 L202,648.6348 L256.5,648.6348 A2.5,2.5 0 0 1 259,651.1348 L259,722.5137 A2.5,2.5 0 0 1 256.5,725.0137 L83.5,725.0137 A2.5,2.5 0 0 1 81,722.5137 L81,626.5137 A2.5,2.5 0 0 1 83.5,624.0137 " fill="none" style="stroke:#000000;stroke-width:1.5;"/><line style="stroke:#000000;stroke-width:1.5;" x1="81" x2="202" y1="648.6348" y2="648.6348"/><text fill="#000000" font-family="sans-serif" font-size="14" font-weight="bold" lengthAdjust="spacing" textLength="108" x="85" y="641.1211">ImplControllers</text></g><!--cluster Repositories--><g id="cluster_Repositories"><path d="M310.5,409.0137 L401.5,409.0137 A3.75,3.75 0 0 1 404,411.5137 L411,433.6348 L606.5,433.6348 A2.5,2.5 0 0 1 609,436.1348 L609,507.5137 A2.5,2.5 0 0 1 606.5,510.0137 L310.5,510.0137 A2.5,2.5 0 0 1 308,507.5137 L308,411.5137 A2.5,2.5 0 0 1 310.5,409.0137 " fill="none" style="stroke:#000000;stroke-width:1.5;"/><line style="stroke:#000000;stroke-width:1.5;" x1="308" x2="411" y1="433.6348" y2="433.6348"/><text fill="#000000" font-family="sans-serif" font-size="14" font-weight="bold" lengthAdjust="spacing" textLength="90" x="312" y="426.1211">Repositories</text></g><!--cluster Application Services--><g id="cluster_Application Services"><path d="M659.5,534.0137 L804.5,534.0137 A3.75,3.75 0 0 1 807,536.5137 L814,558.6348 L1059.5,558.6348 A2.5,2.5 0 0 1 1062,561.1348 L1062,1173.0137 A2.5,2.5 0 0 1 1059.5,1175.5137 L659.5,1175.5137 A2.5,2.5 0 0 1 657,1173.0137 L657,536.5137 A2.5,2.5 0 0 1 659.5,534.0137 " fill="none" style="stroke:#000000;stroke-width:1.5;"/><line style="stroke:#000000;stroke-width:1.5;" x1="657" x2="814" y1="558.6348" y2="558.6348"/><text fill="#000000" font-family="sans-serif" font-size="14" font-weight="bold" lengthAdjust="spacing" textLength="144" x="661" y="551.1211">Application Services</text></g><!--cluster App Services--><g id="cluster_App Services"><path d="M683.5,579.0137 L777.5,579.0137 A3.75,3.75 0 0 1 780,581.5137 L787,603.6348 L1035.5,603.6348 A2.5,2.5 0 0 1 1038,606.1348 L1038,1149.0137 A2.5,2.5 0 0 1 1035.5,1151.5137 L683.5,1151.5137 A2.5,2.5 0 0 1 681,1149.0137 L681,581.5137 A2.5,2.5 0 0 1 683.5,579.0137 " fill="none" style="stroke:#000000;stroke-width:1.5;"/><line style="stroke:#000000;stroke-width:1.5;" x1="681" x2="787" y1="603.6348" y2="603.6348"/><text fill="#000000" font-family="sans-serif" font-size="14" font-weight="bold" lengthAdjust="spacing" textLength="93" x="685" y="596.1211">App Services</text></g><!--cluster IAppServices--><g id="cluster_IAppServices"><path d="M766.5,1026.5137 L860.5,1026.5137 A3.75,3.75 0 0 1 863,1029.0137 L870,1051.1348 L951.5,1051.1348 A2.5,2.5 0 0 1 954,1053.6348 L954,1125.0137 A2.5,2.5 0 0 1 951.5,1127.5137 L766.5,1127.5137 A2.5,2.5 0 0 1 764,1125.0137 L764,1029.0137 A2.5,2.5 0 0 1 766.5,1026.5137 " fill="none" style="stroke:#000000;stroke-width:1.5;"/><line style="stroke:#000000;stroke-width:1.5;" x1="764" x2="870" y1="1051.1348" y2="1051.1348"/><text fill="#000000" font-family="sans-serif" font-size="14" font-weight="bold" lengthAdjust="spacing" textLength="93" x="768" y="1043.6211">IAppServices</text></g><!--cluster ImplAppServices--><g id="cluster_ImplAppServices"><path d="M797.5,797.0137 L916.5,797.0137 A3.75,3.75 0 0 1 919,799.5137 L926,821.6348 L980.5,821.6348 A2.5,2.5 0 0 1 983,824.1348 L983,895.5137 A2.5,2.5 0 0 1 980.5,898.0137 L797.5,898.0137 A2.5,2.5 0 0 1 795,895.5137 L795,799.5137 A2.5,2.5 0 0 1 797.5,797.0137 " fill="none" style="stroke:#000000;stroke-width:1.5;"/><line style="stroke:#000000;stroke-width:1.5;" x1="795" x2="926" y1="821.6348" y2="821.6348"/><text fill="#000000" font-family="sans-serif" font-size="14" font-weight="bold" lengthAdjust="spacing" textLength="118" x="799" y="814.1211">ImplAppServices</text></g><!--cluster IRepositories--><g id="cluster_IRepositories"><path d="M707.5,624.0137 L802.5,624.0137 A3.75,3.75 0 0 1 805,626.5137 L812,648.6348 L1011.5,648.6348 A2.5,2.5 0 0 1 1014,651.1348 L1014,722.5137 A2.5,2.5 0 0 1 1011.5,725.0137 L707.5,725.0137 A2.5,2.5 0 0 1 705,722.5137 L705,626.5137 A2.5,2.5 0 0 1 707.5,624.0137 " fill="none" style="stroke:#000000;stroke-width:1.5;"/><line style="stroke:#000000;stroke-width:1.5;" x1="705" x2="812" y1="648.6348" y2="648.6348"/><text fill="#000000" font-family="sans-serif" font-size="14" font-weight="bold" lengthAdjust="spacing" textLength="94" x="709" y="641.1211">IRepositories</text></g><!--cluster Entities/Core/Domain--><g id="cluster_Entities/Core/Domain"><path d="M1088.5,922.0137 L1236.5,922.0137 A3.75,3.75 0 0 1 1239,924.5137 L1246,946.6348 L1798.5,946.6348 A2.5,2.5 0 0 1 1801,949.1348 L1801,1391.0137 A2.5,2.5 0 0 1 1798.5,1393.5137 L1088.5,1393.5137 A2.5,2.5 0 0 1 1086,1391.0137 L1086,924.5137 A2.5,2.5 0 0 1 1088.5,922.0137 " fill="none" style="stroke:#000000;stroke-width:1.5;"/><line style="stroke:#000000;stroke-width:1.5;" x1="1086" x2="1246" y1="946.6348" y2="946.6348"/><text fill="#000000" font-family="sans-serif" font-size="14" font-weight="bold" lengthAdjust="spacing" textLength="147" x="1090" y="939.1211">Entities/Core/Domain</text></g><!--cluster Aggregates--><g id="cluster_Aggregates"><path d="M1193.5,967.0137 L1275.5,967.0137 A3.75,3.75 0 0 1 1278,969.5137 L1285,991.6348 L1490.5,991.6348 A2.5,2.5 0 0 1 1493,994.1348 L1493,1163.5137 A2.5,2.5 0 0 1 1490.5,1166.0137 L1193.5,1166.0137 A2.5,2.5 0 0 1 1191,1163.5137 L1191,969.5137 A2.5,2.5 0 0 1 1193.5,967.0137 " fill="none" style="stroke:#000000;stroke-width:1.5;"/><line style="stroke:#000000;stroke-width:1.5;" x1="1191" x2="1285" y1="991.6348" y2="991.6348"/><text fill="#000000" font-family="sans-serif" font-size="14" font-weight="bold" lengthAdjust="spacing" textLength="81" x="1195" y="984.1211">Aggregates</text></g><!--cluster a_elevator--><g id="cluster_a_elevator"><path d="M1355.5,1012.0137 L1415.5,1012.0137 A3.75,3.75 0 0 1 1418,1014.5137 L1425,1036.6348 L1466.5,1036.6348 A2.5,2.5 0 0 1 1469,1039.1348 L1469,1139.5137 A2.5,2.5 0 0 1 1466.5,1142.0137 L1355.5,1142.0137 A2.5,2.5 0 0 1 1353,1139.5137 L1353,1014.5137 A2.5,2.5 0 0 1 1355.5,1012.0137 " fill="none" style="stroke:#000000;stroke-width:1.5;"/><line style="stroke:#000000;stroke-width:1.5;" x1="1353" x2="1425" y1="1036.6348" y2="1036.6348"/><text fill="#000000" font-family="sans-serif" font-size="14" font-weight="bold" lengthAdjust="spacing" textLength="59" x="1357" y="1029.1211">Elevator</text></g><!--cluster a_building--><g id="cluster_a_building"><path d="M1217.5,1012.0137 L1276.5,1012.0137 A3.75,3.75 0 0 1 1279,1014.5137 L1286,1036.6348 L1326.5,1036.6348 A2.5,2.5 0 0 1 1329,1039.1348 L1329,1139.5137 A2.5,2.5 0 0 1 1326.5,1142.0137 L1217.5,1142.0137 A2.5,2.5 0 0 1 1215,1139.5137 L1215,1014.5137 A2.5,2.5 0 0 1 1217.5,1012.0137 " fill="none" style="stroke:#000000;stroke-width:1.5;"/><line style="stroke:#000000;stroke-width:1.5;" x1="1215" x2="1286" y1="1036.6348" y2="1036.6348"/><text fill="#000000" font-family="sans-serif" font-size="14" font-weight="bold" lengthAdjust="spacing" textLength="58" x="1219" y="1029.1211">Building</text></g><!--cluster Value Objects--><g id="cluster_Value Objects"><path d="M1112.5,1199.5137 L1210.5,1199.5137 A3.75,3.75 0 0 1 1213,1202.0137 L1220,1224.1348 L1774.5,1224.1348 A2.5,2.5 0 0 1 1777,1226.6348 L1777,1367.0137 A2.5,2.5 0 0 1 1774.5,1369.5137 L1112.5,1369.5137 A2.5,2.5 0 0 1 1110,1367.0137 L1110,1202.0137 A2.5,2.5 0 0 1 1112.5,1199.5137 " fill="none" style="stroke:#000000;stroke-width:1.5;"/><line style="stroke:#000000;stroke-width:1.5;" x1="1110" x2="1220" y1="1224.1348" y2="1224.1348"/><text fill="#000000" font-family="sans-serif" font-size="14" font-weight="bold" lengthAdjust="spacing" textLength="97" x="1114" y="1216.6211">Value Objects</text></g><!--cluster vo_elevator--><g id="cluster_vo_elevator"><path d="M1136.5,1244.5137 L1196.5,1244.5137 A3.75,3.75 0 0 1 1199,1247.0137 L1206,1269.1348 L1750.5,1269.1348 A2.5,2.5 0 0 1 1753,1271.6348 L1753,1343.0137 A2.5,2.5 0 0 1 1750.5,1345.5137 L1136.5,1345.5137 A2.5,2.5 0 0 1 1134,1343.0137 L1134,1247.0137 A2.5,2.5 0 0 1 1136.5,1244.5137 " fill="none" style="stroke:#000000;stroke-width:1.5;"/><line style="stroke:#000000;stroke-width:1.5;" x1="1134" x2="1206" y1="1269.1348" y2="1269.1348"/><text fill="#000000" font-family="sans-serif" font-size="14" font-weight="bold" lengthAdjust="spacing" textLength="59" x="1138" y="1261.6211">Elevator</text></g><!--class RouteElevator--><g id="elem_RouteElevator"><rect codeLine="16" fill="#F1F1F1" height="48" id="RouteElevator" rx="2.5" ry="2.5" style="stroke:#181818;stroke-width:0.5;" width="122" x="610" y="133.0137"/><ellipse cx="625" cy="149.0137" fill="#ADD1B2" rx="11" ry="11" style="stroke:#181818;stroke-width:1.0;"/><path d="M627.7656,144.8887 Q627.9219,144.6699 628.1094,144.5605 Q628.2969,144.4512 628.5156,144.4512 Q628.8906,144.4512 629.125,144.7168 Q629.3594,144.9668 629.3594,145.5762 L629.3594,147.0293 Q629.3594,147.6387 629.125,147.9043 Q628.8906,148.1699 628.5156,148.1699 Q628.1719,148.1699 627.9688,147.9668 Q627.7656,147.7793 627.6563,147.2637 Q627.6094,146.9043 627.4219,146.7168 Q627.0938,146.3418 626.4844,146.123 Q625.875,145.9043 625.25,145.9043 Q624.4844,145.9043 623.8438,146.2324 Q623.2188,146.5605 622.7188,147.3105 Q622.2344,148.0605 622.2344,149.0918 L622.2344,150.1855 Q622.2344,151.4199 623.125,152.248 Q624.0156,153.0605 625.6094,153.0605 Q626.5469,153.0605 627.2031,152.8105 Q627.5938,152.6543 628.0156,152.2168 Q628.2813,151.9512 628.4219,151.873 Q628.5781,151.7949 628.7813,151.7949 Q629.1094,151.7949 629.3594,152.0605 Q629.625,152.3105 629.625,152.6543 Q629.625,152.998 629.2813,153.4043 Q628.7813,153.9824 627.9844,154.3105 Q626.9063,154.7637 625.6094,154.7637 Q624.0938,154.7637 622.8906,154.1387 Q621.9063,153.6387 621.2188,152.5762 Q620.5313,151.498 620.5313,150.2168 L620.5313,149.0605 Q620.5313,147.7324 621.1406,146.5918 Q621.7656,145.4355 622.8594,144.8262 Q623.9531,144.2012 625.1875,144.2012 Q625.9219,144.2012 626.5625,144.373 Q627.2188,144.5293 627.7656,144.8887 Z " fill="#000000"/><text fill="#000000" font-family="sans-serif" font-size="14" lengthAdjust="spacing" textLength="90" x="639" y="154.8105">RouteElevator</text><line style="stroke:#181818;stroke-width:0.5;" x1="611" x2="731" y1="165.0137" y2="165.0137"/><line style="stroke:#181818;stroke-width:0.5;" x1="611" x2="731" y1="173.0137" y2="173.0137"/></g><!--class IDBDriver--><g id="elem_IDBDriver"><rect codeLine="20" fill="#F1F1F1" height="48" id="IDBDriver" rx="2.5" ry="2.5" style="stroke:#181818;stroke-width:0.5;" width="92" x="462" y="133.0137"/><ellipse cx="477" cy="149.0137" fill="#B4A7E5" rx="11" ry="11" style="stroke:#181818;stroke-width:1.0;"/><path d="M477.9531,145.6543 L477.9531,152.3105 L479.6719,152.3105 Q480.2813,152.3105 480.5469,152.5449 Q480.8125,152.7793 480.8125,153.1699 Q480.8125,153.5449 480.5469,153.7793 Q480.2813,154.0137 479.6719,154.0137 L474.5313,154.0137 Q473.9219,154.0137 473.6563,153.7793 Q473.3906,153.5449 473.3906,153.1543 Q473.3906,152.7793 473.6563,152.5449 Q473.9219,152.3105 474.5313,152.3105 L476.25,152.3105 L476.25,145.6543 L474.5313,145.6543 Q473.9219,145.6543 473.6563,145.4199 Q473.3906,145.1855 473.3906,144.7949 Q473.3906,144.4199 473.6563,144.1855 Q473.9219,143.9512 474.5313,143.9512 L479.6719,143.9512 Q480.2813,143.9512 480.5469,144.1855 Q480.8125,144.4199 480.8125,144.7949 Q480.8125,145.1855 480.5469,145.4199 Q480.2813,145.6543 479.6719,145.6543 L477.9531,145.6543 Z " fill="#000000"/><text fill="#000000" font-family="sans-serif" font-size="14" font-style="italic" lengthAdjust="spacing" textLength="60" x="491" y="154.8105">IDBDriver</text><line style="stroke:#181818;stroke-width:0.5;" x1="463" x2="553" y1="165.0137" y2="165.0137"/><line style="stroke:#181818;stroke-width:0.5;" x1="463" x2="553" y1="173.0137" y2="173.0137"/></g><!--class DBDriver--><g id="elem_DBDriver"><rect codeLine="21" fill="#F1F1F1" height="48" id="DBDriver" rx="2.5" ry="2.5" style="stroke:#181818;stroke-width:0.5;" width="89" x="337.5" y="133.0137"/><ellipse cx="352.5" cy="149.0137" fill="#ADD1B2" rx="11" ry="11" style="stroke:#181818;stroke-width:1.0;"/><path d="M355.2656,144.8887 Q355.4219,144.6699 355.6094,144.5605 Q355.7969,144.4512 356.0156,144.4512 Q356.3906,144.4512 356.625,144.7168 Q356.8594,144.9668 356.8594,145.5762 L356.8594,147.0293 Q356.8594,147.6387 356.625,147.9043 Q356.3906,148.1699 356.0156,148.1699 Q355.6719,148.1699 355.4688,147.9668 Q355.2656,147.7793 355.1563,147.2637 Q355.1094,146.9043 354.9219,146.7168 Q354.5938,146.3418 353.9844,146.123 Q353.375,145.9043 352.75,145.9043 Q351.9844,145.9043 351.3438,146.2324 Q350.7188,146.5605 350.2188,147.3105 Q349.7344,148.0605 349.7344,149.0918 L349.7344,150.1855 Q349.7344,151.4199 350.625,152.248 Q351.5156,153.0605 353.1094,153.0605 Q354.0469,153.0605 354.7031,152.8105 Q355.0938,152.6543 355.5156,152.2168 Q355.7813,151.9512 355.9219,151.873 Q356.0781,151.7949 356.2813,151.7949 Q356.6094,151.7949 356.8594,152.0605 Q357.125,152.3105 357.125,152.6543 Q357.125,152.998 356.7813,153.4043 Q356.2813,153.9824 355.4844,154.3105 Q354.4063,154.7637 353.1094,154.7637 Q351.5938,154.7637 350.3906,154.1387 Q349.4063,153.6387 348.7188,152.5762 Q348.0313,151.498 348.0313,150.2168 L348.0313,149.0605 Q348.0313,147.7324 348.6406,146.5918 Q349.2656,145.4355 350.3594,144.8262 Q351.4531,144.2012 352.6875,144.2012 Q353.4219,144.2012 354.0625,144.373 Q354.7188,144.5293 355.2656,144.8887 Z " fill="#000000"/><text fill="#000000" font-family="sans-serif" font-size="14" lengthAdjust="spacing" textLength="57" x="366.5" y="154.8105">DBDriver</text><line style="stroke:#181818;stroke-width:0.5;" x1="338.5" x2="425.5" y1="165.0137" y2="165.0137"/><line style="stroke:#181818;stroke-width:0.5;" x1="338.5" x2="425.5" y1="173.0137" y2="173.0137"/></g><!--class IControllerElevator--><g id="elem_IControllerElevator"><rect codeLine="30" fill="#F1F1F1" height="48" id="IControllerElevator" rx="2.5" ry="2.5" style="stroke:#181818;stroke-width:0.5;" width="149" x="94.5" y="446.0137"/><ellipse cx="109.5" cy="462.0137" fill="#B4A7E5" rx="11" ry="11" style="stroke:#181818;stroke-width:1.0;"/><path d="M110.4531,458.6543 L110.4531,465.3105 L112.1719,465.3105 Q112.7813,465.3105 113.0469,465.5449 Q113.3125,465.7793 113.3125,466.1699 Q113.3125,466.5449 113.0469,466.7793 Q112.7813,467.0137 112.1719,467.0137 L107.0313,467.0137 Q106.4219,467.0137 106.1563,466.7793 Q105.8906,466.5449 105.8906,466.1543 Q105.8906,465.7793 106.1563,465.5449 Q106.4219,465.3105 107.0313,465.3105 L108.75,465.3105 L108.75,458.6543 L107.0313,458.6543 Q106.4219,458.6543 106.1563,458.4199 Q105.8906,458.1855 105.8906,457.7949 Q105.8906,457.4199 106.1563,457.1855 Q106.4219,456.9512 107.0313,456.9512 L112.1719,456.9512 Q112.7813,456.9512 113.0469,457.1855 Q113.3125,457.4199 113.3125,457.7949 Q113.3125,458.1855 113.0469,458.4199 Q112.7813,458.6543 112.1719,458.6543 L110.4531,458.6543 Z " fill="#000000"/><text fill="#000000" font-family="sans-serif" font-size="14" font-style="italic" lengthAdjust="spacing" textLength="117" x="123.5" y="467.8105">IControllerElevator</text><line style="stroke:#181818;stroke-width:0.5;" x1="95.5" x2="242.5" y1="478.0137" y2="478.0137"/><line style="stroke:#181818;stroke-width:0.5;" x1="95.5" x2="242.5" y1="486.0137" y2="486.0137"/></g><!--class ControllerElevator--><g id="elem_ControllerElevator"><rect codeLine="34" fill="#F1F1F1" height="48" id="ControllerElevator" rx="2.5" ry="2.5" style="stroke:#181818;stroke-width:0.5;" width="146" x="97" y="661.0137"/><ellipse cx="112" cy="677.0137" fill="#ADD1B2" rx="11" ry="11" style="stroke:#181818;stroke-width:1.0;"/><path d="M114.7656,672.8887 Q114.9219,672.6699 115.1094,672.5605 Q115.2969,672.4512 115.5156,672.4512 Q115.8906,672.4512 116.125,672.7168 Q116.3594,672.9668 116.3594,673.5762 L116.3594,675.0293 Q116.3594,675.6387 116.125,675.9043 Q115.8906,676.1699 115.5156,676.1699 Q115.1719,676.1699 114.9688,675.9668 Q114.7656,675.7793 114.6563,675.2637 Q114.6094,674.9043 114.4219,674.7168 Q114.0938,674.3418 113.4844,674.123 Q112.875,673.9043 112.25,673.9043 Q111.4844,673.9043 110.8438,674.2324 Q110.2188,674.5605 109.7188,675.3105 Q109.2344,676.0605 109.2344,677.0918 L109.2344,678.1855 Q109.2344,679.4199 110.125,680.248 Q111.0156,681.0605 112.6094,681.0605 Q113.5469,681.0605 114.2031,680.8105 Q114.5938,680.6543 115.0156,680.2168 Q115.2813,679.9512 115.4219,679.873 Q115.5781,679.7949 115.7813,679.7949 Q116.1094,679.7949 116.3594,680.0605 Q116.625,680.3105 116.625,680.6543 Q116.625,680.998 116.2813,681.4043 Q115.7813,681.9824 114.9844,682.3105 Q113.9063,682.7637 112.6094,682.7637 Q111.0938,682.7637 109.8906,682.1387 Q108.9063,681.6387 108.2188,680.5762 Q107.5313,679.498 107.5313,678.2168 L107.5313,677.0605 Q107.5313,675.7324 108.1406,674.5918 Q108.7656,673.4355 109.8594,672.8262 Q110.9531,672.2012 112.1875,672.2012 Q112.9219,672.2012 113.5625,672.373 Q114.2188,672.5293 114.7656,672.8887 Z " fill="#000000"/><text fill="#000000" font-family="sans-serif" font-size="14" lengthAdjust="spacing" textLength="114" x="126" y="682.8105">ControllerElevator</text><line style="stroke:#181818;stroke-width:0.5;" x1="98" x2="242" y1="693.0137" y2="693.0137"/><line style="stroke:#181818;stroke-width:0.5;" x1="98" x2="242" y1="701.0137" y2="701.0137"/></g><!--class RepoBuilding--><g id="elem_RepoBuilding"><rect codeLine="40" fill="#F1F1F1" height="48" id="RepoBuilding" rx="2.5" ry="2.5" style="stroke:#181818;stroke-width:0.5;" width="116" x="324" y="446.0137"/><ellipse cx="339" cy="462.0137" fill="#ADD1B2" rx="11" ry="11" style="stroke:#181818;stroke-width:1.0;"/><path d="M341.7656,457.8887 Q341.9219,457.6699 342.1094,457.5605 Q342.2969,457.4512 342.5156,457.4512 Q342.8906,457.4512 343.125,457.7168 Q343.3594,457.9668 343.3594,458.5762 L343.3594,460.0293 Q343.3594,460.6387 343.125,460.9043 Q342.8906,461.1699 342.5156,461.1699 Q342.1719,461.1699 341.9688,460.9668 Q341.7656,460.7793 341.6563,460.2637 Q341.6094,459.9043 341.4219,459.7168 Q341.0938,459.3418 340.4844,459.123 Q339.875,458.9043 339.25,458.9043 Q338.4844,458.9043 337.8438,459.2324 Q337.2188,459.5605 336.7188,460.3105 Q336.2344,461.0605 336.2344,462.0918 L336.2344,463.1855 Q336.2344,464.4199 337.125,465.248 Q338.0156,466.0605 339.6094,466.0605 Q340.5469,466.0605 341.2031,465.8105 Q341.5938,465.6543 342.0156,465.2168 Q342.2813,464.9512 342.4219,464.873 Q342.5781,464.7949 342.7813,464.7949 Q343.1094,464.7949 343.3594,465.0605 Q343.625,465.3105 343.625,465.6543 Q343.625,465.998 343.2813,466.4043 Q342.7813,466.9824 341.9844,467.3105 Q340.9063,467.7637 339.6094,467.7637 Q338.0938,467.7637 336.8906,467.1387 Q335.9063,466.6387 335.2188,465.5762 Q334.5313,464.498 334.5313,463.2168 L334.5313,462.0605 Q334.5313,460.7324 335.1406,459.5918 Q335.7656,458.4355 336.8594,457.8262 Q337.9531,457.2012 339.1875,457.2012 Q339.9219,457.2012 340.5625,457.373 Q341.2188,457.5293 341.7656,457.8887 Z " fill="#000000"/><text fill="#000000" font-family="sans-serif" font-size="14" lengthAdjust="spacing" textLength="84" x="353" y="467.8105">RepoBuilding</text><line style="stroke:#181818;stroke-width:0.5;" x1="325" x2="439" y1="478.0137" y2="478.0137"/><line style="stroke:#181818;stroke-width:0.5;" x1="325" x2="439" y1="486.0137" y2="486.0137"/></g><!--class RepoElevator--><g id="elem_RepoElevator"><rect codeLine="41" fill="#F1F1F1" height="48" id="RepoElevator" rx="2.5" ry="2.5" style="stroke:#181818;stroke-width:0.5;" width="118" x="475" y="446.0137"/><ellipse cx="490" cy="462.0137" fill="#ADD1B2" rx="11" ry="11" style="stroke:#181818;stroke-width:1.0;"/><path d="M492.7656,457.8887 Q492.9219,457.6699 493.1094,457.5605 Q493.2969,457.4512 493.5156,457.4512 Q493.8906,457.4512 494.125,457.7168 Q494.3594,457.9668 494.3594,458.5762 L494.3594,460.0293 Q494.3594,460.6387 494.125,460.9043 Q493.8906,461.1699 493.5156,461.1699 Q493.1719,461.1699 492.9688,460.9668 Q492.7656,460.7793 492.6563,460.2637 Q492.6094,459.9043 492.4219,459.7168 Q492.0938,459.3418 491.4844,459.123 Q490.875,458.9043 490.25,458.9043 Q489.4844,458.9043 488.8438,459.2324 Q488.2188,459.5605 487.7188,460.3105 Q487.2344,461.0605 487.2344,462.0918 L487.2344,463.1855 Q487.2344,464.4199 488.125,465.248 Q489.0156,466.0605 490.6094,466.0605 Q491.5469,466.0605 492.2031,465.8105 Q492.5938,465.6543 493.0156,465.2168 Q493.2813,464.9512 493.4219,464.873 Q493.5781,464.7949 493.7813,464.7949 Q494.1094,464.7949 494.3594,465.0605 Q494.625,465.3105 494.625,465.6543 Q494.625,465.998 494.2813,466.4043 Q493.7813,466.9824 492.9844,467.3105 Q491.9063,467.7637 490.6094,467.7637 Q489.0938,467.7637 487.8906,467.1387 Q486.9063,466.6387 486.2188,465.5762 Q485.5313,464.498 485.5313,463.2168 L485.5313,462.0605 Q485.5313,460.7324 486.1406,459.5918 Q486.7656,458.4355 487.8594,457.8262 Q488.9531,457.2012 490.1875,457.2012 Q490.9219,457.2012 491.5625,457.373 Q492.2188,457.5293 492.7656,457.8887 Z " fill="#000000"/><text fill="#000000" font-family="sans-serif" font-size="14" lengthAdjust="spacing" textLength="86" x="504" y="467.8105">RepoElevator</text><line style="stroke:#181818;stroke-width:0.5;" x1="476" x2="592" y1="478.0137" y2="478.0137"/><line style="stroke:#181818;stroke-width:0.5;" x1="476" x2="592" y1="486.0137" y2="486.0137"/></g><!--class IAppServiceElevator--><g id="elem_IAppServiceElevator"><rect codeLine="53" fill="#F1F1F1" height="48" id="IAppServiceElevator" rx="2.5" ry="2.5" style="stroke:#181818;stroke-width:0.5;" width="158" x="780" y="1063.5137"/><ellipse cx="795" cy="1079.5137" fill="#B4A7E5" rx="11" ry="11" style="stroke:#181818;stroke-width:1.0;"/><path d="M795.9531,1076.1543 L795.9531,1082.8105 L797.6719,1082.8105 Q798.2813,1082.8105 798.5469,1083.0449 Q798.8125,1083.2793 798.8125,1083.6699 Q798.8125,1084.0449 798.5469,1084.2793 Q798.2813,1084.5137 797.6719,1084.5137 L792.5313,1084.5137 Q791.9219,1084.5137 791.6563,1084.2793 Q791.3906,1084.0449 791.3906,1083.6543 Q791.3906,1083.2793 791.6563,1083.0449 Q791.9219,1082.8105 792.5313,1082.8105 L794.25,1082.8105 L794.25,1076.1543 L792.5313,1076.1543 Q791.9219,1076.1543 791.6563,1075.9199 Q791.3906,1075.6855 791.3906,1075.2949 Q791.3906,1074.9199 791.6563,1074.6855 Q791.9219,1074.4512 792.5313,1074.4512 L797.6719,1074.4512 Q798.2813,1074.4512 798.5469,1074.6855 Q798.8125,1074.9199 798.8125,1075.2949 Q798.8125,1075.6855 798.5469,1075.9199 Q798.2813,1076.1543 797.6719,1076.1543 L795.9531,1076.1543 Z " fill="#000000"/><text fill="#000000" font-family="sans-serif" font-size="14" font-style="italic" lengthAdjust="spacing" textLength="126" x="809" y="1085.3105">IAppServiceElevator</text><line style="stroke:#181818;stroke-width:0.5;" x1="781" x2="937" y1="1095.5137" y2="1095.5137"/><line style="stroke:#181818;stroke-width:0.5;" x1="781" x2="937" y1="1103.5137" y2="1103.5137"/></g><!--class AppServiceElevator--><g id="elem_AppServiceElevator"><rect codeLine="57" fill="#F1F1F1" height="48" id="AppServiceElevator" rx="2.5" ry="2.5" style="stroke:#181818;stroke-width:0.5;" width="156" x="811" y="834.0137"/><ellipse cx="826" cy="850.0137" fill="#ADD1B2" rx="11" ry="11" style="stroke:#181818;stroke-width:1.0;"/><path d="M828.7656,845.8887 Q828.9219,845.6699 829.1094,845.5605 Q829.2969,845.4512 829.5156,845.4512 Q829.8906,845.4512 830.125,845.7168 Q830.3594,845.9668 830.3594,846.5762 L830.3594,848.0293 Q830.3594,848.6387 830.125,848.9043 Q829.8906,849.1699 829.5156,849.1699 Q829.1719,849.1699 828.9688,848.9668 Q828.7656,848.7793 828.6563,848.2637 Q828.6094,847.9043 828.4219,847.7168 Q828.0938,847.3418 827.4844,847.123 Q826.875,846.9043 826.25,846.9043 Q825.4844,846.9043 824.8438,847.2324 Q824.2188,847.5605 823.7188,848.3105 Q823.2344,849.0605 823.2344,850.0918 L823.2344,851.1855 Q823.2344,852.4199 824.125,853.248 Q825.0156,854.0605 826.6094,854.0605 Q827.5469,854.0605 828.2031,853.8105 Q828.5938,853.6543 829.0156,853.2168 Q829.2813,852.9512 829.4219,852.873 Q829.5781,852.7949 829.7813,852.7949 Q830.1094,852.7949 830.3594,853.0605 Q830.625,853.3105 830.625,853.6543 Q830.625,853.998 830.2813,854.4043 Q829.7813,854.9824 828.9844,855.3105 Q827.9063,855.7637 826.6094,855.7637 Q825.0938,855.7637 823.8906,855.1387 Q822.9063,854.6387 822.2188,853.5762 Q821.5313,852.498 821.5313,851.2168 L821.5313,850.0605 Q821.5313,848.7324 822.1406,847.5918 Q822.7656,846.4355 823.8594,845.8262 Q824.9531,845.2012 826.1875,845.2012 Q826.9219,845.2012 827.5625,845.373 Q828.2188,845.5293 828.7656,845.8887 Z " fill="#000000"/><text fill="#000000" font-family="sans-serif" font-size="14" lengthAdjust="spacing" textLength="124" x="840" y="855.8105">AppServiceElevator</text><line style="stroke:#181818;stroke-width:0.5;" x1="812" x2="966" y1="866.0137" y2="866.0137"/><line style="stroke:#181818;stroke-width:0.5;" x1="812" x2="966" y1="874.0137" y2="874.0137"/></g><!--class IRepoBuilding--><g id="elem_IRepoBuilding"><rect codeLine="63" fill="#F1F1F1" height="48" id="IRepoBuilding" rx="2.5" ry="2.5" style="stroke:#181818;stroke-width:0.5;" width="120" x="721" y="661.0137"/><ellipse cx="736" cy="677.0137" fill="#B4A7E5" rx="11" ry="11" style="stroke:#181818;stroke-width:1.0;"/><path d="M736.9531,673.6543 L736.9531,680.3105 L738.6719,680.3105 Q739.2813,680.3105 739.5469,680.5449 Q739.8125,680.7793 739.8125,681.1699 Q739.8125,681.5449 739.5469,681.7793 Q739.2813,682.0137 738.6719,682.0137 L733.5313,682.0137 Q732.9219,682.0137 732.6563,681.7793 Q732.3906,681.5449 732.3906,681.1543 Q732.3906,680.7793 732.6563,680.5449 Q732.9219,680.3105 733.5313,680.3105 L735.25,680.3105 L735.25,673.6543 L733.5313,673.6543 Q732.9219,673.6543 732.6563,673.4199 Q732.3906,673.1855 732.3906,672.7949 Q732.3906,672.4199 732.6563,672.1855 Q732.9219,671.9512 733.5313,671.9512 L738.6719,671.9512 Q739.2813,671.9512 739.5469,672.1855 Q739.8125,672.4199 739.8125,672.7949 Q739.8125,673.1855 739.5469,673.4199 Q739.2813,673.6543 738.6719,673.6543 L736.9531,673.6543 Z " fill="#000000"/><text fill="#000000" font-family="sans-serif" font-size="14" font-style="italic" lengthAdjust="spacing" textLength="88" x="750" y="682.8105">IRepoBuilding</text><line style="stroke:#181818;stroke-width:0.5;" x1="722" x2="840" y1="693.0137" y2="693.0137"/><line style="stroke:#181818;stroke-width:0.5;" x1="722" x2="840" y1="701.0137" y2="701.0137"/></g><!--class IRepoElevator--><g id="elem_IRepoElevator"><rect codeLine="64" fill="#F1F1F1" height="48" id="IRepoElevator" rx="2.5" ry="2.5" style="stroke:#181818;stroke-width:0.5;" width="121" x="876.5" y="661.0137"/><ellipse cx="891.5" cy="677.0137" fill="#B4A7E5" rx="11" ry="11" style="stroke:#181818;stroke-width:1.0;"/><path d="M892.4531,673.6543 L892.4531,680.3105 L894.1719,680.3105 Q894.7813,680.3105 895.0469,680.5449 Q895.3125,680.7793 895.3125,681.1699 Q895.3125,681.5449 895.0469,681.7793 Q894.7813,682.0137 894.1719,682.0137 L889.0313,682.0137 Q888.4219,682.0137 888.1563,681.7793 Q887.8906,681.5449 887.8906,681.1543 Q887.8906,680.7793 888.1563,680.5449 Q888.4219,680.3105 889.0313,680.3105 L890.75,680.3105 L890.75,673.6543 L889.0313,673.6543 Q888.4219,673.6543 888.1563,673.4199 Q887.8906,673.1855 887.8906,672.7949 Q887.8906,672.4199 888.1563,672.1855 Q888.4219,671.9512 889.0313,671.9512 L894.1719,671.9512 Q894.7813,671.9512 895.0469,672.1855 Q895.3125,672.4199 895.3125,672.7949 Q895.3125,673.1855 895.0469,673.4199 Q894.7813,673.6543 894.1719,673.6543 L892.4531,673.6543 Z " fill="#000000"/><text fill="#000000" font-family="sans-serif" font-size="14" font-style="italic" lengthAdjust="spacing" textLength="89" x="905.5" y="682.8105">IRepoElevator</text><line style="stroke:#181818;stroke-width:0.5;" x1="877.5" x2="996.5" y1="693.0137" y2="693.0137"/><line style="stroke:#181818;stroke-width:0.5;" x1="877.5" x2="996.5" y1="701.0137" y2="701.0137"/></g><!--class Elevator--><g id="elem_Elevator"><rect codeLine="81" fill="#F1F1F1" height="76.543" id="Elevator" rx="2.5" ry="2.5" style="stroke:#181818;stroke-width:0.5;" width="84" x="1369" y="1049.0137"/><ellipse cx="1384" cy="1079.2852" fill="#ADD1B2" rx="11" ry="11" style="stroke:#181818;stroke-width:1.0;"/><path d="M1382.8594,1080.082 L1382.8594,1082.582 L1387.1875,1082.582 L1387.1875,1081.6602 Q1387.1875,1081.0508 1387.4219,1080.7852 Q1387.6719,1080.5195 1388.0469,1080.5195 Q1388.4219,1080.5195 1388.6563,1080.7852 Q1388.8906,1081.0508 1388.8906,1081.6602 L1388.8906,1084.2852 L1380.8906,1084.2852 Q1380.2656,1084.2852 1380,1084.0508 Q1379.75,1083.8164 1379.75,1083.4258 Q1379.75,1083.0508 1380.0156,1082.8164 Q1380.2813,1082.582 1380.8906,1082.582 L1381.1563,1082.582 L1381.1563,1075.9258 L1380.8906,1075.9258 Q1380.2656,1075.9258 1380,1075.6914 Q1379.75,1075.457 1379.75,1075.0664 Q1379.75,1074.6914 1380,1074.457 Q1380.2656,1074.2227 1380.8906,1074.2227 L1388.5156,1074.2227 L1388.5156,1076.8164 Q1388.5156,1077.4258 1388.2813,1077.6914 Q1388.0625,1077.9414 1387.6719,1077.9414 Q1387.2969,1077.9414 1387.0625,1077.6914 Q1386.8281,1077.4258 1386.8281,1076.8164 L1386.8281,1075.9258 L1382.8594,1075.9258 L1382.8594,1078.3789 L1384.3438,1078.3789 Q1384.3438,1077.7227 1384.4688,1077.5352 Q1384.7344,1077.1289 1385.2031,1077.1289 Q1385.5781,1077.1289 1385.8125,1077.3945 Q1386.0469,1077.6445 1386.0469,1078.2539 L1386.0469,1080.2227 Q1386.0469,1080.7695 1385.9219,1080.957 Q1385.6563,1081.3477 1385.2031,1081.3477 Q1384.7344,1081.3477 1384.4688,1080.9414 Q1384.3438,1080.7539 1384.3438,1080.082 L1382.8594,1080.082 Z " fill="#000000"/><text fill="#000000" font-family="sans-serif" font-size="12" font-style="italic" lengthAdjust="spacing" textLength="35" x="1406.5" y="1066.9629">&#171;root&#187;</text><text fill="#000000" font-family="sans-serif" font-size="12" font-style="italic" lengthAdjust="spacing" textLength="43" x="1402.5" y="1082.9238">&#171;entity&#187;</text><text fill="#000000" font-family="sans-serif" font-size="14" lengthAdjust="spacing" textLength="52" x="1398" y="1101.043">Elevator</text><line style="stroke:#181818;stroke-width:0.5;" x1="1370" x2="1452" y1="1109.5566" y2="1109.5566"/><line style="stroke:#181818;stroke-width:0.5;" x1="1370" x2="1452" y1="1117.5566" y2="1117.5566"/></g><!--class Building--><g id="elem_Building"><rect codeLine="85" fill="#F1F1F1" height="76.543" id="Building" rx="2.5" ry="2.5" style="stroke:#181818;stroke-width:0.5;" width="82" x="1231" y="1049.0137"/><ellipse cx="1246" cy="1079.2852" fill="#ADD1B2" rx="11" ry="11" style="stroke:#181818;stroke-width:1.0;"/><path d="M1244.8594,1080.082 L1244.8594,1082.582 L1249.1875,1082.582 L1249.1875,1081.6602 Q1249.1875,1081.0508 1249.4219,1080.7852 Q1249.6719,1080.5195 1250.0469,1080.5195 Q1250.4219,1080.5195 1250.6563,1080.7852 Q1250.8906,1081.0508 1250.8906,1081.6602 L1250.8906,1084.2852 L1242.8906,1084.2852 Q1242.2656,1084.2852 1242,1084.0508 Q1241.75,1083.8164 1241.75,1083.4258 Q1241.75,1083.0508 1242.0156,1082.8164 Q1242.2813,1082.582 1242.8906,1082.582 L1243.1563,1082.582 L1243.1563,1075.9258 L1242.8906,1075.9258 Q1242.2656,1075.9258 1242,1075.6914 Q1241.75,1075.457 1241.75,1075.0664 Q1241.75,1074.6914 1242,1074.457 Q1242.2656,1074.2227 1242.8906,1074.2227 L1250.5156,1074.2227 L1250.5156,1076.8164 Q1250.5156,1077.4258 1250.2813,1077.6914 Q1250.0625,1077.9414 1249.6719,1077.9414 Q1249.2969,1077.9414 1249.0625,1077.6914 Q1248.8281,1077.4258 1248.8281,1076.8164 L1248.8281,1075.9258 L1244.8594,1075.9258 L1244.8594,1078.3789 L1246.3438,1078.3789 Q1246.3438,1077.7227 1246.4688,1077.5352 Q1246.7344,1077.1289 1247.2031,1077.1289 Q1247.5781,1077.1289 1247.8125,1077.3945 Q1248.0469,1077.6445 1248.0469,1078.2539 L1248.0469,1080.2227 Q1248.0469,1080.7695 1247.9219,1080.957 Q1247.6563,1081.3477 1247.2031,1081.3477 Q1246.7344,1081.3477 1246.4688,1080.9414 Q1246.3438,1080.7539 1246.3438,1080.082 L1244.8594,1080.082 Z " fill="#000000"/><text fill="#000000" font-family="sans-serif" font-size="12" font-style="italic" lengthAdjust="spacing" textLength="35" x="1267.5" y="1066.9629">&#171;root&#187;</text><text fill="#000000" font-family="sans-serif" font-size="12" font-style="italic" lengthAdjust="spacing" textLength="43" x="1263.5" y="1082.9238">&#171;entity&#187;</text><text fill="#000000" font-family="sans-serif" font-size="14" lengthAdjust="spacing" textLength="50" x="1260" y="1101.043">Building</text><line style="stroke:#181818;stroke-width:0.5;" x1="1232" x2="1312" y1="1109.5566" y2="1109.5566"/><line style="stroke:#181818;stroke-width:0.5;" x1="1232" x2="1312" y1="1117.5566" y2="1117.5566"/></g><!--class Identifier--><g id="elem_Identifier"><rect codeLine="93" fill="#F1F1F1" height="48" id="Identifier" rx="2.5" ry="2.5" style="stroke:#181818;stroke-width:0.5;" width="86" x="1651" y="1281.5137"/><ellipse cx="1666" cy="1297.5137" fill="#ADD1B2" rx="11" ry="11" style="stroke:#181818;stroke-width:1.0;"/><path d="M1668.7656,1293.3887 Q1668.9219,1293.1699 1669.1094,1293.0605 Q1669.2969,1292.9512 1669.5156,1292.9512 Q1669.8906,1292.9512 1670.125,1293.2168 Q1670.3594,1293.4668 1670.3594,1294.0762 L1670.3594,1295.5293 Q1670.3594,1296.1387 1670.125,1296.4043 Q1669.8906,1296.6699 1669.5156,1296.6699 Q1669.1719,1296.6699 1668.9688,1296.4668 Q1668.7656,1296.2793 1668.6563,1295.7637 Q1668.6094,1295.4043 1668.4219,1295.2168 Q1668.0938,1294.8418 1667.4844,1294.623 Q1666.875,1294.4043 1666.25,1294.4043 Q1665.4844,1294.4043 1664.8438,1294.7324 Q1664.2188,1295.0605 1663.7188,1295.8105 Q1663.2344,1296.5605 1663.2344,1297.5918 L1663.2344,1298.6855 Q1663.2344,1299.9199 1664.125,1300.748 Q1665.0156,1301.5605 1666.6094,1301.5605 Q1667.5469,1301.5605 1668.2031,1301.3105 Q1668.5938,1301.1543 1669.0156,1300.7168 Q1669.2813,1300.4512 1669.4219,1300.373 Q1669.5781,1300.2949 1669.7813,1300.2949 Q1670.1094,1300.2949 1670.3594,1300.5605 Q1670.625,1300.8105 1670.625,1301.1543 Q1670.625,1301.498 1670.2813,1301.9043 Q1669.7813,1302.4824 1668.9844,1302.8105 Q1667.9063,1303.2637 1666.6094,1303.2637 Q1665.0938,1303.2637 1663.8906,1302.6387 Q1662.9063,1302.1387 1662.2188,1301.0762 Q1661.5313,1299.998 1661.5313,1298.7168 L1661.5313,1297.5605 Q1661.5313,1296.2324 1662.1406,1295.0918 Q1662.7656,1293.9355 1663.8594,1293.3262 Q1664.9531,1292.7012 1666.1875,1292.7012 Q1666.9219,1292.7012 1667.5625,1292.873 Q1668.2188,1293.0293 1668.7656,1293.3887 Z " fill="#000000"/><text fill="#000000" font-family="sans-serif" font-size="14" lengthAdjust="spacing" textLength="54" x="1680" y="1303.3105">Identifier</text><line style="stroke:#181818;stroke-width:0.5;" x1="1652" x2="1736" y1="1313.5137" y2="1313.5137"/><line style="stroke:#181818;stroke-width:0.5;" x1="1652" x2="1736" y1="1321.5137" y2="1321.5137"/></g><!--class Brand--><g id="elem_Brand"><rect codeLine="94" fill="#F1F1F1" height="48" id="Brand" rx="2.5" ry="2.5" style="stroke:#181818;stroke-width:0.5;" width="70" x="1546" y="1281.5137"/><ellipse cx="1561" cy="1297.5137" fill="#ADD1B2" rx="11" ry="11" style="stroke:#181818;stroke-width:1.0;"/><path d="M1563.7656,1293.3887 Q1563.9219,1293.1699 1564.1094,1293.0605 Q1564.2969,1292.9512 1564.5156,1292.9512 Q1564.8906,1292.9512 1565.125,1293.2168 Q1565.3594,1293.4668 1565.3594,1294.0762 L1565.3594,1295.5293 Q1565.3594,1296.1387 1565.125,1296.4043 Q1564.8906,1296.6699 1564.5156,1296.6699 Q1564.1719,1296.6699 1563.9688,1296.4668 Q1563.7656,1296.2793 1563.6563,1295.7637 Q1563.6094,1295.4043 1563.4219,1295.2168 Q1563.0938,1294.8418 1562.4844,1294.623 Q1561.875,1294.4043 1561.25,1294.4043 Q1560.4844,1294.4043 1559.8438,1294.7324 Q1559.2188,1295.0605 1558.7188,1295.8105 Q1558.2344,1296.5605 1558.2344,1297.5918 L1558.2344,1298.6855 Q1558.2344,1299.9199 1559.125,1300.748 Q1560.0156,1301.5605 1561.6094,1301.5605 Q1562.5469,1301.5605 1563.2031,1301.3105 Q1563.5938,1301.1543 1564.0156,1300.7168 Q1564.2813,1300.4512 1564.4219,1300.373 Q1564.5781,1300.2949 1564.7813,1300.2949 Q1565.1094,1300.2949 1565.3594,1300.5605 Q1565.625,1300.8105 1565.625,1301.1543 Q1565.625,1301.498 1565.2813,1301.9043 Q1564.7813,1302.4824 1563.9844,1302.8105 Q1562.9063,1303.2637 1561.6094,1303.2637 Q1560.0938,1303.2637 1558.8906,1302.6387 Q1557.9063,1302.1387 1557.2188,1301.0762 Q1556.5313,1299.998 1556.5313,1298.7168 L1556.5313,1297.5605 Q1556.5313,1296.2324 1557.1406,1295.0918 Q1557.7656,1293.9355 1558.8594,1293.3262 Q1559.9531,1292.7012 1561.1875,1292.7012 Q1561.9219,1292.7012 1562.5625,1292.873 Q1563.2188,1293.0293 1563.7656,1293.3887 Z " fill="#000000"/><text fill="#000000" font-family="sans-serif" font-size="14" lengthAdjust="spacing" textLength="38" x="1575" y="1303.3105">Brand</text><line style="stroke:#181818;stroke-width:0.5;" x1="1547" x2="1615" y1="1313.5137" y2="1313.5137"/><line style="stroke:#181818;stroke-width:0.5;" x1="1547" x2="1615" y1="1321.5137" y2="1321.5137"/></g><!--class Model--><g id="elem_Model"><rect codeLine="95" fill="#F1F1F1" height="48" id="Model" rx="2.5" ry="2.5" style="stroke:#181818;stroke-width:0.5;" width="70" x="1441" y="1281.5137"/><ellipse cx="1456" cy="1297.5137" fill="#ADD1B2" rx="11" ry="11" style="stroke:#181818;stroke-width:1.0;"/><path d="M1458.7656,1293.3887 Q1458.9219,1293.1699 1459.1094,1293.0605 Q1459.2969,1292.9512 1459.5156,1292.9512 Q1459.8906,1292.9512 1460.125,1293.2168 Q1460.3594,1293.4668 1460.3594,1294.0762 L1460.3594,1295.5293 Q1460.3594,1296.1387 1460.125,1296.4043 Q1459.8906,1296.6699 1459.5156,1296.6699 Q1459.1719,1296.6699 1458.9688,1296.4668 Q1458.7656,1296.2793 1458.6563,1295.7637 Q1458.6094,1295.4043 1458.4219,1295.2168 Q1458.0938,1294.8418 1457.4844,1294.623 Q1456.875,1294.4043 1456.25,1294.4043 Q1455.4844,1294.4043 1454.8438,1294.7324 Q1454.2188,1295.0605 1453.7188,1295.8105 Q1453.2344,1296.5605 1453.2344,1297.5918 L1453.2344,1298.6855 Q1453.2344,1299.9199 1454.125,1300.748 Q1455.0156,1301.5605 1456.6094,1301.5605 Q1457.5469,1301.5605 1458.2031,1301.3105 Q1458.5938,1301.1543 1459.0156,1300.7168 Q1459.2813,1300.4512 1459.4219,1300.373 Q1459.5781,1300.2949 1459.7813,1300.2949 Q1460.1094,1300.2949 1460.3594,1300.5605 Q1460.625,1300.8105 1460.625,1301.1543 Q1460.625,1301.498 1460.2813,1301.9043 Q1459.7813,1302.4824 1458.9844,1302.8105 Q1457.9063,1303.2637 1456.6094,1303.2637 Q1455.0938,1303.2637 1453.8906,1302.6387 Q1452.9063,1302.1387 1452.2188,1301.0762 Q1451.5313,1299.998 1451.5313,1298.7168 L1451.5313,1297.5605 Q1451.5313,1296.2324 1452.1406,1295.0918 Q1452.7656,1293.9355 1453.8594,1293.3262 Q1454.9531,1292.7012 1456.1875,1292.7012 Q1456.9219,1292.7012 1457.5625,1292.873 Q1458.2188,1293.0293 1458.7656,1293.3887 Z " fill="#000000"/><text fill="#000000" font-family="sans-serif" font-size="14" lengthAdjust="spacing" textLength="38" x="1470" y="1303.3105">Model</text><line style="stroke:#181818;stroke-width:0.5;" x1="1442" x2="1510" y1="1313.5137" y2="1313.5137"/><line style="stroke:#181818;stroke-width:0.5;" x1="1442" x2="1510" y1="1321.5137" y2="1321.5137"/></g><!--class SerialNumber--><g id="elem_SerialNumber"><rect codeLine="96" fill="#F1F1F1" height="48" id="SerialNumber" rx="2.5" ry="2.5" style="stroke:#181818;stroke-width:0.5;" width="117" x="1288.5" y="1281.5137"/><ellipse cx="1303.5" cy="1297.5137" fill="#ADD1B2" rx="11" ry="11" style="stroke:#181818;stroke-width:1.0;"/><path d="M1306.2656,1293.3887 Q1306.4219,1293.1699 1306.6094,1293.0605 Q1306.7969,1292.9512 1307.0156,1292.9512 Q1307.3906,1292.9512 1307.625,1293.2168 Q1307.8594,1293.4668 1307.8594,1294.0762 L1307.8594,1295.5293 Q1307.8594,1296.1387 1307.625,1296.4043 Q1307.3906,1296.6699 1307.0156,1296.6699 Q1306.6719,1296.6699 1306.4688,1296.4668 Q1306.2656,1296.2793 1306.1563,1295.7637 Q1306.1094,1295.4043 1305.9219,1295.2168 Q1305.5938,1294.8418 1304.9844,1294.623 Q1304.375,1294.4043 1303.75,1294.4043 Q1302.9844,1294.4043 1302.3438,1294.7324 Q1301.7188,1295.0605 1301.2188,1295.8105 Q1300.7344,1296.5605 1300.7344,1297.5918 L1300.7344,1298.6855 Q1300.7344,1299.9199 1301.625,1300.748 Q1302.5156,1301.5605 1304.1094,1301.5605 Q1305.0469,1301.5605 1305.7031,1301.3105 Q1306.0938,1301.1543 1306.5156,1300.7168 Q1306.7813,1300.4512 1306.9219,1300.373 Q1307.0781,1300.2949 1307.2813,1300.2949 Q1307.6094,1300.2949 1307.8594,1300.5605 Q1308.125,1300.8105 1308.125,1301.1543 Q1308.125,1301.498 1307.7813,1301.9043 Q1307.2813,1302.4824 1306.4844,1302.8105 Q1305.4063,1303.2637 1304.1094,1303.2637 Q1302.5938,1303.2637 1301.3906,1302.6387 Q1300.4063,1302.1387 1299.7188,1301.0762 Q1299.0313,1299.998 1299.0313,1298.7168 L1299.0313,1297.5605 Q1299.0313,1296.2324 1299.6406,1295.0918 Q1300.2656,1293.9355 1301.3594,1293.3262 Q1302.4531,1292.7012 1303.6875,1292.7012 Q1304.4219,1292.7012 1305.0625,1292.873 Q1305.7188,1293.0293 1306.2656,1293.3887 Z " fill="#000000"/><text fill="#000000" font-family="sans-serif" font-size="14" lengthAdjust="spacing" textLength="85" x="1317.5" y="1303.3105">SerialNumber</text><line style="stroke:#181818;stroke-width:0.5;" x1="1289.5" x2="1404.5" y1="1313.5137" y2="1313.5137"/><line style="stroke:#181818;stroke-width:0.5;" x1="1289.5" x2="1404.5" y1="1321.5137" y2="1321.5137"/></g><!--class Description--><g id="elem_Description"><rect codeLine="97" fill="#F1F1F1" height="48" id="Description" rx="2.5" ry="2.5" style="stroke:#181818;stroke-width:0.5;" width="103" x="1150.5" y="1281.5137"/><ellipse cx="1165.5" cy="1297.5137" fill="#ADD1B2" rx="11" ry="11" style="stroke:#181818;stroke-width:1.0;"/><path d="M1168.2656,1293.3887 Q1168.4219,1293.1699 1168.6094,1293.0605 Q1168.7969,1292.9512 1169.0156,1292.9512 Q1169.3906,1292.9512 1169.625,1293.2168 Q1169.8594,1293.4668 1169.8594,1294.0762 L1169.8594,1295.5293 Q1169.8594,1296.1387 1169.625,1296.4043 Q1169.3906,1296.6699 1169.0156,1296.6699 Q1168.6719,1296.6699 1168.4688,1296.4668 Q1168.2656,1296.2793 1168.1563,1295.7637 Q1168.1094,1295.4043 1167.9219,1295.2168 Q1167.5938,1294.8418 1166.9844,1294.623 Q1166.375,1294.4043 1165.75,1294.4043 Q1164.9844,1294.4043 1164.3438,1294.7324 Q1163.7188,1295.0605 1163.2188,1295.8105 Q1162.7344,1296.5605 1162.7344,1297.5918 L1162.7344,1298.6855 Q1162.7344,1299.9199 1163.625,1300.748 Q1164.5156,1301.5605 1166.1094,1301.5605 Q1167.0469,1301.5605 1167.7031,1301.3105 Q1168.0938,1301.1543 1168.5156,1300.7168 Q1168.7813,1300.4512 1168.9219,1300.373 Q1169.0781,1300.2949 1169.2813,1300.2949 Q1169.6094,1300.2949 1169.8594,1300.5605 Q1170.125,1300.8105 1170.125,1301.1543 Q1170.125,1301.498 1169.7813,1301.9043 Q1169.2813,1302.4824 1168.4844,1302.8105 Q1167.4063,1303.2637 1166.1094,1303.2637 Q1164.5938,1303.2637 1163.3906,1302.6387 Q1162.4063,1302.1387 1161.7188,1301.0762 Q1161.0313,1299.998 1161.0313,1298.7168 L1161.0313,1297.5605 Q1161.0313,1296.2324 1161.6406,1295.0918 Q1162.2656,1293.9355 1163.3594,1293.3262 Q1164.4531,1292.7012 1165.6875,1292.7012 Q1166.4219,1292.7012 1167.0625,1292.873 Q1167.7188,1293.0293 1168.2656,1293.3887 Z " fill="#000000"/><text fill="#000000" font-family="sans-serif" font-size="14" lengthAdjust="spacing" textLength="71" x="1179.5" y="1303.3105">Description</text><line style="stroke:#181818;stroke-width:0.5;" x1="1151.5" x2="1252.5" y1="1313.5137" y2="1313.5137"/><line style="stroke:#181818;stroke-width:0.5;" x1="1151.5" x2="1252.5" y1="1321.5137" y2="1321.5137"/></g><!--link DBDriver to IDBDriver--><g id="link_DBDriver_IDBDriver"><path codeLine="24" d="M426.79,157.0137 C431.7,157.0137 436.6,157.0137 441.51,157.0137 " fill="none" id="DBDriver-to-IDBDriver" style="stroke:#FF6655;stroke-width:1.0;"/><polygon fill="none" points="441.68,150.0137,461.68,157.0137,441.68,164.0137,441.68,150.0137" style="stroke:#FF6655;stroke-width:1.0;"/></g><!--reverse link IControllerElevator to ControllerElevator--><g id="link_IControllerElevator_ControllerElevator"><path codeLine="36" d="M169.2,514.4537 C169.41,558.7537 169.73,625.8137 169.89,660.8437 " fill="none" id="IControllerElevator-backto-ControllerElevator" style="stroke:#FF6655;stroke-width:1.0;"/><polygon fill="none" points="162.2,514.2437,169.11,494.2137,176.2,514.1837,162.2,514.2437" style="stroke:#FF6655;stroke-width:1.0;"/></g><!--reverse link DBDriver to RepoBuilding--><g id="link_DBDriver_RepoBuilding"><path codeLine="44" d="M382,186.4237 C382,247.3837 382,389.6937 382,445.7437 " fill="none" id="DBDriver-backto-RepoBuilding" style="stroke:#FF6655;stroke-width:1.0;stroke-dasharray:7.0,7.0;"/><polygon fill="#FF6655" points="382,181.1337,378,190.1337,382,186.1337,386,190.1337,382,181.1337" style="stroke:#FF6655;stroke-width:1.0;"/></g><!--reverse link DBDriver to RepoElevator--><g id="link_DBDriver_RepoElevator"><path codeLine="45" d="M395.92,185.7737 C411.24,216.3937 436.55,267.1337 458,311.0137 C481.39,358.8737 508.32,415.1337 523.02,445.9437 " fill="none" id="DBDriver-backto-RepoElevator" style="stroke:#FF6655;stroke-width:1.0;stroke-dasharray:7.0,7.0;"/><polygon fill="#FF6655" points="393.55,181.0337,394.0098,190.8718,395.7918,185.5029,401.1606,187.2849,393.55,181.0337" style="stroke:#FF6655;stroke-width:1.0;"/></g><!--link RouteElevator to IControllerElevator--><g id="link_RouteElevator_IControllerElevator"><path codeLine="47" d="M643.32,181.0237 C623.81,196.3237 596.53,215.9337 570,229.0137 C460.56,282.9637 410.31,244.5237 308,311.0137 C254.79,345.5937 209.79,405.9937 186.36,441.2437 " fill="none" id="RouteElevator-to-IControllerElevator" style="stroke:#FF6655;stroke-width:1.0;stroke-dasharray:7.0,7.0;"/><polygon fill="#FF6655" points="183.34,445.8437,191.6269,440.5213,186.087,441.6659,184.9424,436.126,183.34,445.8437" style="stroke:#FF6655;stroke-width:1.0;"/></g><!--link AppServiceElevator to IAppServiceElevator--><g id="link_AppServiceElevator_IAppServiceElevator"><path codeLine="60" d="M885.96,882.0837 C880.98,919.8037 871.03,995.3037 864.71,1043.2437 " fill="none" id="AppServiceElevator-to-IAppServiceElevator" style="stroke:#FF6655;stroke-width:1.0;"/><polygon fill="none" points="871.6,1044.4737,862.05,1063.3837,857.72,1042.6437,871.6,1044.4737" style="stroke:#FF6655;stroke-width:1.0;"/></g><!--link RepoBuilding to IRepoBuilding--><g id="link_RepoBuilding_IRepoBuilding"><path codeLine="67" d="M417.99,494.0737 C430.52,501.8937 444.76,510.5337 458,518.0137 C545.43,567.4137 649.1,619.6037 714.96,651.9837 " fill="none" id="RepoBuilding-to-IRepoBuilding" style="stroke:#FF6655;stroke-width:1.0;"/><polygon fill="none" points="718.43,645.8937,733.3,660.9737,712.26,658.4637,718.43,645.8937" style="stroke:#FF6655;stroke-width:1.0;"/></g><!--link RepoElevator to IRepoElevator--><g id="link_RepoElevator_IRepoElevator"><path codeLine="68" d="M593.03,474.6237 C674.99,480.6837 817.86,495.3837 859,526.0137 C896.54,553.9537 917.07,604.9237 927.51,641.4237 " fill="none" id="RepoElevator-to-IRepoElevator" style="stroke:#FF6655;stroke-width:1.0;"/><polygon fill="none" points="934.33,639.8337,932.54,660.9537,920.77,643.3337,934.33,639.8337" style="stroke:#FF6655;stroke-width:1.0;"/></g><!--link ControllerElevator to IAppServiceElevator--><g id="link_ControllerElevator_IAppServiceElevator"><path codeLine="71" d="M209.77,709.1337 C330,779.0137 689.09,987.7437 814.88,1060.8637 " fill="none" id="ControllerElevator-to-IAppServiceElevator" style="stroke:#FF6655;stroke-width:1.0;stroke-dasharray:7.0,7.0;"/><polygon fill="#FF6655" points="819.26,1063.4137,813.4867,1055.4344,814.9365,1060.9023,809.4685,1062.352,819.26,1063.4137" style="stroke:#FF6655;stroke-width:1.0;"/></g><!--reverse link IRepoBuilding to AppServiceElevator--><g id="link_IRepoBuilding_AppServiceElevator"><path codeLine="73" d="M798.31,713.4237 C819.37,746.7637 854.53,802.4437 874.32,833.7737 " fill="none" id="IRepoBuilding-backto-AppServiceElevator" style="stroke:#FF6655;stroke-width:1.0;stroke-dasharray:7.0,7.0;"/><polygon fill="#FF6655" points="795.57,709.0737,797.0101,718.8167,798.247,713.2967,803.7669,714.5335,795.57,709.0737" style="stroke:#FF6655;stroke-width:1.0;"/></g><!--reverse link IRepoElevator to AppServiceElevator--><g id="link_IRepoElevator_AppServiceElevator"><path codeLine="74" d="M929.07,714.2437 C919.69,747.6637 904.25,802.7037 895.52,833.7737 " fill="none" id="IRepoElevator-backto-AppServiceElevator" style="stroke:#FF6655;stroke-width:1.0;stroke-dasharray:7.0,7.0;"/><polygon fill="#FF6655" points="930.53,709.0737,924.2381,716.6508,929.1734,713.8861,931.938,718.8214,930.53,709.0737" style="stroke:#FF6655;stroke-width:1.0;"/></g><!--link Elevator to Identifier--><g id="link_Elevator_Identifier"><path codeLine="103" d="M1453.05,1099.0837 C1501.71,1113.1337 1581.8,1142.1337 1634,1191.5137 C1658.96,1215.1237 1675.66,1251.4637 1684.97,1276.5237 " fill="none" id="Elevator-to-Identifier" style="stroke:#FF6655;stroke-width:1.0;"/><polygon fill="#FF6655" points="1686.74,1281.3737,1687.4403,1271.5497,1685.0393,1276.6718,1679.9173,1274.2708,1686.74,1281.3737" style="stroke:#FF6655;stroke-width:1.0;"/><text fill="#000000" font-family="Impact" font-size="13" lengthAdjust="spacing" textLength="5" x="1678.995" y="1270.7096">1</text></g><!--link Elevator to Brand--><g id="link_Elevator_Brand"><path codeLine="104" d="M1453.23,1118.2337 C1477.73,1137.0837 1507.83,1163.2037 1529,1191.5137 C1548.56,1217.6637 1563.16,1252.3637 1571.83,1276.3737 " fill="none" id="Elevator-to-Brand" style="stroke:#FF6655;stroke-width:1.0;"/><polygon fill="#FF6655" points="1573.59,1281.3237,1574.3526,1271.5044,1571.9192,1276.6111,1566.8125,1274.1777,1573.59,1281.3237" style="stroke:#FF6655;stroke-width:1.0;"/><text fill="#000000" font-family="Impact" font-size="13" lengthAdjust="spacing" textLength="5" x="1565.8028" y="1270.6456">1</text></g><!--link Elevator to Model--><g id="link_Elevator_Model"><path codeLine="105" d="M1422.32,1126.1337 C1435.2,1168.9337 1455.94,1237.8537 1467.51,1276.2937 " fill="none" id="Elevator-to-Model" style="stroke:#FF6655;stroke-width:1.0;"/><polygon fill="#FF6655" points="1469.01,1281.2837,1470.2418,1271.5121,1467.5667,1276.4965,1462.5823,1273.8214,1469.01,1281.2837" style="stroke:#FF6655;stroke-width:1.0;"/><text fill="#000000" font-family="Impact" font-size="13" lengthAdjust="spacing" textLength="5" x="1461.3409" y="1270.5943">1</text></g><!--link Elevator to SerialNumber--><g id="link_Elevator_SerialNumber"><path codeLine="106" d="M1399.85,1126.1337 C1387.17,1168.9337 1366.75,1237.8537 1355.36,1276.2937 " fill="none" id="Elevator-to-SerialNumber" style="stroke:#FF6655;stroke-width:1.0;"/><polygon fill="#FF6655" points="1353.88,1281.2837,1360.2667,1273.7863,1355.297,1276.4887,1352.5947,1271.519,1353.88,1281.2837" style="stroke:#FF6655;stroke-width:1.0;"/><text fill="#000000" font-family="Impact" font-size="13" lengthAdjust="spacing" textLength="5" x="1350.1119" y="1270.5943">1</text></g><!--link Elevator to Description--><g id="link_Elevator_Description"><path codeLine="107" d="M1388.38,1126.0237 C1374,1146.4437 1353.5,1170.1937 1329,1183.5137 C1306.14,1195.9437 1292.77,1177.2537 1271,1191.5137 C1240.59,1211.4337 1221.42,1249.8637 1211.21,1276.3437 " fill="none" id="Elevator-to-Description" style="stroke:#FF6655;stroke-width:1.0;"/><polygon fill="#FF6655" points="1209.4,1281.1337,1216.3054,1274.1112,1211.1556,1276.452,1208.8148,1271.3022,1209.4,1281.1337" style="stroke:#FF6655;stroke-width:1.0;"/><text fill="#000000" font-family="Impact" font-size="13" lengthAdjust="spacing" textLength="5" x="1205.7169" y="1270.7953">1</text></g><!--reverse link Building to Elevator--><g id="link_Building_Elevator"><path codeLine="109" d="M1318.46,1087.5137 C1335.18,1087.5137 1351.9,1087.5137 1368.62,1087.5137 " fill="none" id="Building-backto-Elevator" style="stroke:#FF6655;stroke-width:1.0;"/><polygon fill="#FF6655" points="1313.27,1087.5137,1322.27,1091.5137,1318.27,1087.5137,1322.27,1083.5137,1313.27,1087.5137" style="stroke:#FF6655;stroke-width:1.0;"/><text fill="#000000" font-family="Impact" font-size="13" lengthAdjust="spacing" textLength="5" x="1321.0665" y="1084.409">1</text></g><!--link AppServiceElevator to Elevator--><g id="link_AppServiceElevator_Elevator"><path codeLine="112" d="M967,859.9337 C1077.59,862.7037 1272.76,873.3837 1329,914.0137 C1371.44,944.6837 1392.72,1003.1437 1402.8,1043.4537 " fill="none" id="AppServiceElevator-to-Elevator" style="stroke:#FF6655;stroke-width:1.0;stroke-dasharray:7.0,7.0;"/><polygon fill="#FF6655" points="1404.09,1048.7637,1405.8415,1039.0718,1402.9042,1043.9063,1398.0697,1040.969,1404.09,1048.7637" style="stroke:#FF6655;stroke-width:1.0;"/></g><!--SRC=[bLNBZjem5Dtp5HPTp0f6inXMKIGUWuJKJgj1whOooINZmR6jQuUAjlnx3NadTc2o8foJU-xZN5iVc50KQKeYcIefG1ZoTqJiivR2RDaV84-pw_k2HeS4PIRYfUGIWs2kQFGEOKY-ikJTB2LIdXCbne1TqfVrUZPxVgv2lz8Ko59co02xdv4Tjs8kLR82KDl3QS4pkE9pHFcxYhT9hPofWVoRKley6bduG1CW-gGDf4MbvP_ZZTWZrGQpo6G8um9kKTvaPa0teSiJSQerkM8l78xKIAnmgzgByWDGCvk1YA0RYWa3kAUHBMQrM24x0ZgaUb13fSJ812-3cVmBEw4ARgFiKd8UKsL_QsVfIzjbb9nty7Qe0LAdkfhPQrcdeBP2glWDaRn5D-Ctt_faCidKjNK3SLoZVGCbDRCivhM9PImoncCc4WyyfDJyd4mpDGtxRcZ6w79gKjEkP6eVVxLToyoLuYoYXab1je175e7RD9Re9BHdQba-KiSrDVFJhhaXadV_S_7xR3AvciOHnfFOa5ywjNkDu-3TattBINdUNecMeshka54TEtMrs51l70tDxUlER9W-wE0NOPYnFN-q5nSyhcHAcN0xE4aG4bgS-kufbafZGZMXlw1CfZzEkCYUI9Lk4A2KnjwFGP13ONYNeSjM58gxSenUnMhGToWE7d0_gRrxoVVT1qJ6lzAjZXpbK4lonTl4bspsh7FTrOG5KX5xi6yo1kx1h44OvQzPklE6Ne6EaAdBQJRoN1BDhZJs82JZfx4hznwddNuFRbVGWvr5z5ZEEceMXxqfioatQNZrx2RrT_IX6hBhE7qu5-js7lq7]--></g></svg>