<?xml version="1.0" encoding="us-ascii" standalone="no"?><svg xmlns="http://www.w3.org/2000/svg" xmlns:xlink="http://www.w3.org/1999/xlink" contentStyleType="text/css" height="1007px" preserveAspectRatio="none" style="width:974px;height:1007px;background:#FFFFFF;" version="1.1" viewBox="0 0 974 1007" width="974px" zoomAndPan="magnify"><defs/><g><rect fill="#FFFFFF" height="986.5713" style="stroke:#181818;stroke-width:1.5;" width="963" x="5" y="15"/><path d="M36,15 L36,26.6211 L26,36.6211 L5,36.6211 " fill="none" style="stroke:#181818;stroke-width:1.5;"/><text fill="#000000" font-family="sans-serif" font-size="14" lengthAdjust="spacing" textLength="21" x="8" y="31.1074">MD</text><rect fill="#ADD8E6" height="929.5664" style="stroke:#181818;stroke-width:0.5;" width="639" x="222" y="46.3838"/><text fill="#000000" font-family="sans-serif" font-size="13" font-weight="bold" lengthAdjust="spacing" textLength="59" x="512" y="60.4121">Back-End</text><rect fill="#DDDDDD" height="929.5664" style="stroke:#181818;stroke-width:0.5;" width="82" x="863" y="46.3838"/><text fill="#000000" font-family="sans-serif" font-size="13" font-weight="bold" lengthAdjust="spacing" textLength="59" x="874.5" y="60.4121">Database</text><rect fill="#FFFFFF" height="732.7422" style="stroke:#181818;stroke-width:1.0;" width="10" x="247" y="165.5869"/><rect fill="#FFFFFF" height="701.4512" style="stroke:#181818;stroke-width:1.0;" width="10" x="415" y="196.8779"/><rect fill="#FFFFFF" height="670.1602" style="stroke:#181818;stroke-width:1.0;" width="10" x="537" y="228.1689"/><rect fill="#FFFFFF" height="93.5332" style="stroke:#181818;stroke-width:1.0;" width="10" x="673" y="681.9229"/><rect fill="#FFFFFF" height="52.2422" style="stroke:#181818;stroke-width:1.0;" width="10" x="830" y="723.2139"/><rect fill="#FFFFFF" height="30" style="stroke:#181818;stroke-width:1.0;" width="10" x="899" y="259.46"/><rect fill="#FFFFFF" height="30" style="stroke:#181818;stroke-width:1.0;" width="10" x="899" y="457.5459"/><rect fill="none" height="586.8691" style="stroke:#000000;stroke-width:1.5;" width="931" x="20" y="304.46"/><rect fill="none" height="381.7832" style="stroke:#000000;stroke-width:1.5;" width="847" x="30" y="502.5459"/><rect fill="none" height="144.1152" style="stroke:#000000;stroke-width:1.5;" width="365.5" x="501.5" y="639.3408"/><line style="stroke:#181818;stroke-width:0.5;stroke-dasharray:5.0,5.0;" x1="55" x2="55" y1="132.2959" y2="908.3291"/><line style="stroke:#181818;stroke-width:0.5;stroke-dasharray:5.0,5.0;" x1="252" x2="252" y1="132.2959" y2="908.3291"/><line style="stroke:#181818;stroke-width:0.5;stroke-dasharray:5.0,5.0;" x1="420" x2="420" y1="132.2959" y2="908.3291"/><line style="stroke:#181818;stroke-width:0.5;stroke-dasharray:5.0,5.0;" x1="541.5" x2="541.5" y1="132.2959" y2="908.3291"/><line style="stroke:#181818;stroke-width:0.5;stroke-dasharray:5.0,5.0;" x1="678" x2="678" y1="132.2959" y2="908.3291"/><line style="stroke:#181818;stroke-width:0.5;stroke-dasharray:5.0,5.0;" x1="835" x2="835" y1="731.0439" y2="908.3291"/><line style="stroke:#181818;stroke-width:0.5;stroke-dasharray:5.0,5.0;" x1="904" x2="904" y1="132.2959" y2="908.3291"/><rect fill="#E2E2F0" height="32.6211" rx="2.5" ry="2.5" style="stroke:#181818;stroke-width:0.5;" width="30" x="40" y="98.6748"/><text fill="#000000" font-family="sans-serif" font-size="14" lengthAdjust="spacing" textLength="16" x="47" y="120.7822">??</text><rect fill="#E2E2F0" height="32.6211" rx="2.5" ry="2.5" style="stroke:#181818;stroke-width:0.5;" width="30" x="40" y="907.3291"/><text fill="#000000" font-family="sans-serif" font-size="14" lengthAdjust="spacing" textLength="16" x="47" y="929.4365">??</text><rect fill="#E2E2F0" height="32.6211" rx="2.5" ry="2.5" style="stroke:#181818;stroke-width:0.5;" width="52" x="226" y="98.6748"/><text fill="#000000" font-family="sans-serif" font-size="14" lengthAdjust="spacing" textLength="38" x="233" y="120.7822">Route</text><rect fill="#E2E2F0" height="32.6211" rx="2.5" ry="2.5" style="stroke:#181818;stroke-width:0.5;" width="52" x="226" y="907.3291"/><text fill="#000000" font-family="sans-serif" font-size="14" lengthAdjust="spacing" textLength="38" x="233" y="929.4365">Route</text><rect fill="#E2E2F0" height="32.6211" rx="2.5" ry="2.5" style="stroke:#181818;stroke-width:0.5;" width="76" x="382" y="98.6748"/><text fill="#000000" font-family="sans-serif" font-size="14" lengthAdjust="spacing" textLength="62" x="389" y="120.7822">Controller</text><rect fill="#E2E2F0" height="32.6211" rx="2.5" ry="2.5" style="stroke:#181818;stroke-width:0.5;" width="76" x="382" y="907.3291"/><text fill="#000000" font-family="sans-serif" font-size="14" lengthAdjust="spacing" textLength="62" x="389" y="929.4365">Controller</text><rect fill="#E2E2F0" height="32.6211" rx="2.5" ry="2.5" style="stroke:#181818;stroke-width:0.5;" width="61" x="511.5" y="98.6748"/><text fill="#000000" font-family="sans-serif" font-size="14" lengthAdjust="spacing" textLength="47" x="518.5" y="120.7822">Service</text><rect fill="#E2E2F0" height="32.6211" rx="2.5" ry="2.5" style="stroke:#181818;stroke-width:0.5;" width="61" x="511.5" y="907.3291"/><text fill="#000000" font-family="sans-serif" font-size="14" lengthAdjust="spacing" textLength="47" x="518.5" y="929.4365">Service</text><rect fill="#E2E2F0" height="32.6211" rx="2.5" ry="2.5" style="stroke:#181818;stroke-width:0.5;" width="62" x="647" y="98.6748"/><text fill="#000000" font-family="sans-serif" font-size="14" lengthAdjust="spacing" textLength="48" x="654" y="120.7822">Mapper</text><rect fill="#E2E2F0" height="32.6211" rx="2.5" ry="2.5" style="stroke:#181818;stroke-width:0.5;" width="62" x="647" y="907.3291"/><text fill="#000000" font-family="sans-serif" font-size="14" lengthAdjust="spacing" textLength="48" x="654" y="929.4365">Mapper</text><rect fill="#E2E2F0" height="51.2422" rx="2.5" ry="2.5" style="stroke:#181818;stroke-width:0.5;" width="44" x="813" y="907.3291"/><text fill="#000000" font-family="sans-serif" font-size="14" lengthAdjust="spacing" textLength="24" x="823" y="929.4365">dto:</text><text fill="#000000" font-family="sans-serif" font-size="14" lengthAdjust="spacing" textLength="30" x="820" y="948.0576">DTO</text><text fill="#000000" font-family="sans-serif" font-size="14" lengthAdjust="spacing" textLength="68" x="867" y="128.7822">Repository</text><path d="M886,77.6748 C886,67.6748 904,67.6748 904,67.6748 C904,67.6748 922,67.6748 922,77.6748 L922,103.6748 C922,113.6748 904,113.6748 904,113.6748 C904,113.6748 886,113.6748 886,103.6748 L886,77.6748 " fill="#E2E2F0" style="stroke:#181818;stroke-width:1.5;"/><path d="M886,77.6748 C886,87.6748 904,87.6748 904,87.6748 C904,87.6748 922,87.6748 922,77.6748 " fill="none" style="stroke:#181818;stroke-width:1.5;"/><text fill="#000000" font-family="sans-serif" font-size="14" lengthAdjust="spacing" textLength="68" x="867" y="922.4365">Repository</text><path d="M886,935.9502 C886,925.9502 904,925.9502 904,925.9502 C904,925.9502 922,925.9502 922,935.9502 L922,961.9502 C922,971.9502 904,971.9502 904,971.9502 C904,971.9502 886,971.9502 886,961.9502 L886,935.9502 " fill="#E2E2F0" style="stroke:#181818;stroke-width:1.5;"/><path d="M886,935.9502 C886,945.9502 904,945.9502 904,945.9502 C904,945.9502 922,945.9502 922,935.9502 " fill="none" style="stroke:#181818;stroke-width:1.5;"/><rect fill="#FFFFFF" height="732.7422" style="stroke:#181818;stroke-width:1.0;" width="10" x="247" y="165.5869"/><rect fill="#FFFFFF" height="701.4512" style="stroke:#181818;stroke-width:1.0;" width="10" x="415" y="196.8779"/><rect fill="#FFFFFF" height="670.1602" style="stroke:#181818;stroke-width:1.0;" width="10" x="537" y="228.1689"/><rect fill="#FFFFFF" height="93.5332" style="stroke:#181818;stroke-width:1.0;" width="10" x="673" y="681.9229"/><rect fill="#FFFFFF" height="52.2422" style="stroke:#181818;stroke-width:1.0;" width="10" x="830" y="723.2139"/><rect fill="#FFFFFF" height="30" style="stroke:#181818;stroke-width:1.0;" width="10" x="899" y="259.46"/><rect fill="#FFFFFF" height="30" style="stroke:#181818;stroke-width:1.0;" width="10" x="899" y="457.5459"/><polygon fill="#181818" points="235,161.5869,245,165.5869,235,169.5869,239,165.5869" style="stroke:#181818;stroke-width:1.0;"/><line style="stroke:#181818;stroke-width:1.0;stroke-dasharray:2.0,2.0;" x1="55" x2="241" y1="165.5869" y2="165.5869"/><text fill="#000000" font-family="sans-serif" font-size="13" font-weight="bold" lengthAdjust="spacing" textLength="7" x="62" y="160.3242">1</text><text fill="#000000" font-family="sans-serif" font-size="13" lengthAdjust="spacing" textLength="162" x="73" y="160.3242">GET /buildings/{id}/elevators</text><polygon fill="#181818" points="403,192.8779,413,196.8779,403,200.8779,407,196.8779" style="stroke:#181818;stroke-width:1.0;"/><line style="stroke:#181818;stroke-width:1.0;" x1="257" x2="409" y1="196.8779" y2="196.8779"/><text fill="#000000" font-family="sans-serif" font-size="13" font-weight="bold" lengthAdjust="spacing" textLength="7" x="264" y="191.6152">2</text><text fill="#000000" font-family="sans-serif" font-size="13" lengthAdjust="spacing" textLength="128" x="275" y="191.6152">getElevator(req,res,...)</text><polygon fill="#181818" points="525,224.1689,535,228.1689,525,232.1689,529,228.1689" style="stroke:#181818;stroke-width:1.0;"/><line style="stroke:#181818;stroke-width:1.0;" x1="425" x2="531" y1="228.1689" y2="228.1689"/><text fill="#000000" font-family="sans-serif" font-size="13" font-weight="bold" lengthAdjust="spacing" textLength="7" x="432" y="222.9063">3</text><text fill="#000000" font-family="sans-serif" font-size="13" lengthAdjust="spacing" textLength="82" x="443" y="222.9063">getElevator(id)</text><polygon fill="#181818" points="887,255.46,897,259.46,887,263.46,891,259.46" style="stroke:#181818;stroke-width:1.0;"/><line style="stroke:#181818;stroke-width:1.0;" x1="547" x2="893" y1="259.46" y2="259.46"/><text fill="#000000" font-family="sans-serif" font-size="13" font-weight="bold" lengthAdjust="spacing" textLength="7" x="554" y="254.1973">4</text><text fill="#000000" font-family="sans-serif" font-size="13" lengthAdjust="spacing" textLength="148" x="565" y="254.1973">findByCode(buildingCode)</text><path d="M20,304.46 L81,304.46 L81,313.751 L71,323.751 L20,323.751 L20,304.46 " fill="#EEEEEE" style="stroke:#000000;stroke-width:1.5;"/><rect fill="none" height="586.8691" style="stroke:#000000;stroke-width:1.5;" width="931" x="20" y="304.46"/><text fill="#000000" font-family="sans-serif" font-size="13" font-weight="bold" lengthAdjust="spacing" textLength="16" x="35" y="319.4883">alt</text><text fill="#000000" font-family="sans-serif" font-size="11" font-weight="bold" lengthAdjust="spacing" textLength="108" x="96" y="318.3301">[building not found]</text><polygon fill="#181818" points="436,343.042,426,347.042,436,351.042,432,347.042" style="stroke:#181818;stroke-width:1.0;"/><line style="stroke:#181818;stroke-width:1.0;stroke-dasharray:2.0,2.0;" x1="430" x2="536" y1="347.042" y2="347.042"/><text fill="#000000" font-family="sans-serif" font-size="13" font-weight="bold" lengthAdjust="spacing" textLength="7" x="442" y="341.7793">5</text><text fill="#000000" font-family="sans-serif" font-size="13" lengthAdjust="spacing" textLength="26" x="453" y="341.7793">error</text><polygon fill="#181818" points="268,374.333,258,378.333,268,382.333,264,378.333" style="stroke:#181818;stroke-width:1.0;"/><line style="stroke:#181818;stroke-width:1.0;stroke-dasharray:2.0,2.0;" x1="262" x2="414" y1="378.333" y2="378.333"/><text fill="#000000" font-family="sans-serif" font-size="13" font-weight="bold" lengthAdjust="spacing" textLength="7" x="274" y="373.0703">6</text><text fill="#000000" font-family="sans-serif" font-size="13" lengthAdjust="spacing" textLength="59" x="285" y="373.0703">error (412)</text><polygon fill="#181818" points="66,405.624,56,409.624,66,413.624,62,409.624" style="stroke:#181818;stroke-width:1.0;"/><line style="stroke:#181818;stroke-width:1.0;stroke-dasharray:2.0,2.0;" x1="60" x2="246" y1="409.624" y2="409.624"/><text fill="#000000" font-family="sans-serif" font-size="13" font-weight="bold" lengthAdjust="spacing" textLength="7" x="72" y="404.3613">7</text><text fill="#000000" font-family="sans-serif" font-size="13" lengthAdjust="spacing" textLength="140" x="83" y="404.3613">412: Precondition Failed</text><line style="stroke:#000000;stroke-width:1.0;stroke-dasharray:2.0,2.0;" x1="20" x2="951" y1="418.624" y2="418.624"/><text fill="#000000" font-family="sans-serif" font-size="11" font-weight="bold" lengthAdjust="spacing" textLength="87" x="25" y="430.4941">[building found]</text><polygon fill="#181818" points="887,453.5459,897,457.5459,887,461.5459,891,457.5459" style="stroke:#181818;stroke-width:1.0;"/><line style="stroke:#181818;stroke-width:1.0;" x1="547" x2="893" y1="457.5459" y2="457.5459"/><text fill="#000000" font-family="sans-serif" font-size="13" font-weight="bold" lengthAdjust="spacing" textLength="7" x="554" y="452.2832">8</text><text fill="#000000" font-family="sans-serif" font-size="13" lengthAdjust="spacing" textLength="108" x="565" y="452.2832">inBuilding(building)</text><path d="M30,502.5459 L91,502.5459 L91,511.8369 L81,521.8369 L30,521.8369 L30,502.5459 " fill="#EEEEEE" style="stroke:#000000;stroke-width:1.5;"/><rect fill="none" height="381.7832" style="stroke:#000000;stroke-width:1.5;" width="847" x="30" y="502.5459"/><text fill="#000000" font-family="sans-serif" font-size="13" font-weight="bold" lengthAdjust="spacing" textLength="16" x="45" y="517.5742">alt</text><text fill="#000000" font-family="sans-serif" font-size="11" font-weight="bold" lengthAdjust="spacing" textLength="116" x="106" y="516.416">[elevators not found]</text><polygon fill="#181818" points="436,541.1279,426,545.1279,436,549.1279,432,545.1279" style="stroke:#181818;stroke-width:1.0;"/><line style="stroke:#181818;stroke-width:1.0;stroke-dasharray:2.0,2.0;" x1="430" x2="536" y1="545.1279" y2="545.1279"/><text fill="#000000" font-family="sans-serif" font-size="13" font-weight="bold" lengthAdjust="spacing" textLength="7" x="442" y="539.8652">9</text><text fill="#000000" font-family="sans-serif" font-size="13" lengthAdjust="spacing" textLength="26" x="453" y="539.8652">error</text><polygon fill="#181818" points="268,572.4189,258,576.4189,268,580.4189,264,576.4189" style="stroke:#181818;stroke-width:1.0;"/><line style="stroke:#181818;stroke-width:1.0;stroke-dasharray:2.0,2.0;" x1="262" x2="414" y1="576.4189" y2="576.4189"/><text fill="#000000" font-family="sans-serif" font-size="13" font-weight="bold" lengthAdjust="spacing" textLength="14" x="274" y="571.1563">10</text><text fill="#000000" font-family="sans-serif" font-size="13" lengthAdjust="spacing" textLength="59" x="292" y="571.1563">error (412)</text><polygon fill="#181818" points="66,603.71,56,607.71,66,611.71,62,607.71" style="stroke:#181818;stroke-width:1.0;"/><line style="stroke:#181818;stroke-width:1.0;stroke-dasharray:2.0,2.0;" x1="60" x2="246" y1="607.71" y2="607.71"/><text fill="#000000" font-family="sans-serif" font-size="13" font-weight="bold" lengthAdjust="spacing" textLength="14" x="72" y="602.4473">11</text><text fill="#000000" font-family="sans-serif" font-size="13" lengthAdjust="spacing" textLength="140" x="90" y="602.4473">412: Precondition Failed</text><line style="stroke:#000000;stroke-width:1.0;stroke-dasharray:2.0,2.0;" x1="30" x2="877" y1="616.71" y2="616.71"/><text fill="#000000" font-family="sans-serif" font-size="11" font-weight="bold" lengthAdjust="spacing" textLength="95" x="35" y="628.5801">[elevators found]</text><path d="M501.5,639.3408 L574.5,639.3408 L574.5,648.6318 L564.5,658.6318 L501.5,658.6318 L501.5,639.3408 " fill="#EEEEEE" style="stroke:#000000;stroke-width:1.5;"/><rect fill="none" height="144.1152" style="stroke:#000000;stroke-width:1.5;" width="365.5" x="501.5" y="639.3408"/><text fill="#000000" font-family="sans-serif" font-size="13" font-weight="bold" lengthAdjust="spacing" textLength="28" x="516.5" y="654.3691">loop</text><text fill="#000000" font-family="sans-serif" font-size="11" font-weight="bold" lengthAdjust="spacing" textLength="101" x="589.5" y="653.2109">[for each elevator]</text><polygon fill="#181818" points="661,677.9229,671,681.9229,661,685.9229,665,681.9229" style="stroke:#181818;stroke-width:1.0;"/><line style="stroke:#181818;stroke-width:1.0;" x1="547" x2="667" y1="681.9229" y2="681.9229"/><text fill="#000000" font-family="sans-serif" font-size="13" font-weight="bold" lengthAdjust="spacing" textLength="14" x="554" y="676.6602">12</text><text fill="#000000" font-family="sans-serif" font-size="13" lengthAdjust="spacing" textLength="89" x="572" y="676.6602">toDTO(elevator)</text><polygon fill="#181818" points="801,709.2139,811,713.2139,801,717.2139,805,713.2139" style="stroke:#181818;stroke-width:1.0;"/><line style="stroke:#181818;stroke-width:1.0;stroke-dasharray:2.0,2.0;" x1="683" x2="807" y1="713.2139" y2="713.2139"/><text fill="#000000" font-family="sans-serif" font-size="13" font-weight="bold" lengthAdjust="spacing" textLength="14" x="690" y="707.9512">13</text><text fill="#000000" font-family="sans-serif" font-size="13" lengthAdjust="spacing" textLength="88" x="708" y="707.9512">create(elevator)</text><rect fill="#E2E2F0" height="51.2422" rx="2.5" ry="2.5" style="stroke:#181818;stroke-width:0.5;" width="44" x="813" y="689.9229"/><text fill="#000000" font-family="sans-serif" font-size="14" lengthAdjust="spacing" textLength="24" x="823" y="712.0303">dto:</text><text fill="#000000" font-family="sans-serif" font-size="14" lengthAdjust="spacing" textLength="30" x="820" y="730.6514">DTO</text><polygon fill="#181818" points="558,771.4561,548,775.4561,558,779.4561,554,775.4561" style="stroke:#181818;stroke-width:1.0;"/><line style="stroke:#181818;stroke-width:1.0;stroke-dasharray:2.0,2.0;" x1="552" x2="677" y1="775.4561" y2="775.4561"/><text fill="#000000" font-family="sans-serif" font-size="13" font-weight="bold" lengthAdjust="spacing" textLength="14" x="564" y="770.1934">14</text><text fill="#000000" font-family="sans-serif" font-size="13" lengthAdjust="spacing" textLength="18" x="582" y="770.1934">dto</text><polygon fill="#181818" points="436,809.7471,426,813.7471,436,817.7471,432,813.7471" style="stroke:#181818;stroke-width:1.0;"/><line style="stroke:#181818;stroke-width:1.0;stroke-dasharray:2.0,2.0;" x1="430" x2="536" y1="813.7471" y2="813.7471"/><text fill="#000000" font-family="sans-serif" font-size="13" font-weight="bold" lengthAdjust="spacing" textLength="14" x="442" y="808.4844">15</text><text fill="#000000" font-family="sans-serif" font-size="13" lengthAdjust="spacing" textLength="18" x="460" y="808.4844">dto</text><polygon fill="#181818" points="268,841.0381,258,845.0381,268,849.0381,264,845.0381" style="stroke:#181818;stroke-width:1.0;"/><line style="stroke:#181818;stroke-width:1.0;stroke-dasharray:2.0,2.0;" x1="262" x2="414" y1="845.0381" y2="845.0381"/><text fill="#000000" font-family="sans-serif" font-size="13" font-weight="bold" lengthAdjust="spacing" textLength="14" x="274" y="839.7754">16</text><text fill="#000000" font-family="sans-serif" font-size="13" lengthAdjust="spacing" textLength="53" x="292" y="839.7754">response</text><polygon fill="#181818" points="66,872.3291,56,876.3291,66,880.3291,62,876.3291" style="stroke:#181818;stroke-width:1.0;"/><line style="stroke:#181818;stroke-width:1.0;stroke-dasharray:2.0,2.0;" x1="60" x2="246" y1="876.3291" y2="876.3291"/><text fill="#000000" font-family="sans-serif" font-size="13" font-weight="bold" lengthAdjust="spacing" textLength="14" x="72" y="871.0664">17</text><text fill="#000000" font-family="sans-serif" font-size="13" lengthAdjust="spacing" textLength="126" x="90" y="871.0664">200: "OK" Successful</text><!--SRC=[bLHDRzim3BthLn3U9Ixgf2jsCeOLI9Fji1KTrXvtKImc5QP8dYm5AuRzzr5sxDZEXrsU8kizyl698VVEQBzTeMKivzR9JEPSEuZkxYBW1NZ9s9PBlRPyY_2mO2lp1w8vptubIoqYUFTDRbxSN7diqdyOxx3COBiNzqOxQvH2Mzvcpgeku0djJcOLjzXbhAVhWUVvdhlbUVTEE9F-r8ldn_AQJWor05BCAjaBxlYA5nWniVz5GZ4tXNJ6lbPgwNXWUGb9yWbi2b-Mpp1RUQc4r9jYzbUAVpDKkEF4B1XGyCn9EY8r3FkmGEJG8QImGRVSuoSMVrzRBAwdqsdSW1j-QGcqein0cSYDNY8fuWwooH6CWru4UcY6EgGqQwd5_FNU29pKROL3V4Gxz1MiwTyAxDuVqvM3kW1eus1jl1P7i4RWmJ6qrjYJmCgGq4iDWyc7zxVnIR2N7vCa00cHmdUBcT52EcaqVEPIuR4ML3GOZUPAxtd1bQCfI3tVKnf3JmkwREWeKsjZcmaSSFPDxhxPuN4kdwIMLX-wkE1r26LCJXWBvCzBGpkFxxqJxGiIw0mjY4bDZY-IcsS8gsQeIaWVBAEzStL5XJABH1rPgLCjR2uO4NN5QZ6CORKcQmZUWbxgFkpAy2viy04EipTKkZDzj2Xpemkyo2Z7huJVtjoa43r-ZU39PnaMnTghCxDtui_I_zOoeRrIMv-RRTt-qxB_]--></g></svg>