<?xml version="1.0" encoding="us-ascii" standalone="no"?><svg xmlns="http://www.w3.org/2000/svg" xmlns:xlink="http://www.w3.org/1999/xlink" contentStyleType="text/css" height="992px" preserveAspectRatio="none" style="width:958px;height:992px;background:#FFFFFF;" version="1.1" viewBox="0 0 958 992" width="958px" zoomAndPan="magnify"><defs/><g><rect fill="#FFFFFF" height="971.9404" style="stroke:#181818;stroke-width:1.5;" width="947" x="5" y="15"/><path d="M36,15 L36,26.6211 L26,36.6211 L5,36.6211 " fill="none" style="stroke:#181818;stroke-width:1.5;"/><text fill="#000000" font-family="sans-serif" font-size="14" lengthAdjust="spacing" textLength="21" x="8" y="31.1074">MD</text><rect fill="#ADD8E6" height="914.9355" style="stroke:#181818;stroke-width:0.5;" width="623" x="222" y="46.3838"/><text fill="#000000" font-family="sans-serif" font-size="13" font-weight="bold" lengthAdjust="spacing" textLength="59" x="504" y="60.4121">Back-End</text><rect fill="#DDDDDD" height="914.9355" style="stroke:#181818;stroke-width:0.5;" width="82" x="847" y="46.3838"/><text fill="#000000" font-family="sans-serif" font-size="13" font-weight="bold" lengthAdjust="spacing" textLength="59" x="858.5" y="60.4121">Database</text><rect fill="#FFFFFF" height="718.1113" style="stroke:#181818;stroke-width:1.0;" width="10" x="247" y="165.5869"/><rect fill="#FFFFFF" height="686.8203" style="stroke:#181818;stroke-width:1.0;" width="10" x="399" y="196.8779"/><rect fill="#FFFFFF" height="655.5293" style="stroke:#181818;stroke-width:1.0;" width="10" x="521" y="228.1689"/><rect fill="#FFFFFF" height="93.5332" style="stroke:#181818;stroke-width:1.0;" width="10" x="657" y="667.292"/><rect fill="#FFFFFF" height="52.2422" style="stroke:#181818;stroke-width:1.0;" width="10" x="814" y="708.583"/><rect fill="#FFFFFF" height="30" style="stroke:#181818;stroke-width:1.0;" width="10" x="883" y="259.46"/><rect fill="#FFFFFF" height="30" style="stroke:#181818;stroke-width:1.0;" width="10" x="883" y="457.5459"/><rect fill="none" height="572.2383" style="stroke:#000000;stroke-width:1.5;" width="915" x="20" y="304.46"/><rect fill="none" height="367.1523" style="stroke:#000000;stroke-width:1.5;" width="831" x="30" y="502.5459"/><rect fill="none" height="144.1152" style="stroke:#000000;stroke-width:1.5;" width="365.5" x="485.5" y="624.71"/><line style="stroke:#181818;stroke-width:0.5;stroke-dasharray:5.0,5.0;" x1="55" x2="55" y1="132.2959" y2="893.6982"/><line style="stroke:#181818;stroke-width:0.5;stroke-dasharray:5.0,5.0;" x1="252" x2="252" y1="132.2959" y2="893.6982"/><line style="stroke:#181818;stroke-width:0.5;stroke-dasharray:5.0,5.0;" x1="404" x2="404" y1="132.2959" y2="893.6982"/><line style="stroke:#181818;stroke-width:0.5;stroke-dasharray:5.0,5.0;" x1="525.5" x2="525.5" y1="132.2959" y2="893.6982"/><line style="stroke:#181818;stroke-width:0.5;stroke-dasharray:5.0,5.0;" x1="662" x2="662" y1="132.2959" y2="893.6982"/><line style="stroke:#181818;stroke-width:0.5;stroke-dasharray:5.0,5.0;" x1="819" x2="819" y1="716.4131" y2="893.6982"/><line style="stroke:#181818;stroke-width:0.5;stroke-dasharray:5.0,5.0;" x1="888" x2="888" y1="132.2959" y2="893.6982"/><rect fill="#E2E2F0" height="32.6211" rx="2.5" ry="2.5" style="stroke:#181818;stroke-width:0.5;" width="30" x="40" y="98.6748"/><text fill="#000000" font-family="sans-serif" font-size="14" lengthAdjust="spacing" textLength="16" x="47" y="120.7822">??</text><rect fill="#E2E2F0" height="32.6211" rx="2.5" ry="2.5" style="stroke:#181818;stroke-width:0.5;" width="30" x="40" y="892.6982"/><text fill="#000000" font-family="sans-serif" font-size="14" lengthAdjust="spacing" textLength="16" x="47" y="914.8057">??</text><rect fill="#E2E2F0" height="32.6211" rx="2.5" ry="2.5" style="stroke:#181818;stroke-width:0.5;" width="52" x="226" y="98.6748"/><text fill="#000000" font-family="sans-serif" font-size="14" lengthAdjust="spacing" textLength="38" x="233" y="120.7822">Route</text><rect fill="#E2E2F0" height="32.6211" rx="2.5" ry="2.5" style="stroke:#181818;stroke-width:0.5;" width="52" x="226" y="892.6982"/><text fill="#000000" font-family="sans-serif" font-size="14" lengthAdjust="spacing" textLength="38" x="233" y="914.8057">Route</text><rect fill="#E2E2F0" height="32.6211" rx="2.5" ry="2.5" style="stroke:#181818;stroke-width:0.5;" width="76" x="366" y="98.6748"/><text fill="#000000" font-family="sans-serif" font-size="14" lengthAdjust="spacing" textLength="62" x="373" y="120.7822">Controller</text><rect fill="#E2E2F0" height="32.6211" rx="2.5" ry="2.5" style="stroke:#181818;stroke-width:0.5;" width="76" x="366" y="892.6982"/><text fill="#000000" font-family="sans-serif" font-size="14" lengthAdjust="spacing" textLength="62" x="373" y="914.8057">Controller</text><rect fill="#E2E2F0" height="32.6211" rx="2.5" ry="2.5" style="stroke:#181818;stroke-width:0.5;" width="61" x="495.5" y="98.6748"/><text fill="#000000" font-family="sans-serif" font-size="14" lengthAdjust="spacing" textLength="47" x="502.5" y="120.7822">Service</text><rect fill="#E2E2F0" height="32.6211" rx="2.5" ry="2.5" style="stroke:#181818;stroke-width:0.5;" width="61" x="495.5" y="892.6982"/><text fill="#000000" font-family="sans-serif" font-size="14" lengthAdjust="spacing" textLength="47" x="502.5" y="914.8057">Service</text><rect fill="#E2E2F0" height="32.6211" rx="2.5" ry="2.5" style="stroke:#181818;stroke-width:0.5;" width="62" x="631" y="98.6748"/><text fill="#000000" font-family="sans-serif" font-size="14" lengthAdjust="spacing" textLength="48" x="638" y="120.7822">Mapper</text><rect fill="#E2E2F0" height="32.6211" rx="2.5" ry="2.5" style="stroke:#181818;stroke-width:0.5;" width="62" x="631" y="892.6982"/><text fill="#000000" font-family="sans-serif" font-size="14" lengthAdjust="spacing" textLength="48" x="638" y="914.8057">Mapper</text><rect fill="#E2E2F0" height="51.2422" rx="2.5" ry="2.5" style="stroke:#181818;stroke-width:0.5;" width="44" x="797" y="892.6982"/><text fill="#000000" font-family="sans-serif" font-size="14" lengthAdjust="spacing" textLength="24" x="807" y="914.8057">dto:</text><text fill="#000000" font-family="sans-serif" font-size="14" lengthAdjust="spacing" textLength="30" x="804" y="933.4268">DTO</text><text fill="#000000" font-family="sans-serif" font-size="14" lengthAdjust="spacing" textLength="68" x="851" y="128.7822">Repository</text><path d="M870,77.6748 C870,67.6748 888,67.6748 888,67.6748 C888,67.6748 906,67.6748 906,77.6748 L906,103.6748 C906,113.6748 888,113.6748 888,113.6748 C888,113.6748 870,113.6748 870,103.6748 L870,77.6748 " fill="#E2E2F0" style="stroke:#181818;stroke-width:1.5;"/><path d="M870,77.6748 C870,87.6748 888,87.6748 888,87.6748 C888,87.6748 906,87.6748 906,77.6748 " fill="none" style="stroke:#181818;stroke-width:1.5;"/><text fill="#000000" font-family="sans-serif" font-size="14" lengthAdjust="spacing" textLength="68" x="851" y="907.8057">Repository</text><path d="M870,921.3193 C870,911.3193 888,911.3193 888,911.3193 C888,911.3193 906,911.3193 906,921.3193 L906,947.3193 C906,957.3193 888,957.3193 888,957.3193 C888,957.3193 870,957.3193 870,947.3193 L870,921.3193 " fill="#E2E2F0" style="stroke:#181818;stroke-width:1.5;"/><path d="M870,921.3193 C870,931.3193 888,931.3193 888,931.3193 C888,931.3193 906,931.3193 906,921.3193 " fill="none" style="stroke:#181818;stroke-width:1.5;"/><rect fill="#FFFFFF" height="718.1113" style="stroke:#181818;stroke-width:1.0;" width="10" x="247" y="165.5869"/><rect fill="#FFFFFF" height="686.8203" style="stroke:#181818;stroke-width:1.0;" width="10" x="399" y="196.8779"/><rect fill="#FFFFFF" height="655.5293" style="stroke:#181818;stroke-width:1.0;" width="10" x="521" y="228.1689"/><rect fill="#FFFFFF" height="93.5332" style="stroke:#181818;stroke-width:1.0;" width="10" x="657" y="667.292"/><rect fill="#FFFFFF" height="52.2422" style="stroke:#181818;stroke-width:1.0;" width="10" x="814" y="708.583"/><rect fill="#FFFFFF" height="30" style="stroke:#181818;stroke-width:1.0;" width="10" x="883" y="259.46"/><rect fill="#FFFFFF" height="30" style="stroke:#181818;stroke-width:1.0;" width="10" x="883" y="457.5459"/><polygon fill="#181818" points="235,161.5869,245,165.5869,235,169.5869,239,165.5869" style="stroke:#181818;stroke-width:1.0;"/><line style="stroke:#181818;stroke-width:1.0;stroke-dasharray:2.0,2.0;" x1="55" x2="241" y1="165.5869" y2="165.5869"/><text fill="#000000" font-family="sans-serif" font-size="13" font-weight="bold" lengthAdjust="spacing" textLength="7" x="62" y="160.3242">1</text><text fill="#000000" font-family="sans-serif" font-size="13" lengthAdjust="spacing" textLength="162" x="73" y="160.3242">GET /buildings/{id}/elevators</text><polygon fill="#181818" points="387,192.8779,397,196.8779,387,200.8779,391,196.8779" style="stroke:#181818;stroke-width:1.0;"/><line style="stroke:#181818;stroke-width:1.0;" x1="257" x2="393" y1="196.8779" y2="196.8779"/><text fill="#000000" font-family="sans-serif" font-size="13" font-weight="bold" lengthAdjust="spacing" textLength="7" x="264" y="191.6152">2</text><text fill="#000000" font-family="sans-serif" font-size="13" lengthAdjust="spacing" textLength="112" x="275" y="191.6152">getElevator(req,res)</text><polygon fill="#181818" points="509,224.1689,519,228.1689,509,232.1689,513,228.1689" style="stroke:#181818;stroke-width:1.0;"/><line style="stroke:#181818;stroke-width:1.0;" x1="409" x2="515" y1="228.1689" y2="228.1689"/><text fill="#000000" font-family="sans-serif" font-size="13" font-weight="bold" lengthAdjust="spacing" textLength="7" x="416" y="222.9063">3</text><text fill="#000000" font-family="sans-serif" font-size="13" lengthAdjust="spacing" textLength="82" x="427" y="222.9063">getElevator(id)</text><polygon fill="#181818" points="871,255.46,881,259.46,871,263.46,875,259.46" style="stroke:#181818;stroke-width:1.0;"/><line style="stroke:#181818;stroke-width:1.0;" x1="531" x2="877" y1="259.46" y2="259.46"/><text fill="#000000" font-family="sans-serif" font-size="13" font-weight="bold" lengthAdjust="spacing" textLength="7" x="538" y="254.1973">4</text><text fill="#000000" font-family="sans-serif" font-size="13" lengthAdjust="spacing" textLength="148" x="549" y="254.1973">findByCode(buildingCode)</text><path d="M20,304.46 L81,304.46 L81,313.751 L71,323.751 L20,323.751 L20,304.46 " fill="#EEEEEE" style="stroke:#000000;stroke-width:1.5;"/><rect fill="none" height="572.2383" style="stroke:#000000;stroke-width:1.5;" width="915" x="20" y="304.46"/><text fill="#000000" font-family="sans-serif" font-size="13" font-weight="bold" lengthAdjust="spacing" textLength="16" x="35" y="319.4883">alt</text><text fill="#000000" font-family="sans-serif" font-size="11" font-weight="bold" lengthAdjust="spacing" textLength="108" x="96" y="318.3301">[building not found]</text><polygon fill="#181818" points="420,343.042,410,347.042,420,351.042,416,347.042" style="stroke:#181818;stroke-width:1.0;"/><line style="stroke:#181818;stroke-width:1.0;stroke-dasharray:2.0,2.0;" x1="414" x2="520" y1="347.042" y2="347.042"/><text fill="#000000" font-family="sans-serif" font-size="13" font-weight="bold" lengthAdjust="spacing" textLength="7" x="426" y="341.7793">5</text><text fill="#000000" font-family="sans-serif" font-size="13" lengthAdjust="spacing" textLength="26" x="437" y="341.7793">error</text><polygon fill="#181818" points="268,374.333,258,378.333,268,382.333,264,378.333" style="stroke:#181818;stroke-width:1.0;"/><line style="stroke:#181818;stroke-width:1.0;stroke-dasharray:2.0,2.0;" x1="262" x2="398" y1="378.333" y2="378.333"/><text fill="#000000" font-family="sans-serif" font-size="13" font-weight="bold" lengthAdjust="spacing" textLength="7" x="274" y="373.0703">6</text><text fill="#000000" font-family="sans-serif" font-size="13" lengthAdjust="spacing" textLength="59" x="285" y="373.0703">error (412)</text><polygon fill="#181818" points="66,405.624,56,409.624,66,413.624,62,409.624" style="stroke:#181818;stroke-width:1.0;"/><line style="stroke:#181818;stroke-width:1.0;stroke-dasharray:2.0,2.0;" x1="60" x2="246" y1="409.624" y2="409.624"/><text fill="#000000" font-family="sans-serif" font-size="13" font-weight="bold" lengthAdjust="spacing" textLength="7" x="72" y="404.3613">7</text><text fill="#000000" font-family="sans-serif" font-size="13" lengthAdjust="spacing" textLength="140" x="83" y="404.3613">412: Precondition Failed</text><line style="stroke:#000000;stroke-width:1.0;stroke-dasharray:2.0,2.0;" x1="20" x2="935" y1="418.624" y2="418.624"/><text fill="#000000" font-family="sans-serif" font-size="11" font-weight="bold" lengthAdjust="spacing" textLength="87" x="25" y="430.4941">[building found]</text><polygon fill="#181818" points="871,453.5459,881,457.5459,871,461.5459,875,457.5459" style="stroke:#181818;stroke-width:1.0;"/><line style="stroke:#181818;stroke-width:1.0;" x1="531" x2="877" y1="457.5459" y2="457.5459"/><text fill="#000000" font-family="sans-serif" font-size="13" font-weight="bold" lengthAdjust="spacing" textLength="7" x="538" y="452.2832">8</text><text fill="#000000" font-family="sans-serif" font-size="13" lengthAdjust="spacing" textLength="108" x="549" y="452.2832">inBuilding(building)</text><path d="M30,502.5459 L91,502.5459 L91,511.8369 L81,521.8369 L30,521.8369 L30,502.5459 " fill="#EEEEEE" style="stroke:#000000;stroke-width:1.5;"/><rect fill="none" height="367.1523" style="stroke:#000000;stroke-width:1.5;" width="831" x="30" y="502.5459"/><text fill="#000000" font-family="sans-serif" font-size="13" font-weight="bold" lengthAdjust="spacing" textLength="16" x="45" y="517.5742">alt</text><text fill="#000000" font-family="sans-serif" font-size="11" font-weight="bold" lengthAdjust="spacing" textLength="116" x="106" y="516.416">[elevators not found]</text><polygon fill="#181818" points="420,541.1279,410,545.1279,420,549.1279,416,545.1279" style="stroke:#181818;stroke-width:1.0;"/><line style="stroke:#181818;stroke-width:1.0;stroke-dasharray:2.0,2.0;" x1="414" x2="520" y1="545.1279" y2="545.1279"/><text fill="#000000" font-family="sans-serif" font-size="13" font-weight="bold" lengthAdjust="spacing" textLength="7" x="426" y="539.8652">9</text><text fill="#000000" font-family="sans-serif" font-size="13" lengthAdjust="spacing" textLength="26" x="437" y="539.8652">error</text><polygon fill="#181818" points="268,572.4189,258,576.4189,268,580.4189,264,576.4189" style="stroke:#181818;stroke-width:1.0;"/><line style="stroke:#181818;stroke-width:1.0;stroke-dasharray:2.0,2.0;" x1="262" x2="398" y1="576.4189" y2="576.4189"/><text fill="#000000" font-family="sans-serif" font-size="13" font-weight="bold" lengthAdjust="spacing" textLength="14" x="274" y="571.1563">10</text><text fill="#000000" font-family="sans-serif" font-size="13" lengthAdjust="spacing" textLength="59" x="292" y="571.1563">error (412)</text><polygon fill="#181818" points="66,603.71,56,607.71,66,611.71,62,607.71" style="stroke:#181818;stroke-width:1.0;"/><line style="stroke:#181818;stroke-width:1.0;stroke-dasharray:2.0,2.0;" x1="60" x2="246" y1="607.71" y2="607.71"/><text fill="#000000" font-family="sans-serif" font-size="13" font-weight="bold" lengthAdjust="spacing" textLength="14" x="72" y="602.4473">11</text><text fill="#000000" font-family="sans-serif" font-size="13" lengthAdjust="spacing" textLength="140" x="90" y="602.4473">412: Precondition Failed</text><line style="stroke:#000000;stroke-width:1.0;stroke-dasharray:2.0,2.0;" x1="30" x2="861" y1="616.71" y2="616.71"/><path d="M485.5,624.71 L558.5,624.71 L558.5,634.001 L548.5,644.001 L485.5,644.001 L485.5,624.71 " fill="#EEEEEE" style="stroke:#000000;stroke-width:1.5;"/><rect fill="none" height="144.1152" style="stroke:#000000;stroke-width:1.5;" width="365.5" x="485.5" y="624.71"/><text fill="#000000" font-family="sans-serif" font-size="13" font-weight="bold" lengthAdjust="spacing" textLength="28" x="500.5" y="639.7383">loop</text><text fill="#000000" font-family="sans-serif" font-size="11" font-weight="bold" lengthAdjust="spacing" textLength="101" x="573.5" y="638.5801">[for each elevator]</text><polygon fill="#181818" points="645,663.292,655,667.292,645,671.292,649,667.292" style="stroke:#181818;stroke-width:1.0;"/><line style="stroke:#181818;stroke-width:1.0;" x1="531" x2="651" y1="667.292" y2="667.292"/><text fill="#000000" font-family="sans-serif" font-size="13" font-weight="bold" lengthAdjust="spacing" textLength="14" x="538" y="662.0293">12</text><text fill="#000000" font-family="sans-serif" font-size="13" lengthAdjust="spacing" textLength="89" x="556" y="662.0293">toDTO(elevator)</text><polygon fill="#181818" points="785,694.583,795,698.583,785,702.583,789,698.583" style="stroke:#181818;stroke-width:1.0;"/><line style="stroke:#181818;stroke-width:1.0;stroke-dasharray:2.0,2.0;" x1="667" x2="791" y1="698.583" y2="698.583"/><text fill="#000000" font-family="sans-serif" font-size="13" font-weight="bold" lengthAdjust="spacing" textLength="14" x="674" y="693.3203">13</text><text fill="#000000" font-family="sans-serif" font-size="13" lengthAdjust="spacing" textLength="88" x="692" y="693.3203">create(elevator)</text><rect fill="#E2E2F0" height="51.2422" rx="2.5" ry="2.5" style="stroke:#181818;stroke-width:0.5;" width="44" x="797" y="675.292"/><text fill="#000000" font-family="sans-serif" font-size="14" lengthAdjust="spacing" textLength="24" x="807" y="697.3994">dto:</text><text fill="#000000" font-family="sans-serif" font-size="14" lengthAdjust="spacing" textLength="30" x="804" y="716.0205">DTO</text><polygon fill="#181818" points="542,756.8252,532,760.8252,542,764.8252,538,760.8252" style="stroke:#181818;stroke-width:1.0;"/><line style="stroke:#181818;stroke-width:1.0;stroke-dasharray:2.0,2.0;" x1="536" x2="661" y1="760.8252" y2="760.8252"/><text fill="#000000" font-family="sans-serif" font-size="13" font-weight="bold" lengthAdjust="spacing" textLength="14" x="548" y="755.5625">14</text><text fill="#000000" font-family="sans-serif" font-size="13" lengthAdjust="spacing" textLength="18" x="566" y="755.5625">dto</text><polygon fill="#181818" points="420,795.1162,410,799.1162,420,803.1162,416,799.1162" style="stroke:#181818;stroke-width:1.0;"/><line style="stroke:#181818;stroke-width:1.0;stroke-dasharray:2.0,2.0;" x1="414" x2="520" y1="799.1162" y2="799.1162"/><text fill="#000000" font-family="sans-serif" font-size="13" font-weight="bold" lengthAdjust="spacing" textLength="14" x="426" y="793.8535">15</text><text fill="#000000" font-family="sans-serif" font-size="13" lengthAdjust="spacing" textLength="18" x="444" y="793.8535">dto</text><polygon fill="#181818" points="268,826.4072,258,830.4072,268,834.4072,264,830.4072" style="stroke:#181818;stroke-width:1.0;"/><line style="stroke:#181818;stroke-width:1.0;stroke-dasharray:2.0,2.0;" x1="262" x2="398" y1="830.4072" y2="830.4072"/><text fill="#000000" font-family="sans-serif" font-size="13" font-weight="bold" lengthAdjust="spacing" textLength="14" x="274" y="825.1445">16</text><text fill="#000000" font-family="sans-serif" font-size="13" lengthAdjust="spacing" textLength="53" x="292" y="825.1445">response</text><polygon fill="#181818" points="66,857.6982,56,861.6982,66,865.6982,62,861.6982" style="stroke:#181818;stroke-width:1.0;"/><line style="stroke:#181818;stroke-width:1.0;stroke-dasharray:2.0,2.0;" x1="60" x2="246" y1="861.6982" y2="861.6982"/><text fill="#000000" font-family="sans-serif" font-size="13" font-weight="bold" lengthAdjust="spacing" textLength="14" x="72" y="856.4355">17</text><text fill="#000000" font-family="sans-serif" font-size="13" lengthAdjust="spacing" textLength="126" x="90" y="856.4355">200: "OK" Successful</text><!--SRC=[bLHDRzim3BthLn3U9Ivcf2jsCeOLI9Fji1KTrXvxKImc5QP8dYm5AuRzzr7-YkrysDN9CjyZ7vzfSk-CzhirMiPoRftCPCwrW-ZsDW9UW9UCxRZK6yjt2FTBjZP_85hmx5UoqYA2Tz_bziKjbCS-_QVn3iiCjX-uCzfPenJQCfevg_g0HxHxcLNSOf-nWQvxdkSrTyVpVamuapxhvTD36QORGos05BDAzf8xlkO5HapKJoGKSrD8P-nhfPQk1vQNa2IVmQRmTVK4yxMNIaYzBUP_fVWtHuLxJio20HsUEKbNf8QXFXQ873g45BReLZL-Pl7tUuj5t09RRca7T4x9fYpan229574FsUO8fi7W17feXBgZD1kfnUBrpWYSDIs5Itn4E_GKR1b61VRZntJbe2a0sZZO6A_54QmLU70BhJNs9B0o9FJIm63sySDDV1BivQSa2K12fF33OcQqa4uQ3L-uL7Yi1HKDHQkvqdjUSELe2b8lQafhw6b1bmsTP6fZR3jz8yw-oTqtEppDvPFKO3KxcrGParDN5iYFbxRPy_Z1Tw7TG8ASeMKmQyZnHN9hUrWhOrL2-c0HxPYhAogKMIJgn4gzQc5BmOJJLAmMmHHMPvB6u1tefUx3NWpVXOr-WCEiZPNkJHijnTne6ejBZ7BSIlZDzNKAqSEt21vzbc5HRBmwCsidVexXkuu9tHNQUTrkv-vFolu3]--></g></svg>