<?xml version="1.0" encoding="us-ascii" standalone="no"?><svg xmlns="http://www.w3.org/2000/svg" xmlns:xlink="http://www.w3.org/1999/xlink" contentStyleType="text/css" height="992px" preserveAspectRatio="none" style="width:951px;height:992px;background:#FFFFFF;" version="1.1" viewBox="0 0 951 992" width="951px" zoomAndPan="magnify"><defs/><g><rect fill="#FFFFFF" height="971.9404" style="stroke:#181818;stroke-width:1.5;" width="940" x="5" y="15"/><path d="M36,15 L36,26.6211 L26,36.6211 L5,36.6211 " fill="none" style="stroke:#181818;stroke-width:1.5;"/><text fill="#000000" font-family="sans-serif" font-size="14" lengthAdjust="spacing" textLength="21" x="8" y="31.1074">MD</text><rect fill="#ADD8E6" height="914.9355" style="stroke:#181818;stroke-width:0.5;" width="623" x="215" y="46.3838"/><text fill="#000000" font-family="sans-serif" font-size="13" font-weight="bold" lengthAdjust="spacing" textLength="59" x="497" y="60.4121">Back-End</text><rect fill="#DDDDDD" height="914.9355" style="stroke:#181818;stroke-width:0.5;" width="82" x="840" y="46.3838"/><text fill="#000000" font-family="sans-serif" font-size="13" font-weight="bold" lengthAdjust="spacing" textLength="59" x="851.5" y="60.4121">Database</text><rect fill="#FFFFFF" height="718.1113" style="stroke:#181818;stroke-width:1.0;" width="10" x="240" y="165.5869"/><rect fill="#FFFFFF" height="686.8203" style="stroke:#181818;stroke-width:1.0;" width="10" x="392" y="196.8779"/><rect fill="#FFFFFF" height="655.5293" style="stroke:#181818;stroke-width:1.0;" width="10" x="514" y="228.1689"/><rect fill="#FFFFFF" height="93.5332" style="stroke:#181818;stroke-width:1.0;" width="10" x="650" y="667.292"/><rect fill="#FFFFFF" height="52.2422" style="stroke:#181818;stroke-width:1.0;" width="10" x="807" y="708.583"/><rect fill="#FFFFFF" height="30" style="stroke:#181818;stroke-width:1.0;" width="10" x="876" y="259.46"/><rect fill="#FFFFFF" height="30" style="stroke:#181818;stroke-width:1.0;" width="10" x="876" y="457.5459"/><rect fill="none" height="572.2383" style="stroke:#000000;stroke-width:1.5;" width="908" x="20" y="304.46"/><rect fill="none" height="367.1523" style="stroke:#000000;stroke-width:1.5;" width="824" x="30" y="502.5459"/><rect fill="none" height="144.1152" style="stroke:#000000;stroke-width:1.5;" width="365.5" x="478.5" y="624.71"/><line style="stroke:#181818;stroke-width:0.5;stroke-dasharray:5.0,5.0;" x1="55" x2="55" y1="132.2959" y2="893.6982"/><line style="stroke:#181818;stroke-width:0.5;stroke-dasharray:5.0,5.0;" x1="245" x2="245" y1="132.2959" y2="893.6982"/><line style="stroke:#181818;stroke-width:0.5;stroke-dasharray:5.0,5.0;" x1="397" x2="397" y1="132.2959" y2="893.6982"/><line style="stroke:#181818;stroke-width:0.5;stroke-dasharray:5.0,5.0;" x1="518.5" x2="518.5" y1="132.2959" y2="893.6982"/><line style="stroke:#181818;stroke-width:0.5;stroke-dasharray:5.0,5.0;" x1="655" x2="655" y1="132.2959" y2="893.6982"/><line style="stroke:#181818;stroke-width:0.5;stroke-dasharray:5.0,5.0;" x1="812" x2="812" y1="716.4131" y2="893.6982"/><line style="stroke:#181818;stroke-width:0.5;stroke-dasharray:5.0,5.0;" x1="881" x2="881" y1="132.2959" y2="893.6982"/><rect fill="#E2E2F0" height="32.6211" rx="2.5" ry="2.5" style="stroke:#181818;stroke-width:0.5;" width="30" x="40" y="98.6748"/><text fill="#000000" font-family="sans-serif" font-size="14" lengthAdjust="spacing" textLength="16" x="47" y="120.7822">??</text><rect fill="#E2E2F0" height="32.6211" rx="2.5" ry="2.5" style="stroke:#181818;stroke-width:0.5;" width="30" x="40" y="892.6982"/><text fill="#000000" font-family="sans-serif" font-size="14" lengthAdjust="spacing" textLength="16" x="47" y="914.8057">??</text><rect fill="#E2E2F0" height="32.6211" rx="2.5" ry="2.5" style="stroke:#181818;stroke-width:0.5;" width="52" x="219" y="98.6748"/><text fill="#000000" font-family="sans-serif" font-size="14" lengthAdjust="spacing" textLength="38" x="226" y="120.7822">Route</text><rect fill="#E2E2F0" height="32.6211" rx="2.5" ry="2.5" style="stroke:#181818;stroke-width:0.5;" width="52" x="219" y="892.6982"/><text fill="#000000" font-family="sans-serif" font-size="14" lengthAdjust="spacing" textLength="38" x="226" y="914.8057">Route</text><rect fill="#E2E2F0" height="32.6211" rx="2.5" ry="2.5" style="stroke:#181818;stroke-width:0.5;" width="76" x="359" y="98.6748"/><text fill="#000000" font-family="sans-serif" font-size="14" lengthAdjust="spacing" textLength="62" x="366" y="120.7822">Controller</text><rect fill="#E2E2F0" height="32.6211" rx="2.5" ry="2.5" style="stroke:#181818;stroke-width:0.5;" width="76" x="359" y="892.6982"/><text fill="#000000" font-family="sans-serif" font-size="14" lengthAdjust="spacing" textLength="62" x="366" y="914.8057">Controller</text><rect fill="#E2E2F0" height="32.6211" rx="2.5" ry="2.5" style="stroke:#181818;stroke-width:0.5;" width="61" x="488.5" y="98.6748"/><text fill="#000000" font-family="sans-serif" font-size="14" lengthAdjust="spacing" textLength="47" x="495.5" y="120.7822">Service</text><rect fill="#E2E2F0" height="32.6211" rx="2.5" ry="2.5" style="stroke:#181818;stroke-width:0.5;" width="61" x="488.5" y="892.6982"/><text fill="#000000" font-family="sans-serif" font-size="14" lengthAdjust="spacing" textLength="47" x="495.5" y="914.8057">Service</text><rect fill="#E2E2F0" height="32.6211" rx="2.5" ry="2.5" style="stroke:#181818;stroke-width:0.5;" width="62" x="624" y="98.6748"/><text fill="#000000" font-family="sans-serif" font-size="14" lengthAdjust="spacing" textLength="48" x="631" y="120.7822">Mapper</text><rect fill="#E2E2F0" height="32.6211" rx="2.5" ry="2.5" style="stroke:#181818;stroke-width:0.5;" width="62" x="624" y="892.6982"/><text fill="#000000" font-family="sans-serif" font-size="14" lengthAdjust="spacing" textLength="48" x="631" y="914.8057">Mapper</text><rect fill="#E2E2F0" height="51.2422" rx="2.5" ry="2.5" style="stroke:#181818;stroke-width:0.5;" width="44" x="790" y="892.6982"/><text fill="#000000" font-family="sans-serif" font-size="14" lengthAdjust="spacing" textLength="24" x="800" y="914.8057">dto:</text><text fill="#000000" font-family="sans-serif" font-size="14" lengthAdjust="spacing" textLength="30" x="797" y="933.4268">DTO</text><text fill="#000000" font-family="sans-serif" font-size="14" lengthAdjust="spacing" textLength="68" x="844" y="128.7822">Repository</text><path d="M863,77.6748 C863,67.6748 881,67.6748 881,67.6748 C881,67.6748 899,67.6748 899,77.6748 L899,103.6748 C899,113.6748 881,113.6748 881,113.6748 C881,113.6748 863,113.6748 863,103.6748 L863,77.6748 " fill="#E2E2F0" style="stroke:#181818;stroke-width:1.5;"/><path d="M863,77.6748 C863,87.6748 881,87.6748 881,87.6748 C881,87.6748 899,87.6748 899,77.6748 " fill="none" style="stroke:#181818;stroke-width:1.5;"/><text fill="#000000" font-family="sans-serif" font-size="14" lengthAdjust="spacing" textLength="68" x="844" y="907.8057">Repository</text><path d="M863,921.3193 C863,911.3193 881,911.3193 881,911.3193 C881,911.3193 899,911.3193 899,921.3193 L899,947.3193 C899,957.3193 881,957.3193 881,957.3193 C881,957.3193 863,957.3193 863,947.3193 L863,921.3193 " fill="#E2E2F0" style="stroke:#181818;stroke-width:1.5;"/><path d="M863,921.3193 C863,931.3193 881,931.3193 881,931.3193 C881,931.3193 899,931.3193 899,921.3193 " fill="none" style="stroke:#181818;stroke-width:1.5;"/><rect fill="#FFFFFF" height="718.1113" style="stroke:#181818;stroke-width:1.0;" width="10" x="240" y="165.5869"/><rect fill="#FFFFFF" height="686.8203" style="stroke:#181818;stroke-width:1.0;" width="10" x="392" y="196.8779"/><rect fill="#FFFFFF" height="655.5293" style="stroke:#181818;stroke-width:1.0;" width="10" x="514" y="228.1689"/><rect fill="#FFFFFF" height="93.5332" style="stroke:#181818;stroke-width:1.0;" width="10" x="650" y="667.292"/><rect fill="#FFFFFF" height="52.2422" style="stroke:#181818;stroke-width:1.0;" width="10" x="807" y="708.583"/><rect fill="#FFFFFF" height="30" style="stroke:#181818;stroke-width:1.0;" width="10" x="876" y="259.46"/><rect fill="#FFFFFF" height="30" style="stroke:#181818;stroke-width:1.0;" width="10" x="876" y="457.5459"/><polygon fill="#181818" points="228,161.5869,238,165.5869,228,169.5869,232,165.5869" style="stroke:#181818;stroke-width:1.0;"/><line style="stroke:#181818;stroke-width:1.0;stroke-dasharray:2.0,2.0;" x1="55" x2="234" y1="165.5869" y2="165.5869"/><text fill="#000000" font-family="sans-serif" font-size="13" font-weight="bold" lengthAdjust="spacing" textLength="7" x="62" y="160.3242">1</text><text fill="#000000" font-family="sans-serif" font-size="13" lengthAdjust="spacing" textLength="155" x="73" y="160.3242">GET /building/{id}/elevators</text><polygon fill="#181818" points="380,192.8779,390,196.8779,380,200.8779,384,196.8779" style="stroke:#181818;stroke-width:1.0;"/><line style="stroke:#181818;stroke-width:1.0;" x1="250" x2="386" y1="196.8779" y2="196.8779"/><text fill="#000000" font-family="sans-serif" font-size="13" font-weight="bold" lengthAdjust="spacing" textLength="7" x="257" y="191.6152">2</text><text fill="#000000" font-family="sans-serif" font-size="13" lengthAdjust="spacing" textLength="112" x="268" y="191.6152">getElevator(req,res)</text><polygon fill="#181818" points="502,224.1689,512,228.1689,502,232.1689,506,228.1689" style="stroke:#181818;stroke-width:1.0;"/><line style="stroke:#181818;stroke-width:1.0;" x1="402" x2="508" y1="228.1689" y2="228.1689"/><text fill="#000000" font-family="sans-serif" font-size="13" font-weight="bold" lengthAdjust="spacing" textLength="7" x="409" y="222.9063">3</text><text fill="#000000" font-family="sans-serif" font-size="13" lengthAdjust="spacing" textLength="82" x="420" y="222.9063">getElevator(id)</text><polygon fill="#181818" points="864,255.46,874,259.46,864,263.46,868,259.46" style="stroke:#181818;stroke-width:1.0;"/><line style="stroke:#181818;stroke-width:1.0;" x1="524" x2="870" y1="259.46" y2="259.46"/><text fill="#000000" font-family="sans-serif" font-size="13" font-weight="bold" lengthAdjust="spacing" textLength="7" x="531" y="254.1973">4</text><text fill="#000000" font-family="sans-serif" font-size="13" lengthAdjust="spacing" textLength="148" x="542" y="254.1973">findByCode(buildingCode)</text><path d="M20,304.46 L81,304.46 L81,313.751 L71,323.751 L20,323.751 L20,304.46 " fill="#EEEEEE" style="stroke:#000000;stroke-width:1.5;"/><rect fill="none" height="572.2383" style="stroke:#000000;stroke-width:1.5;" width="908" x="20" y="304.46"/><text fill="#000000" font-family="sans-serif" font-size="13" font-weight="bold" lengthAdjust="spacing" textLength="16" x="35" y="319.4883">alt</text><text fill="#000000" font-family="sans-serif" font-size="11" font-weight="bold" lengthAdjust="spacing" textLength="108" x="96" y="318.3301">[building not found]</text><polygon fill="#181818" points="413,343.042,403,347.042,413,351.042,409,347.042" style="stroke:#181818;stroke-width:1.0;"/><line style="stroke:#181818;stroke-width:1.0;stroke-dasharray:2.0,2.0;" x1="407" x2="513" y1="347.042" y2="347.042"/><text fill="#000000" font-family="sans-serif" font-size="13" font-weight="bold" lengthAdjust="spacing" textLength="7" x="419" y="341.7793">5</text><text fill="#000000" font-family="sans-serif" font-size="13" lengthAdjust="spacing" textLength="26" x="430" y="341.7793">error</text><polygon fill="#181818" points="261,374.333,251,378.333,261,382.333,257,378.333" style="stroke:#181818;stroke-width:1.0;"/><line style="stroke:#181818;stroke-width:1.0;stroke-dasharray:2.0,2.0;" x1="255" x2="391" y1="378.333" y2="378.333"/><text fill="#000000" font-family="sans-serif" font-size="13" font-weight="bold" lengthAdjust="spacing" textLength="7" x="267" y="373.0703">6</text><text fill="#000000" font-family="sans-serif" font-size="13" lengthAdjust="spacing" textLength="59" x="278" y="373.0703">error (412)</text><polygon fill="#181818" points="66,405.624,56,409.624,66,413.624,62,409.624" style="stroke:#181818;stroke-width:1.0;"/><line style="stroke:#181818;stroke-width:1.0;stroke-dasharray:2.0,2.0;" x1="60" x2="239" y1="409.624" y2="409.624"/><text fill="#000000" font-family="sans-serif" font-size="13" font-weight="bold" lengthAdjust="spacing" textLength="7" x="72" y="404.3613">7</text><text fill="#000000" font-family="sans-serif" font-size="13" lengthAdjust="spacing" textLength="140" x="83" y="404.3613">412: Precondition Failed</text><line style="stroke:#000000;stroke-width:1.0;stroke-dasharray:2.0,2.0;" x1="20" x2="928" y1="418.624" y2="418.624"/><text fill="#000000" font-family="sans-serif" font-size="11" font-weight="bold" lengthAdjust="spacing" textLength="87" x="25" y="430.4941">[building found]</text><polygon fill="#181818" points="864,453.5459,874,457.5459,864,461.5459,868,457.5459" style="stroke:#181818;stroke-width:1.0;"/><line style="stroke:#181818;stroke-width:1.0;" x1="524" x2="870" y1="457.5459" y2="457.5459"/><text fill="#000000" font-family="sans-serif" font-size="13" font-weight="bold" lengthAdjust="spacing" textLength="7" x="531" y="452.2832">8</text><text fill="#000000" font-family="sans-serif" font-size="13" lengthAdjust="spacing" textLength="108" x="542" y="452.2832">inBuilding(building)</text><path d="M30,502.5459 L91,502.5459 L91,511.8369 L81,521.8369 L30,521.8369 L30,502.5459 " fill="#EEEEEE" style="stroke:#000000;stroke-width:1.5;"/><rect fill="none" height="367.1523" style="stroke:#000000;stroke-width:1.5;" width="824" x="30" y="502.5459"/><text fill="#000000" font-family="sans-serif" font-size="13" font-weight="bold" lengthAdjust="spacing" textLength="16" x="45" y="517.5742">alt</text><text fill="#000000" font-family="sans-serif" font-size="11" font-weight="bold" lengthAdjust="spacing" textLength="116" x="106" y="516.416">[elevators not found]</text><polygon fill="#181818" points="413,541.1279,403,545.1279,413,549.1279,409,545.1279" style="stroke:#181818;stroke-width:1.0;"/><line style="stroke:#181818;stroke-width:1.0;stroke-dasharray:2.0,2.0;" x1="407" x2="513" y1="545.1279" y2="545.1279"/><text fill="#000000" font-family="sans-serif" font-size="13" font-weight="bold" lengthAdjust="spacing" textLength="7" x="419" y="539.8652">9</text><text fill="#000000" font-family="sans-serif" font-size="13" lengthAdjust="spacing" textLength="26" x="430" y="539.8652">error</text><polygon fill="#181818" points="261,572.4189,251,576.4189,261,580.4189,257,576.4189" style="stroke:#181818;stroke-width:1.0;"/><line style="stroke:#181818;stroke-width:1.0;stroke-dasharray:2.0,2.0;" x1="255" x2="391" y1="576.4189" y2="576.4189"/><text fill="#000000" font-family="sans-serif" font-size="13" font-weight="bold" lengthAdjust="spacing" textLength="14" x="267" y="571.1563">10</text><text fill="#000000" font-family="sans-serif" font-size="13" lengthAdjust="spacing" textLength="59" x="285" y="571.1563">error (412)</text><polygon fill="#181818" points="66,603.71,56,607.71,66,611.71,62,607.71" style="stroke:#181818;stroke-width:1.0;"/><line style="stroke:#181818;stroke-width:1.0;stroke-dasharray:2.0,2.0;" x1="60" x2="239" y1="607.71" y2="607.71"/><text fill="#000000" font-family="sans-serif" font-size="13" font-weight="bold" lengthAdjust="spacing" textLength="14" x="72" y="602.4473">11</text><text fill="#000000" font-family="sans-serif" font-size="13" lengthAdjust="spacing" textLength="140" x="90" y="602.4473">412: Precondition Failed</text><line style="stroke:#000000;stroke-width:1.0;stroke-dasharray:2.0,2.0;" x1="30" x2="854" y1="616.71" y2="616.71"/><path d="M478.5,624.71 L551.5,624.71 L551.5,634.001 L541.5,644.001 L478.5,644.001 L478.5,624.71 " fill="#EEEEEE" style="stroke:#000000;stroke-width:1.5;"/><rect fill="none" height="144.1152" style="stroke:#000000;stroke-width:1.5;" width="365.5" x="478.5" y="624.71"/><text fill="#000000" font-family="sans-serif" font-size="13" font-weight="bold" lengthAdjust="spacing" textLength="28" x="493.5" y="639.7383">loop</text><text fill="#000000" font-family="sans-serif" font-size="11" font-weight="bold" lengthAdjust="spacing" textLength="101" x="566.5" y="638.5801">[for each elevator]</text><polygon fill="#181818" points="638,663.292,648,667.292,638,671.292,642,667.292" style="stroke:#181818;stroke-width:1.0;"/><line style="stroke:#181818;stroke-width:1.0;" x1="524" x2="644" y1="667.292" y2="667.292"/><text fill="#000000" font-family="sans-serif" font-size="13" font-weight="bold" lengthAdjust="spacing" textLength="14" x="531" y="662.0293">12</text><text fill="#000000" font-family="sans-serif" font-size="13" lengthAdjust="spacing" textLength="89" x="549" y="662.0293">toDTO(elevator)</text><polygon fill="#181818" points="778,694.583,788,698.583,778,702.583,782,698.583" style="stroke:#181818;stroke-width:1.0;"/><line style="stroke:#181818;stroke-width:1.0;stroke-dasharray:2.0,2.0;" x1="660" x2="784" y1="698.583" y2="698.583"/><text fill="#000000" font-family="sans-serif" font-size="13" font-weight="bold" lengthAdjust="spacing" textLength="14" x="667" y="693.3203">13</text><text fill="#000000" font-family="sans-serif" font-size="13" lengthAdjust="spacing" textLength="88" x="685" y="693.3203">create(elevator)</text><rect fill="#E2E2F0" height="51.2422" rx="2.5" ry="2.5" style="stroke:#181818;stroke-width:0.5;" width="44" x="790" y="675.292"/><text fill="#000000" font-family="sans-serif" font-size="14" lengthAdjust="spacing" textLength="24" x="800" y="697.3994">dto:</text><text fill="#000000" font-family="sans-serif" font-size="14" lengthAdjust="spacing" textLength="30" x="797" y="716.0205">DTO</text><polygon fill="#181818" points="535,756.8252,525,760.8252,535,764.8252,531,760.8252" style="stroke:#181818;stroke-width:1.0;"/><line style="stroke:#181818;stroke-width:1.0;stroke-dasharray:2.0,2.0;" x1="529" x2="654" y1="760.8252" y2="760.8252"/><text fill="#000000" font-family="sans-serif" font-size="13" font-weight="bold" lengthAdjust="spacing" textLength="14" x="541" y="755.5625">14</text><text fill="#000000" font-family="sans-serif" font-size="13" lengthAdjust="spacing" textLength="18" x="559" y="755.5625">dto</text><polygon fill="#181818" points="413,795.1162,403,799.1162,413,803.1162,409,799.1162" style="stroke:#181818;stroke-width:1.0;"/><line style="stroke:#181818;stroke-width:1.0;stroke-dasharray:2.0,2.0;" x1="407" x2="513" y1="799.1162" y2="799.1162"/><text fill="#000000" font-family="sans-serif" font-size="13" font-weight="bold" lengthAdjust="spacing" textLength="14" x="419" y="793.8535">15</text><text fill="#000000" font-family="sans-serif" font-size="13" lengthAdjust="spacing" textLength="18" x="437" y="793.8535">dto</text><polygon fill="#181818" points="261,826.4072,251,830.4072,261,834.4072,257,830.4072" style="stroke:#181818;stroke-width:1.0;"/><line style="stroke:#181818;stroke-width:1.0;stroke-dasharray:2.0,2.0;" x1="255" x2="391" y1="830.4072" y2="830.4072"/><text fill="#000000" font-family="sans-serif" font-size="13" font-weight="bold" lengthAdjust="spacing" textLength="14" x="267" y="825.1445">16</text><text fill="#000000" font-family="sans-serif" font-size="13" lengthAdjust="spacing" textLength="53" x="285" y="825.1445">response</text><polygon fill="#181818" points="66,857.6982,56,861.6982,66,865.6982,62,861.6982" style="stroke:#181818;stroke-width:1.0;"/><line style="stroke:#181818;stroke-width:1.0;stroke-dasharray:2.0,2.0;" x1="60" x2="239" y1="861.6982" y2="861.6982"/><text fill="#000000" font-family="sans-serif" font-size="13" font-weight="bold" lengthAdjust="spacing" textLength="14" x="72" y="856.4355">17</text><text fill="#000000" font-family="sans-serif" font-size="13" lengthAdjust="spacing" textLength="126" x="90" y="856.4355">200: "OK" Successful</text><!--SRC=[bLHDRzim3BthLn3U9Ivcf2jsCeOLI9Fji1KTrXvxKImc5QP8dYm5AuRzzr7-YkrysDN9CjyZ7vzfSk-CzhirMiPoRftCPCwrW-ZsDW9UW9UCxRZK6yjt2FTBjZP_85hmx5UoqYA2Tz_bziKjbCS-_QVn3iiCjX-uCzfPenJQCfevg_g0HxHxcLNSOf-nWQvxdkSrTyVpVamuapxhvTD36QORGos05BDAzf8xlkO5HapKJoGKSrD8P-nhfPQk1vQNa2IVmQRmTVK4yxMNIaYzdV-LujyS5Uuv4Gi6T7Zc95sH-eNwM21kQ11IsA9RrVYPnT_lBHPn2sovfHlGEIMRif0HWoHIn3racoDu1eCJwA4FQexIRAGMYzSx8t3MT1GkyH7jq5DmPHWLs8yVqvM3fW1eus1Zl1P7i5RWmIsqrjYJmCgGq4i3Wzd73pVnIR2Ndv8a00cHmW-BcT52EcaqVE5IuR4ML3GJhUPAxtd1bQCfIBseAQsXfmLTDdIIgOsnxVIDEFicTz_iy3INJrA3rUniKcLCJbrP83zUscRFumVVXLO32NA6Ti6i8SSNoQtjOQkCLGdfWqMqOgwkg51caQWJA_MgXIK54qvJiLe4KrYTIHg3Tw2NkWzhCNmNDle13hCsLhetRRGKSwDfB2unod4huJVNrob43zyYUFHPXaMnyUhCh9tuEORlEYPqLsZdTRkTkpyf-my0]--></g></svg>