<?xml version="1.0" encoding="us-ascii" standalone="no"?><svg xmlns="http://www.w3.org/2000/svg" xmlns:xlink="http://www.w3.org/1999/xlink" contentStyleType="text/css" height="1223.1px" preserveAspectRatio="none" style="width:1656px;height:1223px;background:#FFFFFF;" version="1.1" viewBox="0 0 1656 1223" width="1656px" zoomAndPan="magnify"><defs/><g><!--cluster system--><g id="cluster_system"><path d="M7.65,5.4123 L52.65,5.4123 A3.375,3.375 0 0 1 54.9,7.6623 L61.2,27.5713 L1647.45,27.5713 A2.25,2.25 0 0 1 1649.7,29.8213 L1649.7,1215.0123 A2.25,2.25 0 0 1 1647.45,1217.2623 L7.65,1217.2623 A2.25,2.25 0 0 1 5.4,1215.0123 L5.4,7.6623 A2.25,2.25 0 0 1 7.65,5.4123 " fill="none" style="stroke:#000000;stroke-width:1.35;"/><line style="stroke:#000000;stroke-width:1.35;" x1="5.4" x2="61.2" y1="27.5713" y2="27.5713"/><text fill="#000000" font-family="sans-serif" font-size="12.6" font-weight="bold" lengthAdjust="spacing" textLength="44.1" x="9" y="20.809">system</text></g><!--cluster Infrastructure--><g id="cluster_Infrastructure"><path d="M161.55,45.9123 L249.75,45.9123 A3.375,3.375 0 0 1 252,48.1623 L258.3,68.0713 L600.75,68.0713 A2.25,2.25 0 0 1 603,70.3213 L603,196.6623 A2.25,2.25 0 0 1 600.75,198.9123 L161.55,198.9123 A2.25,2.25 0 0 1 159.3,196.6623 L159.3,48.1623 A2.25,2.25 0 0 1 161.55,45.9123 " fill="none" style="stroke:#000000;stroke-width:1.35;"/><line style="stroke:#000000;stroke-width:1.35;" x1="159.3" x2="258.3" y1="68.0713" y2="68.0713"/><text fill="#000000" font-family="sans-serif" font-size="12.6" font-weight="bold" lengthAdjust="spacing" textLength="87.3" x="162.9" y="61.309">Infrastructure</text></g><!--cluster Routes--><g id="cluster_Routes"><path d="M428.85,86.4123 L474.75,86.4123 A3.375,3.375 0 0 1 477,88.6623 L483.3,108.5713 L579.15,108.5713 A2.25,2.25 0 0 1 581.4,110.8213 L581.4,175.0623 A2.25,2.25 0 0 1 579.15,177.3123 L428.85,177.3123 A2.25,2.25 0 0 1 426.6,175.0623 L426.6,88.6623 A2.25,2.25 0 0 1 428.85,86.4123 " fill="none" style="stroke:#000000;stroke-width:1.35;"/><line style="stroke:#000000;stroke-width:1.35;" x1="426.6" x2="483.3" y1="108.5713" y2="108.5713"/><text fill="#000000" font-family="sans-serif" font-size="12.6" font-weight="bold" lengthAdjust="spacing" textLength="45" x="430.2" y="101.809">Routes</text></g><!--cluster Persistence--><g id="cluster_Persistence"><path d="M183.15,86.4123 L259.65,86.4123 A3.375,3.375 0 0 1 261.9,88.6623 L268.2,108.5713 L402.75,108.5713 A2.25,2.25 0 0 1 405,110.8213 L405,175.0623 A2.25,2.25 0 0 1 402.75,177.3123 L183.15,177.3123 A2.25,2.25 0 0 1 180.9,175.0623 L180.9,88.6623 A2.25,2.25 0 0 1 183.15,86.4123 " fill="none" style="stroke:#000000;stroke-width:1.35;"/><line style="stroke:#000000;stroke-width:1.35;" x1="180.9" x2="268.2" y1="108.5713" y2="108.5713"/><text fill="#000000" font-family="sans-serif" font-size="12.6" font-weight="bold" lengthAdjust="spacing" textLength="75.6" x="184.5" y="101.809">Persistence</text></g><!--cluster Interface Adapters--><g id="cluster_Interface Adapters"><path d="M29.25,220.5123 L147.15,220.5123 A3.375,3.375 0 0 1 149.4,222.7623 L155.7,242.6713 L463.95,242.6713 A2.25,2.25 0 0 1 466.2,244.9213 L466.2,626.8623 A2.25,2.25 0 0 1 463.95,629.1123 L29.25,629.1123 A2.25,2.25 0 0 1 27,626.8623 L27,222.7623 A2.25,2.25 0 0 1 29.25,220.5123 " fill="none" style="stroke:#000000;stroke-width:1.35;"/><line style="stroke:#000000;stroke-width:1.35;" x1="27" x2="155.7" y1="242.6713" y2="242.6713"/><text fill="#000000" font-family="sans-serif" font-size="12.6" font-weight="bold" lengthAdjust="spacing" textLength="117" x="30.6" y="235.909">Interface Adapters</text></g><!--cluster Controllers--><g id="cluster_Controllers"><path d="M50.85,261.0123 L122.85,261.0123 A3.375,3.375 0 0 1 125.1,263.2623 L131.4,283.1713 L269.55,283.1713 A2.25,2.25 0 0 1 271.8,285.4213 L271.8,605.2623 A2.25,2.25 0 0 1 269.55,607.5123 L50.85,607.5123 A2.25,2.25 0 0 1 48.6,605.2623 L48.6,263.2623 A2.25,2.25 0 0 1 50.85,261.0123 " fill="none" style="stroke:#000000;stroke-width:1.35;"/><line style="stroke:#000000;stroke-width:1.35;" x1="48.6" x2="131.4" y1="283.1713" y2="283.1713"/><text fill="#000000" font-family="sans-serif" font-size="12.6" font-weight="bold" lengthAdjust="spacing" textLength="71.1" x="52.2" y="276.409">Controllers</text></g><!--cluster IControllers--><g id="cluster_IControllers"><path d="M72.45,301.5123 L148.05,301.5123 A3.375,3.375 0 0 1 150.3,303.7623 L156.6,323.6713 L247.95,323.6713 A2.25,2.25 0 0 1 250.2,325.9213 L250.2,390.1623 A2.25,2.25 0 0 1 247.95,392.4123 L72.45,392.4123 A2.25,2.25 0 0 1 70.2,390.1623 L70.2,303.7623 A2.25,2.25 0 0 1 72.45,301.5123 " fill="none" style="stroke:#000000;stroke-width:1.35;"/><line style="stroke:#000000;stroke-width:1.35;" x1="70.2" x2="156.6" y1="323.6713" y2="323.6713"/><text fill="#000000" font-family="sans-serif" font-size="12.6" font-weight="bold" lengthAdjust="spacing" textLength="74.7" x="73.8" y="316.909">IControllers</text></g><!--cluster ImplControllers--><g id="cluster_ImplControllers"><path d="M75.15,495.0123 L173.25,495.0123 A3.375,3.375 0 0 1 175.5,497.2623 L181.8,517.1713 L247.05,517.1713 A2.25,2.25 0 0 1 249.3,519.4213 L249.3,583.6623 A2.25,2.25 0 0 1 247.05,585.9123 L75.15,585.9123 A2.25,2.25 0 0 1 72.9,583.6623 L72.9,497.2623 A2.25,2.25 0 0 1 75.15,495.0123 " fill="none" style="stroke:#000000;stroke-width:1.35;"/><line style="stroke:#000000;stroke-width:1.35;" x1="72.9" x2="181.8" y1="517.1713" y2="517.1713"/><text fill="#000000" font-family="sans-serif" font-size="12.6" font-weight="bold" lengthAdjust="spacing" textLength="97.2" x="76.5" y="510.409">ImplControllers</text></g><!--cluster Repositories--><g id="cluster_Repositories"><path d="M295.65,301.5123 L377.55,301.5123 A3.375,3.375 0 0 1 379.8,303.7623 L386.1,323.6713 L442.35,323.6713 A2.25,2.25 0 0 1 444.6,325.9213 L444.6,390.1623 A2.25,2.25 0 0 1 442.35,392.4123 L295.65,392.4123 A2.25,2.25 0 0 1 293.4,390.1623 L293.4,303.7623 A2.25,2.25 0 0 1 295.65,301.5123 " fill="none" style="stroke:#000000;stroke-width:1.35;"/><line style="stroke:#000000;stroke-width:1.35;" x1="293.4" x2="386.1" y1="323.6713" y2="323.6713"/><text fill="#000000" font-family="sans-serif" font-size="12.6" font-weight="bold" lengthAdjust="spacing" textLength="81" x="297" y="316.909">Repositories</text></g><!--cluster Application Services--><g id="cluster_Application Services"><path d="M662.85,414.0123 L793.35,414.0123 A3.375,3.375 0 0 1 795.6,416.2623 L801.9,436.1713 L933.75,436.1713 A2.25,2.25 0 0 1 936,438.4213 L936,989.1123 A2.25,2.25 0 0 1 933.75,991.3623 L662.85,991.3623 A2.25,2.25 0 0 1 660.6,989.1123 L660.6,416.2623 A2.25,2.25 0 0 1 662.85,414.0123 " fill="none" style="stroke:#000000;stroke-width:1.35;"/><line style="stroke:#000000;stroke-width:1.35;" x1="660.6" x2="801.9" y1="436.1713" y2="436.1713"/><text fill="#000000" font-family="sans-serif" font-size="12.6" font-weight="bold" lengthAdjust="spacing" textLength="129.6" x="664.2" y="429.409">Application Services</text></g><!--cluster App Services--><g id="cluster_App Services"><path d="M684.45,454.5123 L769.05,454.5123 A3.375,3.375 0 0 1 771.3,456.7623 L777.6,476.6713 L912.15,476.6713 A2.25,2.25 0 0 1 914.4,478.9213 L914.4,967.5123 A2.25,2.25 0 0 1 912.15,969.7623 L684.45,969.7623 A2.25,2.25 0 0 1 682.2,967.5123 L682.2,456.7623 A2.25,2.25 0 0 1 684.45,454.5123 " fill="none" style="stroke:#000000;stroke-width:1.35;"/><line style="stroke:#000000;stroke-width:1.35;" x1="682.2" x2="777.6" y1="476.6713" y2="476.6713"/><text fill="#000000" font-family="sans-serif" font-size="12.6" font-weight="bold" lengthAdjust="spacing" textLength="83.7" x="685.8" y="469.909">App Services</text></g><!--cluster IAppServices--><g id="cluster_IAppServices"><path d="M706.05,857.2623 L790.65,857.2623 A3.375,3.375 0 0 1 792.9,859.5123 L799.2,879.4213 L890.55,879.4213 A2.25,2.25 0 0 1 892.8,881.6713 L892.8,945.9123 A2.25,2.25 0 0 1 890.55,948.1623 L706.05,948.1623 A2.25,2.25 0 0 1 703.8,945.9123 L703.8,859.5123 A2.25,2.25 0 0 1 706.05,857.2623 " fill="none" style="stroke:#000000;stroke-width:1.35;"/><line style="stroke:#000000;stroke-width:1.35;" x1="703.8" x2="799.2" y1="879.4213" y2="879.4213"/><text fill="#000000" font-family="sans-serif" font-size="12.6" font-weight="bold" lengthAdjust="spacing" textLength="83.7" x="707.4" y="872.659">IAppServices</text></g><!--cluster ImplAppServices--><g id="cluster_ImplAppServices"><path d="M706.95,650.7123 L814.05,650.7123 A3.375,3.375 0 0 1 816.3,652.9623 L822.6,672.8713 L887.85,672.8713 A2.25,2.25 0 0 1 890.1,675.1213 L890.1,739.3623 A2.25,2.25 0 0 1 887.85,741.6123 L706.95,741.6123 A2.25,2.25 0 0 1 704.7,739.3623 L704.7,652.9623 A2.25,2.25 0 0 1 706.95,650.7123 " fill="none" style="stroke:#000000;stroke-width:1.35;"/><line style="stroke:#000000;stroke-width:1.35;" x1="704.7" x2="822.6" y1="672.8713" y2="672.8713"/><text fill="#000000" font-family="sans-serif" font-size="12.6" font-weight="bold" lengthAdjust="spacing" textLength="106.2" x="708.3" y="666.109">ImplAppServices</text></g><!--cluster IRepositories--><g id="cluster_IRepositories"><path d="M713.25,495.0123 L798.75,495.0123 A3.375,3.375 0 0 1 801,497.2623 L807.3,517.1713 L863.55,517.1713 A2.25,2.25 0 0 1 865.8,519.4213 L865.8,583.6623 A2.25,2.25 0 0 1 863.55,585.9123 L713.25,585.9123 A2.25,2.25 0 0 1 711,583.6623 L711,497.2623 A2.25,2.25 0 0 1 713.25,495.0123 " fill="none" style="stroke:#000000;stroke-width:1.35;"/><line style="stroke:#000000;stroke-width:1.35;" x1="711" x2="807.3" y1="517.1713" y2="517.1713"/><text fill="#000000" font-family="sans-serif" font-size="12.6" font-weight="bold" lengthAdjust="spacing" textLength="84.6" x="714.6" y="510.409">IRepositories</text></g><!--cluster Entities/Core/Domain--><g id="cluster_Entities/Core/Domain"><path d="M959.85,763.2123 L1093.05,763.2123 A3.375,3.375 0 0 1 1095.3,765.4623 L1101.6,785.3713 L1625.85,785.3713 A2.25,2.25 0 0 1 1628.1,787.6213 L1628.1,1193.4123 A2.25,2.25 0 0 1 1625.85,1195.6623 L959.85,1195.6623 A2.25,2.25 0 0 1 957.6,1193.4123 L957.6,765.4623 A2.25,2.25 0 0 1 959.85,763.2123 " fill="none" style="stroke:#000000;stroke-width:1.35;"/><line style="stroke:#000000;stroke-width:1.35;" x1="957.6" x2="1101.6" y1="785.3713" y2="785.3713"/><text fill="#000000" font-family="sans-serif" font-size="12.6" font-weight="bold" lengthAdjust="spacing" textLength="132.3" x="961.2" y="778.609">Entities/Core/Domain</text></g><!--cluster Aggregates--><g id="cluster_Aggregates"><path d="M1152.45,803.7123 L1226.25,803.7123 A3.375,3.375 0 0 1 1228.5,805.9623 L1234.8,825.8713 L1311.75,825.8713 A2.25,2.25 0 0 1 1314,828.1213 L1314,980.5623 A2.25,2.25 0 0 1 1311.75,982.8123 L1152.45,982.8123 A2.25,2.25 0 0 1 1150.2,980.5623 L1150.2,805.9623 A2.25,2.25 0 0 1 1152.45,803.7123 " fill="none" style="stroke:#000000;stroke-width:1.35;"/><line style="stroke:#000000;stroke-width:1.35;" x1="1150.2" x2="1234.8" y1="825.8713" y2="825.8713"/><text fill="#000000" font-family="sans-serif" font-size="12.6" font-weight="bold" lengthAdjust="spacing" textLength="72.9" x="1153.8" y="819.109">Aggregates</text></g><!--cluster a_building--><g id="cluster_a_building"><path d="M1174.05,844.2123 L1242.45,844.2123 A3.375,3.375 0 0 1 1244.7,846.4623 L1251,866.3713 L1290.15,866.3713 A2.25,2.25 0 0 1 1292.4,868.6213 L1292.4,958.9623 A2.25,2.25 0 0 1 1290.15,961.2123 L1174.05,961.2123 A2.25,2.25 0 0 1 1171.8,958.9623 L1171.8,846.4623 A2.25,2.25 0 0 1 1174.05,844.2123 " fill="none" style="stroke:#000000;stroke-width:1.35;"/><line style="stroke:#000000;stroke-width:1.35;" x1="1171.8" x2="1251" y1="866.3713" y2="866.3713"/><text fill="#000000" font-family="sans-serif" font-size="12.6" font-weight="bold" lengthAdjust="spacing" textLength="67.5" x="1175.4" y="859.609">RobotType</text></g><!--cluster Value Objects--><g id="cluster_Value Objects"><path d="M981.45,1021.0623 L1069.65,1021.0623 A3.375,3.375 0 0 1 1071.9,1023.3123 L1078.2,1043.2213 L1604.25,1043.2213 A2.25,2.25 0 0 1 1606.5,1045.4713 L1606.5,1171.8123 A2.25,2.25 0 0 1 1604.25,1174.0623 L981.45,1174.0623 A2.25,2.25 0 0 1 979.2,1171.8123 L979.2,1023.3123 A2.25,2.25 0 0 1 981.45,1021.0623 " fill="none" style="stroke:#000000;stroke-width:1.35;"/><line style="stroke:#000000;stroke-width:1.35;" x1="979.2" x2="1078.2" y1="1043.2213" y2="1043.2213"/><text fill="#000000" font-family="sans-serif" font-size="12.6" font-weight="bold" lengthAdjust="spacing" textLength="87.3" x="982.8" y="1036.459">Value Objects</text></g><!--cluster vo_building--><g id="cluster_vo_building"><path d="M1003.05,1061.5623 L1071.45,1061.5623 A3.375,3.375 0 0 1 1073.7,1063.8123 L1080,1083.7213 L1582.65,1083.7213 A2.25,2.25 0 0 1 1584.9,1085.9713 L1584.9,1150.2123 A2.25,2.25 0 0 1 1582.65,1152.4623 L1003.05,1152.4623 A2.25,2.25 0 0 1 1000.8,1150.2123 L1000.8,1063.8123 A2.25,2.25 0 0 1 1003.05,1061.5623 " fill="none" style="stroke:#000000;stroke-width:1.35;"/><line style="stroke:#000000;stroke-width:1.35;" x1="1000.8" x2="1080" y1="1083.7213" y2="1083.7213"/><text fill="#000000" font-family="sans-serif" font-size="12.6" font-weight="bold" lengthAdjust="spacing" textLength="67.5" x="1004.4" y="1076.959">RobotType</text></g><!--cluster DTO--><g id="cluster_DTO"><path d="M490.05,495.0123 L517.05,495.0123 A3.375,3.375 0 0 1 519.3,497.2623 L525.6,517.1713 L636.75,517.1713 A2.25,2.25 0 0 1 639,519.4213 L639,583.6623 A2.25,2.25 0 0 1 636.75,585.9123 L490.05,585.9123 A2.25,2.25 0 0 1 487.8,583.6623 L487.8,497.2623 A2.25,2.25 0 0 1 490.05,495.0123 " fill="none" style="stroke:#000000;stroke-width:1.35;"/><line style="stroke:#000000;stroke-width:1.35;" x1="487.8" x2="525.6" y1="517.1713" y2="517.1713"/><text fill="#000000" font-family="sans-serif" font-size="12.6" font-weight="bold" lengthAdjust="spacing" textLength="26.1" x="491.4" y="510.409">DTO</text></g><!--class CqontrollerRobotType--><g id="elem_CqontrollerRobotType"><rect fill="#F1F1F1" height="43.2" id="CqontrollerRobotType" rx="2.25" ry="2.25" style="stroke:#181818;stroke-width:0.45;" width="154.8" x="486" y="684.0123"/><ellipse cx="499.5" cy="698.4123" fill="#ADD1B2" rx="9.9" ry="9.9" style="stroke:#181818;stroke-width:0.9;"/><path d="M501.9891,694.6998 Q502.1297,694.5029 502.2984,694.4045 Q502.4672,694.3061 502.6641,694.3061 Q503.0016,694.3061 503.2125,694.5451 Q503.4234,694.7701 503.4234,695.3186 L503.4234,696.6264 Q503.4234,697.1748 503.2125,697.4139 Q503.0016,697.6529 502.6641,697.6529 Q502.3547,697.6529 502.1719,697.4701 Q501.9891,697.3014 501.8906,696.8373 Q501.8484,696.5139 501.6797,696.3451 Q501.3844,696.0076 500.8359,695.8107 Q500.2875,695.6139 499.725,695.6139 Q499.0359,695.6139 498.4594,695.9092 Q497.8969,696.2045 497.4469,696.8795 Q497.0109,697.5545 497.0109,698.4826 L497.0109,699.467 Q497.0109,700.5779 497.8125,701.3232 Q498.6141,702.0545 500.0484,702.0545 Q500.8922,702.0545 501.4828,701.8295 Q501.8344,701.6889 502.2141,701.2951 Q502.4531,701.0561 502.5797,700.9857 Q502.7203,700.9154 502.9031,700.9154 Q503.1984,700.9154 503.4234,701.1545 Q503.6625,701.3795 503.6625,701.6889 Q503.6625,701.9982 503.3531,702.3639 Q502.9031,702.8842 502.1859,703.1795 Q501.2156,703.5873 500.0484,703.5873 Q498.6844,703.5873 497.6016,703.0248 Q496.7156,702.5748 496.0969,701.6186 Q495.4781,700.6482 495.4781,699.4951 L495.4781,698.4545 Q495.4781,697.2592 496.0266,696.2326 Q496.5891,695.192 497.5734,694.6436 Q498.5578,694.0811 499.6688,694.0811 Q500.3297,694.0811 500.9063,694.2357 Q501.4969,694.3764 501.9891,694.6998 Z " fill="#000000"/><text fill="#000000" font-family="sans-serif" font-size="12.6" lengthAdjust="spacing" textLength="126" x="512.1" y="703.6295">CqontrollerRobotType</text><line style="stroke:#181818;stroke-width:0.45;" x1="486.9" x2="639.9" y1="712.8123" y2="712.8123"/><line style="stroke:#181818;stroke-width:0.45;" x1="486.9" x2="639.9" y1="720.0123" y2="720.0123"/></g><!--class RouteRobotType--><g id="elem_RouteRobotType"><rect codeLine="17" fill="#F1F1F1" height="43.2" id="RouteRobotType" rx="2.25" ry="2.25" style="stroke:#181818;stroke-width:0.45;" width="126" x="441" y="119.7123"/><ellipse cx="454.5" cy="134.1123" fill="#ADD1B2" rx="9.9" ry="9.9" style="stroke:#181818;stroke-width:0.9;"/><path d="M456.9891,130.3998 Q457.1297,130.2029 457.2984,130.1045 Q457.4672,130.0061 457.6641,130.0061 Q458.0016,130.0061 458.2125,130.2451 Q458.4234,130.4701 458.4234,131.0186 L458.4234,132.3264 Q458.4234,132.8748 458.2125,133.1139 Q458.0016,133.3529 457.6641,133.3529 Q457.3547,133.3529 457.1719,133.1701 Q456.9891,133.0014 456.8906,132.5373 Q456.8484,132.2139 456.6797,132.0451 Q456.3844,131.7076 455.8359,131.5107 Q455.2875,131.3139 454.725,131.3139 Q454.0359,131.3139 453.4594,131.6092 Q452.8969,131.9045 452.4469,132.5795 Q452.0109,133.2545 452.0109,134.1826 L452.0109,135.167 Q452.0109,136.2779 452.8125,137.0232 Q453.6141,137.7545 455.0484,137.7545 Q455.8922,137.7545 456.4828,137.5295 Q456.8344,137.3889 457.2141,136.9951 Q457.4531,136.7561 457.5797,136.6857 Q457.7203,136.6154 457.9031,136.6154 Q458.1984,136.6154 458.4234,136.8545 Q458.6625,137.0795 458.6625,137.3889 Q458.6625,137.6982 458.3531,138.0639 Q457.9031,138.5842 457.1859,138.8795 Q456.2156,139.2873 455.0484,139.2873 Q453.6844,139.2873 452.6016,138.7248 Q451.7156,138.2748 451.0969,137.3186 Q450.4781,136.3482 450.4781,135.1951 L450.4781,134.1545 Q450.4781,132.9592 451.0266,131.9326 Q451.5891,130.892 452.5734,130.3436 Q453.5578,129.7811 454.6688,129.7811 Q455.3297,129.7811 455.9063,129.9357 Q456.4969,130.0764 456.9891,130.3998 Z " fill="#000000"/><text fill="#000000" font-family="sans-serif" font-size="12.6" lengthAdjust="spacing" textLength="97.2" x="467.1" y="139.3295">RouteRobotType</text><line style="stroke:#181818;stroke-width:0.45;" x1="441.9" x2="566.1" y1="148.5123" y2="148.5123"/><line style="stroke:#181818;stroke-width:0.45;" x1="441.9" x2="566.1" y1="155.7123" y2="155.7123"/></g><!--class IDBDriver--><g id="elem_IDBDriver"><rect codeLine="20" fill="#F1F1F1" height="43.2" id="IDBDriver" rx="2.25" ry="2.25" style="stroke:#181818;stroke-width:0.45;" width="82.8" x="307.8" y="119.7123"/><ellipse cx="321.3" cy="134.1123" fill="#B4A7E5" rx="9.9" ry="9.9" style="stroke:#181818;stroke-width:0.9;"/><path d="M322.1578,131.0889 L322.1578,137.0795 L323.7047,137.0795 Q324.2531,137.0795 324.4922,137.2904 Q324.7313,137.5014 324.7313,137.8529 Q324.7313,138.1904 324.4922,138.4014 Q324.2531,138.6123 323.7047,138.6123 L319.0781,138.6123 Q318.5297,138.6123 318.2906,138.4014 Q318.0516,138.1904 318.0516,137.8389 Q318.0516,137.5014 318.2906,137.2904 Q318.5297,137.0795 319.0781,137.0795 L320.625,137.0795 L320.625,131.0889 L319.0781,131.0889 Q318.5297,131.0889 318.2906,130.8779 Q318.0516,130.667 318.0516,130.3154 Q318.0516,129.9779 318.2906,129.767 Q318.5297,129.5561 319.0781,129.5561 L323.7047,129.5561 Q324.2531,129.5561 324.4922,129.767 Q324.7313,129.9779 324.7313,130.3154 Q324.7313,130.667 324.4922,130.8779 Q324.2531,131.0889 323.7047,131.0889 L322.1578,131.0889 Z " fill="#000000"/><text fill="#000000" font-family="sans-serif" font-size="12.6" font-style="italic" lengthAdjust="spacing" textLength="54" x="333.9" y="139.3295">IDBDriver</text><line style="stroke:#181818;stroke-width:0.45;" x1="308.7" x2="389.7" y1="148.5123" y2="148.5123"/><line style="stroke:#181818;stroke-width:0.45;" x1="308.7" x2="389.7" y1="155.7123" y2="155.7123"/></g><!--class DBDriver--><g id="elem_DBDriver"><rect codeLine="21" fill="#F1F1F1" height="43.2" id="DBDriver" rx="2.25" ry="2.25" style="stroke:#181818;stroke-width:0.45;" width="80.1" x="195.75" y="119.7123"/><ellipse cx="209.25" cy="134.1123" fill="#ADD1B2" rx="9.9" ry="9.9" style="stroke:#181818;stroke-width:0.9;"/><path d="M211.7391,130.3998 Q211.8797,130.2029 212.0484,130.1045 Q212.2172,130.0061 212.4141,130.0061 Q212.7516,130.0061 212.9625,130.2451 Q213.1734,130.4701 213.1734,131.0186 L213.1734,132.3264 Q213.1734,132.8748 212.9625,133.1139 Q212.7516,133.3529 212.4141,133.3529 Q212.1047,133.3529 211.9219,133.1701 Q211.7391,133.0014 211.6406,132.5373 Q211.5984,132.2139 211.4297,132.0451 Q211.1344,131.7076 210.5859,131.5107 Q210.0375,131.3139 209.475,131.3139 Q208.7859,131.3139 208.2094,131.6092 Q207.6469,131.9045 207.1969,132.5795 Q206.7609,133.2545 206.7609,134.1826 L206.7609,135.167 Q206.7609,136.2779 207.5625,137.0232 Q208.3641,137.7545 209.7984,137.7545 Q210.6422,137.7545 211.2328,137.5295 Q211.5844,137.3889 211.9641,136.9951 Q212.2031,136.7561 212.3297,136.6857 Q212.4703,136.6154 212.6531,136.6154 Q212.9484,136.6154 213.1734,136.8545 Q213.4125,137.0795 213.4125,137.3889 Q213.4125,137.6982 213.1031,138.0639 Q212.6531,138.5842 211.9359,138.8795 Q210.9656,139.2873 209.7984,139.2873 Q208.4344,139.2873 207.3516,138.7248 Q206.4656,138.2748 205.8469,137.3186 Q205.2281,136.3482 205.2281,135.1951 L205.2281,134.1545 Q205.2281,132.9592 205.7766,131.9326 Q206.3391,130.892 207.3234,130.3436 Q208.3078,129.7811 209.4188,129.7811 Q210.0797,129.7811 210.6563,129.9357 Q211.2469,130.0764 211.7391,130.3998 Z " fill="#000000"/><text fill="#000000" font-family="sans-serif" font-size="12.6" lengthAdjust="spacing" textLength="51.3" x="221.85" y="139.3295">DBDriver</text><line style="stroke:#181818;stroke-width:0.45;" x1="196.65" x2="274.95" y1="148.5123" y2="148.5123"/><line style="stroke:#181818;stroke-width:0.45;" x1="196.65" x2="274.95" y1="155.7123" y2="155.7123"/></g><!--class IControllerRobotType--><g id="elem_IControllerRobotType"><rect codeLine="30" fill="#F1F1F1" height="43.2" id="IControllerRobotType" rx="2.25" ry="2.25" style="stroke:#181818;stroke-width:0.45;" width="151.2" x="84.6" y="334.8123"/><ellipse cx="98.1" cy="349.2123" fill="#B4A7E5" rx="9.9" ry="9.9" style="stroke:#181818;stroke-width:0.9;"/><path d="M98.9578,346.1889 L98.9578,352.1795 L100.5047,352.1795 Q101.0531,352.1795 101.2922,352.3904 Q101.5313,352.6014 101.5313,352.9529 Q101.5313,353.2904 101.2922,353.5014 Q101.0531,353.7123 100.5047,353.7123 L95.8781,353.7123 Q95.3297,353.7123 95.0906,353.5014 Q94.8516,353.2904 94.8516,352.9389 Q94.8516,352.6014 95.0906,352.3904 Q95.3297,352.1795 95.8781,352.1795 L97.425,352.1795 L97.425,346.1889 L95.8781,346.1889 Q95.3297,346.1889 95.0906,345.9779 Q94.8516,345.767 94.8516,345.4154 Q94.8516,345.0779 95.0906,344.867 Q95.3297,344.6561 95.8781,344.6561 L100.5047,344.6561 Q101.0531,344.6561 101.2922,344.867 Q101.5313,345.0779 101.5313,345.4154 Q101.5313,345.767 101.2922,345.9779 Q101.0531,346.1889 100.5047,346.1889 L98.9578,346.1889 Z " fill="#000000"/><text fill="#000000" font-family="sans-serif" font-size="12.6" font-style="italic" lengthAdjust="spacing" textLength="122.4" x="110.7" y="354.4295">IControllerRobotType</text><line style="stroke:#181818;stroke-width:0.45;" x1="85.5" x2="234.9" y1="363.6123" y2="363.6123"/><line style="stroke:#181818;stroke-width:0.45;" x1="85.5" x2="234.9" y1="370.8123" y2="370.8123"/></g><!--class ControllerRobotType--><g id="elem_ControllerRobotType"><rect codeLine="34" fill="#F1F1F1" height="43.2" id="ControllerRobotType" rx="2.25" ry="2.25" style="stroke:#181818;stroke-width:0.45;" width="147.6" x="87.3" y="528.3123"/><ellipse cx="100.8" cy="542.7123" fill="#ADD1B2" rx="9.9" ry="9.9" style="stroke:#181818;stroke-width:0.9;"/><path d="M103.2891,538.9998 Q103.4297,538.8029 103.5984,538.7045 Q103.7672,538.6061 103.9641,538.6061 Q104.3016,538.6061 104.5125,538.8451 Q104.7234,539.0701 104.7234,539.6186 L104.7234,540.9264 Q104.7234,541.4748 104.5125,541.7139 Q104.3016,541.9529 103.9641,541.9529 Q103.6547,541.9529 103.4719,541.7701 Q103.2891,541.6014 103.1906,541.1373 Q103.1484,540.8139 102.9797,540.6451 Q102.6844,540.3076 102.1359,540.1107 Q101.5875,539.9139 101.025,539.9139 Q100.3359,539.9139 99.7594,540.2092 Q99.1969,540.5045 98.7469,541.1795 Q98.3109,541.8545 98.3109,542.7826 L98.3109,543.767 Q98.3109,544.8779 99.1125,545.6232 Q99.9141,546.3545 101.3484,546.3545 Q102.1922,546.3545 102.7828,546.1295 Q103.1344,545.9889 103.5141,545.5951 Q103.7531,545.3561 103.8797,545.2857 Q104.0203,545.2154 104.2031,545.2154 Q104.4984,545.2154 104.7234,545.4545 Q104.9625,545.6795 104.9625,545.9889 Q104.9625,546.2982 104.6531,546.6639 Q104.2031,547.1842 103.4859,547.4795 Q102.5156,547.8873 101.3484,547.8873 Q99.9844,547.8873 98.9016,547.3248 Q98.0156,546.8748 97.3969,545.9186 Q96.7781,544.9482 96.7781,543.7951 L96.7781,542.7545 Q96.7781,541.5592 97.3266,540.5326 Q97.8891,539.492 98.8734,538.9436 Q99.8578,538.3811 100.9688,538.3811 Q101.6297,538.3811 102.2063,538.5357 Q102.7969,538.6764 103.2891,538.9998 Z " fill="#000000"/><text fill="#000000" font-family="sans-serif" font-size="12.6" lengthAdjust="spacing" textLength="118.8" x="113.4" y="547.9295">ControllerRobotType</text><line style="stroke:#181818;stroke-width:0.45;" x1="88.2" x2="234" y1="557.1123" y2="557.1123"/><line style="stroke:#181818;stroke-width:0.45;" x1="88.2" x2="234" y1="564.3123" y2="564.3123"/></g><!--class RepoRobotType--><g id="elem_RepoRobotType"><rect codeLine="40" fill="#F1F1F1" height="43.2" id="RepoRobotType" rx="2.25" ry="2.25" style="stroke:#181818;stroke-width:0.45;" width="122.4" x="307.8" y="334.8123"/><ellipse cx="321.3" cy="349.2123" fill="#ADD1B2" rx="9.9" ry="9.9" style="stroke:#181818;stroke-width:0.9;"/><path d="M323.7891,345.4998 Q323.9297,345.3029 324.0984,345.2045 Q324.2672,345.1061 324.4641,345.1061 Q324.8016,345.1061 325.0125,345.3451 Q325.2234,345.5701 325.2234,346.1186 L325.2234,347.4264 Q325.2234,347.9748 325.0125,348.2139 Q324.8016,348.4529 324.4641,348.4529 Q324.1547,348.4529 323.9719,348.2701 Q323.7891,348.1014 323.6906,347.6373 Q323.6484,347.3139 323.4797,347.1451 Q323.1844,346.8076 322.6359,346.6107 Q322.0875,346.4139 321.525,346.4139 Q320.8359,346.4139 320.2594,346.7092 Q319.6969,347.0045 319.2469,347.6795 Q318.8109,348.3545 318.8109,349.2826 L318.8109,350.267 Q318.8109,351.3779 319.6125,352.1232 Q320.4141,352.8545 321.8484,352.8545 Q322.6922,352.8545 323.2828,352.6295 Q323.6344,352.4889 324.0141,352.0951 Q324.2531,351.8561 324.3797,351.7857 Q324.5203,351.7154 324.7031,351.7154 Q324.9984,351.7154 325.2234,351.9545 Q325.4625,352.1795 325.4625,352.4889 Q325.4625,352.7982 325.1531,353.1639 Q324.7031,353.6842 323.9859,353.9795 Q323.0156,354.3873 321.8484,354.3873 Q320.4844,354.3873 319.4016,353.8248 Q318.5156,353.3748 317.8969,352.4186 Q317.2781,351.4482 317.2781,350.2951 L317.2781,349.2545 Q317.2781,348.0592 317.8266,347.0326 Q318.3891,345.992 319.3734,345.4436 Q320.3578,344.8811 321.4688,344.8811 Q322.1297,344.8811 322.7063,345.0357 Q323.2969,345.1764 323.7891,345.4998 Z " fill="#000000"/><text fill="#000000" font-family="sans-serif" font-size="12.6" lengthAdjust="spacing" textLength="93.6" x="333.9" y="354.4295">RepoRobotType</text><line style="stroke:#181818;stroke-width:0.45;" x1="308.7" x2="429.3" y1="363.6123" y2="363.6123"/><line style="stroke:#181818;stroke-width:0.45;" x1="308.7" x2="429.3" y1="370.8123" y2="370.8123"/></g><!--class IAppServiceRobotType--><g id="elem_IAppServiceRobotType"><rect codeLine="53" fill="#F1F1F1" height="43.2" id="IAppServiceRobotType" rx="2.25" ry="2.25" style="stroke:#181818;stroke-width:0.45;" width="159.3" x="718.65" y="890.5623"/><ellipse cx="732.15" cy="904.9623" fill="#B4A7E5" rx="9.9" ry="9.9" style="stroke:#181818;stroke-width:0.9;"/><path d="M733.0078,901.9389 L733.0078,907.9295 L734.5547,907.9295 Q735.1031,907.9295 735.3422,908.1404 Q735.5813,908.3514 735.5813,908.7029 Q735.5813,909.0404 735.3422,909.2514 Q735.1031,909.4623 734.5547,909.4623 L729.9281,909.4623 Q729.3797,909.4623 729.1406,909.2514 Q728.9016,909.0404 728.9016,908.6889 Q728.9016,908.3514 729.1406,908.1404 Q729.3797,907.9295 729.9281,907.9295 L731.475,907.9295 L731.475,901.9389 L729.9281,901.9389 Q729.3797,901.9389 729.1406,901.7279 Q728.9016,901.517 728.9016,901.1654 Q728.9016,900.8279 729.1406,900.617 Q729.3797,900.4061 729.9281,900.4061 L734.5547,900.4061 Q735.1031,900.4061 735.3422,900.617 Q735.5813,900.8279 735.5813,901.1654 Q735.5813,901.517 735.3422,901.7279 Q735.1031,901.9389 734.5547,901.9389 L733.0078,901.9389 Z " fill="#000000"/><text fill="#000000" font-family="sans-serif" font-size="12.6" font-style="italic" lengthAdjust="spacing" textLength="130.5" x="744.75" y="910.1795">IAppServiceRobotType</text><line style="stroke:#181818;stroke-width:0.45;" x1="719.55" x2="877.05" y1="919.3623" y2="919.3623"/><line style="stroke:#181818;stroke-width:0.45;" x1="719.55" x2="877.05" y1="926.5623" y2="926.5623"/></g><!--class AppServiceRobotType--><g id="elem_AppServiceRobotType"><rect codeLine="57" fill="#F1F1F1" height="43.2" id="AppServiceRobotType" rx="2.25" ry="2.25" style="stroke:#181818;stroke-width:0.45;" width="156.6" x="719.1" y="684.0123"/><ellipse cx="732.6" cy="698.4123" fill="#ADD1B2" rx="9.9" ry="9.9" style="stroke:#181818;stroke-width:0.9;"/><path d="M735.0891,694.6998 Q735.2297,694.5029 735.3984,694.4045 Q735.5672,694.3061 735.7641,694.3061 Q736.1016,694.3061 736.3125,694.5451 Q736.5234,694.7701 736.5234,695.3186 L736.5234,696.6264 Q736.5234,697.1748 736.3125,697.4139 Q736.1016,697.6529 735.7641,697.6529 Q735.4547,697.6529 735.2719,697.4701 Q735.0891,697.3014 734.9906,696.8373 Q734.9484,696.5139 734.7797,696.3451 Q734.4844,696.0076 733.9359,695.8107 Q733.3875,695.6139 732.825,695.6139 Q732.1359,695.6139 731.5594,695.9092 Q730.9969,696.2045 730.5469,696.8795 Q730.1109,697.5545 730.1109,698.4826 L730.1109,699.467 Q730.1109,700.5779 730.9125,701.3232 Q731.7141,702.0545 733.1484,702.0545 Q733.9922,702.0545 734.5828,701.8295 Q734.9344,701.6889 735.3141,701.2951 Q735.5531,701.0561 735.6797,700.9857 Q735.8203,700.9154 736.0031,700.9154 Q736.2984,700.9154 736.5234,701.1545 Q736.7625,701.3795 736.7625,701.6889 Q736.7625,701.9982 736.4531,702.3639 Q736.0031,702.8842 735.2859,703.1795 Q734.3156,703.5873 733.1484,703.5873 Q731.7844,703.5873 730.7016,703.0248 Q729.8156,702.5748 729.1969,701.6186 Q728.5781,700.6482 728.5781,699.4951 L728.5781,698.4545 Q728.5781,697.2592 729.1266,696.2326 Q729.6891,695.192 730.6734,694.6436 Q731.6578,694.0811 732.7688,694.0811 Q733.4297,694.0811 734.0063,694.2357 Q734.5969,694.3764 735.0891,694.6998 Z " fill="#000000"/><text fill="#000000" font-family="sans-serif" font-size="12.6" lengthAdjust="spacing" textLength="127.8" x="745.2" y="703.6295">AppServiceRobotType</text><line style="stroke:#181818;stroke-width:0.45;" x1="720" x2="874.8" y1="712.8123" y2="712.8123"/><line style="stroke:#181818;stroke-width:0.45;" x1="720" x2="874.8" y1="720.0123" y2="720.0123"/></g><!--class IRepoRobotType--><g id="elem_IRepoRobotType"><rect codeLine="63" fill="#F1F1F1" height="43.2" id="IRepoRobotType" rx="2.25" ry="2.25" style="stroke:#181818;stroke-width:0.45;" width="126" x="725.4" y="528.3123"/><ellipse cx="738.9" cy="542.7123" fill="#B4A7E5" rx="9.9" ry="9.9" style="stroke:#181818;stroke-width:0.9;"/><path d="M739.7578,539.6889 L739.7578,545.6795 L741.3047,545.6795 Q741.8531,545.6795 742.0922,545.8904 Q742.3313,546.1014 742.3313,546.4529 Q742.3313,546.7904 742.0922,547.0014 Q741.8531,547.2123 741.3047,547.2123 L736.6781,547.2123 Q736.1297,547.2123 735.8906,547.0014 Q735.6516,546.7904 735.6516,546.4389 Q735.6516,546.1014 735.8906,545.8904 Q736.1297,545.6795 736.6781,545.6795 L738.225,545.6795 L738.225,539.6889 L736.6781,539.6889 Q736.1297,539.6889 735.8906,539.4779 Q735.6516,539.267 735.6516,538.9154 Q735.6516,538.5779 735.8906,538.367 Q736.1297,538.1561 736.6781,538.1561 L741.3047,538.1561 Q741.8531,538.1561 742.0922,538.367 Q742.3313,538.5779 742.3313,538.9154 Q742.3313,539.267 742.0922,539.4779 Q741.8531,539.6889 741.3047,539.6889 L739.7578,539.6889 Z " fill="#000000"/><text fill="#000000" font-family="sans-serif" font-size="12.6" font-style="italic" lengthAdjust="spacing" textLength="97.2" x="751.5" y="547.9295">IRepoRobotType</text><line style="stroke:#181818;stroke-width:0.45;" x1="726.3" x2="850.5" y1="557.1123" y2="557.1123"/><line style="stroke:#181818;stroke-width:0.45;" x1="726.3" x2="850.5" y1="564.3123" y2="564.3123"/></g><!--class RobotType--><g id="elem_RobotType"><rect codeLine="82" fill="#F1F1F1" height="68.8887" id="RobotType" rx="2.25" ry="2.25" style="stroke:#181818;stroke-width:0.45;" width="91.8" x="1186.2" y="877.5123"/><ellipse cx="1199.7" cy="904.7566" fill="#ADD1B2" rx="9.9" ry="9.9" style="stroke:#181818;stroke-width:0.9;"/><path d="M1198.6734,905.4738 L1198.6734,907.7238 L1202.5688,907.7238 L1202.5688,906.8941 Q1202.5688,906.3457 1202.7797,906.1066 Q1203.0047,905.8676 1203.3422,905.8676 Q1203.6797,905.8676 1203.8906,906.1066 Q1204.1016,906.3457 1204.1016,906.8941 L1204.1016,909.2566 L1196.9016,909.2566 Q1196.3391,909.2566 1196.1,909.0457 Q1195.875,908.8348 1195.875,908.4832 Q1195.875,908.1457 1196.1141,907.9348 Q1196.3531,907.7238 1196.9016,907.7238 L1197.1406,907.7238 L1197.1406,901.7332 L1196.9016,901.7332 Q1196.3391,901.7332 1196.1,901.5223 Q1195.875,901.3113 1195.875,900.9598 Q1195.875,900.6223 1196.1,900.4113 Q1196.3391,900.2004 1196.9016,900.2004 L1203.7641,900.2004 L1203.7641,902.5348 Q1203.7641,903.0832 1203.5531,903.3223 Q1203.3563,903.5473 1203.0047,903.5473 Q1202.6672,903.5473 1202.4563,903.3223 Q1202.2453,903.0832 1202.2453,902.5348 L1202.2453,901.7332 L1198.6734,901.7332 L1198.6734,903.941 L1200.0094,903.941 Q1200.0094,903.3504 1200.1219,903.1816 Q1200.3609,902.816 1200.7828,902.816 Q1201.1203,902.816 1201.3313,903.0551 Q1201.5422,903.2801 1201.5422,903.8285 L1201.5422,905.6004 Q1201.5422,906.0926 1201.4297,906.2613 Q1201.1906,906.6129 1200.7828,906.6129 Q1200.3609,906.6129 1200.1219,906.2473 Q1200.0094,906.0785 1200.0094,905.4738 L1198.6734,905.4738 Z " fill="#000000"/><text fill="#000000" font-family="sans-serif" font-size="10.8" font-style="italic" lengthAdjust="spacing" textLength="31.5" x="1228.05" y="893.6666">&#171;root&#187;</text><text fill="#000000" font-family="sans-serif" font-size="10.8" font-style="italic" lengthAdjust="spacing" textLength="38.7" x="1224.45" y="908.0314">&#171;entity&#187;</text><text fill="#000000" font-family="sans-serif" font-size="12.6" lengthAdjust="spacing" textLength="63" x="1212.3" y="924.3387">RobotType</text><line style="stroke:#181818;stroke-width:0.45;" x1="1187.1" x2="1277.1" y1="932.001" y2="932.001"/><line style="stroke:#181818;stroke-width:0.45;" x1="1187.1" x2="1277.1" y1="939.201" y2="939.201"/></g><!--class RobotTypeCode--><g id="elem_RobotTypeCode"><rect codeLine="90" fill="#F1F1F1" height="43.2" id="RobotTypeCode" rx="2.25" ry="2.25" style="stroke:#181818;stroke-width:0.45;" width="122.4" x="1015.2" y="1094.8623"/><ellipse cx="1028.7" cy="1109.2623" fill="#ADD1B2" rx="9.9" ry="9.9" style="stroke:#181818;stroke-width:0.9;"/><path d="M1031.1891,1105.5498 Q1031.3297,1105.3529 1031.4984,1105.2545 Q1031.6672,1105.1561 1031.8641,1105.1561 Q1032.2016,1105.1561 1032.4125,1105.3951 Q1032.6234,1105.6201 1032.6234,1106.1686 L1032.6234,1107.4764 Q1032.6234,1108.0248 1032.4125,1108.2639 Q1032.2016,1108.5029 1031.8641,1108.5029 Q1031.5547,1108.5029 1031.3719,1108.3201 Q1031.1891,1108.1514 1031.0906,1107.6873 Q1031.0484,1107.3639 1030.8797,1107.1951 Q1030.5844,1106.8576 1030.0359,1106.6607 Q1029.4875,1106.4639 1028.925,1106.4639 Q1028.2359,1106.4639 1027.6594,1106.7592 Q1027.0969,1107.0545 1026.6469,1107.7295 Q1026.2109,1108.4045 1026.2109,1109.3326 L1026.2109,1110.317 Q1026.2109,1111.4279 1027.0125,1112.1732 Q1027.8141,1112.9045 1029.2484,1112.9045 Q1030.0922,1112.9045 1030.6828,1112.6795 Q1031.0344,1112.5389 1031.4141,1112.1451 Q1031.6531,1111.9061 1031.7797,1111.8357 Q1031.9203,1111.7654 1032.1031,1111.7654 Q1032.3984,1111.7654 1032.6234,1112.0045 Q1032.8625,1112.2295 1032.8625,1112.5389 Q1032.8625,1112.8482 1032.5531,1113.2139 Q1032.1031,1113.7342 1031.3859,1114.0295 Q1030.4156,1114.4373 1029.2484,1114.4373 Q1027.8844,1114.4373 1026.8016,1113.8748 Q1025.9156,1113.4248 1025.2969,1112.4686 Q1024.6781,1111.4982 1024.6781,1110.3451 L1024.6781,1109.3045 Q1024.6781,1108.1092 1025.2266,1107.0826 Q1025.7891,1106.042 1026.7734,1105.4936 Q1027.7578,1104.9311 1028.8688,1104.9311 Q1029.5297,1104.9311 1030.1063,1105.0857 Q1030.6969,1105.2264 1031.1891,1105.5498 Z " fill="#000000"/><text fill="#000000" font-family="sans-serif" font-size="12.6" lengthAdjust="spacing" textLength="93.6" x="1041.3" y="1114.4795">RobotTypeCode</text><line style="stroke:#181818;stroke-width:0.45;" x1="1016.1" x2="1136.7" y1="1123.6623" y2="1123.6623"/><line style="stroke:#181818;stroke-width:0.45;" x1="1016.1" x2="1136.7" y1="1130.8623" y2="1130.8623"/></g><!--class RobotTypeBrand--><g id="elem_RobotTypeBrand"><rect codeLine="91" fill="#F1F1F1" height="43.2" id="RobotTypeBrand" rx="2.25" ry="2.25" style="stroke:#181818;stroke-width:0.45;" width="126" x="1169.1" y="1094.8623"/><ellipse cx="1182.6" cy="1109.2623" fill="#ADD1B2" rx="9.9" ry="9.9" style="stroke:#181818;stroke-width:0.9;"/><path d="M1185.0891,1105.5498 Q1185.2297,1105.3529 1185.3984,1105.2545 Q1185.5672,1105.1561 1185.7641,1105.1561 Q1186.1016,1105.1561 1186.3125,1105.3951 Q1186.5234,1105.6201 1186.5234,1106.1686 L1186.5234,1107.4764 Q1186.5234,1108.0248 1186.3125,1108.2639 Q1186.1016,1108.5029 1185.7641,1108.5029 Q1185.4547,1108.5029 1185.2719,1108.3201 Q1185.0891,1108.1514 1184.9906,1107.6873 Q1184.9484,1107.3639 1184.7797,1107.1951 Q1184.4844,1106.8576 1183.9359,1106.6607 Q1183.3875,1106.4639 1182.825,1106.4639 Q1182.1359,1106.4639 1181.5594,1106.7592 Q1180.9969,1107.0545 1180.5469,1107.7295 Q1180.1109,1108.4045 1180.1109,1109.3326 L1180.1109,1110.317 Q1180.1109,1111.4279 1180.9125,1112.1732 Q1181.7141,1112.9045 1183.1484,1112.9045 Q1183.9922,1112.9045 1184.5828,1112.6795 Q1184.9344,1112.5389 1185.3141,1112.1451 Q1185.5531,1111.9061 1185.6797,1111.8357 Q1185.8203,1111.7654 1186.0031,1111.7654 Q1186.2984,1111.7654 1186.5234,1112.0045 Q1186.7625,1112.2295 1186.7625,1112.5389 Q1186.7625,1112.8482 1186.4531,1113.2139 Q1186.0031,1113.7342 1185.2859,1114.0295 Q1184.3156,1114.4373 1183.1484,1114.4373 Q1181.7844,1114.4373 1180.7016,1113.8748 Q1179.8156,1113.4248 1179.1969,1112.4686 Q1178.5781,1111.4982 1178.5781,1110.3451 L1178.5781,1109.3045 Q1178.5781,1108.1092 1179.1266,1107.0826 Q1179.6891,1106.042 1180.6734,1105.4936 Q1181.6578,1104.9311 1182.7688,1104.9311 Q1183.4297,1104.9311 1184.0063,1105.0857 Q1184.5969,1105.2264 1185.0891,1105.5498 Z " fill="#000000"/><text fill="#000000" font-family="sans-serif" font-size="12.6" lengthAdjust="spacing" textLength="97.2" x="1195.2" y="1114.4795">RobotTypeBrand</text><line style="stroke:#181818;stroke-width:0.45;" x1="1170" x2="1294.2" y1="1123.6623" y2="1123.6623"/><line style="stroke:#181818;stroke-width:0.45;" x1="1170" x2="1294.2" y1="1130.8623" y2="1130.8623"/></g><!--class RobotTypeModel--><g id="elem_RobotTypeModel"><rect codeLine="92" fill="#F1F1F1" height="43.2" id="RobotTypeModel" rx="2.25" ry="2.25" style="stroke:#181818;stroke-width:0.45;" width="126" x="1326.6" y="1094.8623"/><ellipse cx="1340.1" cy="1109.2623" fill="#ADD1B2" rx="9.9" ry="9.9" style="stroke:#181818;stroke-width:0.9;"/><path d="M1342.5891,1105.5498 Q1342.7297,1105.3529 1342.8984,1105.2545 Q1343.0672,1105.1561 1343.2641,1105.1561 Q1343.6016,1105.1561 1343.8125,1105.3951 Q1344.0234,1105.6201 1344.0234,1106.1686 L1344.0234,1107.4764 Q1344.0234,1108.0248 1343.8125,1108.2639 Q1343.6016,1108.5029 1343.2641,1108.5029 Q1342.9547,1108.5029 1342.7719,1108.3201 Q1342.5891,1108.1514 1342.4906,1107.6873 Q1342.4484,1107.3639 1342.2797,1107.1951 Q1341.9844,1106.8576 1341.4359,1106.6607 Q1340.8875,1106.4639 1340.325,1106.4639 Q1339.6359,1106.4639 1339.0594,1106.7592 Q1338.4969,1107.0545 1338.0469,1107.7295 Q1337.6109,1108.4045 1337.6109,1109.3326 L1337.6109,1110.317 Q1337.6109,1111.4279 1338.4125,1112.1732 Q1339.2141,1112.9045 1340.6484,1112.9045 Q1341.4922,1112.9045 1342.0828,1112.6795 Q1342.4344,1112.5389 1342.8141,1112.1451 Q1343.0531,1111.9061 1343.1797,1111.8357 Q1343.3203,1111.7654 1343.5031,1111.7654 Q1343.7984,1111.7654 1344.0234,1112.0045 Q1344.2625,1112.2295 1344.2625,1112.5389 Q1344.2625,1112.8482 1343.9531,1113.2139 Q1343.5031,1113.7342 1342.7859,1114.0295 Q1341.8156,1114.4373 1340.6484,1114.4373 Q1339.2844,1114.4373 1338.2016,1113.8748 Q1337.3156,1113.4248 1336.6969,1112.4686 Q1336.0781,1111.4982 1336.0781,1110.3451 L1336.0781,1109.3045 Q1336.0781,1108.1092 1336.6266,1107.0826 Q1337.1891,1106.042 1338.1734,1105.4936 Q1339.1578,1104.9311 1340.2688,1104.9311 Q1340.9297,1104.9311 1341.5063,1105.0857 Q1342.0969,1105.2264 1342.5891,1105.5498 Z " fill="#000000"/><text fill="#000000" font-family="sans-serif" font-size="12.6" lengthAdjust="spacing" textLength="97.2" x="1352.7" y="1114.4795">RobotTypeModel</text><line style="stroke:#181818;stroke-width:0.45;" x1="1327.5" x2="1451.7" y1="1123.6623" y2="1123.6623"/><line style="stroke:#181818;stroke-width:0.45;" x1="1327.5" x2="1451.7" y1="1130.8623" y2="1130.8623"/></g><!--class TaskType--><g id="elem_TaskType"><rect codeLine="93" fill="#F1F1F1" height="43.2" id="TaskType" rx="2.25" ry="2.25" style="stroke:#181818;stroke-width:0.45;" width="85.5" x="1484.55" y="1094.8623"/><ellipse cx="1498.05" cy="1109.2623" fill="#ADD1B2" rx="9.9" ry="9.9" style="stroke:#181818;stroke-width:0.9;"/><path d="M1500.5391,1105.5498 Q1500.6797,1105.3529 1500.8484,1105.2545 Q1501.0172,1105.1561 1501.2141,1105.1561 Q1501.5516,1105.1561 1501.7625,1105.3951 Q1501.9734,1105.6201 1501.9734,1106.1686 L1501.9734,1107.4764 Q1501.9734,1108.0248 1501.7625,1108.2639 Q1501.5516,1108.5029 1501.2141,1108.5029 Q1500.9047,1108.5029 1500.7219,1108.3201 Q1500.5391,1108.1514 1500.4406,1107.6873 Q1500.3984,1107.3639 1500.2297,1107.1951 Q1499.9344,1106.8576 1499.3859,1106.6607 Q1498.8375,1106.4639 1498.275,1106.4639 Q1497.5859,1106.4639 1497.0094,1106.7592 Q1496.4469,1107.0545 1495.9969,1107.7295 Q1495.5609,1108.4045 1495.5609,1109.3326 L1495.5609,1110.317 Q1495.5609,1111.4279 1496.3625,1112.1732 Q1497.1641,1112.9045 1498.5984,1112.9045 Q1499.4422,1112.9045 1500.0328,1112.6795 Q1500.3844,1112.5389 1500.7641,1112.1451 Q1501.0031,1111.9061 1501.1297,1111.8357 Q1501.2703,1111.7654 1501.4531,1111.7654 Q1501.7484,1111.7654 1501.9734,1112.0045 Q1502.2125,1112.2295 1502.2125,1112.5389 Q1502.2125,1112.8482 1501.9031,1113.2139 Q1501.4531,1113.7342 1500.7359,1114.0295 Q1499.7656,1114.4373 1498.5984,1114.4373 Q1497.2344,1114.4373 1496.1516,1113.8748 Q1495.2656,1113.4248 1494.6469,1112.4686 Q1494.0281,1111.4982 1494.0281,1110.3451 L1494.0281,1109.3045 Q1494.0281,1108.1092 1494.5766,1107.0826 Q1495.1391,1106.042 1496.1234,1105.4936 Q1497.1078,1104.9311 1498.2188,1104.9311 Q1498.8797,1104.9311 1499.4563,1105.0857 Q1500.0469,1105.2264 1500.5391,1105.5498 Z " fill="#000000"/><text fill="#000000" font-family="sans-serif" font-size="12.6" lengthAdjust="spacing" textLength="56.7" x="1510.65" y="1114.4795">TaskType</text><line style="stroke:#181818;stroke-width:0.45;" x1="1485.45" x2="1569.15" y1="1123.6623" y2="1123.6623"/><line style="stroke:#181818;stroke-width:0.45;" x1="1485.45" x2="1569.15" y1="1130.8623" y2="1130.8623"/></g><!--class IRobotTypeDTO--><g id="elem_IRobotTypeDTO"><rect codeLine="106" fill="#F1F1F1" height="43.2" id="IRobotTypeDTO" rx="2.25" ry="2.25" style="stroke:#181818;stroke-width:0.45;" width="122.4" x="502.2" y="528.3123"/><ellipse cx="515.7" cy="542.7123" fill="#B4A7E5" rx="9.9" ry="9.9" style="stroke:#181818;stroke-width:0.9;"/><path d="M516.5578,539.6889 L516.5578,545.6795 L518.1047,545.6795 Q518.6531,545.6795 518.8922,545.8904 Q519.1313,546.1014 519.1313,546.4529 Q519.1313,546.7904 518.8922,547.0014 Q518.6531,547.2123 518.1047,547.2123 L513.4781,547.2123 Q512.9297,547.2123 512.6906,547.0014 Q512.4516,546.7904 512.4516,546.4389 Q512.4516,546.1014 512.6906,545.8904 Q512.9297,545.6795 513.4781,545.6795 L515.025,545.6795 L515.025,539.6889 L513.4781,539.6889 Q512.9297,539.6889 512.6906,539.4779 Q512.4516,539.267 512.4516,538.9154 Q512.4516,538.5779 512.6906,538.367 Q512.9297,538.1561 513.4781,538.1561 L518.1047,538.1561 Q518.6531,538.1561 518.8922,538.367 Q519.1313,538.5779 519.1313,538.9154 Q519.1313,539.267 518.8922,539.4779 Q518.6531,539.6889 518.1047,539.6889 L516.5578,539.6889 Z " fill="#000000"/><text fill="#000000" font-family="sans-serif" font-size="12.6" font-style="italic" lengthAdjust="spacing" textLength="93.6" x="528.3" y="547.9295">IRobotTypeDTO</text><line style="stroke:#181818;stroke-width:0.45;" x1="503.1" x2="623.7" y1="557.1123" y2="557.1123"/><line style="stroke:#181818;stroke-width:0.45;" x1="503.1" x2="623.7" y1="564.3123" y2="564.3123"/></g><!--link DBDriver to IDBDriver--><g id="link_DBDriver_IDBDriver"><path codeLine="24" d="M276.111,141.3123 C280.53,141.3123 284.94,141.3123 289.359,141.3123 " fill="none" id="DBDriver-to-IDBDriver" style="stroke:#FF6655;stroke-width:0.9;"/><polygon fill="none" points="289.512,135.0123,307.512,141.3123,289.512,147.6123,289.512,135.0123" style="stroke:#FF6655;stroke-width:0.9;"/></g><!--reverse link IControllerRobotType to ControllerRobotType--><g id="link_IControllerRobotType_ControllerRobotType"><path codeLine="36" d="M160.38,396.4083 C160.569,436.2783 160.857,496.6323 161.001,528.1593 " fill="none" id="IControllerRobotType-backto-ControllerRobotType" style="stroke:#FF6655;stroke-width:0.9;"/><polygon fill="none" points="154.08,396.2193,160.299,378.1923,166.68,396.1653,154.08,396.2193" style="stroke:#FF6655;stroke-width:0.9;"/></g><!--reverse link DBDriver to RepoRobotType--><g id="link_DBDriver_RepoRobotType"><path codeLine="44" d="M251.289,167.0163 C277.758,209.4063 331.227,295.0143 355.932,334.5873 " fill="none" id="DBDriver-backto-RepoRobotType" style="stroke:#FF6655;stroke-width:0.9;stroke-dasharray:7.0,7.0;"/><polygon fill="#FF6655" points="248.814,163.0563,250.0409,171.835,251.1932,166.8759,256.1523,168.0282,248.814,163.0563" style="stroke:#FF6655;stroke-width:0.9;"/></g><!--link RouteRobotType to IControllerRobotType--><g id="link_RouteRobotType_IControllerRobotType"><path codeLine="47" d="M479.403,163.2093 C460.413,178.0773 432.783,196.9413 405,206.1123 C381.402,213.8973 315.873,202.7013 293.4,213.3123 C239.175,238.9263 196.173,297.2643 174.852,330.7173 " fill="none" id="RouteRobotType-to-IControllerRobotType" style="stroke:#FF6655;stroke-width:0.9;stroke-dasharray:7.0,7.0;"/><polygon fill="#FF6655" points="172.359,334.6683,179.7168,329.7253,174.7532,330.8581,173.6205,325.8946,172.359,334.6683" style="stroke:#FF6655;stroke-width:0.9;"/></g><!--link AppServiceRobotType to IAppServiceRobotType--><g id="link_AppServiceRobotType_IAppServiceRobotType"><path codeLine="60" d="M797.49,727.2753 C797.643,761.2233 797.94,829.1733 798.129,872.3193 " fill="none" id="AppServiceRobotType-to-IAppServiceRobotType" style="stroke:#FF6655;stroke-width:0.9;"/><polygon fill="none" points="804.429,872.4183,798.21,890.4453,791.829,872.4723,804.429,872.4183" style="stroke:#FF6655;stroke-width:0.9;"/></g><!--link RepoRobotType to IRepoRobotType--><g id="link_RepoRobotType_IRepoRobotType"><path codeLine="67" d="M430.353,358.6443 C487.26,362.1093 572.859,373.1253 639,406.8123 C689.409,432.4803 734.499,480.6213 761.634,513.7233 " fill="none" id="RepoRobotType-to-IRepoRobotType" style="stroke:#FF6655;stroke-width:0.9;"/><polygon fill="none" points="766.854,510.1593,773.127,528.1683,756.99,518.0073,766.854,510.1593" style="stroke:#FF6655;stroke-width:0.9;"/></g><!--link ControllerRobotType to IAppServiceRobotType--><g id="link_ControllerRobotType_IAppServiceRobotType"><path codeLine="71" d="M171.558,571.7553 C192.672,611.9223 244.215,700.1403 312.3,748.8123 C436.032,837.2553 611.244,880.0233 713.997,898.6713 " fill="none" id="ControllerRobotType-to-IAppServiceRobotType" style="stroke:#FF6655;stroke-width:0.9;stroke-dasharray:7.0,7.0;"/><polygon fill="#FF6655" points="718.533,899.4903,711.2,894.5107,714.1044,898.6921,709.9229,901.5965,718.533,899.4903" style="stroke:#FF6655;stroke-width:0.9;"/></g><!--reverse link IRepoRobotType to AppServiceRobotType--><g id="link_IRepoRobotType_AppServiceRobotType"><path codeLine="73" d="M789.885,576.2193 C791.649,606.2973 794.538,655.8333 796.176,683.7963 " fill="none" id="IRepoRobotType-backto-AppServiceRobotType" style="stroke:#FF6655;stroke-width:0.9;stroke-dasharray:7.0,7.0;"/><polygon fill="#FF6655" points="789.615,571.5663,786.5066,579.8674,789.8845,576.0582,793.6937,579.4362,789.615,571.5663" style="stroke:#FF6655;stroke-width:0.9;"/></g><!--link RobotType to RobotTypeCode--><g id="link_RobotType_RobotTypeCode"><path codeLine="97" d="M1205.739,946.8303 C1190.511,966.3693 1171.026,991.4613 1153.8,1013.8623 C1133.685,1040.0253 1110.816,1070.1213 1095.183,1090.7403 " fill="none" id="RobotType-to-RobotTypeCode" style="stroke:#FF6655;stroke-width:0.9;"/><polygon fill="#FF6655" points="1092.348,1094.4843,1100.115,1090.213,1095.0705,1090.9013,1094.3822,1085.8569,1092.348,1094.4843" style="stroke:#FF6655;stroke-width:0.9;"/><text fill="#000000" font-family="Impact" font-size="11.7" lengthAdjust="spacing" textLength="4.5" x="1196.6791" y="965.3283">1</text><text fill="#000000" font-family="Impact" font-size="11.7" lengthAdjust="spacing" textLength="4.5" x="1091.5293" y="1085.1701">1</text></g><!--link RobotType to RobotTypeBrand--><g id="link_RobotType_RobotTypeBrand"><path codeLine="98" d="M1232.1,946.9563 C1232.1,987.2583 1232.1,1053.6063 1232.1,1089.8943 " fill="none" id="RobotType-to-RobotTypeBrand" style="stroke:#FF6655;stroke-width:0.9;"/><polygon fill="#FF6655" points="1232.1,1094.5923,1235.7,1086.4923,1232.1,1090.0923,1228.5,1086.4923,1232.1,1094.5923" style="stroke:#FF6655;stroke-width:0.9;"/><text fill="#000000" font-family="Impact" font-size="11.7" lengthAdjust="spacing" textLength="4.5" x="1227.2414" y="965.4744">1</text><text fill="#000000" font-family="Impact" font-size="11.7" lengthAdjust="spacing" textLength="4.5" x="1226.9953" y="1085.3071">1</text></g><!--link RobotType to RobotTypeModel--><g id="link_RobotType_RobotTypeModel"><path codeLine="99" d="M1258.767,946.8303 C1274.166,966.3693 1293.876,991.4613 1311.3,1013.8623 C1331.649,1040.0253 1354.788,1070.1213 1370.601,1090.7403 " fill="none" id="RobotType-to-RobotTypeModel" style="stroke:#FF6655;stroke-width:0.9;"/><polygon fill="#FF6655" points="1373.463,1094.4753,1371.3943,1085.8561,1370.7261,1090.9032,1365.679,1090.2351,1373.463,1094.4753" style="stroke:#FF6655;stroke-width:0.9;"/><text fill="#000000" font-family="Impact" font-size="11.7" lengthAdjust="spacing" textLength="4.5" x="1258.1585" y="965.3283">1</text><text fill="#000000" font-family="Impact" font-size="11.7" lengthAdjust="spacing" textLength="4.5" x="1364.0215" y="1085.1586">1</text></g><!--link RobotType to TaskType--><g id="link_RobotType_TaskType"><path codeLine="100" d="M1278.036,923.2503 C1329.525,936.6333 1413.09,964.4343 1468.8,1013.8623 C1492.371,1034.7693 1508.814,1067.5473 1518.138,1090.2093 " fill="none" id="RobotType-to-TaskType" style="stroke:#FF6655;stroke-width:0.9;"/><polygon fill="#FF6655" points="1519.911,1094.6013,1520.2123,1085.7425,1518.2242,1090.4294,1513.5373,1088.4413,1519.911,1094.6013" style="stroke:#FF6655;stroke-width:0.9;"/><text fill="#000000" font-family="Impact" font-size="11.7" lengthAdjust="spacing" textLength="4.5" x="1285.1133" y="922.2771">1</text><text fill="#000000" font-family="Impact" font-size="11.7" lengthAdjust="spacing" textLength="3.6" x="1513.8415" y="1085.3185">*</text></g><!--link AppServiceRobotType to RobotType--><g id="link_AppServiceRobotType_RobotType"><path codeLine="102" d="M841.473,727.2753 C922.77,765.5613 1095.849,847.0833 1181.673,887.5113 " fill="none" id="AppServiceRobotType-to-RobotType" style="stroke:#FF6655;stroke-width:0.9;stroke-dasharray:7.0,7.0;"/><polygon fill="#FF6655" points="1185.948,889.5273,1180.1488,882.8236,1181.8754,887.6131,1177.086,889.3397,1185.948,889.5273" style="stroke:#FF6655;stroke-width:0.9;"/></g><!--reverse link IRobotTypeDTO to AppServiceRobotType--><g id="link_IRobotTypeDTO_AppServiceRobotType"><path codeLine="109" d="M603.756,574.0053 C634.788,592.1673 678.483,618.4833 715.5,643.5123 C734.472,656.3373 755.118,671.7813 770.931,683.9403 " fill="none" id="IRobotTypeDTO-backto-AppServiceRobotType" style="stroke:#FF6655;stroke-width:0.9;"/><polygon fill="#FF6655" points="599.652,571.6023,604.8302,578.7965,603.5376,573.8721,608.4619,572.5795,599.652,571.6023" style="stroke:#FF6655;stroke-width:0.9;"/></g><!--reverse link IRobotTypeDTO to CqontrollerRobotType--><g id="link_IRobotTypeDTO_CqontrollerRobotType"><path codeLine="110" d="M563.4,576.2193 C563.4,606.2973 563.4,655.8333 563.4,683.7963 " fill="none" id="IRobotTypeDTO-backto-CqontrollerRobotType" style="stroke:#FF6655;stroke-width:0.9;"/><polygon fill="#FF6655" points="563.4,571.5663,559.8,579.6663,563.4,576.0663,567,579.6663,563.4,571.5663" style="stroke:#FF6655;stroke-width:0.9;"/></g><!--SRC=[bLN9Rjim4BtxAmZrLi0ESeXFWW0lDH2WROhOwBMWfOd2cY9PYdBXjlxtJhIJfYH45rkQD_DcUUJa9oOKrJGZiSoK520C-JiZ-EoaC7ls1yZzidnVq_YKQbc8P2Evr66uKZH-XIWYdrdwQZPIKru1fKv0kw0Fkzro-V3GXlvACo0RMMW6sdKZHuvaFbQo1L3xqsND2oZjAwtbxpRUOuPqfZDKFWtrTJP3yuccGF9BRY2hAsq-1e_YHTFSw28sXOO0pQNTmZpBma0UrAxD4tEQvwIqFSkZD8UBWXPmlOto3NJEC0KHWnkA2GFwXSPOpNQzrUnSzyUckZ5TkrmR6vdhjydC_qLEg1hRgxkXN2LKuN-hlXQsmJPhoRbZjqEDW9pgEkHjovoAR8fCyGcMgaVJ1Fqt3vhC2rLsRopIrISIK39dHgAuXwI2Y2wMBvY588j2BQ9kwZsOfJcoM8oawyvzfHHdCJLC2h87VMOn-2UFG2_0dWkYXa3Ew3la-qS_mLArzvq47ZYPbvFt1Hh8RMpeJlq3q_TaPgkWocbQEpujbyeOBSVNXKftFafNJ9-4OGPBlyDD07TRcL4c_69AKmqfhM_HWMwsP06XEQ4_ZWNZ2HEffw_mHdmXNSvXgAKqk7F2iB95qS2vnneyf_SxnUr2deu_8JR3ShSpFCkn59lrK7jiP09JcBMc8fa2VS50V01qeFbfvChhtpHjvuBx03KMbR_-R2UmTjOJO3jx5_o6_XXqPOpB54LweqzhNDl3Kt-K_SFO-26ax-gz570XH8vBUU1-3MmF5toT_GS0]--></g></svg>