<?xml version="1.0" encoding="us-ascii" standalone="no"?><svg xmlns="http://www.w3.org/2000/svg" xmlns:xlink="http://www.w3.org/1999/xlink" contentStyleType="text/css" height="1223.1px" preserveAspectRatio="none" style="width:1483px;height:1223px;background:#FFFFFF;" version="1.1" viewBox="0 0 1483 1223" width="1483.2px" zoomAndPan="magnify"><defs/><g><!--cluster system--><g id="cluster_system"><path d="M7.65,5.4123 L52.65,5.4123 A3.375,3.375 0 0 1 54.9,7.6623 L61.2,27.5713 L1474.65,27.5713 A2.25,2.25 0 0 1 1476.9,29.8213 L1476.9,1215.0123 A2.25,2.25 0 0 1 1474.65,1217.2623 L7.65,1217.2623 A2.25,2.25 0 0 1 5.4,1215.0123 L5.4,7.6623 A2.25,2.25 0 0 1 7.65,5.4123 " fill="none" style="stroke:#000000;stroke-width:1.35;"/><line style="stroke:#000000;stroke-width:1.35;" x1="5.4" x2="61.2" y1="27.5713" y2="27.5713"/><text fill="#000000" font-family="sans-serif" font-size="12.6" font-weight="bold" lengthAdjust="spacing" textLength="44.1" x="9" y="20.809">system</text></g><!--cluster Infrastructure--><g id="cluster_Infrastructure"><path d="M996.75,45.9123 L1084.95,45.9123 A3.375,3.375 0 0 1 1087.2,48.1623 L1093.5,68.0713 L1435.95,68.0713 A2.25,2.25 0 0 1 1438.2,70.3213 L1438.2,196.6623 A2.25,2.25 0 0 1 1435.95,198.9123 L996.75,198.9123 A2.25,2.25 0 0 1 994.5,196.6623 L994.5,48.1623 A2.25,2.25 0 0 1 996.75,45.9123 " fill="none" style="stroke:#000000;stroke-width:1.35;"/><line style="stroke:#000000;stroke-width:1.35;" x1="994.5" x2="1093.5" y1="68.0713" y2="68.0713"/><text fill="#000000" font-family="sans-serif" font-size="12.6" font-weight="bold" lengthAdjust="spacing" textLength="87.3" x="998.1" y="61.309">Infrastructure</text></g><!--cluster Routes--><g id="cluster_Routes"><path d="M1264.05,86.4123 L1309.95,86.4123 A3.375,3.375 0 0 1 1312.2,88.6623 L1318.5,108.5713 L1414.35,108.5713 A2.25,2.25 0 0 1 1416.6,110.8213 L1416.6,175.0623 A2.25,2.25 0 0 1 1414.35,177.3123 L1264.05,177.3123 A2.25,2.25 0 0 1 1261.8,175.0623 L1261.8,88.6623 A2.25,2.25 0 0 1 1264.05,86.4123 " fill="none" style="stroke:#000000;stroke-width:1.35;"/><line style="stroke:#000000;stroke-width:1.35;" x1="1261.8" x2="1318.5" y1="108.5713" y2="108.5713"/><text fill="#000000" font-family="sans-serif" font-size="12.6" font-weight="bold" lengthAdjust="spacing" textLength="45" x="1265.4" y="101.809">Routes</text></g><!--cluster Persistence--><g id="cluster_Persistence"><path d="M1018.35,86.4123 L1094.85,86.4123 A3.375,3.375 0 0 1 1097.1,88.6623 L1103.4,108.5713 L1237.95,108.5713 A2.25,2.25 0 0 1 1240.2,110.8213 L1240.2,175.0623 A2.25,2.25 0 0 1 1237.95,177.3123 L1018.35,177.3123 A2.25,2.25 0 0 1 1016.1,175.0623 L1016.1,88.6623 A2.25,2.25 0 0 1 1018.35,86.4123 " fill="none" style="stroke:#000000;stroke-width:1.35;"/><line style="stroke:#000000;stroke-width:1.35;" x1="1016.1" x2="1103.4" y1="108.5713" y2="108.5713"/><text fill="#000000" font-family="sans-serif" font-size="12.6" font-weight="bold" lengthAdjust="spacing" textLength="75.6" x="1019.7" y="101.809">Persistence</text></g><!--cluster Interface Adapters--><g id="cluster_Interface Adapters"><path d="M1018.35,220.5123 L1136.25,220.5123 A3.375,3.375 0 0 1 1138.5,222.7623 L1144.8,242.6713 L1453.05,242.6713 A2.25,2.25 0 0 1 1455.3,244.9213 L1455.3,626.8623 A2.25,2.25 0 0 1 1453.05,629.1123 L1018.35,629.1123 A2.25,2.25 0 0 1 1016.1,626.8623 L1016.1,222.7623 A2.25,2.25 0 0 1 1018.35,220.5123 " fill="none" style="stroke:#000000;stroke-width:1.35;"/><line style="stroke:#000000;stroke-width:1.35;" x1="1016.1" x2="1144.8" y1="242.6713" y2="242.6713"/><text fill="#000000" font-family="sans-serif" font-size="12.6" font-weight="bold" lengthAdjust="spacing" textLength="117" x="1019.7" y="235.909">Interface Adapters</text></g><!--cluster Controllers--><g id="cluster_Controllers"><path d="M1212.75,261.0123 L1284.75,261.0123 A3.375,3.375 0 0 1 1287,263.2623 L1293.3,283.1713 L1431.45,283.1713 A2.25,2.25 0 0 1 1433.7,285.4213 L1433.7,605.2623 A2.25,2.25 0 0 1 1431.45,607.5123 L1212.75,607.5123 A2.25,2.25 0 0 1 1210.5,605.2623 L1210.5,263.2623 A2.25,2.25 0 0 1 1212.75,261.0123 " fill="none" style="stroke:#000000;stroke-width:1.35;"/><line style="stroke:#000000;stroke-width:1.35;" x1="1210.5" x2="1293.3" y1="283.1713" y2="283.1713"/><text fill="#000000" font-family="sans-serif" font-size="12.6" font-weight="bold" lengthAdjust="spacing" textLength="71.1" x="1214.1" y="276.409">Controllers</text></g><!--cluster IControllers--><g id="cluster_IControllers"><path d="M1234.35,301.5123 L1309.95,301.5123 A3.375,3.375 0 0 1 1312.2,303.7623 L1318.5,323.6713 L1409.85,323.6713 A2.25,2.25 0 0 1 1412.1,325.9213 L1412.1,390.1623 A2.25,2.25 0 0 1 1409.85,392.4123 L1234.35,392.4123 A2.25,2.25 0 0 1 1232.1,390.1623 L1232.1,303.7623 A2.25,2.25 0 0 1 1234.35,301.5123 " fill="none" style="stroke:#000000;stroke-width:1.35;"/><line style="stroke:#000000;stroke-width:1.35;" x1="1232.1" x2="1318.5" y1="323.6713" y2="323.6713"/><text fill="#000000" font-family="sans-serif" font-size="12.6" font-weight="bold" lengthAdjust="spacing" textLength="74.7" x="1235.7" y="316.909">IControllers</text></g><!--cluster ImplControllers--><g id="cluster_ImplControllers"><path d="M1234.35,495.0123 L1332.45,495.0123 A3.375,3.375 0 0 1 1334.7,497.2623 L1341,517.1713 L1406.25,517.1713 A2.25,2.25 0 0 1 1408.5,519.4213 L1408.5,583.6623 A2.25,2.25 0 0 1 1406.25,585.9123 L1234.35,585.9123 A2.25,2.25 0 0 1 1232.1,583.6623 L1232.1,497.2623 A2.25,2.25 0 0 1 1234.35,495.0123 " fill="none" style="stroke:#000000;stroke-width:1.35;"/><line style="stroke:#000000;stroke-width:1.35;" x1="1232.1" x2="1341" y1="517.1713" y2="517.1713"/><text fill="#000000" font-family="sans-serif" font-size="12.6" font-weight="bold" lengthAdjust="spacing" textLength="97.2" x="1235.7" y="510.409">ImplControllers</text></g><!--cluster Repositories--><g id="cluster_Repositories"><path d="M1039.95,301.5123 L1121.85,301.5123 A3.375,3.375 0 0 1 1124.1,303.7623 L1130.4,323.6713 L1186.65,323.6713 A2.25,2.25 0 0 1 1188.9,325.9213 L1188.9,390.1623 A2.25,2.25 0 0 1 1186.65,392.4123 L1039.95,392.4123 A2.25,2.25 0 0 1 1037.7,390.1623 L1037.7,303.7623 A2.25,2.25 0 0 1 1039.95,301.5123 " fill="none" style="stroke:#000000;stroke-width:1.35;"/><line style="stroke:#000000;stroke-width:1.35;" x1="1037.7" x2="1130.4" y1="323.6713" y2="323.6713"/><text fill="#000000" font-family="sans-serif" font-size="12.6" font-weight="bold" lengthAdjust="spacing" textLength="81" x="1041.3" y="316.909">Repositories</text></g><!--cluster Application Services--><g id="cluster_Application Services"><path d="M721.35,414.0123 L851.85,414.0123 A3.375,3.375 0 0 1 854.1,416.2623 L860.4,436.1713 L992.25,436.1713 A2.25,2.25 0 0 1 994.5,438.4213 L994.5,989.1123 A2.25,2.25 0 0 1 992.25,991.3623 L721.35,991.3623 A2.25,2.25 0 0 1 719.1,989.1123 L719.1,416.2623 A2.25,2.25 0 0 1 721.35,414.0123 " fill="none" style="stroke:#000000;stroke-width:1.35;"/><line style="stroke:#000000;stroke-width:1.35;" x1="719.1" x2="860.4" y1="436.1713" y2="436.1713"/><text fill="#000000" font-family="sans-serif" font-size="12.6" font-weight="bold" lengthAdjust="spacing" textLength="129.6" x="722.7" y="429.409">Application Services</text></g><!--cluster App Services--><g id="cluster_App Services"><path d="M742.95,454.5123 L827.55,454.5123 A3.375,3.375 0 0 1 829.8,456.7623 L836.1,476.6713 L970.65,476.6713 A2.25,2.25 0 0 1 972.9,478.9213 L972.9,967.5123 A2.25,2.25 0 0 1 970.65,969.7623 L742.95,969.7623 A2.25,2.25 0 0 1 740.7,967.5123 L740.7,456.7623 A2.25,2.25 0 0 1 742.95,454.5123 " fill="none" style="stroke:#000000;stroke-width:1.35;"/><line style="stroke:#000000;stroke-width:1.35;" x1="740.7" x2="836.1" y1="476.6713" y2="476.6713"/><text fill="#000000" font-family="sans-serif" font-size="12.6" font-weight="bold" lengthAdjust="spacing" textLength="83.7" x="744.3" y="469.909">App Services</text></g><!--cluster IAppServices--><g id="cluster_IAppServices"><path d="M764.55,857.2623 L849.15,857.2623 A3.375,3.375 0 0 1 851.4,859.5123 L857.7,879.4213 L949.05,879.4213 A2.25,2.25 0 0 1 951.3,881.6713 L951.3,945.9123 A2.25,2.25 0 0 1 949.05,948.1623 L764.55,948.1623 A2.25,2.25 0 0 1 762.3,945.9123 L762.3,859.5123 A2.25,2.25 0 0 1 764.55,857.2623 " fill="none" style="stroke:#000000;stroke-width:1.35;"/><line style="stroke:#000000;stroke-width:1.35;" x1="762.3" x2="857.7" y1="879.4213" y2="879.4213"/><text fill="#000000" font-family="sans-serif" font-size="12.6" font-weight="bold" lengthAdjust="spacing" textLength="83.7" x="765.9" y="872.659">IAppServices</text></g><!--cluster ImplAppServices--><g id="cluster_ImplAppServices"><path d="M765.45,650.7123 L872.55,650.7123 A3.375,3.375 0 0 1 874.8,652.9623 L881.1,672.8713 L946.35,672.8713 A2.25,2.25 0 0 1 948.6,675.1213 L948.6,739.3623 A2.25,2.25 0 0 1 946.35,741.6123 L765.45,741.6123 A2.25,2.25 0 0 1 763.2,739.3623 L763.2,652.9623 A2.25,2.25 0 0 1 765.45,650.7123 " fill="none" style="stroke:#000000;stroke-width:1.35;"/><line style="stroke:#000000;stroke-width:1.35;" x1="763.2" x2="881.1" y1="672.8713" y2="672.8713"/><text fill="#000000" font-family="sans-serif" font-size="12.6" font-weight="bold" lengthAdjust="spacing" textLength="106.2" x="766.8" y="666.109">ImplAppServices</text></g><!--cluster IRepositories--><g id="cluster_IRepositories"><path d="M798.75,495.0123 L884.25,495.0123 A3.375,3.375 0 0 1 886.5,497.2623 L892.8,517.1713 L949.05,517.1713 A2.25,2.25 0 0 1 951.3,519.4213 L951.3,583.6623 A2.25,2.25 0 0 1 949.05,585.9123 L798.75,585.9123 A2.25,2.25 0 0 1 796.5,583.6623 L796.5,497.2623 A2.25,2.25 0 0 1 798.75,495.0123 " fill="none" style="stroke:#000000;stroke-width:1.35;"/><line style="stroke:#000000;stroke-width:1.35;" x1="796.5" x2="892.8" y1="517.1713" y2="517.1713"/><text fill="#000000" font-family="sans-serif" font-size="12.6" font-weight="bold" lengthAdjust="spacing" textLength="84.6" x="800.1" y="510.409">IRepositories</text></g><!--cluster Entities/Core/Domain--><g id="cluster_Entities/Core/Domain"><path d="M29.25,763.2123 L162.45,763.2123 A3.375,3.375 0 0 1 164.7,765.4623 L171,785.3713 L695.25,785.3713 A2.25,2.25 0 0 1 697.5,787.6213 L697.5,1193.4123 A2.25,2.25 0 0 1 695.25,1195.6623 L29.25,1195.6623 A2.25,2.25 0 0 1 27,1193.4123 L27,765.4623 A2.25,2.25 0 0 1 29.25,763.2123 " fill="none" style="stroke:#000000;stroke-width:1.35;"/><line style="stroke:#000000;stroke-width:1.35;" x1="27" x2="171" y1="785.3713" y2="785.3713"/><text fill="#000000" font-family="sans-serif" font-size="12.6" font-weight="bold" lengthAdjust="spacing" textLength="132.3" x="30.6" y="778.609">Entities/Core/Domain</text></g><!--cluster Aggregates--><g id="cluster_Aggregates"><path d="M379.35,803.7123 L453.15,803.7123 A3.375,3.375 0 0 1 455.4,805.9623 L461.7,825.8713 L538.65,825.8713 A2.25,2.25 0 0 1 540.9,828.1213 L540.9,980.5623 A2.25,2.25 0 0 1 538.65,982.8123 L379.35,982.8123 A2.25,2.25 0 0 1 377.1,980.5623 L377.1,805.9623 A2.25,2.25 0 0 1 379.35,803.7123 " fill="none" style="stroke:#000000;stroke-width:1.35;"/><line style="stroke:#000000;stroke-width:1.35;" x1="377.1" x2="461.7" y1="825.8713" y2="825.8713"/><text fill="#000000" font-family="sans-serif" font-size="12.6" font-weight="bold" lengthAdjust="spacing" textLength="72.9" x="380.7" y="819.109">Aggregates</text></g><!--cluster a_building--><g id="cluster_a_building"><path d="M400.95,844.2123 L469.35,844.2123 A3.375,3.375 0 0 1 471.6,846.4623 L477.9,866.3713 L517.05,866.3713 A2.25,2.25 0 0 1 519.3,868.6213 L519.3,958.9623 A2.25,2.25 0 0 1 517.05,961.2123 L400.95,961.2123 A2.25,2.25 0 0 1 398.7,958.9623 L398.7,846.4623 A2.25,2.25 0 0 1 400.95,844.2123 " fill="none" style="stroke:#000000;stroke-width:1.35;"/><line style="stroke:#000000;stroke-width:1.35;" x1="398.7" x2="477.9" y1="866.3713" y2="866.3713"/><text fill="#000000" font-family="sans-serif" font-size="12.6" font-weight="bold" lengthAdjust="spacing" textLength="67.5" x="402.3" y="859.609">RobotType</text></g><!--cluster Value Objects--><g id="cluster_Value Objects"><path d="M50.85,1021.0623 L139.05,1021.0623 A3.375,3.375 0 0 1 141.3,1023.3123 L147.6,1043.2213 L673.65,1043.2213 A2.25,2.25 0 0 1 675.9,1045.4713 L675.9,1171.8123 A2.25,2.25 0 0 1 673.65,1174.0623 L50.85,1174.0623 A2.25,2.25 0 0 1 48.6,1171.8123 L48.6,1023.3123 A2.25,2.25 0 0 1 50.85,1021.0623 " fill="none" style="stroke:#000000;stroke-width:1.35;"/><line style="stroke:#000000;stroke-width:1.35;" x1="48.6" x2="147.6" y1="1043.2213" y2="1043.2213"/><text fill="#000000" font-family="sans-serif" font-size="12.6" font-weight="bold" lengthAdjust="spacing" textLength="87.3" x="52.2" y="1036.459">Value Objects</text></g><!--cluster vo_building--><g id="cluster_vo_building"><path d="M72.45,1061.5623 L140.85,1061.5623 A3.375,3.375 0 0 1 143.1,1063.8123 L149.4,1083.7213 L652.05,1083.7213 A2.25,2.25 0 0 1 654.3,1085.9713 L654.3,1150.2123 A2.25,2.25 0 0 1 652.05,1152.4623 L72.45,1152.4623 A2.25,2.25 0 0 1 70.2,1150.2123 L70.2,1063.8123 A2.25,2.25 0 0 1 72.45,1061.5623 " fill="none" style="stroke:#000000;stroke-width:1.35;"/><line style="stroke:#000000;stroke-width:1.35;" x1="70.2" x2="149.4" y1="1083.7213" y2="1083.7213"/><text fill="#000000" font-family="sans-serif" font-size="12.6" font-weight="bold" lengthAdjust="spacing" textLength="67.5" x="73.8" y="1076.959">RobotType</text></g><!--cluster DTO--><g id="cluster_DTO"><path d="M775.35,301.5123 L802.35,301.5123 A3.375,3.375 0 0 1 804.6,303.7623 L810.9,323.6713 L922.05,323.6713 A2.25,2.25 0 0 1 924.3,325.9213 L924.3,390.1623 A2.25,2.25 0 0 1 922.05,392.4123 L775.35,392.4123 A2.25,2.25 0 0 1 773.1,390.1623 L773.1,303.7623 A2.25,2.25 0 0 1 775.35,301.5123 " fill="none" style="stroke:#000000;stroke-width:1.35;"/><line style="stroke:#000000;stroke-width:1.35;" x1="773.1" x2="810.9" y1="323.6713" y2="323.6713"/><text fill="#000000" font-family="sans-serif" font-size="12.6" font-weight="bold" lengthAdjust="spacing" textLength="26.1" x="776.7" y="316.909">DTO</text></g><!--class RouteRobotType--><g id="elem_RouteRobotType"><rect codeLine="17" fill="#F1F1F1" height="43.2" id="RouteRobotType" rx="2.25" ry="2.25" style="stroke:#181818;stroke-width:0.45;" width="126" x="1276.2" y="119.7123"/><ellipse cx="1289.7" cy="134.1123" fill="#ADD1B2" rx="9.9" ry="9.9" style="stroke:#181818;stroke-width:0.9;"/><path d="M1292.1891,130.3998 Q1292.3297,130.2029 1292.4984,130.1045 Q1292.6672,130.0061 1292.8641,130.0061 Q1293.2016,130.0061 1293.4125,130.2451 Q1293.6234,130.4701 1293.6234,131.0186 L1293.6234,132.3264 Q1293.6234,132.8748 1293.4125,133.1139 Q1293.2016,133.3529 1292.8641,133.3529 Q1292.5547,133.3529 1292.3719,133.1701 Q1292.1891,133.0014 1292.0906,132.5373 Q1292.0484,132.2139 1291.8797,132.0451 Q1291.5844,131.7076 1291.0359,131.5107 Q1290.4875,131.3139 1289.925,131.3139 Q1289.2359,131.3139 1288.6594,131.6092 Q1288.0969,131.9045 1287.6469,132.5795 Q1287.2109,133.2545 1287.2109,134.1826 L1287.2109,135.167 Q1287.2109,136.2779 1288.0125,137.0232 Q1288.8141,137.7545 1290.2484,137.7545 Q1291.0922,137.7545 1291.6828,137.5295 Q1292.0344,137.3889 1292.4141,136.9951 Q1292.6531,136.7561 1292.7797,136.6857 Q1292.9203,136.6154 1293.1031,136.6154 Q1293.3984,136.6154 1293.6234,136.8545 Q1293.8625,137.0795 1293.8625,137.3889 Q1293.8625,137.6982 1293.5531,138.0639 Q1293.1031,138.5842 1292.3859,138.8795 Q1291.4156,139.2873 1290.2484,139.2873 Q1288.8844,139.2873 1287.8016,138.7248 Q1286.9156,138.2748 1286.2969,137.3186 Q1285.6781,136.3482 1285.6781,135.1951 L1285.6781,134.1545 Q1285.6781,132.9592 1286.2266,131.9326 Q1286.7891,130.892 1287.7734,130.3436 Q1288.7578,129.7811 1289.8688,129.7811 Q1290.5297,129.7811 1291.1063,129.9357 Q1291.6969,130.0764 1292.1891,130.3998 Z " fill="#000000"/><text fill="#000000" font-family="sans-serif" font-size="12.6" lengthAdjust="spacing" textLength="97.2" x="1302.3" y="139.3295">RouteRobotType</text><line style="stroke:#181818;stroke-width:0.45;" x1="1277.1" x2="1401.3" y1="148.5123" y2="148.5123"/><line style="stroke:#181818;stroke-width:0.45;" x1="1277.1" x2="1401.3" y1="155.7123" y2="155.7123"/></g><!--class IDBDriver--><g id="elem_IDBDriver"><rect codeLine="20" fill="#F1F1F1" height="43.2" id="IDBDriver" rx="2.25" ry="2.25" style="stroke:#181818;stroke-width:0.45;" width="82.8" x="1143" y="119.7123"/><ellipse cx="1156.5" cy="134.1123" fill="#B4A7E5" rx="9.9" ry="9.9" style="stroke:#181818;stroke-width:0.9;"/><path d="M1157.3578,131.0889 L1157.3578,137.0795 L1158.9047,137.0795 Q1159.4531,137.0795 1159.6922,137.2904 Q1159.9313,137.5014 1159.9313,137.8529 Q1159.9313,138.1904 1159.6922,138.4014 Q1159.4531,138.6123 1158.9047,138.6123 L1154.2781,138.6123 Q1153.7297,138.6123 1153.4906,138.4014 Q1153.2516,138.1904 1153.2516,137.8389 Q1153.2516,137.5014 1153.4906,137.2904 Q1153.7297,137.0795 1154.2781,137.0795 L1155.825,137.0795 L1155.825,131.0889 L1154.2781,131.0889 Q1153.7297,131.0889 1153.4906,130.8779 Q1153.2516,130.667 1153.2516,130.3154 Q1153.2516,129.9779 1153.4906,129.767 Q1153.7297,129.5561 1154.2781,129.5561 L1158.9047,129.5561 Q1159.4531,129.5561 1159.6922,129.767 Q1159.9313,129.9779 1159.9313,130.3154 Q1159.9313,130.667 1159.6922,130.8779 Q1159.4531,131.0889 1158.9047,131.0889 L1157.3578,131.0889 Z " fill="#000000"/><text fill="#000000" font-family="sans-serif" font-size="12.6" font-style="italic" lengthAdjust="spacing" textLength="54" x="1169.1" y="139.3295">IDBDriver</text><line style="stroke:#181818;stroke-width:0.45;" x1="1143.9" x2="1224.9" y1="148.5123" y2="148.5123"/><line style="stroke:#181818;stroke-width:0.45;" x1="1143.9" x2="1224.9" y1="155.7123" y2="155.7123"/></g><!--class DBDriver--><g id="elem_DBDriver"><rect codeLine="21" fill="#F1F1F1" height="43.2" id="DBDriver" rx="2.25" ry="2.25" style="stroke:#181818;stroke-width:0.45;" width="80.1" x="1030.95" y="119.7123"/><ellipse cx="1044.45" cy="134.1123" fill="#ADD1B2" rx="9.9" ry="9.9" style="stroke:#181818;stroke-width:0.9;"/><path d="M1046.9391,130.3998 Q1047.0797,130.2029 1047.2484,130.1045 Q1047.4172,130.0061 1047.6141,130.0061 Q1047.9516,130.0061 1048.1625,130.2451 Q1048.3734,130.4701 1048.3734,131.0186 L1048.3734,132.3264 Q1048.3734,132.8748 1048.1625,133.1139 Q1047.9516,133.3529 1047.6141,133.3529 Q1047.3047,133.3529 1047.1219,133.1701 Q1046.9391,133.0014 1046.8406,132.5373 Q1046.7984,132.2139 1046.6297,132.0451 Q1046.3344,131.7076 1045.7859,131.5107 Q1045.2375,131.3139 1044.675,131.3139 Q1043.9859,131.3139 1043.4094,131.6092 Q1042.8469,131.9045 1042.3969,132.5795 Q1041.9609,133.2545 1041.9609,134.1826 L1041.9609,135.167 Q1041.9609,136.2779 1042.7625,137.0232 Q1043.5641,137.7545 1044.9984,137.7545 Q1045.8422,137.7545 1046.4328,137.5295 Q1046.7844,137.3889 1047.1641,136.9951 Q1047.4031,136.7561 1047.5297,136.6857 Q1047.6703,136.6154 1047.8531,136.6154 Q1048.1484,136.6154 1048.3734,136.8545 Q1048.6125,137.0795 1048.6125,137.3889 Q1048.6125,137.6982 1048.3031,138.0639 Q1047.8531,138.5842 1047.1359,138.8795 Q1046.1656,139.2873 1044.9984,139.2873 Q1043.6344,139.2873 1042.5516,138.7248 Q1041.6656,138.2748 1041.0469,137.3186 Q1040.4281,136.3482 1040.4281,135.1951 L1040.4281,134.1545 Q1040.4281,132.9592 1040.9766,131.9326 Q1041.5391,130.892 1042.5234,130.3436 Q1043.5078,129.7811 1044.6188,129.7811 Q1045.2797,129.7811 1045.8563,129.9357 Q1046.4469,130.0764 1046.9391,130.3998 Z " fill="#000000"/><text fill="#000000" font-family="sans-serif" font-size="12.6" lengthAdjust="spacing" textLength="51.3" x="1057.05" y="139.3295">DBDriver</text><line style="stroke:#181818;stroke-width:0.45;" x1="1031.85" x2="1110.15" y1="148.5123" y2="148.5123"/><line style="stroke:#181818;stroke-width:0.45;" x1="1031.85" x2="1110.15" y1="155.7123" y2="155.7123"/></g><!--class IControllerRobotType--><g id="elem_IControllerRobotType"><rect codeLine="30" fill="#F1F1F1" height="43.2" id="IControllerRobotType" rx="2.25" ry="2.25" style="stroke:#181818;stroke-width:0.45;" width="151.2" x="1246.5" y="334.8123"/><ellipse cx="1260" cy="349.2123" fill="#B4A7E5" rx="9.9" ry="9.9" style="stroke:#181818;stroke-width:0.9;"/><path d="M1260.8578,346.1889 L1260.8578,352.1795 L1262.4047,352.1795 Q1262.9531,352.1795 1263.1922,352.3904 Q1263.4313,352.6014 1263.4313,352.9529 Q1263.4313,353.2904 1263.1922,353.5014 Q1262.9531,353.7123 1262.4047,353.7123 L1257.7781,353.7123 Q1257.2297,353.7123 1256.9906,353.5014 Q1256.7516,353.2904 1256.7516,352.9389 Q1256.7516,352.6014 1256.9906,352.3904 Q1257.2297,352.1795 1257.7781,352.1795 L1259.325,352.1795 L1259.325,346.1889 L1257.7781,346.1889 Q1257.2297,346.1889 1256.9906,345.9779 Q1256.7516,345.767 1256.7516,345.4154 Q1256.7516,345.0779 1256.9906,344.867 Q1257.2297,344.6561 1257.7781,344.6561 L1262.4047,344.6561 Q1262.9531,344.6561 1263.1922,344.867 Q1263.4313,345.0779 1263.4313,345.4154 Q1263.4313,345.767 1263.1922,345.9779 Q1262.9531,346.1889 1262.4047,346.1889 L1260.8578,346.1889 Z " fill="#000000"/><text fill="#000000" font-family="sans-serif" font-size="12.6" font-style="italic" lengthAdjust="spacing" textLength="122.4" x="1272.6" y="354.4295">IControllerRobotType</text><line style="stroke:#181818;stroke-width:0.45;" x1="1247.4" x2="1396.8" y1="363.6123" y2="363.6123"/><line style="stroke:#181818;stroke-width:0.45;" x1="1247.4" x2="1396.8" y1="370.8123" y2="370.8123"/></g><!--class ControllerRobotType--><g id="elem_ControllerRobotType"><rect codeLine="34" fill="#F1F1F1" height="43.2" id="ControllerRobotType" rx="2.25" ry="2.25" style="stroke:#181818;stroke-width:0.45;" width="147.6" x="1246.5" y="528.3123"/><ellipse cx="1260" cy="542.7123" fill="#ADD1B2" rx="9.9" ry="9.9" style="stroke:#181818;stroke-width:0.9;"/><path d="M1262.4891,538.9998 Q1262.6297,538.8029 1262.7984,538.7045 Q1262.9672,538.6061 1263.1641,538.6061 Q1263.5016,538.6061 1263.7125,538.8451 Q1263.9234,539.0701 1263.9234,539.6186 L1263.9234,540.9264 Q1263.9234,541.4748 1263.7125,541.7139 Q1263.5016,541.9529 1263.1641,541.9529 Q1262.8547,541.9529 1262.6719,541.7701 Q1262.4891,541.6014 1262.3906,541.1373 Q1262.3484,540.8139 1262.1797,540.6451 Q1261.8844,540.3076 1261.3359,540.1107 Q1260.7875,539.9139 1260.225,539.9139 Q1259.5359,539.9139 1258.9594,540.2092 Q1258.3969,540.5045 1257.9469,541.1795 Q1257.5109,541.8545 1257.5109,542.7826 L1257.5109,543.767 Q1257.5109,544.8779 1258.3125,545.6232 Q1259.1141,546.3545 1260.5484,546.3545 Q1261.3922,546.3545 1261.9828,546.1295 Q1262.3344,545.9889 1262.7141,545.5951 Q1262.9531,545.3561 1263.0797,545.2857 Q1263.2203,545.2154 1263.4031,545.2154 Q1263.6984,545.2154 1263.9234,545.4545 Q1264.1625,545.6795 1264.1625,545.9889 Q1264.1625,546.2982 1263.8531,546.6639 Q1263.4031,547.1842 1262.6859,547.4795 Q1261.7156,547.8873 1260.5484,547.8873 Q1259.1844,547.8873 1258.1016,547.3248 Q1257.2156,546.8748 1256.5969,545.9186 Q1255.9781,544.9482 1255.9781,543.7951 L1255.9781,542.7545 Q1255.9781,541.5592 1256.5266,540.5326 Q1257.0891,539.492 1258.0734,538.9436 Q1259.0578,538.3811 1260.1688,538.3811 Q1260.8297,538.3811 1261.4063,538.5357 Q1261.9969,538.6764 1262.4891,538.9998 Z " fill="#000000"/><text fill="#000000" font-family="sans-serif" font-size="12.6" lengthAdjust="spacing" textLength="118.8" x="1272.6" y="547.9295">ControllerRobotType</text><line style="stroke:#181818;stroke-width:0.45;" x1="1247.4" x2="1393.2" y1="557.1123" y2="557.1123"/><line style="stroke:#181818;stroke-width:0.45;" x1="1247.4" x2="1393.2" y1="564.3123" y2="564.3123"/></g><!--class RepoRobotType--><g id="elem_RepoRobotType"><rect codeLine="40" fill="#F1F1F1" height="43.2" id="RepoRobotType" rx="2.25" ry="2.25" style="stroke:#181818;stroke-width:0.45;" width="122.4" x="1052.1" y="334.8123"/><ellipse cx="1065.6" cy="349.2123" fill="#ADD1B2" rx="9.9" ry="9.9" style="stroke:#181818;stroke-width:0.9;"/><path d="M1068.0891,345.4998 Q1068.2297,345.3029 1068.3984,345.2045 Q1068.5672,345.1061 1068.7641,345.1061 Q1069.1016,345.1061 1069.3125,345.3451 Q1069.5234,345.5701 1069.5234,346.1186 L1069.5234,347.4264 Q1069.5234,347.9748 1069.3125,348.2139 Q1069.1016,348.4529 1068.7641,348.4529 Q1068.4547,348.4529 1068.2719,348.2701 Q1068.0891,348.1014 1067.9906,347.6373 Q1067.9484,347.3139 1067.7797,347.1451 Q1067.4844,346.8076 1066.9359,346.6107 Q1066.3875,346.4139 1065.825,346.4139 Q1065.1359,346.4139 1064.5594,346.7092 Q1063.9969,347.0045 1063.5469,347.6795 Q1063.1109,348.3545 1063.1109,349.2826 L1063.1109,350.267 Q1063.1109,351.3779 1063.9125,352.1232 Q1064.7141,352.8545 1066.1484,352.8545 Q1066.9922,352.8545 1067.5828,352.6295 Q1067.9344,352.4889 1068.3141,352.0951 Q1068.5531,351.8561 1068.6797,351.7857 Q1068.8203,351.7154 1069.0031,351.7154 Q1069.2984,351.7154 1069.5234,351.9545 Q1069.7625,352.1795 1069.7625,352.4889 Q1069.7625,352.7982 1069.4531,353.1639 Q1069.0031,353.6842 1068.2859,353.9795 Q1067.3156,354.3873 1066.1484,354.3873 Q1064.7844,354.3873 1063.7016,353.8248 Q1062.8156,353.3748 1062.1969,352.4186 Q1061.5781,351.4482 1061.5781,350.2951 L1061.5781,349.2545 Q1061.5781,348.0592 1062.1266,347.0326 Q1062.6891,345.992 1063.6734,345.4436 Q1064.6578,344.8811 1065.7688,344.8811 Q1066.4297,344.8811 1067.0063,345.0357 Q1067.5969,345.1764 1068.0891,345.4998 Z " fill="#000000"/><text fill="#000000" font-family="sans-serif" font-size="12.6" lengthAdjust="spacing" textLength="93.6" x="1078.2" y="354.4295">RepoRobotType</text><line style="stroke:#181818;stroke-width:0.45;" x1="1053" x2="1173.6" y1="363.6123" y2="363.6123"/><line style="stroke:#181818;stroke-width:0.45;" x1="1053" x2="1173.6" y1="370.8123" y2="370.8123"/></g><!--class IAppServiceRobotType--><g id="elem_IAppServiceRobotType"><rect codeLine="53" fill="#F1F1F1" height="43.2" id="IAppServiceRobotType" rx="2.25" ry="2.25" style="stroke:#181818;stroke-width:0.45;" width="159.3" x="777.15" y="890.5623"/><ellipse cx="790.65" cy="904.9623" fill="#B4A7E5" rx="9.9" ry="9.9" style="stroke:#181818;stroke-width:0.9;"/><path d="M791.5078,901.9389 L791.5078,907.9295 L793.0547,907.9295 Q793.6031,907.9295 793.8422,908.1404 Q794.0813,908.3514 794.0813,908.7029 Q794.0813,909.0404 793.8422,909.2514 Q793.6031,909.4623 793.0547,909.4623 L788.4281,909.4623 Q787.8797,909.4623 787.6406,909.2514 Q787.4016,909.0404 787.4016,908.6889 Q787.4016,908.3514 787.6406,908.1404 Q787.8797,907.9295 788.4281,907.9295 L789.975,907.9295 L789.975,901.9389 L788.4281,901.9389 Q787.8797,901.9389 787.6406,901.7279 Q787.4016,901.517 787.4016,901.1654 Q787.4016,900.8279 787.6406,900.617 Q787.8797,900.4061 788.4281,900.4061 L793.0547,900.4061 Q793.6031,900.4061 793.8422,900.617 Q794.0813,900.8279 794.0813,901.1654 Q794.0813,901.517 793.8422,901.7279 Q793.6031,901.9389 793.0547,901.9389 L791.5078,901.9389 Z " fill="#000000"/><text fill="#000000" font-family="sans-serif" font-size="12.6" font-style="italic" lengthAdjust="spacing" textLength="130.5" x="803.25" y="910.1795">IAppServiceRobotType</text><line style="stroke:#181818;stroke-width:0.45;" x1="778.05" x2="935.55" y1="919.3623" y2="919.3623"/><line style="stroke:#181818;stroke-width:0.45;" x1="778.05" x2="935.55" y1="926.5623" y2="926.5623"/></g><!--class AppServiceRobotType--><g id="elem_AppServiceRobotType"><rect codeLine="57" fill="#F1F1F1" height="43.2" id="AppServiceRobotType" rx="2.25" ry="2.25" style="stroke:#181818;stroke-width:0.45;" width="156.6" x="777.6" y="684.0123"/><ellipse cx="791.1" cy="698.4123" fill="#ADD1B2" rx="9.9" ry="9.9" style="stroke:#181818;stroke-width:0.9;"/><path d="M793.5891,694.6998 Q793.7297,694.5029 793.8984,694.4045 Q794.0672,694.3061 794.2641,694.3061 Q794.6016,694.3061 794.8125,694.5451 Q795.0234,694.7701 795.0234,695.3186 L795.0234,696.6264 Q795.0234,697.1748 794.8125,697.4139 Q794.6016,697.6529 794.2641,697.6529 Q793.9547,697.6529 793.7719,697.4701 Q793.5891,697.3014 793.4906,696.8373 Q793.4484,696.5139 793.2797,696.3451 Q792.9844,696.0076 792.4359,695.8107 Q791.8875,695.6139 791.325,695.6139 Q790.6359,695.6139 790.0594,695.9092 Q789.4969,696.2045 789.0469,696.8795 Q788.6109,697.5545 788.6109,698.4826 L788.6109,699.467 Q788.6109,700.5779 789.4125,701.3232 Q790.2141,702.0545 791.6484,702.0545 Q792.4922,702.0545 793.0828,701.8295 Q793.4344,701.6889 793.8141,701.2951 Q794.0531,701.0561 794.1797,700.9857 Q794.3203,700.9154 794.5031,700.9154 Q794.7984,700.9154 795.0234,701.1545 Q795.2625,701.3795 795.2625,701.6889 Q795.2625,701.9982 794.9531,702.3639 Q794.5031,702.8842 793.7859,703.1795 Q792.8156,703.5873 791.6484,703.5873 Q790.2844,703.5873 789.2016,703.0248 Q788.3156,702.5748 787.6969,701.6186 Q787.0781,700.6482 787.0781,699.4951 L787.0781,698.4545 Q787.0781,697.2592 787.6266,696.2326 Q788.1891,695.192 789.1734,694.6436 Q790.1578,694.0811 791.2688,694.0811 Q791.9297,694.0811 792.5063,694.2357 Q793.0969,694.3764 793.5891,694.6998 Z " fill="#000000"/><text fill="#000000" font-family="sans-serif" font-size="12.6" lengthAdjust="spacing" textLength="127.8" x="803.7" y="703.6295">AppServiceRobotType</text><line style="stroke:#181818;stroke-width:0.45;" x1="778.5" x2="933.3" y1="712.8123" y2="712.8123"/><line style="stroke:#181818;stroke-width:0.45;" x1="778.5" x2="933.3" y1="720.0123" y2="720.0123"/></g><!--class IRepoRobotType--><g id="elem_IRepoRobotType"><rect codeLine="63" fill="#F1F1F1" height="43.2" id="IRepoRobotType" rx="2.25" ry="2.25" style="stroke:#181818;stroke-width:0.45;" width="126" x="810.9" y="528.3123"/><ellipse cx="824.4" cy="542.7123" fill="#B4A7E5" rx="9.9" ry="9.9" style="stroke:#181818;stroke-width:0.9;"/><path d="M825.2578,539.6889 L825.2578,545.6795 L826.8047,545.6795 Q827.3531,545.6795 827.5922,545.8904 Q827.8313,546.1014 827.8313,546.4529 Q827.8313,546.7904 827.5922,547.0014 Q827.3531,547.2123 826.8047,547.2123 L822.1781,547.2123 Q821.6297,547.2123 821.3906,547.0014 Q821.1516,546.7904 821.1516,546.4389 Q821.1516,546.1014 821.3906,545.8904 Q821.6297,545.6795 822.1781,545.6795 L823.725,545.6795 L823.725,539.6889 L822.1781,539.6889 Q821.6297,539.6889 821.3906,539.4779 Q821.1516,539.267 821.1516,538.9154 Q821.1516,538.5779 821.3906,538.367 Q821.6297,538.1561 822.1781,538.1561 L826.8047,538.1561 Q827.3531,538.1561 827.5922,538.367 Q827.8313,538.5779 827.8313,538.9154 Q827.8313,539.267 827.5922,539.4779 Q827.3531,539.6889 826.8047,539.6889 L825.2578,539.6889 Z " fill="#000000"/><text fill="#000000" font-family="sans-serif" font-size="12.6" font-style="italic" lengthAdjust="spacing" textLength="97.2" x="837" y="547.9295">IRepoRobotType</text><line style="stroke:#181818;stroke-width:0.45;" x1="811.8" x2="936" y1="557.1123" y2="557.1123"/><line style="stroke:#181818;stroke-width:0.45;" x1="811.8" x2="936" y1="564.3123" y2="564.3123"/></g><!--class RobotType--><g id="elem_RobotType"><rect codeLine="82" fill="#F1F1F1" height="68.8887" id="RobotType" rx="2.25" ry="2.25" style="stroke:#181818;stroke-width:0.45;" width="91.8" x="413.1" y="877.5123"/><ellipse cx="426.6" cy="904.7566" fill="#ADD1B2" rx="9.9" ry="9.9" style="stroke:#181818;stroke-width:0.9;"/><path d="M425.5734,905.4738 L425.5734,907.7238 L429.4688,907.7238 L429.4688,906.8941 Q429.4688,906.3457 429.6797,906.1066 Q429.9047,905.8676 430.2422,905.8676 Q430.5797,905.8676 430.7906,906.1066 Q431.0016,906.3457 431.0016,906.8941 L431.0016,909.2566 L423.8016,909.2566 Q423.2391,909.2566 423,909.0457 Q422.775,908.8348 422.775,908.4832 Q422.775,908.1457 423.0141,907.9348 Q423.2531,907.7238 423.8016,907.7238 L424.0406,907.7238 L424.0406,901.7332 L423.8016,901.7332 Q423.2391,901.7332 423,901.5223 Q422.775,901.3113 422.775,900.9598 Q422.775,900.6223 423,900.4113 Q423.2391,900.2004 423.8016,900.2004 L430.6641,900.2004 L430.6641,902.5348 Q430.6641,903.0832 430.4531,903.3223 Q430.2563,903.5473 429.9047,903.5473 Q429.5672,903.5473 429.3563,903.3223 Q429.1453,903.0832 429.1453,902.5348 L429.1453,901.7332 L425.5734,901.7332 L425.5734,903.941 L426.9094,903.941 Q426.9094,903.3504 427.0219,903.1816 Q427.2609,902.816 427.6828,902.816 Q428.0203,902.816 428.2313,903.0551 Q428.4422,903.2801 428.4422,903.8285 L428.4422,905.6004 Q428.4422,906.0926 428.3297,906.2613 Q428.0906,906.6129 427.6828,906.6129 Q427.2609,906.6129 427.0219,906.2473 Q426.9094,906.0785 426.9094,905.4738 L425.5734,905.4738 Z " fill="#000000"/><text fill="#000000" font-family="sans-serif" font-size="10.8" font-style="italic" lengthAdjust="spacing" textLength="31.5" x="454.95" y="893.6666">&#171;root&#187;</text><text fill="#000000" font-family="sans-serif" font-size="10.8" font-style="italic" lengthAdjust="spacing" textLength="38.7" x="451.35" y="908.0314">&#171;entity&#187;</text><text fill="#000000" font-family="sans-serif" font-size="12.6" lengthAdjust="spacing" textLength="63" x="439.2" y="924.3387">RobotType</text><line style="stroke:#181818;stroke-width:0.45;" x1="414" x2="504" y1="932.001" y2="932.001"/><line style="stroke:#181818;stroke-width:0.45;" x1="414" x2="504" y1="939.201" y2="939.201"/></g><!--class RobotTypeCode--><g id="elem_RobotTypeCode"><rect codeLine="90" fill="#F1F1F1" height="43.2" id="RobotTypeCode" rx="2.25" ry="2.25" style="stroke:#181818;stroke-width:0.45;" width="122.4" x="84.6" y="1094.8623"/><ellipse cx="98.1" cy="1109.2623" fill="#ADD1B2" rx="9.9" ry="9.9" style="stroke:#181818;stroke-width:0.9;"/><path d="M100.5891,1105.5498 Q100.7297,1105.3529 100.8984,1105.2545 Q101.0672,1105.1561 101.2641,1105.1561 Q101.6016,1105.1561 101.8125,1105.3951 Q102.0234,1105.6201 102.0234,1106.1686 L102.0234,1107.4764 Q102.0234,1108.0248 101.8125,1108.2639 Q101.6016,1108.5029 101.2641,1108.5029 Q100.9547,1108.5029 100.7719,1108.3201 Q100.5891,1108.1514 100.4906,1107.6873 Q100.4484,1107.3639 100.2797,1107.1951 Q99.9844,1106.8576 99.4359,1106.6607 Q98.8875,1106.4639 98.325,1106.4639 Q97.6359,1106.4639 97.0594,1106.7592 Q96.4969,1107.0545 96.0469,1107.7295 Q95.6109,1108.4045 95.6109,1109.3326 L95.6109,1110.317 Q95.6109,1111.4279 96.4125,1112.1732 Q97.2141,1112.9045 98.6484,1112.9045 Q99.4922,1112.9045 100.0828,1112.6795 Q100.4344,1112.5389 100.8141,1112.1451 Q101.0531,1111.9061 101.1797,1111.8357 Q101.3203,1111.7654 101.5031,1111.7654 Q101.7984,1111.7654 102.0234,1112.0045 Q102.2625,1112.2295 102.2625,1112.5389 Q102.2625,1112.8482 101.9531,1113.2139 Q101.5031,1113.7342 100.7859,1114.0295 Q99.8156,1114.4373 98.6484,1114.4373 Q97.2844,1114.4373 96.2016,1113.8748 Q95.3156,1113.4248 94.6969,1112.4686 Q94.0781,1111.4982 94.0781,1110.3451 L94.0781,1109.3045 Q94.0781,1108.1092 94.6266,1107.0826 Q95.1891,1106.042 96.1734,1105.4936 Q97.1578,1104.9311 98.2688,1104.9311 Q98.9297,1104.9311 99.5063,1105.0857 Q100.0969,1105.2264 100.5891,1105.5498 Z " fill="#000000"/><text fill="#000000" font-family="sans-serif" font-size="12.6" lengthAdjust="spacing" textLength="93.6" x="110.7" y="1114.4795">RobotTypeCode</text><line style="stroke:#181818;stroke-width:0.45;" x1="85.5" x2="206.1" y1="1123.6623" y2="1123.6623"/><line style="stroke:#181818;stroke-width:0.45;" x1="85.5" x2="206.1" y1="1130.8623" y2="1130.8623"/></g><!--class RobotTypeBrand--><g id="elem_RobotTypeBrand"><rect codeLine="91" fill="#F1F1F1" height="43.2" id="RobotTypeBrand" rx="2.25" ry="2.25" style="stroke:#181818;stroke-width:0.45;" width="126" x="238.5" y="1094.8623"/><ellipse cx="252" cy="1109.2623" fill="#ADD1B2" rx="9.9" ry="9.9" style="stroke:#181818;stroke-width:0.9;"/><path d="M254.4891,1105.5498 Q254.6297,1105.3529 254.7984,1105.2545 Q254.9672,1105.1561 255.1641,1105.1561 Q255.5016,1105.1561 255.7125,1105.3951 Q255.9234,1105.6201 255.9234,1106.1686 L255.9234,1107.4764 Q255.9234,1108.0248 255.7125,1108.2639 Q255.5016,1108.5029 255.1641,1108.5029 Q254.8547,1108.5029 254.6719,1108.3201 Q254.4891,1108.1514 254.3906,1107.6873 Q254.3484,1107.3639 254.1797,1107.1951 Q253.8844,1106.8576 253.3359,1106.6607 Q252.7875,1106.4639 252.225,1106.4639 Q251.5359,1106.4639 250.9594,1106.7592 Q250.3969,1107.0545 249.9469,1107.7295 Q249.5109,1108.4045 249.5109,1109.3326 L249.5109,1110.317 Q249.5109,1111.4279 250.3125,1112.1732 Q251.1141,1112.9045 252.5484,1112.9045 Q253.3922,1112.9045 253.9828,1112.6795 Q254.3344,1112.5389 254.7141,1112.1451 Q254.9531,1111.9061 255.0797,1111.8357 Q255.2203,1111.7654 255.4031,1111.7654 Q255.6984,1111.7654 255.9234,1112.0045 Q256.1625,1112.2295 256.1625,1112.5389 Q256.1625,1112.8482 255.8531,1113.2139 Q255.4031,1113.7342 254.6859,1114.0295 Q253.7156,1114.4373 252.5484,1114.4373 Q251.1844,1114.4373 250.1016,1113.8748 Q249.2156,1113.4248 248.5969,1112.4686 Q247.9781,1111.4982 247.9781,1110.3451 L247.9781,1109.3045 Q247.9781,1108.1092 248.5266,1107.0826 Q249.0891,1106.042 250.0734,1105.4936 Q251.0578,1104.9311 252.1688,1104.9311 Q252.8297,1104.9311 253.4063,1105.0857 Q253.9969,1105.2264 254.4891,1105.5498 Z " fill="#000000"/><text fill="#000000" font-family="sans-serif" font-size="12.6" lengthAdjust="spacing" textLength="97.2" x="264.6" y="1114.4795">RobotTypeBrand</text><line style="stroke:#181818;stroke-width:0.45;" x1="239.4" x2="363.6" y1="1123.6623" y2="1123.6623"/><line style="stroke:#181818;stroke-width:0.45;" x1="239.4" x2="363.6" y1="1130.8623" y2="1130.8623"/></g><!--class RobotTypeModel--><g id="elem_RobotTypeModel"><rect codeLine="92" fill="#F1F1F1" height="43.2" id="RobotTypeModel" rx="2.25" ry="2.25" style="stroke:#181818;stroke-width:0.45;" width="126" x="396" y="1094.8623"/><ellipse cx="409.5" cy="1109.2623" fill="#ADD1B2" rx="9.9" ry="9.9" style="stroke:#181818;stroke-width:0.9;"/><path d="M411.9891,1105.5498 Q412.1297,1105.3529 412.2984,1105.2545 Q412.4672,1105.1561 412.6641,1105.1561 Q413.0016,1105.1561 413.2125,1105.3951 Q413.4234,1105.6201 413.4234,1106.1686 L413.4234,1107.4764 Q413.4234,1108.0248 413.2125,1108.2639 Q413.0016,1108.5029 412.6641,1108.5029 Q412.3547,1108.5029 412.1719,1108.3201 Q411.9891,1108.1514 411.8906,1107.6873 Q411.8484,1107.3639 411.6797,1107.1951 Q411.3844,1106.8576 410.8359,1106.6607 Q410.2875,1106.4639 409.725,1106.4639 Q409.0359,1106.4639 408.4594,1106.7592 Q407.8969,1107.0545 407.4469,1107.7295 Q407.0109,1108.4045 407.0109,1109.3326 L407.0109,1110.317 Q407.0109,1111.4279 407.8125,1112.1732 Q408.6141,1112.9045 410.0484,1112.9045 Q410.8922,1112.9045 411.4828,1112.6795 Q411.8344,1112.5389 412.2141,1112.1451 Q412.4531,1111.9061 412.5797,1111.8357 Q412.7203,1111.7654 412.9031,1111.7654 Q413.1984,1111.7654 413.4234,1112.0045 Q413.6625,1112.2295 413.6625,1112.5389 Q413.6625,1112.8482 413.3531,1113.2139 Q412.9031,1113.7342 412.1859,1114.0295 Q411.2156,1114.4373 410.0484,1114.4373 Q408.6844,1114.4373 407.6016,1113.8748 Q406.7156,1113.4248 406.0969,1112.4686 Q405.4781,1111.4982 405.4781,1110.3451 L405.4781,1109.3045 Q405.4781,1108.1092 406.0266,1107.0826 Q406.5891,1106.042 407.5734,1105.4936 Q408.5578,1104.9311 409.6688,1104.9311 Q410.3297,1104.9311 410.9063,1105.0857 Q411.4969,1105.2264 411.9891,1105.5498 Z " fill="#000000"/><text fill="#000000" font-family="sans-serif" font-size="12.6" lengthAdjust="spacing" textLength="97.2" x="422.1" y="1114.4795">RobotTypeModel</text><line style="stroke:#181818;stroke-width:0.45;" x1="396.9" x2="521.1" y1="1123.6623" y2="1123.6623"/><line style="stroke:#181818;stroke-width:0.45;" x1="396.9" x2="521.1" y1="1130.8623" y2="1130.8623"/></g><!--class TaskType--><g id="elem_TaskType"><rect codeLine="93" fill="#F1F1F1" height="43.2" id="TaskType" rx="2.25" ry="2.25" style="stroke:#181818;stroke-width:0.45;" width="85.5" x="553.95" y="1094.8623"/><ellipse cx="567.45" cy="1109.2623" fill="#ADD1B2" rx="9.9" ry="9.9" style="stroke:#181818;stroke-width:0.9;"/><path d="M569.9391,1105.5498 Q570.0797,1105.3529 570.2484,1105.2545 Q570.4172,1105.1561 570.6141,1105.1561 Q570.9516,1105.1561 571.1625,1105.3951 Q571.3734,1105.6201 571.3734,1106.1686 L571.3734,1107.4764 Q571.3734,1108.0248 571.1625,1108.2639 Q570.9516,1108.5029 570.6141,1108.5029 Q570.3047,1108.5029 570.1219,1108.3201 Q569.9391,1108.1514 569.8406,1107.6873 Q569.7984,1107.3639 569.6297,1107.1951 Q569.3344,1106.8576 568.7859,1106.6607 Q568.2375,1106.4639 567.675,1106.4639 Q566.9859,1106.4639 566.4094,1106.7592 Q565.8469,1107.0545 565.3969,1107.7295 Q564.9609,1108.4045 564.9609,1109.3326 L564.9609,1110.317 Q564.9609,1111.4279 565.7625,1112.1732 Q566.5641,1112.9045 567.9984,1112.9045 Q568.8422,1112.9045 569.4328,1112.6795 Q569.7844,1112.5389 570.1641,1112.1451 Q570.4031,1111.9061 570.5297,1111.8357 Q570.6703,1111.7654 570.8531,1111.7654 Q571.1484,1111.7654 571.3734,1112.0045 Q571.6125,1112.2295 571.6125,1112.5389 Q571.6125,1112.8482 571.3031,1113.2139 Q570.8531,1113.7342 570.1359,1114.0295 Q569.1656,1114.4373 567.9984,1114.4373 Q566.6344,1114.4373 565.5516,1113.8748 Q564.6656,1113.4248 564.0469,1112.4686 Q563.4281,1111.4982 563.4281,1110.3451 L563.4281,1109.3045 Q563.4281,1108.1092 563.9766,1107.0826 Q564.5391,1106.042 565.5234,1105.4936 Q566.5078,1104.9311 567.6188,1104.9311 Q568.2797,1104.9311 568.8563,1105.0857 Q569.4469,1105.2264 569.9391,1105.5498 Z " fill="#000000"/><text fill="#000000" font-family="sans-serif" font-size="12.6" lengthAdjust="spacing" textLength="56.7" x="580.05" y="1114.4795">TaskType</text><line style="stroke:#181818;stroke-width:0.45;" x1="554.85" x2="638.55" y1="1123.6623" y2="1123.6623"/><line style="stroke:#181818;stroke-width:0.45;" x1="554.85" x2="638.55" y1="1130.8623" y2="1130.8623"/></g><!--class IRobotTypeDTO--><g id="elem_IRobotTypeDTO"><rect codeLine="106" fill="#F1F1F1" height="43.2" id="IRobotTypeDTO" rx="2.25" ry="2.25" style="stroke:#181818;stroke-width:0.45;" width="122.4" x="787.5" y="334.8123"/><ellipse cx="801" cy="349.2123" fill="#B4A7E5" rx="9.9" ry="9.9" style="stroke:#181818;stroke-width:0.9;"/><path d="M801.8578,346.1889 L801.8578,352.1795 L803.4047,352.1795 Q803.9531,352.1795 804.1922,352.3904 Q804.4313,352.6014 804.4313,352.9529 Q804.4313,353.2904 804.1922,353.5014 Q803.9531,353.7123 803.4047,353.7123 L798.7781,353.7123 Q798.2297,353.7123 797.9906,353.5014 Q797.7516,353.2904 797.7516,352.9389 Q797.7516,352.6014 797.9906,352.3904 Q798.2297,352.1795 798.7781,352.1795 L800.325,352.1795 L800.325,346.1889 L798.7781,346.1889 Q798.2297,346.1889 797.9906,345.9779 Q797.7516,345.767 797.7516,345.4154 Q797.7516,345.0779 797.9906,344.867 Q798.2297,344.6561 798.7781,344.6561 L803.4047,344.6561 Q803.9531,344.6561 804.1922,344.867 Q804.4313,345.0779 804.4313,345.4154 Q804.4313,345.767 804.1922,345.9779 Q803.9531,346.1889 803.4047,346.1889 L801.8578,346.1889 Z " fill="#000000"/><text fill="#000000" font-family="sans-serif" font-size="12.6" font-style="italic" lengthAdjust="spacing" textLength="93.6" x="813.6" y="354.4295">IRobotTypeDTO</text><line style="stroke:#181818;stroke-width:0.45;" x1="788.4" x2="909" y1="363.6123" y2="363.6123"/><line style="stroke:#181818;stroke-width:0.45;" x1="788.4" x2="909" y1="370.8123" y2="370.8123"/></g><!--link DBDriver to IDBDriver--><g id="link_DBDriver_IDBDriver"><path codeLine="24" d="M1111.311,141.3123 C1115.73,141.3123 1120.14,141.3123 1124.559,141.3123 " fill="none" id="DBDriver-to-IDBDriver" style="stroke:#FF6655;stroke-width:0.9;"/><polygon fill="none" points="1124.712,135.0123,1142.712,141.3123,1124.712,147.6123,1124.712,135.0123" style="stroke:#FF6655;stroke-width:0.9;"/></g><!--reverse link IControllerRobotType to ControllerRobotType--><g id="link_IControllerRobotType_ControllerRobotType"><path codeLine="36" d="M1321.731,396.4083 C1321.362,436.2783 1320.795,496.6323 1320.498,528.1593 " fill="none" id="IControllerRobotType-backto-ControllerRobotType" style="stroke:#FF6655;stroke-width:0.9;"/><polygon fill="none" points="1315.431,396.1293,1321.902,378.1923,1328.031,396.2553,1315.431,396.1293" style="stroke:#FF6655;stroke-width:0.9;"/></g><!--reverse link DBDriver to RepoRobotType--><g id="link_DBDriver_RepoRobotType"><path codeLine="44" d="M1076.022,167.5293 C1084.464,210.0903 1101.339,295.1763 1109.151,334.5873 " fill="none" id="DBDriver-backto-RepoRobotType" style="stroke:#FF6655;stroke-width:0.9;stroke-dasharray:7.0,7.0;"/><polygon fill="#FF6655" points="1075.131,163.0563,1073.1749,171.7017,1076.0061,167.4704,1080.2374,170.3016,1075.131,163.0563" style="stroke:#FF6655;stroke-width:0.9;"/></g><!--link RouteRobotType to IControllerRobotType--><g id="link_RouteRobotType_IControllerRobotType"><path codeLine="47" d="M1337.526,163.0563 C1334.376,202.3953 1327.554,287.4813 1324.134,330.1053 " fill="none" id="RouteRobotType-to-IControllerRobotType" style="stroke:#FF6655;stroke-width:0.9;stroke-dasharray:7.0,7.0;"/><polygon fill="#FF6655" points="1323.774,334.5873,1328.0102,326.8011,1324.1339,330.1017,1320.8333,326.2253,1323.774,334.5873" style="stroke:#FF6655;stroke-width:0.9;"/></g><!--link AppServiceRobotType to IAppServiceRobotType--><g id="link_AppServiceRobotType_IAppServiceRobotType"><path codeLine="60" d="M855.99,727.2753 C856.143,761.2233 856.44,829.1733 856.629,872.3193 " fill="none" id="AppServiceRobotType-to-IAppServiceRobotType" style="stroke:#FF6655;stroke-width:0.9;"/><polygon fill="none" points="862.929,872.4183,856.71,890.4453,850.329,872.4723,862.929,872.4183" style="stroke:#FF6655;stroke-width:0.9;"/></g><!--link RepoRobotType to IRepoRobotType--><g id="link_RepoRobotType_IRepoRobotType"><path codeLine="67" d="M1087.227,378.1923 C1045.494,411.6093 963.387,477.3543 914.103,516.8193 " fill="none" id="RepoRobotType-to-IRepoRobotType" style="stroke:#FF6655;stroke-width:0.9;"/><polygon fill="none" points="917.928,521.8233,899.946,528.1593,910.053,511.9863,917.928,521.8233" style="stroke:#FF6655;stroke-width:0.9;"/></g><!--link ControllerRobotType to IAppServiceRobotType--><g id="link_ControllerRobotType_IAppServiceRobotType"><path codeLine="71" d="M1293.381,571.7463 C1212.561,634.5933 972.414,821.3523 887.202,887.6193 " fill="none" id="ControllerRobotType-to-IAppServiceRobotType" style="stroke:#FF6655;stroke-width:0.9;stroke-dasharray:7.0,7.0;"/><polygon fill="#FF6655" points="883.512,890.4903,892.1143,888.3526,887.062,887.7249,887.6897,882.6726,883.512,890.4903" style="stroke:#FF6655;stroke-width:0.9;"/></g><!--reverse link IRepoRobotType to AppServiceRobotType--><g id="link_IRepoRobotType_AppServiceRobotType"><path codeLine="73" d="M870.93,576.2193 C867.411,606.2973 861.615,655.8333 858.348,683.7963 " fill="none" id="IRepoRobotType-backto-AppServiceRobotType" style="stroke:#FF6655;stroke-width:0.9;stroke-dasharray:7.0,7.0;"/><polygon fill="#FF6655" points="871.47,571.5663,866.947,579.1894,870.9435,576.0354,874.0975,580.0319,871.47,571.5663" style="stroke:#FF6655;stroke-width:0.9;"/></g><!--link RobotType to RobotTypeCode--><g id="link_RobotType_RobotTypeCode"><path codeLine="97" d="M412.992,925.0323 C362.592,939.7923 281.223,968.6283 223.2,1013.8623 C196.02,1035.0483 173.322,1067.9703 159.687,1090.5783 " fill="none" id="RobotType-to-RobotTypeCode" style="stroke:#FF6655;stroke-width:0.9;"/><polygon fill="#FF6655" points="157.239,1094.6823,164.4859,1089.5782,159.5486,1090.8202,158.3065,1085.8829,157.239,1094.6823" style="stroke:#FF6655;stroke-width:0.9;"/><text fill="#000000" font-family="Impact" font-size="11.7" lengthAdjust="spacing" textLength="4.5" x="401.4041" y="924.3208">1</text><text fill="#000000" font-family="Impact" font-size="11.7" lengthAdjust="spacing" textLength="4.5" x="155.3234" y="1085.0695">1</text></g><!--link RobotType to RobotTypeBrand--><g id="link_RobotType_RobotTypeBrand"><path codeLine="98" d="M432.639,946.9563 C401.04,987.5823 348.84,1054.6953 320.778,1090.7763 " fill="none" id="RobotType-to-RobotTypeBrand" style="stroke:#FF6655;stroke-width:0.9;"/><polygon fill="#FF6655" points="317.808,1094.5923,325.6257,1090.4146,320.5734,1091.0423,319.9457,1085.99,317.808,1094.5923" style="stroke:#FF6655;stroke-width:0.9;"/><text fill="#000000" font-family="Impact" font-size="11.7" lengthAdjust="spacing" textLength="4.5" x="423.5791" y="965.4744">1</text><text fill="#000000" font-family="Impact" font-size="11.7" lengthAdjust="spacing" textLength="4.5" x="317.0861" y="1085.3071">1</text></g><!--link RobotType to RobotTypeModel--><g id="link_RobotType_RobotTypeModel"><path codeLine="99" d="M459,946.9563 C459,987.2583 459,1053.6063 459,1089.8943 " fill="none" id="RobotType-to-RobotTypeModel" style="stroke:#FF6655;stroke-width:0.9;"/><polygon fill="#FF6655" points="459,1094.5923,462.6,1086.4923,459,1090.0923,455.4,1086.4923,459,1094.5923" style="stroke:#FF6655;stroke-width:0.9;"/><text fill="#000000" font-family="Impact" font-size="11.7" lengthAdjust="spacing" textLength="4.5" x="454.1414" y="965.4744">1</text><text fill="#000000" font-family="Impact" font-size="11.7" lengthAdjust="spacing" textLength="4.5" x="453.8953" y="1085.3071">1</text></g><!--link RobotType to TaskType--><g id="link_RobotType_TaskType"><path codeLine="100" d="M487.575,946.8933 C503.226,966.0363 522.567,990.7143 538.2,1013.8623 C555.3,1039.1793 572.445,1069.7433 583.713,1090.7133 " fill="none" id="RobotType-to-TaskType" style="stroke:#FF6655;stroke-width:0.9;"/><polygon fill="#FF6655" points="585.882,1094.7813,585.2423,1085.9404,583.7624,1090.8118,578.891,1089.3319,585.882,1094.7813" style="stroke:#FF6655;stroke-width:0.9;"/><text fill="#000000" font-family="Impact" font-size="11.7" lengthAdjust="spacing" textLength="4.5" x="487.2705" y="965.4014">1</text><text fill="#000000" font-family="Impact" font-size="11.7" lengthAdjust="spacing" textLength="3.6" x="578.7332" y="1085.1963">*</text></g><!--link AppServiceRobotType to RobotType--><g id="link_AppServiceRobotType_RobotType"><path codeLine="102" d="M815.661,727.2753 C742.761,764.8773 589.05,844.1763 509.337,885.2973 " fill="none" id="AppServiceRobotType-to-RobotType" style="stroke:#FF6655;stroke-width:0.9;stroke-dasharray:7.0,7.0;"/><polygon fill="#FF6655" points="505.125,887.4663,513.9733,886.9395,509.1213,885.3975,510.6632,880.5455,505.125,887.4663" style="stroke:#FF6655;stroke-width:0.9;"/></g><!--reverse link IRobotTypeDTO to AppServiceRobotType--><g id="link_IRobotTypeDTO_AppServiceRobotType"><path codeLine="109" d="M814.878,381.6573 C807.435,388.8393 800.568,397.3443 796.5,406.8123 C756.216,500.5203 760.806,540.7593 796.5,636.3123 C803.376,654.7263 817.704,671.4663 830.565,683.7783 " fill="none" id="IRobotTypeDTO-backto-AppServiceRobotType" style="stroke:#FF6655;stroke-width:0.9;"/><polygon fill="#FF6655" points="818.568,378.2463,810.1789,381.1086,815.2663,381.3039,815.071,386.3913,818.568,378.2463" style="stroke:#FF6655;stroke-width:0.9;"/></g><!--reverse link IRobotTypeDTO to ControllerRobotType--><g id="link_IRobotTypeDTO_ControllerRobotType"><path codeLine="110" d="M904.392,379.9563 C996.75,417.4953 1180.233,492.0783 1269.351,528.3033 " fill="none" id="IRobotTypeDTO-backto-ControllerRobotType" style="stroke:#FF6655;stroke-width:0.9;"/><polygon fill="#FF6655" points="900.063,378.1923,906.2061,384.5823,904.2304,379.8901,908.9226,377.9145,900.063,378.1923" style="stroke:#FF6655;stroke-width:0.9;"/></g><!--SRC=[bPLRRzem5CVV-HHMzZO9gZwKfoWIbo9LsjQfeBrE9ZbDFHBRiXqcjl7TTvgxZPEel40ultF_nzOdnYLLD2UnoANWm0tvEoFusGbkzkmFaFjb-RocyIbLek39HcH2XU5AqlWDeeXyOUcRsGX5imeKAW7bGfzsk-NouQ4D_OtcG3QYK0oKwqQE6IRpPILR0Ba_NTPP0QLzfPJutSPxoZ6TwGoLJvFwEfkX-KHJ8FgY3UHrfysVmHD_LLGRLSIcK12WkRHRp8ie3EYWTcq-SKQr9gNjHHo5ELmajC3rDiftK9fX2Jm6DnJZ1jGhZR6RxNghsBcUZvtgndJjQcriPAxUDpF_5pcXQhRNTvDobL29lwt-Mco3OrOYonox7Me4ShhhoDkHEHtPANAPJMIfPZITeF_aeScyaENqnY9TVI81AJGp0iKz91KakbY-O1P15eLSHDtMUvYbER9OZ9JhxdqbPSPYQfZWP0_gp6BmRnv1Bs3l1QaXo5bzHtvyzHDPgl5-C8479_Doyxv00xMDBTtfVs3xdifi5LGrJMl7f-LI6QFj-APGwSwNqXNJ8pVCOEjtU1F0tLRab76_cD9KGKhhKtHWccsoW51DwCzZmRA4yTGpLtXFV25TpM6eX31uvuHXPOkYWVSUU_2ylJyetYxa-VWBOZCiTxl2inWhiRaUQe-DI62AMIlAaodeAmRA1g03rQUH8wz_qhIJ2-u3r5XKVlkhdM3jgYTWkteNVgS_1rqRup95aTxeqrhNzl3SNsN_PMpy4EcxUWy5l10YnsNiyd3Pw-m_]--></g></svg>