<?xml version="1.0" encoding="us-ascii" standalone="no"?><svg xmlns="http://www.w3.org/2000/svg" xmlns:xlink="http://www.w3.org/1999/xlink" contentStyleType="text/css" height="1572px" preserveAspectRatio="none" style="width:1439px;height:1572px;background:#FFFFFF;" version="1.1" viewBox="0 0 1439 1572" width="1439px" zoomAndPan="magnify"><defs/><g><rect fill="#FFFFFF" height="1368.2852" style="stroke:#181818;stroke-width:1.0;" width="10" x="88" y="91.4883"/><rect fill="#FFFFFF" height="658.832" style="stroke:#181818;stroke-width:1.0;" width="10" x="350" y="112.7988"/><rect fill="#FFFFFF" height="658.832" style="stroke:#181818;stroke-width:1.0;" width="10" x="350" y="800.9414"/><rect fill="#FFFFFF" height="600.2109" style="stroke:#181818;stroke-width:1.0;" width="10" x="468" y="142.1094"/><rect fill="#FFFFFF" height="600.2109" style="stroke:#181818;stroke-width:1.0;" width="10" x="468" y="830.252"/><rect fill="#FFFFFF" height="499.2793" style="stroke:#181818;stroke-width:1.0;" width="10" x="689" y="859.5625"/><rect fill="#FFFFFF" height="499.2793" style="stroke:#181818;stroke-width:1.0;" width="10" x="807" y="171.4199"/><rect fill="#FFFFFF" height="47.9766" style="stroke:#181818;stroke-width:1.0;" width="10" x="958" y="1274.5547"/><rect fill="#FFFFFF" height="47.9766" style="stroke:#181818;stroke-width:1.0;" width="10" x="1100" y="586.4121"/><rect fill="#FFFFFF" height="322.0605" style="stroke:#181818;stroke-width:1.0;" width="10" x="1207.5" y="200.7305"/><rect fill="#FFFFFF" height="322.0605" style="stroke:#181818;stroke-width:1.0;" width="10" x="1207.5" y="888.873"/><rect fill="none" height="1223.7324" style="stroke:#000000;stroke-width:1.5;" width="1413" x="10" y="251.041"/><rect fill="none" height="104.5977" style="stroke:#000000;stroke-width:1.5;" width="422" x="743" y="537.791"/><rect fill="none" height="528.5898" style="stroke:#000000;stroke-width:1.5;" width="1309.5" x="20" y="939.1836"/><rect fill="none" height="104.5977" style="stroke:#000000;stroke-width:1.5;" width="420" x="635" y="1225.9336"/><line style="stroke:#181818;stroke-width:0.5;stroke-dasharray:5.0,5.0;" x1="93" x2="93" y1="81.4883" y2="1491.7734"/><line style="stroke:#181818;stroke-width:0.5;stroke-dasharray:5.0,5.0;" x1="355" x2="355" y1="81.4883" y2="1491.7734"/><line style="stroke:#181818;stroke-width:0.5;stroke-dasharray:5.0,5.0;" x1="473" x2="473" y1="81.4883" y2="1491.7734"/><line style="stroke:#181818;stroke-width:0.5;stroke-dasharray:5.0,5.0;" x1="694" x2="694" y1="81.4883" y2="1491.7734"/><line style="stroke:#181818;stroke-width:0.5;stroke-dasharray:5.0,5.0;" x1="812" x2="812" y1="81.4883" y2="1491.7734"/><line style="stroke:#181818;stroke-width:0.5;stroke-dasharray:5.0,5.0;" x1="963" x2="963" y1="1282.2324" y2="1491.7734"/><line style="stroke:#181818;stroke-width:0.5;stroke-dasharray:5.0,5.0;" x1="1105" x2="1105" y1="594.0898" y2="1491.7734"/><line style="stroke:#181818;stroke-width:0.5;stroke-dasharray:5.0,5.0;" x1="1212" x2="1212" y1="81.4883" y2="1491.7734"/><line style="stroke:#181818;stroke-width:0.5;stroke-dasharray:5.0,5.0;" x1="1288" x2="1288" y1="81.4883" y2="1491.7734"/><text fill="#000000" font-family="sans-serif" font-size="14" lengthAdjust="spacing" textLength="120" x="30" y="78.5352">Campus Manager</text><ellipse cx="93" cy="13.5" fill="#E2E2F0" rx="8" ry="8" style="stroke:#181818;stroke-width:0.5;"/><path d="M93,21.5 L93,48.5 M80,29.5 L106,29.5 M93,48.5 L80,63.5 M93,48.5 L106,63.5 " fill="none" style="stroke:#181818;stroke-width:0.5;"/><text fill="#000000" font-family="sans-serif" font-size="14" lengthAdjust="spacing" textLength="120" x="30" y="1504.3086">Campus Manager</text><ellipse cx="93" cy="1515.7617" fill="#E2E2F0" rx="8" ry="8" style="stroke:#181818;stroke-width:0.5;"/><path d="M93,1523.7617 L93,1550.7617 M80,1531.7617 L106,1531.7617 M93,1550.7617 L80,1565.7617 M93,1550.7617 L106,1565.7617 " fill="none" style="stroke:#181818;stroke-width:0.5;"/><rect fill="#E2E2F0" height="30.4883" rx="2.5" ry="2.5" style="stroke:#181818;stroke-width:0.5;" width="128" x="291" y="50"/><text fill="#000000" font-family="sans-serif" font-size="14" lengthAdjust="spacing" textLength="114" x="298" y="70.5352">HTML + CSS + JS</text><rect fill="#E2E2F0" height="30.4883" rx="2.5" ry="2.5" style="stroke:#181818;stroke-width:0.5;" width="128" x="291" y="1490.7734"/><text fill="#000000" font-family="sans-serif" font-size="14" lengthAdjust="spacing" textLength="114" x="298" y="1511.3086">HTML + CSS + JS</text><rect fill="#E2E2F0" height="30.4883" rx="2.5" ry="2.5" style="stroke:#181818;stroke-width:0.5;" width="84" x="431" y="50"/><text fill="#000000" font-family="sans-serif" font-size="14" lengthAdjust="spacing" textLength="70" x="438" y="70.5352">Controller</text><rect fill="#E2E2F0" height="30.4883" rx="2.5" ry="2.5" style="stroke:#181818;stroke-width:0.5;" width="84" x="431" y="1490.7734"/><text fill="#000000" font-family="sans-serif" font-size="14" lengthAdjust="spacing" textLength="70" x="438" y="1511.3086">Controller</text><rect fill="#E2E2F0" height="30.4883" rx="2.5" ry="2.5" style="stroke:#181818;stroke-width:0.5;" width="98" x="645" y="50"/><text fill="#000000" font-family="sans-serif" font-size="14" lengthAdjust="spacing" textLength="84" x="652" y="70.5352">FloorService</text><rect fill="#E2E2F0" height="30.4883" rx="2.5" ry="2.5" style="stroke:#181818;stroke-width:0.5;" width="98" x="645" y="1490.7734"/><text fill="#000000" font-family="sans-serif" font-size="14" lengthAdjust="spacing" textLength="84" x="652" y="1511.3086">FloorService</text><rect fill="#E2E2F0" height="30.4883" rx="2.5" ry="2.5" style="stroke:#181818;stroke-width:0.5;" width="118" x="753" y="50"/><text fill="#000000" font-family="sans-serif" font-size="14" lengthAdjust="spacing" textLength="104" x="760" y="70.5352">BuildingService</text><rect fill="#E2E2F0" height="30.4883" rx="2.5" ry="2.5" style="stroke:#181818;stroke-width:0.5;" width="118" x="753" y="1490.7734"/><text fill="#000000" font-family="sans-serif" font-size="14" lengthAdjust="spacing" textLength="104" x="760" y="1511.3086">BuildingService</text><rect fill="#E2E2F0" height="46.9766" rx="2.5" ry="2.5" style="stroke:#181818;stroke-width:0.5;" width="164" x="881" y="1490.7734"/><text fill="#000000" font-family="sans-serif" font-size="14" lengthAdjust="spacing" textLength="27" x="949.5" y="1511.3086">dto:</text><text fill="#000000" font-family="sans-serif" font-size="14" lengthAdjust="spacing" textLength="150" x="888" y="1527.7969">FloorAndBuildingDTO</text><rect fill="#E2E2F0" height="46.9766" rx="2.5" ry="2.5" style="stroke:#181818;stroke-width:0.5;" width="100" x="1055" y="1490.7734"/><text fill="#000000" font-family="sans-serif" font-size="14" lengthAdjust="spacing" textLength="27" x="1091.5" y="1511.3086">dto:</text><text fill="#000000" font-family="sans-serif" font-size="14" lengthAdjust="spacing" textLength="86" x="1062" y="1527.7969">BuildingDTO</text><rect fill="#E2E2F0" height="30.4883" rx="2.5" ry="2.5" style="stroke:#181818;stroke-width:0.5;" width="95" x="1165" y="50"/><text fill="#000000" font-family="sans-serif" font-size="14" lengthAdjust="spacing" textLength="81" x="1172" y="70.5352">HTTP Driver</text><rect fill="#E2E2F0" height="30.4883" rx="2.5" ry="2.5" style="stroke:#181818;stroke-width:0.5;" width="95" x="1165" y="1490.7734"/><text fill="#000000" font-family="sans-serif" font-size="14" lengthAdjust="spacing" textLength="81" x="1172" y="1511.3086">HTTP Driver</text><rect fill="#E2E2F0" height="30.4883" rx="2.5" ry="2.5" style="stroke:#181818;stroke-width:0.5;" width="36" x="1270" y="50"/><text fill="#000000" font-family="sans-serif" font-size="14" lengthAdjust="spacing" textLength="22" x="1277" y="70.5352">MD</text><rect fill="#E2E2F0" height="30.4883" rx="2.5" ry="2.5" style="stroke:#181818;stroke-width:0.5;" width="36" x="1270" y="1490.7734"/><text fill="#000000" font-family="sans-serif" font-size="14" lengthAdjust="spacing" textLength="22" x="1277" y="1511.3086">MD</text><rect fill="#FFFFFF" height="1368.2852" style="stroke:#181818;stroke-width:1.0;" width="10" x="88" y="91.4883"/><rect fill="#FFFFFF" height="658.832" style="stroke:#181818;stroke-width:1.0;" width="10" x="350" y="112.7988"/><rect fill="#FFFFFF" height="658.832" style="stroke:#181818;stroke-width:1.0;" width="10" x="350" y="800.9414"/><rect fill="#FFFFFF" height="600.2109" style="stroke:#181818;stroke-width:1.0;" width="10" x="468" y="142.1094"/><rect fill="#FFFFFF" height="600.2109" style="stroke:#181818;stroke-width:1.0;" width="10" x="468" y="830.252"/><rect fill="#FFFFFF" height="499.2793" style="stroke:#181818;stroke-width:1.0;" width="10" x="689" y="859.5625"/><rect fill="#FFFFFF" height="499.2793" style="stroke:#181818;stroke-width:1.0;" width="10" x="807" y="171.4199"/><rect fill="#FFFFFF" height="47.9766" style="stroke:#181818;stroke-width:1.0;" width="10" x="958" y="1274.5547"/><rect fill="#FFFFFF" height="47.9766" style="stroke:#181818;stroke-width:1.0;" width="10" x="1100" y="586.4121"/><rect fill="#FFFFFF" height="322.0605" style="stroke:#181818;stroke-width:1.0;" width="10" x="1207.5" y="200.7305"/><rect fill="#FFFFFF" height="322.0605" style="stroke:#181818;stroke-width:1.0;" width="10" x="1207.5" y="888.873"/><polygon fill="#181818" points="338,108.7988,348,112.7988,338,116.7988,342,112.7988" style="stroke:#181818;stroke-width:1.0;"/><line style="stroke:#181818;stroke-width:1.0;" x1="98" x2="344" y1="112.7988" y2="112.7988"/><text fill="#000000" font-family="sans-serif" font-size="13" font-weight="bold" lengthAdjust="spacing" textLength="9" x="105" y="108.0566">1</text><text fill="#000000" font-family="sans-serif" font-size="13" lengthAdjust="spacing" textLength="220" x="118" y="108.0566">wants to list floors from a building</text><polygon fill="#181818" points="456,138.1094,466,142.1094,456,146.1094,460,142.1094" style="stroke:#181818;stroke-width:1.0;"/><line style="stroke:#181818;stroke-width:1.0;" x1="360" x2="462" y1="142.1094" y2="142.1094"/><text fill="#000000" font-family="sans-serif" font-size="13" font-weight="bold" lengthAdjust="spacing" textLength="9" x="367" y="137.3672">2</text><text fill="#000000" font-family="sans-serif" font-size="13" lengthAdjust="spacing" textLength="63" x="380" y="137.3672">ngOnInit()</text><polygon fill="#181818" points="795,167.4199,805,171.4199,795,175.4199,799,171.4199" style="stroke:#181818;stroke-width:1.0;"/><line style="stroke:#181818;stroke-width:1.0;" x1="478" x2="801" y1="171.4199" y2="171.4199"/><text fill="#000000" font-family="sans-serif" font-size="13" font-weight="bold" lengthAdjust="spacing" textLength="9" x="485" y="166.6777">3</text><text fill="#000000" font-family="sans-serif" font-size="13" lengthAdjust="spacing" textLength="86" x="498" y="166.6777">getBuildings()</text><polygon fill="#181818" points="1195.5,196.7305,1205.5,200.7305,1195.5,204.7305,1199.5,200.7305" style="stroke:#181818;stroke-width:1.0;"/><line style="stroke:#181818;stroke-width:1.0;" x1="817" x2="1201.5" y1="200.7305" y2="200.7305"/><text fill="#000000" font-family="sans-serif" font-size="13" font-weight="bold" lengthAdjust="spacing" textLength="9" x="824" y="195.9883">4</text><text fill="#000000" font-family="sans-serif" font-size="13" lengthAdjust="spacing" textLength="149" x="837" y="195.9883">get({baseUrl}/buildings)</text><polygon fill="#181818" points="1421,229.041,1431,233.041,1421,237.041,1425,233.041" style="stroke:#181818;stroke-width:1.0;"/><line style="stroke:#181818;stroke-width:1.0;" x1="1217.5" x2="1427" y1="233.041" y2="233.041"/><text fill="#000000" font-family="sans-serif" font-size="13" font-weight="bold" lengthAdjust="spacing" textLength="9" x="1224.5" y="228.2988">5</text><text fill="#000000" font-family="sans-serif" font-size="13" lengthAdjust="spacing" textLength="94" x="1237.5" y="228.2988">GET /buildings</text><path d="M1018,213.7305 L1018,238.7305 L1202,238.7305 L1202,223.7305 L1192,213.7305 L1018,213.7305 " fill="#FEFFDD" style="stroke:#181818;stroke-width:0.5;"/><path d="M1192,213.7305 L1192,223.7305 L1202,223.7305 L1192,213.7305 " fill="#FEFFDD" style="stroke:#181818;stroke-width:0.5;"/><text fill="#000000" font-family="sans-serif" font-size="13" lengthAdjust="spacing" textLength="163" x="1024" y="231.2988">see us170 documentation</text><path d="M10,251.041 L72,251.041 L72,258.3516 L62,268.3516 L10,268.3516 L10,251.041 " fill="#EEEEEE" style="stroke:#000000;stroke-width:1.5;"/><rect fill="none" height="1223.7324" style="stroke:#000000;stroke-width:1.5;" width="1413" x="10" y="251.041"/><text fill="#000000" font-family="sans-serif" font-size="13" font-weight="bold" lengthAdjust="spacing" textLength="17" x="25" y="264.6094">alt</text><text fill="#000000" font-family="sans-serif" font-size="11" font-weight="bold" lengthAdjust="spacing" textLength="128" x="87" y="263.6758">[building(s) not found]</text><polygon fill="#181818" points="1228.5,285.6621,1218.5,289.6621,1228.5,293.6621,1224.5,289.6621" style="stroke:#181818;stroke-width:1.0;"/><line style="stroke:#181818;stroke-width:1.0;stroke-dasharray:2.0,2.0;" x1="1222.5" x2="1432" y1="289.6621" y2="289.6621"/><text fill="#000000" font-family="sans-serif" font-size="13" font-weight="bold" lengthAdjust="spacing" textLength="9" x="1234.5" y="284.9199">6</text><text fill="#000000" font-family="sans-serif" font-size="13" lengthAdjust="spacing" textLength="62" x="1247.5" y="284.9199">404: error</text><polygon fill="#181818" points="828,314.9727,818,318.9727,828,322.9727,824,318.9727" style="stroke:#181818;stroke-width:1.0;"/><line style="stroke:#181818;stroke-width:1.0;stroke-dasharray:2.0,2.0;" x1="822" x2="1206.5" y1="318.9727" y2="318.9727"/><text fill="#000000" font-family="sans-serif" font-size="13" font-weight="bold" lengthAdjust="spacing" textLength="9" x="834" y="314.2305">7</text><text fill="#000000" font-family="sans-serif" font-size="13" lengthAdjust="spacing" textLength="68" x="847" y="314.2305">observable</text><polygon fill="#181818" points="489,344.2832,479,348.2832,489,352.2832,485,348.2832" style="stroke:#181818;stroke-width:1.0;"/><line style="stroke:#181818;stroke-width:1.0;stroke-dasharray:2.0,2.0;" x1="483" x2="806" y1="348.2832" y2="348.2832"/><text fill="#000000" font-family="sans-serif" font-size="13" font-weight="bold" lengthAdjust="spacing" textLength="9" x="495" y="343.541">8</text><text fill="#000000" font-family="sans-serif" font-size="13" lengthAdjust="spacing" textLength="30" x="508" y="343.541">error</text><line style="stroke:#181818;stroke-width:1.0;stroke-dasharray:2.0,2.0;" x1="478" x2="520" y1="377.5938" y2="377.5938"/><line style="stroke:#181818;stroke-width:1.0;stroke-dasharray:2.0,2.0;" x1="520" x2="520" y1="377.5938" y2="390.5938"/><line style="stroke:#181818;stroke-width:1.0;stroke-dasharray:2.0,2.0;" x1="479" x2="520" y1="390.5938" y2="390.5938"/><polygon fill="#181818" points="489,386.5938,479,390.5938,489,394.5938,485,390.5938" style="stroke:#181818;stroke-width:1.0;"/><text fill="#000000" font-family="sans-serif" font-size="13" font-weight="bold" lengthAdjust="spacing" textLength="9" x="485" y="372.8516">9</text><text fill="#000000" font-family="sans-serif" font-size="13" lengthAdjust="spacing" textLength="85" x="498" y="372.8516">buildings = []</text><path d="M217,364.7832 L217,389.7832 L463,389.7832 L463,374.7832 L453,364.7832 L217,364.7832 " fill="#FEFFDD" style="stroke:#181818;stroke-width:0.5;"/><path d="M453,364.7832 L453,374.7832 L463,374.7832 L453,364.7832 " fill="#FEFFDD" style="stroke:#181818;stroke-width:0.5;"/><text fill="#000000" font-family="sans-serif" font-size="13" lengthAdjust="spacing" textLength="225" x="223" y="382.3516">creates alert with the error message</text><polygon fill="#181818" points="371,415.9043,361,419.9043,371,423.9043,367,419.9043" style="stroke:#181818;stroke-width:1.0;"/><line style="stroke:#181818;stroke-width:1.0;stroke-dasharray:2.0,2.0;" x1="365" x2="467" y1="419.9043" y2="419.9043"/><text fill="#000000" font-family="sans-serif" font-size="13" font-weight="bold" lengthAdjust="spacing" textLength="18" x="377" y="415.1621">10</text><text fill="#000000" font-family="sans-serif" font-size="13" lengthAdjust="spacing" textLength="59" x="399" y="415.1621">buildings</text><polygon fill="#181818" points="109,445.2148,99,449.2148,109,453.2148,105,449.2148" style="stroke:#181818;stroke-width:1.0;"/><line style="stroke:#181818;stroke-width:1.0;stroke-dasharray:2.0,2.0;" x1="103" x2="349" y1="449.2148" y2="449.2148"/><text fill="#000000" font-family="sans-serif" font-size="13" font-weight="bold" lengthAdjust="spacing" textLength="18" x="115" y="444.4727">11</text><text fill="#000000" font-family="sans-serif" font-size="13" lengthAdjust="spacing" textLength="83" x="137" y="444.4727">informs error</text><line style="stroke:#000000;stroke-width:1.0;stroke-dasharray:2.0,2.0;" x1="10" x2="1423" y1="458.2148" y2="458.2148"/><text fill="#000000" font-family="sans-serif" font-size="11" font-weight="bold" lengthAdjust="spacing" textLength="106" x="15" y="468.8496">[building(s) found]</text><polygon fill="#181818" points="1228.5,489.4805,1218.5,493.4805,1228.5,497.4805,1224.5,493.4805" style="stroke:#181818;stroke-width:1.0;"/><line style="stroke:#181818;stroke-width:1.0;stroke-dasharray:2.0,2.0;" x1="1222.5" x2="1432" y1="493.4805" y2="493.4805"/><text fill="#000000" font-family="sans-serif" font-size="13" font-weight="bold" lengthAdjust="spacing" textLength="18" x="1234.5" y="488.7383">12</text><text fill="#000000" font-family="sans-serif" font-size="13" lengthAdjust="spacing" textLength="91" x="1256.5" y="488.7383">200: buildings</text><polygon fill="#181818" points="828,518.791,818,522.791,828,526.791,824,522.791" style="stroke:#181818;stroke-width:1.0;"/><line style="stroke:#181818;stroke-width:1.0;stroke-dasharray:2.0,2.0;" x1="822" x2="1211.5" y1="522.791" y2="522.791"/><text fill="#000000" font-family="sans-serif" font-size="13" font-weight="bold" lengthAdjust="spacing" textLength="18" x="834" y="518.0488">13</text><text fill="#000000" font-family="sans-serif" font-size="13" lengthAdjust="spacing" textLength="68" x="856" y="518.0488">observable</text><path d="M743,537.791 L817,537.791 L817,545.1016 L807,555.1016 L743,555.1016 L743,537.791 " fill="#EEEEEE" style="stroke:#000000;stroke-width:1.5;"/><rect fill="none" height="104.5977" style="stroke:#000000;stroke-width:1.5;" width="422" x="743" y="537.791"/><text fill="#000000" font-family="sans-serif" font-size="13" font-weight="bold" lengthAdjust="spacing" textLength="29" x="758" y="551.3594">loop</text><text fill="#000000" font-family="sans-serif" font-size="11" font-weight="bold" lengthAdjust="spacing" textLength="105" x="832" y="550.4258">[for each building]</text><polygon fill="#181818" points="1043,572.4121,1053,576.4121,1043,580.4121,1047,576.4121" style="stroke:#181818;stroke-width:1.0;"/><line style="stroke:#181818;stroke-width:1.0;stroke-dasharray:2.0,2.0;" x1="817" x2="1049" y1="576.4121" y2="576.4121"/><text fill="#000000" font-family="sans-serif" font-size="13" font-weight="bold" lengthAdjust="spacing" textLength="18" x="824" y="571.6699">14</text><text fill="#000000" font-family="sans-serif" font-size="13" lengthAdjust="spacing" textLength="46" x="846" y="571.6699">create()</text><rect fill="#E2E2F0" height="46.9766" rx="2.5" ry="2.5" style="stroke:#181818;stroke-width:0.5;" width="100" x="1055" y="555.1016"/><text fill="#000000" font-family="sans-serif" font-size="14" lengthAdjust="spacing" textLength="27" x="1091.5" y="575.6367">dto:</text><text fill="#000000" font-family="sans-serif" font-size="14" lengthAdjust="spacing" textLength="86" x="1062" y="592.125">BuildingDTO</text><polygon fill="#181818" points="828,630.3887,818,634.3887,828,638.3887,824,634.3887" style="stroke:#181818;stroke-width:1.0;"/><line style="stroke:#181818;stroke-width:1.0;stroke-dasharray:2.0,2.0;" x1="822" x2="1104" y1="634.3887" y2="634.3887"/><text fill="#000000" font-family="sans-serif" font-size="13" font-weight="bold" lengthAdjust="spacing" textLength="18" x="834" y="629.6465">15</text><text fill="#000000" font-family="sans-serif" font-size="13" lengthAdjust="spacing" textLength="21" x="856" y="629.6465">dto</text><polygon fill="#181818" points="489,666.6992,479,670.6992,489,674.6992,485,670.6992" style="stroke:#181818;stroke-width:1.0;"/><line style="stroke:#181818;stroke-width:1.0;stroke-dasharray:2.0,2.0;" x1="483" x2="811" y1="670.6992" y2="670.6992"/><text fill="#000000" font-family="sans-serif" font-size="13" font-weight="bold" lengthAdjust="spacing" textLength="18" x="495" y="665.957">16</text><text fill="#000000" font-family="sans-serif" font-size="13" lengthAdjust="spacing" textLength="29" x="517" y="665.957">dto[]</text><line style="stroke:#181818;stroke-width:1.0;stroke-dasharray:2.0,2.0;" x1="478" x2="520" y1="700.0098" y2="700.0098"/><line style="stroke:#181818;stroke-width:1.0;stroke-dasharray:2.0,2.0;" x1="520" x2="520" y1="700.0098" y2="713.0098"/><line style="stroke:#181818;stroke-width:1.0;stroke-dasharray:2.0,2.0;" x1="479" x2="520" y1="713.0098" y2="713.0098"/><polygon fill="#181818" points="489,709.0098,479,713.0098,489,717.0098,485,713.0098" style="stroke:#181818;stroke-width:1.0;"/><text fill="#000000" font-family="sans-serif" font-size="13" font-weight="bold" lengthAdjust="spacing" textLength="18" x="485" y="695.2676">17</text><text fill="#000000" font-family="sans-serif" font-size="13" lengthAdjust="spacing" textLength="106" x="507" y="695.2676">buildings = dto[]</text><polygon fill="#181818" points="371,738.3203,361,742.3203,371,746.3203,367,742.3203" style="stroke:#181818;stroke-width:1.0;"/><line style="stroke:#181818;stroke-width:1.0;stroke-dasharray:2.0,2.0;" x1="365" x2="472" y1="742.3203" y2="742.3203"/><text fill="#000000" font-family="sans-serif" font-size="13" font-weight="bold" lengthAdjust="spacing" textLength="18" x="377" y="737.5781">18</text><text fill="#000000" font-family="sans-serif" font-size="13" lengthAdjust="spacing" textLength="55" x="399" y="737.5781">buldings</text><polygon fill="#181818" points="109,767.6309,99,771.6309,109,775.6309,105,771.6309" style="stroke:#181818;stroke-width:1.0;"/><line style="stroke:#181818;stroke-width:1.0;stroke-dasharray:2.0,2.0;" x1="103" x2="354" y1="771.6309" y2="771.6309"/><text fill="#000000" font-family="sans-serif" font-size="13" font-weight="bold" lengthAdjust="spacing" textLength="18" x="115" y="766.8887">19</text><text fill="#000000" font-family="sans-serif" font-size="13" lengthAdjust="spacing" textLength="110" x="137" y="766.8887">requests building</text><polygon fill="#181818" points="338,796.9414,348,800.9414,338,804.9414,342,800.9414" style="stroke:#181818;stroke-width:1.0;"/><line style="stroke:#181818;stroke-width:1.0;" x1="98" x2="344" y1="800.9414" y2="800.9414"/><text fill="#000000" font-family="sans-serif" font-size="13" font-weight="bold" lengthAdjust="spacing" textLength="18" x="105" y="796.1992">20</text><text fill="#000000" font-family="sans-serif" font-size="13" lengthAdjust="spacing" textLength="110" x="127" y="796.1992">provides building</text><polygon fill="#181818" points="456,826.252,466,830.252,456,834.252,460,830.252" style="stroke:#181818;stroke-width:1.0;"/><line style="stroke:#181818;stroke-width:1.0;" x1="360" x2="462" y1="830.252" y2="830.252"/><text fill="#000000" font-family="sans-serif" font-size="13" font-weight="bold" lengthAdjust="spacing" textLength="18" x="367" y="825.5098">21</text><text fill="#000000" font-family="sans-serif" font-size="13" lengthAdjust="spacing" textLength="67" x="389" y="825.5098">getFloors()</text><polygon fill="#181818" points="677,855.5625,687,859.5625,677,863.5625,681,859.5625" style="stroke:#181818;stroke-width:1.0;"/><line style="stroke:#181818;stroke-width:1.0;" x1="478" x2="683" y1="859.5625" y2="859.5625"/><text fill="#000000" font-family="sans-serif" font-size="13" font-weight="bold" lengthAdjust="spacing" textLength="18" x="485" y="854.8203">22</text><text fill="#000000" font-family="sans-serif" font-size="13" lengthAdjust="spacing" textLength="170" x="507" y="854.8203">getFloors(selectedBuilding)</text><polygon fill="#181818" points="1195.5,884.873,1205.5,888.873,1195.5,892.873,1199.5,888.873" style="stroke:#181818;stroke-width:1.0;"/><line style="stroke:#181818;stroke-width:1.0;" x1="699" x2="1201.5" y1="888.873" y2="888.873"/><text fill="#000000" font-family="sans-serif" font-size="13" font-weight="bold" lengthAdjust="spacing" textLength="18" x="706" y="884.1309">23</text><text fill="#000000" font-family="sans-serif" font-size="13" lengthAdjust="spacing" textLength="292" x="728" y="884.1309">get({baseUrl}/buildings/{buildingCode}/floors)</text><polygon fill="#181818" points="1421,917.1836,1431,921.1836,1421,925.1836,1425,921.1836" style="stroke:#181818;stroke-width:1.0;"/><line style="stroke:#181818;stroke-width:1.0;" x1="1217.5" x2="1427" y1="921.1836" y2="921.1836"/><text fill="#000000" font-family="sans-serif" font-size="13" font-weight="bold" lengthAdjust="spacing" textLength="18" x="1224.5" y="916.4414">24</text><text fill="#000000" font-family="sans-serif" font-size="13" lengthAdjust="spacing" textLength="165" x="1246.5" y="916.4414">GET /buildings/{id}/floors</text><path d="M1018,901.873 L1018,926.873 L1202,926.873 L1202,911.873 L1192,901.873 L1018,901.873 " fill="#FEFFDD" style="stroke:#181818;stroke-width:0.5;"/><path d="M1192,901.873 L1192,911.873 L1202,911.873 L1192,901.873 " fill="#FEFFDD" style="stroke:#181818;stroke-width:0.5;"/><text fill="#000000" font-family="sans-serif" font-size="13" lengthAdjust="spacing" textLength="163" x="1024" y="919.4414">see us210 documentation</text><path d="M20,939.1836 L82,939.1836 L82,946.4941 L72,956.4941 L20,956.4941 L20,939.1836 " fill="#EEEEEE" style="stroke:#000000;stroke-width:1.5;"/><rect fill="none" height="528.5898" style="stroke:#000000;stroke-width:1.5;" width="1309.5" x="20" y="939.1836"/><text fill="#000000" font-family="sans-serif" font-size="13" font-weight="bold" lengthAdjust="spacing" textLength="17" x="35" y="952.752">alt</text><text fill="#000000" font-family="sans-serif" font-size="11" font-weight="bold" lengthAdjust="spacing" textLength="109" x="97" y="951.8184">[floor(s) not found]</text><polygon fill="#181818" points="1228.5,973.8047,1218.5,977.8047,1228.5,981.8047,1224.5,977.8047" style="stroke:#181818;stroke-width:1.0;"/><line style="stroke:#181818;stroke-width:1.0;stroke-dasharray:2.0,2.0;" x1="1222.5" x2="1432" y1="977.8047" y2="977.8047"/><text fill="#000000" font-family="sans-serif" font-size="13" font-weight="bold" lengthAdjust="spacing" textLength="18" x="1234.5" y="973.0625">25</text><text fill="#000000" font-family="sans-serif" font-size="13" lengthAdjust="spacing" textLength="62" x="1256.5" y="973.0625">404: error</text><polygon fill="#181818" points="710,1003.1152,700,1007.1152,710,1011.1152,706,1007.1152" style="stroke:#181818;stroke-width:1.0;"/><line style="stroke:#181818;stroke-width:1.0;stroke-dasharray:2.0,2.0;" x1="704" x2="1206.5" y1="1007.1152" y2="1007.1152"/><text fill="#000000" font-family="sans-serif" font-size="13" font-weight="bold" lengthAdjust="spacing" textLength="18" x="716" y="1002.373">26</text><text fill="#000000" font-family="sans-serif" font-size="13" lengthAdjust="spacing" textLength="68" x="738" y="1002.373">observable</text><polygon fill="#181818" points="489,1032.4258,479,1036.4258,489,1040.4258,485,1036.4258" style="stroke:#181818;stroke-width:1.0;"/><line style="stroke:#181818;stroke-width:1.0;stroke-dasharray:2.0,2.0;" x1="483" x2="688" y1="1036.4258" y2="1036.4258"/><text fill="#000000" font-family="sans-serif" font-size="13" font-weight="bold" lengthAdjust="spacing" textLength="18" x="495" y="1031.6836">27</text><text fill="#000000" font-family="sans-serif" font-size="13" lengthAdjust="spacing" textLength="30" x="517" y="1031.6836">error</text><line style="stroke:#181818;stroke-width:1.0;stroke-dasharray:2.0,2.0;" x1="478" x2="520" y1="1065.7363" y2="1065.7363"/><line style="stroke:#181818;stroke-width:1.0;stroke-dasharray:2.0,2.0;" x1="520" x2="520" y1="1065.7363" y2="1078.7363"/><line style="stroke:#181818;stroke-width:1.0;stroke-dasharray:2.0,2.0;" x1="479" x2="520" y1="1078.7363" y2="1078.7363"/><polygon fill="#181818" points="489,1074.7363,479,1078.7363,489,1082.7363,485,1078.7363" style="stroke:#181818;stroke-width:1.0;"/><text fill="#000000" font-family="sans-serif" font-size="13" font-weight="bold" lengthAdjust="spacing" textLength="18" x="485" y="1060.9941">28</text><text fill="#000000" font-family="sans-serif" font-size="13" lengthAdjust="spacing" textLength="63" x="507" y="1060.9941">floors = []</text><path d="M217,1052.9258 L217,1077.9258 L463,1077.9258 L463,1062.9258 L453,1052.9258 L217,1052.9258 " fill="#FEFFDD" style="stroke:#181818;stroke-width:0.5;"/><path d="M453,1052.9258 L453,1062.9258 L463,1062.9258 L453,1052.9258 " fill="#FEFFDD" style="stroke:#181818;stroke-width:0.5;"/><text fill="#000000" font-family="sans-serif" font-size="13" lengthAdjust="spacing" textLength="225" x="223" y="1070.4941">creates alert with the error message</text><polygon fill="#181818" points="371,1104.0469,361,1108.0469,371,1112.0469,367,1108.0469" style="stroke:#181818;stroke-width:1.0;"/><line style="stroke:#181818;stroke-width:1.0;stroke-dasharray:2.0,2.0;" x1="365" x2="467" y1="1108.0469" y2="1108.0469"/><text fill="#000000" font-family="sans-serif" font-size="13" font-weight="bold" lengthAdjust="spacing" textLength="18" x="377" y="1103.3047">29</text><text fill="#000000" font-family="sans-serif" font-size="13" lengthAdjust="spacing" textLength="37" x="399" y="1103.3047">floors</text><polygon fill="#181818" points="109,1133.3574,99,1137.3574,109,1141.3574,105,1137.3574" style="stroke:#181818;stroke-width:1.0;"/><line style="stroke:#181818;stroke-width:1.0;stroke-dasharray:2.0,2.0;" x1="103" x2="349" y1="1137.3574" y2="1137.3574"/><text fill="#000000" font-family="sans-serif" font-size="13" font-weight="bold" lengthAdjust="spacing" textLength="18" x="115" y="1132.6152">30</text><text fill="#000000" font-family="sans-serif" font-size="13" lengthAdjust="spacing" textLength="83" x="137" y="1132.6152">informs error</text><line style="stroke:#000000;stroke-width:1.0;stroke-dasharray:2.0,2.0;" x1="20" x2="1329.5" y1="1146.3574" y2="1146.3574"/><text fill="#000000" font-family="sans-serif" font-size="11" font-weight="bold" lengthAdjust="spacing" textLength="87" x="25" y="1156.9922">[floor(s) found]</text><polygon fill="#181818" points="1228.5,1177.623,1218.5,1181.623,1228.5,1185.623,1224.5,1181.623" style="stroke:#181818;stroke-width:1.0;"/><line style="stroke:#181818;stroke-width:1.0;stroke-dasharray:2.0,2.0;" x1="1222.5" x2="1432" y1="1181.623" y2="1181.623"/><text fill="#000000" font-family="sans-serif" font-size="13" font-weight="bold" lengthAdjust="spacing" textLength="18" x="1234.5" y="1176.8809">31</text><text fill="#000000" font-family="sans-serif" font-size="13" lengthAdjust="spacing" textLength="69" x="1256.5" y="1176.8809">200: floors</text><polygon fill="#181818" points="710,1206.9336,700,1210.9336,710,1214.9336,706,1210.9336" style="stroke:#181818;stroke-width:1.0;"/><line style="stroke:#181818;stroke-width:1.0;stroke-dasharray:2.0,2.0;" x1="704" x2="1211.5" y1="1210.9336" y2="1210.9336"/><text fill="#000000" font-family="sans-serif" font-size="13" font-weight="bold" lengthAdjust="spacing" textLength="18" x="716" y="1206.1914">32</text><text fill="#000000" font-family="sans-serif" font-size="13" lengthAdjust="spacing" textLength="68" x="738" y="1206.1914">observable</text><path d="M635,1225.9336 L709,1225.9336 L709,1233.2441 L699,1243.2441 L635,1243.2441 L635,1225.9336 " fill="#EEEEEE" style="stroke:#000000;stroke-width:1.5;"/><rect fill="none" height="104.5977" style="stroke:#000000;stroke-width:1.5;" width="420" x="635" y="1225.9336"/><text fill="#000000" font-family="sans-serif" font-size="13" font-weight="bold" lengthAdjust="spacing" textLength="29" x="650" y="1239.502">loop</text><text fill="#000000" font-family="sans-serif" font-size="11" font-weight="bold" lengthAdjust="spacing" textLength="86" x="724" y="1238.5684">[for each floor]</text><polygon fill="#181818" points="869,1260.5547,879,1264.5547,869,1268.5547,873,1264.5547" style="stroke:#181818;stroke-width:1.0;"/><line style="stroke:#181818;stroke-width:1.0;stroke-dasharray:2.0,2.0;" x1="699" x2="875" y1="1264.5547" y2="1264.5547"/><text fill="#000000" font-family="sans-serif" font-size="13" font-weight="bold" lengthAdjust="spacing" textLength="18" x="706" y="1259.8125">33</text><text fill="#000000" font-family="sans-serif" font-size="13" lengthAdjust="spacing" textLength="46" x="728" y="1259.8125">create()</text><rect fill="#E2E2F0" height="46.9766" rx="2.5" ry="2.5" style="stroke:#181818;stroke-width:0.5;" width="164" x="881" y="1243.2441"/><text fill="#000000" font-family="sans-serif" font-size="14" lengthAdjust="spacing" textLength="27" x="949.5" y="1263.7793">dto:</text><text fill="#000000" font-family="sans-serif" font-size="14" lengthAdjust="spacing" textLength="150" x="888" y="1280.2676">FloorAndBuildingDTO</text><polygon fill="#181818" points="710,1318.5313,700,1322.5313,710,1326.5313,706,1322.5313" style="stroke:#181818;stroke-width:1.0;"/><line style="stroke:#181818;stroke-width:1.0;stroke-dasharray:2.0,2.0;" x1="704" x2="962" y1="1322.5313" y2="1322.5313"/><text fill="#000000" font-family="sans-serif" font-size="13" font-weight="bold" lengthAdjust="spacing" textLength="18" x="716" y="1317.7891">34</text><text fill="#000000" font-family="sans-serif" font-size="13" lengthAdjust="spacing" textLength="21" x="738" y="1317.7891">dto</text><polygon fill="#181818" points="489,1354.8418,479,1358.8418,489,1362.8418,485,1358.8418" style="stroke:#181818;stroke-width:1.0;"/><line style="stroke:#181818;stroke-width:1.0;stroke-dasharray:2.0,2.0;" x1="483" x2="693" y1="1358.8418" y2="1358.8418"/><text fill="#000000" font-family="sans-serif" font-size="13" font-weight="bold" lengthAdjust="spacing" textLength="18" x="495" y="1354.0996">35</text><text fill="#000000" font-family="sans-serif" font-size="13" lengthAdjust="spacing" textLength="29" x="517" y="1354.0996">dto[]</text><line style="stroke:#181818;stroke-width:1.0;stroke-dasharray:2.0,2.0;" x1="478" x2="520" y1="1388.1523" y2="1388.1523"/><line style="stroke:#181818;stroke-width:1.0;stroke-dasharray:2.0,2.0;" x1="520" x2="520" y1="1388.1523" y2="1401.1523"/><line style="stroke:#181818;stroke-width:1.0;stroke-dasharray:2.0,2.0;" x1="479" x2="520" y1="1401.1523" y2="1401.1523"/><polygon fill="#181818" points="489,1397.1523,479,1401.1523,489,1405.1523,485,1401.1523" style="stroke:#181818;stroke-width:1.0;"/><text fill="#000000" font-family="sans-serif" font-size="13" font-weight="bold" lengthAdjust="spacing" textLength="18" x="485" y="1383.4102">36</text><text fill="#000000" font-family="sans-serif" font-size="13" lengthAdjust="spacing" textLength="84" x="507" y="1383.4102">floors = dto[]</text><polygon fill="#181818" points="371,1426.4629,361,1430.4629,371,1434.4629,367,1430.4629" style="stroke:#181818;stroke-width:1.0;"/><line style="stroke:#181818;stroke-width:1.0;stroke-dasharray:2.0,2.0;" x1="365" x2="472" y1="1430.4629" y2="1430.4629"/><text fill="#000000" font-family="sans-serif" font-size="13" font-weight="bold" lengthAdjust="spacing" textLength="18" x="377" y="1425.7207">37</text><text fill="#000000" font-family="sans-serif" font-size="13" lengthAdjust="spacing" textLength="37" x="399" y="1425.7207">floors</text><polygon fill="#181818" points="104,1455.7734,94,1459.7734,104,1463.7734,100,1459.7734" style="stroke:#181818;stroke-width:1.0;"/><line style="stroke:#181818;stroke-width:1.0;stroke-dasharray:2.0,2.0;" x1="98" x2="354" y1="1459.7734" y2="1459.7734"/><text fill="#000000" font-family="sans-serif" font-size="13" font-weight="bold" lengthAdjust="spacing" textLength="18" x="110" y="1455.0313">38</text><text fill="#000000" font-family="sans-serif" font-size="13" lengthAdjust="spacing" textLength="68" x="132" y="1455.0313">lists floors</text><!--SRC=[lPTVQzim5CNV-oakVKewGj9I68Iji2Nxoqe7oPwsKcJx9X7OKYR9wKFfTz_rjUFOZktOPPkWJOlFFPAEhdvkHUoqYYCFpTcPy9qsS3uJqJQsS2kKMACv1s4XjlHuAuoJljmAvU3yy_Bs6xo2sM91txykMBMJ-5XMpRHoHeTXPkCx4vO57qEjpGBDJlh84hlpouhtiGm3gTP5aVTm90kSdlvIRFTE1VkY-VAE2-XfdRmgynuIONMZo-ymDtANxM7ZtBOYkPtpaoZW2ELEEEJ4W0PzmkY6eu4fF9BUWjCGIkjWbQpMmihe20HusMAuBFVXJ24Rx49kIOxafjPtwekIRZ3C5NaTHms5mJLKozbHyHhTVlksO50oINE6oaWTo2g98dKQF7d2uWyJFe_tsx33eyBSbpE4ci6EevjxSltqOGa7irgrqkHbv7hZI6yn2VtozGG2xSSHAYUSr2fDCtHvl0CxJ0fXfMCLD2_YpMYKhE9wSZq5D4QRblKMKjMUfJuLNeYr-Yowmn4sMwVdTL3cKS1R-7dVd8UddQD-ce9laBAsj7aq3Xwbsu3RO3eZH6WjtUxscREcRJ-4j2T9dNJw5AHQQHFPR6DSWQ75KlpTeh-QJ4xDtIV-0CljToIWoxYbfHaWuQPy6vkFaObnSP77FHZM5XHkL48OQ1ZyjBIX9dLXD_MMI0cVdMm_ggpqKicuUllRUlBOwhYFAaTPc8jnnQEXhmp-Zj4IF4i7Kt1WKDOWTslqJWPeNy1N0Xk_K6mlmEPupMejXkWxpDz93Qoj8sqdpewVzZ_ET83Fu_IjybVfEtwImTwuAuclBfj8p3x_1iET8FnY16Vlw__DtvRSM-6RipSFl0TuMoRjddPFvlAShKVM3xPjgDs3jZDcEqEs3s9F0JRlkDDqhHnObQqD7PFy7MgBjLMY5dxdVmAIBITVVm00]--></g></svg>