<?xml version="1.0" encoding="us-ascii" standalone="no"?><svg xmlns="http://www.w3.org/2000/svg" xmlns:xlink="http://www.w3.org/1999/xlink" contentStyleType="text/css" height="533px" preserveAspectRatio="none" style="width:713px;height:533px;background:#FFFFFF;" version="1.1" viewBox="0 0 713 533" width="713px" zoomAndPan="magnify"><defs/><g><rect fill="#FFFFFF" height="351.3711" style="stroke:#181818;stroke-width:1.0;" width="10" x="78" y="91.4883"/><rect fill="#FFFFFF" height="93.9316" style="stroke:#181818;stroke-width:1.0;" width="10" x="282" y="112.7988"/><rect fill="#FFFFFF" height="206.8184" style="stroke:#181818;stroke-width:1.0;" width="10" x="282" y="236.041"/><rect fill="#FFFFFF" height="32.3105" style="stroke:#181818;stroke-width:1.0;" width="10" x="507" y="145.1094"/><rect fill="#FFFFFF" height="174.5078" style="stroke:#181818;stroke-width:1.0;" width="10" x="507" y="268.3516"/><rect fill="none" height="149.5078" style="stroke:#000000;stroke-width:1.5;" width="560" x="10" y="286.3516"/><line style="stroke:#181818;stroke-width:0.5;stroke-dasharray:5.0,5.0;" x1="83" x2="83" y1="81.4883" y2="452.8594"/><line style="stroke:#181818;stroke-width:0.5;stroke-dasharray:5.0,5.0;" x1="287" x2="287" y1="81.4883" y2="452.8594"/><line style="stroke:#181818;stroke-width:0.5;stroke-dasharray:5.0,5.0;" x1="512" x2="512" y1="81.4883" y2="452.8594"/><text fill="#000000" font-family="sans-serif" font-size="14" lengthAdjust="spacing" textLength="120" x="20" y="78.5352">Campus Manager</text><ellipse cx="83" cy="13.5" fill="#E2E2F0" rx="8" ry="8" style="stroke:#181818;stroke-width:0.5;"/><path d="M83,21.5 L83,48.5 M70,29.5 L96,29.5 M83,48.5 L70,63.5 M83,48.5 L96,63.5 " fill="none" style="stroke:#181818;stroke-width:0.5;"/><text fill="#000000" font-family="sans-serif" font-size="14" lengthAdjust="spacing" textLength="120" x="20" y="465.3945">Campus Manager</text><ellipse cx="83" cy="476.8477" fill="#E2E2F0" rx="8" ry="8" style="stroke:#181818;stroke-width:0.5;"/><path d="M83,484.8477 L83,511.8477 M70,492.8477 L96,492.8477 M83,511.8477 L70,526.8477 M83,511.8477 L96,526.8477 " fill="none" style="stroke:#181818;stroke-width:0.5;"/><rect fill="#E2E2F0" height="30.4883" rx="2.5" ry="2.5" style="stroke:#181818;stroke-width:0.5;" width="88" x="243" y="50"/><text fill="#000000" font-family="sans-serif" font-size="14" lengthAdjust="spacing" textLength="74" x="250" y="70.5352">Campus UI</text><rect fill="#E2E2F0" height="30.4883" rx="2.5" ry="2.5" style="stroke:#181818;stroke-width:0.5;" width="88" x="243" y="451.8594"/><text fill="#000000" font-family="sans-serif" font-size="14" lengthAdjust="spacing" textLength="74" x="250" y="472.3945">Campus UI</text><rect fill="#E2E2F0" height="30.4883" rx="2.5" ry="2.5" style="stroke:#181818;stroke-width:0.5;" width="96" x="464" y="50"/><text fill="#000000" font-family="sans-serif" font-size="14" lengthAdjust="spacing" textLength="82" x="471" y="70.5352">Campus MD</text><rect fill="#E2E2F0" height="30.4883" rx="2.5" ry="2.5" style="stroke:#181818;stroke-width:0.5;" width="96" x="464" y="451.8594"/><text fill="#000000" font-family="sans-serif" font-size="14" lengthAdjust="spacing" textLength="82" x="471" y="472.3945">Campus MD</text><rect fill="#FFFFFF" height="351.3711" style="stroke:#181818;stroke-width:1.0;" width="10" x="78" y="91.4883"/><rect fill="#FFFFFF" height="93.9316" style="stroke:#181818;stroke-width:1.0;" width="10" x="282" y="112.7988"/><rect fill="#FFFFFF" height="206.8184" style="stroke:#181818;stroke-width:1.0;" width="10" x="282" y="236.041"/><rect fill="#FFFFFF" height="32.3105" style="stroke:#181818;stroke-width:1.0;" width="10" x="507" y="145.1094"/><rect fill="#FFFFFF" height="174.5078" style="stroke:#181818;stroke-width:1.0;" width="10" x="507" y="268.3516"/><polygon fill="#181818" points="270,108.7988,280,112.7988,270,116.7988,274,112.7988" style="stroke:#181818;stroke-width:1.0;"/><line style="stroke:#181818;stroke-width:1.0;" x1="88" x2="276" y1="112.7988" y2="112.7988"/><text fill="#000000" font-family="sans-serif" font-size="13" font-weight="bold" lengthAdjust="spacing" textLength="9" x="95" y="108.0566">1</text><text fill="#000000" font-family="sans-serif" font-size="13" lengthAdjust="spacing" textLength="162" x="108" y="108.0566">list floors from a building</text><polygon fill="#181818" points="495,141.1094,505,145.1094,495,149.1094,499,145.1094" style="stroke:#181818;stroke-width:1.0;"/><line style="stroke:#181818;stroke-width:1.0;" x1="292" x2="501" y1="145.1094" y2="145.1094"/><text fill="#000000" font-family="sans-serif" font-size="13" font-weight="bold" lengthAdjust="spacing" textLength="9" x="299" y="140.3672">2</text><text fill="#000000" font-family="sans-serif" font-size="13" lengthAdjust="spacing" textLength="94" x="312" y="140.3672">GET /buildings</text><path d="M522,125.7988 L522,150.7988 L706,150.7988 L706,135.7988 L696,125.7988 L522,125.7988 " fill="#FEFFDD" style="stroke:#181818;stroke-width:0.5;"/><path d="M696,125.7988 L696,135.7988 L706,135.7988 L696,125.7988 " fill="#FEFFDD" style="stroke:#181818;stroke-width:0.5;"/><text fill="#000000" font-family="sans-serif" font-size="13" lengthAdjust="spacing" textLength="163" x="528" y="143.3672">see us170 documentation</text><polygon fill="#181818" points="303,173.4199,293,177.4199,303,181.4199,299,177.4199" style="stroke:#181818;stroke-width:1.0;"/><line style="stroke:#181818;stroke-width:1.0;stroke-dasharray:2.0,2.0;" x1="297" x2="511" y1="177.4199" y2="177.4199"/><text fill="#000000" font-family="sans-serif" font-size="13" font-weight="bold" lengthAdjust="spacing" textLength="9" x="309" y="172.6777">3</text><text fill="#000000" font-family="sans-serif" font-size="13" lengthAdjust="spacing" textLength="59" x="322" y="172.6777">buildings</text><polygon fill="#181818" points="99,202.7305,89,206.7305,99,210.7305,95,206.7305" style="stroke:#181818;stroke-width:1.0;"/><line style="stroke:#181818;stroke-width:1.0;stroke-dasharray:2.0,2.0;" x1="93" x2="286" y1="206.7305" y2="206.7305"/><text fill="#000000" font-family="sans-serif" font-size="13" font-weight="bold" lengthAdjust="spacing" textLength="9" x="105" y="201.9883">4</text><text fill="#000000" font-family="sans-serif" font-size="13" lengthAdjust="spacing" textLength="78" x="118" y="201.9883">request data</text><polygon fill="#181818" points="270,232.041,280,236.041,270,240.041,274,236.041" style="stroke:#181818;stroke-width:1.0;"/><line style="stroke:#181818;stroke-width:1.0;" x1="88" x2="276" y1="236.041" y2="236.041"/><text fill="#000000" font-family="sans-serif" font-size="13" font-weight="bold" lengthAdjust="spacing" textLength="9" x="95" y="231.2988">5</text><text fill="#000000" font-family="sans-serif" font-size="13" lengthAdjust="spacing" textLength="85" x="108" y="231.2988">provides data</text><polygon fill="#181818" points="495,264.3516,505,268.3516,495,272.3516,499,268.3516" style="stroke:#181818;stroke-width:1.0;"/><line style="stroke:#181818;stroke-width:1.0;" x1="292" x2="501" y1="268.3516" y2="268.3516"/><text fill="#000000" font-family="sans-serif" font-size="13" font-weight="bold" lengthAdjust="spacing" textLength="9" x="299" y="263.6094">6</text><text fill="#000000" font-family="sans-serif" font-size="13" lengthAdjust="spacing" textLength="183" x="312" y="263.6094">GET /buildings/{code}/floors</text><path d="M522,249.041 L522,274.041 L706,274.041 L706,259.041 L696,249.041 L522,249.041 " fill="#FEFFDD" style="stroke:#181818;stroke-width:0.5;"/><path d="M696,249.041 L696,259.041 L706,259.041 L696,249.041 " fill="#FEFFDD" style="stroke:#181818;stroke-width:0.5;"/><text fill="#000000" font-family="sans-serif" font-size="13" lengthAdjust="spacing" textLength="163" x="528" y="266.6094">see us210 documentation</text><path d="M10,286.3516 L72,286.3516 L72,293.6621 L62,303.6621 L10,303.6621 L10,286.3516 " fill="#EEEEEE" style="stroke:#000000;stroke-width:1.5;"/><rect fill="none" height="149.5078" style="stroke:#000000;stroke-width:1.5;" width="560" x="10" y="286.3516"/><text fill="#000000" font-family="sans-serif" font-size="13" font-weight="bold" lengthAdjust="spacing" textLength="17" x="25" y="299.9199">alt</text><text fill="#000000" font-family="sans-serif" font-size="11" font-weight="bold" lengthAdjust="spacing" textLength="51" x="87" y="298.9863">[success]</text><polygon fill="#181818" points="303,320.9727,293,324.9727,303,328.9727,299,324.9727" style="stroke:#181818;stroke-width:1.0;"/><line style="stroke:#181818;stroke-width:1.0;stroke-dasharray:2.0,2.0;" x1="297" x2="506" y1="324.9727" y2="324.9727"/><text fill="#000000" font-family="sans-serif" font-size="13" font-weight="bold" lengthAdjust="spacing" textLength="9" x="309" y="320.2305">7</text><text fill="#000000" font-family="sans-serif" font-size="13" lengthAdjust="spacing" textLength="37" x="322" y="320.2305">floors</text><polygon fill="#181818" points="99,350.2832,89,354.2832,99,358.2832,95,354.2832" style="stroke:#181818;stroke-width:1.0;"/><line style="stroke:#181818;stroke-width:1.0;stroke-dasharray:2.0,2.0;" x1="93" x2="281" y1="354.2832" y2="354.2832"/><text fill="#000000" font-family="sans-serif" font-size="13" font-weight="bold" lengthAdjust="spacing" textLength="9" x="105" y="349.541">8</text><text fill="#000000" font-family="sans-serif" font-size="13" lengthAdjust="spacing" textLength="68" x="118" y="349.541">lists floors</text><line style="stroke:#000000;stroke-width:1.0;stroke-dasharray:2.0,2.0;" x1="10" x2="570" y1="363.2832" y2="363.2832"/><text fill="#000000" font-family="sans-serif" font-size="11" font-weight="bold" lengthAdjust="spacing" textLength="36" x="15" y="373.918">[error]</text><polygon fill="#181818" points="303,394.5488,293,398.5488,303,402.5488,299,398.5488" style="stroke:#181818;stroke-width:1.0;"/><line style="stroke:#181818;stroke-width:1.0;stroke-dasharray:2.0,2.0;" x1="297" x2="506" y1="398.5488" y2="398.5488"/><text fill="#000000" font-family="sans-serif" font-size="13" font-weight="bold" lengthAdjust="spacing" textLength="9" x="309" y="393.8066">9</text><text fill="#000000" font-family="sans-serif" font-size="13" lengthAdjust="spacing" textLength="30" x="322" y="393.8066">error</text><polygon fill="#181818" points="99,423.8594,89,427.8594,99,431.8594,95,427.8594" style="stroke:#181818;stroke-width:1.0;"/><line style="stroke:#181818;stroke-width:1.0;stroke-dasharray:2.0,2.0;" x1="93" x2="281" y1="427.8594" y2="427.8594"/><text fill="#000000" font-family="sans-serif" font-size="13" font-weight="bold" lengthAdjust="spacing" textLength="18" x="105" y="423.1172">10</text><text fill="#000000" font-family="sans-serif" font-size="13" lengthAdjust="spacing" textLength="83" x="127" y="423.1172">informs error</text><!--SRC=[dPAxRW8n44Nx_OeH3HKYf8b4aHGXYb8W6l81WpsGGNviPcoQAFyUxo8UkraX9Muis_VuZkyOSueX-mr9LQ59KM3qZBxE2aiCk2CP0IfaBSSrIcB3DOPq5hs_7S-vgiRhrM8r1uFE0IVOPqqmNYx6JuFWSj62thQsVC14hGkKKMQOF9PBOGwEopLR5wCeR2LwGDXaTfR3hjLUO6xNBSyDxct1Nr_MC3q1UbQSgU8FLoF4iYUy-qY5LMfAcZtSWOqcUme94yVG0Oh9v5JgRnjBGqPDUGrJNZa7eSzCvOaM4rOzfacrdqSjyS2Mz0ByAO7fbucMlgV7HF-Jn_tiLXxe4cWsXbGx-_siUlw3qJIjro4bEIKWaIWtFOOL7GiEsoXU1wGKx8qsTfjqlIfV-0S0]--></g></svg>