<?xml version="1.0" encoding="us-ascii" standalone="no"?><svg xmlns="http://www.w3.org/2000/svg" xmlns:xlink="http://www.w3.org/1999/xlink" contentStyleType="text/css" height="219px" preserveAspectRatio="none" style="width:380px;height:219px;background:#FFFFFF;" version="1.1" viewBox="0 0 380 219" width="380px" zoomAndPan="magnify"><defs/><g><rect fill="#FFFFFF" height="23.706" style="stroke:#181818;stroke-width:1.0;" width="10" x="22.5" y="94.0679"/><line style="stroke:#181818;stroke-width:0.5;stroke-dasharray:5.0,5.0;" x1="27" x2="27" y1="84.0679" y2="135.7739"/><line style="stroke:#181818;stroke-width:0.5;stroke-dasharray:5.0,5.0;" x1="323.5" x2="323.5" y1="84.0679" y2="135.7739"/><text fill="#000000" font-family="sans-serif" font-size="14" lengthAdjust="spacing" textLength="39" x="5" y="79.9659">Client</text><ellipse cx="27.5" cy="13.5" fill="#E2E2F0" rx="8" ry="8" style="stroke:#181818;stroke-width:0.5;"/><path d="M27.5,21.5 L27.5,48.5 M14.5,29.5 L40.5,29.5 M27.5,48.5 L14.5,63.5 M27.5,48.5 L40.5,63.5 " fill="none" style="stroke:#181818;stroke-width:0.5;"/><text fill="#000000" font-family="sans-serif" font-size="14" lengthAdjust="spacing" textLength="39" x="5" y="149.7399">Client</text><ellipse cx="27.5" cy="162.3419" fill="#E2E2F0" rx="8" ry="8" style="stroke:#181818;stroke-width:0.5;"/><path d="M27.5,170.3419 L27.5,197.3419 M14.5,178.3419 L40.5,178.3419 M27.5,197.3419 L14.5,212.3419 M27.5,197.3419 L40.5,212.3419 " fill="none" style="stroke:#181818;stroke-width:0.5;"/><rect fill="#E2E2F0" height="52.1358" rx="2.5" ry="2.5" style="stroke:#181818;stroke-width:0.5;" width="102" x="272.5" y="30.9321"/><text fill="#000000" font-family="sans-serif" font-size="14" lengthAdjust="spacing" textLength="61" x="293" y="52.898">&#171;system&#187;</text><text fill="#000000" font-family="sans-serif" font-size="14" lengthAdjust="spacing" textLength="88" x="279.5" y="71.9659">RobDroneGO</text><rect fill="#E2E2F0" height="52.1358" rx="2.5" ry="2.5" style="stroke:#181818;stroke-width:0.5;" width="102" x="272.5" y="134.7739"/><text fill="#000000" font-family="sans-serif" font-size="14" lengthAdjust="spacing" textLength="61" x="293" y="156.7399">&#171;system&#187;</text><text fill="#000000" font-family="sans-serif" font-size="14" lengthAdjust="spacing" textLength="88" x="279.5" y="175.8078">RobDroneGO</text><rect fill="#FFFFFF" height="23.706" style="stroke:#181818;stroke-width:1.0;" width="10" x="22.5" y="94.0679"/><polygon fill="#181818" points="311.5,113.7739,321.5,117.7739,311.5,121.7739,315.5,117.7739" style="stroke:#181818;stroke-width:1.0;"/><line style="stroke:#181818;stroke-width:1.0;" x1="27.5" x2="317.5" y1="117.7739" y2="117.7739"/><text fill="#000000" font-family="sans-serif" font-size="13" lengthAdjust="spacing" textLength="267" x="34.5" y="111.9649">wants to obtain a copy of their personal data</text><!--SRC=[LOon3i8m34JtVCMfEp-0gYmWCI8nixYf4PQA7Jc6gdzFwCOjDxoxHoNCCPmMOOq1rF1kdYfvI95A6XZ6iMqj-9NpNMysdTsKBzTzsq5AL48-5Bm_qTCRX_o3E6BjZeOms1Ga2aAnki4UY2UBex8tKremKr2Q-S_s1G00]--></g></svg>