<?xml version="1.0" encoding="us-ascii" standalone="no"?><svg xmlns="http://www.w3.org/2000/svg" xmlns:xlink="http://www.w3.org/1999/xlink" contentStyleType="text/css" height="626px" preserveAspectRatio="none" style="width:490px;height:626px;background:#FFFFFF;" version="1.1" viewBox="0 0 490 626" width="490px" zoomAndPan="magnify"><defs/><g><rect fill="#FFFFFF" height="444.2578" style="stroke:#181818;stroke-width:1.0;" width="10" x="88" y="91.4883"/><rect fill="#FFFFFF" height="97.8867" style="stroke:#181818;stroke-width:1.0;" width="10" x="379" y="112.7988"/><rect fill="#FFFFFF" height="29.3105" style="stroke:#181818;stroke-width:1.0;" width="10" x="379" y="239.9961"/><rect fill="#FFFFFF" height="29.3105" style="stroke:#181818;stroke-width:1.0;" width="10" x="379" y="298.6172"/><rect fill="#FFFFFF" height="29.3105" style="stroke:#181818;stroke-width:1.0;" width="10" x="379" y="357.2383"/><rect fill="#FFFFFF" height="119.8867" style="stroke:#181818;stroke-width:1.0;" width="10" x="379" y="415.8594"/><rect fill="none" height="400.9473" style="stroke:#000000;stroke-width:1.5;" width="473" x="10" y="127.7988"/><rect fill="none" height="90.8867" style="stroke:#000000;stroke-width:1.5;" width="453" x="20" y="430.8594"/><line style="stroke:#181818;stroke-width:0.5;stroke-dasharray:5.0,5.0;" x1="93" x2="93" y1="81.4883" y2="545.7461"/><line style="stroke:#181818;stroke-width:0.5;stroke-dasharray:5.0,5.0;" x1="384" x2="384" y1="81.4883" y2="545.7461"/><text fill="#000000" font-family="sans-serif" font-size="14" lengthAdjust="spacing" textLength="120" x="30" y="78.5352">Campus Manager</text><ellipse cx="93" cy="13.5" fill="#E2E2F0" rx="8" ry="8" style="stroke:#181818;stroke-width:0.5;"/><path d="M93,21.5 L93,48.5 M80,29.5 L106,29.5 M93,48.5 L80,63.5 M93,48.5 L106,63.5 " fill="none" style="stroke:#181818;stroke-width:0.5;"/><text fill="#000000" font-family="sans-serif" font-size="14" lengthAdjust="spacing" textLength="120" x="30" y="558.2813">Campus Manager</text><ellipse cx="93" cy="569.7344" fill="#E2E2F0" rx="8" ry="8" style="stroke:#181818;stroke-width:0.5;"/><path d="M93,577.7344 L93,604.7344 M80,585.7344 L106,585.7344 M93,604.7344 L80,619.7344 M93,604.7344 L106,619.7344 " fill="none" style="stroke:#181818;stroke-width:0.5;"/><rect fill="#E2E2F0" height="46.9766" rx="2.5" ry="2.5" style="stroke:#181818;stroke-width:0.5;" width="158" x="305" y="33.5117"/><text fill="#000000" font-family="sans-serif" font-size="14" lengthAdjust="spacing" textLength="61" x="353.5" y="54.0469">&#171;system&#187;</text><text fill="#000000" font-family="sans-serif" font-size="14" lengthAdjust="spacing" textLength="140" x="316" y="70.5352">System RobDroneGo</text><rect fill="#E2E2F0" height="46.9766" rx="2.5" ry="2.5" style="stroke:#181818;stroke-width:0.5;" width="158" x="305" y="544.7461"/><text fill="#000000" font-family="sans-serif" font-size="14" lengthAdjust="spacing" textLength="61" x="353.5" y="565.2813">&#171;system&#187;</text><text fill="#000000" font-family="sans-serif" font-size="14" lengthAdjust="spacing" textLength="140" x="316" y="581.7695">System RobDroneGo</text><rect fill="#FFFFFF" height="444.2578" style="stroke:#181818;stroke-width:1.0;" width="10" x="88" y="91.4883"/><rect fill="#FFFFFF" height="97.8867" style="stroke:#181818;stroke-width:1.0;" width="10" x="379" y="112.7988"/><rect fill="#FFFFFF" height="29.3105" style="stroke:#181818;stroke-width:1.0;" width="10" x="379" y="239.9961"/><rect fill="#FFFFFF" height="29.3105" style="stroke:#181818;stroke-width:1.0;" width="10" x="379" y="298.6172"/><rect fill="#FFFFFF" height="29.3105" style="stroke:#181818;stroke-width:1.0;" width="10" x="379" y="357.2383"/><rect fill="#FFFFFF" height="119.8867" style="stroke:#181818;stroke-width:1.0;" width="10" x="379" y="415.8594"/><polygon fill="#181818" points="367,108.7988,377,112.7988,367,116.7988,371,112.7988" style="stroke:#181818;stroke-width:1.0;"/><line style="stroke:#181818;stroke-width:1.0;" x1="98" x2="373" y1="112.7988" y2="112.7988"/><text fill="#000000" font-family="sans-serif" font-size="13" font-weight="bold" lengthAdjust="spacing" textLength="9" x="105" y="108.0566">1</text><text fill="#000000" font-family="sans-serif" font-size="13" lengthAdjust="spacing" textLength="177" x="118" y="108.0566">wants to register a new task</text><path d="M10,127.7988 L72,127.7988 L72,135.1094 L62,145.1094 L10,145.1094 L10,127.7988 " fill="#EEEEEE" style="stroke:#000000;stroke-width:1.5;"/><rect fill="none" height="400.9473" style="stroke:#000000;stroke-width:1.5;" width="473" x="10" y="127.7988"/><text fill="#000000" font-family="sans-serif" font-size="13" font-weight="bold" lengthAdjust="spacing" textLength="17" x="25" y="141.3672">alt</text><text fill="#000000" font-family="sans-serif" font-size="11" font-weight="bold" lengthAdjust="spacing" textLength="128" x="87" y="140.4336">[building(s) not found]</text><polygon fill="#181818" points="109,162.4199,99,166.4199,109,170.4199,105,166.4199" style="stroke:#181818;stroke-width:1.0;"/><line style="stroke:#181818;stroke-width:1.0;stroke-dasharray:2.0,2.0;" x1="103" x2="378" y1="166.4199" y2="166.4199"/><text fill="#000000" font-family="sans-serif" font-size="13" font-weight="bold" lengthAdjust="spacing" textLength="9" x="115" y="161.6777">2</text><text fill="#000000" font-family="sans-serif" font-size="13" lengthAdjust="spacing" textLength="83" x="128" y="161.6777">informs error</text><line style="stroke:#000000;stroke-width:1.0;stroke-dasharray:2.0,2.0;" x1="10" x2="483" y1="175.4199" y2="175.4199"/><text fill="#000000" font-family="sans-serif" font-size="11" font-weight="bold" lengthAdjust="spacing" textLength="106" x="15" y="186.0547">[building(s) found]</text><polygon fill="#181818" points="109,206.6855,99,210.6855,109,214.6855,105,210.6855" style="stroke:#181818;stroke-width:1.0;"/><line style="stroke:#181818;stroke-width:1.0;stroke-dasharray:2.0,2.0;" x1="103" x2="383" y1="210.6855" y2="210.6855"/><text fill="#000000" font-family="sans-serif" font-size="13" font-weight="bold" lengthAdjust="spacing" textLength="9" x="115" y="205.9434">3</text><text fill="#000000" font-family="sans-serif" font-size="13" lengthAdjust="spacing" textLength="244" x="128" y="205.9434">requests pickup and delivery buildings</text><polygon fill="#181818" points="367,235.9961,377,239.9961,367,243.9961,371,239.9961" style="stroke:#181818;stroke-width:1.0;"/><line style="stroke:#181818;stroke-width:1.0;" x1="98" x2="373" y1="239.9961" y2="239.9961"/><text fill="#000000" font-family="sans-serif" font-size="13" font-weight="bold" lengthAdjust="spacing" textLength="9" x="105" y="235.2539">4</text><text fill="#000000" font-family="sans-serif" font-size="13" lengthAdjust="spacing" textLength="117" x="118" y="235.2539">provides buildings</text><polygon fill="#181818" points="109,265.3066,99,269.3066,109,273.3066,105,269.3066" style="stroke:#181818;stroke-width:1.0;"/><line style="stroke:#181818;stroke-width:1.0;stroke-dasharray:2.0,2.0;" x1="103" x2="383" y1="269.3066" y2="269.3066"/><text fill="#000000" font-family="sans-serif" font-size="13" font-weight="bold" lengthAdjust="spacing" textLength="9" x="115" y="264.5645">5</text><text fill="#000000" font-family="sans-serif" font-size="13" lengthAdjust="spacing" textLength="222" x="128" y="264.5645">requests pickup and delivery floors</text><polygon fill="#181818" points="367,294.6172,377,298.6172,367,302.6172,371,298.6172" style="stroke:#181818;stroke-width:1.0;"/><line style="stroke:#181818;stroke-width:1.0;" x1="98" x2="373" y1="298.6172" y2="298.6172"/><text fill="#000000" font-family="sans-serif" font-size="13" font-weight="bold" lengthAdjust="spacing" textLength="9" x="105" y="293.875">6</text><text fill="#000000" font-family="sans-serif" font-size="13" lengthAdjust="spacing" textLength="95" x="118" y="293.875">provides floors</text><polygon fill="#181818" points="109,323.9277,99,327.9277,109,331.9277,105,327.9277" style="stroke:#181818;stroke-width:1.0;"/><line style="stroke:#181818;stroke-width:1.0;stroke-dasharray:2.0,2.0;" x1="103" x2="383" y1="327.9277" y2="327.9277"/><text fill="#000000" font-family="sans-serif" font-size="13" font-weight="bold" lengthAdjust="spacing" textLength="9" x="115" y="323.1855">7</text><text fill="#000000" font-family="sans-serif" font-size="13" lengthAdjust="spacing" textLength="225" x="128" y="323.1855">requests pickup and delivery rooms</text><polygon fill="#181818" points="367,353.2383,377,357.2383,367,361.2383,371,357.2383" style="stroke:#181818;stroke-width:1.0;"/><line style="stroke:#181818;stroke-width:1.0;" x1="98" x2="373" y1="357.2383" y2="357.2383"/><text fill="#000000" font-family="sans-serif" font-size="13" font-weight="bold" lengthAdjust="spacing" textLength="9" x="105" y="352.4961">8</text><text fill="#000000" font-family="sans-serif" font-size="13" lengthAdjust="spacing" textLength="98" x="118" y="352.4961">provides rooms</text><polygon fill="#181818" points="109,382.5488,99,386.5488,109,390.5488,105,386.5488" style="stroke:#181818;stroke-width:1.0;"/><line style="stroke:#181818;stroke-width:1.0;stroke-dasharray:2.0,2.0;" x1="103" x2="383" y1="386.5488" y2="386.5488"/><text fill="#000000" font-family="sans-serif" font-size="13" font-weight="bold" lengthAdjust="spacing" textLength="9" x="115" y="381.8066">9</text><text fill="#000000" font-family="sans-serif" font-size="13" lengthAdjust="spacing" textLength="131" x="128" y="381.8066">requests task details</text><polygon fill="#181818" points="367,411.8594,377,415.8594,367,419.8594,371,415.8594" style="stroke:#181818;stroke-width:1.0;"/><line style="stroke:#181818;stroke-width:1.0;" x1="98" x2="373" y1="415.8594" y2="415.8594"/><text fill="#000000" font-family="sans-serif" font-size="13" font-weight="bold" lengthAdjust="spacing" textLength="18" x="105" y="411.1172">10</text><text fill="#000000" font-family="sans-serif" font-size="13" lengthAdjust="spacing" textLength="131" x="127" y="411.1172">provides task details</text><path d="M20,430.8594 L82,430.8594 L82,438.1699 L72,448.1699 L20,448.1699 L20,430.8594 " fill="#EEEEEE" style="stroke:#000000;stroke-width:1.5;"/><rect fill="none" height="90.8867" style="stroke:#000000;stroke-width:1.5;" width="453" x="20" y="430.8594"/><text fill="#000000" font-family="sans-serif" font-size="13" font-weight="bold" lengthAdjust="spacing" textLength="17" x="35" y="444.4277">alt</text><text fill="#000000" font-family="sans-serif" font-size="11" font-weight="bold" lengthAdjust="spacing" textLength="51" x="97" y="443.4941">[success]</text><polygon fill="#181818" points="109,465.4805,99,469.4805,109,473.4805,105,469.4805" style="stroke:#181818;stroke-width:1.0;"/><line style="stroke:#181818;stroke-width:1.0;stroke-dasharray:2.0,2.0;" x1="103" x2="378" y1="469.4805" y2="469.4805"/><text fill="#000000" font-family="sans-serif" font-size="13" font-weight="bold" lengthAdjust="spacing" textLength="18" x="115" y="464.7383">11</text><text fill="#000000" font-family="sans-serif" font-size="13" lengthAdjust="spacing" textLength="27" x="137" y="464.7383">task</text><line style="stroke:#000000;stroke-width:1.0;stroke-dasharray:2.0,2.0;" x1="20" x2="473" y1="478.4805" y2="478.4805"/><text fill="#000000" font-family="sans-serif" font-size="11" font-weight="bold" lengthAdjust="spacing" textLength="97" x="25" y="489.1152">[task not created]</text><polygon fill="#181818" points="109,509.7461,99,513.7461,109,517.7461,105,513.7461" style="stroke:#181818;stroke-width:1.0;"/><line style="stroke:#181818;stroke-width:1.0;stroke-dasharray:2.0,2.0;" x1="103" x2="378" y1="513.7461" y2="513.7461"/><text fill="#000000" font-family="sans-serif" font-size="13" font-weight="bold" lengthAdjust="spacing" textLength="18" x="115" y="509.0039">12</text><text fill="#000000" font-family="sans-serif" font-size="13" lengthAdjust="spacing" textLength="83" x="137" y="509.0039">informs error</text><!--SRC=[bPEnReGm38PtdiAwgHtk1KudbbRgrALTknXYK7GGKplXT6_V93fHAAKgaI81oVV_TlY3mRCBVKLI55Xx5ZWyOJy4XLTqs98S01M2nkK1nTlQ3kWy7CvdlQcdlYm_7BpdHtZZwbdOqGjdA6x8cdP4JraYJZYMQG5ES8qw2fv1gBMH5q1mT0MFUYaWZWbDGjXvg8BjZ7NjWpw2OmyD1sVorgHuZCh9u0JMDIoz0ecm5DGfBT0jJEWpaCQQ1bjVmW3e31Zgx4XocmGqWuOMnQLFYzu6uT4QqXcsRWdkOqSLJSSilvRmHmqpQEM_mrkO-xtMtyn_dTFVZmOURRVNR8MkF5E8DDGrwTRfJ-7BgScAAMcrKDGn6z0oRvcE0QDxo7uqC7jDL-8B]--></g></svg>