<?xml version="1.0" encoding="us-ascii" standalone="no"?><svg xmlns="http://www.w3.org/2000/svg" xmlns:xlink="http://www.w3.org/1999/xlink" contentStyleType="text/css" height="405px" preserveAspectRatio="none" style="width:485px;height:405px;background:#FFFFFF;" version="1.1" viewBox="0 0 485 405" width="485.7px" zoomAndPan="magnify"><defs/><g><!--cluster system--><g id="cluster_system"><path d="M2.55,1.8041 L17.55,1.8041 A1.125,1.125 0 0 1 18.3,2.5541 L20.4,9.1904 L482.85,9.1904 A0.75,0.75 0 0 1 483.6,9.9404 L483.6,402.3041 A0.75,0.75 0 0 1 482.85,403.0541 L2.55,403.0541 A0.75,0.75 0 0 1 1.8,402.3041 L1.8,2.5541 A0.75,0.75 0 0 1 2.55,1.8041 " fill="none" style="stroke:#000000;stroke-width:0.44999999999999996;"/><line style="stroke:#000000;stroke-width:0.44999999999999996;" x1="1.8" x2="20.4" y1="9.1904" y2="9.1904"/><text fill="#000000" font-family="sans-serif" font-size="4.2" font-weight="bold" lengthAdjust="spacing" textLength="14.7" x="3" y="6.9363">system</text></g><!--cluster Infrastructure--><g id="cluster_Infrastructure"><path d="M329.55,15.3041 L358.95,15.3041 A1.125,1.125 0 0 1 359.7,16.0541 L361.8,22.6904 L469.95,22.6904 A0.75,0.75 0 0 1 470.7,23.4404 L470.7,65.5541 A0.75,0.75 0 0 1 469.95,66.3041 L329.55,66.3041 A0.75,0.75 0 0 1 328.8,65.5541 L328.8,16.0541 A0.75,0.75 0 0 1 329.55,15.3041 " fill="none" style="stroke:#000000;stroke-width:0.44999999999999996;"/><line style="stroke:#000000;stroke-width:0.44999999999999996;" x1="328.8" x2="361.8" y1="22.6904" y2="22.6904"/><text fill="#000000" font-family="sans-serif" font-size="4.2" font-weight="bold" lengthAdjust="spacing" textLength="29.1" x="330" y="20.4363">Infrastructure</text></g><!--cluster Routes--><g id="cluster_Routes"><path d="M418.65,28.8041 L433.95,28.8041 A1.125,1.125 0 0 1 434.7,29.5541 L436.8,36.1904 L462.75,36.1904 A0.75,0.75 0 0 1 463.5,36.9404 L463.5,58.3541 A0.75,0.75 0 0 1 462.75,59.1041 L418.65,59.1041 A0.75,0.75 0 0 1 417.9,58.3541 L417.9,29.5541 A0.75,0.75 0 0 1 418.65,28.8041 " fill="none" style="stroke:#000000;stroke-width:0.44999999999999996;"/><line style="stroke:#000000;stroke-width:0.44999999999999996;" x1="417.9" x2="436.8" y1="36.1904" y2="36.1904"/><text fill="#000000" font-family="sans-serif" font-size="4.2" font-weight="bold" lengthAdjust="spacing" textLength="15" x="419.1" y="33.9363">Routes</text></g><!--cluster Persistence--><g id="cluster_Persistence"><path d="M336.75,28.8041 L362.25,28.8041 A1.125,1.125 0 0 1 363,29.5541 L365.1,36.1904 L409.95,36.1904 A0.75,0.75 0 0 1 410.7,36.9404 L410.7,58.3541 A0.75,0.75 0 0 1 409.95,59.1041 L336.75,59.1041 A0.75,0.75 0 0 1 336,58.3541 L336,29.5541 A0.75,0.75 0 0 1 336.75,28.8041 " fill="none" style="stroke:#000000;stroke-width:0.44999999999999996;"/><line style="stroke:#000000;stroke-width:0.44999999999999996;" x1="336" x2="365.1" y1="36.1904" y2="36.1904"/><text fill="#000000" font-family="sans-serif" font-size="4.2" font-weight="bold" lengthAdjust="spacing" textLength="25.2" x="337.2" y="33.9363">Persistence</text></g><!--cluster Interface Adapters--><g id="cluster_Interface Adapters"><path d="M342.75,73.5041 L382.05,73.5041 A1.125,1.125 0 0 1 382.8,74.2541 L384.9,80.8904 L475.65,80.8904 A0.75,0.75 0 0 1 476.4,81.6404 L476.4,208.9541 A0.75,0.75 0 0 1 475.65,209.7041 L342.75,209.7041 A0.75,0.75 0 0 1 342,208.9541 L342,74.2541 A0.75,0.75 0 0 1 342.75,73.5041 " fill="none" style="stroke:#000000;stroke-width:0.44999999999999996;"/><line style="stroke:#000000;stroke-width:0.44999999999999996;" x1="342" x2="384.9" y1="80.8904" y2="80.8904"/><text fill="#000000" font-family="sans-serif" font-size="4.2" font-weight="bold" lengthAdjust="spacing" textLength="39" x="343.2" y="78.6363">Interface Adapters</text></g><!--cluster Controllers--><g id="cluster_Controllers"><path d="M401.55,87.0041 L425.55,87.0041 A1.125,1.125 0 0 1 426.3,87.7541 L428.4,94.3904 L468.45,94.3904 A0.75,0.75 0 0 1 469.2,95.1404 L469.2,201.7541 A0.75,0.75 0 0 1 468.45,202.5041 L401.55,202.5041 A0.75,0.75 0 0 1 400.8,201.7541 L400.8,87.7541 A0.75,0.75 0 0 1 401.55,87.0041 " fill="none" style="stroke:#000000;stroke-width:0.44999999999999996;"/><line style="stroke:#000000;stroke-width:0.44999999999999996;" x1="400.8" x2="428.4" y1="94.3904" y2="94.3904"/><text fill="#000000" font-family="sans-serif" font-size="4.2" font-weight="bold" lengthAdjust="spacing" textLength="23.7" x="402" y="92.1363">Controllers</text></g><!--cluster IControllers--><g id="cluster_IControllers"><path d="M408.75,100.5041 L433.95,100.5041 A1.125,1.125 0 0 1 434.7,101.2541 L436.8,107.8904 L461.25,107.8904 A0.75,0.75 0 0 1 462,108.6404 L462,130.0541 A0.75,0.75 0 0 1 461.25,130.8041 L408.75,130.8041 A0.75,0.75 0 0 1 408,130.0541 L408,101.2541 A0.75,0.75 0 0 1 408.75,100.5041 " fill="none" style="stroke:#000000;stroke-width:0.44999999999999996;"/><line style="stroke:#000000;stroke-width:0.44999999999999996;" x1="408" x2="436.8" y1="107.8904" y2="107.8904"/><text fill="#000000" font-family="sans-serif" font-size="4.2" font-weight="bold" lengthAdjust="spacing" textLength="24.9" x="409.2" y="105.6363">IControllers</text></g><!--cluster ImplControllers--><g id="cluster_ImplControllers"><path d="M408.75,165.0041 L441.45,165.0041 A1.125,1.125 0 0 1 442.2,165.7541 L444.3,172.3904 L460.05,172.3904 A0.75,0.75 0 0 1 460.8,173.1404 L460.8,194.5541 A0.75,0.75 0 0 1 460.05,195.3041 L408.75,195.3041 A0.75,0.75 0 0 1 408,194.5541 L408,165.7541 A0.75,0.75 0 0 1 408.75,165.0041 " fill="none" style="stroke:#000000;stroke-width:0.44999999999999996;"/><line style="stroke:#000000;stroke-width:0.44999999999999996;" x1="408" x2="444.3" y1="172.3904" y2="172.3904"/><text fill="#000000" font-family="sans-serif" font-size="4.2" font-weight="bold" lengthAdjust="spacing" textLength="32.4" x="409.2" y="170.1363">ImplControllers</text></g><!--cluster Repositories--><g id="cluster_Repositories"><path d="M349.95,100.5041 L377.25,100.5041 A1.125,1.125 0 0 1 378,101.2541 L380.1,107.8904 L392.85,107.8904 A0.75,0.75 0 0 1 393.6,108.6404 L393.6,130.0541 A0.75,0.75 0 0 1 392.85,130.8041 L349.95,130.8041 A0.75,0.75 0 0 1 349.2,130.0541 L349.2,101.2541 A0.75,0.75 0 0 1 349.95,100.5041 " fill="none" style="stroke:#000000;stroke-width:0.44999999999999996;"/><line style="stroke:#000000;stroke-width:0.44999999999999996;" x1="349.2" x2="380.1" y1="107.8904" y2="107.8904"/><text fill="#000000" font-family="sans-serif" font-size="4.2" font-weight="bold" lengthAdjust="spacing" textLength="27" x="350.4" y="105.6363">Repositories</text></g><!--cluster Application Services--><g id="cluster_Application Services"><path d="M249.75,138.0041 L293.25,138.0041 A1.125,1.125 0 0 1 294,138.7541 L296.1,145.3904 L334.05,145.3904 A0.75,0.75 0 0 1 334.8,146.1404 L334.8,329.7041 A0.75,0.75 0 0 1 334.05,330.4541 L249.75,330.4541 A0.75,0.75 0 0 1 249,329.7041 L249,138.7541 A0.75,0.75 0 0 1 249.75,138.0041 " fill="none" style="stroke:#000000;stroke-width:0.44999999999999996;"/><line style="stroke:#000000;stroke-width:0.44999999999999996;" x1="249" x2="296.1" y1="145.3904" y2="145.3904"/><text fill="#000000" font-family="sans-serif" font-size="4.2" font-weight="bold" lengthAdjust="spacing" textLength="43.2" x="250.2" y="143.1363">Application Services</text></g><!--cluster App Services--><g id="cluster_App Services"><path d="M256.95,151.5041 L285.15,151.5041 A1.125,1.125 0 0 1 285.9,152.2541 L288,158.8904 L326.85,158.8904 A0.75,0.75 0 0 1 327.6,159.6404 L327.6,322.5041 A0.75,0.75 0 0 1 326.85,323.2541 L256.95,323.2541 A0.75,0.75 0 0 1 256.2,322.5041 L256.2,152.2541 A0.75,0.75 0 0 1 256.95,151.5041 " fill="none" style="stroke:#000000;stroke-width:0.44999999999999996;"/><line style="stroke:#000000;stroke-width:0.44999999999999996;" x1="256.2" x2="288" y1="158.8904" y2="158.8904"/><text fill="#000000" font-family="sans-serif" font-size="4.2" font-weight="bold" lengthAdjust="spacing" textLength="27.9" x="257.4" y="156.6363">App Services</text></g><!--cluster IAppServices--><g id="cluster_IAppServices"><path d="M264.15,285.7541 L292.35,285.7541 A1.125,1.125 0 0 1 293.1,286.5041 L295.2,293.1404 L319.65,293.1404 A0.75,0.75 0 0 1 320.4,293.8904 L320.4,315.3041 A0.75,0.75 0 0 1 319.65,316.0541 L264.15,316.0541 A0.75,0.75 0 0 1 263.4,315.3041 L263.4,286.5041 A0.75,0.75 0 0 1 264.15,285.7541 " fill="none" style="stroke:#000000;stroke-width:0.44999999999999996;"/><line style="stroke:#000000;stroke-width:0.44999999999999996;" x1="263.4" x2="295.2" y1="293.1404" y2="293.1404"/><text fill="#000000" font-family="sans-serif" font-size="4.2" font-weight="bold" lengthAdjust="spacing" textLength="27.9" x="264.6" y="290.8863">IAppServices</text></g><!--cluster ImplAppServices--><g id="cluster_ImplAppServices"><path d="M264.45,216.9041 L300.15,216.9041 A1.125,1.125 0 0 1 300.9,217.6541 L303,224.2904 L318.75,224.2904 A0.75,0.75 0 0 1 319.5,225.0404 L319.5,246.4541 A0.75,0.75 0 0 1 318.75,247.2041 L264.45,247.2041 A0.75,0.75 0 0 1 263.7,246.4541 L263.7,217.6541 A0.75,0.75 0 0 1 264.45,216.9041 " fill="none" style="stroke:#000000;stroke-width:0.44999999999999996;"/><line style="stroke:#000000;stroke-width:0.44999999999999996;" x1="263.7" x2="303" y1="224.2904" y2="224.2904"/><text fill="#000000" font-family="sans-serif" font-size="4.2" font-weight="bold" lengthAdjust="spacing" textLength="35.4" x="264.9" y="222.0363">ImplAppServices</text></g><!--cluster IRepositories--><g id="cluster_IRepositories"><path d="M275.55,165.0041 L304.05,165.0041 A1.125,1.125 0 0 1 304.8,165.7541 L306.9,172.3904 L319.65,172.3904 A0.75,0.75 0 0 1 320.4,173.1404 L320.4,194.5541 A0.75,0.75 0 0 1 319.65,195.3041 L275.55,195.3041 A0.75,0.75 0 0 1 274.8,194.5541 L274.8,165.7541 A0.75,0.75 0 0 1 275.55,165.0041 " fill="none" style="stroke:#000000;stroke-width:0.44999999999999996;"/><line style="stroke:#000000;stroke-width:0.44999999999999996;" x1="274.8" x2="306.9" y1="172.3904" y2="172.3904"/><text fill="#000000" font-family="sans-serif" font-size="4.2" font-weight="bold" lengthAdjust="spacing" textLength="28.2" x="276" y="170.1363">IRepositories</text></g><!--cluster Entities/Core/Domain--><g id="cluster_Entities/Core/Domain"><path d="M9.75,254.4041 L54.15,254.4041 A1.125,1.125 0 0 1 54.9,255.1541 L57,261.7904 L241.05,261.7904 A0.75,0.75 0 0 1 241.8,262.5404 L241.8,395.1041 A0.75,0.75 0 0 1 241.05,395.8541 L9.75,395.8541 A0.75,0.75 0 0 1 9,395.1041 L9,255.1541 A0.75,0.75 0 0 1 9.75,254.4041 " fill="none" style="stroke:#000000;stroke-width:0.44999999999999996;"/><line style="stroke:#000000;stroke-width:0.44999999999999996;" x1="9" x2="57" y1="261.7904" y2="261.7904"/><text fill="#000000" font-family="sans-serif" font-size="4.2" font-weight="bold" lengthAdjust="spacing" textLength="44.1" x="10.2" y="259.5363">Entities/Core/Domain</text></g><!--cluster Aggregates--><g id="cluster_Aggregates"><path d="M136.05,267.9041 L160.65,267.9041 A1.125,1.125 0 0 1 161.4,268.6541 L163.5,275.2904 L183.15,275.2904 A0.75,0.75 0 0 1 183.9,276.0404 L183.9,326.8541 A0.75,0.75 0 0 1 183.15,327.6041 L136.05,327.6041 A0.75,0.75 0 0 1 135.3,326.8541 L135.3,268.6541 A0.75,0.75 0 0 1 136.05,267.9041 " fill="none" style="stroke:#000000;stroke-width:0.44999999999999996;"/><line style="stroke:#000000;stroke-width:0.44999999999999996;" x1="135.3" x2="163.5" y1="275.2904" y2="275.2904"/><text fill="#000000" font-family="sans-serif" font-size="4.2" font-weight="bold" lengthAdjust="spacing" textLength="24.3" x="136.5" y="273.0363">Aggregates</text></g><!--cluster a_building--><g id="cluster_a_building"><path d="M143.25,281.4041 L160.95,281.4041 A1.125,1.125 0 0 1 161.7,282.1541 L163.8,288.7904 L175.95,288.7904 A0.75,0.75 0 0 1 176.7,289.5404 L176.7,319.6541 A0.75,0.75 0 0 1 175.95,320.4041 L143.25,320.4041 A0.75,0.75 0 0 1 142.5,319.6541 L142.5,282.1541 A0.75,0.75 0 0 1 143.25,281.4041 " fill="none" style="stroke:#000000;stroke-width:0.44999999999999996;"/><line style="stroke:#000000;stroke-width:0.44999999999999996;" x1="142.5" x2="163.8" y1="288.7904" y2="288.7904"/><text fill="#000000" font-family="sans-serif" font-size="4.2" font-weight="bold" lengthAdjust="spacing" textLength="17.4" x="143.7" y="286.5363">Building</text></g><!--cluster Value Objects--><g id="cluster_Value Objects"><path d="M16.95,337.6541 L46.35,337.6541 A1.125,1.125 0 0 1 47.1,338.4041 L49.2,345.0404 L233.85,345.0404 A0.75,0.75 0 0 1 234.6,345.7904 L234.6,387.9041 A0.75,0.75 0 0 1 233.85,388.6541 L16.95,388.6541 A0.75,0.75 0 0 1 16.2,387.9041 L16.2,338.4041 A0.75,0.75 0 0 1 16.95,337.6541 " fill="none" style="stroke:#000000;stroke-width:0.44999999999999996;"/><line style="stroke:#000000;stroke-width:0.44999999999999996;" x1="16.2" x2="49.2" y1="345.0404" y2="345.0404"/><text fill="#000000" font-family="sans-serif" font-size="4.2" font-weight="bold" lengthAdjust="spacing" textLength="29.1" x="17.4" y="342.7863">Value Objects</text></g><!--cluster vo_building--><g id="cluster_vo_building"><path d="M24.15,351.1541 L41.85,351.1541 A1.125,1.125 0 0 1 42.6,351.9041 L44.7,358.5404 L226.65,358.5404 A0.75,0.75 0 0 1 227.4,359.2904 L227.4,380.7041 A0.75,0.75 0 0 1 226.65,381.4541 L24.15,381.4541 A0.75,0.75 0 0 1 23.4,380.7041 L23.4,351.9041 A0.75,0.75 0 0 1 24.15,351.1541 " fill="none" style="stroke:#000000;stroke-width:0.44999999999999996;"/><line style="stroke:#000000;stroke-width:0.44999999999999996;" x1="23.4" x2="44.7" y1="358.5404" y2="358.5404"/><text fill="#000000" font-family="sans-serif" font-size="4.2" font-weight="bold" lengthAdjust="spacing" textLength="17.4" x="24.6" y="356.2863">Building</text></g><!--cluster DTO--><g id="cluster_DTO"><path d="M269.25,100.5041 L278.25,100.5041 A1.125,1.125 0 0 1 279,101.2541 L281.1,107.8904 L312.15,107.8904 A0.75,0.75 0 0 1 312.9,108.6404 L312.9,130.0541 A0.75,0.75 0 0 1 312.15,130.8041 L269.25,130.8041 A0.75,0.75 0 0 1 268.5,130.0541 L268.5,101.2541 A0.75,0.75 0 0 1 269.25,100.5041 " fill="none" style="stroke:#000000;stroke-width:0.44999999999999996;"/><line style="stroke:#000000;stroke-width:0.44999999999999996;" x1="268.5" x2="281.1" y1="107.8904" y2="107.8904"/><text fill="#000000" font-family="sans-serif" font-size="4.2" font-weight="bold" lengthAdjust="spacing" textLength="8.7" x="269.7" y="105.6363">DTO</text></g><!--class RouteBuilding--><g id="elem_RouteBuilding"><rect codeLine="16" fill="#F1F1F1" height="14.4" id="RouteBuilding" rx="0.75" ry="0.75" style="stroke:#181818;stroke-width:0.15;" width="36" x="422.7" y="39.9041"/><ellipse cx="427.2" cy="44.7041" fill="#ADD1B2" rx="3.3" ry="3.3" style="stroke:#181818;stroke-width:0.3;"/><path d="M428.0297,43.4666 Q428.0766,43.401 428.1328,43.3682 Q428.1891,43.3354 428.2547,43.3354 Q428.3672,43.3354 428.4375,43.415 Q428.5078,43.49 428.5078,43.6729 L428.5078,44.1088 Q428.5078,44.2916 428.4375,44.3713 Q428.3672,44.451 428.2547,44.451 Q428.1516,44.451 428.0906,44.39 Q428.0297,44.3338 427.9969,44.1791 Q427.9828,44.0713 427.9266,44.015 Q427.8281,43.9025 427.6453,43.8369 Q427.4625,43.7713 427.275,43.7713 Q427.0453,43.7713 426.8531,43.8697 Q426.6656,43.9682 426.5156,44.1932 Q426.3703,44.4182 426.3703,44.7275 L426.3703,45.0557 Q426.3703,45.426 426.6375,45.6744 Q426.9047,45.9182 427.3828,45.9182 Q427.6641,45.9182 427.8609,45.8432 Q427.9781,45.7963 428.1047,45.665 Q428.1844,45.5854 428.2266,45.5619 Q428.2734,45.5385 428.3344,45.5385 Q428.4328,45.5385 428.5078,45.6182 Q428.5875,45.6932 428.5875,45.7963 Q428.5875,45.8994 428.4844,46.0213 Q428.3344,46.1947 428.0953,46.2932 Q427.7719,46.4291 427.3828,46.4291 Q426.9281,46.4291 426.5672,46.2416 Q426.2719,46.0916 426.0656,45.7729 Q425.8594,45.4494 425.8594,45.065 L425.8594,44.7182 Q425.8594,44.3197 426.0422,43.9775 Q426.2297,43.6307 426.5578,43.4479 Q426.8859,43.2604 427.2562,43.2604 Q427.4766,43.2604 427.6688,43.3119 Q427.8656,43.3588 428.0297,43.4666 Z " fill="#000000"/><text fill="#000000" font-family="sans-serif" font-size="4.2" lengthAdjust="spacing" textLength="26.4" x="431.4" y="46.4432">RouteBuilding</text><line style="stroke:#181818;stroke-width:0.15;" x1="423" x2="458.4" y1="49.5041" y2="49.5041"/><line style="stroke:#181818;stroke-width:0.15;" x1="423" x2="458.4" y1="51.9041" y2="51.9041"/></g><!--class IDBDriver--><g id="elem_IDBDriver"><rect codeLine="20" fill="#F1F1F1" height="14.4" id="IDBDriver" rx="0.75" ry="0.75" style="stroke:#181818;stroke-width:0.15;" width="27.6" x="378.3" y="39.9041"/><ellipse cx="382.8" cy="44.7041" fill="#B4A7E5" rx="3.3" ry="3.3" style="stroke:#181818;stroke-width:0.3;"/><path d="M383.0859,43.6963 L383.0859,45.6932 L383.6016,45.6932 Q383.7844,45.6932 383.8641,45.7635 Q383.9437,45.8338 383.9437,45.951 Q383.9437,46.0635 383.8641,46.1338 Q383.7844,46.2041 383.6016,46.2041 L382.0594,46.2041 Q381.8766,46.2041 381.7969,46.1338 Q381.7172,46.0635 381.7172,45.9463 Q381.7172,45.8338 381.7969,45.7635 Q381.8766,45.6932 382.0594,45.6932 L382.575,45.6932 L382.575,43.6963 L382.0594,43.6963 Q381.8766,43.6963 381.7969,43.626 Q381.7172,43.5557 381.7172,43.4385 Q381.7172,43.326 381.7969,43.2557 Q381.8766,43.1854 382.0594,43.1854 L383.6016,43.1854 Q383.7844,43.1854 383.8641,43.2557 Q383.9437,43.326 383.9437,43.4385 Q383.9437,43.5557 383.8641,43.626 Q383.7844,43.6963 383.6016,43.6963 L383.0859,43.6963 Z " fill="#000000"/><text fill="#000000" font-family="sans-serif" font-size="4.2" font-style="italic" lengthAdjust="spacing" textLength="18" x="387" y="46.4432">IDBDriver</text><line style="stroke:#181818;stroke-width:0.15;" x1="378.6" x2="405.6" y1="49.5041" y2="49.5041"/><line style="stroke:#181818;stroke-width:0.15;" x1="378.6" x2="405.6" y1="51.9041" y2="51.9041"/></g><!--class DBDriver--><g id="elem_DBDriver"><rect codeLine="21" fill="#F1F1F1" height="14.4" id="DBDriver" rx="0.75" ry="0.75" style="stroke:#181818;stroke-width:0.15;" width="26.7" x="340.95" y="39.9041"/><ellipse cx="345.45" cy="44.7041" fill="#ADD1B2" rx="3.3" ry="3.3" style="stroke:#181818;stroke-width:0.3;"/><path d="M346.2797,43.4666 Q346.3266,43.401 346.3828,43.3682 Q346.4391,43.3354 346.5047,43.3354 Q346.6172,43.3354 346.6875,43.415 Q346.7578,43.49 346.7578,43.6729 L346.7578,44.1088 Q346.7578,44.2916 346.6875,44.3713 Q346.6172,44.451 346.5047,44.451 Q346.4016,44.451 346.3406,44.39 Q346.2797,44.3338 346.2469,44.1791 Q346.2328,44.0713 346.1766,44.015 Q346.0781,43.9025 345.8953,43.8369 Q345.7125,43.7713 345.525,43.7713 Q345.2953,43.7713 345.1031,43.8697 Q344.9156,43.9682 344.7656,44.1932 Q344.6203,44.4182 344.6203,44.7275 L344.6203,45.0557 Q344.6203,45.426 344.8875,45.6744 Q345.1547,45.9182 345.6328,45.9182 Q345.9141,45.9182 346.1109,45.8432 Q346.2281,45.7963 346.3547,45.665 Q346.4344,45.5854 346.4766,45.5619 Q346.5234,45.5385 346.5844,45.5385 Q346.6828,45.5385 346.7578,45.6182 Q346.8375,45.6932 346.8375,45.7963 Q346.8375,45.8994 346.7344,46.0213 Q346.5844,46.1947 346.3453,46.2932 Q346.0219,46.4291 345.6328,46.4291 Q345.1781,46.4291 344.8172,46.2416 Q344.5219,46.0916 344.3156,45.7729 Q344.1094,45.4494 344.1094,45.065 L344.1094,44.7182 Q344.1094,44.3197 344.2922,43.9775 Q344.4797,43.6307 344.8078,43.4479 Q345.1359,43.2604 345.5062,43.2604 Q345.7266,43.2604 345.9188,43.3119 Q346.1156,43.3588 346.2797,43.4666 Z " fill="#000000"/><text fill="#000000" font-family="sans-serif" font-size="4.2" lengthAdjust="spacing" textLength="17.1" x="349.65" y="46.4432">DBDriver</text><line style="stroke:#181818;stroke-width:0.15;" x1="341.25" x2="367.35" y1="49.5041" y2="49.5041"/><line style="stroke:#181818;stroke-width:0.15;" x1="341.25" x2="367.35" y1="51.9041" y2="51.9041"/></g><!--class IControllerBuilding--><g id="elem_IControllerBuilding"><rect codeLine="30" fill="#F1F1F1" height="14.4" id="IControllerBuilding" rx="0.75" ry="0.75" style="stroke:#181818;stroke-width:0.15;" width="44.4" x="412.8" y="111.6041"/><ellipse cx="417.3" cy="116.4041" fill="#B4A7E5" rx="3.3" ry="3.3" style="stroke:#181818;stroke-width:0.3;"/><path d="M417.5859,115.3963 L417.5859,117.3932 L418.1016,117.3932 Q418.2844,117.3932 418.3641,117.4635 Q418.4437,117.5338 418.4437,117.651 Q418.4437,117.7635 418.3641,117.8338 Q418.2844,117.9041 418.1016,117.9041 L416.5594,117.9041 Q416.3766,117.9041 416.2969,117.8338 Q416.2172,117.7635 416.2172,117.6463 Q416.2172,117.5338 416.2969,117.4635 Q416.3766,117.3932 416.5594,117.3932 L417.075,117.3932 L417.075,115.3963 L416.5594,115.3963 Q416.3766,115.3963 416.2969,115.326 Q416.2172,115.2557 416.2172,115.1385 Q416.2172,115.026 416.2969,114.9557 Q416.3766,114.8854 416.5594,114.8854 L418.1016,114.8854 Q418.2844,114.8854 418.3641,114.9557 Q418.4437,115.026 418.4437,115.1385 Q418.4437,115.2557 418.3641,115.326 Q418.2844,115.3963 418.1016,115.3963 L417.5859,115.3963 Z " fill="#000000"/><text fill="#000000" font-family="sans-serif" font-size="4.2" font-style="italic" lengthAdjust="spacing" textLength="34.8" x="421.5" y="118.1432">IControllerBuilding</text><line style="stroke:#181818;stroke-width:0.15;" x1="413.1" x2="456.9" y1="121.2041" y2="121.2041"/><line style="stroke:#181818;stroke-width:0.15;" x1="413.1" x2="456.9" y1="123.6041" y2="123.6041"/></g><!--class ControllerBuilding--><g id="elem_ControllerBuilding"><rect codeLine="34" fill="#F1F1F1" height="14.4" id="ControllerBuilding" rx="0.75" ry="0.75" style="stroke:#181818;stroke-width:0.15;" width="43.2" x="412.8" y="176.1041"/><ellipse cx="417.3" cy="180.9041" fill="#ADD1B2" rx="3.3" ry="3.3" style="stroke:#181818;stroke-width:0.3;"/><path d="M418.1297,179.6666 Q418.1766,179.601 418.2328,179.5682 Q418.2891,179.5354 418.3547,179.5354 Q418.4672,179.5354 418.5375,179.615 Q418.6078,179.69 418.6078,179.8729 L418.6078,180.3088 Q418.6078,180.4916 418.5375,180.5713 Q418.4672,180.651 418.3547,180.651 Q418.2516,180.651 418.1906,180.59 Q418.1297,180.5338 418.0969,180.3791 Q418.0828,180.2713 418.0266,180.215 Q417.9281,180.1025 417.7453,180.0369 Q417.5625,179.9713 417.375,179.9713 Q417.1453,179.9713 416.9531,180.0697 Q416.7656,180.1682 416.6156,180.3932 Q416.4703,180.6182 416.4703,180.9275 L416.4703,181.2557 Q416.4703,181.626 416.7375,181.8744 Q417.0047,182.1182 417.4828,182.1182 Q417.7641,182.1182 417.9609,182.0432 Q418.0781,181.9963 418.2047,181.865 Q418.2844,181.7854 418.3266,181.7619 Q418.3734,181.7385 418.4344,181.7385 Q418.5328,181.7385 418.6078,181.8182 Q418.6875,181.8932 418.6875,181.9963 Q418.6875,182.0994 418.5844,182.2213 Q418.4344,182.3947 418.1953,182.4932 Q417.8719,182.6291 417.4828,182.6291 Q417.0281,182.6291 416.6672,182.4416 Q416.3719,182.2916 416.1656,181.9729 Q415.9594,181.6494 415.9594,181.265 L415.9594,180.9182 Q415.9594,180.5197 416.1422,180.1775 Q416.3297,179.8307 416.6578,179.6479 Q416.9859,179.4604 417.3563,179.4604 Q417.5766,179.4604 417.7688,179.5119 Q417.9656,179.5588 418.1297,179.6666 Z " fill="#000000"/><text fill="#000000" font-family="sans-serif" font-size="4.2" lengthAdjust="spacing" textLength="33.6" x="421.5" y="182.6432">ControllerBuilding</text><line style="stroke:#181818;stroke-width:0.15;" x1="413.1" x2="455.7" y1="185.7041" y2="185.7041"/><line style="stroke:#181818;stroke-width:0.15;" x1="413.1" x2="455.7" y1="188.1041" y2="188.1041"/></g><!--class RepoBuilding--><g id="elem_RepoBuilding"><rect codeLine="40" fill="#F1F1F1" height="14.4" id="RepoBuilding" rx="0.75" ry="0.75" style="stroke:#181818;stroke-width:0.15;" width="34.8" x="354" y="111.6041"/><ellipse cx="358.5" cy="116.4041" fill="#ADD1B2" rx="3.3" ry="3.3" style="stroke:#181818;stroke-width:0.3;"/><path d="M359.3297,115.1666 Q359.3766,115.101 359.4328,115.0682 Q359.4891,115.0354 359.5547,115.0354 Q359.6672,115.0354 359.7375,115.115 Q359.8078,115.19 359.8078,115.3729 L359.8078,115.8088 Q359.8078,115.9916 359.7375,116.0713 Q359.6672,116.151 359.5547,116.151 Q359.4516,116.151 359.3906,116.09 Q359.3297,116.0338 359.2969,115.8791 Q359.2828,115.7713 359.2266,115.715 Q359.1281,115.6025 358.9453,115.5369 Q358.7625,115.4713 358.575,115.4713 Q358.3453,115.4713 358.1531,115.5697 Q357.9656,115.6682 357.8156,115.8932 Q357.6703,116.1182 357.6703,116.4275 L357.6703,116.7557 Q357.6703,117.126 357.9375,117.3744 Q358.2047,117.6182 358.6828,117.6182 Q358.9641,117.6182 359.1609,117.5432 Q359.2781,117.4963 359.4047,117.365 Q359.4844,117.2854 359.5266,117.2619 Q359.5734,117.2385 359.6344,117.2385 Q359.7328,117.2385 359.8078,117.3182 Q359.8875,117.3932 359.8875,117.4963 Q359.8875,117.5994 359.7844,117.7213 Q359.6344,117.8947 359.3953,117.9932 Q359.0719,118.1291 358.6828,118.1291 Q358.2281,118.1291 357.8672,117.9416 Q357.5719,117.7916 357.3656,117.4729 Q357.1594,117.1494 357.1594,116.765 L357.1594,116.4182 Q357.1594,116.0197 357.3422,115.6775 Q357.5297,115.3307 357.8578,115.1479 Q358.1859,114.9604 358.5563,114.9604 Q358.7766,114.9604 358.9688,115.0119 Q359.1656,115.0588 359.3297,115.1666 Z " fill="#000000"/><text fill="#000000" font-family="sans-serif" font-size="4.2" lengthAdjust="spacing" textLength="25.2" x="362.7" y="118.1432">RepoBuilding</text><line style="stroke:#181818;stroke-width:0.15;" x1="354.3" x2="388.5" y1="121.2041" y2="121.2041"/><line style="stroke:#181818;stroke-width:0.15;" x1="354.3" x2="388.5" y1="123.6041" y2="123.6041"/></g><!--class IAppServiceBuilding--><g id="elem_IAppServiceBuilding"><rect codeLine="53" fill="#F1F1F1" height="14.4" id="IAppServiceBuilding" rx="0.75" ry="0.75" style="stroke:#181818;stroke-width:0.15;" width="47.1" x="268.35" y="296.8541"/><ellipse cx="272.85" cy="301.6541" fill="#B4A7E5" rx="3.3" ry="3.3" style="stroke:#181818;stroke-width:0.3;"/><path d="M273.1359,300.6463 L273.1359,302.6432 L273.6516,302.6432 Q273.8344,302.6432 273.9141,302.7135 Q273.9938,302.7838 273.9938,302.901 Q273.9938,303.0135 273.9141,303.0838 Q273.8344,303.1541 273.6516,303.1541 L272.1094,303.1541 Q271.9266,303.1541 271.8469,303.0838 Q271.7672,303.0135 271.7672,302.8963 Q271.7672,302.7838 271.8469,302.7135 Q271.9266,302.6432 272.1094,302.6432 L272.625,302.6432 L272.625,300.6463 L272.1094,300.6463 Q271.9266,300.6463 271.8469,300.576 Q271.7672,300.5057 271.7672,300.3885 Q271.7672,300.276 271.8469,300.2057 Q271.9266,300.1354 272.1094,300.1354 L273.6516,300.1354 Q273.8344,300.1354 273.9141,300.2057 Q273.9938,300.276 273.9938,300.3885 Q273.9938,300.5057 273.9141,300.576 Q273.8344,300.6463 273.6516,300.6463 L273.1359,300.6463 Z " fill="#000000"/><text fill="#000000" font-family="sans-serif" font-size="4.2" font-style="italic" lengthAdjust="spacing" textLength="37.5" x="277.05" y="303.3932">IAppServiceBuilding</text><line style="stroke:#181818;stroke-width:0.15;" x1="268.65" x2="315.15" y1="306.4541" y2="306.4541"/><line style="stroke:#181818;stroke-width:0.15;" x1="268.65" x2="315.15" y1="308.8541" y2="308.8541"/></g><!--class AppServiceBuilding--><g id="elem_AppServiceBuilding"><rect codeLine="57" fill="#F1F1F1" height="14.4" id="AppServiceBuilding" rx="0.75" ry="0.75" style="stroke:#181818;stroke-width:0.15;" width="46.2" x="268.5" y="228.0041"/><ellipse cx="273" cy="232.8041" fill="#ADD1B2" rx="3.3" ry="3.3" style="stroke:#181818;stroke-width:0.3;"/><path d="M273.8297,231.5666 Q273.8766,231.501 273.9328,231.4682 Q273.9891,231.4354 274.0547,231.4354 Q274.1672,231.4354 274.2375,231.515 Q274.3078,231.59 274.3078,231.7729 L274.3078,232.2088 Q274.3078,232.3916 274.2375,232.4713 Q274.1672,232.551 274.0547,232.551 Q273.9516,232.551 273.8906,232.49 Q273.8297,232.4338 273.7969,232.2791 Q273.7828,232.1713 273.7266,232.115 Q273.6281,232.0025 273.4453,231.9369 Q273.2625,231.8713 273.075,231.8713 Q272.8453,231.8713 272.6531,231.9697 Q272.4656,232.0682 272.3156,232.2932 Q272.1703,232.5182 272.1703,232.8275 L272.1703,233.1557 Q272.1703,233.526 272.4375,233.7744 Q272.7047,234.0182 273.1828,234.0182 Q273.4641,234.0182 273.6609,233.9432 Q273.7781,233.8963 273.9047,233.765 Q273.9844,233.6854 274.0266,233.6619 Q274.0734,233.6385 274.1344,233.6385 Q274.2328,233.6385 274.3078,233.7182 Q274.3875,233.7932 274.3875,233.8963 Q274.3875,233.9994 274.2844,234.1213 Q274.1344,234.2947 273.8953,234.3932 Q273.5719,234.5291 273.1828,234.5291 Q272.7281,234.5291 272.3672,234.3416 Q272.0719,234.1916 271.8656,233.8729 Q271.6594,233.5494 271.6594,233.165 L271.6594,232.8182 Q271.6594,232.4197 271.8422,232.0775 Q272.0297,231.7307 272.3578,231.5479 Q272.6859,231.3604 273.0563,231.3604 Q273.2766,231.3604 273.4688,231.4119 Q273.6656,231.4588 273.8297,231.5666 Z " fill="#000000"/><text fill="#000000" font-family="sans-serif" font-size="4.2" lengthAdjust="spacing" textLength="36.6" x="277.2" y="234.5432">AppServiceBuilding</text><line style="stroke:#181818;stroke-width:0.15;" x1="268.8" x2="314.4" y1="237.6041" y2="237.6041"/><line style="stroke:#181818;stroke-width:0.15;" x1="268.8" x2="314.4" y1="240.0041" y2="240.0041"/></g><!--class IRepoBuilding--><g id="elem_IRepoBuilding"><rect codeLine="63" fill="#F1F1F1" height="14.4" id="IRepoBuilding" rx="0.75" ry="0.75" style="stroke:#181818;stroke-width:0.15;" width="36" x="279.6" y="176.1041"/><ellipse cx="284.1" cy="180.9041" fill="#B4A7E5" rx="3.3" ry="3.3" style="stroke:#181818;stroke-width:0.3;"/><path d="M284.3859,179.8963 L284.3859,181.8932 L284.9016,181.8932 Q285.0844,181.8932 285.1641,181.9635 Q285.2438,182.0338 285.2438,182.151 Q285.2438,182.2635 285.1641,182.3338 Q285.0844,182.4041 284.9016,182.4041 L283.3594,182.4041 Q283.1766,182.4041 283.0969,182.3338 Q283.0172,182.2635 283.0172,182.1463 Q283.0172,182.0338 283.0969,181.9635 Q283.1766,181.8932 283.3594,181.8932 L283.875,181.8932 L283.875,179.8963 L283.3594,179.8963 Q283.1766,179.8963 283.0969,179.826 Q283.0172,179.7557 283.0172,179.6385 Q283.0172,179.526 283.0969,179.4557 Q283.1766,179.3854 283.3594,179.3854 L284.9016,179.3854 Q285.0844,179.3854 285.1641,179.4557 Q285.2438,179.526 285.2438,179.6385 Q285.2438,179.7557 285.1641,179.826 Q285.0844,179.8963 284.9016,179.8963 L284.3859,179.8963 Z " fill="#000000"/><text fill="#000000" font-family="sans-serif" font-size="4.2" font-style="italic" lengthAdjust="spacing" textLength="26.4" x="288.3" y="182.6432">IRepoBuilding</text><line style="stroke:#181818;stroke-width:0.15;" x1="279.9" x2="315.3" y1="185.7041" y2="185.7041"/><line style="stroke:#181818;stroke-width:0.15;" x1="279.9" x2="315.3" y1="188.1041" y2="188.1041"/></g><!--class Building--><g id="elem_Building"><rect codeLine="81" fill="#F1F1F1" height="22.9629" id="Building" rx="0.75" ry="0.75" style="stroke:#181818;stroke-width:0.15;" width="24.6" x="147.3" y="292.5041"/><ellipse cx="151.8" cy="301.5855" fill="#ADD1B2" rx="3.3" ry="3.3" style="stroke:#181818;stroke-width:0.3;"/><path d="M151.4578,301.8246 L151.4578,302.5746 L152.7563,302.5746 L152.7563,302.298 Q152.7563,302.1152 152.8266,302.0355 Q152.9016,301.9559 153.0141,301.9559 Q153.1266,301.9559 153.1969,302.0355 Q153.2672,302.1152 153.2672,302.298 L153.2672,303.0855 L150.8672,303.0855 Q150.6797,303.0855 150.6,303.0152 Q150.525,302.9449 150.525,302.8277 Q150.525,302.7152 150.6047,302.6449 Q150.6844,302.5746 150.8672,302.5746 L150.9469,302.5746 L150.9469,300.5777 L150.8672,300.5777 Q150.6797,300.5777 150.6,300.5074 Q150.525,300.4371 150.525,300.3199 Q150.525,300.2074 150.6,300.1371 Q150.6797,300.0668 150.8672,300.0668 L153.1547,300.0668 L153.1547,300.8449 Q153.1547,301.0277 153.0844,301.1074 Q153.0187,301.1824 152.9016,301.1824 Q152.7891,301.1824 152.7188,301.1074 Q152.6484,301.0277 152.6484,300.8449 L152.6484,300.5777 L151.4578,300.5777 L151.4578,301.3137 L151.9031,301.3137 Q151.9031,301.1168 151.9406,301.0605 Q152.0203,300.9387 152.1609,300.9387 Q152.2734,300.9387 152.3438,301.0184 Q152.4141,301.0934 152.4141,301.2762 L152.4141,301.8668 Q152.4141,302.0309 152.3766,302.0871 Q152.2969,302.2043 152.1609,302.2043 Q152.0203,302.2043 151.9406,302.0824 Q151.9031,302.0262 151.9031,301.8246 L151.4578,301.8246 Z " fill="#000000"/><text fill="#000000" font-family="sans-serif" font-size="3.6" font-style="italic" lengthAdjust="spacing" textLength="10.5" x="158.25" y="297.8889">&#171;root&#187;</text><text fill="#000000" font-family="sans-serif" font-size="3.6" font-style="italic" lengthAdjust="spacing" textLength="12.9" x="157.05" y="302.6771">&#171;entity&#187;</text><text fill="#000000" font-family="sans-serif" font-size="4.2" lengthAdjust="spacing" textLength="15" x="156" y="308.1129">Building</text><line style="stroke:#181818;stroke-width:0.15;" x1="147.6" x2="171.6" y1="310.667" y2="310.667"/><line style="stroke:#181818;stroke-width:0.15;" x1="147.6" x2="171.6" y1="313.067" y2="313.067"/></g><!--class BuildingCode--><g id="elem_BuildingCode"><rect codeLine="89" fill="#F1F1F1" height="14.4" id="BuildingCode" rx="0.75" ry="0.75" style="stroke:#181818;stroke-width:0.15;" width="34.8" x="187.8" y="362.2541"/><ellipse cx="192.3" cy="367.0541" fill="#ADD1B2" rx="3.3" ry="3.3" style="stroke:#181818;stroke-width:0.3;"/><path d="M193.1297,365.8166 Q193.1766,365.751 193.2328,365.7182 Q193.2891,365.6854 193.3547,365.6854 Q193.4672,365.6854 193.5375,365.765 Q193.6078,365.84 193.6078,366.0229 L193.6078,366.4588 Q193.6078,366.6416 193.5375,366.7213 Q193.4672,366.801 193.3547,366.801 Q193.2516,366.801 193.1906,366.74 Q193.1297,366.6838 193.0969,366.5291 Q193.0828,366.4213 193.0266,366.365 Q192.9281,366.2525 192.7453,366.1869 Q192.5625,366.1213 192.375,366.1213 Q192.1453,366.1213 191.9531,366.2197 Q191.7656,366.3182 191.6156,366.5432 Q191.4703,366.7682 191.4703,367.0775 L191.4703,367.4057 Q191.4703,367.776 191.7375,368.0244 Q192.0047,368.2682 192.4828,368.2682 Q192.7641,368.2682 192.9609,368.1932 Q193.0781,368.1463 193.2047,368.015 Q193.2844,367.9354 193.3266,367.9119 Q193.3734,367.8885 193.4344,367.8885 Q193.5328,367.8885 193.6078,367.9682 Q193.6875,368.0432 193.6875,368.1463 Q193.6875,368.2494 193.5844,368.3713 Q193.4344,368.5447 193.1953,368.6432 Q192.8719,368.7791 192.4828,368.7791 Q192.0281,368.7791 191.6672,368.5916 Q191.3719,368.4416 191.1656,368.1229 Q190.9594,367.7994 190.9594,367.415 L190.9594,367.0682 Q190.9594,366.6697 191.1422,366.3275 Q191.3297,365.9807 191.6578,365.7979 Q191.9859,365.6104 192.3563,365.6104 Q192.5766,365.6104 192.7687,365.6619 Q192.9656,365.7088 193.1297,365.8166 Z " fill="#000000"/><text fill="#000000" font-family="sans-serif" font-size="4.2" lengthAdjust="spacing" textLength="25.2" x="196.5" y="368.7932">BuildingCode</text><line style="stroke:#181818;stroke-width:0.15;" x1="188.1" x2="222.3" y1="371.8541" y2="371.8541"/><line style="stroke:#181818;stroke-width:0.15;" x1="188.1" x2="222.3" y1="374.2541" y2="374.2541"/></g><!--class BuildingName--><g id="elem_BuildingName"><rect codeLine="90" fill="#F1F1F1" height="14.4" id="BuildingName" rx="0.75" ry="0.75" style="stroke:#181818;stroke-width:0.15;" width="35.4" x="141.9" y="362.2541"/><ellipse cx="146.4" cy="367.0541" fill="#ADD1B2" rx="3.3" ry="3.3" style="stroke:#181818;stroke-width:0.3;"/><path d="M147.2297,365.8166 Q147.2766,365.751 147.3328,365.7182 Q147.3891,365.6854 147.4547,365.6854 Q147.5672,365.6854 147.6375,365.765 Q147.7078,365.84 147.7078,366.0229 L147.7078,366.4588 Q147.7078,366.6416 147.6375,366.7213 Q147.5672,366.801 147.4547,366.801 Q147.3516,366.801 147.2906,366.74 Q147.2297,366.6838 147.1969,366.5291 Q147.1828,366.4213 147.1266,366.365 Q147.0281,366.2525 146.8453,366.1869 Q146.6625,366.1213 146.475,366.1213 Q146.2453,366.1213 146.0531,366.2197 Q145.8656,366.3182 145.7156,366.5432 Q145.5703,366.7682 145.5703,367.0775 L145.5703,367.4057 Q145.5703,367.776 145.8375,368.0244 Q146.1047,368.2682 146.5828,368.2682 Q146.8641,368.2682 147.0609,368.1932 Q147.1781,368.1463 147.3047,368.015 Q147.3844,367.9354 147.4266,367.9119 Q147.4734,367.8885 147.5344,367.8885 Q147.6328,367.8885 147.7078,367.9682 Q147.7875,368.0432 147.7875,368.1463 Q147.7875,368.2494 147.6844,368.3713 Q147.5344,368.5447 147.2953,368.6432 Q146.9719,368.7791 146.5828,368.7791 Q146.1281,368.7791 145.7672,368.5916 Q145.4719,368.4416 145.2656,368.1229 Q145.0594,367.7994 145.0594,367.415 L145.0594,367.0682 Q145.0594,366.6697 145.2422,366.3275 Q145.4297,365.9807 145.7578,365.7979 Q146.0859,365.6104 146.4562,365.6104 Q146.6766,365.6104 146.8688,365.6619 Q147.0656,365.7088 147.2297,365.8166 Z " fill="#000000"/><text fill="#000000" font-family="sans-serif" font-size="4.2" lengthAdjust="spacing" textLength="25.8" x="150.6" y="368.7932">BuildingName</text><line style="stroke:#181818;stroke-width:0.15;" x1="142.2" x2="177" y1="371.8541" y2="371.8541"/><line style="stroke:#181818;stroke-width:0.15;" x1="142.2" x2="177" y1="374.2541" y2="374.2541"/></g><!--class BuildingDescription--><g id="elem_BuildingDescription"><rect codeLine="91" fill="#F1F1F1" height="14.4" id="BuildingDescription" rx="0.75" ry="0.75" style="stroke:#181818;stroke-width:0.15;" width="45.9" x="85.35" y="362.2541"/><ellipse cx="89.85" cy="367.0541" fill="#ADD1B2" rx="3.3" ry="3.3" style="stroke:#181818;stroke-width:0.3;"/><path d="M90.6797,365.8166 Q90.7266,365.751 90.7828,365.7182 Q90.8391,365.6854 90.9047,365.6854 Q91.0172,365.6854 91.0875,365.765 Q91.1578,365.84 91.1578,366.0229 L91.1578,366.4588 Q91.1578,366.6416 91.0875,366.7213 Q91.0172,366.801 90.9047,366.801 Q90.8016,366.801 90.7406,366.74 Q90.6797,366.6838 90.6469,366.5291 Q90.6328,366.4213 90.5766,366.365 Q90.4781,366.2525 90.2953,366.1869 Q90.1125,366.1213 89.925,366.1213 Q89.6953,366.1213 89.5031,366.2197 Q89.3156,366.3182 89.1656,366.5432 Q89.0203,366.7682 89.0203,367.0775 L89.0203,367.4057 Q89.0203,367.776 89.2875,368.0244 Q89.5547,368.2682 90.0328,368.2682 Q90.3141,368.2682 90.5109,368.1932 Q90.6281,368.1463 90.7547,368.015 Q90.8344,367.9354 90.8766,367.9119 Q90.9234,367.8885 90.9844,367.8885 Q91.0828,367.8885 91.1578,367.9682 Q91.2375,368.0432 91.2375,368.1463 Q91.2375,368.2494 91.1344,368.3713 Q90.9844,368.5447 90.7453,368.6432 Q90.4219,368.7791 90.0328,368.7791 Q89.5781,368.7791 89.2172,368.5916 Q88.9219,368.4416 88.7156,368.1229 Q88.5094,367.7994 88.5094,367.415 L88.5094,367.0682 Q88.5094,366.6697 88.6922,366.3275 Q88.8797,365.9807 89.2078,365.7979 Q89.5359,365.6104 89.9063,365.6104 Q90.1266,365.6104 90.3188,365.6619 Q90.5156,365.7088 90.6797,365.8166 Z " fill="#000000"/><text fill="#000000" font-family="sans-serif" font-size="4.2" lengthAdjust="spacing" textLength="36.3" x="94.05" y="368.7932">BuildingDescription</text><line style="stroke:#181818;stroke-width:0.15;" x1="85.65" x2="130.95" y1="371.8541" y2="371.8541"/><line style="stroke:#181818;stroke-width:0.15;" x1="85.65" x2="130.95" y1="374.2541" y2="374.2541"/></g><!--class BuildingDimensions--><g id="elem_BuildingDimensions"><rect codeLine="92" fill="#F1F1F1" height="14.4" id="BuildingDimensions" rx="0.75" ry="0.75" style="stroke:#181818;stroke-width:0.15;" width="46.5" x="28.35" y="362.2541"/><ellipse cx="32.85" cy="367.0541" fill="#ADD1B2" rx="3.3" ry="3.3" style="stroke:#181818;stroke-width:0.3;"/><path d="M33.6797,365.8166 Q33.7266,365.751 33.7828,365.7182 Q33.8391,365.6854 33.9047,365.6854 Q34.0172,365.6854 34.0875,365.765 Q34.1578,365.84 34.1578,366.0229 L34.1578,366.4588 Q34.1578,366.6416 34.0875,366.7213 Q34.0172,366.801 33.9047,366.801 Q33.8016,366.801 33.7406,366.74 Q33.6797,366.6838 33.6469,366.5291 Q33.6328,366.4213 33.5766,366.365 Q33.4781,366.2525 33.2953,366.1869 Q33.1125,366.1213 32.925,366.1213 Q32.6953,366.1213 32.5031,366.2197 Q32.3156,366.3182 32.1656,366.5432 Q32.0203,366.7682 32.0203,367.0775 L32.0203,367.4057 Q32.0203,367.776 32.2875,368.0244 Q32.5547,368.2682 33.0328,368.2682 Q33.3141,368.2682 33.5109,368.1932 Q33.6281,368.1463 33.7547,368.015 Q33.8344,367.9354 33.8766,367.9119 Q33.9234,367.8885 33.9844,367.8885 Q34.0828,367.8885 34.1578,367.9682 Q34.2375,368.0432 34.2375,368.1463 Q34.2375,368.2494 34.1344,368.3713 Q33.9844,368.5447 33.7453,368.6432 Q33.4219,368.7791 33.0328,368.7791 Q32.5781,368.7791 32.2172,368.5916 Q31.9219,368.4416 31.7156,368.1229 Q31.5094,367.7994 31.5094,367.415 L31.5094,367.0682 Q31.5094,366.6697 31.6922,366.3275 Q31.8797,365.9807 32.2078,365.7979 Q32.5359,365.6104 32.9063,365.6104 Q33.1266,365.6104 33.3188,365.6619 Q33.5156,365.7088 33.6797,365.8166 Z " fill="#000000"/><text fill="#000000" font-family="sans-serif" font-size="4.2" lengthAdjust="spacing" textLength="36.9" x="37.05" y="368.7932">BuildingDimensions</text><line style="stroke:#181818;stroke-width:0.15;" x1="28.65" x2="74.55" y1="371.8541" y2="371.8541"/><line style="stroke:#181818;stroke-width:0.15;" x1="28.65" x2="74.55" y1="374.2541" y2="374.2541"/></g><!--class IBuildingDTO--><g id="elem_IBuildingDTO"><rect codeLine="107" fill="#F1F1F1" height="14.4" id="IBuildingDTO" rx="0.75" ry="0.75" style="stroke:#181818;stroke-width:0.15;" width="34.8" x="273.3" y="111.6041"/><ellipse cx="277.8" cy="116.4041" fill="#B4A7E5" rx="3.3" ry="3.3" style="stroke:#181818;stroke-width:0.3;"/><path d="M278.0859,115.3963 L278.0859,117.3932 L278.6016,117.3932 Q278.7844,117.3932 278.8641,117.4635 Q278.9437,117.5338 278.9437,117.651 Q278.9437,117.7635 278.8641,117.8338 Q278.7844,117.9041 278.6016,117.9041 L277.0594,117.9041 Q276.8766,117.9041 276.7969,117.8338 Q276.7172,117.7635 276.7172,117.6463 Q276.7172,117.5338 276.7969,117.4635 Q276.8766,117.3932 277.0594,117.3932 L277.575,117.3932 L277.575,115.3963 L277.0594,115.3963 Q276.8766,115.3963 276.7969,115.326 Q276.7172,115.2557 276.7172,115.1385 Q276.7172,115.026 276.7969,114.9557 Q276.8766,114.8854 277.0594,114.8854 L278.6016,114.8854 Q278.7844,114.8854 278.8641,114.9557 Q278.9437,115.026 278.9437,115.1385 Q278.9437,115.2557 278.8641,115.326 Q278.7844,115.3963 278.6016,115.3963 L278.0859,115.3963 Z " fill="#000000"/><text fill="#000000" font-family="sans-serif" font-size="4.2" font-style="italic" lengthAdjust="spacing" textLength="25.2" x="282" y="118.1432">IBuildingDTO</text><line style="stroke:#181818;stroke-width:0.15;" x1="273.6" x2="307.8" y1="121.2041" y2="121.2041"/><line style="stroke:#181818;stroke-width:0.15;" x1="273.6" x2="307.8" y1="123.6041" y2="123.6041"/></g><!--link DBDriver to IDBDriver--><g id="link_DBDriver_IDBDriver"><path codeLine="24" d="M367.737,47.1041 C369.21,47.1041 370.68,47.1041 372.153,47.1041 " fill="none" id="DBDriver-to-IDBDriver" style="stroke:#FF6655;stroke-width:0.3;"/><polygon fill="none" points="372.204,45.0041,378.204,47.1041,372.204,49.2041,372.204,45.0041" style="stroke:#FF6655;stroke-width:0.3;"/></g><!--reverse link IControllerBuilding to ControllerBuilding--><g id="link_IControllerBuilding_ControllerBuilding"><path codeLine="36" d="M434.877,132.1361 C434.754,145.4261 434.565,165.5441 434.466,176.0531 " fill="none" id="IControllerBuilding-backto-ControllerBuilding" style="stroke:#FF6655;stroke-width:0.3;"/><polygon fill="none" points="432.777,132.0431,434.934,126.0641,436.977,132.0851,432.777,132.0431" style="stroke:#FF6655;stroke-width:0.3;"/></g><!--reverse link DBDriver to RepoBuilding--><g id="link_DBDriver_RepoBuilding"><path codeLine="44" d="M356.331,55.8431 C359.742,70.0301 366.564,98.3921 369.723,111.5291 " fill="none" id="DBDriver-backto-RepoBuilding" style="stroke:#FF6655;stroke-width:0.3;stroke-dasharray:7.0,7.0;"/><polygon fill="#FF6655" points="355.971,54.3521,355.4375,57.2582,356.3227,55.8103,357.7706,56.6955,355.971,54.3521" style="stroke:#FF6655;stroke-width:0.3;"/></g><!--link RouteBuilding to IControllerBuilding--><g id="link_RouteBuilding_IControllerBuilding"><path codeLine="47" d="M440.142,54.3521 C439.092,67.4651 436.818,95.8271 435.678,110.0351 " fill="none" id="RouteBuilding-to-IControllerBuilding" style="stroke:#FF6655;stroke-width:0.3;stroke-dasharray:7.0,7.0;"/><polygon fill="#FF6655" points="435.558,111.5291,436.9701,108.9337,435.678,110.0339,434.5778,108.7418,435.558,111.5291" style="stroke:#FF6655;stroke-width:0.3;"/></g><!--link AppServiceBuilding to IAppServiceBuilding--><g id="link_AppServiceBuilding_IAppServiceBuilding"><path codeLine="60" d="M291.63,242.4251 C291.681,253.7411 291.78,276.3911 291.843,290.7731 " fill="none" id="AppServiceBuilding-to-IAppServiceBuilding" style="stroke:#FF6655;stroke-width:0.3;"/><polygon fill="none" points="293.943,290.8061,291.87,296.8151,289.743,290.8241,293.943,290.8061" style="stroke:#FF6655;stroke-width:0.3;"/></g><!--link RepoBuilding to IRepoBuilding--><g id="link_RepoBuilding_IRepoBuilding"><path codeLine="67" d="M363.363,126.0641 C350.553,137.1551 325.404,158.9291 310.191,172.1021 " fill="none" id="RepoBuilding-to-IRepoBuilding" style="stroke:#FF6655;stroke-width:0.3;"/><polygon fill="none" points="311.538,173.7131,305.628,176.0531,308.79,170.5361,311.538,173.7131" style="stroke:#FF6655;stroke-width:0.3;"/></g><!--link ControllerBuilding to IAppServiceBuilding--><g id="link_ControllerBuilding_IAppServiceBuilding"><path codeLine="71" d="M426.123,190.5821 C401.301,211.5131 327.591,273.6611 301.326,295.8071 " fill="none" id="ControllerBuilding-to-IAppServiceBuilding" style="stroke:#FF6655;stroke-width:0.3;stroke-dasharray:7.0,7.0;"/><polygon fill="#FF6655" points="300.111,296.8301,302.9504,296.0131,301.2598,295.8656,301.4073,294.175,300.111,296.8301" style="stroke:#FF6655;stroke-width:0.3;"/></g><!--reverse link IRepoBuilding to AppServiceBuilding--><g id="link_IRepoBuilding_AppServiceBuilding"><path codeLine="73" d="M296.61,192.0731 C295.437,202.0991 293.505,218.6111 292.416,227.9321 " fill="none" id="IRepoBuilding-backto-AppServiceBuilding" style="stroke:#FF6655;stroke-width:0.3;stroke-dasharray:7.0,7.0;"/><polygon fill="#FF6655" points="296.79,190.5221,295.2823,193.0631,296.6145,192.0118,297.6658,193.344,296.79,190.5221" style="stroke:#FF6655;stroke-width:0.3;"/></g><!--link Building to BuildingCode--><g id="link_Building_BuildingCode"><path codeLine="97" d="M168.312,315.6881 C172.704,321.4841 178.071,328.6841 182.7,335.2541 C188.766,343.8611 195.396,353.9381 199.878,360.8561 " fill="none" id="Building-to-BuildingCode" style="stroke:#FF6655;stroke-width:0.3;"/><polygon fill="#FF6655" points="200.745,362.1941,200.2874,359.2751,199.9308,360.9343,198.2716,360.5778,200.745,362.1941" style="stroke:#FF6655;stroke-width:0.3;"/><text fill="#000000" font-family="Impact" font-size="3.9" lengthAdjust="spacing" textLength="1.5" x="168.0312" y="321.7785">1</text><text fill="#000000" font-family="Impact" font-size="3.9" lengthAdjust="spacing" textLength="1.5" x="197.7811" y="358.9898">1</text></g><!--link Building to BuildingName--><g id="link_Building_BuildingName"><path codeLine="98" d="M159.6,315.6401 C159.6,328.4291 159.6,348.9881 159.6,360.5471 " fill="none" id="Building-to-BuildingName" style="stroke:#FF6655;stroke-width:0.3;"/><polygon fill="#FF6655" points="159.6,362.1851,160.8,359.4851,159.6,360.6851,158.4,359.4851,159.6,362.1851" style="stroke:#FF6655;stroke-width:0.3;"/><text fill="#000000" font-family="Impact" font-size="3.9" lengthAdjust="spacing" textLength="1.5" x="157.9805" y="321.8109">1</text><text fill="#000000" font-family="Impact" font-size="3.9" lengthAdjust="spacing" textLength="1.5" x="157.8891" y="358.9783">1</text></g><!--link Building to BuildingDescription--><g id="link_Building_BuildingDescription"><path codeLine="99" d="M150.663,315.6401 C140.415,328.5851 123.864,349.4951 114.78,360.9701 " fill="none" id="Building-to-BuildingDescription" style="stroke:#FF6655;stroke-width:0.3;"/><polygon fill="#FF6655" points="113.817,362.1851,116.4316,360.8089,114.7462,361.0076,114.5475,359.3222,113.817,362.1851" style="stroke:#FF6655;stroke-width:0.3;"/><text fill="#000000" font-family="Impact" font-size="3.9" lengthAdjust="spacing" textLength="1.5" x="147.6191" y="321.8109">1</text><text fill="#000000" font-family="Impact" font-size="3.9" lengthAdjust="spacing" textLength="1.5" x="113.6577" y="358.9783">1</text></g><!--link Building to BuildingDimensions--><g id="link_Building_BuildingDimensions"><path codeLine="100" d="M147.231,307.1111 C130.752,311.2181 101.232,320.1281 80.1,335.2541 C70.347,342.2351 61.899,353.2931 56.787,360.8681 " fill="none" id="Building-to-BuildingDimensions" style="stroke:#FF6655;stroke-width:0.3;"/><polygon fill="#FF6655" points="55.932,362.1491,58.4282,360.5682,56.7641,360.901,56.4312,359.2369,55.932,362.1491" style="stroke:#FF6655;stroke-width:0.3;"/><text fill="#000000" font-family="Impact" font-size="3.9" lengthAdjust="spacing" textLength="1.5" x="143.3942" y="306.7242">1</text><text fill="#000000" font-family="Impact" font-size="3.9" lengthAdjust="spacing" textLength="1.5" x="55.3947" y="359.05">1</text></g><!--link AppServiceBuilding to Building--><g id="link_AppServiceBuilding_Building"><path codeLine="102" d="M278.217,242.4251 C253.008,255.4571 198.735,283.5191 173.292,296.6741 " fill="none" id="AppServiceBuilding-to-Building" style="stroke:#FF6655;stroke-width:0.3;stroke-dasharray:7.0,7.0;"/><polygon fill="#FF6655" points="171.954,297.3671,174.9034,297.1915,173.2861,296.6775,173.8001,295.0602,171.954,297.3671" style="stroke:#FF6655;stroke-width:0.3;"/></g><!--reverse link IBuildingDTO to AppServiceBuilding--><g id="link_IBuildingDTO_AppServiceBuilding"><path codeLine="110" d="M280.524,127.2251 C278.202,129.6491 276.054,132.4961 274.8,135.6041 C262.08,167.1341 264.186,179.8031 274.8,212.1041 C276.765,218.0831 280.965,223.7831 284.673,227.9891 " fill="none" id="IBuildingDTO-backto-AppServiceBuilding" style="stroke:#FF6655;stroke-width:0.3;"/><polygon fill="#FF6655" points="281.673,126.0701,278.9174,127.1363,280.6145,127.1329,280.6179,128.83,281.673,126.0701" style="stroke:#FF6655;stroke-width:0.3;"/></g><!--reverse link IBuildingDTO to ControllerBuilding--><g id="link_IBuildingDTO_ControllerBuilding"><path codeLine="111" d="M307.755,126.6881 C335.922,139.2131 391.749,164.0381 418.875,176.1011 " fill="none" id="IBuildingDTO-backto-ControllerBuilding" style="stroke:#FF6655;stroke-width:0.3;"/><polygon fill="#FF6655" points="306.351,126.0641,308.3322,128.2561,307.7221,126.6725,309.3057,126.0624,306.351,126.0641" style="stroke:#FF6655;stroke-width:0.3;"/></g><!--SRC=[bLN1Rk8m4Btp5HPxXgg7SeeY0IbIfQgiIhNNbJ7Jr4jYMxR3Yjtjl- -Ga10xJgBcGi8ypvitysoR8nUAQfeJ9dCb1GXB_au8FXifx8x_0NA_ABzNb1rJBGjnMCjCwYXQAie-88x9Cqy_x5fgcbL0gG-WVT2tpMQnU7XeKh_G7CXQ5fg3zfUHVOPa8LQI0AZTyRpA2YZZIwtbxoRVKuvqzXQerjJKdvC9Xeyq1MBEna9-LLh_ENqIxveQgmjc2mtJQzY1lCh2Wcc7BW_Bg36aZAqAdXsuI9iuidQoV0TjE5OW6FYfkB2Wtob3CSagqVnqROzBrGcrMEeOcUdBO6R_OY_L5TkINLCk3rJXkmbANsENjSmoB-wc6W1vwcx8JiiyGIv3hh8Hagf5e_dRNrqmcHMgRDr0dj1eNq59mwr4N_VP115Dgb2kDe3C2pMFR_DkeTfk8_DvVwd-l9TAPPnHowKWEz0dpY0ySGG60Uv04DK7yaP-Gtvvv2CaLMU_bh-B9hDoue4qFOKD3TlJ7fvwe2nd-bL1euu9sBSqn92IWFpAQovTo42FmdABak_mq8UxHEQKYx21qbH3IgydPayNQwefeORGd_kwccuxuS9x9aszKQIbj7YvH54LYkEUFOuA0dlr1yLhX6ptlu3PVeCxzPtaK86L3Ui5Qtc04SZbrXg1962OvkgoMyUGF0TX46S6kb2_DqsSta_HPd7v6wny4Ea864I6T0mlkCaPD2rQrdMtRzVaRTiURcjJDbHlstfftyc0jq7iBXYuDppav-G_]--></g></svg>