<?xml version="1.0" encoding="us-ascii" standalone="no"?><svg xmlns="http://www.w3.org/2000/svg" xmlns:xlink="http://www.w3.org/1999/xlink" contentStyleType="text/css" height="405px" preserveAspectRatio="none" style="width:362px;height:405px;background:#FFFFFF;" version="1.1" viewBox="0 0 362 405" width="362px" zoomAndPan="magnify"><defs/><g><rect fill="#FFFFFF" height="222.7285" style="stroke:#181818;stroke-width:1.0;" width="10" x="28.5" y="91.4883"/><rect fill="#FFFFFF" height="201.418" style="stroke:#181818;stroke-width:1.0;" width="10" x="263.5" y="112.7988"/><rect fill="none" height="179.418" style="stroke:#000000;stroke-width:1.5;" width="345.5" x="10" y="127.7988"/><line style="stroke:#181818;stroke-width:0.5;stroke-dasharray:5.0,5.0;" x1="33" x2="33" y1="81.4883" y2="324.2168"/><line style="stroke:#181818;stroke-width:0.5;stroke-dasharray:5.0,5.0;" x1="268.5" x2="268.5" y1="81.4883" y2="324.2168"/><text fill="#000000" font-family="sans-serif" font-size="14" lengthAdjust="spacing" textLength="4" x="28.5" y="78.5352">&#160;</text><ellipse cx="33.5" cy="13.5" fill="#E2E2F0" rx="8" ry="8" style="stroke:#181818;stroke-width:0.5;"/><path d="M33.5,21.5 L33.5,48.5 M20.5,29.5 L46.5,29.5 M33.5,48.5 L20.5,63.5 M33.5,48.5 L46.5,63.5 " fill="none" style="stroke:#181818;stroke-width:0.5;"/><text fill="#000000" font-family="sans-serif" font-size="14" lengthAdjust="spacing" textLength="4" x="28.5" y="336.752">&#160;</text><ellipse cx="33.5" cy="348.2051" fill="#E2E2F0" rx="8" ry="8" style="stroke:#181818;stroke-width:0.5;"/><path d="M33.5,356.2051 L33.5,383.2051 M20.5,364.2051 L46.5,364.2051 M33.5,383.2051 L20.5,398.2051 M33.5,383.2051 L46.5,398.2051 " fill="none" style="stroke:#181818;stroke-width:0.5;"/><rect fill="#E2E2F0" height="46.9766" rx="2.5" ry="2.5" style="stroke:#181818;stroke-width:0.5;" width="154" x="191.5" y="33.5117"/><text fill="#000000" font-family="sans-serif" font-size="14" lengthAdjust="spacing" textLength="61" x="238" y="54.0469">&#171;system&#187;</text><text fill="#000000" font-family="sans-serif" font-size="14" lengthAdjust="spacing" textLength="140" x="198.5" y="70.5352">System RobDroneGo</text><rect fill="#E2E2F0" height="46.9766" rx="2.5" ry="2.5" style="stroke:#181818;stroke-width:0.5;" width="154" x="191.5" y="323.2168"/><text fill="#000000" font-family="sans-serif" font-size="14" lengthAdjust="spacing" textLength="61" x="238" y="343.752">&#171;system&#187;</text><text fill="#000000" font-family="sans-serif" font-size="14" lengthAdjust="spacing" textLength="140" x="198.5" y="360.2402">System RobDroneGo</text><rect fill="#FFFFFF" height="222.7285" style="stroke:#181818;stroke-width:1.0;" width="10" x="28.5" y="91.4883"/><rect fill="#FFFFFF" height="201.418" style="stroke:#181818;stroke-width:1.0;" width="10" x="263.5" y="112.7988"/><polygon fill="#181818" points="251.5,108.7988,261.5,112.7988,251.5,116.7988,255.5,112.7988" style="stroke:#181818;stroke-width:1.0;"/><line style="stroke:#181818;stroke-width:1.0;" x1="38.5" x2="257.5" y1="112.7988" y2="112.7988"/><text fill="#000000" font-family="sans-serif" font-size="13" font-weight="bold" lengthAdjust="spacing" textLength="9" x="45.5" y="108.0566">1</text><text fill="#000000" font-family="sans-serif" font-size="13" lengthAdjust="spacing" textLength="193" x="58.5" y="108.0566">POST /buildings/{id}/elevators</text><path d="M10,127.7988 L72,127.7988 L72,135.1094 L62,145.1094 L10,145.1094 L10,127.7988 " fill="#EEEEEE" style="stroke:#000000;stroke-width:1.5;"/><rect fill="none" height="179.418" style="stroke:#000000;stroke-width:1.5;" width="345.5" x="10" y="127.7988"/><text fill="#000000" font-family="sans-serif" font-size="13" font-weight="bold" lengthAdjust="spacing" textLength="17" x="25" y="141.3672">alt</text><text fill="#000000" font-family="sans-serif" font-size="11" font-weight="bold" lengthAdjust="spacing" textLength="114" x="87" y="140.4336">[building not found]</text><polygon fill="#181818" points="49.5,162.4199,39.5,166.4199,49.5,170.4199,45.5,166.4199" style="stroke:#181818;stroke-width:1.0;"/><line style="stroke:#181818;stroke-width:1.0;stroke-dasharray:2.0,2.0;" x1="43.5" x2="262.5" y1="166.4199" y2="166.4199"/><text fill="#000000" font-family="sans-serif" font-size="13" font-weight="bold" lengthAdjust="spacing" textLength="9" x="55.5" y="161.6777">2</text><text fill="#000000" font-family="sans-serif" font-size="13" lengthAdjust="spacing" textLength="152" x="68.5" y="161.6777">412: Precondition Failed</text><line style="stroke:#000000;stroke-width:1.0;stroke-dasharray:2.0,2.0;" x1="10" x2="355.5" y1="175.4199" y2="175.4199"/><text fill="#000000" font-family="sans-serif" font-size="11" font-weight="bold" lengthAdjust="spacing" textLength="109" x="15" y="186.0547">[floor(s) not found]</text><polygon fill="#181818" points="49.5,206.6855,39.5,210.6855,49.5,214.6855,45.5,210.6855" style="stroke:#181818;stroke-width:1.0;"/><line style="stroke:#181818;stroke-width:1.0;stroke-dasharray:2.0,2.0;" x1="43.5" x2="262.5" y1="210.6855" y2="210.6855"/><text fill="#000000" font-family="sans-serif" font-size="13" font-weight="bold" lengthAdjust="spacing" textLength="9" x="55.5" y="205.9434">3</text><text fill="#000000" font-family="sans-serif" font-size="13" lengthAdjust="spacing" textLength="152" x="68.5" y="205.9434">412: Precondition Failed</text><line style="stroke:#000000;stroke-width:1.0;stroke-dasharray:2.0,2.0;" x1="10" x2="355.5" y1="219.6855" y2="219.6855"/><text fill="#000000" font-family="sans-serif" font-size="11" font-weight="bold" lengthAdjust="spacing" textLength="119" x="15" y="230.3203">[elevator not created]</text><polygon fill="#181818" points="49.5,250.9512,39.5,254.9512,49.5,258.9512,45.5,254.9512" style="stroke:#181818;stroke-width:1.0;"/><line style="stroke:#181818;stroke-width:1.0;stroke-dasharray:2.0,2.0;" x1="43.5" x2="262.5" y1="254.9512" y2="254.9512"/><text fill="#000000" font-family="sans-serif" font-size="13" font-weight="bold" lengthAdjust="spacing" textLength="9" x="55.5" y="250.209">4</text><text fill="#000000" font-family="sans-serif" font-size="13" lengthAdjust="spacing" textLength="178" x="68.5" y="250.209">422: Unprocessable Content</text><line style="stroke:#000000;stroke-width:1.0;stroke-dasharray:2.0,2.0;" x1="10" x2="355.5" y1="263.9512" y2="263.9512"/><text fill="#000000" font-family="sans-serif" font-size="11" font-weight="bold" lengthAdjust="spacing" textLength="170" x="15" y="274.5859">[elevator created successfully]</text><polygon fill="#181818" points="49.5,295.2168,39.5,299.2168,49.5,303.2168,45.5,299.2168" style="stroke:#181818;stroke-width:1.0;"/><line style="stroke:#181818;stroke-width:1.0;stroke-dasharray:2.0,2.0;" x1="43.5" x2="262.5" y1="299.2168" y2="299.2168"/><text fill="#000000" font-family="sans-serif" font-size="13" font-weight="bold" lengthAdjust="spacing" textLength="9" x="55.5" y="294.4746">5</text><text fill="#000000" font-family="sans-serif" font-size="13" lengthAdjust="spacing" textLength="80" x="68.5" y="294.4746">201: Created</text><!--SRC=[hP71JiCm38RlVGfh9pXCPHMdQkfb28uW1ZSkQUfEaJAxIXoa2V7kkCag3GauaLpisF_tEub9mfIEFOQgCbOum4gtYP2JQZ91d7MJ8O7LTXjFKV3OTM-qpn4yStyNcF21iqZh6UFUZU0P0ReAUTtD3IqyFUvVeEwJyuEZGwm_tF1PeqSLSOYBe30oCPzuWKK2n08Z9nfoQLxQ1sirA4ujt6uQDGfecGOdZWdkZVDO1EWZmkYPmrMy_XVOCds6sO0w-X-uHd6lD0Ms6AFfFSAEIP3a1-0P1Z7PkNjCtfz-9JStcnPs5_Qejyh1WD-Uz28jl_G5]--></g></svg>