<?xml version="1.0" encoding="us-ascii" standalone="no"?><svg xmlns="http://www.w3.org/2000/svg" xmlns:xlink="http://www.w3.org/1999/xlink" contentStyleType="text/css" height="1334.4px" preserveAspectRatio="none" style="width:1044px;height:1334px;background:#FFFFFF;" version="1.1" viewBox="0 0 1044 1334" width="1044px" zoomAndPan="magnify"><defs/><g><rect fill="#FFFFFF" height="1167.5094" style="stroke:#181818;stroke-width:0.8000000000000002;" width="8" x="67.2" y="74.8969"/><rect fill="#FFFFFF" height="561.9219" style="stroke:#181818;stroke-width:0.8000000000000002;" width="8" x="268" y="93.5297"/><rect fill="#FFFFFF" height="561.9219" style="stroke:#181818;stroke-width:0.8000000000000002;" width="8" x="268" y="680.4844"/><rect fill="#FFFFFF" height="511.8563" style="stroke:#181818;stroke-width:0.8000000000000002;" width="8" x="368.8" y="118.5625"/><rect fill="#FFFFFF" height="511.8563" style="stroke:#181818;stroke-width:0.8000000000000002;" width="8" x="368.8" y="705.5172"/><rect fill="#FFFFFF" height="426.3578" style="stroke:#181818;stroke-width:0.8000000000000002;" width="8" x="545.6" y="143.5953"/><rect fill="#FFFFFF" height="426.3578" style="stroke:#181818;stroke-width:0.8000000000000002;" width="8" x="545.6" y="730.55"/><rect fill="#FFFFFF" height="41.7938" style="stroke:#181818;stroke-width:0.8000000000000002;" width="8" x="656" y="497.5266"/><rect fill="#FFFFFF" height="41.7938" style="stroke:#181818;stroke-width:0.8000000000000002;" width="8" x="760.4" y="1084.4813"/><rect fill="#FFFFFF" height="274.8328" style="stroke:#181818;stroke-width:0.8000000000000002;" width="8" x="864" y="168.6281"/><rect fill="#FFFFFF" height="274.8328" style="stroke:#181818;stroke-width:0.8000000000000002;" width="8" x="864" y="755.5828"/><rect fill="none" height="1043.9453" style="stroke:#000000;stroke-width:1.2000000000000002;" width="1023.2" x="8" y="210.4609"/><rect fill="none" height="90.2594" style="stroke:#000000;stroke-width:1.2000000000000002;" width="188.4" x="517.2" y="455.4609"/><rect fill="none" height="451.3906" style="stroke:#000000;stroke-width:1.2000000000000002;" width="951.2" x="16" y="797.4156"/><rect fill="none" height="90.2594" style="stroke:#000000;stroke-width:1.2000000000000002;" width="314" x="517.2" y="1042.4156"/><line style="stroke:#181818;stroke-width:0.4000000000000001;stroke-dasharray:5.0,5.0;" x1="71.2" x2="71.2" y1="66.8969" y2="1268.0063"/><line style="stroke:#181818;stroke-width:0.4000000000000001;stroke-dasharray:5.0,5.0;" x1="272" x2="272" y1="66.8969" y2="1268.0063"/><line style="stroke:#181818;stroke-width:0.4000000000000001;stroke-dasharray:5.0,5.0;" x1="372.8" x2="372.8" y1="66.8969" y2="1268.0063"/><line style="stroke:#181818;stroke-width:0.4000000000000001;stroke-dasharray:5.0,5.0;" x1="549.2" x2="549.2" y1="66.8969" y2="1268.0063"/><line style="stroke:#181818;stroke-width:0.4000000000000001;stroke-dasharray:5.0,5.0;" x1="660" x2="660" y1="503.7906" y2="1268.0063"/><line style="stroke:#181818;stroke-width:0.4000000000000001;stroke-dasharray:5.0,5.0;" x1="764" x2="764" y1="1090.7453" y2="1268.0063"/><line style="stroke:#181818;stroke-width:0.4000000000000001;stroke-dasharray:5.0,5.0;" x1="868" x2="868" y1="66.8969" y2="1268.0063"/><text fill="#000000" font-family="sans-serif" font-size="11.2" lengthAdjust="spacing" textLength="89.6" x="24" y="64.0859">Campus Manager</text><ellipse cx="71.2" cy="10.8" fill="#E2E2F0" rx="6.4" ry="6.4" style="stroke:#181818;stroke-width:0.4000000000000001;"/><path d="M71.2,17.2 L71.2,38.8 M60.8,23.6 L81.6,23.6 M71.2,38.8 L60.8,50.8 M71.2,38.8 L81.6,50.8 " fill="none" style="stroke:#181818;stroke-width:0.4000000000000001;"/><text fill="#000000" font-family="sans-serif" font-size="11.2" lengthAdjust="spacing" textLength="89.6" x="24" y="1279.2922">Campus Manager</text><ellipse cx="71.2" cy="1288.9031" fill="#E2E2F0" rx="6.4" ry="6.4" style="stroke:#181818;stroke-width:0.4000000000000001;"/><path d="M71.2,1295.3031 L71.2,1316.9031 M60.8,1301.7031 L81.6,1301.7031 M71.2,1316.9031 L60.8,1328.9031 M71.2,1316.9031 L81.6,1328.9031 " fill="none" style="stroke:#181818;stroke-width:0.4000000000000001;"/><rect fill="#E2E2F0" height="26.0969" rx="2" ry="2" style="stroke:#181818;stroke-width:0.4000000000000001;" width="100.8" x="221.6" y="40"/><text fill="#000000" font-family="sans-serif" font-size="11.2" lengthAdjust="spacing" textLength="89.6" x="227.2" y="57.6859">HTML + CSS + JS</text><rect fill="#E2E2F0" height="26.0969" rx="2" ry="2" style="stroke:#181818;stroke-width:0.4000000000000001;" width="100.8" x="221.6" y="1267.2063"/><text fill="#000000" font-family="sans-serif" font-size="11.2" lengthAdjust="spacing" textLength="89.6" x="227.2" y="1284.8922">HTML + CSS + JS</text><rect fill="#E2E2F0" height="26.0969" rx="2" ry="2" style="stroke:#181818;stroke-width:0.4000000000000001;" width="60.8" x="342.4" y="40"/><text fill="#000000" font-family="sans-serif" font-size="11.2" lengthAdjust="spacing" textLength="49.6" x="348" y="57.6859">Controller</text><rect fill="#E2E2F0" height="26.0969" rx="2" ry="2" style="stroke:#181818;stroke-width:0.4000000000000001;" width="60.8" x="342.4" y="1267.2063"/><text fill="#000000" font-family="sans-serif" font-size="11.2" lengthAdjust="spacing" textLength="49.6" x="348" y="1284.8922">Controller</text><rect fill="#E2E2F0" height="26.0969" rx="2" ry="2" style="stroke:#181818;stroke-width:0.4000000000000001;" width="48.8" x="525.2" y="40"/><text fill="#000000" font-family="sans-serif" font-size="11.2" lengthAdjust="spacing" textLength="37.6" x="530.8" y="57.6859">Service</text><rect fill="#E2E2F0" height="26.0969" rx="2" ry="2" style="stroke:#181818;stroke-width:0.4000000000000001;" width="48.8" x="525.2" y="1267.2063"/><text fill="#000000" font-family="sans-serif" font-size="11.2" lengthAdjust="spacing" textLength="37.6" x="530.8" y="1284.8922">Service</text><rect fill="#E2E2F0" height="40.9938" rx="2" ry="2" style="stroke:#181818;stroke-width:0.4000000000000001;" width="75.2" x="622.4" y="1267.2063"/><text fill="#000000" font-family="sans-serif" font-size="11.2" lengthAdjust="spacing" textLength="19.2" x="650.4" y="1284.8922">dto:</text><text fill="#000000" font-family="sans-serif" font-size="11.2" lengthAdjust="spacing" textLength="64" x="628" y="1299.7891">BuildingDTO</text><rect fill="#E2E2F0" height="40.9938" rx="2" ry="2" style="stroke:#181818;stroke-width:0.4000000000000001;" width="117.6" x="705.6" y="1267.2063"/><text fill="#000000" font-family="sans-serif" font-size="11.2" lengthAdjust="spacing" textLength="19.2" x="754.8" y="1284.8922">dto:</text><text fill="#000000" font-family="sans-serif" font-size="11.2" lengthAdjust="spacing" textLength="106.4" x="711.2" y="1299.7891">CreatedElevatorDTO</text><rect fill="#E2E2F0" height="26.0969" rx="2" ry="2" style="stroke:#181818;stroke-width:0.4000000000000001;" width="73.6" x="831.2" y="40"/><text fill="#000000" font-family="sans-serif" font-size="11.2" lengthAdjust="spacing" textLength="62.4" x="836.8" y="57.6859">HTTP Driver</text><rect fill="#E2E2F0" height="26.0969" rx="2" ry="2" style="stroke:#181818;stroke-width:0.4000000000000001;" width="73.6" x="831.2" y="1267.2063"/><text fill="#000000" font-family="sans-serif" font-size="11.2" lengthAdjust="spacing" textLength="62.4" x="836.8" y="1284.8922">HTTP Driver</text><rect fill="#FFFFFF" height="1167.5094" style="stroke:#181818;stroke-width:0.8000000000000002;" width="8" x="67.2" y="74.8969"/><rect fill="#FFFFFF" height="561.9219" style="stroke:#181818;stroke-width:0.8000000000000002;" width="8" x="268" y="93.5297"/><rect fill="#FFFFFF" height="561.9219" style="stroke:#181818;stroke-width:0.8000000000000002;" width="8" x="268" y="680.4844"/><rect fill="#FFFFFF" height="511.8563" style="stroke:#181818;stroke-width:0.8000000000000002;" width="8" x="368.8" y="118.5625"/><rect fill="#FFFFFF" height="511.8563" style="stroke:#181818;stroke-width:0.8000000000000002;" width="8" x="368.8" y="705.5172"/><rect fill="#FFFFFF" height="426.3578" style="stroke:#181818;stroke-width:0.8000000000000002;" width="8" x="545.6" y="143.5953"/><rect fill="#FFFFFF" height="426.3578" style="stroke:#181818;stroke-width:0.8000000000000002;" width="8" x="545.6" y="730.55"/><rect fill="#FFFFFF" height="41.7938" style="stroke:#181818;stroke-width:0.8000000000000002;" width="8" x="656" y="497.5266"/><rect fill="#FFFFFF" height="41.7938" style="stroke:#181818;stroke-width:0.8000000000000002;" width="8" x="760.4" y="1084.4813"/><rect fill="#FFFFFF" height="274.8328" style="stroke:#181818;stroke-width:0.8000000000000002;" width="8" x="864" y="168.6281"/><rect fill="#FFFFFF" height="274.8328" style="stroke:#181818;stroke-width:0.8000000000000002;" width="8" x="864" y="755.5828"/><polygon fill="#181818" points="258.4,90.3297,266.4,93.5297,258.4,96.7297,261.6,93.5297" style="stroke:#181818;stroke-width:0.8000000000000002;"/><line style="stroke:#181818;stroke-width:0.8000000000000002;" x1="75.2" x2="263.2" y1="93.5297" y2="93.5297"/><text fill="#000000" font-family="sans-serif" font-size="10.4" font-weight="bold" lengthAdjust="spacing" textLength="5.6" x="80.8" y="89.3195">1</text><text fill="#000000" font-family="sans-serif" font-size="10.4" lengthAdjust="spacing" textLength="168.8" x="89.6" y="89.3195">wants to list elevators inside building</text><polygon fill="#181818" points="359.2,115.3625,367.2,118.5625,359.2,121.7625,362.4,118.5625" style="stroke:#181818;stroke-width:0.8000000000000002;"/><line style="stroke:#181818;stroke-width:0.8000000000000002;" x1="276" x2="364" y1="118.5625" y2="118.5625"/><text fill="#000000" font-family="sans-serif" font-size="10.4" font-weight="bold" lengthAdjust="spacing" textLength="5.6" x="281.6" y="114.3523">2</text><text fill="#000000" font-family="sans-serif" font-size="10.4" lengthAdjust="spacing" textLength="44.8" x="290.4" y="114.3523">ngOnInit()</text><polygon fill="#181818" points="536,140.3953,544,143.5953,536,146.7953,539.2,143.5953" style="stroke:#181818;stroke-width:0.8000000000000002;"/><line style="stroke:#181818;stroke-width:0.8000000000000002;" x1="376.8" x2="540.8" y1="143.5953" y2="143.5953"/><text fill="#000000" font-family="sans-serif" font-size="10.4" font-weight="bold" lengthAdjust="spacing" textLength="5.6" x="382.4" y="139.3852">3</text><text fill="#000000" font-family="sans-serif" font-size="10.4" lengthAdjust="spacing" textLength="63.2" x="391.2" y="139.3852">getBuildings()</text><polygon fill="#181818" points="854.4,165.4281,862.4,168.6281,854.4,171.8281,857.6,168.6281" style="stroke:#181818;stroke-width:0.8000000000000002;"/><line style="stroke:#181818;stroke-width:0.8000000000000002;" x1="553.6" x2="859.2" y1="168.6281" y2="168.6281"/><text fill="#000000" font-family="sans-serif" font-size="10.4" font-weight="bold" lengthAdjust="spacing" textLength="5.6" x="559.2" y="164.418">4</text><text fill="#000000" font-family="sans-serif" font-size="10.4" lengthAdjust="spacing" textLength="106.4" x="568" y="164.418">get({baseUrl}/buildings)</text><polygon fill="#181818" points="1029.6,192.8609,1037.6,196.0609,1029.6,199.2609,1032.8,196.0609" style="stroke:#181818;stroke-width:0.8000000000000002;"/><line style="stroke:#181818;stroke-width:0.8000000000000002;" x1="872" x2="1034.4" y1="196.0609" y2="196.0609"/><text fill="#000000" font-family="sans-serif" font-size="10.4" font-weight="bold" lengthAdjust="spacing" textLength="5.6" x="877.6" y="191.8508">5</text><text fill="#000000" font-family="sans-serif" font-size="10.4" lengthAdjust="spacing" textLength="68" x="886.4" y="191.8508">GET /buildings</text><path d="M724,179.0281 L724,200.6281 L860,200.6281 L860,187.0281 L852,179.0281 L724,179.0281 " fill="#FEFFDD" style="stroke:#181818;stroke-width:0.4000000000000001;"/><path d="M852,179.0281 L852,187.0281 L860,187.0281 L852,179.0281 " fill="#FEFFDD" style="stroke:#181818;stroke-width:0.4000000000000001;"/><text fill="#000000" font-family="sans-serif" font-size="10.4" lengthAdjust="spacing" textLength="119.2" x="728.8" y="194.2508">see us170 documentation</text><path d="M8,210.4609 L56.8,210.4609 L56.8,217.8938 L48.8,225.8938 L8,225.8938 L8,210.4609 " fill="#EEEEEE" style="stroke:#000000;stroke-width:1.2000000000000002;"/><rect fill="none" height="1043.9453" style="stroke:#000000;stroke-width:1.2000000000000002;" width="1023.2" x="8" y="210.4609"/><text fill="#000000" font-family="sans-serif" font-size="10.4" font-weight="bold" lengthAdjust="spacing" textLength="12.8" x="20" y="222.4836">alt</text><text fill="#000000" font-family="sans-serif" font-size="8.8" font-weight="bold" lengthAdjust="spacing" textLength="98.4" x="68.8" y="221.557">[building(s) not found]</text><polygon fill="#181818" points="880.8,241.3266,872.8,244.5266,880.8,247.7266,877.6,244.5266" style="stroke:#181818;stroke-width:0.8000000000000002;"/><line style="stroke:#181818;stroke-width:0.8000000000000002;stroke-dasharray:2.0,2.0;" x1="876" x2="1038.4" y1="244.5266" y2="244.5266"/><text fill="#000000" font-family="sans-serif" font-size="10.4" font-weight="bold" lengthAdjust="spacing" textLength="5.6" x="885.6" y="240.3164">6</text><text fill="#000000" font-family="sans-serif" font-size="10.4" lengthAdjust="spacing" textLength="44" x="894.4" y="240.3164">404: error</text><polygon fill="#181818" points="562.4,266.3594,554.4,269.5594,562.4,272.7594,559.2,269.5594" style="stroke:#181818;stroke-width:0.8000000000000002;"/><line style="stroke:#181818;stroke-width:0.8000000000000002;stroke-dasharray:2.0,2.0;" x1="557.6" x2="863.2" y1="269.5594" y2="269.5594"/><text fill="#000000" font-family="sans-serif" font-size="10.4" font-weight="bold" lengthAdjust="spacing" textLength="5.6" x="567.2" y="265.3492">7</text><text fill="#000000" font-family="sans-serif" font-size="10.4" lengthAdjust="spacing" textLength="48.8" x="576" y="265.3492">observable</text><polygon fill="#181818" points="385.6,291.3922,377.6,294.5922,385.6,297.7922,382.4,294.5922" style="stroke:#181818;stroke-width:0.8000000000000002;"/><line style="stroke:#181818;stroke-width:0.8000000000000002;stroke-dasharray:2.0,2.0;" x1="380.8" x2="544.8" y1="294.5922" y2="294.5922"/><text fill="#000000" font-family="sans-serif" font-size="10.4" font-weight="bold" lengthAdjust="spacing" textLength="5.6" x="390.4" y="290.382">8</text><text fill="#000000" font-family="sans-serif" font-size="10.4" lengthAdjust="spacing" textLength="20.8" x="399.2" y="290.382">error</text><line style="stroke:#181818;stroke-width:0.8000000000000002;stroke-dasharray:2.0,2.0;" x1="376.8" x2="410.4" y1="319.625" y2="319.625"/><line style="stroke:#181818;stroke-width:0.8000000000000002;stroke-dasharray:2.0,2.0;" x1="410.4" x2="410.4" y1="319.625" y2="330.025"/><line style="stroke:#181818;stroke-width:0.8000000000000002;stroke-dasharray:2.0,2.0;" x1="377.6" x2="410.4" y1="330.025" y2="330.025"/><polygon fill="#181818" points="385.6,326.825,377.6,330.025,385.6,333.225,382.4,330.025" style="stroke:#181818;stroke-width:0.8000000000000002;"/><text fill="#000000" font-family="sans-serif" font-size="10.4" font-weight="bold" lengthAdjust="spacing" textLength="5.6" x="382.4" y="315.4148">9</text><text fill="#000000" font-family="sans-serif" font-size="10.4" lengthAdjust="spacing" textLength="60" x="391.2" y="315.4148">buildings = []</text><path d="M181.6,307.7922 L181.6,329.3922 L364.8,329.3922 L364.8,315.7922 L356.8,307.7922 L181.6,307.7922 " fill="#FEFFDD" style="stroke:#181818;stroke-width:0.4000000000000001;"/><path d="M356.8,307.7922 L356.8,315.7922 L364.8,315.7922 L356.8,307.7922 " fill="#FEFFDD" style="stroke:#181818;stroke-width:0.4000000000000001;"/><text fill="#000000" font-family="sans-serif" font-size="10.4" lengthAdjust="spacing" textLength="166.4" x="186.4" y="323.0148">creates alert with the error message</text><polygon fill="#181818" points="284.8,351.8578,276.8,355.0578,284.8,358.2578,281.6,355.0578" style="stroke:#181818;stroke-width:0.8000000000000002;"/><line style="stroke:#181818;stroke-width:0.8000000000000002;stroke-dasharray:2.0,2.0;" x1="280" x2="368" y1="355.0578" y2="355.0578"/><text fill="#000000" font-family="sans-serif" font-size="10.4" font-weight="bold" lengthAdjust="spacing" textLength="11.2" x="289.6" y="350.8477">10</text><text fill="#000000" font-family="sans-serif" font-size="10.4" lengthAdjust="spacing" textLength="40.8" x="304" y="350.8477">buildings</text><polygon fill="#181818" points="84,376.8906,76,380.0906,84,383.2906,80.8,380.0906" style="stroke:#181818;stroke-width:0.8000000000000002;"/><line style="stroke:#181818;stroke-width:0.8000000000000002;stroke-dasharray:2.0,2.0;" x1="79.2" x2="267.2" y1="380.0906" y2="380.0906"/><text fill="#000000" font-family="sans-serif" font-size="10.4" font-weight="bold" lengthAdjust="spacing" textLength="11.2" x="88.8" y="375.8805">11</text><text fill="#000000" font-family="sans-serif" font-size="10.4" lengthAdjust="spacing" textLength="109.6" x="103.2" y="375.8805">does not show anything</text><line style="stroke:#000000;stroke-width:0.8000000000000002;stroke-dasharray:2.0,2.0;" x1="8" x2="1031.2" y1="387.2906" y2="387.2906"/><text fill="#000000" font-family="sans-serif" font-size="8.8" font-weight="bold" lengthAdjust="spacing" textLength="81.6" x="12" y="396.7867">[building(s) found]</text><polygon fill="#181818" points="880.8,415.2281,872.8,418.4281,880.8,421.6281,877.6,418.4281" style="stroke:#181818;stroke-width:0.8000000000000002;"/><line style="stroke:#181818;stroke-width:0.8000000000000002;stroke-dasharray:2.0,2.0;" x1="876" x2="1038.4" y1="418.4281" y2="418.4281"/><text fill="#000000" font-family="sans-serif" font-size="10.4" font-weight="bold" lengthAdjust="spacing" textLength="11.2" x="885.6" y="414.218">12</text><text fill="#000000" font-family="sans-serif" font-size="10.4" lengthAdjust="spacing" textLength="64" x="900" y="414.218">200: buildings</text><polygon fill="#181818" points="562.4,440.2609,554.4,443.4609,562.4,446.6609,559.2,443.4609" style="stroke:#181818;stroke-width:0.8000000000000002;"/><line style="stroke:#181818;stroke-width:0.8000000000000002;stroke-dasharray:2.0,2.0;" x1="557.6" x2="867.2" y1="443.4609" y2="443.4609"/><text fill="#000000" font-family="sans-serif" font-size="10.4" font-weight="bold" lengthAdjust="spacing" textLength="11.2" x="567.2" y="439.2508">13</text><text fill="#000000" font-family="sans-serif" font-size="10.4" lengthAdjust="spacing" textLength="48.8" x="581.6" y="439.2508">observable</text><path d="M517.2,455.4609 L575.6,455.4609 L575.6,462.8938 L567.6,470.8938 L517.2,470.8938 L517.2,455.4609 " fill="#EEEEEE" style="stroke:#000000;stroke-width:1.2000000000000002;"/><rect fill="none" height="90.2594" style="stroke:#000000;stroke-width:1.2000000000000002;" width="188.4" x="517.2" y="455.4609"/><text fill="#000000" font-family="sans-serif" font-size="10.4" font-weight="bold" lengthAdjust="spacing" textLength="22.4" x="529.2" y="467.4836">loop</text><text fill="#000000" font-family="sans-serif" font-size="8.8" font-weight="bold" lengthAdjust="spacing" textLength="80" x="587.6" y="466.557">[for each building]</text><polygon fill="#181818" points="612.8,486.3266,620.8,489.5266,612.8,492.7266,616,489.5266" style="stroke:#181818;stroke-width:0.8000000000000002;"/><line style="stroke:#181818;stroke-width:0.8000000000000002;stroke-dasharray:2.0,2.0;" x1="553.6" x2="617.6" y1="489.5266" y2="489.5266"/><text fill="#000000" font-family="sans-serif" font-size="10.4" font-weight="bold" lengthAdjust="spacing" textLength="11.2" x="559.2" y="485.3164">14</text><text fill="#000000" font-family="sans-serif" font-size="10.4" lengthAdjust="spacing" textLength="35.2" x="573.6" y="485.3164">create()</text><rect fill="#E2E2F0" height="40.9938" rx="2" ry="2" style="stroke:#181818;stroke-width:0.4000000000000001;" width="75.2" x="622.4" y="470.8938"/><text fill="#000000" font-family="sans-serif" font-size="11.2" lengthAdjust="spacing" textLength="19.2" x="650.4" y="488.5797">dto:</text><text fill="#000000" font-family="sans-serif" font-size="11.2" lengthAdjust="spacing" textLength="64" x="628" y="503.4766">BuildingDTO</text><polygon fill="#181818" points="562.4,536.1203,554.4,539.3203,562.4,542.5203,559.2,539.3203" style="stroke:#181818;stroke-width:0.8000000000000002;"/><line style="stroke:#181818;stroke-width:0.8000000000000002;stroke-dasharray:2.0,2.0;" x1="557.6" x2="659.2" y1="539.3203" y2="539.3203"/><text fill="#000000" font-family="sans-serif" font-size="10.4" font-weight="bold" lengthAdjust="spacing" textLength="11.2" x="567.2" y="535.1102">15</text><text fill="#000000" font-family="sans-serif" font-size="10.4" lengthAdjust="spacing" textLength="14.4" x="581.6" y="535.1102">dto</text><polygon fill="#181818" points="385.6,566.7531,377.6,569.9531,385.6,573.1531,382.4,569.9531" style="stroke:#181818;stroke-width:0.8000000000000002;"/><line style="stroke:#181818;stroke-width:0.8000000000000002;stroke-dasharray:2.0,2.0;" x1="380.8" x2="548.8" y1="569.9531" y2="569.9531"/><text fill="#000000" font-family="sans-serif" font-size="10.4" font-weight="bold" lengthAdjust="spacing" textLength="11.2" x="390.4" y="565.743">16</text><text fill="#000000" font-family="sans-serif" font-size="10.4" lengthAdjust="spacing" textLength="20.8" x="404.8" y="565.743">dto[]</text><line style="stroke:#181818;stroke-width:0.8000000000000002;stroke-dasharray:2.0,2.0;" x1="376.8" x2="410.4" y1="594.9859" y2="594.9859"/><line style="stroke:#181818;stroke-width:0.8000000000000002;stroke-dasharray:2.0,2.0;" x1="410.4" x2="410.4" y1="594.9859" y2="605.3859"/><line style="stroke:#181818;stroke-width:0.8000000000000002;stroke-dasharray:2.0,2.0;" x1="377.6" x2="410.4" y1="605.3859" y2="605.3859"/><polygon fill="#181818" points="385.6,602.1859,377.6,605.3859,385.6,608.5859,382.4,605.3859" style="stroke:#181818;stroke-width:0.8000000000000002;"/><text fill="#000000" font-family="sans-serif" font-size="10.4" font-weight="bold" lengthAdjust="spacing" textLength="11.2" x="382.4" y="590.7758">17</text><text fill="#000000" font-family="sans-serif" font-size="10.4" lengthAdjust="spacing" textLength="74.4" x="396.8" y="590.7758">buildings = dto[]</text><polygon fill="#181818" points="284.8,627.2188,276.8,630.4188,284.8,633.6188,281.6,630.4188" style="stroke:#181818;stroke-width:0.8000000000000002;"/><line style="stroke:#181818;stroke-width:0.8000000000000002;stroke-dasharray:2.0,2.0;" x1="280" x2="372" y1="630.4188" y2="630.4188"/><text fill="#000000" font-family="sans-serif" font-size="10.4" font-weight="bold" lengthAdjust="spacing" textLength="11.2" x="289.6" y="626.2086">18</text><text fill="#000000" font-family="sans-serif" font-size="10.4" lengthAdjust="spacing" textLength="38.4" x="304" y="626.2086">buldings</text><polygon fill="#181818" points="84,652.2516,76,655.4516,84,658.6516,80.8,655.4516" style="stroke:#181818;stroke-width:0.8000000000000002;"/><line style="stroke:#181818;stroke-width:0.8000000000000002;stroke-dasharray:2.0,2.0;" x1="79.2" x2="271.2" y1="655.4516" y2="655.4516"/><text fill="#000000" font-family="sans-serif" font-size="10.4" font-weight="bold" lengthAdjust="spacing" textLength="11.2" x="88.8" y="651.2414">19</text><text fill="#000000" font-family="sans-serif" font-size="10.4" lengthAdjust="spacing" textLength="78.4" x="103.2" y="651.2414">requests building</text><polygon fill="#181818" points="258.4,677.2844,266.4,680.4844,258.4,683.6844,261.6,680.4844" style="stroke:#181818;stroke-width:0.8000000000000002;"/><line style="stroke:#181818;stroke-width:0.8000000000000002;" x1="75.2" x2="263.2" y1="680.4844" y2="680.4844"/><text fill="#000000" font-family="sans-serif" font-size="10.4" font-weight="bold" lengthAdjust="spacing" textLength="11.2" x="80.8" y="676.2742">20</text><text fill="#000000" font-family="sans-serif" font-size="10.4" lengthAdjust="spacing" textLength="76" x="95.2" y="676.2742">provides building</text><polygon fill="#181818" points="359.2,702.3172,367.2,705.5172,359.2,708.7172,362.4,705.5172" style="stroke:#181818;stroke-width:0.8000000000000002;"/><line style="stroke:#181818;stroke-width:0.8000000000000002;" x1="276" x2="364" y1="705.5172" y2="705.5172"/><text fill="#000000" font-family="sans-serif" font-size="10.4" font-weight="bold" lengthAdjust="spacing" textLength="11.2" x="281.6" y="701.307">21</text><text fill="#000000" font-family="sans-serif" font-size="10.4" lengthAdjust="spacing" textLength="63.2" x="296" y="701.307">getElevators()</text><polygon fill="#181818" points="536,727.35,544,730.55,536,733.75,539.2,730.55" style="stroke:#181818;stroke-width:0.8000000000000002;"/><line style="stroke:#181818;stroke-width:0.8000000000000002;" x1="376.8" x2="540.8" y1="730.55" y2="730.55"/><text fill="#000000" font-family="sans-serif" font-size="10.4" font-weight="bold" lengthAdjust="spacing" textLength="11.2" x="382.4" y="726.3398">22</text><text fill="#000000" font-family="sans-serif" font-size="10.4" lengthAdjust="spacing" textLength="139.2" x="396.8" y="726.3398">getElevators(selectedBuilding)</text><polygon fill="#181818" points="854.4,752.3828,862.4,755.5828,854.4,758.7828,857.6,755.5828" style="stroke:#181818;stroke-width:0.8000000000000002;"/><line style="stroke:#181818;stroke-width:0.8000000000000002;" x1="553.6" x2="859.2" y1="755.5828" y2="755.5828"/><text fill="#000000" font-family="sans-serif" font-size="10.4" font-weight="bold" lengthAdjust="spacing" textLength="11.2" x="559.2" y="751.3727">23</text><text fill="#000000" font-family="sans-serif" font-size="10.4" lengthAdjust="spacing" textLength="224.8" x="573.6" y="751.3727">get({baseUrl}/buildings/${buildingCode}/elevators)</text><polygon fill="#181818" points="1029.6,779.8156,1037.6,783.0156,1029.6,786.2156,1032.8,783.0156" style="stroke:#181818;stroke-width:0.8000000000000002;"/><line style="stroke:#181818;stroke-width:0.8000000000000002;" x1="872" x2="1034.4" y1="783.0156" y2="783.0156"/><text fill="#000000" font-family="sans-serif" font-size="10.4" font-weight="bold" lengthAdjust="spacing" textLength="11.2" x="877.6" y="778.8055">24</text><text fill="#000000" font-family="sans-serif" font-size="10.4" lengthAdjust="spacing" textLength="129.6" x="892" y="778.8055">GET /buildings/{id}/elevators</text><path d="M724,765.9828 L724,787.5828 L860,787.5828 L860,773.9828 L852,765.9828 L724,765.9828 " fill="#FEFFDD" style="stroke:#181818;stroke-width:0.4000000000000001;"/><path d="M852,765.9828 L852,773.9828 L860,773.9828 L852,765.9828 " fill="#FEFFDD" style="stroke:#181818;stroke-width:0.4000000000000001;"/><text fill="#000000" font-family="sans-serif" font-size="10.4" lengthAdjust="spacing" textLength="119.2" x="728.8" y="781.2055">see us290 documentation</text><path d="M16,797.4156 L64.8,797.4156 L64.8,804.8484 L56.8,812.8484 L16,812.8484 L16,797.4156 " fill="#EEEEEE" style="stroke:#000000;stroke-width:1.2000000000000002;"/><rect fill="none" height="451.3906" style="stroke:#000000;stroke-width:1.2000000000000002;" width="951.2" x="16" y="797.4156"/><text fill="#000000" font-family="sans-serif" font-size="10.4" font-weight="bold" lengthAdjust="spacing" textLength="12.8" x="28" y="809.4383">alt</text><text fill="#000000" font-family="sans-serif" font-size="8.8" font-weight="bold" lengthAdjust="spacing" textLength="99.2" x="76.8" y="808.5117">[elevator(s) not found]</text><polygon fill="#181818" points="880.8,828.2813,872.8,831.4813,880.8,834.6813,877.6,831.4813" style="stroke:#181818;stroke-width:0.8000000000000002;"/><line style="stroke:#181818;stroke-width:0.8000000000000002;stroke-dasharray:2.0,2.0;" x1="876" x2="1038.4" y1="831.4813" y2="831.4813"/><text fill="#000000" font-family="sans-serif" font-size="10.4" font-weight="bold" lengthAdjust="spacing" textLength="11.2" x="885.6" y="827.2711">25</text><text fill="#000000" font-family="sans-serif" font-size="10.4" lengthAdjust="spacing" textLength="44" x="900" y="827.2711">404: error</text><polygon fill="#181818" points="562.4,853.3141,554.4,856.5141,562.4,859.7141,559.2,856.5141" style="stroke:#181818;stroke-width:0.8000000000000002;"/><line style="stroke:#181818;stroke-width:0.8000000000000002;stroke-dasharray:2.0,2.0;" x1="557.6" x2="863.2" y1="856.5141" y2="856.5141"/><text fill="#000000" font-family="sans-serif" font-size="10.4" font-weight="bold" lengthAdjust="spacing" textLength="11.2" x="567.2" y="852.3039">26</text><text fill="#000000" font-family="sans-serif" font-size="10.4" lengthAdjust="spacing" textLength="48.8" x="581.6" y="852.3039">observable</text><polygon fill="#181818" points="385.6,878.3469,377.6,881.5469,385.6,884.7469,382.4,881.5469" style="stroke:#181818;stroke-width:0.8000000000000002;"/><line style="stroke:#181818;stroke-width:0.8000000000000002;stroke-dasharray:2.0,2.0;" x1="380.8" x2="544.8" y1="881.5469" y2="881.5469"/><text fill="#000000" font-family="sans-serif" font-size="10.4" font-weight="bold" lengthAdjust="spacing" textLength="11.2" x="390.4" y="877.3367">27</text><text fill="#000000" font-family="sans-serif" font-size="10.4" lengthAdjust="spacing" textLength="20.8" x="404.8" y="877.3367">error</text><line style="stroke:#181818;stroke-width:0.8000000000000002;stroke-dasharray:2.0,2.0;" x1="376.8" x2="410.4" y1="906.5797" y2="906.5797"/><line style="stroke:#181818;stroke-width:0.8000000000000002;stroke-dasharray:2.0,2.0;" x1="410.4" x2="410.4" y1="906.5797" y2="916.9797"/><line style="stroke:#181818;stroke-width:0.8000000000000002;stroke-dasharray:2.0,2.0;" x1="377.6" x2="410.4" y1="916.9797" y2="916.9797"/><polygon fill="#181818" points="385.6,913.7797,377.6,916.9797,385.6,920.1797,382.4,916.9797" style="stroke:#181818;stroke-width:0.8000000000000002;"/><text fill="#000000" font-family="sans-serif" font-size="10.4" font-weight="bold" lengthAdjust="spacing" textLength="11.2" x="382.4" y="902.3695">28</text><text fill="#000000" font-family="sans-serif" font-size="10.4" lengthAdjust="spacing" textLength="60" x="396.8" y="902.3695">elevators = []</text><path d="M181.6,894.7469 L181.6,916.3469 L364.8,916.3469 L364.8,902.7469 L356.8,894.7469 L181.6,894.7469 " fill="#FEFFDD" style="stroke:#181818;stroke-width:0.4000000000000001;"/><path d="M356.8,894.7469 L356.8,902.7469 L364.8,902.7469 L356.8,894.7469 " fill="#FEFFDD" style="stroke:#181818;stroke-width:0.4000000000000001;"/><text fill="#000000" font-family="sans-serif" font-size="10.4" lengthAdjust="spacing" textLength="166.4" x="186.4" y="909.9695">creates alert with the error message</text><polygon fill="#181818" points="284.8,938.8125,276.8,942.0125,284.8,945.2125,281.6,942.0125" style="stroke:#181818;stroke-width:0.8000000000000002;"/><line style="stroke:#181818;stroke-width:0.8000000000000002;stroke-dasharray:2.0,2.0;" x1="280" x2="368" y1="942.0125" y2="942.0125"/><text fill="#000000" font-family="sans-serif" font-size="10.4" font-weight="bold" lengthAdjust="spacing" textLength="11.2" x="289.6" y="937.8023">29</text><text fill="#000000" font-family="sans-serif" font-size="10.4" lengthAdjust="spacing" textLength="40.8" x="304" y="937.8023">elevators</text><polygon fill="#181818" points="84,963.8453,76,967.0453,84,970.2453,80.8,967.0453" style="stroke:#181818;stroke-width:0.8000000000000002;"/><line style="stroke:#181818;stroke-width:0.8000000000000002;stroke-dasharray:2.0,2.0;" x1="79.2" x2="267.2" y1="967.0453" y2="967.0453"/><text fill="#000000" font-family="sans-serif" font-size="10.4" font-weight="bold" lengthAdjust="spacing" textLength="11.2" x="88.8" y="962.8352">30</text><text fill="#000000" font-family="sans-serif" font-size="10.4" lengthAdjust="spacing" textLength="109.6" x="103.2" y="962.8352">does not show anything</text><line style="stroke:#000000;stroke-width:0.8000000000000002;stroke-dasharray:2.0,2.0;" x1="16" x2="967.2" y1="974.2453" y2="974.2453"/><text fill="#000000" font-family="sans-serif" font-size="8.8" font-weight="bold" lengthAdjust="spacing" textLength="82.4" x="20" y="983.7414">[elevator(s) found]</text><polygon fill="#181818" points="880.8,1002.1828,872.8,1005.3828,880.8,1008.5828,877.6,1005.3828" style="stroke:#181818;stroke-width:0.8000000000000002;"/><line style="stroke:#181818;stroke-width:0.8000000000000002;stroke-dasharray:2.0,2.0;" x1="876" x2="1038.4" y1="1005.3828" y2="1005.3828"/><text fill="#000000" font-family="sans-serif" font-size="10.4" font-weight="bold" lengthAdjust="spacing" textLength="11.2" x="885.6" y="1001.1727">31</text><text fill="#000000" font-family="sans-serif" font-size="10.4" lengthAdjust="spacing" textLength="64" x="900" y="1001.1727">200: elevators</text><polygon fill="#181818" points="562.4,1027.2156,554.4,1030.4156,562.4,1033.6156,559.2,1030.4156" style="stroke:#181818;stroke-width:0.8000000000000002;"/><line style="stroke:#181818;stroke-width:0.8000000000000002;stroke-dasharray:2.0,2.0;" x1="557.6" x2="867.2" y1="1030.4156" y2="1030.4156"/><text fill="#000000" font-family="sans-serif" font-size="10.4" font-weight="bold" lengthAdjust="spacing" textLength="11.2" x="567.2" y="1026.2055">32</text><text fill="#000000" font-family="sans-serif" font-size="10.4" lengthAdjust="spacing" textLength="48.8" x="581.6" y="1026.2055">observable</text><path d="M517.2,1042.4156 L575.6,1042.4156 L575.6,1049.8484 L567.6,1057.8484 L517.2,1057.8484 L517.2,1042.4156 " fill="#EEEEEE" style="stroke:#000000;stroke-width:1.2000000000000002;"/><rect fill="none" height="90.2594" style="stroke:#000000;stroke-width:1.2000000000000002;" width="314" x="517.2" y="1042.4156"/><text fill="#000000" font-family="sans-serif" font-size="10.4" font-weight="bold" lengthAdjust="spacing" textLength="22.4" x="529.2" y="1054.4383">loop</text><text fill="#000000" font-family="sans-serif" font-size="8.8" font-weight="bold" lengthAdjust="spacing" textLength="80.8" x="587.6" y="1053.5117">[for each elevator]</text><polygon fill="#181818" points="696,1073.2813,704,1076.4813,696,1079.6813,699.2,1076.4813" style="stroke:#181818;stroke-width:0.8000000000000002;"/><line style="stroke:#181818;stroke-width:0.8000000000000002;stroke-dasharray:2.0,2.0;" x1="553.6" x2="700.8" y1="1076.4813" y2="1076.4813"/><text fill="#000000" font-family="sans-serif" font-size="10.4" font-weight="bold" lengthAdjust="spacing" textLength="11.2" x="559.2" y="1072.2711">33</text><text fill="#000000" font-family="sans-serif" font-size="10.4" lengthAdjust="spacing" textLength="35.2" x="573.6" y="1072.2711">create()</text><rect fill="#E2E2F0" height="40.9938" rx="2" ry="2" style="stroke:#181818;stroke-width:0.4000000000000001;" width="117.6" x="705.6" y="1057.8484"/><text fill="#000000" font-family="sans-serif" font-size="11.2" lengthAdjust="spacing" textLength="19.2" x="754.8" y="1075.5344">dto:</text><text fill="#000000" font-family="sans-serif" font-size="11.2" lengthAdjust="spacing" textLength="106.4" x="711.2" y="1090.4313">CreatedElevatorDTO</text><polygon fill="#181818" points="562.4,1123.075,554.4,1126.275,562.4,1129.475,559.2,1126.275" style="stroke:#181818;stroke-width:0.8000000000000002;"/><line style="stroke:#181818;stroke-width:0.8000000000000002;stroke-dasharray:2.0,2.0;" x1="557.6" x2="763.6" y1="1126.275" y2="1126.275"/><text fill="#000000" font-family="sans-serif" font-size="10.4" font-weight="bold" lengthAdjust="spacing" textLength="11.2" x="567.2" y="1122.0648">34</text><text fill="#000000" font-family="sans-serif" font-size="10.4" lengthAdjust="spacing" textLength="14.4" x="581.6" y="1122.0648">dto</text><polygon fill="#181818" points="385.6,1153.7078,377.6,1156.9078,385.6,1160.1078,382.4,1156.9078" style="stroke:#181818;stroke-width:0.8000000000000002;"/><line style="stroke:#181818;stroke-width:0.8000000000000002;stroke-dasharray:2.0,2.0;" x1="380.8" x2="548.8" y1="1156.9078" y2="1156.9078"/><text fill="#000000" font-family="sans-serif" font-size="10.4" font-weight="bold" lengthAdjust="spacing" textLength="11.2" x="390.4" y="1152.6977">35</text><text fill="#000000" font-family="sans-serif" font-size="10.4" lengthAdjust="spacing" textLength="20.8" x="404.8" y="1152.6977">dto[]</text><line style="stroke:#181818;stroke-width:0.8000000000000002;stroke-dasharray:2.0,2.0;" x1="376.8" x2="410.4" y1="1181.9406" y2="1181.9406"/><line style="stroke:#181818;stroke-width:0.8000000000000002;stroke-dasharray:2.0,2.0;" x1="410.4" x2="410.4" y1="1181.9406" y2="1192.3406"/><line style="stroke:#181818;stroke-width:0.8000000000000002;stroke-dasharray:2.0,2.0;" x1="377.6" x2="410.4" y1="1192.3406" y2="1192.3406"/><polygon fill="#181818" points="385.6,1189.1406,377.6,1192.3406,385.6,1195.5406,382.4,1192.3406" style="stroke:#181818;stroke-width:0.8000000000000002;"/><text fill="#000000" font-family="sans-serif" font-size="10.4" font-weight="bold" lengthAdjust="spacing" textLength="11.2" x="382.4" y="1177.7305">36</text><text fill="#000000" font-family="sans-serif" font-size="10.4" lengthAdjust="spacing" textLength="74.4" x="396.8" y="1177.7305">elevators = dto[]</text><polygon fill="#181818" points="284.8,1214.1734,276.8,1217.3734,284.8,1220.5734,281.6,1217.3734" style="stroke:#181818;stroke-width:0.8000000000000002;"/><line style="stroke:#181818;stroke-width:0.8000000000000002;stroke-dasharray:2.0,2.0;" x1="280" x2="372" y1="1217.3734" y2="1217.3734"/><text fill="#000000" font-family="sans-serif" font-size="10.4" font-weight="bold" lengthAdjust="spacing" textLength="11.2" x="289.6" y="1213.1633">37</text><text fill="#000000" font-family="sans-serif" font-size="10.4" lengthAdjust="spacing" textLength="40.8" x="304" y="1213.1633">elevators</text><polygon fill="#181818" points="80,1239.2063,72,1242.4063,80,1245.6063,76.8,1242.4063" style="stroke:#181818;stroke-width:0.8000000000000002;"/><line style="stroke:#181818;stroke-width:0.8000000000000002;stroke-dasharray:2.0,2.0;" x1="75.2" x2="271.2" y1="1242.4063" y2="1242.4063"/><text fill="#000000" font-family="sans-serif" font-size="10.4" font-weight="bold" lengthAdjust="spacing" textLength="11.2" x="84.8" y="1238.1961">38</text><text fill="#000000" font-family="sans-serif" font-size="10.4" lengthAdjust="spacing" textLength="73.6" x="99.2" y="1238.1961">shows elevators</text><!--SRC=[pLVRZjem47tFLunG7s0h15sjL1Mr-r1srOkwsahGfvO7aqo9fM1Jsm5LQF-zOvC49oIXiDkB9QwUSpnpPd82B3LIfCivgY1WeP4AEcEsNAKQxfXW2rGTO1fIJTihfWmF-Oe90vttqxjFy1p6amazVvoug3N7JJbgB8LHCaaocj2ef1mmGRNc8RfTlGxBcv6Hes_YRSgJY8l5pVJUXT6tTM5ZXSnWT9lWcb4PNdI81xbFFyEDukiihTYOLH2u-Zc1qPKBjEWL-jUkBXZ1Xi0QZ8I4QmEO7QI12yqZX7cMfqCML4uJo9OZ8aAh0n6AnRtu8BZfzeg80kUa0cyv36599O8kqEIwQ0zUeh1wGcLPD97OYdSitUsSQVoYaeT1Ne3k7S0AJYSLr2p7sB-U4UkxsodioMgYQmc497h55x4X2ess2IzU3Y6IORf4OPZXKkoaJKoXTLVtB12-orH4jRJxv5xt-xCHN0slHe1AIHMqHlSBgULSqv2oUOAD2AVglg_jzBj6xgCBfU0DV9qrmfm-SscCN18eTDEkIGnK1ZRSn61Yt9qCIzIQBjtZ6MI3tTOhVt09OQ-84JM5ZhQwwrXkW8cV9hQ3x-2OQ2prfxqtHMk8zd8uF9PC43okOn6MH_aW895oHIaheC2uV4qtTPqivkAYw4ctLnjS76ljgqaCslFAQ8hqQgWBGL8xE3AXXAkCcaTQzOssWJqaEXokIZkzavp9kTKmQ0f_fAZ9TKkDy1YSlTPuzKh9DPcoFiELoHJpcuW-pvdtS4rtYP3kIhbNFxLJ3vvjy_TZ6U73eBWhFQc73xOyyhWVOUcNhveiFMV_FKltRUF_i_JzRuD_PUbjlJhFqlt-d6ZfxSdyPKlFapbcwI6UPkeXjjbwY2SRUmtX7xTsVt2FM_jXNwlUtZ1iTiPq1LurTU-p-_TXQxUFNm00]--></g></svg>