<?xml version="1.0" encoding="us-ascii" standalone="no"?><svg xmlns="http://www.w3.org/2000/svg" xmlns:xlink="http://www.w3.org/1999/xlink" contentStyleType="text/css" height="1334.4px" preserveAspectRatio="none" style="width:1052px;height:1334px;background:#FFFFFF;" version="1.1" viewBox="0 0 1052 1334" width="1052.8px" zoomAndPan="magnify"><defs/><g><rect fill="#FFFFFF" height="1167.5094" style="stroke:#181818;stroke-width:0.8000000000000002;" width="8" x="67.2" y="74.8969"/><rect fill="#FFFFFF" height="561.9219" style="stroke:#181818;stroke-width:0.8000000000000002;" width="8" x="268" y="93.5297"/><rect fill="#FFFFFF" height="561.9219" style="stroke:#181818;stroke-width:0.8000000000000002;" width="8" x="268" y="680.4844"/><rect fill="#FFFFFF" height="511.8563" style="stroke:#181818;stroke-width:0.8000000000000002;" width="8" x="368.8" y="118.5625"/><rect fill="#FFFFFF" height="511.8563" style="stroke:#181818;stroke-width:0.8000000000000002;" width="8" x="368.8" y="705.5172"/><rect fill="#FFFFFF" height="426.3578" style="stroke:#181818;stroke-width:0.8000000000000002;" width="8" x="476.8" y="143.5953"/><rect fill="#FFFFFF" height="426.3578" style="stroke:#181818;stroke-width:0.8000000000000002;" width="8" x="574.4" y="730.55"/><rect fill="#FFFFFF" height="41.7938" style="stroke:#181818;stroke-width:0.8000000000000002;" width="8" x="665.2" y="497.5266"/><rect fill="#FFFFFF" height="41.7938" style="stroke:#181818;stroke-width:0.8000000000000002;" width="8" x="769.6" y="1084.4813"/><rect fill="#FFFFFF" height="274.8328" style="stroke:#181818;stroke-width:0.8000000000000002;" width="8" x="873.2" y="168.6281"/><rect fill="#FFFFFF" height="274.8328" style="stroke:#181818;stroke-width:0.8000000000000002;" width="8" x="873.2" y="755.5828"/><rect fill="none" height="1043.9453" style="stroke:#000000;stroke-width:1.2000000000000002;" width="1032" x="8" y="210.4609"/><rect fill="none" height="90.2594" style="stroke:#000000;stroke-width:1.2000000000000002;" width="286.4" x="428.4" y="455.4609"/><rect fill="none" height="451.3906" style="stroke:#000000;stroke-width:1.2000000000000002;" width="960.4" x="16" y="797.4156"/><rect fill="none" height="90.2594" style="stroke:#000000;stroke-width:1.2000000000000002;" width="315.2" x="525.2" y="1042.4156"/><line style="stroke:#181818;stroke-width:0.4000000000000001;stroke-dasharray:5.0,5.0;" x1="71.2" x2="71.2" y1="66.8969" y2="1268.0063"/><line style="stroke:#181818;stroke-width:0.4000000000000001;stroke-dasharray:5.0,5.0;" x1="272" x2="272" y1="66.8969" y2="1268.0063"/><line style="stroke:#181818;stroke-width:0.4000000000000001;stroke-dasharray:5.0,5.0;" x1="372.8" x2="372.8" y1="66.8969" y2="1268.0063"/><line style="stroke:#181818;stroke-width:0.4000000000000001;stroke-dasharray:5.0,5.0;" x1="480.4" x2="480.4" y1="66.8969" y2="1268.0063"/><line style="stroke:#181818;stroke-width:0.4000000000000001;stroke-dasharray:5.0,5.0;" x1="578" x2="578" y1="66.8969" y2="1268.0063"/><line style="stroke:#181818;stroke-width:0.4000000000000001;stroke-dasharray:5.0,5.0;" x1="669.2" x2="669.2" y1="503.7906" y2="1268.0063"/><line style="stroke:#181818;stroke-width:0.4000000000000001;stroke-dasharray:5.0,5.0;" x1="773.2" x2="773.2" y1="1090.7453" y2="1268.0063"/><line style="stroke:#181818;stroke-width:0.4000000000000001;stroke-dasharray:5.0,5.0;" x1="877.2" x2="877.2" y1="66.8969" y2="1268.0063"/><text fill="#000000" font-family="sans-serif" font-size="11.2" lengthAdjust="spacing" textLength="89.6" x="24" y="64.0859">Campus Manager</text><ellipse cx="71.2" cy="10.8" fill="#E2E2F0" rx="6.4" ry="6.4" style="stroke:#181818;stroke-width:0.4000000000000001;"/><path d="M71.2,17.2 L71.2,38.8 M60.8,23.6 L81.6,23.6 M71.2,38.8 L60.8,50.8 M71.2,38.8 L81.6,50.8 " fill="none" style="stroke:#181818;stroke-width:0.4000000000000001;"/><text fill="#000000" font-family="sans-serif" font-size="11.2" lengthAdjust="spacing" textLength="89.6" x="24" y="1279.2922">Campus Manager</text><ellipse cx="71.2" cy="1288.9031" fill="#E2E2F0" rx="6.4" ry="6.4" style="stroke:#181818;stroke-width:0.4000000000000001;"/><path d="M71.2,1295.3031 L71.2,1316.9031 M60.8,1301.7031 L81.6,1301.7031 M71.2,1316.9031 L60.8,1328.9031 M71.2,1316.9031 L81.6,1328.9031 " fill="none" style="stroke:#181818;stroke-width:0.4000000000000001;"/><rect fill="#E2E2F0" height="26.0969" rx="2" ry="2" style="stroke:#181818;stroke-width:0.4000000000000001;" width="100.8" x="221.6" y="40"/><text fill="#000000" font-family="sans-serif" font-size="11.2" lengthAdjust="spacing" textLength="89.6" x="227.2" y="57.6859">HTML + CSS + JS</text><rect fill="#E2E2F0" height="26.0969" rx="2" ry="2" style="stroke:#181818;stroke-width:0.4000000000000001;" width="100.8" x="221.6" y="1267.2063"/><text fill="#000000" font-family="sans-serif" font-size="11.2" lengthAdjust="spacing" textLength="89.6" x="227.2" y="1284.8922">HTML + CSS + JS</text><rect fill="#E2E2F0" height="26.0969" rx="2" ry="2" style="stroke:#181818;stroke-width:0.4000000000000001;" width="60.8" x="342.4" y="40"/><text fill="#000000" font-family="sans-serif" font-size="11.2" lengthAdjust="spacing" textLength="49.6" x="348" y="57.6859">Controller</text><rect fill="#E2E2F0" height="26.0969" rx="2" ry="2" style="stroke:#181818;stroke-width:0.4000000000000001;" width="60.8" x="342.4" y="1267.2063"/><text fill="#000000" font-family="sans-serif" font-size="11.2" lengthAdjust="spacing" textLength="49.6" x="348" y="1284.8922">Controller</text><rect fill="#E2E2F0" height="26.0969" rx="2" ry="2" style="stroke:#181818;stroke-width:0.4000000000000001;" width="88.8" x="436.4" y="40"/><text fill="#000000" font-family="sans-serif" font-size="11.2" lengthAdjust="spacing" textLength="77.6" x="442" y="57.6859">BuildingService</text><rect fill="#E2E2F0" height="26.0969" rx="2" ry="2" style="stroke:#181818;stroke-width:0.4000000000000001;" width="88.8" x="436.4" y="1267.2063"/><text fill="#000000" font-family="sans-serif" font-size="11.2" lengthAdjust="spacing" textLength="77.6" x="442" y="1284.8922">BuildingService</text><rect fill="#E2E2F0" height="26.0969" rx="2" ry="2" style="stroke:#181818;stroke-width:0.4000000000000001;" width="90.4" x="533.2" y="40"/><text fill="#000000" font-family="sans-serif" font-size="11.2" lengthAdjust="spacing" textLength="79.2" x="538.8" y="57.6859">ElevatorService</text><rect fill="#E2E2F0" height="26.0969" rx="2" ry="2" style="stroke:#181818;stroke-width:0.4000000000000001;" width="90.4" x="533.2" y="1267.2063"/><text fill="#000000" font-family="sans-serif" font-size="11.2" lengthAdjust="spacing" textLength="79.2" x="538.8" y="1284.8922">ElevatorService</text><rect fill="#E2E2F0" height="40.9938" rx="2" ry="2" style="stroke:#181818;stroke-width:0.4000000000000001;" width="75.2" x="631.6" y="1267.2063"/><text fill="#000000" font-family="sans-serif" font-size="11.2" lengthAdjust="spacing" textLength="19.2" x="659.6" y="1284.8922">dto:</text><text fill="#000000" font-family="sans-serif" font-size="11.2" lengthAdjust="spacing" textLength="64" x="637.2" y="1299.7891">BuildingDTO</text><rect fill="#E2E2F0" height="40.9938" rx="2" ry="2" style="stroke:#181818;stroke-width:0.4000000000000001;" width="117.6" x="714.8" y="1267.2063"/><text fill="#000000" font-family="sans-serif" font-size="11.2" lengthAdjust="spacing" textLength="19.2" x="764" y="1284.8922">dto:</text><text fill="#000000" font-family="sans-serif" font-size="11.2" lengthAdjust="spacing" textLength="106.4" x="720.4" y="1299.7891">CreatedElevatorDTO</text><rect fill="#E2E2F0" height="26.0969" rx="2" ry="2" style="stroke:#181818;stroke-width:0.4000000000000001;" width="73.6" x="840.4" y="40"/><text fill="#000000" font-family="sans-serif" font-size="11.2" lengthAdjust="spacing" textLength="62.4" x="846" y="57.6859">HTTP Driver</text><rect fill="#E2E2F0" height="26.0969" rx="2" ry="2" style="stroke:#181818;stroke-width:0.4000000000000001;" width="73.6" x="840.4" y="1267.2063"/><text fill="#000000" font-family="sans-serif" font-size="11.2" lengthAdjust="spacing" textLength="62.4" x="846" y="1284.8922">HTTP Driver</text><rect fill="#FFFFFF" height="1167.5094" style="stroke:#181818;stroke-width:0.8000000000000002;" width="8" x="67.2" y="74.8969"/><rect fill="#FFFFFF" height="561.9219" style="stroke:#181818;stroke-width:0.8000000000000002;" width="8" x="268" y="93.5297"/><rect fill="#FFFFFF" height="561.9219" style="stroke:#181818;stroke-width:0.8000000000000002;" width="8" x="268" y="680.4844"/><rect fill="#FFFFFF" height="511.8563" style="stroke:#181818;stroke-width:0.8000000000000002;" width="8" x="368.8" y="118.5625"/><rect fill="#FFFFFF" height="511.8563" style="stroke:#181818;stroke-width:0.8000000000000002;" width="8" x="368.8" y="705.5172"/><rect fill="#FFFFFF" height="426.3578" style="stroke:#181818;stroke-width:0.8000000000000002;" width="8" x="476.8" y="143.5953"/><rect fill="#FFFFFF" height="426.3578" style="stroke:#181818;stroke-width:0.8000000000000002;" width="8" x="574.4" y="730.55"/><rect fill="#FFFFFF" height="41.7938" style="stroke:#181818;stroke-width:0.8000000000000002;" width="8" x="665.2" y="497.5266"/><rect fill="#FFFFFF" height="41.7938" style="stroke:#181818;stroke-width:0.8000000000000002;" width="8" x="769.6" y="1084.4813"/><rect fill="#FFFFFF" height="274.8328" style="stroke:#181818;stroke-width:0.8000000000000002;" width="8" x="873.2" y="168.6281"/><rect fill="#FFFFFF" height="274.8328" style="stroke:#181818;stroke-width:0.8000000000000002;" width="8" x="873.2" y="755.5828"/><polygon fill="#181818" points="258.4,90.3297,266.4,93.5297,258.4,96.7297,261.6,93.5297" style="stroke:#181818;stroke-width:0.8000000000000002;"/><line style="stroke:#181818;stroke-width:0.8000000000000002;" x1="75.2" x2="263.2" y1="93.5297" y2="93.5297"/><text fill="#000000" font-family="sans-serif" font-size="10.4" font-weight="bold" lengthAdjust="spacing" textLength="5.6" x="80.8" y="89.3195">1</text><text fill="#000000" font-family="sans-serif" font-size="10.4" lengthAdjust="spacing" textLength="168.8" x="89.6" y="89.3195">wants to list elevators inside building</text><polygon fill="#181818" points="359.2,115.3625,367.2,118.5625,359.2,121.7625,362.4,118.5625" style="stroke:#181818;stroke-width:0.8000000000000002;"/><line style="stroke:#181818;stroke-width:0.8000000000000002;" x1="276" x2="364" y1="118.5625" y2="118.5625"/><text fill="#000000" font-family="sans-serif" font-size="10.4" font-weight="bold" lengthAdjust="spacing" textLength="5.6" x="281.6" y="114.3523">2</text><text fill="#000000" font-family="sans-serif" font-size="10.4" lengthAdjust="spacing" textLength="44.8" x="290.4" y="114.3523">ngOnInit()</text><polygon fill="#181818" points="467.2,140.3953,475.2,143.5953,467.2,146.7953,470.4,143.5953" style="stroke:#181818;stroke-width:0.8000000000000002;"/><line style="stroke:#181818;stroke-width:0.8000000000000002;" x1="376.8" x2="472" y1="143.5953" y2="143.5953"/><text fill="#000000" font-family="sans-serif" font-size="10.4" font-weight="bold" lengthAdjust="spacing" textLength="5.6" x="382.4" y="139.3852">3</text><text fill="#000000" font-family="sans-serif" font-size="10.4" lengthAdjust="spacing" textLength="63.2" x="391.2" y="139.3852">getBuildings()</text><polygon fill="#181818" points="863.6,165.4281,871.6,168.6281,863.6,171.8281,866.8,168.6281" style="stroke:#181818;stroke-width:0.8000000000000002;"/><line style="stroke:#181818;stroke-width:0.8000000000000002;" x1="484.8" x2="868.4" y1="168.6281" y2="168.6281"/><text fill="#000000" font-family="sans-serif" font-size="10.4" font-weight="bold" lengthAdjust="spacing" textLength="5.6" x="490.4" y="164.418">4</text><text fill="#000000" font-family="sans-serif" font-size="10.4" lengthAdjust="spacing" textLength="106.4" x="499.2" y="164.418">get({baseUrl}/buildings)</text><polygon fill="#181818" points="1038.4,192.8609,1046.4,196.0609,1038.4,199.2609,1041.6,196.0609" style="stroke:#181818;stroke-width:0.8000000000000002;"/><line style="stroke:#181818;stroke-width:0.8000000000000002;" x1="881.2" x2="1043.2" y1="196.0609" y2="196.0609"/><text fill="#000000" font-family="sans-serif" font-size="10.4" font-weight="bold" lengthAdjust="spacing" textLength="5.6" x="886.8" y="191.8508">5</text><text fill="#000000" font-family="sans-serif" font-size="10.4" lengthAdjust="spacing" textLength="68" x="895.6" y="191.8508">GET /buildings</text><path d="M732.8,179.0281 L732.8,200.6281 L868.8,200.6281 L868.8,187.0281 L860.8,179.0281 L732.8,179.0281 " fill="#FEFFDD" style="stroke:#181818;stroke-width:0.4000000000000001;"/><path d="M860.8,179.0281 L860.8,187.0281 L868.8,187.0281 L860.8,179.0281 " fill="#FEFFDD" style="stroke:#181818;stroke-width:0.4000000000000001;"/><text fill="#000000" font-family="sans-serif" font-size="10.4" lengthAdjust="spacing" textLength="119.2" x="737.6" y="194.2508">see us170 documentation</text><path d="M8,210.4609 L56.8,210.4609 L56.8,217.8938 L48.8,225.8938 L8,225.8938 L8,210.4609 " fill="#EEEEEE" style="stroke:#000000;stroke-width:1.2000000000000002;"/><rect fill="none" height="1043.9453" style="stroke:#000000;stroke-width:1.2000000000000002;" width="1032" x="8" y="210.4609"/><text fill="#000000" font-family="sans-serif" font-size="10.4" font-weight="bold" lengthAdjust="spacing" textLength="12.8" x="20" y="222.4836">alt</text><text fill="#000000" font-family="sans-serif" font-size="8.8" font-weight="bold" lengthAdjust="spacing" textLength="98.4" x="68.8" y="221.557">[building(s) not found]</text><polygon fill="#181818" points="890,241.3266,882,244.5266,890,247.7266,886.8,244.5266" style="stroke:#181818;stroke-width:0.8000000000000002;"/><line style="stroke:#181818;stroke-width:0.8000000000000002;stroke-dasharray:2.0,2.0;" x1="885.2" x2="1047.2" y1="244.5266" y2="244.5266"/><text fill="#000000" font-family="sans-serif" font-size="10.4" font-weight="bold" lengthAdjust="spacing" textLength="5.6" x="894.8" y="240.3164">6</text><text fill="#000000" font-family="sans-serif" font-size="10.4" lengthAdjust="spacing" textLength="44" x="903.6" y="240.3164">404: error</text><polygon fill="#181818" points="493.6,266.3594,485.6,269.5594,493.6,272.7594,490.4,269.5594" style="stroke:#181818;stroke-width:0.8000000000000002;"/><line style="stroke:#181818;stroke-width:0.8000000000000002;stroke-dasharray:2.0,2.0;" x1="488.8" x2="872.4" y1="269.5594" y2="269.5594"/><text fill="#000000" font-family="sans-serif" font-size="10.4" font-weight="bold" lengthAdjust="spacing" textLength="5.6" x="498.4" y="265.3492">7</text><text fill="#000000" font-family="sans-serif" font-size="10.4" lengthAdjust="spacing" textLength="48.8" x="507.2" y="265.3492">observable</text><polygon fill="#181818" points="385.6,291.3922,377.6,294.5922,385.6,297.7922,382.4,294.5922" style="stroke:#181818;stroke-width:0.8000000000000002;"/><line style="stroke:#181818;stroke-width:0.8000000000000002;stroke-dasharray:2.0,2.0;" x1="380.8" x2="476" y1="294.5922" y2="294.5922"/><text fill="#000000" font-family="sans-serif" font-size="10.4" font-weight="bold" lengthAdjust="spacing" textLength="5.6" x="390.4" y="290.382">8</text><text fill="#000000" font-family="sans-serif" font-size="10.4" lengthAdjust="spacing" textLength="20.8" x="399.2" y="290.382">error</text><line style="stroke:#181818;stroke-width:0.8000000000000002;stroke-dasharray:2.0,2.0;" x1="376.8" x2="410.4" y1="319.625" y2="319.625"/><line style="stroke:#181818;stroke-width:0.8000000000000002;stroke-dasharray:2.0,2.0;" x1="410.4" x2="410.4" y1="319.625" y2="330.025"/><line style="stroke:#181818;stroke-width:0.8000000000000002;stroke-dasharray:2.0,2.0;" x1="377.6" x2="410.4" y1="330.025" y2="330.025"/><polygon fill="#181818" points="385.6,326.825,377.6,330.025,385.6,333.225,382.4,330.025" style="stroke:#181818;stroke-width:0.8000000000000002;"/><text fill="#000000" font-family="sans-serif" font-size="10.4" font-weight="bold" lengthAdjust="spacing" textLength="5.6" x="382.4" y="315.4148">9</text><text fill="#000000" font-family="sans-serif" font-size="10.4" lengthAdjust="spacing" textLength="60" x="391.2" y="315.4148">buildings = []</text><path d="M181.6,307.7922 L181.6,329.3922 L364.8,329.3922 L364.8,315.7922 L356.8,307.7922 L181.6,307.7922 " fill="#FEFFDD" style="stroke:#181818;stroke-width:0.4000000000000001;"/><path d="M356.8,307.7922 L356.8,315.7922 L364.8,315.7922 L356.8,307.7922 " fill="#FEFFDD" style="stroke:#181818;stroke-width:0.4000000000000001;"/><text fill="#000000" font-family="sans-serif" font-size="10.4" lengthAdjust="spacing" textLength="166.4" x="186.4" y="323.0148">creates alert with the error message</text><polygon fill="#181818" points="284.8,351.8578,276.8,355.0578,284.8,358.2578,281.6,355.0578" style="stroke:#181818;stroke-width:0.8000000000000002;"/><line style="stroke:#181818;stroke-width:0.8000000000000002;stroke-dasharray:2.0,2.0;" x1="280" x2="368" y1="355.0578" y2="355.0578"/><text fill="#000000" font-family="sans-serif" font-size="10.4" font-weight="bold" lengthAdjust="spacing" textLength="11.2" x="289.6" y="350.8477">10</text><text fill="#000000" font-family="sans-serif" font-size="10.4" lengthAdjust="spacing" textLength="40.8" x="304" y="350.8477">buildings</text><polygon fill="#181818" points="84,376.8906,76,380.0906,84,383.2906,80.8,380.0906" style="stroke:#181818;stroke-width:0.8000000000000002;"/><line style="stroke:#181818;stroke-width:0.8000000000000002;stroke-dasharray:2.0,2.0;" x1="79.2" x2="267.2" y1="380.0906" y2="380.0906"/><text fill="#000000" font-family="sans-serif" font-size="10.4" font-weight="bold" lengthAdjust="spacing" textLength="11.2" x="88.8" y="375.8805">11</text><text fill="#000000" font-family="sans-serif" font-size="10.4" lengthAdjust="spacing" textLength="109.6" x="103.2" y="375.8805">does not show anything</text><line style="stroke:#000000;stroke-width:0.8000000000000002;stroke-dasharray:2.0,2.0;" x1="8" x2="1040" y1="387.2906" y2="387.2906"/><text fill="#000000" font-family="sans-serif" font-size="8.8" font-weight="bold" lengthAdjust="spacing" textLength="81.6" x="12" y="396.7867">[building(s) found]</text><polygon fill="#181818" points="890,415.2281,882,418.4281,890,421.6281,886.8,418.4281" style="stroke:#181818;stroke-width:0.8000000000000002;"/><line style="stroke:#181818;stroke-width:0.8000000000000002;stroke-dasharray:2.0,2.0;" x1="885.2" x2="1047.2" y1="418.4281" y2="418.4281"/><text fill="#000000" font-family="sans-serif" font-size="10.4" font-weight="bold" lengthAdjust="spacing" textLength="11.2" x="894.8" y="414.218">12</text><text fill="#000000" font-family="sans-serif" font-size="10.4" lengthAdjust="spacing" textLength="64" x="909.2" y="414.218">200: buildings</text><polygon fill="#181818" points="493.6,440.2609,485.6,443.4609,493.6,446.6609,490.4,443.4609" style="stroke:#181818;stroke-width:0.8000000000000002;"/><line style="stroke:#181818;stroke-width:0.8000000000000002;stroke-dasharray:2.0,2.0;" x1="488.8" x2="876.4" y1="443.4609" y2="443.4609"/><text fill="#000000" font-family="sans-serif" font-size="10.4" font-weight="bold" lengthAdjust="spacing" textLength="11.2" x="498.4" y="439.2508">13</text><text fill="#000000" font-family="sans-serif" font-size="10.4" lengthAdjust="spacing" textLength="48.8" x="512.8" y="439.2508">observable</text><path d="M428.4,455.4609 L486.8,455.4609 L486.8,462.8938 L478.8,470.8938 L428.4,470.8938 L428.4,455.4609 " fill="#EEEEEE" style="stroke:#000000;stroke-width:1.2000000000000002;"/><rect fill="none" height="90.2594" style="stroke:#000000;stroke-width:1.2000000000000002;" width="286.4" x="428.4" y="455.4609"/><text fill="#000000" font-family="sans-serif" font-size="10.4" font-weight="bold" lengthAdjust="spacing" textLength="22.4" x="440.4" y="467.4836">loop</text><text fill="#000000" font-family="sans-serif" font-size="8.8" font-weight="bold" lengthAdjust="spacing" textLength="80" x="498.8" y="466.557">[for each building]</text><polygon fill="#181818" points="622,486.3266,630,489.5266,622,492.7266,625.2,489.5266" style="stroke:#181818;stroke-width:0.8000000000000002;"/><line style="stroke:#181818;stroke-width:0.8000000000000002;stroke-dasharray:2.0,2.0;" x1="484.8" x2="626.8" y1="489.5266" y2="489.5266"/><text fill="#000000" font-family="sans-serif" font-size="10.4" font-weight="bold" lengthAdjust="spacing" textLength="11.2" x="490.4" y="485.3164">14</text><text fill="#000000" font-family="sans-serif" font-size="10.4" lengthAdjust="spacing" textLength="35.2" x="504.8" y="485.3164">create()</text><rect fill="#E2E2F0" height="40.9938" rx="2" ry="2" style="stroke:#181818;stroke-width:0.4000000000000001;" width="75.2" x="631.6" y="470.8938"/><text fill="#000000" font-family="sans-serif" font-size="11.2" lengthAdjust="spacing" textLength="19.2" x="659.6" y="488.5797">dto:</text><text fill="#000000" font-family="sans-serif" font-size="11.2" lengthAdjust="spacing" textLength="64" x="637.2" y="503.4766">BuildingDTO</text><polygon fill="#181818" points="493.6,536.1203,485.6,539.3203,493.6,542.5203,490.4,539.3203" style="stroke:#181818;stroke-width:0.8000000000000002;"/><line style="stroke:#181818;stroke-width:0.8000000000000002;stroke-dasharray:2.0,2.0;" x1="488.8" x2="668.4" y1="539.3203" y2="539.3203"/><text fill="#000000" font-family="sans-serif" font-size="10.4" font-weight="bold" lengthAdjust="spacing" textLength="11.2" x="498.4" y="535.1102">15</text><text fill="#000000" font-family="sans-serif" font-size="10.4" lengthAdjust="spacing" textLength="14.4" x="512.8" y="535.1102">dto</text><polygon fill="#181818" points="385.6,566.7531,377.6,569.9531,385.6,573.1531,382.4,569.9531" style="stroke:#181818;stroke-width:0.8000000000000002;"/><line style="stroke:#181818;stroke-width:0.8000000000000002;stroke-dasharray:2.0,2.0;" x1="380.8" x2="480" y1="569.9531" y2="569.9531"/><text fill="#000000" font-family="sans-serif" font-size="10.4" font-weight="bold" lengthAdjust="spacing" textLength="11.2" x="390.4" y="565.743">16</text><text fill="#000000" font-family="sans-serif" font-size="10.4" lengthAdjust="spacing" textLength="20.8" x="404.8" y="565.743">dto[]</text><line style="stroke:#181818;stroke-width:0.8000000000000002;stroke-dasharray:2.0,2.0;" x1="376.8" x2="410.4" y1="594.9859" y2="594.9859"/><line style="stroke:#181818;stroke-width:0.8000000000000002;stroke-dasharray:2.0,2.0;" x1="410.4" x2="410.4" y1="594.9859" y2="605.3859"/><line style="stroke:#181818;stroke-width:0.8000000000000002;stroke-dasharray:2.0,2.0;" x1="377.6" x2="410.4" y1="605.3859" y2="605.3859"/><polygon fill="#181818" points="385.6,602.1859,377.6,605.3859,385.6,608.5859,382.4,605.3859" style="stroke:#181818;stroke-width:0.8000000000000002;"/><text fill="#000000" font-family="sans-serif" font-size="10.4" font-weight="bold" lengthAdjust="spacing" textLength="11.2" x="382.4" y="590.7758">17</text><text fill="#000000" font-family="sans-serif" font-size="10.4" lengthAdjust="spacing" textLength="74.4" x="396.8" y="590.7758">buildings = dto[]</text><polygon fill="#181818" points="284.8,627.2188,276.8,630.4188,284.8,633.6188,281.6,630.4188" style="stroke:#181818;stroke-width:0.8000000000000002;"/><line style="stroke:#181818;stroke-width:0.8000000000000002;stroke-dasharray:2.0,2.0;" x1="280" x2="372" y1="630.4188" y2="630.4188"/><text fill="#000000" font-family="sans-serif" font-size="10.4" font-weight="bold" lengthAdjust="spacing" textLength="11.2" x="289.6" y="626.2086">18</text><text fill="#000000" font-family="sans-serif" font-size="10.4" lengthAdjust="spacing" textLength="38.4" x="304" y="626.2086">buldings</text><polygon fill="#181818" points="84,652.2516,76,655.4516,84,658.6516,80.8,655.4516" style="stroke:#181818;stroke-width:0.8000000000000002;"/><line style="stroke:#181818;stroke-width:0.8000000000000002;stroke-dasharray:2.0,2.0;" x1="79.2" x2="271.2" y1="655.4516" y2="655.4516"/><text fill="#000000" font-family="sans-serif" font-size="10.4" font-weight="bold" lengthAdjust="spacing" textLength="11.2" x="88.8" y="651.2414">19</text><text fill="#000000" font-family="sans-serif" font-size="10.4" lengthAdjust="spacing" textLength="78.4" x="103.2" y="651.2414">requests building</text><polygon fill="#181818" points="258.4,677.2844,266.4,680.4844,258.4,683.6844,261.6,680.4844" style="stroke:#181818;stroke-width:0.8000000000000002;"/><line style="stroke:#181818;stroke-width:0.8000000000000002;" x1="75.2" x2="263.2" y1="680.4844" y2="680.4844"/><text fill="#000000" font-family="sans-serif" font-size="10.4" font-weight="bold" lengthAdjust="spacing" textLength="11.2" x="80.8" y="676.2742">20</text><text fill="#000000" font-family="sans-serif" font-size="10.4" lengthAdjust="spacing" textLength="76" x="95.2" y="676.2742">provides building</text><polygon fill="#181818" points="359.2,702.3172,367.2,705.5172,359.2,708.7172,362.4,705.5172" style="stroke:#181818;stroke-width:0.8000000000000002;"/><line style="stroke:#181818;stroke-width:0.8000000000000002;" x1="276" x2="364" y1="705.5172" y2="705.5172"/><text fill="#000000" font-family="sans-serif" font-size="10.4" font-weight="bold" lengthAdjust="spacing" textLength="11.2" x="281.6" y="701.307">21</text><text fill="#000000" font-family="sans-serif" font-size="10.4" lengthAdjust="spacing" textLength="63.2" x="296" y="701.307">getElevators()</text><polygon fill="#181818" points="564.8,727.35,572.8,730.55,564.8,733.75,568,730.55" style="stroke:#181818;stroke-width:0.8000000000000002;"/><line style="stroke:#181818;stroke-width:0.8000000000000002;" x1="376.8" x2="569.6" y1="730.55" y2="730.55"/><text fill="#000000" font-family="sans-serif" font-size="10.4" font-weight="bold" lengthAdjust="spacing" textLength="11.2" x="382.4" y="726.3398">22</text><text fill="#000000" font-family="sans-serif" font-size="10.4" lengthAdjust="spacing" textLength="139.2" x="396.8" y="726.3398">getElevators(selectedBuilding)</text><polygon fill="#181818" points="863.6,752.3828,871.6,755.5828,863.6,758.7828,866.8,755.5828" style="stroke:#181818;stroke-width:0.8000000000000002;"/><line style="stroke:#181818;stroke-width:0.8000000000000002;" x1="582.4" x2="868.4" y1="755.5828" y2="755.5828"/><text fill="#000000" font-family="sans-serif" font-size="10.4" font-weight="bold" lengthAdjust="spacing" textLength="11.2" x="588" y="751.3727">23</text><text fill="#000000" font-family="sans-serif" font-size="10.4" lengthAdjust="spacing" textLength="224.8" x="602.4" y="751.3727">get({baseUrl}/buildings/${buildingCode}/elevators)</text><polygon fill="#181818" points="1038.4,779.8156,1046.4,783.0156,1038.4,786.2156,1041.6,783.0156" style="stroke:#181818;stroke-width:0.8000000000000002;"/><line style="stroke:#181818;stroke-width:0.8000000000000002;" x1="881.2" x2="1043.2" y1="783.0156" y2="783.0156"/><text fill="#000000" font-family="sans-serif" font-size="10.4" font-weight="bold" lengthAdjust="spacing" textLength="11.2" x="886.8" y="778.8055">24</text><text fill="#000000" font-family="sans-serif" font-size="10.4" lengthAdjust="spacing" textLength="129.6" x="901.2" y="778.8055">GET /buildings/{id}/elevators</text><path d="M732.8,765.9828 L732.8,787.5828 L868.8,787.5828 L868.8,773.9828 L860.8,765.9828 L732.8,765.9828 " fill="#FEFFDD" style="stroke:#181818;stroke-width:0.4000000000000001;"/><path d="M860.8,765.9828 L860.8,773.9828 L868.8,773.9828 L860.8,765.9828 " fill="#FEFFDD" style="stroke:#181818;stroke-width:0.4000000000000001;"/><text fill="#000000" font-family="sans-serif" font-size="10.4" lengthAdjust="spacing" textLength="119.2" x="737.6" y="781.2055">see us290 documentation</text><path d="M16,797.4156 L64.8,797.4156 L64.8,804.8484 L56.8,812.8484 L16,812.8484 L16,797.4156 " fill="#EEEEEE" style="stroke:#000000;stroke-width:1.2000000000000002;"/><rect fill="none" height="451.3906" style="stroke:#000000;stroke-width:1.2000000000000002;" width="960.4" x="16" y="797.4156"/><text fill="#000000" font-family="sans-serif" font-size="10.4" font-weight="bold" lengthAdjust="spacing" textLength="12.8" x="28" y="809.4383">alt</text><text fill="#000000" font-family="sans-serif" font-size="8.8" font-weight="bold" lengthAdjust="spacing" textLength="99.2" x="76.8" y="808.5117">[elevator(s) not found]</text><polygon fill="#181818" points="890,828.2813,882,831.4813,890,834.6813,886.8,831.4813" style="stroke:#181818;stroke-width:0.8000000000000002;"/><line style="stroke:#181818;stroke-width:0.8000000000000002;stroke-dasharray:2.0,2.0;" x1="885.2" x2="1047.2" y1="831.4813" y2="831.4813"/><text fill="#000000" font-family="sans-serif" font-size="10.4" font-weight="bold" lengthAdjust="spacing" textLength="11.2" x="894.8" y="827.2711">25</text><text fill="#000000" font-family="sans-serif" font-size="10.4" lengthAdjust="spacing" textLength="44" x="909.2" y="827.2711">404: error</text><polygon fill="#181818" points="591.2,853.3141,583.2,856.5141,591.2,859.7141,588,856.5141" style="stroke:#181818;stroke-width:0.8000000000000002;"/><line style="stroke:#181818;stroke-width:0.8000000000000002;stroke-dasharray:2.0,2.0;" x1="586.4" x2="872.4" y1="856.5141" y2="856.5141"/><text fill="#000000" font-family="sans-serif" font-size="10.4" font-weight="bold" lengthAdjust="spacing" textLength="11.2" x="596" y="852.3039">26</text><text fill="#000000" font-family="sans-serif" font-size="10.4" lengthAdjust="spacing" textLength="48.8" x="610.4" y="852.3039">observable</text><polygon fill="#181818" points="385.6,878.3469,377.6,881.5469,385.6,884.7469,382.4,881.5469" style="stroke:#181818;stroke-width:0.8000000000000002;"/><line style="stroke:#181818;stroke-width:0.8000000000000002;stroke-dasharray:2.0,2.0;" x1="380.8" x2="573.6" y1="881.5469" y2="881.5469"/><text fill="#000000" font-family="sans-serif" font-size="10.4" font-weight="bold" lengthAdjust="spacing" textLength="11.2" x="390.4" y="877.3367">27</text><text fill="#000000" font-family="sans-serif" font-size="10.4" lengthAdjust="spacing" textLength="20.8" x="404.8" y="877.3367">error</text><line style="stroke:#181818;stroke-width:0.8000000000000002;stroke-dasharray:2.0,2.0;" x1="376.8" x2="410.4" y1="906.5797" y2="906.5797"/><line style="stroke:#181818;stroke-width:0.8000000000000002;stroke-dasharray:2.0,2.0;" x1="410.4" x2="410.4" y1="906.5797" y2="916.9797"/><line style="stroke:#181818;stroke-width:0.8000000000000002;stroke-dasharray:2.0,2.0;" x1="377.6" x2="410.4" y1="916.9797" y2="916.9797"/><polygon fill="#181818" points="385.6,913.7797,377.6,916.9797,385.6,920.1797,382.4,916.9797" style="stroke:#181818;stroke-width:0.8000000000000002;"/><text fill="#000000" font-family="sans-serif" font-size="10.4" font-weight="bold" lengthAdjust="spacing" textLength="11.2" x="382.4" y="902.3695">28</text><text fill="#000000" font-family="sans-serif" font-size="10.4" lengthAdjust="spacing" textLength="60" x="396.8" y="902.3695">elevators = []</text><path d="M181.6,894.7469 L181.6,916.3469 L364.8,916.3469 L364.8,902.7469 L356.8,894.7469 L181.6,894.7469 " fill="#FEFFDD" style="stroke:#181818;stroke-width:0.4000000000000001;"/><path d="M356.8,894.7469 L356.8,902.7469 L364.8,902.7469 L356.8,894.7469 " fill="#FEFFDD" style="stroke:#181818;stroke-width:0.4000000000000001;"/><text fill="#000000" font-family="sans-serif" font-size="10.4" lengthAdjust="spacing" textLength="166.4" x="186.4" y="909.9695">creates alert with the error message</text><polygon fill="#181818" points="284.8,938.8125,276.8,942.0125,284.8,945.2125,281.6,942.0125" style="stroke:#181818;stroke-width:0.8000000000000002;"/><line style="stroke:#181818;stroke-width:0.8000000000000002;stroke-dasharray:2.0,2.0;" x1="280" x2="368" y1="942.0125" y2="942.0125"/><text fill="#000000" font-family="sans-serif" font-size="10.4" font-weight="bold" lengthAdjust="spacing" textLength="11.2" x="289.6" y="937.8023">29</text><text fill="#000000" font-family="sans-serif" font-size="10.4" lengthAdjust="spacing" textLength="40.8" x="304" y="937.8023">elevators</text><polygon fill="#181818" points="84,963.8453,76,967.0453,84,970.2453,80.8,967.0453" style="stroke:#181818;stroke-width:0.8000000000000002;"/><line style="stroke:#181818;stroke-width:0.8000000000000002;stroke-dasharray:2.0,2.0;" x1="79.2" x2="267.2" y1="967.0453" y2="967.0453"/><text fill="#000000" font-family="sans-serif" font-size="10.4" font-weight="bold" lengthAdjust="spacing" textLength="11.2" x="88.8" y="962.8352">30</text><text fill="#000000" font-family="sans-serif" font-size="10.4" lengthAdjust="spacing" textLength="109.6" x="103.2" y="962.8352">does not show anything</text><line style="stroke:#000000;stroke-width:0.8000000000000002;stroke-dasharray:2.0,2.0;" x1="16" x2="976.4" y1="974.2453" y2="974.2453"/><text fill="#000000" font-family="sans-serif" font-size="8.8" font-weight="bold" lengthAdjust="spacing" textLength="82.4" x="20" y="983.7414">[elevator(s) found]</text><polygon fill="#181818" points="890,1002.1828,882,1005.3828,890,1008.5828,886.8,1005.3828" style="stroke:#181818;stroke-width:0.8000000000000002;"/><line style="stroke:#181818;stroke-width:0.8000000000000002;stroke-dasharray:2.0,2.0;" x1="885.2" x2="1047.2" y1="1005.3828" y2="1005.3828"/><text fill="#000000" font-family="sans-serif" font-size="10.4" font-weight="bold" lengthAdjust="spacing" textLength="11.2" x="894.8" y="1001.1727">31</text><text fill="#000000" font-family="sans-serif" font-size="10.4" lengthAdjust="spacing" textLength="64" x="909.2" y="1001.1727">200: elevators</text><polygon fill="#181818" points="591.2,1027.2156,583.2,1030.4156,591.2,1033.6156,588,1030.4156" style="stroke:#181818;stroke-width:0.8000000000000002;"/><line style="stroke:#181818;stroke-width:0.8000000000000002;stroke-dasharray:2.0,2.0;" x1="586.4" x2="876.4" y1="1030.4156" y2="1030.4156"/><text fill="#000000" font-family="sans-serif" font-size="10.4" font-weight="bold" lengthAdjust="spacing" textLength="11.2" x="596" y="1026.2055">32</text><text fill="#000000" font-family="sans-serif" font-size="10.4" lengthAdjust="spacing" textLength="48.8" x="610.4" y="1026.2055">observable</text><path d="M525.2,1042.4156 L583.6,1042.4156 L583.6,1049.8484 L575.6,1057.8484 L525.2,1057.8484 L525.2,1042.4156 " fill="#EEEEEE" style="stroke:#000000;stroke-width:1.2000000000000002;"/><rect fill="none" height="90.2594" style="stroke:#000000;stroke-width:1.2000000000000002;" width="315.2" x="525.2" y="1042.4156"/><text fill="#000000" font-family="sans-serif" font-size="10.4" font-weight="bold" lengthAdjust="spacing" textLength="22.4" x="537.2" y="1054.4383">loop</text><text fill="#000000" font-family="sans-serif" font-size="8.8" font-weight="bold" lengthAdjust="spacing" textLength="80.8" x="595.6" y="1053.5117">[for each elevator]</text><polygon fill="#181818" points="705.2,1073.2813,713.2,1076.4813,705.2,1079.6813,708.4,1076.4813" style="stroke:#181818;stroke-width:0.8000000000000002;"/><line style="stroke:#181818;stroke-width:0.8000000000000002;stroke-dasharray:2.0,2.0;" x1="582.4" x2="710" y1="1076.4813" y2="1076.4813"/><text fill="#000000" font-family="sans-serif" font-size="10.4" font-weight="bold" lengthAdjust="spacing" textLength="11.2" x="588" y="1072.2711">33</text><text fill="#000000" font-family="sans-serif" font-size="10.4" lengthAdjust="spacing" textLength="35.2" x="602.4" y="1072.2711">create()</text><rect fill="#E2E2F0" height="40.9938" rx="2" ry="2" style="stroke:#181818;stroke-width:0.4000000000000001;" width="117.6" x="714.8" y="1057.8484"/><text fill="#000000" font-family="sans-serif" font-size="11.2" lengthAdjust="spacing" textLength="19.2" x="764" y="1075.5344">dto:</text><text fill="#000000" font-family="sans-serif" font-size="11.2" lengthAdjust="spacing" textLength="106.4" x="720.4" y="1090.4313">CreatedElevatorDTO</text><polygon fill="#181818" points="591.2,1123.075,583.2,1126.275,591.2,1129.475,588,1126.275" style="stroke:#181818;stroke-width:0.8000000000000002;"/><line style="stroke:#181818;stroke-width:0.8000000000000002;stroke-dasharray:2.0,2.0;" x1="586.4" x2="772.8" y1="1126.275" y2="1126.275"/><text fill="#000000" font-family="sans-serif" font-size="10.4" font-weight="bold" lengthAdjust="spacing" textLength="11.2" x="596" y="1122.0648">34</text><text fill="#000000" font-family="sans-serif" font-size="10.4" lengthAdjust="spacing" textLength="14.4" x="610.4" y="1122.0648">dto</text><polygon fill="#181818" points="385.6,1153.7078,377.6,1156.9078,385.6,1160.1078,382.4,1156.9078" style="stroke:#181818;stroke-width:0.8000000000000002;"/><line style="stroke:#181818;stroke-width:0.8000000000000002;stroke-dasharray:2.0,2.0;" x1="380.8" x2="577.6" y1="1156.9078" y2="1156.9078"/><text fill="#000000" font-family="sans-serif" font-size="10.4" font-weight="bold" lengthAdjust="spacing" textLength="11.2" x="390.4" y="1152.6977">35</text><text fill="#000000" font-family="sans-serif" font-size="10.4" lengthAdjust="spacing" textLength="20.8" x="404.8" y="1152.6977">dto[]</text><line style="stroke:#181818;stroke-width:0.8000000000000002;stroke-dasharray:2.0,2.0;" x1="376.8" x2="410.4" y1="1181.9406" y2="1181.9406"/><line style="stroke:#181818;stroke-width:0.8000000000000002;stroke-dasharray:2.0,2.0;" x1="410.4" x2="410.4" y1="1181.9406" y2="1192.3406"/><line style="stroke:#181818;stroke-width:0.8000000000000002;stroke-dasharray:2.0,2.0;" x1="377.6" x2="410.4" y1="1192.3406" y2="1192.3406"/><polygon fill="#181818" points="385.6,1189.1406,377.6,1192.3406,385.6,1195.5406,382.4,1192.3406" style="stroke:#181818;stroke-width:0.8000000000000002;"/><text fill="#000000" font-family="sans-serif" font-size="10.4" font-weight="bold" lengthAdjust="spacing" textLength="11.2" x="382.4" y="1177.7305">36</text><text fill="#000000" font-family="sans-serif" font-size="10.4" lengthAdjust="spacing" textLength="74.4" x="396.8" y="1177.7305">elevators = dto[]</text><polygon fill="#181818" points="284.8,1214.1734,276.8,1217.3734,284.8,1220.5734,281.6,1217.3734" style="stroke:#181818;stroke-width:0.8000000000000002;"/><line style="stroke:#181818;stroke-width:0.8000000000000002;stroke-dasharray:2.0,2.0;" x1="280" x2="372" y1="1217.3734" y2="1217.3734"/><text fill="#000000" font-family="sans-serif" font-size="10.4" font-weight="bold" lengthAdjust="spacing" textLength="11.2" x="289.6" y="1213.1633">37</text><text fill="#000000" font-family="sans-serif" font-size="10.4" lengthAdjust="spacing" textLength="40.8" x="304" y="1213.1633">elevators</text><polygon fill="#181818" points="80,1239.2063,72,1242.4063,80,1245.6063,76.8,1242.4063" style="stroke:#181818;stroke-width:0.8000000000000002;"/><line style="stroke:#181818;stroke-width:0.8000000000000002;stroke-dasharray:2.0,2.0;" x1="75.2" x2="271.2" y1="1242.4063" y2="1242.4063"/><text fill="#000000" font-family="sans-serif" font-size="10.4" font-weight="bold" lengthAdjust="spacing" textLength="11.2" x="84.8" y="1238.1961">38</text><text fill="#000000" font-family="sans-serif" font-size="10.4" lengthAdjust="spacing" textLength="73.6" x="99.2" y="1238.1961">shows elevators</text><!--SRC=[nLTTRzem57tFhxX2Uu1E25PLceQsFenMwwPLhGHxsdXmaZjYATZCTa0Jwd_VZSc74v80RQLPuZFd7DldtXm3IumKoSf7vNaiC591RyfMwqJ3FHDiYQe7J4EYwVAQASC3lcR2GEzkVlyTti9qDgFdRpEBsd3SLb5JAOoISPp914R5LS3dXCSX5yiPgWqFqABq9l2hgDiODupMLaDX5HKQEVabSiMR-OF5qRTDiAb2PZ3CbHrqNVPkFd-46yKtsIOYOzQUPztYn4Lh3j2WLnXUMnTW0biYQp0IOguDO3QF1Yuq3n7yR9cMMKXP1o4RLeW4KzT8K2mVn5V1JNzG80gUDHQSOJd4JRqaxX9Dxejs-1KDQplKXkMJJhhflKv_vpEDFrJyDChte0S7l4BLkWKDmoeEhnUa-kLs3gMOrmWNaiGKNqQ621fJrz-z7qCeWsI5mZ33fTXx6Pl2tBuUf4JuBHCHDigMI_au72ucS3M-cW0g9PNNYHwMtafVKrioFyPMojx5ifJT4-nhLw8BP-0J_5oqqgn3lZH6heWKsFxMP0Sg0rjk8Z0HxcU65MfDz_Rn5MIzNDQcZR7lLMAaDy64oa9JfyxhI6w1YRycIdlTqZ7MMAbGTtMAuf3ivNZiBiRpNbYV4AjzUW28fLpJ-XGGCAhUiwqrfWYvk2Wgq1yqeejvqtXgspfTSpVI1dLsqGH1CjSxrf54hBMMetgG35qTUgXqs4srPdAcia5cHqjdAVoJeAPahHJ3KR0Hsf37QoKt5Bpw6SbBgPUV4_hSzCKwNzDH4D39a-TnUnfZKzNmU1gFtkpozrCPujEeE7nUDQT7EnuwsYV7zkM7jjZEjKwBRJSOpenjF3csyVcnNHxv_oksozgyLcox5Jepjfr6yLvOdpDZEv_Pwwon_ULtNd07s1NTcMwsdTF2kq6nBRxndFX6xzHEFHxVXrrLp- -MxagRIjVezU1sFjl_7EdkqyS_]--></g></svg>