<?xml version="1.0" encoding="us-ascii" standalone="no"?><svg xmlns="http://www.w3.org/2000/svg" xmlns:xlink="http://www.w3.org/1999/xlink" contentStyleType="text/css" height="511px" preserveAspectRatio="none" style="width:632px;height:511px;background:#FFFFFF;" version="1.1" viewBox="0 0 632 511" width="632px" zoomAndPan="magnify"><defs/><g><rect fill="#FFFFFF" height="316.9102" style="stroke:#181818;stroke-width:1.0;" width="10" x="59" y="93.6211"/><rect fill="#FFFFFF" height="131.1641" style="stroke:#181818;stroke-width:1.0;" width="10" x="286" y="116.9121"/><rect fill="#FFFFFF" height="131.1641" style="stroke:#181818;stroke-width:1.0;" width="10" x="286" y="279.3672"/><rect fill="#FFFFFF" height="68.582" style="stroke:#181818;stroke-width:1.0;" width="10" x="521" y="148.2031"/><rect fill="#FFFFFF" height="68.582" style="stroke:#181818;stroke-width:1.0;" width="10" x="521" y="310.6582"/><line style="stroke:#181818;stroke-width:0.5;stroke-dasharray:5.0,5.0;" x1="64" x2="64" y1="83.6211" y2="428.5313"/><line style="stroke:#181818;stroke-width:0.5;stroke-dasharray:5.0,5.0;" x1="291" x2="291" y1="83.6211" y2="428.5313"/><line style="stroke:#181818;stroke-width:0.5;stroke-dasharray:5.0,5.0;" x1="525.5" x2="525.5" y1="83.6211" y2="428.5313"/><text fill="#000000" font-family="sans-serif" font-size="14" lengthAdjust="spacing" textLength="112" x="5" y="80.1074">Campus Manager</text><ellipse cx="64" cy="13.5" fill="#E2E2F0" rx="8" ry="8" style="stroke:#181818;stroke-width:0.5;"/><path d="M64,21.5 L64,48.5 M51,29.5 L77,29.5 M64,48.5 L51,63.5 M64,48.5 L77,63.5 " fill="none" style="stroke:#181818;stroke-width:0.5;"/><text fill="#000000" font-family="sans-serif" font-size="14" lengthAdjust="spacing" textLength="112" x="5" y="442.6387">Campus Manager</text><ellipse cx="64" cy="454.6523" fill="#E2E2F0" rx="8" ry="8" style="stroke:#181818;stroke-width:0.5;"/><path d="M64,462.6523 L64,489.6523 M51,470.6523 L77,470.6523 M64,489.6523 L51,504.6523 M64,489.6523 L77,504.6523 " fill="none" style="stroke:#181818;stroke-width:0.5;"/><rect fill="#E2E2F0" height="32.6211" rx="2.5" ry="2.5" style="stroke:#181818;stroke-width:0.5;" width="82" x="250" y="50"/><text fill="#000000" font-family="sans-serif" font-size="14" lengthAdjust="spacing" textLength="68" x="257" y="72.1074">Campus UI</text><rect fill="#E2E2F0" height="32.6211" rx="2.5" ry="2.5" style="stroke:#181818;stroke-width:0.5;" width="82" x="250" y="427.5313"/><text fill="#000000" font-family="sans-serif" font-size="14" lengthAdjust="spacing" textLength="68" x="257" y="449.6387">Campus UI</text><rect fill="#E2E2F0" height="32.6211" rx="2.5" ry="2.5" style="stroke:#181818;stroke-width:0.5;" width="91" x="480.5" y="50"/><text fill="#000000" font-family="sans-serif" font-size="14" lengthAdjust="spacing" textLength="77" x="487.5" y="72.1074">Campus MD</text><rect fill="#E2E2F0" height="32.6211" rx="2.5" ry="2.5" style="stroke:#181818;stroke-width:0.5;" width="91" x="480.5" y="427.5313"/><text fill="#000000" font-family="sans-serif" font-size="14" lengthAdjust="spacing" textLength="77" x="487.5" y="449.6387">Campus MD</text><rect fill="#FFFFFF" height="316.9102" style="stroke:#181818;stroke-width:1.0;" width="10" x="59" y="93.6211"/><rect fill="#FFFFFF" height="131.1641" style="stroke:#181818;stroke-width:1.0;" width="10" x="286" y="116.9121"/><rect fill="#FFFFFF" height="131.1641" style="stroke:#181818;stroke-width:1.0;" width="10" x="286" y="279.3672"/><rect fill="#FFFFFF" height="68.582" style="stroke:#181818;stroke-width:1.0;" width="10" x="521" y="148.2031"/><rect fill="#FFFFFF" height="68.582" style="stroke:#181818;stroke-width:1.0;" width="10" x="521" y="310.6582"/><polygon fill="#181818" points="274,112.9121,284,116.9121,274,120.9121,278,116.9121" style="stroke:#181818;stroke-width:1.0;"/><line style="stroke:#181818;stroke-width:1.0;" x1="69" x2="280" y1="116.9121" y2="116.9121"/><text fill="#000000" font-family="sans-serif" font-size="13" font-weight="bold" lengthAdjust="spacing" textLength="7" x="76" y="111.6494">1</text><text fill="#000000" font-family="sans-serif" font-size="13" lengthAdjust="spacing" textLength="158" x="87" y="111.6494">list elevators inside building</text><polygon fill="#181818" points="509,144.2031,519,148.2031,509,152.2031,513,148.2031" style="stroke:#181818;stroke-width:1.0;"/><line style="stroke:#181818;stroke-width:1.0;" x1="296" x2="515" y1="148.2031" y2="148.2031"/><text fill="#000000" font-family="sans-serif" font-size="13" font-weight="bold" lengthAdjust="spacing" textLength="7" x="303" y="142.9404">2</text><text fill="#000000" font-family="sans-serif" font-size="13" lengthAdjust="spacing" textLength="85" x="314" y="142.9404">GET /buildings</text><path d="M536,161.2031 L536,188.2031 L625,188.2031 L625,171.2031 L615,161.2031 L536,161.2031 " fill="#FEFFDD" style="stroke:#181818;stroke-width:0.5;"/><path d="M615,161.2031 L615,171.2031 L625,171.2031 L615,161.2031 " fill="#FEFFDD" style="stroke:#181818;stroke-width:0.5;"/><text fill="#000000" font-family="sans-serif" font-size="13" lengthAdjust="spacing" textLength="68" x="542" y="180.2314">see US 170</text><polygon fill="#181818" points="307,212.7852,297,216.7852,307,220.7852,303,216.7852" style="stroke:#181818;stroke-width:1.0;"/><line style="stroke:#181818;stroke-width:1.0;stroke-dasharray:2.0,2.0;" x1="301" x2="525" y1="216.7852" y2="216.7852"/><text fill="#000000" font-family="sans-serif" font-size="13" font-weight="bold" lengthAdjust="spacing" textLength="7" x="313" y="211.5225">3</text><text fill="#000000" font-family="sans-serif" font-size="13" lengthAdjust="spacing" textLength="51" x="324" y="211.5225">buildings</text><polygon fill="#181818" points="80,244.0762,70,248.0762,80,252.0762,76,248.0762" style="stroke:#181818;stroke-width:1.0;"/><line style="stroke:#181818;stroke-width:1.0;stroke-dasharray:2.0,2.0;" x1="74" x2="290" y1="248.0762" y2="248.0762"/><text fill="#000000" font-family="sans-serif" font-size="13" font-weight="bold" lengthAdjust="spacing" textLength="7" x="86" y="242.8135">4</text><text fill="#000000" font-family="sans-serif" font-size="13" lengthAdjust="spacing" textLength="182" x="97" y="242.8135">show buildings and request one</text><polygon fill="#181818" points="274,275.3672,284,279.3672,274,283.3672,278,279.3672" style="stroke:#181818;stroke-width:1.0;"/><line style="stroke:#181818;stroke-width:1.0;" x1="69" x2="280" y1="279.3672" y2="279.3672"/><text fill="#000000" font-family="sans-serif" font-size="13" font-weight="bold" lengthAdjust="spacing" textLength="7" x="76" y="274.1045">5</text><text fill="#000000" font-family="sans-serif" font-size="13" lengthAdjust="spacing" textLength="97" x="87" y="274.1045">chooses building</text><polygon fill="#181818" points="509,306.6582,519,310.6582,509,314.6582,513,310.6582" style="stroke:#181818;stroke-width:1.0;"/><line style="stroke:#181818;stroke-width:1.0;" x1="296" x2="515" y1="310.6582" y2="310.6582"/><text fill="#000000" font-family="sans-serif" font-size="13" font-weight="bold" lengthAdjust="spacing" textLength="7" x="303" y="305.3955">6</text><text fill="#000000" font-family="sans-serif" font-size="13" lengthAdjust="spacing" textLength="162" x="314" y="305.3955">GET /buildings/{id}/elevators</text><path d="M536,323.6582 L536,350.6582 L625,350.6582 L625,333.6582 L615,323.6582 L536,323.6582 " fill="#FEFFDD" style="stroke:#181818;stroke-width:0.5;"/><path d="M615,323.6582 L615,333.6582 L625,333.6582 L615,323.6582 " fill="#FEFFDD" style="stroke:#181818;stroke-width:0.5;"/><text fill="#000000" font-family="sans-serif" font-size="13" lengthAdjust="spacing" textLength="68" x="542" y="342.6865">see US 290</text><polygon fill="#181818" points="307,375.2402,297,379.2402,307,383.2402,303,379.2402" style="stroke:#181818;stroke-width:1.0;"/><line style="stroke:#181818;stroke-width:1.0;stroke-dasharray:2.0,2.0;" x1="301" x2="525" y1="379.2402" y2="379.2402"/><text fill="#000000" font-family="sans-serif" font-size="13" font-weight="bold" lengthAdjust="spacing" textLength="7" x="313" y="373.9775">7</text><text fill="#000000" font-family="sans-serif" font-size="13" lengthAdjust="spacing" textLength="190" x="324" y="373.9775">elevators inside building choosed</text><polygon fill="#181818" points="75,406.5313,65,410.5313,75,414.5313,71,410.5313" style="stroke:#181818;stroke-width:1.0;"/><line style="stroke:#181818;stroke-width:1.0;stroke-dasharray:2.0,2.0;" x1="69" x2="290" y1="410.5313" y2="410.5313"/><text fill="#000000" font-family="sans-serif" font-size="13" font-weight="bold" lengthAdjust="spacing" textLength="7" x="81" y="405.2686">8</text><text fill="#000000" font-family="sans-serif" font-size="13" lengthAdjust="spacing" textLength="169" x="92" y="405.2686">inform error / shows elevators</text><!--SRC=[fL8zJyCm4DtpAqxTgm1B1GCB8CJGgVG7NEDhSb9YXpiR1iH_v-hIDA5qGFLYEUyZzvwDAGQVkWr9KM0LWy3i0Ri-AIpHOqqo0rH8Qd2F4hdY7dqSIEkNFSv_eil7Z7OkU_CxHifMOCjscD-R4kwWPOr0BHaXY09xPKUmITmwzdMc7_MSpzc2TmwTCuVdfrSe3m8T68FAHe3Hyi6-2TTDXB3TEoWHh5TmlRYQC0sR7yOyzNSq_iDai9t88ffn4pwEKa3lGEWjaKKEdefVDXRlf9wg2K59BoYa_6JtLGuDNz3FpUtvVixUu4y2zw_Us6-3T40YzYZBNAF2DCAqj_797jat]--></g></svg>