<?xml version="1.0" encoding="us-ascii" standalone="no"?><svg xmlns="http://www.w3.org/2000/svg" xmlns:xlink="http://www.w3.org/1999/xlink" contentStyleType="text/css" height="1400px" preserveAspectRatio="none" style="width:1242px;height:1400px;background:#FFFFFF;" version="1.1" viewBox="0 0 1242 1400" width="1242px" zoomAndPan="magnify"><defs/><g><rect fill="#FFFFFF" height="507.5898" style="stroke:#181818;stroke-width:1.0;" width="10" x="226" y="98.7988"/><rect fill="#FFFFFF" height="654.1875" style="stroke:#181818;stroke-width:1.0;" width="10" x="226" y="642.6992"/><rect fill="#FFFFFF" height="448.9688" style="stroke:#181818;stroke-width:1.0;" width="10" x="416" y="128.1094"/><rect fill="#FFFFFF" height="595.5664" style="stroke:#181818;stroke-width:1.0;" width="10" x="416" y="672.0098"/><rect fill="#FFFFFF" height="390.3477" style="stroke:#181818;stroke-width:1.0;" width="10" x="568" y="157.4199"/><rect fill="#FFFFFF" height="478.9688" style="stroke:#181818;stroke-width:1.0;" width="10" x="568" y="759.2969"/><rect fill="#FFFFFF" height="87.2871" style="stroke:#181818;stroke-width:1.0;" width="10" x="703" y="431.1699"/><rect fill="#FFFFFF" height="87.2871" style="stroke:#181818;stroke-width:1.0;" width="10" x="703" y="1121.668"/><rect fill="#FFFFFF" height="47.9766" style="stroke:#181818;stroke-width:1.0;" width="10" x="938" y="470.4805"/><rect fill="#FFFFFF" height="47.9766" style="stroke:#181818;stroke-width:1.0;" width="10" x="938" y="1160.9785"/><rect fill="#FFFFFF" height="87.9316" style="stroke:#181818;stroke-width:1.0;" width="10" x="1094.5" y="186.7305"/><rect fill="#FFFFFF" height="87.9316" style="stroke:#181818;stroke-width:1.0;" width="10" x="1094.5" y="788.6074"/><rect fill="#FFFFFF" height="59.3105" style="stroke:#181818;stroke-width:1.0;" width="10" x="1094.5" y="1033.0469"/><rect fill="#FFFFFF" height="29.3105" style="stroke:#181818;stroke-width:1.0;" width="10" x="1185.5" y="216.041"/><rect fill="#FFFFFF" height="29.3105" style="stroke:#181818;stroke-width:1.0;" width="10" x="1185.5" y="817.918"/><rect fill="#FFFFFF" height="30" style="stroke:#181818;stroke-width:1.0;" width="10" x="1185.5" y="1062.3574"/><rect fill="none" height="324.7266" style="stroke:#000000;stroke-width:1.5;" width="1053" x="3" y="289.6621"/><rect fill="none" height="413.3477" style="stroke:#000000;stroke-width:1.5;" width="1232" x="3" y="891.5391"/><line style="stroke:#181818;stroke-width:0.5;stroke-dasharray:5.0,5.0;" x1="231" x2="231" y1="67.4883" y2="1321.8867"/><line style="stroke:#181818;stroke-width:0.5;stroke-dasharray:5.0,5.0;" x1="421" x2="421" y1="67.4883" y2="1321.8867"/><line style="stroke:#181818;stroke-width:0.5;stroke-dasharray:5.0,5.0;" x1="573" x2="573" y1="67.4883" y2="1321.8867"/><line style="stroke:#181818;stroke-width:0.5;stroke-dasharray:5.0,5.0;" x1="708" x2="708" y1="67.4883" y2="1321.8867"/><line style="stroke:#181818;stroke-width:0.5;stroke-dasharray:5.0,5.0;" x1="943" x2="943" y1="1168.6563" y2="1321.8867"/><line style="stroke:#181818;stroke-width:0.5;stroke-dasharray:5.0,5.0;" x1="1099" x2="1099" y1="67.4883" y2="1321.8867"/><line style="stroke:#181818;stroke-width:0.5;stroke-dasharray:5.0,5.0;" x1="1190" x2="1190" y1="67.4883" y2="1321.8867"/><rect fill="#E2E2F0" height="30.4883" rx="2.5" ry="2.5" style="stroke:#181818;stroke-width:0.5;" width="54" x="204" y="36"/><text fill="#000000" font-family="sans-serif" font-size="14" lengthAdjust="spacing" textLength="40" x="211" y="56.5352">Route</text><rect fill="#E2E2F0" height="30.4883" rx="2.5" ry="2.5" style="stroke:#181818;stroke-width:0.5;" width="54" x="204" y="1320.8867"/><text fill="#000000" font-family="sans-serif" font-size="14" lengthAdjust="spacing" textLength="40" x="211" y="1341.4219">Route</text><rect fill="#E2E2F0" height="30.4883" rx="2.5" ry="2.5" style="stroke:#181818;stroke-width:0.5;" width="84" x="379" y="36"/><text fill="#000000" font-family="sans-serif" font-size="14" lengthAdjust="spacing" textLength="70" x="386" y="56.5352">Controller</text><rect fill="#E2E2F0" height="30.4883" rx="2.5" ry="2.5" style="stroke:#181818;stroke-width:0.5;" width="84" x="379" y="1320.8867"/><text fill="#000000" font-family="sans-serif" font-size="14" lengthAdjust="spacing" textLength="70" x="386" y="1341.4219">Controller</text><rect fill="#E2E2F0" height="30.4883" rx="2.5" ry="2.5" style="stroke:#181818;stroke-width:0.5;" width="62" x="542" y="36"/><text fill="#000000" font-family="sans-serif" font-size="14" lengthAdjust="spacing" textLength="48" x="549" y="56.5352">Service</text><rect fill="#E2E2F0" height="30.4883" rx="2.5" ry="2.5" style="stroke:#181818;stroke-width:0.5;" width="62" x="542" y="1320.8867"/><text fill="#000000" font-family="sans-serif" font-size="14" lengthAdjust="spacing" textLength="48" x="549" y="1341.4219">Service</text><rect fill="#E2E2F0" height="30.4883" rx="2.5" ry="2.5" style="stroke:#181818;stroke-width:0.5;" width="66" x="675" y="36"/><text fill="#000000" font-family="sans-serif" font-size="14" lengthAdjust="spacing" textLength="52" x="682" y="56.5352">Mapper</text><rect fill="#E2E2F0" height="30.4883" rx="2.5" ry="2.5" style="stroke:#181818;stroke-width:0.5;" width="66" x="675" y="1320.8867"/><text fill="#000000" font-family="sans-serif" font-size="14" lengthAdjust="spacing" textLength="52" x="682" y="1341.4219">Mapper</text><rect fill="#E2E2F0" height="46.9766" rx="2.5" ry="2.5" style="stroke:#181818;stroke-width:0.5;" width="206" x="840" y="1320.8867"/><text fill="#000000" font-family="sans-serif" font-size="14" lengthAdjust="spacing" textLength="27" x="929.5" y="1341.4219">dto:</text><text fill="#000000" font-family="sans-serif" font-size="14" lengthAdjust="spacing" textLength="192" x="847" y="1357.9102">IClientWithoutPasswordDTO</text><rect fill="#E2E2F0" height="30.4883" rx="2.5" ry="2.5" style="stroke:#181818;stroke-width:0.5;" width="87" x="1056" y="36"/><text fill="#000000" font-family="sans-serif" font-size="14" lengthAdjust="spacing" textLength="73" x="1063" y="56.5352">Repository</text><rect fill="#E2E2F0" height="30.4883" rx="2.5" ry="2.5" style="stroke:#181818;stroke-width:0.5;" width="87" x="1056" y="1320.8867"/><text fill="#000000" font-family="sans-serif" font-size="14" lengthAdjust="spacing" textLength="73" x="1063" y="1341.4219">Repository</text><text fill="#000000" font-family="sans-serif" font-size="14" lengthAdjust="spacing" textLength="63" x="1156" y="64.5352">Database</text><path d="M1172.5,15 C1172.5,5 1190.5,5 1190.5,5 C1190.5,5 1208.5,5 1208.5,15 L1208.5,41 C1208.5,51 1190.5,51 1190.5,51 C1190.5,51 1172.5,51 1172.5,41 L1172.5,15 " fill="#E2E2F0" style="stroke:#181818;stroke-width:1.5;"/><path d="M1172.5,15 C1172.5,25 1190.5,25 1190.5,25 C1190.5,25 1208.5,25 1208.5,15 " fill="none" style="stroke:#181818;stroke-width:1.5;"/><text fill="#000000" font-family="sans-serif" font-size="14" lengthAdjust="spacing" textLength="63" x="1156" y="1334.4219">Database</text><path d="M1172.5,1347.375 C1172.5,1337.375 1190.5,1337.375 1190.5,1337.375 C1190.5,1337.375 1208.5,1337.375 1208.5,1347.375 L1208.5,1373.375 C1208.5,1383.375 1190.5,1383.375 1190.5,1383.375 C1190.5,1383.375 1172.5,1383.375 1172.5,1373.375 L1172.5,1347.375 " fill="#E2E2F0" style="stroke:#181818;stroke-width:1.5;"/><path d="M1172.5,1347.375 C1172.5,1357.375 1190.5,1357.375 1190.5,1357.375 C1190.5,1357.375 1208.5,1357.375 1208.5,1347.375 " fill="none" style="stroke:#181818;stroke-width:1.5;"/><rect fill="#FFFFFF" height="507.5898" style="stroke:#181818;stroke-width:1.0;" width="10" x="226" y="98.7988"/><rect fill="#FFFFFF" height="654.1875" style="stroke:#181818;stroke-width:1.0;" width="10" x="226" y="642.6992"/><rect fill="#FFFFFF" height="448.9688" style="stroke:#181818;stroke-width:1.0;" width="10" x="416" y="128.1094"/><rect fill="#FFFFFF" height="595.5664" style="stroke:#181818;stroke-width:1.0;" width="10" x="416" y="672.0098"/><rect fill="#FFFFFF" height="390.3477" style="stroke:#181818;stroke-width:1.0;" width="10" x="568" y="157.4199"/><rect fill="#FFFFFF" height="478.9688" style="stroke:#181818;stroke-width:1.0;" width="10" x="568" y="759.2969"/><rect fill="#FFFFFF" height="87.2871" style="stroke:#181818;stroke-width:1.0;" width="10" x="703" y="431.1699"/><rect fill="#FFFFFF" height="87.2871" style="stroke:#181818;stroke-width:1.0;" width="10" x="703" y="1121.668"/><rect fill="#FFFFFF" height="47.9766" style="stroke:#181818;stroke-width:1.0;" width="10" x="938" y="470.4805"/><rect fill="#FFFFFF" height="47.9766" style="stroke:#181818;stroke-width:1.0;" width="10" x="938" y="1160.9785"/><rect fill="#FFFFFF" height="87.9316" style="stroke:#181818;stroke-width:1.0;" width="10" x="1094.5" y="186.7305"/><rect fill="#FFFFFF" height="87.9316" style="stroke:#181818;stroke-width:1.0;" width="10" x="1094.5" y="788.6074"/><rect fill="#FFFFFF" height="59.3105" style="stroke:#181818;stroke-width:1.0;" width="10" x="1094.5" y="1033.0469"/><rect fill="#FFFFFF" height="29.3105" style="stroke:#181818;stroke-width:1.0;" width="10" x="1185.5" y="216.041"/><rect fill="#FFFFFF" height="29.3105" style="stroke:#181818;stroke-width:1.0;" width="10" x="1185.5" y="817.918"/><rect fill="#FFFFFF" height="30" style="stroke:#181818;stroke-width:1.0;" width="10" x="1185.5" y="1062.3574"/><polygon fill="#181818" points="214,94.7988,224,98.7988,214,102.7988,218,98.7988" style="stroke:#181818;stroke-width:1.0;"/><line style="stroke:#181818;stroke-width:1.0;" x1="0" x2="220" y1="98.7988" y2="98.7988"/><text fill="#000000" font-family="sans-serif" font-size="13" font-weight="bold" lengthAdjust="spacing" textLength="9" x="7" y="94.0566">1</text><text fill="#000000" font-family="sans-serif" font-size="13" lengthAdjust="spacing" textLength="134" x="20" y="94.0566">GET (/clients/{email})</text><polygon fill="#181818" points="404,124.1094,414,128.1094,404,132.1094,408,128.1094" style="stroke:#181818;stroke-width:1.0;"/><line style="stroke:#181818;stroke-width:1.0;" x1="236" x2="410" y1="128.1094" y2="128.1094"/><text fill="#000000" font-family="sans-serif" font-size="13" font-weight="bold" lengthAdjust="spacing" textLength="9" x="243" y="123.3672">2</text><text fill="#000000" font-family="sans-serif" font-size="13" lengthAdjust="spacing" textLength="124" x="256" y="123.3672">getClient(req,res,...)</text><polygon fill="#181818" points="556,153.4199,566,157.4199,556,161.4199,560,157.4199" style="stroke:#181818;stroke-width:1.0;"/><line style="stroke:#181818;stroke-width:1.0;" x1="426" x2="562" y1="157.4199" y2="157.4199"/><text fill="#000000" font-family="sans-serif" font-size="13" font-weight="bold" lengthAdjust="spacing" textLength="9" x="433" y="152.6777">3</text><text fill="#000000" font-family="sans-serif" font-size="13" lengthAdjust="spacing" textLength="99" x="446" y="152.6777">getClient(email)</text><polygon fill="#181818" points="1082.5,182.7305,1092.5,186.7305,1082.5,190.7305,1086.5,186.7305" style="stroke:#181818;stroke-width:1.0;"/><line style="stroke:#181818;stroke-width:1.0;" x1="578" x2="1088.5" y1="186.7305" y2="186.7305"/><text fill="#000000" font-family="sans-serif" font-size="13" font-weight="bold" lengthAdjust="spacing" textLength="9" x="585" y="181.9883">4</text><text fill="#000000" font-family="sans-serif" font-size="13" lengthAdjust="spacing" textLength="67" x="598" y="181.9883">find(email)</text><polygon fill="#181818" points="1173.5,212.041,1183.5,216.041,1173.5,220.041,1177.5,216.041" style="stroke:#181818;stroke-width:1.0;"/><line style="stroke:#181818;stroke-width:1.0;" x1="1104.5" x2="1179.5" y1="216.041" y2="216.041"/><text fill="#000000" font-family="sans-serif" font-size="13" font-weight="bold" lengthAdjust="spacing" textLength="9" x="1111.5" y="211.2988">5</text><text fill="#000000" font-family="sans-serif" font-size="13" lengthAdjust="spacing" textLength="33" x="1124.5" y="211.2988">find()</text><polygon fill="#181818" points="1115.5,241.3516,1105.5,245.3516,1115.5,249.3516,1111.5,245.3516" style="stroke:#181818;stroke-width:1.0;"/><line style="stroke:#181818;stroke-width:1.0;stroke-dasharray:2.0,2.0;" x1="1109.5" x2="1189.5" y1="245.3516" y2="245.3516"/><text fill="#000000" font-family="sans-serif" font-size="13" font-weight="bold" lengthAdjust="spacing" textLength="9" x="1121.5" y="240.6094">6</text><text fill="#000000" font-family="sans-serif" font-size="13" lengthAdjust="spacing" textLength="35" x="1134.5" y="240.6094">client</text><polygon fill="#181818" points="589,270.6621,579,274.6621,589,278.6621,585,274.6621" style="stroke:#181818;stroke-width:1.0;"/><line style="stroke:#181818;stroke-width:1.0;stroke-dasharray:2.0,2.0;" x1="583" x2="1098.5" y1="274.6621" y2="274.6621"/><text fill="#000000" font-family="sans-serif" font-size="13" font-weight="bold" lengthAdjust="spacing" textLength="9" x="595" y="269.9199">7</text><text fill="#000000" font-family="sans-serif" font-size="13" lengthAdjust="spacing" textLength="35" x="608" y="269.9199">client</text><path d="M3,289.6621 L65,289.6621 L65,296.9727 L55,306.9727 L3,306.9727 L3,289.6621 " fill="#EEEEEE" style="stroke:#000000;stroke-width:1.5;"/><rect fill="none" height="324.7266" style="stroke:#000000;stroke-width:1.5;" width="1053" x="3" y="289.6621"/><text fill="#000000" font-family="sans-serif" font-size="13" font-weight="bold" lengthAdjust="spacing" textLength="17" x="18" y="303.2305">alt</text><text fill="#000000" font-family="sans-serif" font-size="11" font-weight="bold" lengthAdjust="spacing" textLength="98" x="80" y="302.2969">[client not found]</text><polygon fill="#181818" points="437,324.2832,427,328.2832,437,332.2832,433,328.2832" style="stroke:#181818;stroke-width:1.0;"/><line style="stroke:#181818;stroke-width:1.0;stroke-dasharray:2.0,2.0;" x1="431" x2="567" y1="328.2832" y2="328.2832"/><text fill="#000000" font-family="sans-serif" font-size="13" font-weight="bold" lengthAdjust="spacing" textLength="9" x="443" y="323.541">8</text><text fill="#000000" font-family="sans-serif" font-size="13" lengthAdjust="spacing" textLength="30" x="456" y="323.541">error</text><polygon fill="#181818" points="247,353.5938,237,357.5938,247,361.5938,243,357.5938" style="stroke:#181818;stroke-width:1.0;"/><line style="stroke:#181818;stroke-width:1.0;stroke-dasharray:2.0,2.0;" x1="241" x2="415" y1="357.5938" y2="357.5938"/><text fill="#000000" font-family="sans-serif" font-size="13" font-weight="bold" lengthAdjust="spacing" textLength="9" x="253" y="352.8516">9</text><text fill="#000000" font-family="sans-serif" font-size="13" lengthAdjust="spacing" textLength="85" x="266" y="352.8516">response 404</text><polygon fill="#181818" points="11,382.9043,1,386.9043,11,390.9043,7,386.9043" style="stroke:#181818;stroke-width:1.0;"/><line style="stroke:#181818;stroke-width:1.0;stroke-dasharray:2.0,2.0;" x1="5" x2="225" y1="386.9043" y2="386.9043"/><text fill="#000000" font-family="sans-serif" font-size="13" font-weight="bold" lengthAdjust="spacing" textLength="18" x="17" y="382.1621">10</text><text fill="#000000" font-family="sans-serif" font-size="13" lengthAdjust="spacing" textLength="98" x="39" y="382.1621">404: Not Found</text><line style="stroke:#000000;stroke-width:1.0;stroke-dasharray:2.0,2.0;" x1="3" x2="1056" y1="395.9043" y2="395.9043"/><text fill="#000000" font-family="sans-serif" font-size="11" font-weight="bold" lengthAdjust="spacing" textLength="76" x="8" y="406.5391">[client found]</text><polygon fill="#181818" points="691,427.1699,701,431.1699,691,435.1699,695,431.1699" style="stroke:#181818;stroke-width:1.0;"/><line style="stroke:#181818;stroke-width:1.0;" x1="578" x2="697" y1="431.1699" y2="431.1699"/><text fill="#000000" font-family="sans-serif" font-size="13" font-weight="bold" lengthAdjust="spacing" textLength="18" x="585" y="426.4277">11</text><text fill="#000000" font-family="sans-serif" font-size="13" lengthAdjust="spacing" textLength="84" x="607" y="426.4277">toDTO(client)</text><polygon fill="#181818" points="828,456.4805,838,460.4805,828,464.4805,832,460.4805" style="stroke:#181818;stroke-width:1.0;"/><line style="stroke:#181818;stroke-width:1.0;stroke-dasharray:2.0,2.0;" x1="713" x2="834" y1="460.4805" y2="460.4805"/><text fill="#000000" font-family="sans-serif" font-size="13" font-weight="bold" lengthAdjust="spacing" textLength="18" x="720" y="455.7383">12</text><text fill="#000000" font-family="sans-serif" font-size="13" lengthAdjust="spacing" textLength="46" x="742" y="455.7383">create()</text><rect fill="#E2E2F0" height="46.9766" rx="2.5" ry="2.5" style="stroke:#181818;stroke-width:0.5;" width="206" x="840" y="439.1699"/><text fill="#000000" font-family="sans-serif" font-size="14" lengthAdjust="spacing" textLength="27" x="929.5" y="459.7051">dto:</text><text fill="#000000" font-family="sans-serif" font-size="14" lengthAdjust="spacing" textLength="192" x="847" y="476.1934">IClientWithoutPasswordDTO</text><polygon fill="#181818" points="589,514.457,579,518.457,589,522.457,585,518.457" style="stroke:#181818;stroke-width:1.0;"/><line style="stroke:#181818;stroke-width:1.0;stroke-dasharray:2.0,2.0;" x1="583" x2="707" y1="518.457" y2="518.457"/><text fill="#000000" font-family="sans-serif" font-size="13" font-weight="bold" lengthAdjust="spacing" textLength="18" x="595" y="513.7148">13</text><text fill="#000000" font-family="sans-serif" font-size="13" lengthAdjust="spacing" textLength="21" x="617" y="513.7148">dto</text><polygon fill="#181818" points="437,543.7676,427,547.7676,437,551.7676,433,547.7676" style="stroke:#181818;stroke-width:1.0;"/><line style="stroke:#181818;stroke-width:1.0;stroke-dasharray:2.0,2.0;" x1="431" x2="572" y1="547.7676" y2="547.7676"/><text fill="#000000" font-family="sans-serif" font-size="13" font-weight="bold" lengthAdjust="spacing" textLength="18" x="443" y="543.0254">14</text><text fill="#000000" font-family="sans-serif" font-size="13" lengthAdjust="spacing" textLength="21" x="465" y="543.0254">dto</text><polygon fill="#181818" points="247,573.0781,237,577.0781,247,581.0781,243,577.0781" style="stroke:#181818;stroke-width:1.0;"/><line style="stroke:#181818;stroke-width:1.0;stroke-dasharray:2.0,2.0;" x1="241" x2="420" y1="577.0781" y2="577.0781"/><text fill="#000000" font-family="sans-serif" font-size="13" font-weight="bold" lengthAdjust="spacing" textLength="18" x="253" y="572.3359">15</text><text fill="#000000" font-family="sans-serif" font-size="13" lengthAdjust="spacing" textLength="85" x="275" y="572.3359">response 200</text><polygon fill="#181818" points="11,602.3887,1,606.3887,11,610.3887,7,606.3887" style="stroke:#181818;stroke-width:1.0;"/><line style="stroke:#181818;stroke-width:1.0;stroke-dasharray:2.0,2.0;" x1="5" x2="230" y1="606.3887" y2="606.3887"/><text fill="#000000" font-family="sans-serif" font-size="13" font-weight="bold" lengthAdjust="spacing" textLength="18" x="17" y="601.6465">16</text><text fill="#000000" font-family="sans-serif" font-size="13" lengthAdjust="spacing" textLength="50" x="39" y="601.6465">200: OK</text><polygon fill="#181818" points="214,638.6992,224,642.6992,214,646.6992,218,642.6992" style="stroke:#181818;stroke-width:1.0;"/><line style="stroke:#181818;stroke-width:1.0;" x1="0" x2="220" y1="642.6992" y2="642.6992"/><text fill="#000000" font-family="sans-serif" font-size="13" font-weight="bold" lengthAdjust="spacing" textLength="18" x="7" y="637.957">17</text><text fill="#000000" font-family="sans-serif" font-size="13" lengthAdjust="spacing" textLength="153" x="29" y="637.957">PATCH (/clients/{email})</text><polygon fill="#181818" points="404,668.0098,414,672.0098,404,676.0098,408,672.0098" style="stroke:#181818;stroke-width:1.0;"/><line style="stroke:#181818;stroke-width:1.0;" x1="236" x2="410" y1="672.0098" y2="672.0098"/><text fill="#000000" font-family="sans-serif" font-size="13" font-weight="bold" lengthAdjust="spacing" textLength="18" x="243" y="667.2676">18</text><text fill="#000000" font-family="sans-serif" font-size="13" lengthAdjust="spacing" textLength="139" x="265" y="667.2676">patchClient(req,res,...)</text><polygon fill="#181818" points="828,697.3203,838,701.3203,828,705.3203,832,701.3203" style="stroke:#181818;stroke-width:1.0;"/><line style="stroke:#181818;stroke-width:1.0;" x1="426" x2="834" y1="701.3203" y2="701.3203"/><text fill="#000000" font-family="sans-serif" font-size="13" font-weight="bold" lengthAdjust="spacing" textLength="18" x="433" y="696.5781">19</text><text fill="#000000" font-family="sans-serif" font-size="13" lengthAdjust="spacing" textLength="101" x="455" y="696.5781">create(req.body)</text><rect fill="#E2E2F0" height="46.9766" rx="2.5" ry="2.5" style="stroke:#181818;stroke-width:0.5;" width="206" x="840" y="680.0098"/><text fill="#000000" font-family="sans-serif" font-size="14" lengthAdjust="spacing" textLength="27" x="929.5" y="700.5449">dto:</text><text fill="#000000" font-family="sans-serif" font-size="14" lengthAdjust="spacing" textLength="192" x="847" y="717.0332">IClientWithoutPasswordDTO</text><polygon fill="#181818" points="556,755.2969,566,759.2969,556,763.2969,560,759.2969" style="stroke:#181818;stroke-width:1.0;"/><line style="stroke:#181818;stroke-width:1.0;" x1="426" x2="562" y1="759.2969" y2="759.2969"/><text fill="#000000" font-family="sans-serif" font-size="13" font-weight="bold" lengthAdjust="spacing" textLength="18" x="433" y="754.5547">20</text><text fill="#000000" font-family="sans-serif" font-size="13" lengthAdjust="spacing" textLength="101" x="455" y="754.5547">patchClient(dto)</text><polygon fill="#181818" points="1082.5,784.6074,1092.5,788.6074,1082.5,792.6074,1086.5,788.6074" style="stroke:#181818;stroke-width:1.0;"/><line style="stroke:#181818;stroke-width:1.0;" x1="578" x2="1088.5" y1="788.6074" y2="788.6074"/><text fill="#000000" font-family="sans-serif" font-size="13" font-weight="bold" lengthAdjust="spacing" textLength="18" x="585" y="783.8652">21</text><text fill="#000000" font-family="sans-serif" font-size="13" lengthAdjust="spacing" textLength="67" x="607" y="783.8652">find(email)</text><polygon fill="#181818" points="1173.5,813.918,1183.5,817.918,1173.5,821.918,1177.5,817.918" style="stroke:#181818;stroke-width:1.0;"/><line style="stroke:#181818;stroke-width:1.0;" x1="1104.5" x2="1179.5" y1="817.918" y2="817.918"/><text fill="#000000" font-family="sans-serif" font-size="13" font-weight="bold" lengthAdjust="spacing" textLength="18" x="1111.5" y="813.1758">22</text><text fill="#000000" font-family="sans-serif" font-size="13" lengthAdjust="spacing" textLength="33" x="1133.5" y="813.1758">find()</text><polygon fill="#181818" points="1115.5,843.2285,1105.5,847.2285,1115.5,851.2285,1111.5,847.2285" style="stroke:#181818;stroke-width:1.0;"/><line style="stroke:#181818;stroke-width:1.0;stroke-dasharray:2.0,2.0;" x1="1109.5" x2="1189.5" y1="847.2285" y2="847.2285"/><text fill="#000000" font-family="sans-serif" font-size="13" font-weight="bold" lengthAdjust="spacing" textLength="18" x="1121.5" y="842.4863">23</text><text fill="#000000" font-family="sans-serif" font-size="13" lengthAdjust="spacing" textLength="35" x="1143.5" y="842.4863">client</text><polygon fill="#181818" points="589,872.5391,579,876.5391,589,880.5391,585,876.5391" style="stroke:#181818;stroke-width:1.0;"/><line style="stroke:#181818;stroke-width:1.0;stroke-dasharray:2.0,2.0;" x1="583" x2="1098.5" y1="876.5391" y2="876.5391"/><text fill="#000000" font-family="sans-serif" font-size="13" font-weight="bold" lengthAdjust="spacing" textLength="18" x="595" y="871.7969">24</text><text fill="#000000" font-family="sans-serif" font-size="13" lengthAdjust="spacing" textLength="35" x="617" y="871.7969">client</text><path d="M3,891.5391 L65,891.5391 L65,898.8496 L55,908.8496 L3,908.8496 L3,891.5391 " fill="#EEEEEE" style="stroke:#000000;stroke-width:1.5;"/><rect fill="none" height="413.3477" style="stroke:#000000;stroke-width:1.5;" width="1232" x="3" y="891.5391"/><text fill="#000000" font-family="sans-serif" font-size="13" font-weight="bold" lengthAdjust="spacing" textLength="17" x="18" y="905.1074">alt</text><text fill="#000000" font-family="sans-serif" font-size="11" font-weight="bold" lengthAdjust="spacing" textLength="129" x="80" y="904.1738">[bad client parameters]</text><polygon fill="#181818" points="437,926.1602,427,930.1602,437,934.1602,433,930.1602" style="stroke:#181818;stroke-width:1.0;"/><line style="stroke:#181818;stroke-width:1.0;stroke-dasharray:2.0,2.0;" x1="431" x2="567" y1="930.1602" y2="930.1602"/><text fill="#000000" font-family="sans-serif" font-size="13" font-weight="bold" lengthAdjust="spacing" textLength="18" x="443" y="925.418">25</text><text fill="#000000" font-family="sans-serif" font-size="13" lengthAdjust="spacing" textLength="30" x="465" y="925.418">error</text><polygon fill="#181818" points="247,955.4707,237,959.4707,247,963.4707,243,959.4707" style="stroke:#181818;stroke-width:1.0;"/><line style="stroke:#181818;stroke-width:1.0;stroke-dasharray:2.0,2.0;" x1="241" x2="415" y1="959.4707" y2="959.4707"/><text fill="#000000" font-family="sans-serif" font-size="13" font-weight="bold" lengthAdjust="spacing" textLength="18" x="253" y="954.7285">26</text><text fill="#000000" font-family="sans-serif" font-size="13" lengthAdjust="spacing" textLength="85" x="275" y="954.7285">response 422</text><polygon fill="#181818" points="11,984.7813,1,988.7813,11,992.7813,7,988.7813" style="stroke:#181818;stroke-width:1.0;"/><line style="stroke:#181818;stroke-width:1.0;stroke-dasharray:2.0,2.0;" x1="5" x2="225" y1="988.7813" y2="988.7813"/><text fill="#000000" font-family="sans-serif" font-size="13" font-weight="bold" lengthAdjust="spacing" textLength="18" x="17" y="984.0391">27</text><text fill="#000000" font-family="sans-serif" font-size="13" lengthAdjust="spacing" textLength="178" x="39" y="984.0391">422: Unprocessable Content</text><line style="stroke:#000000;stroke-width:1.0;stroke-dasharray:2.0,2.0;" x1="3" x2="1235" y1="997.7813" y2="997.7813"/><text fill="#000000" font-family="sans-serif" font-size="11" font-weight="bold" lengthAdjust="spacing" textLength="51" x="8" y="1008.416">[success]</text><polygon fill="#181818" points="1082.5,1029.0469,1092.5,1033.0469,1082.5,1037.0469,1086.5,1033.0469" style="stroke:#181818;stroke-width:1.0;"/><line style="stroke:#181818;stroke-width:1.0;" x1="578" x2="1088.5" y1="1033.0469" y2="1033.0469"/><text fill="#000000" font-family="sans-serif" font-size="13" font-weight="bold" lengthAdjust="spacing" textLength="18" x="585" y="1028.3047">28</text><text fill="#000000" font-family="sans-serif" font-size="13" lengthAdjust="spacing" textLength="71" x="607" y="1028.3047">save(client)</text><polygon fill="#181818" points="1173.5,1058.3574,1183.5,1062.3574,1173.5,1066.3574,1177.5,1062.3574" style="stroke:#181818;stroke-width:1.0;"/><line style="stroke:#181818;stroke-width:1.0;" x1="1104.5" x2="1179.5" y1="1062.3574" y2="1062.3574"/><text fill="#000000" font-family="sans-serif" font-size="13" font-weight="bold" lengthAdjust="spacing" textLength="18" x="1111.5" y="1057.6152">29</text><text fill="#000000" font-family="sans-serif" font-size="13" lengthAdjust="spacing" textLength="36" x="1133.5" y="1057.6152">save()</text><polygon fill="#181818" points="691,1117.668,701,1121.668,691,1125.668,695,1121.668" style="stroke:#181818;stroke-width:1.0;"/><line style="stroke:#181818;stroke-width:1.0;" x1="578" x2="697" y1="1121.668" y2="1121.668"/><text fill="#000000" font-family="sans-serif" font-size="13" font-weight="bold" lengthAdjust="spacing" textLength="18" x="585" y="1116.9258">30</text><text fill="#000000" font-family="sans-serif" font-size="13" lengthAdjust="spacing" textLength="84" x="607" y="1116.9258">toDTO(client)</text><polygon fill="#181818" points="828,1146.9785,838,1150.9785,828,1154.9785,832,1150.9785" style="stroke:#181818;stroke-width:1.0;"/><line style="stroke:#181818;stroke-width:1.0;stroke-dasharray:2.0,2.0;" x1="713" x2="834" y1="1150.9785" y2="1150.9785"/><text fill="#000000" font-family="sans-serif" font-size="13" font-weight="bold" lengthAdjust="spacing" textLength="18" x="720" y="1146.2363">31</text><text fill="#000000" font-family="sans-serif" font-size="13" lengthAdjust="spacing" textLength="81" x="742" y="1146.2363">create(client)</text><rect fill="#E2E2F0" height="46.9766" rx="2.5" ry="2.5" style="stroke:#181818;stroke-width:0.5;" width="206" x="840" y="1129.668"/><text fill="#000000" font-family="sans-serif" font-size="14" lengthAdjust="spacing" textLength="27" x="929.5" y="1150.2031">dto:</text><text fill="#000000" font-family="sans-serif" font-size="14" lengthAdjust="spacing" textLength="192" x="847" y="1166.6914">IClientWithoutPasswordDTO</text><polygon fill="#181818" points="589,1204.9551,579,1208.9551,589,1212.9551,585,1208.9551" style="stroke:#181818;stroke-width:1.0;"/><line style="stroke:#181818;stroke-width:1.0;stroke-dasharray:2.0,2.0;" x1="583" x2="707" y1="1208.9551" y2="1208.9551"/><text fill="#000000" font-family="sans-serif" font-size="13" font-weight="bold" lengthAdjust="spacing" textLength="18" x="595" y="1204.2129">32</text><text fill="#000000" font-family="sans-serif" font-size="13" lengthAdjust="spacing" textLength="21" x="617" y="1204.2129">dto</text><polygon fill="#181818" points="437,1234.2656,427,1238.2656,437,1242.2656,433,1238.2656" style="stroke:#181818;stroke-width:1.0;"/><line style="stroke:#181818;stroke-width:1.0;stroke-dasharray:2.0,2.0;" x1="431" x2="572" y1="1238.2656" y2="1238.2656"/><text fill="#000000" font-family="sans-serif" font-size="13" font-weight="bold" lengthAdjust="spacing" textLength="18" x="443" y="1233.5234">33</text><text fill="#000000" font-family="sans-serif" font-size="13" lengthAdjust="spacing" textLength="21" x="465" y="1233.5234">dto</text><polygon fill="#181818" points="247,1263.5762,237,1267.5762,247,1271.5762,243,1267.5762" style="stroke:#181818;stroke-width:1.0;"/><line style="stroke:#181818;stroke-width:1.0;stroke-dasharray:2.0,2.0;" x1="241" x2="420" y1="1267.5762" y2="1267.5762"/><text fill="#000000" font-family="sans-serif" font-size="13" font-weight="bold" lengthAdjust="spacing" textLength="18" x="253" y="1262.834">34</text><text fill="#000000" font-family="sans-serif" font-size="13" lengthAdjust="spacing" textLength="85" x="275" y="1262.834">response 200</text><polygon fill="#181818" points="11,1292.8867,1,1296.8867,11,1300.8867,7,1296.8867" style="stroke:#181818;stroke-width:1.0;"/><line style="stroke:#181818;stroke-width:1.0;stroke-dasharray:2.0,2.0;" x1="5" x2="230" y1="1296.8867" y2="1296.8867"/><text fill="#000000" font-family="sans-serif" font-size="13" font-weight="bold" lengthAdjust="spacing" textLength="18" x="17" y="1292.1445">35</text><text fill="#000000" font-family="sans-serif" font-size="13" lengthAdjust="spacing" textLength="50" x="39" y="1292.1445">200: OK</text><!--SRC=[xLV1Rjim3BtxAuHUt0HDMWGz1KE1BLstOLXRR1rsw811jfHMW6DvifAY6FRlewJOiMHPjdlOgRh4ZlWewl6HOV1MydoxIQY8egZ0GhAK5JYNwEWhtqfwX729XBsnuhaKFCkeqBkf59bjy8sA7KiDjjobZjylk2Zsq0qkx3qY-V9d_ccLCPhB7qm-GWotk2oVk22NTpVclE8NcBd1qeANJ7BnR2A6ruXWYHDSKdHqkN_IUoI9ellP1H9BzE7z7Je-JVLfvUaVki4i-pk9S2hP3aiA5qUm109hTKkqH0zKck2E1Vrz8cXvCf_F9zgiHcb2q7vf7E211mkkpvhKPZLOyOKQI-5Ki70XmAzPJboe1TSNHyxIO712aih5f6LJUm1wa6S1TdQ8mr3MCYGqvCQ4KNFXyT70wulWJExDKCubMlDjJjhi7B93XU32CZ3qgy1X6z9Ly1m4SNvsRbdTlvdDb05ylqJNSDALFebcOBi_l-Fi2wLXG4eEyZmsjXsfKM9tAL5W7R_MD9fEWHP1mJgKeNq1-B9K-JCC-wmQ57lyD7RTS1sgcyW6gYbVF_UBixF83QGg69s7fJ9PeflFKLCE4GNwgxgzVNkt-ZYoSWiiqyUNrQuXQZf5TNR0mJpXv7aITHHwypJ0lXPwVw4dc5J51gqTRwYaecpvxgtuGDKl5YtBkl8NYoNwdXU2fxGiSP9Hf7xcLDow2vJRL6q4CbRY7GqtWFwKQH_ZKXREXClp_-jVFbUlNSnqiHZPVIpPieom_04Q6ID_JzSPvmAUzISqjRWX8NZnDhOhPMltjTZ3kGenzfIArRQCBzsrOd_k53ynyfQcrS7UFQyueVNzrCl40xGr6liauMrjVijcFVWjscskYh03O1TPAC2QoO17joXZ7oMg8UvTD6OV_z7UdkWtxPw7_FOTar7RM7V9EkBUQ3qokTR_GYond21T0sQdDzy1zOnJq70LjPMa0mxfZWxpxCWfv7Q8dYfDQJ-zWXefgfS8QvIuQe6PyFj2X-i15UpXKIA-xcXMbcl2AcRAWgPipL8i6LoW1wV-KXB4SvJJ9_YW8Nje_3gkpkpO6LB3K6CA2iSnCbNX2IcC6p0l1JWuf33bGj1KZhoZFMnfJvCUtD3k49h7-b73kyMO7Z2ck0DJtJYUrCJKVuLgH7Ecla57sOJ98LdnJuNZcEu5E6FZg9eBUtT6op4_pMhG38uGdfdECuJ6RZDgV7DuCq_Mm1h_0m00]--></g></svg>