<?xml version="1.0" encoding="us-ascii" standalone="no"?><svg xmlns="http://www.w3.org/2000/svg" xmlns:xlink="http://www.w3.org/1999/xlink" contentStyleType="text/css" height="1527px" preserveAspectRatio="none" style="width:1241px;height:1527px;background:#FFFFFF;" version="1.1" viewBox="0 0 1241 1527" width="1241px" zoomAndPan="magnify"><defs/><g><rect fill="#FFFFFF" height="1322.6406" style="stroke:#181818;stroke-width:1.0;" width="10" x="48" y="91.4883"/><rect fill="#FFFFFF" height="593.5215" style="stroke:#181818;stroke-width:1.0;" width="10" x="272" y="112.7988"/><rect fill="#FFFFFF" height="678.498" style="stroke:#181818;stroke-width:1.0;" width="10" x="272" y="735.6309"/><rect fill="#FFFFFF" height="534.9004" style="stroke:#181818;stroke-width:1.0;" width="10" x="391" y="142.1094"/><rect fill="#FFFFFF" height="619.877" style="stroke:#181818;stroke-width:1.0;" width="10" x="391" y="764.9414"/><rect fill="#FFFFFF" height="425.6582" style="stroke:#181818;stroke-width:1.0;" width="10" x="543" y="222.041"/><rect fill="#FFFFFF" height="428.6582" style="stroke:#181818;stroke-width:1.0;" width="10" x="543" y="923.8496"/><rect fill="#FFFFFF" height="47.9766" style="stroke:#181818;stroke-width:1.0;" width="10" x="743" y="570.4121"/><rect fill="#FFFFFF" height="47.9766" style="stroke:#181818;stroke-width:1.0;" width="10" x="913" y="846.5625"/><rect fill="#FFFFFF" height="47.9766" style="stroke:#181818;stroke-width:1.0;" width="10" x="913" y="1272.2207"/><rect fill="#FFFFFF" height="279.75" style="stroke:#181818;stroke-width:1.0;" width="10" x="1027.5" y="251.3516"/><rect fill="#FFFFFF" height="279.75" style="stroke:#181818;stroke-width:1.0;" width="10" x="1027.5" y="953.1602"/><rect fill="none" height="1133.4668" style="stroke:#000000;stroke-width:1.5;" width="1215.5" x="10" y="295.6621"/><rect fill="none" height="424.6582" style="stroke:#000000;stroke-width:1.5;" width="1127.5" x="20" y="997.4707"/><line style="stroke:#181818;stroke-width:0.5;stroke-dasharray:5.0,5.0;" x1="53" x2="53" y1="81.4883" y2="1446.1289"/><line style="stroke:#181818;stroke-width:0.5;stroke-dasharray:5.0,5.0;" x1="277" x2="277" y1="81.4883" y2="1446.1289"/><line style="stroke:#181818;stroke-width:0.5;stroke-dasharray:5.0,5.0;" x1="396" x2="396" y1="81.4883" y2="1446.1289"/><line style="stroke:#181818;stroke-width:0.5;stroke-dasharray:5.0,5.0;" x1="548" x2="548" y1="81.4883" y2="1446.1289"/><line style="stroke:#181818;stroke-width:0.5;stroke-dasharray:5.0,5.0;" x1="748" x2="748" y1="578.0898" y2="1446.1289"/><line style="stroke:#181818;stroke-width:0.5;stroke-dasharray:5.0,5.0;" x1="918" x2="918" y1="1279.8984" y2="1446.1289"/><line style="stroke:#181818;stroke-width:0.5;stroke-dasharray:5.0,5.0;" x1="1032" x2="1032" y1="81.4883" y2="1446.1289"/><text fill="#000000" font-family="sans-serif" font-size="14" lengthAdjust="spacing" textLength="40" x="30" y="78.5352">Client</text><ellipse cx="53" cy="13.5" fill="#E2E2F0" rx="8" ry="8" style="stroke:#181818;stroke-width:0.5;"/><path d="M53,21.5 L53,48.5 M40,29.5 L66,29.5 M53,48.5 L40,63.5 M53,48.5 L66,63.5 " fill="none" style="stroke:#181818;stroke-width:0.5;"/><text fill="#000000" font-family="sans-serif" font-size="14" lengthAdjust="spacing" textLength="40" x="30" y="1458.6641">Client</text><ellipse cx="53" cy="1470.1172" fill="#E2E2F0" rx="8" ry="8" style="stroke:#181818;stroke-width:0.5;"/><path d="M53,1478.1172 L53,1505.1172 M40,1486.1172 L66,1486.1172 M53,1505.1172 L40,1520.1172 M53,1505.1172 L66,1520.1172 " fill="none" style="stroke:#181818;stroke-width:0.5;"/><rect fill="#E2E2F0" height="30.4883" rx="2.5" ry="2.5" style="stroke:#181818;stroke-width:0.5;" width="128" x="213" y="50"/><text fill="#000000" font-family="sans-serif" font-size="14" lengthAdjust="spacing" textLength="114" x="220" y="70.5352">HTML + CSS + JS</text><rect fill="#E2E2F0" height="30.4883" rx="2.5" ry="2.5" style="stroke:#181818;stroke-width:0.5;" width="128" x="213" y="1445.1289"/><text fill="#000000" font-family="sans-serif" font-size="14" lengthAdjust="spacing" textLength="114" x="220" y="1465.6641">HTML + CSS + JS</text><rect fill="#E2E2F0" height="30.4883" rx="2.5" ry="2.5" style="stroke:#181818;stroke-width:0.5;" width="84" x="354" y="50"/><text fill="#000000" font-family="sans-serif" font-size="14" lengthAdjust="spacing" textLength="70" x="361" y="70.5352">Controller</text><rect fill="#E2E2F0" height="30.4883" rx="2.5" ry="2.5" style="stroke:#181818;stroke-width:0.5;" width="84" x="354" y="1445.1289"/><text fill="#000000" font-family="sans-serif" font-size="14" lengthAdjust="spacing" textLength="70" x="361" y="1465.6641">Controller</text><rect fill="#E2E2F0" height="30.4883" rx="2.5" ry="2.5" style="stroke:#181818;stroke-width:0.5;" width="62" x="517" y="50"/><text fill="#000000" font-family="sans-serif" font-size="14" lengthAdjust="spacing" textLength="48" x="524" y="70.5352">Service</text><rect fill="#E2E2F0" height="30.4883" rx="2.5" ry="2.5" style="stroke:#181818;stroke-width:0.5;" width="62" x="517" y="1445.1289"/><text fill="#000000" font-family="sans-serif" font-size="14" lengthAdjust="spacing" textLength="48" x="524" y="1465.6641">Service</text><rect fill="#E2E2F0" height="46.9766" rx="2.5" ry="2.5" style="stroke:#181818;stroke-width:0.5;" width="206" x="645" y="1445.1289"/><text fill="#000000" font-family="sans-serif" font-size="14" lengthAdjust="spacing" textLength="27" x="734.5" y="1465.6641">dto:</text><text fill="#000000" font-family="sans-serif" font-size="14" lengthAdjust="spacing" textLength="192" x="652" y="1482.1523">IClientWithoutPasswordDTO</text><rect fill="#E2E2F0" height="46.9766" rx="2.5" ry="2.5" style="stroke:#181818;stroke-width:0.5;" width="114" x="861" y="1445.1289"/><text fill="#000000" font-family="sans-serif" font-size="14" lengthAdjust="spacing" textLength="27" x="904.5" y="1465.6641">dto:</text><text fill="#000000" font-family="sans-serif" font-size="14" lengthAdjust="spacing" textLength="100" x="868" y="1482.1523">IEditClientDTO</text><rect fill="#E2E2F0" height="30.4883" rx="2.5" ry="2.5" style="stroke:#181818;stroke-width:0.5;" width="95" x="985" y="50"/><text fill="#000000" font-family="sans-serif" font-size="14" lengthAdjust="spacing" textLength="81" x="992" y="70.5352">HTTP Driver</text><rect fill="#E2E2F0" height="30.4883" rx="2.5" ry="2.5" style="stroke:#181818;stroke-width:0.5;" width="95" x="985" y="1445.1289"/><text fill="#000000" font-family="sans-serif" font-size="14" lengthAdjust="spacing" textLength="81" x="992" y="1465.6641">HTTP Driver</text><rect fill="#FFFFFF" height="1322.6406" style="stroke:#181818;stroke-width:1.0;" width="10" x="48" y="91.4883"/><rect fill="#FFFFFF" height="593.5215" style="stroke:#181818;stroke-width:1.0;" width="10" x="272" y="112.7988"/><rect fill="#FFFFFF" height="678.498" style="stroke:#181818;stroke-width:1.0;" width="10" x="272" y="735.6309"/><rect fill="#FFFFFF" height="534.9004" style="stroke:#181818;stroke-width:1.0;" width="10" x="391" y="142.1094"/><rect fill="#FFFFFF" height="619.877" style="stroke:#181818;stroke-width:1.0;" width="10" x="391" y="764.9414"/><rect fill="#FFFFFF" height="425.6582" style="stroke:#181818;stroke-width:1.0;" width="10" x="543" y="222.041"/><rect fill="#FFFFFF" height="428.6582" style="stroke:#181818;stroke-width:1.0;" width="10" x="543" y="923.8496"/><rect fill="#FFFFFF" height="47.9766" style="stroke:#181818;stroke-width:1.0;" width="10" x="743" y="570.4121"/><rect fill="#FFFFFF" height="47.9766" style="stroke:#181818;stroke-width:1.0;" width="10" x="913" y="846.5625"/><rect fill="#FFFFFF" height="47.9766" style="stroke:#181818;stroke-width:1.0;" width="10" x="913" y="1272.2207"/><rect fill="#FFFFFF" height="279.75" style="stroke:#181818;stroke-width:1.0;" width="10" x="1027.5" y="251.3516"/><rect fill="#FFFFFF" height="279.75" style="stroke:#181818;stroke-width:1.0;" width="10" x="1027.5" y="953.1602"/><polygon fill="#181818" points="260,108.7988,270,112.7988,260,116.7988,264,112.7988" style="stroke:#181818;stroke-width:1.0;"/><line style="stroke:#181818;stroke-width:1.0;" x1="58" x2="266" y1="112.7988" y2="112.7988"/><text fill="#000000" font-family="sans-serif" font-size="13" font-weight="bold" lengthAdjust="spacing" textLength="9" x="65" y="108.0566">1</text><text fill="#000000" font-family="sans-serif" font-size="13" lengthAdjust="spacing" textLength="152" x="78" y="108.0566">wants to edit client data</text><polygon fill="#181818" points="379,138.1094,389,142.1094,379,146.1094,383,142.1094" style="stroke:#181818;stroke-width:1.0;"/><line style="stroke:#181818;stroke-width:1.0;" x1="282" x2="385" y1="142.1094" y2="142.1094"/><text fill="#000000" font-family="sans-serif" font-size="13" font-weight="bold" lengthAdjust="spacing" textLength="9" x="289" y="137.3672">2</text><text fill="#000000" font-family="sans-serif" font-size="13" lengthAdjust="spacing" textLength="63" x="302" y="137.3672">ngOnInit()</text><path d="M406,155.1094 L406,195.1094 L629,195.1094 L629,165.1094 L619,155.1094 L406,155.1094 " fill="#FEFFDD" style="stroke:#181818;stroke-width:0.5;"/><path d="M619,155.1094 L619,165.1094 L629,165.1094 L619,155.1094 " fill="#FEFFDD" style="stroke:#181818;stroke-width:0.5;"/><text fill="#000000" font-family="sans-serif" font-size="13" lengthAdjust="spacing" textLength="198" x="412" y="172.6777">client email should be retrieved</text><text fill="#000000" font-family="sans-serif" font-size="13" lengthAdjust="spacing" textLength="147" x="412" y="187.9883">from the active session</text><polygon fill="#181818" points="531,218.041,541,222.041,531,226.041,535,222.041" style="stroke:#181818;stroke-width:1.0;"/><line style="stroke:#181818;stroke-width:1.0;" x1="401" x2="537" y1="222.041" y2="222.041"/><text fill="#000000" font-family="sans-serif" font-size="13" font-weight="bold" lengthAdjust="spacing" textLength="9" x="408" y="217.2988">3</text><text fill="#000000" font-family="sans-serif" font-size="13" lengthAdjust="spacing" textLength="99" x="421" y="217.2988">getClient(email)</text><polygon fill="#181818" points="1015.5,247.3516,1025.5,251.3516,1015.5,255.3516,1019.5,251.3516" style="stroke:#181818;stroke-width:1.0;"/><line style="stroke:#181818;stroke-width:1.0;" x1="553" x2="1021.5" y1="251.3516" y2="251.3516"/><text fill="#000000" font-family="sans-serif" font-size="13" font-weight="bold" lengthAdjust="spacing" textLength="9" x="560" y="246.6094">4</text><text fill="#000000" font-family="sans-serif" font-size="13" lengthAdjust="spacing" textLength="65" x="573" y="246.6094">getClient()</text><polygon fill="#181818" points="1223.5,276.6621,1233.5,280.6621,1223.5,284.6621,1227.5,280.6621" style="stroke:#181818;stroke-width:1.0;"/><line style="stroke:#181818;stroke-width:1.0;" x1="1037.5" x2="1229.5" y1="280.6621" y2="280.6621"/><text fill="#000000" font-family="sans-serif" font-size="13" font-weight="bold" lengthAdjust="spacing" textLength="9" x="1044.5" y="275.9199">5</text><text fill="#000000" font-family="sans-serif" font-size="13" lengthAdjust="spacing" textLength="126" x="1057.5" y="275.9199">GET /clients/{email}</text><path d="M10,295.6621 L72,295.6621 L72,302.9727 L62,312.9727 L10,312.9727 L10,295.6621 " fill="#EEEEEE" style="stroke:#000000;stroke-width:1.5;"/><rect fill="none" height="1133.4668" style="stroke:#000000;stroke-width:1.5;" width="1215.5" x="10" y="295.6621"/><text fill="#000000" font-family="sans-serif" font-size="13" font-weight="bold" lengthAdjust="spacing" textLength="17" x="25" y="309.2305">alt</text><text fill="#000000" font-family="sans-serif" font-size="11" font-weight="bold" lengthAdjust="spacing" textLength="98" x="87" y="308.2969">[client not found]</text><polygon fill="#181818" points="1048.5,330.2832,1038.5,334.2832,1048.5,338.2832,1044.5,334.2832" style="stroke:#181818;stroke-width:1.0;"/><line style="stroke:#181818;stroke-width:1.0;stroke-dasharray:2.0,2.0;" x1="1042.5" x2="1234.5" y1="334.2832" y2="334.2832"/><text fill="#000000" font-family="sans-serif" font-size="13" font-weight="bold" lengthAdjust="spacing" textLength="9" x="1054.5" y="329.541">6</text><text fill="#000000" font-family="sans-serif" font-size="13" lengthAdjust="spacing" textLength="62" x="1067.5" y="329.541">404: error</text><polygon fill="#181818" points="564,359.5938,554,363.5938,564,367.5938,560,363.5938" style="stroke:#181818;stroke-width:1.0;"/><line style="stroke:#181818;stroke-width:1.0;stroke-dasharray:2.0,2.0;" x1="558" x2="1026.5" y1="363.5938" y2="363.5938"/><text fill="#000000" font-family="sans-serif" font-size="13" font-weight="bold" lengthAdjust="spacing" textLength="9" x="570" y="358.8516">7</text><text fill="#000000" font-family="sans-serif" font-size="13" lengthAdjust="spacing" textLength="68" x="583" y="358.8516">observable</text><polygon fill="#181818" points="412,391.9043,402,395.9043,412,399.9043,408,395.9043" style="stroke:#181818;stroke-width:1.0;"/><line style="stroke:#181818;stroke-width:1.0;stroke-dasharray:2.0,2.0;" x1="406" x2="542" y1="395.9043" y2="395.9043"/><text fill="#000000" font-family="sans-serif" font-size="13" font-weight="bold" lengthAdjust="spacing" textLength="9" x="418" y="391.1621">8</text><text fill="#000000" font-family="sans-serif" font-size="13" lengthAdjust="spacing" textLength="30" x="431" y="391.1621">error</text><path d="M140,376.5938 L140,401.5938 L386,401.5938 L386,386.5938 L376,376.5938 L140,376.5938 " fill="#FEFFDD" style="stroke:#181818;stroke-width:0.5;"/><path d="M376,376.5938 L376,386.5938 L386,386.5938 L376,376.5938 " fill="#FEFFDD" style="stroke:#181818;stroke-width:0.5;"/><text fill="#000000" font-family="sans-serif" font-size="13" lengthAdjust="spacing" textLength="225" x="146" y="394.1621">creates alert with the error message</text><polygon fill="#181818" points="293,424.2148,283,428.2148,293,432.2148,289,428.2148" style="stroke:#181818;stroke-width:1.0;"/><line style="stroke:#181818;stroke-width:1.0;stroke-dasharray:2.0,2.0;" x1="287" x2="390" y1="428.2148" y2="428.2148"/><text fill="#000000" font-family="sans-serif" font-size="13" font-weight="bold" lengthAdjust="spacing" textLength="9" x="299" y="423.4727">9</text><text fill="#000000" font-family="sans-serif" font-size="13" lengthAdjust="spacing" textLength="28" x="312" y="423.4727">alert</text><polygon fill="#181818" points="69,453.5254,59,457.5254,69,461.5254,65,457.5254" style="stroke:#181818;stroke-width:1.0;"/><line style="stroke:#181818;stroke-width:1.0;stroke-dasharray:2.0,2.0;" x1="63" x2="271" y1="457.5254" y2="457.5254"/><text fill="#000000" font-family="sans-serif" font-size="13" font-weight="bold" lengthAdjust="spacing" textLength="18" x="75" y="452.7832">10</text><text fill="#000000" font-family="sans-serif" font-size="13" lengthAdjust="spacing" textLength="83" x="97" y="452.7832">informs error</text><line style="stroke:#000000;stroke-width:1.0;stroke-dasharray:2.0,2.0;" x1="10" x2="1225.5" y1="466.5254" y2="466.5254"/><text fill="#000000" font-family="sans-serif" font-size="11" font-weight="bold" lengthAdjust="spacing" textLength="76" x="15" y="477.1602">[client found]</text><polygon fill="#181818" points="1048.5,497.791,1038.5,501.791,1048.5,505.791,1044.5,501.791" style="stroke:#181818;stroke-width:1.0;"/><line style="stroke:#181818;stroke-width:1.0;stroke-dasharray:2.0,2.0;" x1="1042.5" x2="1234.5" y1="501.791" y2="501.791"/><text fill="#000000" font-family="sans-serif" font-size="13" font-weight="bold" lengthAdjust="spacing" textLength="18" x="1054.5" y="497.0488">11</text><text fill="#000000" font-family="sans-serif" font-size="13" lengthAdjust="spacing" textLength="67" x="1076.5" y="497.0488">200: client</text><polygon fill="#181818" points="564,527.1016,554,531.1016,564,535.1016,560,531.1016" style="stroke:#181818;stroke-width:1.0;"/><line style="stroke:#181818;stroke-width:1.0;stroke-dasharray:2.0,2.0;" x1="558" x2="1031.5" y1="531.1016" y2="531.1016"/><text fill="#000000" font-family="sans-serif" font-size="13" font-weight="bold" lengthAdjust="spacing" textLength="18" x="570" y="526.3594">12</text><text fill="#000000" font-family="sans-serif" font-size="13" lengthAdjust="spacing" textLength="68" x="592" y="526.3594">observable</text><polygon fill="#181818" points="633,556.4121,643,560.4121,633,564.4121,637,560.4121" style="stroke:#181818;stroke-width:1.0;"/><line style="stroke:#181818;stroke-width:1.0;stroke-dasharray:2.0,2.0;" x1="553" x2="639" y1="560.4121" y2="560.4121"/><text fill="#000000" font-family="sans-serif" font-size="13" font-weight="bold" lengthAdjust="spacing" textLength="18" x="560" y="555.6699">13</text><text fill="#000000" font-family="sans-serif" font-size="13" lengthAdjust="spacing" textLength="46" x="582" y="555.6699">create()</text><rect fill="#E2E2F0" height="46.9766" rx="2.5" ry="2.5" style="stroke:#181818;stroke-width:0.5;" width="206" x="645" y="539.1016"/><text fill="#000000" font-family="sans-serif" font-size="14" lengthAdjust="spacing" textLength="27" x="734.5" y="559.6367">dto:</text><text fill="#000000" font-family="sans-serif" font-size="14" lengthAdjust="spacing" textLength="192" x="652" y="576.125">IClientWithoutPasswordDTO</text><polygon fill="#181818" points="564,614.3887,554,618.3887,564,622.3887,560,618.3887" style="stroke:#181818;stroke-width:1.0;"/><line style="stroke:#181818;stroke-width:1.0;stroke-dasharray:2.0,2.0;" x1="558" x2="747" y1="618.3887" y2="618.3887"/><text fill="#000000" font-family="sans-serif" font-size="13" font-weight="bold" lengthAdjust="spacing" textLength="18" x="570" y="613.6465">14</text><text fill="#000000" font-family="sans-serif" font-size="13" lengthAdjust="spacing" textLength="21" x="592" y="613.6465">dto</text><polygon fill="#181818" points="412,643.6992,402,647.6992,412,651.6992,408,647.6992" style="stroke:#181818;stroke-width:1.0;"/><line style="stroke:#181818;stroke-width:1.0;stroke-dasharray:2.0,2.0;" x1="406" x2="547" y1="647.6992" y2="647.6992"/><text fill="#000000" font-family="sans-serif" font-size="13" font-weight="bold" lengthAdjust="spacing" textLength="18" x="418" y="642.957">15</text><text fill="#000000" font-family="sans-serif" font-size="13" lengthAdjust="spacing" textLength="21" x="440" y="642.957">dto</text><polygon fill="#181818" points="293,673.0098,283,677.0098,293,681.0098,289,677.0098" style="stroke:#181818;stroke-width:1.0;"/><line style="stroke:#181818;stroke-width:1.0;stroke-dasharray:2.0,2.0;" x1="287" x2="395" y1="677.0098" y2="677.0098"/><text fill="#000000" font-family="sans-serif" font-size="13" font-weight="bold" lengthAdjust="spacing" textLength="18" x="299" y="672.2676">16</text><text fill="#000000" font-family="sans-serif" font-size="13" lengthAdjust="spacing" textLength="21" x="321" y="672.2676">dto</text><polygon fill="#181818" points="69,702.3203,59,706.3203,69,710.3203,65,706.3203" style="stroke:#181818;stroke-width:1.0;"/><line style="stroke:#181818;stroke-width:1.0;stroke-dasharray:2.0,2.0;" x1="63" x2="276" y1="706.3203" y2="706.3203"/><text fill="#000000" font-family="sans-serif" font-size="13" font-weight="bold" lengthAdjust="spacing" textLength="18" x="75" y="701.5781">17</text><text fill="#000000" font-family="sans-serif" font-size="13" lengthAdjust="spacing" textLength="85" x="97" y="701.5781">requests data</text><polygon fill="#181818" points="260,731.6309,270,735.6309,260,739.6309,264,735.6309" style="stroke:#181818;stroke-width:1.0;"/><line style="stroke:#181818;stroke-width:1.0;" x1="58" x2="266" y1="735.6309" y2="735.6309"/><text fill="#000000" font-family="sans-serif" font-size="13" font-weight="bold" lengthAdjust="spacing" textLength="18" x="65" y="730.8887">18</text><text fill="#000000" font-family="sans-serif" font-size="13" lengthAdjust="spacing" textLength="85" x="87" y="730.8887">provides data</text><polygon fill="#181818" points="379,760.9414,389,764.9414,379,768.9414,383,764.9414" style="stroke:#181818;stroke-width:1.0;"/><line style="stroke:#181818;stroke-width:1.0;" x1="282" x2="385" y1="764.9414" y2="764.9414"/><text fill="#000000" font-family="sans-serif" font-size="13" font-weight="bold" lengthAdjust="spacing" textLength="18" x="289" y="760.1992">19</text><text fill="#000000" font-family="sans-serif" font-size="13" lengthAdjust="spacing" textLength="68" x="311" y="760.1992">onSubmit()</text><line style="stroke:#181818;stroke-width:1.0;stroke-dasharray:2.0,2.0;" x1="401" x2="443" y1="794.252" y2="794.252"/><line style="stroke:#181818;stroke-width:1.0;stroke-dasharray:2.0,2.0;" x1="443" x2="443" y1="794.252" y2="807.252"/><line style="stroke:#181818;stroke-width:1.0;stroke-dasharray:2.0,2.0;" x1="402" x2="443" y1="807.252" y2="807.252"/><polygon fill="#181818" points="412,803.252,402,807.252,412,811.252,408,807.252" style="stroke:#181818;stroke-width:1.0;"/><text fill="#000000" font-family="sans-serif" font-size="13" font-weight="bold" lengthAdjust="spacing" textLength="18" x="408" y="789.5098">20</text><text fill="#000000" font-family="sans-serif" font-size="13" lengthAdjust="spacing" textLength="80" x="430" y="789.5098">patchClient()</text><polygon fill="#181818" points="849,832.5625,859,836.5625,849,840.5625,853,836.5625" style="stroke:#181818;stroke-width:1.0;"/><line style="stroke:#181818;stroke-width:1.0;stroke-dasharray:2.0,2.0;" x1="401" x2="855" y1="836.5625" y2="836.5625"/><text fill="#000000" font-family="sans-serif" font-size="13" font-weight="bold" lengthAdjust="spacing" textLength="18" x="408" y="831.8203">21</text><text fill="#000000" font-family="sans-serif" font-size="13" lengthAdjust="spacing" textLength="46" x="430" y="831.8203">create()</text><rect fill="#E2E2F0" height="46.9766" rx="2.5" ry="2.5" style="stroke:#181818;stroke-width:0.5;" width="114" x="861" y="815.252"/><text fill="#000000" font-family="sans-serif" font-size="14" lengthAdjust="spacing" textLength="27" x="904.5" y="835.7871">dto:</text><text fill="#000000" font-family="sans-serif" font-size="14" lengthAdjust="spacing" textLength="100" x="868" y="852.2754">IEditClientDTO</text><polygon fill="#181818" points="412,890.5391,402,894.5391,412,898.5391,408,894.5391" style="stroke:#181818;stroke-width:1.0;"/><line style="stroke:#181818;stroke-width:1.0;stroke-dasharray:2.0,2.0;" x1="406" x2="917" y1="894.5391" y2="894.5391"/><text fill="#000000" font-family="sans-serif" font-size="13" font-weight="bold" lengthAdjust="spacing" textLength="18" x="418" y="889.7969">22</text><text fill="#000000" font-family="sans-serif" font-size="13" lengthAdjust="spacing" textLength="21" x="440" y="889.7969">dto</text><polygon fill="#181818" points="531,919.8496,541,923.8496,531,927.8496,535,923.8496" style="stroke:#181818;stroke-width:1.0;"/><line style="stroke:#181818;stroke-width:1.0;" x1="401" x2="537" y1="923.8496" y2="923.8496"/><text fill="#000000" font-family="sans-serif" font-size="13" font-weight="bold" lengthAdjust="spacing" textLength="18" x="408" y="919.1074">23</text><text fill="#000000" font-family="sans-serif" font-size="13" lengthAdjust="spacing" textLength="101" x="430" y="919.1074">patchClient(dto)</text><polygon fill="#181818" points="1015.5,949.1602,1025.5,953.1602,1015.5,957.1602,1019.5,953.1602" style="stroke:#181818;stroke-width:1.0;"/><line style="stroke:#181818;stroke-width:1.0;" x1="553" x2="1021.5" y1="953.1602" y2="953.1602"/><text fill="#000000" font-family="sans-serif" font-size="13" font-weight="bold" lengthAdjust="spacing" textLength="18" x="560" y="948.418">24</text><text fill="#000000" font-family="sans-serif" font-size="13" lengthAdjust="spacing" textLength="80" x="582" y="948.418">patchClient()</text><polygon fill="#181818" points="1223.5,978.4707,1233.5,982.4707,1223.5,986.4707,1227.5,982.4707" style="stroke:#181818;stroke-width:1.0;"/><line style="stroke:#181818;stroke-width:1.0;" x1="1037.5" x2="1229.5" y1="982.4707" y2="982.4707"/><text fill="#000000" font-family="sans-serif" font-size="13" font-weight="bold" lengthAdjust="spacing" textLength="18" x="1044.5" y="977.7285">25</text><text fill="#000000" font-family="sans-serif" font-size="13" lengthAdjust="spacing" textLength="145" x="1066.5" y="977.7285">PATCH /clients/{email}</text><path d="M20,997.4707 L82,997.4707 L82,1004.7813 L72,1014.7813 L20,1014.7813 L20,997.4707 " fill="#EEEEEE" style="stroke:#000000;stroke-width:1.5;"/><rect fill="none" height="424.6582" style="stroke:#000000;stroke-width:1.5;" width="1127.5" x="20" y="997.4707"/><text fill="#000000" font-family="sans-serif" font-size="13" font-weight="bold" lengthAdjust="spacing" textLength="17" x="35" y="1011.0391">alt</text><text fill="#000000" font-family="sans-serif" font-size="11" font-weight="bold" lengthAdjust="spacing" textLength="129" x="97" y="1010.1055">[bad client parameters]</text><polygon fill="#181818" points="1048.5,1032.0918,1038.5,1036.0918,1048.5,1040.0918,1044.5,1036.0918" style="stroke:#181818;stroke-width:1.0;"/><line style="stroke:#181818;stroke-width:1.0;stroke-dasharray:2.0,2.0;" x1="1042.5" x2="1234.5" y1="1036.0918" y2="1036.0918"/><text fill="#000000" font-family="sans-serif" font-size="13" font-weight="bold" lengthAdjust="spacing" textLength="18" x="1054.5" y="1031.3496">26</text><text fill="#000000" font-family="sans-serif" font-size="13" lengthAdjust="spacing" textLength="62" x="1076.5" y="1031.3496">422: error</text><polygon fill="#181818" points="564,1061.4023,554,1065.4023,564,1069.4023,560,1065.4023" style="stroke:#181818;stroke-width:1.0;"/><line style="stroke:#181818;stroke-width:1.0;stroke-dasharray:2.0,2.0;" x1="558" x2="1026.5" y1="1065.4023" y2="1065.4023"/><text fill="#000000" font-family="sans-serif" font-size="13" font-weight="bold" lengthAdjust="spacing" textLength="18" x="570" y="1060.6602">27</text><text fill="#000000" font-family="sans-serif" font-size="13" lengthAdjust="spacing" textLength="68" x="592" y="1060.6602">observable</text><polygon fill="#181818" points="412,1093.7129,402,1097.7129,412,1101.7129,408,1097.7129" style="stroke:#181818;stroke-width:1.0;"/><line style="stroke:#181818;stroke-width:1.0;stroke-dasharray:2.0,2.0;" x1="406" x2="542" y1="1097.7129" y2="1097.7129"/><text fill="#000000" font-family="sans-serif" font-size="13" font-weight="bold" lengthAdjust="spacing" textLength="18" x="418" y="1092.9707">28</text><text fill="#000000" font-family="sans-serif" font-size="13" lengthAdjust="spacing" textLength="30" x="440" y="1092.9707">error</text><path d="M140,1078.4023 L140,1103.4023 L386,1103.4023 L386,1088.4023 L376,1078.4023 L140,1078.4023 " fill="#FEFFDD" style="stroke:#181818;stroke-width:0.5;"/><path d="M376,1078.4023 L376,1088.4023 L386,1088.4023 L376,1078.4023 " fill="#FEFFDD" style="stroke:#181818;stroke-width:0.5;"/><text fill="#000000" font-family="sans-serif" font-size="13" lengthAdjust="spacing" textLength="225" x="146" y="1095.9707">creates alert with the error message</text><polygon fill="#181818" points="293,1126.0234,283,1130.0234,293,1134.0234,289,1130.0234" style="stroke:#181818;stroke-width:1.0;"/><line style="stroke:#181818;stroke-width:1.0;stroke-dasharray:2.0,2.0;" x1="287" x2="390" y1="1130.0234" y2="1130.0234"/><text fill="#000000" font-family="sans-serif" font-size="13" font-weight="bold" lengthAdjust="spacing" textLength="18" x="299" y="1125.2813">29</text><text fill="#000000" font-family="sans-serif" font-size="13" lengthAdjust="spacing" textLength="28" x="321" y="1125.2813">alert</text><polygon fill="#181818" points="69,1155.334,59,1159.334,69,1163.334,65,1159.334" style="stroke:#181818;stroke-width:1.0;"/><line style="stroke:#181818;stroke-width:1.0;stroke-dasharray:2.0,2.0;" x1="63" x2="271" y1="1159.334" y2="1159.334"/><text fill="#000000" font-family="sans-serif" font-size="13" font-weight="bold" lengthAdjust="spacing" textLength="18" x="75" y="1154.5918">30</text><text fill="#000000" font-family="sans-serif" font-size="13" lengthAdjust="spacing" textLength="83" x="97" y="1154.5918">informs error</text><line style="stroke:#000000;stroke-width:1.0;stroke-dasharray:2.0,2.0;" x1="20" x2="1147.5" y1="1168.334" y2="1168.334"/><text fill="#000000" font-family="sans-serif" font-size="11" font-weight="bold" lengthAdjust="spacing" textLength="51" x="25" y="1178.9688">[success]</text><polygon fill="#181818" points="1048.5,1199.5996,1038.5,1203.5996,1048.5,1207.5996,1044.5,1203.5996" style="stroke:#181818;stroke-width:1.0;"/><line style="stroke:#181818;stroke-width:1.0;stroke-dasharray:2.0,2.0;" x1="1042.5" x2="1234.5" y1="1203.5996" y2="1203.5996"/><text fill="#000000" font-family="sans-serif" font-size="13" font-weight="bold" lengthAdjust="spacing" textLength="18" x="1054.5" y="1198.8574">31</text><text fill="#000000" font-family="sans-serif" font-size="13" lengthAdjust="spacing" textLength="67" x="1076.5" y="1198.8574">200: client</text><polygon fill="#181818" points="564,1228.9102,554,1232.9102,564,1236.9102,560,1232.9102" style="stroke:#181818;stroke-width:1.0;"/><line style="stroke:#181818;stroke-width:1.0;stroke-dasharray:2.0,2.0;" x1="558" x2="1031.5" y1="1232.9102" y2="1232.9102"/><text fill="#000000" font-family="sans-serif" font-size="13" font-weight="bold" lengthAdjust="spacing" textLength="18" x="570" y="1228.168">32</text><text fill="#000000" font-family="sans-serif" font-size="13" lengthAdjust="spacing" textLength="68" x="592" y="1228.168">observable</text><polygon fill="#181818" points="849,1258.2207,859,1262.2207,849,1266.2207,853,1262.2207" style="stroke:#181818;stroke-width:1.0;"/><line style="stroke:#181818;stroke-width:1.0;stroke-dasharray:2.0,2.0;" x1="553" x2="855" y1="1262.2207" y2="1262.2207"/><text fill="#000000" font-family="sans-serif" font-size="13" font-weight="bold" lengthAdjust="spacing" textLength="18" x="560" y="1257.4785">33</text><text fill="#000000" font-family="sans-serif" font-size="13" lengthAdjust="spacing" textLength="46" x="582" y="1257.4785">create()</text><rect fill="#E2E2F0" height="46.9766" rx="2.5" ry="2.5" style="stroke:#181818;stroke-width:0.5;" width="114" x="861" y="1240.9102"/><text fill="#000000" font-family="sans-serif" font-size="14" lengthAdjust="spacing" textLength="27" x="904.5" y="1261.4453">dto:</text><text fill="#000000" font-family="sans-serif" font-size="14" lengthAdjust="spacing" textLength="100" x="868" y="1277.9336">IEditClientDTO</text><polygon fill="#181818" points="564,1316.1973,554,1320.1973,564,1324.1973,560,1320.1973" style="stroke:#181818;stroke-width:1.0;"/><line style="stroke:#181818;stroke-width:1.0;stroke-dasharray:2.0,2.0;" x1="558" x2="917" y1="1320.1973" y2="1320.1973"/><text fill="#000000" font-family="sans-serif" font-size="13" font-weight="bold" lengthAdjust="spacing" textLength="18" x="570" y="1315.4551">34</text><text fill="#000000" font-family="sans-serif" font-size="13" lengthAdjust="spacing" textLength="21" x="592" y="1315.4551">dto</text><polygon fill="#181818" points="412,1348.5078,402,1352.5078,412,1356.5078,408,1352.5078" style="stroke:#181818;stroke-width:1.0;"/><line style="stroke:#181818;stroke-width:1.0;stroke-dasharray:2.0,2.0;" x1="406" x2="547" y1="1352.5078" y2="1352.5078"/><text fill="#000000" font-family="sans-serif" font-size="13" font-weight="bold" lengthAdjust="spacing" textLength="18" x="418" y="1347.7656">35</text><text fill="#000000" font-family="sans-serif" font-size="13" lengthAdjust="spacing" textLength="21" x="440" y="1347.7656">dto</text><path d="M130,1333.1973 L130,1358.1973 L386,1358.1973 L386,1343.1973 L376,1333.1973 L130,1333.1973 " fill="#FEFFDD" style="stroke:#181818;stroke-width:0.5;"/><path d="M376,1333.1973 L376,1343.1973 L386,1343.1973 L376,1333.1973 " fill="#FEFFDD" style="stroke:#181818;stroke-width:0.5;"/><text fill="#000000" font-family="sans-serif" font-size="13" lengthAdjust="spacing" textLength="235" x="136" y="1350.7656">creates alert with the dto information</text><polygon fill="#181818" points="293,1380.8184,283,1384.8184,293,1388.8184,289,1384.8184" style="stroke:#181818;stroke-width:1.0;"/><line style="stroke:#181818;stroke-width:1.0;stroke-dasharray:2.0,2.0;" x1="287" x2="395" y1="1384.8184" y2="1384.8184"/><text fill="#000000" font-family="sans-serif" font-size="13" font-weight="bold" lengthAdjust="spacing" textLength="18" x="299" y="1380.0762">36</text><text fill="#000000" font-family="sans-serif" font-size="13" lengthAdjust="spacing" textLength="28" x="321" y="1380.0762">alert</text><polygon fill="#181818" points="64,1410.1289,54,1414.1289,64,1418.1289,60,1414.1289" style="stroke:#181818;stroke-width:1.0;"/><line style="stroke:#181818;stroke-width:1.0;stroke-dasharray:2.0,2.0;" x1="58" x2="276" y1="1414.1289" y2="1414.1289"/><text fill="#000000" font-family="sans-serif" font-size="13" font-weight="bold" lengthAdjust="spacing" textLength="18" x="70" y="1409.3867">37</text><text fill="#000000" font-family="sans-serif" font-size="13" lengthAdjust="spacing" textLength="168" x="92" y="1409.3867">previews edited client data</text><!--SRC=[xLPHQzim47xlhpZwr7Q4bjAdC0eZBMl7HWi9xALbAFOb4TYI9vsTXx7_llFPLXrNRjFrOIyJ927oTvzEt-a-IvLaJPalqHqSg8IiWyDPfj7G8IWFfUVfGZdIYIwK8JYyMNpx2XzWDf_pzvUve2gDsrtKp1foDilG2I0XbmruvkWgdQ0yzbKoU9gIdJwOsoQJxvesjgHxvVtMklHgSTUG5ZyO5esxJZKriHqO4m4FzxAuXokdgpRD3L4XAkXA4ShcWGV_mkHITWbJs7Ae1xA0l0WaiWgaYfHWGx1e0ksGKAQeTM0AixupjqRJqN50X3YHgfirbcUSNcy8xAgBRfV4NEaCF2kJfR1a69BJM64A3sRbR0wqmOOMmQFtsfh0MmzXuvnOV2PTOolOaV0Uxq13SdMXO33gUAQfjTlXENw633IYCqI6a4mk7vdey_K2Jfkj-jDVajJl0vK5nLaQMDdIfED47oUJckdYx68Aw9nrBwmPXB1BpoTJBJECecMtJvKSfvNIPRYYkc8EUTiU5FS3mPQFinH7WY7dsgXrVBMcHazdJmYYoEQ4CR8-h5FGPcLTxjlyCFFOwRQVPkTdPzr1UwTeARvSzY2eTFF9IP3hfGFKjdvKCddKooq6x2KrGZMeyn3I8nZsnB1c_T3-klq-7rJFuSyIFRjCi9LUe1XBn9SAPokTed-Z5rapBvVv7bwqixSsk52KRABz7f2DyOxNDIpMEdJ_MJErPnqwXn_tk7ws3FrhZnlVzPjTxlxJOdOJzxcbIhkUvPUMof7G-TVDxlpylzbn4SiauQN-eS-DEifh3V5QKqIQOo-ZY_N7-vnkZwhN6JRbKHI_W8pLUq-hB1pMCrvkOvW-kuyDZRFtlxxU8RyB-VC7]--></g></svg>