<?xml version="1.0" encoding="us-ascii" standalone="no"?><svg xmlns="http://www.w3.org/2000/svg" xmlns:xlink="http://www.w3.org/1999/xlink" contentStyleType="text/css" height="411px" preserveAspectRatio="none" style="width:556px;height:411px;background:#FFFFFF;" version="1.1" viewBox="0 0 556 411" width="556px" zoomAndPan="magnify"><defs/><g><rect fill="#FFFFFF" height="217.0371" style="stroke:#181818;stroke-width:1.0;" width="10" x="49" y="93.6211"/><rect fill="#FFFFFF" height="31.291" style="stroke:#181818;stroke-width:1.0;" width="10" x="212" y="116.9121"/><rect fill="#FFFFFF" height="131.1641" style="stroke:#181818;stroke-width:1.0;" width="10" x="212" y="179.4941"/><rect fill="#FFFFFF" height="68.582" style="stroke:#181818;stroke-width:1.0;" width="10" x="356" y="210.7852"/><line style="stroke:#181818;stroke-width:0.5;stroke-dasharray:5.0,5.0;" x1="54" x2="54" y1="83.6211" y2="328.6582"/><line style="stroke:#181818;stroke-width:0.5;stroke-dasharray:5.0,5.0;" x1="217" x2="217" y1="83.6211" y2="328.6582"/><line style="stroke:#181818;stroke-width:0.5;stroke-dasharray:5.0,5.0;" x1="360.5" x2="360.5" y1="83.6211" y2="328.6582"/><text fill="#000000" font-family="sans-serif" font-size="14" lengthAdjust="spacing" textLength="92" x="5" y="80.1074">Fleet Manager</text><ellipse cx="54" cy="13.5" fill="#E2E2F0" rx="8" ry="8" style="stroke:#181818;stroke-width:0.5;"/><path d="M54,21.5 L54,48.5 M41,29.5 L67,29.5 M54,48.5 L41,63.5 M54,48.5 L67,63.5 " fill="none" style="stroke:#181818;stroke-width:0.5;"/><text fill="#000000" font-family="sans-serif" font-size="14" lengthAdjust="spacing" textLength="92" x="5" y="342.7656">Fleet Manager</text><ellipse cx="54" cy="354.7793" fill="#E2E2F0" rx="8" ry="8" style="stroke:#181818;stroke-width:0.5;"/><path d="M54,362.7793 L54,389.7793 M41,370.7793 L67,370.7793 M54,389.7793 L41,404.7793 M54,389.7793 L67,404.7793 " fill="none" style="stroke:#181818;stroke-width:0.5;"/><rect fill="#E2E2F0" height="32.6211" rx="2.5" ry="2.5" style="stroke:#181818;stroke-width:0.5;" width="62" x="186" y="50"/><text fill="#000000" font-family="sans-serif" font-size="14" lengthAdjust="spacing" textLength="48" x="193" y="72.1074">Fleet UI</text><rect fill="#E2E2F0" height="32.6211" rx="2.5" ry="2.5" style="stroke:#181818;stroke-width:0.5;" width="62" x="186" y="327.6582"/><text fill="#000000" font-family="sans-serif" font-size="14" lengthAdjust="spacing" textLength="48" x="193" y="349.7656">Fleet UI</text><rect fill="#E2E2F0" height="32.6211" rx="2.5" ry="2.5" style="stroke:#181818;stroke-width:0.5;" width="71" x="325.5" y="50"/><text fill="#000000" font-family="sans-serif" font-size="14" lengthAdjust="spacing" textLength="57" x="332.5" y="72.1074">Fleet MD</text><rect fill="#E2E2F0" height="32.6211" rx="2.5" ry="2.5" style="stroke:#181818;stroke-width:0.5;" width="71" x="325.5" y="327.6582"/><text fill="#000000" font-family="sans-serif" font-size="14" lengthAdjust="spacing" textLength="57" x="332.5" y="349.7656">Fleet MD</text><rect fill="#FFFFFF" height="217.0371" style="stroke:#181818;stroke-width:1.0;" width="10" x="49" y="93.6211"/><rect fill="#FFFFFF" height="31.291" style="stroke:#181818;stroke-width:1.0;" width="10" x="212" y="116.9121"/><rect fill="#FFFFFF" height="131.1641" style="stroke:#181818;stroke-width:1.0;" width="10" x="212" y="179.4941"/><rect fill="#FFFFFF" height="68.582" style="stroke:#181818;stroke-width:1.0;" width="10" x="356" y="210.7852"/><polygon fill="#181818" points="200,112.9121,210,116.9121,200,120.9121,204,116.9121" style="stroke:#181818;stroke-width:1.0;"/><line style="stroke:#181818;stroke-width:1.0;" x1="59" x2="206" y1="116.9121" y2="116.9121"/><text fill="#000000" font-family="sans-serif" font-size="13" font-weight="bold" lengthAdjust="spacing" textLength="7" x="66" y="111.6494">1</text><text fill="#000000" font-family="sans-serif" font-size="13" lengthAdjust="spacing" textLength="94" x="77" y="111.6494">create robottype</text><polygon fill="#181818" points="70,144.2031,60,148.2031,70,152.2031,66,148.2031" style="stroke:#181818;stroke-width:1.0;"/><line style="stroke:#181818;stroke-width:1.0;stroke-dasharray:2.0,2.0;" x1="64" x2="216" y1="148.2031" y2="148.2031"/><text fill="#000000" font-family="sans-serif" font-size="13" font-weight="bold" lengthAdjust="spacing" textLength="7" x="76" y="142.9404">2</text><text fill="#000000" font-family="sans-serif" font-size="13" lengthAdjust="spacing" textLength="72" x="87" y="142.9404">request data</text><polygon fill="#181818" points="200,175.4941,210,179.4941,200,183.4941,204,179.4941" style="stroke:#181818;stroke-width:1.0;"/><line style="stroke:#181818;stroke-width:1.0;" x1="59" x2="206" y1="179.4941" y2="179.4941"/><text fill="#000000" font-family="sans-serif" font-size="13" font-weight="bold" lengthAdjust="spacing" textLength="7" x="66" y="174.2314">3</text><text fill="#000000" font-family="sans-serif" font-size="13" lengthAdjust="spacing" textLength="76" x="77" y="174.2314">provides data</text><polygon fill="#181818" points="344,206.7852,354,210.7852,344,214.7852,348,210.7852" style="stroke:#181818;stroke-width:1.0;"/><line style="stroke:#181818;stroke-width:1.0;" x1="222" x2="350" y1="210.7852" y2="210.7852"/><text fill="#000000" font-family="sans-serif" font-size="13" font-weight="bold" lengthAdjust="spacing" textLength="7" x="229" y="205.5225">4</text><text fill="#000000" font-family="sans-serif" font-size="13" lengthAdjust="spacing" textLength="104" x="240" y="205.5225">POST /robottypes</text><path d="M371,223.7852 L371,250.7852 L549,250.7852 L549,233.7852 L539,223.7852 L371,223.7852 " fill="#FEFFDD" style="stroke:#181818;stroke-width:0.5;"/><path d="M539,223.7852 L539,233.7852 L549,233.7852 L539,223.7852 " fill="#FEFFDD" style="stroke:#181818;stroke-width:0.5;"/><text fill="#000000" font-family="sans-serif" font-size="13" lengthAdjust="spacing" textLength="157" x="377" y="242.8135">see US 350 documentation</text><polygon fill="#181818" points="233,275.3672,223,279.3672,233,283.3672,229,279.3672" style="stroke:#181818;stroke-width:1.0;"/><line style="stroke:#181818;stroke-width:1.0;stroke-dasharray:2.0,2.0;" x1="227" x2="360" y1="279.3672" y2="279.3672"/><text fill="#000000" font-family="sans-serif" font-size="13" font-weight="bold" lengthAdjust="spacing" textLength="7" x="239" y="274.1045">5</text><text fill="#000000" font-family="sans-serif" font-size="13" lengthAdjust="spacing" textLength="79" x="250" y="274.1045">error/success</text><polygon fill="#181818" points="65,306.6582,55,310.6582,65,314.6582,61,310.6582" style="stroke:#181818;stroke-width:1.0;"/><line style="stroke:#181818;stroke-width:1.0;stroke-dasharray:2.0,2.0;" x1="59" x2="216" y1="310.6582" y2="310.6582"/><text fill="#000000" font-family="sans-serif" font-size="13" font-weight="bold" lengthAdjust="spacing" textLength="7" x="71" y="305.3955">6</text><text fill="#000000" font-family="sans-serif" font-size="13" lengthAdjust="spacing" textLength="118" x="82" y="305.3955">inform error/success</text><!--SRC=[TP71QiCm38RlUGhHIqwXWx5B3zqb37O86RHz0DLMEu_4pcIviBUVuj8qPPakHkZ_z4io9Wa-zKVYea0ZWM7rrX49DEZnJBm2Z92YLWTaSSODwEMcERnVowueodrRjnims7NW1BvI52YRkdnTufewSxtDdkw2Gja3DFI5QgizGRinZIKEno3oCr0Mt0cNymmvg4P8sGqmVITIUuk2MM5fplnn6JXSdALu1_wpsEh82doqkpsifwbYCOacK5U3MVWmhk7EdmBXT6qIYU2mW-UN9x31f9wyeBZW7pXLLhSnYJdmEYPZACP9DTjjFEVYGPm_1UuN6ZmUPfxfP_m2]--></g></svg>