<?xml version="1.0" encoding="us-ascii" standalone="no"?><svg xmlns="http://www.w3.org/2000/svg" xmlns:xlink="http://www.w3.org/1999/xlink" contentStyleType="text/css" height="1334.4px" preserveAspectRatio="none" style="width:1128px;height:1334px;background:#FFFFFF;" version="1.1" viewBox="0 0 1128 1334" width="1128px" zoomAndPan="magnify"><defs/><g><rect fill="#FFFFFF" height="1167.5094" style="stroke:#181818;stroke-width:0.8000000000000002;" width="8" x="67.2" y="74.8969"/><rect fill="#FFFFFF" height="561.9219" style="stroke:#181818;stroke-width:0.8000000000000002;" width="8" x="264.8" y="93.5297"/><rect fill="#FFFFFF" height="561.9219" style="stroke:#181818;stroke-width:0.8000000000000002;" width="8" x="264.8" y="680.4844"/><rect fill="#FFFFFF" height="511.8563" style="stroke:#181818;stroke-width:0.8000000000000002;" width="8" x="414.4" y="118.5625"/><rect fill="#FFFFFF" height="511.8563" style="stroke:#181818;stroke-width:0.8000000000000002;" width="8" x="414.4" y="705.5172"/><rect fill="#FFFFFF" height="426.3578" style="stroke:#181818;stroke-width:0.8000000000000002;" width="8" x="547.2" y="143.5953"/><rect fill="#FFFFFF" height="426.3578" style="stroke:#181818;stroke-width:0.8000000000000002;" width="8" x="640" y="730.55"/><rect fill="#FFFFFF" height="41.7938" style="stroke:#181818;stroke-width:0.8000000000000002;" width="8" x="723.2" y="497.5266"/><rect fill="#FFFFFF" height="41.7938" style="stroke:#181818;stroke-width:0.8000000000000002;" width="8" x="821.6" y="1084.4813"/><rect fill="#FFFFFF" height="274.8328" style="stroke:#181818;stroke-width:0.8000000000000002;" width="8" x="919.2" y="168.6281"/><rect fill="#FFFFFF" height="274.8328" style="stroke:#181818;stroke-width:0.8000000000000002;" width="8" x="919.2" y="755.5828"/><rect fill="none" height="1043.9453" style="stroke:#000000;stroke-width:1.2000000000000002;" width="1107.2" x="8" y="210.4609"/><rect fill="none" height="90.2594" style="stroke:#000000;stroke-width:1.2000000000000002;" width="274" x="498.8" y="455.4609"/><rect fill="none" height="451.3906" style="stroke:#000000;stroke-width:1.2000000000000002;" width="1031.2" x="16" y="797.4156"/><rect fill="none" height="90.2594" style="stroke:#000000;stroke-width:1.2000000000000002;" width="288" x="598.4" y="1042.4156"/><line style="stroke:#181818;stroke-width:0.4000000000000001;stroke-dasharray:5.0,5.0;" x1="71.2" x2="71.2" y1="66.8969" y2="1268.0063"/><line style="stroke:#181818;stroke-width:0.4000000000000001;stroke-dasharray:5.0,5.0;" x1="268.8" x2="268.8" y1="66.8969" y2="1268.0063"/><line style="stroke:#181818;stroke-width:0.4000000000000001;stroke-dasharray:5.0,5.0;" x1="418.4" x2="418.4" y1="66.8969" y2="1268.0063"/><line style="stroke:#181818;stroke-width:0.4000000000000001;stroke-dasharray:5.0,5.0;" x1="550.8" x2="550.8" y1="66.8969" y2="1268.0063"/><line style="stroke:#181818;stroke-width:0.4000000000000001;stroke-dasharray:5.0,5.0;" x1="644" x2="644" y1="66.8969" y2="1268.0063"/><line style="stroke:#181818;stroke-width:0.4000000000000001;stroke-dasharray:5.0,5.0;" x1="727.2" x2="727.2" y1="503.7906" y2="1268.0063"/><line style="stroke:#181818;stroke-width:0.4000000000000001;stroke-dasharray:5.0,5.0;" x1="825.6" x2="825.6" y1="1090.7453" y2="1268.0063"/><line style="stroke:#181818;stroke-width:0.4000000000000001;stroke-dasharray:5.0,5.0;" x1="923.2" x2="923.2" y1="66.8969" y2="1268.0063"/><text fill="#000000" font-family="sans-serif" font-size="11.2" lengthAdjust="spacing" textLength="89.6" x="24" y="64.0859">Campus Manager</text><ellipse cx="71.2" cy="10.8" fill="#E2E2F0" rx="6.4" ry="6.4" style="stroke:#181818;stroke-width:0.4000000000000001;"/><path d="M71.2,17.2 L71.2,38.8 M60.8,23.6 L81.6,23.6 M71.2,38.8 L60.8,50.8 M71.2,38.8 L81.6,50.8 " fill="none" style="stroke:#181818;stroke-width:0.4000000000000001;"/><text fill="#000000" font-family="sans-serif" font-size="11.2" lengthAdjust="spacing" textLength="89.6" x="24" y="1279.2922">Campus Manager</text><ellipse cx="71.2" cy="1288.9031" fill="#E2E2F0" rx="6.4" ry="6.4" style="stroke:#181818;stroke-width:0.4000000000000001;"/><path d="M71.2,1295.3031 L71.2,1316.9031 M60.8,1301.7031 L81.6,1301.7031 M71.2,1316.9031 L60.8,1328.9031 M71.2,1316.9031 L81.6,1328.9031 " fill="none" style="stroke:#181818;stroke-width:0.4000000000000001;"/><rect fill="#E2E2F0" height="26.0969" rx="2" ry="2" style="stroke:#181818;stroke-width:0.4000000000000001;" width="100.8" x="218.4" y="40"/><text fill="#000000" font-family="sans-serif" font-size="11.2" lengthAdjust="spacing" textLength="89.6" x="224" y="57.6859">HTML + CSS + JS</text><rect fill="#E2E2F0" height="26.0969" rx="2" ry="2" style="stroke:#181818;stroke-width:0.4000000000000001;" width="100.8" x="218.4" y="1267.2063"/><text fill="#000000" font-family="sans-serif" font-size="11.2" lengthAdjust="spacing" textLength="89.6" x="224" y="1284.8922">HTML + CSS + JS</text><rect fill="#E2E2F0" height="26.0969" rx="2" ry="2" style="stroke:#181818;stroke-width:0.4000000000000001;" width="60.8" x="388" y="40"/><text fill="#000000" font-family="sans-serif" font-size="11.2" lengthAdjust="spacing" textLength="49.6" x="393.6" y="57.6859">Controller</text><rect fill="#E2E2F0" height="26.0969" rx="2" ry="2" style="stroke:#181818;stroke-width:0.4000000000000001;" width="60.8" x="388" y="1267.2063"/><text fill="#000000" font-family="sans-serif" font-size="11.2" lengthAdjust="spacing" textLength="49.6" x="393.6" y="1284.8922">Controller</text><rect fill="#E2E2F0" height="26.0969" rx="2" ry="2" style="stroke:#181818;stroke-width:0.4000000000000001;" width="88.8" x="506.8" y="40"/><text fill="#000000" font-family="sans-serif" font-size="11.2" lengthAdjust="spacing" textLength="77.6" x="512.4" y="57.6859">BuildingService</text><rect fill="#E2E2F0" height="26.0969" rx="2" ry="2" style="stroke:#181818;stroke-width:0.4000000000000001;" width="88.8" x="506.8" y="1267.2063"/><text fill="#000000" font-family="sans-serif" font-size="11.2" lengthAdjust="spacing" textLength="77.6" x="512.4" y="1284.8922">BuildingService</text><rect fill="#E2E2F0" height="26.0969" rx="2" ry="2" style="stroke:#181818;stroke-width:0.4000000000000001;" width="75.2" x="606.4" y="40"/><text fill="#000000" font-family="sans-serif" font-size="11.2" lengthAdjust="spacing" textLength="64" x="612" y="57.6859">FloorService</text><rect fill="#E2E2F0" height="26.0969" rx="2" ry="2" style="stroke:#181818;stroke-width:0.4000000000000001;" width="75.2" x="606.4" y="1267.2063"/><text fill="#000000" font-family="sans-serif" font-size="11.2" lengthAdjust="spacing" textLength="64" x="612" y="1284.8922">FloorService</text><rect fill="#E2E2F0" height="40.9938" rx="2" ry="2" style="stroke:#181818;stroke-width:0.4000000000000001;" width="75.2" x="689.6" y="1267.2063"/><text fill="#000000" font-family="sans-serif" font-size="11.2" lengthAdjust="spacing" textLength="19.2" x="717.6" y="1284.8922">dto:</text><text fill="#000000" font-family="sans-serif" font-size="11.2" lengthAdjust="spacing" textLength="64" x="695.2" y="1299.7891">BuildingDTO</text><rect fill="#E2E2F0" height="40.9938" rx="2" ry="2" style="stroke:#181818;stroke-width:0.4000000000000001;" width="105.6" x="772.8" y="1267.2063"/><text fill="#000000" font-family="sans-serif" font-size="11.2" lengthAdjust="spacing" textLength="19.2" x="816" y="1284.8922">dto:</text><text fill="#000000" font-family="sans-serif" font-size="11.2" lengthAdjust="spacing" textLength="94.4" x="778.4" y="1299.7891">FloorPassageDTO</text><rect fill="#E2E2F0" height="26.0969" rx="2" ry="2" style="stroke:#181818;stroke-width:0.4000000000000001;" width="73.6" x="886.4" y="40"/><text fill="#000000" font-family="sans-serif" font-size="11.2" lengthAdjust="spacing" textLength="62.4" x="892" y="57.6859">HTTP Driver</text><rect fill="#E2E2F0" height="26.0969" rx="2" ry="2" style="stroke:#181818;stroke-width:0.4000000000000001;" width="73.6" x="886.4" y="1267.2063"/><text fill="#000000" font-family="sans-serif" font-size="11.2" lengthAdjust="spacing" textLength="62.4" x="892" y="1284.8922">HTTP Driver</text><rect fill="#FFFFFF" height="1167.5094" style="stroke:#181818;stroke-width:0.8000000000000002;" width="8" x="67.2" y="74.8969"/><rect fill="#FFFFFF" height="561.9219" style="stroke:#181818;stroke-width:0.8000000000000002;" width="8" x="264.8" y="93.5297"/><rect fill="#FFFFFF" height="561.9219" style="stroke:#181818;stroke-width:0.8000000000000002;" width="8" x="264.8" y="680.4844"/><rect fill="#FFFFFF" height="511.8563" style="stroke:#181818;stroke-width:0.8000000000000002;" width="8" x="414.4" y="118.5625"/><rect fill="#FFFFFF" height="511.8563" style="stroke:#181818;stroke-width:0.8000000000000002;" width="8" x="414.4" y="705.5172"/><rect fill="#FFFFFF" height="426.3578" style="stroke:#181818;stroke-width:0.8000000000000002;" width="8" x="547.2" y="143.5953"/><rect fill="#FFFFFF" height="426.3578" style="stroke:#181818;stroke-width:0.8000000000000002;" width="8" x="640" y="730.55"/><rect fill="#FFFFFF" height="41.7938" style="stroke:#181818;stroke-width:0.8000000000000002;" width="8" x="723.2" y="497.5266"/><rect fill="#FFFFFF" height="41.7938" style="stroke:#181818;stroke-width:0.8000000000000002;" width="8" x="821.6" y="1084.4813"/><rect fill="#FFFFFF" height="274.8328" style="stroke:#181818;stroke-width:0.8000000000000002;" width="8" x="919.2" y="168.6281"/><rect fill="#FFFFFF" height="274.8328" style="stroke:#181818;stroke-width:0.8000000000000002;" width="8" x="919.2" y="755.5828"/><polygon fill="#181818" points="255.2,90.3297,263.2,93.5297,255.2,96.7297,258.4,93.5297" style="stroke:#181818;stroke-width:0.8000000000000002;"/><line style="stroke:#181818;stroke-width:0.8000000000000002;" x1="75.2" x2="260" y1="93.5297" y2="93.5297"/><text fill="#000000" font-family="sans-serif" font-size="10.4" font-weight="bold" lengthAdjust="spacing" textLength="5.6" x="80.8" y="89.3195">1</text><text fill="#000000" font-family="sans-serif" font-size="10.4" lengthAdjust="spacing" textLength="149.6" x="89.6" y="89.3195">list building floors with passages</text><polygon fill="#181818" points="404.8,115.3625,412.8,118.5625,404.8,121.7625,408,118.5625" style="stroke:#181818;stroke-width:0.8000000000000002;"/><line style="stroke:#181818;stroke-width:0.8000000000000002;" x1="272.8" x2="409.6" y1="118.5625" y2="118.5625"/><text fill="#000000" font-family="sans-serif" font-size="10.4" font-weight="bold" lengthAdjust="spacing" textLength="5.6" x="278.4" y="114.3523">2</text><text fill="#000000" font-family="sans-serif" font-size="10.4" lengthAdjust="spacing" textLength="44.8" x="287.2" y="114.3523">ngOnInit()</text><polygon fill="#181818" points="537.6,140.3953,545.6,143.5953,537.6,146.7953,540.8,143.5953" style="stroke:#181818;stroke-width:0.8000000000000002;"/><line style="stroke:#181818;stroke-width:0.8000000000000002;" x1="422.4" x2="542.4" y1="143.5953" y2="143.5953"/><text fill="#000000" font-family="sans-serif" font-size="10.4" font-weight="bold" lengthAdjust="spacing" textLength="5.6" x="428" y="139.3852">3</text><text fill="#000000" font-family="sans-serif" font-size="10.4" lengthAdjust="spacing" textLength="63.2" x="436.8" y="139.3852">getBuildings()</text><polygon fill="#181818" points="909.6,165.4281,917.6,168.6281,909.6,171.8281,912.8,168.6281" style="stroke:#181818;stroke-width:0.8000000000000002;"/><line style="stroke:#181818;stroke-width:0.8000000000000002;" x1="555.2" x2="914.4" y1="168.6281" y2="168.6281"/><text fill="#000000" font-family="sans-serif" font-size="10.4" font-weight="bold" lengthAdjust="spacing" textLength="5.6" x="560.8" y="164.418">4</text><text fill="#000000" font-family="sans-serif" font-size="10.4" lengthAdjust="spacing" textLength="106.4" x="569.6" y="164.418">get({baseUrl}/buildings)</text><polygon fill="#181818" points="1113.6,192.8609,1121.6,196.0609,1113.6,199.2609,1116.8,196.0609" style="stroke:#181818;stroke-width:0.8000000000000002;"/><line style="stroke:#181818;stroke-width:0.8000000000000002;" x1="927.2" x2="1118.4" y1="196.0609" y2="196.0609"/><text fill="#000000" font-family="sans-serif" font-size="10.4" font-weight="bold" lengthAdjust="spacing" textLength="5.6" x="932.8" y="191.8508">5</text><text fill="#000000" font-family="sans-serif" font-size="10.4" lengthAdjust="spacing" textLength="68" x="941.6" y="191.8508">GET /buildings</text><path d="M779.2,179.0281 L779.2,200.6281 L915.2,200.6281 L915.2,187.0281 L907.2,179.0281 L779.2,179.0281 " fill="#FEFFDD" style="stroke:#181818;stroke-width:0.4000000000000001;"/><path d="M907.2,179.0281 L907.2,187.0281 L915.2,187.0281 L907.2,179.0281 " fill="#FEFFDD" style="stroke:#181818;stroke-width:0.4000000000000001;"/><text fill="#000000" font-family="sans-serif" font-size="10.4" lengthAdjust="spacing" textLength="119.2" x="784" y="194.2508">see us170 documentation</text><path d="M8,210.4609 L56.8,210.4609 L56.8,217.8938 L48.8,225.8938 L8,225.8938 L8,210.4609 " fill="#EEEEEE" style="stroke:#000000;stroke-width:1.2000000000000002;"/><rect fill="none" height="1043.9453" style="stroke:#000000;stroke-width:1.2000000000000002;" width="1107.2" x="8" y="210.4609"/><text fill="#000000" font-family="sans-serif" font-size="10.4" font-weight="bold" lengthAdjust="spacing" textLength="12.8" x="20" y="222.4836">alt</text><text fill="#000000" font-family="sans-serif" font-size="8.8" font-weight="bold" lengthAdjust="spacing" textLength="98.4" x="68.8" y="221.557">[building(s) not found]</text><polygon fill="#181818" points="936,241.3266,928,244.5266,936,247.7266,932.8,244.5266" style="stroke:#181818;stroke-width:0.8000000000000002;"/><line style="stroke:#181818;stroke-width:0.8000000000000002;stroke-dasharray:2.0,2.0;" x1="931.2" x2="1122.4" y1="244.5266" y2="244.5266"/><text fill="#000000" font-family="sans-serif" font-size="10.4" font-weight="bold" lengthAdjust="spacing" textLength="5.6" x="940.8" y="240.3164">6</text><text fill="#000000" font-family="sans-serif" font-size="10.4" lengthAdjust="spacing" textLength="44" x="949.6" y="240.3164">404: error</text><polygon fill="#181818" points="564,266.3594,556,269.5594,564,272.7594,560.8,269.5594" style="stroke:#181818;stroke-width:0.8000000000000002;"/><line style="stroke:#181818;stroke-width:0.8000000000000002;stroke-dasharray:2.0,2.0;" x1="559.2" x2="918.4" y1="269.5594" y2="269.5594"/><text fill="#000000" font-family="sans-serif" font-size="10.4" font-weight="bold" lengthAdjust="spacing" textLength="5.6" x="568.8" y="265.3492">7</text><text fill="#000000" font-family="sans-serif" font-size="10.4" lengthAdjust="spacing" textLength="48.8" x="577.6" y="265.3492">observable</text><polygon fill="#181818" points="431.2,291.3922,423.2,294.5922,431.2,297.7922,428,294.5922" style="stroke:#181818;stroke-width:0.8000000000000002;"/><line style="stroke:#181818;stroke-width:0.8000000000000002;stroke-dasharray:2.0,2.0;" x1="426.4" x2="546.4" y1="294.5922" y2="294.5922"/><text fill="#000000" font-family="sans-serif" font-size="10.4" font-weight="bold" lengthAdjust="spacing" textLength="5.6" x="436" y="290.382">8</text><text fill="#000000" font-family="sans-serif" font-size="10.4" lengthAdjust="spacing" textLength="20.8" x="444.8" y="290.382">error</text><line style="stroke:#181818;stroke-width:0.8000000000000002;stroke-dasharray:2.0,2.0;" x1="422.4" x2="456" y1="319.625" y2="319.625"/><line style="stroke:#181818;stroke-width:0.8000000000000002;stroke-dasharray:2.0,2.0;" x1="456" x2="456" y1="319.625" y2="330.025"/><line style="stroke:#181818;stroke-width:0.8000000000000002;stroke-dasharray:2.0,2.0;" x1="423.2" x2="456" y1="330.025" y2="330.025"/><polygon fill="#181818" points="431.2,326.825,423.2,330.025,431.2,333.225,428,330.025" style="stroke:#181818;stroke-width:0.8000000000000002;"/><text fill="#000000" font-family="sans-serif" font-size="10.4" font-weight="bold" lengthAdjust="spacing" textLength="5.6" x="428" y="315.4148">9</text><text fill="#000000" font-family="sans-serif" font-size="10.4" lengthAdjust="spacing" textLength="60" x="436.8" y="315.4148">buildings = []</text><path d="M227.2,307.7922 L227.2,329.3922 L410.4,329.3922 L410.4,315.7922 L402.4,307.7922 L227.2,307.7922 " fill="#FEFFDD" style="stroke:#181818;stroke-width:0.4000000000000001;"/><path d="M402.4,307.7922 L402.4,315.7922 L410.4,315.7922 L402.4,307.7922 " fill="#FEFFDD" style="stroke:#181818;stroke-width:0.4000000000000001;"/><text fill="#000000" font-family="sans-serif" font-size="10.4" lengthAdjust="spacing" textLength="166.4" x="232" y="323.0148">creates alert with the error message</text><polygon fill="#181818" points="281.6,351.8578,273.6,355.0578,281.6,358.2578,278.4,355.0578" style="stroke:#181818;stroke-width:0.8000000000000002;"/><line style="stroke:#181818;stroke-width:0.8000000000000002;stroke-dasharray:2.0,2.0;" x1="276.8" x2="413.6" y1="355.0578" y2="355.0578"/><text fill="#000000" font-family="sans-serif" font-size="10.4" font-weight="bold" lengthAdjust="spacing" textLength="11.2" x="286.4" y="350.8477">10</text><text fill="#000000" font-family="sans-serif" font-size="10.4" lengthAdjust="spacing" textLength="40.8" x="300.8" y="350.8477">buildings</text><polygon fill="#181818" points="84,376.8906,76,380.0906,84,383.2906,80.8,380.0906" style="stroke:#181818;stroke-width:0.8000000000000002;"/><line style="stroke:#181818;stroke-width:0.8000000000000002;stroke-dasharray:2.0,2.0;" x1="79.2" x2="264" y1="380.0906" y2="380.0906"/><text fill="#000000" font-family="sans-serif" font-size="10.4" font-weight="bold" lengthAdjust="spacing" textLength="11.2" x="88.8" y="375.8805">11</text><text fill="#000000" font-family="sans-serif" font-size="10.4" lengthAdjust="spacing" textLength="99.2" x="103.2" y="375.8805">does not list anything</text><line style="stroke:#000000;stroke-width:0.8000000000000002;stroke-dasharray:2.0,2.0;" x1="8" x2="1115.2" y1="387.2906" y2="387.2906"/><text fill="#000000" font-family="sans-serif" font-size="8.8" font-weight="bold" lengthAdjust="spacing" textLength="81.6" x="12" y="396.7867">[building(s) found]</text><polygon fill="#181818" points="936,415.2281,928,418.4281,936,421.6281,932.8,418.4281" style="stroke:#181818;stroke-width:0.8000000000000002;"/><line style="stroke:#181818;stroke-width:0.8000000000000002;stroke-dasharray:2.0,2.0;" x1="931.2" x2="1122.4" y1="418.4281" y2="418.4281"/><text fill="#000000" font-family="sans-serif" font-size="10.4" font-weight="bold" lengthAdjust="spacing" textLength="11.2" x="940.8" y="414.218">12</text><text fill="#000000" font-family="sans-serif" font-size="10.4" lengthAdjust="spacing" textLength="64" x="955.2" y="414.218">200: buildings</text><polygon fill="#181818" points="564,440.2609,556,443.4609,564,446.6609,560.8,443.4609" style="stroke:#181818;stroke-width:0.8000000000000002;"/><line style="stroke:#181818;stroke-width:0.8000000000000002;stroke-dasharray:2.0,2.0;" x1="559.2" x2="922.4" y1="443.4609" y2="443.4609"/><text fill="#000000" font-family="sans-serif" font-size="10.4" font-weight="bold" lengthAdjust="spacing" textLength="11.2" x="568.8" y="439.2508">13</text><text fill="#000000" font-family="sans-serif" font-size="10.4" lengthAdjust="spacing" textLength="48.8" x="583.2" y="439.2508">observable</text><path d="M498.8,455.4609 L557.2,455.4609 L557.2,462.8938 L549.2,470.8938 L498.8,470.8938 L498.8,455.4609 " fill="#EEEEEE" style="stroke:#000000;stroke-width:1.2000000000000002;"/><rect fill="none" height="90.2594" style="stroke:#000000;stroke-width:1.2000000000000002;" width="274" x="498.8" y="455.4609"/><text fill="#000000" font-family="sans-serif" font-size="10.4" font-weight="bold" lengthAdjust="spacing" textLength="22.4" x="510.8" y="467.4836">loop</text><text fill="#000000" font-family="sans-serif" font-size="8.8" font-weight="bold" lengthAdjust="spacing" textLength="80" x="569.2" y="466.557">[for each building]</text><polygon fill="#181818" points="680,486.3266,688,489.5266,680,492.7266,683.2,489.5266" style="stroke:#181818;stroke-width:0.8000000000000002;"/><line style="stroke:#181818;stroke-width:0.8000000000000002;stroke-dasharray:2.0,2.0;" x1="555.2" x2="684.8" y1="489.5266" y2="489.5266"/><text fill="#000000" font-family="sans-serif" font-size="10.4" font-weight="bold" lengthAdjust="spacing" textLength="11.2" x="560.8" y="485.3164">14</text><text fill="#000000" font-family="sans-serif" font-size="10.4" lengthAdjust="spacing" textLength="35.2" x="575.2" y="485.3164">create()</text><rect fill="#E2E2F0" height="40.9938" rx="2" ry="2" style="stroke:#181818;stroke-width:0.4000000000000001;" width="75.2" x="689.6" y="470.8938"/><text fill="#000000" font-family="sans-serif" font-size="11.2" lengthAdjust="spacing" textLength="19.2" x="717.6" y="488.5797">dto:</text><text fill="#000000" font-family="sans-serif" font-size="11.2" lengthAdjust="spacing" textLength="64" x="695.2" y="503.4766">BuildingDTO</text><polygon fill="#181818" points="564,536.1203,556,539.3203,564,542.5203,560.8,539.3203" style="stroke:#181818;stroke-width:0.8000000000000002;"/><line style="stroke:#181818;stroke-width:0.8000000000000002;stroke-dasharray:2.0,2.0;" x1="559.2" x2="726.4" y1="539.3203" y2="539.3203"/><text fill="#000000" font-family="sans-serif" font-size="10.4" font-weight="bold" lengthAdjust="spacing" textLength="11.2" x="568.8" y="535.1102">15</text><text fill="#000000" font-family="sans-serif" font-size="10.4" lengthAdjust="spacing" textLength="14.4" x="583.2" y="535.1102">dto</text><polygon fill="#181818" points="431.2,566.7531,423.2,569.9531,431.2,573.1531,428,569.9531" style="stroke:#181818;stroke-width:0.8000000000000002;"/><line style="stroke:#181818;stroke-width:0.8000000000000002;stroke-dasharray:2.0,2.0;" x1="426.4" x2="550.4" y1="569.9531" y2="569.9531"/><text fill="#000000" font-family="sans-serif" font-size="10.4" font-weight="bold" lengthAdjust="spacing" textLength="11.2" x="436" y="565.743">16</text><text fill="#000000" font-family="sans-serif" font-size="10.4" lengthAdjust="spacing" textLength="20.8" x="450.4" y="565.743">dto[]</text><line style="stroke:#181818;stroke-width:0.8000000000000002;stroke-dasharray:2.0,2.0;" x1="422.4" x2="456" y1="594.9859" y2="594.9859"/><line style="stroke:#181818;stroke-width:0.8000000000000002;stroke-dasharray:2.0,2.0;" x1="456" x2="456" y1="594.9859" y2="605.3859"/><line style="stroke:#181818;stroke-width:0.8000000000000002;stroke-dasharray:2.0,2.0;" x1="423.2" x2="456" y1="605.3859" y2="605.3859"/><polygon fill="#181818" points="431.2,602.1859,423.2,605.3859,431.2,608.5859,428,605.3859" style="stroke:#181818;stroke-width:0.8000000000000002;"/><text fill="#000000" font-family="sans-serif" font-size="10.4" font-weight="bold" lengthAdjust="spacing" textLength="11.2" x="428" y="590.7758">17</text><text fill="#000000" font-family="sans-serif" font-size="10.4" lengthAdjust="spacing" textLength="74.4" x="442.4" y="590.7758">buildings = dto[]</text><polygon fill="#181818" points="281.6,627.2188,273.6,630.4188,281.6,633.6188,278.4,630.4188" style="stroke:#181818;stroke-width:0.8000000000000002;"/><line style="stroke:#181818;stroke-width:0.8000000000000002;stroke-dasharray:2.0,2.0;" x1="276.8" x2="417.6" y1="630.4188" y2="630.4188"/><text fill="#000000" font-family="sans-serif" font-size="10.4" font-weight="bold" lengthAdjust="spacing" textLength="11.2" x="286.4" y="626.2086">18</text><text fill="#000000" font-family="sans-serif" font-size="10.4" lengthAdjust="spacing" textLength="38.4" x="300.8" y="626.2086">buldings</text><polygon fill="#181818" points="84,652.2516,76,655.4516,84,658.6516,80.8,655.4516" style="stroke:#181818;stroke-width:0.8000000000000002;"/><line style="stroke:#181818;stroke-width:0.8000000000000002;stroke-dasharray:2.0,2.0;" x1="79.2" x2="268" y1="655.4516" y2="655.4516"/><text fill="#000000" font-family="sans-serif" font-size="10.4" font-weight="bold" lengthAdjust="spacing" textLength="11.2" x="88.8" y="651.2414">19</text><text fill="#000000" font-family="sans-serif" font-size="10.4" lengthAdjust="spacing" textLength="156" x="103.2" y="651.2414">shows buildings and requests two</text><polygon fill="#181818" points="255.2,677.2844,263.2,680.4844,255.2,683.6844,258.4,680.4844" style="stroke:#181818;stroke-width:0.8000000000000002;"/><line style="stroke:#181818;stroke-width:0.8000000000000002;" x1="75.2" x2="260" y1="680.4844" y2="680.4844"/><text fill="#000000" font-family="sans-serif" font-size="10.4" font-weight="bold" lengthAdjust="spacing" textLength="11.2" x="80.8" y="676.2742">20</text><text fill="#000000" font-family="sans-serif" font-size="10.4" lengthAdjust="spacing" textLength="77.6" x="95.2" y="676.2742">chooses building</text><polygon fill="#181818" points="404.8,702.3172,412.8,705.5172,404.8,708.7172,408,705.5172" style="stroke:#181818;stroke-width:0.8000000000000002;"/><line style="stroke:#181818;stroke-width:0.8000000000000002;" x1="272.8" x2="409.6" y1="705.5172" y2="705.5172"/><text fill="#000000" font-family="sans-serif" font-size="10.4" font-weight="bold" lengthAdjust="spacing" textLength="11.2" x="278.4" y="701.307">21</text><text fill="#000000" font-family="sans-serif" font-size="10.4" lengthAdjust="spacing" textLength="112" x="292.8" y="701.307">getFloorsWithPassage()</text><polygon fill="#181818" points="630.4,727.35,638.4,730.55,630.4,733.75,633.6,730.55" style="stroke:#181818;stroke-width:0.8000000000000002;"/><line style="stroke:#181818;stroke-width:0.8000000000000002;" x1="422.4" x2="635.2" y1="730.55" y2="730.55"/><text fill="#000000" font-family="sans-serif" font-size="10.4" font-weight="bold" lengthAdjust="spacing" textLength="11.2" x="428" y="726.3398">22</text><text fill="#000000" font-family="sans-serif" font-size="10.4" lengthAdjust="spacing" textLength="188" x="442.4" y="726.3398">getFloorsWithPassage(selectedBuilding)</text><polygon fill="#181818" points="909.6,752.3828,917.6,755.5828,909.6,758.7828,912.8,755.5828" style="stroke:#181818;stroke-width:0.8000000000000002;"/><line style="stroke:#181818;stroke-width:0.8000000000000002;" x1="648" x2="914.4" y1="755.5828" y2="755.5828"/><text fill="#000000" font-family="sans-serif" font-size="10.4" font-weight="bold" lengthAdjust="spacing" textLength="11.2" x="653.6" y="751.3727">23</text><text fill="#000000" font-family="sans-serif" font-size="10.4" lengthAdjust="spacing" textLength="208.8" x="668" y="751.3727">get({baseUrl}/buildings/${buildingCode}/floors)</text><polygon fill="#181818" points="1113.6,779.8156,1121.6,783.0156,1113.6,786.2156,1116.8,783.0156" style="stroke:#181818;stroke-width:0.8000000000000002;"/><line style="stroke:#181818;stroke-width:0.8000000000000002;" x1="927.2" x2="1118.4" y1="783.0156" y2="783.0156"/><text fill="#000000" font-family="sans-serif" font-size="10.4" font-weight="bold" lengthAdjust="spacing" textLength="11.2" x="932.8" y="778.8055">24</text><text fill="#000000" font-family="sans-serif" font-size="10.4" lengthAdjust="spacing" textLength="158.4" x="947.2" y="778.8055">GET buildings/{id}/floors/passages</text><path d="M779.2,765.9828 L779.2,787.5828 L915.2,787.5828 L915.2,773.9828 L907.2,765.9828 L779.2,765.9828 " fill="#FEFFDD" style="stroke:#181818;stroke-width:0.4000000000000001;"/><path d="M907.2,765.9828 L907.2,773.9828 L915.2,773.9828 L907.2,765.9828 " fill="#FEFFDD" style="stroke:#181818;stroke-width:0.4000000000000001;"/><text fill="#000000" font-family="sans-serif" font-size="10.4" lengthAdjust="spacing" textLength="119.2" x="784" y="781.2055">see us260 documentation</text><path d="M16,797.4156 L64.8,797.4156 L64.8,804.8484 L56.8,812.8484 L16,812.8484 L16,797.4156 " fill="#EEEEEE" style="stroke:#000000;stroke-width:1.2000000000000002;"/><rect fill="none" height="451.3906" style="stroke:#000000;stroke-width:1.2000000000000002;" width="1031.2" x="16" y="797.4156"/><text fill="#000000" font-family="sans-serif" font-size="10.4" font-weight="bold" lengthAdjust="spacing" textLength="12.8" x="28" y="809.4383">alt</text><text fill="#000000" font-family="sans-serif" font-size="8.8" font-weight="bold" lengthAdjust="spacing" textLength="157.6" x="76.8" y="808.5117">[floor(s) with passage(s) not found]</text><polygon fill="#181818" points="936,828.2813,928,831.4813,936,834.6813,932.8,831.4813" style="stroke:#181818;stroke-width:0.8000000000000002;"/><line style="stroke:#181818;stroke-width:0.8000000000000002;stroke-dasharray:2.0,2.0;" x1="931.2" x2="1122.4" y1="831.4813" y2="831.4813"/><text fill="#000000" font-family="sans-serif" font-size="10.4" font-weight="bold" lengthAdjust="spacing" textLength="11.2" x="940.8" y="827.2711">25</text><text fill="#000000" font-family="sans-serif" font-size="10.4" lengthAdjust="spacing" textLength="44" x="955.2" y="827.2711">404: error</text><polygon fill="#181818" points="656.8,853.3141,648.8,856.5141,656.8,859.7141,653.6,856.5141" style="stroke:#181818;stroke-width:0.8000000000000002;"/><line style="stroke:#181818;stroke-width:0.8000000000000002;stroke-dasharray:2.0,2.0;" x1="652" x2="918.4" y1="856.5141" y2="856.5141"/><text fill="#000000" font-family="sans-serif" font-size="10.4" font-weight="bold" lengthAdjust="spacing" textLength="11.2" x="661.6" y="852.3039">26</text><text fill="#000000" font-family="sans-serif" font-size="10.4" lengthAdjust="spacing" textLength="48.8" x="676" y="852.3039">observable</text><polygon fill="#181818" points="431.2,878.3469,423.2,881.5469,431.2,884.7469,428,881.5469" style="stroke:#181818;stroke-width:0.8000000000000002;"/><line style="stroke:#181818;stroke-width:0.8000000000000002;stroke-dasharray:2.0,2.0;" x1="426.4" x2="639.2" y1="881.5469" y2="881.5469"/><text fill="#000000" font-family="sans-serif" font-size="10.4" font-weight="bold" lengthAdjust="spacing" textLength="11.2" x="436" y="877.3367">27</text><text fill="#000000" font-family="sans-serif" font-size="10.4" lengthAdjust="spacing" textLength="20.8" x="450.4" y="877.3367">error</text><line style="stroke:#181818;stroke-width:0.8000000000000002;stroke-dasharray:2.0,2.0;" x1="422.4" x2="456" y1="906.5797" y2="906.5797"/><line style="stroke:#181818;stroke-width:0.8000000000000002;stroke-dasharray:2.0,2.0;" x1="456" x2="456" y1="906.5797" y2="916.9797"/><line style="stroke:#181818;stroke-width:0.8000000000000002;stroke-dasharray:2.0,2.0;" x1="423.2" x2="456" y1="916.9797" y2="916.9797"/><polygon fill="#181818" points="431.2,913.7797,423.2,916.9797,431.2,920.1797,428,916.9797" style="stroke:#181818;stroke-width:0.8000000000000002;"/><text fill="#000000" font-family="sans-serif" font-size="10.4" font-weight="bold" lengthAdjust="spacing" textLength="11.2" x="428" y="902.3695">28</text><text fill="#000000" font-family="sans-serif" font-size="10.4" lengthAdjust="spacing" textLength="84.8" x="442.4" y="902.3695">floorPassages = []</text><path d="M227.2,894.7469 L227.2,916.3469 L410.4,916.3469 L410.4,902.7469 L402.4,894.7469 L227.2,894.7469 " fill="#FEFFDD" style="stroke:#181818;stroke-width:0.4000000000000001;"/><path d="M402.4,894.7469 L402.4,902.7469 L410.4,902.7469 L402.4,894.7469 " fill="#FEFFDD" style="stroke:#181818;stroke-width:0.4000000000000001;"/><text fill="#000000" font-family="sans-serif" font-size="10.4" lengthAdjust="spacing" textLength="166.4" x="232" y="909.9695">creates alert with the error message</text><polygon fill="#181818" points="281.6,938.8125,273.6,942.0125,281.6,945.2125,278.4,942.0125" style="stroke:#181818;stroke-width:0.8000000000000002;"/><line style="stroke:#181818;stroke-width:0.8000000000000002;stroke-dasharray:2.0,2.0;" x1="276.8" x2="413.6" y1="942.0125" y2="942.0125"/><text fill="#000000" font-family="sans-serif" font-size="10.4" font-weight="bold" lengthAdjust="spacing" textLength="11.2" x="286.4" y="937.8023">29</text><text fill="#000000" font-family="sans-serif" font-size="10.4" lengthAdjust="spacing" textLength="65.6" x="300.8" y="937.8023">floorPassages</text><polygon fill="#181818" points="84,963.8453,76,967.0453,84,970.2453,80.8,967.0453" style="stroke:#181818;stroke-width:0.8000000000000002;"/><line style="stroke:#181818;stroke-width:0.8000000000000002;stroke-dasharray:2.0,2.0;" x1="79.2" x2="264" y1="967.0453" y2="967.0453"/><text fill="#000000" font-family="sans-serif" font-size="10.4" font-weight="bold" lengthAdjust="spacing" textLength="11.2" x="88.8" y="962.8352">30</text><text fill="#000000" font-family="sans-serif" font-size="10.4" lengthAdjust="spacing" textLength="99.2" x="103.2" y="962.8352">does not list anything</text><line style="stroke:#000000;stroke-width:0.8000000000000002;stroke-dasharray:2.0,2.0;" x1="16" x2="1047.2" y1="974.2453" y2="974.2453"/><text fill="#000000" font-family="sans-serif" font-size="8.8" font-weight="bold" lengthAdjust="spacing" textLength="140.8" x="20" y="983.7414">[floor(s) with passage(s) found]</text><polygon fill="#181818" points="936,1002.1828,928,1005.3828,936,1008.5828,932.8,1005.3828" style="stroke:#181818;stroke-width:0.8000000000000002;"/><line style="stroke:#181818;stroke-width:0.8000000000000002;stroke-dasharray:2.0,2.0;" x1="931.2" x2="1122.4" y1="1005.3828" y2="1005.3828"/><text fill="#000000" font-family="sans-serif" font-size="10.4" font-weight="bold" lengthAdjust="spacing" textLength="11.2" x="940.8" y="1001.1727">31</text><text fill="#000000" font-family="sans-serif" font-size="10.4" lengthAdjust="spacing" textLength="88.8" x="955.2" y="1001.1727">200: floorPassages</text><polygon fill="#181818" points="656.8,1027.2156,648.8,1030.4156,656.8,1033.6156,653.6,1030.4156" style="stroke:#181818;stroke-width:0.8000000000000002;"/><line style="stroke:#181818;stroke-width:0.8000000000000002;stroke-dasharray:2.0,2.0;" x1="652" x2="922.4" y1="1030.4156" y2="1030.4156"/><text fill="#000000" font-family="sans-serif" font-size="10.4" font-weight="bold" lengthAdjust="spacing" textLength="11.2" x="661.6" y="1026.2055">32</text><text fill="#000000" font-family="sans-serif" font-size="10.4" lengthAdjust="spacing" textLength="48.8" x="676" y="1026.2055">observable</text><path d="M598.4,1042.4156 L656.8,1042.4156 L656.8,1049.8484 L648.8,1057.8484 L598.4,1057.8484 L598.4,1042.4156 " fill="#EEEEEE" style="stroke:#000000;stroke-width:1.2000000000000002;"/><rect fill="none" height="90.2594" style="stroke:#000000;stroke-width:1.2000000000000002;" width="288" x="598.4" y="1042.4156"/><text fill="#000000" font-family="sans-serif" font-size="10.4" font-weight="bold" lengthAdjust="spacing" textLength="22.4" x="610.4" y="1054.4383">loop</text><text fill="#000000" font-family="sans-serif" font-size="8.8" font-weight="bold" lengthAdjust="spacing" textLength="111.2" x="668.8" y="1053.5117">[for each floor passages]</text><polygon fill="#181818" points="763.2,1073.2813,771.2,1076.4813,763.2,1079.6813,766.4,1076.4813" style="stroke:#181818;stroke-width:0.8000000000000002;"/><line style="stroke:#181818;stroke-width:0.8000000000000002;stroke-dasharray:2.0,2.0;" x1="648" x2="768" y1="1076.4813" y2="1076.4813"/><text fill="#000000" font-family="sans-serif" font-size="10.4" font-weight="bold" lengthAdjust="spacing" textLength="11.2" x="653.6" y="1072.2711">33</text><text fill="#000000" font-family="sans-serif" font-size="10.4" lengthAdjust="spacing" textLength="35.2" x="668" y="1072.2711">create()</text><rect fill="#E2E2F0" height="40.9938" rx="2" ry="2" style="stroke:#181818;stroke-width:0.4000000000000001;" width="105.6" x="772.8" y="1057.8484"/><text fill="#000000" font-family="sans-serif" font-size="11.2" lengthAdjust="spacing" textLength="19.2" x="816" y="1075.5344">dto:</text><text fill="#000000" font-family="sans-serif" font-size="11.2" lengthAdjust="spacing" textLength="94.4" x="778.4" y="1090.4313">FloorPassageDTO</text><polygon fill="#181818" points="656.8,1123.075,648.8,1126.275,656.8,1129.475,653.6,1126.275" style="stroke:#181818;stroke-width:0.8000000000000002;"/><line style="stroke:#181818;stroke-width:0.8000000000000002;stroke-dasharray:2.0,2.0;" x1="652" x2="824.8" y1="1126.275" y2="1126.275"/><text fill="#000000" font-family="sans-serif" font-size="10.4" font-weight="bold" lengthAdjust="spacing" textLength="11.2" x="661.6" y="1122.0648">34</text><text fill="#000000" font-family="sans-serif" font-size="10.4" lengthAdjust="spacing" textLength="14.4" x="676" y="1122.0648">dto</text><polygon fill="#181818" points="431.2,1153.7078,423.2,1156.9078,431.2,1160.1078,428,1156.9078" style="stroke:#181818;stroke-width:0.8000000000000002;"/><line style="stroke:#181818;stroke-width:0.8000000000000002;stroke-dasharray:2.0,2.0;" x1="426.4" x2="643.2" y1="1156.9078" y2="1156.9078"/><text fill="#000000" font-family="sans-serif" font-size="10.4" font-weight="bold" lengthAdjust="spacing" textLength="11.2" x="436" y="1152.6977">35</text><text fill="#000000" font-family="sans-serif" font-size="10.4" lengthAdjust="spacing" textLength="20.8" x="450.4" y="1152.6977">dto[]</text><line style="stroke:#181818;stroke-width:0.8000000000000002;stroke-dasharray:2.0,2.0;" x1="422.4" x2="456" y1="1181.9406" y2="1181.9406"/><line style="stroke:#181818;stroke-width:0.8000000000000002;stroke-dasharray:2.0,2.0;" x1="456" x2="456" y1="1181.9406" y2="1192.3406"/><line style="stroke:#181818;stroke-width:0.8000000000000002;stroke-dasharray:2.0,2.0;" x1="423.2" x2="456" y1="1192.3406" y2="1192.3406"/><polygon fill="#181818" points="431.2,1189.1406,423.2,1192.3406,431.2,1195.5406,428,1192.3406" style="stroke:#181818;stroke-width:0.8000000000000002;"/><text fill="#000000" font-family="sans-serif" font-size="10.4" font-weight="bold" lengthAdjust="spacing" textLength="11.2" x="428" y="1177.7305">36</text><text fill="#000000" font-family="sans-serif" font-size="10.4" lengthAdjust="spacing" textLength="99.2" x="442.4" y="1177.7305">floorPassages = dto[]</text><polygon fill="#181818" points="281.6,1214.1734,273.6,1217.3734,281.6,1220.5734,278.4,1217.3734" style="stroke:#181818;stroke-width:0.8000000000000002;"/><line style="stroke:#181818;stroke-width:0.8000000000000002;stroke-dasharray:2.0,2.0;" x1="276.8" x2="417.6" y1="1217.3734" y2="1217.3734"/><text fill="#000000" font-family="sans-serif" font-size="10.4" font-weight="bold" lengthAdjust="spacing" textLength="11.2" x="286.4" y="1213.1633">37</text><text fill="#000000" font-family="sans-serif" font-size="10.4" lengthAdjust="spacing" textLength="65.6" x="300.8" y="1213.1633">floorPassages</text><polygon fill="#181818" points="80,1239.2063,72,1242.4063,80,1245.6063,76.8,1242.4063" style="stroke:#181818;stroke-width:0.8000000000000002;"/><line style="stroke:#181818;stroke-width:0.8000000000000002;stroke-dasharray:2.0,2.0;" x1="75.2" x2="268" y1="1242.4063" y2="1242.4063"/><text fill="#000000" font-family="sans-serif" font-size="10.4" font-weight="bold" lengthAdjust="spacing" textLength="11.2" x="84.8" y="1238.1961">38</text><text fill="#000000" font-family="sans-serif" font-size="10.4" lengthAdjust="spacing" textLength="121.6" x="99.2" y="1238.1961">show floors with passages</text><!--SRC=[hLVBRjim4BphAnP13tOAmsuGj83Hvb2dJpH80BleeSs1aXXBW4og96MZ2FBlML8lIg8afuaEIM3lpYvdbpCAoHHdsSwdmlD8eBY0anNPfPc4AyB8beeJ818oYL-dHAWuY5F259nytLpzWDUmMg_nv_UrYTh7zD2CMd6c14-I0YPG8cdXVCpY98pPTat5FWwe2PFxm6z6VKuu5wsGj8KKAhxymqgyoysr2SHFNM46y8P8YKUqGjFs8JStS2dYVT5_f1HMDKJ5UwAeuGNmmTymkp04m1AIM2hmYqRWJfUIS8XL16bUKPga2iNm1iLZC11BSuLOR7lDlh5OJQPLH9Ldw0JhCJcOgmd4t2rL9HtIoczW6AwXzPXynD7dpN4czpwHzAT87kRbmUIqarUX6gB0yHZ4sSKjedxvj84Qp1dDE6A9U1ifZ9TKy_tctG927cGxoXHHCMSu3bCwgIcVoAbEXJkUiT09NBNoVZRJlPmlpfT0XU1YE7nMayjzYVj8_8JsfkGqrhCSBf0Fhuwkg84FyFksDyrmv7Eb-0wJ0a6HVubqKA7odLCHpIl3Zfhj6- -WsEFXuTJBYXdw0YnnC5XQCszk067_L8Jf-O1e8cbZGiFJQOpdRB6mk_6yPmuefCrDxGJWbKsnGG4O65MLlS4XetoSdbOZc4oTqLLThKjzHyVlx8FqXLgdS8LGPDSRMqbCREsMXThHXg4LxI9rrwcrJLQft1ayQxIjrP8HFqYh864X2Feter99K8Vy-1QWqLI7DWSHvvBAvaoFKc9KGUCQyXVUgi8wdghAQH-Ef0aD50rBlUvNwzGrqtHShUUlxik_Lpoa3_FSbvubueMArpNkux04dbTUTwoqdxrrItifxmPNAuTjfSTf_N_eVLjIqkCqlnx8iRhlkbXtrkl9YFw_i0UuBcwZcy7C9_X1vGczOttQI8r7D3lrl1SQxAXVT3t3TD9ytnjS5VtoEMuVRGj91-dH0VOf1ps7ZkCw7SMry5qlw3fBjyJO9N2Z7h-iRRiPM5pjDlqlxYwhQNsc_p7GT1dA7W40]--></g></svg>