<?xml version="1.0" encoding="us-ascii" standalone="no"?><svg xmlns="http://www.w3.org/2000/svg" xmlns:xlink="http://www.w3.org/1999/xlink" contentStyleType="text/css" height="663px" preserveAspectRatio="none" style="width:774px;height:663px;background:#FFFFFF;" version="1.1" viewBox="0 0 774 663" width="774px" zoomAndPan="magnify"><defs/><g><rect fill="#FFFFFF" height="472.9688" style="stroke:#181818;stroke-width:1.0;" width="10" x="63" y="91.4883"/><rect fill="#FFFFFF" height="93.9316" style="stroke:#181818;stroke-width:1.0;" width="10" x="361" y="112.7988"/><rect fill="#FFFFFF" height="93.9316" style="stroke:#181818;stroke-width:1.0;" width="10" x="361" y="236.041"/><rect fill="#FFFFFF" height="29.3105" style="stroke:#181818;stroke-width:1.0;" width="10" x="361" y="359.2832"/><rect fill="#FFFFFF" height="146.5527" style="stroke:#181818;stroke-width:1.0;" width="10" x="361" y="417.9043"/><rect fill="#FFFFFF" height="32.3105" style="stroke:#181818;stroke-width:1.0;" width="10" x="568" y="145.1094"/><rect fill="#FFFFFF" height="32.3105" style="stroke:#181818;stroke-width:1.0;" width="10" x="568" y="268.3516"/><rect fill="#FFFFFF" height="87.9316" style="stroke:#181818;stroke-width:1.0;" width="10" x="568" y="447.2148"/><rect fill="#FFFFFF" height="29.3105" style="stroke:#181818;stroke-width:1.0;" width="10" x="689" y="476.5254"/><line style="stroke:#181818;stroke-width:0.5;stroke-dasharray:5.0,5.0;" x1="68" x2="68" y1="81.4883" y2="582.457"/><line style="stroke:#181818;stroke-width:0.5;stroke-dasharray:5.0,5.0;" x1="366" x2="366" y1="81.4883" y2="582.457"/><line style="stroke:#181818;stroke-width:0.5;stroke-dasharray:5.0,5.0;" x1="572.5" x2="572.5" y1="81.4883" y2="582.457"/><line style="stroke:#181818;stroke-width:0.5;stroke-dasharray:5.0,5.0;" x1="693.5" x2="693.5" y1="81.4883" y2="582.457"/><text fill="#000000" font-family="sans-serif" font-size="14" lengthAdjust="spacing" textLength="120" x="5" y="78.5352">Campus Manager</text><ellipse cx="68" cy="13.5" fill="#E2E2F0" rx="8" ry="8" style="stroke:#181818;stroke-width:0.5;"/><path d="M68,21.5 L68,48.5 M55,29.5 L81,29.5 M68,48.5 L55,63.5 M68,48.5 L81,63.5 " fill="none" style="stroke:#181818;stroke-width:0.5;"/><text fill="#000000" font-family="sans-serif" font-size="14" lengthAdjust="spacing" textLength="120" x="5" y="594.9922">Campus Manager</text><ellipse cx="68" cy="606.4453" fill="#E2E2F0" rx="8" ry="8" style="stroke:#181818;stroke-width:0.5;"/><path d="M68,614.4453 L68,641.4453 M55,622.4453 L81,622.4453 M68,641.4453 L55,656.4453 M68,641.4453 L81,656.4453 " fill="none" style="stroke:#181818;stroke-width:0.5;"/><rect fill="#E2E2F0" height="30.4883" rx="2.5" ry="2.5" style="stroke:#181818;stroke-width:0.5;" width="40" x="346" y="50"/><text fill="#000000" font-family="sans-serif" font-size="14" lengthAdjust="spacing" textLength="26" x="353" y="70.5352">SPA</text><rect fill="#E2E2F0" height="30.4883" rx="2.5" ry="2.5" style="stroke:#181818;stroke-width:0.5;" width="40" x="346" y="581.457"/><text fill="#000000" font-family="sans-serif" font-size="14" lengthAdjust="spacing" textLength="26" x="353" y="601.9922">SPA</text><rect fill="#E2E2F0" height="30.4883" rx="2.5" ry="2.5" style="stroke:#181818;stroke-width:0.5;" width="45" x="550.5" y="50"/><text fill="#000000" font-family="sans-serif" font-size="14" lengthAdjust="spacing" textLength="31" x="557.5" y="70.5352">MDR</text><rect fill="#E2E2F0" height="30.4883" rx="2.5" ry="2.5" style="stroke:#181818;stroke-width:0.5;" width="45" x="550.5" y="581.457"/><text fill="#000000" font-family="sans-serif" font-size="14" lengthAdjust="spacing" textLength="31" x="557.5" y="601.9922">MDR</text><rect fill="#E2E2F0" height="30.4883" rx="2.5" ry="2.5" style="stroke:#181818;stroke-width:0.5;" width="45" x="671.5" y="50"/><text fill="#000000" font-family="sans-serif" font-size="14" lengthAdjust="spacing" textLength="31" x="678.5" y="70.5352">MDT</text><rect fill="#E2E2F0" height="30.4883" rx="2.5" ry="2.5" style="stroke:#181818;stroke-width:0.5;" width="45" x="671.5" y="581.457"/><text fill="#000000" font-family="sans-serif" font-size="14" lengthAdjust="spacing" textLength="31" x="678.5" y="601.9922">MDT</text><rect fill="#FFFFFF" height="472.9688" style="stroke:#181818;stroke-width:1.0;" width="10" x="63" y="91.4883"/><rect fill="#FFFFFF" height="93.9316" style="stroke:#181818;stroke-width:1.0;" width="10" x="361" y="112.7988"/><rect fill="#FFFFFF" height="93.9316" style="stroke:#181818;stroke-width:1.0;" width="10" x="361" y="236.041"/><rect fill="#FFFFFF" height="29.3105" style="stroke:#181818;stroke-width:1.0;" width="10" x="361" y="359.2832"/><rect fill="#FFFFFF" height="146.5527" style="stroke:#181818;stroke-width:1.0;" width="10" x="361" y="417.9043"/><rect fill="#FFFFFF" height="32.3105" style="stroke:#181818;stroke-width:1.0;" width="10" x="568" y="145.1094"/><rect fill="#FFFFFF" height="32.3105" style="stroke:#181818;stroke-width:1.0;" width="10" x="568" y="268.3516"/><rect fill="#FFFFFF" height="87.9316" style="stroke:#181818;stroke-width:1.0;" width="10" x="568" y="447.2148"/><rect fill="#FFFFFF" height="29.3105" style="stroke:#181818;stroke-width:1.0;" width="10" x="689" y="476.5254"/><polygon fill="#181818" points="349,108.7988,359,112.7988,349,116.7988,353,112.7988" style="stroke:#181818;stroke-width:1.0;"/><line style="stroke:#181818;stroke-width:1.0;" x1="73" x2="355" y1="112.7988" y2="112.7988"/><text fill="#000000" font-family="sans-serif" font-size="13" font-weight="bold" lengthAdjust="spacing" textLength="9" x="80" y="108.0566">1</text><text fill="#000000" font-family="sans-serif" font-size="13" lengthAdjust="spacing" textLength="256" x="93" y="108.0566">wants to register a new surveillance task</text><polygon fill="#181818" points="556,141.1094,566,145.1094,556,149.1094,560,145.1094" style="stroke:#181818;stroke-width:1.0;"/><line style="stroke:#181818;stroke-width:1.0;" x1="371" x2="562" y1="145.1094" y2="145.1094"/><text fill="#000000" font-family="sans-serif" font-size="13" font-weight="bold" lengthAdjust="spacing" textLength="9" x="378" y="140.3672">2</text><text fill="#000000" font-family="sans-serif" font-size="13" lengthAdjust="spacing" textLength="94" x="391" y="140.3672">GET /buildings</text><path d="M583,125.7988 L583,150.7988 L767,150.7988 L767,135.7988 L757,125.7988 L583,125.7988 " fill="#FEFFDD" style="stroke:#181818;stroke-width:0.5;"/><path d="M757,125.7988 L757,135.7988 L767,135.7988 L757,125.7988 " fill="#FEFFDD" style="stroke:#181818;stroke-width:0.5;"/><text fill="#000000" font-family="sans-serif" font-size="13" lengthAdjust="spacing" textLength="163" x="589" y="143.3672">see us170 documentation</text><polygon fill="#181818" points="382,173.4199,372,177.4199,382,181.4199,378,177.4199" style="stroke:#181818;stroke-width:1.0;"/><line style="stroke:#181818;stroke-width:1.0;stroke-dasharray:2.0,2.0;" x1="376" x2="572" y1="177.4199" y2="177.4199"/><text fill="#000000" font-family="sans-serif" font-size="13" font-weight="bold" lengthAdjust="spacing" textLength="9" x="388" y="172.6777">3</text><text fill="#000000" font-family="sans-serif" font-size="13" lengthAdjust="spacing" textLength="91" x="401" y="172.6777">200: buildings</text><polygon fill="#181818" points="84,202.7305,74,206.7305,84,210.7305,80,206.7305" style="stroke:#181818;stroke-width:1.0;"/><line style="stroke:#181818;stroke-width:1.0;stroke-dasharray:2.0,2.0;" x1="78" x2="365" y1="206.7305" y2="206.7305"/><text fill="#000000" font-family="sans-serif" font-size="13" font-weight="bold" lengthAdjust="spacing" textLength="9" x="90" y="201.9883">4</text><text fill="#000000" font-family="sans-serif" font-size="13" lengthAdjust="spacing" textLength="110" x="103" y="201.9883">requests building</text><polygon fill="#181818" points="349,232.041,359,236.041,349,240.041,353,236.041" style="stroke:#181818;stroke-width:1.0;"/><line style="stroke:#181818;stroke-width:1.0;" x1="73" x2="355" y1="236.041" y2="236.041"/><text fill="#000000" font-family="sans-serif" font-size="13" font-weight="bold" lengthAdjust="spacing" textLength="9" x="80" y="231.2988">5</text><text fill="#000000" font-family="sans-serif" font-size="13" lengthAdjust="spacing" textLength="117" x="93" y="231.2988">provides buildings</text><polygon fill="#181818" points="556,264.3516,566,268.3516,556,272.3516,560,268.3516" style="stroke:#181818;stroke-width:1.0;"/><line style="stroke:#181818;stroke-width:1.0;" x1="371" x2="562" y1="268.3516" y2="268.3516"/><text fill="#000000" font-family="sans-serif" font-size="13" font-weight="bold" lengthAdjust="spacing" textLength="9" x="378" y="263.6094">6</text><text fill="#000000" font-family="sans-serif" font-size="13" lengthAdjust="spacing" textLength="165" x="391" y="263.6094">GET /buildings/{id}/floors</text><path d="M583,249.041 L583,274.041 L767,274.041 L767,259.041 L757,249.041 L583,249.041 " fill="#FEFFDD" style="stroke:#181818;stroke-width:0.5;"/><path d="M757,249.041 L757,259.041 L767,259.041 L757,249.041 " fill="#FEFFDD" style="stroke:#181818;stroke-width:0.5;"/><text fill="#000000" font-family="sans-serif" font-size="13" lengthAdjust="spacing" textLength="163" x="589" y="266.6094">see us210 documentation</text><polygon fill="#181818" points="382,296.6621,372,300.6621,382,304.6621,378,300.6621" style="stroke:#181818;stroke-width:1.0;"/><line style="stroke:#181818;stroke-width:1.0;stroke-dasharray:2.0,2.0;" x1="376" x2="572" y1="300.6621" y2="300.6621"/><text fill="#000000" font-family="sans-serif" font-size="13" font-weight="bold" lengthAdjust="spacing" textLength="9" x="388" y="295.9199">7</text><text fill="#000000" font-family="sans-serif" font-size="13" lengthAdjust="spacing" textLength="69" x="401" y="295.9199">200: floors</text><polygon fill="#181818" points="84,325.9727,74,329.9727,84,333.9727,80,329.9727" style="stroke:#181818;stroke-width:1.0;"/><line style="stroke:#181818;stroke-width:1.0;stroke-dasharray:2.0,2.0;" x1="78" x2="365" y1="329.9727" y2="329.9727"/><text fill="#000000" font-family="sans-serif" font-size="13" font-weight="bold" lengthAdjust="spacing" textLength="9" x="90" y="325.2305">8</text><text fill="#000000" font-family="sans-serif" font-size="13" lengthAdjust="spacing" textLength="88" x="103" y="325.2305">requests floor</text><polygon fill="#181818" points="349,355.2832,359,359.2832,349,363.2832,353,359.2832" style="stroke:#181818;stroke-width:1.0;"/><line style="stroke:#181818;stroke-width:1.0;" x1="73" x2="355" y1="359.2832" y2="359.2832"/><text fill="#000000" font-family="sans-serif" font-size="13" font-weight="bold" lengthAdjust="spacing" textLength="9" x="80" y="354.541">9</text><text fill="#000000" font-family="sans-serif" font-size="13" lengthAdjust="spacing" textLength="88" x="93" y="354.541">provides floor</text><polygon fill="#181818" points="84,384.5938,74,388.5938,84,392.5938,80,388.5938" style="stroke:#181818;stroke-width:1.0;"/><line style="stroke:#181818;stroke-width:1.0;stroke-dasharray:2.0,2.0;" x1="78" x2="365" y1="388.5938" y2="388.5938"/><text fill="#000000" font-family="sans-serif" font-size="13" font-weight="bold" lengthAdjust="spacing" textLength="18" x="90" y="383.8516">10</text><text fill="#000000" font-family="sans-serif" font-size="13" lengthAdjust="spacing" textLength="131" x="112" y="383.8516">requests task details</text><polygon fill="#181818" points="349,413.9043,359,417.9043,349,421.9043,353,417.9043" style="stroke:#181818;stroke-width:1.0;"/><line style="stroke:#181818;stroke-width:1.0;" x1="73" x2="355" y1="417.9043" y2="417.9043"/><text fill="#000000" font-family="sans-serif" font-size="13" font-weight="bold" lengthAdjust="spacing" textLength="18" x="80" y="413.1621">11</text><text fill="#000000" font-family="sans-serif" font-size="13" lengthAdjust="spacing" textLength="131" x="102" y="413.1621">provides task details</text><polygon fill="#181818" points="556,443.2148,566,447.2148,556,451.2148,560,447.2148" style="stroke:#181818;stroke-width:1.0;"/><line style="stroke:#181818;stroke-width:1.0;" x1="371" x2="562" y1="447.2148" y2="447.2148"/><text fill="#000000" font-family="sans-serif" font-size="13" font-weight="bold" lengthAdjust="spacing" textLength="18" x="378" y="442.4727">12</text><text fill="#000000" font-family="sans-serif" font-size="13" lengthAdjust="spacing" textLength="152" x="400" y="442.4727">POST /task/surveillance</text><polygon fill="#181818" points="677,472.5254,687,476.5254,677,480.5254,681,476.5254" style="stroke:#181818;stroke-width:1.0;"/><line style="stroke:#181818;stroke-width:1.0;" x1="578" x2="683" y1="476.5254" y2="476.5254"/><text fill="#000000" font-family="sans-serif" font-size="13" font-weight="bold" lengthAdjust="spacing" textLength="18" x="585" y="471.7832">13</text><text fill="#000000" font-family="sans-serif" font-size="13" lengthAdjust="spacing" textLength="70" x="607" y="471.7832">POST /jobs</text><polygon fill="#181818" points="589,501.8359,579,505.8359,589,509.8359,585,505.8359" style="stroke:#181818;stroke-width:1.0;"/><line style="stroke:#181818;stroke-width:1.0;stroke-dasharray:2.0,2.0;" x1="583" x2="693" y1="505.8359" y2="505.8359"/><text fill="#000000" font-family="sans-serif" font-size="13" font-weight="bold" lengthAdjust="spacing" textLength="18" x="595" y="501.0938">14</text><text fill="#000000" font-family="sans-serif" font-size="13" lengthAdjust="spacing" textLength="59" x="617" y="501.0938">201: task</text><polygon fill="#181818" points="382,531.1465,372,535.1465,382,539.1465,378,535.1465" style="stroke:#181818;stroke-width:1.0;"/><line style="stroke:#181818;stroke-width:1.0;stroke-dasharray:2.0,2.0;" x1="376" x2="572" y1="535.1465" y2="535.1465"/><text fill="#000000" font-family="sans-serif" font-size="13" font-weight="bold" lengthAdjust="spacing" textLength="18" x="388" y="530.4043">15</text><text fill="#000000" font-family="sans-serif" font-size="13" lengthAdjust="spacing" textLength="59" x="410" y="530.4043">201: task</text><polygon fill="#181818" points="79,560.457,69,564.457,79,568.457,75,564.457" style="stroke:#181818;stroke-width:1.0;"/><line style="stroke:#181818;stroke-width:1.0;stroke-dasharray:2.0,2.0;" x1="73" x2="365" y1="564.457" y2="564.457"/><text fill="#000000" font-family="sans-serif" font-size="13" font-weight="bold" lengthAdjust="spacing" textLength="18" x="85" y="559.7148">16</text><text fill="#000000" font-family="sans-serif" font-size="13" lengthAdjust="spacing" textLength="176" x="107" y="559.7148">previews newly created task</text><!--SRC=[fPJ1JiCm38RlVGfhzwdTBaWx8250d2OcjXV8MbC2RL8IfnD2l3jEnxPsQxgXHUeXSVBvps-dmf5MhboZYIAHaZOmkXTbvIpCXH8vcX482yvok1A6P2eheGX6oyNTDYAxw_E7bsQzpCnnOFKNe2QJh0LX0-OFnhTCWXbiUAy5qc0mbvRGW0256x3Er2YBGgWKWOJzY8370IERkH-COHYdPzhJumhYjPD59bLkzriwHxrGE1fASy38_8qOOj7BdDmaaEdKbQX8aDIgSyYd6-_kC4sI6VHdpR2JjnFpmZt2UkK6FnrQjcB72M7uvbrAoypAw5fcQE6C1HUv5t_Bx2T-BRGsziIm_xevdGov6NOra7x8rh2r3UmgNqy9VPuEg_3Dp8b9oC9U9QON5DBJhlFYUSc5ziVZzZEx_BaqTV8qsjFUzNgmIoXGS6eiskgQ9fFPuQq7wqtHcRxfennrJB1CbS5QuiRwdr3n1Qb1Ff8TUDqYjMVM_080]--></g></svg>