<?xml version="1.0" encoding="us-ascii" standalone="no"?><svg xmlns="http://www.w3.org/2000/svg" xmlns:xlink="http://www.w3.org/1999/xlink" contentStyleType="text/css" height="736px" preserveAspectRatio="none" style="width:777px;height:736px;background:#FFFFFF;" version="1.1" viewBox="0 0 777 736" width="777px" zoomAndPan="magnify"><defs/><g><rect fill="#FFFFFF" height="527.918" style="stroke:#181818;stroke-width:1.0;" width="10" x="84" y="93.6211"/><rect fill="#FFFFFF" height="236.668" style="stroke:#181818;stroke-width:1.0;" width="10" x="325" y="116.9121"/><rect fill="#FFFFFF" height="236.668" style="stroke:#181818;stroke-width:1.0;" width="10" x="325" y="384.8711"/><rect fill="#FFFFFF" height="174.0859" style="stroke:#181818;stroke-width:1.0;" width="10" x="567" y="148.2031"/><rect fill="#FFFFFF" height="174.0859" style="stroke:#181818;stroke-width:1.0;" width="10" x="567" y="416.1621"/><rect fill="none" height="436.0449" style="stroke:#000000;stroke-width:1.5;" width="760" x="10" y="200.4941"/><rect fill="none" height="161.0859" style="stroke:#000000;stroke-width:1.5;" width="579.5" x="20" y="468.4531"/><line style="stroke:#181818;stroke-width:0.5;stroke-dasharray:5.0,5.0;" x1="89" x2="89" y1="83.6211" y2="653.5391"/><line style="stroke:#181818;stroke-width:0.5;stroke-dasharray:5.0,5.0;" x1="330" x2="330" y1="83.6211" y2="653.5391"/><line style="stroke:#181818;stroke-width:0.5;stroke-dasharray:5.0,5.0;" x1="571.5" x2="571.5" y1="83.6211" y2="653.5391"/><text fill="#000000" font-family="sans-serif" font-size="14" lengthAdjust="spacing" textLength="112" x="30" y="80.1074">Campus Manager</text><ellipse cx="89" cy="13.5" fill="#E2E2F0" rx="8" ry="8" style="stroke:#181818;stroke-width:0.5;"/><path d="M89,21.5 L89,48.5 M76,29.5 L102,29.5 M89,48.5 L76,63.5 M89,48.5 L102,63.5 " fill="none" style="stroke:#181818;stroke-width:0.5;"/><text fill="#000000" font-family="sans-serif" font-size="14" lengthAdjust="spacing" textLength="112" x="30" y="667.6465">Campus Manager</text><ellipse cx="89" cy="679.6602" fill="#E2E2F0" rx="8" ry="8" style="stroke:#181818;stroke-width:0.5;"/><path d="M89,687.6602 L89,714.6602 M76,695.6602 L102,695.6602 M89,714.6602 L76,729.6602 M89,714.6602 L102,729.6602 " fill="none" style="stroke:#181818;stroke-width:0.5;"/><rect fill="#E2E2F0" height="32.6211" rx="2.5" ry="2.5" style="stroke:#181818;stroke-width:0.5;" width="32" x="314" y="50"/><text fill="#000000" font-family="sans-serif" font-size="14" lengthAdjust="spacing" textLength="18" x="321" y="72.1074">FE</text><rect fill="#E2E2F0" height="32.6211" rx="2.5" ry="2.5" style="stroke:#181818;stroke-width:0.5;" width="32" x="314" y="652.5391"/><text fill="#000000" font-family="sans-serif" font-size="14" lengthAdjust="spacing" textLength="18" x="321" y="674.6465">FE</text><rect fill="#E2E2F0" height="32.6211" rx="2.5" ry="2.5" style="stroke:#181818;stroke-width:0.5;" width="35" x="554.5" y="50"/><text fill="#000000" font-family="sans-serif" font-size="14" lengthAdjust="spacing" textLength="21" x="561.5" y="72.1074">MD</text><rect fill="#E2E2F0" height="32.6211" rx="2.5" ry="2.5" style="stroke:#181818;stroke-width:0.5;" width="35" x="554.5" y="652.5391"/><text fill="#000000" font-family="sans-serif" font-size="14" lengthAdjust="spacing" textLength="21" x="561.5" y="674.6465">MD</text><rect fill="#FFFFFF" height="527.918" style="stroke:#181818;stroke-width:1.0;" width="10" x="84" y="93.6211"/><rect fill="#FFFFFF" height="236.668" style="stroke:#181818;stroke-width:1.0;" width="10" x="325" y="116.9121"/><rect fill="#FFFFFF" height="236.668" style="stroke:#181818;stroke-width:1.0;" width="10" x="325" y="384.8711"/><rect fill="#FFFFFF" height="174.0859" style="stroke:#181818;stroke-width:1.0;" width="10" x="567" y="148.2031"/><rect fill="#FFFFFF" height="174.0859" style="stroke:#181818;stroke-width:1.0;" width="10" x="567" y="416.1621"/><polygon fill="#181818" points="313,112.9121,323,116.9121,313,120.9121,317,116.9121" style="stroke:#181818;stroke-width:1.0;"/><line style="stroke:#181818;stroke-width:1.0;" x1="94" x2="319" y1="116.9121" y2="116.9121"/><text fill="#000000" font-family="sans-serif" font-size="13" font-weight="bold" lengthAdjust="spacing" textLength="7" x="101" y="111.6494">1</text><text fill="#000000" font-family="sans-serif" font-size="13" lengthAdjust="spacing" textLength="187" x="112" y="111.6494">list building floors with passages</text><polygon fill="#181818" points="555,144.2031,565,148.2031,555,152.2031,559,148.2031" style="stroke:#181818;stroke-width:1.0;"/><line style="stroke:#181818;stroke-width:1.0;" x1="335" x2="561" y1="148.2031" y2="148.2031"/><text fill="#000000" font-family="sans-serif" font-size="13" font-weight="bold" lengthAdjust="spacing" textLength="7" x="342" y="142.9404">2</text><text fill="#000000" font-family="sans-serif" font-size="13" lengthAdjust="spacing" textLength="85" x="353" y="142.9404">GET /buildings</text><path d="M582,161.2031 L582,188.2031 L760,188.2031 L760,171.2031 L750,161.2031 L582,161.2031 " fill="#FEFFDD" style="stroke:#181818;stroke-width:0.5;"/><path d="M750,161.2031 L750,171.2031 L760,171.2031 L750,161.2031 " fill="#FEFFDD" style="stroke:#181818;stroke-width:0.5;"/><text fill="#000000" font-family="sans-serif" font-size="13" lengthAdjust="spacing" textLength="157" x="588" y="180.2314">see US 170 documentation</text><path d="M10,200.4941 L71,200.4941 L71,209.7852 L61,219.7852 L10,219.7852 L10,200.4941 " fill="#EEEEEE" style="stroke:#000000;stroke-width:1.5;"/><rect fill="none" height="436.0449" style="stroke:#000000;stroke-width:1.5;" width="760" x="10" y="200.4941"/><text fill="#000000" font-family="sans-serif" font-size="13" font-weight="bold" lengthAdjust="spacing" textLength="16" x="25" y="215.5225">alt</text><text fill="#000000" font-family="sans-serif" font-size="11" font-weight="bold" lengthAdjust="spacing" textLength="123" x="86" y="214.3643">[building(s) not found]</text><polygon fill="#181818" points="346,239.0762,336,243.0762,346,247.0762,342,243.0762" style="stroke:#181818;stroke-width:1.0;"/><line style="stroke:#181818;stroke-width:1.0;stroke-dasharray:2.0,2.0;" x1="340" x2="566" y1="243.0762" y2="243.0762"/><text fill="#000000" font-family="sans-serif" font-size="13" font-weight="bold" lengthAdjust="spacing" textLength="7" x="352" y="237.8135">3</text><text fill="#000000" font-family="sans-serif" font-size="13" lengthAdjust="spacing" textLength="55" x="363" y="237.8135">404: error</text><polygon fill="#181818" points="105,270.3672,95,274.3672,105,278.3672,101,274.3672" style="stroke:#181818;stroke-width:1.0;"/><line style="stroke:#181818;stroke-width:1.0;stroke-dasharray:2.0,2.0;" x1="99" x2="324" y1="274.3672" y2="274.3672"/><text fill="#000000" font-family="sans-serif" font-size="13" font-weight="bold" lengthAdjust="spacing" textLength="7" x="111" y="269.1045">4</text><text fill="#000000" font-family="sans-serif" font-size="13" lengthAdjust="spacing" textLength="162" x="122" y="269.1045">informs building(s) not found</text><line style="stroke:#000000;stroke-width:1.0;stroke-dasharray:2.0,2.0;" x1="10" x2="770" y1="283.3672" y2="283.3672"/><text fill="#000000" font-family="sans-serif" font-size="11" font-weight="bold" lengthAdjust="spacing" textLength="102" x="15" y="295.2373">[building(s) found]</text><polygon fill="#181818" points="346,318.2891,336,322.2891,346,326.2891,342,322.2891" style="stroke:#181818;stroke-width:1.0;"/><line style="stroke:#181818;stroke-width:1.0;stroke-dasharray:2.0,2.0;" x1="340" x2="571" y1="322.2891" y2="322.2891"/><text fill="#000000" font-family="sans-serif" font-size="13" font-weight="bold" lengthAdjust="spacing" textLength="7" x="352" y="317.0264">5</text><text fill="#000000" font-family="sans-serif" font-size="13" lengthAdjust="spacing" textLength="80" x="363" y="317.0264">200: buildings</text><polygon fill="#181818" points="105,349.5801,95,353.5801,105,357.5801,101,353.5801" style="stroke:#181818;stroke-width:1.0;"/><line style="stroke:#181818;stroke-width:1.0;stroke-dasharray:2.0,2.0;" x1="99" x2="329" y1="353.5801" y2="353.5801"/><text fill="#000000" font-family="sans-serif" font-size="13" font-weight="bold" lengthAdjust="spacing" textLength="7" x="111" y="348.3174">6</text><text fill="#000000" font-family="sans-serif" font-size="13" lengthAdjust="spacing" textLength="196" x="122" y="348.3174">shows buildings and requests one</text><polygon fill="#181818" points="313,380.8711,323,384.8711,313,388.8711,317,384.8711" style="stroke:#181818;stroke-width:1.0;"/><line style="stroke:#181818;stroke-width:1.0;" x1="94" x2="319" y1="384.8711" y2="384.8711"/><text fill="#000000" font-family="sans-serif" font-size="13" font-weight="bold" lengthAdjust="spacing" textLength="7" x="101" y="379.6084">7</text><text fill="#000000" font-family="sans-serif" font-size="13" lengthAdjust="spacing" textLength="97" x="112" y="379.6084">chooses building</text><polygon fill="#181818" points="555,412.1621,565,416.1621,555,420.1621,559,416.1621" style="stroke:#181818;stroke-width:1.0;"/><line style="stroke:#181818;stroke-width:1.0;" x1="335" x2="561" y1="416.1621" y2="416.1621"/><text fill="#000000" font-family="sans-serif" font-size="13" font-weight="bold" lengthAdjust="spacing" textLength="7" x="342" y="410.8994">8</text><text fill="#000000" font-family="sans-serif" font-size="13" lengthAdjust="spacing" textLength="202" x="353" y="410.8994">GET /buildings/{id}/floors/passages</text><path d="M582,429.1621 L582,456.1621 L760,456.1621 L760,439.1621 L750,429.1621 L582,429.1621 " fill="#FEFFDD" style="stroke:#181818;stroke-width:0.5;"/><path d="M750,429.1621 L750,439.1621 L760,439.1621 L750,429.1621 " fill="#FEFFDD" style="stroke:#181818;stroke-width:0.5;"/><text fill="#000000" font-family="sans-serif" font-size="13" lengthAdjust="spacing" textLength="157" x="588" y="448.1904">see US 220 documentation</text><path d="M20,468.4531 L81,468.4531 L81,477.7441 L71,487.7441 L20,487.7441 L20,468.4531 " fill="#EEEEEE" style="stroke:#000000;stroke-width:1.5;"/><rect fill="none" height="161.0859" style="stroke:#000000;stroke-width:1.5;" width="579.5" x="20" y="468.4531"/><text fill="#000000" font-family="sans-serif" font-size="13" font-weight="bold" lengthAdjust="spacing" textLength="16" x="35" y="483.4814">alt</text><text fill="#000000" font-family="sans-serif" font-size="11" font-weight="bold" lengthAdjust="spacing" textLength="197" x="96" y="482.3232">[floor(s) with passage(s) not found]</text><polygon fill="#181818" points="346,507.0352,336,511.0352,346,515.0352,342,511.0352" style="stroke:#181818;stroke-width:1.0;"/><line style="stroke:#181818;stroke-width:1.0;stroke-dasharray:2.0,2.0;" x1="340" x2="566" y1="511.0352" y2="511.0352"/><text fill="#000000" font-family="sans-serif" font-size="13" font-weight="bold" lengthAdjust="spacing" textLength="7" x="352" y="505.7725">9</text><text fill="#000000" font-family="sans-serif" font-size="13" lengthAdjust="spacing" textLength="55" x="363" y="505.7725">404: error</text><polygon fill="#181818" points="105,538.3262,95,542.3262,105,546.3262,101,542.3262" style="stroke:#181818;stroke-width:1.0;"/><line style="stroke:#181818;stroke-width:1.0;stroke-dasharray:2.0,2.0;" x1="99" x2="324" y1="542.3262" y2="542.3262"/><text fill="#000000" font-family="sans-serif" font-size="13" font-weight="bold" lengthAdjust="spacing" textLength="14" x="111" y="537.0635">10</text><text fill="#000000" font-family="sans-serif" font-size="13" lengthAdjust="spacing" textLength="174" x="129" y="537.0635">informs passages(s) not found</text><line style="stroke:#000000;stroke-width:1.0;stroke-dasharray:2.0,2.0;" x1="20" x2="599.5" y1="551.3262" y2="551.3262"/><text fill="#000000" font-family="sans-serif" font-size="11" font-weight="bold" lengthAdjust="spacing" textLength="176" x="25" y="563.1963">[floor(s) with passage(s) found]</text><polygon fill="#181818" points="346,586.248,336,590.248,346,594.248,342,590.248" style="stroke:#181818;stroke-width:1.0;"/><line style="stroke:#181818;stroke-width:1.0;stroke-dasharray:2.0,2.0;" x1="340" x2="571" y1="590.248" y2="590.248"/><text fill="#000000" font-family="sans-serif" font-size="13" font-weight="bold" lengthAdjust="spacing" textLength="14" x="352" y="584.9854">11</text><text fill="#000000" font-family="sans-serif" font-size="13" lengthAdjust="spacing" textLength="147" x="370" y="584.9854">200: floors with passages</text><polygon fill="#181818" points="100,617.5391,90,621.5391,100,625.5391,96,621.5391" style="stroke:#181818;stroke-width:1.0;"/><line style="stroke:#181818;stroke-width:1.0;stroke-dasharray:2.0,2.0;" x1="94" x2="329" y1="621.5391" y2="621.5391"/><text fill="#000000" font-family="sans-serif" font-size="13" font-weight="bold" lengthAdjust="spacing" textLength="14" x="106" y="616.2764">12</text><text fill="#000000" font-family="sans-serif" font-size="13" lengthAdjust="spacing" textLength="152" x="124" y="616.2764">show floors with passages</text><!--SRC=[XLJ1JeGm4Btp5PCzwS60cqrCE7ZHrTEUr0_eqc5f0XtijEx1-E-MhWGQjjY44APlNj_Cl2AS9Usw8vei4vKb0vidqVMEuI2qEA7PW61mxBTxOQogL2-qXStB_hAXul3XEOGx6TZKbx0Oai4l_uQxHvy29RIABHoTQgNI9wXR8iDmLhQ1NZ3xSpcaJ1mg2u5nUH9FrKbFzRf_XtoauWYboQSQTMeiK7r1Co9ylC7zGm6IAjUXji8gqb6UQ2TnDtmxy41DJii85GaSAeOhonzwDnQzAtObe35abjYXe07dUrI2qZMPZXCQebni6IFSTPrp6TkYA65gs08hSLxLgb1kw3p9P11QWi5FXsmPI6DsXNCOvS8FLKF4E54jfl_luFDl9N_oYvFoo4JhJjXkKquON13uXhRElPaOnrhN5dDOTqFI4MDX2Gd13KdDV-1irHZ9kxYqHfRqH9ebDiByo_ybqClppoy0]--></g></svg>