<?xml version="1.0" encoding="us-ascii" standalone="no"?><svg xmlns="http://www.w3.org/2000/svg" xmlns:xlink="http://www.w3.org/1999/xlink" contentStyleType="text/css" height="800px" preserveAspectRatio="none" style="width:1928px;height:800px;background:#FFFFFF;" version="1.1" viewBox="0 0 1928 800" width="1928px" zoomAndPan="magnify"><defs/><g><rect fill="#FFFFFF" height="671.206" style="stroke:#181818;stroke-width:1.0;" width="10" x="172" y="72.7739"/><rect fill="#FFFFFF" height="607.794" style="stroke:#181818;stroke-width:1.0;" width="10" x="303" y="104.4799"/><rect fill="#FFFFFF" height="500.314" style="stroke:#181818;stroke-width:1.0;" width="10" x="600" y="180.2539"/><rect fill="#FFFFFF" height="95.118" style="stroke:#181818;stroke-width:1.0;" width="10" x="703" y="211.9599"/><rect fill="#FFFFFF" height="31.706" style="stroke:#181818;stroke-width:1.0;" width="10" x="814" y="243.6659"/><rect fill="#FFFFFF" height="31.706" style="stroke:#181818;stroke-width:1.0;" width="10" x="955.5" y="338.784"/><rect fill="#FFFFFF" height="202.598" style="stroke:#181818;stroke-width:1.0;" width="10" x="1293.5" y="446.2639"/><rect fill="#FFFFFF" height="95.118" style="stroke:#181818;stroke-width:1.0;" width="10" x="1670.5" y="477.9699"/><line style="stroke:#181818;stroke-width:0.5;stroke-dasharray:5.0,5.0;" x1="176.5" x2="176.5" y1="39.0679" y2="761.98"/><line style="stroke:#181818;stroke-width:0.5;stroke-dasharray:5.0,5.0;" x1="307.5" x2="307.5" y1="39.0679" y2="761.98"/><line style="stroke:#181818;stroke-width:0.5;stroke-dasharray:5.0,5.0;" x1="478" x2="478" y1="144.5139" y2="761.98"/><line style="stroke:#181818;stroke-width:0.5;stroke-dasharray:5.0,5.0;" x1="605" x2="605" y1="39.0679" y2="761.98"/><line style="stroke:#181818;stroke-width:0.5;stroke-dasharray:5.0,5.0;" x1="708" x2="708" y1="39.0679" y2="761.98"/><line style="stroke:#181818;stroke-width:0.5;stroke-dasharray:5.0,5.0;" x1="819" x2="819" y1="39.0679" y2="761.98"/><line style="stroke:#181818;stroke-width:0.5;stroke-dasharray:5.0,5.0;" x1="960" x2="960" y1="39.0679" y2="761.98"/><line style="stroke:#181818;stroke-width:0.5;stroke-dasharray:5.0,5.0;" x1="1152" x2="1152" y1="410.5239" y2="761.98"/><line style="stroke:#181818;stroke-width:0.5;stroke-dasharray:5.0,5.0;" x1="1298" x2="1298" y1="39.0679" y2="761.98"/><line style="stroke:#181818;stroke-width:0.5;stroke-dasharray:5.0,5.0;" x1="1507.5" x2="1507.5" y1="613.1219" y2="761.98"/><line style="stroke:#181818;stroke-width:0.5;stroke-dasharray:5.0,5.0;" x1="1675.5" x2="1675.5" y1="39.0679" y2="761.98"/><rect fill="#E2E2F0" height="33.0679" rx="2.5" ry="2.5" style="stroke:#181818;stroke-width:0.5;" width="53" x="150.5" y="5"/><text fill="#000000" font-family="sans-serif" font-size="14" lengthAdjust="spacing" textLength="39" x="157.5" y="26.9659">Route</text><rect fill="#E2E2F0" height="33.0679" rx="2.5" ry="2.5" style="stroke:#181818;stroke-width:0.5;" width="53" x="150.5" y="760.98"/><text fill="#000000" font-family="sans-serif" font-size="14" lengthAdjust="spacing" textLength="39" x="157.5" y="782.9459">Route</text><rect fill="#E2E2F0" height="33.0679" rx="2.5" ry="2.5" style="stroke:#181818;stroke-width:0.5;" width="81" x="267.5" y="5"/><text fill="#000000" font-family="sans-serif" font-size="14" lengthAdjust="spacing" textLength="67" x="274.5" y="26.9659">Controller</text><rect fill="#E2E2F0" height="33.0679" rx="2.5" ry="2.5" style="stroke:#181818;stroke-width:0.5;" width="81" x="267.5" y="760.98"/><text fill="#000000" font-family="sans-serif" font-size="14" lengthAdjust="spacing" textLength="67" x="274.5" y="782.9459">Controller</text><rect fill="#E2E2F0" height="33.0679" rx="2.5" ry="2.5" style="stroke:#181818;stroke-width:0.5;" width="171" x="393" y="760.98"/><text fill="#000000" font-family="sans-serif" font-size="14" lengthAdjust="spacing" textLength="157" x="400" y="782.9459">dto:ITaskAlgorithmDTO</text><rect fill="#E2E2F0" height="33.0679" rx="2.5" ry="2.5" style="stroke:#181818;stroke-width:0.5;" width="62" x="574" y="5"/><text fill="#000000" font-family="sans-serif" font-size="14" lengthAdjust="spacing" textLength="48" x="581" y="26.9659">Service</text><rect fill="#E2E2F0" height="33.0679" rx="2.5" ry="2.5" style="stroke:#181818;stroke-width:0.5;" width="62" x="574" y="760.98"/><text fill="#000000" font-family="sans-serif" font-size="14" lengthAdjust="spacing" textLength="48" x="581" y="782.9459">Service</text><rect fill="#E2E2F0" height="33.0679" rx="2.5" ry="2.5" style="stroke:#181818;stroke-width:0.5;" width="124" x="646" y="5"/><text fill="#000000" font-family="sans-serif" font-size="14" lengthAdjust="spacing" textLength="110" x="653" y="26.9659">RobotRepository</text><rect fill="#E2E2F0" height="33.0679" rx="2.5" ry="2.5" style="stroke:#181818;stroke-width:0.5;" width="124" x="646" y="760.98"/><text fill="#000000" font-family="sans-serif" font-size="14" lengthAdjust="spacing" textLength="110" x="653" y="782.9459">RobotRepository</text><rect fill="#E2E2F0" height="33.0679" rx="2.5" ry="2.5" style="stroke:#181818;stroke-width:0.5;" width="78" x="780" y="5"/><text fill="#000000" font-family="sans-serif" font-size="14" lengthAdjust="spacing" textLength="64" x="787" y="26.9659">DB Driver</text><rect fill="#E2E2F0" height="33.0679" rx="2.5" ry="2.5" style="stroke:#181818;stroke-width:0.5;" width="78" x="780" y="760.98"/><text fill="#000000" font-family="sans-serif" font-size="14" lengthAdjust="spacing" textLength="64" x="787" y="782.9459">DB Driver</text><rect fill="#E2E2F0" height="33.0679" rx="2.5" ry="2.5" style="stroke:#181818;stroke-width:0.5;" width="185" x="868" y="5"/><text fill="#000000" font-family="sans-serif" font-size="14" lengthAdjust="spacing" textLength="171" x="875" y="26.9659">ITaskDistributionStrategy</text><rect fill="#E2E2F0" height="33.0679" rx="2.5" ry="2.5" style="stroke:#181818;stroke-width:0.5;" width="185" x="868" y="760.98"/><text fill="#000000" font-family="sans-serif" font-size="14" lengthAdjust="spacing" textLength="171" x="875" y="782.9459">ITaskDistributionStrategy</text><rect fill="#E2E2F0" height="33.0679" rx="2.5" ry="2.5" style="stroke:#181818;stroke-width:0.5;" width="178" x="1063" y="760.98"/><text fill="#000000" font-family="sans-serif" font-size="14" lengthAdjust="spacing" textLength="164" x="1070" y="782.9459">mdtDto:IRobotTasksDTO</text><rect fill="#E2E2F0" height="33.0679" rx="2.5" ry="2.5" style="stroke:#181818;stroke-width:0.5;" width="95" x="1251" y="5"/><text fill="#000000" font-family="sans-serif" font-size="14" lengthAdjust="spacing" textLength="81" x="1258" y="26.9659">MdtAdapter</text><rect fill="#E2E2F0" height="33.0679" rx="2.5" ry="2.5" style="stroke:#181818;stroke-width:0.5;" width="95" x="1251" y="760.98"/><text fill="#000000" font-family="sans-serif" font-size="14" lengthAdjust="spacing" textLength="81" x="1258" y="782.9459">MdtAdapter</text><rect fill="#E2E2F0" height="33.0679" rx="2.5" ry="2.5" style="stroke:#181818;stroke-width:0.5;" width="234" x="1390.5" y="760.98"/><text fill="#000000" font-family="sans-serif" font-size="14" lengthAdjust="spacing" textLength="220" x="1397.5" y="782.9459">seqDto:IRobotTaskSequenceDTO</text><rect fill="#E2E2F0" height="33.0679" rx="2.5" ry="2.5" style="stroke:#181818;stroke-width:0.5;" width="82" x="1634.5" y="5"/><text fill="#000000" font-family="sans-serif" font-size="14" lengthAdjust="spacing" textLength="68" x="1641.5" y="26.9659">MdtDriver</text><rect fill="#E2E2F0" height="33.0679" rx="2.5" ry="2.5" style="stroke:#181818;stroke-width:0.5;" width="82" x="1634.5" y="760.98"/><text fill="#000000" font-family="sans-serif" font-size="14" lengthAdjust="spacing" textLength="68" x="1641.5" y="782.9459">MdtDriver</text><rect fill="#FFFFFF" height="671.206" style="stroke:#181818;stroke-width:1.0;" width="10" x="172" y="72.7739"/><rect fill="#FFFFFF" height="607.794" style="stroke:#181818;stroke-width:1.0;" width="10" x="303" y="104.4799"/><rect fill="#FFFFFF" height="500.314" style="stroke:#181818;stroke-width:1.0;" width="10" x="600" y="180.2539"/><rect fill="#FFFFFF" height="95.118" style="stroke:#181818;stroke-width:1.0;" width="10" x="703" y="211.9599"/><rect fill="#FFFFFF" height="31.706" style="stroke:#181818;stroke-width:1.0;" width="10" x="814" y="243.6659"/><rect fill="#FFFFFF" height="31.706" style="stroke:#181818;stroke-width:1.0;" width="10" x="955.5" y="338.784"/><rect fill="#FFFFFF" height="202.598" style="stroke:#181818;stroke-width:1.0;" width="10" x="1293.5" y="446.2639"/><rect fill="#FFFFFF" height="95.118" style="stroke:#181818;stroke-width:1.0;" width="10" x="1670.5" y="477.9699"/><polygon fill="#181818" points="160,68.7739,170,72.7739,160,76.7739,164,72.7739" style="stroke:#181818;stroke-width:1.0;"/><line style="stroke:#181818;stroke-width:1.0;" x1="0" x2="166" y1="72.7739" y2="72.7739"/><text fill="#000000" font-family="sans-serif" font-size="13" font-weight="bold" lengthAdjust="spacing" textLength="7" x="7" y="66.9649">1</text><text fill="#000000" font-family="sans-serif" font-size="13" lengthAdjust="spacing" textLength="142" x="18" y="66.9649">PATCH /tasks/sequence</text><polygon fill="#181818" points="291,100.4799,301,104.4799,291,108.4799,295,104.4799" style="stroke:#181818;stroke-width:1.0;"/><line style="stroke:#181818;stroke-width:1.0;" x1="182" x2="297" y1="104.4799" y2="104.4799"/><text fill="#000000" font-family="sans-serif" font-size="13" font-weight="bold" lengthAdjust="spacing" textLength="7" x="189" y="98.6709">2</text><text fill="#000000" font-family="sans-serif" font-size="13" lengthAdjust="spacing" textLength="91" x="200" y="98.6709">taskSequence()</text><polygon fill="#181818" points="381,132.186,391,136.186,381,140.186,385,136.186" style="stroke:#181818;stroke-width:1.0;"/><line style="stroke:#181818;stroke-width:1.0;stroke-dasharray:2.0,2.0;" x1="313" x2="387" y1="136.186" y2="136.186"/><text fill="#000000" font-family="sans-serif" font-size="13" font-weight="bold" lengthAdjust="spacing" textLength="7" x="320" y="130.377">3</text><text fill="#000000" font-family="sans-serif" font-size="13" lengthAdjust="spacing" textLength="45" x="331" y="130.377">create()</text><rect fill="#E2E2F0" height="33.0679" rx="2.5" ry="2.5" style="stroke:#181818;stroke-width:0.5;" width="171" x="393" y="112.4799"/><text fill="#000000" font-family="sans-serif" font-size="14" lengthAdjust="spacing" textLength="157" x="400" y="134.4459">dto:ITaskAlgorithmDTO</text><polygon fill="#181818" points="588,176.2539,598,180.2539,588,184.2539,592,180.2539" style="stroke:#181818;stroke-width:1.0;"/><line style="stroke:#181818;stroke-width:1.0;" x1="313" x2="594" y1="180.2539" y2="180.2539"/><text fill="#000000" font-family="sans-serif" font-size="13" font-weight="bold" lengthAdjust="spacing" textLength="7" x="320" y="174.4449">4</text><text fill="#000000" font-family="sans-serif" font-size="13" lengthAdjust="spacing" textLength="112" x="331" y="174.4449">taskSequence(dto)</text><polygon fill="#181818" points="691,207.9599,701,211.9599,691,215.9599,695,211.9599" style="stroke:#181818;stroke-width:1.0;"/><line style="stroke:#181818;stroke-width:1.0;" x1="610" x2="697" y1="211.9599" y2="211.9599"/><text fill="#000000" font-family="sans-serif" font-size="13" font-weight="bold" lengthAdjust="spacing" textLength="7" x="617" y="206.1509">5</text><text fill="#000000" font-family="sans-serif" font-size="13" lengthAdjust="spacing" textLength="45" x="628" y="206.1509">findAll()</text><polygon fill="#181818" points="802,239.6659,812,243.6659,802,247.6659,806,243.6659" style="stroke:#181818;stroke-width:1.0;"/><line style="stroke:#181818;stroke-width:1.0;" x1="713" x2="808" y1="243.6659" y2="243.6659"/><text fill="#000000" font-family="sans-serif" font-size="13" font-weight="bold" lengthAdjust="spacing" textLength="7" x="720" y="237.8569">6</text><text fill="#000000" font-family="sans-serif" font-size="13" lengthAdjust="spacing" textLength="45" x="731" y="237.8569">findAll()</text><polygon fill="#181818" points="724,271.3719,714,275.3719,724,279.3719,720,275.3719" style="stroke:#181818;stroke-width:1.0;"/><line style="stroke:#181818;stroke-width:1.0;stroke-dasharray:2.0,2.0;" x1="718" x2="818" y1="275.3719" y2="275.3719"/><text fill="#000000" font-family="sans-serif" font-size="13" font-weight="bold" lengthAdjust="spacing" textLength="7" x="730" y="269.5629">7</text><text fill="#000000" font-family="sans-serif" font-size="13" lengthAdjust="spacing" textLength="40" x="741" y="269.5629">robots</text><polygon fill="#181818" points="621,303.0779,611,307.0779,621,311.0779,617,307.0779" style="stroke:#181818;stroke-width:1.0;"/><line style="stroke:#181818;stroke-width:1.0;stroke-dasharray:2.0,2.0;" x1="615" x2="707" y1="307.0779" y2="307.0779"/><text fill="#000000" font-family="sans-serif" font-size="13" font-weight="bold" lengthAdjust="spacing" textLength="7" x="627" y="301.2689">8</text><text fill="#000000" font-family="sans-serif" font-size="13" lengthAdjust="spacing" textLength="40" x="638" y="301.2689">robots</text><polygon fill="#181818" points="943.5,334.784,953.5,338.784,943.5,342.784,947.5,338.784" style="stroke:#181818;stroke-width:1.0;"/><line style="stroke:#181818;stroke-width:1.0;" x1="610" x2="949.5" y1="338.784" y2="338.784"/><text fill="#000000" font-family="sans-serif" font-size="13" font-weight="bold" lengthAdjust="spacing" textLength="7" x="617" y="332.975">9</text><text fill="#000000" font-family="sans-serif" font-size="13" lengthAdjust="spacing" textLength="167" x="628" y="332.975">distribute(dto.tasks, robots)</text><polygon fill="#181818" points="621,366.49,611,370.49,621,374.49,617,370.49" style="stroke:#181818;stroke-width:1.0;"/><line style="stroke:#181818;stroke-width:1.0;stroke-dasharray:2.0,2.0;" x1="615" x2="959.5" y1="370.49" y2="370.49"/><text fill="#000000" font-family="sans-serif" font-size="13" font-weight="bold" lengthAdjust="spacing" textLength="14" x="627" y="364.681">10</text><text fill="#000000" font-family="sans-serif" font-size="13" lengthAdjust="spacing" textLength="70" x="645" y="364.681">distribution</text><polygon fill="#181818" points="1051,398.196,1061,402.196,1051,406.196,1055,402.196" style="stroke:#181818;stroke-width:1.0;"/><line style="stroke:#181818;stroke-width:1.0;stroke-dasharray:2.0,2.0;" x1="610" x2="1057" y1="402.196" y2="402.196"/><text fill="#000000" font-family="sans-serif" font-size="13" font-weight="bold" lengthAdjust="spacing" textLength="14" x="617" y="396.387">11</text><text fill="#000000" font-family="sans-serif" font-size="13" lengthAdjust="spacing" textLength="45" x="635" y="396.387">create()</text><rect fill="#E2E2F0" height="33.0679" rx="2.5" ry="2.5" style="stroke:#181818;stroke-width:0.5;" width="178" x="1063" y="378.49"/><text fill="#000000" font-family="sans-serif" font-size="14" lengthAdjust="spacing" textLength="164" x="1070" y="400.4559">mdtDto:IRobotTasksDTO</text><polygon fill="#181818" points="1281.5,442.2639,1291.5,446.2639,1281.5,450.2639,1285.5,446.2639" style="stroke:#181818;stroke-width:1.0;"/><line style="stroke:#181818;stroke-width:1.0;" x1="610" x2="1287.5" y1="446.2639" y2="446.2639"/><text fill="#000000" font-family="sans-serif" font-size="13" font-weight="bold" lengthAdjust="spacing" textLength="14" x="617" y="440.4549">12</text><text fill="#000000" font-family="sans-serif" font-size="13" lengthAdjust="spacing" textLength="138" x="635" y="440.4549">taskSequence(mdtDto)</text><polygon fill="#181818" points="1658.5,473.9699,1668.5,477.9699,1658.5,481.9699,1662.5,477.9699" style="stroke:#181818;stroke-width:1.0;"/><line style="stroke:#181818;stroke-width:1.0;" x1="1303.5" x2="1664.5" y1="477.9699" y2="477.9699"/><text fill="#000000" font-family="sans-serif" font-size="13" font-weight="bold" lengthAdjust="spacing" textLength="14" x="1310.5" y="472.1609">13</text><text fill="#000000" font-family="sans-serif" font-size="13" lengthAdjust="spacing" textLength="242" x="1328.5" y="472.1609">fetch(MDT_URL/jobs/sequence, mdtDto)</text><polygon fill="#181818" points="1910.5,505.6759,1920.5,509.6759,1910.5,513.6759,1914.5,509.6759" style="stroke:#181818;stroke-width:1.0;"/><line style="stroke:#181818;stroke-width:1.0;" x1="1680.5" x2="1916.5" y1="509.6759" y2="509.6759"/><text fill="#000000" font-family="sans-serif" font-size="13" font-weight="bold" lengthAdjust="spacing" textLength="14" x="1687.5" y="503.8669">14</text><text fill="#000000" font-family="sans-serif" font-size="13" lengthAdjust="spacing" textLength="200" x="1705.5" y="503.8669">PATCH /MDT_URL/jobs/sequence</text><polygon fill="#181818" points="1691.5,537.382,1681.5,541.382,1691.5,545.382,1687.5,541.382" style="stroke:#181818;stroke-width:1.0;"/><line style="stroke:#181818;stroke-width:1.0;stroke-dasharray:2.0,2.0;" x1="1685.5" x2="1921.5" y1="541.382" y2="541.382"/><text fill="#000000" font-family="sans-serif" font-size="13" font-weight="bold" lengthAdjust="spacing" textLength="14" x="1697.5" y="535.573">15</text><text fill="#000000" font-family="sans-serif" font-size="13" lengthAdjust="spacing" textLength="57" x="1715.5" y="535.573">sequence</text><polygon fill="#181818" points="1314.5,569.088,1304.5,573.088,1314.5,577.088,1310.5,573.088" style="stroke:#181818;stroke-width:1.0;"/><line style="stroke:#181818;stroke-width:1.0;" x1="1308.5" x2="1674.5" y1="573.088" y2="573.088"/><text fill="#000000" font-family="sans-serif" font-size="13" font-weight="bold" lengthAdjust="spacing" textLength="14" x="1320.5" y="567.279">16</text><text fill="#000000" font-family="sans-serif" font-size="13" lengthAdjust="spacing" textLength="57" x="1338.5" y="567.279">sequence</text><polygon fill="#181818" points="1378.5,600.794,1388.5,604.794,1378.5,608.794,1382.5,604.794" style="stroke:#181818;stroke-width:1.0;"/><line style="stroke:#181818;stroke-width:1.0;stroke-dasharray:2.0,2.0;" x1="1303.5" x2="1384.5" y1="604.794" y2="604.794"/><text fill="#000000" font-family="sans-serif" font-size="13" font-weight="bold" lengthAdjust="spacing" textLength="14" x="1310.5" y="598.985">17</text><text fill="#000000" font-family="sans-serif" font-size="13" lengthAdjust="spacing" textLength="45" x="1328.5" y="598.985">create()</text><rect fill="#E2E2F0" height="33.0679" rx="2.5" ry="2.5" style="stroke:#181818;stroke-width:0.5;" width="234" x="1390.5" y="581.088"/><text fill="#000000" font-family="sans-serif" font-size="14" lengthAdjust="spacing" textLength="220" x="1397.5" y="603.0539">seqDto:IRobotTaskSequenceDTO</text><polygon fill="#181818" points="621,644.8619,611,648.8619,621,652.8619,617,648.8619" style="stroke:#181818;stroke-width:1.0;"/><line style="stroke:#181818;stroke-width:1.0;stroke-dasharray:2.0,2.0;" x1="615" x2="1297.5" y1="648.8619" y2="648.8619"/><text fill="#000000" font-family="sans-serif" font-size="13" font-weight="bold" lengthAdjust="spacing" textLength="14" x="627" y="643.0529">18</text><text fill="#000000" font-family="sans-serif" font-size="13" lengthAdjust="spacing" textLength="43" x="645" y="643.0529">seqDto</text><polygon fill="#181818" points="324,676.5679,314,680.5679,324,684.5679,320,680.5679" style="stroke:#181818;stroke-width:1.0;"/><line style="stroke:#181818;stroke-width:1.0;stroke-dasharray:2.0,2.0;" x1="318" x2="604" y1="680.5679" y2="680.5679"/><text fill="#000000" font-family="sans-serif" font-size="13" font-weight="bold" lengthAdjust="spacing" textLength="14" x="330" y="674.7589">19</text><text fill="#000000" font-family="sans-serif" font-size="13" lengthAdjust="spacing" textLength="43" x="348" y="674.7589">seqDto</text><polygon fill="#181818" points="193,708.2739,183,712.2739,193,716.2739,189,712.2739" style="stroke:#181818;stroke-width:1.0;"/><line style="stroke:#181818;stroke-width:1.0;" x1="187" x2="307" y1="712.2739" y2="712.2739"/><text fill="#000000" font-family="sans-serif" font-size="13" font-weight="bold" lengthAdjust="spacing" textLength="14" x="199" y="706.4649">20</text><text fill="#000000" font-family="sans-serif" font-size="13" lengthAdjust="spacing" textLength="75" x="217" y="706.4649">seqDto (200)</text><polygon fill="#181818" points="11,739.98,1,743.98,11,747.98,7,743.98" style="stroke:#181818;stroke-width:1.0;"/><line style="stroke:#181818;stroke-width:1.0;stroke-dasharray:2.0,2.0;" x1="5" x2="176" y1="743.98" y2="743.98"/><text fill="#000000" font-family="sans-serif" font-size="13" font-weight="bold" lengthAdjust="spacing" textLength="14" x="17" y="738.171">21</text><text fill="#000000" font-family="sans-serif" font-size="13" lengthAdjust="spacing" textLength="44" x="35" y="738.171">200: Ok</text><!--SRC=[VLJBRjim4BphAuYSx22AWnwDme0R7LAWGGhRFGM58Obip4OM5N9be7_VvSCIHP7HpURCS7PdbsKFektF5PDPrfKIUCsxiWLoinCzi1jIAXAUF8eMf6WQ9irn3RAP0YY8zVT3gTwtpPkG74xdul1Yi7Xov6sWjsVomcjxbxhKCn-LW1thXE8Wv3_hw2ZnZock-4OAoI_E5Aq26UEdu0eahthWejs3B86zMK6bVmICCuL25s8CQBQwLe4dHwmam3zJsDAo0-TWxb2nZwdWddtqhAsPtnti-bpNA-m4q6NPQxuXagp9p-tXyOciGBjRAIUNbJNm2nQ7oH7y946qJWa9u5sxM9hZ0Ms29Eup-1o9DhBRMoJNaY4EQG5gesCBnP6t77337JfVudsQg6inWQB47zxIRTCibXFKM90DdWIVesktLL9a8eJpGI8VqdFVZjHHgHcKCbyeQMTeJ4J6at15nVfYvX85w7LmJL_lJTvtJZRHAZlIeJKhE3gZtaQa_BdbcDb34RS9YUdm0xRzd4o8NR1Kqj6SNSfw2NJE3EhJuhau77_jVgp-YchSWJiIKv_SO3OfDWH6FT_y7lShUaMQ-pNFDNa0VdRBjJD9LIy8k_lnfhXDnUU3JDD8mkq0s4SfEPhnmHpVau3kJur-oSDtGWuKilZoy63TUQJX2Nh57XeqejRavJtpJMN_0G00]--></g></svg>