<?xml version="1.0" encoding="us-ascii" standalone="no"?><svg xmlns="http://www.w3.org/2000/svg" xmlns:xlink="http://www.w3.org/1999/xlink" contentStyleType="text/css" height="572px" preserveAspectRatio="none" style="width:513px;height:572px;background:#FFFFFF;" version="1.1" viewBox="0 0 513 572" width="513px" zoomAndPan="magnify"><defs/><g><rect fill="#FFFFFF" height="386.0938" style="stroke:#181818;stroke-width:1.0;" width="10" x="94" y="93.6211"/><rect fill="#FFFFFF" height="105.5039" style="stroke:#181818;stroke-width:1.0;" width="10" x="395" y="116.9121"/><rect fill="#FFFFFF" height="226.0078" style="stroke:#181818;stroke-width:1.0;" width="10" x="395" y="253.707"/><rect fill="none" height="340.8027" style="stroke:#000000;stroke-width:1.5;" width="496" x="10" y="131.9121"/><rect fill="none" height="197.0078" style="stroke:#000000;stroke-width:1.5;" width="476" x="20" y="268.707"/><rect fill="none" height="115.7949" style="stroke:#000000;stroke-width:1.5;" width="456" x="30" y="342.9199"/><line style="stroke:#181818;stroke-width:0.5;stroke-dasharray:5.0,5.0;" x1="99" x2="99" y1="83.6211" y2="489.7148"/><line style="stroke:#181818;stroke-width:0.5;stroke-dasharray:5.0,5.0;" x1="400" x2="400" y1="83.6211" y2="489.7148"/><text fill="#000000" font-family="sans-serif" font-size="14" lengthAdjust="spacing" textLength="112" x="40" y="80.1074">Campus Manager</text><ellipse cx="99" cy="13.5" fill="#E2E2F0" rx="8" ry="8" style="stroke:#181818;stroke-width:0.5;"/><path d="M99,21.5 L99,48.5 M86,29.5 L112,29.5 M99,48.5 L86,63.5 M99,48.5 L112,63.5 " fill="none" style="stroke:#181818;stroke-width:0.5;"/><text fill="#000000" font-family="sans-serif" font-size="14" lengthAdjust="spacing" textLength="112" x="40" y="503.8223">Campus Manager</text><ellipse cx="99" cy="515.8359" fill="#E2E2F0" rx="8" ry="8" style="stroke:#181818;stroke-width:0.5;"/><path d="M99,523.8359 L99,550.8359 M86,531.8359 L112,531.8359 M99,550.8359 L86,565.8359 M99,550.8359 L112,565.8359 " fill="none" style="stroke:#181818;stroke-width:0.5;"/><rect fill="#E2E2F0" height="51.2422" rx="2.5" ry="2.5" style="stroke:#181818;stroke-width:0.5;" width="152" x="324" y="31.3789"/><text fill="#000000" font-family="sans-serif" font-size="14" lengthAdjust="spacing" textLength="60" x="370" y="53.4863">&#171;system&#187;</text><text fill="#000000" font-family="sans-serif" font-size="14" lengthAdjust="spacing" textLength="134" x="335" y="72.1074">System RobDroneGo</text><rect fill="#E2E2F0" height="51.2422" rx="2.5" ry="2.5" style="stroke:#181818;stroke-width:0.5;" width="152" x="324" y="488.7148"/><text fill="#000000" font-family="sans-serif" font-size="14" lengthAdjust="spacing" textLength="60" x="370" y="510.8223">&#171;system&#187;</text><text fill="#000000" font-family="sans-serif" font-size="14" lengthAdjust="spacing" textLength="134" x="335" y="529.4434">System RobDroneGo</text><rect fill="#FFFFFF" height="386.0938" style="stroke:#181818;stroke-width:1.0;" width="10" x="94" y="93.6211"/><rect fill="#FFFFFF" height="105.5039" style="stroke:#181818;stroke-width:1.0;" width="10" x="395" y="116.9121"/><rect fill="#FFFFFF" height="226.0078" style="stroke:#181818;stroke-width:1.0;" width="10" x="395" y="253.707"/><polygon fill="#181818" points="383,112.9121,393,116.9121,383,120.9121,387,116.9121" style="stroke:#181818;stroke-width:1.0;"/><line style="stroke:#181818;stroke-width:1.0;" x1="104" x2="389" y1="116.9121" y2="116.9121"/><text fill="#000000" font-family="sans-serif" font-size="13" font-weight="bold" lengthAdjust="spacing" textLength="7" x="111" y="111.6494">1</text><text fill="#000000" font-family="sans-serif" font-size="13" lengthAdjust="spacing" textLength="261" x="122" y="111.6494">wants to list passages between two buildings</text><path d="M10,131.9121 L71,131.9121 L71,141.2031 L61,151.2031 L10,151.2031 L10,131.9121 " fill="#EEEEEE" style="stroke:#000000;stroke-width:1.5;"/><rect fill="none" height="340.8027" style="stroke:#000000;stroke-width:1.5;" width="496" x="10" y="131.9121"/><text fill="#000000" font-family="sans-serif" font-size="13" font-weight="bold" lengthAdjust="spacing" textLength="16" x="25" y="146.9404">alt</text><text fill="#000000" font-family="sans-serif" font-size="11" font-weight="bold" lengthAdjust="spacing" textLength="123" x="86" y="145.7822">[building(s) not found]</text><polygon fill="#181818" points="115,170.4941,105,174.4941,115,178.4941,111,174.4941" style="stroke:#181818;stroke-width:1.0;"/><line style="stroke:#181818;stroke-width:1.0;stroke-dasharray:2.0,2.0;" x1="109" x2="394" y1="174.4941" y2="174.4941"/><text fill="#000000" font-family="sans-serif" font-size="13" font-weight="bold" lengthAdjust="spacing" textLength="7" x="121" y="169.2314">2</text><text fill="#000000" font-family="sans-serif" font-size="13" lengthAdjust="spacing" textLength="162" x="132" y="169.2314">informs building(s) not found</text><line style="stroke:#000000;stroke-width:1.0;stroke-dasharray:2.0,2.0;" x1="10" x2="506" y1="183.4941" y2="183.4941"/><text fill="#000000" font-family="sans-serif" font-size="11" font-weight="bold" lengthAdjust="spacing" textLength="102" x="15" y="195.3643">[building(s) found]</text><polygon fill="#181818" points="115,218.416,105,222.416,115,226.416,111,222.416" style="stroke:#181818;stroke-width:1.0;"/><line style="stroke:#181818;stroke-width:1.0;stroke-dasharray:2.0,2.0;" x1="109" x2="399" y1="222.416" y2="222.416"/><text fill="#000000" font-family="sans-serif" font-size="13" font-weight="bold" lengthAdjust="spacing" textLength="7" x="121" y="217.1533">3</text><text fill="#000000" font-family="sans-serif" font-size="13" lengthAdjust="spacing" textLength="195" x="132" y="217.1533">shows buildings and requests two</text><polygon fill="#181818" points="383,249.707,393,253.707,383,257.707,387,253.707" style="stroke:#181818;stroke-width:1.0;"/><line style="stroke:#181818;stroke-width:1.0;" x1="104" x2="389" y1="253.707" y2="253.707"/><text fill="#000000" font-family="sans-serif" font-size="13" font-weight="bold" lengthAdjust="spacing" textLength="7" x="111" y="248.4443">4</text><text fill="#000000" font-family="sans-serif" font-size="13" lengthAdjust="spacing" textLength="128" x="122" y="248.4443">chooses two buildings</text><path d="M20,268.707 L81,268.707 L81,277.998 L71,287.998 L20,287.998 L20,268.707 " fill="#EEEEEE" style="stroke:#000000;stroke-width:1.5;"/><rect fill="none" height="197.0078" style="stroke:#000000;stroke-width:1.5;" width="476" x="20" y="268.707"/><text fill="#000000" font-family="sans-serif" font-size="13" font-weight="bold" lengthAdjust="spacing" textLength="16" x="35" y="283.7354">alt</text><text fill="#000000" font-family="sans-serif" font-size="11" font-weight="bold" lengthAdjust="spacing" textLength="86" x="96" y="282.5771">[same building]</text><polygon fill="#181818" points="115,307.2891,105,311.2891,115,315.2891,111,311.2891" style="stroke:#181818;stroke-width:1.0;"/><line style="stroke:#181818;stroke-width:1.0;stroke-dasharray:2.0,2.0;" x1="109" x2="394" y1="311.2891" y2="311.2891"/><text fill="#000000" font-family="sans-serif" font-size="13" font-weight="bold" lengthAdjust="spacing" textLength="7" x="121" y="306.0264">5</text><text fill="#000000" font-family="sans-serif" font-size="13" lengthAdjust="spacing" textLength="177" x="132" y="306.0264">informs same building provided</text><line style="stroke:#000000;stroke-width:1.0;stroke-dasharray:2.0,2.0;" x1="20" x2="496" y1="320.2891" y2="320.2891"/><text fill="#000000" font-family="sans-serif" font-size="11" font-weight="bold" lengthAdjust="spacing" textLength="103" x="25" y="332.1592">[different building]</text><path d="M30,342.9199 L91,342.9199 L91,352.2109 L81,362.2109 L30,362.2109 L30,342.9199 " fill="#EEEEEE" style="stroke:#000000;stroke-width:1.5;"/><rect fill="none" height="115.7949" style="stroke:#000000;stroke-width:1.5;" width="456" x="30" y="342.9199"/><text fill="#000000" font-family="sans-serif" font-size="13" font-weight="bold" lengthAdjust="spacing" textLength="16" x="45" y="357.9482">alt</text><text fill="#000000" font-family="sans-serif" font-size="11" font-weight="bold" lengthAdjust="spacing" textLength="126" x="106" y="356.79">[passage(s) not found]</text><polygon fill="#181818" points="115,381.502,105,385.502,115,389.502,111,385.502" style="stroke:#181818;stroke-width:1.0;"/><line style="stroke:#181818;stroke-width:1.0;stroke-dasharray:2.0,2.0;" x1="109" x2="394" y1="385.502" y2="385.502"/><text fill="#000000" font-family="sans-serif" font-size="13" font-weight="bold" lengthAdjust="spacing" textLength="7" x="121" y="380.2393">6</text><text fill="#000000" font-family="sans-serif" font-size="13" lengthAdjust="spacing" textLength="167" x="132" y="380.2393">informs passage(s) not found</text><line style="stroke:#000000;stroke-width:1.0;stroke-dasharray:2.0,2.0;" x1="30" x2="486" y1="394.502" y2="394.502"/><text fill="#000000" font-family="sans-serif" font-size="11" font-weight="bold" lengthAdjust="spacing" textLength="105" x="35" y="406.3721">[passage(s) found]</text><polygon fill="#181818" points="115,446.7148,105,450.7148,115,454.7148,111,450.7148" style="stroke:#181818;stroke-width:1.0;"/><line style="stroke:#181818;stroke-width:1.0;stroke-dasharray:2.0,2.0;" x1="109" x2="394" y1="450.7148" y2="450.7148"/><text fill="#000000" font-family="sans-serif" font-size="13" font-weight="bold" lengthAdjust="spacing" textLength="7" x="121" y="436.8066">7</text><text fill="#000000" font-family="sans-serif" font-size="13" lengthAdjust="spacing" textLength="149" x="132" y="428.1611">shows passages between</text><text fill="#000000" font-family="sans-serif" font-size="13" lengthAdjust="spacing" textLength="87" x="136" y="445.4521">those buildings</text><!--SRC=[ZLAxRiCm3Dpz5KIcTiWF186N5kZKfLsxq1OT2x15LwHYzEyhAOaVQL5NYnxatOb7Ob1seQ_85mNMoXvsJzWFGU0L7Px8xm05WiJmW5vjRGTq2hlZKRv4gI_B3mVl-GXlN3rxTlJ26HGJCgSzerAcWBZY3lio1U40O-GIK8REYiA08b5Ie28TYHpeo505sndhJfBH4rqYpm-TJYaFyWYE5HeEpkJeRIMrVLHDuWUmhc7VomQEEg5LoXQjj3pEf0Be37Zw32Ifnf4dgA5L6SLFN-gMMKYs39WS4EpdlnQ_V6ykUfKAW-UpDNGfArTiRDEG9pVRMao4IUhQf7zvFQl-YSgwYumDpelFzyCInr1RNhHCLWoqrBkUR_jTFnRNDBJV]--></g></svg>