<?xml version="1.0" encoding="us-ascii" standalone="no"?><svg xmlns="http://www.w3.org/2000/svg" xmlns:xlink="http://www.w3.org/1999/xlink" contentStyleType="text/css" height="436px" preserveAspectRatio="none" style="width:410px;height:436px;background:#FFFFFF;" version="1.1" viewBox="0 0 410 436" width="410px" zoomAndPan="magnify"><defs/><g><rect fill="#FFFFFF" height="254.0391" style="stroke:#181818;stroke-width:1.0;" width="10" x="76.5" y="91.4883"/><rect fill="#FFFFFF" height="232.7285" style="stroke:#181818;stroke-width:1.0;" width="10" x="301.5" y="112.7988"/><rect fill="none" height="210.7285" style="stroke:#000000;stroke-width:1.5;" width="393.5" x="10" y="127.7988"/><rect fill="none" height="90.8867" style="stroke:#000000;stroke-width:1.5;" width="373.5" x="20" y="240.6406"/><line style="stroke:#181818;stroke-width:0.5;stroke-dasharray:5.0,5.0;" x1="81" x2="81" y1="81.4883" y2="355.5273"/><line style="stroke:#181818;stroke-width:0.5;stroke-dasharray:5.0,5.0;" x1="306.5" x2="306.5" y1="81.4883" y2="355.5273"/><text fill="#000000" font-family="sans-serif" font-size="14" lengthAdjust="spacing" textLength="97" x="30" y="78.5352">Fleet Manager</text><ellipse cx="81.5" cy="13.5" fill="#E2E2F0" rx="8" ry="8" style="stroke:#181818;stroke-width:0.5;"/><path d="M81.5,21.5 L81.5,48.5 M68.5,29.5 L94.5,29.5 M81.5,48.5 L68.5,63.5 M81.5,48.5 L94.5,63.5 " fill="none" style="stroke:#181818;stroke-width:0.5;"/><text fill="#000000" font-family="sans-serif" font-size="14" lengthAdjust="spacing" textLength="97" x="30" y="368.0625">Fleet Manager</text><ellipse cx="81.5" cy="379.5156" fill="#E2E2F0" rx="8" ry="8" style="stroke:#181818;stroke-width:0.5;"/><path d="M81.5,387.5156 L81.5,414.5156 M68.5,395.5156 L94.5,395.5156 M81.5,414.5156 L68.5,429.5156 M81.5,414.5156 L94.5,429.5156 " fill="none" style="stroke:#181818;stroke-width:0.5;"/><rect fill="#E2E2F0" height="46.9766" rx="2.5" ry="2.5" style="stroke:#181818;stroke-width:0.5;" width="154" x="229.5" y="33.5117"/><text fill="#000000" font-family="sans-serif" font-size="14" lengthAdjust="spacing" textLength="61" x="276" y="54.0469">&#171;system&#187;</text><text fill="#000000" font-family="sans-serif" font-size="14" lengthAdjust="spacing" textLength="140" x="236.5" y="70.5352">System RobDroneGo</text><rect fill="#E2E2F0" height="46.9766" rx="2.5" ry="2.5" style="stroke:#181818;stroke-width:0.5;" width="154" x="229.5" y="354.5273"/><text fill="#000000" font-family="sans-serif" font-size="14" lengthAdjust="spacing" textLength="61" x="276" y="375.0625">&#171;system&#187;</text><text fill="#000000" font-family="sans-serif" font-size="14" lengthAdjust="spacing" textLength="140" x="236.5" y="391.5508">System RobDroneGo</text><rect fill="#FFFFFF" height="254.0391" style="stroke:#181818;stroke-width:1.0;" width="10" x="76.5" y="91.4883"/><rect fill="#FFFFFF" height="232.7285" style="stroke:#181818;stroke-width:1.0;" width="10" x="301.5" y="112.7988"/><polygon fill="#181818" points="289.5,108.7988,299.5,112.7988,289.5,116.7988,293.5,112.7988" style="stroke:#181818;stroke-width:1.0;"/><line style="stroke:#181818;stroke-width:1.0;" x1="86.5" x2="295.5" y1="112.7988" y2="112.7988"/><text fill="#000000" font-family="sans-serif" font-size="13" font-weight="bold" lengthAdjust="spacing" textLength="9" x="93.5" y="108.0566">1</text><text fill="#000000" font-family="sans-serif" font-size="13" lengthAdjust="spacing" textLength="111" x="106.5" y="108.0566">POST /robottypes</text><path d="M10,127.7988 L72,127.7988 L72,135.1094 L62,145.1094 L10,145.1094 L10,127.7988 " fill="#EEEEEE" style="stroke:#000000;stroke-width:1.5;"/><rect fill="none" height="210.7285" style="stroke:#000000;stroke-width:1.5;" width="393.5" x="10" y="127.7988"/><text fill="#000000" font-family="sans-serif" font-size="13" font-weight="bold" lengthAdjust="spacing" textLength="17" x="25" y="141.3672">alt</text><text fill="#000000" font-family="sans-serif" font-size="11" font-weight="bold" lengthAdjust="spacing" textLength="80" x="87" y="140.4336">[unkown user]</text><polygon fill="#181818" points="97.5,162.4199,87.5,166.4199,97.5,170.4199,93.5,166.4199" style="stroke:#181818;stroke-width:1.0;"/><line style="stroke:#181818;stroke-width:1.0;stroke-dasharray:2.0,2.0;" x1="91.5" x2="300.5" y1="166.4199" y2="166.4199"/><text fill="#000000" font-family="sans-serif" font-size="13" font-weight="bold" lengthAdjust="spacing" textLength="9" x="103.5" y="161.6777">2</text><text fill="#000000" font-family="sans-serif" font-size="13" lengthAdjust="spacing" textLength="116" x="116.5" y="161.6777">401: Unauthorized</text><line style="stroke:#000000;stroke-width:1.0;stroke-dasharray:2.0,2.0;" x1="10" x2="403.5" y1="175.4199" y2="175.4199"/><text fill="#000000" font-family="sans-serif" font-size="11" font-weight="bold" lengthAdjust="spacing" textLength="110" x="15" y="186.0547">[user not autorized]</text><polygon fill="#181818" points="97.5,206.6855,87.5,210.6855,97.5,214.6855,93.5,210.6855" style="stroke:#181818;stroke-width:1.0;"/><line style="stroke:#181818;stroke-width:1.0;stroke-dasharray:2.0,2.0;" x1="91.5" x2="300.5" y1="210.6855" y2="210.6855"/><text fill="#000000" font-family="sans-serif" font-size="13" font-weight="bold" lengthAdjust="spacing" textLength="9" x="103.5" y="205.9434">3</text><text fill="#000000" font-family="sans-serif" font-size="13" lengthAdjust="spacing" textLength="95" x="116.5" y="205.9434">403: Forbidden</text><line style="stroke:#000000;stroke-width:1.0;stroke-dasharray:2.0,2.0;" x1="10" x2="403.5" y1="219.6855" y2="219.6855"/><text fill="#000000" font-family="sans-serif" font-size="11" font-weight="bold" lengthAdjust="spacing" textLength="95" x="15" y="230.3203">[user authorized]</text><path d="M20,240.6406 L82,240.6406 L82,247.9512 L72,257.9512 L20,257.9512 L20,240.6406 " fill="#EEEEEE" style="stroke:#000000;stroke-width:1.5;"/><rect fill="none" height="90.8867" style="stroke:#000000;stroke-width:1.5;" width="373.5" x="20" y="240.6406"/><text fill="#000000" font-family="sans-serif" font-size="13" font-weight="bold" lengthAdjust="spacing" textLength="17" x="35" y="254.209">alt</text><text fill="#000000" font-family="sans-serif" font-size="11" font-weight="bold" lengthAdjust="spacing" textLength="131" x="97" y="253.2754">[robot type not created]</text><polygon fill="#181818" points="97.5,275.2617,87.5,279.2617,97.5,283.2617,93.5,279.2617" style="stroke:#181818;stroke-width:1.0;"/><line style="stroke:#181818;stroke-width:1.0;stroke-dasharray:2.0,2.0;" x1="91.5" x2="300.5" y1="279.2617" y2="279.2617"/><text fill="#000000" font-family="sans-serif" font-size="13" font-weight="bold" lengthAdjust="spacing" textLength="9" x="103.5" y="274.5195">4</text><text fill="#000000" font-family="sans-serif" font-size="13" lengthAdjust="spacing" textLength="178" x="116.5" y="274.5195">422: Unprocessable Content</text><line style="stroke:#000000;stroke-width:1.0;stroke-dasharray:2.0,2.0;" x1="20" x2="393.5" y1="288.2617" y2="288.2617"/><text fill="#000000" font-family="sans-serif" font-size="11" font-weight="bold" lengthAdjust="spacing" textLength="182" x="25" y="298.8965">[robot type created successfully]</text><polygon fill="#181818" points="97.5,319.5273,87.5,323.5273,97.5,327.5273,93.5,323.5273" style="stroke:#181818;stroke-width:1.0;"/><line style="stroke:#181818;stroke-width:1.0;stroke-dasharray:2.0,2.0;" x1="91.5" x2="300.5" y1="323.5273" y2="323.5273"/><text fill="#000000" font-family="sans-serif" font-size="13" font-weight="bold" lengthAdjust="spacing" textLength="9" x="103.5" y="318.7852">5</text><text fill="#000000" font-family="sans-serif" font-size="13" lengthAdjust="spacing" textLength="80" x="116.5" y="318.7852">201: Created</text><!--SRC=[VP51JyCm38Nl_HLMxnFGSQgcNeR62Gqnk759MpCgChjA753vzIHkWL9Dv9Aqp-zxZcE2C8LJZIxBJ2Fi8DzPH84xG-Q8BWVZGOMiDqwwfkiD2UIRZH-yuAcgdkcW9tZW-iOnuIshAUgAxDwDu8I0kCQKLPKAIhZV7nxXmd7D8aEFqJBLZBO4qHzM8D0RVn04ZoCehQZ3Ah96Q0dNbrSbF949yigk-yHMAz5wL1yG2qHnffsdh4lOiQkxjaLQ81Rix-xq2f3ke26DmzZ_RydPcA98pVQE6_JUr1PXooH8ycFJs1bwme8FJVAy16k7VpEAD93jeXcaQIvnrqEBVoO- -npVBVi2]--></g></svg>