<?xml version="1.0" encoding="us-ascii" standalone="no"?><svg xmlns="http://www.w3.org/2000/svg" xmlns:xlink="http://www.w3.org/1999/xlink" contentStyleType="text/css" height="487px" preserveAspectRatio="none" style="width:317px;height:487px;background:#FFFFFF;" version="1.1" viewBox="0 0 317 487" width="317px" zoomAndPan="magnify"><defs/><g><rect fill="#FFFFFF" height="330.8516" style="stroke:#181818;stroke-width:1.0;" width="10" x="201" y="90.5332"/><rect fill="none" height="308.8516" style="stroke:#000000;stroke-width:1.5;" width="307" x="3" y="105.5332"/><rect fill="none" height="179.7168" style="stroke:#000000;stroke-width:1.5;" width="297" x="3" y="227.668"/><rect fill="none" height="98.5039" style="stroke:#000000;stroke-width:1.5;" width="287" x="3" y="301.8809"/><line style="stroke:#181818;stroke-width:0.5;stroke-dasharray:5.0,5.0;" x1="206" x2="206" y1="57.2422" y2="431.3848"/><rect fill="#E2E2F0" height="51.2422" rx="2.5" ry="2.5" style="stroke:#181818;stroke-width:0.5;" width="148" x="132" y="5"/><text fill="#000000" font-family="sans-serif" font-size="14" lengthAdjust="spacing" textLength="60" x="176" y="27.1074">&#171;system&#187;</text><text fill="#000000" font-family="sans-serif" font-size="14" lengthAdjust="spacing" textLength="134" x="139" y="45.7285">System RobDroneGo</text><rect fill="#E2E2F0" height="51.2422" rx="2.5" ry="2.5" style="stroke:#181818;stroke-width:0.5;" width="148" x="132" y="430.3848"/><text fill="#000000" font-family="sans-serif" font-size="14" lengthAdjust="spacing" textLength="60" x="176" y="452.4922">&#171;system&#187;</text><text fill="#000000" font-family="sans-serif" font-size="14" lengthAdjust="spacing" textLength="134" x="139" y="471.1133">System RobDroneGo</text><rect fill="#FFFFFF" height="330.8516" style="stroke:#181818;stroke-width:1.0;" width="10" x="201" y="90.5332"/><polygon fill="#181818" points="189,86.5332,199,90.5332,189,94.5332,193,90.5332" style="stroke:#181818;stroke-width:1.0;"/><line style="stroke:#181818;stroke-width:1.0;" x1="0" x2="195" y1="90.5332" y2="90.5332"/><text fill="#000000" font-family="sans-serif" font-size="13" font-weight="bold" lengthAdjust="spacing" textLength="7" x="7" y="85.2705">1</text><text fill="#000000" font-family="sans-serif" font-size="13" lengthAdjust="spacing" textLength="104" x="18" y="85.2705">POST /robottypes</text><path d="M3,105.5332 L64,105.5332 L64,114.8242 L54,124.8242 L3,124.8242 L3,105.5332 " fill="#EEEEEE" style="stroke:#000000;stroke-width:1.5;"/><rect fill="none" height="308.8516" style="stroke:#000000;stroke-width:1.5;" width="307" x="3" y="105.5332"/><text fill="#000000" font-family="sans-serif" font-size="13" font-weight="bold" lengthAdjust="spacing" textLength="16" x="18" y="120.5615">alt</text><text fill="#000000" font-family="sans-serif" font-size="11" font-weight="bold" lengthAdjust="spacing" textLength="82" x="79" y="119.4033">[unkown user]</text><polygon fill="#181818" points="11,144.1152,1,148.1152,11,152.1152,7,148.1152" style="stroke:#181818;stroke-width:1.0;"/><line style="stroke:#181818;stroke-width:1.0;stroke-dasharray:2.0,2.0;" x1="5" x2="200" y1="148.1152" y2="148.1152"/><text fill="#000000" font-family="sans-serif" font-size="13" font-weight="bold" lengthAdjust="spacing" textLength="7" x="17" y="142.8525">2</text><text fill="#000000" font-family="sans-serif" font-size="13" lengthAdjust="spacing" textLength="105" x="28" y="142.8525">401: Unauthorized</text><line style="stroke:#000000;stroke-width:1.0;stroke-dasharray:2.0,2.0;" x1="3" x2="310" y1="157.1152" y2="157.1152"/><text fill="#000000" font-family="sans-serif" font-size="11" font-weight="bold" lengthAdjust="spacing" textLength="110" x="8" y="168.9854">[user not autorized]</text><polygon fill="#181818" points="11,192.0371,1,196.0371,11,200.0371,7,196.0371" style="stroke:#181818;stroke-width:1.0;"/><line style="stroke:#181818;stroke-width:1.0;stroke-dasharray:2.0,2.0;" x1="5" x2="200" y1="196.0371" y2="196.0371"/><text fill="#000000" font-family="sans-serif" font-size="13" font-weight="bold" lengthAdjust="spacing" textLength="7" x="17" y="190.7744">3</text><text fill="#000000" font-family="sans-serif" font-size="13" lengthAdjust="spacing" textLength="86" x="28" y="190.7744">403: Forbidden</text><line style="stroke:#000000;stroke-width:1.0;stroke-dasharray:2.0,2.0;" x1="3" x2="310" y1="205.0371" y2="205.0371"/><text fill="#000000" font-family="sans-serif" font-size="11" font-weight="bold" lengthAdjust="spacing" textLength="96" x="8" y="216.9072">[user authorized]</text><path d="M3,227.668 L64,227.668 L64,236.959 L54,246.959 L3,246.959 L3,227.668 " fill="#EEEEEE" style="stroke:#000000;stroke-width:1.5;"/><rect fill="none" height="179.7168" style="stroke:#000000;stroke-width:1.5;" width="297" x="3" y="227.668"/><text fill="#000000" font-family="sans-serif" font-size="13" font-weight="bold" lengthAdjust="spacing" textLength="16" x="18" y="242.6963">alt</text><text fill="#000000" font-family="sans-serif" font-size="11" font-weight="bold" lengthAdjust="spacing" textLength="145" x="79" y="241.5381">[robot type already exists]</text><polygon fill="#181818" points="11,266.25,1,270.25,11,274.25,7,270.25" style="stroke:#181818;stroke-width:1.0;"/><line style="stroke:#181818;stroke-width:1.0;stroke-dasharray:2.0,2.0;" x1="5" x2="200" y1="270.25" y2="270.25"/><text fill="#000000" font-family="sans-serif" font-size="13" font-weight="bold" lengthAdjust="spacing" textLength="7" x="17" y="264.9873">4</text><text fill="#000000" font-family="sans-serif" font-size="13" lengthAdjust="spacing" textLength="138" x="28" y="264.9873">412: precondition Failed</text><line style="stroke:#000000;stroke-width:1.0;stroke-dasharray:2.0,2.0;" x1="3" x2="300" y1="279.25" y2="279.25"/><text fill="#000000" font-family="sans-serif" font-size="11" font-weight="bold" lengthAdjust="spacing" textLength="121" x="8" y="291.1201">[robot type not found]</text><path d="M3,301.8809 L64,301.8809 L64,311.1719 L54,321.1719 L3,321.1719 L3,301.8809 " fill="#EEEEEE" style="stroke:#000000;stroke-width:1.5;"/><rect fill="none" height="98.5039" style="stroke:#000000;stroke-width:1.5;" width="287" x="3" y="301.8809"/><text fill="#000000" font-family="sans-serif" font-size="13" font-weight="bold" lengthAdjust="spacing" textLength="16" x="18" y="316.9092">alt</text><text fill="#000000" font-family="sans-serif" font-size="11" font-weight="bold" lengthAdjust="spacing" textLength="131" x="79" y="315.751">[robot type not created]</text><polygon fill="#181818" points="11,340.4629,1,344.4629,11,348.4629,7,344.4629" style="stroke:#181818;stroke-width:1.0;"/><line style="stroke:#181818;stroke-width:1.0;stroke-dasharray:2.0,2.0;" x1="5" x2="200" y1="344.4629" y2="344.4629"/><text fill="#000000" font-family="sans-serif" font-size="13" font-weight="bold" lengthAdjust="spacing" textLength="7" x="17" y="339.2002">5</text><text fill="#000000" font-family="sans-serif" font-size="13" lengthAdjust="spacing" textLength="164" x="28" y="339.2002">422: Unprocessable Content</text><line style="stroke:#000000;stroke-width:1.0;stroke-dasharray:2.0,2.0;" x1="3" x2="290" y1="353.4629" y2="353.4629"/><text fill="#000000" font-family="sans-serif" font-size="11" font-weight="bold" lengthAdjust="spacing" textLength="183" x="8" y="365.333">[robot type created successfully]</text><polygon fill="#181818" points="11,388.3848,1,392.3848,11,396.3848,7,392.3848" style="stroke:#181818;stroke-width:1.0;"/><line style="stroke:#181818;stroke-width:1.0;stroke-dasharray:2.0,2.0;" x1="5" x2="200" y1="392.3848" y2="392.3848"/><text fill="#000000" font-family="sans-serif" font-size="13" font-weight="bold" lengthAdjust="spacing" textLength="7" x="17" y="387.1221">6</text><text fill="#000000" font-family="sans-serif" font-size="13" lengthAdjust="spacing" textLength="74" x="28" y="387.1221">201: Created</text><!--SRC=[TL7DJiCm3BxtAQpTArZXL4sz38qZYC5fNDB44n6PNIKEK9wU90me7UGIE_RtOqT5OOg77drLLOFoOhKT50aiLgim1i53rptIjaHmn_sLPy9hNe0AaEe91EdiwYvdBTpURE_Xp7FF8kE0uREijDWN9LWGvS49H7hcLu8OaZGSpsvLrxa9MhWyNxRmG2hA4tlxZgOqeGjO840ia8gJsWd1HGiRzhqr1cc6dj5cFyKqPDSfzQZC2FXcWuGJyiIzR5eOF6ecOyKomKPPD_KuOSjEznpfn-LCBZVef2YJGUR3D4tUnk1POmYgTmXh9a6IRyHSziW88UgCsKVdnl_ecxpizHyMSEBwAyvt2Gp- -jZg0m00]--></g></svg>