<?xml version="1.0" encoding="us-ascii" standalone="no"?><svg xmlns="http://www.w3.org/2000/svg" xmlns:xlink="http://www.w3.org/1999/xlink" contentStyleType="text/css" height="1221px" preserveAspectRatio="none" style="width:1483px;height:1221px;background:#FFFFFF;" version="1.1" viewBox="0 0 1483 1221" width="1483px" zoomAndPan="magnify"><defs/><g><!--cluster system--><g id="cluster_system"><path d="M8.5,6.0137 L58.5,6.0137 A3.75,3.75 0 0 1 61,8.5137 L68,30.6348 L1473.5,30.6348 A2.5,2.5 0 0 1 1476,33.1348 L1476,1211.5137 A2.5,2.5 0 0 1 1473.5,1214.0137 L8.5,1214.0137 A2.5,2.5 0 0 1 6,1211.5137 L6,8.5137 A2.5,2.5 0 0 1 8.5,6.0137 " fill="none" style="stroke:#000000;stroke-width:1.5;"/><line style="stroke:#000000;stroke-width:1.5;" x1="6" x2="68" y1="30.6348" y2="30.6348"/><text fill="#000000" font-family="sans-serif" font-size="14" font-weight="bold" lengthAdjust="spacing" textLength="49" x="10" y="23.1211">system</text></g><!--cluster Infrastructure--><g id="cluster_Infrastructure"><path d="M303.5,51.0137 L401.5,51.0137 A3.75,3.75 0 0 1 404,53.5137 L411,75.6348 L777.5,75.6348 A2.5,2.5 0 0 1 780,78.1348 L780,218.5137 A2.5,2.5 0 0 1 777.5,221.0137 L303.5,221.0137 A2.5,2.5 0 0 1 301,218.5137 L301,53.5137 A2.5,2.5 0 0 1 303.5,51.0137 " fill="none" style="stroke:#000000;stroke-width:1.5;"/><line style="stroke:#000000;stroke-width:1.5;" x1="301" x2="411" y1="75.6348" y2="75.6348"/><text fill="#000000" font-family="sans-serif" font-size="14" font-weight="bold" lengthAdjust="spacing" textLength="97" x="305" y="68.1211">Infrastructure</text></g><!--cluster Routes--><g id="cluster_Routes"><path d="M600.5,96.0137 L651.5,96.0137 A3.75,3.75 0 0 1 654,98.5137 L661,120.6348 L753.5,120.6348 A2.5,2.5 0 0 1 756,123.1348 L756,194.5137 A2.5,2.5 0 0 1 753.5,197.0137 L600.5,197.0137 A2.5,2.5 0 0 1 598,194.5137 L598,98.5137 A2.5,2.5 0 0 1 600.5,96.0137 " fill="none" style="stroke:#000000;stroke-width:1.5;"/><line style="stroke:#000000;stroke-width:1.5;" x1="598" x2="661" y1="120.6348" y2="120.6348"/><text fill="#000000" font-family="sans-serif" font-size="14" font-weight="bold" lengthAdjust="spacing" textLength="50" x="602" y="113.1211">Routes</text></g><!--cluster Persistence--><g id="cluster_Persistence"><path d="M327.5,96.0137 L412.5,96.0137 A3.75,3.75 0 0 1 415,98.5137 L422,120.6348 L571.5,120.6348 A2.5,2.5 0 0 1 574,123.1348 L574,194.5137 A2.5,2.5 0 0 1 571.5,197.0137 L327.5,197.0137 A2.5,2.5 0 0 1 325,194.5137 L325,98.5137 A2.5,2.5 0 0 1 327.5,96.0137 " fill="none" style="stroke:#000000;stroke-width:1.5;"/><line style="stroke:#000000;stroke-width:1.5;" x1="325" x2="422" y1="120.6348" y2="120.6348"/><text fill="#000000" font-family="sans-serif" font-size="14" font-weight="bold" lengthAdjust="spacing" textLength="84" x="329" y="113.1211">Persistence</text></g><!--cluster Interface Adapters--><g id="cluster_Interface Adapters"><path d="M32.5,319.0137 L163.5,319.0137 A3.75,3.75 0 0 1 166,321.5137 L173,343.6348 L638.5,343.6348 A2.5,2.5 0 0 1 641,346.1348 L641,770.5137 A2.5,2.5 0 0 1 638.5,773.0137 L32.5,773.0137 A2.5,2.5 0 0 1 30,770.5137 L30,321.5137 A2.5,2.5 0 0 1 32.5,319.0137 " fill="none" style="stroke:#000000;stroke-width:1.5;"/><line style="stroke:#000000;stroke-width:1.5;" x1="30" x2="173" y1="343.6348" y2="343.6348"/><text fill="#000000" font-family="sans-serif" font-size="14" font-weight="bold" lengthAdjust="spacing" textLength="130" x="34" y="336.1211">Interface Adapters</text></g><!--cluster Controllers--><g id="cluster_Controllers"><path d="M56.5,364.0137 L136.5,364.0137 A3.75,3.75 0 0 1 139,366.5137 L146,388.6348 L285.5,388.6348 A2.5,2.5 0 0 1 288,391.1348 L288,746.5137 A2.5,2.5 0 0 1 285.5,749.0137 L56.5,749.0137 A2.5,2.5 0 0 1 54,746.5137 L54,366.5137 A2.5,2.5 0 0 1 56.5,364.0137 " fill="none" style="stroke:#000000;stroke-width:1.5;"/><line style="stroke:#000000;stroke-width:1.5;" x1="54" x2="146" y1="388.6348" y2="388.6348"/><text fill="#000000" font-family="sans-serif" font-size="14" font-weight="bold" lengthAdjust="spacing" textLength="79" x="58" y="381.1211">Controllers</text></g><!--cluster IControllers--><g id="cluster_IControllers"><path d="M80.5,409.0137 L164.5,409.0137 A3.75,3.75 0 0 1 167,411.5137 L174,433.6348 L261.5,433.6348 A2.5,2.5 0 0 1 264,436.1348 L264,507.5137 A2.5,2.5 0 0 1 261.5,510.0137 L80.5,510.0137 A2.5,2.5 0 0 1 78,507.5137 L78,411.5137 A2.5,2.5 0 0 1 80.5,409.0137 " fill="none" style="stroke:#000000;stroke-width:1.5;"/><line style="stroke:#000000;stroke-width:1.5;" x1="78" x2="174" y1="433.6348" y2="433.6348"/><text fill="#000000" font-family="sans-serif" font-size="14" font-weight="bold" lengthAdjust="spacing" textLength="83" x="82" y="426.1211">IControllers</text></g><!--cluster ImplControllers--><g id="cluster_ImplControllers"><path d="M83.5,624.0137 L192.5,624.0137 A3.75,3.75 0 0 1 195,626.5137 L202,648.6348 L260.5,648.6348 A2.5,2.5 0 0 1 263,651.1348 L263,722.5137 A2.5,2.5 0 0 1 260.5,725.0137 L83.5,725.0137 A2.5,2.5 0 0 1 81,722.5137 L81,626.5137 A2.5,2.5 0 0 1 83.5,624.0137 " fill="none" style="stroke:#000000;stroke-width:1.5;"/><line style="stroke:#000000;stroke-width:1.5;" x1="81" x2="202" y1="648.6348" y2="648.6348"/><text fill="#000000" font-family="sans-serif" font-size="14" font-weight="bold" lengthAdjust="spacing" textLength="108" x="85" y="641.1211">ImplControllers</text></g><!--cluster Repositories--><g id="cluster_Repositories"><path d="M314.5,409.0137 L405.5,409.0137 A3.75,3.75 0 0 1 408,411.5137 L415,433.6348 L614.5,433.6348 A2.5,2.5 0 0 1 617,436.1348 L617,507.5137 A2.5,2.5 0 0 1 614.5,510.0137 L314.5,510.0137 A2.5,2.5 0 0 1 312,507.5137 L312,411.5137 A2.5,2.5 0 0 1 314.5,409.0137 " fill="none" style="stroke:#000000;stroke-width:1.5;"/><line style="stroke:#000000;stroke-width:1.5;" x1="312" x2="415" y1="433.6348" y2="433.6348"/><text fill="#000000" font-family="sans-serif" font-size="14" font-weight="bold" lengthAdjust="spacing" textLength="90" x="316" y="426.1211">Repositories</text></g><!--cluster Application Services--><g id="cluster_Application Services"><path d="M667.5,534.0137 L812.5,534.0137 A3.75,3.75 0 0 1 815,536.5137 L822,558.6348 L1071.5,558.6348 A2.5,2.5 0 0 1 1074,561.1348 L1074,1173.0137 A2.5,2.5 0 0 1 1071.5,1175.5137 L667.5,1175.5137 A2.5,2.5 0 0 1 665,1173.0137 L665,536.5137 A2.5,2.5 0 0 1 667.5,534.0137 " fill="none" style="stroke:#000000;stroke-width:1.5;"/><line style="stroke:#000000;stroke-width:1.5;" x1="665" x2="822" y1="558.6348" y2="558.6348"/><text fill="#000000" font-family="sans-serif" font-size="14" font-weight="bold" lengthAdjust="spacing" textLength="144" x="669" y="551.1211">Application Services</text></g><!--cluster App Services--><g id="cluster_App Services"><path d="M691.5,579.0137 L785.5,579.0137 A3.75,3.75 0 0 1 788,581.5137 L795,603.6348 L1047.5,603.6348 A2.5,2.5 0 0 1 1050,606.1348 L1050,1149.0137 A2.5,2.5 0 0 1 1047.5,1151.5137 L691.5,1151.5137 A2.5,2.5 0 0 1 689,1149.0137 L689,581.5137 A2.5,2.5 0 0 1 691.5,579.0137 " fill="none" style="stroke:#000000;stroke-width:1.5;"/><line style="stroke:#000000;stroke-width:1.5;" x1="689" x2="795" y1="603.6348" y2="603.6348"/><text fill="#000000" font-family="sans-serif" font-size="14" font-weight="bold" lengthAdjust="spacing" textLength="93" x="693" y="596.1211">App Services</text></g><!--cluster IAppServices--><g id="cluster_IAppServices"><path d="M775.5,1026.5137 L869.5,1026.5137 A3.75,3.75 0 0 1 872,1029.0137 L879,1051.1348 L964.5,1051.1348 A2.5,2.5 0 0 1 967,1053.6348 L967,1125.0137 A2.5,2.5 0 0 1 964.5,1127.5137 L775.5,1127.5137 A2.5,2.5 0 0 1 773,1125.0137 L773,1029.0137 A2.5,2.5 0 0 1 775.5,1026.5137 " fill="none" style="stroke:#000000;stroke-width:1.5;"/><line style="stroke:#000000;stroke-width:1.5;" x1="773" x2="879" y1="1051.1348" y2="1051.1348"/><text fill="#000000" font-family="sans-serif" font-size="14" font-weight="bold" lengthAdjust="spacing" textLength="93" x="777" y="1043.6211">IAppServices</text></g><!--cluster ImplAppServices--><g id="cluster_ImplAppServices"><path d="M836.5,797.0137 L955.5,797.0137 A3.75,3.75 0 0 1 958,799.5137 L965,821.6348 L1023.5,821.6348 A2.5,2.5 0 0 1 1026,824.1348 L1026,895.5137 A2.5,2.5 0 0 1 1023.5,898.0137 L836.5,898.0137 A2.5,2.5 0 0 1 834,895.5137 L834,799.5137 A2.5,2.5 0 0 1 836.5,797.0137 " fill="none" style="stroke:#000000;stroke-width:1.5;"/><line style="stroke:#000000;stroke-width:1.5;" x1="834" x2="965" y1="821.6348" y2="821.6348"/><text fill="#000000" font-family="sans-serif" font-size="14" font-weight="bold" lengthAdjust="spacing" textLength="118" x="838" y="814.1211">ImplAppServices</text></g><!--cluster IRepositories--><g id="cluster_IRepositories"><path d="M715.5,624.0137 L810.5,624.0137 A3.75,3.75 0 0 1 813,626.5137 L820,648.6348 L1023.5,648.6348 A2.5,2.5 0 0 1 1026,651.1348 L1026,722.5137 A2.5,2.5 0 0 1 1023.5,725.0137 L715.5,725.0137 A2.5,2.5 0 0 1 713,722.5137 L713,626.5137 A2.5,2.5 0 0 1 715.5,624.0137 " fill="none" style="stroke:#000000;stroke-width:1.5;"/><line style="stroke:#000000;stroke-width:1.5;" x1="713" x2="820" y1="648.6348" y2="648.6348"/><text fill="#000000" font-family="sans-serif" font-size="14" font-weight="bold" lengthAdjust="spacing" textLength="94" x="717" y="641.1211">IRepositories</text></g><!--cluster Entities/Core/Domain--><g id="cluster_Entities/Core/Domain"><path d="M1100.5,922.0137 L1248.5,922.0137 A3.75,3.75 0 0 1 1251,924.5137 L1258,946.6348 L1449.5,946.6348 A2.5,2.5 0 0 1 1452,949.1348 L1452,1187.5137 A2.5,2.5 0 0 1 1449.5,1190.0137 L1100.5,1190.0137 A2.5,2.5 0 0 1 1098,1187.5137 L1098,924.5137 A2.5,2.5 0 0 1 1100.5,922.0137 " fill="none" style="stroke:#000000;stroke-width:1.5;"/><line style="stroke:#000000;stroke-width:1.5;" x1="1098" x2="1258" y1="946.6348" y2="946.6348"/><text fill="#000000" font-family="sans-serif" font-size="14" font-weight="bold" lengthAdjust="spacing" textLength="147" x="1102" y="939.1211">Entities/Core/Domain</text></g><!--cluster Aggregates--><g id="cluster_Aggregates"><path d="M1124.5,967.0137 L1206.5,967.0137 A3.75,3.75 0 0 1 1209,969.5137 L1216,991.6348 L1425.5,991.6348 A2.5,2.5 0 0 1 1428,994.1348 L1428,1163.5137 A2.5,2.5 0 0 1 1425.5,1166.0137 L1124.5,1166.0137 A2.5,2.5 0 0 1 1122,1163.5137 L1122,969.5137 A2.5,2.5 0 0 1 1124.5,967.0137 " fill="none" style="stroke:#000000;stroke-width:1.5;"/><line style="stroke:#000000;stroke-width:1.5;" x1="1122" x2="1216" y1="991.6348" y2="991.6348"/><text fill="#000000" font-family="sans-serif" font-size="14" font-weight="bold" lengthAdjust="spacing" textLength="81" x="1126" y="984.1211">Aggregates</text></g><!--cluster a_Passage--><g id="cluster_a_Passage"><path d="M1286.5,1012.0137 L1346.5,1012.0137 A3.75,3.75 0 0 1 1349,1014.5137 L1356,1036.6348 L1401.5,1036.6348 A2.5,2.5 0 0 1 1404,1039.1348 L1404,1139.5137 A2.5,2.5 0 0 1 1401.5,1142.0137 L1286.5,1142.0137 A2.5,2.5 0 0 1 1284,1139.5137 L1284,1014.5137 A2.5,2.5 0 0 1 1286.5,1012.0137 " fill="none" style="stroke:#000000;stroke-width:1.5;"/><line style="stroke:#000000;stroke-width:1.5;" x1="1284" x2="1356" y1="1036.6348" y2="1036.6348"/><text fill="#000000" font-family="sans-serif" font-size="14" font-weight="bold" lengthAdjust="spacing" textLength="59" x="1288" y="1029.1211">Passage</text></g><!--cluster a_building--><g id="cluster_a_building"><path d="M1148.5,1012.0137 L1207.5,1012.0137 A3.75,3.75 0 0 1 1210,1014.5137 L1217,1036.6348 L1257.5,1036.6348 A2.5,2.5 0 0 1 1260,1039.1348 L1260,1139.5137 A2.5,2.5 0 0 1 1257.5,1142.0137 L1148.5,1142.0137 A2.5,2.5 0 0 1 1146,1139.5137 L1146,1014.5137 A2.5,2.5 0 0 1 1148.5,1012.0137 " fill="none" style="stroke:#000000;stroke-width:1.5;"/><line style="stroke:#000000;stroke-width:1.5;" x1="1146" x2="1217" y1="1036.6348" y2="1036.6348"/><text fill="#000000" font-family="sans-serif" font-size="14" font-weight="bold" lengthAdjust="spacing" textLength="58" x="1150" y="1029.1211">Building</text></g><!--class RoutePassage--><g id="elem_RoutePassage"><rect codeLine="16" fill="#F1F1F1" height="48" id="RoutePassage" rx="2.5" ry="2.5" style="stroke:#181818;stroke-width:0.5;" width="125" x="614.5" y="133.0137"/><ellipse cx="629.5" cy="149.0137" fill="#ADD1B2" rx="11" ry="11" style="stroke:#181818;stroke-width:1.0;"/><path d="M632.2656,144.8887 Q632.4219,144.6699 632.6094,144.5605 Q632.7969,144.4512 633.0156,144.4512 Q633.3906,144.4512 633.625,144.7168 Q633.8594,144.9668 633.8594,145.5762 L633.8594,147.0293 Q633.8594,147.6387 633.625,147.9043 Q633.3906,148.1699 633.0156,148.1699 Q632.6719,148.1699 632.4688,147.9668 Q632.2656,147.7793 632.1563,147.2637 Q632.1094,146.9043 631.9219,146.7168 Q631.5938,146.3418 630.9844,146.123 Q630.375,145.9043 629.75,145.9043 Q628.9844,145.9043 628.3438,146.2324 Q627.7188,146.5605 627.2188,147.3105 Q626.7344,148.0605 626.7344,149.0918 L626.7344,150.1855 Q626.7344,151.4199 627.625,152.248 Q628.5156,153.0605 630.1094,153.0605 Q631.0469,153.0605 631.7031,152.8105 Q632.0938,152.6543 632.5156,152.2168 Q632.7813,151.9512 632.9219,151.873 Q633.0781,151.7949 633.2813,151.7949 Q633.6094,151.7949 633.8594,152.0605 Q634.125,152.3105 634.125,152.6543 Q634.125,152.998 633.7813,153.4043 Q633.2813,153.9824 632.4844,154.3105 Q631.4063,154.7637 630.1094,154.7637 Q628.5938,154.7637 627.3906,154.1387 Q626.4063,153.6387 625.7188,152.5762 Q625.0313,151.498 625.0313,150.2168 L625.0313,149.0605 Q625.0313,147.7324 625.6406,146.5918 Q626.2656,145.4355 627.3594,144.8262 Q628.4531,144.2012 629.6875,144.2012 Q630.4219,144.2012 631.0625,144.373 Q631.7188,144.5293 632.2656,144.8887 Z " fill="#000000"/><text fill="#000000" font-family="sans-serif" font-size="14" lengthAdjust="spacing" textLength="93" x="643.5" y="154.8105">RoutePassage</text><line style="stroke:#181818;stroke-width:0.5;" x1="615.5" x2="738.5" y1="165.0137" y2="165.0137"/><line style="stroke:#181818;stroke-width:0.5;" x1="615.5" x2="738.5" y1="173.0137" y2="173.0137"/></g><!--class IDBDriver--><g id="elem_IDBDriver"><rect codeLine="20" fill="#F1F1F1" height="48" id="IDBDriver" rx="2.5" ry="2.5" style="stroke:#181818;stroke-width:0.5;" width="92" x="466" y="133.0137"/><ellipse cx="481" cy="149.0137" fill="#B4A7E5" rx="11" ry="11" style="stroke:#181818;stroke-width:1.0;"/><path d="M481.9531,145.6543 L481.9531,152.3105 L483.6719,152.3105 Q484.2813,152.3105 484.5469,152.5449 Q484.8125,152.7793 484.8125,153.1699 Q484.8125,153.5449 484.5469,153.7793 Q484.2813,154.0137 483.6719,154.0137 L478.5313,154.0137 Q477.9219,154.0137 477.6563,153.7793 Q477.3906,153.5449 477.3906,153.1543 Q477.3906,152.7793 477.6563,152.5449 Q477.9219,152.3105 478.5313,152.3105 L480.25,152.3105 L480.25,145.6543 L478.5313,145.6543 Q477.9219,145.6543 477.6563,145.4199 Q477.3906,145.1855 477.3906,144.7949 Q477.3906,144.4199 477.6563,144.1855 Q477.9219,143.9512 478.5313,143.9512 L483.6719,143.9512 Q484.2813,143.9512 484.5469,144.1855 Q484.8125,144.4199 484.8125,144.7949 Q484.8125,145.1855 484.5469,145.4199 Q484.2813,145.6543 483.6719,145.6543 L481.9531,145.6543 Z " fill="#000000"/><text fill="#000000" font-family="sans-serif" font-size="14" font-style="italic" lengthAdjust="spacing" textLength="60" x="495" y="154.8105">IDBDriver</text><line style="stroke:#181818;stroke-width:0.5;" x1="467" x2="557" y1="165.0137" y2="165.0137"/><line style="stroke:#181818;stroke-width:0.5;" x1="467" x2="557" y1="173.0137" y2="173.0137"/></g><!--class DBDriver--><g id="elem_DBDriver"><rect codeLine="21" fill="#F1F1F1" height="48" id="DBDriver" rx="2.5" ry="2.5" style="stroke:#181818;stroke-width:0.5;" width="89" x="341.5" y="133.0137"/><ellipse cx="356.5" cy="149.0137" fill="#ADD1B2" rx="11" ry="11" style="stroke:#181818;stroke-width:1.0;"/><path d="M359.2656,144.8887 Q359.4219,144.6699 359.6094,144.5605 Q359.7969,144.4512 360.0156,144.4512 Q360.3906,144.4512 360.625,144.7168 Q360.8594,144.9668 360.8594,145.5762 L360.8594,147.0293 Q360.8594,147.6387 360.625,147.9043 Q360.3906,148.1699 360.0156,148.1699 Q359.6719,148.1699 359.4688,147.9668 Q359.2656,147.7793 359.1563,147.2637 Q359.1094,146.9043 358.9219,146.7168 Q358.5938,146.3418 357.9844,146.123 Q357.375,145.9043 356.75,145.9043 Q355.9844,145.9043 355.3438,146.2324 Q354.7188,146.5605 354.2188,147.3105 Q353.7344,148.0605 353.7344,149.0918 L353.7344,150.1855 Q353.7344,151.4199 354.625,152.248 Q355.5156,153.0605 357.1094,153.0605 Q358.0469,153.0605 358.7031,152.8105 Q359.0938,152.6543 359.5156,152.2168 Q359.7813,151.9512 359.9219,151.873 Q360.0781,151.7949 360.2813,151.7949 Q360.6094,151.7949 360.8594,152.0605 Q361.125,152.3105 361.125,152.6543 Q361.125,152.998 360.7813,153.4043 Q360.2813,153.9824 359.4844,154.3105 Q358.4063,154.7637 357.1094,154.7637 Q355.5938,154.7637 354.3906,154.1387 Q353.4063,153.6387 352.7188,152.5762 Q352.0313,151.498 352.0313,150.2168 L352.0313,149.0605 Q352.0313,147.7324 352.6406,146.5918 Q353.2656,145.4355 354.3594,144.8262 Q355.4531,144.2012 356.6875,144.2012 Q357.4219,144.2012 358.0625,144.373 Q358.7188,144.5293 359.2656,144.8887 Z " fill="#000000"/><text fill="#000000" font-family="sans-serif" font-size="14" lengthAdjust="spacing" textLength="57" x="370.5" y="154.8105">DBDriver</text><line style="stroke:#181818;stroke-width:0.5;" x1="342.5" x2="429.5" y1="165.0137" y2="165.0137"/><line style="stroke:#181818;stroke-width:0.5;" x1="342.5" x2="429.5" y1="173.0137" y2="173.0137"/></g><!--class IControllerPassage--><g id="elem_IControllerPassage"><rect codeLine="30" fill="#F1F1F1" height="48" id="IControllerPassage" rx="2.5" ry="2.5" style="stroke:#181818;stroke-width:0.5;" width="153" x="94.5" y="446.0137"/><ellipse cx="109.5" cy="462.0137" fill="#B4A7E5" rx="11" ry="11" style="stroke:#181818;stroke-width:1.0;"/><path d="M110.4531,458.6543 L110.4531,465.3105 L112.1719,465.3105 Q112.7813,465.3105 113.0469,465.5449 Q113.3125,465.7793 113.3125,466.1699 Q113.3125,466.5449 113.0469,466.7793 Q112.7813,467.0137 112.1719,467.0137 L107.0313,467.0137 Q106.4219,467.0137 106.1563,466.7793 Q105.8906,466.5449 105.8906,466.1543 Q105.8906,465.7793 106.1563,465.5449 Q106.4219,465.3105 107.0313,465.3105 L108.75,465.3105 L108.75,458.6543 L107.0313,458.6543 Q106.4219,458.6543 106.1563,458.4199 Q105.8906,458.1855 105.8906,457.7949 Q105.8906,457.4199 106.1563,457.1855 Q106.4219,456.9512 107.0313,456.9512 L112.1719,456.9512 Q112.7813,456.9512 113.0469,457.1855 Q113.3125,457.4199 113.3125,457.7949 Q113.3125,458.1855 113.0469,458.4199 Q112.7813,458.6543 112.1719,458.6543 L110.4531,458.6543 Z " fill="#000000"/><text fill="#000000" font-family="sans-serif" font-size="14" font-style="italic" lengthAdjust="spacing" textLength="121" x="123.5" y="467.8105">IControllerPassage</text><line style="stroke:#181818;stroke-width:0.5;" x1="95.5" x2="246.5" y1="478.0137" y2="478.0137"/><line style="stroke:#181818;stroke-width:0.5;" x1="95.5" x2="246.5" y1="486.0137" y2="486.0137"/></g><!--class ControllerPassage--><g id="elem_ControllerPassage"><rect codeLine="34" fill="#F1F1F1" height="48" id="ControllerPassage" rx="2.5" ry="2.5" style="stroke:#181818;stroke-width:0.5;" width="149" x="97.5" y="661.0137"/><ellipse cx="112.5" cy="677.0137" fill="#ADD1B2" rx="11" ry="11" style="stroke:#181818;stroke-width:1.0;"/><path d="M115.2656,672.8887 Q115.4219,672.6699 115.6094,672.5605 Q115.7969,672.4512 116.0156,672.4512 Q116.3906,672.4512 116.625,672.7168 Q116.8594,672.9668 116.8594,673.5762 L116.8594,675.0293 Q116.8594,675.6387 116.625,675.9043 Q116.3906,676.1699 116.0156,676.1699 Q115.6719,676.1699 115.4688,675.9668 Q115.2656,675.7793 115.1563,675.2637 Q115.1094,674.9043 114.9219,674.7168 Q114.5938,674.3418 113.9844,674.123 Q113.375,673.9043 112.75,673.9043 Q111.9844,673.9043 111.3438,674.2324 Q110.7188,674.5605 110.2188,675.3105 Q109.7344,676.0605 109.7344,677.0918 L109.7344,678.1855 Q109.7344,679.4199 110.625,680.248 Q111.5156,681.0605 113.1094,681.0605 Q114.0469,681.0605 114.7031,680.8105 Q115.0938,680.6543 115.5156,680.2168 Q115.7813,679.9512 115.9219,679.873 Q116.0781,679.7949 116.2813,679.7949 Q116.6094,679.7949 116.8594,680.0605 Q117.125,680.3105 117.125,680.6543 Q117.125,680.998 116.7813,681.4043 Q116.2813,681.9824 115.4844,682.3105 Q114.4063,682.7637 113.1094,682.7637 Q111.5938,682.7637 110.3906,682.1387 Q109.4063,681.6387 108.7188,680.5762 Q108.0313,679.498 108.0313,678.2168 L108.0313,677.0605 Q108.0313,675.7324 108.6406,674.5918 Q109.2656,673.4355 110.3594,672.8262 Q111.4531,672.2012 112.6875,672.2012 Q113.4219,672.2012 114.0625,672.373 Q114.7188,672.5293 115.2656,672.8887 Z " fill="#000000"/><text fill="#000000" font-family="sans-serif" font-size="14" lengthAdjust="spacing" textLength="117" x="126.5" y="682.8105">ControllerPassage</text><line style="stroke:#181818;stroke-width:0.5;" x1="98.5" x2="245.5" y1="693.0137" y2="693.0137"/><line style="stroke:#181818;stroke-width:0.5;" x1="98.5" x2="245.5" y1="701.0137" y2="701.0137"/></g><!--class RepoBuilding--><g id="elem_RepoBuilding"><rect codeLine="40" fill="#F1F1F1" height="48" id="RepoBuilding" rx="2.5" ry="2.5" style="stroke:#181818;stroke-width:0.5;" width="116" x="328" y="446.0137"/><ellipse cx="343" cy="462.0137" fill="#ADD1B2" rx="11" ry="11" style="stroke:#181818;stroke-width:1.0;"/><path d="M345.7656,457.8887 Q345.9219,457.6699 346.1094,457.5605 Q346.2969,457.4512 346.5156,457.4512 Q346.8906,457.4512 347.125,457.7168 Q347.3594,457.9668 347.3594,458.5762 L347.3594,460.0293 Q347.3594,460.6387 347.125,460.9043 Q346.8906,461.1699 346.5156,461.1699 Q346.1719,461.1699 345.9688,460.9668 Q345.7656,460.7793 345.6563,460.2637 Q345.6094,459.9043 345.4219,459.7168 Q345.0938,459.3418 344.4844,459.123 Q343.875,458.9043 343.25,458.9043 Q342.4844,458.9043 341.8438,459.2324 Q341.2188,459.5605 340.7188,460.3105 Q340.2344,461.0605 340.2344,462.0918 L340.2344,463.1855 Q340.2344,464.4199 341.125,465.248 Q342.0156,466.0605 343.6094,466.0605 Q344.5469,466.0605 345.2031,465.8105 Q345.5938,465.6543 346.0156,465.2168 Q346.2813,464.9512 346.4219,464.873 Q346.5781,464.7949 346.7813,464.7949 Q347.1094,464.7949 347.3594,465.0605 Q347.625,465.3105 347.625,465.6543 Q347.625,465.998 347.2813,466.4043 Q346.7813,466.9824 345.9844,467.3105 Q344.9063,467.7637 343.6094,467.7637 Q342.0938,467.7637 340.8906,467.1387 Q339.9063,466.6387 339.2188,465.5762 Q338.5313,464.498 338.5313,463.2168 L338.5313,462.0605 Q338.5313,460.7324 339.1406,459.5918 Q339.7656,458.4355 340.8594,457.8262 Q341.9531,457.2012 343.1875,457.2012 Q343.9219,457.2012 344.5625,457.373 Q345.2188,457.5293 345.7656,457.8887 Z " fill="#000000"/><text fill="#000000" font-family="sans-serif" font-size="14" lengthAdjust="spacing" textLength="84" x="357" y="467.8105">RepoBuilding</text><line style="stroke:#181818;stroke-width:0.5;" x1="329" x2="443" y1="478.0137" y2="478.0137"/><line style="stroke:#181818;stroke-width:0.5;" x1="329" x2="443" y1="486.0137" y2="486.0137"/></g><!--class RepoPassage--><g id="elem_RepoPassage"><rect codeLine="41" fill="#F1F1F1" height="48" id="RepoPassage" rx="2.5" ry="2.5" style="stroke:#181818;stroke-width:0.5;" width="121" x="479.5" y="446.0137"/><ellipse cx="494.5" cy="462.0137" fill="#ADD1B2" rx="11" ry="11" style="stroke:#181818;stroke-width:1.0;"/><path d="M497.2656,457.8887 Q497.4219,457.6699 497.6094,457.5605 Q497.7969,457.4512 498.0156,457.4512 Q498.3906,457.4512 498.625,457.7168 Q498.8594,457.9668 498.8594,458.5762 L498.8594,460.0293 Q498.8594,460.6387 498.625,460.9043 Q498.3906,461.1699 498.0156,461.1699 Q497.6719,461.1699 497.4688,460.9668 Q497.2656,460.7793 497.1563,460.2637 Q497.1094,459.9043 496.9219,459.7168 Q496.5938,459.3418 495.9844,459.123 Q495.375,458.9043 494.75,458.9043 Q493.9844,458.9043 493.3438,459.2324 Q492.7188,459.5605 492.2188,460.3105 Q491.7344,461.0605 491.7344,462.0918 L491.7344,463.1855 Q491.7344,464.4199 492.625,465.248 Q493.5156,466.0605 495.1094,466.0605 Q496.0469,466.0605 496.7031,465.8105 Q497.0938,465.6543 497.5156,465.2168 Q497.7813,464.9512 497.9219,464.873 Q498.0781,464.7949 498.2813,464.7949 Q498.6094,464.7949 498.8594,465.0605 Q499.125,465.3105 499.125,465.6543 Q499.125,465.998 498.7813,466.4043 Q498.2813,466.9824 497.4844,467.3105 Q496.4063,467.7637 495.1094,467.7637 Q493.5938,467.7637 492.3906,467.1387 Q491.4063,466.6387 490.7188,465.5762 Q490.0313,464.498 490.0313,463.2168 L490.0313,462.0605 Q490.0313,460.7324 490.6406,459.5918 Q491.2656,458.4355 492.3594,457.8262 Q493.4531,457.2012 494.6875,457.2012 Q495.4219,457.2012 496.0625,457.373 Q496.7188,457.5293 497.2656,457.8887 Z " fill="#000000"/><text fill="#000000" font-family="sans-serif" font-size="14" lengthAdjust="spacing" textLength="89" x="508.5" y="467.8105">RepoPassage</text><line style="stroke:#181818;stroke-width:0.5;" x1="480.5" x2="599.5" y1="478.0137" y2="478.0137"/><line style="stroke:#181818;stroke-width:0.5;" x1="480.5" x2="599.5" y1="486.0137" y2="486.0137"/></g><!--class IAppServicePassage--><g id="elem_IAppServicePassage"><rect codeLine="53" fill="#F1F1F1" height="48" id="IAppServicePassage" rx="2.5" ry="2.5" style="stroke:#181818;stroke-width:0.5;" width="162" x="789" y="1063.5137"/><ellipse cx="804" cy="1079.5137" fill="#B4A7E5" rx="11" ry="11" style="stroke:#181818;stroke-width:1.0;"/><path d="M804.9531,1076.1543 L804.9531,1082.8105 L806.6719,1082.8105 Q807.2813,1082.8105 807.5469,1083.0449 Q807.8125,1083.2793 807.8125,1083.6699 Q807.8125,1084.0449 807.5469,1084.2793 Q807.2813,1084.5137 806.6719,1084.5137 L801.5313,1084.5137 Q800.9219,1084.5137 800.6563,1084.2793 Q800.3906,1084.0449 800.3906,1083.6543 Q800.3906,1083.2793 800.6563,1083.0449 Q800.9219,1082.8105 801.5313,1082.8105 L803.25,1082.8105 L803.25,1076.1543 L801.5313,1076.1543 Q800.9219,1076.1543 800.6563,1075.9199 Q800.3906,1075.6855 800.3906,1075.2949 Q800.3906,1074.9199 800.6563,1074.6855 Q800.9219,1074.4512 801.5313,1074.4512 L806.6719,1074.4512 Q807.2813,1074.4512 807.5469,1074.6855 Q807.8125,1074.9199 807.8125,1075.2949 Q807.8125,1075.6855 807.5469,1075.9199 Q807.2813,1076.1543 806.6719,1076.1543 L804.9531,1076.1543 Z " fill="#000000"/><text fill="#000000" font-family="sans-serif" font-size="14" font-style="italic" lengthAdjust="spacing" textLength="130" x="818" y="1085.3105">IAppServicePassage</text><line style="stroke:#181818;stroke-width:0.5;" x1="790" x2="950" y1="1095.5137" y2="1095.5137"/><line style="stroke:#181818;stroke-width:0.5;" x1="790" x2="950" y1="1103.5137" y2="1103.5137"/></g><!--class AppServicePassage--><g id="elem_AppServicePassage"><rect codeLine="57" fill="#F1F1F1" height="48" id="AppServicePassage" rx="2.5" ry="2.5" style="stroke:#181818;stroke-width:0.5;" width="159" x="850.5" y="834.0137"/><ellipse cx="865.5" cy="850.0137" fill="#ADD1B2" rx="11" ry="11" style="stroke:#181818;stroke-width:1.0;"/><path d="M868.2656,845.8887 Q868.4219,845.6699 868.6094,845.5605 Q868.7969,845.4512 869.0156,845.4512 Q869.3906,845.4512 869.625,845.7168 Q869.8594,845.9668 869.8594,846.5762 L869.8594,848.0293 Q869.8594,848.6387 869.625,848.9043 Q869.3906,849.1699 869.0156,849.1699 Q868.6719,849.1699 868.4688,848.9668 Q868.2656,848.7793 868.1563,848.2637 Q868.1094,847.9043 867.9219,847.7168 Q867.5938,847.3418 866.9844,847.123 Q866.375,846.9043 865.75,846.9043 Q864.9844,846.9043 864.3438,847.2324 Q863.7188,847.5605 863.2188,848.3105 Q862.7344,849.0605 862.7344,850.0918 L862.7344,851.1855 Q862.7344,852.4199 863.625,853.248 Q864.5156,854.0605 866.1094,854.0605 Q867.0469,854.0605 867.7031,853.8105 Q868.0938,853.6543 868.5156,853.2168 Q868.7813,852.9512 868.9219,852.873 Q869.0781,852.7949 869.2813,852.7949 Q869.6094,852.7949 869.8594,853.0605 Q870.125,853.3105 870.125,853.6543 Q870.125,853.998 869.7813,854.4043 Q869.2813,854.9824 868.4844,855.3105 Q867.4063,855.7637 866.1094,855.7637 Q864.5938,855.7637 863.3906,855.1387 Q862.4063,854.6387 861.7188,853.5762 Q861.0313,852.498 861.0313,851.2168 L861.0313,850.0605 Q861.0313,848.7324 861.6406,847.5918 Q862.2656,846.4355 863.3594,845.8262 Q864.4531,845.2012 865.6875,845.2012 Q866.4219,845.2012 867.0625,845.373 Q867.7188,845.5293 868.2656,845.8887 Z " fill="#000000"/><text fill="#000000" font-family="sans-serif" font-size="14" lengthAdjust="spacing" textLength="127" x="879.5" y="855.8105">AppServicePassage</text><line style="stroke:#181818;stroke-width:0.5;" x1="851.5" x2="1008.5" y1="866.0137" y2="866.0137"/><line style="stroke:#181818;stroke-width:0.5;" x1="851.5" x2="1008.5" y1="874.0137" y2="874.0137"/></g><!--class IRepoBuilding--><g id="elem_IRepoBuilding"><rect codeLine="63" fill="#F1F1F1" height="48" id="IRepoBuilding" rx="2.5" ry="2.5" style="stroke:#181818;stroke-width:0.5;" width="120" x="729" y="661.0137"/><ellipse cx="744" cy="677.0137" fill="#B4A7E5" rx="11" ry="11" style="stroke:#181818;stroke-width:1.0;"/><path d="M744.9531,673.6543 L744.9531,680.3105 L746.6719,680.3105 Q747.2813,680.3105 747.5469,680.5449 Q747.8125,680.7793 747.8125,681.1699 Q747.8125,681.5449 747.5469,681.7793 Q747.2813,682.0137 746.6719,682.0137 L741.5313,682.0137 Q740.9219,682.0137 740.6563,681.7793 Q740.3906,681.5449 740.3906,681.1543 Q740.3906,680.7793 740.6563,680.5449 Q740.9219,680.3105 741.5313,680.3105 L743.25,680.3105 L743.25,673.6543 L741.5313,673.6543 Q740.9219,673.6543 740.6563,673.4199 Q740.3906,673.1855 740.3906,672.7949 Q740.3906,672.4199 740.6563,672.1855 Q740.9219,671.9512 741.5313,671.9512 L746.6719,671.9512 Q747.2813,671.9512 747.5469,672.1855 Q747.8125,672.4199 747.8125,672.7949 Q747.8125,673.1855 747.5469,673.4199 Q747.2813,673.6543 746.6719,673.6543 L744.9531,673.6543 Z " fill="#000000"/><text fill="#000000" font-family="sans-serif" font-size="14" font-style="italic" lengthAdjust="spacing" textLength="88" x="758" y="682.8105">IRepoBuilding</text><line style="stroke:#181818;stroke-width:0.5;" x1="730" x2="848" y1="693.0137" y2="693.0137"/><line style="stroke:#181818;stroke-width:0.5;" x1="730" x2="848" y1="701.0137" y2="701.0137"/></g><!--class IRepoPassage--><g id="elem_IRepoPassage"><rect codeLine="64" fill="#F1F1F1" height="48" id="IRepoPassage" rx="2.5" ry="2.5" style="stroke:#181818;stroke-width:0.5;" width="125" x="884.5" y="661.0137"/><ellipse cx="899.5" cy="677.0137" fill="#B4A7E5" rx="11" ry="11" style="stroke:#181818;stroke-width:1.0;"/><path d="M900.4531,673.6543 L900.4531,680.3105 L902.1719,680.3105 Q902.7813,680.3105 903.0469,680.5449 Q903.3125,680.7793 903.3125,681.1699 Q903.3125,681.5449 903.0469,681.7793 Q902.7813,682.0137 902.1719,682.0137 L897.0313,682.0137 Q896.4219,682.0137 896.1563,681.7793 Q895.8906,681.5449 895.8906,681.1543 Q895.8906,680.7793 896.1563,680.5449 Q896.4219,680.3105 897.0313,680.3105 L898.75,680.3105 L898.75,673.6543 L897.0313,673.6543 Q896.4219,673.6543 896.1563,673.4199 Q895.8906,673.1855 895.8906,672.7949 Q895.8906,672.4199 896.1563,672.1855 Q896.4219,671.9512 897.0313,671.9512 L902.1719,671.9512 Q902.7813,671.9512 903.0469,672.1855 Q903.3125,672.4199 903.3125,672.7949 Q903.3125,673.1855 903.0469,673.4199 Q902.7813,673.6543 902.1719,673.6543 L900.4531,673.6543 Z " fill="#000000"/><text fill="#000000" font-family="sans-serif" font-size="14" font-style="italic" lengthAdjust="spacing" textLength="93" x="913.5" y="682.8105">IRepoPassage</text><line style="stroke:#181818;stroke-width:0.5;" x1="885.5" x2="1008.5" y1="693.0137" y2="693.0137"/><line style="stroke:#181818;stroke-width:0.5;" x1="885.5" x2="1008.5" y1="701.0137" y2="701.0137"/></g><!--class Passage--><g id="elem_Passage"><rect codeLine="81" fill="#F1F1F1" height="76.543" id="Passage" rx="2.5" ry="2.5" style="stroke:#181818;stroke-width:0.5;" width="87" x="1300.5" y="1049.0137"/><ellipse cx="1315.5" cy="1079.2852" fill="#ADD1B2" rx="11" ry="11" style="stroke:#181818;stroke-width:1.0;"/><path d="M1314.3594,1080.082 L1314.3594,1082.582 L1318.6875,1082.582 L1318.6875,1081.6602 Q1318.6875,1081.0508 1318.9219,1080.7852 Q1319.1719,1080.5195 1319.5469,1080.5195 Q1319.9219,1080.5195 1320.1563,1080.7852 Q1320.3906,1081.0508 1320.3906,1081.6602 L1320.3906,1084.2852 L1312.3906,1084.2852 Q1311.7656,1084.2852 1311.5,1084.0508 Q1311.25,1083.8164 1311.25,1083.4258 Q1311.25,1083.0508 1311.5156,1082.8164 Q1311.7813,1082.582 1312.3906,1082.582 L1312.6563,1082.582 L1312.6563,1075.9258 L1312.3906,1075.9258 Q1311.7656,1075.9258 1311.5,1075.6914 Q1311.25,1075.457 1311.25,1075.0664 Q1311.25,1074.6914 1311.5,1074.457 Q1311.7656,1074.2227 1312.3906,1074.2227 L1320.0156,1074.2227 L1320.0156,1076.8164 Q1320.0156,1077.4258 1319.7813,1077.6914 Q1319.5625,1077.9414 1319.1719,1077.9414 Q1318.7969,1077.9414 1318.5625,1077.6914 Q1318.3281,1077.4258 1318.3281,1076.8164 L1318.3281,1075.9258 L1314.3594,1075.9258 L1314.3594,1078.3789 L1315.8438,1078.3789 Q1315.8438,1077.7227 1315.9688,1077.5352 Q1316.2344,1077.1289 1316.7031,1077.1289 Q1317.0781,1077.1289 1317.3125,1077.3945 Q1317.5469,1077.6445 1317.5469,1078.2539 L1317.5469,1080.2227 Q1317.5469,1080.7695 1317.4219,1080.957 Q1317.1563,1081.3477 1316.7031,1081.3477 Q1316.2344,1081.3477 1315.9688,1080.9414 Q1315.8438,1080.7539 1315.8438,1080.082 L1314.3594,1080.082 Z " fill="#000000"/><text fill="#000000" font-family="sans-serif" font-size="12" font-style="italic" lengthAdjust="spacing" textLength="35" x="1339.5" y="1066.9629">&#171;root&#187;</text><text fill="#000000" font-family="sans-serif" font-size="12" font-style="italic" lengthAdjust="spacing" textLength="43" x="1335.5" y="1082.9238">&#171;entity&#187;</text><text fill="#000000" font-family="sans-serif" font-size="14" lengthAdjust="spacing" textLength="55" x="1329.5" y="1101.043">Passage</text><line style="stroke:#181818;stroke-width:0.5;" x1="1301.5" x2="1386.5" y1="1109.5566" y2="1109.5566"/><line style="stroke:#181818;stroke-width:0.5;" x1="1301.5" x2="1386.5" y1="1117.5566" y2="1117.5566"/></g><!--class Building--><g id="elem_Building"><rect codeLine="85" fill="#F1F1F1" height="76.543" id="Building" rx="2.5" ry="2.5" style="stroke:#181818;stroke-width:0.5;" width="82" x="1162" y="1049.0137"/><ellipse cx="1177" cy="1079.2852" fill="#ADD1B2" rx="11" ry="11" style="stroke:#181818;stroke-width:1.0;"/><path d="M1175.8594,1080.082 L1175.8594,1082.582 L1180.1875,1082.582 L1180.1875,1081.6602 Q1180.1875,1081.0508 1180.4219,1080.7852 Q1180.6719,1080.5195 1181.0469,1080.5195 Q1181.4219,1080.5195 1181.6563,1080.7852 Q1181.8906,1081.0508 1181.8906,1081.6602 L1181.8906,1084.2852 L1173.8906,1084.2852 Q1173.2656,1084.2852 1173,1084.0508 Q1172.75,1083.8164 1172.75,1083.4258 Q1172.75,1083.0508 1173.0156,1082.8164 Q1173.2813,1082.582 1173.8906,1082.582 L1174.1563,1082.582 L1174.1563,1075.9258 L1173.8906,1075.9258 Q1173.2656,1075.9258 1173,1075.6914 Q1172.75,1075.457 1172.75,1075.0664 Q1172.75,1074.6914 1173,1074.457 Q1173.2656,1074.2227 1173.8906,1074.2227 L1181.5156,1074.2227 L1181.5156,1076.8164 Q1181.5156,1077.4258 1181.2813,1077.6914 Q1181.0625,1077.9414 1180.6719,1077.9414 Q1180.2969,1077.9414 1180.0625,1077.6914 Q1179.8281,1077.4258 1179.8281,1076.8164 L1179.8281,1075.9258 L1175.8594,1075.9258 L1175.8594,1078.3789 L1177.3438,1078.3789 Q1177.3438,1077.7227 1177.4688,1077.5352 Q1177.7344,1077.1289 1178.2031,1077.1289 Q1178.5781,1077.1289 1178.8125,1077.3945 Q1179.0469,1077.6445 1179.0469,1078.2539 L1179.0469,1080.2227 Q1179.0469,1080.7695 1178.9219,1080.957 Q1178.6563,1081.3477 1178.2031,1081.3477 Q1177.7344,1081.3477 1177.4688,1080.9414 Q1177.3438,1080.7539 1177.3438,1080.082 L1175.8594,1080.082 Z " fill="#000000"/><text fill="#000000" font-family="sans-serif" font-size="12" font-style="italic" lengthAdjust="spacing" textLength="35" x="1198.5" y="1066.9629">&#171;root&#187;</text><text fill="#000000" font-family="sans-serif" font-size="12" font-style="italic" lengthAdjust="spacing" textLength="43" x="1194.5" y="1082.9238">&#171;entity&#187;</text><text fill="#000000" font-family="sans-serif" font-size="14" lengthAdjust="spacing" textLength="50" x="1191" y="1101.043">Building</text><line style="stroke:#181818;stroke-width:0.5;" x1="1163" x2="1243" y1="1109.5566" y2="1109.5566"/><line style="stroke:#181818;stroke-width:0.5;" x1="1163" x2="1243" y1="1117.5566" y2="1117.5566"/></g><!--link DBDriver to IDBDriver--><g id="link_DBDriver_IDBDriver"><path codeLine="24" d="M430.79,157.0137 C435.7,157.0137 440.6,157.0137 445.51,157.0137 " fill="none" id="DBDriver-to-IDBDriver" style="stroke:#FF6655;stroke-width:1.0;"/><polygon fill="none" points="445.68,150.0137,465.68,157.0137,445.68,164.0137,445.68,150.0137" style="stroke:#FF6655;stroke-width:1.0;"/></g><!--reverse link IControllerPassage to ControllerPassage--><g id="link_IControllerPassage_ControllerPassage"><path codeLine="36" d="M171.2,514.4537 C171.41,558.7537 171.73,625.8137 171.89,660.8437 " fill="none" id="IControllerPassage-backto-ControllerPassage" style="stroke:#FF6655;stroke-width:1.0;"/><polygon fill="none" points="164.2,514.2437,171.11,494.2137,178.2,514.1837,164.2,514.2437" style="stroke:#FF6655;stroke-width:1.0;"/></g><!--reverse link DBDriver to RepoBuilding--><g id="link_DBDriver_RepoBuilding"><path codeLine="44" d="M386,186.4237 C386,247.3837 386,389.6937 386,445.7437 " fill="none" id="DBDriver-backto-RepoBuilding" style="stroke:#FF6655;stroke-width:1.0;stroke-dasharray:7.0,7.0;"/><polygon fill="#FF6655" points="386,181.1337,382,190.1337,386,186.1337,390,190.1337,386,181.1337" style="stroke:#FF6655;stroke-width:1.0;"/></g><!--reverse link DBDriver to RepoPassage--><g id="link_DBDriver_RepoPassage"><path codeLine="45" d="M399.84,185.8137 C415.08,216.4637 440.32,267.2437 462,311.0137 C485.76,358.9837 513.48,415.2037 528.65,445.9737 " fill="none" id="DBDriver-backto-RepoPassage" style="stroke:#FF6655;stroke-width:1.0;stroke-dasharray:7.0,7.0;"/><polygon fill="#FF6655" points="397.48,181.0737,397.9146,190.9129,399.7103,185.5487,405.0746,187.3444,397.48,181.0737" style="stroke:#FF6655;stroke-width:1.0;"/></g><!--link RoutePassage to IControllerPassage--><g id="link_RoutePassage_IControllerPassage"><path codeLine="47" d="M648.26,181.3237 C628.37,196.5637 600.75,215.9837 574,229.0137 C464.31,282.4637 414.54,244.8837 312,311.0137 C258.11,345.7637 212.2,406.5037 188.42,441.6837 " fill="none" id="RoutePassage-to-IControllerPassage" style="stroke:#FF6655;stroke-width:1.0;stroke-dasharray:7.0,7.0;"/><polygon fill="#FF6655" points="185.63,445.8437,193.9713,440.6071,188.42,441.6945,187.3326,436.1431,185.63,445.8437" style="stroke:#FF6655;stroke-width:1.0;"/></g><!--link AppServicePassage to IAppServicePassage--><g id="link_AppServicePassage_IAppServicePassage"><path codeLine="60" d="M923.92,882.0837 C913.92,919.9737 893.88,995.9837 881.24,1043.8837 " fill="none" id="AppServicePassage-to-IAppServicePassage" style="stroke:#FF6655;stroke-width:1.0;"/><polygon fill="none" points="887.97,1045.8337,876.1,1063.3837,874.43,1042.2637,887.97,1045.8337" style="stroke:#FF6655;stroke-width:1.0;"/></g><!--link RepoBuilding to IRepoBuilding--><g id="link_RepoBuilding_IRepoBuilding"><path codeLine="67" d="M421.97,494.1137 C434.5,501.9337 448.74,510.5637 462,518.0137 C550.48,567.7137 655.54,619.8737 722.24,652.1637 " fill="none" id="RepoBuilding-to-IRepoBuilding" style="stroke:#FF6655;stroke-width:1.0;"/><polygon fill="none" points="725.43,645.9337,740.4,660.9337,719.35,658.5437,725.43,645.9337" style="stroke:#FF6655;stroke-width:1.0;"/></g><!--link RepoPassage to IRepoPassage--><g id="link_RepoPassage_IRepoPassage"><path codeLine="68" d="M600.73,474.7337 C683.36,480.8737 825.67,495.6037 867,526.0137 C904.88,553.8937 926.06,604.8737 936.97,641.3837 " fill="none" id="RepoPassage-to-IRepoPassage" style="stroke:#FF6655;stroke-width:1.0;"/><polygon fill="none" points="943.79,639.8037,942.25,660.9337,930.27,643.4537,943.79,639.8037" style="stroke:#FF6655;stroke-width:1.0;"/></g><!--link ControllerPassage to IAppServicePassage--><g id="link_ControllerPassage_IAppServicePassage"><path codeLine="71" d="M212.29,709.1337 C334.09,779.0137 697.87,987.7437 825.3,1060.8637 " fill="none" id="ControllerPassage-to-IAppServicePassage" style="stroke:#FF6655;stroke-width:1.0;stroke-dasharray:7.0,7.0;"/><polygon fill="#FF6655" points="829.74,1063.4137,823.916,1055.4713,825.4005,1060.9299,819.942,1062.4145,829.74,1063.4137" style="stroke:#FF6655;stroke-width:1.0;"/></g><!--reverse link IRepoBuilding to AppServicePassage--><g id="link_IRepoBuilding_AppServicePassage"><path codeLine="73" d="M811.32,713.2637 C826.9,732.2737 848.19,758.2137 867,781.0137 C881.61,798.7237 898.19,818.7237 910.67,833.7537 " fill="none" id="IRepoBuilding-backto-AppServicePassage" style="stroke:#FF6655;stroke-width:1.0;stroke-dasharray:7.0,7.0;"/><polygon fill="#FF6655" points="807.88,709.0737,810.489,718.5707,811.0485,712.9415,816.6776,713.501,807.88,709.0737" style="stroke:#FF6655;stroke-width:1.0;"/></g><!--reverse link IRepoPassage to AppServicePassage--><g id="link_IRepoPassage_AppServicePassage"><path codeLine="74" d="M944.19,714.2437 C940.87,747.6637 935.4,802.7037 932.31,833.7737 " fill="none" id="IRepoPassage-backto-AppServicePassage" style="stroke:#FF6655;stroke-width:1.0;stroke-dasharray:7.0,7.0;"/><polygon fill="#FF6655" points="944.71,709.0737,939.8294,717.6282,944.2097,714.0486,947.7893,718.4288,944.71,709.0737" style="stroke:#FF6655;stroke-width:1.0;"/></g><!--link AppServicePassage to Passage--><g id="link_AppServicePassage_Passage"><path codeLine="91" d="M1009.74,863.9637 C1094.47,870.6537 1221.43,885.2137 1260,914.0137 C1302.02,945.3937 1324.12,1003.4137 1334.92,1043.4437 " fill="none" id="AppServicePassage-to-Passage" style="stroke:#FF6655;stroke-width:1.0;stroke-dasharray:7.0,7.0;"/><polygon fill="#FF6655" points="1336.3,1048.7237,1337.8835,1039.0029,1335.0303,1043.8876,1330.1457,1041.0344,1336.3,1048.7237" style="stroke:#FF6655;stroke-width:1.0;"/></g><!--link AppServicePassage to Building--><g id="link_AppServicePassage_Building"><path codeLine="92" d="M957.68,882.0837 C1004.81,921.3537 1101.04,1001.5437 1157.97,1048.9837 " fill="none" id="AppServicePassage-to-Building" style="stroke:#FF6655;stroke-width:1.0;stroke-dasharray:7.0,7.0;"/><polygon fill="#FF6655" points="1162,1052.3437,1157.6435,1043.5107,1158.1577,1049.1442,1152.5243,1049.6584,1162,1052.3437" style="stroke:#FF6655;stroke-width:1.0;"/></g><!--SRC=[bLNBRjim4BpxAmZta9CTz12V105-n42080ZY3oWOUQCGfaXYIQLmM_zxrtfPeYWvvedo37UuioFB7eGo77d64fqPhK0vzdV2Q6srSZln1zZFHV6yuiaXHPsh_LfBZL6qD3pvX3XcpoBzT6kDN9P4ZNj0d_HZkrqi7XwQqYyy0xRMEGf0_nXxboGMKcKR0BCx75SoXm9V8khVJRsdZEJS1IZFrDAdoOJW0q-1sQDra5MTrZzEdzG7SkimJroECAtW3kLDvmvi6pglH79hMO6zqewO3KoYlIAlW5RG1LG2VYMX7E07JwYNpMg3ugjofwlKWregDSPcU9xBx5_ibQguhQvhoUMU6zhROEThCXcrb1xUBJL2yhgxC7t7l7ww0fcHLpHAXwwLRp_rk6oMcyAtuIgXiRw1qLOuJP4UIWWnLhcGUw7I0NX4g7sQpNCpZ_j1Q9NmAHTEAwTiJckmKpygIsEaIBWJMh4Tu9T881mM8WO9tM4IQuZafUN2l3KjLpHAusygtoEpMH6MVf61MutbnEjxC301tZUktabGUUj1XNQIBjIHUFPVeo9P8xRqdImZ6xxKA7iijO_A2KTUtzCt2kutEkD2XLERfWWfh_xWmzEhXAQCMyP_rJVf3n7EeaTM4w88jNRq7OoY4edZRqMuTg7IUw-7DoZOZFS6HTgEkKmU-sCFivgHDRoxff7GItXtgkPrclm7]--></g></svg>