<?xml version="1.0" encoding="us-ascii" standalone="no"?><svg xmlns="http://www.w3.org/2000/svg" xmlns:xlink="http://www.w3.org/1999/xlink" contentStyleType="text/css" height="694px" preserveAspectRatio="none" style="width:848px;height:694px;background:#FFFFFF;" version="1.1" viewBox="0 0 848 694" width="848px" zoomAndPan="magnify"><defs/><g><rect fill="#FFFFFF" height="521.002" style="stroke:#181818;stroke-width:1.0;" width="10" x="163" y="91.8419"/><rect fill="#FFFFFF" height="457.5899" style="stroke:#181818;stroke-width:1.0;" width="10" x="327" y="123.5479"/><rect fill="#FFFFFF" height="394.1779" style="stroke:#181818;stroke-width:1.0;" width="10" x="450" y="155.2539"/><rect fill="#FFFFFF" height="31.706" style="stroke:#181818;stroke-width:1.0;" width="10" x="542" y="186.9599"/><rect fill="#FFFFFF" height="94.8419" style="stroke:#181818;stroke-width:1.0;" width="10" x="628" y="415.8839"/><rect fill="none" height="387.1779" style="stroke:#000000;stroke-width:1.5;" width="834" x="3" y="233.6659"/><rect fill="none" height="146.2539" style="stroke:#000000;stroke-width:1.5;" width="413" x="414" y="372.4719"/><line style="stroke:#181818;stroke-width:0.5;stroke-dasharray:5.0,5.0;" x1="167.5" x2="167.5" y1="58.1358" y2="637.8438"/><line style="stroke:#181818;stroke-width:0.5;stroke-dasharray:5.0,5.0;" x1="331.5" x2="331.5" y1="58.1358" y2="637.8438"/><line style="stroke:#181818;stroke-width:0.5;stroke-dasharray:5.0,5.0;" x1="455" x2="455" y1="58.1358" y2="637.8438"/><line style="stroke:#181818;stroke-width:0.5;stroke-dasharray:5.0,5.0;" x1="546.5" x2="546.5" y1="58.1358" y2="637.8438"/><line style="stroke:#181818;stroke-width:0.5;stroke-dasharray:5.0,5.0;" x1="632.5" x2="632.5" y1="58.1358" y2="637.8438"/><line style="stroke:#181818;stroke-width:0.5;stroke-dasharray:5.0,5.0;" x1="795" x2="795" y1="465.4518" y2="637.8438"/><rect fill="#E2E2F0" height="33.0679" rx="2.5" ry="2.5" style="stroke:#181818;stroke-width:0.5;" width="53" x="141.5" y="24.0679"/><text fill="#000000" font-family="sans-serif" font-size="14" lengthAdjust="spacing" textLength="39" x="148.5" y="46.0339">Route</text><rect fill="#E2E2F0" height="33.0679" rx="2.5" ry="2.5" style="stroke:#181818;stroke-width:0.5;" width="53" x="141.5" y="636.8438"/><text fill="#000000" font-family="sans-serif" font-size="14" lengthAdjust="spacing" textLength="39" x="148.5" y="658.8097">Route</text><rect fill="#E2E2F0" height="33.0679" rx="2.5" ry="2.5" style="stroke:#181818;stroke-width:0.5;" width="81" x="291.5" y="24.0679"/><text fill="#000000" font-family="sans-serif" font-size="14" lengthAdjust="spacing" textLength="67" x="298.5" y="46.0339">Controller</text><rect fill="#E2E2F0" height="33.0679" rx="2.5" ry="2.5" style="stroke:#181818;stroke-width:0.5;" width="81" x="291.5" y="636.8438"/><text fill="#000000" font-family="sans-serif" font-size="14" lengthAdjust="spacing" textLength="67" x="298.5" y="658.8097">Controller</text><rect fill="#E2E2F0" height="33.0679" rx="2.5" ry="2.5" style="stroke:#181818;stroke-width:0.5;" width="62" x="424" y="24.0679"/><text fill="#000000" font-family="sans-serif" font-size="14" lengthAdjust="spacing" textLength="48" x="431" y="46.0339">Service</text><rect fill="#E2E2F0" height="33.0679" rx="2.5" ry="2.5" style="stroke:#181818;stroke-width:0.5;" width="62" x="424" y="636.8438"/><text fill="#000000" font-family="sans-serif" font-size="14" lengthAdjust="spacing" textLength="48" x="431" y="658.8097">Service</text><rect fill="#E2E2F0" height="33.0679" rx="2.5" ry="2.5" style="stroke:#181818;stroke-width:0.5;" width="85" x="504.5" y="24.0679"/><text fill="#000000" font-family="sans-serif" font-size="14" lengthAdjust="spacing" textLength="71" x="511.5" y="46.0339">Repository</text><rect fill="#E2E2F0" height="33.0679" rx="2.5" ry="2.5" style="stroke:#181818;stroke-width:0.5;" width="85" x="504.5" y="636.8438"/><text fill="#000000" font-family="sans-serif" font-size="14" lengthAdjust="spacing" textLength="71" x="511.5" y="658.8097">Repository</text><rect fill="#E2E2F0" height="33.0679" rx="2.5" ry="2.5" style="stroke:#181818;stroke-width:0.5;" width="67" x="599.5" y="24.0679"/><text fill="#000000" font-family="sans-serif" font-size="14" lengthAdjust="spacing" textLength="53" x="606.5" y="46.0339">Mapper</text><rect fill="#E2E2F0" height="33.0679" rx="2.5" ry="2.5" style="stroke:#181818;stroke-width:0.5;" width="67" x="599.5" y="636.8438"/><text fill="#000000" font-family="sans-serif" font-size="14" lengthAdjust="spacing" textLength="53" x="606.5" y="658.8097">Mapper</text><rect fill="#E2E2F0" height="52.1358" rx="2.5" ry="2.5" style="stroke:#181818;stroke-width:0.5;" width="43" x="774" y="636.8438"/><text fill="#000000" font-family="sans-serif" font-size="14" lengthAdjust="spacing" textLength="26" x="782.5" y="658.8097">dto:</text><text fill="#000000" font-family="sans-serif" font-size="14" lengthAdjust="spacing" textLength="29" x="781" y="677.8777">DTO</text><rect fill="#FFFFFF" height="521.002" style="stroke:#181818;stroke-width:1.0;" width="10" x="163" y="91.8419"/><rect fill="#FFFFFF" height="457.5899" style="stroke:#181818;stroke-width:1.0;" width="10" x="327" y="123.5479"/><rect fill="#FFFFFF" height="394.1779" style="stroke:#181818;stroke-width:1.0;" width="10" x="450" y="155.2539"/><rect fill="#FFFFFF" height="31.706" style="stroke:#181818;stroke-width:1.0;" width="10" x="542" y="186.9599"/><rect fill="#FFFFFF" height="94.8419" style="stroke:#181818;stroke-width:1.0;" width="10" x="628" y="415.8839"/><polygon fill="#181818" points="151,87.8419,161,91.8419,151,95.8419,155,91.8419" style="stroke:#181818;stroke-width:1.0;"/><line style="stroke:#181818;stroke-width:1.0;" x1="0" x2="157" y1="91.8419" y2="91.8419"/><text fill="#000000" font-family="sans-serif" font-size="13" font-weight="bold" lengthAdjust="spacing" textLength="7" x="7" y="86.0328">1</text><text fill="#000000" font-family="sans-serif" font-size="13" lengthAdjust="spacing" textLength="86" x="18" y="86.0328">GET /passages</text><polygon fill="#181818" points="315,119.5479,325,123.5479,315,127.5479,319,123.5479" style="stroke:#181818;stroke-width:1.0;"/><line style="stroke:#181818;stroke-width:1.0;" x1="173" x2="321" y1="123.5479" y2="123.5479"/><text fill="#000000" font-family="sans-serif" font-size="13" font-weight="bold" lengthAdjust="spacing" textLength="7" x="180" y="117.7389">2</text><text fill="#000000" font-family="sans-serif" font-size="13" lengthAdjust="spacing" textLength="124" x="191" y="117.7389">getPassages(req,res)</text><polygon fill="#181818" points="438,151.2539,448,155.2539,438,159.2539,442,155.2539" style="stroke:#181818;stroke-width:1.0;"/><line style="stroke:#181818;stroke-width:1.0;" x1="337" x2="444" y1="155.2539" y2="155.2539"/><text fill="#000000" font-family="sans-serif" font-size="13" font-weight="bold" lengthAdjust="spacing" textLength="7" x="344" y="149.4449">3</text><text fill="#000000" font-family="sans-serif" font-size="13" lengthAdjust="spacing" textLength="83" x="355" y="149.4449">getPassages()</text><polygon fill="#181818" points="530,182.9599,540,186.9599,530,190.9599,534,186.9599" style="stroke:#181818;stroke-width:1.0;"/><line style="stroke:#181818;stroke-width:1.0;" x1="460" x2="536" y1="186.9599" y2="186.9599"/><text fill="#000000" font-family="sans-serif" font-size="13" font-weight="bold" lengthAdjust="spacing" textLength="7" x="467" y="181.1509">4</text><text fill="#000000" font-family="sans-serif" font-size="13" lengthAdjust="spacing" textLength="52" x="478" y="181.1509">findaAll()</text><polygon fill="#181818" points="835,214.6659,845,218.6659,835,222.6659,839,218.6659" style="stroke:#181818;stroke-width:1.0;"/><line style="stroke:#181818;stroke-width:1.0;" x1="547" x2="841" y1="218.6659" y2="218.6659"/><text fill="#000000" font-family="sans-serif" font-size="13" font-weight="bold" lengthAdjust="spacing" textLength="7" x="554" y="212.8569">5</text><text fill="#000000" font-family="sans-serif" font-size="13" lengthAdjust="spacing" textLength="31" x="565" y="212.8569">find()</text><path d="M3,233.6659 L66,233.6659 L66,243.3719 L56,253.3719 L3,253.3719 L3,233.6659 " fill="#EEEEEE" style="stroke:#000000;stroke-width:1.5;"/><rect fill="none" height="387.1779" style="stroke:#000000;stroke-width:1.5;" width="834" x="3" y="233.6659"/><text fill="#000000" font-family="sans-serif" font-size="13" font-weight="bold" lengthAdjust="spacing" textLength="18" x="18" y="248.5629">alt</text><text fill="#000000" font-family="sans-serif" font-size="11" font-weight="bold" lengthAdjust="spacing" textLength="115" x="81" y="247.4248">[passages not found]</text><polygon fill="#181818" points="348,273.0779,338,277.0779,348,281.0779,344,277.0779" style="stroke:#181818;stroke-width:1.0;"/><line style="stroke:#181818;stroke-width:1.0;stroke-dasharray:2.0,2.0;" x1="342" x2="449" y1="277.0779" y2="277.0779"/><text fill="#000000" font-family="sans-serif" font-size="13" font-weight="bold" lengthAdjust="spacing" textLength="7" x="354" y="271.2689">6</text><text fill="#000000" font-family="sans-serif" font-size="13" lengthAdjust="spacing" textLength="30" x="365" y="271.2689">error</text><polygon fill="#181818" points="184,304.784,174,308.784,184,312.784,180,308.784" style="stroke:#181818;stroke-width:1.0;"/><line style="stroke:#181818;stroke-width:1.0;stroke-dasharray:2.0,2.0;" x1="178" x2="326" y1="308.784" y2="308.784"/><text fill="#000000" font-family="sans-serif" font-size="13" font-weight="bold" lengthAdjust="spacing" textLength="7" x="190" y="302.975">7</text><text fill="#000000" font-family="sans-serif" font-size="13" lengthAdjust="spacing" textLength="62" x="201" y="302.975">error (404)</text><polygon fill="#181818" points="11,336.49,1,340.49,11,344.49,7,340.49" style="stroke:#181818;stroke-width:1.0;"/><line style="stroke:#181818;stroke-width:1.0;stroke-dasharray:2.0,2.0;" x1="5" x2="162" y1="340.49" y2="340.49"/><text fill="#000000" font-family="sans-serif" font-size="13" font-weight="bold" lengthAdjust="spacing" textLength="7" x="17" y="334.681">8</text><text fill="#000000" font-family="sans-serif" font-size="13" lengthAdjust="spacing" textLength="89" x="28" y="334.681">404: Not found</text><line style="stroke:#000000;stroke-width:1.0;stroke-dasharray:2.0,2.0;" x1="3" x2="837" y1="349.49" y2="349.49"/><text fill="#000000" font-family="sans-serif" font-size="11" font-weight="bold" lengthAdjust="spacing" textLength="93" x="8" y="361.2489">[passages found]</text><path d="M414,372.4719 L487,372.4719 L487,382.1779 L477,392.1779 L414,392.1779 L414,372.4719 " fill="#EEEEEE" style="stroke:#000000;stroke-width:1.5;"/><rect fill="none" height="146.2539" style="stroke:#000000;stroke-width:1.5;" width="413" x="414" y="372.4719"/><text fill="#000000" font-family="sans-serif" font-size="13" font-weight="bold" lengthAdjust="spacing" textLength="28" x="429" y="387.3689">loop</text><text fill="#000000" font-family="sans-serif" font-size="11" font-weight="bold" lengthAdjust="spacing" textLength="102" x="502" y="386.2308">[for each passage]</text><polygon fill="#181818" points="616,411.8839,626,415.8839,616,419.8839,620,415.8839" style="stroke:#181818;stroke-width:1.0;"/><line style="stroke:#181818;stroke-width:1.0;" x1="460" x2="622" y1="415.8839" y2="415.8839"/><text fill="#000000" font-family="sans-serif" font-size="13" font-weight="bold" lengthAdjust="spacing" textLength="7" x="467" y="410.0749">9</text><text fill="#000000" font-family="sans-serif" font-size="13" lengthAdjust="spacing" textLength="96" x="478" y="410.0749">toDTO(passage)</text><polygon fill="#181818" points="762,443.5899,772,447.5899,762,451.5899,766,447.5899" style="stroke:#181818;stroke-width:1.0;"/><line style="stroke:#181818;stroke-width:1.0;stroke-dasharray:2.0,2.0;" x1="638" x2="768" y1="447.5899" y2="447.5899"/><text fill="#000000" font-family="sans-serif" font-size="13" font-weight="bold" lengthAdjust="spacing" textLength="14" x="645" y="441.7809">10</text><text fill="#000000" font-family="sans-serif" font-size="13" lengthAdjust="spacing" textLength="94" x="663" y="441.7809">create(passage)</text><rect fill="#E2E2F0" height="52.1358" rx="2.5" ry="2.5" style="stroke:#181818;stroke-width:0.5;" width="43" x="774" y="423.8839"/><text fill="#000000" font-family="sans-serif" font-size="14" lengthAdjust="spacing" textLength="26" x="782.5" y="445.8498">dto:</text><text fill="#000000" font-family="sans-serif" font-size="14" lengthAdjust="spacing" textLength="29" x="781" y="464.9178">DTO</text><polygon fill="#181818" points="471,506.7258,461,510.7258,471,514.7258,467,510.7258" style="stroke:#181818;stroke-width:1.0;"/><line style="stroke:#181818;stroke-width:1.0;stroke-dasharray:2.0,2.0;" x1="465" x2="632" y1="510.7258" y2="510.7258"/><text fill="#000000" font-family="sans-serif" font-size="13" font-weight="bold" lengthAdjust="spacing" textLength="14" x="477" y="504.9168">11</text><text fill="#000000" font-family="sans-serif" font-size="13" lengthAdjust="spacing" textLength="21" x="495" y="504.9168">dto</text><polygon fill="#181818" points="348,545.4318,338,549.4318,348,553.4318,344,549.4318" style="stroke:#181818;stroke-width:1.0;"/><line style="stroke:#181818;stroke-width:1.0;stroke-dasharray:2.0,2.0;" x1="342" x2="454" y1="549.4318" y2="549.4318"/><text fill="#000000" font-family="sans-serif" font-size="13" font-weight="bold" lengthAdjust="spacing" textLength="14" x="354" y="543.6228">12</text><text fill="#000000" font-family="sans-serif" font-size="13" lengthAdjust="spacing" textLength="21" x="372" y="543.6228">dto</text><polygon fill="#181818" points="184,577.1378,174,581.1378,184,585.1378,180,581.1378" style="stroke:#181818;stroke-width:1.0;"/><line style="stroke:#181818;stroke-width:1.0;stroke-dasharray:2.0,2.0;" x1="178" x2="331" y1="581.1378" y2="581.1378"/><text fill="#000000" font-family="sans-serif" font-size="13" font-weight="bold" lengthAdjust="spacing" textLength="14" x="190" y="575.3288">13</text><text fill="#000000" font-family="sans-serif" font-size="13" lengthAdjust="spacing" textLength="50" x="208" y="575.3288">dto(200)</text><polygon fill="#181818" points="11,608.8438,1,612.8438,11,616.8438,7,612.8438" style="stroke:#181818;stroke-width:1.0;"/><line style="stroke:#181818;stroke-width:1.0;stroke-dasharray:2.0,2.0;" x1="5" x2="167" y1="612.8438" y2="612.8438"/><text fill="#000000" font-family="sans-serif" font-size="13" font-weight="bold" lengthAdjust="spacing" textLength="14" x="17" y="607.0348">14</text><text fill="#000000" font-family="sans-serif" font-size="13" lengthAdjust="spacing" textLength="119" x="35" y="607.0348">200: "OK" Successful</text><!--SRC=[VPDFJyCm3CNl-HJMBdI8YWdjDA59210714Dijy4XfDweb3N5IIVnxN7Ihlz7RgtVxyLsNsNXJ5OSlf24o2MvLAMvp1nCtatXS0BI0dKBzoPpPBH62bNbI7S5QwHZgahM7bNF5dDZKsVej_Jcnzx5BpBFA- -3pBkrn9d5H_QmMOKoFmcnZPT0i82dnmrSvz9QkKShf7BfKJhavWNm8M2PRvMLUtHlbIuY_BaYjDCWgg4mKtZbJy0OvrbwzBJMrAWVk7xhZwTyYpmeqxiqI-ITrYsqWuTzGEy4Dbv-LdoFJR1BTusrWzDI83CETgR8ai4DeSbcGqXaQ20gzr2jEqWWci_cqu5mUnl7GSJL1RoEtehQOjFPU5VQc9nB13pXzqayKBMMp7dXMvtXW4ILV2f6WNfbFc9mvdWxFo_dxFAIZHKX8utpEUwYiVSHFIzhVRh_XAS-oW2UKxRCneR2B0aB7Kbdy-7RtYs_JgWxCM0WkfdDobsqYEOFgiF0iWLCLiyJM1TAeRMxGejsU0MtAFu0]--></g></svg>