<?xml version="1.0" encoding="us-ascii" standalone="no"?><svg xmlns="http://www.w3.org/2000/svg" xmlns:xlink="http://www.w3.org/1999/xlink" contentStyleType="text/css" height="1213px" preserveAspectRatio="none" style="width:1187px;height:1213px;background:#FFFFFF;" version="1.1" viewBox="0 0 1187 1213" width="1187px" zoomAndPan="magnify"><defs/><g><rect fill="#FFFFFF" height="1192.9482" style="stroke:#181818;stroke-width:1.5;" width="1176" x="5" y="15"/><path d="M36,15 L36,26.6211 L26,36.6211 L5,36.6211 " fill="none" style="stroke:#181818;stroke-width:1.5;"/><text fill="#000000" font-family="sans-serif" font-size="14" lengthAdjust="spacing" textLength="21" x="8" y="31.1074">MD</text><rect fill="#ADD8E6" height="1135.9434" style="stroke:#181818;stroke-width:0.5;" width="842" x="222" y="46.3838"/><text fill="#000000" font-family="sans-serif" font-size="13" font-weight="bold" lengthAdjust="spacing" textLength="59" x="613.5" y="60.4121">Back-End</text><rect fill="#DDDDDD" height="1135.9434" style="stroke:#181818;stroke-width:0.5;" width="82" x="1066" y="46.3838"/><text fill="#000000" font-family="sans-serif" font-size="13" font-weight="bold" lengthAdjust="spacing" textLength="59" x="1077.5" y="60.4121">Database</text><rect fill="#FFFFFF" height="939.1191" style="stroke:#181818;stroke-width:1.0;" width="10" x="247" y="165.5869"/><rect fill="#FFFFFF" height="907.8281" style="stroke:#181818;stroke-width:1.0;" width="10" x="411" y="196.8779"/><rect fill="#FFFFFF" height="876.5371" style="stroke:#181818;stroke-width:1.0;" width="10" x="730" y="228.1689"/><rect fill="#FFFFFF" height="93.5332" style="stroke:#181818;stroke-width:1.0;" width="10" x="871" y="881.2998"/><rect fill="#FFFFFF" height="52.2422" style="stroke:#181818;stroke-width:1.0;" width="10" x="1033" y="922.5908"/><rect fill="#FFFFFF" height="31.291" style="stroke:#181818;stroke-width:1.0;" width="10" x="1102" y="259.46"/><rect fill="#FFFFFF" height="30" style="stroke:#181818;stroke-width:1.0;" width="10" x="1102" y="458.8369"/><rect fill="#FFFFFF" height="30" style="stroke:#181818;stroke-width:1.0;" width="10" x="1102" y="656.9229"/><rect fill="none" height="791.9551" style="stroke:#000000;stroke-width:1.5;" width="1144" x="20" y="305.751"/><rect fill="none" height="586.8691" style="stroke:#000000;stroke-width:1.5;" width="1124" x="30" y="503.8369"/><rect fill="none" height="381.7832" style="stroke:#000000;stroke-width:1.5;" width="1040" x="40" y="701.9229"/><rect fill="none" height="144.1152" style="stroke:#000000;stroke-width:1.5;" width="375.5" x="694.5" y="838.7178"/><line style="stroke:#181818;stroke-width:0.5;stroke-dasharray:5.0,5.0;" x1="65" x2="65" y1="132.2959" y2="1114.7061"/><line style="stroke:#181818;stroke-width:0.5;stroke-dasharray:5.0,5.0;" x1="252" x2="252" y1="132.2959" y2="1114.7061"/><line style="stroke:#181818;stroke-width:0.5;stroke-dasharray:5.0,5.0;" x1="416" x2="416" y1="132.2959" y2="1114.7061"/><line style="stroke:#181818;stroke-width:0.5;stroke-dasharray:5.0,5.0;" x1="734.5" x2="734.5" y1="132.2959" y2="1114.7061"/><line style="stroke:#181818;stroke-width:0.5;stroke-dasharray:5.0,5.0;" x1="876" x2="876" y1="132.2959" y2="1114.7061"/><line style="stroke:#181818;stroke-width:0.5;stroke-dasharray:5.0,5.0;" x1="1038" x2="1038" y1="930.4209" y2="1114.7061"/><line style="stroke:#181818;stroke-width:0.5;stroke-dasharray:5.0,5.0;" x1="1107" x2="1107" y1="132.2959" y2="1114.7061"/><rect fill="#E2E2F0" height="32.6211" rx="2.5" ry="2.5" style="stroke:#181818;stroke-width:0.5;" width="30" x="50" y="98.6748"/><text fill="#000000" font-family="sans-serif" font-size="14" lengthAdjust="spacing" textLength="16" x="57" y="120.7822">??</text><rect fill="#E2E2F0" height="32.6211" rx="2.5" ry="2.5" style="stroke:#181818;stroke-width:0.5;" width="30" x="50" y="1113.7061"/><text fill="#000000" font-family="sans-serif" font-size="14" lengthAdjust="spacing" textLength="16" x="57" y="1135.8135">??</text><rect fill="#E2E2F0" height="32.6211" rx="2.5" ry="2.5" style="stroke:#181818;stroke-width:0.5;" width="52" x="226" y="98.6748"/><text fill="#000000" font-family="sans-serif" font-size="14" lengthAdjust="spacing" textLength="38" x="233" y="120.7822">Route</text><rect fill="#E2E2F0" height="32.6211" rx="2.5" ry="2.5" style="stroke:#181818;stroke-width:0.5;" width="52" x="226" y="1113.7061"/><text fill="#000000" font-family="sans-serif" font-size="14" lengthAdjust="spacing" textLength="38" x="233" y="1135.8135">Route</text><rect fill="#E2E2F0" height="32.6211" rx="2.5" ry="2.5" style="stroke:#181818;stroke-width:0.5;" width="76" x="378" y="98.6748"/><text fill="#000000" font-family="sans-serif" font-size="14" lengthAdjust="spacing" textLength="62" x="385" y="120.7822">Controller</text><rect fill="#E2E2F0" height="32.6211" rx="2.5" ry="2.5" style="stroke:#181818;stroke-width:0.5;" width="76" x="378" y="1113.7061"/><text fill="#000000" font-family="sans-serif" font-size="14" lengthAdjust="spacing" textLength="62" x="385" y="1135.8135">Controller</text><rect fill="#E2E2F0" height="32.6211" rx="2.5" ry="2.5" style="stroke:#181818;stroke-width:0.5;" width="61" x="704.5" y="98.6748"/><text fill="#000000" font-family="sans-serif" font-size="14" lengthAdjust="spacing" textLength="47" x="711.5" y="120.7822">Service</text><rect fill="#E2E2F0" height="32.6211" rx="2.5" ry="2.5" style="stroke:#181818;stroke-width:0.5;" width="61" x="704.5" y="1113.7061"/><text fill="#000000" font-family="sans-serif" font-size="14" lengthAdjust="spacing" textLength="47" x="711.5" y="1135.8135">Service</text><rect fill="#E2E2F0" height="32.6211" rx="2.5" ry="2.5" style="stroke:#181818;stroke-width:0.5;" width="62" x="845" y="98.6748"/><text fill="#000000" font-family="sans-serif" font-size="14" lengthAdjust="spacing" textLength="48" x="852" y="120.7822">Mapper</text><rect fill="#E2E2F0" height="32.6211" rx="2.5" ry="2.5" style="stroke:#181818;stroke-width:0.5;" width="62" x="845" y="1113.7061"/><text fill="#000000" font-family="sans-serif" font-size="14" lengthAdjust="spacing" textLength="48" x="852" y="1135.8135">Mapper</text><rect fill="#E2E2F0" height="51.2422" rx="2.5" ry="2.5" style="stroke:#181818;stroke-width:0.5;" width="44" x="1016" y="1113.7061"/><text fill="#000000" font-family="sans-serif" font-size="14" lengthAdjust="spacing" textLength="24" x="1026" y="1135.8135">dto:</text><text fill="#000000" font-family="sans-serif" font-size="14" lengthAdjust="spacing" textLength="30" x="1023" y="1154.4346">DTO</text><text fill="#000000" font-family="sans-serif" font-size="14" lengthAdjust="spacing" textLength="68" x="1070" y="128.7822">Repository</text><path d="M1089,77.6748 C1089,67.6748 1107,67.6748 1107,67.6748 C1107,67.6748 1125,67.6748 1125,77.6748 L1125,103.6748 C1125,113.6748 1107,113.6748 1107,113.6748 C1107,113.6748 1089,113.6748 1089,103.6748 L1089,77.6748 " fill="#E2E2F0" style="stroke:#181818;stroke-width:1.5;"/><path d="M1089,77.6748 C1089,87.6748 1107,87.6748 1107,87.6748 C1107,87.6748 1125,87.6748 1125,77.6748 " fill="none" style="stroke:#181818;stroke-width:1.5;"/><text fill="#000000" font-family="sans-serif" font-size="14" lengthAdjust="spacing" textLength="68" x="1070" y="1128.8135">Repository</text><path d="M1089,1142.3271 C1089,1132.3271 1107,1132.3271 1107,1132.3271 C1107,1132.3271 1125,1132.3271 1125,1142.3271 L1125,1168.3271 C1125,1178.3271 1107,1178.3271 1107,1178.3271 C1107,1178.3271 1089,1178.3271 1089,1168.3271 L1089,1142.3271 " fill="#E2E2F0" style="stroke:#181818;stroke-width:1.5;"/><path d="M1089,1142.3271 C1089,1152.3271 1107,1152.3271 1107,1152.3271 C1107,1152.3271 1125,1152.3271 1125,1142.3271 " fill="none" style="stroke:#181818;stroke-width:1.5;"/><rect fill="#FFFFFF" height="939.1191" style="stroke:#181818;stroke-width:1.0;" width="10" x="247" y="165.5869"/><rect fill="#FFFFFF" height="907.8281" style="stroke:#181818;stroke-width:1.0;" width="10" x="411" y="196.8779"/><rect fill="#FFFFFF" height="876.5371" style="stroke:#181818;stroke-width:1.0;" width="10" x="730" y="228.1689"/><rect fill="#FFFFFF" height="93.5332" style="stroke:#181818;stroke-width:1.0;" width="10" x="871" y="881.2998"/><rect fill="#FFFFFF" height="52.2422" style="stroke:#181818;stroke-width:1.0;" width="10" x="1033" y="922.5908"/><rect fill="#FFFFFF" height="31.291" style="stroke:#181818;stroke-width:1.0;" width="10" x="1102" y="259.46"/><rect fill="#FFFFFF" height="30" style="stroke:#181818;stroke-width:1.0;" width="10" x="1102" y="458.8369"/><rect fill="#FFFFFF" height="30" style="stroke:#181818;stroke-width:1.0;" width="10" x="1102" y="656.9229"/><polygon fill="#181818" points="235,161.5869,245,165.5869,235,169.5869,239,165.5869" style="stroke:#181818;stroke-width:1.0;"/><line style="stroke:#181818;stroke-width:1.0;stroke-dasharray:2.0,2.0;" x1="65" x2="241" y1="165.5869" y2="165.5869"/><text fill="#000000" font-family="sans-serif" font-size="13" font-weight="bold" lengthAdjust="spacing" textLength="7" x="72" y="160.3242">1</text><text fill="#000000" font-family="sans-serif" font-size="13" lengthAdjust="spacing" textLength="90" x="83" y="160.3242">GET /passages</text><polygon fill="#181818" points="399,192.8779,409,196.8779,399,200.8779,403,196.8779" style="stroke:#181818;stroke-width:1.0;"/><line style="stroke:#181818;stroke-width:1.0;" x1="257" x2="405" y1="196.8779" y2="196.8779"/><text fill="#000000" font-family="sans-serif" font-size="13" font-weight="bold" lengthAdjust="spacing" textLength="7" x="264" y="191.6152">2</text><text fill="#000000" font-family="sans-serif" font-size="13" lengthAdjust="spacing" textLength="124" x="275" y="191.6152">getPassages(req,res)</text><polygon fill="#181818" points="718,224.1689,728,228.1689,718,232.1689,722,228.1689" style="stroke:#181818;stroke-width:1.0;"/><line style="stroke:#181818;stroke-width:1.0;" x1="421" x2="724" y1="228.1689" y2="228.1689"/><text fill="#000000" font-family="sans-serif" font-size="13" font-weight="bold" lengthAdjust="spacing" textLength="7" x="428" y="222.9063">3</text><text fill="#000000" font-family="sans-serif" font-size="13" lengthAdjust="spacing" textLength="279" x="439" y="222.9063">getPassagesBetweenBuildings(bCode1,bCode2)</text><polygon fill="#181818" points="1090,255.46,1100,259.46,1090,263.46,1094,259.46" style="stroke:#181818;stroke-width:1.0;"/><line style="stroke:#181818;stroke-width:1.0;" x1="740" x2="1096" y1="259.46" y2="259.46"/><text fill="#000000" font-family="sans-serif" font-size="13" font-weight="bold" lengthAdjust="spacing" textLength="7" x="747" y="254.1973">4</text><text fill="#000000" font-family="sans-serif" font-size="13" lengthAdjust="spacing" textLength="118" x="758" y="254.1973">findByCode(bCode1)</text><polygon fill="#181818" points="1095,286.751,1105,290.751,1095,294.751,1099,290.751" style="stroke:#181818;stroke-width:1.0;"/><line style="stroke:#181818;stroke-width:1.0;" x1="740" x2="1101" y1="290.751" y2="290.751"/><text fill="#000000" font-family="sans-serif" font-size="13" font-weight="bold" lengthAdjust="spacing" textLength="7" x="747" y="285.4883">5</text><text fill="#000000" font-family="sans-serif" font-size="13" lengthAdjust="spacing" textLength="118" x="758" y="285.4883">findByCode(bCode2)</text><path d="M20,305.751 L81,305.751 L81,315.042 L71,325.042 L20,325.042 L20,305.751 " fill="#EEEEEE" style="stroke:#000000;stroke-width:1.5;"/><rect fill="none" height="791.9551" style="stroke:#000000;stroke-width:1.5;" width="1144" x="20" y="305.751"/><text fill="#000000" font-family="sans-serif" font-size="13" font-weight="bold" lengthAdjust="spacing" textLength="16" x="35" y="320.7793">alt</text><text fill="#000000" font-family="sans-serif" font-size="11" font-weight="bold" lengthAdjust="spacing" textLength="108" x="96" y="319.6211">[building not found]</text><polygon fill="#181818" points="432,344.333,422,348.333,432,352.333,428,348.333" style="stroke:#181818;stroke-width:1.0;"/><line style="stroke:#181818;stroke-width:1.0;stroke-dasharray:2.0,2.0;" x1="426" x2="729" y1="348.333" y2="348.333"/><text fill="#000000" font-family="sans-serif" font-size="13" font-weight="bold" lengthAdjust="spacing" textLength="7" x="438" y="343.0703">6</text><text fill="#000000" font-family="sans-serif" font-size="13" lengthAdjust="spacing" textLength="26" x="449" y="343.0703">error</text><polygon fill="#181818" points="268,375.624,258,379.624,268,383.624,264,379.624" style="stroke:#181818;stroke-width:1.0;"/><line style="stroke:#181818;stroke-width:1.0;stroke-dasharray:2.0,2.0;" x1="262" x2="410" y1="379.624" y2="379.624"/><text fill="#000000" font-family="sans-serif" font-size="13" font-weight="bold" lengthAdjust="spacing" textLength="7" x="274" y="374.3613">7</text><text fill="#000000" font-family="sans-serif" font-size="13" lengthAdjust="spacing" textLength="59" x="285" y="374.3613">error (412)</text><polygon fill="#181818" points="76,406.915,66,410.915,76,414.915,72,410.915" style="stroke:#181818;stroke-width:1.0;"/><line style="stroke:#181818;stroke-width:1.0;stroke-dasharray:2.0,2.0;" x1="70" x2="246" y1="410.915" y2="410.915"/><text fill="#000000" font-family="sans-serif" font-size="13" font-weight="bold" lengthAdjust="spacing" textLength="7" x="82" y="405.6523">8</text><text fill="#000000" font-family="sans-serif" font-size="13" lengthAdjust="spacing" textLength="140" x="93" y="405.6523">412: Precondition Failed</text><line style="stroke:#000000;stroke-width:1.0;stroke-dasharray:2.0,2.0;" x1="20" x2="1164" y1="419.915" y2="419.915"/><text fill="#000000" font-family="sans-serif" font-size="11" font-weight="bold" lengthAdjust="spacing" textLength="87" x="25" y="431.7852">[building found]</text><polygon fill="#181818" points="1090,454.8369,1100,458.8369,1090,462.8369,1094,458.8369" style="stroke:#181818;stroke-width:1.0;"/><line style="stroke:#181818;stroke-width:1.0;" x1="740" x2="1096" y1="458.8369" y2="458.8369"/><text fill="#000000" font-family="sans-serif" font-size="13" font-weight="bold" lengthAdjust="spacing" textLength="7" x="747" y="453.5742">9</text><text fill="#000000" font-family="sans-serif" font-size="13" lengthAdjust="spacing" textLength="43" x="758" y="453.5742">findAll()</text><path d="M30,503.8369 L91,503.8369 L91,513.1279 L81,523.1279 L30,523.1279 L30,503.8369 " fill="#EEEEEE" style="stroke:#000000;stroke-width:1.5;"/><rect fill="none" height="586.8691" style="stroke:#000000;stroke-width:1.5;" width="1124" x="30" y="503.8369"/><text fill="#000000" font-family="sans-serif" font-size="13" font-weight="bold" lengthAdjust="spacing" textLength="16" x="45" y="518.8652">alt</text><text fill="#000000" font-family="sans-serif" font-size="11" font-weight="bold" lengthAdjust="spacing" textLength="118" x="106" y="517.707">[passages not found]</text><polygon fill="#181818" points="432,542.4189,422,546.4189,432,550.4189,428,546.4189" style="stroke:#181818;stroke-width:1.0;"/><line style="stroke:#181818;stroke-width:1.0;stroke-dasharray:2.0,2.0;" x1="426" x2="729" y1="546.4189" y2="546.4189"/><text fill="#000000" font-family="sans-serif" font-size="13" font-weight="bold" lengthAdjust="spacing" textLength="14" x="438" y="541.1563">10</text><text fill="#000000" font-family="sans-serif" font-size="13" lengthAdjust="spacing" textLength="26" x="456" y="541.1563">error</text><polygon fill="#181818" points="268,573.71,258,577.71,268,581.71,264,577.71" style="stroke:#181818;stroke-width:1.0;"/><line style="stroke:#181818;stroke-width:1.0;stroke-dasharray:2.0,2.0;" x1="262" x2="410" y1="577.71" y2="577.71"/><text fill="#000000" font-family="sans-serif" font-size="13" font-weight="bold" lengthAdjust="spacing" textLength="14" x="274" y="572.4473">11</text><text fill="#000000" font-family="sans-serif" font-size="13" lengthAdjust="spacing" textLength="59" x="292" y="572.4473">error (412)</text><polygon fill="#181818" points="76,605.001,66,609.001,76,613.001,72,609.001" style="stroke:#181818;stroke-width:1.0;"/><line style="stroke:#181818;stroke-width:1.0;stroke-dasharray:2.0,2.0;" x1="70" x2="246" y1="609.001" y2="609.001"/><text fill="#000000" font-family="sans-serif" font-size="13" font-weight="bold" lengthAdjust="spacing" textLength="14" x="82" y="603.7383">12</text><text fill="#000000" font-family="sans-serif" font-size="13" lengthAdjust="spacing" textLength="140" x="100" y="603.7383">412: Precondition Failed</text><line style="stroke:#000000;stroke-width:1.0;stroke-dasharray:2.0,2.0;" x1="30" x2="1154" y1="618.001" y2="618.001"/><text fill="#000000" font-family="sans-serif" font-size="11" font-weight="bold" lengthAdjust="spacing" textLength="97" x="35" y="629.8711">[passages found]</text><polygon fill="#181818" points="1090,652.9229,1100,656.9229,1090,660.9229,1094,656.9229" style="stroke:#181818;stroke-width:1.0;"/><line style="stroke:#181818;stroke-width:1.0;" x1="740" x2="1096" y1="656.9229" y2="656.9229"/><text fill="#000000" font-family="sans-serif" font-size="13" font-weight="bold" lengthAdjust="spacing" textLength="14" x="747" y="651.6602">13</text><text fill="#000000" font-family="sans-serif" font-size="13" lengthAdjust="spacing" textLength="315" x="765" y="651.6602">passagesBetweenBuildings(passages,bcode1,bcode2)</text><path d="M40,701.9229 L101,701.9229 L101,711.2139 L91,721.2139 L40,721.2139 L40,701.9229 " fill="#EEEEEE" style="stroke:#000000;stroke-width:1.5;"/><rect fill="none" height="381.7832" style="stroke:#000000;stroke-width:1.5;" width="1040" x="40" y="701.9229"/><text fill="#000000" font-family="sans-serif" font-size="13" font-weight="bold" lengthAdjust="spacing" textLength="16" x="55" y="716.9512">alt</text><text fill="#000000" font-family="sans-serif" font-size="11" font-weight="bold" lengthAdjust="spacing" textLength="224" x="116" y="715.793">[passages between buildings not found]</text><polygon fill="#181818" points="432,740.5049,422,744.5049,432,748.5049,428,744.5049" style="stroke:#181818;stroke-width:1.0;"/><line style="stroke:#181818;stroke-width:1.0;stroke-dasharray:2.0,2.0;" x1="426" x2="729" y1="744.5049" y2="744.5049"/><text fill="#000000" font-family="sans-serif" font-size="13" font-weight="bold" lengthAdjust="spacing" textLength="14" x="438" y="739.2422">14</text><text fill="#000000" font-family="sans-serif" font-size="13" lengthAdjust="spacing" textLength="26" x="456" y="739.2422">error</text><polygon fill="#181818" points="268,771.7959,258,775.7959,268,779.7959,264,775.7959" style="stroke:#181818;stroke-width:1.0;"/><line style="stroke:#181818;stroke-width:1.0;stroke-dasharray:2.0,2.0;" x1="262" x2="410" y1="775.7959" y2="775.7959"/><text fill="#000000" font-family="sans-serif" font-size="13" font-weight="bold" lengthAdjust="spacing" textLength="14" x="274" y="770.5332">15</text><text fill="#000000" font-family="sans-serif" font-size="13" lengthAdjust="spacing" textLength="59" x="292" y="770.5332">error (412)</text><polygon fill="#181818" points="76,803.0869,66,807.0869,76,811.0869,72,807.0869" style="stroke:#181818;stroke-width:1.0;"/><line style="stroke:#181818;stroke-width:1.0;stroke-dasharray:2.0,2.0;" x1="70" x2="246" y1="807.0869" y2="807.0869"/><text fill="#000000" font-family="sans-serif" font-size="13" font-weight="bold" lengthAdjust="spacing" textLength="14" x="82" y="801.8242">16</text><text fill="#000000" font-family="sans-serif" font-size="13" lengthAdjust="spacing" textLength="140" x="100" y="801.8242">412: Precondition Failed</text><line style="stroke:#000000;stroke-width:1.0;stroke-dasharray:2.0,2.0;" x1="40" x2="1080" y1="816.0869" y2="816.0869"/><text fill="#000000" font-family="sans-serif" font-size="11" font-weight="bold" lengthAdjust="spacing" textLength="196" x="45" y="827.957">[passages between building found]</text><path d="M694.5,838.7178 L767.5,838.7178 L767.5,848.0088 L757.5,858.0088 L694.5,858.0088 L694.5,838.7178 " fill="#EEEEEE" style="stroke:#000000;stroke-width:1.5;"/><rect fill="none" height="144.1152" style="stroke:#000000;stroke-width:1.5;" width="375.5" x="694.5" y="838.7178"/><text fill="#000000" font-family="sans-serif" font-size="13" font-weight="bold" lengthAdjust="spacing" textLength="28" x="709.5" y="853.7461">loop</text><text fill="#000000" font-family="sans-serif" font-size="11" font-weight="bold" lengthAdjust="spacing" textLength="103" x="782.5" y="852.5879">[for each passage]</text><polygon fill="#181818" points="859,877.2998,869,881.2998,859,885.2998,863,881.2998" style="stroke:#181818;stroke-width:1.0;"/><line style="stroke:#181818;stroke-width:1.0;" x1="740" x2="865" y1="881.2998" y2="881.2998"/><text fill="#000000" font-family="sans-serif" font-size="13" font-weight="bold" lengthAdjust="spacing" textLength="14" x="747" y="876.0371">17</text><text fill="#000000" font-family="sans-serif" font-size="13" lengthAdjust="spacing" textLength="94" x="765" y="876.0371">toDTO(passage)</text><polygon fill="#181818" points="1004,908.5908,1014,912.5908,1004,916.5908,1008,912.5908" style="stroke:#181818;stroke-width:1.0;"/><line style="stroke:#181818;stroke-width:1.0;stroke-dasharray:2.0,2.0;" x1="881" x2="1010" y1="912.5908" y2="912.5908"/><text fill="#000000" font-family="sans-serif" font-size="13" font-weight="bold" lengthAdjust="spacing" textLength="14" x="888" y="907.3281">18</text><text fill="#000000" font-family="sans-serif" font-size="13" lengthAdjust="spacing" textLength="93" x="906" y="907.3281">create(passage)</text><rect fill="#E2E2F0" height="51.2422" rx="2.5" ry="2.5" style="stroke:#181818;stroke-width:0.5;" width="44" x="1016" y="889.2998"/><text fill="#000000" font-family="sans-serif" font-size="14" lengthAdjust="spacing" textLength="24" x="1026" y="911.4072">dto:</text><text fill="#000000" font-family="sans-serif" font-size="14" lengthAdjust="spacing" textLength="30" x="1023" y="930.0283">DTO</text><polygon fill="#181818" points="751,970.833,741,974.833,751,978.833,747,974.833" style="stroke:#181818;stroke-width:1.0;"/><line style="stroke:#181818;stroke-width:1.0;stroke-dasharray:2.0,2.0;" x1="745" x2="875" y1="974.833" y2="974.833"/><text fill="#000000" font-family="sans-serif" font-size="13" font-weight="bold" lengthAdjust="spacing" textLength="14" x="757" y="969.5703">19</text><text fill="#000000" font-family="sans-serif" font-size="13" lengthAdjust="spacing" textLength="18" x="775" y="969.5703">dto</text><polygon fill="#181818" points="432,1009.124,422,1013.124,432,1017.124,428,1013.124" style="stroke:#181818;stroke-width:1.0;"/><line style="stroke:#181818;stroke-width:1.0;stroke-dasharray:2.0,2.0;" x1="426" x2="729" y1="1013.124" y2="1013.124"/><text fill="#000000" font-family="sans-serif" font-size="13" font-weight="bold" lengthAdjust="spacing" textLength="14" x="438" y="1007.8613">20</text><text fill="#000000" font-family="sans-serif" font-size="13" lengthAdjust="spacing" textLength="18" x="456" y="1007.8613">dto</text><polygon fill="#181818" points="268,1040.415,258,1044.415,268,1048.415,264,1044.415" style="stroke:#181818;stroke-width:1.0;"/><line style="stroke:#181818;stroke-width:1.0;stroke-dasharray:2.0,2.0;" x1="262" x2="410" y1="1044.415" y2="1044.415"/><text fill="#000000" font-family="sans-serif" font-size="13" font-weight="bold" lengthAdjust="spacing" textLength="14" x="274" y="1039.1523">21</text><text fill="#000000" font-family="sans-serif" font-size="13" lengthAdjust="spacing" textLength="53" x="292" y="1039.1523">response</text><polygon fill="#181818" points="76,1071.7061,66,1075.7061,76,1079.7061,72,1075.7061" style="stroke:#181818;stroke-width:1.0;"/><line style="stroke:#181818;stroke-width:1.0;stroke-dasharray:2.0,2.0;" x1="70" x2="246" y1="1075.7061" y2="1075.7061"/><text fill="#000000" font-family="sans-serif" font-size="13" font-weight="bold" lengthAdjust="spacing" textLength="14" x="82" y="1070.4434">22</text><text fill="#000000" font-family="sans-serif" font-size="13" lengthAdjust="spacing" textLength="126" x="100" y="1070.4434">200: "OK" Successful</text><!--SRC=[dLLDRzim3BtxLn3k9IaIh0rs2eeLJTFji1KjrXvtaMKc5QP8dYHdwxyVvQ_OYHChvIMnnKS-Fb8covrM-IP14qKPCqvmaJ7b8BwzZO5Po4KKRPXGAyCs28_BAD7_85um_dlweD8OBdw8zPjRo1oxy9ywTrX4CDs3UwsSqLAYAKwvCxBhy89cAtY9jLk-H-kHPLa5tR2iUvOwFV-bbgzFnJ4zHQXI8C9HoNh974kOnJXAgt_44pDjXTFclIHBZpjKBc0w_G9c3jyUNk5JngnbQxGHa37kn9OvfFgWCWFax0k2EQpHFLVk8uD_9WRjk75ii4NrqB82JL6ey6wG1Rg_Y6gH2vaAjRQZv5wdU3qfVcRZJf0cl9SFzin7zZLHePHX9LIwUFSnge3Z0y2kKAyDzDZfaBF3a2bsWnxcb0wIgbHGsi5AvoezddodEngZJQzZAQtdMRl1wFDr3pjlkRYPJhqZUSpXsI3NAXLEQ0LVcP1uo0KbZLF3kUGxf5OfrfsKetuMmz8VADaVX-IiXtT0phCaFLlMC6bxeOM-JH411JG3cHsxGlN19E7bNUBzunhUZg3XxkrAKf9h9YYaJsVtwaFz-jXrw6_RVfMdxabjKkkC_0oGhczrg9E8zWpGaY3QJjDMgFiz7WGt3VGh1WBCP_6QqiwvlAHyt231mnDsalh51O5M9oxtHIYoDQ8Xa9Rxa21-TVg6HK7jsSrj28tEvD8-pRIomuDGZ6u1cLrTpI5- -Xx3IyuvMhlAvV7HmoCNh-_z_hkMOEqLt7hTBFxsroBw3m00]--></g></svg>