<?xml version="1.0" encoding="us-ascii" standalone="no"?><svg xmlns="http://www.w3.org/2000/svg" xmlns:xlink="http://www.w3.org/1999/xlink" contentStyleType="text/css" height="685px" preserveAspectRatio="none" style="width:850px;height:685px;background:#FFFFFF;" version="1.1" viewBox="0 0 850 685" width="850px" zoomAndPan="magnify"><defs/><g><rect fill="#FFFFFF" height="513.9473" style="stroke:#181818;stroke-width:1.0;" width="10" x="170" y="90.5332"/><rect fill="#FFFFFF" height="451.3652" style="stroke:#181818;stroke-width:1.0;" width="10" x="334" y="121.8242"/><rect fill="#FFFFFF" height="388.7832" style="stroke:#181818;stroke-width:1.0;" width="10" x="458" y="153.1152"/><rect fill="#FFFFFF" height="31.291" style="stroke:#181818;stroke-width:1.0;" width="10" x="548" y="184.4063"/><rect fill="#FFFFFF" height="93.5332" style="stroke:#181818;stroke-width:1.0;" width="10" x="630" y="410.0742"/><rect fill="none" height="381.7832" style="stroke:#000000;stroke-width:1.5;" width="836" x="3" y="230.6973"/><rect fill="none" height="144.1152" style="stroke:#000000;stroke-width:1.5;" width="406.5" x="422.5" y="367.4922"/><line style="stroke:#181818;stroke-width:0.5;stroke-dasharray:5.0,5.0;" x1="175" x2="175" y1="57.2422" y2="629.4805"/><line style="stroke:#181818;stroke-width:0.5;stroke-dasharray:5.0,5.0;" x1="339" x2="339" y1="57.2422" y2="629.4805"/><line style="stroke:#181818;stroke-width:0.5;stroke-dasharray:5.0,5.0;" x1="462.5" x2="462.5" y1="57.2422" y2="629.4805"/><line style="stroke:#181818;stroke-width:0.5;stroke-dasharray:5.0,5.0;" x1="553" x2="553" y1="57.2422" y2="629.4805"/><line style="stroke:#181818;stroke-width:0.5;stroke-dasharray:5.0,5.0;" x1="635" x2="635" y1="57.2422" y2="629.4805"/><line style="stroke:#181818;stroke-width:0.5;stroke-dasharray:5.0,5.0;" x1="797" x2="797" y1="459.1953" y2="629.4805"/><rect fill="#E2E2F0" height="32.6211" rx="2.5" ry="2.5" style="stroke:#181818;stroke-width:0.5;" width="52" x="149" y="23.6211"/><text fill="#000000" font-family="sans-serif" font-size="14" lengthAdjust="spacing" textLength="38" x="156" y="45.7285">Route</text><rect fill="#E2E2F0" height="32.6211" rx="2.5" ry="2.5" style="stroke:#181818;stroke-width:0.5;" width="52" x="149" y="628.4805"/><text fill="#000000" font-family="sans-serif" font-size="14" lengthAdjust="spacing" textLength="38" x="156" y="650.5879">Route</text><rect fill="#E2E2F0" height="32.6211" rx="2.5" ry="2.5" style="stroke:#181818;stroke-width:0.5;" width="76" x="301" y="23.6211"/><text fill="#000000" font-family="sans-serif" font-size="14" lengthAdjust="spacing" textLength="62" x="308" y="45.7285">Controller</text><rect fill="#E2E2F0" height="32.6211" rx="2.5" ry="2.5" style="stroke:#181818;stroke-width:0.5;" width="76" x="301" y="628.4805"/><text fill="#000000" font-family="sans-serif" font-size="14" lengthAdjust="spacing" textLength="62" x="308" y="650.5879">Controller</text><rect fill="#E2E2F0" height="32.6211" rx="2.5" ry="2.5" style="stroke:#181818;stroke-width:0.5;" width="61" x="432.5" y="23.6211"/><text fill="#000000" font-family="sans-serif" font-size="14" lengthAdjust="spacing" textLength="47" x="439.5" y="45.7285">Service</text><rect fill="#E2E2F0" height="32.6211" rx="2.5" ry="2.5" style="stroke:#181818;stroke-width:0.5;" width="61" x="432.5" y="628.4805"/><text fill="#000000" font-family="sans-serif" font-size="14" lengthAdjust="spacing" textLength="47" x="439.5" y="650.5879">Service</text><rect fill="#E2E2F0" height="32.6211" rx="2.5" ry="2.5" style="stroke:#181818;stroke-width:0.5;" width="82" x="512" y="23.6211"/><text fill="#000000" font-family="sans-serif" font-size="14" lengthAdjust="spacing" textLength="68" x="519" y="45.7285">Repository</text><rect fill="#E2E2F0" height="32.6211" rx="2.5" ry="2.5" style="stroke:#181818;stroke-width:0.5;" width="82" x="512" y="628.4805"/><text fill="#000000" font-family="sans-serif" font-size="14" lengthAdjust="spacing" textLength="68" x="519" y="650.5879">Repository</text><rect fill="#E2E2F0" height="32.6211" rx="2.5" ry="2.5" style="stroke:#181818;stroke-width:0.5;" width="62" x="604" y="23.6211"/><text fill="#000000" font-family="sans-serif" font-size="14" lengthAdjust="spacing" textLength="48" x="611" y="45.7285">Mapper</text><rect fill="#E2E2F0" height="32.6211" rx="2.5" ry="2.5" style="stroke:#181818;stroke-width:0.5;" width="62" x="604" y="628.4805"/><text fill="#000000" font-family="sans-serif" font-size="14" lengthAdjust="spacing" textLength="48" x="611" y="650.5879">Mapper</text><rect fill="#E2E2F0" height="51.2422" rx="2.5" ry="2.5" style="stroke:#181818;stroke-width:0.5;" width="44" x="775" y="628.4805"/><text fill="#000000" font-family="sans-serif" font-size="14" lengthAdjust="spacing" textLength="24" x="785" y="650.5879">dto:</text><text fill="#000000" font-family="sans-serif" font-size="14" lengthAdjust="spacing" textLength="30" x="782" y="669.209">DTO</text><rect fill="#FFFFFF" height="513.9473" style="stroke:#181818;stroke-width:1.0;" width="10" x="170" y="90.5332"/><rect fill="#FFFFFF" height="451.3652" style="stroke:#181818;stroke-width:1.0;" width="10" x="334" y="121.8242"/><rect fill="#FFFFFF" height="388.7832" style="stroke:#181818;stroke-width:1.0;" width="10" x="458" y="153.1152"/><rect fill="#FFFFFF" height="31.291" style="stroke:#181818;stroke-width:1.0;" width="10" x="548" y="184.4063"/><rect fill="#FFFFFF" height="93.5332" style="stroke:#181818;stroke-width:1.0;" width="10" x="630" y="410.0742"/><polygon fill="#181818" points="158,86.5332,168,90.5332,158,94.5332,162,90.5332" style="stroke:#181818;stroke-width:1.0;"/><line style="stroke:#181818;stroke-width:1.0;" x1="0" x2="164" y1="90.5332" y2="90.5332"/><text fill="#000000" font-family="sans-serif" font-size="13" font-weight="bold" lengthAdjust="spacing" textLength="7" x="7" y="85.2705">1</text><text fill="#000000" font-family="sans-serif" font-size="13" lengthAdjust="spacing" textLength="90" x="18" y="85.2705">GET /passages</text><polygon fill="#181818" points="322,117.8242,332,121.8242,322,125.8242,326,121.8242" style="stroke:#181818;stroke-width:1.0;"/><line style="stroke:#181818;stroke-width:1.0;" x1="180" x2="328" y1="121.8242" y2="121.8242"/><text fill="#000000" font-family="sans-serif" font-size="13" font-weight="bold" lengthAdjust="spacing" textLength="7" x="187" y="116.5615">2</text><text fill="#000000" font-family="sans-serif" font-size="13" lengthAdjust="spacing" textLength="124" x="198" y="116.5615">getPassages(req,res)</text><polygon fill="#181818" points="446,149.1152,456,153.1152,446,157.1152,450,153.1152" style="stroke:#181818;stroke-width:1.0;"/><line style="stroke:#181818;stroke-width:1.0;" x1="344" x2="452" y1="153.1152" y2="153.1152"/><text fill="#000000" font-family="sans-serif" font-size="13" font-weight="bold" lengthAdjust="spacing" textLength="7" x="351" y="147.8525">3</text><text fill="#000000" font-family="sans-serif" font-size="13" lengthAdjust="spacing" textLength="84" x="362" y="147.8525">getPassages()</text><polygon fill="#181818" points="536,180.4063,546,184.4063,536,188.4063,540,184.4063" style="stroke:#181818;stroke-width:1.0;"/><line style="stroke:#181818;stroke-width:1.0;" x1="468" x2="542" y1="184.4063" y2="184.4063"/><text fill="#000000" font-family="sans-serif" font-size="13" font-weight="bold" lengthAdjust="spacing" textLength="7" x="475" y="179.1436">4</text><text fill="#000000" font-family="sans-serif" font-size="13" lengthAdjust="spacing" textLength="50" x="486" y="179.1436">findaAll()</text><polygon fill="#181818" points="837,211.6973,847,215.6973,837,219.6973,841,215.6973" style="stroke:#181818;stroke-width:1.0;"/><line style="stroke:#181818;stroke-width:1.0;" x1="553" x2="843" y1="215.6973" y2="215.6973"/><text fill="#000000" font-family="sans-serif" font-size="13" font-weight="bold" lengthAdjust="spacing" textLength="7" x="560" y="210.4346">5</text><text fill="#000000" font-family="sans-serif" font-size="13" lengthAdjust="spacing" textLength="28" x="571" y="210.4346">find()</text><path d="M3,230.6973 L64,230.6973 L64,239.9883 L54,249.9883 L3,249.9883 L3,230.6973 " fill="#EEEEEE" style="stroke:#000000;stroke-width:1.5;"/><rect fill="none" height="381.7832" style="stroke:#000000;stroke-width:1.5;" width="836" x="3" y="230.6973"/><text fill="#000000" font-family="sans-serif" font-size="13" font-weight="bold" lengthAdjust="spacing" textLength="16" x="18" y="245.7256">alt</text><text fill="#000000" font-family="sans-serif" font-size="11" font-weight="bold" lengthAdjust="spacing" textLength="118" x="79" y="244.5674">[passages not found]</text><polygon fill="#181818" points="355,269.2793,345,273.2793,355,277.2793,351,273.2793" style="stroke:#181818;stroke-width:1.0;"/><line style="stroke:#181818;stroke-width:1.0;stroke-dasharray:2.0,2.0;" x1="349" x2="457" y1="273.2793" y2="273.2793"/><text fill="#000000" font-family="sans-serif" font-size="13" font-weight="bold" lengthAdjust="spacing" textLength="7" x="361" y="268.0166">6</text><text fill="#000000" font-family="sans-serif" font-size="13" lengthAdjust="spacing" textLength="26" x="372" y="268.0166">error</text><polygon fill="#181818" points="191,300.5703,181,304.5703,191,308.5703,187,304.5703" style="stroke:#181818;stroke-width:1.0;"/><line style="stroke:#181818;stroke-width:1.0;stroke-dasharray:2.0,2.0;" x1="185" x2="333" y1="304.5703" y2="304.5703"/><text fill="#000000" font-family="sans-serif" font-size="13" font-weight="bold" lengthAdjust="spacing" textLength="7" x="197" y="299.3076">7</text><text fill="#000000" font-family="sans-serif" font-size="13" lengthAdjust="spacing" textLength="59" x="208" y="299.3076">error (404)</text><polygon fill="#181818" points="11,331.8613,1,335.8613,11,339.8613,7,335.8613" style="stroke:#181818;stroke-width:1.0;"/><line style="stroke:#181818;stroke-width:1.0;stroke-dasharray:2.0,2.0;" x1="5" x2="169" y1="335.8613" y2="335.8613"/><text fill="#000000" font-family="sans-serif" font-size="13" font-weight="bold" lengthAdjust="spacing" textLength="7" x="17" y="330.5986">8</text><text fill="#000000" font-family="sans-serif" font-size="13" lengthAdjust="spacing" textLength="84" x="28" y="330.5986">404: Not found</text><line style="stroke:#000000;stroke-width:1.0;stroke-dasharray:2.0,2.0;" x1="3" x2="839" y1="344.8613" y2="344.8613"/><text fill="#000000" font-family="sans-serif" font-size="11" font-weight="bold" lengthAdjust="spacing" textLength="97" x="8" y="356.7314">[passages found]</text><path d="M422.5,367.4922 L495.5,367.4922 L495.5,376.7832 L485.5,386.7832 L422.5,386.7832 L422.5,367.4922 " fill="#EEEEEE" style="stroke:#000000;stroke-width:1.5;"/><rect fill="none" height="144.1152" style="stroke:#000000;stroke-width:1.5;" width="406.5" x="422.5" y="367.4922"/><text fill="#000000" font-family="sans-serif" font-size="13" font-weight="bold" lengthAdjust="spacing" textLength="28" x="437.5" y="382.5205">loop</text><text fill="#000000" font-family="sans-serif" font-size="11" font-weight="bold" lengthAdjust="spacing" textLength="103" x="510.5" y="381.3623">[for each passage]</text><polygon fill="#181818" points="618,406.0742,628,410.0742,618,414.0742,622,410.0742" style="stroke:#181818;stroke-width:1.0;"/><line style="stroke:#181818;stroke-width:1.0;" x1="468" x2="624" y1="410.0742" y2="410.0742"/><text fill="#000000" font-family="sans-serif" font-size="13" font-weight="bold" lengthAdjust="spacing" textLength="7" x="475" y="404.8115">9</text><text fill="#000000" font-family="sans-serif" font-size="13" lengthAdjust="spacing" textLength="94" x="486" y="404.8115">toDTO(passage)</text><polygon fill="#181818" points="763,437.3652,773,441.3652,763,445.3652,767,441.3652" style="stroke:#181818;stroke-width:1.0;"/><line style="stroke:#181818;stroke-width:1.0;stroke-dasharray:2.0,2.0;" x1="640" x2="769" y1="441.3652" y2="441.3652"/><text fill="#000000" font-family="sans-serif" font-size="13" font-weight="bold" lengthAdjust="spacing" textLength="14" x="647" y="436.1025">10</text><text fill="#000000" font-family="sans-serif" font-size="13" lengthAdjust="spacing" textLength="93" x="665" y="436.1025">create(passage)</text><rect fill="#E2E2F0" height="51.2422" rx="2.5" ry="2.5" style="stroke:#181818;stroke-width:0.5;" width="44" x="775" y="418.0742"/><text fill="#000000" font-family="sans-serif" font-size="14" lengthAdjust="spacing" textLength="24" x="785" y="440.1816">dto:</text><text fill="#000000" font-family="sans-serif" font-size="14" lengthAdjust="spacing" textLength="30" x="782" y="458.8027">DTO</text><polygon fill="#181818" points="479,499.6074,469,503.6074,479,507.6074,475,503.6074" style="stroke:#181818;stroke-width:1.0;"/><line style="stroke:#181818;stroke-width:1.0;stroke-dasharray:2.0,2.0;" x1="473" x2="634" y1="503.6074" y2="503.6074"/><text fill="#000000" font-family="sans-serif" font-size="13" font-weight="bold" lengthAdjust="spacing" textLength="14" x="485" y="498.3447">11</text><text fill="#000000" font-family="sans-serif" font-size="13" lengthAdjust="spacing" textLength="18" x="503" y="498.3447">dto</text><polygon fill="#181818" points="355,537.8984,345,541.8984,355,545.8984,351,541.8984" style="stroke:#181818;stroke-width:1.0;"/><line style="stroke:#181818;stroke-width:1.0;stroke-dasharray:2.0,2.0;" x1="349" x2="462" y1="541.8984" y2="541.8984"/><text fill="#000000" font-family="sans-serif" font-size="13" font-weight="bold" lengthAdjust="spacing" textLength="14" x="361" y="536.6357">12</text><text fill="#000000" font-family="sans-serif" font-size="13" lengthAdjust="spacing" textLength="18" x="379" y="536.6357">dto</text><polygon fill="#181818" points="191,569.1895,181,573.1895,191,577.1895,187,573.1895" style="stroke:#181818;stroke-width:1.0;"/><line style="stroke:#181818;stroke-width:1.0;stroke-dasharray:2.0,2.0;" x1="185" x2="338" y1="573.1895" y2="573.1895"/><text fill="#000000" font-family="sans-serif" font-size="13" font-weight="bold" lengthAdjust="spacing" textLength="14" x="197" y="567.9268">13</text><text fill="#000000" font-family="sans-serif" font-size="13" lengthAdjust="spacing" textLength="47" x="215" y="567.9268">dto(200)</text><polygon fill="#181818" points="11,600.4805,1,604.4805,11,608.4805,7,604.4805" style="stroke:#181818;stroke-width:1.0;"/><line style="stroke:#181818;stroke-width:1.0;stroke-dasharray:2.0,2.0;" x1="5" x2="174" y1="604.4805" y2="604.4805"/><text fill="#000000" font-family="sans-serif" font-size="13" font-weight="bold" lengthAdjust="spacing" textLength="14" x="17" y="599.2178">14</text><text fill="#000000" font-family="sans-serif" font-size="13" lengthAdjust="spacing" textLength="126" x="35" y="599.2178">200: "OK" Successful</text><!--SRC=[VPDFJyCm3CNl-HJMBdI8YWdjDA59210714Dijy4XfDweb3N5IIVnxN7Ihlz7RgtVxyLsNsNXJ5OSlf24o2MvLAMvp1nCtatXS0BI0dKBzoPpPBH62bNbI7S5QwHZgahM7bNF5dDZKsVej_Jcnzx5BpBFA- -3pBkrn9d5H_QmMOKoFmcnZPT0i82dnmrSvz9QkKShf7BfKJhavWNm8M2PRvMLUtHlbIuY_BaYjDCWgg4mKtZbJy0OvrbwzBJMrAWVk7xhZwTyYpmeqxiqI-ITrYsqWuTzGEy4Dbv-LdoFJR1BTusrWzDI83CETgR8ai4DeSbcGqXaQ20gzr2jEqWWci_cqu5mUnl7GSJL1RoEtehQOjFPU5VQc9nB13pXzqayKBMMp7dXMvtXW4ILV2f6WNfbFc9mvdWxFo_dxFAIZHKX8utpEUwYiVSHFIzhVRh_XAS-oW2UKxRCneR2B0aB7Kbdy-7RtYs_JgWxCM0WkfdDobsqYEOFgiF0iWLCLiyJM1TAeRMxGejsU0MtAFu0]--></g></svg>