<?xml version="1.0" encoding="us-ascii" standalone="no"?><svg xmlns="http://www.w3.org/2000/svg" xmlns:xlink="http://www.w3.org/1999/xlink" contentStyleType="text/css" height="802px" preserveAspectRatio="none" style="width:934px;height:802px;background:#FFFFFF;" version="1.1" viewBox="0 0 934 802" width="934px" zoomAndPan="magnify"><defs/><g><rect fill="#FFFFFF" height="781.4854" style="stroke:#181818;stroke-width:1.5;" width="923" x="5" y="15"/><path d="M36,15 L36,26.6211 L26,36.6211 L5,36.6211 " fill="none" style="stroke:#181818;stroke-width:1.5;"/><text fill="#000000" font-family="sans-serif" font-size="14" lengthAdjust="spacing" textLength="21" x="8" y="31.1074">MD</text><rect fill="#ADD8E6" height="724.4805" style="stroke:#181818;stroke-width:0.5;" width="633" x="195" y="46.3838"/><text fill="#000000" font-family="sans-serif" font-size="13" font-weight="bold" lengthAdjust="spacing" textLength="59" x="482" y="60.4121">Back-End</text><rect fill="#DDDDDD" height="724.4805" style="stroke:#181818;stroke-width:0.5;" width="82" x="830" y="46.3838"/><text fill="#000000" font-family="sans-serif" font-size="13" font-weight="bold" lengthAdjust="spacing" textLength="59" x="841.5" y="60.4121">Database</text><rect fill="#FFFFFF" height="527.6563" style="stroke:#181818;stroke-width:1.0;" width="10" x="220" y="165.5869"/><rect fill="#FFFFFF" height="496.3652" style="stroke:#181818;stroke-width:1.0;" width="10" x="384" y="196.8779"/><rect fill="#FFFFFF" height="465.0742" style="stroke:#181818;stroke-width:1.0;" width="10" x="508" y="228.1689"/><rect fill="#FFFFFF" height="93.5332" style="stroke:#181818;stroke-width:1.0;" width="10" x="642" y="483.8369"/><rect fill="#FFFFFF" height="52.2422" style="stroke:#181818;stroke-width:1.0;" width="10" x="797" y="525.1279"/><rect fill="#FFFFFF" height="30" style="stroke:#181818;stroke-width:1.0;" width="10" x="866" y="259.46"/><rect fill="none" height="381.7832" style="stroke:#000000;stroke-width:1.5;" width="824" x="20" y="304.46"/><rect fill="none" height="144.1152" style="stroke:#000000;stroke-width:1.5;" width="361.5" x="472.5" y="441.2549"/><line style="stroke:#181818;stroke-width:0.5;stroke-dasharray:5.0,5.0;" x1="45" x2="45" y1="132.2959" y2="703.2432"/><line style="stroke:#181818;stroke-width:0.5;stroke-dasharray:5.0,5.0;" x1="225" x2="225" y1="132.2959" y2="703.2432"/><line style="stroke:#181818;stroke-width:0.5;stroke-dasharray:5.0,5.0;" x1="389" x2="389" y1="132.2959" y2="703.2432"/><line style="stroke:#181818;stroke-width:0.5;stroke-dasharray:5.0,5.0;" x1="512.5" x2="512.5" y1="132.2959" y2="703.2432"/><line style="stroke:#181818;stroke-width:0.5;stroke-dasharray:5.0,5.0;" x1="647" x2="647" y1="132.2959" y2="703.2432"/><line style="stroke:#181818;stroke-width:0.5;stroke-dasharray:5.0,5.0;" x1="802" x2="802" y1="532.958" y2="703.2432"/><line style="stroke:#181818;stroke-width:0.5;stroke-dasharray:5.0,5.0;" x1="871" x2="871" y1="132.2959" y2="703.2432"/><rect fill="#E2E2F0" height="32.6211" rx="2.5" ry="2.5" style="stroke:#181818;stroke-width:0.5;" width="30" x="30" y="98.6748"/><text fill="#000000" font-family="sans-serif" font-size="14" lengthAdjust="spacing" textLength="16" x="37" y="120.7822">??</text><rect fill="#E2E2F0" height="32.6211" rx="2.5" ry="2.5" style="stroke:#181818;stroke-width:0.5;" width="30" x="30" y="702.2432"/><text fill="#000000" font-family="sans-serif" font-size="14" lengthAdjust="spacing" textLength="16" x="37" y="724.3506">??</text><rect fill="#E2E2F0" height="32.6211" rx="2.5" ry="2.5" style="stroke:#181818;stroke-width:0.5;" width="52" x="199" y="98.6748"/><text fill="#000000" font-family="sans-serif" font-size="14" lengthAdjust="spacing" textLength="38" x="206" y="120.7822">Route</text><rect fill="#E2E2F0" height="32.6211" rx="2.5" ry="2.5" style="stroke:#181818;stroke-width:0.5;" width="52" x="199" y="702.2432"/><text fill="#000000" font-family="sans-serif" font-size="14" lengthAdjust="spacing" textLength="38" x="206" y="724.3506">Route</text><rect fill="#E2E2F0" height="32.6211" rx="2.5" ry="2.5" style="stroke:#181818;stroke-width:0.5;" width="76" x="351" y="98.6748"/><text fill="#000000" font-family="sans-serif" font-size="14" lengthAdjust="spacing" textLength="62" x="358" y="120.7822">Controller</text><rect fill="#E2E2F0" height="32.6211" rx="2.5" ry="2.5" style="stroke:#181818;stroke-width:0.5;" width="76" x="351" y="702.2432"/><text fill="#000000" font-family="sans-serif" font-size="14" lengthAdjust="spacing" textLength="62" x="358" y="724.3506">Controller</text><rect fill="#E2E2F0" height="32.6211" rx="2.5" ry="2.5" style="stroke:#181818;stroke-width:0.5;" width="61" x="482.5" y="98.6748"/><text fill="#000000" font-family="sans-serif" font-size="14" lengthAdjust="spacing" textLength="47" x="489.5" y="120.7822">Service</text><rect fill="#E2E2F0" height="32.6211" rx="2.5" ry="2.5" style="stroke:#181818;stroke-width:0.5;" width="61" x="482.5" y="702.2432"/><text fill="#000000" font-family="sans-serif" font-size="14" lengthAdjust="spacing" textLength="47" x="489.5" y="724.3506">Service</text><rect fill="#E2E2F0" height="32.6211" rx="2.5" ry="2.5" style="stroke:#181818;stroke-width:0.5;" width="62" x="616" y="98.6748"/><text fill="#000000" font-family="sans-serif" font-size="14" lengthAdjust="spacing" textLength="48" x="623" y="120.7822">Mapper</text><rect fill="#E2E2F0" height="32.6211" rx="2.5" ry="2.5" style="stroke:#181818;stroke-width:0.5;" width="62" x="616" y="702.2432"/><text fill="#000000" font-family="sans-serif" font-size="14" lengthAdjust="spacing" textLength="48" x="623" y="724.3506">Mapper</text><rect fill="#E2E2F0" height="51.2422" rx="2.5" ry="2.5" style="stroke:#181818;stroke-width:0.5;" width="44" x="780" y="702.2432"/><text fill="#000000" font-family="sans-serif" font-size="14" lengthAdjust="spacing" textLength="24" x="790" y="724.3506">dto:</text><text fill="#000000" font-family="sans-serif" font-size="14" lengthAdjust="spacing" textLength="30" x="787" y="742.9717">DTO</text><text fill="#000000" font-family="sans-serif" font-size="14" lengthAdjust="spacing" textLength="68" x="834" y="128.7822">Repository</text><path d="M853,77.6748 C853,67.6748 871,67.6748 871,67.6748 C871,67.6748 889,67.6748 889,77.6748 L889,103.6748 C889,113.6748 871,113.6748 871,113.6748 C871,113.6748 853,113.6748 853,103.6748 L853,77.6748 " fill="#E2E2F0" style="stroke:#181818;stroke-width:1.5;"/><path d="M853,77.6748 C853,87.6748 871,87.6748 871,87.6748 C871,87.6748 889,87.6748 889,77.6748 " fill="none" style="stroke:#181818;stroke-width:1.5;"/><text fill="#000000" font-family="sans-serif" font-size="14" lengthAdjust="spacing" textLength="68" x="834" y="717.3506">Repository</text><path d="M853,730.8643 C853,720.8643 871,720.8643 871,720.8643 C871,720.8643 889,720.8643 889,730.8643 L889,756.8643 C889,766.8643 871,766.8643 871,766.8643 C871,766.8643 853,766.8643 853,756.8643 L853,730.8643 " fill="#E2E2F0" style="stroke:#181818;stroke-width:1.5;"/><path d="M853,730.8643 C853,740.8643 871,740.8643 871,740.8643 C871,740.8643 889,740.8643 889,730.8643 " fill="none" style="stroke:#181818;stroke-width:1.5;"/><rect fill="#FFFFFF" height="527.6563" style="stroke:#181818;stroke-width:1.0;" width="10" x="220" y="165.5869"/><rect fill="#FFFFFF" height="496.3652" style="stroke:#181818;stroke-width:1.0;" width="10" x="384" y="196.8779"/><rect fill="#FFFFFF" height="465.0742" style="stroke:#181818;stroke-width:1.0;" width="10" x="508" y="228.1689"/><rect fill="#FFFFFF" height="93.5332" style="stroke:#181818;stroke-width:1.0;" width="10" x="642" y="483.8369"/><rect fill="#FFFFFF" height="52.2422" style="stroke:#181818;stroke-width:1.0;" width="10" x="797" y="525.1279"/><rect fill="#FFFFFF" height="30" style="stroke:#181818;stroke-width:1.0;" width="10" x="866" y="259.46"/><polygon fill="#181818" points="208,161.5869,218,165.5869,208,169.5869,212,165.5869" style="stroke:#181818;stroke-width:1.0;"/><line style="stroke:#181818;stroke-width:1.0;stroke-dasharray:2.0,2.0;" x1="45" x2="214" y1="165.5869" y2="165.5869"/><text fill="#000000" font-family="sans-serif" font-size="13" font-weight="bold" lengthAdjust="spacing" textLength="7" x="52" y="160.3242">1</text><text fill="#000000" font-family="sans-serif" font-size="13" lengthAdjust="spacing" textLength="90" x="63" y="160.3242">GET /passages</text><polygon fill="#181818" points="372,192.8779,382,196.8779,372,200.8779,376,196.8779" style="stroke:#181818;stroke-width:1.0;"/><line style="stroke:#181818;stroke-width:1.0;" x1="230" x2="378" y1="196.8779" y2="196.8779"/><text fill="#000000" font-family="sans-serif" font-size="13" font-weight="bold" lengthAdjust="spacing" textLength="7" x="237" y="191.6152">2</text><text fill="#000000" font-family="sans-serif" font-size="13" lengthAdjust="spacing" textLength="124" x="248" y="191.6152">getPassages(req,res)</text><polygon fill="#181818" points="496,224.1689,506,228.1689,496,232.1689,500,228.1689" style="stroke:#181818;stroke-width:1.0;"/><line style="stroke:#181818;stroke-width:1.0;" x1="394" x2="502" y1="228.1689" y2="228.1689"/><text fill="#000000" font-family="sans-serif" font-size="13" font-weight="bold" lengthAdjust="spacing" textLength="7" x="401" y="222.9063">3</text><text fill="#000000" font-family="sans-serif" font-size="13" lengthAdjust="spacing" textLength="84" x="412" y="222.9063">getPassages()</text><polygon fill="#181818" points="854,255.46,864,259.46,854,263.46,858,259.46" style="stroke:#181818;stroke-width:1.0;"/><line style="stroke:#181818;stroke-width:1.0;" x1="518" x2="860" y1="259.46" y2="259.46"/><text fill="#000000" font-family="sans-serif" font-size="13" font-weight="bold" lengthAdjust="spacing" textLength="7" x="525" y="254.1973">4</text><text fill="#000000" font-family="sans-serif" font-size="13" lengthAdjust="spacing" textLength="50" x="536" y="254.1973">findaAll()</text><path d="M20,304.46 L81,304.46 L81,313.751 L71,323.751 L20,323.751 L20,304.46 " fill="#EEEEEE" style="stroke:#000000;stroke-width:1.5;"/><rect fill="none" height="381.7832" style="stroke:#000000;stroke-width:1.5;" width="824" x="20" y="304.46"/><text fill="#000000" font-family="sans-serif" font-size="13" font-weight="bold" lengthAdjust="spacing" textLength="16" x="35" y="319.4883">alt</text><text fill="#000000" font-family="sans-serif" font-size="11" font-weight="bold" lengthAdjust="spacing" textLength="118" x="96" y="318.3301">[passages not found]</text><polygon fill="#181818" points="405,343.042,395,347.042,405,351.042,401,347.042" style="stroke:#181818;stroke-width:1.0;"/><line style="stroke:#181818;stroke-width:1.0;stroke-dasharray:2.0,2.0;" x1="399" x2="507" y1="347.042" y2="347.042"/><text fill="#000000" font-family="sans-serif" font-size="13" font-weight="bold" lengthAdjust="spacing" textLength="7" x="411" y="341.7793">5</text><text fill="#000000" font-family="sans-serif" font-size="13" lengthAdjust="spacing" textLength="26" x="422" y="341.7793">error</text><polygon fill="#181818" points="241,374.333,231,378.333,241,382.333,237,378.333" style="stroke:#181818;stroke-width:1.0;"/><line style="stroke:#181818;stroke-width:1.0;stroke-dasharray:2.0,2.0;" x1="235" x2="383" y1="378.333" y2="378.333"/><text fill="#000000" font-family="sans-serif" font-size="13" font-weight="bold" lengthAdjust="spacing" textLength="7" x="247" y="373.0703">6</text><text fill="#000000" font-family="sans-serif" font-size="13" lengthAdjust="spacing" textLength="59" x="258" y="373.0703">error (412)</text><polygon fill="#181818" points="56,405.624,46,409.624,56,413.624,52,409.624" style="stroke:#181818;stroke-width:1.0;"/><line style="stroke:#181818;stroke-width:1.0;stroke-dasharray:2.0,2.0;" x1="50" x2="219" y1="409.624" y2="409.624"/><text fill="#000000" font-family="sans-serif" font-size="13" font-weight="bold" lengthAdjust="spacing" textLength="7" x="62" y="404.3613">7</text><text fill="#000000" font-family="sans-serif" font-size="13" lengthAdjust="spacing" textLength="140" x="73" y="404.3613">412: Precondition Failed</text><line style="stroke:#000000;stroke-width:1.0;stroke-dasharray:2.0,2.0;" x1="20" x2="844" y1="418.624" y2="418.624"/><text fill="#000000" font-family="sans-serif" font-size="11" font-weight="bold" lengthAdjust="spacing" textLength="97" x="25" y="430.4941">[passages found]</text><path d="M472.5,441.2549 L545.5,441.2549 L545.5,450.5459 L535.5,460.5459 L472.5,460.5459 L472.5,441.2549 " fill="#EEEEEE" style="stroke:#000000;stroke-width:1.5;"/><rect fill="none" height="144.1152" style="stroke:#000000;stroke-width:1.5;" width="361.5" x="472.5" y="441.2549"/><text fill="#000000" font-family="sans-serif" font-size="13" font-weight="bold" lengthAdjust="spacing" textLength="28" x="487.5" y="456.2832">loop</text><text fill="#000000" font-family="sans-serif" font-size="11" font-weight="bold" lengthAdjust="spacing" textLength="103" x="560.5" y="455.125">[for each passage]</text><polygon fill="#181818" points="630,479.8369,640,483.8369,630,487.8369,634,483.8369" style="stroke:#181818;stroke-width:1.0;"/><line style="stroke:#181818;stroke-width:1.0;" x1="518" x2="636" y1="483.8369" y2="483.8369"/><text fill="#000000" font-family="sans-serif" font-size="13" font-weight="bold" lengthAdjust="spacing" textLength="7" x="525" y="478.5742">8</text><text fill="#000000" font-family="sans-serif" font-size="13" lengthAdjust="spacing" textLength="94" x="536" y="478.5742">toDTO(passage)</text><polygon fill="#181818" points="768,511.1279,778,515.1279,768,519.1279,772,515.1279" style="stroke:#181818;stroke-width:1.0;"/><line style="stroke:#181818;stroke-width:1.0;stroke-dasharray:2.0,2.0;" x1="652" x2="774" y1="515.1279" y2="515.1279"/><text fill="#000000" font-family="sans-serif" font-size="13" font-weight="bold" lengthAdjust="spacing" textLength="7" x="659" y="509.8652">9</text><text fill="#000000" font-family="sans-serif" font-size="13" lengthAdjust="spacing" textLength="93" x="670" y="509.8652">create(passage)</text><rect fill="#E2E2F0" height="51.2422" rx="2.5" ry="2.5" style="stroke:#181818;stroke-width:0.5;" width="44" x="780" y="491.8369"/><text fill="#000000" font-family="sans-serif" font-size="14" lengthAdjust="spacing" textLength="24" x="790" y="513.9443">dto:</text><text fill="#000000" font-family="sans-serif" font-size="14" lengthAdjust="spacing" textLength="30" x="787" y="532.5654">DTO</text><polygon fill="#181818" points="529,573.3701,519,577.3701,529,581.3701,525,577.3701" style="stroke:#181818;stroke-width:1.0;"/><line style="stroke:#181818;stroke-width:1.0;stroke-dasharray:2.0,2.0;" x1="523" x2="646" y1="577.3701" y2="577.3701"/><text fill="#000000" font-family="sans-serif" font-size="13" font-weight="bold" lengthAdjust="spacing" textLength="14" x="535" y="572.1074">10</text><text fill="#000000" font-family="sans-serif" font-size="13" lengthAdjust="spacing" textLength="18" x="553" y="572.1074">dto</text><polygon fill="#181818" points="405,611.6611,395,615.6611,405,619.6611,401,615.6611" style="stroke:#181818;stroke-width:1.0;"/><line style="stroke:#181818;stroke-width:1.0;stroke-dasharray:2.0,2.0;" x1="399" x2="507" y1="615.6611" y2="615.6611"/><text fill="#000000" font-family="sans-serif" font-size="13" font-weight="bold" lengthAdjust="spacing" textLength="14" x="411" y="610.3984">11</text><text fill="#000000" font-family="sans-serif" font-size="13" lengthAdjust="spacing" textLength="18" x="429" y="610.3984">dto</text><polygon fill="#181818" points="241,642.9521,231,646.9521,241,650.9521,237,646.9521" style="stroke:#181818;stroke-width:1.0;"/><line style="stroke:#181818;stroke-width:1.0;stroke-dasharray:2.0,2.0;" x1="235" x2="383" y1="646.9521" y2="646.9521"/><text fill="#000000" font-family="sans-serif" font-size="13" font-weight="bold" lengthAdjust="spacing" textLength="14" x="247" y="641.6895">12</text><text fill="#000000" font-family="sans-serif" font-size="13" lengthAdjust="spacing" textLength="53" x="265" y="641.6895">response</text><polygon fill="#181818" points="56,674.2432,46,678.2432,56,682.2432,52,678.2432" style="stroke:#181818;stroke-width:1.0;"/><line style="stroke:#181818;stroke-width:1.0;stroke-dasharray:2.0,2.0;" x1="50" x2="219" y1="678.2432" y2="678.2432"/><text fill="#000000" font-family="sans-serif" font-size="13" font-weight="bold" lengthAdjust="spacing" textLength="14" x="62" y="672.9805">13</text><text fill="#000000" font-family="sans-serif" font-size="13" lengthAdjust="spacing" textLength="126" x="80" y="672.9805">200: "OK" Successful</text><!--SRC=[ZLHDRzim3BthLn3U9Ibgh2jsCeeLwzBji1KjrXvtOMGc5QP8dZw2xT-FicF7TeBQFDdcU-GZzMICmPguMvCJea8Nb5GLcW3PxMq6w24g8NQepCRXZk1X9TRsBsHtA7_dzwRCuDqFjNqDTphIaFxJna1r1JTCVB4cEAirkJehWzD3m3EvlP8Dr-_bIDO3LjM1kiDgc2k3BNwPrSjZdUOtGQO45YmQrIiCk4PFcIWFJwoJAkjLiEvV8vPVZwoe8Cy_WIlWs_qBlA_GUzoI5y21CgWz1kBvu10E69m6WWAs59uEy8MZFvUE_B83TjnwUkX5pUOgFFYeo7A0woga3S4e4Zd9vbcuo4QP4ZzhFQemd26DVP8kQGA0Ea2x530smCP6Kvx0Eat7zP1prfq5DXj8ybiOB3v-k5wU1KTra-S9o8W2dXn9QqeLb3Nm5PMcKosa-TGxpOrUSRPs6zhQYe4EU1klBVLDHlyGsAGiBrXsvUB0NKwIkxKdYyECI5tIpjZp5nVSJpfY-lo6WwRfui3CQ1itVftBx1bh3gK7drf8khhfmCIiupdwSOwCWJFvFbVM-6aZr1QjATTNLmLaZzypU8vIalURgAU64IDpzbRHl_czpzqlfNzxnNy0]--></g></svg>