<?xml version="1.0" encoding="us-ascii" standalone="no"?><svg xmlns="http://www.w3.org/2000/svg" xmlns:xlink="http://www.w3.org/1999/xlink" contentStyleType="text/css" height="626px" preserveAspectRatio="none" style="width:513px;height:626px;background:#FFFFFF;" version="1.1" viewBox="0 0 513 626" width="513px" zoomAndPan="magnify"><defs/><g><rect fill="#FFFFFF" height="422.2578" style="stroke:#181818;stroke-width:1.0;" width="10" x="48" y="91.4883"/><rect fill="#FFFFFF" height="185.8184" style="stroke:#181818;stroke-width:1.0;" width="10" x="272" y="112.7988"/><rect fill="#FFFFFF" height="185.8184" style="stroke:#181818;stroke-width:1.0;" width="10" x="272" y="327.9277"/><rect fill="#FFFFFF" height="127.1973" style="stroke:#181818;stroke-width:1.0;" width="10" x="459" y="142.1094"/><rect fill="#FFFFFF" height="156.5078" style="stroke:#181818;stroke-width:1.0;" width="10" x="459" y="357.2383"/><rect fill="none" height="371.6367" style="stroke:#000000;stroke-width:1.5;" width="496.5" x="10" y="157.1094"/><rect fill="none" height="149.5078" style="stroke:#000000;stroke-width:1.5;" width="476.5" x="20" y="372.2383"/><line style="stroke:#181818;stroke-width:0.5;stroke-dasharray:5.0,5.0;" x1="53" x2="53" y1="81.4883" y2="545.7461"/><line style="stroke:#181818;stroke-width:0.5;stroke-dasharray:5.0,5.0;" x1="277" x2="277" y1="81.4883" y2="545.7461"/><line style="stroke:#181818;stroke-width:0.5;stroke-dasharray:5.0,5.0;" x1="463.5" x2="463.5" y1="81.4883" y2="545.7461"/><text fill="#000000" font-family="sans-serif" font-size="14" lengthAdjust="spacing" textLength="40" x="30" y="78.5352">Client</text><ellipse cx="53" cy="13.5" fill="#E2E2F0" rx="8" ry="8" style="stroke:#181818;stroke-width:0.5;"/><path d="M53,21.5 L53,48.5 M40,29.5 L66,29.5 M53,48.5 L40,63.5 M53,48.5 L66,63.5 " fill="none" style="stroke:#181818;stroke-width:0.5;"/><text fill="#000000" font-family="sans-serif" font-size="14" lengthAdjust="spacing" textLength="40" x="30" y="558.2813">Client</text><ellipse cx="53" cy="569.7344" fill="#E2E2F0" rx="8" ry="8" style="stroke:#181818;stroke-width:0.5;"/><path d="M53,577.7344 L53,604.7344 M40,585.7344 L66,585.7344 M53,604.7344 L40,619.7344 M53,604.7344 L66,619.7344 " fill="none" style="stroke:#181818;stroke-width:0.5;"/><rect fill="#E2E2F0" height="30.4883" rx="2.5" ry="2.5" style="stroke:#181818;stroke-width:0.5;" width="40" x="257" y="50"/><text fill="#000000" font-family="sans-serif" font-size="14" lengthAdjust="spacing" textLength="26" x="264" y="70.5352">SPA</text><rect fill="#E2E2F0" height="30.4883" rx="2.5" ry="2.5" style="stroke:#181818;stroke-width:0.5;" width="40" x="257" y="544.7461"/><text fill="#000000" font-family="sans-serif" font-size="14" lengthAdjust="spacing" textLength="26" x="264" y="565.2813">SPA</text><rect fill="#E2E2F0" height="30.4883" rx="2.5" ry="2.5" style="stroke:#181818;stroke-width:0.5;" width="45" x="441.5" y="50"/><text fill="#000000" font-family="sans-serif" font-size="14" lengthAdjust="spacing" textLength="31" x="448.5" y="70.5352">MDR</text><rect fill="#E2E2F0" height="30.4883" rx="2.5" ry="2.5" style="stroke:#181818;stroke-width:0.5;" width="45" x="441.5" y="544.7461"/><text fill="#000000" font-family="sans-serif" font-size="14" lengthAdjust="spacing" textLength="31" x="448.5" y="565.2813">MDR</text><rect fill="#FFFFFF" height="422.2578" style="stroke:#181818;stroke-width:1.0;" width="10" x="48" y="91.4883"/><rect fill="#FFFFFF" height="185.8184" style="stroke:#181818;stroke-width:1.0;" width="10" x="272" y="112.7988"/><rect fill="#FFFFFF" height="185.8184" style="stroke:#181818;stroke-width:1.0;" width="10" x="272" y="327.9277"/><rect fill="#FFFFFF" height="127.1973" style="stroke:#181818;stroke-width:1.0;" width="10" x="459" y="142.1094"/><rect fill="#FFFFFF" height="156.5078" style="stroke:#181818;stroke-width:1.0;" width="10" x="459" y="357.2383"/><polygon fill="#181818" points="260,108.7988,270,112.7988,260,116.7988,264,112.7988" style="stroke:#181818;stroke-width:1.0;"/><line style="stroke:#181818;stroke-width:1.0;" x1="58" x2="266" y1="112.7988" y2="112.7988"/><text fill="#000000" font-family="sans-serif" font-size="13" font-weight="bold" lengthAdjust="spacing" textLength="9" x="65" y="108.0566">1</text><text fill="#000000" font-family="sans-serif" font-size="13" lengthAdjust="spacing" textLength="152" x="78" y="108.0566">wants to edit client data</text><polygon fill="#181818" points="447,138.1094,457,142.1094,447,146.1094,451,142.1094" style="stroke:#181818;stroke-width:1.0;"/><line style="stroke:#181818;stroke-width:1.0;" x1="282" x2="453" y1="142.1094" y2="142.1094"/><text fill="#000000" font-family="sans-serif" font-size="13" font-weight="bold" lengthAdjust="spacing" textLength="9" x="289" y="137.3672">2</text><text fill="#000000" font-family="sans-serif" font-size="13" lengthAdjust="spacing" textLength="126" x="302" y="137.3672">GET /clients/{email}</text><path d="M10,157.1094 L72,157.1094 L72,164.4199 L62,174.4199 L10,174.4199 L10,157.1094 " fill="#EEEEEE" style="stroke:#000000;stroke-width:1.5;"/><rect fill="none" height="371.6367" style="stroke:#000000;stroke-width:1.5;" width="496.5" x="10" y="157.1094"/><text fill="#000000" font-family="sans-serif" font-size="13" font-weight="bold" lengthAdjust="spacing" textLength="17" x="25" y="170.6777">alt</text><text fill="#000000" font-family="sans-serif" font-size="11" font-weight="bold" lengthAdjust="spacing" textLength="98" x="87" y="169.7441">[client not found]</text><polygon fill="#181818" points="293,191.7305,283,195.7305,293,199.7305,289,195.7305" style="stroke:#181818;stroke-width:1.0;"/><line style="stroke:#181818;stroke-width:1.0;stroke-dasharray:2.0,2.0;" x1="287" x2="458" y1="195.7305" y2="195.7305"/><text fill="#000000" font-family="sans-serif" font-size="13" font-weight="bold" lengthAdjust="spacing" textLength="9" x="299" y="190.9883">3</text><text fill="#000000" font-family="sans-serif" font-size="13" lengthAdjust="spacing" textLength="62" x="312" y="190.9883">404: error</text><polygon fill="#181818" points="69,221.041,59,225.041,69,229.041,65,225.041" style="stroke:#181818;stroke-width:1.0;"/><line style="stroke:#181818;stroke-width:1.0;stroke-dasharray:2.0,2.0;" x1="63" x2="271" y1="225.041" y2="225.041"/><text fill="#000000" font-family="sans-serif" font-size="13" font-weight="bold" lengthAdjust="spacing" textLength="9" x="75" y="220.2988">4</text><text fill="#000000" font-family="sans-serif" font-size="13" lengthAdjust="spacing" textLength="83" x="88" y="220.2988">informs error</text><line style="stroke:#000000;stroke-width:1.0;stroke-dasharray:2.0,2.0;" x1="10" x2="506.5" y1="234.041" y2="234.041"/><text fill="#000000" font-family="sans-serif" font-size="11" font-weight="bold" lengthAdjust="spacing" textLength="76" x="15" y="244.6758">[client found]</text><polygon fill="#181818" points="293,265.3066,283,269.3066,293,273.3066,289,269.3066" style="stroke:#181818;stroke-width:1.0;"/><line style="stroke:#181818;stroke-width:1.0;stroke-dasharray:2.0,2.0;" x1="287" x2="463" y1="269.3066" y2="269.3066"/><text fill="#000000" font-family="sans-serif" font-size="13" font-weight="bold" lengthAdjust="spacing" textLength="9" x="299" y="264.5645">5</text><text fill="#000000" font-family="sans-serif" font-size="13" lengthAdjust="spacing" textLength="71" x="312" y="264.5645">200 : client</text><polygon fill="#181818" points="69,294.6172,59,298.6172,69,302.6172,65,298.6172" style="stroke:#181818;stroke-width:1.0;"/><line style="stroke:#181818;stroke-width:1.0;stroke-dasharray:2.0,2.0;" x1="63" x2="276" y1="298.6172" y2="298.6172"/><text fill="#000000" font-family="sans-serif" font-size="13" font-weight="bold" lengthAdjust="spacing" textLength="9" x="75" y="293.875">6</text><text fill="#000000" font-family="sans-serif" font-size="13" lengthAdjust="spacing" textLength="85" x="88" y="293.875">requests data</text><polygon fill="#181818" points="260,323.9277,270,327.9277,260,331.9277,264,327.9277" style="stroke:#181818;stroke-width:1.0;"/><line style="stroke:#181818;stroke-width:1.0;" x1="58" x2="266" y1="327.9277" y2="327.9277"/><text fill="#000000" font-family="sans-serif" font-size="13" font-weight="bold" lengthAdjust="spacing" textLength="9" x="65" y="323.1855">7</text><text fill="#000000" font-family="sans-serif" font-size="13" lengthAdjust="spacing" textLength="85" x="78" y="323.1855">provides data</text><polygon fill="#181818" points="447,353.2383,457,357.2383,447,361.2383,451,357.2383" style="stroke:#181818;stroke-width:1.0;"/><line style="stroke:#181818;stroke-width:1.0;" x1="282" x2="453" y1="357.2383" y2="357.2383"/><text fill="#000000" font-family="sans-serif" font-size="13" font-weight="bold" lengthAdjust="spacing" textLength="9" x="289" y="352.4961">8</text><text fill="#000000" font-family="sans-serif" font-size="13" lengthAdjust="spacing" textLength="145" x="302" y="352.4961">PATCH /clients/{email}</text><path d="M20,372.2383 L82,372.2383 L82,379.5488 L72,389.5488 L20,389.5488 L20,372.2383 " fill="#EEEEEE" style="stroke:#000000;stroke-width:1.5;"/><rect fill="none" height="149.5078" style="stroke:#000000;stroke-width:1.5;" width="476.5" x="20" y="372.2383"/><text fill="#000000" font-family="sans-serif" font-size="13" font-weight="bold" lengthAdjust="spacing" textLength="17" x="35" y="385.8066">alt</text><text fill="#000000" font-family="sans-serif" font-size="11" font-weight="bold" lengthAdjust="spacing" textLength="129" x="97" y="384.873">[bad client parameters]</text><polygon fill="#181818" points="293,406.8594,283,410.8594,293,414.8594,289,410.8594" style="stroke:#181818;stroke-width:1.0;"/><line style="stroke:#181818;stroke-width:1.0;stroke-dasharray:2.0,2.0;" x1="287" x2="458" y1="410.8594" y2="410.8594"/><text fill="#000000" font-family="sans-serif" font-size="13" font-weight="bold" lengthAdjust="spacing" textLength="9" x="299" y="406.1172">9</text><text fill="#000000" font-family="sans-serif" font-size="13" lengthAdjust="spacing" textLength="62" x="312" y="406.1172">422: error</text><polygon fill="#181818" points="69,436.1699,59,440.1699,69,444.1699,65,440.1699" style="stroke:#181818;stroke-width:1.0;"/><line style="stroke:#181818;stroke-width:1.0;stroke-dasharray:2.0,2.0;" x1="63" x2="271" y1="440.1699" y2="440.1699"/><text fill="#000000" font-family="sans-serif" font-size="13" font-weight="bold" lengthAdjust="spacing" textLength="18" x="75" y="435.4277">10</text><text fill="#000000" font-family="sans-serif" font-size="13" lengthAdjust="spacing" textLength="83" x="97" y="435.4277">informs error</text><line style="stroke:#000000;stroke-width:1.0;stroke-dasharray:2.0,2.0;" x1="20" x2="496.5" y1="449.1699" y2="449.1699"/><text fill="#000000" font-family="sans-serif" font-size="11" font-weight="bold" lengthAdjust="spacing" textLength="51" x="25" y="459.8047">[success]</text><polygon fill="#181818" points="293,480.4355,283,484.4355,293,488.4355,289,484.4355" style="stroke:#181818;stroke-width:1.0;"/><line style="stroke:#181818;stroke-width:1.0;stroke-dasharray:2.0,2.0;" x1="287" x2="458" y1="484.4355" y2="484.4355"/><text fill="#000000" font-family="sans-serif" font-size="13" font-weight="bold" lengthAdjust="spacing" textLength="18" x="299" y="479.6934">11</text><text fill="#000000" font-family="sans-serif" font-size="13" lengthAdjust="spacing" textLength="67" x="321" y="479.6934">200: client</text><polygon fill="#181818" points="64,509.7461,54,513.7461,64,517.7461,60,513.7461" style="stroke:#181818;stroke-width:1.0;"/><line style="stroke:#181818;stroke-width:1.0;stroke-dasharray:2.0,2.0;" x1="58" x2="276" y1="513.7461" y2="513.7461"/><text fill="#000000" font-family="sans-serif" font-size="13" font-weight="bold" lengthAdjust="spacing" textLength="18" x="70" y="509.0039">12</text><text fill="#000000" font-family="sans-serif" font-size="13" lengthAdjust="spacing" textLength="168" x="92" y="509.0039">previews edited client data</text><!--SRC=[dPB1QiCm38RlUGgHUsaeFUKmADtOBeEozGNSM0L376UIdHx6tdsAitW9QSkOm04h_o_9dws2Tqsm9wGiKvLt1Fc-DjZu71H3OCfQHTvKfbMDX_pzi1j-c7d-zV4jvgsEPKodF4QtB5WzY1vAk8YKmJj0RJnKiGrevLK64hys4_TzY4tCLelv-Ua8wy73wq-qojHVIPUyqb_LgNRZF9nTQ7GIzY7bLkD8ss9R0X8vcadwlhr4XY_1D6T7bdzaM3EEzU_NtXI5V0Tf4ccSpdgr7-57G1PI2St4971YQigr9TSPZNoRvOJZONVSl_oTv4dfyRHouSgYH-BRE3UR_-3aK5N8V8_a0kIYRalO6RnmV5se5-_hElqvskbE7Y_AxVRh6m00]--></g></svg>