<?xml version="1.0" encoding="us-ascii" standalone="no"?><svg xmlns="http://www.w3.org/2000/svg" xmlns:xlink="http://www.w3.org/1999/xlink" contentStyleType="text/css" height="626px" preserveAspectRatio="none" style="width:534px;height:626px;background:#FFFFFF;" version="1.1" viewBox="0 0 534 626" width="534px" zoomAndPan="magnify"><defs/><g><rect fill="#FFFFFF" height="422.2578" style="stroke:#181818;stroke-width:1.0;" width="10" x="43.5" y="91.4883"/><rect fill="#FFFFFF" height="185.8184" style="stroke:#181818;stroke-width:1.0;" width="10" x="267.5" y="112.7988"/><rect fill="#FFFFFF" height="185.8184" style="stroke:#181818;stroke-width:1.0;" width="10" x="267.5" y="327.9277"/><rect fill="#FFFFFF" height="127.1973" style="stroke:#181818;stroke-width:1.0;" width="10" x="484.5" y="142.1094"/><rect fill="#FFFFFF" height="156.5078" style="stroke:#181818;stroke-width:1.0;" width="10" x="484.5" y="357.2383"/><rect fill="none" height="371.6367" style="stroke:#000000;stroke-width:1.5;" width="517.5" x="10" y="157.1094"/><rect fill="none" height="149.5078" style="stroke:#000000;stroke-width:1.5;" width="497.5" x="20" y="372.2383"/><line style="stroke:#181818;stroke-width:0.5;stroke-dasharray:5.0,5.0;" x1="48" x2="48" y1="81.4883" y2="545.7461"/><line style="stroke:#181818;stroke-width:0.5;stroke-dasharray:5.0,5.0;" x1="272.5" x2="272.5" y1="81.4883" y2="545.7461"/><line style="stroke:#181818;stroke-width:0.5;stroke-dasharray:5.0,5.0;" x1="489.5" x2="489.5" y1="81.4883" y2="545.7461"/><text fill="#000000" font-family="sans-serif" font-size="14" lengthAdjust="spacing" textLength="31" x="30" y="78.5352">User</text><ellipse cx="48.5" cy="13.5" fill="#E2E2F0" rx="8" ry="8" style="stroke:#181818;stroke-width:0.5;"/><path d="M48.5,21.5 L48.5,48.5 M35.5,29.5 L61.5,29.5 M48.5,48.5 L35.5,63.5 M48.5,48.5 L61.5,63.5 " fill="none" style="stroke:#181818;stroke-width:0.5;"/><text fill="#000000" font-family="sans-serif" font-size="14" lengthAdjust="spacing" textLength="31" x="30" y="558.2813">User</text><ellipse cx="48.5" cy="569.7344" fill="#E2E2F0" rx="8" ry="8" style="stroke:#181818;stroke-width:0.5;"/><path d="M48.5,577.7344 L48.5,604.7344 M35.5,585.7344 L61.5,585.7344 M48.5,604.7344 L35.5,619.7344 M48.5,604.7344 L61.5,619.7344 " fill="none" style="stroke:#181818;stroke-width:0.5;"/><rect fill="#E2E2F0" height="30.4883" rx="2.5" ry="2.5" style="stroke:#181818;stroke-width:0.5;" width="30" x="257.5" y="50"/><text fill="#000000" font-family="sans-serif" font-size="14" lengthAdjust="spacing" textLength="16" x="264.5" y="70.5352">FE</text><rect fill="#E2E2F0" height="30.4883" rx="2.5" ry="2.5" style="stroke:#181818;stroke-width:0.5;" width="30" x="257.5" y="544.7461"/><text fill="#000000" font-family="sans-serif" font-size="14" lengthAdjust="spacing" textLength="16" x="264.5" y="565.2813">FE</text><rect fill="#E2E2F0" height="30.4883" rx="2.5" ry="2.5" style="stroke:#181818;stroke-width:0.5;" width="36" x="471.5" y="50"/><text fill="#000000" font-family="sans-serif" font-size="14" lengthAdjust="spacing" textLength="22" x="478.5" y="70.5352">MD</text><rect fill="#E2E2F0" height="30.4883" rx="2.5" ry="2.5" style="stroke:#181818;stroke-width:0.5;" width="36" x="471.5" y="544.7461"/><text fill="#000000" font-family="sans-serif" font-size="14" lengthAdjust="spacing" textLength="22" x="478.5" y="565.2813">MD</text><rect fill="#FFFFFF" height="422.2578" style="stroke:#181818;stroke-width:1.0;" width="10" x="43.5" y="91.4883"/><rect fill="#FFFFFF" height="185.8184" style="stroke:#181818;stroke-width:1.0;" width="10" x="267.5" y="112.7988"/><rect fill="#FFFFFF" height="185.8184" style="stroke:#181818;stroke-width:1.0;" width="10" x="267.5" y="327.9277"/><rect fill="#FFFFFF" height="127.1973" style="stroke:#181818;stroke-width:1.0;" width="10" x="484.5" y="142.1094"/><rect fill="#FFFFFF" height="156.5078" style="stroke:#181818;stroke-width:1.0;" width="10" x="484.5" y="357.2383"/><polygon fill="#181818" points="255.5,108.7988,265.5,112.7988,255.5,116.7988,259.5,112.7988" style="stroke:#181818;stroke-width:1.0;"/><line style="stroke:#181818;stroke-width:1.0;" x1="53.5" x2="261.5" y1="112.7988" y2="112.7988"/><text fill="#000000" font-family="sans-serif" font-size="13" font-weight="bold" lengthAdjust="spacing" textLength="9" x="60.5" y="108.0566">1</text><text fill="#000000" font-family="sans-serif" font-size="13" lengthAdjust="spacing" textLength="152" x="73.5" y="108.0566">wants to edit client data</text><polygon fill="#181818" points="472.5,138.1094,482.5,142.1094,472.5,146.1094,476.5,142.1094" style="stroke:#181818;stroke-width:1.0;"/><line style="stroke:#181818;stroke-width:1.0;" x1="277.5" x2="478.5" y1="142.1094" y2="142.1094"/><text fill="#000000" font-family="sans-serif" font-size="13" font-weight="bold" lengthAdjust="spacing" textLength="9" x="284.5" y="137.3672">2</text><text fill="#000000" font-family="sans-serif" font-size="13" lengthAdjust="spacing" textLength="175" x="297.5" y="137.3672">GET /clients/?email={email}</text><path d="M10,157.1094 L72,157.1094 L72,164.4199 L62,174.4199 L10,174.4199 L10,157.1094 " fill="#EEEEEE" style="stroke:#000000;stroke-width:1.5;"/><rect fill="none" height="371.6367" style="stroke:#000000;stroke-width:1.5;" width="517.5" x="10" y="157.1094"/><text fill="#000000" font-family="sans-serif" font-size="13" font-weight="bold" lengthAdjust="spacing" textLength="17" x="25" y="170.6777">alt</text><text fill="#000000" font-family="sans-serif" font-size="11" font-weight="bold" lengthAdjust="spacing" textLength="98" x="87" y="169.7441">[client not found]</text><polygon fill="#181818" points="288.5,191.7305,278.5,195.7305,288.5,199.7305,284.5,195.7305" style="stroke:#181818;stroke-width:1.0;"/><line style="stroke:#181818;stroke-width:1.0;stroke-dasharray:2.0,2.0;" x1="282.5" x2="483.5" y1="195.7305" y2="195.7305"/><text fill="#000000" font-family="sans-serif" font-size="13" font-weight="bold" lengthAdjust="spacing" textLength="9" x="294.5" y="190.9883">3</text><text fill="#000000" font-family="sans-serif" font-size="13" lengthAdjust="spacing" textLength="62" x="307.5" y="190.9883">404: error</text><polygon fill="#181818" points="64.5,221.041,54.5,225.041,64.5,229.041,60.5,225.041" style="stroke:#181818;stroke-width:1.0;"/><line style="stroke:#181818;stroke-width:1.0;stroke-dasharray:2.0,2.0;" x1="58.5" x2="266.5" y1="225.041" y2="225.041"/><text fill="#000000" font-family="sans-serif" font-size="13" font-weight="bold" lengthAdjust="spacing" textLength="9" x="70.5" y="220.2988">4</text><text fill="#000000" font-family="sans-serif" font-size="13" lengthAdjust="spacing" textLength="83" x="83.5" y="220.2988">informs error</text><line style="stroke:#000000;stroke-width:1.0;stroke-dasharray:2.0,2.0;" x1="10" x2="527.5" y1="234.041" y2="234.041"/><text fill="#000000" font-family="sans-serif" font-size="11" font-weight="bold" lengthAdjust="spacing" textLength="76" x="15" y="244.6758">[client found]</text><polygon fill="#181818" points="288.5,265.3066,278.5,269.3066,288.5,273.3066,284.5,269.3066" style="stroke:#181818;stroke-width:1.0;"/><line style="stroke:#181818;stroke-width:1.0;stroke-dasharray:2.0,2.0;" x1="282.5" x2="488.5" y1="269.3066" y2="269.3066"/><text fill="#000000" font-family="sans-serif" font-size="13" font-weight="bold" lengthAdjust="spacing" textLength="9" x="294.5" y="264.5645">5</text><text fill="#000000" font-family="sans-serif" font-size="13" lengthAdjust="spacing" textLength="71" x="307.5" y="264.5645">200 : client</text><polygon fill="#181818" points="64.5,294.6172,54.5,298.6172,64.5,302.6172,60.5,298.6172" style="stroke:#181818;stroke-width:1.0;"/><line style="stroke:#181818;stroke-width:1.0;stroke-dasharray:2.0,2.0;" x1="58.5" x2="271.5" y1="298.6172" y2="298.6172"/><text fill="#000000" font-family="sans-serif" font-size="13" font-weight="bold" lengthAdjust="spacing" textLength="9" x="70.5" y="293.875">6</text><text fill="#000000" font-family="sans-serif" font-size="13" lengthAdjust="spacing" textLength="85" x="83.5" y="293.875">requests data</text><polygon fill="#181818" points="255.5,323.9277,265.5,327.9277,255.5,331.9277,259.5,327.9277" style="stroke:#181818;stroke-width:1.0;"/><line style="stroke:#181818;stroke-width:1.0;" x1="53.5" x2="261.5" y1="327.9277" y2="327.9277"/><text fill="#000000" font-family="sans-serif" font-size="13" font-weight="bold" lengthAdjust="spacing" textLength="9" x="60.5" y="323.1855">7</text><text fill="#000000" font-family="sans-serif" font-size="13" lengthAdjust="spacing" textLength="85" x="73.5" y="323.1855">provides data</text><polygon fill="#181818" points="472.5,353.2383,482.5,357.2383,472.5,361.2383,476.5,357.2383" style="stroke:#181818;stroke-width:1.0;"/><line style="stroke:#181818;stroke-width:1.0;" x1="277.5" x2="478.5" y1="357.2383" y2="357.2383"/><text fill="#000000" font-family="sans-serif" font-size="13" font-weight="bold" lengthAdjust="spacing" textLength="9" x="284.5" y="352.4961">8</text><text fill="#000000" font-family="sans-serif" font-size="13" lengthAdjust="spacing" textLength="96" x="297.5" y="352.4961">PATCH /clients</text><path d="M20,372.2383 L82,372.2383 L82,379.5488 L72,389.5488 L20,389.5488 L20,372.2383 " fill="#EEEEEE" style="stroke:#000000;stroke-width:1.5;"/><rect fill="none" height="149.5078" style="stroke:#000000;stroke-width:1.5;" width="497.5" x="20" y="372.2383"/><text fill="#000000" font-family="sans-serif" font-size="13" font-weight="bold" lengthAdjust="spacing" textLength="17" x="35" y="385.8066">alt</text><text fill="#000000" font-family="sans-serif" font-size="11" font-weight="bold" lengthAdjust="spacing" textLength="129" x="97" y="384.873">[bad client parameters]</text><polygon fill="#181818" points="288.5,406.8594,278.5,410.8594,288.5,414.8594,284.5,410.8594" style="stroke:#181818;stroke-width:1.0;"/><line style="stroke:#181818;stroke-width:1.0;stroke-dasharray:2.0,2.0;" x1="282.5" x2="483.5" y1="410.8594" y2="410.8594"/><text fill="#000000" font-family="sans-serif" font-size="13" font-weight="bold" lengthAdjust="spacing" textLength="9" x="294.5" y="406.1172">9</text><text fill="#000000" font-family="sans-serif" font-size="13" lengthAdjust="spacing" textLength="62" x="307.5" y="406.1172">422: error</text><polygon fill="#181818" points="64.5,436.1699,54.5,440.1699,64.5,444.1699,60.5,440.1699" style="stroke:#181818;stroke-width:1.0;"/><line style="stroke:#181818;stroke-width:1.0;stroke-dasharray:2.0,2.0;" x1="58.5" x2="266.5" y1="440.1699" y2="440.1699"/><text fill="#000000" font-family="sans-serif" font-size="13" font-weight="bold" lengthAdjust="spacing" textLength="18" x="70.5" y="435.4277">10</text><text fill="#000000" font-family="sans-serif" font-size="13" lengthAdjust="spacing" textLength="83" x="92.5" y="435.4277">informs error</text><line style="stroke:#000000;stroke-width:1.0;stroke-dasharray:2.0,2.0;" x1="20" x2="517.5" y1="449.1699" y2="449.1699"/><text fill="#000000" font-family="sans-serif" font-size="11" font-weight="bold" lengthAdjust="spacing" textLength="51" x="25" y="459.8047">[success]</text><polygon fill="#181818" points="288.5,480.4355,278.5,484.4355,288.5,488.4355,284.5,484.4355" style="stroke:#181818;stroke-width:1.0;"/><line style="stroke:#181818;stroke-width:1.0;stroke-dasharray:2.0,2.0;" x1="282.5" x2="483.5" y1="484.4355" y2="484.4355"/><text fill="#000000" font-family="sans-serif" font-size="13" font-weight="bold" lengthAdjust="spacing" textLength="18" x="294.5" y="479.6934">11</text><text fill="#000000" font-family="sans-serif" font-size="13" lengthAdjust="spacing" textLength="66" x="316.5" y="479.6934">201: robot</text><polygon fill="#181818" points="59.5,509.7461,49.5,513.7461,59.5,517.7461,55.5,513.7461" style="stroke:#181818;stroke-width:1.0;"/><line style="stroke:#181818;stroke-width:1.0;stroke-dasharray:2.0,2.0;" x1="53.5" x2="271.5" y1="513.7461" y2="513.7461"/><text fill="#000000" font-family="sans-serif" font-size="13" font-weight="bold" lengthAdjust="spacing" textLength="18" x="65.5" y="509.0039">12</text><text fill="#000000" font-family="sans-serif" font-size="13" lengthAdjust="spacing" textLength="168" x="87.5" y="509.0039">previews edited client data</text><!--SRC=[dPB1JiCm38RlVGghzscbsgaI8CG6N90uZ0T86q-Ar3GbJhe3ujrnKXeAMoT4f3HA-l-syyN2EzDvNQFDCj4uOo5_9RGv209FVDWBwrIZUj4vo1zsum_rw_nv6y-rZ47K81n6DqzOtR0UAZYoai0PGAaSDAr2TahXH0OylcqgxiDW6vkrPFFZRW_hqKFhMzH2jTVlSVb8yXI2on1jIj4P1mVZEvc4ON3KrLJPfjXKWDOQ-qCIqWS9tw42rHsCrVGbmvPmYdyvTbaK_1sbIIHnNklPV1RVF183IuHcfi0_EcPuUsi69P7-ZFJbRd__bA0kKgo5d6xAJouqEhIqZB8i_uEIVDCWqGMALup4rCOjX-qj3WgF5FiBvKc7dO8_WtM-u_v5VjamFm40]--></g></svg>