<?xml version="1.0" encoding="us-ascii" standalone="no"?><svg xmlns="http://www.w3.org/2000/svg" xmlns:xlink="http://www.w3.org/1999/xlink" contentStyleType="text/css" height="360px" preserveAspectRatio="none" style="width:449px;height:360px;background:#FFFFFF;" version="1.1" viewBox="0 0 449 360" width="449px" zoomAndPan="magnify"><defs/><g><rect fill="#FFFFFF" height="178.4629" style="stroke:#181818;stroke-width:1.0;" width="10" x="28.5" y="91.4883"/><rect fill="#FFFFFF" height="157.1523" style="stroke:#181818;stroke-width:1.0;" width="10" x="350.5" y="112.7988"/><rect fill="none" height="135.1523" style="stroke:#000000;stroke-width:1.5;" width="432.5" x="10" y="127.7988"/><line style="stroke:#181818;stroke-width:0.5;stroke-dasharray:5.0,5.0;" x1="33" x2="33" y1="81.4883" y2="279.9512"/><line style="stroke:#181818;stroke-width:0.5;stroke-dasharray:5.0,5.0;" x1="355.5" x2="355.5" y1="81.4883" y2="279.9512"/><text fill="#000000" font-family="sans-serif" font-size="14" lengthAdjust="spacing" textLength="4" x="28.5" y="78.5352">&#160;</text><ellipse cx="33.5" cy="13.5" fill="#E2E2F0" rx="8" ry="8" style="stroke:#181818;stroke-width:0.5;"/><path d="M33.5,21.5 L33.5,48.5 M20.5,29.5 L46.5,29.5 M33.5,48.5 L20.5,63.5 M33.5,48.5 L46.5,63.5 " fill="none" style="stroke:#181818;stroke-width:0.5;"/><text fill="#000000" font-family="sans-serif" font-size="14" lengthAdjust="spacing" textLength="4" x="28.5" y="292.4863">&#160;</text><ellipse cx="33.5" cy="303.9395" fill="#E2E2F0" rx="8" ry="8" style="stroke:#181818;stroke-width:0.5;"/><path d="M33.5,311.9395 L33.5,338.9395 M20.5,319.9395 L46.5,319.9395 M33.5,338.9395 L20.5,353.9395 M33.5,338.9395 L46.5,353.9395 " fill="none" style="stroke:#181818;stroke-width:0.5;"/><rect fill="#E2E2F0" height="46.9766" rx="2.5" ry="2.5" style="stroke:#181818;stroke-width:0.5;" width="154" x="278.5" y="33.5117"/><text fill="#000000" font-family="sans-serif" font-size="14" lengthAdjust="spacing" textLength="61" x="325" y="54.0469">&#171;system&#187;</text><text fill="#000000" font-family="sans-serif" font-size="14" lengthAdjust="spacing" textLength="140" x="285.5" y="70.5352">System RobDroneGo</text><rect fill="#E2E2F0" height="46.9766" rx="2.5" ry="2.5" style="stroke:#181818;stroke-width:0.5;" width="154" x="278.5" y="278.9512"/><text fill="#000000" font-family="sans-serif" font-size="14" lengthAdjust="spacing" textLength="61" x="325" y="299.4863">&#171;system&#187;</text><text fill="#000000" font-family="sans-serif" font-size="14" lengthAdjust="spacing" textLength="140" x="285.5" y="315.9746">System RobDroneGo</text><rect fill="#FFFFFF" height="178.4629" style="stroke:#181818;stroke-width:1.0;" width="10" x="28.5" y="91.4883"/><rect fill="#FFFFFF" height="157.1523" style="stroke:#181818;stroke-width:1.0;" width="10" x="350.5" y="112.7988"/><polygon fill="#181818" points="338.5,108.7988,348.5,112.7988,338.5,116.7988,342.5,112.7988" style="stroke:#181818;stroke-width:1.0;"/><line style="stroke:#181818;stroke-width:1.0;" x1="38.5" x2="344.5" y1="112.7988" y2="112.7988"/><text fill="#000000" font-family="sans-serif" font-size="13" font-weight="bold" lengthAdjust="spacing" textLength="9" x="45.5" y="108.0566">1</text><text fill="#000000" font-family="sans-serif" font-size="13" lengthAdjust="spacing" textLength="280" x="58.5" y="108.0566">PATCH/PUT  ( /buildings/{id}/floors/{floor} )</text><path d="M10,127.7988 L72,127.7988 L72,135.1094 L62,145.1094 L10,145.1094 L10,127.7988 " fill="#EEEEEE" style="stroke:#000000;stroke-width:1.5;"/><rect fill="none" height="135.1523" style="stroke:#000000;stroke-width:1.5;" width="432.5" x="10" y="127.7988"/><text fill="#000000" font-family="sans-serif" font-size="13" font-weight="bold" lengthAdjust="spacing" textLength="17" x="25" y="141.3672">alt</text><text fill="#000000" font-family="sans-serif" font-size="11" font-weight="bold" lengthAdjust="spacing" textLength="95" x="87" y="140.4336">[floor not found]</text><polygon fill="#181818" points="49.5,162.4199,39.5,166.4199,49.5,170.4199,45.5,166.4199" style="stroke:#181818;stroke-width:1.0;"/><line style="stroke:#181818;stroke-width:1.0;stroke-dasharray:2.0,2.0;" x1="43.5" x2="349.5" y1="166.4199" y2="166.4199"/><text fill="#000000" font-family="sans-serif" font-size="13" font-weight="bold" lengthAdjust="spacing" textLength="9" x="55.5" y="161.6777">2</text><text fill="#000000" font-family="sans-serif" font-size="13" lengthAdjust="spacing" textLength="152" x="68.5" y="161.6777">412: Precondition Failed</text><line style="stroke:#000000;stroke-width:1.0;stroke-dasharray:2.0,2.0;" x1="10" x2="442.5" y1="175.4199" y2="175.4199"/><text fill="#000000" font-family="sans-serif" font-size="11" font-weight="bold" lengthAdjust="spacing" textLength="105" x="15" y="186.0547">[floor bad params]</text><polygon fill="#181818" points="49.5,206.6855,39.5,210.6855,49.5,214.6855,45.5,210.6855" style="stroke:#181818;stroke-width:1.0;"/><line style="stroke:#181818;stroke-width:1.0;stroke-dasharray:2.0,2.0;" x1="43.5" x2="349.5" y1="210.6855" y2="210.6855"/><text fill="#000000" font-family="sans-serif" font-size="13" font-weight="bold" lengthAdjust="spacing" textLength="9" x="55.5" y="205.9434">3</text><text fill="#000000" font-family="sans-serif" font-size="13" lengthAdjust="spacing" textLength="178" x="68.5" y="205.9434">422: Unprocessable Content</text><line style="stroke:#000000;stroke-width:1.0;stroke-dasharray:2.0,2.0;" x1="10" x2="442.5" y1="219.6855" y2="219.6855"/><text fill="#000000" font-family="sans-serif" font-size="11" font-weight="bold" lengthAdjust="spacing" textLength="147" x="15" y="230.3203">[floor edited successfully]</text><polygon fill="#181818" points="49.5,250.9512,39.5,254.9512,49.5,258.9512,45.5,254.9512" style="stroke:#181818;stroke-width:1.0;"/><line style="stroke:#181818;stroke-width:1.0;stroke-dasharray:2.0,2.0;" x1="43.5" x2="349.5" y1="254.9512" y2="254.9512"/><text fill="#000000" font-family="sans-serif" font-size="13" font-weight="bold" lengthAdjust="spacing" textLength="9" x="55.5" y="250.209">4</text><text fill="#000000" font-family="sans-serif" font-size="13" lengthAdjust="spacing" textLength="131" x="68.5" y="250.209">200: "OK" Successful</text><!--SRC=[TP1DQyCm38Rl-HKYf-rGqeMTGWcCZcsmmyhQtdPnOgKO72dOyg2C_lSvTbVsmUI39UlLysAf84nXxD0LXUg57PJnA0-fA2RbnFHcKYHGhbR-w0N7jdsZRShWbRjxnuIFd8PYFs7Ckn8y8o169Y_QMT30vcwtVges-nt05LHTC5ORElZgm-XJDLXc5_Dqd-3wQpuZaq5wiGAGD40iC70WdHfH0Oleb2qRkBsfewF3daaRCKpme8p5B9u3hSSpgLCQue_Lw2_TFxWwulOqEUxHUzLPX3MJ84dn2uRH3ZNuqC_A8LXx_9TQBvSDb2_F9MmlyioBlqg9nXyx-5RcBNy2]--></g></svg>