<?xml version="1.0" encoding="us-ascii" standalone="no"?><svg xmlns="http://www.w3.org/2000/svg" xmlns:xlink="http://www.w3.org/1999/xlink" contentStyleType="text/css" height="1023px" preserveAspectRatio="none" style="width:2908px;height:1023px;background:#FFFFFF;" version="1.1" viewBox="0 0 2908 1023" width="2908px" zoomAndPan="magnify"><defs/><g><rect fill="#FFFFFF" height="894.1659" style="stroke:#181818;stroke-width:1.0;" width="10" x="140" y="72.7739"/><rect fill="#FFFFFF" height="830.7539" style="stroke:#181818;stroke-width:1.0;" width="10" x="290" y="104.4799"/><rect fill="#FFFFFF" height="615.794" style="stroke:#181818;stroke-width:1.0;" width="10" x="687.5" y="180.2539"/><rect fill="#FFFFFF" height="75.7739" style="stroke:#181818;stroke-width:1.0;" width="10" x="804" y="827.7539"/><rect fill="#FFFFFF" height="95.118" style="stroke:#181818;stroke-width:1.0;" width="10" x="1221" y="211.9599"/><rect fill="#FFFFFF" height="31.706" style="stroke:#181818;stroke-width:1.0;" width="10" x="1349" y="243.6659"/><rect fill="#FFFFFF" height="75.7739" style="stroke:#181818;stroke-width:1.0;" width="10" x="1439.5" y="688.5679"/><rect fill="#FFFFFF" height="274.01" style="stroke:#181818;stroke-width:1.0;" width="10" x="2095" y="382.8519"/><rect fill="#FFFFFF" height="132.8241" style="stroke:#181818;stroke-width:1.0;" width="10" x="2549" y="414.5579"/><rect fill="none" height="63.7739" style="stroke:#000000;stroke-width:1.5;" width="789.5" x="2042.5" y="562.382"/><line style="stroke:#181818;stroke-width:0.5;stroke-dasharray:5.0,5.0;" x1="144.5" x2="144.5" y1="39.0679" y2="984.9399"/><line style="stroke:#181818;stroke-width:0.5;stroke-dasharray:5.0,5.0;" x1="294.5" x2="294.5" y1="39.0679" y2="984.9399"/><line style="stroke:#181818;stroke-width:0.5;stroke-dasharray:5.0,5.0;" x1="506" x2="506" y1="144.5139" y2="984.9399"/><line style="stroke:#181818;stroke-width:0.5;stroke-dasharray:5.0,5.0;" x1="692" x2="692" y1="39.0679" y2="984.9399"/><line style="stroke:#181818;stroke-width:0.5;stroke-dasharray:5.0,5.0;" x1="809" x2="809" y1="39.0679" y2="984.9399"/><line style="stroke:#181818;stroke-width:0.5;stroke-dasharray:5.0,5.0;" x1="1027" x2="1027" y1="867.7879" y2="984.9399"/><line style="stroke:#181818;stroke-width:0.5;stroke-dasharray:5.0,5.0;" x1="1226" x2="1226" y1="39.0679" y2="984.9399"/><line style="stroke:#181818;stroke-width:0.5;stroke-dasharray:5.0,5.0;" x1="1354" x2="1354" y1="39.0679" y2="984.9399"/><line style="stroke:#181818;stroke-width:0.5;stroke-dasharray:5.0,5.0;" x1="1444" x2="1444" y1="39.0679" y2="984.9399"/><line style="stroke:#181818;stroke-width:0.5;stroke-dasharray:5.0,5.0;" x1="1640.5" x2="1640.5" y1="728.6019" y2="984.9399"/><line style="stroke:#181818;stroke-width:0.5;stroke-dasharray:5.0,5.0;" x1="1898.5" x2="1898.5" y1="347.1119" y2="984.9399"/><line style="stroke:#181818;stroke-width:0.5;stroke-dasharray:5.0,5.0;" x1="2099.5" x2="2099.5" y1="39.0679" y2="984.9399"/><line style="stroke:#181818;stroke-width:0.5;stroke-dasharray:5.0,5.0;" x1="2554" x2="2554" y1="39.0679" y2="984.9399"/><line style="stroke:#181818;stroke-width:0.5;stroke-dasharray:5.0,5.0;" x1="2713" x2="2713" y1="614.1219" y2="984.9399"/><rect fill="#E2E2F0" height="33.0679" rx="2.5" ry="2.5" style="stroke:#181818;stroke-width:0.5;" width="53" x="118.5" y="5"/><text fill="#000000" font-family="sans-serif" font-size="14" lengthAdjust="spacing" textLength="39" x="125.5" y="26.9659">Route</text><rect fill="#E2E2F0" height="33.0679" rx="2.5" ry="2.5" style="stroke:#181818;stroke-width:0.5;" width="53" x="118.5" y="983.9399"/><text fill="#000000" font-family="sans-serif" font-size="14" lengthAdjust="spacing" textLength="39" x="125.5" y="1005.9058">Route</text><rect fill="#E2E2F0" height="33.0679" rx="2.5" ry="2.5" style="stroke:#181818;stroke-width:0.5;" width="81" x="254.5" y="5"/><text fill="#000000" font-family="sans-serif" font-size="14" lengthAdjust="spacing" textLength="67" x="261.5" y="26.9659">Controller</text><rect fill="#E2E2F0" height="33.0679" rx="2.5" ry="2.5" style="stroke:#181818;stroke-width:0.5;" width="81" x="254.5" y="983.9399"/><text fill="#000000" font-family="sans-serif" font-size="14" lengthAdjust="spacing" textLength="67" x="261.5" y="1005.9058">Controller</text><rect fill="#E2E2F0" height="33.0679" rx="2.5" ry="2.5" style="stroke:#181818;stroke-width:0.5;" width="252" x="380" y="983.9399"/><text fill="#000000" font-family="sans-serif" font-size="14" lengthAdjust="spacing" textLength="238" x="387" y="1005.9058">requestDto:IClientDataRequestDTO</text><rect fill="#E2E2F0" height="33.0679" rx="2.5" ry="2.5" style="stroke:#181818;stroke-width:0.5;" width="101" x="642" y="5"/><text fill="#000000" font-family="sans-serif" font-size="14" lengthAdjust="spacing" textLength="87" x="649" y="26.9659">ClientService</text><rect fill="#E2E2F0" height="33.0679" rx="2.5" ry="2.5" style="stroke:#181818;stroke-width:0.5;" width="101" x="642" y="983.9399"/><text fill="#000000" font-family="sans-serif" font-size="14" lengthAdjust="spacing" textLength="87" x="649" y="1005.9058">ClientService</text><rect fill="#E2E2F0" height="33.0679" rx="2.5" ry="2.5" style="stroke:#181818;stroke-width:0.5;" width="112" x="753" y="5"/><text fill="#000000" font-family="sans-serif" font-size="14" lengthAdjust="spacing" textLength="98" x="760" y="26.9659">ArchiveService</text><rect fill="#E2E2F0" height="33.0679" rx="2.5" ry="2.5" style="stroke:#181818;stroke-width:0.5;" width="112" x="753" y="983.9399"/><text fill="#000000" font-family="sans-serif" font-size="14" lengthAdjust="spacing" textLength="98" x="760" y="1005.9058">ArchiveService</text><rect fill="#E2E2F0" height="33.0679" rx="2.5" ry="2.5" style="stroke:#181818;stroke-width:0.5;" width="253" x="901" y="983.9399"/><text fill="#000000" font-family="sans-serif" font-size="14" lengthAdjust="spacing" textLength="239" x="908" y="1005.9058">archiveDto:IArchivedClientDataDTO</text><rect fill="#E2E2F0" height="33.0679" rx="2.5" ry="2.5" style="stroke:#181818;stroke-width:0.5;" width="124" x="1164" y="5"/><text fill="#000000" font-family="sans-serif" font-size="14" lengthAdjust="spacing" textLength="110" x="1171" y="26.9659">ClientRepository</text><rect fill="#E2E2F0" height="33.0679" rx="2.5" ry="2.5" style="stroke:#181818;stroke-width:0.5;" width="124" x="1164" y="983.9399"/><text fill="#000000" font-family="sans-serif" font-size="14" lengthAdjust="spacing" textLength="110" x="1171" y="1005.9058">ClientRepository</text><rect fill="#E2E2F0" height="33.0679" rx="2.5" ry="2.5" style="stroke:#181818;stroke-width:0.5;" width="78" x="1315" y="5"/><text fill="#000000" font-family="sans-serif" font-size="14" lengthAdjust="spacing" textLength="64" x="1322" y="26.9659">DB Driver</text><rect fill="#E2E2F0" height="33.0679" rx="2.5" ry="2.5" style="stroke:#181818;stroke-width:0.5;" width="78" x="1315" y="983.9399"/><text fill="#000000" font-family="sans-serif" font-size="14" lengthAdjust="spacing" textLength="64" x="1322" y="1005.9058">DB Driver</text><rect fill="#E2E2F0" height="33.0679" rx="2.5" ry="2.5" style="stroke:#181818;stroke-width:0.5;" width="83" x="1403" y="5"/><text fill="#000000" font-family="sans-serif" font-size="14" lengthAdjust="spacing" textLength="69" x="1410" y="26.9659">ClientMap</text><rect fill="#E2E2F0" height="33.0679" rx="2.5" ry="2.5" style="stroke:#181818;stroke-width:0.5;" width="83" x="1403" y="983.9399"/><text fill="#000000" font-family="sans-serif" font-size="14" lengthAdjust="spacing" textLength="69" x="1410" y="1005.9058">ClientMap</text><rect fill="#E2E2F0" height="33.0679" rx="2.5" ry="2.5" style="stroke:#181818;stroke-width:0.5;" width="208" x="1536.5" y="983.9399"/><text fill="#000000" font-family="sans-serif" font-size="14" lengthAdjust="spacing" textLength="194" x="1543.5" y="1005.9058">clientDataDto:ClientDataDTO</text><rect fill="#E2E2F0" height="33.0679" rx="2.5" ry="2.5" style="stroke:#181818;stroke-width:0.5;" width="288" x="1754.5" y="983.9399"/><text fill="#000000" font-family="sans-serif" font-size="14" lengthAdjust="spacing" textLength="274" x="1761.5" y="1005.9058">mdtRequestDto:IClientTasksRequestDTO</text><rect fill="#E2E2F0" height="33.0679" rx="2.5" ry="2.5" style="stroke:#181818;stroke-width:0.5;" width="95" x="2052.5" y="5"/><text fill="#000000" font-family="sans-serif" font-size="14" lengthAdjust="spacing" textLength="81" x="2059.5" y="26.9659">MdtAdapter</text><rect fill="#E2E2F0" height="33.0679" rx="2.5" ry="2.5" style="stroke:#181818;stroke-width:0.5;" width="95" x="2052.5" y="983.9399"/><text fill="#000000" font-family="sans-serif" font-size="14" lengthAdjust="spacing" textLength="81" x="2059.5" y="1005.9058">MdtAdapter</text><rect fill="#E2E2F0" height="33.0679" rx="2.5" ry="2.5" style="stroke:#181818;stroke-width:0.5;" width="82" x="2513" y="5"/><text fill="#000000" font-family="sans-serif" font-size="14" lengthAdjust="spacing" textLength="68" x="2520" y="26.9659">MdtDriver</text><rect fill="#E2E2F0" height="33.0679" rx="2.5" ry="2.5" style="stroke:#181818;stroke-width:0.5;" width="82" x="2513" y="983.9399"/><text fill="#000000" font-family="sans-serif" font-size="14" lengthAdjust="spacing" textLength="68" x="2520" y="1005.9058">MdtDriver</text><rect fill="#E2E2F0" height="33.0679" rx="2.5" ry="2.5" style="stroke:#181818;stroke-width:0.5;" width="217" x="2605" y="983.9399"/><text fill="#000000" font-family="sans-serif" font-size="14" lengthAdjust="spacing" textLength="203" x="2612" y="1005.9058">clientTaskDTO:IClientTaskDTO</text><rect fill="#FFFFFF" height="894.1659" style="stroke:#181818;stroke-width:1.0;" width="10" x="140" y="72.7739"/><rect fill="#FFFFFF" height="830.7539" style="stroke:#181818;stroke-width:1.0;" width="10" x="290" y="104.4799"/><rect fill="#FFFFFF" height="615.794" style="stroke:#181818;stroke-width:1.0;" width="10" x="687.5" y="180.2539"/><rect fill="#FFFFFF" height="75.7739" style="stroke:#181818;stroke-width:1.0;" width="10" x="804" y="827.7539"/><rect fill="#FFFFFF" height="95.118" style="stroke:#181818;stroke-width:1.0;" width="10" x="1221" y="211.9599"/><rect fill="#FFFFFF" height="31.706" style="stroke:#181818;stroke-width:1.0;" width="10" x="1349" y="243.6659"/><rect fill="#FFFFFF" height="75.7739" style="stroke:#181818;stroke-width:1.0;" width="10" x="1439.5" y="688.5679"/><rect fill="#FFFFFF" height="274.01" style="stroke:#181818;stroke-width:1.0;" width="10" x="2095" y="382.8519"/><rect fill="#FFFFFF" height="132.8241" style="stroke:#181818;stroke-width:1.0;" width="10" x="2549" y="414.5579"/><polygon fill="#181818" points="128,68.7739,138,72.7739,128,76.7739,132,72.7739" style="stroke:#181818;stroke-width:1.0;"/><line style="stroke:#181818;stroke-width:1.0;" x1="0" x2="134" y1="72.7739" y2="72.7739"/><text fill="#000000" font-family="sans-serif" font-size="13" font-weight="bold" lengthAdjust="spacing" textLength="7" x="7" y="66.9649">1</text><text fill="#000000" font-family="sans-serif" font-size="13" lengthAdjust="spacing" textLength="110" x="18" y="66.9649">POST /clients/data</text><polygon fill="#181818" points="278,100.4799,288,104.4799,278,108.4799,282,104.4799" style="stroke:#181818;stroke-width:1.0;"/><line style="stroke:#181818;stroke-width:1.0;" x1="150" x2="284" y1="104.4799" y2="104.4799"/><text fill="#000000" font-family="sans-serif" font-size="13" font-weight="bold" lengthAdjust="spacing" textLength="7" x="157" y="98.6709">2</text><text fill="#000000" font-family="sans-serif" font-size="13" lengthAdjust="spacing" textLength="110" x="168" y="98.6709">exportClientData()</text><polygon fill="#181818" points="368,132.186,378,136.186,368,140.186,372,136.186" style="stroke:#181818;stroke-width:1.0;"/><line style="stroke:#181818;stroke-width:1.0;stroke-dasharray:2.0,2.0;" x1="300" x2="374" y1="136.186" y2="136.186"/><text fill="#000000" font-family="sans-serif" font-size="13" font-weight="bold" lengthAdjust="spacing" textLength="7" x="307" y="130.377">3</text><text fill="#000000" font-family="sans-serif" font-size="13" lengthAdjust="spacing" textLength="45" x="318" y="130.377">create()</text><rect fill="#E2E2F0" height="33.0679" rx="2.5" ry="2.5" style="stroke:#181818;stroke-width:0.5;" width="252" x="380" y="112.4799"/><text fill="#000000" font-family="sans-serif" font-size="14" lengthAdjust="spacing" textLength="238" x="387" y="134.4459">requestDto:IClientDataRequestDTO</text><polygon fill="#181818" points="675.5,176.2539,685.5,180.2539,675.5,184.2539,679.5,180.2539" style="stroke:#181818;stroke-width:1.0;"/><line style="stroke:#181818;stroke-width:1.0;" x1="300" x2="681.5" y1="180.2539" y2="180.2539"/><text fill="#000000" font-family="sans-serif" font-size="13" font-weight="bold" lengthAdjust="spacing" textLength="7" x="307" y="174.4449">4</text><text fill="#000000" font-family="sans-serif" font-size="13" lengthAdjust="spacing" textLength="155" x="318" y="174.4449">getClentData(requestDto)</text><polygon fill="#181818" points="1209,207.9599,1219,211.9599,1209,215.9599,1213,211.9599" style="stroke:#181818;stroke-width:1.0;"/><line style="stroke:#181818;stroke-width:1.0;" x1="697.5" x2="1215" y1="211.9599" y2="211.9599"/><text fill="#000000" font-family="sans-serif" font-size="13" font-weight="bold" lengthAdjust="spacing" textLength="7" x="704.5" y="206.1509">5</text><text fill="#000000" font-family="sans-serif" font-size="13" lengthAdjust="spacing" textLength="134" x="715.5" y="206.1509">find(requestDto.email)</text><polygon fill="#181818" points="1337,239.6659,1347,243.6659,1337,247.6659,1341,243.6659" style="stroke:#181818;stroke-width:1.0;"/><line style="stroke:#181818;stroke-width:1.0;" x1="1231" x2="1343" y1="243.6659" y2="243.6659"/><text fill="#000000" font-family="sans-serif" font-size="13" font-weight="bold" lengthAdjust="spacing" textLength="7" x="1238" y="237.8569">6</text><text fill="#000000" font-family="sans-serif" font-size="13" lengthAdjust="spacing" textLength="88" x="1249" y="237.8569">findOne(email)</text><polygon fill="#181818" points="1242,271.3719,1232,275.3719,1242,279.3719,1238,275.3719" style="stroke:#181818;stroke-width:1.0;"/><line style="stroke:#181818;stroke-width:1.0;stroke-dasharray:2.0,2.0;" x1="1236" x2="1353" y1="275.3719" y2="275.3719"/><text fill="#000000" font-family="sans-serif" font-size="13" font-weight="bold" lengthAdjust="spacing" textLength="7" x="1248" y="269.5629">7</text><text fill="#000000" font-family="sans-serif" font-size="13" lengthAdjust="spacing" textLength="32" x="1259" y="269.5629">client</text><polygon fill="#181818" points="708.5,303.0779,698.5,307.0779,708.5,311.0779,704.5,307.0779" style="stroke:#181818;stroke-width:1.0;"/><line style="stroke:#181818;stroke-width:1.0;stroke-dasharray:2.0,2.0;" x1="702.5" x2="1225" y1="307.0779" y2="307.0779"/><text fill="#000000" font-family="sans-serif" font-size="13" font-weight="bold" lengthAdjust="spacing" textLength="7" x="714.5" y="301.2689">8</text><text fill="#000000" font-family="sans-serif" font-size="13" lengthAdjust="spacing" textLength="32" x="725.5" y="301.2689">client</text><polygon fill="#181818" points="1742.5,334.784,1752.5,338.784,1742.5,342.784,1746.5,338.784" style="stroke:#181818;stroke-width:1.0;"/><line style="stroke:#181818;stroke-width:1.0;stroke-dasharray:2.0,2.0;" x1="697.5" x2="1748.5" y1="338.784" y2="338.784"/><text fill="#000000" font-family="sans-serif" font-size="13" font-weight="bold" lengthAdjust="spacing" textLength="7" x="704.5" y="332.975">9</text><text fill="#000000" font-family="sans-serif" font-size="13" lengthAdjust="spacing" textLength="45" x="715.5" y="332.975">create()</text><rect fill="#E2E2F0" height="33.0679" rx="2.5" ry="2.5" style="stroke:#181818;stroke-width:0.5;" width="288" x="1754.5" y="315.0779"/><text fill="#000000" font-family="sans-serif" font-size="14" lengthAdjust="spacing" textLength="274" x="1761.5" y="337.0439">mdtRequestDto:IClientTasksRequestDTO</text><polygon fill="#181818" points="2083,378.8519,2093,382.8519,2083,386.8519,2087,382.8519" style="stroke:#181818;stroke-width:1.0;"/><line style="stroke:#181818;stroke-width:1.0;" x1="697.5" x2="2089" y1="382.8519" y2="382.8519"/><text fill="#000000" font-family="sans-serif" font-size="13" font-weight="bold" lengthAdjust="spacing" textLength="14" x="704.5" y="377.0429">10</text><text fill="#000000" font-family="sans-serif" font-size="13" lengthAdjust="spacing" textLength="255" x="722.5" y="377.0429">getClientRequestedTasks(mdtRequestDto)</text><polygon fill="#181818" points="2537,410.5579,2547,414.5579,2537,418.5579,2541,414.5579" style="stroke:#181818;stroke-width:1.0;"/><line style="stroke:#181818;stroke-width:1.0;" x1="2105" x2="2543" y1="414.5579" y2="414.5579"/><text fill="#000000" font-family="sans-serif" font-size="13" font-weight="bold" lengthAdjust="spacing" textLength="14" x="2112" y="408.7489">11</text><text fill="#000000" font-family="sans-serif" font-size="13" lengthAdjust="spacing" textLength="407" x="2130" y="408.7489">fetch(MDT_URL/jobs/filter/?filter=client&amp;rule=mdtRequestDto.email)</text><polygon fill="#181818" points="2890,442.2639,2900,446.2639,2890,450.2639,2894,446.2639" style="stroke:#181818;stroke-width:1.0;"/><line style="stroke:#181818;stroke-width:1.0;" x1="2559" x2="2896" y1="446.2639" y2="446.2639"/><text fill="#000000" font-family="sans-serif" font-size="13" font-weight="bold" lengthAdjust="spacing" textLength="14" x="2566" y="440.4549">12</text><text fill="#000000" font-family="sans-serif" font-size="13" lengthAdjust="spacing" textLength="301" x="2584" y="440.4549">GET /MDT_URL/jobs/filter/?filter=client&amp;rule=email</text><path d="M2564,459.2639 L2564,486.2639 L2649,486.2639 L2649,469.2639 L2639,459.2639 L2564,459.2639 " fill="#FEFFDD" style="stroke:#181818;stroke-width:0.5;"/><path d="M2639,459.2639 L2639,469.2639 L2649,469.2639 L2639,459.2639 " fill="#FEFFDD" style="stroke:#181818;stroke-width:0.5;"/><text fill="#000000" font-family="sans-serif" font-size="13" lengthAdjust="spacing" textLength="64" x="2570" y="478.1609">see US 490</text><polygon fill="#181818" points="2570,511.6759,2560,515.6759,2570,519.6759,2566,515.6759" style="stroke:#181818;stroke-width:1.0;"/><line style="stroke:#181818;stroke-width:1.0;stroke-dasharray:2.0,2.0;" x1="2564" x2="2901" y1="515.6759" y2="515.6759"/><text fill="#000000" font-family="sans-serif" font-size="13" font-weight="bold" lengthAdjust="spacing" textLength="14" x="2576" y="509.8669">13</text><text fill="#000000" font-family="sans-serif" font-size="13" lengthAdjust="spacing" textLength="65" x="2594" y="509.8669">clientTasks</text><polygon fill="#181818" points="2116,543.382,2106,547.382,2116,551.382,2112,547.382" style="stroke:#181818;stroke-width:1.0;"/><line style="stroke:#181818;stroke-width:1.0;stroke-dasharray:2.0,2.0;" x1="2110" x2="2553" y1="547.382" y2="547.382"/><text fill="#000000" font-family="sans-serif" font-size="13" font-weight="bold" lengthAdjust="spacing" textLength="14" x="2122" y="541.573">14</text><text fill="#000000" font-family="sans-serif" font-size="13" lengthAdjust="spacing" textLength="65" x="2140" y="541.573">clientTasks</text><path d="M2042.5,562.382 L2115.5,562.382 L2115.5,572.088 L2105.5,582.088 L2042.5,582.088 L2042.5,562.382 " fill="#EEEEEE" style="stroke:#000000;stroke-width:1.5;"/><rect fill="none" height="63.7739" style="stroke:#000000;stroke-width:1.5;" width="789.5" x="2042.5" y="562.382"/><text fill="#000000" font-family="sans-serif" font-size="13" font-weight="bold" lengthAdjust="spacing" textLength="28" x="2057.5" y="577.279">loop</text><text fill="#000000" font-family="sans-serif" font-size="11" font-weight="bold" lengthAdjust="spacing" textLength="128" x="2130.5" y="576.1409">[for task in clientTasks]</text><polygon fill="#181818" points="2593,601.794,2603,605.794,2593,609.794,2597,605.794" style="stroke:#181818;stroke-width:1.0;"/><line style="stroke:#181818;stroke-width:1.0;stroke-dasharray:2.0,2.0;" x1="2105" x2="2599" y1="605.794" y2="605.794"/><text fill="#000000" font-family="sans-serif" font-size="13" font-weight="bold" lengthAdjust="spacing" textLength="14" x="2112" y="599.985">15</text><text fill="#000000" font-family="sans-serif" font-size="13" lengthAdjust="spacing" textLength="45" x="2130" y="599.985">create()</text><rect fill="#E2E2F0" height="33.0679" rx="2.5" ry="2.5" style="stroke:#181818;stroke-width:0.5;" width="217" x="2605" y="582.088"/><text fill="#000000" font-family="sans-serif" font-size="14" lengthAdjust="spacing" textLength="203" x="2612" y="604.0539">clientTaskDTO:IClientTaskDTO</text><polygon fill="#181818" points="708.5,652.8619,698.5,656.8619,708.5,660.8619,704.5,656.8619" style="stroke:#181818;stroke-width:1.0;"/><line style="stroke:#181818;stroke-width:1.0;stroke-dasharray:2.0,2.0;" x1="702.5" x2="2099" y1="656.8619" y2="656.8619"/><text fill="#000000" font-family="sans-serif" font-size="13" font-weight="bold" lengthAdjust="spacing" textLength="14" x="714.5" y="651.0529">16</text><text fill="#000000" font-family="sans-serif" font-size="13" lengthAdjust="spacing" textLength="89" x="732.5" y="651.0529">clientTaskDto[]</text><polygon fill="#181818" points="1427.5,684.5679,1437.5,688.5679,1427.5,692.5679,1431.5,688.5679" style="stroke:#181818;stroke-width:1.0;"/><line style="stroke:#181818;stroke-width:1.0;" x1="697.5" x2="1433.5" y1="688.5679" y2="688.5679"/><text fill="#000000" font-family="sans-serif" font-size="13" font-weight="bold" lengthAdjust="spacing" textLength="14" x="704.5" y="682.7589">17</text><text fill="#000000" font-family="sans-serif" font-size="13" lengthAdjust="spacing" textLength="186" x="722.5" y="682.7589">toClientData(client, clientTasks)</text><polygon fill="#181818" points="1524.5,716.2739,1534.5,720.2739,1524.5,724.2739,1528.5,720.2739" style="stroke:#181818;stroke-width:1.0;"/><line style="stroke:#181818;stroke-width:1.0;stroke-dasharray:2.0,2.0;" x1="1449.5" x2="1530.5" y1="720.2739" y2="720.2739"/><text fill="#000000" font-family="sans-serif" font-size="13" font-weight="bold" lengthAdjust="spacing" textLength="14" x="1456.5" y="714.4649">18</text><text fill="#000000" font-family="sans-serif" font-size="13" lengthAdjust="spacing" textLength="45" x="1474.5" y="714.4649">create()</text><rect fill="#E2E2F0" height="33.0679" rx="2.5" ry="2.5" style="stroke:#181818;stroke-width:0.5;" width="208" x="1536.5" y="696.5679"/><text fill="#000000" font-family="sans-serif" font-size="14" lengthAdjust="spacing" textLength="194" x="1543.5" y="718.5339">clientDataDto:ClientDataDTO</text><polygon fill="#181818" points="708.5,760.3419,698.5,764.3419,708.5,768.3419,704.5,764.3419" style="stroke:#181818;stroke-width:1.0;"/><line style="stroke:#181818;stroke-width:1.0;stroke-dasharray:2.0,2.0;" x1="702.5" x2="1443.5" y1="764.3419" y2="764.3419"/><text fill="#000000" font-family="sans-serif" font-size="13" font-weight="bold" lengthAdjust="spacing" textLength="14" x="714.5" y="758.5329">19</text><text fill="#000000" font-family="sans-serif" font-size="13" lengthAdjust="spacing" textLength="82" x="732.5" y="758.5329">clientDataDto</text><polygon fill="#181818" points="311,792.0479,301,796.0479,311,800.0479,307,796.0479" style="stroke:#181818;stroke-width:1.0;"/><line style="stroke:#181818;stroke-width:1.0;stroke-dasharray:2.0,2.0;" x1="305" x2="691.5" y1="796.0479" y2="796.0479"/><text fill="#000000" font-family="sans-serif" font-size="13" font-weight="bold" lengthAdjust="spacing" textLength="14" x="317" y="790.2389">20</text><text fill="#000000" font-family="sans-serif" font-size="13" lengthAdjust="spacing" textLength="82" x="335" y="790.2389">clientDataDto</text><polygon fill="#181818" points="792,823.7539,802,827.7539,792,831.7539,796,827.7539" style="stroke:#181818;stroke-width:1.0;"/><line style="stroke:#181818;stroke-width:1.0;" x1="300" x2="798" y1="827.7539" y2="827.7539"/><text fill="#000000" font-family="sans-serif" font-size="13" font-weight="bold" lengthAdjust="spacing" textLength="14" x="307" y="821.9449">21</text><text fill="#000000" font-family="sans-serif" font-size="13" lengthAdjust="spacing" textLength="171" x="325" y="821.9449">createArchive(clientDataDto)</text><polygon fill="#181818" points="889,855.4599,899,859.4599,889,863.4599,893,859.4599" style="stroke:#181818;stroke-width:1.0;"/><line style="stroke:#181818;stroke-width:1.0;stroke-dasharray:2.0,2.0;" x1="814" x2="895" y1="859.4599" y2="859.4599"/><text fill="#000000" font-family="sans-serif" font-size="13" font-weight="bold" lengthAdjust="spacing" textLength="14" x="821" y="853.6509">22</text><text fill="#000000" font-family="sans-serif" font-size="13" lengthAdjust="spacing" textLength="45" x="839" y="853.6509">create()</text><rect fill="#E2E2F0" height="33.0679" rx="2.5" ry="2.5" style="stroke:#181818;stroke-width:0.5;" width="253" x="901" y="835.7539"/><text fill="#000000" font-family="sans-serif" font-size="14" lengthAdjust="spacing" textLength="239" x="908" y="857.7198">archiveDto:IArchivedClientDataDTO</text><polygon fill="#181818" points="311,899.5278,301,903.5278,311,907.5278,307,903.5278" style="stroke:#181818;stroke-width:1.0;"/><line style="stroke:#181818;stroke-width:1.0;stroke-dasharray:2.0,2.0;" x1="305" x2="808" y1="903.5278" y2="903.5278"/><text fill="#000000" font-family="sans-serif" font-size="13" font-weight="bold" lengthAdjust="spacing" textLength="14" x="317" y="897.7188">23</text><text fill="#000000" font-family="sans-serif" font-size="13" lengthAdjust="spacing" textLength="65" x="335" y="897.7188">archiveDto</text><polygon fill="#181818" points="161,931.2338,151,935.2338,161,939.2338,157,935.2338" style="stroke:#181818;stroke-width:1.0;"/><line style="stroke:#181818;stroke-width:1.0;" x1="155" x2="294" y1="935.2338" y2="935.2338"/><text fill="#000000" font-family="sans-serif" font-size="13" font-weight="bold" lengthAdjust="spacing" textLength="14" x="167" y="929.4248">24</text><text fill="#000000" font-family="sans-serif" font-size="13" lengthAdjust="spacing" textLength="95" x="185" y="929.4248">200 : archiveDto</text><polygon fill="#181818" points="11,962.9399,1,966.9399,11,970.9399,7,966.9399" style="stroke:#181818;stroke-width:1.0;"/><line style="stroke:#181818;stroke-width:1.0;stroke-dasharray:2.0,2.0;" x1="5" x2="144" y1="966.9399" y2="966.9399"/><text fill="#000000" font-family="sans-serif" font-size="13" font-weight="bold" lengthAdjust="spacing" textLength="14" x="17" y="961.1309">25</text><text fill="#000000" font-family="sans-serif" font-size="13" lengthAdjust="spacing" textLength="72" x="35" y="961.1309">200: ok data</text><!--SRC=[ZLPDZzem4BtdLupsi8LLKr3LIr6NrNQfgaf5LC2U45gPn2pkXZXr1jJsrtTivyD97BQ-8CYRDszcNiQm4yhqTDnn5GGPKoWYaR4KuMefJyYlWEMWcWyUP8fA9WbNvcc4Acc5Alxhn7ESePnyUqW4Jt76a2sBNzSB4nUZV19fAzAYLroTHMIJv-UeXRbNqK6SkGlwAx8cXbcCKL3Wurg9Au6gz6fOyapc0gNwOtj0NvkmsMUOAUArNOXtNfOvoypZ8yiotkfZLEiXcLvrBSvZZCjEQzSiVyazlILmjx_p6EzZbc6XcZ1TW5FL0J4BVAfrKahcQcZdDeqDDk4K54pWnsArXf4DpaSnbHcm2CMP8IT_0Hq51DLc8ZJ_dKc5TKi6GmEf8epde3Wc9gHWwwYR6oA852SSXRLGK-qdUlxCYRqah-qwhE1LAkq_S8wErpMH7uXdBzBOYN_7ZqmamqP0NQQs4BIEuT7QTmNR8kK33qk3YSm6daCSOItDzhe3ZBbBqwEdwfE7n24m5NMxKup26h0v3ayd2LOEnBvtffayDhuUD2pVqrZjudOTcfN8jO5rOpb6Xy5yjdvwN7uV_PIxVBGN2Rq5eplxUMiBlLQdXDysSfOZxP-6UKbyyp39m-cM17pzGkx_t_mcevSnbRhhulc08FTbSJddyBY23n_7_Ie-XU6s6gVfx0N5rL0kmHqRs2tH1YHIPh2N2f3YGQIl9ZSZSxn32wJVFFhmD0w2FXRNlsOzeTni-unizg3FcsPj4mzAPnbPqhTkGNtEj6k_ez7I5iLUBjB1kYKLrqPlGTt4vQjPh5W_ZKDXBjxszgIBjX9RtAk31fDdW-hBsHNo1kwQpTQavU0l3hq45YNKbxnFlqxRqQzd-NuyxWOxWVOFZVvnGwzD6J81-GBctd8NOF0F]--></g></svg>