<?xml version="1.0" encoding="us-ascii" standalone="no"?><svg xmlns="http://www.w3.org/2000/svg" xmlns:xlink="http://www.w3.org/1999/xlink" contentStyleType="text/css" height="985px" preserveAspectRatio="none" style="width:2744px;height:985px;background:#FFFFFF;" version="1.1" viewBox="0 0 2744 985" width="2744px" zoomAndPan="magnify"><defs/><g><rect fill="#FFFFFF" height="856.4599" style="stroke:#181818;stroke-width:1.0;" width="10" x="140" y="72.7739"/><rect fill="#FFFFFF" height="793.0479" style="stroke:#181818;stroke-width:1.0;" width="10" x="290" y="104.4799"/><rect fill="#FFFFFF" height="578.088" style="stroke:#181818;stroke-width:1.0;" width="10" x="687.5" y="180.2539"/><rect fill="#FFFFFF" height="75.7739" style="stroke:#181818;stroke-width:1.0;" width="10" x="804" y="790.0479"/><rect fill="#FFFFFF" height="95.118" style="stroke:#181818;stroke-width:1.0;" width="10" x="1221" y="211.9599"/><rect fill="#FFFFFF" height="31.706" style="stroke:#181818;stroke-width:1.0;" width="10" x="1349" y="243.6659"/><rect fill="#FFFFFF" height="75.7739" style="stroke:#181818;stroke-width:1.0;" width="10" x="1439.5" y="650.8619"/><rect fill="#FFFFFF" height="236.304" style="stroke:#181818;stroke-width:1.0;" width="10" x="2095" y="382.8519"/><rect fill="#FFFFFF" height="95.118" style="stroke:#181818;stroke-width:1.0;" width="10" x="2445" y="414.5579"/><rect fill="none" height="63.7739" style="stroke:#000000;stroke-width:1.5;" width="685.5" x="2042.5" y="524.6759"/><line style="stroke:#181818;stroke-width:0.5;stroke-dasharray:5.0,5.0;" x1="144.5" x2="144.5" y1="39.0679" y2="947.2338"/><line style="stroke:#181818;stroke-width:0.5;stroke-dasharray:5.0,5.0;" x1="294.5" x2="294.5" y1="39.0679" y2="947.2338"/><line style="stroke:#181818;stroke-width:0.5;stroke-dasharray:5.0,5.0;" x1="506" x2="506" y1="144.5139" y2="947.2338"/><line style="stroke:#181818;stroke-width:0.5;stroke-dasharray:5.0,5.0;" x1="692" x2="692" y1="39.0679" y2="947.2338"/><line style="stroke:#181818;stroke-width:0.5;stroke-dasharray:5.0,5.0;" x1="809" x2="809" y1="39.0679" y2="947.2338"/><line style="stroke:#181818;stroke-width:0.5;stroke-dasharray:5.0,5.0;" x1="1027" x2="1027" y1="830.0818" y2="947.2338"/><line style="stroke:#181818;stroke-width:0.5;stroke-dasharray:5.0,5.0;" x1="1226" x2="1226" y1="39.0679" y2="947.2338"/><line style="stroke:#181818;stroke-width:0.5;stroke-dasharray:5.0,5.0;" x1="1354" x2="1354" y1="39.0679" y2="947.2338"/><line style="stroke:#181818;stroke-width:0.5;stroke-dasharray:5.0,5.0;" x1="1444" x2="1444" y1="39.0679" y2="947.2338"/><line style="stroke:#181818;stroke-width:0.5;stroke-dasharray:5.0,5.0;" x1="1640.5" x2="1640.5" y1="690.8959" y2="947.2338"/><line style="stroke:#181818;stroke-width:0.5;stroke-dasharray:5.0,5.0;" x1="1898.5" x2="1898.5" y1="347.1119" y2="947.2338"/><line style="stroke:#181818;stroke-width:0.5;stroke-dasharray:5.0,5.0;" x1="2099.5" x2="2099.5" y1="39.0679" y2="947.2338"/><line style="stroke:#181818;stroke-width:0.5;stroke-dasharray:5.0,5.0;" x1="2450" x2="2450" y1="39.0679" y2="947.2338"/><line style="stroke:#181818;stroke-width:0.5;stroke-dasharray:5.0,5.0;" x1="2609" x2="2609" y1="576.4159" y2="947.2338"/><rect fill="#E2E2F0" height="33.0679" rx="2.5" ry="2.5" style="stroke:#181818;stroke-width:0.5;" width="53" x="118.5" y="5"/><text fill="#000000" font-family="sans-serif" font-size="14" lengthAdjust="spacing" textLength="39" x="125.5" y="26.9659">Route</text><rect fill="#E2E2F0" height="33.0679" rx="2.5" ry="2.5" style="stroke:#181818;stroke-width:0.5;" width="53" x="118.5" y="946.2338"/><text fill="#000000" font-family="sans-serif" font-size="14" lengthAdjust="spacing" textLength="39" x="125.5" y="968.1998">Route</text><rect fill="#E2E2F0" height="33.0679" rx="2.5" ry="2.5" style="stroke:#181818;stroke-width:0.5;" width="81" x="254.5" y="5"/><text fill="#000000" font-family="sans-serif" font-size="14" lengthAdjust="spacing" textLength="67" x="261.5" y="26.9659">Controller</text><rect fill="#E2E2F0" height="33.0679" rx="2.5" ry="2.5" style="stroke:#181818;stroke-width:0.5;" width="81" x="254.5" y="946.2338"/><text fill="#000000" font-family="sans-serif" font-size="14" lengthAdjust="spacing" textLength="67" x="261.5" y="968.1998">Controller</text><rect fill="#E2E2F0" height="33.0679" rx="2.5" ry="2.5" style="stroke:#181818;stroke-width:0.5;" width="252" x="380" y="946.2338"/><text fill="#000000" font-family="sans-serif" font-size="14" lengthAdjust="spacing" textLength="238" x="387" y="968.1998">requestDto:IClientDataRequestDTO</text><rect fill="#E2E2F0" height="33.0679" rx="2.5" ry="2.5" style="stroke:#181818;stroke-width:0.5;" width="101" x="642" y="5"/><text fill="#000000" font-family="sans-serif" font-size="14" lengthAdjust="spacing" textLength="87" x="649" y="26.9659">ClientService</text><rect fill="#E2E2F0" height="33.0679" rx="2.5" ry="2.5" style="stroke:#181818;stroke-width:0.5;" width="101" x="642" y="946.2338"/><text fill="#000000" font-family="sans-serif" font-size="14" lengthAdjust="spacing" textLength="87" x="649" y="968.1998">ClientService</text><rect fill="#E2E2F0" height="33.0679" rx="2.5" ry="2.5" style="stroke:#181818;stroke-width:0.5;" width="112" x="753" y="5"/><text fill="#000000" font-family="sans-serif" font-size="14" lengthAdjust="spacing" textLength="98" x="760" y="26.9659">ArchiveService</text><rect fill="#E2E2F0" height="33.0679" rx="2.5" ry="2.5" style="stroke:#181818;stroke-width:0.5;" width="112" x="753" y="946.2338"/><text fill="#000000" font-family="sans-serif" font-size="14" lengthAdjust="spacing" textLength="98" x="760" y="968.1998">ArchiveService</text><rect fill="#E2E2F0" height="33.0679" rx="2.5" ry="2.5" style="stroke:#181818;stroke-width:0.5;" width="253" x="901" y="946.2338"/><text fill="#000000" font-family="sans-serif" font-size="14" lengthAdjust="spacing" textLength="239" x="908" y="968.1998">archiveDto:IArchivedClientDataDTO</text><rect fill="#E2E2F0" height="33.0679" rx="2.5" ry="2.5" style="stroke:#181818;stroke-width:0.5;" width="124" x="1164" y="5"/><text fill="#000000" font-family="sans-serif" font-size="14" lengthAdjust="spacing" textLength="110" x="1171" y="26.9659">ClientRepository</text><rect fill="#E2E2F0" height="33.0679" rx="2.5" ry="2.5" style="stroke:#181818;stroke-width:0.5;" width="124" x="1164" y="946.2338"/><text fill="#000000" font-family="sans-serif" font-size="14" lengthAdjust="spacing" textLength="110" x="1171" y="968.1998">ClientRepository</text><rect fill="#E2E2F0" height="33.0679" rx="2.5" ry="2.5" style="stroke:#181818;stroke-width:0.5;" width="78" x="1315" y="5"/><text fill="#000000" font-family="sans-serif" font-size="14" lengthAdjust="spacing" textLength="64" x="1322" y="26.9659">DB Driver</text><rect fill="#E2E2F0" height="33.0679" rx="2.5" ry="2.5" style="stroke:#181818;stroke-width:0.5;" width="78" x="1315" y="946.2338"/><text fill="#000000" font-family="sans-serif" font-size="14" lengthAdjust="spacing" textLength="64" x="1322" y="968.1998">DB Driver</text><rect fill="#E2E2F0" height="33.0679" rx="2.5" ry="2.5" style="stroke:#181818;stroke-width:0.5;" width="83" x="1403" y="5"/><text fill="#000000" font-family="sans-serif" font-size="14" lengthAdjust="spacing" textLength="69" x="1410" y="26.9659">ClientMap</text><rect fill="#E2E2F0" height="33.0679" rx="2.5" ry="2.5" style="stroke:#181818;stroke-width:0.5;" width="83" x="1403" y="946.2338"/><text fill="#000000" font-family="sans-serif" font-size="14" lengthAdjust="spacing" textLength="69" x="1410" y="968.1998">ClientMap</text><rect fill="#E2E2F0" height="33.0679" rx="2.5" ry="2.5" style="stroke:#181818;stroke-width:0.5;" width="208" x="1536.5" y="946.2338"/><text fill="#000000" font-family="sans-serif" font-size="14" lengthAdjust="spacing" textLength="194" x="1543.5" y="968.1998">clientDataDto:ClientDataDTO</text><rect fill="#E2E2F0" height="33.0679" rx="2.5" ry="2.5" style="stroke:#181818;stroke-width:0.5;" width="288" x="1754.5" y="946.2338"/><text fill="#000000" font-family="sans-serif" font-size="14" lengthAdjust="spacing" textLength="274" x="1761.5" y="968.1998">mdtRequestDto:IClientTasksRequestDTO</text><rect fill="#E2E2F0" height="33.0679" rx="2.5" ry="2.5" style="stroke:#181818;stroke-width:0.5;" width="95" x="2052.5" y="5"/><text fill="#000000" font-family="sans-serif" font-size="14" lengthAdjust="spacing" textLength="81" x="2059.5" y="26.9659">MdtAdapter</text><rect fill="#E2E2F0" height="33.0679" rx="2.5" ry="2.5" style="stroke:#181818;stroke-width:0.5;" width="95" x="2052.5" y="946.2338"/><text fill="#000000" font-family="sans-serif" font-size="14" lengthAdjust="spacing" textLength="81" x="2059.5" y="968.1998">MdtAdapter</text><rect fill="#E2E2F0" height="33.0679" rx="2.5" ry="2.5" style="stroke:#181818;stroke-width:0.5;" width="82" x="2409" y="5"/><text fill="#000000" font-family="sans-serif" font-size="14" lengthAdjust="spacing" textLength="68" x="2416" y="26.9659">MdtDriver</text><rect fill="#E2E2F0" height="33.0679" rx="2.5" ry="2.5" style="stroke:#181818;stroke-width:0.5;" width="82" x="2409" y="946.2338"/><text fill="#000000" font-family="sans-serif" font-size="14" lengthAdjust="spacing" textLength="68" x="2416" y="968.1998">MdtDriver</text><rect fill="#E2E2F0" height="33.0679" rx="2.5" ry="2.5" style="stroke:#181818;stroke-width:0.5;" width="217" x="2501" y="946.2338"/><text fill="#000000" font-family="sans-serif" font-size="14" lengthAdjust="spacing" textLength="203" x="2508" y="968.1998">clientTaskDTO:IClientTaskDTO</text><rect fill="#FFFFFF" height="856.4599" style="stroke:#181818;stroke-width:1.0;" width="10" x="140" y="72.7739"/><rect fill="#FFFFFF" height="793.0479" style="stroke:#181818;stroke-width:1.0;" width="10" x="290" y="104.4799"/><rect fill="#FFFFFF" height="578.088" style="stroke:#181818;stroke-width:1.0;" width="10" x="687.5" y="180.2539"/><rect fill="#FFFFFF" height="75.7739" style="stroke:#181818;stroke-width:1.0;" width="10" x="804" y="790.0479"/><rect fill="#FFFFFF" height="95.118" style="stroke:#181818;stroke-width:1.0;" width="10" x="1221" y="211.9599"/><rect fill="#FFFFFF" height="31.706" style="stroke:#181818;stroke-width:1.0;" width="10" x="1349" y="243.6659"/><rect fill="#FFFFFF" height="75.7739" style="stroke:#181818;stroke-width:1.0;" width="10" x="1439.5" y="650.8619"/><rect fill="#FFFFFF" height="236.304" style="stroke:#181818;stroke-width:1.0;" width="10" x="2095" y="382.8519"/><rect fill="#FFFFFF" height="95.118" style="stroke:#181818;stroke-width:1.0;" width="10" x="2445" y="414.5579"/><polygon fill="#181818" points="128,68.7739,138,72.7739,128,76.7739,132,72.7739" style="stroke:#181818;stroke-width:1.0;"/><line style="stroke:#181818;stroke-width:1.0;" x1="0" x2="134" y1="72.7739" y2="72.7739"/><text fill="#000000" font-family="sans-serif" font-size="13" font-weight="bold" lengthAdjust="spacing" textLength="7" x="7" y="66.9649">1</text><text fill="#000000" font-family="sans-serif" font-size="13" lengthAdjust="spacing" textLength="110" x="18" y="66.9649">POST /clients/data</text><polygon fill="#181818" points="278,100.4799,288,104.4799,278,108.4799,282,104.4799" style="stroke:#181818;stroke-width:1.0;"/><line style="stroke:#181818;stroke-width:1.0;" x1="150" x2="284" y1="104.4799" y2="104.4799"/><text fill="#000000" font-family="sans-serif" font-size="13" font-weight="bold" lengthAdjust="spacing" textLength="7" x="157" y="98.6709">2</text><text fill="#000000" font-family="sans-serif" font-size="13" lengthAdjust="spacing" textLength="110" x="168" y="98.6709">exportClientData()</text><polygon fill="#181818" points="368,132.186,378,136.186,368,140.186,372,136.186" style="stroke:#181818;stroke-width:1.0;"/><line style="stroke:#181818;stroke-width:1.0;stroke-dasharray:2.0,2.0;" x1="300" x2="374" y1="136.186" y2="136.186"/><text fill="#000000" font-family="sans-serif" font-size="13" font-weight="bold" lengthAdjust="spacing" textLength="7" x="307" y="130.377">3</text><text fill="#000000" font-family="sans-serif" font-size="13" lengthAdjust="spacing" textLength="45" x="318" y="130.377">create()</text><rect fill="#E2E2F0" height="33.0679" rx="2.5" ry="2.5" style="stroke:#181818;stroke-width:0.5;" width="252" x="380" y="112.4799"/><text fill="#000000" font-family="sans-serif" font-size="14" lengthAdjust="spacing" textLength="238" x="387" y="134.4459">requestDto:IClientDataRequestDTO</text><polygon fill="#181818" points="675.5,176.2539,685.5,180.2539,675.5,184.2539,679.5,180.2539" style="stroke:#181818;stroke-width:1.0;"/><line style="stroke:#181818;stroke-width:1.0;" x1="300" x2="681.5" y1="180.2539" y2="180.2539"/><text fill="#000000" font-family="sans-serif" font-size="13" font-weight="bold" lengthAdjust="spacing" textLength="7" x="307" y="174.4449">4</text><text fill="#000000" font-family="sans-serif" font-size="13" lengthAdjust="spacing" textLength="155" x="318" y="174.4449">getClentData(requestDto)</text><polygon fill="#181818" points="1209,207.9599,1219,211.9599,1209,215.9599,1213,211.9599" style="stroke:#181818;stroke-width:1.0;"/><line style="stroke:#181818;stroke-width:1.0;" x1="697.5" x2="1215" y1="211.9599" y2="211.9599"/><text fill="#000000" font-family="sans-serif" font-size="13" font-weight="bold" lengthAdjust="spacing" textLength="7" x="704.5" y="206.1509">5</text><text fill="#000000" font-family="sans-serif" font-size="13" lengthAdjust="spacing" textLength="134" x="715.5" y="206.1509">find(requestDto.email)</text><polygon fill="#181818" points="1337,239.6659,1347,243.6659,1337,247.6659,1341,243.6659" style="stroke:#181818;stroke-width:1.0;"/><line style="stroke:#181818;stroke-width:1.0;" x1="1231" x2="1343" y1="243.6659" y2="243.6659"/><text fill="#000000" font-family="sans-serif" font-size="13" font-weight="bold" lengthAdjust="spacing" textLength="7" x="1238" y="237.8569">6</text><text fill="#000000" font-family="sans-serif" font-size="13" lengthAdjust="spacing" textLength="88" x="1249" y="237.8569">findOne(email)</text><polygon fill="#181818" points="1242,271.3719,1232,275.3719,1242,279.3719,1238,275.3719" style="stroke:#181818;stroke-width:1.0;"/><line style="stroke:#181818;stroke-width:1.0;stroke-dasharray:2.0,2.0;" x1="1236" x2="1353" y1="275.3719" y2="275.3719"/><text fill="#000000" font-family="sans-serif" font-size="13" font-weight="bold" lengthAdjust="spacing" textLength="7" x="1248" y="269.5629">7</text><text fill="#000000" font-family="sans-serif" font-size="13" lengthAdjust="spacing" textLength="32" x="1259" y="269.5629">client</text><polygon fill="#181818" points="708.5,303.0779,698.5,307.0779,708.5,311.0779,704.5,307.0779" style="stroke:#181818;stroke-width:1.0;"/><line style="stroke:#181818;stroke-width:1.0;stroke-dasharray:2.0,2.0;" x1="702.5" x2="1225" y1="307.0779" y2="307.0779"/><text fill="#000000" font-family="sans-serif" font-size="13" font-weight="bold" lengthAdjust="spacing" textLength="7" x="714.5" y="301.2689">8</text><text fill="#000000" font-family="sans-serif" font-size="13" lengthAdjust="spacing" textLength="32" x="725.5" y="301.2689">client</text><polygon fill="#181818" points="1742.5,334.784,1752.5,338.784,1742.5,342.784,1746.5,338.784" style="stroke:#181818;stroke-width:1.0;"/><line style="stroke:#181818;stroke-width:1.0;stroke-dasharray:2.0,2.0;" x1="697.5" x2="1748.5" y1="338.784" y2="338.784"/><text fill="#000000" font-family="sans-serif" font-size="13" font-weight="bold" lengthAdjust="spacing" textLength="7" x="704.5" y="332.975">9</text><text fill="#000000" font-family="sans-serif" font-size="13" lengthAdjust="spacing" textLength="45" x="715.5" y="332.975">create()</text><rect fill="#E2E2F0" height="33.0679" rx="2.5" ry="2.5" style="stroke:#181818;stroke-width:0.5;" width="288" x="1754.5" y="315.0779"/><text fill="#000000" font-family="sans-serif" font-size="14" lengthAdjust="spacing" textLength="274" x="1761.5" y="337.0439">mdtRequestDto:IClientTasksRequestDTO</text><polygon fill="#181818" points="2083,378.8519,2093,382.8519,2083,386.8519,2087,382.8519" style="stroke:#181818;stroke-width:1.0;"/><line style="stroke:#181818;stroke-width:1.0;" x1="697.5" x2="2089" y1="382.8519" y2="382.8519"/><text fill="#000000" font-family="sans-serif" font-size="13" font-weight="bold" lengthAdjust="spacing" textLength="14" x="704.5" y="377.0429">10</text><text fill="#000000" font-family="sans-serif" font-size="13" lengthAdjust="spacing" textLength="255" x="722.5" y="377.0429">getClientRequestedTasks(mdtRequestDto)</text><polygon fill="#181818" points="2433,410.5579,2443,414.5579,2433,418.5579,2437,414.5579" style="stroke:#181818;stroke-width:1.0;"/><line style="stroke:#181818;stroke-width:1.0;" x1="2105" x2="2439" y1="414.5579" y2="414.5579"/><text fill="#000000" font-family="sans-serif" font-size="13" font-weight="bold" lengthAdjust="spacing" textLength="14" x="2112" y="408.7489">11</text><text fill="#000000" font-family="sans-serif" font-size="13" lengthAdjust="spacing" textLength="303" x="2130" y="408.7489">fetch(MDT_URL/jobs?client=mdtRequestDto.email)</text><polygon fill="#181818" points="2726,442.2639,2736,446.2639,2726,450.2639,2730,446.2639" style="stroke:#181818;stroke-width:1.0;"/><line style="stroke:#181818;stroke-width:1.0;" x1="2455" x2="2732" y1="446.2639" y2="446.2639"/><text fill="#000000" font-family="sans-serif" font-size="13" font-weight="bold" lengthAdjust="spacing" textLength="14" x="2462" y="440.4549">12</text><text fill="#000000" font-family="sans-serif" font-size="13" lengthAdjust="spacing" textLength="197" x="2480" y="440.4549">GET /MDT_URL/jobs?client=email</text><polygon fill="#181818" points="2466,473.9699,2456,477.9699,2466,481.9699,2462,477.9699" style="stroke:#181818;stroke-width:1.0;"/><line style="stroke:#181818;stroke-width:1.0;stroke-dasharray:2.0,2.0;" x1="2460" x2="2737" y1="477.9699" y2="477.9699"/><text fill="#000000" font-family="sans-serif" font-size="13" font-weight="bold" lengthAdjust="spacing" textLength="14" x="2472" y="472.1609">13</text><text fill="#000000" font-family="sans-serif" font-size="13" lengthAdjust="spacing" textLength="65" x="2490" y="472.1609">clientTasks</text><polygon fill="#181818" points="2116,505.6759,2106,509.6759,2116,513.6759,2112,509.6759" style="stroke:#181818;stroke-width:1.0;"/><line style="stroke:#181818;stroke-width:1.0;stroke-dasharray:2.0,2.0;" x1="2110" x2="2449" y1="509.6759" y2="509.6759"/><text fill="#000000" font-family="sans-serif" font-size="13" font-weight="bold" lengthAdjust="spacing" textLength="14" x="2122" y="503.8669">14</text><text fill="#000000" font-family="sans-serif" font-size="13" lengthAdjust="spacing" textLength="65" x="2140" y="503.8669">clientTasks</text><path d="M2042.5,524.6759 L2115.5,524.6759 L2115.5,534.382 L2105.5,544.382 L2042.5,544.382 L2042.5,524.6759 " fill="#EEEEEE" style="stroke:#000000;stroke-width:1.5;"/><rect fill="none" height="63.7739" style="stroke:#000000;stroke-width:1.5;" width="685.5" x="2042.5" y="524.6759"/><text fill="#000000" font-family="sans-serif" font-size="13" font-weight="bold" lengthAdjust="spacing" textLength="28" x="2057.5" y="539.573">loop</text><text fill="#000000" font-family="sans-serif" font-size="11" font-weight="bold" lengthAdjust="spacing" textLength="128" x="2130.5" y="538.4349">[for task in clientTasks]</text><polygon fill="#181818" points="2489,564.088,2499,568.088,2489,572.088,2493,568.088" style="stroke:#181818;stroke-width:1.0;"/><line style="stroke:#181818;stroke-width:1.0;stroke-dasharray:2.0,2.0;" x1="2105" x2="2495" y1="568.088" y2="568.088"/><text fill="#000000" font-family="sans-serif" font-size="13" font-weight="bold" lengthAdjust="spacing" textLength="14" x="2112" y="562.279">15</text><text fill="#000000" font-family="sans-serif" font-size="13" lengthAdjust="spacing" textLength="45" x="2130" y="562.279">create()</text><rect fill="#E2E2F0" height="33.0679" rx="2.5" ry="2.5" style="stroke:#181818;stroke-width:0.5;" width="217" x="2501" y="544.382"/><text fill="#000000" font-family="sans-serif" font-size="14" lengthAdjust="spacing" textLength="203" x="2508" y="566.3479">clientTaskDTO:IClientTaskDTO</text><polygon fill="#181818" points="708.5,615.1559,698.5,619.1559,708.5,623.1559,704.5,619.1559" style="stroke:#181818;stroke-width:1.0;"/><line style="stroke:#181818;stroke-width:1.0;stroke-dasharray:2.0,2.0;" x1="702.5" x2="2099" y1="619.1559" y2="619.1559"/><text fill="#000000" font-family="sans-serif" font-size="13" font-weight="bold" lengthAdjust="spacing" textLength="14" x="714.5" y="613.3469">16</text><text fill="#000000" font-family="sans-serif" font-size="13" lengthAdjust="spacing" textLength="89" x="732.5" y="613.3469">clientTaskDto[]</text><polygon fill="#181818" points="1427.5,646.8619,1437.5,650.8619,1427.5,654.8619,1431.5,650.8619" style="stroke:#181818;stroke-width:1.0;"/><line style="stroke:#181818;stroke-width:1.0;" x1="697.5" x2="1433.5" y1="650.8619" y2="650.8619"/><text fill="#000000" font-family="sans-serif" font-size="13" font-weight="bold" lengthAdjust="spacing" textLength="14" x="704.5" y="645.0529">17</text><text fill="#000000" font-family="sans-serif" font-size="13" lengthAdjust="spacing" textLength="186" x="722.5" y="645.0529">toClientData(client, clientTasks)</text><polygon fill="#181818" points="1524.5,678.5679,1534.5,682.5679,1524.5,686.5679,1528.5,682.5679" style="stroke:#181818;stroke-width:1.0;"/><line style="stroke:#181818;stroke-width:1.0;stroke-dasharray:2.0,2.0;" x1="1449.5" x2="1530.5" y1="682.5679" y2="682.5679"/><text fill="#000000" font-family="sans-serif" font-size="13" font-weight="bold" lengthAdjust="spacing" textLength="14" x="1456.5" y="676.7589">18</text><text fill="#000000" font-family="sans-serif" font-size="13" lengthAdjust="spacing" textLength="45" x="1474.5" y="676.7589">create()</text><rect fill="#E2E2F0" height="33.0679" rx="2.5" ry="2.5" style="stroke:#181818;stroke-width:0.5;" width="208" x="1536.5" y="658.8619"/><text fill="#000000" font-family="sans-serif" font-size="14" lengthAdjust="spacing" textLength="194" x="1543.5" y="680.8279">clientDataDto:ClientDataDTO</text><polygon fill="#181818" points="708.5,722.6358,698.5,726.6358,708.5,730.6358,704.5,726.6358" style="stroke:#181818;stroke-width:1.0;"/><line style="stroke:#181818;stroke-width:1.0;stroke-dasharray:2.0,2.0;" x1="702.5" x2="1443.5" y1="726.6358" y2="726.6358"/><text fill="#000000" font-family="sans-serif" font-size="13" font-weight="bold" lengthAdjust="spacing" textLength="14" x="714.5" y="720.8268">19</text><text fill="#000000" font-family="sans-serif" font-size="13" lengthAdjust="spacing" textLength="82" x="732.5" y="720.8268">clientDataDto</text><polygon fill="#181818" points="311,754.3419,301,758.3419,311,762.3419,307,758.3419" style="stroke:#181818;stroke-width:1.0;"/><line style="stroke:#181818;stroke-width:1.0;stroke-dasharray:2.0,2.0;" x1="305" x2="691.5" y1="758.3419" y2="758.3419"/><text fill="#000000" font-family="sans-serif" font-size="13" font-weight="bold" lengthAdjust="spacing" textLength="14" x="317" y="752.5329">20</text><text fill="#000000" font-family="sans-serif" font-size="13" lengthAdjust="spacing" textLength="82" x="335" y="752.5329">clientDataDto</text><polygon fill="#181818" points="792,786.0479,802,790.0479,792,794.0479,796,790.0479" style="stroke:#181818;stroke-width:1.0;"/><line style="stroke:#181818;stroke-width:1.0;" x1="300" x2="798" y1="790.0479" y2="790.0479"/><text fill="#000000" font-family="sans-serif" font-size="13" font-weight="bold" lengthAdjust="spacing" textLength="14" x="307" y="784.2389">21</text><text fill="#000000" font-family="sans-serif" font-size="13" lengthAdjust="spacing" textLength="171" x="325" y="784.2389">createArchive(clientDataDto)</text><polygon fill="#181818" points="889,817.7539,899,821.7539,889,825.7539,893,821.7539" style="stroke:#181818;stroke-width:1.0;"/><line style="stroke:#181818;stroke-width:1.0;stroke-dasharray:2.0,2.0;" x1="814" x2="895" y1="821.7539" y2="821.7539"/><text fill="#000000" font-family="sans-serif" font-size="13" font-weight="bold" lengthAdjust="spacing" textLength="14" x="821" y="815.9449">22</text><text fill="#000000" font-family="sans-serif" font-size="13" lengthAdjust="spacing" textLength="45" x="839" y="815.9449">create()</text><rect fill="#E2E2F0" height="33.0679" rx="2.5" ry="2.5" style="stroke:#181818;stroke-width:0.5;" width="253" x="901" y="798.0479"/><text fill="#000000" font-family="sans-serif" font-size="14" lengthAdjust="spacing" textLength="239" x="908" y="820.0138">archiveDto:IArchivedClientDataDTO</text><polygon fill="#181818" points="311,861.8218,301,865.8218,311,869.8218,307,865.8218" style="stroke:#181818;stroke-width:1.0;"/><line style="stroke:#181818;stroke-width:1.0;stroke-dasharray:2.0,2.0;" x1="305" x2="808" y1="865.8218" y2="865.8218"/><text fill="#000000" font-family="sans-serif" font-size="13" font-weight="bold" lengthAdjust="spacing" textLength="14" x="317" y="860.0128">23</text><text fill="#000000" font-family="sans-serif" font-size="13" lengthAdjust="spacing" textLength="65" x="335" y="860.0128">archiveDto</text><polygon fill="#181818" points="161,893.5278,151,897.5278,161,901.5278,157,897.5278" style="stroke:#181818;stroke-width:1.0;"/><line style="stroke:#181818;stroke-width:1.0;" x1="155" x2="294" y1="897.5278" y2="897.5278"/><text fill="#000000" font-family="sans-serif" font-size="13" font-weight="bold" lengthAdjust="spacing" textLength="14" x="167" y="891.7188">24</text><text fill="#000000" font-family="sans-serif" font-size="13" lengthAdjust="spacing" textLength="95" x="185" y="891.7188">200 : archiveDto</text><polygon fill="#181818" points="11,925.2338,1,929.2338,11,933.2338,7,929.2338" style="stroke:#181818;stroke-width:1.0;"/><line style="stroke:#181818;stroke-width:1.0;stroke-dasharray:2.0,2.0;" x1="5" x2="144" y1="929.2338" y2="929.2338"/><text fill="#000000" font-family="sans-serif" font-size="13" font-weight="bold" lengthAdjust="spacing" textLength="14" x="17" y="923.4248">25</text><text fill="#000000" font-family="sans-serif" font-size="13" lengthAdjust="spacing" textLength="72" x="35" y="923.4248">200: ok data</text><!--SRC=[XLPDRzim3BtxLmYzB2dcfTYns59qpJ0CM90XJKz1K2YMkcXrB4rcWcs_VjI7RLcMCzqQFpwIZqzKwGbaTJhkkSuoHJM8GYXQ0RbQonFmAq9heliV7cG5MfObr_Ph0RgCGZN_TU8rB43UVdqe1QzWGO6k_Q-RbOrZ89z55KKwz2FNPr6uvFMvY33tkZY8Cmz1VuNgOwZ3s0eyddMLX2LWbyaQrbp9Me3KVvm6-6SVjlX45XfvdGfidsHPKcK_7wbIFDAnwEh1CfFLHPn71kk1j1jQlzO9RH4yr7V9u9vH1Rvgn0m1GLS709MbgZP9CLbOGvpR2fjjypdHv9PyNprkoCm5rpE6RMQq076cmD5V18yc23LcGZJ_hQI6JfB9r4BQ2Eivue-DoJ7OEUhw6WaApH67OH5gRlo4ttzmP6_8ExjEMtYRolYF1CV4cvxG3yZp8YeMnB_ZHohAQI-WQzDOY4J7yfZQzvvjLV59WgN7X6OZYOCSULUQqte0P3oa6QcdrIb14X3OZeRg-54u0_R7aL0IOSr0tBspOd9cVJtfMNv4MEFYk0_3YkJ6m4PO3iLXibnidf_MtsO_vRw-SvrzxF4tunjNtbw8bFOsKJxVOR8ldz7fgLoMVJpwGvxlMibjznSojS9TWWUZSZSv1fHIAl8YDG6C9wBwRt8hQp1VlEJZ0pQ7LopBnbX2ZzaL0dAx6pERtLKf_zZLYZmWWuNXID-63OsvnwtcGOsErZTxkSa06xRaL_jeGyF4pVNnQp1D4r3Onp7USFWOjiNwjs_IOqfiEVE0XeMy8NTziGrfC_YBGs-0leNk8KxLRz8EwZUpV7zpCmmE0jq_7UR7BLwR9kIMo5TYtvPmIMN_0000]--></g></svg>