<?xml version="1.0" encoding="us-ascii" standalone="no"?><svg xmlns="http://www.w3.org/2000/svg" xmlns:xlink="http://www.w3.org/1999/xlink" contentStyleType="text/css" height="428px" preserveAspectRatio="none" style="width:892px;height:428px;background:#FFFFFF;" version="1.1" viewBox="0 0 892 428" width="892px" zoomAndPan="magnify"><defs/><g><rect fill="#FFFFFF" height="299.716" style="stroke:#181818;stroke-width:1.0;" width="10" x="163" y="72.7739"/><rect fill="#FFFFFF" height="236.304" style="stroke:#181818;stroke-width:1.0;" width="10" x="356" y="104.4799"/><rect fill="#FFFFFF" height="31.706" style="stroke:#181818;stroke-width:1.0;" width="10" x="584" y="136.186"/><rect fill="#FFFFFF" height="109.4799" style="stroke:#181818;stroke-width:1.0;" width="10" x="680.5" y="199.598"/><rect fill="none" height="63.7739" style="stroke:#000000;stroke-width:1.5;" width="255" x="631.5" y="214.598"/><line style="stroke:#181818;stroke-width:0.5;stroke-dasharray:5.0,5.0;" x1="167.5" x2="167.5" y1="39.0679" y2="390.49"/><line style="stroke:#181818;stroke-width:0.5;stroke-dasharray:5.0,5.0;" x1="361" x2="361" y1="39.0679" y2="390.49"/><line style="stroke:#181818;stroke-width:0.5;stroke-dasharray:5.0,5.0;" x1="588.5" x2="588.5" y1="39.0679" y2="390.49"/><line style="stroke:#181818;stroke-width:0.5;stroke-dasharray:5.0,5.0;" x1="685.5" x2="685.5" y1="39.0679" y2="390.49"/><line style="stroke:#181818;stroke-width:0.5;stroke-dasharray:5.0,5.0;" x1="823.5" x2="823.5" y1="266.338" y2="390.49"/><rect fill="#E2E2F0" height="33.0679" rx="2.5" ry="2.5" style="stroke:#181818;stroke-width:0.5;" width="103" x="116.5" y="5"/><text fill="#000000" font-family="sans-serif" font-size="14" lengthAdjust="spacing" textLength="89" x="123.5" y="26.9659">APIController</text><rect fill="#E2E2F0" height="33.0679" rx="2.5" ry="2.5" style="stroke:#181818;stroke-width:0.5;" width="103" x="116.5" y="389.49"/><text fill="#000000" font-family="sans-serif" font-size="14" lengthAdjust="spacing" textLength="89" x="123.5" y="411.4559">APIController</text><rect fill="#E2E2F0" height="33.0679" rx="2.5" ry="2.5" style="stroke:#181818;stroke-width:0.5;" width="62" x="330" y="5"/><text fill="#000000" font-family="sans-serif" font-size="14" lengthAdjust="spacing" textLength="48" x="337" y="26.9659">Service</text><rect fill="#E2E2F0" height="33.0679" rx="2.5" ry="2.5" style="stroke:#181818;stroke-width:0.5;" width="62" x="330" y="389.49"/><text fill="#000000" font-family="sans-serif" font-size="14" lengthAdjust="spacing" textLength="48" x="337" y="411.4559">Service</text><rect fill="#E2E2F0" height="33.0679" rx="2.5" ry="2.5" style="stroke:#181818;stroke-width:0.5;" width="85" x="546.5" y="5"/><text fill="#000000" font-family="sans-serif" font-size="14" lengthAdjust="spacing" textLength="71" x="553.5" y="26.9659">Repository</text><rect fill="#E2E2F0" height="33.0679" rx="2.5" ry="2.5" style="stroke:#181818;stroke-width:0.5;" width="85" x="546.5" y="389.49"/><text fill="#000000" font-family="sans-serif" font-size="14" lengthAdjust="spacing" textLength="71" x="553.5" y="411.4559">Repository</text><rect fill="#E2E2F0" height="33.0679" rx="2.5" ry="2.5" style="stroke:#181818;stroke-width:0.5;" width="88" x="641.5" y="5"/><text fill="#000000" font-family="sans-serif" font-size="14" lengthAdjust="spacing" textLength="74" x="648.5" y="26.9659">JobMapper</text><rect fill="#E2E2F0" height="33.0679" rx="2.5" ry="2.5" style="stroke:#181818;stroke-width:0.5;" width="88" x="641.5" y="389.49"/><text fill="#000000" font-family="sans-serif" font-size="14" lengthAdjust="spacing" textLength="74" x="648.5" y="411.4559">JobMapper</text><rect fill="#E2E2F0" height="33.0679" rx="2.5" ry="2.5" style="stroke:#181818;stroke-width:0.5;" width="106" x="770.5" y="389.49"/><text fill="#000000" font-family="sans-serif" font-size="14" lengthAdjust="spacing" textLength="92" x="777.5" y="411.4559">jobDto:JobDto</text><rect fill="#FFFFFF" height="299.716" style="stroke:#181818;stroke-width:1.0;" width="10" x="163" y="72.7739"/><rect fill="#FFFFFF" height="236.304" style="stroke:#181818;stroke-width:1.0;" width="10" x="356" y="104.4799"/><rect fill="#FFFFFF" height="31.706" style="stroke:#181818;stroke-width:1.0;" width="10" x="584" y="136.186"/><rect fill="#FFFFFF" height="109.4799" style="stroke:#181818;stroke-width:1.0;" width="10" x="680.5" y="199.598"/><polygon fill="#181818" points="151,68.7739,161,72.7739,151,76.7739,155,72.7739" style="stroke:#181818;stroke-width:1.0;"/><line style="stroke:#181818;stroke-width:1.0;" x1="0" x2="157" y1="72.7739" y2="72.7739"/><text fill="#000000" font-family="sans-serif" font-size="13" font-weight="bold" lengthAdjust="spacing" textLength="7" x="7" y="66.9649">1</text><text fill="#000000" font-family="sans-serif" font-size="13" lengthAdjust="spacing" textLength="133" x="18" y="66.9649">GET /jobs?client=email</text><polygon fill="#181818" points="344,100.4799,354,104.4799,344,108.4799,348,104.4799" style="stroke:#181818;stroke-width:1.0;"/><line style="stroke:#181818;stroke-width:1.0;" x1="173" x2="350" y1="104.4799" y2="104.4799"/><text fill="#000000" font-family="sans-serif" font-size="13" font-weight="bold" lengthAdjust="spacing" textLength="7" x="180" y="98.6709">2</text><text fill="#000000" font-family="sans-serif" font-size="13" lengthAdjust="spacing" textLength="153" x="191" y="98.6709">GetClientJobs(clientEmail)</text><polygon fill="#181818" points="572,132.186,582,136.186,572,140.186,576,136.186" style="stroke:#181818;stroke-width:1.0;"/><line style="stroke:#181818;stroke-width:1.0;" x1="366" x2="578" y1="136.186" y2="136.186"/><text fill="#000000" font-family="sans-serif" font-size="13" font-weight="bold" lengthAdjust="spacing" textLength="7" x="373" y="130.377">3</text><text fill="#000000" font-family="sans-serif" font-size="13" lengthAdjust="spacing" textLength="188" x="384" y="130.377">GetClientJobsAsync(clientEmail)</text><polygon fill="#181818" points="377,163.892,367,167.892,377,171.892,373,167.892" style="stroke:#181818;stroke-width:1.0;"/><line style="stroke:#181818;stroke-width:1.0;stroke-dasharray:2.0,2.0;" x1="371" x2="588" y1="167.892" y2="167.892"/><text fill="#000000" font-family="sans-serif" font-size="13" font-weight="bold" lengthAdjust="spacing" textLength="7" x="383" y="162.083">4</text><text fill="#000000" font-family="sans-serif" font-size="13" lengthAdjust="spacing" textLength="25" x="394" y="162.083">jobs</text><polygon fill="#181818" points="668.5,195.598,678.5,199.598,668.5,203.598,672.5,199.598" style="stroke:#181818;stroke-width:1.0;"/><line style="stroke:#181818;stroke-width:1.0;" x1="366" x2="674.5" y1="199.598" y2="199.598"/><text fill="#000000" font-family="sans-serif" font-size="13" font-weight="bold" lengthAdjust="spacing" textLength="7" x="373" y="193.789">5</text><text fill="#000000" font-family="sans-serif" font-size="13" lengthAdjust="spacing" textLength="72" x="384" y="193.789">toDTO(jobs)</text><path d="M631.5,214.598 L704.5,214.598 L704.5,224.304 L694.5,234.304 L631.5,234.304 L631.5,214.598 " fill="#EEEEEE" style="stroke:#000000;stroke-width:1.5;"/><rect fill="none" height="63.7739" style="stroke:#000000;stroke-width:1.5;" width="255" x="631.5" y="214.598"/><text fill="#000000" font-family="sans-serif" font-size="13" font-weight="bold" lengthAdjust="spacing" textLength="28" x="646.5" y="229.495">loop</text><text fill="#000000" font-family="sans-serif" font-size="11" font-weight="bold" lengthAdjust="spacing" textLength="63" x="719.5" y="228.3569">[job in jobs]</text><polygon fill="#181818" points="758.5,254.01,768.5,258.01,758.5,262.01,762.5,258.01" style="stroke:#181818;stroke-width:1.0;"/><line style="stroke:#181818;stroke-width:1.0;stroke-dasharray:2.0,2.0;" x1="690.5" x2="764.5" y1="258.01" y2="258.01"/><text fill="#000000" font-family="sans-serif" font-size="13" font-weight="bold" lengthAdjust="spacing" textLength="7" x="697.5" y="252.201">6</text><text fill="#000000" font-family="sans-serif" font-size="13" lengthAdjust="spacing" textLength="45" x="708.5" y="252.201">create()</text><rect fill="#E2E2F0" height="33.0679" rx="2.5" ry="2.5" style="stroke:#181818;stroke-width:0.5;" width="106" x="770.5" y="234.304"/><text fill="#000000" font-family="sans-serif" font-size="14" lengthAdjust="spacing" textLength="92" x="777.5" y="256.27">jobDto:JobDto</text><polygon fill="#181818" points="377,305.0779,367,309.0779,377,313.0779,373,309.0779" style="stroke:#181818;stroke-width:1.0;"/><line style="stroke:#181818;stroke-width:1.0;stroke-dasharray:2.0,2.0;" x1="371" x2="684.5" y1="309.0779" y2="309.0779"/><text fill="#000000" font-family="sans-serif" font-size="13" font-weight="bold" lengthAdjust="spacing" textLength="7" x="383" y="303.2689">7</text><text fill="#000000" font-family="sans-serif" font-size="13" lengthAdjust="spacing" textLength="47" x="394" y="303.2689">jobDtos</text><polygon fill="#181818" points="184,336.784,174,340.784,184,344.784,180,340.784" style="stroke:#181818;stroke-width:1.0;"/><line style="stroke:#181818;stroke-width:1.0;stroke-dasharray:2.0,2.0;" x1="178" x2="360" y1="340.784" y2="340.784"/><text fill="#000000" font-family="sans-serif" font-size="13" font-weight="bold" lengthAdjust="spacing" textLength="7" x="190" y="334.975">8</text><text fill="#000000" font-family="sans-serif" font-size="13" lengthAdjust="spacing" textLength="47" x="201" y="334.975">jobDtos</text><polygon fill="#181818" points="11,368.49,1,372.49,11,376.49,7,372.49" style="stroke:#181818;stroke-width:1.0;"/><line style="stroke:#181818;stroke-width:1.0;stroke-dasharray:2.0,2.0;" x1="5" x2="167" y1="372.49" y2="372.49"/><text fill="#000000" font-family="sans-serif" font-size="13" font-weight="bold" lengthAdjust="spacing" textLength="7" x="17" y="366.681">9</text><text fill="#000000" font-family="sans-serif" font-size="13" lengthAdjust="spacing" textLength="71" x="28" y="366.681">200 jobDtos</text><!--SRC=[TP9FQyCm3CNl_HIcfwGGMdOi-qDforXXR6ozzJ0SHmUNn3QE6kYtdwoaNfnjkZIft-_fIOwye3MNfWG_cpdfKIljf44ntxo_RAr1R-iQ_5p8LYZqzKJq2RxJ2lYuxTJaz0ESRJLQVsM1fzU9uc3BL-dSqA3XnrHnjkKExVh0FwmwVrL8FgVYaHE9jNZU7yMIXEsJgZKOV816Qeeg5UfE8lJ91HK315BMm05k6I3tDklPVK1p5aSyJ2Q62YGPX5cc3flsQbHg4x7enKiGesAd8cOAOyJp2b9kcg9V655eTyUtBB3vxvR3MiTDQsjTQ2MqIJlUQd0EkNZVYmLrKHx8ByiJDPXgzWyP9wAh-tEe8Lawri-zZiaHnHzQ-EzqNnGtxTrg5VKZBT_yDm00]--></g></svg>