<?xml version="1.0" encoding="us-ascii" standalone="no"?><svg xmlns="http://www.w3.org/2000/svg" xmlns:xlink="http://www.w3.org/1999/xlink" contentStyleType="text/css" height="1159px" preserveAspectRatio="none" style="width:1154px;height:1159px;background:#FFFFFF;" version="1.1" viewBox="0 0 1154 1159" width="1154px" zoomAndPan="magnify"><defs/><g><rect fill="#FFFFFF" height="1000.338" style="stroke:#181818;stroke-width:1.0;" width="10" x="173" y="91.8419"/><rect fill="#FFFFFF" height="914.926" style="stroke:#181818;stroke-width:1.0;" width="10" x="293" y="123.5479"/><rect fill="#FFFFFF" height="851.5139" style="stroke:#181818;stroke-width:1.0;" width="10" x="434" y="155.2539"/><rect fill="#FFFFFF" height="30" style="stroke:#181818;stroke-width:1.0;" width="10" x="679" y="756.8079"/><rect fill="#FFFFFF" height="31.706" style="stroke:#181818;stroke-width:1.0;" width="10" x="750.5" y="911.926"/><rect fill="#FFFFFF" height="64.706" style="stroke:#181818;stroke-width:1.0;" width="10" x="938" y="189.9599"/><rect fill="#FFFFFF" height="64.706" style="stroke:#181818;stroke-width:1.0;" width="10" x="938" y="289.3719"/><rect fill="#FFFFFF" height="61.706" style="stroke:#181818;stroke-width:1.0;" width="10" x="938" y="524.5899"/><rect fill="#FFFFFF" height="61.706" style="stroke:#181818;stroke-width:1.0;" width="10" x="938" y="818.5139"/><rect fill="#FFFFFF" height="30" style="stroke:#181818;stroke-width:1.0;" width="10" x="1027.5" y="224.6659"/><rect fill="#FFFFFF" height="30" style="stroke:#181818;stroke-width:1.0;" width="10" x="1027.5" y="324.0779"/><rect fill="#FFFFFF" height="30" style="stroke:#181818;stroke-width:1.0;" width="10" x="1027.5" y="556.2959"/><rect fill="#FFFFFF" height="30" style="stroke:#181818;stroke-width:1.0;" width="10" x="1027.5" y="850.2199"/><rect fill="none" height="716.1019" style="stroke:#000000;stroke-width:1.5;" width="1086.5" x="3" y="369.0779"/><rect fill="none" height="476.8839" style="stroke:#000000;stroke-width:1.5;" width="1076.5" x="3" y="601.2959"/><line style="stroke:#181818;stroke-width:0.5;stroke-dasharray:5.0,5.0;" x1="177.5" x2="177.5" y1="58.1358" y2="1102.1798"/><line style="stroke:#181818;stroke-width:0.5;stroke-dasharray:5.0,5.0;" x1="297.5" x2="297.5" y1="58.1358" y2="1102.1798"/><line style="stroke:#181818;stroke-width:0.5;stroke-dasharray:5.0,5.0;" x1="439" x2="439" y1="58.1358" y2="1102.1798"/><line style="stroke:#181818;stroke-width:0.5;stroke-dasharray:5.0,5.0;" x1="684" x2="684" y1="58.1358" y2="1102.1798"/><line style="stroke:#181818;stroke-width:0.5;stroke-dasharray:5.0,5.0;" x1="755" x2="755" y1="58.1358" y2="1102.1798"/><line style="stroke:#181818;stroke-width:0.5;stroke-dasharray:5.0,5.0;" x1="868.5" x2="868.5" y1="961.4939" y2="1102.1798"/><line style="stroke:#181818;stroke-width:0.5;stroke-dasharray:5.0,5.0;" x1="942.5" x2="942.5" y1="58.1358" y2="1102.1798"/><line style="stroke:#181818;stroke-width:0.5;stroke-dasharray:5.0,5.0;" x1="1032.5" x2="1032.5" y1="58.1358" y2="1102.1798"/><rect fill="#E2E2F0" height="33.0679" rx="2.5" ry="2.5" style="stroke:#181818;stroke-width:0.5;" width="53" x="151.5" y="24.0679"/><text fill="#000000" font-family="sans-serif" font-size="14" lengthAdjust="spacing" textLength="39" x="158.5" y="46.0339">Route</text><rect fill="#E2E2F0" height="33.0679" rx="2.5" ry="2.5" style="stroke:#181818;stroke-width:0.5;" width="53" x="151.5" y="1101.1798"/><text fill="#000000" font-family="sans-serif" font-size="14" lengthAdjust="spacing" textLength="39" x="158.5" y="1123.1458">Route</text><rect fill="#E2E2F0" height="33.0679" rx="2.5" ry="2.5" style="stroke:#181818;stroke-width:0.5;" width="81" x="257.5" y="24.0679"/><text fill="#000000" font-family="sans-serif" font-size="14" lengthAdjust="spacing" textLength="67" x="264.5" y="46.0339">Controller</text><rect fill="#E2E2F0" height="33.0679" rx="2.5" ry="2.5" style="stroke:#181818;stroke-width:0.5;" width="81" x="257.5" y="1101.1798"/><text fill="#000000" font-family="sans-serif" font-size="14" lengthAdjust="spacing" textLength="67" x="264.5" y="1123.1458">Controller</text><rect fill="#E2E2F0" height="33.0679" rx="2.5" ry="2.5" style="stroke:#181818;stroke-width:0.5;" width="62" x="408" y="24.0679"/><text fill="#000000" font-family="sans-serif" font-size="14" lengthAdjust="spacing" textLength="48" x="415" y="46.0339">Service</text><rect fill="#E2E2F0" height="33.0679" rx="2.5" ry="2.5" style="stroke:#181818;stroke-width:0.5;" width="62" x="408" y="1101.1798"/><text fill="#000000" font-family="sans-serif" font-size="14" lengthAdjust="spacing" textLength="48" x="415" y="1123.1458">Service</text><rect fill="#E2E2F0" height="33.0679" rx="2.5" ry="2.5" style="stroke:#181818;stroke-width:0.5;" width="56" x="656" y="24.0679"/><text fill="#000000" font-family="sans-serif" font-size="14" lengthAdjust="spacing" textLength="42" x="663" y="46.0339">Model</text><rect fill="#E2E2F0" height="33.0679" rx="2.5" ry="2.5" style="stroke:#181818;stroke-width:0.5;" width="56" x="656" y="1101.1798"/><text fill="#000000" font-family="sans-serif" font-size="14" lengthAdjust="spacing" textLength="42" x="663" y="1123.1458">Model</text><rect fill="#E2E2F0" height="33.0679" rx="2.5" ry="2.5" style="stroke:#181818;stroke-width:0.5;" width="67" x="722" y="24.0679"/><text fill="#000000" font-family="sans-serif" font-size="14" lengthAdjust="spacing" textLength="53" x="729" y="46.0339">Mapper</text><rect fill="#E2E2F0" height="33.0679" rx="2.5" ry="2.5" style="stroke:#181818;stroke-width:0.5;" width="67" x="722" y="1101.1798"/><text fill="#000000" font-family="sans-serif" font-size="14" lengthAdjust="spacing" textLength="53" x="729" y="1123.1458">Mapper</text><rect fill="#E2E2F0" height="52.1358" rx="2.5" ry="2.5" style="stroke:#181818;stroke-width:0.5;" width="43" x="847.5" y="1101.1798"/><text fill="#000000" font-family="sans-serif" font-size="14" lengthAdjust="spacing" textLength="26" x="856" y="1123.1458">dto:</text><text fill="#000000" font-family="sans-serif" font-size="14" lengthAdjust="spacing" textLength="29" x="854.5" y="1142.2137">DTO</text><rect fill="#E2E2F0" height="33.0679" rx="2.5" ry="2.5" style="stroke:#181818;stroke-width:0.5;" width="85" x="900.5" y="24.0679"/><text fill="#000000" font-family="sans-serif" font-size="14" lengthAdjust="spacing" textLength="71" x="907.5" y="46.0339">Repository</text><rect fill="#E2E2F0" height="33.0679" rx="2.5" ry="2.5" style="stroke:#181818;stroke-width:0.5;" width="85" x="900.5" y="1101.1798"/><text fill="#000000" font-family="sans-serif" font-size="14" lengthAdjust="spacing" textLength="71" x="907.5" y="1123.1458">Repository</text><rect fill="#E2E2F0" height="33.0679" rx="2.5" ry="2.5" style="stroke:#181818;stroke-width:0.5;" width="74" x="995.5" y="24.0679"/><text fill="#000000" font-family="sans-serif" font-size="14" lengthAdjust="spacing" textLength="60" x="1002.5" y="46.0339">DBDriver</text><rect fill="#E2E2F0" height="33.0679" rx="2.5" ry="2.5" style="stroke:#181818;stroke-width:0.5;" width="74" x="995.5" y="1101.1798"/><text fill="#000000" font-family="sans-serif" font-size="14" lengthAdjust="spacing" textLength="60" x="1002.5" y="1123.1458">DBDriver</text><rect fill="#FFFFFF" height="1000.338" style="stroke:#181818;stroke-width:1.0;" width="10" x="173" y="91.8419"/><rect fill="#FFFFFF" height="914.926" style="stroke:#181818;stroke-width:1.0;" width="10" x="293" y="123.5479"/><rect fill="#FFFFFF" height="851.5139" style="stroke:#181818;stroke-width:1.0;" width="10" x="434" y="155.2539"/><rect fill="#FFFFFF" height="30" style="stroke:#181818;stroke-width:1.0;" width="10" x="679" y="756.8079"/><rect fill="#FFFFFF" height="31.706" style="stroke:#181818;stroke-width:1.0;" width="10" x="750.5" y="911.926"/><rect fill="#FFFFFF" height="64.706" style="stroke:#181818;stroke-width:1.0;" width="10" x="938" y="189.9599"/><rect fill="#FFFFFF" height="64.706" style="stroke:#181818;stroke-width:1.0;" width="10" x="938" y="289.3719"/><rect fill="#FFFFFF" height="61.706" style="stroke:#181818;stroke-width:1.0;" width="10" x="938" y="524.5899"/><rect fill="#FFFFFF" height="61.706" style="stroke:#181818;stroke-width:1.0;" width="10" x="938" y="818.5139"/><rect fill="#FFFFFF" height="30" style="stroke:#181818;stroke-width:1.0;" width="10" x="1027.5" y="224.6659"/><rect fill="#FFFFFF" height="30" style="stroke:#181818;stroke-width:1.0;" width="10" x="1027.5" y="324.0779"/><rect fill="#FFFFFF" height="30" style="stroke:#181818;stroke-width:1.0;" width="10" x="1027.5" y="556.2959"/><rect fill="#FFFFFF" height="30" style="stroke:#181818;stroke-width:1.0;" width="10" x="1027.5" y="850.2199"/><polygon fill="#181818" points="161,87.8419,171,91.8419,161,95.8419,165,91.8419" style="stroke:#181818;stroke-width:1.0;"/><line style="stroke:#181818;stroke-width:1.0;" x1="0" x2="167" y1="91.8419" y2="91.8419"/><text fill="#000000" font-family="sans-serif" font-size="13" font-weight="bold" lengthAdjust="spacing" textLength="7" x="7" y="86.0328">1</text><text fill="#000000" font-family="sans-serif" font-size="13" lengthAdjust="spacing" textLength="136" x="18" y="86.0328">PATCH|PUT /passages</text><polygon fill="#181818" points="281,119.5479,291,123.5479,281,127.5479,285,123.5479" style="stroke:#181818;stroke-width:1.0;"/><line style="stroke:#181818;stroke-width:1.0;" x1="183" x2="287" y1="123.5479" y2="123.5479"/><text fill="#000000" font-family="sans-serif" font-size="13" font-weight="bold" lengthAdjust="spacing" textLength="7" x="190" y="117.7389">2</text><text fill="#000000" font-family="sans-serif" font-size="13" lengthAdjust="spacing" textLength="80" x="201" y="117.7389">editPassage()</text><polygon fill="#181818" points="422,151.2539,432,155.2539,422,159.2539,426,155.2539" style="stroke:#181818;stroke-width:1.0;"/><line style="stroke:#181818;stroke-width:1.0;" x1="303" x2="428" y1="155.2539" y2="155.2539"/><text fill="#000000" font-family="sans-serif" font-size="13" font-weight="bold" lengthAdjust="spacing" textLength="7" x="310" y="149.4449">3</text><text fill="#000000" font-family="sans-serif" font-size="13" lengthAdjust="spacing" textLength="101" x="321" y="149.4449">editPassage(dto)</text><polygon fill="#181818" points="926,185.9599,936,189.9599,926,193.9599,930,189.9599" style="stroke:#181818;stroke-width:1.0;"/><line style="stroke:#181818;stroke-width:1.0;" x1="444" x2="932" y1="189.9599" y2="189.9599"/><text fill="#000000" font-family="sans-serif" font-size="13" font-weight="bold" lengthAdjust="spacing" textLength="7" x="451" y="184.1509">4</text><text fill="#000000" font-family="sans-serif" font-size="13" lengthAdjust="spacing" textLength="31" x="462" y="184.1509">find()</text><path d="M953,168.2539 L953,195.2539 L1141,195.2539 L1141,178.2539 L1131,168.2539 L953,168.2539 " fill="#FEFFDD" style="stroke:#181818;stroke-width:0.5;"/><path d="M1131,168.2539 L1131,178.2539 L1141,178.2539 L1131,168.2539 " fill="#FEFFDD" style="stroke:#181818;stroke-width:0.5;"/><text fill="#000000" font-family="sans-serif" font-size="13" lengthAdjust="spacing" textLength="167" x="959" y="187.1509">find old building &amp; floor info</text><polygon fill="#181818" points="1015.5,220.6659,1025.5,224.6659,1015.5,228.6659,1019.5,224.6659" style="stroke:#181818;stroke-width:1.0;"/><line style="stroke:#181818;stroke-width:1.0;" x1="948" x2="1021.5" y1="224.6659" y2="224.6659"/><text fill="#000000" font-family="sans-serif" font-size="13" font-weight="bold" lengthAdjust="spacing" textLength="7" x="955" y="218.8569">5</text><text fill="#000000" font-family="sans-serif" font-size="13" lengthAdjust="spacing" textLength="31" x="966" y="218.8569">find()</text><polygon fill="#181818" points="926,285.3719,936,289.3719,926,293.3719,930,289.3719" style="stroke:#181818;stroke-width:1.0;"/><line style="stroke:#181818;stroke-width:1.0;" x1="444" x2="932" y1="289.3719" y2="289.3719"/><text fill="#000000" font-family="sans-serif" font-size="13" font-weight="bold" lengthAdjust="spacing" textLength="7" x="451" y="283.5629">6</text><text fill="#000000" font-family="sans-serif" font-size="13" lengthAdjust="spacing" textLength="31" x="462" y="283.5629">find()</text><path d="M953,267.6659 L953,294.6659 L1147,294.6659 L1147,277.6659 L1137,267.6659 L953,267.6659 " fill="#FEFFDD" style="stroke:#181818;stroke-width:0.5;"/><path d="M1137,267.6659 L1137,277.6659 L1147,277.6659 L1137,267.6659 " fill="#FEFFDD" style="stroke:#181818;stroke-width:0.5;"/><text fill="#000000" font-family="sans-serif" font-size="13" lengthAdjust="spacing" textLength="173" x="959" y="286.5629">find new building &amp; floor info</text><polygon fill="#181818" points="1015.5,320.0779,1025.5,324.0779,1015.5,328.0779,1019.5,324.0779" style="stroke:#181818;stroke-width:1.0;"/><line style="stroke:#181818;stroke-width:1.0;" x1="948" x2="1021.5" y1="324.0779" y2="324.0779"/><text fill="#000000" font-family="sans-serif" font-size="13" font-weight="bold" lengthAdjust="spacing" textLength="7" x="955" y="318.2689">7</text><text fill="#000000" font-family="sans-serif" font-size="13" lengthAdjust="spacing" textLength="31" x="966" y="318.2689">find()</text><path d="M3,369.0779 L66,369.0779 L66,378.784 L56,388.784 L3,388.784 L3,369.0779 " fill="#EEEEEE" style="stroke:#000000;stroke-width:1.5;"/><rect fill="none" height="716.1019" style="stroke:#000000;stroke-width:1.5;" width="1086.5" x="3" y="369.0779"/><text fill="#000000" font-family="sans-serif" font-size="13" font-weight="bold" lengthAdjust="spacing" textLength="18" x="18" y="383.975">alt</text><text fill="#000000" font-family="sans-serif" font-size="11" font-weight="bold" lengthAdjust="spacing" textLength="145" x="81" y="382.8369">[building/floors not found]</text><polygon fill="#181818" points="314,408.49,304,412.49,314,416.49,310,412.49" style="stroke:#181818;stroke-width:1.0;"/><line style="stroke:#181818;stroke-width:1.0;stroke-dasharray:2.0,2.0;" x1="308" x2="433" y1="412.49" y2="412.49"/><text fill="#000000" font-family="sans-serif" font-size="13" font-weight="bold" lengthAdjust="spacing" textLength="7" x="320" y="406.681">8</text><text fill="#000000" font-family="sans-serif" font-size="13" lengthAdjust="spacing" textLength="30" x="331" y="406.681">error</text><polygon fill="#181818" points="194,440.196,184,444.196,194,448.196,190,444.196" style="stroke:#181818;stroke-width:1.0;"/><line style="stroke:#181818;stroke-width:1.0;stroke-dasharray:2.0,2.0;" x1="188" x2="292" y1="444.196" y2="444.196"/><text fill="#000000" font-family="sans-serif" font-size="13" font-weight="bold" lengthAdjust="spacing" textLength="7" x="200" y="438.387">9</text><text fill="#000000" font-family="sans-serif" font-size="13" lengthAdjust="spacing" textLength="62" x="211" y="438.387">error (404)</text><polygon fill="#181818" points="11,471.902,1,475.902,11,479.902,7,475.902" style="stroke:#181818;stroke-width:1.0;"/><line style="stroke:#181818;stroke-width:1.0;" x1="5" x2="172" y1="475.902" y2="475.902"/><text fill="#000000" font-family="sans-serif" font-size="13" font-weight="bold" lengthAdjust="spacing" textLength="14" x="17" y="470.093">10</text><text fill="#000000" font-family="sans-serif" font-size="13" lengthAdjust="spacing" textLength="62" x="35" y="470.093">error (404)</text><line style="stroke:#000000;stroke-width:1.0;stroke-dasharray:2.0,2.0;" x1="3" x2="1089.5" y1="484.902" y2="484.902"/><text fill="#000000" font-family="sans-serif" font-size="11" font-weight="bold" lengthAdjust="spacing" textLength="137" x="8" y="496.6609">[found buildings &amp; floors]</text><polygon fill="#181818" points="926,520.5899,936,524.5899,926,528.5899,930,524.5899" style="stroke:#181818;stroke-width:1.0;"/><line style="stroke:#181818;stroke-width:1.0;" x1="444" x2="932" y1="524.5899" y2="524.5899"/><text fill="#000000" font-family="sans-serif" font-size="13" font-weight="bold" lengthAdjust="spacing" textLength="14" x="451" y="518.7809">11</text><text fill="#000000" font-family="sans-serif" font-size="13" lengthAdjust="spacing" textLength="99" x="469" y="518.7809">find(oldPassage)</text><polygon fill="#181818" points="1015.5,552.2959,1025.5,556.2959,1015.5,560.2959,1019.5,556.2959" style="stroke:#181818;stroke-width:1.0;"/><line style="stroke:#181818;stroke-width:1.0;" x1="948" x2="1021.5" y1="556.2959" y2="556.2959"/><text fill="#000000" font-family="sans-serif" font-size="13" font-weight="bold" lengthAdjust="spacing" textLength="14" x="955" y="550.4869">12</text><text fill="#000000" font-family="sans-serif" font-size="13" lengthAdjust="spacing" textLength="31" x="973" y="550.4869">find()</text><path d="M3,601.2959 L66,601.2959 L66,611.002 L56,621.002 L3,621.002 L3,601.2959 " fill="#EEEEEE" style="stroke:#000000;stroke-width:1.5;"/><rect fill="none" height="476.8839" style="stroke:#000000;stroke-width:1.5;" width="1076.5" x="3" y="601.2959"/><text fill="#000000" font-family="sans-serif" font-size="13" font-weight="bold" lengthAdjust="spacing" textLength="18" x="18" y="616.1929">alt</text><text fill="#000000" font-family="sans-serif" font-size="11" font-weight="bold" lengthAdjust="spacing" textLength="133" x="81" y="615.0548">[passage does not exist]</text><polygon fill="#181818" points="314,640.708,304,644.708,314,648.708,310,644.708" style="stroke:#181818;stroke-width:1.0;"/><line style="stroke:#181818;stroke-width:1.0;stroke-dasharray:2.0,2.0;" x1="308" x2="433" y1="644.708" y2="644.708"/><text fill="#000000" font-family="sans-serif" font-size="13" font-weight="bold" lengthAdjust="spacing" textLength="14" x="320" y="638.899">13</text><text fill="#000000" font-family="sans-serif" font-size="13" lengthAdjust="spacing" textLength="30" x="338" y="638.899">error</text><polygon fill="#181818" points="194,672.414,184,676.414,194,680.414,190,676.414" style="stroke:#181818;stroke-width:1.0;"/><line style="stroke:#181818;stroke-width:1.0;stroke-dasharray:2.0,2.0;" x1="188" x2="292" y1="676.414" y2="676.414"/><text fill="#000000" font-family="sans-serif" font-size="13" font-weight="bold" lengthAdjust="spacing" textLength="14" x="200" y="670.605">14</text><text fill="#000000" font-family="sans-serif" font-size="13" lengthAdjust="spacing" textLength="62" x="218" y="670.605">error (404)</text><polygon fill="#181818" points="11,704.12,1,708.12,11,712.12,7,708.12" style="stroke:#181818;stroke-width:1.0;"/><line style="stroke:#181818;stroke-width:1.0;" x1="5" x2="172" y1="708.12" y2="708.12"/><text fill="#000000" font-family="sans-serif" font-size="13" font-weight="bold" lengthAdjust="spacing" textLength="14" x="17" y="702.311">15</text><text fill="#000000" font-family="sans-serif" font-size="13" lengthAdjust="spacing" textLength="62" x="35" y="702.311">error (404)</text><line style="stroke:#000000;stroke-width:1.0;stroke-dasharray:2.0,2.0;" x1="3" x2="1079.5" y1="717.12" y2="717.12"/><text fill="#000000" font-family="sans-serif" font-size="11" font-weight="bold" lengthAdjust="spacing" textLength="88" x="8" y="728.8789">[passage found]</text><polygon fill="#181818" points="667,752.8079,677,756.8079,667,760.8079,671,756.8079" style="stroke:#181818;stroke-width:1.0;"/><line style="stroke:#181818;stroke-width:1.0;" x1="444" x2="673" y1="756.8079" y2="756.8079"/><text fill="#000000" font-family="sans-serif" font-size="13" font-weight="bold" lengthAdjust="spacing" textLength="14" x="451" y="750.9989">16</text><text fill="#000000" font-family="sans-serif" font-size="13" lengthAdjust="spacing" textLength="198" x="469" y="750.9989">updatePassage(newPassageInfo)</text><polygon fill="#181818" points="926,814.5139,936,818.5139,926,822.5139,930,818.5139" style="stroke:#181818;stroke-width:1.0;"/><line style="stroke:#181818;stroke-width:1.0;" x1="444" x2="932" y1="818.5139" y2="818.5139"/><text fill="#000000" font-family="sans-serif" font-size="13" font-weight="bold" lengthAdjust="spacing" textLength="14" x="451" y="812.7049">17</text><text fill="#000000" font-family="sans-serif" font-size="13" lengthAdjust="spacing" textLength="135" x="469" y="812.7049">save(updatedPassage)</text><polygon fill="#181818" points="1015.5,846.2199,1025.5,850.2199,1015.5,854.2199,1019.5,850.2199" style="stroke:#181818;stroke-width:1.0;"/><line style="stroke:#181818;stroke-width:1.0;" x1="948" x2="1021.5" y1="850.2199" y2="850.2199"/><text fill="#000000" font-family="sans-serif" font-size="13" font-weight="bold" lengthAdjust="spacing" textLength="14" x="955" y="844.4109">18</text><text fill="#000000" font-family="sans-serif" font-size="13" lengthAdjust="spacing" textLength="35" x="973" y="844.4109">save()</text><polygon fill="#181818" points="738.5,907.926,748.5,911.926,738.5,915.926,742.5,911.926" style="stroke:#181818;stroke-width:1.0;"/><line style="stroke:#181818;stroke-width:1.0;" x1="444" x2="744.5" y1="911.926" y2="911.926"/><text fill="#000000" font-family="sans-serif" font-size="13" font-weight="bold" lengthAdjust="spacing" textLength="14" x="451" y="906.117">19</text><text fill="#000000" font-family="sans-serif" font-size="13" lengthAdjust="spacing" textLength="147" x="469" y="906.117">toDTO(updatedPassage)</text><polygon fill="#181818" points="835.5,939.632,845.5,943.632,835.5,947.632,839.5,943.632" style="stroke:#181818;stroke-width:1.0;"/><line style="stroke:#181818;stroke-width:1.0;stroke-dasharray:2.0,2.0;" x1="755.5" x2="841.5" y1="943.632" y2="943.632"/><text fill="#000000" font-family="sans-serif" font-size="13" font-weight="bold" lengthAdjust="spacing" textLength="14" x="762.5" y="937.823">20</text><text fill="#000000" font-family="sans-serif" font-size="13" lengthAdjust="spacing" textLength="45" x="780.5" y="937.823">create()</text><rect fill="#E2E2F0" height="52.1358" rx="2.5" ry="2.5" style="stroke:#181818;stroke-width:0.5;" width="43" x="847.5" y="919.926"/><text fill="#000000" font-family="sans-serif" font-size="14" lengthAdjust="spacing" textLength="26" x="856" y="941.8919">dto:</text><text fill="#000000" font-family="sans-serif" font-size="14" lengthAdjust="spacing" textLength="29" x="854.5" y="960.9598">DTO</text><polygon fill="#181818" points="314,1002.7678,304,1006.7678,314,1010.7678,310,1006.7678" style="stroke:#181818;stroke-width:1.0;"/><line style="stroke:#181818;stroke-width:1.0;stroke-dasharray:2.0,2.0;" x1="308" x2="438" y1="1006.7678" y2="1006.7678"/><text fill="#000000" font-family="sans-serif" font-size="13" font-weight="bold" lengthAdjust="spacing" textLength="14" x="320" y="1000.9588">21</text><text fill="#000000" font-family="sans-serif" font-size="13" lengthAdjust="spacing" textLength="53" x="338" y="1000.9588">dto (200)</text><polygon fill="#181818" points="194,1034.4738,184,1038.4738,194,1042.4738,190,1038.4738" style="stroke:#181818;stroke-width:1.0;"/><line style="stroke:#181818;stroke-width:1.0;stroke-dasharray:2.0,2.0;" x1="188" x2="297" y1="1038.4738" y2="1038.4738"/><text fill="#000000" font-family="sans-serif" font-size="13" font-weight="bold" lengthAdjust="spacing" textLength="14" x="200" y="1032.6648">22</text><text fill="#000000" font-family="sans-serif" font-size="13" lengthAdjust="spacing" textLength="53" x="218" y="1032.6648">dto (200)</text><polygon fill="#181818" points="11,1066.1798,1,1070.1798,11,1074.1798,7,1070.1798" style="stroke:#181818;stroke-width:1.0;"/><line style="stroke:#181818;stroke-width:1.0;stroke-dasharray:2.0,2.0;" x1="5" x2="172" y1="1070.1798" y2="1070.1798"/><text fill="#000000" font-family="sans-serif" font-size="13" font-weight="bold" lengthAdjust="spacing" textLength="14" x="17" y="1064.3708">23</text><text fill="#000000" font-family="sans-serif" font-size="13" lengthAdjust="spacing" textLength="53" x="35" y="1064.3708">dto (200)</text><!--SRC=[rLLDZzCm4BtxLupsWDgLggtGdYg4j6mFS5XHGJaj5pUU5akk7TcJ018_dl57soHD5mGIOdr9edblFjvCnh8XPvlz1hqGjVIaArrBIt3rmJM4Lo03UEfRxfqbxun1dymLUTC7V4JVwYgJGrlrZGzEeKccVNmRH7sGTLtyxjDhtwp8BJxRvVfzGl3NC6ciNT3a_FUSENyE4CitIw_R4a9jX7YSlUOAOG6hk_Nzsn-hJskugMK8SeT125cHRYLX507uC9BniMHceDAqoj39L2Jx4PzKWN8Iddaine369HHcZnrLWyw9n9WdryCEjjeg3jW5M1TprBilLEpWZ89DeutITWSlO6kSyw3jrlLuf_gYL30uAHx7LPlng3qFBERGfl2IjMF9JVhBQYr-VQxLIaF7r6zIuY4M25lNM7KM96dJ6K7ldJy3vNax37R2mEHsVdjUp-EhsTCWD05pAiSamq7WyCksyH2MIP-Avz69ykk3SfZRWDzqeF-Z3OVSycICYfzsAljfQiKr7hOC_ntbzHt_4jFnJkHrV46iigiljpl85YSvwgdbVzZnvEjVRffyrN1aSdot_5uPvNeQ9b9SnQxpReVhwmLK7famAAYhRVOadfYlw6hoSZu_-UZmusKXncUkp-jmqlKaokZDni1ObazyTZKayHC0]--></g></svg>