<?xml version="1.0" encoding="us-ascii" standalone="no"?><svg xmlns="http://www.w3.org/2000/svg" xmlns:xlink="http://www.w3.org/1999/xlink" contentStyleType="text/css" height="1278px" preserveAspectRatio="none" style="width:1180px;height:1278px;background:#FFFFFF;" version="1.1" viewBox="0 0 1180 1278" width="1180px" zoomAndPan="magnify"><defs/><g><rect fill="#FFFFFF" height="1257.3307" style="stroke:#181818;stroke-width:1.5;" width="1169" x="5" y="15"/><path d="M38,15 L38,27.0679 L28,37.0679 L5,37.0679 " fill="none" style="stroke:#181818;stroke-width:1.5;"/><text fill="#000000" font-family="sans-serif" font-size="14" lengthAdjust="spacing" textLength="23" x="8" y="30.9659">MD</text><rect fill="#ADD8E6" height="1198.8859" style="stroke:#181818;stroke-width:0.5;" width="842" x="157.5" y="47.3769"/><text fill="#000000" font-family="sans-serif" font-size="13" font-weight="bold" lengthAdjust="spacing" textLength="60" x="548.5" y="61.2739">Back-End</text><rect fill="#DDDDDD" height="1198.8859" style="stroke:#181818;stroke-width:0.5;" width="68" x="1013" y="47.3769"/><text fill="#000000" font-family="sans-serif" font-size="13" font-weight="bold" lengthAdjust="spacing" textLength="62" x="1016" y="61.2739">Database</text><rect fill="#FFFFFF" height="1000.338" style="stroke:#181818;stroke-width:1.0;" width="10" x="183" y="167.8569"/><rect fill="#FFFFFF" height="914.926" style="stroke:#181818;stroke-width:1.0;" width="10" x="303" y="199.5629"/><rect fill="#FFFFFF" height="851.5139" style="stroke:#181818;stroke-width:1.0;" width="10" x="444" y="231.2689"/><rect fill="#FFFFFF" height="30" style="stroke:#181818;stroke-width:1.0;" width="10" x="689" y="832.8229"/><rect fill="#FFFFFF" height="31.706" style="stroke:#181818;stroke-width:1.0;" width="10" x="760.5" y="987.941"/><rect fill="#FFFFFF" height="64.706" style="stroke:#181818;stroke-width:1.0;" width="10" x="948" y="265.9749"/><rect fill="#FFFFFF" height="64.706" style="stroke:#181818;stroke-width:1.0;" width="10" x="948" y="365.387"/><rect fill="#FFFFFF" height="61.706" style="stroke:#181818;stroke-width:1.0;" width="10" x="948" y="600.6049"/><rect fill="#FFFFFF" height="61.706" style="stroke:#181818;stroke-width:1.0;" width="10" x="948" y="894.5289"/><rect fill="#FFFFFF" height="30" style="stroke:#181818;stroke-width:1.0;" width="10" x="1042" y="300.6809"/><rect fill="#FFFFFF" height="30" style="stroke:#181818;stroke-width:1.0;" width="10" x="1042" y="400.093"/><rect fill="#FFFFFF" height="30" style="stroke:#181818;stroke-width:1.0;" width="10" x="1042" y="632.311"/><rect fill="#FFFFFF" height="30" style="stroke:#181818;stroke-width:1.0;" width="10" x="1042" y="926.235"/><rect fill="none" height="716.1019" style="stroke:#000000;stroke-width:1.5;" width="1072" x="13" y="445.093"/><rect fill="none" height="476.8839" style="stroke:#000000;stroke-width:1.5;" width="1062" x="13" y="677.311"/><line style="stroke:#181818;stroke-width:0.5;stroke-dasharray:5.0,5.0;" x1="187.5" x2="187.5" y1="134.1509" y2="1178.1949"/><line style="stroke:#181818;stroke-width:0.5;stroke-dasharray:5.0,5.0;" x1="307.5" x2="307.5" y1="134.1509" y2="1178.1949"/><line style="stroke:#181818;stroke-width:0.5;stroke-dasharray:5.0,5.0;" x1="449" x2="449" y1="134.1509" y2="1178.1949"/><line style="stroke:#181818;stroke-width:0.5;stroke-dasharray:5.0,5.0;" x1="694" x2="694" y1="134.1509" y2="1178.1949"/><line style="stroke:#181818;stroke-width:0.5;stroke-dasharray:5.0,5.0;" x1="765" x2="765" y1="134.1509" y2="1178.1949"/><line style="stroke:#181818;stroke-width:0.5;stroke-dasharray:5.0,5.0;" x1="878.5" x2="878.5" y1="1037.5089" y2="1178.1949"/><line style="stroke:#181818;stroke-width:0.5;stroke-dasharray:5.0,5.0;" x1="952.5" x2="952.5" y1="134.1509" y2="1178.1949"/><line style="stroke:#181818;stroke-width:0.5;stroke-dasharray:5.0,5.0;" x1="1047" x2="1047" y1="134.1509" y2="1178.1949"/><rect fill="#E2E2F0" height="33.0679" rx="2.5" ry="2.5" style="stroke:#181818;stroke-width:0.5;" width="53" x="161.5" y="100.0829"/><text fill="#000000" font-family="sans-serif" font-size="14" lengthAdjust="spacing" textLength="39" x="168.5" y="122.0489">Route</text><rect fill="#E2E2F0" height="33.0679" rx="2.5" ry="2.5" style="stroke:#181818;stroke-width:0.5;" width="53" x="161.5" y="1177.1949"/><text fill="#000000" font-family="sans-serif" font-size="14" lengthAdjust="spacing" textLength="39" x="168.5" y="1199.1608">Route</text><rect fill="#E2E2F0" height="33.0679" rx="2.5" ry="2.5" style="stroke:#181818;stroke-width:0.5;" width="81" x="267.5" y="100.0829"/><text fill="#000000" font-family="sans-serif" font-size="14" lengthAdjust="spacing" textLength="67" x="274.5" y="122.0489">Controller</text><rect fill="#E2E2F0" height="33.0679" rx="2.5" ry="2.5" style="stroke:#181818;stroke-width:0.5;" width="81" x="267.5" y="1177.1949"/><text fill="#000000" font-family="sans-serif" font-size="14" lengthAdjust="spacing" textLength="67" x="274.5" y="1199.1608">Controller</text><rect fill="#E2E2F0" height="33.0679" rx="2.5" ry="2.5" style="stroke:#181818;stroke-width:0.5;" width="62" x="418" y="100.0829"/><text fill="#000000" font-family="sans-serif" font-size="14" lengthAdjust="spacing" textLength="48" x="425" y="122.0489">Service</text><rect fill="#E2E2F0" height="33.0679" rx="2.5" ry="2.5" style="stroke:#181818;stroke-width:0.5;" width="62" x="418" y="1177.1949"/><text fill="#000000" font-family="sans-serif" font-size="14" lengthAdjust="spacing" textLength="48" x="425" y="1199.1608">Service</text><rect fill="#E2E2F0" height="33.0679" rx="2.5" ry="2.5" style="stroke:#181818;stroke-width:0.5;" width="56" x="666" y="100.0829"/><text fill="#000000" font-family="sans-serif" font-size="14" lengthAdjust="spacing" textLength="42" x="673" y="122.0489">Model</text><rect fill="#E2E2F0" height="33.0679" rx="2.5" ry="2.5" style="stroke:#181818;stroke-width:0.5;" width="56" x="666" y="1177.1949"/><text fill="#000000" font-family="sans-serif" font-size="14" lengthAdjust="spacing" textLength="42" x="673" y="1199.1608">Model</text><rect fill="#E2E2F0" height="33.0679" rx="2.5" ry="2.5" style="stroke:#181818;stroke-width:0.5;" width="67" x="732" y="100.0829"/><text fill="#000000" font-family="sans-serif" font-size="14" lengthAdjust="spacing" textLength="53" x="739" y="122.0489">Mapper</text><rect fill="#E2E2F0" height="33.0679" rx="2.5" ry="2.5" style="stroke:#181818;stroke-width:0.5;" width="67" x="732" y="1177.1949"/><text fill="#000000" font-family="sans-serif" font-size="14" lengthAdjust="spacing" textLength="53" x="739" y="1199.1608">Mapper</text><rect fill="#E2E2F0" height="52.1358" rx="2.5" ry="2.5" style="stroke:#181818;stroke-width:0.5;" width="43" x="857.5" y="1177.1949"/><text fill="#000000" font-family="sans-serif" font-size="14" lengthAdjust="spacing" textLength="26" x="866" y="1199.1608">dto:</text><text fill="#000000" font-family="sans-serif" font-size="14" lengthAdjust="spacing" textLength="29" x="864.5" y="1218.2287">DTO</text><rect fill="#E2E2F0" height="33.0679" rx="2.5" ry="2.5" style="stroke:#181818;stroke-width:0.5;" width="85" x="910.5" y="100.0829"/><text fill="#000000" font-family="sans-serif" font-size="14" lengthAdjust="spacing" textLength="71" x="917.5" y="122.0489">Repository</text><rect fill="#E2E2F0" height="33.0679" rx="2.5" ry="2.5" style="stroke:#181818;stroke-width:0.5;" width="85" x="910.5" y="1177.1949"/><text fill="#000000" font-family="sans-serif" font-size="14" lengthAdjust="spacing" textLength="71" x="917.5" y="1199.1608">Repository</text><text fill="#000000" font-family="sans-serif" font-size="14" lengthAdjust="spacing" textLength="19" x="1034.5" y="130.0489">DB</text><path d="M1029,79.0829 C1029,69.0829 1047,69.0829 1047,69.0829 C1047,69.0829 1065,69.0829 1065,79.0829 L1065,105.0829 C1065,115.0829 1047,115.0829 1047,115.0829 C1047,115.0829 1029,115.0829 1029,105.0829 L1029,79.0829 " fill="#E2E2F0" style="stroke:#181818;stroke-width:1.5;"/><path d="M1029,79.0829 C1029,89.0829 1047,89.0829 1047,89.0829 C1047,89.0829 1065,89.0829 1065,79.0829 " fill="none" style="stroke:#181818;stroke-width:1.5;"/><text fill="#000000" font-family="sans-serif" font-size="14" lengthAdjust="spacing" textLength="19" x="1034.5" y="1192.1608">DB</text><path d="M1029,1206.2628 C1029,1196.2628 1047,1196.2628 1047,1196.2628 C1047,1196.2628 1065,1196.2628 1065,1206.2628 L1065,1232.2628 C1065,1242.2628 1047,1242.2628 1047,1242.2628 C1047,1242.2628 1029,1242.2628 1029,1232.2628 L1029,1206.2628 " fill="#E2E2F0" style="stroke:#181818;stroke-width:1.5;"/><path d="M1029,1206.2628 C1029,1216.2628 1047,1216.2628 1047,1216.2628 C1047,1216.2628 1065,1216.2628 1065,1206.2628 " fill="none" style="stroke:#181818;stroke-width:1.5;"/><rect fill="#FFFFFF" height="1000.338" style="stroke:#181818;stroke-width:1.0;" width="10" x="183" y="167.8569"/><rect fill="#FFFFFF" height="914.926" style="stroke:#181818;stroke-width:1.0;" width="10" x="303" y="199.5629"/><rect fill="#FFFFFF" height="851.5139" style="stroke:#181818;stroke-width:1.0;" width="10" x="444" y="231.2689"/><rect fill="#FFFFFF" height="30" style="stroke:#181818;stroke-width:1.0;" width="10" x="689" y="832.8229"/><rect fill="#FFFFFF" height="31.706" style="stroke:#181818;stroke-width:1.0;" width="10" x="760.5" y="987.941"/><rect fill="#FFFFFF" height="64.706" style="stroke:#181818;stroke-width:1.0;" width="10" x="948" y="265.9749"/><rect fill="#FFFFFF" height="64.706" style="stroke:#181818;stroke-width:1.0;" width="10" x="948" y="365.387"/><rect fill="#FFFFFF" height="61.706" style="stroke:#181818;stroke-width:1.0;" width="10" x="948" y="600.6049"/><rect fill="#FFFFFF" height="61.706" style="stroke:#181818;stroke-width:1.0;" width="10" x="948" y="894.5289"/><rect fill="#FFFFFF" height="30" style="stroke:#181818;stroke-width:1.0;" width="10" x="1042" y="300.6809"/><rect fill="#FFFFFF" height="30" style="stroke:#181818;stroke-width:1.0;" width="10" x="1042" y="400.093"/><rect fill="#FFFFFF" height="30" style="stroke:#181818;stroke-width:1.0;" width="10" x="1042" y="632.311"/><rect fill="#FFFFFF" height="30" style="stroke:#181818;stroke-width:1.0;" width="10" x="1042" y="926.235"/><polygon fill="#181818" points="171,163.8569,181,167.8569,171,171.8569,175,167.8569" style="stroke:#181818;stroke-width:1.0;"/><line style="stroke:#181818;stroke-width:1.0;" x1="10" x2="177" y1="167.8569" y2="167.8569"/><text fill="#000000" font-family="sans-serif" font-size="13" font-weight="bold" lengthAdjust="spacing" textLength="7" x="17" y="162.0479">1</text><text fill="#000000" font-family="sans-serif" font-size="13" lengthAdjust="spacing" textLength="136" x="28" y="162.0479">PATCH|PUT /passages</text><polygon fill="#181818" points="291,195.5629,301,199.5629,291,203.5629,295,199.5629" style="stroke:#181818;stroke-width:1.0;"/><line style="stroke:#181818;stroke-width:1.0;" x1="193" x2="297" y1="199.5629" y2="199.5629"/><text fill="#000000" font-family="sans-serif" font-size="13" font-weight="bold" lengthAdjust="spacing" textLength="7" x="200" y="193.7539">2</text><text fill="#000000" font-family="sans-serif" font-size="13" lengthAdjust="spacing" textLength="80" x="211" y="193.7539">editPassage()</text><polygon fill="#181818" points="432,227.2689,442,231.2689,432,235.2689,436,231.2689" style="stroke:#181818;stroke-width:1.0;"/><line style="stroke:#181818;stroke-width:1.0;" x1="313" x2="438" y1="231.2689" y2="231.2689"/><text fill="#000000" font-family="sans-serif" font-size="13" font-weight="bold" lengthAdjust="spacing" textLength="7" x="320" y="225.4599">3</text><text fill="#000000" font-family="sans-serif" font-size="13" lengthAdjust="spacing" textLength="101" x="331" y="225.4599">editPassage(dto)</text><polygon fill="#181818" points="936,261.9749,946,265.9749,936,269.9749,940,265.9749" style="stroke:#181818;stroke-width:1.0;"/><line style="stroke:#181818;stroke-width:1.0;" x1="454" x2="942" y1="265.9749" y2="265.9749"/><text fill="#000000" font-family="sans-serif" font-size="13" font-weight="bold" lengthAdjust="spacing" textLength="7" x="461" y="260.1659">4</text><text fill="#000000" font-family="sans-serif" font-size="13" lengthAdjust="spacing" textLength="31" x="472" y="260.1659">find()</text><path d="M963,244.2689 L963,271.2689 L1151,271.2689 L1151,254.2689 L1141,244.2689 L963,244.2689 " fill="#FEFFDD" style="stroke:#181818;stroke-width:0.5;"/><path d="M1141,244.2689 L1141,254.2689 L1151,254.2689 L1141,244.2689 " fill="#FEFFDD" style="stroke:#181818;stroke-width:0.5;"/><text fill="#000000" font-family="sans-serif" font-size="13" lengthAdjust="spacing" textLength="167" x="969" y="263.1659">find old building &amp; floor info</text><polygon fill="#181818" points="1030,296.6809,1040,300.6809,1030,304.6809,1034,300.6809" style="stroke:#181818;stroke-width:1.0;"/><line style="stroke:#181818;stroke-width:1.0;" x1="958" x2="1036" y1="300.6809" y2="300.6809"/><text fill="#000000" font-family="sans-serif" font-size="13" font-weight="bold" lengthAdjust="spacing" textLength="7" x="965" y="294.8719">5</text><text fill="#000000" font-family="sans-serif" font-size="13" lengthAdjust="spacing" textLength="31" x="976" y="294.8719">find()</text><polygon fill="#181818" points="936,361.387,946,365.387,936,369.387,940,365.387" style="stroke:#181818;stroke-width:1.0;"/><line style="stroke:#181818;stroke-width:1.0;" x1="454" x2="942" y1="365.387" y2="365.387"/><text fill="#000000" font-family="sans-serif" font-size="13" font-weight="bold" lengthAdjust="spacing" textLength="7" x="461" y="359.5779">6</text><text fill="#000000" font-family="sans-serif" font-size="13" lengthAdjust="spacing" textLength="31" x="472" y="359.5779">find()</text><path d="M963,343.6809 L963,370.6809 L1157,370.6809 L1157,353.6809 L1147,343.6809 L963,343.6809 " fill="#FEFFDD" style="stroke:#181818;stroke-width:0.5;"/><path d="M1147,343.6809 L1147,353.6809 L1157,353.6809 L1147,343.6809 " fill="#FEFFDD" style="stroke:#181818;stroke-width:0.5;"/><text fill="#000000" font-family="sans-serif" font-size="13" lengthAdjust="spacing" textLength="173" x="969" y="362.5779">find new building &amp; floor info</text><polygon fill="#181818" points="1030,396.093,1040,400.093,1030,404.093,1034,400.093" style="stroke:#181818;stroke-width:1.0;"/><line style="stroke:#181818;stroke-width:1.0;" x1="958" x2="1036" y1="400.093" y2="400.093"/><text fill="#000000" font-family="sans-serif" font-size="13" font-weight="bold" lengthAdjust="spacing" textLength="7" x="965" y="394.284">7</text><text fill="#000000" font-family="sans-serif" font-size="13" lengthAdjust="spacing" textLength="31" x="976" y="394.284">find()</text><path d="M13,445.093 L76,445.093 L76,454.799 L66,464.799 L13,464.799 L13,445.093 " fill="#EEEEEE" style="stroke:#000000;stroke-width:1.5;"/><rect fill="none" height="716.1019" style="stroke:#000000;stroke-width:1.5;" width="1072" x="13" y="445.093"/><text fill="#000000" font-family="sans-serif" font-size="13" font-weight="bold" lengthAdjust="spacing" textLength="18" x="28" y="459.99">alt</text><text fill="#000000" font-family="sans-serif" font-size="11" font-weight="bold" lengthAdjust="spacing" textLength="145" x="91" y="458.8519">[building/floors not found]</text><polygon fill="#181818" points="324,484.505,314,488.505,324,492.505,320,488.505" style="stroke:#181818;stroke-width:1.0;"/><line style="stroke:#181818;stroke-width:1.0;stroke-dasharray:2.0,2.0;" x1="318" x2="443" y1="488.505" y2="488.505"/><text fill="#000000" font-family="sans-serif" font-size="13" font-weight="bold" lengthAdjust="spacing" textLength="7" x="330" y="482.696">8</text><text fill="#000000" font-family="sans-serif" font-size="13" lengthAdjust="spacing" textLength="30" x="341" y="482.696">error</text><polygon fill="#181818" points="204,516.211,194,520.211,204,524.211,200,520.211" style="stroke:#181818;stroke-width:1.0;"/><line style="stroke:#181818;stroke-width:1.0;stroke-dasharray:2.0,2.0;" x1="198" x2="302" y1="520.211" y2="520.211"/><text fill="#000000" font-family="sans-serif" font-size="13" font-weight="bold" lengthAdjust="spacing" textLength="7" x="210" y="514.402">9</text><text fill="#000000" font-family="sans-serif" font-size="13" lengthAdjust="spacing" textLength="62" x="221" y="514.402">error (404)</text><polygon fill="#181818" points="21,547.917,11,551.917,21,555.917,17,551.917" style="stroke:#181818;stroke-width:1.0;"/><line style="stroke:#181818;stroke-width:1.0;" x1="15" x2="182" y1="551.917" y2="551.917"/><text fill="#000000" font-family="sans-serif" font-size="13" font-weight="bold" lengthAdjust="spacing" textLength="14" x="27" y="546.108">10</text><text fill="#000000" font-family="sans-serif" font-size="13" lengthAdjust="spacing" textLength="62" x="45" y="546.108">error (404)</text><line style="stroke:#000000;stroke-width:1.0;stroke-dasharray:2.0,2.0;" x1="13" x2="1085" y1="560.917" y2="560.917"/><text fill="#000000" font-family="sans-serif" font-size="11" font-weight="bold" lengthAdjust="spacing" textLength="137" x="18" y="572.6759">[found buildings &amp; floors]</text><polygon fill="#181818" points="936,596.6049,946,600.6049,936,604.6049,940,600.6049" style="stroke:#181818;stroke-width:1.0;"/><line style="stroke:#181818;stroke-width:1.0;" x1="454" x2="942" y1="600.6049" y2="600.6049"/><text fill="#000000" font-family="sans-serif" font-size="13" font-weight="bold" lengthAdjust="spacing" textLength="14" x="461" y="594.7959">11</text><text fill="#000000" font-family="sans-serif" font-size="13" lengthAdjust="spacing" textLength="99" x="479" y="594.7959">find(oldPassage)</text><polygon fill="#181818" points="1030,628.311,1040,632.311,1030,636.311,1034,632.311" style="stroke:#181818;stroke-width:1.0;"/><line style="stroke:#181818;stroke-width:1.0;" x1="958" x2="1036" y1="632.311" y2="632.311"/><text fill="#000000" font-family="sans-serif" font-size="13" font-weight="bold" lengthAdjust="spacing" textLength="14" x="965" y="626.502">12</text><text fill="#000000" font-family="sans-serif" font-size="13" lengthAdjust="spacing" textLength="31" x="983" y="626.502">find()</text><path d="M13,677.311 L76,677.311 L76,687.017 L66,697.017 L13,697.017 L13,677.311 " fill="#EEEEEE" style="stroke:#000000;stroke-width:1.5;"/><rect fill="none" height="476.8839" style="stroke:#000000;stroke-width:1.5;" width="1062" x="13" y="677.311"/><text fill="#000000" font-family="sans-serif" font-size="13" font-weight="bold" lengthAdjust="spacing" textLength="18" x="28" y="692.208">alt</text><text fill="#000000" font-family="sans-serif" font-size="11" font-weight="bold" lengthAdjust="spacing" textLength="133" x="91" y="691.0699">[passage does not exist]</text><polygon fill="#181818" points="324,716.723,314,720.723,324,724.723,320,720.723" style="stroke:#181818;stroke-width:1.0;"/><line style="stroke:#181818;stroke-width:1.0;stroke-dasharray:2.0,2.0;" x1="318" x2="443" y1="720.723" y2="720.723"/><text fill="#000000" font-family="sans-serif" font-size="13" font-weight="bold" lengthAdjust="spacing" textLength="14" x="330" y="714.914">13</text><text fill="#000000" font-family="sans-serif" font-size="13" lengthAdjust="spacing" textLength="30" x="348" y="714.914">error</text><polygon fill="#181818" points="204,748.429,194,752.429,204,756.429,200,752.429" style="stroke:#181818;stroke-width:1.0;"/><line style="stroke:#181818;stroke-width:1.0;stroke-dasharray:2.0,2.0;" x1="198" x2="302" y1="752.429" y2="752.429"/><text fill="#000000" font-family="sans-serif" font-size="13" font-weight="bold" lengthAdjust="spacing" textLength="14" x="210" y="746.62">14</text><text fill="#000000" font-family="sans-serif" font-size="13" lengthAdjust="spacing" textLength="62" x="228" y="746.62">error (404)</text><polygon fill="#181818" points="21,780.135,11,784.135,21,788.135,17,784.135" style="stroke:#181818;stroke-width:1.0;"/><line style="stroke:#181818;stroke-width:1.0;" x1="15" x2="182" y1="784.135" y2="784.135"/><text fill="#000000" font-family="sans-serif" font-size="13" font-weight="bold" lengthAdjust="spacing" textLength="14" x="27" y="778.326">15</text><text fill="#000000" font-family="sans-serif" font-size="13" lengthAdjust="spacing" textLength="62" x="45" y="778.326">error (404)</text><line style="stroke:#000000;stroke-width:1.0;stroke-dasharray:2.0,2.0;" x1="13" x2="1075" y1="793.135" y2="793.135"/><text fill="#000000" font-family="sans-serif" font-size="11" font-weight="bold" lengthAdjust="spacing" textLength="88" x="18" y="804.8939">[passage found]</text><polygon fill="#181818" points="677,828.8229,687,832.8229,677,836.8229,681,832.8229" style="stroke:#181818;stroke-width:1.0;"/><line style="stroke:#181818;stroke-width:1.0;" x1="454" x2="683" y1="832.8229" y2="832.8229"/><text fill="#000000" font-family="sans-serif" font-size="13" font-weight="bold" lengthAdjust="spacing" textLength="14" x="461" y="827.0139">16</text><text fill="#000000" font-family="sans-serif" font-size="13" lengthAdjust="spacing" textLength="198" x="479" y="827.0139">updatePassage(newPassageInfo)</text><polygon fill="#181818" points="936,890.5289,946,894.5289,936,898.5289,940,894.5289" style="stroke:#181818;stroke-width:1.0;"/><line style="stroke:#181818;stroke-width:1.0;" x1="454" x2="942" y1="894.5289" y2="894.5289"/><text fill="#000000" font-family="sans-serif" font-size="13" font-weight="bold" lengthAdjust="spacing" textLength="14" x="461" y="888.7199">17</text><text fill="#000000" font-family="sans-serif" font-size="13" lengthAdjust="spacing" textLength="135" x="479" y="888.7199">save(updatedPassage)</text><polygon fill="#181818" points="1030,922.235,1040,926.235,1030,930.235,1034,926.235" style="stroke:#181818;stroke-width:1.0;"/><line style="stroke:#181818;stroke-width:1.0;" x1="958" x2="1036" y1="926.235" y2="926.235"/><text fill="#000000" font-family="sans-serif" font-size="13" font-weight="bold" lengthAdjust="spacing" textLength="14" x="965" y="920.426">18</text><text fill="#000000" font-family="sans-serif" font-size="13" lengthAdjust="spacing" textLength="35" x="983" y="920.426">save()</text><polygon fill="#181818" points="748.5,983.941,758.5,987.941,748.5,991.941,752.5,987.941" style="stroke:#181818;stroke-width:1.0;"/><line style="stroke:#181818;stroke-width:1.0;" x1="454" x2="754.5" y1="987.941" y2="987.941"/><text fill="#000000" font-family="sans-serif" font-size="13" font-weight="bold" lengthAdjust="spacing" textLength="14" x="461" y="982.132">19</text><text fill="#000000" font-family="sans-serif" font-size="13" lengthAdjust="spacing" textLength="147" x="479" y="982.132">toDTO(updatedPassage)</text><polygon fill="#181818" points="845.5,1015.647,855.5,1019.647,845.5,1023.647,849.5,1019.647" style="stroke:#181818;stroke-width:1.0;"/><line style="stroke:#181818;stroke-width:1.0;stroke-dasharray:2.0,2.0;" x1="765.5" x2="851.5" y1="1019.647" y2="1019.647"/><text fill="#000000" font-family="sans-serif" font-size="13" font-weight="bold" lengthAdjust="spacing" textLength="14" x="772.5" y="1013.838">20</text><text fill="#000000" font-family="sans-serif" font-size="13" lengthAdjust="spacing" textLength="45" x="790.5" y="1013.838">create()</text><rect fill="#E2E2F0" height="52.1358" rx="2.5" ry="2.5" style="stroke:#181818;stroke-width:0.5;" width="43" x="857.5" y="995.941"/><text fill="#000000" font-family="sans-serif" font-size="14" lengthAdjust="spacing" textLength="26" x="866" y="1017.9069">dto:</text><text fill="#000000" font-family="sans-serif" font-size="14" lengthAdjust="spacing" textLength="29" x="864.5" y="1036.9748">DTO</text><polygon fill="#181818" points="324,1078.7828,314,1082.7828,324,1086.7828,320,1082.7828" style="stroke:#181818;stroke-width:1.0;"/><line style="stroke:#181818;stroke-width:1.0;stroke-dasharray:2.0,2.0;" x1="318" x2="448" y1="1082.7828" y2="1082.7828"/><text fill="#000000" font-family="sans-serif" font-size="13" font-weight="bold" lengthAdjust="spacing" textLength="14" x="330" y="1076.9738">21</text><text fill="#000000" font-family="sans-serif" font-size="13" lengthAdjust="spacing" textLength="53" x="348" y="1076.9738">dto (200)</text><polygon fill="#181818" points="204,1110.4888,194,1114.4888,204,1118.4888,200,1114.4888" style="stroke:#181818;stroke-width:1.0;"/><line style="stroke:#181818;stroke-width:1.0;stroke-dasharray:2.0,2.0;" x1="198" x2="307" y1="1114.4888" y2="1114.4888"/><text fill="#000000" font-family="sans-serif" font-size="13" font-weight="bold" lengthAdjust="spacing" textLength="14" x="210" y="1108.6798">22</text><text fill="#000000" font-family="sans-serif" font-size="13" lengthAdjust="spacing" textLength="53" x="228" y="1108.6798">dto (200)</text><polygon fill="#181818" points="21,1142.1949,11,1146.1949,21,1150.1949,17,1146.1949" style="stroke:#181818;stroke-width:1.0;"/><line style="stroke:#181818;stroke-width:1.0;stroke-dasharray:2.0,2.0;" x1="15" x2="182" y1="1146.1949" y2="1146.1949"/><text fill="#000000" font-family="sans-serif" font-size="13" font-weight="bold" lengthAdjust="spacing" textLength="14" x="27" y="1140.3859">23</text><text fill="#000000" font-family="sans-serif" font-size="13" lengthAdjust="spacing" textLength="53" x="45" y="1140.3859">dto (200)</text><!--SRC=[rLLTYnCn57tFhxYC8Er2sIBxL4ImMq71nRBMf_KbCxcjmPbaI39r1N-yDn_JfftPLHJ4pKidpJdtuzoR6zuvhRgcHCDOmwNQ6juWtAmOA_Kz54jUVPszKQA0P-_bxejRrXqoeDLousGbMwuS5BUwSrW0js3SyFHQAsTqNQC9aCgPUWZwY6OlgsZ4xgiXu4OBhCDnux_O28AtRVBHXCyXH3Yz-AnMcmy1HRiHCxVOQYkTDjzZHhHbg0IG7acK5NUyv1QBG1PfH_ylezdoYB-RlI9DO07hrvlhjp_MdpPmsN9h-GujOxnoSiyTzh8Hal1U86AWa6uTePDfZFE0FsZeLy0JZsGxer62YNd2xlNjboVwE2bJCh2LIf337A2qZz7NFvs3hYd1JjP2gXqyXssjjG7g7dt2E-RdHOIp5VoHNr6EUpsnGAAUdmbyw3Gx2Px_Dbk5tvvgjhnsXz0lG-3M9mXRtIanS1AqoLhG66q6eDXlVMC734okvbV3VEvUpXu7OKtt9eHo2DBs0jjVbesQC7Nwb3sDIgIh3q9ZB0FUI-l-ZpBqiSNE61K_J5woqxKqzB2VCdGxqkSxkXBJyKh4eVs0MDb47o-tvNkSHA_7alzXnOEjVpbfucD4dfscb-VtqiWUi7mbKxxgDDlXuc81bK4Yd2MKQnijiKVwovkQl9ZFZpOoldyis7ZFdV8oJdYUM6gzsHWOq_3nlxc6Zlq4]--></g></svg>