<?xml version="1.0" encoding="us-ascii" standalone="no"?><svg xmlns="http://www.w3.org/2000/svg" xmlns:xlink="http://www.w3.org/1999/xlink" contentStyleType="text/css" height="677px" preserveAspectRatio="none" style="width:1953px;height:677px;background:#FFFFFF;" version="1.1" viewBox="0 0 1953 677" width="1953px" zoomAndPan="magnify"><defs/><g><!--cluster system--><g id="cluster_system"><path d="M8.5,6 L61.5,6 A3.75,3.75 0 0 1 64,8.5 L71,28.4883 L1943.5,28.4883 A2.5,2.5 0 0 1 1946,30.9883 L1946,668.41 A2.5,2.5 0 0 1 1943.5,670.91 L8.5,670.91 A2.5,2.5 0 0 1 6,668.41 L6,8.5 A2.5,2.5 0 0 1 8.5,6 " fill="none" style="stroke:#000000;stroke-width:1.5;"/><line style="stroke:#000000;stroke-width:1.5;" x1="6" x2="71" y1="28.4883" y2="28.4883"/><text fill="#000000" font-family="sans-serif" font-size="14" font-weight="bold" lengthAdjust="spacing" textLength="52" x="10" y="21.5352">system</text></g><!--cluster Infrastructure--><g id="cluster_Infrastructure"><path d="M971.5,49 L1071.5,49 A3.75,3.75 0 0 1 1074,51.5 L1081,71.4883 L1832.5,71.4883 A2.5,2.5 0 0 1 1835,73.9883 L1835,150.48 A2.5,2.5 0 0 1 1832.5,152.98 L971.5,152.98 A2.5,2.5 0 0 1 969,150.48 L969,51.5 A2.5,2.5 0 0 1 971.5,49 " fill="none" style="stroke:#000000;stroke-width:1.5;"/><line style="stroke:#000000;stroke-width:1.5;" x1="969" x2="1081" y1="71.4883" y2="71.4883"/><text fill="#000000" font-family="sans-serif" font-size="14" font-weight="bold" lengthAdjust="spacing" textLength="99" x="973" y="64.5352">Infrastructure</text></g><!--cluster Interface Adapters--><g id="cluster_Interface Adapters"><path d="M1089.5,176.98 L1222.5,176.98 A3.75,3.75 0 0 1 1225,179.48 L1232,199.4683 L1919.5,199.4683 A2.5,2.5 0 0 1 1922,201.9683 L1922,516.43 A2.5,2.5 0 0 1 1919.5,518.93 L1089.5,518.93 A2.5,2.5 0 0 1 1087,516.43 L1087,179.48 A2.5,2.5 0 0 1 1089.5,176.98 " fill="none" style="stroke:#000000;stroke-width:1.5;"/><line style="stroke:#000000;stroke-width:1.5;" x1="1087" x2="1232" y1="199.4683" y2="199.4683"/><text fill="#000000" font-family="sans-serif" font-size="14" font-weight="bold" lengthAdjust="spacing" textLength="132" x="1091" y="192.5152">Interface Adapters</text></g><!--cluster Controllers--><g id="cluster_Controllers"><path d="M1734.5,219.98 L1816.5,219.98 A3.75,3.75 0 0 1 1819,222.48 L1826,242.4683 L1895.5,242.4683 A2.5,2.5 0 0 1 1898,244.9683 L1898,492.43 A2.5,2.5 0 0 1 1895.5,494.93 L1734.5,494.93 A2.5,2.5 0 0 1 1732,492.43 L1732,222.48 A2.5,2.5 0 0 1 1734.5,219.98 " fill="none" style="stroke:#000000;stroke-width:1.5;"/><line style="stroke:#000000;stroke-width:1.5;" x1="1732" x2="1826" y1="242.4683" y2="242.4683"/><text fill="#000000" font-family="sans-serif" font-size="14" font-weight="bold" lengthAdjust="spacing" textLength="81" x="1736" y="235.5152">Controllers</text></g><!--cluster Application Services--><g id="cluster_Application Services"><path d="M32.5,347.96 L178.5,347.96 A3.75,3.75 0 0 1 181,350.46 L188,370.4483 L1060.5,370.4483 A2.5,2.5 0 0 1 1063,372.9483 L1063,516.43 A2.5,2.5 0 0 1 1060.5,518.93 L32.5,518.93 A2.5,2.5 0 0 1 30,516.43 L30,350.46 A2.5,2.5 0 0 1 32.5,347.96 " fill="none" style="stroke:#000000;stroke-width:1.5;"/><line style="stroke:#000000;stroke-width:1.5;" x1="30" x2="188" y1="370.4483" y2="370.4483"/><text fill="#000000" font-family="sans-serif" font-size="14" font-weight="bold" lengthAdjust="spacing" textLength="145" x="34" y="363.4952">Application Services</text></g><!--cluster App Services--><g id="cluster_App Services"><path d="M56.5,390.96 L148.5,390.96 A3.75,3.75 0 0 1 151,393.46 L158,413.4483 L1036.5,413.4483 A2.5,2.5 0 0 1 1039,415.9483 L1039,492.43 A2.5,2.5 0 0 1 1036.5,494.93 L56.5,494.93 A2.5,2.5 0 0 1 54,492.43 L54,393.46 A2.5,2.5 0 0 1 56.5,390.96 " fill="none" style="stroke:#000000;stroke-width:1.5;"/><line style="stroke:#000000;stroke-width:1.5;" x1="54" x2="158" y1="413.4483" y2="413.4483"/><text fill="#000000" font-family="sans-serif" font-size="14" font-weight="bold" lengthAdjust="spacing" textLength="91" x="58" y="406.4952">App Services</text></g><!--cluster DTO--><g id="cluster_DTO"><path d="M870.5,219.98 L904.5,219.98 A3.75,3.75 0 0 1 907,222.48 L914,242.4683 L955.5,242.4683 A2.5,2.5 0 0 1 958,244.9683 L958,321.46 A2.5,2.5 0 0 1 955.5,323.96 L870.5,323.96 A2.5,2.5 0 0 1 868,321.46 L868,222.48 A2.5,2.5 0 0 1 870.5,219.98 " fill="none" style="stroke:#000000;stroke-width:1.5;"/><line style="stroke:#000000;stroke-width:1.5;" x1="868" x2="914" y1="242.4683" y2="242.4683"/><text fill="#000000" font-family="sans-serif" font-size="14" font-weight="bold" lengthAdjust="spacing" textLength="33" x="872" y="235.5152">DTO</text></g><!--cluster Entities/Core/Domain--><g id="cluster_Entities/Core/Domain"><path d="M622.5,542.93 L783.5,542.93 A3.75,3.75 0 0 1 786,545.43 L793,565.4183 L1019.5,565.4183 A2.5,2.5 0 0 1 1022,567.9183 L1022,644.41 A2.5,2.5 0 0 1 1019.5,646.91 L622.5,646.91 A2.5,2.5 0 0 1 620,644.41 L620,545.43 A2.5,2.5 0 0 1 622.5,542.93 " fill="none" style="stroke:#000000;stroke-width:1.5;"/><line style="stroke:#000000;stroke-width:1.5;" x1="620" x2="793" y1="565.4183" y2="565.4183"/><text fill="#000000" font-family="sans-serif" font-size="14" font-weight="bold" lengthAdjust="spacing" textLength="160" x="624" y="558.4652">Entities/Core/Domain</text></g><path d="M1751.5,84 L1802.5,84 A3.75,3.75 0 0 1 1805,86.5 L1812,106.4883 L1816.5,106.4883 A2.5,2.5 0 0 1 1819,108.9883 L1819,134.4766 A2.5,2.5 0 0 1 1816.5,136.9766 L1751.5,136.9766 A2.5,2.5 0 0 1 1749,134.4766 L1749,86.5 A2.5,2.5 0 0 1 1751.5,84 " fill="#F1F1F1" style="stroke:#181818;stroke-width:0.5;"/><line style="stroke:#181818;stroke-width:0.5;" x1="1749" x2="1812" y1="106.4883" y2="106.4883"/><text fill="#000000" font-family="sans-serif" font-size="14" font-weight="bold" lengthAdjust="spacing" textLength="50" x="1753" y="99.5352">Routes</text><path d="M987.5,84 L1070.5,84 A3.75,3.75 0 0 1 1073,86.5 L1080,106.4883 L1084.5,106.4883 A2.5,2.5 0 0 1 1087,108.9883 L1087,134.4766 A2.5,2.5 0 0 1 1084.5,136.9766 L987.5,136.9766 A2.5,2.5 0 0 1 985,134.4766 L985,86.5 A2.5,2.5 0 0 1 987.5,84 " fill="#F1F1F1" style="stroke:#181818;stroke-width:0.5;"/><line style="stroke:#181818;stroke-width:0.5;" x1="985" x2="1080" y1="106.4883" y2="106.4883"/><text fill="#000000" font-family="sans-serif" font-size="14" font-weight="bold" lengthAdjust="spacing" textLength="82" x="989" y="99.5352">Persistence</text><path d="M1263,84 L1391,84 A3.75,3.75 0 0 1 1393.5,86.5 L1400.5,106.4883 L1405,106.4883 A2.5,2.5 0 0 1 1407.5,108.9883 L1407.5,134.4766 A2.5,2.5 0 0 1 1405,136.9766 L1263,136.9766 A2.5,2.5 0 0 1 1260.5,134.4766 L1260.5,86.5 A2.5,2.5 0 0 1 1263,84 " fill="#F1F1F1" style="stroke:#181818;stroke-width:0.5;"/><line style="stroke:#181818;stroke-width:0.5;" x1="1260.5" x2="1400.5" y1="106.4883" y2="106.4883"/><text fill="#000000" font-family="sans-serif" font-size="14" font-weight="bold" lengthAdjust="spacing" textLength="127" x="1264.5" y="99.5352">FileSystem Driver</text><path d="M1445.5,84 L1558.5,84 A3.75,3.75 0 0 1 1561,86.5 L1568,106.4883 L1572.5,106.4883 A2.5,2.5 0 0 1 1575,108.9883 L1575,134.4766 A2.5,2.5 0 0 1 1572.5,136.9766 L1445.5,136.9766 A2.5,2.5 0 0 1 1443,134.4766 L1443,86.5 A2.5,2.5 0 0 1 1445.5,84 " fill="#F1F1F1" style="stroke:#181818;stroke-width:0.5;"/><line style="stroke:#181818;stroke-width:0.5;" x1="1443" x2="1568" y1="106.4883" y2="106.4883"/><text fill="#000000" font-family="sans-serif" font-size="14" font-weight="bold" lengthAdjust="spacing" textLength="112" x="1447" y="99.5352">Planning Driver</text><path d="M1613,84 L1697,84 A3.75,3.75 0 0 1 1699.5,86.5 L1706.5,106.4883 L1711,106.4883 A2.5,2.5 0 0 1 1713.5,108.9883 L1713.5,134.4766 A2.5,2.5 0 0 1 1711,136.9766 L1613,136.9766 A2.5,2.5 0 0 1 1610.5,134.4766 L1610.5,86.5 A2.5,2.5 0 0 1 1613,84 " fill="#F1F1F1" style="stroke:#181818;stroke-width:0.5;"/><line style="stroke:#181818;stroke-width:0.5;" x1="1610.5" x2="1706.5" y1="106.4883" y2="106.4883"/><text fill="#000000" font-family="sans-serif" font-size="14" font-weight="bold" lengthAdjust="spacing" textLength="83" x="1614.5" y="99.5352">MDT Driver</text><path d="M1125,84 L1209,84 A3.75,3.75 0 0 1 1211.5,86.5 L1218.5,106.4883 L1223,106.4883 A2.5,2.5 0 0 1 1225.5,108.9883 L1225.5,134.4766 A2.5,2.5 0 0 1 1223,136.9766 L1125,136.9766 A2.5,2.5 0 0 1 1122.5,134.4766 L1122.5,86.5 A2.5,2.5 0 0 1 1125,84 " fill="#F1F1F1" style="stroke:#181818;stroke-width:0.5;"/><line style="stroke:#181818;stroke-width:0.5;" x1="1122.5" x2="1218.5" y1="106.4883" y2="106.4883"/><text fill="#000000" font-family="sans-serif" font-size="14" font-weight="bold" lengthAdjust="spacing" textLength="83" x="1126.5" y="99.5352">Auth Driver</text><path d="M1758.5,254.98 L1845.5,254.98 A3.75,3.75 0 0 1 1848,257.48 L1855,277.4683 L1859.5,277.4683 A2.5,2.5 0 0 1 1862,279.9683 L1862,305.4566 A2.5,2.5 0 0 1 1859.5,307.9566 L1758.5,307.9566 A2.5,2.5 0 0 1 1756,305.4566 L1756,257.48 A2.5,2.5 0 0 1 1758.5,254.98 " fill="#F1F1F1" style="stroke:#181818;stroke-width:0.5;"/><line style="stroke:#181818;stroke-width:0.5;" x1="1756" x2="1855" y1="277.4683" y2="277.4683"/><text fill="#000000" font-family="sans-serif" font-size="14" font-weight="bold" lengthAdjust="spacing" textLength="86" x="1760" y="270.5152">IControllers</text><path d="M1750.5,425.96 L1865.5,425.96 A3.75,3.75 0 0 1 1868,428.46 L1875,448.4483 L1879.5,448.4483 A2.5,2.5 0 0 1 1882,450.9483 L1882,476.4366 A2.5,2.5 0 0 1 1879.5,478.9366 L1750.5,478.9366 A2.5,2.5 0 0 1 1748,476.4366 L1748,428.46 A2.5,2.5 0 0 1 1750.5,425.96 " fill="#F1F1F1" style="stroke:#181818;stroke-width:0.5;"/><line style="stroke:#181818;stroke-width:0.5;" x1="1748" x2="1875" y1="448.4483" y2="448.4483"/><text fill="#000000" font-family="sans-serif" font-size="14" font-weight="bold" lengthAdjust="spacing" textLength="114" x="1752" y="441.4952">ImplControllers</text><path d="M1106,254.98 L1198,254.98 A3.75,3.75 0 0 1 1200.5,257.48 L1207.5,277.4683 L1212,277.4683 A2.5,2.5 0 0 1 1214.5,279.9683 L1214.5,305.4566 A2.5,2.5 0 0 1 1212,307.9566 L1106,307.9566 A2.5,2.5 0 0 1 1103.5,305.4566 L1103.5,257.48 A2.5,2.5 0 0 1 1106,254.98 " fill="#F1F1F1" style="stroke:#181818;stroke-width:0.5;"/><line style="stroke:#181818;stroke-width:0.5;" x1="1103.5" x2="1207.5" y1="277.4683" y2="277.4683"/><text fill="#000000" font-family="sans-serif" font-size="14" font-weight="bold" lengthAdjust="spacing" textLength="91" x="1107.5" y="270.5152">Repositories</text><path d="M1252.5,254.98 L1385.5,254.98 A3.75,3.75 0 0 1 1388,257.48 L1395,277.4683 L1399.5,277.4683 A2.5,2.5 0 0 1 1402,279.9683 L1402,305.4566 A2.5,2.5 0 0 1 1399.5,307.9566 L1252.5,307.9566 A2.5,2.5 0 0 1 1250,305.4566 L1250,257.48 A2.5,2.5 0 0 1 1252.5,254.98 " fill="#F1F1F1" style="stroke:#181818;stroke-width:0.5;"/><line style="stroke:#181818;stroke-width:0.5;" x1="1250" x2="1395" y1="277.4683" y2="277.4683"/><text fill="#000000" font-family="sans-serif" font-size="14" font-weight="bold" lengthAdjust="spacing" textLength="132" x="1254" y="270.5152">FileSystemStorage</text><path d="M1440,254.98 L1560,254.98 A3.75,3.75 0 0 1 1562.5,257.48 L1569.5,277.4683 L1574,277.4683 A2.5,2.5 0 0 1 1576.5,279.9683 L1576.5,305.4566 A2.5,2.5 0 0 1 1574,307.9566 L1440,307.9566 A2.5,2.5 0 0 1 1437.5,305.4566 L1437.5,257.48 A2.5,2.5 0 0 1 1440,254.98 " fill="#F1F1F1" style="stroke:#181818;stroke-width:0.5;"/><line style="stroke:#181818;stroke-width:0.5;" x1="1437.5" x2="1569.5" y1="277.4683" y2="277.4683"/><text fill="#000000" font-family="sans-serif" font-size="14" font-weight="bold" lengthAdjust="spacing" textLength="119" x="1441.5" y="270.5152">PlanningAdapter</text><path d="M1614.5,254.98 L1699.5,254.98 A3.75,3.75 0 0 1 1702,257.48 L1709,277.4683 L1713.5,277.4683 A2.5,2.5 0 0 1 1716,279.9683 L1716,305.4566 A2.5,2.5 0 0 1 1713.5,307.9566 L1614.5,307.9566 A2.5,2.5 0 0 1 1612,305.4566 L1612,257.48 A2.5,2.5 0 0 1 1614.5,254.98 " fill="#F1F1F1" style="stroke:#181818;stroke-width:0.5;"/><line style="stroke:#181818;stroke-width:0.5;" x1="1612" x2="1709" y1="277.4683" y2="277.4683"/><text fill="#000000" font-family="sans-serif" font-size="14" font-weight="bold" lengthAdjust="spacing" textLength="84" x="1616" y="270.5152">MdtAdapter</text><path d="M416,425.96 L508,425.96 A3.75,3.75 0 0 1 510.5,428.46 L517.5,448.4483 L522,448.4483 A2.5,2.5 0 0 1 524.5,450.9483 L524.5,476.4366 A2.5,2.5 0 0 1 522,478.9366 L416,478.9366 A2.5,2.5 0 0 1 413.5,476.4366 L413.5,428.46 A2.5,2.5 0 0 1 416,425.96 " fill="#F1F1F1" style="stroke:#181818;stroke-width:0.5;"/><line style="stroke:#181818;stroke-width:0.5;" x1="413.5" x2="517.5" y1="448.4483" y2="448.4483"/><text fill="#000000" font-family="sans-serif" font-size="14" font-weight="bold" lengthAdjust="spacing" textLength="91" x="417.5" y="441.4952">IAppServices</text><path d="M742,425.96 L862,425.96 A3.75,3.75 0 0 1 864.5,428.46 L871.5,448.4483 L876,448.4483 A2.5,2.5 0 0 1 878.5,450.9483 L878.5,476.4366 A2.5,2.5 0 0 1 876,478.9366 L742,478.9366 A2.5,2.5 0 0 1 739.5,476.4366 L739.5,428.46 A2.5,2.5 0 0 1 742,425.96 " fill="#F1F1F1" style="stroke:#181818;stroke-width:0.5;"/><line style="stroke:#181818;stroke-width:0.5;" x1="739.5" x2="871.5" y1="448.4483" y2="448.4483"/><text fill="#000000" font-family="sans-serif" font-size="14" font-weight="bold" lengthAdjust="spacing" textLength="119" x="743.5" y="441.4952">ImplAppServices</text><path d="M72.5,425.96 L169.5,425.96 A3.75,3.75 0 0 1 172,428.46 L179,448.4483 L183.5,448.4483 A2.5,2.5 0 0 1 186,450.9483 L186,476.4366 A2.5,2.5 0 0 1 183.5,478.9366 L72.5,478.9366 A2.5,2.5 0 0 1 70,476.4366 L70,428.46 A2.5,2.5 0 0 1 72.5,425.96 " fill="#F1F1F1" style="stroke:#181818;stroke-width:0.5;"/><line style="stroke:#181818;stroke-width:0.5;" x1="70" x2="179" y1="448.4483" y2="448.4483"/><text fill="#000000" font-family="sans-serif" font-size="14" font-weight="bold" lengthAdjust="spacing" textLength="96" x="74" y="441.4952">IRepositories</text><path d="M224,425.96 L362,425.96 A3.75,3.75 0 0 1 364.5,428.46 L371.5,448.4483 L376,448.4483 A2.5,2.5 0 0 1 378.5,450.9483 L378.5,476.4366 A2.5,2.5 0 0 1 376,478.9366 L224,478.9366 A2.5,2.5 0 0 1 221.5,476.4366 L221.5,428.46 A2.5,2.5 0 0 1 224,425.96 " fill="#F1F1F1" style="stroke:#181818;stroke-width:0.5;"/><line style="stroke:#181818;stroke-width:0.5;" x1="221.5" x2="371.5" y1="448.4483" y2="448.4483"/><text fill="#000000" font-family="sans-serif" font-size="14" font-weight="bold" lengthAdjust="spacing" textLength="137" x="225.5" y="441.4952">IFileSystemStorage</text><path d="M562.5,425.96 L687.5,425.96 A3.75,3.75 0 0 1 690,428.46 L697,448.4483 L701.5,448.4483 A2.5,2.5 0 0 1 704,450.9483 L704,476.4366 A2.5,2.5 0 0 1 701.5,478.9366 L562.5,478.9366 A2.5,2.5 0 0 1 560,476.4366 L560,428.46 A2.5,2.5 0 0 1 562.5,425.96 " fill="#F1F1F1" style="stroke:#181818;stroke-width:0.5;"/><line style="stroke:#181818;stroke-width:0.5;" x1="560" x2="697" y1="448.4483" y2="448.4483"/><text fill="#000000" font-family="sans-serif" font-size="14" font-weight="bold" lengthAdjust="spacing" textLength="124" x="564" y="441.4952">IPlanningAdapter</text><path d="M916,425.96 L1006,425.96 A3.75,3.75 0 0 1 1008.5,428.46 L1015.5,448.4483 L1020,448.4483 A2.5,2.5 0 0 1 1022.5,450.9483 L1022.5,476.4366 A2.5,2.5 0 0 1 1020,478.9366 L916,478.9366 A2.5,2.5 0 0 1 913.5,476.4366 L913.5,428.46 A2.5,2.5 0 0 1 916,425.96 " fill="#F1F1F1" style="stroke:#181818;stroke-width:0.5;"/><line style="stroke:#181818;stroke-width:0.5;" x1="913.5" x2="1015.5" y1="448.4483" y2="448.4483"/><text fill="#000000" font-family="sans-serif" font-size="14" font-weight="bold" lengthAdjust="spacing" textLength="89" x="917.5" y="441.4952">IMdtAdapter</text><path d="M886.5,254.98 L925.5,254.98 A3.75,3.75 0 0 1 928,257.48 L935,277.4683 L939.5,277.4683 A2.5,2.5 0 0 1 942,279.9683 L942,305.4566 A2.5,2.5 0 0 1 939.5,307.9566 L886.5,307.9566 A2.5,2.5 0 0 1 884,305.4566 L884,257.48 A2.5,2.5 0 0 1 886.5,254.98 " fill="#F1F1F1" style="stroke:#181818;stroke-width:0.5;"/><line style="stroke:#181818;stroke-width:0.5;" x1="884" x2="935" y1="277.4683" y2="277.4683"/><text fill="#000000" font-family="sans-serif" font-size="14" font-weight="bold" lengthAdjust="spacing" textLength="38" x="888" y="270.5152">IDTO</text><path d="M907,577.93 L989,577.93 A3.75,3.75 0 0 1 991.5,580.43 L998.5,600.4183 L1003,600.4183 A2.5,2.5 0 0 1 1005.5,602.9183 L1005.5,628.4066 A2.5,2.5 0 0 1 1003,630.9066 L907,630.9066 A2.5,2.5 0 0 1 904.5,628.4066 L904.5,580.43 A2.5,2.5 0 0 1 907,577.93 " fill="#F1F1F1" style="stroke:#181818;stroke-width:0.5;"/><line style="stroke:#181818;stroke-width:0.5;" x1="904.5" x2="998.5" y1="600.4183" y2="600.4183"/><text fill="#000000" font-family="sans-serif" font-size="14" font-weight="bold" lengthAdjust="spacing" textLength="81" x="908.5" y="593.4652">Aggregates</text><path d="M751.5,577.93 L852.5,577.93 A3.75,3.75 0 0 1 855,580.43 L862,600.4183 L866.5,600.4183 A2.5,2.5 0 0 1 869,602.9183 L869,628.4066 A2.5,2.5 0 0 1 866.5,630.9066 L751.5,630.9066 A2.5,2.5 0 0 1 749,628.4066 L749,580.43 A2.5,2.5 0 0 1 751.5,577.93 " fill="#F1F1F1" style="stroke:#181818;stroke-width:0.5;"/><line style="stroke:#181818;stroke-width:0.5;" x1="749" x2="862" y1="600.4183" y2="600.4183"/><text fill="#000000" font-family="sans-serif" font-size="14" font-weight="bold" lengthAdjust="spacing" textLength="100" x="753" y="593.4652">Value Objects</text><path d="M638.5,577.93 L697.5,577.93 A3.75,3.75 0 0 1 700,580.43 L707,600.4183 L711.5,600.4183 A2.5,2.5 0 0 1 714,602.9183 L714,628.4066 A2.5,2.5 0 0 1 711.5,630.9066 L638.5,630.9066 A2.5,2.5 0 0 1 636,628.4066 L636,580.43 A2.5,2.5 0 0 1 638.5,577.93 " fill="#F1F1F1" style="stroke:#181818;stroke-width:0.5;"/><line style="stroke:#181818;stroke-width:0.5;" x1="636" x2="707" y1="600.4183" y2="600.4183"/><text fill="#000000" font-family="sans-serif" font-size="14" font-weight="bold" lengthAdjust="spacing" textLength="58" x="640" y="593.4652">Services</text><!--link Routes to IControllers--><g id="link_Routes_IControllers"><path codeLine="89" d="M1787.8,137.16 C1792.5,168.92 1799.571,216.7547 1804.291,248.6247 " fill="none" id="Routes-to-IControllers" style="stroke:#FF6655;stroke-width:1.0;stroke-dasharray:7.0,7.0;"/><polygon fill="#FF6655" points="1805.17,254.56,1807.8083,245.0711,1804.4375,249.6139,1799.8946,246.2431,1805.17,254.56" style="stroke:#FF6655;stroke-width:1.0;"/></g><!--reverse link IControllers to ImplControllers--><g id="link_IControllers_ImplControllers"><path codeLine="90" d="M1810.55,326.1186 C1811.68,357.8786 1812.95,393.67 1814.08,425.54 " fill="none" id="IControllers-backto-ImplControllers" style="stroke:#FF6655;stroke-width:1.0;stroke-dasharray:7.0,7.0;"/><polygon fill="none" points="1809.91,308.13,1804.5538,326.332,1816.5462,325.9053,1809.91,308.13" style="stroke:#FF6655;stroke-width:1.0;"/></g><!--link ImplControllers to IAppServices--><g id="link_ImplControllers_IAppServices"><path codeLine="91" d="M1747.7,439.17 C1611.36,413.04 1292.46,355.74 1021.5,335.96 C970.3,332.22 610.51,330.2 559.5,335.96 C551.57,336.85 548.54,335.39 542,339.96 C511.47,361.29 492.9861,394.4036 481.6261,420.3536 " fill="none" id="ImplControllers-to-IAppServices" style="stroke:#FF6655;stroke-width:1.0;stroke-dasharray:7.0,7.0;"/><polygon fill="#FF6655" points="479.22,425.85,486.4935,419.2095,481.2251,421.2697,479.1649,416.0013,479.22,425.85" style="stroke:#FF6655;stroke-width:1.0;"/></g><!--reverse link IAppServices to ImplAppServices--><g id="link_IAppServices_ImplAppServices"><path codeLine="92" d="M486.4384,409.3608 C497.7984,383.4108 511.47,361.29 542,339.96 C548.54,335.39 551.57,336.85 559.5,335.96 C591.3,332.37 671.7,332.37 703.5,335.96 C711.43,336.85 714.27,335.68 721,339.96 C754.49,361.23 780.49,399.85 795.28,425.83 " fill="none" id="IAppServices-backto-ImplAppServices" style="stroke:#FF6655;stroke-width:1.0;stroke-dasharray:7.0,7.0;"/><polygon fill="none" points="479.22,425.85,491.9348,411.7669,480.942,406.9546,479.22,425.85" style="stroke:#FF6655;stroke-width:1.0;"/></g><!--reverse link IRepositories to ImplAppServices--><g id="link_IRepositories_ImplAppServices"><path codeLine="93" d="M141.4479,420.3985 C153.5079,394.4385 172.89,361.27 204,339.96 C210.58,335.45 213.57,336.85 221.5,335.96 C248.11,332.95 676.89,332.95 703.5,335.96 C711.43,336.85 714.27,335.68 721,339.96 C754.49,361.23 780.49,399.85 795.28,425.83 " fill="none" id="IRepositories-backto-ImplAppServices" style="stroke:#FF6655;stroke-width:1.0;stroke-dasharray:7.0,7.0;"/><polygon fill="#FF6655" points="138.92,425.84,146.3395,419.363,141.0266,421.3054,139.0842,415.9925,138.92,425.84" style="stroke:#FF6655;stroke-width:1.0;"/></g><!--link ImplAppServices to IFileSystemStorage--><g id="link_ImplAppServices_IFileSystemStorage"><path codeLine="94" d="M795.28,425.83 C780.49,399.85 754.49,361.23 721,339.96 C714.27,335.68 711.43,336.85 703.5,335.96 C671.48,332.34 445.52,332.34 413.5,335.96 C405.57,336.85 402.82,335.82 396,339.96 C360.86,361.24 335.3814,394.8045 318.7814,420.7745 " fill="none" id="ImplAppServices-to-IFileSystemStorage" style="stroke:#FF6655;stroke-width:1.0;stroke-dasharray:7.0,7.0;"/><polygon fill="#FF6655" points="315.55,425.83,323.7675,420.4011,318.2429,421.6171,317.0269,416.0925,315.55,425.83" style="stroke:#FF6655;stroke-width:1.0;"/></g><!--link ImplAppServices to PlanningAdapter--><g id="link_ImplAppServices_PlanningAdapter"><path codeLine="95" d="M820.67,425.55 C834.39,398.6 859.95,357.89 896,339.96 C922.02,327.01 1390.95,339.53 1419,331.96 C1437.11,327.07 1450.3361,320.7582 1465.5561,311.4182 " fill="none" id="ImplAppServices-to-PlanningAdapter" style="stroke:#FF6655;stroke-width:1.0;stroke-dasharray:7.0,7.0;"/><polygon fill="#FF6655" points="1470.67,308.28,1460.9071,309.5781,1466.4084,310.8952,1465.0913,316.3966,1470.67,308.28" style="stroke:#FF6655;stroke-width:1.0;"/></g><!--link ImplAppServices to MdtAdapter--><g id="link_ImplAppServices_MdtAdapter"><path codeLine="96" d="M820.65,425.52 C834.36,398.55 859.92,357.83 896,339.96 C930.75,322.75 1557.11,343.91 1594,331.96 C1609.15,327.05 1619.1252,321.2853 1631.1252,311.9453 " fill="none" id="ImplAppServices-to-MdtAdapter" style="stroke:#FF6655;stroke-width:1.0;stroke-dasharray:7.0,7.0;"/><polygon fill="#FF6655" points="1635.86,308.26,1626.3009,310.6314,1631.9143,311.3311,1631.2146,316.9445,1635.86,308.26" style="stroke:#FF6655;stroke-width:1.0;"/></g><!--link ImplAppServices to Aggregates--><g id="link_ImplAppServices_Aggregates"><path codeLine="97" d="M834.1,479.23 C860.84,506.7 898.7547,545.6407 925.5547,573.1707 " fill="none" id="ImplAppServices-to-Aggregates" style="stroke:#FF6655;stroke-width:1.0;stroke-dasharray:7.0,7.0;"/><polygon fill="#FF6655" points="929.74,577.47,926.3283,568.2309,926.2523,573.8873,920.5959,573.8113,929.74,577.47" style="stroke:#FF6655;stroke-width:1.0;"/></g><!--link ImplAppServices to Value Objects--><g id="link_ImplAppServices_Value Objects"><path codeLine="98" d="M809,479.23 C809,506.7 809,543.94 809,571.47 " fill="none" id="ImplAppServices-to-Value Objects" style="stroke:#FF6655;stroke-width:1.0;stroke-dasharray:7.0,7.0;"/><polygon fill="#FF6655" points="809,577.47,813,568.47,809,572.47,805,568.47,809,577.47" style="stroke:#FF6655;stroke-width:1.0;"/></g><!--link ImplAppServices to Services--><g id="link_ImplAppServices_Services"><path codeLine="99" d="M783.18,479.38 C767.72,495.15 747.87,515.87 731,534.93 C718.79,548.74 709.4752,559.9704 699.0352,572.9804 " fill="none" id="ImplAppServices-to-Services" style="stroke:#FF6655;stroke-width:1.0;stroke-dasharray:7.0,7.0;"/><polygon fill="#FF6655" points="695.28,577.66,704.0325,573.1441,698.4093,573.7603,697.793,568.1372,695.28,577.66" style="stroke:#FF6655;stroke-width:1.0;"/></g><!--reverse link dto to ImplAppServices--><g id="link_dto_ImplAppServices"><path codeLine="100" d="M894.056,313.2403 C874.516,345.0003 844.56,393.67 824.94,425.54 " fill="none" id="dto-backto-ImplAppServices" style="stroke:#FF6655;stroke-width:1.0;stroke-dasharray:7.0,7.0;"/><polygon fill="#FF6655" points="897.2,308.13,889.0771,313.6994,894.58,312.3886,895.8908,317.8915,897.2,308.13" style="stroke:#FF6655;stroke-width:1.0;"/></g><!--reverse link dto to ImplControllers--><g id="link_dto_ImplControllers"><path codeLine="101" d="M948.0131,293.7117 C982.3831,304.5317 1035.51,320.45 1087,331.96 C1327.77,385.77 1618.38,426.25 1747.51,443 " fill="none" id="dto-backto-ImplControllers" style="stroke:#FF6655;stroke-width:1.0;stroke-dasharray:7.0,7.0;"/><polygon fill="#FF6655" points="942.29,291.91,949.6735,298.4279,947.0593,293.4114,952.0758,290.7971,942.29,291.91" style="stroke:#FF6655;stroke-width:1.0;"/></g><!--reverse link Persistence to Repositories--><g id="link_Persistence_Repositories"><path codeLine="102" d="M1058.2112,142.0108 C1081.3312,173.7708 1116.94,222.69 1140.14,254.56 " fill="none" id="Persistence-backto-Repositories" style="stroke:#FF6655;stroke-width:1.0;stroke-dasharray:7.0,7.0;"/><polygon fill="#FF6655" points="1054.68,137.16,1056.7429,146.7904,1057.6227,141.2024,1063.2107,142.0821,1054.68,137.16" style="stroke:#FF6655;stroke-width:1.0;"/></g><!--reverse link Auth Driver to Repositories--><g id="link_Auth Driver_Repositories"><path codeLine="103" d="M1171.1893,143.1365 C1168.3693,174.8965 1164.13,222.69 1161.3,254.56 " fill="none" id="Auth Driver-backto-Repositories" style="stroke:#FF6655;stroke-width:1.0;stroke-dasharray:7.0,7.0;"/><polygon fill="#FF6655" points="1171.72,137.16,1166.9397,145.771,1171.2778,142.1404,1174.9083,146.4785,1171.72,137.16" style="stroke:#FF6655;stroke-width:1.0;"/></g><!--link Repositories to IRepositories--><g id="link_Repositories_IRepositories"><path codeLine="104" d="M1103.34,299.85 C1063.35,311.43 1007.91,325.63 958,331.96 C937.22,334.59 222.47,330.07 204,339.96 C170.13,358.09 155.3931,382.1246 144.1931,409.0046 " fill="none" id="Repositories-to-IRepositories" style="stroke:#FF6655;stroke-width:1.0;stroke-dasharray:7.0,7.0;"/><polygon fill="none" points="137.27,425.62,149.7315,411.3123,138.6546,406.6969,137.27,425.62" style="stroke:#FF6655;stroke-width:1.0;"/></g><!--reverse link FileSystem Driver to FileSystemStorage--><g id="link_FileSystem Driver_FileSystemStorage"><path codeLine="106" d="M1332.4969,143.1533 C1330.9969,174.9133 1328.74,222.69 1327.23,254.56 " fill="none" id="FileSystem Driver-backto-FileSystemStorage" style="stroke:#FF6655;stroke-width:1.0;stroke-dasharray:7.0,7.0;"/><polygon fill="#FF6655" points="1332.78,137.16,1328.3599,145.9613,1332.5441,142.1544,1336.351,146.3387,1332.78,137.16" style="stroke:#FF6655;stroke-width:1.0;"/></g><!--link FileSystemStorage to IFileSystemStorage--><g id="link_FileSystemStorage_IFileSystemStorage"><path codeLine="107" d="M1286.98,308.34 C1270.7,317.69 1251.13,327.13 1232,331.96 C1209.48,337.64 417.06,330.18 396,339.96 C357.78,357.71 337.9609,383.3136 322.3009,410.3536 " fill="none" id="FileSystemStorage-to-IFileSystemStorage" style="stroke:#FF6655;stroke-width:1.0;stroke-dasharray:7.0,7.0;"/><polygon fill="none" points="313.28,425.93,327.493,413.3606,317.1088,407.3467,313.28,425.93" style="stroke:#FF6655;stroke-width:1.0;"/></g><!--reverse link Planning Driver to PlanningAdapter--><g id="link_Planning Driver_PlanningAdapter"><path codeLine="109" d="M1508.6282,143.1596 C1508.2482,174.9196 1507.68,222.69 1507.31,254.56 " fill="none" id="Planning Driver-backto-PlanningAdapter" style="stroke:#FF6655;stroke-width:1.0;stroke-dasharray:7.0,7.0;"/><polygon fill="#FF6655" points="1508.7,137.16,1504.5926,146.1115,1508.6402,142.1596,1512.592,146.2072,1508.7,137.16" style="stroke:#FF6655;stroke-width:1.0;"/></g><!--link PlanningAdapter to IPlanningAdapter--><g id="link_PlanningAdapter_IPlanningAdapter"><path codeLine="110" d="M1470.68,308.31 C1455.46,317.66 1437.12,327.1 1419,331.96 C1381.6,341.98 756.84,323.06 722,339.96 C685.29,357.76 667.1485,382.6265 652.7585,409.6165 " fill="none" id="PlanningAdapter-to-IPlanningAdapter" style="stroke:#FF6655;stroke-width:1.0;stroke-dasharray:7.0,7.0;"/><polygon fill="none" points="644.29,425.5,658.0529,412.4393,647.464,406.7937,644.29,425.5" style="stroke:#FF6655;stroke-width:1.0;"/></g><!--reverse link MDT Driver to MdtAdapter--><g id="link_MDT Driver_MdtAdapter"><path codeLine="112" d="M1662.3718,143.1596 C1662.7518,174.9196 1663.32,222.69 1663.69,254.56 " fill="none" id="MDT Driver-backto-MdtAdapter" style="stroke:#FF6655;stroke-width:1.0;stroke-dasharray:7.0,7.0;"/><polygon fill="#FF6655" points="1662.3,137.16,1658.408,146.2072,1662.3598,142.1596,1666.4074,146.1115,1662.3,137.16" style="stroke:#FF6655;stroke-width:1.0;"/></g><!--link MdtAdapter to IMdtAdapter--><g id="link_MdtAdapter_IMdtAdapter"><path codeLine="113" d="M1633.65,308.2 C1621.92,316.95 1607.97,326.02 1594,331.96 C1394.68,416.7 1152.1339,440.5703 1040.5439,447.6503 " fill="none" id="MdtAdapter-to-IMdtAdapter" style="stroke:#FF6655;stroke-width:1.0;stroke-dasharray:7.0,7.0;"/><polygon fill="none" points="1022.58,448.79,1040.9238,453.6382,1040.164,441.6623,1022.58,448.79" style="stroke:#FF6655;stroke-width:1.0;"/></g><!--SRC=[dPLHRvim4CVVyocixZtL7fgd2ec6HegqhLEfzkx2XNWnDZfCgsxjTvyR8DXWRBGy9RdV_yxS_pZN9oOgYhGacImhAK0eydT5z6SdXKhP7o1VD-VVTpGx5IWRaMybbtXx6rSqEq8KaM-iEAgjHCfRK68EE8Q-x7QRpStD9VKFMWBPoWOPu5X6dhakvgfA4e0gFRtTyGREyHXHlbxoxKjTJWs1LjEN_bYjTFX42o3rMwsWx9wq__DgBmv8QuLDfXg4govi8O-oKL2R8PrrGlq4h9ck8388eJl68MrFao1x0GpcvbG89WedFg6_9q_BmBXHnrcoEuVHA0Lue1cGEAUL_buxcxNLlg3aV1ItKtaWu_5jJLbnhypNlqUePCsKr8DNBpSdrGBzrr9pkhQ4pCbL3uOw7bSLPnbLJ0gI0hwm3Dmzrw0Ji1kegJd8r_J_aStrsoloDjxkfYtq6E2J6KvuXibbJFBquFHXVmxGckHAXioz5ueftPvhlKJXEf4bPS9jRb4W57J11lf5zOOa3y-_8LD1sEMfTTBBsbldybMiez5hspAJjtBTLEltfUmbiJbZ0snDtfh3GRMf5zFHU1JdQFoypSxuT0Y3cl7u1GN6uCsnVMSCyqEexNw83ZPG-nXzph77PoDkl_1jqBeHFPXv2pcnyvdVfsQsi6DjT8cdr-oyOgZXc81MDbap_MEEBkSvUYWncPXMOYwaBhTnbJkO8QCvKX-hVm00]--></g></svg>