<?xml version="1.0" encoding="us-ascii" standalone="no"?><svg xmlns="http://www.w3.org/2000/svg" xmlns:xlink="http://www.w3.org/1999/xlink" contentStyleType="text/css" height="814px" preserveAspectRatio="none" style="width:771px;height:814px;background:#FFFFFF;" version="1.1" viewBox="0 0 771 814" width="771px" zoomAndPan="magnify"><defs/><g><!--cluster system--><g id="cluster_system"><path d="M8.5,6 L61.5,6 A3.75,3.75 0 0 1 64,8.5 L71,28.4883 L761.5,28.4883 A2.5,2.5 0 0 1 764,30.9883 L764,805.38 A2.5,2.5 0 0 1 761.5,807.88 L8.5,807.88 A2.5,2.5 0 0 1 6,805.38 L6,8.5 A2.5,2.5 0 0 1 8.5,6 " fill="none" style="stroke:#000000;stroke-width:1.5;"/><line style="stroke:#000000;stroke-width:1.5;" x1="6" x2="71" y1="28.4883" y2="28.4883"/><text fill="#000000" font-family="sans-serif" font-size="14" font-weight="bold" lengthAdjust="spacing" textLength="52" x="10" y="21.5352">system</text></g><!--cluster Infrastructure--><g id="cluster_Infrastructure"><path d="M284.5,49 L384.5,49 A3.75,3.75 0 0 1 387,51.5 L394,71.4883 L701.5,71.4883 A2.5,2.5 0 0 1 704,73.9883 L704,150.47 A2.5,2.5 0 0 1 701.5,152.97 L284.5,152.97 A2.5,2.5 0 0 1 282,150.47 L282,51.5 A2.5,2.5 0 0 1 284.5,49 " fill="none" style="stroke:#000000;stroke-width:1.5;"/><line style="stroke:#000000;stroke-width:1.5;" x1="282" x2="394" y1="71.4883" y2="71.4883"/><text fill="#000000" font-family="sans-serif" font-size="14" font-weight="bold" lengthAdjust="spacing" textLength="99" x="286" y="64.5352">Infrastructure</text></g><!--cluster Interface Adapters--><g id="cluster_Interface Adapters"><path d="M194.5,176.97 L327.5,176.97 A3.75,3.75 0 0 1 330,179.47 L337,199.4583 L710.5,199.4583 A2.5,2.5 0 0 1 713,201.9583 L713,458.43 A2.5,2.5 0 0 1 710.5,460.93 L194.5,460.93 A2.5,2.5 0 0 1 192,458.43 L192,179.47 A2.5,2.5 0 0 1 194.5,176.97 " fill="none" style="stroke:#000000;stroke-width:1.5;"/><line style="stroke:#000000;stroke-width:1.5;" x1="192" x2="337" y1="199.4583" y2="199.4583"/><text fill="#000000" font-family="sans-serif" font-size="14" font-weight="bold" lengthAdjust="spacing" textLength="132" x="196" y="192.5052">Interface Adapters</text></g><!--cluster Controllers--><g id="cluster_Controllers"><path d="M218.5,219.97 L300.5,219.97 A3.75,3.75 0 0 1 303,222.47 L310,242.4583 L379.5,242.4583 A2.5,2.5 0 0 1 382,244.9583 L382,434.43 A2.5,2.5 0 0 1 379.5,436.93 L218.5,436.93 A2.5,2.5 0 0 1 216,434.43 L216,222.47 A2.5,2.5 0 0 1 218.5,219.97 " fill="none" style="stroke:#000000;stroke-width:1.5;"/><line style="stroke:#000000;stroke-width:1.5;" x1="216" x2="310" y1="242.4583" y2="242.4583"/><text fill="#000000" font-family="sans-serif" font-size="14" font-weight="bold" lengthAdjust="spacing" textLength="81" x="220" y="235.5052">Controllers</text></g><!--cluster Application Services--><g id="cluster_Application Services"><path d="M32.5,484.93 L178.5,484.93 A3.75,3.75 0 0 1 181,487.43 L188,507.4183 L737.5,507.4183 A2.5,2.5 0 0 1 740,509.9183 L740,653.4 A2.5,2.5 0 0 1 737.5,655.9 L32.5,655.9 A2.5,2.5 0 0 1 30,653.4 L30,487.43 A2.5,2.5 0 0 1 32.5,484.93 " fill="none" style="stroke:#000000;stroke-width:1.5;"/><line style="stroke:#000000;stroke-width:1.5;" x1="30" x2="188" y1="507.4183" y2="507.4183"/><text fill="#000000" font-family="sans-serif" font-size="14" font-weight="bold" lengthAdjust="spacing" textLength="145" x="34" y="500.4652">Application Services</text></g><!--cluster App Services--><g id="cluster_App Services"><path d="M56.5,527.93 L148.5,527.93 A3.75,3.75 0 0 1 151,530.43 L158,550.4183 L713.5,550.4183 A2.5,2.5 0 0 1 716,552.9183 L716,629.4 A2.5,2.5 0 0 1 713.5,631.9 L56.5,631.9 A2.5,2.5 0 0 1 54,629.4 L54,530.43 A2.5,2.5 0 0 1 56.5,527.93 " fill="none" style="stroke:#000000;stroke-width:1.5;"/><line style="stroke:#000000;stroke-width:1.5;" x1="54" x2="158" y1="550.4183" y2="550.4183"/><text fill="#000000" font-family="sans-serif" font-size="14" font-weight="bold" lengthAdjust="spacing" textLength="91" x="58" y="543.4652">App Services</text></g><!--cluster DTO--><g id="cluster_DTO"><path d="M80.5,219.97 L114.5,219.97 A3.75,3.75 0 0 1 117,222.47 L124,242.4583 L165.5,242.4583 A2.5,2.5 0 0 1 168,244.9583 L168,321.45 A2.5,2.5 0 0 1 165.5,323.95 L80.5,323.95 A2.5,2.5 0 0 1 78,321.45 L78,222.47 A2.5,2.5 0 0 1 80.5,219.97 " fill="none" style="stroke:#000000;stroke-width:1.5;"/><line style="stroke:#000000;stroke-width:1.5;" x1="78" x2="124" y1="242.4583" y2="242.4583"/><text fill="#000000" font-family="sans-serif" font-size="14" font-weight="bold" lengthAdjust="spacing" textLength="33" x="82" y="235.5052">DTO</text></g><!--cluster Entities/Core/Domain--><g id="cluster_Entities/Core/Domain"><path d="M32.5,679.9 L193.5,679.9 A3.75,3.75 0 0 1 196,682.4 L203,702.3883 L429.5,702.3883 A2.5,2.5 0 0 1 432,704.8883 L432,781.38 A2.5,2.5 0 0 1 429.5,783.88 L32.5,783.88 A2.5,2.5 0 0 1 30,781.38 L30,682.4 A2.5,2.5 0 0 1 32.5,679.9 " fill="none" style="stroke:#000000;stroke-width:1.5;"/><line style="stroke:#000000;stroke-width:1.5;" x1="30" x2="203" y1="702.3883" y2="702.3883"/><text fill="#000000" font-family="sans-serif" font-size="14" font-weight="bold" lengthAdjust="spacing" textLength="160" x="34" y="695.4352">Entities/Core/Domain</text></g><path d="M300.5,84 L351.5,84 A3.75,3.75 0 0 1 354,86.5 L361,106.4883 L365.5,106.4883 A2.5,2.5 0 0 1 368,108.9883 L368,134.4766 A2.5,2.5 0 0 1 365.5,136.9766 L300.5,136.9766 A2.5,2.5 0 0 1 298,134.4766 L298,86.5 A2.5,2.5 0 0 1 300.5,84 " fill="#F1F1F1" style="stroke:#181818;stroke-width:0.5;"/><line style="stroke:#181818;stroke-width:0.5;" x1="298" x2="361" y1="106.4883" y2="106.4883"/><text fill="#000000" font-family="sans-serif" font-size="14" font-weight="bold" lengthAdjust="spacing" textLength="50" x="302" y="99.5352">Routes</text><path d="M405.5,84 L488.5,84 A3.75,3.75 0 0 1 491,86.5 L498,106.4883 L502.5,106.4883 A2.5,2.5 0 0 1 505,108.9883 L505,134.4766 A2.5,2.5 0 0 1 502.5,136.9766 L405.5,136.9766 A2.5,2.5 0 0 1 403,134.4766 L403,86.5 A2.5,2.5 0 0 1 405.5,84 " fill="#F1F1F1" style="stroke:#181818;stroke-width:0.5;"/><line style="stroke:#181818;stroke-width:0.5;" x1="403" x2="498" y1="106.4883" y2="106.4883"/><text fill="#000000" font-family="sans-serif" font-size="14" font-weight="bold" lengthAdjust="spacing" textLength="82" x="407" y="99.5352">Persistence</text><path d="M543,84 L671,84 A3.75,3.75 0 0 1 673.5,86.5 L680.5,106.4883 L685,106.4883 A2.5,2.5 0 0 1 687.5,108.9883 L687.5,134.4766 A2.5,2.5 0 0 1 685,136.9766 L543,136.9766 A2.5,2.5 0 0 1 540.5,134.4766 L540.5,86.5 A2.5,2.5 0 0 1 543,84 " fill="#F1F1F1" style="stroke:#181818;stroke-width:0.5;"/><line style="stroke:#181818;stroke-width:0.5;" x1="540.5" x2="680.5" y1="106.4883" y2="106.4883"/><text fill="#000000" font-family="sans-serif" font-size="14" font-weight="bold" lengthAdjust="spacing" textLength="127" x="544.5" y="99.5352">FileSystem Driver</text><path d="M254.5,254.97 L341.5,254.97 A3.75,3.75 0 0 1 344,257.47 L351,277.4583 L355.5,277.4583 A2.5,2.5 0 0 1 358,279.9583 L358,305.4466 A2.5,2.5 0 0 1 355.5,307.9466 L254.5,307.9466 A2.5,2.5 0 0 1 252,305.4466 L252,257.47 A2.5,2.5 0 0 1 254.5,254.97 " fill="#F1F1F1" style="stroke:#181818;stroke-width:0.5;"/><line style="stroke:#181818;stroke-width:0.5;" x1="252" x2="351" y1="277.4583" y2="277.4583"/><text fill="#000000" font-family="sans-serif" font-size="14" font-weight="bold" lengthAdjust="spacing" textLength="86" x="256" y="270.5052">IControllers</text><path d="M234.5,367.95 L349.5,367.95 A3.75,3.75 0 0 1 352,370.45 L359,390.4383 L363.5,390.4383 A2.5,2.5 0 0 1 366,392.9383 L366,418.4266 A2.5,2.5 0 0 1 363.5,420.9266 L234.5,420.9266 A2.5,2.5 0 0 1 232,418.4266 L232,370.45 A2.5,2.5 0 0 1 234.5,367.95 " fill="#F1F1F1" style="stroke:#181818;stroke-width:0.5;"/><line style="stroke:#181818;stroke-width:0.5;" x1="232" x2="359" y1="390.4383" y2="390.4383"/><text fill="#000000" font-family="sans-serif" font-size="14" font-weight="bold" lengthAdjust="spacing" textLength="114" x="236" y="383.4852">ImplControllers</text><path d="M401,254.97 L493,254.97 A3.75,3.75 0 0 1 495.5,257.47 L502.5,277.4583 L507,277.4583 A2.5,2.5 0 0 1 509.5,279.9583 L509.5,305.4466 A2.5,2.5 0 0 1 507,307.9466 L401,307.9466 A2.5,2.5 0 0 1 398.5,305.4466 L398.5,257.47 A2.5,2.5 0 0 1 401,254.97 " fill="#F1F1F1" style="stroke:#181818;stroke-width:0.5;"/><line style="stroke:#181818;stroke-width:0.5;" x1="398.5" x2="502.5" y1="277.4583" y2="277.4583"/><text fill="#000000" font-family="sans-serif" font-size="14" font-weight="bold" lengthAdjust="spacing" textLength="91" x="402.5" y="270.5052">Repositories</text><path d="M547.5,254.97 L680.5,254.97 A3.75,3.75 0 0 1 683,257.47 L690,277.4583 L694.5,277.4583 A2.5,2.5 0 0 1 697,279.9583 L697,305.4466 A2.5,2.5 0 0 1 694.5,307.9466 L547.5,307.9466 A2.5,2.5 0 0 1 545,305.4466 L545,257.47 A2.5,2.5 0 0 1 547.5,254.97 " fill="#F1F1F1" style="stroke:#181818;stroke-width:0.5;"/><line style="stroke:#181818;stroke-width:0.5;" x1="545" x2="690" y1="277.4583" y2="277.4583"/><text fill="#000000" font-family="sans-serif" font-size="14" font-weight="bold" lengthAdjust="spacing" textLength="132" x="549" y="270.5052">FileSystemStorage</text><path d="M247,562.93 L339,562.93 A3.75,3.75 0 0 1 341.5,565.43 L348.5,585.4183 L353,585.4183 A2.5,2.5 0 0 1 355.5,587.9183 L355.5,613.4066 A2.5,2.5 0 0 1 353,615.9066 L247,615.9066 A2.5,2.5 0 0 1 244.5,613.4066 L244.5,565.43 A2.5,2.5 0 0 1 247,562.93 " fill="#F1F1F1" style="stroke:#181818;stroke-width:0.5;"/><line style="stroke:#181818;stroke-width:0.5;" x1="244.5" x2="348.5" y1="585.4183" y2="585.4183"/><text fill="#000000" font-family="sans-serif" font-size="14" font-weight="bold" lengthAdjust="spacing" textLength="91" x="248.5" y="578.4652">IAppServices</text><path d="M73,562.93 L193,562.93 A3.75,3.75 0 0 1 195.5,565.43 L202.5,585.4183 L207,585.4183 A2.5,2.5 0 0 1 209.5,587.9183 L209.5,613.4066 A2.5,2.5 0 0 1 207,615.9066 L73,615.9066 A2.5,2.5 0 0 1 70.5,613.4066 L70.5,565.43 A2.5,2.5 0 0 1 73,562.93 " fill="#F1F1F1" style="stroke:#181818;stroke-width:0.5;"/><line style="stroke:#181818;stroke-width:0.5;" x1="70.5" x2="202.5" y1="585.4183" y2="585.4183"/><text fill="#000000" font-family="sans-serif" font-size="14" font-weight="bold" lengthAdjust="spacing" textLength="119" x="74.5" y="578.4652">ImplAppServices</text><path d="M393.5,562.93 L490.5,562.93 A3.75,3.75 0 0 1 493,565.43 L500,585.4183 L504.5,585.4183 A2.5,2.5 0 0 1 507,587.9183 L507,613.4066 A2.5,2.5 0 0 1 504.5,615.9066 L393.5,615.9066 A2.5,2.5 0 0 1 391,613.4066 L391,565.43 A2.5,2.5 0 0 1 393.5,562.93 " fill="#F1F1F1" style="stroke:#181818;stroke-width:0.5;"/><line style="stroke:#181818;stroke-width:0.5;" x1="391" x2="500" y1="585.4183" y2="585.4183"/><text fill="#000000" font-family="sans-serif" font-size="14" font-weight="bold" lengthAdjust="spacing" textLength="96" x="395" y="578.4652">IRepositories</text><path d="M545,562.93 L683,562.93 A3.75,3.75 0 0 1 685.5,565.43 L692.5,585.4183 L697,585.4183 A2.5,2.5 0 0 1 699.5,587.9183 L699.5,613.4066 A2.5,2.5 0 0 1 697,615.9066 L545,615.9066 A2.5,2.5 0 0 1 542.5,613.4066 L542.5,565.43 A2.5,2.5 0 0 1 545,562.93 " fill="#F1F1F1" style="stroke:#181818;stroke-width:0.5;"/><line style="stroke:#181818;stroke-width:0.5;" x1="542.5" x2="692.5" y1="585.4183" y2="585.4183"/><text fill="#000000" font-family="sans-serif" font-size="14" font-weight="bold" lengthAdjust="spacing" textLength="137" x="546.5" y="578.4652">IFileSystemStorage</text><path d="M96.5,254.97 L135.5,254.97 A3.75,3.75 0 0 1 138,257.47 L145,277.4583 L149.5,277.4583 A2.5,2.5 0 0 1 152,279.9583 L152,305.4466 A2.5,2.5 0 0 1 149.5,307.9466 L96.5,307.9466 A2.5,2.5 0 0 1 94,305.4466 L94,257.47 A2.5,2.5 0 0 1 96.5,254.97 " fill="#F1F1F1" style="stroke:#181818;stroke-width:0.5;"/><line style="stroke:#181818;stroke-width:0.5;" x1="94" x2="145" y1="277.4583" y2="277.4583"/><text fill="#000000" font-family="sans-serif" font-size="14" font-weight="bold" lengthAdjust="spacing" textLength="38" x="98" y="270.5052">IDTO</text><path d="M317,714.9 L399,714.9 A3.75,3.75 0 0 1 401.5,717.4 L408.5,737.3883 L413,737.3883 A2.5,2.5 0 0 1 415.5,739.8883 L415.5,765.3766 A2.5,2.5 0 0 1 413,767.8766 L317,767.8766 A2.5,2.5 0 0 1 314.5,765.3766 L314.5,717.4 A2.5,2.5 0 0 1 317,714.9 " fill="#F1F1F1" style="stroke:#181818;stroke-width:0.5;"/><line style="stroke:#181818;stroke-width:0.5;" x1="314.5" x2="408.5" y1="737.3883" y2="737.3883"/><text fill="#000000" font-family="sans-serif" font-size="14" font-weight="bold" lengthAdjust="spacing" textLength="81" x="318.5" y="730.4352">Aggregates</text><path d="M161.5,714.9 L262.5,714.9 A3.75,3.75 0 0 1 265,717.4 L272,737.3883 L276.5,737.3883 A2.5,2.5 0 0 1 279,739.8883 L279,765.3766 A2.5,2.5 0 0 1 276.5,767.8766 L161.5,767.8766 A2.5,2.5 0 0 1 159,765.3766 L159,717.4 A2.5,2.5 0 0 1 161.5,714.9 " fill="#F1F1F1" style="stroke:#181818;stroke-width:0.5;"/><line style="stroke:#181818;stroke-width:0.5;" x1="159" x2="272" y1="737.3883" y2="737.3883"/><text fill="#000000" font-family="sans-serif" font-size="14" font-weight="bold" lengthAdjust="spacing" textLength="100" x="163" y="730.4352">Value Objects</text><path d="M48.5,714.9 L107.5,714.9 A3.75,3.75 0 0 1 110,717.4 L117,737.3883 L121.5,737.3883 A2.5,2.5 0 0 1 124,739.8883 L124,765.3766 A2.5,2.5 0 0 1 121.5,767.8766 L48.5,767.8766 A2.5,2.5 0 0 1 46,765.3766 L46,717.4 A2.5,2.5 0 0 1 48.5,714.9 " fill="#F1F1F1" style="stroke:#181818;stroke-width:0.5;"/><line style="stroke:#181818;stroke-width:0.5;" x1="46" x2="117" y1="737.3883" y2="737.3883"/><text fill="#000000" font-family="sans-serif" font-size="14" font-weight="bold" lengthAdjust="spacing" textLength="58" x="50" y="730.4352">Services</text><!--link Routes to IControllers--><g id="link_Routes_IControllers"><path codeLine="71" d="M328.75,137.15 C323.48,168.91 315.5507,216.7707 310.2707,248.6407 " fill="none" id="Routes-to-IControllers" style="stroke:#FF6655;stroke-width:1.0;stroke-dasharray:7.0,7.0;"/><polygon fill="#FF6655" points="309.29,254.56,314.7072,246.3348,310.1072,249.6272,306.8148,245.0272,309.29,254.56" style="stroke:#FF6655;stroke-width:1.0;"/></g><!--reverse link IControllers to ImplControllers--><g id="link_IControllers_ImplControllers"><path codeLine="72" d="M302.6406,326.1739 C301.6806,343.9739 301.37,349.6 300.4,367.45 " fill="none" id="IControllers-backto-ImplControllers" style="stroke:#FF6655;stroke-width:1.0;stroke-dasharray:7.0,7.0;"/><polygon fill="none" points="303.61,308.2,296.6493,325.8508,308.6319,326.497,303.61,308.2" style="stroke:#FF6655;stroke-width:1.0;"/></g><!--link ImplControllers to IAppServices--><g id="link_ImplControllers_IAppServices"><path codeLine="73" d="M299.13,421.06 C299.32,457.97 299.6492,519.7101 299.8392,556.6801 " fill="none" id="ImplControllers-to-IAppServices" style="stroke:#FF6655;stroke-width:1.0;stroke-dasharray:7.0,7.0;"/><polygon fill="#FF6655" points="299.87,562.68,303.8237,553.6596,299.8443,557.6801,295.8238,553.7007,299.87,562.68" style="stroke:#FF6655;stroke-width:1.0;"/></g><!--reverse link IAppServices to ImplAppServices--><g id="link_IAppServices_ImplAppServices"><path codeLine="74" d="M226.1,589.42 C214.73,589.42 221.37,589.42 210,589.42 " fill="none" id="IAppServices-backto-ImplAppServices" style="stroke:#FF6655;stroke-width:1.0;stroke-dasharray:7.0,7.0;"/><polygon fill="none" points="244.1,589.42,226.1,583.42,226.1,595.42,244.1,589.42" style="stroke:#FF6655;stroke-width:1.0;"/></g><!--reverse link IRepositories to ImplAppServices--><g id="link_IRepositories_ImplAppServices"><path codeLine="75" d="M435.5521,557.3685 C423.4921,531.4085 404.11,498.24 373,476.93 C366.42,472.42 363.43,473.82 355.5,472.93 C330.99,470.16 269.01,470.16 244.5,472.93 C236.57,473.82 233.72,472.63 227,476.93 C193.71,498.2 168.05,536.82 153.48,562.8 " fill="none" id="IRepositories-backto-ImplAppServices" style="stroke:#FF6655;stroke-width:1.0;stroke-dasharray:7.0,7.0;"/><polygon fill="#FF6655" points="438.08,562.81,437.9158,552.9625,435.9734,558.2754,430.6605,556.333,438.08,562.81" style="stroke:#FF6655;stroke-width:1.0;"/></g><!--link ImplAppServices to IFileSystemStorage--><g id="link_ImplAppServices_IFileSystemStorage"><path codeLine="76" d="M153.48,562.8 C168.05,536.82 193.71,498.2 227,476.93 C233.72,472.63 236.57,473.82 244.5,472.93 C273.43,469.66 477.57,469.66 506.5,472.93 C514.43,473.82 517.16,472.81 524,476.93 C559.35,498.21 585.1383,531.794 601.9583,557.764 " fill="none" id="ImplAppServices-to-IFileSystemStorage" style="stroke:#FF6655;stroke-width:1.0;stroke-dasharray:7.0,7.0;"/><polygon fill="#FF6655" points="605.22,562.8,603.6848,553.0715,602.5019,558.6033,596.9701,557.4204,605.22,562.8" style="stroke:#FF6655;stroke-width:1.0;"/></g><!--link ImplAppServices to Aggregates--><g id="link_ImplAppServices_Aggregates"><path codeLine="77" d="M162.8,616.33 C178.96,632.87 202.13,653.17 227,663.9 C255.75,676.32 268.82,658.24 297,671.9 C316.9,681.55 330.5788,694.8014 342.8188,709.8814 " fill="none" id="ImplAppServices-to-Aggregates" style="stroke:#FF6655;stroke-width:1.0;stroke-dasharray:7.0,7.0;"/><polygon fill="#FF6655" points="346.6,714.54,344.0339,705.0313,343.449,710.6579,337.8224,710.073,346.6,714.54" style="stroke:#FF6655;stroke-width:1.0;"/></g><!--link ImplAppServices to Value Objects--><g id="link_ImplAppServices_Value Objects"><path codeLine="78" d="M153.58,616.2 C168.05,643.67 188.0339,681.6013 202.5339,709.1313 " fill="none" id="ImplAppServices-to-Value Objects" style="stroke:#FF6655;stroke-width:1.0;stroke-dasharray:7.0,7.0;"/><polygon fill="#FF6655" points="205.33,714.44,204.675,704.6129,202.9999,710.0161,197.5968,708.341,205.33,714.44" style="stroke:#FF6655;stroke-width:1.0;"/></g><!--link ImplAppServices to Services--><g id="link_ImplAppServices_Services"><path codeLine="79" d="M130.55,616.2 C120.47,643.67 106.6747,681.2765 96.5847,708.8065 " fill="none" id="ImplAppServices-to-Services" style="stroke:#FF6655;stroke-width:1.0;stroke-dasharray:7.0,7.0;"/><polygon fill="#FF6655" points="94.52,714.44,101.3728,707.3662,96.2406,709.7454,93.8614,704.6132,94.52,714.44" style="stroke:#FF6655;stroke-width:1.0;"/></g><!--reverse link dto to ImplAppServices--><g id="link_dto_ImplAppServices"><path codeLine="80" d="M124.7629,314.2708 C127.9729,372.0408 135.37,505.17 138.58,562.77 " fill="none" id="dto-backto-ImplAppServices" style="stroke:#FF6655;stroke-width:1.0;stroke-dasharray:7.0,7.0;"/><polygon fill="#FF6655" points="124.43,308.28,120.9355,317.4881,124.7074,313.2723,128.9232,317.0442,124.43,308.28" style="stroke:#FF6655;stroke-width:1.0;"/></g><!--reverse link dto to ImplControllers--><g id="link_dto_ImplControllers"><path codeLine="81" d="M157.5356,304.2397 C186.4056,322.4397 225.58,347.14 257.9,367.52 " fill="none" id="dto-backto-ImplControllers" style="stroke:#FF6655;stroke-width:1.0;stroke-dasharray:7.0,7.0;"/><polygon fill="#FF6655" points="152.46,301.04,157.9403,309.2233,156.6897,303.7064,162.2066,302.4558,152.46,301.04" style="stroke:#FF6655;stroke-width:1.0;"/></g><!--reverse link Persistence to Repositories--><g id="link_Persistence_Repositories"><path codeLine="82" d="M454,143.15 C454,174.91 454,222.69 454,254.56 " fill="none" id="Persistence-backto-Repositories" style="stroke:#FF6655;stroke-width:1.0;stroke-dasharray:7.0,7.0;"/><polygon fill="#FF6655" points="454,137.15,450,146.15,454,142.15,458,146.15,454,137.15" style="stroke:#FF6655;stroke-width:1.0;"/></g><!--link Repositories to IRepositories--><g id="link_Repositories_IRepositories"><path codeLine="83" d="M453.58,308.28 C452.63,366.05 450.6537,487.1724 449.7137,544.7724 " fill="none" id="Repositories-to-IRepositories" style="stroke:#FF6655;stroke-width:1.0;stroke-dasharray:7.0,7.0;"/><polygon fill="none" points="449.42,562.77,455.7129,544.8703,443.7145,544.6745,449.42,562.77" style="stroke:#FF6655;stroke-width:1.0;"/></g><!--reverse link FileSystem Driver to FileSystemStorage--><g id="link_FileSystem Driver_FileSystemStorage"><path codeLine="85" d="M615.3092,143.1448 C616.6292,174.9048 618.61,222.69 619.93,254.56 " fill="none" id="FileSystem Driver-backto-FileSystemStorage" style="stroke:#FF6655;stroke-width:1.0;stroke-dasharray:7.0,7.0;"/><polygon fill="#FF6655" points="615.06,137.15,611.4372,146.3083,615.2676,142.1457,619.4303,145.9761,615.06,137.15" style="stroke:#FF6655;stroke-width:1.0;"/></g><!--link FileSystemStorage to IFileSystemStorage--><g id="link_FileSystemStorage_IFileSystemStorage"><path codeLine="86" d="M621,308.28 C621,366.05 621,487.17 621,544.77 " fill="none" id="FileSystemStorage-to-IFileSystemStorage" style="stroke:#FF6655;stroke-width:1.0;stroke-dasharray:7.0,7.0;"/><polygon fill="none" points="621,562.77,627,544.77,615,544.77,621,562.77" style="stroke:#FF6655;stroke-width:1.0;"/></g><!--SRC=[dPHDRzim38Rl-HL2TtUnGtCg3AH90mGOrg4UTbTbnjKYYm8bj-ZM_lUfTk9Ojcm7yo5mp8SVUadA7gGsd7Z919O6DMZ7_YwOVxQeNIR_0FkwhF_VSN4e22kThr4XtTwk31VFaARicooUtHg9gmP4oe7wq9VjThcykMb3V-Sbi3LM987wRkn9-MInh6m3OBB3svsgeBQlYF2rZRShVJftDZG-fzGVYuKt7tW1pBvP1-NnfAUFLpkz9suTLS9L15T7Su0yOkN0Taq-we3w0MIbpw05pA5RgI1hgjcGV04A7JfkdJ8Tq9uBOAkS6_zkewMklIg4IlNiOQW9g5Djw5CQDUasTTn7C6YbGzzsUxaqcNVmd-QbMHcZfE1EecOPq8iK41V7Wr4WFAcdng0fTVx7RKoOIQT9XVhDEF-s0JO_7wBgx6e3jontE2VvlNRI-QAl_Gq0rniikTHnoOk2eE0NhCylxjURFJpz1k5cuPZItSEsAvla-AgJj3Vq3JEOwQGooVkbR1kus_Wp78n3ec3lcj0Nqsb_FiPe-ho9Qtmu6MC-f-8xxPb3m_xCqRDdz5AddvCsqOgEFLoKnXXSk56iBkPzA6G3H_Re67XuFOzxd7D4rFzO_0C0]--></g></svg>