<?xml version="1.0" encoding="us-ascii" standalone="no"?><svg xmlns="http://www.w3.org/2000/svg" xmlns:xlink="http://www.w3.org/1999/xlink" contentStyleType="text/css" height="966px" preserveAspectRatio="none" style="width:475px;height:966px;background:#FFFFFF;" version="1.1" viewBox="0 0 475 966" width="475px" zoomAndPan="magnify"><defs/><g><!--cluster system--><g id="cluster_system"><rect fill="none" height="861" rx="2.5" ry="2.5" style="stroke:#000000;stroke-width:1.0;" width="462" x="7" y="99"/><rect fill="none" height="10" style="stroke:#000000;stroke-width:1.0;" width="15" x="449" y="104"/><rect fill="none" height="2" style="stroke:#000000;stroke-width:1.0;" width="4" x="447" y="106"/><rect fill="none" height="2" style="stroke:#000000;stroke-width:1.0;" width="4" x="447" y="110"/><text fill="#000000" font-family="Courier" font-size="16" font-weight="bold" lengthAdjust="spacing" textLength="60" x="208" y="129.2656">system</text></g><!--cluster Frameworks and Drivers Layer--><g id="cluster_Frameworks and Drivers Layer"><path d="M120.5,129 L335.5,129 A3.75,3.75 0 0 1 338,131.5 L345,153.6211 L442.5,153.6211 A2.5,2.5 0 0 1 445,156.1211 L445,231.5 A2.5,2.5 0 0 1 442.5,234 L120.5,234 A2.5,2.5 0 0 1 118,231.5 L118,131.5 A2.5,2.5 0 0 1 120.5,129 " fill="none" style="stroke:#000000;stroke-width:1.5;"/><line style="stroke:#000000;stroke-width:1.5;" x1="118" x2="345" y1="153.6211" y2="153.6211"/><text fill="#000000" font-family="sans-serif" font-size="14" font-weight="bold" lengthAdjust="spacing" textLength="214" x="122" y="146.1074">Frameworks and Drivers Layer</text></g><!--cluster Interface Adapters Layers--><g id="cluster_Interface Adapters Layers"><path d="M100.5,363 L281.5,363 A3.75,3.75 0 0 1 284,365.5 L291,387.6211 L442.5,387.6211 A2.5,2.5 0 0 1 445,390.1211 L445,465.5 A2.5,2.5 0 0 1 442.5,468 L100.5,468 A2.5,2.5 0 0 1 98,465.5 L98,365.5 A2.5,2.5 0 0 1 100.5,363 " fill="none" style="stroke:#000000;stroke-width:1.5;"/><line style="stroke:#000000;stroke-width:1.5;" x1="98" x2="291" y1="387.6211" y2="387.6211"/><text fill="#000000" font-family="sans-serif" font-size="14" font-weight="bold" lengthAdjust="spacing" textLength="180" x="102" y="380.1074">Interface Adapters Layers</text></g><!--cluster Application Business Rules--><g id="cluster_Application Business Rules"><path d="M118.5,597 L310.5,597 A3.75,3.75 0 0 1 313,599.5 L320,621.6211 L375.5,621.6211 A2.5,2.5 0 0 1 378,624.1211 L378,699.5 A2.5,2.5 0 0 1 375.5,702 L118.5,702 A2.5,2.5 0 0 1 116,699.5 L116,599.5 A2.5,2.5 0 0 1 118.5,597 " fill="none" style="stroke:#000000;stroke-width:1.5;"/><line style="stroke:#000000;stroke-width:1.5;" x1="116" x2="320" y1="621.6211" y2="621.6211"/><text fill="#000000" font-family="sans-serif" font-size="14" font-weight="bold" lengthAdjust="spacing" textLength="191" x="120" y="614.1074">Application Business Rules</text></g><!--cluster Enterprise Business Rules--><g id="cluster_Enterprise Business Rules"><path d="M58.5,831 L246.5,831 A3.75,3.75 0 0 1 249,833.5 L256,855.6211 L305.5,855.6211 A2.5,2.5 0 0 1 308,858.1211 L308,933.5 A2.5,2.5 0 0 1 305.5,936 L58.5,936 A2.5,2.5 0 0 1 56,933.5 L56,833.5 A2.5,2.5 0 0 1 58.5,831 " fill="none" style="stroke:#000000;stroke-width:1.5;"/><line style="stroke:#000000;stroke-width:1.5;" x1="56" x2="256" y1="855.6211" y2="855.6211"/><text fill="#000000" font-family="sans-serif" font-size="14" font-weight="bold" lengthAdjust="spacing" textLength="187" x="60" y="848.1074">Enterprise Business Rules</text></g><text fill="#000000" font-family="sans-serif" font-size="14" lengthAdjust="spacing" textLength="4" x="215" y="77.4863">&#160;</text><rect fill="#F1F1F1" height="12" style="stroke:#181818;stroke-width:1.5;" width="12" x="211" y="93"/><!--entity Data Model API--><g id="elem_Data Model API"><ellipse cx="81" cy="309" fill="#F1F1F1" rx="8" ry="8" style="stroke:#181818;stroke-width:0.5;"/><text fill="#000000" font-family="sans-serif" font-size="14" lengthAdjust="spacing" textLength="97" x="32.5" y="341.1074">Data Model API</text></g><!--entity Persistence API--><g id="elem_Persistence API"><ellipse cx="229" cy="309" fill="#F1F1F1" rx="8" ry="8" style="stroke:#181818;stroke-width:0.5;"/><text fill="#000000" font-family="sans-serif" font-size="14" lengthAdjust="spacing" textLength="99" x="179.5" y="341.1074">Persistence API</text></g><!--entity Controller API--><g id="elem_Controller API"><ellipse cx="373" cy="309" fill="#F1F1F1" rx="8" ry="8" style="stroke:#181818;stroke-width:0.5;"/><text fill="#000000" font-family="sans-serif" font-size="14" lengthAdjust="spacing" textLength="87" x="329.5" y="341.1074">Controller API</text></g><!--entity App Service API--><g id="elem_App Service API"><ellipse cx="390" cy="543" fill="#F1F1F1" rx="8" ry="8" style="stroke:#181818;stroke-width:0.5;"/><text fill="#000000" font-family="sans-serif" font-size="14" lengthAdjust="spacing" textLength="101" x="339.5" y="575.1074">App Service API</text></g><!--entity DTO API--><g id="elem_DTO API"><ellipse cx="288" cy="543" fill="#F1F1F1" rx="8" ry="8" style="stroke:#181818;stroke-width:0.5;"/><text fill="#000000" font-family="sans-serif" font-size="14" lengthAdjust="spacing" textLength="55" x="260.5" y="575.1074">DTO API</text></g><!--entity DTO--><g id="elem_DTO"><rect fill="#F1F1F1" height="52.0703" rx="2.5" ry="2.5" style="stroke:#000000;stroke-width:0.5;" width="70" x="65" y="517"/><rect fill="#F1F1F1" height="10" style="stroke:#000000;stroke-width:0.5;" width="15" x="115" y="522"/><rect fill="#F1F1F1" height="2" style="stroke:#000000;stroke-width:0.5;" width="4" x="113" y="524"/><rect fill="#F1F1F1" height="2" style="stroke:#000000;stroke-width:0.5;" width="4" x="113" y="528"/><text fill="#000000" font-family="Courier" font-size="16" lengthAdjust="spacing" textLength="30" x="80" y="554.2656">DTO</text></g><!--entity Repo API--><g id="elem_Repo API"><ellipse cx="207" cy="543" fill="#F1F1F1" rx="8" ry="8" style="stroke:#181818;stroke-width:0.5;"/><text fill="#000000" font-family="sans-serif" font-size="14" lengthAdjust="spacing" textLength="59" x="177.5" y="575.1074">Repo API</text></g><!--entity Model API--><g id="elem_Model API"><ellipse cx="182" cy="777" fill="#F1F1F1" rx="8" ry="8" style="stroke:#181818;stroke-width:0.5;"/><text fill="#000000" font-family="sans-serif" font-size="14" lengthAdjust="spacing" textLength="63" x="150.5" y="809.1074">Model API</text></g><!--entity Routing--><g id="elem_Routing"><rect fill="#F1F1F1" height="52.0703" rx="2.5" ry="2.5" style="stroke:#000000;stroke-width:0.5;" width="110" x="319" y="166"/><rect fill="#F1F1F1" height="10" style="stroke:#000000;stroke-width:0.5;" width="15" x="409" y="171"/><rect fill="#F1F1F1" height="2" style="stroke:#000000;stroke-width:0.5;" width="4" x="407" y="173"/><rect fill="#F1F1F1" height="2" style="stroke:#000000;stroke-width:0.5;" width="4" x="407" y="177"/><text fill="#000000" font-family="Courier" font-size="16" lengthAdjust="spacing" textLength="70" x="334" y="203.2656">Routing</text></g><!--entity Persistence--><g id="elem_Persistence"><rect fill="#F1F1F1" height="52.0703" rx="2.5" ry="2.5" style="stroke:#000000;stroke-width:0.5;" width="150" x="134" y="166"/><rect fill="#F1F1F1" height="10" style="stroke:#000000;stroke-width:0.5;" width="15" x="264" y="171"/><rect fill="#F1F1F1" height="2" style="stroke:#000000;stroke-width:0.5;" width="4" x="262" y="173"/><rect fill="#F1F1F1" height="2" style="stroke:#000000;stroke-width:0.5;" width="4" x="262" y="177"/><text fill="#000000" font-family="Courier" font-size="16" lengthAdjust="spacing" textLength="110" x="149" y="203.2656">Persistence</text></g><!--entity Controller--><g id="elem_Controller"><rect fill="#F1F1F1" height="52.0703" rx="2.5" ry="2.5" style="stroke:#000000;stroke-width:0.5;" width="140" x="289" y="400"/><rect fill="#F1F1F1" height="10" style="stroke:#000000;stroke-width:0.5;" width="15" x="409" y="405"/><rect fill="#F1F1F1" height="2" style="stroke:#000000;stroke-width:0.5;" width="4" x="407" y="407"/><rect fill="#F1F1F1" height="2" style="stroke:#000000;stroke-width:0.5;" width="4" x="407" y="411"/><text fill="#000000" font-family="Courier" font-size="16" lengthAdjust="spacing" textLength="100" x="304" y="437.2656">Controller</text></g><!--entity Repository--><g id="elem_Repository"><rect fill="#F1F1F1" height="52.0703" rx="2.5" ry="2.5" style="stroke:#000000;stroke-width:0.5;" width="140" x="114" y="400"/><rect fill="#F1F1F1" height="10" style="stroke:#000000;stroke-width:0.5;" width="15" x="234" y="405"/><rect fill="#F1F1F1" height="2" style="stroke:#000000;stroke-width:0.5;" width="4" x="232" y="407"/><rect fill="#F1F1F1" height="2" style="stroke:#000000;stroke-width:0.5;" width="4" x="232" y="411"/><text fill="#000000" font-family="Courier" font-size="16" lengthAdjust="spacing" textLength="100" x="129" y="437.2656">Repository</text></g><!--entity Application Service--><g id="elem_Application Service"><rect fill="#F1F1F1" height="52.0703" rx="2.5" ry="2.5" style="stroke:#000000;stroke-width:0.5;" width="230" x="132" y="634"/><rect fill="#F1F1F1" height="10" style="stroke:#000000;stroke-width:0.5;" width="15" x="342" y="639"/><rect fill="#F1F1F1" height="2" style="stroke:#000000;stroke-width:0.5;" width="4" x="340" y="641"/><rect fill="#F1F1F1" height="2" style="stroke:#000000;stroke-width:0.5;" width="4" x="340" y="645"/><text fill="#000000" font-family="Courier" font-size="16" lengthAdjust="spacing" textLength="190" x="147" y="671.2656">Application&#160;Service</text></g><!--entity Domain Model (DDD)--><g id="elem_Domain Model (DDD)"><rect fill="#F1F1F1" height="52.0703" rx="2.5" ry="2.5" style="stroke:#000000;stroke-width:0.5;" width="220" x="72" y="868"/><rect fill="#F1F1F1" height="10" style="stroke:#000000;stroke-width:0.5;" width="15" x="272" y="873"/><rect fill="#F1F1F1" height="2" style="stroke:#000000;stroke-width:0.5;" width="4" x="270" y="875"/><rect fill="#F1F1F1" height="2" style="stroke:#000000;stroke-width:0.5;" width="4" x="270" y="879"/><text fill="#000000" font-family="Courier" font-size="16" lengthAdjust="spacing" textLength="180" x="87" y="905.2656">Domain&#160;Model&#160;(DDD)</text></g><!--entity MDR API--><g id="elem_MDR API"><ellipse cx="217" cy="19.5" fill="#F1F1F1" rx="8" ry="8" style="stroke:#181818;stroke-width:0.5;"/><text fill="#000000" font-family="sans-serif" font-size="14" lengthAdjust="spacing" textLength="56" x="189" y="51.6074">MDR API</text></g><g id="elem_GMN49"><path d="M59.5,6 L59.5,33.291 A0,0 0 0 0 59.5,33.291 L172.5,33.291 A0,0 0 0 0 172.5,33.291 L172.5,24 L207.68,19.5 L172.5,16 L172.5,16 L162.5,6 L59.5,6 A0,0 0 0 0 59.5,6 " fill="#FEFFDD" style="stroke:#181818;stroke-width:0.5;"/><path d="M162.5,6 L162.5,16 L172.5,16 L162.5,6 " fill="#FEFFDD" style="stroke:#181818;stroke-width:0.5;"/><text fill="#000000" font-family="sans-serif" font-size="13" lengthAdjust="spacing" textLength="92" x="65.5" y="25.0283">makes available</text></g><!--link Routing to port1--><g id="link_Routing_port1"><path d="M357.63,165.68 C344.73,147.94 325.11,125.28 302,113 C275.37,98.85 237.84,98.93 223.2,99.6 " fill="none" id="Routing-port1" style="stroke:#FF6655;stroke-width:1.0;"/></g><!--link Persistence to Data Model API--><g id="link_Persistence_Data Model API"><path d="M180.91,218.24 C155.44,241.12 118.76,274.08 97.66,293.04 " fill="none" id="Persistence-to-Data Model API" style="stroke:#FF6655;stroke-width:1.0;"/><path d="M98.0815,304.0246 A9,9 0 0 0 86.7784 291.4414" fill="none" style="stroke:#FF6655;stroke-width:1.5;"/></g><!--link Persistence to Persistence API--><g id="link_Persistence_Persistence API"><path d="M213.39,218.24 C217.9,244.16 224.65,283 227.57,299.79 " fill="none" id="Persistence-Persistence API" style="stroke:#FF6655;stroke-width:1.0;"/></g><!--link Controller API to Controller--><g id="link_Controller API_Controller"><path d="M371.99,318.27 C369.95,335.06 365.24,373.74 362.09,399.62 " fill="none" id="Controller API-Controller" style="stroke:#FF6655;stroke-width:1.0;"/></g><!--link Routing to Controller API--><g id="link_Routing_Controller API"><path d="M373.78,218.24 C373.59,239.8 373.33,270.32 373.16,289.63 " fill="none" id="Routing-to-Controller API" style="stroke:#FF6655;stroke-width:1.0;"/><path d="M381.5533,296.7844 A9,9 0 0 0 364.6395 296.6394" fill="none" style="stroke:#FF6655;stroke-width:1.5;"/></g><!--link Data Model API to Repository--><g id="link_Data Model API_Repository"><path d="M88.41,318.27 C103.44,335.06 138.09,373.74 161.27,399.62 " fill="none" id="Data Model API-Repository" style="stroke:#FF6655;stroke-width:1.0;"/></g><!--reverse link Persistence API to Repository--><g id="link_Persistence API_Repository"><path d="M222.11,327.61 C214.59,346.83 202.48,377.78 193.93,399.62 " fill="none" id="Persistence API-backto-Repository" style="stroke:#FF6655;stroke-width:1.0;"/><path d="M216.7625,318.0563 A9,9 0 0 0 232.5151 324.2172" fill="none" style="stroke:#FF6655;stroke-width:1.5;"/></g><!--link Controller to App Service API--><g id="link_Controller_App Service API"><path d="M365.8,452.24 C371.64,473.9 379.92,504.6 385.12,523.9 " fill="none" id="Controller-to-App Service API" style="stroke:#FF6655;stroke-width:1.0;"/><path d="M395.1491,528.6089 A9,9 0 0 0 378.8223 533.0287" fill="none" style="stroke:#FF6655;stroke-width:1.5;"/></g><!--link Controller to DTO API--><g id="link_Controller_DTO API"><path d="M343.42,452.24 C329.73,474.41 310.2,506.04 298.35,525.23 " fill="none" id="Controller-to-DTO API" style="stroke:#FF6655;stroke-width:1.0;"/><path d="M301.8832,535.614 A9,9 0 0 0 287.4912 526.7277" fill="none" style="stroke:#FF6655;stroke-width:1.5;"/></g><!--link DTO to DTO API--><g id="link_DTO_DTO API"><path d="M128.59,516.86 C140.38,507.77 154.72,498.69 169.5,494 C200.85,484.06 213.2,481.2 243.5,494 C262.13,501.87 276.18,522.08 283.14,533.94 " fill="none" id="DTO-DTO API" style="stroke:#FF6655;stroke-width:1.0;"/></g><!--link App Service API to Application Service--><g id="link_App Service API_Application Service"><path d="M380.62,551.55 C360.17,567.99 310.83,607.67 278.17,633.93 " fill="none" id="App Service API-Application Service" style="stroke:#FF6655;stroke-width:1.0;"/></g><!--reverse link DTO API to Application Service--><g id="link_DTO API_Application Service"><path d="M281.63,561.88 C274.77,581.12 263.8,611.88 256.05,633.62 " fill="none" id="DTO API-backto-Application Service" style="stroke:#FF6655;stroke-width:1.0;"/><path d="M276.0501,552.3166 A9,9 0 0 0 291.9743 558.0193" fill="none" style="stroke:#FF6655;stroke-width:1.5;"/></g><!--link Repository to Repo API--><g id="link_Repository_Repo API"><path d="M189.05,452.24 C194.23,478.16 202,517 205.36,533.79 " fill="none" id="Repository-Repo API" style="stroke:#FF6655;stroke-width:1.0;"/></g><!--reverse link Repo API to Application Service--><g id="link_Repo API_Application Service"><path d="M213.22,561.88 C219.91,581.12 230.61,611.88 238.17,633.62 " fill="none" id="Repo API-backto-Application Service" style="stroke:#FF6655;stroke-width:1.0;"/><path d="M202.9041,557.9565 A9,9 0 0 0 218.8791 552.3979" fill="none" style="stroke:#FF6655;stroke-width:1.5;"/></g><!--link Repository to Model API--><g id="link_Repository_Model API"><path d="M115.75,452.15 C89.37,465.62 61.97,485.09 47,512 C33.6,536.08 40.59,547.2 47,574 C62.77,639.92 76.21,655.13 116,710 C130.47,729.96 151.05,749.5 165.37,762.08 " fill="none" id="Repository-to-Model API" style="stroke:#FF6655;stroke-width:1.0;"/><path d="M176.1637,760.2119 A9,9 0 0 0 165.1301 773.0322" fill="none" style="stroke:#FF6655;stroke-width:1.5;"/></g><!--link Application Service to Model API--><g id="link_Application Service_Model API"><path d="M232.74,686.24 C220.26,708.31 202.49,739.76 191.63,758.97 " fill="none" id="Application Service-to-Model API" style="stroke:#FF6655;stroke-width:1.0;"/><path d="M195.5168,769.2741 A9,9 0 0 0 180.7939 760.9472" fill="none" style="stroke:#FF6655;stroke-width:1.5;"/></g><!--link Model API to Domain Model (DDD)--><g id="link_Model API_Domain Model (DDD)"><path d="M182,786.27 C182,803.06 182,841.74 182,867.62 " fill="none" id="Model API-Domain Model (DDD)" style="stroke:#FF6655;stroke-width:1.0;"/></g><!--link MDR API to port1--><g id="link_MDR API_port1"><path d="M217,28.5 C217,44.44 217,79.73 217,92.91 " fill="none" id="MDR API-port1" style="stroke:#FF6655;stroke-width:1.0;"/></g><!--SRC=[ZPHDJ-Cm48Rl-HMZxAKSSk10LreXfD1ifKgmeC9jnS4aGx7YUAAnqweW_liwZPkamQnmJZFpvfalowQKkXOiAiYfgacZjl0UWJjBqlP1lY6Spm_sjSZB3LEZYmKfuilBj1RvArvTmOtSlDe5iL2TaBX0def-B9Vp-SL5Z_uZAeG5DIoHfx_1itB93jwKcNQzVbKvd1q2dNgCxlK-zFDmeeyeYeO6pTvOh7oVZbYA3KAyT5F07N5fGEW2CfPRP0CtOeySUt5x_gwfiL9ldWRFlHDAnzGvTbwNxuIzqXRvHUG8QI5gstFD2NZXwcPI2dd4NcDDHbhYVHYTrhMIkR2ID5mtHceq1jQDmbFsMFQ0l9LVbVgxBRLcQV1_k8mg8JNSKe4APbcMdPtIYDs887QVC0Vhl0lqmuCayVvF4tIX6SIPiCBpq_jL79H1F79qicWwIKYQsWa7pmWt55FGJhTPfx9ekWEF2rOtbSs-LzynjrlHSJKZQ52QFTwDSBq9YS8NcxZrFDuz-LIXnVicmWc__66SztE_ZjVQtmGDqW3gsELqlc5WI1cudhxdaTAz2l5jjlQJErv7JHQX7UClg4I9xZ7O2gd4iyBe7m00]--></g></svg>