<?xml version="1.0" encoding="us-ascii" standalone="no"?><svg xmlns="http://www.w3.org/2000/svg" xmlns:xlink="http://www.w3.org/1999/xlink" contentStyleType="text/css" height="677px" preserveAspectRatio="none" style="width:1669px;height:677px;background:#FFFFFF;" version="1.1" viewBox="0 0 1669 677" width="1669px" zoomAndPan="magnify"><defs/><g><!--cluster system--><g id="cluster_system"><path d="M8.5,6 L61.5,6 A3.75,3.75 0 0 1 64,8.5 L71,28.4883 L1659.5,28.4883 A2.5,2.5 0 0 1 1662,30.9883 L1662,668.41 A2.5,2.5 0 0 1 1659.5,670.91 L8.5,670.91 A2.5,2.5 0 0 1 6,668.41 L6,8.5 A2.5,2.5 0 0 1 8.5,6 " fill="none" style="stroke:#000000;stroke-width:1.5;"/><line style="stroke:#000000;stroke-width:1.5;" x1="6" x2="71" y1="28.4883" y2="28.4883"/><text fill="#000000" font-family="sans-serif" font-size="14" font-weight="bold" lengthAdjust="spacing" textLength="52" x="10" y="21.5352">system</text></g><!--cluster Infrastructure--><g id="cluster_Infrastructure"><path d="M959.5,49 L1059.5,49 A3.75,3.75 0 0 1 1062,51.5 L1069,71.4883 L1543.5,71.4883 A2.5,2.5 0 0 1 1546,73.9883 L1546,150.48 A2.5,2.5 0 0 1 1543.5,152.98 L959.5,152.98 A2.5,2.5 0 0 1 957,150.48 L957,51.5 A2.5,2.5 0 0 1 959.5,49 " fill="none" style="stroke:#000000;stroke-width:1.5;"/><line style="stroke:#000000;stroke-width:1.5;" x1="957" x2="1069" y1="71.4883" y2="71.4883"/><text fill="#000000" font-family="sans-serif" font-size="14" font-weight="bold" lengthAdjust="spacing" textLength="99" x="961" y="64.5352">Infrastructure</text></g><!--cluster Interface Adapters--><g id="cluster_Interface Adapters"><path d="M944.5,176.98 L1077.5,176.98 A3.75,3.75 0 0 1 1080,179.48 L1087,199.4683 L1635.5,199.4683 A2.5,2.5 0 0 1 1638,201.9683 L1638,516.43 A2.5,2.5 0 0 1 1635.5,518.93 L944.5,518.93 A2.5,2.5 0 0 1 942,516.43 L942,179.48 A2.5,2.5 0 0 1 944.5,176.98 " fill="none" style="stroke:#000000;stroke-width:1.5;"/><line style="stroke:#000000;stroke-width:1.5;" x1="942" x2="1087" y1="199.4683" y2="199.4683"/><text fill="#000000" font-family="sans-serif" font-size="14" font-weight="bold" lengthAdjust="spacing" textLength="132" x="946" y="192.5152">Interface Adapters</text></g><!--cluster Controllers--><g id="cluster_Controllers"><path d="M1450.5,219.98 L1532.5,219.98 A3.75,3.75 0 0 1 1535,222.48 L1542,242.4683 L1611.5,242.4683 A2.5,2.5 0 0 1 1614,244.9683 L1614,492.43 A2.5,2.5 0 0 1 1611.5,494.93 L1450.5,494.93 A2.5,2.5 0 0 1 1448,492.43 L1448,222.48 A2.5,2.5 0 0 1 1450.5,219.98 " fill="none" style="stroke:#000000;stroke-width:1.5;"/><line style="stroke:#000000;stroke-width:1.5;" x1="1448" x2="1542" y1="242.4683" y2="242.4683"/><text fill="#000000" font-family="sans-serif" font-size="14" font-weight="bold" lengthAdjust="spacing" textLength="81" x="1452" y="235.5152">Controllers</text></g><!--cluster Application Services--><g id="cluster_Application Services"><path d="M32.5,347.96 L178.5,347.96 A3.75,3.75 0 0 1 181,350.46 L188,370.4483 L915.5,370.4483 A2.5,2.5 0 0 1 918,372.9483 L918,516.43 A2.5,2.5 0 0 1 915.5,518.93 L32.5,518.93 A2.5,2.5 0 0 1 30,516.43 L30,350.46 A2.5,2.5 0 0 1 32.5,347.96 " fill="none" style="stroke:#000000;stroke-width:1.5;"/><line style="stroke:#000000;stroke-width:1.5;" x1="30" x2="188" y1="370.4483" y2="370.4483"/><text fill="#000000" font-family="sans-serif" font-size="14" font-weight="bold" lengthAdjust="spacing" textLength="145" x="34" y="363.4952">Application Services</text></g><!--cluster App Services--><g id="cluster_App Services"><path d="M56.5,390.96 L148.5,390.96 A3.75,3.75 0 0 1 151,393.46 L158,413.4483 L891.5,413.4483 A2.5,2.5 0 0 1 894,415.9483 L894,492.43 A2.5,2.5 0 0 1 891.5,494.93 L56.5,494.93 A2.5,2.5 0 0 1 54,492.43 L54,393.46 A2.5,2.5 0 0 1 56.5,390.96 " fill="none" style="stroke:#000000;stroke-width:1.5;"/><line style="stroke:#000000;stroke-width:1.5;" x1="54" x2="158" y1="413.4483" y2="413.4483"/><text fill="#000000" font-family="sans-serif" font-size="14" font-weight="bold" lengthAdjust="spacing" textLength="91" x="58" y="406.4952">App Services</text></g><!--cluster DTO--><g id="cluster_DTO"><path d="M539.5,219.98 L573.5,219.98 A3.75,3.75 0 0 1 576,222.48 L583,242.4683 L624.5,242.4683 A2.5,2.5 0 0 1 627,244.9683 L627,321.46 A2.5,2.5 0 0 1 624.5,323.96 L539.5,323.96 A2.5,2.5 0 0 1 537,321.46 L537,222.48 A2.5,2.5 0 0 1 539.5,219.98 " fill="none" style="stroke:#000000;stroke-width:1.5;"/><line style="stroke:#000000;stroke-width:1.5;" x1="537" x2="583" y1="242.4683" y2="242.4683"/><text fill="#000000" font-family="sans-serif" font-size="14" font-weight="bold" lengthAdjust="spacing" textLength="33" x="541" y="235.5152">DTO</text></g><!--cluster Entities/Core/Domain--><g id="cluster_Entities/Core/Domain"><path d="M104.5,542.93 L265.5,542.93 A3.75,3.75 0 0 1 268,545.43 L275,565.4183 L501.5,565.4183 A2.5,2.5 0 0 1 504,567.9183 L504,644.41 A2.5,2.5 0 0 1 501.5,646.91 L104.5,646.91 A2.5,2.5 0 0 1 102,644.41 L102,545.43 A2.5,2.5 0 0 1 104.5,542.93 " fill="none" style="stroke:#000000;stroke-width:1.5;"/><line style="stroke:#000000;stroke-width:1.5;" x1="102" x2="275" y1="565.4183" y2="565.4183"/><text fill="#000000" font-family="sans-serif" font-size="14" font-weight="bold" lengthAdjust="spacing" textLength="160" x="106" y="558.4652">Entities/Core/Domain</text></g><path d="M1462.5,84 L1513.5,84 A3.75,3.75 0 0 1 1516,86.5 L1523,106.4883 L1527.5,106.4883 A2.5,2.5 0 0 1 1530,108.9883 L1530,134.4766 A2.5,2.5 0 0 1 1527.5,136.9766 L1462.5,136.9766 A2.5,2.5 0 0 1 1460,134.4766 L1460,86.5 A2.5,2.5 0 0 1 1462.5,84 " fill="#F1F1F1" style="stroke:#181818;stroke-width:0.5;"/><line style="stroke:#181818;stroke-width:0.5;" x1="1460" x2="1523" y1="106.4883" y2="106.4883"/><text fill="#000000" font-family="sans-serif" font-size="14" font-weight="bold" lengthAdjust="spacing" textLength="50" x="1464" y="99.5352">Routes</text><path d="M975.5,84 L1058.5,84 A3.75,3.75 0 0 1 1061,86.5 L1068,106.4883 L1072.5,106.4883 A2.5,2.5 0 0 1 1075,108.9883 L1075,134.4766 A2.5,2.5 0 0 1 1072.5,136.9766 L975.5,136.9766 A2.5,2.5 0 0 1 973,134.4766 L973,86.5 A2.5,2.5 0 0 1 975.5,84 " fill="#F1F1F1" style="stroke:#181818;stroke-width:0.5;"/><line style="stroke:#181818;stroke-width:0.5;" x1="973" x2="1068" y1="106.4883" y2="106.4883"/><text fill="#000000" font-family="sans-serif" font-size="14" font-weight="bold" lengthAdjust="spacing" textLength="82" x="977" y="99.5352">Persistence</text><path d="M1113,84 L1241,84 A3.75,3.75 0 0 1 1243.5,86.5 L1250.5,106.4883 L1255,106.4883 A2.5,2.5 0 0 1 1257.5,108.9883 L1257.5,134.4766 A2.5,2.5 0 0 1 1255,136.9766 L1113,136.9766 A2.5,2.5 0 0 1 1110.5,134.4766 L1110.5,86.5 A2.5,2.5 0 0 1 1113,84 " fill="#F1F1F1" style="stroke:#181818;stroke-width:0.5;"/><line style="stroke:#181818;stroke-width:0.5;" x1="1110.5" x2="1250.5" y1="106.4883" y2="106.4883"/><text fill="#000000" font-family="sans-serif" font-size="14" font-weight="bold" lengthAdjust="spacing" textLength="127" x="1114.5" y="99.5352">FileSystem Driver</text><path d="M1295.5,84 L1408.5,84 A3.75,3.75 0 0 1 1411,86.5 L1418,106.4883 L1422.5,106.4883 A2.5,2.5 0 0 1 1425,108.9883 L1425,134.4766 A2.5,2.5 0 0 1 1422.5,136.9766 L1295.5,136.9766 A2.5,2.5 0 0 1 1293,134.4766 L1293,86.5 A2.5,2.5 0 0 1 1295.5,84 " fill="#F1F1F1" style="stroke:#181818;stroke-width:0.5;"/><line style="stroke:#181818;stroke-width:0.5;" x1="1293" x2="1418" y1="106.4883" y2="106.4883"/><text fill="#000000" font-family="sans-serif" font-size="14" font-weight="bold" lengthAdjust="spacing" textLength="112" x="1297" y="99.5352">Planning Driver</text><path d="M1474.5,254.98 L1561.5,254.98 A3.75,3.75 0 0 1 1564,257.48 L1571,277.4683 L1575.5,277.4683 A2.5,2.5 0 0 1 1578,279.9683 L1578,305.4566 A2.5,2.5 0 0 1 1575.5,307.9566 L1474.5,307.9566 A2.5,2.5 0 0 1 1472,305.4566 L1472,257.48 A2.5,2.5 0 0 1 1474.5,254.98 " fill="#F1F1F1" style="stroke:#181818;stroke-width:0.5;"/><line style="stroke:#181818;stroke-width:0.5;" x1="1472" x2="1571" y1="277.4683" y2="277.4683"/><text fill="#000000" font-family="sans-serif" font-size="14" font-weight="bold" lengthAdjust="spacing" textLength="86" x="1476" y="270.5152">IControllers</text><path d="M1466.5,425.96 L1581.5,425.96 A3.75,3.75 0 0 1 1584,428.46 L1591,448.4483 L1595.5,448.4483 A2.5,2.5 0 0 1 1598,450.9483 L1598,476.4366 A2.5,2.5 0 0 1 1595.5,478.9366 L1466.5,478.9366 A2.5,2.5 0 0 1 1464,476.4366 L1464,428.46 A2.5,2.5 0 0 1 1466.5,425.96 " fill="#F1F1F1" style="stroke:#181818;stroke-width:0.5;"/><line style="stroke:#181818;stroke-width:0.5;" x1="1464" x2="1591" y1="448.4483" y2="448.4483"/><text fill="#000000" font-family="sans-serif" font-size="14" font-weight="bold" lengthAdjust="spacing" textLength="114" x="1468" y="441.4952">ImplControllers</text><path d="M961,254.98 L1053,254.98 A3.75,3.75 0 0 1 1055.5,257.48 L1062.5,277.4683 L1067,277.4683 A2.5,2.5 0 0 1 1069.5,279.9683 L1069.5,305.4566 A2.5,2.5 0 0 1 1067,307.9566 L961,307.9566 A2.5,2.5 0 0 1 958.5,305.4566 L958.5,257.48 A2.5,2.5 0 0 1 961,254.98 " fill="#F1F1F1" style="stroke:#181818;stroke-width:0.5;"/><line style="stroke:#181818;stroke-width:0.5;" x1="958.5" x2="1062.5" y1="277.4683" y2="277.4683"/><text fill="#000000" font-family="sans-serif" font-size="14" font-weight="bold" lengthAdjust="spacing" textLength="91" x="962.5" y="270.5152">Repositories</text><path d="M1107.5,254.98 L1240.5,254.98 A3.75,3.75 0 0 1 1243,257.48 L1250,277.4683 L1254.5,277.4683 A2.5,2.5 0 0 1 1257,279.9683 L1257,305.4566 A2.5,2.5 0 0 1 1254.5,307.9566 L1107.5,307.9566 A2.5,2.5 0 0 1 1105,305.4566 L1105,257.48 A2.5,2.5 0 0 1 1107.5,254.98 " fill="#F1F1F1" style="stroke:#181818;stroke-width:0.5;"/><line style="stroke:#181818;stroke-width:0.5;" x1="1105" x2="1250" y1="277.4683" y2="277.4683"/><text fill="#000000" font-family="sans-serif" font-size="14" font-weight="bold" lengthAdjust="spacing" textLength="132" x="1109" y="270.5152">FileSystemStorage</text><path d="M1295,254.98 L1415,254.98 A3.75,3.75 0 0 1 1417.5,257.48 L1424.5,277.4683 L1429,277.4683 A2.5,2.5 0 0 1 1431.5,279.9683 L1431.5,305.4566 A2.5,2.5 0 0 1 1429,307.9566 L1295,307.9566 A2.5,2.5 0 0 1 1292.5,305.4566 L1292.5,257.48 A2.5,2.5 0 0 1 1295,254.98 " fill="#F1F1F1" style="stroke:#181818;stroke-width:0.5;"/><line style="stroke:#181818;stroke-width:0.5;" x1="1292.5" x2="1424.5" y1="277.4683" y2="277.4683"/><text fill="#000000" font-family="sans-serif" font-size="14" font-weight="bold" lengthAdjust="spacing" textLength="119" x="1296.5" y="270.5152">PlanningAdapter</text><path d="M590,425.96 L682,425.96 A3.75,3.75 0 0 1 684.5,428.46 L691.5,448.4483 L696,448.4483 A2.5,2.5 0 0 1 698.5,450.9483 L698.5,476.4366 A2.5,2.5 0 0 1 696,478.9366 L590,478.9366 A2.5,2.5 0 0 1 587.5,476.4366 L587.5,428.46 A2.5,2.5 0 0 1 590,425.96 " fill="#F1F1F1" style="stroke:#181818;stroke-width:0.5;"/><line style="stroke:#181818;stroke-width:0.5;" x1="587.5" x2="691.5" y1="448.4483" y2="448.4483"/><text fill="#000000" font-family="sans-serif" font-size="14" font-weight="bold" lengthAdjust="spacing" textLength="91" x="591.5" y="441.4952">IAppServices</text><path d="M224,425.96 L344,425.96 A3.75,3.75 0 0 1 346.5,428.46 L353.5,448.4483 L358,448.4483 A2.5,2.5 0 0 1 360.5,450.9483 L360.5,476.4366 A2.5,2.5 0 0 1 358,478.9366 L224,478.9366 A2.5,2.5 0 0 1 221.5,476.4366 L221.5,428.46 A2.5,2.5 0 0 1 224,425.96 " fill="#F1F1F1" style="stroke:#181818;stroke-width:0.5;"/><line style="stroke:#181818;stroke-width:0.5;" x1="221.5" x2="353.5" y1="448.4483" y2="448.4483"/><text fill="#000000" font-family="sans-serif" font-size="14" font-weight="bold" lengthAdjust="spacing" textLength="119" x="225.5" y="441.4952">ImplAppServices</text><path d="M72.5,425.96 L169.5,425.96 A3.75,3.75 0 0 1 172,428.46 L179,448.4483 L183.5,448.4483 A2.5,2.5 0 0 1 186,450.9483 L186,476.4366 A2.5,2.5 0 0 1 183.5,478.9366 L72.5,478.9366 A2.5,2.5 0 0 1 70,476.4366 L70,428.46 A2.5,2.5 0 0 1 72.5,425.96 " fill="#F1F1F1" style="stroke:#181818;stroke-width:0.5;"/><line style="stroke:#181818;stroke-width:0.5;" x1="70" x2="179" y1="448.4483" y2="448.4483"/><text fill="#000000" font-family="sans-serif" font-size="14" font-weight="bold" lengthAdjust="spacing" textLength="96" x="74" y="441.4952">IRepositories</text><path d="M398,425.96 L536,425.96 A3.75,3.75 0 0 1 538.5,428.46 L545.5,448.4483 L550,448.4483 A2.5,2.5 0 0 1 552.5,450.9483 L552.5,476.4366 A2.5,2.5 0 0 1 550,478.9366 L398,478.9366 A2.5,2.5 0 0 1 395.5,476.4366 L395.5,428.46 A2.5,2.5 0 0 1 398,425.96 " fill="#F1F1F1" style="stroke:#181818;stroke-width:0.5;"/><line style="stroke:#181818;stroke-width:0.5;" x1="395.5" x2="545.5" y1="448.4483" y2="448.4483"/><text fill="#000000" font-family="sans-serif" font-size="14" font-weight="bold" lengthAdjust="spacing" textLength="137" x="399.5" y="441.4952">IFileSystemStorage</text><path d="M736.5,425.96 L861.5,425.96 A3.75,3.75 0 0 1 864,428.46 L871,448.4483 L875.5,448.4483 A2.5,2.5 0 0 1 878,450.9483 L878,476.4366 A2.5,2.5 0 0 1 875.5,478.9366 L736.5,478.9366 A2.5,2.5 0 0 1 734,476.4366 L734,428.46 A2.5,2.5 0 0 1 736.5,425.96 " fill="#F1F1F1" style="stroke:#181818;stroke-width:0.5;"/><line style="stroke:#181818;stroke-width:0.5;" x1="734" x2="871" y1="448.4483" y2="448.4483"/><text fill="#000000" font-family="sans-serif" font-size="14" font-weight="bold" lengthAdjust="spacing" textLength="124" x="738" y="441.4952">IPlanningAdapter</text><path d="M555.5,254.98 L594.5,254.98 A3.75,3.75 0 0 1 597,257.48 L604,277.4683 L608.5,277.4683 A2.5,2.5 0 0 1 611,279.9683 L611,305.4566 A2.5,2.5 0 0 1 608.5,307.9566 L555.5,307.9566 A2.5,2.5 0 0 1 553,305.4566 L553,257.48 A2.5,2.5 0 0 1 555.5,254.98 " fill="#F1F1F1" style="stroke:#181818;stroke-width:0.5;"/><line style="stroke:#181818;stroke-width:0.5;" x1="553" x2="604" y1="277.4683" y2="277.4683"/><text fill="#000000" font-family="sans-serif" font-size="14" font-weight="bold" lengthAdjust="spacing" textLength="38" x="557" y="270.5152">IDTO</text><path d="M389,577.93 L471,577.93 A3.75,3.75 0 0 1 473.5,580.43 L480.5,600.4183 L485,600.4183 A2.5,2.5 0 0 1 487.5,602.9183 L487.5,628.4066 A2.5,2.5 0 0 1 485,630.9066 L389,630.9066 A2.5,2.5 0 0 1 386.5,628.4066 L386.5,580.43 A2.5,2.5 0 0 1 389,577.93 " fill="#F1F1F1" style="stroke:#181818;stroke-width:0.5;"/><line style="stroke:#181818;stroke-width:0.5;" x1="386.5" x2="480.5" y1="600.4183" y2="600.4183"/><text fill="#000000" font-family="sans-serif" font-size="14" font-weight="bold" lengthAdjust="spacing" textLength="81" x="390.5" y="593.4652">Aggregates</text><path d="M233.5,577.93 L334.5,577.93 A3.75,3.75 0 0 1 337,580.43 L344,600.4183 L348.5,600.4183 A2.5,2.5 0 0 1 351,602.9183 L351,628.4066 A2.5,2.5 0 0 1 348.5,630.9066 L233.5,630.9066 A2.5,2.5 0 0 1 231,628.4066 L231,580.43 A2.5,2.5 0 0 1 233.5,577.93 " fill="#F1F1F1" style="stroke:#181818;stroke-width:0.5;"/><line style="stroke:#181818;stroke-width:0.5;" x1="231" x2="344" y1="600.4183" y2="600.4183"/><text fill="#000000" font-family="sans-serif" font-size="14" font-weight="bold" lengthAdjust="spacing" textLength="100" x="235" y="593.4652">Value Objects</text><path d="M120.5,577.93 L179.5,577.93 A3.75,3.75 0 0 1 182,580.43 L189,600.4183 L193.5,600.4183 A2.5,2.5 0 0 1 196,602.9183 L196,628.4066 A2.5,2.5 0 0 1 193.5,630.9066 L120.5,630.9066 A2.5,2.5 0 0 1 118,628.4066 L118,580.43 A2.5,2.5 0 0 1 120.5,577.93 " fill="#F1F1F1" style="stroke:#181818;stroke-width:0.5;"/><line style="stroke:#181818;stroke-width:0.5;" x1="118" x2="189" y1="600.4183" y2="600.4183"/><text fill="#000000" font-family="sans-serif" font-size="14" font-weight="bold" lengthAdjust="spacing" textLength="58" x="122" y="593.4652">Services</text><!--link Routes to IControllers--><g id="link_Routes_IControllers"><path codeLine="79" d="M1499.56,137.16 C1505.2,168.92 1513.6908,216.7824 1519.3508,248.6524 " fill="none" id="Routes-to-IControllers" style="stroke:#FF6655;stroke-width:1.0;stroke-dasharray:7.0,7.0;"/><polygon fill="#FF6655" points="1520.4,254.56,1522.7646,244.9992,1519.5257,249.637,1514.8879,246.3981,1520.4,254.56" style="stroke:#FF6655;stroke-width:1.0;"/></g><!--reverse link IControllers to ImplControllers--><g id="link_IControllers_ImplControllers"><path codeLine="80" d="M1526.55,326.1186 C1527.68,357.8786 1528.95,393.67 1530.08,425.54 " fill="none" id="IControllers-backto-ImplControllers" style="stroke:#FF6655;stroke-width:1.0;stroke-dasharray:7.0,7.0;"/><polygon fill="none" points="1525.91,308.13,1520.5538,326.332,1532.5462,325.9053,1525.91,308.13" style="stroke:#FF6655;stroke-width:1.0;"/></g><!--link ImplControllers to IAppServices--><g id="link_ImplControllers_IAppServices"><path codeLine="81" d="M1463.69,436.41 C1345.64,409.21 1093.21,355.09 876.5,335.96 C845.07,333.18 765.86,332.42 734.5,335.96 C726.57,336.85 723.55,335.41 717,339.96 C686.28,361.29 667.4978,394.412 655.8978,420.372 " fill="none" id="ImplControllers-to-IAppServices" style="stroke:#FF6655;stroke-width:1.0;stroke-dasharray:7.0,7.0;"/><polygon fill="#FF6655" points="653.45,425.85,660.7737,419.2649,655.4898,421.285,653.4697,416.0012,653.45,425.85" style="stroke:#FF6655;stroke-width:1.0;"/></g><!--reverse link IAppServices to ImplAppServices--><g id="link_IAppServices_ImplAppServices"><path codeLine="82" d="M625.5616,409.3608 C614.2016,383.4108 600.53,361.29 570,339.96 C554.1,328.85 414.77,333.78 395.5,335.96 C387.57,336.85 384.72,335.66 378,339.96 C344.71,361.23 319.05,399.85 304.48,425.83 " fill="none" id="IAppServices-backto-ImplAppServices" style="stroke:#FF6655;stroke-width:1.0;stroke-dasharray:7.0,7.0;"/><polygon fill="none" points="632.78,425.85,631.058,406.9546,620.0652,411.7669,632.78,425.85" style="stroke:#FF6655;stroke-width:1.0;"/></g><!--reverse link IRepositories to ImplAppServices--><g id="link_IRepositories_ImplAppServices"><path codeLine="83" d="M192.26,452.45 C203.85,452.45 209.44,452.45 221.04,452.45 " fill="none" id="IRepositories-backto-ImplAppServices" style="stroke:#FF6655;stroke-width:1.0;stroke-dasharray:7.0,7.0;"/><polygon fill="#FF6655" points="186.26,452.45,195.26,456.45,191.26,452.45,195.26,448.45,186.26,452.45" style="stroke:#FF6655;stroke-width:1.0;"/></g><!--link ImplAppServices to IFileSystemStorage--><g id="link_ImplAppServices_IFileSystemStorage"><path codeLine="84" d="M360.7,452.45 C372.2,452.45 377.71,452.45 389.22,452.45 " fill="none" id="ImplAppServices-to-IFileSystemStorage" style="stroke:#FF6655;stroke-width:1.0;stroke-dasharray:7.0,7.0;"/><polygon fill="#FF6655" points="395.22,452.45,386.22,448.45,390.22,452.45,386.22,456.45,395.22,452.45" style="stroke:#FF6655;stroke-width:1.0;"/></g><!--link ImplAppServices to PlanningAdapter--><g id="link_ImplAppServices_PlanningAdapter"><path codeLine="85" d="M302.64,425.5 C316.34,398.52 341.89,357.78 378,339.96 C400.32,328.94 1249.95,338.37 1274,331.96 C1292.12,327.12 1305.3576,320.8306 1320.5776,311.4806 " fill="none" id="ImplAppServices-to-PlanningAdapter" style="stroke:#FF6655;stroke-width:1.0;stroke-dasharray:7.0,7.0;"/><polygon fill="#FF6655" points="1325.69,308.34,1315.9277,309.6427,1321.4297,310.9572,1320.1152,316.4592,1325.69,308.34" style="stroke:#FF6655;stroke-width:1.0;"/></g><!--link ImplAppServices to Aggregates--><g id="link_ImplAppServices_Aggregates"><path codeLine="86" d="M316.1,479.23 C342.84,506.7 380.7547,545.6407 407.5547,573.1707 " fill="none" id="ImplAppServices-to-Aggregates" style="stroke:#FF6655;stroke-width:1.0;stroke-dasharray:7.0,7.0;"/><polygon fill="#FF6655" points="411.74,577.47,408.3283,568.2309,408.2523,573.8873,402.5959,573.8113,411.74,577.47" style="stroke:#FF6655;stroke-width:1.0;"/></g><!--link ImplAppServices to Value Objects--><g id="link_ImplAppServices_Value Objects"><path codeLine="87" d="M291,479.23 C291,506.7 291,543.94 291,571.47 " fill="none" id="ImplAppServices-to-Value Objects" style="stroke:#FF6655;stroke-width:1.0;stroke-dasharray:7.0,7.0;"/><polygon fill="#FF6655" points="291,577.47,295,568.47,291,572.47,287,568.47,291,577.47" style="stroke:#FF6655;stroke-width:1.0;"/></g><!--link ImplAppServices to Services--><g id="link_ImplAppServices_Services"><path codeLine="88" d="M265.18,479.38 C249.72,495.15 229.87,515.87 213,534.93 C200.79,548.74 191.4752,559.9704 181.0352,572.9804 " fill="none" id="ImplAppServices-to-Services" style="stroke:#FF6655;stroke-width:1.0;stroke-dasharray:7.0,7.0;"/><polygon fill="#FF6655" points="177.28,577.66,186.0325,573.1441,180.4093,573.7603,179.793,568.1372,177.28,577.66" style="stroke:#FF6655;stroke-width:1.0;"/></g><!--reverse link dto to ImplAppServices--><g id="link_dto_ImplAppServices"><path codeLine="89" d="M546.6186,285.6593 C504.6686,290.4393 432.68,303.23 378,339.96 C345.19,362 319.24,400.41 304.49,425.89 " fill="none" id="dto-backto-ImplAppServices" style="stroke:#FF6655;stroke-width:1.0;stroke-dasharray:7.0,7.0;"/><polygon fill="#FF6655" points="552.58,284.98,543.185,282.0246,547.6121,285.5461,544.0907,289.9732,552.58,284.98" style="stroke:#FF6655;stroke-width:1.0;"/></g><!--reverse link dto to ImplControllers--><g id="link_dto_ImplControllers"><path codeLine="90" d="M617.3471,288.7619 C748.3571,312.0919 1274.27,405.73 1463.64,439.45 " fill="none" id="dto-backto-ImplControllers" style="stroke:#FF6655;stroke-width:1.0;stroke-dasharray:7.0,7.0;"/><polygon fill="#FF6655" points="611.44,287.71,619.5993,293.2259,616.3626,288.5866,621.0019,285.3498,611.44,287.71" style="stroke:#FF6655;stroke-width:1.0;"/></g><!--reverse link Persistence to Repositories--><g id="link_Persistence_Repositories"><path codeLine="91" d="M1022.1255,143.1495 C1020.2455,174.9095 1017.42,222.69 1015.53,254.56 " fill="none" id="Persistence-backto-Repositories" style="stroke:#FF6655;stroke-width:1.0;stroke-dasharray:7.0,7.0;"/><polygon fill="#FF6655" points="1022.48,137.16,1017.9552,145.9079,1022.1845,142.1513,1025.9412,146.3806,1022.48,137.16" style="stroke:#FF6655;stroke-width:1.0;"/></g><!--link Repositories to IRepositories--><g id="link_Repositories_IRepositories"><path codeLine="92" d="M958.11,291.55 C883.05,303.3 745.39,323.29 627,331.96 C603.56,333.67 224.68,328.78 204,339.96 C170.21,358.23 155.4646,382.2436 144.2446,409.0736 " fill="none" id="Repositories-to-IRepositories" style="stroke:#FF6655;stroke-width:1.0;stroke-dasharray:7.0,7.0;"/><polygon fill="none" points="137.3,425.68,149.7801,411.3885,138.7091,406.7587,137.3,425.68" style="stroke:#FF6655;stroke-width:1.0;"/></g><!--reverse link FileSystem Driver to FileSystemStorage--><g id="link_FileSystem Driver_FileSystemStorage"><path codeLine="94" d="M1183.4342,143.1591 C1182.8742,174.9191 1182.03,222.69 1181.46,254.56 " fill="none" id="FileSystem Driver-backto-FileSystemStorage" style="stroke:#FF6655;stroke-width:1.0;stroke-dasharray:7.0,7.0;"/><polygon fill="#FF6655" points="1183.54,137.16,1179.382,146.0881,1183.4519,142.1592,1187.3807,146.2291,1183.54,137.16" style="stroke:#FF6655;stroke-width:1.0;"/></g><!--link FileSystemStorage to IFileSystemStorage--><g id="link_FileSystemStorage_IFileSystemStorage"><path codeLine="95" d="M1141.97,308.28 C1125.68,317.63 1106.12,327.07 1087,331.96 C1059.17,339.06 596.02,327.78 570,339.96 C532.06,357.71 512.3972,382.9205 496.6472,409.9305 " fill="none" id="FileSystemStorage-to-IFileSystemStorage" style="stroke:#FF6655;stroke-width:1.0;stroke-dasharray:7.0,7.0;"/><polygon fill="none" points="487.58,425.48,501.8303,412.9529,491.464,406.9081,487.58,425.48" style="stroke:#FF6655;stroke-width:1.0;"/></g><!--reverse link Planning Driver to PlanningAdapter--><g id="link_Planning Driver_PlanningAdapter"><path codeLine="97" d="M1359.5658,143.1591 C1360.1258,174.9191 1360.97,222.69 1361.54,254.56 " fill="none" id="Planning Driver-backto-PlanningAdapter" style="stroke:#FF6655;stroke-width:1.0;stroke-dasharray:7.0,7.0;"/><polygon fill="#FF6655" points="1359.46,137.16,1355.6193,146.2291,1359.5481,142.1592,1363.618,146.0881,1359.46,137.16" style="stroke:#FF6655;stroke-width:1.0;"/></g><!--link PlanningAdapter to IPlanningAdapter--><g id="link_PlanningAdapter_IPlanningAdapter"><path codeLine="98" d="M1321.04,308.45 C1306.58,316.82 1289.94,325.57 1274,331.96 C1138.95,386.08 989.688,418.4368 896.108,435.7968 " fill="none" id="PlanningAdapter-to-IPlanningAdapter" style="stroke:#FF6655;stroke-width:1.0;stroke-dasharray:7.0,7.0;"/><polygon fill="none" points="878.41,439.08,897.2024,441.6962,895.0137,429.8975,878.41,439.08" style="stroke:#FF6655;stroke-width:1.0;"/></g><!--SRC=[dLLDR-CW4BtdLw3ktTKUcbDbAKqQAT9gkwfNUwVsnAN1W0RSgb__VQc_iR69caDaUzwROTuRG9-OK1HfGL9PA2b06FA-8lQtby8ax0t8ptNrVaFJKuwo5DbMSedNrnj5qqU8O_ABvOzcAv7o6YWn0no3Vkptw_NLLPVwDos0R6M9371C8m_S5lDL9Ji0bPnURtW9LNo3A5-wV8V2bZDzeEQqfJzNAni-qHo8VjK6YgRJzkF5GHoHQeDbQag4YoRiGEvbQK0FGpRh1FK7K3DRGQGGWkuPXwHUpGxPCw1BQ9yyDJWLWebybjPK6tHd08yq1RB9gBBFsjlXreg9alDHt4sr01eqwN8AnHTfIohTWvAQ6McdHP-lQ689zbFGhKR9HfQmaXkbE4kfOLAG1F2PfU3NqWAz05SOYve3BOdv7TgSZekaHK5TxrpYWh1Zo_l_ZhxxU-SLzL05g2QPaI6dReLXnlPwQOydkDp9WZBXTohF4N9wnjx-H-tPG-uUdY0rGR3Fe66ptNaIPV95HF5eQzMOoSw9IXLzd8lj4W_dfGSxKnHnE9ewzTdeU3nMSsZykYOg-7IWWfpnACqHscu7VeQWhg4XT50KwqtyDPeBtWtYxeQiWyxruOLLY_cOAb-3FVkrIJozREOPVGsFNJLjih_RzO-kfZbqNs9Yx-VgFm00]--></g></svg>