<?xml version="1.0" encoding="us-ascii" standalone="no"?><svg xmlns="http://www.w3.org/2000/svg" xmlns:xlink="http://www.w3.org/1999/xlink" contentStyleType="text/css" height="958px" preserveAspectRatio="none" style="width:578px;height:958px;background:#FFFFFF;" version="1.1" viewBox="0 0 578 958" width="578px" zoomAndPan="magnify"><defs/><g><!--cluster system--><g id="cluster_system"><rect fill="none" height="843.87" rx="2.5" ry="2.5" style="stroke:#000000;stroke-width:1.0;" width="475" x="24.24" y="109"/><rect fill="none" height="10" style="stroke:#000000;stroke-width:1.0;" width="15" x="479.24" y="114"/><rect fill="none" height="2" style="stroke:#000000;stroke-width:1.0;" width="4" x="477.24" y="116"/><rect fill="none" height="2" style="stroke:#000000;stroke-width:1.0;" width="4" x="477.24" y="120"/><text fill="#000000" font-family="Courier" font-size="16" font-weight="bold" lengthAdjust="spacing" textLength="60" x="231.74" y="136.8516">system</text></g><!--cluster Frameworks and Drivers Layer--><g id="cluster_Frameworks and Drivers Layer"><path d="M50.74,144.68 L270.74,144.68 A3.75,3.75 0 0 1 273.24,147.18 L280.24,167.1683 L372.74,167.1683 A2.5,2.5 0 0 1 375.24,169.6683 L375.24,241.81 A2.5,2.5 0 0 1 372.74,244.31 L50.74,244.31 A2.5,2.5 0 0 1 48.24,241.81 L48.24,147.18 A2.5,2.5 0 0 1 50.74,144.68 " fill="none" style="stroke:#000000;stroke-width:1.5;"/><line style="stroke:#000000;stroke-width:1.5;" x1="48.24" x2="280.24" y1="167.1683" y2="167.1683"/><text fill="#000000" font-family="sans-serif" font-size="14" font-weight="bold" lengthAdjust="spacing" textLength="219" x="52.24" y="160.2152">Frameworks and Drivers Layer</text></g><!--cluster Interface Adapters Layers--><g id="cluster_Interface Adapters Layers"><path d="M117.74,376 L301.74,376 A3.75,3.75 0 0 1 304.24,378.5 L311.24,398.4883 L459.74,398.4883 A2.5,2.5 0 0 1 462.24,400.9883 L462.24,473.12 A2.5,2.5 0 0 1 459.74,475.62 L117.74,475.62 A2.5,2.5 0 0 1 115.24,473.12 L115.24,378.5 A2.5,2.5 0 0 1 117.74,376 " fill="none" style="stroke:#000000;stroke-width:1.5;"/><line style="stroke:#000000;stroke-width:1.5;" x1="115.24" x2="311.24" y1="398.4883" y2="398.4883"/><text fill="#000000" font-family="sans-serif" font-size="14" font-weight="bold" lengthAdjust="spacing" textLength="183" x="119.24" y="391.5352">Interface Adapters Layers</text></g><!--cluster Application Business Rules--><g id="cluster_Application Business Rules"><path d="M133.74,602.62 L330.74,602.62 A3.75,3.75 0 0 1 333.24,605.12 L340.24,625.1083 L390.74,625.1083 A2.5,2.5 0 0 1 393.24,627.6083 L393.24,699.75 A2.5,2.5 0 0 1 390.74,702.25 L133.74,702.25 A2.5,2.5 0 0 1 131.24,699.75 L131.24,605.12 A2.5,2.5 0 0 1 133.74,602.62 " fill="none" style="stroke:#000000;stroke-width:1.5;"/><line style="stroke:#000000;stroke-width:1.5;" x1="131.24" x2="340.24" y1="625.1083" y2="625.1083"/><text fill="#000000" font-family="sans-serif" font-size="14" font-weight="bold" lengthAdjust="spacing" textLength="196" x="135.24" y="618.1552">Application Business Rules</text></g><!--cluster Enterprise Business Rules--><g id="cluster_Enterprise Business Rules"><path d="M73.74,829.25 L261.74,829.25 A3.75,3.75 0 0 1 264.24,831.75 L271.24,851.7383 L320.74,851.7383 A2.5,2.5 0 0 1 323.24,854.2383 L323.24,926.37 A2.5,2.5 0 0 1 320.74,928.87 L73.74,928.87 A2.5,2.5 0 0 1 71.24,926.37 L71.24,831.75 A2.5,2.5 0 0 1 73.74,829.25 " fill="none" style="stroke:#000000;stroke-width:1.5;"/><line style="stroke:#000000;stroke-width:1.5;" x1="71.24" x2="271.24" y1="851.7383" y2="851.7383"/><text fill="#000000" font-family="sans-serif" font-size="14" font-weight="bold" lengthAdjust="spacing" textLength="187" x="75.24" y="844.7852">Enterprise Business Rules</text></g><text fill="#000000" font-family="sans-serif" font-size="14" lengthAdjust="spacing" textLength="4" x="366.24" y="88.0469">&#160;</text><rect fill="#F1F1F1" height="12" style="stroke:#181818;stroke-width:1.5;" width="12" x="362.24" y="103"/><text fill="#000000" font-family="sans-serif" font-size="14" lengthAdjust="spacing" textLength="4" x="497.24" y="301.0469">&#160;</text><rect fill="#F1F1F1" height="12" style="stroke:#181818;stroke-width:1.5;" width="12" x="493.24" y="316"/><!--entity Data Model API--><g id="elem_Data Model API"><ellipse cx="99.24" cy="322" fill="#F1F1F1" rx="8" ry="8" style="stroke:#181818;stroke-width:0.5;"/><text fill="#000000" font-family="sans-serif" font-size="14" lengthAdjust="spacing" textLength="103" x="47.74" y="352.5352">Data Model API</text></g><!--entity Persistence API--><g id="elem_Persistence API"><ellipse cx="252.24" cy="322" fill="#F1F1F1" rx="8" ry="8" style="stroke:#181818;stroke-width:0.5;"/><text fill="#000000" font-family="sans-serif" font-size="14" lengthAdjust="spacing" textLength="103" x="200.74" y="352.5352">Persistence API</text></g><!--entity Controller API--><g id="elem_Controller API"><ellipse cx="402.24" cy="322" fill="#F1F1F1" rx="8" ry="8" style="stroke:#181818;stroke-width:0.5;"/><text fill="#000000" font-family="sans-serif" font-size="14" lengthAdjust="spacing" textLength="96" x="354.24" y="352.5352">Controller API</text></g><!--entity App Service API--><g id="elem_App Service API"><ellipse cx="408.24" cy="548.62" fill="#F1F1F1" rx="8" ry="8" style="stroke:#181818;stroke-width:0.5;"/><text fill="#000000" font-family="sans-serif" font-size="14" lengthAdjust="spacing" textLength="106" x="355.24" y="579.1552">App Service API</text></g><!--entity DTO API--><g id="elem_DTO API"><ellipse cx="303.24" cy="548.62" fill="#F1F1F1" rx="8" ry="8" style="stroke:#181818;stroke-width:0.5;"/><text fill="#000000" font-family="sans-serif" font-size="14" lengthAdjust="spacing" textLength="56" x="275.24" y="579.1552">DTO API</text></g><!--entity DTO--><g id="elem_DTO"><rect fill="#F1F1F1" height="48.625" rx="2.5" ry="2.5" style="stroke:#000000;stroke-width:0.5;" width="70" x="78.24" y="524.31"/><rect fill="#F1F1F1" height="10" style="stroke:#000000;stroke-width:0.5;" width="15" x="128.24" y="529.31"/><rect fill="#F1F1F1" height="2" style="stroke:#000000;stroke-width:0.5;" width="4" x="126.24" y="531.31"/><rect fill="#F1F1F1" height="2" style="stroke:#000000;stroke-width:0.5;" width="4" x="126.24" y="535.31"/><text fill="#000000" font-family="Courier" font-size="16" lengthAdjust="spacing" textLength="30" x="93.24" y="559.1616">DTO</text></g><!--entity Repo API--><g id="elem_Repo API"><ellipse cx="221.24" cy="548.62" fill="#F1F1F1" rx="8" ry="8" style="stroke:#181818;stroke-width:0.5;"/><text fill="#000000" font-family="sans-serif" font-size="14" lengthAdjust="spacing" textLength="61" x="190.74" y="579.1552">Repo API</text></g><!--entity Model API--><g id="elem_Model API"><ellipse cx="197.24" cy="775.25" fill="#F1F1F1" rx="8" ry="8" style="stroke:#181818;stroke-width:0.5;"/><text fill="#000000" font-family="sans-serif" font-size="14" lengthAdjust="spacing" textLength="68" x="163.24" y="805.7852">Model API</text></g><!--entity Routing--><g id="elem_Routing"><rect fill="#F1F1F1" height="48.625" rx="2.5" ry="2.5" style="stroke:#000000;stroke-width:0.5;" width="110" x="249.24" y="179.68"/><rect fill="#F1F1F1" height="10" style="stroke:#000000;stroke-width:0.5;" width="15" x="339.24" y="184.68"/><rect fill="#F1F1F1" height="2" style="stroke:#000000;stroke-width:0.5;" width="4" x="337.24" y="186.68"/><rect fill="#F1F1F1" height="2" style="stroke:#000000;stroke-width:0.5;" width="4" x="337.24" y="190.68"/><text fill="#000000" font-family="Courier" font-size="16" lengthAdjust="spacing" textLength="70" x="264.24" y="214.5316">Routing</text></g><!--entity Persistence--><g id="elem_Persistence"><rect fill="#F1F1F1" height="48.625" rx="2.5" ry="2.5" style="stroke:#000000;stroke-width:0.5;" width="150" x="64.24" y="179.68"/><rect fill="#F1F1F1" height="10" style="stroke:#000000;stroke-width:0.5;" width="15" x="194.24" y="184.68"/><rect fill="#F1F1F1" height="2" style="stroke:#000000;stroke-width:0.5;" width="4" x="192.24" y="186.68"/><rect fill="#F1F1F1" height="2" style="stroke:#000000;stroke-width:0.5;" width="4" x="192.24" y="190.68"/><text fill="#000000" font-family="Courier" font-size="16" lengthAdjust="spacing" textLength="110" x="79.24" y="214.5316">Persistence</text></g><!--entity Controller--><g id="elem_Controller"><rect fill="#F1F1F1" height="48.625" rx="2.5" ry="2.5" style="stroke:#000000;stroke-width:0.5;" width="140" x="306.24" y="411"/><rect fill="#F1F1F1" height="10" style="stroke:#000000;stroke-width:0.5;" width="15" x="426.24" y="416"/><rect fill="#F1F1F1" height="2" style="stroke:#000000;stroke-width:0.5;" width="4" x="424.24" y="418"/><rect fill="#F1F1F1" height="2" style="stroke:#000000;stroke-width:0.5;" width="4" x="424.24" y="422"/><text fill="#000000" font-family="Courier" font-size="16" lengthAdjust="spacing" textLength="100" x="321.24" y="445.8516">Controller</text></g><!--entity Repository--><g id="elem_Repository"><rect fill="#F1F1F1" height="48.625" rx="2.5" ry="2.5" style="stroke:#000000;stroke-width:0.5;" width="140" x="131.24" y="411"/><rect fill="#F1F1F1" height="10" style="stroke:#000000;stroke-width:0.5;" width="15" x="251.24" y="416"/><rect fill="#F1F1F1" height="2" style="stroke:#000000;stroke-width:0.5;" width="4" x="249.24" y="418"/><rect fill="#F1F1F1" height="2" style="stroke:#000000;stroke-width:0.5;" width="4" x="249.24" y="422"/><text fill="#000000" font-family="Courier" font-size="16" lengthAdjust="spacing" textLength="100" x="146.24" y="445.8516">Repository</text></g><!--entity Application Service--><g id="elem_Application Service"><rect fill="#F1F1F1" height="48.625" rx="2.5" ry="2.5" style="stroke:#000000;stroke-width:0.5;" width="230" x="147.24" y="637.62"/><rect fill="#F1F1F1" height="10" style="stroke:#000000;stroke-width:0.5;" width="15" x="357.24" y="642.62"/><rect fill="#F1F1F1" height="2" style="stroke:#000000;stroke-width:0.5;" width="4" x="355.24" y="644.62"/><rect fill="#F1F1F1" height="2" style="stroke:#000000;stroke-width:0.5;" width="4" x="355.24" y="648.62"/><text fill="#000000" font-family="Courier" font-size="16" lengthAdjust="spacing" textLength="190" x="162.24" y="672.4716">Application&#160;Service</text></g><!--entity Domain Model (DDD)--><g id="elem_Domain Model (DDD)"><rect fill="#F1F1F1" height="48.625" rx="2.5" ry="2.5" style="stroke:#000000;stroke-width:0.5;" width="220" x="87.24" y="864.25"/><rect fill="#F1F1F1" height="10" style="stroke:#000000;stroke-width:0.5;" width="15" x="287.24" y="869.25"/><rect fill="#F1F1F1" height="2" style="stroke:#000000;stroke-width:0.5;" width="4" x="285.24" y="871.25"/><rect fill="#F1F1F1" height="2" style="stroke:#000000;stroke-width:0.5;" width="4" x="285.24" y="875.25"/><text fill="#000000" font-family="Courier" font-size="16" lengthAdjust="spacing" textLength="180" x="102.24" y="899.1016">Domain&#160;Model&#160;(DDD)</text></g><!--entity FS API--><g id="elem_FS API"><ellipse cx="550.24" cy="204" fill="#F1F1F1" rx="8" ry="8" style="stroke:#181818;stroke-width:0.5;"/><text fill="#000000" font-family="sans-serif" font-size="14" lengthAdjust="spacing" textLength="42" x="529.24" y="234.5352">FS API</text></g><!--entity MDR API--><g id="elem_MDR API"><ellipse cx="368.24" cy="14" fill="#F1F1F1" rx="8" ry="8" style="stroke:#181818;stroke-width:0.5;"/><text fill="#000000" font-family="sans-serif" font-size="14" lengthAdjust="spacing" textLength="57" x="339.74" y="44.5352">MDR API</text></g><!--link Routing to port1--><g id="link_Routing_port1"><path d="M320.62,179.19 C335.49,157.59 356.31,127.33 364.62,115.26 " fill="none" id="Routing-port1" style="stroke:#FF6655;stroke-width:1.0;"/></g><!--link Persistence to Data Model API--><g id="link_Persistence_Data Model API"><path d="M131.05,228.75 C121.95,255.13 111.0389,286.7859 105.1789,303.7859 " fill="none" id="Persistence-to-Data Model API" style="stroke:#FF6655;stroke-width:1.0;"/><path d="M110.9187,313.086 A9,9 0 0 0 94.9276 307.5738" fill="none" style="stroke:#FF6655;stroke-width:1.5;"/></g><!--link Persistence to Persistence API--><g id="link_Persistence_Persistence API"><path d="M162.38,228.75 C188.08,255.13 228.12,296.24 244.68,313.24 " fill="none" id="Persistence-Persistence API" style="stroke:#FF6655;stroke-width:1.0;"/></g><!--link Controller API to Controller--><g id="link_Controller API_Controller"><path d="M400.45,330.65 C396.64,346.95 387.59,385.7 381.7,410.93 " fill="none" id="Controller API-Controller" style="stroke:#FF6655;stroke-width:1.0;"/></g><!--link Routing to Controller API--><g id="link_Routing_Controller API"><path d="M324.31,228.75 C346.6,255.13 374.867,288.6007 389.227,305.6007 " fill="none" id="Routing-to-Controller API" style="stroke:#FF6655;stroke-width:1.0;"/><path d="M400.1544,305.431 A9,9 0 0 0 387.2329 316.3459" fill="none" style="stroke:#FF6655;stroke-width:1.5;"/></g><!--link Data Model API to Repository--><g id="link_Data Model API_Repository"><path d="M106.25,330.65 C121.19,346.95 156.7,385.7 179.81,410.93 " fill="none" id="Data Model API-Repository" style="stroke:#FF6655;stroke-width:1.0;"/></g><!--reverse link Persistence API to Repository--><g id="link_Persistence API_Repository"><path d="M244.5638,339.7408 C237.0938,356.0408 223.51,385.7 211.95,410.93 " fill="none" id="Persistence API-backto-Repository" style="stroke:#FF6655;stroke-width:1.0;"/><path d="M239.7593,329.9249 A9,9 0 0 0 255.1359 336.9717" fill="none" style="stroke:#FF6655;stroke-width:1.5;"/></g><!--link Controller to App Service API--><g id="link_Controller_App Service API"><path d="M383.03,459.91 C390.29,485.19 398.6387,514.2188 403.2987,530.4388 " fill="none" id="Controller-to-App Service API" style="stroke:#FF6655;stroke-width:1.0;"/><path d="M413.3384,534.7562 A9,9 0 0 0 397.0816 539.4268" fill="none" style="stroke:#FF6655;stroke-width:1.5;"/></g><!--link Controller to DTO API--><g id="link_Controller_DTO API"><path d="M360.76,459.91 C344.44,484.8 325.0954,514.2987 314.1854,530.9287 " fill="none" id="Controller-to-DTO API" style="stroke:#FF6655;stroke-width:1.0;"/><path d="M317.4598,541.3553 A9,9 0 0 0 303.3172 532.0772" fill="none" style="stroke:#FF6655;stroke-width:1.5;"/></g><!--link DTO to DTO API--><g id="link_DTO_DTO API"><path d="M141.32,524.03 C153.25,515.15 167.84,506.19 182.74,501.62 C215.04,491.72 227.63,488.47 258.74,501.62 C276.54,509.14 290.51,527.77 297.76,539.19 " fill="none" id="DTO-DTO API" style="stroke:#FF6655;stroke-width:1.0;"/></g><!--link App Service API to Application Service--><g id="link_App Service API_Application Service"><path d="M399.54,556.25 C379.1,571.84 327.17,611.43 293.36,637.21 " fill="none" id="App Service API-Application Service" style="stroke:#FF6655;stroke-width:1.0;"/></g><!--reverse link DTO API to Application Service--><g id="link_DTO API_Application Service"><path d="M296.7006,567.3726 C290.5506,584.0526 280.04,612.61 270.88,637.48 " fill="none" id="DTO API-backto-Application Service" style="stroke:#FF6655;stroke-width:1.0;"/><path d="M291.1601,557.9524 A9,9 0 0 0 307.0302 563.8038" fill="none" style="stroke:#FF6655;stroke-width:1.5;"/></g><!--link Repository to Repo API--><g id="link_Repository_Repo API"><path d="M205.48,459.91 C210.02,485.19 216.97,523.83 219.88,540.05 " fill="none" id="Repository-Repo API" style="stroke:#FF6655;stroke-width:1.0;"/></g><!--reverse link Repo API to Application Service--><g id="link_Repo API_Application Service"><path d="M227.5125,566.6551 C233.5125,582.9651 244.34,612.32 253.63,637.55 " fill="none" id="Repo API-backto-Application Service" style="stroke:#FF6655;stroke-width:1.0;"/><path d="M217.1855,563.0788 A9,9 0 0 0 233.0599 557.239" fill="none" style="stroke:#FF6655;stroke-width:1.5;"/></g><!--link Repository to Model API--><g id="link_Repository_Model API"><path d="M132.31,459.95 C105.14,473.04 76.76,492.33 61.24,519.62 C6,616.77 142.3049,731.7426 180.3949,761.3526 " fill="none" id="Repository-to-Model API" style="stroke:#FF6655;stroke-width:1.0;"/><path d="M191.0503,758.9237 A9,9 0 0 0 180.6692 772.2779" fill="none" style="stroke:#FF6655;stroke-width:1.5;"/></g><!--link Application Service to Model API--><g id="link_Application Service_Model API"><path d="M248.46,686.54 C233.7,711.81 216.1743,741.8255 206.7043,758.0355 " fill="none" id="Application Service-to-Model API" style="stroke:#FF6655;stroke-width:1.0;"/><path d="M210.5151,768.2783 A9,9 0 0 0 195.9103 759.746" fill="none" style="stroke:#FF6655;stroke-width:1.5;"/></g><!--link Model API to Domain Model (DDD)--><g id="link_Model API_Domain Model (DDD)"><path d="M197.24,783.9 C197.24,800.2 197.24,838.95 197.24,864.18 " fill="none" id="Model API-Domain Model (DDD)" style="stroke:#FF6655;stroke-width:1.0;"/></g><!--link FS API to port2--><g id="link_FS API_port2"><path d="M546.73,212.97 C537.01,235.08 509.88,296.78 501.64,315.53 " fill="none" id="FS API-port2" style="stroke:#FF6655;stroke-width:1.0;"/></g><!--link MDR API to port1--><g id="link_MDR API_port1"><path d="M368.24,22.92 C368.24,41.37 368.24,86.8 368.24,102.53 " fill="none" id="MDR API-port1" style="stroke:#FF6655;stroke-width:1.0;"/></g><!--SRC=[ZPHDRwCm48Rl_8eHUqaF7B9IqqjLYOP5YjGl9RsjUl32DBK27ZGsZRAh_lTrWWE6TLSr9y-yyyoNXTv9rGWMDHHKDwHG6VWJWJqvAREHln7cYzFzLXIxBLEhoYLLnDVNQIEADxovWJkvVJDBOb5rGk8IUIhwbkUBnULbZtuGDSAIMfR8qp3uLTba9slAJFjUlwejpWoEJksZUxrpNPrEz155qT2WFcY3jUlJ4dTYYn3dTWgu9zvf4Ag4ZEKxieOxSK2EdVXuVgwfDL9jNmRBanLAorG5TbQRRyHUAOFyAWg4j1IDwRbw15xQkfcg2jbZhx4XBGtn8OnEcwQIXJ2I5DosMYhK6jPjXMEsBziWlylFIlrnBBLXgV5_k8ng8HNSKuaLpB8iknZJYEs88BQVqAVRlBVRwVcExrr4FrL84YzWD5hhca6S2IDSulHf5GTb47k6JXPDHmn9srZXOF5mGp4bxTKnwrGMJPVZSC7gfhBPr-exvxQxE-_CWmQbsVEZX-kla5JuQXAxj-V75vSgz29S4-64dmRuUV_jr_AEzo-21ca0TUvoEjymCAGCl5lNiwUqluiutxZ19UwLnlVPUcIQHty1]--></g></svg>