<?xml version="1.0" encoding="us-ascii" standalone="no"?><svg xmlns="http://www.w3.org/2000/svg" xmlns:xlink="http://www.w3.org/1999/xlink" contentStyleType="text/css" height="817px" preserveAspectRatio="none" style="width:1208px;height:817px;background:#FFFFFF;" version="1.1" viewBox="0 0 1208 817" width="1208px" zoomAndPan="magnify"><defs/><g><rect fill="#FFFFFF" height="643.5676" style="stroke:#181818;stroke-width:1.0;" width="10" x="205" y="91.8419"/><rect fill="#FFFFFF" height="580.1556" style="stroke:#181818;stroke-width:1.0;" width="10" x="365" y="123.5479"/><rect fill="#FFFFFF" height="453.6077" style="stroke:#181818;stroke-width:1.0;" width="10" x="573" y="218.3897"/><rect fill="#FFFFFF" height="61.706" style="stroke:#181818;stroke-width:1.0;" width="10" x="763.5" y="452.0375"/><rect fill="#FFFFFF" height="30" style="stroke:#181818;stroke-width:1.0;" width="10" x="853" y="483.7435"/><rect fill="#FFFFFF" height="94.8419" style="stroke:#181818;stroke-width:1.0;" width="10" x="933.5" y="545.4496"/><rect fill="#FFFFFF" height="53.1358" style="stroke:#181818;stroke-width:1.0;" width="10" x="1119" y="587.1556"/><rect fill="none" height="446.8839" style="stroke:#000000;stroke-width:1.5;" width="1198.5" x="3" y="296.5256"/><line style="stroke:#181818;stroke-width:0.5;stroke-dasharray:5.0,5.0;" x1="209.5" x2="209.5" y1="58.1358" y2="760.4095"/><line style="stroke:#181818;stroke-width:0.5;stroke-dasharray:5.0,5.0;" x1="369.5" x2="369.5" y1="58.1358" y2="760.4095"/><line style="stroke:#181818;stroke-width:0.5;stroke-dasharray:5.0,5.0;" x1="496" x2="496" y1="173.1158" y2="760.4095"/><line style="stroke:#181818;stroke-width:0.5;stroke-dasharray:5.0,5.0;" x1="578" x2="578" y1="58.1358" y2="760.4095"/><line style="stroke:#181818;stroke-width:0.5;stroke-dasharray:5.0,5.0;" x1="689" x2="689" y1="267.9576" y2="760.4095"/><line style="stroke:#181818;stroke-width:0.5;stroke-dasharray:5.0,5.0;" x1="768" x2="768" y1="58.1358" y2="760.4095"/><line style="stroke:#181818;stroke-width:0.5;stroke-dasharray:5.0,5.0;" x1="858" x2="858" y1="58.1358" y2="760.4095"/><line style="stroke:#181818;stroke-width:0.5;stroke-dasharray:5.0,5.0;" x1="938" x2="938" y1="58.1358" y2="760.4095"/><line style="stroke:#181818;stroke-width:0.5;stroke-dasharray:5.0,5.0;" x1="1123.5" x2="1123.5" y1="595.0175" y2="760.4095"/><rect fill="#E2E2F0" height="33.0679" rx="2.5" ry="2.5" style="stroke:#181818;stroke-width:0.5;" width="53" x="183.5" y="24.0679"/><text fill="#000000" font-family="sans-serif" font-size="14" lengthAdjust="spacing" textLength="39" x="190.5" y="46.0339">Route</text><rect fill="#E2E2F0" height="33.0679" rx="2.5" ry="2.5" style="stroke:#181818;stroke-width:0.5;" width="53" x="183.5" y="759.4095"/><text fill="#000000" font-family="sans-serif" font-size="14" lengthAdjust="spacing" textLength="39" x="190.5" y="781.3754">Route</text><rect fill="#E2E2F0" height="33.0679" rx="2.5" ry="2.5" style="stroke:#181818;stroke-width:0.5;" width="81" x="329.5" y="24.0679"/><text fill="#000000" font-family="sans-serif" font-size="14" lengthAdjust="spacing" textLength="67" x="336.5" y="46.0339">Controller</text><rect fill="#E2E2F0" height="33.0679" rx="2.5" ry="2.5" style="stroke:#181818;stroke-width:0.5;" width="81" x="329.5" y="759.4095"/><text fill="#000000" font-family="sans-serif" font-size="14" lengthAdjust="spacing" textLength="67" x="336.5" y="781.3754">Controller</text><rect fill="#E2E2F0" height="52.1358" rx="2.5" ry="2.5" style="stroke:#181818;stroke-width:0.5;" width="82" x="455" y="759.4095"/><text fill="#000000" font-family="sans-serif" font-size="14" lengthAdjust="spacing" textLength="26" x="483" y="781.3754">dto:</text><text fill="#000000" font-family="sans-serif" font-size="14" lengthAdjust="spacing" textLength="68" x="462" y="800.4433">ClientDTO</text><rect fill="#E2E2F0" height="33.0679" rx="2.5" ry="2.5" style="stroke:#181818;stroke-width:0.5;" width="62" x="547" y="24.0679"/><text fill="#000000" font-family="sans-serif" font-size="14" lengthAdjust="spacing" textLength="48" x="554" y="46.0339">Service</text><rect fill="#E2E2F0" height="33.0679" rx="2.5" ry="2.5" style="stroke:#181818;stroke-width:0.5;" width="62" x="547" y="759.4095"/><text fill="#000000" font-family="sans-serif" font-size="14" lengthAdjust="spacing" textLength="48" x="554" y="781.3754">Service</text><rect fill="#E2E2F0" height="52.1358" rx="2.5" ry="2.5" style="stroke:#181818;stroke-width:0.5;" width="53" x="663" y="759.4095"/><text fill="#000000" font-family="sans-serif" font-size="14" lengthAdjust="spacing" textLength="34" x="672.5" y="781.3754">user:</text><text fill="#000000" font-family="sans-serif" font-size="14" lengthAdjust="spacing" textLength="39" x="670" y="800.4433">Client</text><rect fill="#E2E2F0" height="33.0679" rx="2.5" ry="2.5" style="stroke:#181818;stroke-width:0.5;" width="85" x="726" y="24.0679"/><text fill="#000000" font-family="sans-serif" font-size="14" lengthAdjust="spacing" textLength="71" x="733" y="46.0339">Repository</text><rect fill="#E2E2F0" height="33.0679" rx="2.5" ry="2.5" style="stroke:#181818;stroke-width:0.5;" width="85" x="726" y="759.4095"/><text fill="#000000" font-family="sans-serif" font-size="14" lengthAdjust="spacing" textLength="71" x="733" y="781.3754">Repository</text><rect fill="#E2E2F0" height="33.0679" rx="2.5" ry="2.5" style="stroke:#181818;stroke-width:0.5;" width="74" x="821" y="24.0679"/><text fill="#000000" font-family="sans-serif" font-size="14" lengthAdjust="spacing" textLength="60" x="828" y="46.0339">DBDriver</text><rect fill="#E2E2F0" height="33.0679" rx="2.5" ry="2.5" style="stroke:#181818;stroke-width:0.5;" width="74" x="821" y="759.4095"/><text fill="#000000" font-family="sans-serif" font-size="14" lengthAdjust="spacing" textLength="60" x="828" y="781.3754">DBDriver</text><rect fill="#E2E2F0" height="33.0679" rx="2.5" ry="2.5" style="stroke:#181818;stroke-width:0.5;" width="67" x="905" y="24.0679"/><text fill="#000000" font-family="sans-serif" font-size="14" lengthAdjust="spacing" textLength="53" x="912" y="46.0339">Mapper</text><rect fill="#E2E2F0" height="33.0679" rx="2.5" ry="2.5" style="stroke:#181818;stroke-width:0.5;" width="67" x="905" y="759.4095"/><text fill="#000000" font-family="sans-serif" font-size="14" lengthAdjust="spacing" textLength="53" x="912" y="781.3754">Mapper</text><rect fill="#E2E2F0" height="52.1358" rx="2.5" ry="2.5" style="stroke:#181818;stroke-width:0.5;" width="135" x="1056.5" y="759.4095"/><text fill="#000000" font-family="sans-serif" font-size="14" lengthAdjust="spacing" textLength="78" x="1085" y="781.3754">createdDto:</text><text fill="#000000" font-family="sans-serif" font-size="14" lengthAdjust="spacing" textLength="121" x="1063.5" y="800.4433">CreatedClientDTO</text><rect fill="#FFFFFF" height="643.5676" style="stroke:#181818;stroke-width:1.0;" width="10" x="205" y="91.8419"/><rect fill="#FFFFFF" height="580.1556" style="stroke:#181818;stroke-width:1.0;" width="10" x="365" y="123.5479"/><rect fill="#FFFFFF" height="453.6077" style="stroke:#181818;stroke-width:1.0;" width="10" x="573" y="218.3897"/><rect fill="#FFFFFF" height="61.706" style="stroke:#181818;stroke-width:1.0;" width="10" x="763.5" y="452.0375"/><rect fill="#FFFFFF" height="30" style="stroke:#181818;stroke-width:1.0;" width="10" x="853" y="483.7435"/><rect fill="#FFFFFF" height="94.8419" style="stroke:#181818;stroke-width:1.0;" width="10" x="933.5" y="545.4496"/><rect fill="#FFFFFF" height="53.1358" style="stroke:#181818;stroke-width:1.0;" width="10" x="1119" y="587.1556"/><polygon fill="#181818" points="193,87.8419,203,91.8419,193,95.8419,197,91.8419" style="stroke:#181818;stroke-width:1.0;"/><line style="stroke:#181818;stroke-width:1.0;" x1="0" x2="199" y1="91.8419" y2="91.8419"/><text fill="#000000" font-family="sans-serif" font-size="13" font-weight="bold" lengthAdjust="spacing" textLength="7" x="7" y="86.0328">1</text><text fill="#000000" font-family="sans-serif" font-size="13" lengthAdjust="spacing" textLength="78" x="18" y="86.0328">POST /clients</text><polygon fill="#181818" points="353,119.5479,363,123.5479,353,127.5479,357,123.5479" style="stroke:#181818;stroke-width:1.0;"/><line style="stroke:#181818;stroke-width:1.0;" x1="215" x2="359" y1="123.5479" y2="123.5479"/><text fill="#000000" font-family="sans-serif" font-size="13" font-weight="bold" lengthAdjust="spacing" textLength="7" x="222" y="117.7389">2</text><text fill="#000000" font-family="sans-serif" font-size="13" lengthAdjust="spacing" textLength="120" x="233" y="117.7389">createClient(req,res)</text><polygon fill="#181818" points="443,151.2539,453,155.2539,443,159.2539,447,155.2539" style="stroke:#181818;stroke-width:1.0;"/><line style="stroke:#181818;stroke-width:1.0;stroke-dasharray:2.0,2.0;" x1="375" x2="449" y1="155.2539" y2="155.2539"/><text fill="#000000" font-family="sans-serif" font-size="13" font-weight="bold" lengthAdjust="spacing" textLength="7" x="382" y="149.4449">3</text><text fill="#000000" font-family="sans-serif" font-size="13" lengthAdjust="spacing" textLength="45" x="393" y="149.4449">create()</text><rect fill="#E2E2F0" height="52.1358" rx="2.5" ry="2.5" style="stroke:#181818;stroke-width:0.5;" width="82" x="455" y="131.5479"/><text fill="#000000" font-family="sans-serif" font-size="14" lengthAdjust="spacing" textLength="26" x="483" y="153.5138">dto:</text><text fill="#000000" font-family="sans-serif" font-size="14" lengthAdjust="spacing" textLength="68" x="462" y="172.5817">ClientDTO</text><polygon fill="#181818" points="561,214.3897,571,218.3897,561,222.3897,565,218.3897" style="stroke:#181818;stroke-width:1.0;"/><line style="stroke:#181818;stroke-width:1.0;" x1="375" x2="567" y1="218.3897" y2="218.3897"/><text fill="#000000" font-family="sans-serif" font-size="13" font-weight="bold" lengthAdjust="spacing" textLength="7" x="382" y="212.5807">4</text><text fill="#000000" font-family="sans-serif" font-size="13" lengthAdjust="spacing" textLength="100" x="393" y="212.5807">createClient(dto)</text><polygon fill="#181818" points="651,246.0957,661,250.0957,651,254.0957,655,250.0957" style="stroke:#181818;stroke-width:1.0;"/><line style="stroke:#181818;stroke-width:1.0;stroke-dasharray:2.0,2.0;" x1="583" x2="657" y1="250.0957" y2="250.0957"/><text fill="#000000" font-family="sans-serif" font-size="13" font-weight="bold" lengthAdjust="spacing" textLength="7" x="590" y="244.2867">5</text><text fill="#000000" font-family="sans-serif" font-size="13" lengthAdjust="spacing" textLength="45" x="601" y="244.2867">create()</text><rect fill="#E2E2F0" height="52.1358" rx="2.5" ry="2.5" style="stroke:#181818;stroke-width:0.5;" width="53" x="663" y="226.3897"/><text fill="#000000" font-family="sans-serif" font-size="14" lengthAdjust="spacing" textLength="34" x="672.5" y="248.3557">user:</text><text fill="#000000" font-family="sans-serif" font-size="14" lengthAdjust="spacing" textLength="39" x="670" y="267.4236">Client</text><path d="M3,296.5256 L66,296.5256 L66,306.2316 L56,316.2316 L3,316.2316 L3,296.5256 " fill="#EEEEEE" style="stroke:#000000;stroke-width:1.5;"/><rect fill="none" height="446.8839" style="stroke:#000000;stroke-width:1.5;" width="1198.5" x="3" y="296.5256"/><text fill="#000000" font-family="sans-serif" font-size="13" font-weight="bold" lengthAdjust="spacing" textLength="18" x="18" y="311.4226">alt</text><text fill="#000000" font-family="sans-serif" font-size="11" font-weight="bold" lengthAdjust="spacing" textLength="101" x="81" y="310.2845">[user not created]</text><polygon fill="#181818" points="386,335.9376,376,339.9376,386,343.9376,382,339.9376" style="stroke:#181818;stroke-width:1.0;"/><line style="stroke:#181818;stroke-width:1.0;stroke-dasharray:2.0,2.0;" x1="380" x2="572" y1="339.9376" y2="339.9376"/><text fill="#000000" font-family="sans-serif" font-size="13" font-weight="bold" lengthAdjust="spacing" textLength="7" x="392" y="334.1286">6</text><text fill="#000000" font-family="sans-serif" font-size="13" lengthAdjust="spacing" textLength="30" x="403" y="334.1286">error</text><polygon fill="#181818" points="226,367.6436,216,371.6436,226,375.6436,222,371.6436" style="stroke:#181818;stroke-width:1.0;"/><line style="stroke:#181818;stroke-width:1.0;stroke-dasharray:2.0,2.0;" x1="220" x2="364" y1="371.6436" y2="371.6436"/><text fill="#000000" font-family="sans-serif" font-size="13" font-weight="bold" lengthAdjust="spacing" textLength="7" x="232" y="365.8346">7</text><text fill="#000000" font-family="sans-serif" font-size="13" lengthAdjust="spacing" textLength="62" x="243" y="365.8346">error (422)</text><polygon fill="#181818" points="11,399.3496,1,403.3496,11,407.3496,7,403.3496" style="stroke:#181818;stroke-width:1.0;"/><line style="stroke:#181818;stroke-width:1.0;stroke-dasharray:2.0,2.0;" x1="5" x2="204" y1="403.3496" y2="403.3496"/><text fill="#000000" font-family="sans-serif" font-size="13" font-weight="bold" lengthAdjust="spacing" textLength="7" x="17" y="397.5406">8</text><text fill="#000000" font-family="sans-serif" font-size="13" lengthAdjust="spacing" textLength="168" x="28" y="397.5406">422: Unprocessable Content</text><line style="stroke:#000000;stroke-width:1.0;stroke-dasharray:2.0,2.0;" x1="3" x2="1201.5" y1="412.3496" y2="412.3496"/><text fill="#000000" font-family="sans-serif" font-size="11" font-weight="bold" lengthAdjust="spacing" textLength="146" x="8" y="424.1085">[user created successfully]</text><polygon fill="#181818" points="751.5,448.0375,761.5,452.0375,751.5,456.0375,755.5,452.0375" style="stroke:#181818;stroke-width:1.0;"/><line style="stroke:#181818;stroke-width:1.0;" x1="583" x2="757.5" y1="452.0375" y2="452.0375"/><text fill="#000000" font-family="sans-serif" font-size="13" font-weight="bold" lengthAdjust="spacing" textLength="7" x="590" y="446.2285">9</text><text fill="#000000" font-family="sans-serif" font-size="13" lengthAdjust="spacing" textLength="61" x="601" y="446.2285">save(user)</text><polygon fill="#181818" points="841,479.7435,851,483.7435,841,487.7435,845,483.7435" style="stroke:#181818;stroke-width:1.0;"/><line style="stroke:#181818;stroke-width:1.0;" x1="773.5" x2="847" y1="483.7435" y2="483.7435"/><text fill="#000000" font-family="sans-serif" font-size="13" font-weight="bold" lengthAdjust="spacing" textLength="14" x="780.5" y="477.9345">10</text><text fill="#000000" font-family="sans-serif" font-size="13" lengthAdjust="spacing" textLength="27" x="798.5" y="477.9345">save</text><polygon fill="#181818" points="921.5,541.4496,931.5,545.4496,921.5,549.4496,925.5,545.4496" style="stroke:#181818;stroke-width:1.0;"/><line style="stroke:#181818;stroke-width:1.0;" x1="583" x2="927.5" y1="545.4496" y2="545.4496"/><text fill="#000000" font-family="sans-serif" font-size="13" font-weight="bold" lengthAdjust="spacing" textLength="14" x="590" y="539.6406">11</text><text fill="#000000" font-family="sans-serif" font-size="13" lengthAdjust="spacing" textLength="73" x="608" y="539.6406">toDTO(user)</text><polygon fill="#181818" points="1044.5,573.1556,1054.5,577.1556,1044.5,581.1556,1048.5,577.1556" style="stroke:#181818;stroke-width:1.0;"/><line style="stroke:#181818;stroke-width:1.0;stroke-dasharray:2.0,2.0;" x1="943.5" x2="1050.5" y1="577.1556" y2="577.1556"/><text fill="#000000" font-family="sans-serif" font-size="13" font-weight="bold" lengthAdjust="spacing" textLength="14" x="950.5" y="571.3466">12</text><text fill="#000000" font-family="sans-serif" font-size="13" lengthAdjust="spacing" textLength="71" x="968.5" y="571.3466">create(user)</text><rect fill="#E2E2F0" height="52.1358" rx="2.5" ry="2.5" style="stroke:#181818;stroke-width:0.5;" width="135" x="1056.5" y="553.4496"/><text fill="#000000" font-family="sans-serif" font-size="14" lengthAdjust="spacing" textLength="78" x="1085" y="575.4155">createdDto:</text><text fill="#000000" font-family="sans-serif" font-size="14" lengthAdjust="spacing" textLength="121" x="1063.5" y="594.4834">CreatedClientDTO</text><polygon fill="#181818" points="594,636.2914,584,640.2914,594,644.2914,590,640.2914" style="stroke:#181818;stroke-width:1.0;"/><line style="stroke:#181818;stroke-width:1.0;stroke-dasharray:2.0,2.0;" x1="588" x2="937.5" y1="640.2914" y2="640.2914"/><text fill="#000000" font-family="sans-serif" font-size="13" font-weight="bold" lengthAdjust="spacing" textLength="14" x="600" y="634.4824">13</text><text fill="#000000" font-family="sans-serif" font-size="13" lengthAdjust="spacing" textLength="67" x="618" y="634.4824">createdDto</text><polygon fill="#181818" points="386,667.9974,376,671.9974,386,675.9974,382,671.9974" style="stroke:#181818;stroke-width:1.0;"/><line style="stroke:#181818;stroke-width:1.0;stroke-dasharray:2.0,2.0;" x1="380" x2="577" y1="671.9974" y2="671.9974"/><text fill="#000000" font-family="sans-serif" font-size="13" font-weight="bold" lengthAdjust="spacing" textLength="14" x="392" y="666.1884">14</text><text fill="#000000" font-family="sans-serif" font-size="13" lengthAdjust="spacing" textLength="67" x="410" y="666.1884">createdDto</text><polygon fill="#181818" points="226,699.7034,216,703.7034,226,707.7034,222,703.7034" style="stroke:#181818;stroke-width:1.0;"/><line style="stroke:#181818;stroke-width:1.0;stroke-dasharray:2.0,2.0;" x1="220" x2="369" y1="703.7034" y2="703.7034"/><text fill="#000000" font-family="sans-serif" font-size="13" font-weight="bold" lengthAdjust="spacing" textLength="14" x="232" y="697.8944">15</text><text fill="#000000" font-family="sans-serif" font-size="13" lengthAdjust="spacing" textLength="99" x="250" y="697.8944">createdDto (201)</text><polygon fill="#181818" points="11,731.4095,1,735.4095,11,739.4095,7,735.4095" style="stroke:#181818;stroke-width:1.0;"/><line style="stroke:#181818;stroke-width:1.0;stroke-dasharray:2.0,2.0;" x1="5" x2="209" y1="735.4095" y2="735.4095"/><text fill="#000000" font-family="sans-serif" font-size="13" font-weight="bold" lengthAdjust="spacing" textLength="14" x="17" y="729.6005">16</text><text fill="#000000" font-family="sans-serif" font-size="13" lengthAdjust="spacing" textLength="74" x="35" y="729.6005">201: Created</text><!--SRC=[XPHDRzim38Rl-XL4JqwnO5smKp3aiEOwj6YxKtUHPGume5eU9HljlnyfUuhaE8jk3X- -_D2hw26uRdYhaPJgDONMjBtk0jmykI7W3MWFL0RkNHV8MOiKeoQGBO4ckFslxjwss8NZoqEatld7adf66bipLV2ZAOE3HqeQ4QaNtM7lV1iSVKmjycS97ByVgHtd7fjQBQRxeVj-3hxfVX4qX3fWSvpcc3xASMGQfLwt1o3Om-F3ymjyDf7mIflGZfp2UmC-14p9aXYSX2UfYl3F9qA_KH5BMN6VC9-OjsK1sH_StYQDQhDW3hB4PGbEEd6fWcmRiYE9KgDU52WWRGF8hK3dmemq1P0hpUCYaQCpACr4_n2elkvscpFmzTjs6o6Exk5drvCpwBskBOAOa2SiSj1wd7gS-mC_6CduFLZxiTxi8Lg7QtWzOYN9vtsSBbHS1YidQh1MKyzAgrJIOJkknHly7v55On-Nvc4xSnF1iLMlpIFENsj49EI29iybHwohbPE5zGNbghbFvOrTtSKAaeNZyxrYn0l5CXLv4-gYIq_vKEtklfoMa2caTvjio-GUvhyFbL-VmgvHVm40]--></g></svg>