<?xml version="1.0" encoding="us-ascii" standalone="no"?><svg xmlns="http://www.w3.org/2000/svg" xmlns:xlink="http://www.w3.org/1999/xlink" contentStyleType="text/css" height="1381px" preserveAspectRatio="none" style="width:1714px;height:1381px;background:#FFFFFF;" version="1.1" viewBox="0 0 1714 1381" width="1714px" zoomAndPan="magnify"><defs/><g><rect fill="#FFFFFF" height="1209.875" style="stroke:#181818;stroke-width:1.0;" width="10" x="208" y="90.5332"/><rect fill="#FFFFFF" height="1147.293" style="stroke:#181818;stroke-width:1.0;" width="10" x="365" y="121.8242"/><rect fill="#FFFFFF" height="1022.4688" style="stroke:#181818;stroke-width:1.0;" width="10" x="569.5" y="215.3574"/><rect fill="#FFFFFF" height="30" style="stroke:#181818;stroke-width:1.0;" width="10" x="776" y="650.7715"/><rect fill="#FFFFFF" height="61.291" style="stroke:#181818;stroke-width:1.0;" width="10" x="900.5" y="246.6484"/><rect fill="#FFFFFF" height="61.291" style="stroke:#181818;stroke-width:1.0;" width="10" x="900.5" y="712.0625"/><rect fill="#FFFFFF" height="30" style="stroke:#181818;stroke-width:1.0;" width="10" x="1268" y="866.8867"/><rect fill="#FFFFFF" height="30" style="stroke:#181818;stroke-width:1.0;" width="10" x="1268" y="990.4199"/><rect fill="#FFFFFF" height="30" style="stroke:#181818;stroke-width:1.0;" width="10" x="1268" y="1051.7109"/><rect fill="#FFFFFF" height="30" style="stroke:#181818;stroke-width:1.0;" width="10" x="1369" y="277.9395"/><rect fill="#FFFFFF" height="30" style="stroke:#181818;stroke-width:1.0;" width="10" x="1369" y="743.3535"/><rect fill="#FFFFFF" height="93.5332" style="stroke:#181818;stroke-width:1.0;" width="10" x="1445.5" y="1113.002"/><rect fill="#FFFFFF" height="52.2422" style="stroke:#181818;stroke-width:1.0;" width="10" x="1627" y="1154.293"/><rect fill="none" height="985.4688" style="stroke:#000000;stroke-width:1.5;" width="1704.5" x="3" y="322.9395"/><line style="stroke:#181818;stroke-width:0.5;stroke-dasharray:5.0,5.0;" x1="213" x2="213" y1="57.2422" y2="1325.4082"/><line style="stroke:#181818;stroke-width:0.5;stroke-dasharray:5.0,5.0;" x1="370" x2="370" y1="57.2422" y2="1325.4082"/><line style="stroke:#181818;stroke-width:0.5;stroke-dasharray:5.0,5.0;" x1="494" x2="494" y1="170.9453" y2="1325.4082"/><line style="stroke:#181818;stroke-width:0.5;stroke-dasharray:5.0,5.0;" x1="574" x2="574" y1="57.2422" y2="1325.4082"/><line style="stroke:#181818;stroke-width:0.5;stroke-dasharray:5.0,5.0;" x1="690.5" x2="690.5" y1="479.2246" y2="1325.4082"/><line style="stroke:#181818;stroke-width:0.5;stroke-dasharray:5.0,5.0;" x1="780.5" x2="780.5" y1="57.2422" y2="1325.4082"/><line style="stroke:#181818;stroke-width:0.5;stroke-dasharray:5.0,5.0;" x1="905.5" x2="905.5" y1="57.2422" y2="1325.4082"/><line style="stroke:#181818;stroke-width:0.5;stroke-dasharray:5.0,5.0;" x1="1026.5" x2="1026.5" y1="822.4746" y2="1325.4082"/><line style="stroke:#181818;stroke-width:0.5;stroke-dasharray:5.0,5.0;" x1="1148.5" x2="1148.5" y1="946.0078" y2="1325.4082"/><line style="stroke:#181818;stroke-width:0.5;stroke-dasharray:5.0,5.0;" x1="1272.5" x2="1272.5" y1="57.2422" y2="1325.4082"/><line style="stroke:#181818;stroke-width:0.5;stroke-dasharray:5.0,5.0;" x1="1373.5" x2="1373.5" y1="57.2422" y2="1325.4082"/><line style="stroke:#181818;stroke-width:0.5;stroke-dasharray:5.0,5.0;" x1="1450.5" x2="1450.5" y1="57.2422" y2="1325.4082"/><line style="stroke:#181818;stroke-width:0.5;stroke-dasharray:5.0,5.0;" x1="1631.5" x2="1631.5" y1="1162.123" y2="1325.4082"/><rect fill="#E2E2F0" height="32.6211" rx="2.5" ry="2.5" style="stroke:#181818;stroke-width:0.5;" width="52" x="187" y="23.6211"/><text fill="#000000" font-family="sans-serif" font-size="14" lengthAdjust="spacing" textLength="38" x="194" y="45.7285">Route</text><rect fill="#E2E2F0" height="32.6211" rx="2.5" ry="2.5" style="stroke:#181818;stroke-width:0.5;" width="52" x="187" y="1324.4082"/><text fill="#000000" font-family="sans-serif" font-size="14" lengthAdjust="spacing" textLength="38" x="194" y="1346.5156">Route</text><rect fill="#E2E2F0" height="32.6211" rx="2.5" ry="2.5" style="stroke:#181818;stroke-width:0.5;" width="76" x="332" y="23.6211"/><text fill="#000000" font-family="sans-serif" font-size="14" lengthAdjust="spacing" textLength="62" x="339" y="45.7285">Controller</text><rect fill="#E2E2F0" height="32.6211" rx="2.5" ry="2.5" style="stroke:#181818;stroke-width:0.5;" width="76" x="332" y="1324.4082"/><text fill="#000000" font-family="sans-serif" font-size="14" lengthAdjust="spacing" textLength="62" x="339" y="1346.5156">Controller</text><rect fill="#E2E2F0" height="51.2422" rx="2.5" ry="2.5" style="stroke:#181818;stroke-width:0.5;" width="80" x="454" y="1324.4082"/><text fill="#000000" font-family="sans-serif" font-size="14" lengthAdjust="spacing" textLength="24" x="482" y="1346.5156">dto:</text><text fill="#000000" font-family="sans-serif" font-size="14" lengthAdjust="spacing" textLength="66" x="461" y="1365.1367">ClientDTO</text><rect fill="#E2E2F0" height="32.6211" rx="2.5" ry="2.5" style="stroke:#181818;stroke-width:0.5;" width="61" x="544" y="23.6211"/><text fill="#000000" font-family="sans-serif" font-size="14" lengthAdjust="spacing" textLength="47" x="551" y="45.7285">Service</text><rect fill="#E2E2F0" height="32.6211" rx="2.5" ry="2.5" style="stroke:#181818;stroke-width:0.5;" width="61" x="544" y="1324.4082"/><text fill="#000000" font-family="sans-serif" font-size="14" lengthAdjust="spacing" textLength="47" x="551" y="1346.5156">Service</text><rect fill="#E2E2F0" height="51.2422" rx="2.5" ry="2.5" style="stroke:#181818;stroke-width:0.5;" width="50" x="665.5" y="1324.4082"/><text fill="#000000" font-family="sans-serif" font-size="14" lengthAdjust="spacing" textLength="32" x="674.5" y="1346.5156">user:</text><text fill="#000000" font-family="sans-serif" font-size="14" lengthAdjust="spacing" textLength="36" x="672.5" y="1365.1367">Client</text><rect fill="#E2E2F0" height="32.6211" rx="2.5" ry="2.5" style="stroke:#181818;stroke-width:0.5;" width="111" x="725.5" y="23.6211"/><text fill="#000000" font-family="sans-serif" font-size="14" lengthAdjust="spacing" textLength="97" x="732.5" y="45.7285">RoleRepository</text><rect fill="#E2E2F0" height="32.6211" rx="2.5" ry="2.5" style="stroke:#181818;stroke-width:0.5;" width="111" x="725.5" y="1324.4082"/><text fill="#000000" font-family="sans-serif" font-size="14" lengthAdjust="spacing" textLength="97" x="732.5" y="1346.5156">RoleRepository</text><rect fill="#E2E2F0" height="32.6211" rx="2.5" ry="2.5" style="stroke:#181818;stroke-width:0.5;" width="118" x="846.5" y="23.6211"/><text fill="#000000" font-family="sans-serif" font-size="14" lengthAdjust="spacing" textLength="104" x="853.5" y="45.7285">ClientRepository</text><rect fill="#E2E2F0" height="32.6211" rx="2.5" ry="2.5" style="stroke:#181818;stroke-width:0.5;" width="118" x="846.5" y="1324.4082"/><text fill="#000000" font-family="sans-serif" font-size="14" lengthAdjust="spacing" textLength="104" x="853.5" y="1346.5156">ClientRepository</text><rect fill="#E2E2F0" height="51.2422" rx="2.5" ry="2.5" style="stroke:#181818;stroke-width:0.5;" width="105" x="974.5" y="1324.4082"/><text fill="#000000" font-family="sans-serif" font-size="14" lengthAdjust="spacing" textLength="35" x="1009.5" y="1346.5156">i_dto:</text><text fill="#000000" font-family="sans-serif" font-size="14" lengthAdjust="spacing" textLength="91" x="981.5" y="1365.1367">IAuthUserDTO</text><rect fill="#E2E2F0" height="51.2422" rx="2.5" ry="2.5" style="stroke:#181818;stroke-width:0.5;" width="118" x="1089.5" y="1324.4082"/><text fill="#000000" font-family="sans-serif" font-size="14" lengthAdjust="spacing" textLength="45" x="1126" y="1346.5156">ar_dto:</text><text fill="#000000" font-family="sans-serif" font-size="14" lengthAdjust="spacing" textLength="104" x="1096.5" y="1365.1367">IAssingRoleDTO</text><rect fill="#E2E2F0" height="32.6211" rx="2.5" ry="2.5" style="stroke:#181818;stroke-width:0.5;" width="111" x="1217.5" y="23.6211"/><text fill="#000000" font-family="sans-serif" font-size="14" lengthAdjust="spacing" textLength="97" x="1224.5" y="45.7285">AuthRepository</text><rect fill="#E2E2F0" height="32.6211" rx="2.5" ry="2.5" style="stroke:#181818;stroke-width:0.5;" width="111" x="1217.5" y="1324.4082"/><text fill="#000000" font-family="sans-serif" font-size="14" lengthAdjust="spacing" textLength="97" x="1224.5" y="1346.5156">AuthRepository</text><rect fill="#E2E2F0" height="32.6211" rx="2.5" ry="2.5" style="stroke:#181818;stroke-width:0.5;" width="71" x="1338.5" y="23.6211"/><text fill="#000000" font-family="sans-serif" font-size="14" lengthAdjust="spacing" textLength="57" x="1345.5" y="45.7285">DBDriver</text><rect fill="#E2E2F0" height="32.6211" rx="2.5" ry="2.5" style="stroke:#181818;stroke-width:0.5;" width="71" x="1338.5" y="1324.4082"/><text fill="#000000" font-family="sans-serif" font-size="14" lengthAdjust="spacing" textLength="57" x="1345.5" y="1346.5156">DBDriver</text><rect fill="#E2E2F0" height="32.6211" rx="2.5" ry="2.5" style="stroke:#181818;stroke-width:0.5;" width="62" x="1419.5" y="23.6211"/><text fill="#000000" font-family="sans-serif" font-size="14" lengthAdjust="spacing" textLength="48" x="1426.5" y="45.7285">Mapper</text><rect fill="#E2E2F0" height="32.6211" rx="2.5" ry="2.5" style="stroke:#181818;stroke-width:0.5;" width="62" x="1419.5" y="1324.4082"/><text fill="#000000" font-family="sans-serif" font-size="14" lengthAdjust="spacing" textLength="48" x="1426.5" y="1346.5156">Mapper</text><rect fill="#E2E2F0" height="51.2422" rx="2.5" ry="2.5" style="stroke:#181818;stroke-width:0.5;" width="131" x="1566.5" y="1324.4082"/><text fill="#000000" font-family="sans-serif" font-size="14" lengthAdjust="spacing" textLength="74" x="1595" y="1346.5156">createdDto:</text><text fill="#000000" font-family="sans-serif" font-size="14" lengthAdjust="spacing" textLength="117" x="1573.5" y="1365.1367">CreatedClientDTO</text><rect fill="#FFFFFF" height="1209.875" style="stroke:#181818;stroke-width:1.0;" width="10" x="208" y="90.5332"/><rect fill="#FFFFFF" height="1147.293" style="stroke:#181818;stroke-width:1.0;" width="10" x="365" y="121.8242"/><rect fill="#FFFFFF" height="1022.4688" style="stroke:#181818;stroke-width:1.0;" width="10" x="569.5" y="215.3574"/><rect fill="#FFFFFF" height="30" style="stroke:#181818;stroke-width:1.0;" width="10" x="776" y="650.7715"/><rect fill="#FFFFFF" height="61.291" style="stroke:#181818;stroke-width:1.0;" width="10" x="900.5" y="246.6484"/><rect fill="#FFFFFF" height="61.291" style="stroke:#181818;stroke-width:1.0;" width="10" x="900.5" y="712.0625"/><rect fill="#FFFFFF" height="30" style="stroke:#181818;stroke-width:1.0;" width="10" x="1268" y="866.8867"/><rect fill="#FFFFFF" height="30" style="stroke:#181818;stroke-width:1.0;" width="10" x="1268" y="990.4199"/><rect fill="#FFFFFF" height="30" style="stroke:#181818;stroke-width:1.0;" width="10" x="1268" y="1051.7109"/><rect fill="#FFFFFF" height="30" style="stroke:#181818;stroke-width:1.0;" width="10" x="1369" y="277.9395"/><rect fill="#FFFFFF" height="30" style="stroke:#181818;stroke-width:1.0;" width="10" x="1369" y="743.3535"/><rect fill="#FFFFFF" height="93.5332" style="stroke:#181818;stroke-width:1.0;" width="10" x="1445.5" y="1113.002"/><rect fill="#FFFFFF" height="52.2422" style="stroke:#181818;stroke-width:1.0;" width="10" x="1627" y="1154.293"/><polygon fill="#181818" points="196,86.5332,206,90.5332,196,94.5332,200,90.5332" style="stroke:#181818;stroke-width:1.0;"/><line style="stroke:#181818;stroke-width:1.0;" x1="0" x2="202" y1="90.5332" y2="90.5332"/><text fill="#000000" font-family="sans-serif" font-size="13" font-weight="bold" lengthAdjust="spacing" textLength="7" x="7" y="85.2705">1</text><text fill="#000000" font-family="sans-serif" font-size="13" lengthAdjust="spacing" textLength="81" x="18" y="85.2705">POST /clients</text><polygon fill="#181818" points="353,117.8242,363,121.8242,353,125.8242,357,121.8242" style="stroke:#181818;stroke-width:1.0;"/><line style="stroke:#181818;stroke-width:1.0;" x1="218" x2="359" y1="121.8242" y2="121.8242"/><text fill="#000000" font-family="sans-serif" font-size="13" font-weight="bold" lengthAdjust="spacing" textLength="7" x="225" y="116.5615">2</text><text fill="#000000" font-family="sans-serif" font-size="13" lengthAdjust="spacing" textLength="117" x="236" y="116.5615">createClient(req,res)</text><polygon fill="#181818" points="442,149.1152,452,153.1152,442,157.1152,446,153.1152" style="stroke:#181818;stroke-width:1.0;"/><line style="stroke:#181818;stroke-width:1.0;stroke-dasharray:2.0,2.0;" x1="375" x2="448" y1="153.1152" y2="153.1152"/><text fill="#000000" font-family="sans-serif" font-size="13" font-weight="bold" lengthAdjust="spacing" textLength="7" x="382" y="147.8525">3</text><text fill="#000000" font-family="sans-serif" font-size="13" lengthAdjust="spacing" textLength="44" x="393" y="147.8525">create()</text><rect fill="#E2E2F0" height="51.2422" rx="2.5" ry="2.5" style="stroke:#181818;stroke-width:0.5;" width="80" x="454" y="129.8242"/><text fill="#000000" font-family="sans-serif" font-size="14" lengthAdjust="spacing" textLength="24" x="482" y="151.9316">dto:</text><text fill="#000000" font-family="sans-serif" font-size="14" lengthAdjust="spacing" textLength="66" x="461" y="170.5527">ClientDTO</text><polygon fill="#181818" points="557.5,211.3574,567.5,215.3574,557.5,219.3574,561.5,215.3574" style="stroke:#181818;stroke-width:1.0;"/><line style="stroke:#181818;stroke-width:1.0;" x1="375" x2="563.5" y1="215.3574" y2="215.3574"/><text fill="#000000" font-family="sans-serif" font-size="13" font-weight="bold" lengthAdjust="spacing" textLength="7" x="382" y="210.0947">4</text><text fill="#000000" font-family="sans-serif" font-size="13" lengthAdjust="spacing" textLength="95" x="393" y="210.0947">createClient(dto)</text><polygon fill="#181818" points="888.5,242.6484,898.5,246.6484,888.5,250.6484,892.5,246.6484" style="stroke:#181818;stroke-width:1.0;"/><line style="stroke:#181818;stroke-width:1.0;" x1="579.5" x2="894.5" y1="246.6484" y2="246.6484"/><text fill="#000000" font-family="sans-serif" font-size="13" font-weight="bold" lengthAdjust="spacing" textLength="7" x="586.5" y="241.3857">5</text><text fill="#000000" font-family="sans-serif" font-size="13" lengthAdjust="spacing" textLength="59" x="597.5" y="241.3857">find(email)</text><polygon fill="#181818" points="1357,273.9395,1367,277.9395,1357,281.9395,1361,277.9395" style="stroke:#181818;stroke-width:1.0;"/><line style="stroke:#181818;stroke-width:1.0;" x1="910.5" x2="1363" y1="277.9395" y2="277.9395"/><text fill="#000000" font-family="sans-serif" font-size="13" font-weight="bold" lengthAdjust="spacing" textLength="7" x="917.5" y="272.6768">6</text><text fill="#000000" font-family="sans-serif" font-size="13" lengthAdjust="spacing" textLength="52" x="928.5" y="272.6768">findOne()</text><path d="M3,322.9395 L64,322.9395 L64,332.2305 L54,342.2305 L3,342.2305 L3,322.9395 " fill="#EEEEEE" style="stroke:#000000;stroke-width:1.5;"/><rect fill="none" height="985.4688" style="stroke:#000000;stroke-width:1.5;" width="1704.5" x="3" y="322.9395"/><text fill="#000000" font-family="sans-serif" font-size="13" font-weight="bold" lengthAdjust="spacing" textLength="16" x="18" y="337.9678">alt</text><text fill="#000000" font-family="sans-serif" font-size="11" font-weight="bold" lengthAdjust="spacing" textLength="114" x="79" y="336.8096">[user already exists]</text><polygon fill="#181818" points="386,361.5215,376,365.5215,386,369.5215,382,365.5215" style="stroke:#181818;stroke-width:1.0;"/><line style="stroke:#181818;stroke-width:1.0;stroke-dasharray:2.0,2.0;" x1="380" x2="568.5" y1="365.5215" y2="365.5215"/><text fill="#000000" font-family="sans-serif" font-size="13" font-weight="bold" lengthAdjust="spacing" textLength="7" x="392" y="360.2588">7</text><text fill="#000000" font-family="sans-serif" font-size="13" lengthAdjust="spacing" textLength="26" x="403" y="360.2588">error</text><polygon fill="#181818" points="229,392.8125,219,396.8125,229,400.8125,225,396.8125" style="stroke:#181818;stroke-width:1.0;"/><line style="stroke:#181818;stroke-width:1.0;stroke-dasharray:2.0,2.0;" x1="223" x2="364" y1="396.8125" y2="396.8125"/><text fill="#000000" font-family="sans-serif" font-size="13" font-weight="bold" lengthAdjust="spacing" textLength="7" x="235" y="391.5498">8</text><text fill="#000000" font-family="sans-serif" font-size="13" lengthAdjust="spacing" textLength="59" x="246" y="391.5498">error (422)</text><polygon fill="#181818" points="11,424.1035,1,428.1035,11,432.1035,7,428.1035" style="stroke:#181818;stroke-width:1.0;"/><line style="stroke:#181818;stroke-width:1.0;stroke-dasharray:2.0,2.0;" x1="5" x2="207" y1="428.1035" y2="428.1035"/><text fill="#000000" font-family="sans-serif" font-size="13" font-weight="bold" lengthAdjust="spacing" textLength="7" x="17" y="422.8408">9</text><text fill="#000000" font-family="sans-serif" font-size="13" lengthAdjust="spacing" textLength="112" x="28" y="422.8408">422: Already exists</text><line style="stroke:#000000;stroke-width:1.0;stroke-dasharray:2.0,2.0;" x1="3" x2="1707.5" y1="437.1035" y2="437.1035"/><polygon fill="#181818" points="653.5,457.3945,663.5,461.3945,653.5,465.3945,657.5,461.3945" style="stroke:#181818;stroke-width:1.0;"/><line style="stroke:#181818;stroke-width:1.0;stroke-dasharray:2.0,2.0;" x1="579.5" x2="659.5" y1="461.3945" y2="461.3945"/><text fill="#000000" font-family="sans-serif" font-size="13" font-weight="bold" lengthAdjust="spacing" textLength="14" x="586.5" y="456.1318">10</text><text fill="#000000" font-family="sans-serif" font-size="13" lengthAdjust="spacing" textLength="44" x="604.5" y="456.1318">create()</text><rect fill="#E2E2F0" height="51.2422" rx="2.5" ry="2.5" style="stroke:#181818;stroke-width:0.5;" width="50" x="665.5" y="438.1035"/><text fill="#000000" font-family="sans-serif" font-size="14" lengthAdjust="spacing" textLength="32" x="674.5" y="460.2109">user:</text><text fill="#000000" font-family="sans-serif" font-size="14" lengthAdjust="spacing" textLength="36" x="672.5" y="478.832">Client</text><line style="stroke:#000000;stroke-width:1.0;stroke-dasharray:2.0,2.0;" x1="3" x2="1707.5" y1="501.3457" y2="501.3457"/><text fill="#000000" font-family="sans-serif" font-size="11" font-weight="bold" lengthAdjust="spacing" textLength="100" x="8" y="513.2158">[user not created]</text><polygon fill="#181818" points="386,536.2676,376,540.2676,386,544.2676,382,540.2676" style="stroke:#181818;stroke-width:1.0;"/><line style="stroke:#181818;stroke-width:1.0;stroke-dasharray:2.0,2.0;" x1="380" x2="568.5" y1="540.2676" y2="540.2676"/><text fill="#000000" font-family="sans-serif" font-size="13" font-weight="bold" lengthAdjust="spacing" textLength="14" x="392" y="535.0049">11</text><text fill="#000000" font-family="sans-serif" font-size="13" lengthAdjust="spacing" textLength="26" x="410" y="535.0049">error</text><polygon fill="#181818" points="229,567.5586,219,571.5586,229,575.5586,225,571.5586" style="stroke:#181818;stroke-width:1.0;"/><line style="stroke:#181818;stroke-width:1.0;stroke-dasharray:2.0,2.0;" x1="223" x2="364" y1="571.5586" y2="571.5586"/><text fill="#000000" font-family="sans-serif" font-size="13" font-weight="bold" lengthAdjust="spacing" textLength="14" x="235" y="566.2959">12</text><text fill="#000000" font-family="sans-serif" font-size="13" lengthAdjust="spacing" textLength="59" x="253" y="566.2959">error (422)</text><polygon fill="#181818" points="11,598.8496,1,602.8496,11,606.8496,7,602.8496" style="stroke:#181818;stroke-width:1.0;"/><line style="stroke:#181818;stroke-width:1.0;stroke-dasharray:2.0,2.0;" x1="5" x2="207" y1="602.8496" y2="602.8496"/><text fill="#000000" font-family="sans-serif" font-size="13" font-weight="bold" lengthAdjust="spacing" textLength="14" x="17" y="597.5869">13</text><text fill="#000000" font-family="sans-serif" font-size="13" lengthAdjust="spacing" textLength="164" x="35" y="597.5869">422: Unprocessable Content</text><line style="stroke:#000000;stroke-width:1.0;stroke-dasharray:2.0,2.0;" x1="3" x2="1707.5" y1="611.8496" y2="611.8496"/><text fill="#000000" font-family="sans-serif" font-size="11" font-weight="bold" lengthAdjust="spacing" textLength="152" x="8" y="623.7197">[user created successfully]</text><polygon fill="#181818" points="764,646.7715,774,650.7715,764,654.7715,768,650.7715" style="stroke:#181818;stroke-width:1.0;"/><line style="stroke:#181818;stroke-width:1.0;" x1="579.5" x2="770" y1="650.7715" y2="650.7715"/><text fill="#000000" font-family="sans-serif" font-size="13" font-weight="bold" lengthAdjust="spacing" textLength="14" x="586.5" y="645.5088">14</text><text fill="#000000" font-family="sans-serif" font-size="13" lengthAdjust="spacing" textLength="49" x="604.5" y="645.5088">find(role)</text><polygon fill="#181818" points="888.5,708.0625,898.5,712.0625,888.5,716.0625,892.5,712.0625" style="stroke:#181818;stroke-width:1.0;"/><line style="stroke:#181818;stroke-width:1.0;" x1="579.5" x2="894.5" y1="712.0625" y2="712.0625"/><text fill="#000000" font-family="sans-serif" font-size="13" font-weight="bold" lengthAdjust="spacing" textLength="14" x="586.5" y="706.7998">15</text><text fill="#000000" font-family="sans-serif" font-size="13" lengthAdjust="spacing" textLength="59" x="604.5" y="706.7998">save(user)</text><polygon fill="#181818" points="1357,739.3535,1367,743.3535,1357,747.3535,1361,743.3535" style="stroke:#181818;stroke-width:1.0;"/><line style="stroke:#181818;stroke-width:1.0;" x1="910.5" x2="1363" y1="743.3535" y2="743.3535"/><text fill="#000000" font-family="sans-serif" font-size="13" font-weight="bold" lengthAdjust="spacing" textLength="14" x="917.5" y="738.0908">16</text><text fill="#000000" font-family="sans-serif" font-size="13" lengthAdjust="spacing" textLength="26" x="935.5" y="738.0908">save</text><polygon fill="#181818" points="962.5,800.6445,972.5,804.6445,962.5,808.6445,966.5,804.6445" style="stroke:#181818;stroke-width:1.0;"/><line style="stroke:#181818;stroke-width:1.0;stroke-dasharray:2.0,2.0;" x1="579.5" x2="968.5" y1="804.6445" y2="804.6445"/><text fill="#000000" font-family="sans-serif" font-size="13" font-weight="bold" lengthAdjust="spacing" textLength="14" x="586.5" y="799.3818">17</text><text fill="#000000" font-family="sans-serif" font-size="13" lengthAdjust="spacing" textLength="44" x="604.5" y="799.3818">create()</text><rect fill="#E2E2F0" height="51.2422" rx="2.5" ry="2.5" style="stroke:#181818;stroke-width:0.5;" width="105" x="974.5" y="781.3535"/><text fill="#000000" font-family="sans-serif" font-size="14" lengthAdjust="spacing" textLength="35" x="1009.5" y="803.4609">i_dto:</text><text fill="#000000" font-family="sans-serif" font-size="14" lengthAdjust="spacing" textLength="91" x="981.5" y="822.082">IAuthUserDTO</text><polygon fill="#181818" points="1256,862.8867,1266,866.8867,1256,870.8867,1260,866.8867" style="stroke:#181818;stroke-width:1.0;"/><line style="stroke:#181818;stroke-width:1.0;" x1="579.5" x2="1262" y1="866.8867" y2="866.8867"/><text fill="#000000" font-family="sans-serif" font-size="13" font-weight="bold" lengthAdjust="spacing" textLength="14" x="586.5" y="861.624">18</text><text fill="#000000" font-family="sans-serif" font-size="13" lengthAdjust="spacing" textLength="99" x="604.5" y="861.624">createUser(i_dto)</text><polygon fill="#181818" points="1077.5,924.1777,1087.5,928.1777,1077.5,932.1777,1081.5,928.1777" style="stroke:#181818;stroke-width:1.0;"/><line style="stroke:#181818;stroke-width:1.0;stroke-dasharray:2.0,2.0;" x1="579.5" x2="1083.5" y1="928.1777" y2="928.1777"/><text fill="#000000" font-family="sans-serif" font-size="13" font-weight="bold" lengthAdjust="spacing" textLength="14" x="586.5" y="922.915">19</text><text fill="#000000" font-family="sans-serif" font-size="13" lengthAdjust="spacing" textLength="44" x="604.5" y="922.915">create()</text><rect fill="#E2E2F0" height="51.2422" rx="2.5" ry="2.5" style="stroke:#181818;stroke-width:0.5;" width="118" x="1089.5" y="904.8867"/><text fill="#000000" font-family="sans-serif" font-size="14" lengthAdjust="spacing" textLength="45" x="1126" y="926.9941">ar_dto:</text><text fill="#000000" font-family="sans-serif" font-size="14" lengthAdjust="spacing" textLength="104" x="1096.5" y="945.6152">IAssingRoleDTO</text><polygon fill="#181818" points="1256,986.4199,1266,990.4199,1256,994.4199,1260,990.4199" style="stroke:#181818;stroke-width:1.0;"/><line style="stroke:#181818;stroke-width:1.0;" x1="579.5" x2="1262" y1="990.4199" y2="990.4199"/><text fill="#000000" font-family="sans-serif" font-size="13" font-weight="bold" lengthAdjust="spacing" textLength="14" x="586.5" y="985.1572">20</text><text fill="#000000" font-family="sans-serif" font-size="13" lengthAdjust="spacing" textLength="149" x="604.5" y="985.1572">assignRoleToUser(ar_dto)</text><polygon fill="#181818" points="1256,1047.7109,1266,1051.7109,1256,1055.7109,1260,1051.7109" style="stroke:#181818;stroke-width:1.0;"/><line style="stroke:#181818;stroke-width:1.0;" x1="579.5" x2="1262" y1="1051.7109" y2="1051.7109"/><text fill="#000000" font-family="sans-serif" font-size="13" font-weight="bold" lengthAdjust="spacing" textLength="14" x="586.5" y="1046.4482">21</text><text fill="#000000" font-family="sans-serif" font-size="13" lengthAdjust="spacing" textLength="97" x="604.5" y="1046.4482">blockUser(email)</text><polygon fill="#181818" points="1433.5,1109.002,1443.5,1113.002,1433.5,1117.002,1437.5,1113.002" style="stroke:#181818;stroke-width:1.0;"/><line style="stroke:#181818;stroke-width:1.0;" x1="579.5" x2="1439.5" y1="1113.002" y2="1113.002"/><text fill="#000000" font-family="sans-serif" font-size="13" font-weight="bold" lengthAdjust="spacing" textLength="14" x="586.5" y="1107.7393">22</text><text fill="#000000" font-family="sans-serif" font-size="13" lengthAdjust="spacing" textLength="70" x="604.5" y="1107.7393">toDTO(user)</text><polygon fill="#181818" points="1554.5,1140.293,1564.5,1144.293,1554.5,1148.293,1558.5,1144.293" style="stroke:#181818;stroke-width:1.0;"/><line style="stroke:#181818;stroke-width:1.0;stroke-dasharray:2.0,2.0;" x1="1455.5" x2="1560.5" y1="1144.293" y2="1144.293"/><text fill="#000000" font-family="sans-serif" font-size="13" font-weight="bold" lengthAdjust="spacing" textLength="14" x="1462.5" y="1139.0303">23</text><text fill="#000000" font-family="sans-serif" font-size="13" lengthAdjust="spacing" textLength="69" x="1480.5" y="1139.0303">create(user)</text><rect fill="#E2E2F0" height="51.2422" rx="2.5" ry="2.5" style="stroke:#181818;stroke-width:0.5;" width="131" x="1566.5" y="1121.002"/><text fill="#000000" font-family="sans-serif" font-size="14" lengthAdjust="spacing" textLength="74" x="1595" y="1143.1094">createdDto:</text><text fill="#000000" font-family="sans-serif" font-size="14" lengthAdjust="spacing" textLength="117" x="1573.5" y="1161.7305">CreatedClientDTO</text><polygon fill="#181818" points="590.5,1202.5352,580.5,1206.5352,590.5,1210.5352,586.5,1206.5352" style="stroke:#181818;stroke-width:1.0;"/><line style="stroke:#181818;stroke-width:1.0;stroke-dasharray:2.0,2.0;" x1="584.5" x2="1449.5" y1="1206.5352" y2="1206.5352"/><text fill="#000000" font-family="sans-serif" font-size="13" font-weight="bold" lengthAdjust="spacing" textLength="14" x="596.5" y="1201.2725">24</text><text fill="#000000" font-family="sans-serif" font-size="13" lengthAdjust="spacing" textLength="63" x="614.5" y="1201.2725">createdDto</text><polygon fill="#181818" points="386,1233.8262,376,1237.8262,386,1241.8262,382,1237.8262" style="stroke:#181818;stroke-width:1.0;"/><line style="stroke:#181818;stroke-width:1.0;stroke-dasharray:2.0,2.0;" x1="380" x2="573.5" y1="1237.8262" y2="1237.8262"/><text fill="#000000" font-family="sans-serif" font-size="13" font-weight="bold" lengthAdjust="spacing" textLength="14" x="392" y="1232.5635">25</text><text fill="#000000" font-family="sans-serif" font-size="13" lengthAdjust="spacing" textLength="63" x="410" y="1232.5635">createdDto</text><polygon fill="#181818" points="229,1265.1172,219,1269.1172,229,1273.1172,225,1269.1172" style="stroke:#181818;stroke-width:1.0;"/><line style="stroke:#181818;stroke-width:1.0;stroke-dasharray:2.0,2.0;" x1="223" x2="369" y1="1269.1172" y2="1269.1172"/><text fill="#000000" font-family="sans-serif" font-size="13" font-weight="bold" lengthAdjust="spacing" textLength="14" x="235" y="1263.8545">26</text><text fill="#000000" font-family="sans-serif" font-size="13" lengthAdjust="spacing" textLength="96" x="253" y="1263.8545">createdDto (201)</text><polygon fill="#181818" points="11,1296.4082,1,1300.4082,11,1304.4082,7,1300.4082" style="stroke:#181818;stroke-width:1.0;"/><line style="stroke:#181818;stroke-width:1.0;stroke-dasharray:2.0,2.0;" x1="5" x2="212" y1="1300.4082" y2="1300.4082"/><text fill="#000000" font-family="sans-serif" font-size="13" font-weight="bold" lengthAdjust="spacing" textLength="14" x="17" y="1295.1455">27</text><text fill="#000000" font-family="sans-serif" font-size="13" lengthAdjust="spacing" textLength="74" x="35" y="1295.1455">201: Created</text><!--SRC=[lLLDRzim3BthLn0zESM2RS5EnX2WQoux31dQzDG1XMohdJ15yYGvQFxzHCbnBFaZ6D3DfyHyV7pyC4aRgsIpBvWcfARQyfBNL5gukbEDPLT03UZOSAkarKe8fhsrj5h4WCgg_8Uy5Pn9kzbjFUhLlOnHzqmVU1aYc4CP6nl3TCVX8SL0dc1th5Q6MwMFGUUJTYyIiPuX1GvW_2c8_dhJs9yFBlX9jpV4MAexi35Slg2I4ppOOZnI9W9eK9gajFcoqVpGbhKgKlCtMjUjSK_hn5XgHYshDg7quK_S0TH5oEDo3Hfo-Bwzty7xqYCCeQNb1-VYMWtkqU1Gs5S73CI1AjFizplDp89uMEVbHm3Qn_ij7G6s7AwlEuviaM3MsFSqX7Cwuxe8E23GUz0HCt5LpE6PoofZUyh58WATiy9YG_BWI-Ie2WWKMzcNE21n3Kbj5PkozYoXqn6bi803xdwupAiZi5TkN1TIUf_akHDCQwK7eAxS-WI1xDDgDKpayVDowK7EciDD73f2Cs4O6HDI9EqSU8MqfB8jflglEJt8MgkI6KCBmG3Nb1ke2OsjFZ1DYHxFZH17CgvstIwMTj3SwcCpOz8kePbHqQUFVoeQ3cOEXXvOXbhdWes56WmtCesYvcPxVhulpdY_rtw7Jco29FUm63iWRkBCkyyKWLwi-6dTJWaCM_il5LAt_5yaBl-TyZe3oxyJsejT25N-ya57rjxRndIdnWMqofsHIzE8LsbiZ902onngt9Lud2sUIpi-tdtM_Wt1-tTnakriEVnflR2r9eBrMF1UaScLTlQ7RFNXuxa8FORkfdOxpY5pQ4yxwNzyXCcA_040]--></g></svg>