<?xml version="1.0" encoding="us-ascii" standalone="no"?><svg xmlns="http://www.w3.org/2000/svg" xmlns:xlink="http://www.w3.org/1999/xlink" contentStyleType="text/css" height="806px" preserveAspectRatio="none" style="width:1179px;height:806px;background:#FFFFFF;" version="1.1" viewBox="0 0 1179 806" width="1179px" zoomAndPan="magnify"><defs/><g><rect fill="#FFFFFF" height="635.1406" style="stroke:#181818;stroke-width:1.0;" width="10" x="201" y="90.5332"/><rect fill="#FFFFFF" height="572.5586" style="stroke:#181818;stroke-width:1.0;" width="10" x="358" y="121.8242"/><rect fill="#FFFFFF" height="447.7344" style="stroke:#181818;stroke-width:1.0;" width="10" x="562.5" y="215.3574"/><rect fill="#FFFFFF" height="61.291" style="stroke:#181818;stroke-width:1.0;" width="10" x="747.5" y="445.6855"/><rect fill="#FFFFFF" height="30" style="stroke:#181818;stroke-width:1.0;" width="10" x="834" y="476.9766"/><rect fill="#FFFFFF" height="93.5332" style="stroke:#181818;stroke-width:1.0;" width="10" x="910.5" y="538.2676"/><rect fill="#FFFFFF" height="52.2422" style="stroke:#181818;stroke-width:1.0;" width="10" x="1092" y="579.5586"/><rect fill="none" height="441.0742" style="stroke:#000000;stroke-width:1.5;" width="1169.5" x="3" y="292.5996"/><line style="stroke:#181818;stroke-width:0.5;stroke-dasharray:5.0,5.0;" x1="206" x2="206" y1="57.2422" y2="750.6738"/><line style="stroke:#181818;stroke-width:0.5;stroke-dasharray:5.0,5.0;" x1="363" x2="363" y1="57.2422" y2="750.6738"/><line style="stroke:#181818;stroke-width:0.5;stroke-dasharray:5.0,5.0;" x1="487" x2="487" y1="170.9453" y2="750.6738"/><line style="stroke:#181818;stroke-width:0.5;stroke-dasharray:5.0,5.0;" x1="567" x2="567" y1="57.2422" y2="750.6738"/><line style="stroke:#181818;stroke-width:0.5;stroke-dasharray:5.0,5.0;" x1="676.5" x2="676.5" y1="264.4785" y2="750.6738"/><line style="stroke:#181818;stroke-width:0.5;stroke-dasharray:5.0,5.0;" x1="752.5" x2="752.5" y1="57.2422" y2="750.6738"/><line style="stroke:#181818;stroke-width:0.5;stroke-dasharray:5.0,5.0;" x1="838.5" x2="838.5" y1="57.2422" y2="750.6738"/><line style="stroke:#181818;stroke-width:0.5;stroke-dasharray:5.0,5.0;" x1="915.5" x2="915.5" y1="57.2422" y2="750.6738"/><line style="stroke:#181818;stroke-width:0.5;stroke-dasharray:5.0,5.0;" x1="1096.5" x2="1096.5" y1="587.3887" y2="750.6738"/><rect fill="#E2E2F0" height="32.6211" rx="2.5" ry="2.5" style="stroke:#181818;stroke-width:0.5;" width="52" x="180" y="23.6211"/><text fill="#000000" font-family="sans-serif" font-size="14" lengthAdjust="spacing" textLength="38" x="187" y="45.7285">Route</text><rect fill="#E2E2F0" height="32.6211" rx="2.5" ry="2.5" style="stroke:#181818;stroke-width:0.5;" width="52" x="180" y="749.6738"/><text fill="#000000" font-family="sans-serif" font-size="14" lengthAdjust="spacing" textLength="38" x="187" y="771.7813">Route</text><rect fill="#E2E2F0" height="32.6211" rx="2.5" ry="2.5" style="stroke:#181818;stroke-width:0.5;" width="76" x="325" y="23.6211"/><text fill="#000000" font-family="sans-serif" font-size="14" lengthAdjust="spacing" textLength="62" x="332" y="45.7285">Controller</text><rect fill="#E2E2F0" height="32.6211" rx="2.5" ry="2.5" style="stroke:#181818;stroke-width:0.5;" width="76" x="325" y="749.6738"/><text fill="#000000" font-family="sans-serif" font-size="14" lengthAdjust="spacing" textLength="62" x="332" y="771.7813">Controller</text><rect fill="#E2E2F0" height="51.2422" rx="2.5" ry="2.5" style="stroke:#181818;stroke-width:0.5;" width="80" x="447" y="749.6738"/><text fill="#000000" font-family="sans-serif" font-size="14" lengthAdjust="spacing" textLength="24" x="475" y="771.7813">dto:</text><text fill="#000000" font-family="sans-serif" font-size="14" lengthAdjust="spacing" textLength="66" x="454" y="790.4023">ClientDTO</text><rect fill="#E2E2F0" height="32.6211" rx="2.5" ry="2.5" style="stroke:#181818;stroke-width:0.5;" width="61" x="537" y="23.6211"/><text fill="#000000" font-family="sans-serif" font-size="14" lengthAdjust="spacing" textLength="47" x="544" y="45.7285">Service</text><rect fill="#E2E2F0" height="32.6211" rx="2.5" ry="2.5" style="stroke:#181818;stroke-width:0.5;" width="61" x="537" y="749.6738"/><text fill="#000000" font-family="sans-serif" font-size="14" lengthAdjust="spacing" textLength="47" x="544" y="771.7813">Service</text><rect fill="#E2E2F0" height="51.2422" rx="2.5" ry="2.5" style="stroke:#181818;stroke-width:0.5;" width="50" x="651.5" y="749.6738"/><text fill="#000000" font-family="sans-serif" font-size="14" lengthAdjust="spacing" textLength="32" x="660.5" y="771.7813">user:</text><text fill="#000000" font-family="sans-serif" font-size="14" lengthAdjust="spacing" textLength="36" x="658.5" y="790.4023">Client</text><rect fill="#E2E2F0" height="32.6211" rx="2.5" ry="2.5" style="stroke:#181818;stroke-width:0.5;" width="82" x="711.5" y="23.6211"/><text fill="#000000" font-family="sans-serif" font-size="14" lengthAdjust="spacing" textLength="68" x="718.5" y="45.7285">Repository</text><rect fill="#E2E2F0" height="32.6211" rx="2.5" ry="2.5" style="stroke:#181818;stroke-width:0.5;" width="82" x="711.5" y="749.6738"/><text fill="#000000" font-family="sans-serif" font-size="14" lengthAdjust="spacing" textLength="68" x="718.5" y="771.7813">Repository</text><rect fill="#E2E2F0" height="32.6211" rx="2.5" ry="2.5" style="stroke:#181818;stroke-width:0.5;" width="71" x="803.5" y="23.6211"/><text fill="#000000" font-family="sans-serif" font-size="14" lengthAdjust="spacing" textLength="57" x="810.5" y="45.7285">DBDriver</text><rect fill="#E2E2F0" height="32.6211" rx="2.5" ry="2.5" style="stroke:#181818;stroke-width:0.5;" width="71" x="803.5" y="749.6738"/><text fill="#000000" font-family="sans-serif" font-size="14" lengthAdjust="spacing" textLength="57" x="810.5" y="771.7813">DBDriver</text><rect fill="#E2E2F0" height="32.6211" rx="2.5" ry="2.5" style="stroke:#181818;stroke-width:0.5;" width="62" x="884.5" y="23.6211"/><text fill="#000000" font-family="sans-serif" font-size="14" lengthAdjust="spacing" textLength="48" x="891.5" y="45.7285">Mapper</text><rect fill="#E2E2F0" height="32.6211" rx="2.5" ry="2.5" style="stroke:#181818;stroke-width:0.5;" width="62" x="884.5" y="749.6738"/><text fill="#000000" font-family="sans-serif" font-size="14" lengthAdjust="spacing" textLength="48" x="891.5" y="771.7813">Mapper</text><rect fill="#E2E2F0" height="51.2422" rx="2.5" ry="2.5" style="stroke:#181818;stroke-width:0.5;" width="131" x="1031.5" y="749.6738"/><text fill="#000000" font-family="sans-serif" font-size="14" lengthAdjust="spacing" textLength="74" x="1060" y="771.7813">createdDto:</text><text fill="#000000" font-family="sans-serif" font-size="14" lengthAdjust="spacing" textLength="117" x="1038.5" y="790.4023">CreatedClientDTO</text><rect fill="#FFFFFF" height="635.1406" style="stroke:#181818;stroke-width:1.0;" width="10" x="201" y="90.5332"/><rect fill="#FFFFFF" height="572.5586" style="stroke:#181818;stroke-width:1.0;" width="10" x="358" y="121.8242"/><rect fill="#FFFFFF" height="447.7344" style="stroke:#181818;stroke-width:1.0;" width="10" x="562.5" y="215.3574"/><rect fill="#FFFFFF" height="61.291" style="stroke:#181818;stroke-width:1.0;" width="10" x="747.5" y="445.6855"/><rect fill="#FFFFFF" height="30" style="stroke:#181818;stroke-width:1.0;" width="10" x="834" y="476.9766"/><rect fill="#FFFFFF" height="93.5332" style="stroke:#181818;stroke-width:1.0;" width="10" x="910.5" y="538.2676"/><rect fill="#FFFFFF" height="52.2422" style="stroke:#181818;stroke-width:1.0;" width="10" x="1092" y="579.5586"/><polygon fill="#181818" points="189,86.5332,199,90.5332,189,94.5332,193,90.5332" style="stroke:#181818;stroke-width:1.0;"/><line style="stroke:#181818;stroke-width:1.0;" x1="0" x2="195" y1="90.5332" y2="90.5332"/><text fill="#000000" font-family="sans-serif" font-size="13" font-weight="bold" lengthAdjust="spacing" textLength="7" x="7" y="85.2705">1</text><text fill="#000000" font-family="sans-serif" font-size="13" lengthAdjust="spacing" textLength="81" x="18" y="85.2705">POST /clients</text><polygon fill="#181818" points="346,117.8242,356,121.8242,346,125.8242,350,121.8242" style="stroke:#181818;stroke-width:1.0;"/><line style="stroke:#181818;stroke-width:1.0;" x1="211" x2="352" y1="121.8242" y2="121.8242"/><text fill="#000000" font-family="sans-serif" font-size="13" font-weight="bold" lengthAdjust="spacing" textLength="7" x="218" y="116.5615">2</text><text fill="#000000" font-family="sans-serif" font-size="13" lengthAdjust="spacing" textLength="117" x="229" y="116.5615">createClient(req,res)</text><polygon fill="#181818" points="435,149.1152,445,153.1152,435,157.1152,439,153.1152" style="stroke:#181818;stroke-width:1.0;"/><line style="stroke:#181818;stroke-width:1.0;stroke-dasharray:2.0,2.0;" x1="368" x2="441" y1="153.1152" y2="153.1152"/><text fill="#000000" font-family="sans-serif" font-size="13" font-weight="bold" lengthAdjust="spacing" textLength="7" x="375" y="147.8525">3</text><text fill="#000000" font-family="sans-serif" font-size="13" lengthAdjust="spacing" textLength="44" x="386" y="147.8525">create()</text><rect fill="#E2E2F0" height="51.2422" rx="2.5" ry="2.5" style="stroke:#181818;stroke-width:0.5;" width="80" x="447" y="129.8242"/><text fill="#000000" font-family="sans-serif" font-size="14" lengthAdjust="spacing" textLength="24" x="475" y="151.9316">dto:</text><text fill="#000000" font-family="sans-serif" font-size="14" lengthAdjust="spacing" textLength="66" x="454" y="170.5527">ClientDTO</text><polygon fill="#181818" points="550.5,211.3574,560.5,215.3574,550.5,219.3574,554.5,215.3574" style="stroke:#181818;stroke-width:1.0;"/><line style="stroke:#181818;stroke-width:1.0;" x1="368" x2="556.5" y1="215.3574" y2="215.3574"/><text fill="#000000" font-family="sans-serif" font-size="13" font-weight="bold" lengthAdjust="spacing" textLength="7" x="375" y="210.0947">4</text><text fill="#000000" font-family="sans-serif" font-size="13" lengthAdjust="spacing" textLength="95" x="386" y="210.0947">createClient(dto)</text><polygon fill="#181818" points="639.5,242.6484,649.5,246.6484,639.5,250.6484,643.5,246.6484" style="stroke:#181818;stroke-width:1.0;"/><line style="stroke:#181818;stroke-width:1.0;stroke-dasharray:2.0,2.0;" x1="572.5" x2="645.5" y1="246.6484" y2="246.6484"/><text fill="#000000" font-family="sans-serif" font-size="13" font-weight="bold" lengthAdjust="spacing" textLength="7" x="579.5" y="241.3857">5</text><text fill="#000000" font-family="sans-serif" font-size="13" lengthAdjust="spacing" textLength="44" x="590.5" y="241.3857">create()</text><rect fill="#E2E2F0" height="51.2422" rx="2.5" ry="2.5" style="stroke:#181818;stroke-width:0.5;" width="50" x="651.5" y="223.3574"/><text fill="#000000" font-family="sans-serif" font-size="14" lengthAdjust="spacing" textLength="32" x="660.5" y="245.4648">user:</text><text fill="#000000" font-family="sans-serif" font-size="14" lengthAdjust="spacing" textLength="36" x="658.5" y="264.0859">Client</text><path d="M3,292.5996 L64,292.5996 L64,301.8906 L54,311.8906 L3,311.8906 L3,292.5996 " fill="#EEEEEE" style="stroke:#000000;stroke-width:1.5;"/><rect fill="none" height="441.0742" style="stroke:#000000;stroke-width:1.5;" width="1169.5" x="3" y="292.5996"/><text fill="#000000" font-family="sans-serif" font-size="13" font-weight="bold" lengthAdjust="spacing" textLength="16" x="18" y="307.6279">alt</text><text fill="#000000" font-family="sans-serif" font-size="11" font-weight="bold" lengthAdjust="spacing" textLength="100" x="79" y="306.4697">[user not created]</text><polygon fill="#181818" points="379,331.1816,369,335.1816,379,339.1816,375,335.1816" style="stroke:#181818;stroke-width:1.0;"/><line style="stroke:#181818;stroke-width:1.0;stroke-dasharray:2.0,2.0;" x1="373" x2="561.5" y1="335.1816" y2="335.1816"/><text fill="#000000" font-family="sans-serif" font-size="13" font-weight="bold" lengthAdjust="spacing" textLength="7" x="385" y="329.9189">6</text><text fill="#000000" font-family="sans-serif" font-size="13" lengthAdjust="spacing" textLength="26" x="396" y="329.9189">error</text><polygon fill="#181818" points="222,362.4727,212,366.4727,222,370.4727,218,366.4727" style="stroke:#181818;stroke-width:1.0;"/><line style="stroke:#181818;stroke-width:1.0;stroke-dasharray:2.0,2.0;" x1="216" x2="357" y1="366.4727" y2="366.4727"/><text fill="#000000" font-family="sans-serif" font-size="13" font-weight="bold" lengthAdjust="spacing" textLength="7" x="228" y="361.21">7</text><text fill="#000000" font-family="sans-serif" font-size="13" lengthAdjust="spacing" textLength="59" x="239" y="361.21">error (422)</text><polygon fill="#181818" points="11,393.7637,1,397.7637,11,401.7637,7,397.7637" style="stroke:#181818;stroke-width:1.0;"/><line style="stroke:#181818;stroke-width:1.0;stroke-dasharray:2.0,2.0;" x1="5" x2="200" y1="397.7637" y2="397.7637"/><text fill="#000000" font-family="sans-serif" font-size="13" font-weight="bold" lengthAdjust="spacing" textLength="7" x="17" y="392.501">8</text><text fill="#000000" font-family="sans-serif" font-size="13" lengthAdjust="spacing" textLength="164" x="28" y="392.501">422: Unprocessable Content</text><line style="stroke:#000000;stroke-width:1.0;stroke-dasharray:2.0,2.0;" x1="3" x2="1172.5" y1="406.7637" y2="406.7637"/><text fill="#000000" font-family="sans-serif" font-size="11" font-weight="bold" lengthAdjust="spacing" textLength="152" x="8" y="418.6338">[user created successfully]</text><polygon fill="#181818" points="735.5,441.6855,745.5,445.6855,735.5,449.6855,739.5,445.6855" style="stroke:#181818;stroke-width:1.0;"/><line style="stroke:#181818;stroke-width:1.0;" x1="572.5" x2="741.5" y1="445.6855" y2="445.6855"/><text fill="#000000" font-family="sans-serif" font-size="13" font-weight="bold" lengthAdjust="spacing" textLength="7" x="579.5" y="440.4229">9</text><text fill="#000000" font-family="sans-serif" font-size="13" lengthAdjust="spacing" textLength="59" x="590.5" y="440.4229">save(user)</text><polygon fill="#181818" points="822,472.9766,832,476.9766,822,480.9766,826,476.9766" style="stroke:#181818;stroke-width:1.0;"/><line style="stroke:#181818;stroke-width:1.0;" x1="757.5" x2="828" y1="476.9766" y2="476.9766"/><text fill="#000000" font-family="sans-serif" font-size="13" font-weight="bold" lengthAdjust="spacing" textLength="14" x="764.5" y="471.7139">10</text><text fill="#000000" font-family="sans-serif" font-size="13" lengthAdjust="spacing" textLength="26" x="782.5" y="471.7139">save</text><polygon fill="#181818" points="898.5,534.2676,908.5,538.2676,898.5,542.2676,902.5,538.2676" style="stroke:#181818;stroke-width:1.0;"/><line style="stroke:#181818;stroke-width:1.0;" x1="572.5" x2="904.5" y1="538.2676" y2="538.2676"/><text fill="#000000" font-family="sans-serif" font-size="13" font-weight="bold" lengthAdjust="spacing" textLength="14" x="579.5" y="533.0049">11</text><text fill="#000000" font-family="sans-serif" font-size="13" lengthAdjust="spacing" textLength="70" x="597.5" y="533.0049">toDTO(user)</text><polygon fill="#181818" points="1019.5,565.5586,1029.5,569.5586,1019.5,573.5586,1023.5,569.5586" style="stroke:#181818;stroke-width:1.0;"/><line style="stroke:#181818;stroke-width:1.0;stroke-dasharray:2.0,2.0;" x1="920.5" x2="1025.5" y1="569.5586" y2="569.5586"/><text fill="#000000" font-family="sans-serif" font-size="13" font-weight="bold" lengthAdjust="spacing" textLength="14" x="927.5" y="564.2959">12</text><text fill="#000000" font-family="sans-serif" font-size="13" lengthAdjust="spacing" textLength="69" x="945.5" y="564.2959">create(user)</text><rect fill="#E2E2F0" height="51.2422" rx="2.5" ry="2.5" style="stroke:#181818;stroke-width:0.5;" width="131" x="1031.5" y="546.2676"/><text fill="#000000" font-family="sans-serif" font-size="14" lengthAdjust="spacing" textLength="74" x="1060" y="568.375">createdDto:</text><text fill="#000000" font-family="sans-serif" font-size="14" lengthAdjust="spacing" textLength="117" x="1038.5" y="586.9961">CreatedClientDTO</text><polygon fill="#181818" points="583.5,627.8008,573.5,631.8008,583.5,635.8008,579.5,631.8008" style="stroke:#181818;stroke-width:1.0;"/><line style="stroke:#181818;stroke-width:1.0;stroke-dasharray:2.0,2.0;" x1="577.5" x2="914.5" y1="631.8008" y2="631.8008"/><text fill="#000000" font-family="sans-serif" font-size="13" font-weight="bold" lengthAdjust="spacing" textLength="14" x="589.5" y="626.5381">13</text><text fill="#000000" font-family="sans-serif" font-size="13" lengthAdjust="spacing" textLength="63" x="607.5" y="626.5381">createdDto</text><polygon fill="#181818" points="379,659.0918,369,663.0918,379,667.0918,375,663.0918" style="stroke:#181818;stroke-width:1.0;"/><line style="stroke:#181818;stroke-width:1.0;stroke-dasharray:2.0,2.0;" x1="373" x2="566.5" y1="663.0918" y2="663.0918"/><text fill="#000000" font-family="sans-serif" font-size="13" font-weight="bold" lengthAdjust="spacing" textLength="14" x="385" y="657.8291">14</text><text fill="#000000" font-family="sans-serif" font-size="13" lengthAdjust="spacing" textLength="63" x="403" y="657.8291">createdDto</text><polygon fill="#181818" points="222,690.3828,212,694.3828,222,698.3828,218,694.3828" style="stroke:#181818;stroke-width:1.0;"/><line style="stroke:#181818;stroke-width:1.0;stroke-dasharray:2.0,2.0;" x1="216" x2="362" y1="694.3828" y2="694.3828"/><text fill="#000000" font-family="sans-serif" font-size="13" font-weight="bold" lengthAdjust="spacing" textLength="14" x="228" y="689.1201">15</text><text fill="#000000" font-family="sans-serif" font-size="13" lengthAdjust="spacing" textLength="96" x="246" y="689.1201">createdDto (201)</text><polygon fill="#181818" points="11,721.6738,1,725.6738,11,729.6738,7,725.6738" style="stroke:#181818;stroke-width:1.0;"/><line style="stroke:#181818;stroke-width:1.0;stroke-dasharray:2.0,2.0;" x1="5" x2="205" y1="725.6738" y2="725.6738"/><text fill="#000000" font-family="sans-serif" font-size="13" font-weight="bold" lengthAdjust="spacing" textLength="14" x="17" y="720.4111">16</text><text fill="#000000" font-family="sans-serif" font-size="13" lengthAdjust="spacing" textLength="74" x="35" y="720.4111">201: Created</text><!--SRC=[XPHDRzim38Rl-XL4JqwnO5smKp3aiEOwj6YxKtUHPGume5eU9HljlnyfUuhaE8jk3X- -_D2hw26uRdYhaPJgDONMjBtk0jmykI7W3MWFL0RkNHV8MOiKeoQGBO4ckFslxjwss8NZoqEatld7adf66bipLV2ZAOE3HqeQ4QaNtM7lV1iSVKmjycS97ByVgHtd7fjQBQRxeVj-3hxfVX4qX3fWSvpcc3xASMGQfLwt1o3Om-F3ymjyDf7mIflGZfp2UmC-14p9aXYSX2UfYl3F9qA_KH5BMN6VC9-OjsK1sH_StYQDQhDW3hB4PGbEEd6fWcmRiYE9KgDU52WWRGF8hK3dmemq1P0hpUCYaQCpACr4_n2elkvscpFmzTjs6o6Exk5drvCpwBskBOAOa2SiSj1wd7gS-mC_6CduFLZxiTxi8Lg7QtWzOYN9vtsSBbHS1YidQh1MKyzAgrJIOJkknHly7v55On-Nvc4xSnF1iLMlpIFENsj49EI29iybHwohbPE5zGNbghbFvOrTtSKAaeNZyxrYn0l5CXLv4-gYIq_vKEtklfoMa2caTvjio-GUvhyFbL-VmgvHVm40]--></g></svg>