<?xml version="1.0" encoding="us-ascii" standalone="no"?><svg xmlns="http://www.w3.org/2000/svg" xmlns:xlink="http://www.w3.org/1999/xlink" contentStyleType="text/css" height="770px" preserveAspectRatio="none" style="width:1223px;height:770px;background:#FFFFFF;" version="1.1" viewBox="0 0 1223 770" width="1223px" zoomAndPan="magnify"><defs/><g><rect fill="#FFFFFF" height="582.708" style="stroke:#181818;stroke-width:1.0;" width="10" x="69" y="94.0679"/><rect fill="#FFFFFF" height="31.706" style="stroke:#181818;stroke-width:1.0;" width="10" x="300" y="117.7739"/><rect fill="#FFFFFF" height="480.5899" style="stroke:#181818;stroke-width:1.0;" width="10" x="300" y="181.186"/><rect fill="#FFFFFF" height="417.1779" style="stroke:#181818;stroke-width:1.0;" width="10" x="390" y="212.892"/><rect fill="#FFFFFF" height="202.598" style="stroke:#181818;stroke-width:1.0;" width="10" x="898" y="288.6659"/><rect fill="#FFFFFF" height="95.118" style="stroke:#181818;stroke-width:1.0;" width="10" x="1094" y="320.3719"/><rect fill="none" height="163.512" style="stroke:#000000;stroke-width:1.5;" width="437.5" x="10" y="506.2639"/><line style="stroke:#181818;stroke-width:0.5;stroke-dasharray:5.0,5.0;" x1="74" x2="74" y1="84.0679" y2="686.7759"/><line style="stroke:#181818;stroke-width:0.5;stroke-dasharray:5.0,5.0;" x1="304.5" x2="304.5" y1="84.0679" y2="686.7759"/><line style="stroke:#181818;stroke-width:0.5;stroke-dasharray:5.0,5.0;" x1="394.5" x2="394.5" y1="84.0679" y2="686.7759"/><line style="stroke:#181818;stroke-width:0.5;stroke-dasharray:5.0,5.0;" x1="534" x2="534" y1="252.9259" y2="686.7759"/><line style="stroke:#181818;stroke-width:0.5;stroke-dasharray:5.0,5.0;" x1="704" x2="704" y1="455.5239" y2="686.7759"/><line style="stroke:#181818;stroke-width:0.5;stroke-dasharray:5.0,5.0;" x1="902.5" x2="902.5" y1="84.0679" y2="686.7759"/><line style="stroke:#181818;stroke-width:0.5;stroke-dasharray:5.0,5.0;" x1="1098.5" x2="1098.5" y1="84.0679" y2="686.7759"/><text fill="#000000" font-family="sans-serif" font-size="14" lengthAdjust="spacing" textLength="102" x="20" y="79.9659">Potential Client</text><ellipse cx="74" cy="13.5" fill="#E2E2F0" rx="8" ry="8" style="stroke:#181818;stroke-width:0.5;"/><path d="M74,21.5 L74,48.5 M61,29.5 L87,29.5 M74,48.5 L61,63.5 M74,48.5 L87,63.5 " fill="none" style="stroke:#181818;stroke-width:0.5;"/><text fill="#000000" font-family="sans-serif" font-size="14" lengthAdjust="spacing" textLength="102" x="20" y="700.7418">Potential Client</text><ellipse cx="74" cy="713.3438" fill="#E2E2F0" rx="8" ry="8" style="stroke:#181818;stroke-width:0.5;"/><path d="M74,721.3438 L74,748.3438 M61,729.3438 L87,729.3438 M74,748.3438 L61,763.3438 M74,748.3438 L87,763.3438 " fill="none" style="stroke:#181818;stroke-width:0.5;"/><rect fill="#E2E2F0" height="33.0679" rx="2.5" ry="2.5" style="stroke:#181818;stroke-width:0.5;" width="45" x="282.5" y="50"/><text fill="#000000" font-family="sans-serif" font-size="14" lengthAdjust="spacing" textLength="31" x="289.5" y="71.9659">View</text><rect fill="#E2E2F0" height="33.0679" rx="2.5" ry="2.5" style="stroke:#181818;stroke-width:0.5;" width="45" x="282.5" y="685.7759"/><text fill="#000000" font-family="sans-serif" font-size="14" lengthAdjust="spacing" textLength="31" x="289.5" y="707.7418">View</text><rect fill="#E2E2F0" height="33.0679" rx="2.5" ry="2.5" style="stroke:#181818;stroke-width:0.5;" width="85" x="352.5" y="50"/><text fill="#000000" font-family="sans-serif" font-size="14" lengthAdjust="spacing" textLength="71" x="359.5" y="71.9659">:Controller</text><rect fill="#E2E2F0" height="33.0679" rx="2.5" ry="2.5" style="stroke:#181818;stroke-width:0.5;" width="85" x="352.5" y="685.7759"/><text fill="#000000" font-family="sans-serif" font-size="14" lengthAdjust="spacing" textLength="71" x="359.5" y="707.7418">:Controller</text><rect fill="#E2E2F0" height="33.0679" rx="2.5" ry="2.5" style="stroke:#181818;stroke-width:0.5;" width="108" x="480" y="685.7759"/><text fill="#000000" font-family="sans-serif" font-size="14" lengthAdjust="spacing" textLength="94" x="487" y="707.7418">dto:ClientDTO</text><rect fill="#E2E2F0" height="33.0679" rx="2.5" ry="2.5" style="stroke:#181818;stroke-width:0.5;" width="213" x="598" y="685.7759"/><text fill="#000000" font-family="sans-serif" font-size="14" lengthAdjust="spacing" textLength="199" x="605" y="707.7418">createdDto:CreatedClientDTO</text><rect fill="#E2E2F0" height="33.0679" rx="2.5" ry="2.5" style="stroke:#181818;stroke-width:0.5;" width="97" x="854.5" y="50"/><text fill="#000000" font-family="sans-serif" font-size="14" lengthAdjust="spacing" textLength="83" x="861.5" y="71.9659">:UserService</text><rect fill="#E2E2F0" height="33.0679" rx="2.5" ry="2.5" style="stroke:#181818;stroke-width:0.5;" width="97" x="854.5" y="685.7759"/><text fill="#000000" font-family="sans-serif" font-size="14" lengthAdjust="spacing" textLength="83" x="861.5" y="707.7418">:UserService</text><rect fill="#E2E2F0" height="33.0679" rx="2.5" ry="2.5" style="stroke:#181818;stroke-width:0.5;" width="93" x="1052.5" y="50"/><text fill="#000000" font-family="sans-serif" font-size="14" lengthAdjust="spacing" textLength="79" x="1059.5" y="71.9659">HTTP Driver</text><rect fill="#E2E2F0" height="33.0679" rx="2.5" ry="2.5" style="stroke:#181818;stroke-width:0.5;" width="93" x="1052.5" y="685.7759"/><text fill="#000000" font-family="sans-serif" font-size="14" lengthAdjust="spacing" textLength="79" x="1059.5" y="707.7418">HTTP Driver</text><rect fill="#FFFFFF" height="582.708" style="stroke:#181818;stroke-width:1.0;" width="10" x="69" y="94.0679"/><rect fill="#FFFFFF" height="31.706" style="stroke:#181818;stroke-width:1.0;" width="10" x="300" y="117.7739"/><rect fill="#FFFFFF" height="480.5899" style="stroke:#181818;stroke-width:1.0;" width="10" x="300" y="181.186"/><rect fill="#FFFFFF" height="417.1779" style="stroke:#181818;stroke-width:1.0;" width="10" x="390" y="212.892"/><rect fill="#FFFFFF" height="202.598" style="stroke:#181818;stroke-width:1.0;" width="10" x="898" y="288.6659"/><rect fill="#FFFFFF" height="95.118" style="stroke:#181818;stroke-width:1.0;" width="10" x="1094" y="320.3719"/><polygon fill="#181818" points="288,113.7739,298,117.7739,288,121.7739,292,117.7739" style="stroke:#181818;stroke-width:1.0;"/><line style="stroke:#181818;stroke-width:1.0;" x1="79" x2="294" y1="117.7739" y2="117.7739"/><text fill="#000000" font-family="sans-serif" font-size="13" font-weight="bold" lengthAdjust="spacing" textLength="7" x="86" y="111.9649">1</text><text fill="#000000" font-family="sans-serif" font-size="13" lengthAdjust="spacing" textLength="191" x="97" y="111.9649">wants to register as a client user</text><polygon fill="#181818" points="90,145.4799,80,149.4799,90,153.4799,86,149.4799" style="stroke:#181818;stroke-width:1.0;"/><line style="stroke:#181818;stroke-width:1.0;stroke-dasharray:2.0,2.0;" x1="84" x2="304" y1="149.4799" y2="149.4799"/><text fill="#000000" font-family="sans-serif" font-size="13" font-weight="bold" lengthAdjust="spacing" textLength="7" x="96" y="143.6709">2</text><text fill="#000000" font-family="sans-serif" font-size="13" lengthAdjust="spacing" textLength="76" x="107" y="143.6709">request data</text><polygon fill="#181818" points="288,177.186,298,181.186,288,185.186,292,181.186" style="stroke:#181818;stroke-width:1.0;"/><line style="stroke:#181818;stroke-width:1.0;" x1="79" x2="294" y1="181.186" y2="181.186"/><text fill="#000000" font-family="sans-serif" font-size="13" font-weight="bold" lengthAdjust="spacing" textLength="7" x="86" y="175.377">3</text><text fill="#000000" font-family="sans-serif" font-size="13" lengthAdjust="spacing" textLength="82" x="97" y="175.377">provides data</text><polygon fill="#181818" points="378,208.892,388,212.892,378,216.892,382,212.892" style="stroke:#181818;stroke-width:1.0;"/><line style="stroke:#181818;stroke-width:1.0;" x1="310" x2="384" y1="212.892" y2="212.892"/><text fill="#000000" font-family="sans-serif" font-size="13" font-weight="bold" lengthAdjust="spacing" textLength="7" x="317" y="207.083">4</text><text fill="#000000" font-family="sans-serif" font-size="13" lengthAdjust="spacing" textLength="50" x="328" y="207.083">submit()</text><polygon fill="#181818" points="468,240.598,478,244.598,468,248.598,472,244.598" style="stroke:#181818;stroke-width:1.0;"/><line style="stroke:#181818;stroke-width:1.0;stroke-dasharray:2.0,2.0;" x1="400" x2="474" y1="244.598" y2="244.598"/><text fill="#000000" font-family="sans-serif" font-size="13" font-weight="bold" lengthAdjust="spacing" textLength="7" x="407" y="238.789">5</text><text fill="#000000" font-family="sans-serif" font-size="13" lengthAdjust="spacing" textLength="45" x="418" y="238.789">create()</text><rect fill="#E2E2F0" height="33.0679" rx="2.5" ry="2.5" style="stroke:#181818;stroke-width:0.5;" width="108" x="480" y="220.892"/><text fill="#000000" font-family="sans-serif" font-size="14" lengthAdjust="spacing" textLength="94" x="487" y="242.8579">dto:ClientDTO</text><polygon fill="#181818" points="886,284.6659,896,288.6659,886,292.6659,890,288.6659" style="stroke:#181818;stroke-width:1.0;"/><line style="stroke:#181818;stroke-width:1.0;" x1="400" x2="892" y1="288.6659" y2="288.6659"/><text fill="#000000" font-family="sans-serif" font-size="13" font-weight="bold" lengthAdjust="spacing" textLength="7" x="407" y="282.8569">6</text><text fill="#000000" font-family="sans-serif" font-size="13" lengthAdjust="spacing" textLength="94" x="418" y="282.8569">createUser(dto)</text><polygon fill="#181818" points="1082,316.3719,1092,320.3719,1082,324.3719,1086,320.3719" style="stroke:#181818;stroke-width:1.0;"/><line style="stroke:#181818;stroke-width:1.0;" x1="908" x2="1088" y1="320.3719" y2="320.3719"/><text fill="#000000" font-family="sans-serif" font-size="13" font-weight="bold" lengthAdjust="spacing" textLength="7" x="915" y="314.5629">7</text><text fill="#000000" font-family="sans-serif" font-size="13" lengthAdjust="spacing" textLength="156" x="926" y="314.5629">post(API_URL/clients, dto)</text><polygon fill="#181818" points="1205,348.0779,1215,352.0779,1205,356.0779,1209,352.0779" style="stroke:#181818;stroke-width:1.0;"/><line style="stroke:#181818;stroke-width:1.0;" x1="1104" x2="1211" y1="352.0779" y2="352.0779"/><text fill="#000000" font-family="sans-serif" font-size="13" font-weight="bold" lengthAdjust="spacing" textLength="7" x="1111" y="346.2689">8</text><text fill="#000000" font-family="sans-serif" font-size="13" lengthAdjust="spacing" textLength="78" x="1122" y="346.2689">POST /clients</text><polygon fill="#181818" points="1115,379.784,1105,383.784,1115,387.784,1111,383.784" style="stroke:#181818;stroke-width:1.0;"/><line style="stroke:#181818;stroke-width:1.0;stroke-dasharray:2.0,2.0;" x1="1109" x2="1216" y1="383.784" y2="383.784"/><text fill="#000000" font-family="sans-serif" font-size="13" font-weight="bold" lengthAdjust="spacing" textLength="7" x="1121" y="377.975">9</text><text fill="#000000" font-family="sans-serif" font-size="13" lengthAdjust="spacing" textLength="26" x="1132" y="377.975">user</text><polygon fill="#181818" points="919,411.49,909,415.49,919,419.49,915,415.49" style="stroke:#181818;stroke-width:1.0;"/><line style="stroke:#181818;stroke-width:1.0;stroke-dasharray:2.0,2.0;" x1="913" x2="1098" y1="415.49" y2="415.49"/><text fill="#000000" font-family="sans-serif" font-size="13" font-weight="bold" lengthAdjust="spacing" textLength="14" x="925" y="409.681">10</text><text fill="#000000" font-family="sans-serif" font-size="13" lengthAdjust="spacing" textLength="26" x="943" y="409.681">user</text><polygon fill="#181818" points="822,443.196,812,447.196,822,451.196,818,447.196" style="stroke:#181818;stroke-width:1.0;"/><line style="stroke:#181818;stroke-width:1.0;stroke-dasharray:2.0,2.0;" x1="816" x2="897" y1="447.196" y2="447.196"/><text fill="#000000" font-family="sans-serif" font-size="13" font-weight="bold" lengthAdjust="spacing" textLength="14" x="828" y="441.387">11</text><text fill="#000000" font-family="sans-serif" font-size="13" lengthAdjust="spacing" textLength="45" x="846" y="441.387">create()</text><rect fill="#E2E2F0" height="33.0679" rx="2.5" ry="2.5" style="stroke:#181818;stroke-width:0.5;" width="213" x="598" y="423.49"/><text fill="#000000" font-family="sans-serif" font-size="14" lengthAdjust="spacing" textLength="199" x="605" y="445.4559">createdDto:CreatedClientDTO</text><polygon fill="#181818" points="411,487.2639,401,491.2639,411,495.2639,407,491.2639" style="stroke:#181818;stroke-width:1.0;"/><line style="stroke:#181818;stroke-width:1.0;stroke-dasharray:2.0,2.0;" x1="405" x2="902" y1="491.2639" y2="491.2639"/><text fill="#000000" font-family="sans-serif" font-size="13" font-weight="bold" lengthAdjust="spacing" textLength="14" x="417" y="485.4549">12</text><text fill="#000000" font-family="sans-serif" font-size="13" lengthAdjust="spacing" textLength="67" x="435" y="485.4549">createdDto</text><path d="M10,506.2639 L73,506.2639 L73,515.9699 L63,525.9699 L10,525.9699 L10,506.2639 " fill="#EEEEEE" style="stroke:#000000;stroke-width:1.5;"/><rect fill="none" height="163.512" style="stroke:#000000;stroke-width:1.5;" width="437.5" x="10" y="506.2639"/><text fill="#000000" font-family="sans-serif" font-size="13" font-weight="bold" lengthAdjust="spacing" textLength="18" x="25" y="521.1609">alt</text><text fill="#000000" font-family="sans-serif" font-size="11" font-weight="bold" lengthAdjust="spacing" textLength="101" x="88" y="520.0228">[user not created]</text><polygon fill="#181818" points="321,545.6759,311,549.6759,321,553.6759,317,549.6759" style="stroke:#181818;stroke-width:1.0;"/><line style="stroke:#181818;stroke-width:1.0;stroke-dasharray:2.0,2.0;" x1="315" x2="389" y1="549.6759" y2="549.6759"/><text fill="#000000" font-family="sans-serif" font-size="13" font-weight="bold" lengthAdjust="spacing" textLength="14" x="327" y="543.8669">13</text><text fill="#000000" font-family="sans-serif" font-size="13" lengthAdjust="spacing" textLength="30" x="345" y="543.8669">error</text><polygon fill="#181818" points="90,577.382,80,581.382,90,585.382,86,581.382" style="stroke:#181818;stroke-width:1.0;"/><line style="stroke:#181818;stroke-width:1.0;stroke-dasharray:2.0,2.0;" x1="84" x2="299" y1="581.382" y2="581.382"/><text fill="#000000" font-family="sans-serif" font-size="13" font-weight="bold" lengthAdjust="spacing" textLength="14" x="96" y="575.573">14</text><text fill="#000000" font-family="sans-serif" font-size="13" lengthAdjust="spacing" textLength="73" x="114" y="575.573">inform error</text><line style="stroke:#000000;stroke-width:1.0;stroke-dasharray:2.0,2.0;" x1="10" x2="447.5" y1="590.382" y2="590.382"/><text fill="#000000" font-family="sans-serif" font-size="11" font-weight="bold" lengthAdjust="spacing" textLength="49" x="15" y="602.1409">[success]</text><polygon fill="#181818" points="321,626.0699,311,630.0699,321,634.0699,317,630.0699" style="stroke:#181818;stroke-width:1.0;"/><line style="stroke:#181818;stroke-width:1.0;stroke-dasharray:2.0,2.0;" x1="315" x2="394" y1="630.0699" y2="630.0699"/><text fill="#000000" font-family="sans-serif" font-size="13" font-weight="bold" lengthAdjust="spacing" textLength="14" x="327" y="624.2609">15</text><text fill="#000000" font-family="sans-serif" font-size="13" lengthAdjust="spacing" textLength="26" x="345" y="624.2609">user</text><polygon fill="#181818" points="90,657.7759,80,661.7759,90,665.7759,86,661.7759" style="stroke:#181818;stroke-width:1.0;"/><line style="stroke:#181818;stroke-width:1.0;stroke-dasharray:2.0,2.0;" x1="84" x2="304" y1="661.7759" y2="661.7759"/><text fill="#000000" font-family="sans-serif" font-size="13" font-weight="bold" lengthAdjust="spacing" textLength="14" x="96" y="655.9669">16</text><text fill="#000000" font-family="sans-serif" font-size="13" lengthAdjust="spacing" textLength="115" x="114" y="655.9669">shows created user</text><!--SRC=[VLJ1RgCm4Btp5QDSDgsAzevMaLRDePLMIjJIlQqgOoQjLM9dxO7yViTZGW8bzIKEVk_Dp7i6rPApxRv2dsLAa_Ems3f2IqOrSDyOtYr01MW30mxAaz7ce2p1ug_1ennrl1aV5VVEadTDWruGcdmpOTVaYYI_BZS9zChFnY3jKH7MwuXDsp6b4ahs0yhDUbD0G6OpYZU-Cnh1M79GAVtXThluNzaQj2X0ZRNHKH6SnJ1f_uK5dfE6r0cTpYRzFvJb5jRUTFs8xqG7ST1qiODe5_3YNyXNOX4KS6Hg0Ex9uvi9X3uorQcbbgiAQL0HPw5Vef6pMDGiME9_Yu47KQG4K-EODrF_u5rdQWndqdUbLf8Rqq9RxGqjRuRpWIN1miKIHcnIqhozPNOAaTapm5MqTi14svTCknaXXs8n1PYiI6ULw7wSpmLQ_ju-lhuy_VcPN0rty4Lnf9g2Wvabeldg7mjlDyybd1IlWt_bUKGFGSuh3bFFuYvYd6zDHcQDwgl3rw1zZkVNARjICLgicdGLmJewKRBvaFjhXTwxyI2JkshiplbzZyCcSA5MQmpXMzcHFHTDfg_9bLBXtHt3gUspnFJbGCipNJnayYS0]--></g></svg>