<?xml version="1.0" encoding="us-ascii" standalone="no"?><svg xmlns="http://www.w3.org/2000/svg" xmlns:xlink="http://www.w3.org/1999/xlink" contentStyleType="text/css" height="1064px" preserveAspectRatio="none" style="width:923px;height:1063px;background:#FFFFFF;" version="1.1" viewBox="0 0 923 1063" width="924px" zoomAndPan="magnify"><defs/><g><rect fill="#FFFFFF" height="913.6354" style="stroke:#181818;stroke-width:0.6999999999999998;" width="7" x="65.8" y="65.5348"/><rect fill="#FFFFFF" height="275.1861" style="stroke:#181818;stroke-width:0.6999999999999998;" width="7" x="210" y="81.8385"/><rect fill="#FFFFFF" height="283.338" style="stroke:#181818;stroke-width:0.6999999999999998;" width="7" x="210" y="387.0802"/><rect fill="#FFFFFF" height="286.8482" style="stroke:#181818;stroke-width:0.6999999999999998;" width="7" x="210" y="692.3219"/><rect fill="#FFFFFF" height="231.3787" style="stroke:#181818;stroke-width:0.6999999999999998;" width="7" x="316.4" y="103.7422"/><rect fill="#FFFFFF" height="231.3787" style="stroke:#181818;stroke-width:0.6999999999999998;" width="7" x="316.4" y="417.1357"/><rect fill="#FFFFFF" height="243.0408" style="stroke:#181818;stroke-width:0.6999999999999998;" width="7" x="316.4" y="714.2256"/><rect fill="#FFFFFF" height="113.7186" style="stroke:#181818;stroke-width:0.6999999999999998;" width="7" x="422.8" y="125.6459"/><rect fill="#FFFFFF" height="175.9297" style="stroke:#181818;stroke-width:0.6999999999999998;" width="7" x="422.8" y="439.0395"/><rect fill="#FFFFFF" height="199.2334" style="stroke:#181818;stroke-width:0.6999999999999998;" width="7" x="422.8" y="736.1293"/><rect fill="#FFFFFF" height="69.9111" style="stroke:#181818;stroke-width:0.6999999999999998;" width="7" x="639.8" y="147.5496"/><rect fill="#FFFFFF" height="69.9111" style="stroke:#181818;stroke-width:0.6999999999999998;" width="7" x="639.8" y="460.9432"/><rect fill="#FFFFFF" height="69.9111" style="stroke:#181818;stroke-width:0.6999999999999998;" width="7" x="639.8" y="758.033"/><rect fill="#FFFFFF" height="24.0037" style="stroke:#181818;stroke-width:0.6999999999999998;" width="7" x="772.1" y="171.5533"/><rect fill="#FFFFFF" height="24.0037" style="stroke:#181818;stroke-width:0.6999999999999998;" width="7" x="772.1" y="482.8469"/><rect fill="#FFFFFF" height="24.0037" style="stroke:#181818;stroke-width:0.6999999999999998;" width="7" x="772.1" y="779.9367"/><rect fill="none" height="744.7057" style="stroke:#000000;stroke-width:1.0499999999999998;" width="912.1" x="7" y="249.8645"/><rect fill="none" height="426.4121" style="stroke:#000000;stroke-width:1.0499999999999998;" width="898.1" x="14" y="563.258"/><rect fill="none" height="146.326" style="stroke:#000000;stroke-width:1.0499999999999998;" width="433.65" x="21" y="838.4441"/><line style="stroke:#181818;stroke-width:0.3499999999999999;stroke-dasharray:5.0,5.0;" x1="69.3" x2="69.3" y1="58.5348" y2="1006.4701"/><line style="stroke:#181818;stroke-width:0.3499999999999999;stroke-dasharray:5.0,5.0;" x1="213.5" x2="213.5" y1="58.5348" y2="1006.4701"/><line style="stroke:#181818;stroke-width:0.3499999999999999;stroke-dasharray:5.0,5.0;" x1="319.9" x2="319.9" y1="58.5348" y2="1006.4701"/><line style="stroke:#181818;stroke-width:0.3499999999999999;stroke-dasharray:5.0,5.0;" x1="425.95" x2="425.95" y1="58.5348" y2="1006.4701"/><line style="stroke:#181818;stroke-width:0.3499999999999999;stroke-dasharray:5.0,5.0;" x1="643.3" x2="643.3" y1="58.5348" y2="1006.4701"/><line style="stroke:#181818;stroke-width:0.3499999999999999;stroke-dasharray:5.0,5.0;" x1="775.25" x2="775.25" y1="58.5348" y2="1006.4701"/><text fill="#000000" font-family="sans-serif" font-size="9.8" lengthAdjust="spacing" textLength="78.4" x="28" y="56.0752">Campus Manager</text><ellipse cx="69.3" cy="9.45" fill="#E2E2F0" rx="5.6" ry="5.6" style="stroke:#181818;stroke-width:0.3499999999999999;"/><path d="M69.3,15.05 L69.3,33.95 M60.2,20.65 L78.4,20.65 M69.3,33.95 L60.2,44.45 M69.3,33.95 L78.4,44.45 " fill="none" style="stroke:#181818;stroke-width:0.3499999999999999;"/><text fill="#000000" font-family="sans-serif" font-size="9.8" lengthAdjust="spacing" textLength="78.4" x="28" y="1016.3453">Campus Manager</text><ellipse cx="69.3" cy="1024.7549" fill="#E2E2F0" rx="5.6" ry="5.6" style="stroke:#181818;stroke-width:0.3499999999999999;"/><path d="M69.3,1030.3549 L69.3,1049.2549 M60.2,1035.9549 L78.4,1035.9549 M69.3,1049.2549 L60.2,1059.7549 M69.3,1049.2549 L78.4,1059.7549 " fill="none" style="stroke:#181818;stroke-width:0.3499999999999999;"/><rect fill="#E2E2F0" height="22.8348" rx="1.75" ry="1.75" style="stroke:#181818;stroke-width:0.3499999999999999;" width="88.2" x="169.4" y="35"/><text fill="#000000" font-family="sans-serif" font-size="9.8" lengthAdjust="spacing" textLength="78.4" x="174.3" y="50.4752">HTML + CSS + JS</text><rect fill="#E2E2F0" height="22.8348" rx="1.75" ry="1.75" style="stroke:#181818;stroke-width:0.3499999999999999;" width="88.2" x="169.4" y="1005.7701"/><text fill="#000000" font-family="sans-serif" font-size="9.8" lengthAdjust="spacing" textLength="78.4" x="174.3" y="1021.2453">HTML + CSS + JS</text><rect fill="#E2E2F0" height="22.8348" rx="1.75" ry="1.75" style="stroke:#181818;stroke-width:0.3499999999999999;" width="53.2" x="293.3" y="35"/><text fill="#000000" font-family="sans-serif" font-size="9.8" lengthAdjust="spacing" textLength="43.4" x="298.2" y="50.4752">Controller</text><rect fill="#E2E2F0" height="22.8348" rx="1.75" ry="1.75" style="stroke:#181818;stroke-width:0.3499999999999999;" width="53.2" x="293.3" y="1005.7701"/><text fill="#000000" font-family="sans-serif" font-size="9.8" lengthAdjust="spacing" textLength="43.4" x="298.2" y="1021.2453">Controller</text><rect fill="#E2E2F0" height="22.8348" rx="1.75" ry="1.75" style="stroke:#181818;stroke-width:0.3499999999999999;" width="42.7" x="404.95" y="35"/><text fill="#000000" font-family="sans-serif" font-size="9.8" lengthAdjust="spacing" textLength="32.9" x="409.85" y="50.4752">Service</text><rect fill="#E2E2F0" height="22.8348" rx="1.75" ry="1.75" style="stroke:#181818;stroke-width:0.3499999999999999;" width="42.7" x="404.95" y="1005.7701"/><text fill="#000000" font-family="sans-serif" font-size="9.8" lengthAdjust="spacing" textLength="32.9" x="409.85" y="1021.2453">Service</text><rect fill="#E2E2F0" height="22.8348" rx="1.75" ry="1.75" style="stroke:#181818;stroke-width:0.3499999999999999;" width="64.4" x="611.1" y="35"/><text fill="#000000" font-family="sans-serif" font-size="9.8" lengthAdjust="spacing" textLength="54.6" x="616" y="50.4752">HTTP Driver</text><rect fill="#E2E2F0" height="22.8348" rx="1.75" ry="1.75" style="stroke:#181818;stroke-width:0.3499999999999999;" width="64.4" x="611.1" y="1005.7701"/><text fill="#000000" font-family="sans-serif" font-size="9.8" lengthAdjust="spacing" textLength="54.6" x="616" y="1021.2453">HTTP Driver</text><rect fill="#E2E2F0" height="22.8348" rx="1.75" ry="1.75" style="stroke:#181818;stroke-width:0.3499999999999999;" width="24.5" x="763.35" y="35"/><text fill="#000000" font-family="sans-serif" font-size="9.8" lengthAdjust="spacing" textLength="14.7" x="768.25" y="50.4752">MD</text><rect fill="#E2E2F0" height="22.8348" rx="1.75" ry="1.75" style="stroke:#181818;stroke-width:0.3499999999999999;" width="24.5" x="763.35" y="1005.7701"/><text fill="#000000" font-family="sans-serif" font-size="9.8" lengthAdjust="spacing" textLength="14.7" x="768.25" y="1021.2453">MD</text><rect fill="#FFFFFF" height="913.6354" style="stroke:#181818;stroke-width:0.6999999999999998;" width="7" x="65.8" y="65.5348"/><rect fill="#FFFFFF" height="275.1861" style="stroke:#181818;stroke-width:0.6999999999999998;" width="7" x="210" y="81.8385"/><rect fill="#FFFFFF" height="283.338" style="stroke:#181818;stroke-width:0.6999999999999998;" width="7" x="210" y="387.0802"/><rect fill="#FFFFFF" height="286.8482" style="stroke:#181818;stroke-width:0.6999999999999998;" width="7" x="210" y="692.3219"/><rect fill="#FFFFFF" height="231.3787" style="stroke:#181818;stroke-width:0.6999999999999998;" width="7" x="316.4" y="103.7422"/><rect fill="#FFFFFF" height="231.3787" style="stroke:#181818;stroke-width:0.6999999999999998;" width="7" x="316.4" y="417.1357"/><rect fill="#FFFFFF" height="243.0408" style="stroke:#181818;stroke-width:0.6999999999999998;" width="7" x="316.4" y="714.2256"/><rect fill="#FFFFFF" height="113.7186" style="stroke:#181818;stroke-width:0.6999999999999998;" width="7" x="422.8" y="125.6459"/><rect fill="#FFFFFF" height="175.9297" style="stroke:#181818;stroke-width:0.6999999999999998;" width="7" x="422.8" y="439.0395"/><rect fill="#FFFFFF" height="199.2334" style="stroke:#181818;stroke-width:0.6999999999999998;" width="7" x="422.8" y="736.1293"/><rect fill="#FFFFFF" height="69.9111" style="stroke:#181818;stroke-width:0.6999999999999998;" width="7" x="639.8" y="147.5496"/><rect fill="#FFFFFF" height="69.9111" style="stroke:#181818;stroke-width:0.6999999999999998;" width="7" x="639.8" y="460.9432"/><rect fill="#FFFFFF" height="69.9111" style="stroke:#181818;stroke-width:0.6999999999999998;" width="7" x="639.8" y="758.033"/><rect fill="#FFFFFF" height="24.0037" style="stroke:#181818;stroke-width:0.6999999999999998;" width="7" x="772.1" y="171.5533"/><rect fill="#FFFFFF" height="24.0037" style="stroke:#181818;stroke-width:0.6999999999999998;" width="7" x="772.1" y="482.8469"/><rect fill="#FFFFFF" height="24.0037" style="stroke:#181818;stroke-width:0.6999999999999998;" width="7" x="772.1" y="779.9367"/><polygon fill="#181818" points="201.6,79.0385,208.6,81.8385,201.6,84.6385,204.4,81.8385" style="stroke:#181818;stroke-width:0.6999999999999998;"/><line style="stroke:#181818;stroke-width:0.6999999999999998;" x1="72.8" x2="205.8" y1="81.8385" y2="81.8385"/><text fill="#000000" font-family="sans-serif" font-size="9.1" font-weight="bold" lengthAdjust="spacing" textLength="4.9" x="77.7" y="78.1546">1</text><text fill="#000000" font-family="sans-serif" font-size="9.1" lengthAdjust="spacing" textLength="87.5" x="85.4" y="78.1546">wants to list buildings</text><polygon fill="#181818" points="308,100.9422,315,103.7422,308,106.5422,310.8,103.7422" style="stroke:#181818;stroke-width:0.6999999999999998;"/><line style="stroke:#181818;stroke-width:0.6999999999999998;" x1="217" x2="312.2" y1="103.7422" y2="103.7422"/><text fill="#000000" font-family="sans-serif" font-size="9.1" font-weight="bold" lengthAdjust="spacing" textLength="4.9" x="221.9" y="100.0583">2</text><text fill="#000000" font-family="sans-serif" font-size="9.1" lengthAdjust="spacing" textLength="39.2" x="229.6" y="100.0583">ngOnInit()</text><polygon fill="#181818" points="414.4,122.8459,421.4,125.6459,414.4,128.4459,417.2,125.6459" style="stroke:#181818;stroke-width:0.6999999999999998;"/><line style="stroke:#181818;stroke-width:0.6999999999999998;" x1="323.4" x2="418.6" y1="125.6459" y2="125.6459"/><text fill="#000000" font-family="sans-serif" font-size="9.1" font-weight="bold" lengthAdjust="spacing" textLength="4.9" x="328.3" y="121.962">3</text><text fill="#000000" font-family="sans-serif" font-size="9.1" lengthAdjust="spacing" textLength="55.3" x="336" y="121.962">getBuildings()</text><polygon fill="#181818" points="631.4,144.7496,638.4,147.5496,631.4,150.3496,634.2,147.5496" style="stroke:#181818;stroke-width:0.6999999999999998;"/><line style="stroke:#181818;stroke-width:0.6999999999999998;" x1="429.8" x2="635.6" y1="147.5496" y2="147.5496"/><text fill="#000000" font-family="sans-serif" font-size="9.1" font-weight="bold" lengthAdjust="spacing" textLength="4.9" x="434.7" y="143.8657">4</text><text fill="#000000" font-family="sans-serif" font-size="9.1" lengthAdjust="spacing" textLength="99.4" x="442.4" y="143.8657">get({baseURL}/buildings)</text><polygon fill="#181818" points="763.7,168.7533,770.7,171.5533,763.7,174.3533,766.5,171.5533" style="stroke:#181818;stroke-width:0.6999999999999998;"/><line style="stroke:#181818;stroke-width:0.6999999999999998;" x1="646.8" x2="767.9" y1="171.5533" y2="171.5533"/><text fill="#000000" font-family="sans-serif" font-size="9.1" font-weight="bold" lengthAdjust="spacing" textLength="4.9" x="651.7" y="167.8694">5</text><text fill="#000000" font-family="sans-serif" font-size="9.1" lengthAdjust="spacing" textLength="59.5" x="659.4" y="167.8694">GET /buildings</text><path d="M782.6,156.6496 L782.6,175.5496 L901.6,175.5496 L901.6,163.6496 L894.6,156.6496 L782.6,156.6496 " fill="#FEFFDD" style="stroke:#181818;stroke-width:0.3499999999999999;"/><path d="M894.6,156.6496 L894.6,163.6496 L901.6,163.6496 L894.6,156.6496 " fill="#FEFFDD" style="stroke:#181818;stroke-width:0.3499999999999999;"/><text fill="#000000" font-family="sans-serif" font-size="9.1" lengthAdjust="spacing" textLength="104.3" x="786.8" y="169.9694">see us170 documentation</text><polygon fill="#181818" points="654.5,192.757,647.5,195.557,654.5,198.357,651.7,195.557" style="stroke:#181818;stroke-width:0.6999999999999998;"/><line style="stroke:#181818;stroke-width:0.6999999999999998;stroke-dasharray:2.0,2.0;" x1="650.3" x2="774.9" y1="195.557" y2="195.557"/><text fill="#000000" font-family="sans-serif" font-size="9.1" font-weight="bold" lengthAdjust="spacing" textLength="4.9" x="658.7" y="191.8731">6</text><text fill="#000000" font-family="sans-serif" font-size="9.1" lengthAdjust="spacing" textLength="14.7" x="666.4" y="191.8731">200</text><polygon fill="#181818" points="437.5,214.6607,430.5,217.4607,437.5,220.2607,434.7,217.4607" style="stroke:#181818;stroke-width:0.6999999999999998;"/><line style="stroke:#181818;stroke-width:0.6999999999999998;stroke-dasharray:2.0,2.0;" x1="433.3" x2="642.6" y1="217.4607" y2="217.4607"/><text fill="#000000" font-family="sans-serif" font-size="9.1" font-weight="bold" lengthAdjust="spacing" textLength="4.9" x="441.7" y="213.7769">7</text><text fill="#000000" font-family="sans-serif" font-size="9.1" lengthAdjust="spacing" textLength="42.7" x="449.4" y="213.7769">observable</text><polygon fill="#181818" points="331.1,236.5645,324.1,239.3645,331.1,242.1645,328.3,239.3645" style="stroke:#181818;stroke-width:0.6999999999999998;"/><line style="stroke:#181818;stroke-width:0.6999999999999998;stroke-dasharray:2.0,2.0;" x1="326.9" x2="425.6" y1="239.3645" y2="239.3645"/><text fill="#000000" font-family="sans-serif" font-size="9.1" font-weight="bold" lengthAdjust="spacing" textLength="4.9" x="335.3" y="235.6806">8</text><text fill="#000000" font-family="sans-serif" font-size="9.1" lengthAdjust="spacing" textLength="35.7" x="343" y="235.6806">buildings</text><path d="M7,249.8645 L49.7,249.8645 L49.7,256.3682 L42.7,263.3682 L7,263.3682 L7,249.8645 " fill="#EEEEEE" style="stroke:#000000;stroke-width:1.0499999999999998;"/><rect fill="none" height="744.7057" style="stroke:#000000;stroke-width:1.0499999999999998;" width="912.1" x="7" y="249.8645"/><text fill="#000000" font-family="sans-serif" font-size="9.1" font-weight="bold" lengthAdjust="spacing" textLength="11.2" x="17.5" y="260.3843">alt</text><text fill="#000000" font-family="sans-serif" font-size="7.7" font-weight="bold" lengthAdjust="spacing" textLength="67.9" x="60.2" y="259.5735">[buildings empty]</text><polygon fill="#181818" points="224.7,276.8719,217.7,279.6719,224.7,282.4719,221.9,279.6719" style="stroke:#181818;stroke-width:0.6999999999999998;"/><line style="stroke:#181818;stroke-width:0.6999999999999998;stroke-dasharray:2.0,2.0;" x1="220.5" x2="315.7" y1="279.6719" y2="279.6719"/><text fill="#000000" font-family="sans-serif" font-size="9.1" font-weight="bold" lengthAdjust="spacing" textLength="4.9" x="228.9" y="275.988">9</text><text fill="#000000" font-family="sans-serif" font-size="9.1" lengthAdjust="spacing" textLength="58.1" x="236.6" y="275.988">error message</text><polygon fill="#181818" points="80.5,298.7756,73.5,301.5756,80.5,304.3756,77.7,301.5756" style="stroke:#181818;stroke-width:0.6999999999999998;"/><line style="stroke:#181818;stroke-width:0.6999999999999998;stroke-dasharray:2.0,2.0;" x1="76.3" x2="209.3" y1="301.5756" y2="301.5756"/><text fill="#000000" font-family="sans-serif" font-size="9.1" font-weight="bold" lengthAdjust="spacing" textLength="9.8" x="84.7" y="297.8917">10</text><text fill="#000000" font-family="sans-serif" font-size="9.1" lengthAdjust="spacing" textLength="86.8" x="97.3" y="297.8917">shows error message</text><line style="stroke:#000000;stroke-width:0.6999999999999998;stroke-dasharray:2.0,2.0;" x1="7" x2="919.1" y1="307.8756" y2="307.8756"/><text fill="#000000" font-family="sans-serif" font-size="7.7" font-weight="bold" lengthAdjust="spacing" textLength="71.4" x="10.5" y="316.1847">[building(s) found]</text><polygon fill="#181818" points="224.7,332.3209,217.7,335.1209,224.7,337.9209,221.9,335.1209" style="stroke:#181818;stroke-width:0.6999999999999998;"/><line style="stroke:#181818;stroke-width:0.6999999999999998;stroke-dasharray:2.0,2.0;" x1="220.5" x2="319.2" y1="335.1209" y2="335.1209"/><text fill="#000000" font-family="sans-serif" font-size="9.1" font-weight="bold" lengthAdjust="spacing" textLength="9.8" x="228.9" y="331.437">11</text><text fill="#000000" font-family="sans-serif" font-size="9.1" lengthAdjust="spacing" textLength="35.7" x="241.5" y="331.437">buildings</text><polygon fill="#181818" points="80.5,354.2246,73.5,357.0246,80.5,359.8246,77.7,357.0246" style="stroke:#181818;stroke-width:0.6999999999999998;"/><line style="stroke:#181818;stroke-width:0.6999999999999998;stroke-dasharray:2.0,2.0;" x1="76.3" x2="212.8" y1="357.0246" y2="357.0246"/><text fill="#000000" font-family="sans-serif" font-size="9.1" font-weight="bold" lengthAdjust="spacing" textLength="9.8" x="84.7" y="353.3407">12</text><text fill="#000000" font-family="sans-serif" font-size="9.1" lengthAdjust="spacing" textLength="64.4" x="97.3" y="353.3407">shows buildings</text><polygon fill="#181818" points="201.6,384.2802,208.6,387.0802,201.6,389.8802,204.4,387.0802" style="stroke:#181818;stroke-width:0.6999999999999998;"/><line style="stroke:#181818;stroke-width:0.6999999999999998;" x1="72.8" x2="205.8" y1="387.0802" y2="387.0802"/><text fill="#000000" font-family="sans-serif" font-size="9.1" font-weight="bold" lengthAdjust="spacing" textLength="9.8" x="77.7" y="383.3963">13</text><text fill="#000000" font-family="sans-serif" font-size="9.1" lengthAdjust="spacing" textLength="67.9" x="90.3" y="383.3963">chooses building</text><path d="M220.5,366.1246 L220.5,396.9246 L368.9,396.9246 L368.9,373.1246 L361.9,366.1246 L220.5,366.1246 " fill="#FEFFDD" style="stroke:#181818;stroke-width:0.3499999999999999;"/><path d="M361.9,366.1246 L361.9,373.1246 L368.9,373.1246 L361.9,366.1246 " fill="#FEFFDD" style="stroke:#181818;stroke-width:0.3499999999999999;"/><text fill="#000000" font-family="sans-serif" font-size="9.1" lengthAdjust="spacing" textLength="133.7" x="224.7" y="379.4444">the following is the process when</text><text fill="#000000" font-family="sans-serif" font-size="9.1" lengthAdjust="spacing" textLength="120.4" x="224.7" y="391.5481">each of the building is chosen</text><polygon fill="#181818" points="308,414.3357,315,417.1357,308,419.9357,310.8,417.1357" style="stroke:#181818;stroke-width:0.6999999999999998;"/><line style="stroke:#181818;stroke-width:0.6999999999999998;" x1="217" x2="312.2" y1="417.1357" y2="417.1357"/><text fill="#000000" font-family="sans-serif" font-size="9.1" font-weight="bold" lengthAdjust="spacing" textLength="9.8" x="221.9" y="413.4519">14</text><text fill="#000000" font-family="sans-serif" font-size="9.1" lengthAdjust="spacing" textLength="73.5" x="234.5" y="413.4519">listFloors(building)</text><polygon fill="#181818" points="414.4,436.2395,421.4,439.0395,414.4,441.8395,417.2,439.0395" style="stroke:#181818;stroke-width:0.6999999999999998;"/><line style="stroke:#181818;stroke-width:0.6999999999999998;" x1="323.4" x2="418.6" y1="439.0395" y2="439.0395"/><text fill="#000000" font-family="sans-serif" font-size="9.1" font-weight="bold" lengthAdjust="spacing" textLength="9.8" x="328.3" y="435.3556">15</text><text fill="#000000" font-family="sans-serif" font-size="9.1" lengthAdjust="spacing" textLength="73.5" x="340.9" y="435.3556">listFloors(building)</text><polygon fill="#181818" points="631.4,458.1432,638.4,460.9432,631.4,463.7432,634.2,460.9432" style="stroke:#181818;stroke-width:0.6999999999999998;"/><line style="stroke:#181818;stroke-width:0.6999999999999998;" x1="429.8" x2="635.6" y1="460.9432" y2="460.9432"/><text fill="#000000" font-family="sans-serif" font-size="9.1" font-weight="bold" lengthAdjust="spacing" textLength="9.8" x="434.7" y="457.2593">16</text><text fill="#000000" font-family="sans-serif" font-size="9.1" lengthAdjust="spacing" textLength="184.1" x="447.3" y="457.2593">get({baseURL}/buildings/{buildingCode}/floors)</text><polygon fill="#181818" points="763.7,480.0469,770.7,482.8469,763.7,485.6469,766.5,482.8469" style="stroke:#181818;stroke-width:0.6999999999999998;"/><line style="stroke:#181818;stroke-width:0.6999999999999998;" x1="646.8" x2="767.9" y1="482.8469" y2="482.8469"/><text fill="#000000" font-family="sans-serif" font-size="9.1" font-weight="bold" lengthAdjust="spacing" textLength="9.8" x="651.7" y="479.163">17</text><text fill="#000000" font-family="sans-serif" font-size="9.1" lengthAdjust="spacing" textLength="99.4" x="664.3" y="479.163">GET /buildings/{id}/floors</text><polygon fill="#181818" points="654.5,504.0506,647.5,506.8506,654.5,509.6506,651.7,506.8506" style="stroke:#181818;stroke-width:0.6999999999999998;"/><line style="stroke:#181818;stroke-width:0.6999999999999998;stroke-dasharray:2.0,2.0;" x1="650.3" x2="774.9" y1="506.8506" y2="506.8506"/><text fill="#000000" font-family="sans-serif" font-size="9.1" font-weight="bold" lengthAdjust="spacing" textLength="9.8" x="658.7" y="503.1667">18</text><text fill="#000000" font-family="sans-serif" font-size="9.1" lengthAdjust="spacing" textLength="14.7" x="671.3" y="503.1667">200</text><path d="M782.6,491.9469 L782.6,510.8469 L901.6,510.8469 L901.6,498.9469 L894.6,491.9469 L782.6,491.9469 " fill="#FEFFDD" style="stroke:#181818;stroke-width:0.3499999999999999;"/><path d="M894.6,491.9469 L894.6,498.9469 L901.6,498.9469 L894.6,491.9469 " fill="#FEFFDD" style="stroke:#181818;stroke-width:0.3499999999999999;"/><text fill="#000000" font-family="sans-serif" font-size="9.1" lengthAdjust="spacing" textLength="104.3" x="786.8" y="505.2667">see us210 documentation</text><polygon fill="#181818" points="437.5,528.0543,430.5,530.8543,437.5,533.6543,434.7,530.8543" style="stroke:#181818;stroke-width:0.6999999999999998;"/><line style="stroke:#181818;stroke-width:0.6999999999999998;stroke-dasharray:2.0,2.0;" x1="433.3" x2="642.6" y1="530.8543" y2="530.8543"/><text fill="#000000" font-family="sans-serif" font-size="9.1" font-weight="bold" lengthAdjust="spacing" textLength="9.8" x="441.7" y="527.1704">19</text><text fill="#000000" font-family="sans-serif" font-size="9.1" lengthAdjust="spacing" textLength="42.7" x="454.3" y="527.1704">observable</text><polygon fill="#181818" points="331.1,549.958,324.1,552.758,331.1,555.558,328.3,552.758" style="stroke:#181818;stroke-width:0.6999999999999998;"/><line style="stroke:#181818;stroke-width:0.6999999999999998;stroke-dasharray:2.0,2.0;" x1="326.9" x2="422.1" y1="552.758" y2="552.758"/><text fill="#000000" font-family="sans-serif" font-size="9.1" font-weight="bold" lengthAdjust="spacing" textLength="9.8" x="335.3" y="549.0741">20</text><text fill="#000000" font-family="sans-serif" font-size="9.1" lengthAdjust="spacing" textLength="21.7" x="347.9" y="549.0741">floors</text><path d="M14,563.258 L56.7,563.258 L56.7,569.7617 L49.7,576.7617 L14,576.7617 L14,563.258 " fill="#EEEEEE" style="stroke:#000000;stroke-width:1.0499999999999998;"/><rect fill="none" height="426.4121" style="stroke:#000000;stroke-width:1.0499999999999998;" width="898.1" x="14" y="563.258"/><text fill="#000000" font-family="sans-serif" font-size="9.1" font-weight="bold" lengthAdjust="spacing" textLength="11.2" x="24.5" y="573.7778">alt</text><text fill="#000000" font-family="sans-serif" font-size="7.7" font-weight="bold" lengthAdjust="spacing" textLength="64.4" x="67.2" y="572.9671">[floors is empty]</text><polygon fill="#181818" points="224.7,590.2654,217.7,593.0654,224.7,595.8654,221.9,593.0654" style="stroke:#181818;stroke-width:0.6999999999999998;"/><line style="stroke:#181818;stroke-width:0.6999999999999998;stroke-dasharray:2.0,2.0;" x1="220.5" x2="315.7" y1="593.0654" y2="593.0654"/><text fill="#000000" font-family="sans-serif" font-size="9.1" font-weight="bold" lengthAdjust="spacing" textLength="9.8" x="228.9" y="589.3815">21</text><text fill="#000000" font-family="sans-serif" font-size="9.1" lengthAdjust="spacing" textLength="61.6" x="241.5" y="589.3815">floors not found</text><polygon fill="#181818" points="80.5,612.1691,73.5,614.9691,80.5,617.7691,77.7,614.9691" style="stroke:#181818;stroke-width:0.6999999999999998;"/><line style="stroke:#181818;stroke-width:0.6999999999999998;stroke-dasharray:2.0,2.0;" x1="76.3" x2="209.3" y1="614.9691" y2="614.9691"/><text fill="#000000" font-family="sans-serif" font-size="9.1" font-weight="bold" lengthAdjust="spacing" textLength="9.8" x="84.7" y="611.2853">22</text><text fill="#000000" font-family="sans-serif" font-size="9.1" lengthAdjust="spacing" textLength="46.9" x="97.3" y="611.2853">shows error</text><line style="stroke:#000000;stroke-width:0.6999999999999998;stroke-dasharray:2.0,2.0;" x1="14" x2="912.1" y1="621.2691" y2="621.2691"/><text fill="#000000" font-family="sans-serif" font-size="7.7" font-weight="bold" lengthAdjust="spacing" textLength="53.2" x="17.5" y="629.5782">[floors found]</text><polygon fill="#181818" points="224.7,645.7145,217.7,648.5145,224.7,651.3145,221.9,648.5145" style="stroke:#181818;stroke-width:0.6999999999999998;"/><line style="stroke:#181818;stroke-width:0.6999999999999998;stroke-dasharray:2.0,2.0;" x1="220.5" x2="319.2" y1="648.5145" y2="648.5145"/><text fill="#000000" font-family="sans-serif" font-size="9.1" font-weight="bold" lengthAdjust="spacing" textLength="9.8" x="228.9" y="644.8306">23</text><text fill="#000000" font-family="sans-serif" font-size="9.1" lengthAdjust="spacing" textLength="21.7" x="241.5" y="644.8306">floors</text><polygon fill="#181818" points="80.5,667.6182,73.5,670.4182,80.5,673.2182,77.7,670.4182" style="stroke:#181818;stroke-width:0.6999999999999998;"/><line style="stroke:#181818;stroke-width:0.6999999999999998;stroke-dasharray:2.0,2.0;" x1="76.3" x2="212.8" y1="670.4182" y2="670.4182"/><text fill="#000000" font-family="sans-serif" font-size="9.1" font-weight="bold" lengthAdjust="spacing" textLength="9.8" x="84.7" y="666.7343">24</text><text fill="#000000" font-family="sans-serif" font-size="9.1" lengthAdjust="spacing" textLength="54.6" x="97.3" y="666.7343">requests floor</text><polygon fill="#181818" points="201.6,689.5219,208.6,692.3219,201.6,695.1219,204.4,692.3219" style="stroke:#181818;stroke-width:0.6999999999999998;"/><line style="stroke:#181818;stroke-width:0.6999999999999998;" x1="72.8" x2="205.8" y1="692.3219" y2="692.3219"/><text fill="#000000" font-family="sans-serif" font-size="9.1" font-weight="bold" lengthAdjust="spacing" textLength="9.8" x="77.7" y="688.638">25</text><text fill="#000000" font-family="sans-serif" font-size="9.1" lengthAdjust="spacing" textLength="111.3" x="90.3" y="688.638">submit after choosing floors</text><polygon fill="#181818" points="308,711.4256,315,714.2256,308,717.0256,310.8,714.2256" style="stroke:#181818;stroke-width:0.6999999999999998;"/><line style="stroke:#181818;stroke-width:0.6999999999999998;" x1="217" x2="312.2" y1="714.2256" y2="714.2256"/><text fill="#000000" font-family="sans-serif" font-size="9.1" font-weight="bold" lengthAdjust="spacing" textLength="9.8" x="221.9" y="710.5417">26</text><text fill="#000000" font-family="sans-serif" font-size="9.1" lengthAdjust="spacing" textLength="36.4" x="234.5" y="710.5417">formData</text><polygon fill="#181818" points="414.4,733.3293,421.4,736.1293,414.4,738.9293,417.2,736.1293" style="stroke:#181818;stroke-width:0.6999999999999998;"/><line style="stroke:#181818;stroke-width:0.6999999999999998;" x1="323.4" x2="418.6" y1="736.1293" y2="736.1293"/><text fill="#000000" font-family="sans-serif" font-size="9.1" font-weight="bold" lengthAdjust="spacing" textLength="9.8" x="328.3" y="732.4454">27</text><text fill="#000000" font-family="sans-serif" font-size="9.1" lengthAdjust="spacing" textLength="66.5" x="340.9" y="732.4454">createPassage()</text><polygon fill="#181818" points="631.4,755.233,638.4,758.033,631.4,760.833,634.2,758.033" style="stroke:#181818;stroke-width:0.6999999999999998;"/><line style="stroke:#181818;stroke-width:0.6999999999999998;" x1="429.8" x2="635.6" y1="758.033" y2="758.033"/><text fill="#000000" font-family="sans-serif" font-size="9.1" font-weight="bold" lengthAdjust="spacing" textLength="9.8" x="434.7" y="754.3491">28</text><text fill="#000000" font-family="sans-serif" font-size="9.1" lengthAdjust="spacing" textLength="107.8" x="447.3" y="754.3491">post({baseURL}/passages)</text><polygon fill="#181818" points="763.7,777.1367,770.7,779.9367,763.7,782.7367,766.5,779.9367" style="stroke:#181818;stroke-width:0.6999999999999998;"/><line style="stroke:#181818;stroke-width:0.6999999999999998;" x1="646.8" x2="767.9" y1="779.9367" y2="779.9367"/><text fill="#000000" font-family="sans-serif" font-size="9.1" font-weight="bold" lengthAdjust="spacing" textLength="9.8" x="651.7" y="776.2528">29</text><text fill="#000000" font-family="sans-serif" font-size="9.1" lengthAdjust="spacing" textLength="69.3" x="664.3" y="776.2528">POST /passages</text><polygon fill="#181818" points="654.5,801.1404,647.5,803.9404,654.5,806.7404,651.7,803.9404" style="stroke:#181818;stroke-width:0.6999999999999998;"/><line style="stroke:#181818;stroke-width:0.6999999999999998;stroke-dasharray:2.0,2.0;" x1="650.3" x2="774.9" y1="803.9404" y2="803.9404"/><text fill="#000000" font-family="sans-serif" font-size="9.1" font-weight="bold" lengthAdjust="spacing" textLength="9.8" x="658.7" y="800.2565">30</text><text fill="#000000" font-family="sans-serif" font-size="9.1" lengthAdjust="spacing" textLength="47.6" x="671.3" y="800.2565">status code</text><path d="M782.6,789.0367 L782.6,807.9367 L901.6,807.9367 L901.6,796.0367 L894.6,789.0367 L782.6,789.0367 " fill="#FEFFDD" style="stroke:#181818;stroke-width:0.3499999999999999;"/><path d="M894.6,789.0367 L894.6,796.0367 L901.6,796.0367 L894.6,789.0367 " fill="#FEFFDD" style="stroke:#181818;stroke-width:0.3499999999999999;"/><text fill="#000000" font-family="sans-serif" font-size="9.1" lengthAdjust="spacing" textLength="104.3" x="786.8" y="802.3565">see us160 documentation</text><polygon fill="#181818" points="437.5,825.1441,430.5,827.9441,437.5,830.7441,434.7,827.9441" style="stroke:#181818;stroke-width:0.6999999999999998;"/><line style="stroke:#181818;stroke-width:0.6999999999999998;stroke-dasharray:2.0,2.0;" x1="433.3" x2="642.6" y1="827.9441" y2="827.9441"/><text fill="#000000" font-family="sans-serif" font-size="9.1" font-weight="bold" lengthAdjust="spacing" textLength="9.8" x="441.7" y="824.2603">31</text><text fill="#000000" font-family="sans-serif" font-size="9.1" lengthAdjust="spacing" textLength="42.7" x="454.3" y="824.2603">observable</text><path d="M21,838.4441 L63.7,838.4441 L63.7,844.9479 L56.7,851.9479 L21,851.9479 L21,838.4441 " fill="#EEEEEE" style="stroke:#000000;stroke-width:1.0499999999999998;"/><rect fill="none" height="146.326" style="stroke:#000000;stroke-width:1.0499999999999998;" width="433.65" x="21" y="838.4441"/><text fill="#000000" font-family="sans-serif" font-size="9.1" font-weight="bold" lengthAdjust="spacing" textLength="11.2" x="31.5" y="848.964">alt</text><text fill="#000000" font-family="sans-serif" font-size="7.7" font-weight="bold" lengthAdjust="spacing" textLength="51.1" x="74.2" y="848.1532">[status==200]</text><polygon fill="#181818" points="331.1,865.4516,324.1,868.2516,331.1,871.0516,328.3,868.2516" style="stroke:#181818;stroke-width:0.6999999999999998;"/><line style="stroke:#181818;stroke-width:0.6999999999999998;stroke-dasharray:2.0,2.0;" x1="326.9" x2="422.1" y1="868.2516" y2="868.2516"/><text fill="#000000" font-family="sans-serif" font-size="9.1" font-weight="bold" lengthAdjust="spacing" textLength="9.8" x="335.3" y="864.5677">32</text><text fill="#000000" font-family="sans-serif" font-size="9.1" lengthAdjust="spacing" textLength="17.5" x="347.9" y="864.5677">map</text><polygon fill="#181818" points="224.7,887.3553,217.7,890.1553,224.7,892.9553,221.9,890.1553" style="stroke:#181818;stroke-width:0.6999999999999998;"/><line style="stroke:#181818;stroke-width:0.6999999999999998;stroke-dasharray:2.0,2.0;" x1="220.5" x2="315.7" y1="890.1553" y2="890.1553"/><text fill="#000000" font-family="sans-serif" font-size="9.1" font-weight="bold" lengthAdjust="spacing" textLength="9.8" x="228.9" y="886.4714">33</text><text fill="#000000" font-family="sans-serif" font-size="9.1" lengthAdjust="spacing" textLength="17.5" x="241.5" y="886.4714">map</text><polygon fill="#181818" points="80.5,909.259,73.5,912.059,80.5,914.859,77.7,912.059" style="stroke:#181818;stroke-width:0.6999999999999998;"/><line style="stroke:#181818;stroke-width:0.6999999999999998;stroke-dasharray:2.0,2.0;" x1="76.3" x2="209.3" y1="912.059" y2="912.059"/><text fill="#000000" font-family="sans-serif" font-size="9.1" font-weight="bold" lengthAdjust="spacing" textLength="9.8" x="84.7" y="908.3751">34</text><text fill="#000000" font-family="sans-serif" font-size="9.1" lengthAdjust="spacing" textLength="102.9" x="97.3" y="908.3751">shows success message</text><line style="stroke:#000000;stroke-width:0.6999999999999998;stroke-dasharray:2.0,2.0;" x1="21" x2="454.65" y1="918.359" y2="918.359"/><polygon fill="#181818" points="331.1,932.5627,324.1,935.3627,331.1,938.1627,328.3,935.3627" style="stroke:#181818;stroke-width:0.6999999999999998;"/><line style="stroke:#181818;stroke-width:0.6999999999999998;stroke-dasharray:2.0,2.0;" x1="326.9" x2="425.6" y1="935.3627" y2="935.3627"/><text fill="#000000" font-family="sans-serif" font-size="9.1" font-weight="bold" lengthAdjust="spacing" textLength="9.8" x="335.3" y="931.6788">35</text><text fill="#000000" font-family="sans-serif" font-size="9.1" lengthAdjust="spacing" textLength="58.1" x="347.9" y="931.6788">error message</text><polygon fill="#181818" points="224.7,954.4664,217.7,957.2664,224.7,960.0664,221.9,957.2664" style="stroke:#181818;stroke-width:0.6999999999999998;"/><line style="stroke:#181818;stroke-width:0.6999999999999998;stroke-dasharray:2.0,2.0;" x1="220.5" x2="319.2" y1="957.2664" y2="957.2664"/><text fill="#000000" font-family="sans-serif" font-size="9.1" font-weight="bold" lengthAdjust="spacing" textLength="9.8" x="228.9" y="953.5825">36</text><text fill="#000000" font-family="sans-serif" font-size="9.1" lengthAdjust="spacing" textLength="58.1" x="241.5" y="953.5825">error message</text><polygon fill="#181818" points="77,976.3701,70,979.1701,77,981.9701,74.2,979.1701" style="stroke:#181818;stroke-width:0.6999999999999998;"/><line style="stroke:#181818;stroke-width:0.6999999999999998;stroke-dasharray:2.0,2.0;" x1="72.8" x2="212.8" y1="979.1701" y2="979.1701"/><text fill="#000000" font-family="sans-serif" font-size="9.1" font-weight="bold" lengthAdjust="spacing" textLength="9.8" x="81.2" y="975.4862">37</text><text fill="#000000" font-family="sans-serif" font-size="9.1" lengthAdjust="spacing" textLength="86.8" x="93.8" y="975.4862">shows error message</text><!--SRC=[jLV9Rjim4BthAmOvsIW29pcqG87qKASh4iIedG-WfR55G29Lah9H6Fdt3YbRra8jILC2Nc3El5auxubckP4YJzUeWe25HYgucBCqopKyCC6sg2w0QSWrRMTC6HxoZ0a35zzN3_Vm3kRB9Rt_N3gh7STztMekXL4oIOumeL59tM29QiT3TBjw5xQ2h1Pmf_Zkw1yRapLC7kxSJXgvzFcE6NJPqWikFxcKu2FioLQ3aP1mRM2TyoJYOgi3e5MwkVJXk9mZ0TYK2K1i7yKFmSraMbgKVgugg2pdGxvK4BbkqNm-1Qouro1iwT1Orfj0RCq5okImPXgVVjq_pyeAfYst4jCr2ppB8H9o6X7kjoyhcDKRKbr24fBYszYGhKRRs-iFLn39C4zH66Qu5FwIw4IQO1JmybpHpTLLooB2FlyYyRAnSgrfUjWwmJuSRnjSRy-dswwV9PKn0KmpywSlYE_yYYaupo0gHUnAKMkYLSkwc3UojeDBhOxbNdUuOAAnJ6wYfx2HkOY2ljZ-0wuKq9fXRpv3C847kSQgEYl3M4gDPzYWFNMrG2P6gZL9v9wCWMltGwPaI0s2VOprIQGKOf0RPtIAO9qeggwOeeXSl3QlQvbxDC5goTT4IgKd9_mEUhUwsrQ9GR11lHYj6RF3wUjSHlWysxYmKo_Wi9eCAChimADJY3SK2eyktLptwTAmkhnCOSQeZ4TfF8seIawnRQVKBpbT_3xwKLSyOZ1EPhmkJcgEu7xWXWW6up9zhGmf_9sZfaUvW-cKcmwzqVawvGROng0gnCTAGYEZqVJVI9NUCSDUJVbG8Lakc5FtoJ-pFPEwIlUim7qxNYyUbqJi4sodpn35_1pNH5cwSuOaI9rU_VJrtLJU3od2_-6yPN9HqEsjJxmykf2oR9WxrcWKeNKUkcTYrsN3qdfCLlrNbZU_0xtuFj8DrtK1gVnk_oKSBm3Dpxy0]--></g></svg>