<?xml version="1.0" encoding="us-ascii" standalone="no"?><svg xmlns="http://www.w3.org/2000/svg" xmlns:xlink="http://www.w3.org/1999/xlink" contentStyleType="text/css" height="546px" preserveAspectRatio="none" style="width:635px;height:546px;background:#FFFFFF;" version="1.1" viewBox="0 0 635 546" width="635px" zoomAndPan="magnify"><defs/><g><rect fill="#FFFFFF" height="351.4922" style="stroke:#181818;stroke-width:1.0;" width="10" x="59" y="93.6211"/><rect fill="#FFFFFF" height="131.1641" style="stroke:#181818;stroke-width:1.0;" width="10" x="330" y="116.9121"/><rect fill="#FFFFFF" height="165.7461" style="stroke:#181818;stroke-width:1.0;" width="10" x="330" y="279.3672"/><rect fill="#FFFFFF" height="68.582" style="stroke:#181818;stroke-width:1.0;" width="10" x="524" y="148.2031"/><rect fill="#FFFFFF" height="85.873" style="stroke:#181818;stroke-width:1.0;" width="10" x="524" y="310.6582"/><line style="stroke:#181818;stroke-width:0.5;stroke-dasharray:5.0,5.0;" x1="64" x2="64" y1="83.6211" y2="463.1133"/><line style="stroke:#181818;stroke-width:0.5;stroke-dasharray:5.0,5.0;" x1="335" x2="335" y1="83.6211" y2="463.1133"/><line style="stroke:#181818;stroke-width:0.5;stroke-dasharray:5.0,5.0;" x1="528.5" x2="528.5" y1="83.6211" y2="463.1133"/><text fill="#000000" font-family="sans-serif" font-size="14" lengthAdjust="spacing" textLength="112" x="5" y="80.1074">Campus Manager</text><ellipse cx="64" cy="13.5" fill="#E2E2F0" rx="8" ry="8" style="stroke:#181818;stroke-width:0.5;"/><path d="M64,21.5 L64,48.5 M51,29.5 L77,29.5 M64,48.5 L51,63.5 M64,48.5 L77,63.5 " fill="none" style="stroke:#181818;stroke-width:0.5;"/><text fill="#000000" font-family="sans-serif" font-size="14" lengthAdjust="spacing" textLength="112" x="5" y="477.2207">Campus Manager</text><ellipse cx="64" cy="489.2344" fill="#E2E2F0" rx="8" ry="8" style="stroke:#181818;stroke-width:0.5;"/><path d="M64,497.2344 L64,524.2344 M51,505.2344 L77,505.2344 M64,524.2344 L51,539.2344 M64,524.2344 L77,539.2344 " fill="none" style="stroke:#181818;stroke-width:0.5;"/><rect fill="#E2E2F0" height="32.6211" rx="2.5" ry="2.5" style="stroke:#181818;stroke-width:0.5;" width="82" x="294" y="50"/><text fill="#000000" font-family="sans-serif" font-size="14" lengthAdjust="spacing" textLength="68" x="301" y="72.1074">Campus UI</text><rect fill="#E2E2F0" height="32.6211" rx="2.5" ry="2.5" style="stroke:#181818;stroke-width:0.5;" width="82" x="294" y="462.1133"/><text fill="#000000" font-family="sans-serif" font-size="14" lengthAdjust="spacing" textLength="68" x="301" y="484.2207">Campus UI</text><rect fill="#E2E2F0" height="32.6211" rx="2.5" ry="2.5" style="stroke:#181818;stroke-width:0.5;" width="91" x="483.5" y="50"/><text fill="#000000" font-family="sans-serif" font-size="14" lengthAdjust="spacing" textLength="77" x="490.5" y="72.1074">Campus MD</text><rect fill="#E2E2F0" height="32.6211" rx="2.5" ry="2.5" style="stroke:#181818;stroke-width:0.5;" width="91" x="483.5" y="462.1133"/><text fill="#000000" font-family="sans-serif" font-size="14" lengthAdjust="spacing" textLength="77" x="490.5" y="484.2207">Campus MD</text><rect fill="#FFFFFF" height="351.4922" style="stroke:#181818;stroke-width:1.0;" width="10" x="59" y="93.6211"/><rect fill="#FFFFFF" height="131.1641" style="stroke:#181818;stroke-width:1.0;" width="10" x="330" y="116.9121"/><rect fill="#FFFFFF" height="165.7461" style="stroke:#181818;stroke-width:1.0;" width="10" x="330" y="279.3672"/><rect fill="#FFFFFF" height="68.582" style="stroke:#181818;stroke-width:1.0;" width="10" x="524" y="148.2031"/><rect fill="#FFFFFF" height="85.873" style="stroke:#181818;stroke-width:1.0;" width="10" x="524" y="310.6582"/><polygon fill="#181818" points="318,112.9121,328,116.9121,318,120.9121,322,116.9121" style="stroke:#181818;stroke-width:1.0;"/><line style="stroke:#181818;stroke-width:1.0;" x1="69" x2="324" y1="116.9121" y2="116.9121"/><text fill="#000000" font-family="sans-serif" font-size="13" font-weight="bold" lengthAdjust="spacing" textLength="7" x="76" y="111.6494">1</text><text fill="#000000" font-family="sans-serif" font-size="13" lengthAdjust="spacing" textLength="208" x="87" y="111.6494">list passages between two buildings</text><polygon fill="#181818" points="512,144.2031,522,148.2031,512,152.2031,516,148.2031" style="stroke:#181818;stroke-width:1.0;"/><line style="stroke:#181818;stroke-width:1.0;" x1="340" x2="518" y1="148.2031" y2="148.2031"/><text fill="#000000" font-family="sans-serif" font-size="13" font-weight="bold" lengthAdjust="spacing" textLength="7" x="347" y="142.9404">2</text><text fill="#000000" font-family="sans-serif" font-size="13" lengthAdjust="spacing" textLength="85" x="358" y="142.9404">GET /buildings</text><path d="M539,161.2031 L539,188.2031 L628,188.2031 L628,171.2031 L618,161.2031 L539,161.2031 " fill="#FEFFDD" style="stroke:#181818;stroke-width:0.5;"/><path d="M618,161.2031 L618,171.2031 L628,171.2031 L618,161.2031 " fill="#FEFFDD" style="stroke:#181818;stroke-width:0.5;"/><text fill="#000000" font-family="sans-serif" font-size="13" lengthAdjust="spacing" textLength="68" x="545" y="180.2314">see US 170</text><polygon fill="#181818" points="351,212.7852,341,216.7852,351,220.7852,347,216.7852" style="stroke:#181818;stroke-width:1.0;"/><line style="stroke:#181818;stroke-width:1.0;stroke-dasharray:2.0,2.0;" x1="345" x2="528" y1="216.7852" y2="216.7852"/><text fill="#000000" font-family="sans-serif" font-size="13" font-weight="bold" lengthAdjust="spacing" textLength="7" x="357" y="211.5225">3</text><text fill="#000000" font-family="sans-serif" font-size="13" lengthAdjust="spacing" textLength="51" x="368" y="211.5225">buildings</text><polygon fill="#181818" points="80,244.0762,70,248.0762,80,252.0762,76,248.0762" style="stroke:#181818;stroke-width:1.0;"/><line style="stroke:#181818;stroke-width:1.0;stroke-dasharray:2.0,2.0;" x1="74" x2="334" y1="248.0762" y2="248.0762"/><text fill="#000000" font-family="sans-serif" font-size="13" font-weight="bold" lengthAdjust="spacing" textLength="7" x="86" y="242.8135">4</text><text fill="#000000" font-family="sans-serif" font-size="13" lengthAdjust="spacing" textLength="195" x="97" y="242.8135">shows buildings and requests two</text><polygon fill="#181818" points="318,275.3672,328,279.3672,318,283.3672,322,279.3672" style="stroke:#181818;stroke-width:1.0;"/><line style="stroke:#181818;stroke-width:1.0;" x1="69" x2="324" y1="279.3672" y2="279.3672"/><text fill="#000000" font-family="sans-serif" font-size="13" font-weight="bold" lengthAdjust="spacing" textLength="7" x="76" y="274.1045">5</text><text fill="#000000" font-family="sans-serif" font-size="13" lengthAdjust="spacing" textLength="128" x="87" y="274.1045">chooses two buildings</text><polygon fill="#181818" points="512,306.6582,522,310.6582,512,314.6582,516,310.6582" style="stroke:#181818;stroke-width:1.0;"/><line style="stroke:#181818;stroke-width:1.0;" x1="340" x2="518" y1="310.6582" y2="310.6582"/><text fill="#000000" font-family="sans-serif" font-size="13" font-weight="bold" lengthAdjust="spacing" textLength="7" x="347" y="305.3955">6</text><text fill="#000000" font-family="sans-serif" font-size="13" lengthAdjust="spacing" textLength="90" x="358" y="305.3955">GET /passages</text><path d="M539,323.6582 L539,350.6582 L628,350.6582 L628,333.6582 L618,323.6582 L539,323.6582 " fill="#FEFFDD" style="stroke:#181818;stroke-width:0.5;"/><path d="M618,323.6582 L618,333.6582 L628,333.6582 L618,323.6582 " fill="#FEFFDD" style="stroke:#181818;stroke-width:0.5;"/><text fill="#000000" font-family="sans-serif" font-size="13" lengthAdjust="spacing" textLength="68" x="545" y="342.6865">see US 260</text><polygon fill="#181818" points="351,392.5313,341,396.5313,351,400.5313,347,396.5313" style="stroke:#181818;stroke-width:1.0;"/><line style="stroke:#181818;stroke-width:1.0;stroke-dasharray:2.0,2.0;" x1="345" x2="528" y1="396.5313" y2="396.5313"/><text fill="#000000" font-family="sans-serif" font-size="13" font-weight="bold" lengthAdjust="spacing" textLength="7" x="357" y="382.623">7</text><text fill="#000000" font-family="sans-serif" font-size="13" lengthAdjust="spacing" textLength="149" x="368" y="373.9775">shows passages between</text><text fill="#000000" font-family="sans-serif" font-size="13" lengthAdjust="spacing" textLength="87" x="372" y="391.2686">those buildings</text><polygon fill="#181818" points="75,441.1133,65,445.1133,75,449.1133,71,445.1133" style="stroke:#181818;stroke-width:1.0;"/><line style="stroke:#181818;stroke-width:1.0;stroke-dasharray:2.0,2.0;" x1="69" x2="334" y1="445.1133" y2="445.1133"/><text fill="#000000" font-family="sans-serif" font-size="13" font-weight="bold" lengthAdjust="spacing" textLength="7" x="81" y="431.2051">8</text><text fill="#000000" font-family="sans-serif" font-size="13" lengthAdjust="spacing" textLength="226" x="92" y="422.5596">inform error / shows passages between</text><text fill="#000000" font-family="sans-serif" font-size="13" lengthAdjust="spacing" textLength="87" x="96" y="439.8506">those buildings</text><!--SRC=[fP8nJyCm48Nt_8fJzwh001832w2AeHDqOxd4r-IasWu-c_nzBevAunO6YfV8UNxVtJqRK_GksPf2LM4JVO358ze-2MpGOKjX0IYGHEKUG-I6UtJn-z3sPTBvHtNpb5LhCfi_CL96WIxzml91dN0FUvO8FOfeGO6Qua3a80uUwiHxmwwLx3b2EEypXqUCDOfPFx_1gdGKBkq3Pijv_HUuxIButKGG8jY-mlNTLN5IjUMXrtE-eNc5eh7Hf7CgkFE37Bs0pa2WZqGIPHoqEW7fW6SfDPttGd9XBeTu_n7BpUtliKm3djxXkzvYfqrVc1gxdGyMA0Hzbwk_rIZ3dE_q0Nu1]--></g></svg>