<?xml version="1.0" encoding="us-ascii" standalone="no"?><svg xmlns="http://www.w3.org/2000/svg" xmlns:xlink="http://www.w3.org/1999/xlink" contentStyleType="text/css" height="1893px" preserveAspectRatio="none" style="width:1375px;height:1893px;background:#FFFFFF;" version="1.1" viewBox="0 0 1375 1893" width="1375px" zoomAndPan="magnify"><defs/><g><rect fill="#FFFFFF" height="1678.1328" style="stroke:#181818;stroke-width:1.0;" width="10" x="94" y="93.6211"/><rect fill="#FFFFFF" height="501.3262" style="stroke:#181818;stroke-width:1.0;" width="10" x="321" y="116.9121"/><rect fill="#FFFFFF" height="531.3262" style="stroke:#181818;stroke-width:1.0;" width="10" x="321" y="649.5293"/><rect fill="#FFFFFF" height="559.6074" style="stroke:#181818;stroke-width:1.0;" width="10" x="321" y="1212.1465"/><rect fill="#FFFFFF" height="438.7441" style="stroke:#181818;stroke-width:1.0;" width="10" x="461" y="148.2031"/><rect fill="#FFFFFF" height="468.7441" style="stroke:#181818;stroke-width:1.0;" width="10" x="461" y="680.8203"/><rect fill="#FFFFFF" height="497.0254" style="stroke:#181818;stroke-width:1.0;" width="10" x="461" y="1243.4375"/><rect fill="#FFFFFF" height="270.6582" style="stroke:#181818;stroke-width:1.0;" width="10" x="580" y="179.4941"/><rect fill="#FFFFFF" height="359.5313" style="stroke:#181818;stroke-width:1.0;" width="10" x="692.5" y="742.1113"/><rect fill="#FFFFFF" height="359.5313" style="stroke:#181818;stroke-width:1.0;" width="10" x="692.5" y="1349.6406"/><rect fill="#FFFFFF" height="33.6211" style="stroke:#181818;stroke-width:1.0;" width="10" x="796.5" y="378.2402"/><rect fill="#FFFFFF" height="33.6211" style="stroke:#181818;stroke-width:1.0;" width="10" x="892" y="940.8574"/><rect fill="#FFFFFF" height="33.6211" style="stroke:#181818;stroke-width:1.0;" width="10" x="992.5" y="1284.7285"/><rect fill="#FFFFFF" height="33.6211" style="stroke:#181818;stroke-width:1.0;" width="10" x="992.5" y="1522.0957"/><rect fill="#FFFFFF" height="99.873" style="stroke:#181818;stroke-width:1.0;" width="10" x="1122.5" y="210.7852"/><rect fill="#FFFFFF" height="99.873" style="stroke:#181818;stroke-width:1.0;" width="10" x="1122.5" y="773.4023"/><rect fill="#FFFFFF" height="99.873" style="stroke:#181818;stroke-width:1.0;" width="10" x="1122.5" y="1380.9316"/><rect fill="none" height="94.2031" style="stroke:#000000;stroke-width:1.5;" width="339" x="519.5" y="325.6582"/><rect fill="none" height="1328.6016" style="stroke:#000000;stroke-width:1.5;" width="1349.5" x="10" y="465.1523"/><rect fill="none" height="94.2031" style="stroke:#000000;stroke-width:1.5;" width="305" x="640.5" y="888.2754"/><rect fill="none" height="758.9844" style="stroke:#000000;stroke-width:1.5;" width="1339.5" x="20" y="1027.7695"/><rect fill="none" height="209.0371" style="stroke:#000000;stroke-width:1.5;" width="724.5" x="30" y="1570.7168"/><line style="stroke:#181818;stroke-width:0.5;stroke-dasharray:5.0,5.0;" x1="99" x2="99" y1="83.6211" y2="1810.7539"/><line style="stroke:#181818;stroke-width:0.5;stroke-dasharray:5.0,5.0;" x1="326" x2="326" y1="83.6211" y2="1810.7539"/><line style="stroke:#181818;stroke-width:0.5;stroke-dasharray:5.0,5.0;" x1="466" x2="466" y1="83.6211" y2="1810.7539"/><line style="stroke:#181818;stroke-width:0.5;stroke-dasharray:5.0,5.0;" x1="584.5" x2="584.5" y1="83.6211" y2="1810.7539"/><line style="stroke:#181818;stroke-width:0.5;stroke-dasharray:5.0,5.0;" x1="697.5" x2="697.5" y1="83.6211" y2="1810.7539"/><line style="stroke:#181818;stroke-width:0.5;stroke-dasharray:5.0,5.0;" x1="801.5" x2="801.5" y1="376.7598" y2="1810.7539"/><line style="stroke:#181818;stroke-width:0.5;stroke-dasharray:5.0,5.0;" x1="896.5" x2="896.5" y1="939.377" y2="1810.7539"/><line style="stroke:#181818;stroke-width:0.5;stroke-dasharray:5.0,5.0;" x1="997.5" x2="997.5" y1="1520.6152" y2="1810.7539"/><line style="stroke:#181818;stroke-width:0.5;stroke-dasharray:5.0,5.0;" x1="1127.5" x2="1127.5" y1="83.6211" y2="1810.7539"/><text fill="#000000" font-family="sans-serif" font-size="14" lengthAdjust="spacing" textLength="112" x="40" y="80.1074">Campus Manager</text><ellipse cx="99" cy="13.5" fill="#E2E2F0" rx="8" ry="8" style="stroke:#181818;stroke-width:0.5;"/><path d="M99,21.5 L99,48.5 M86,29.5 L112,29.5 M99,48.5 L86,63.5 M99,48.5 L112,63.5 " fill="none" style="stroke:#181818;stroke-width:0.5;"/><text fill="#000000" font-family="sans-serif" font-size="14" lengthAdjust="spacing" textLength="112" x="40" y="1824.8613">Campus Manager</text><ellipse cx="99" cy="1836.875" fill="#E2E2F0" rx="8" ry="8" style="stroke:#181818;stroke-width:0.5;"/><path d="M99,1844.875 L99,1871.875 M86,1852.875 L112,1852.875 M99,1871.875 L86,1886.875 M99,1871.875 L112,1886.875 " fill="none" style="stroke:#181818;stroke-width:0.5;"/><rect fill="#E2E2F0" height="32.6211" rx="2.5" ry="2.5" style="stroke:#181818;stroke-width:0.5;" width="126" x="263" y="50"/><text fill="#000000" font-family="sans-serif" font-size="14" lengthAdjust="spacing" textLength="112" x="270" y="72.1074">HTML + CSS + JS</text><rect fill="#E2E2F0" height="32.6211" rx="2.5" ry="2.5" style="stroke:#181818;stroke-width:0.5;" width="126" x="263" y="1809.7539"/><text fill="#000000" font-family="sans-serif" font-size="14" lengthAdjust="spacing" textLength="112" x="270" y="1831.8613">HTML + CSS + JS</text><rect fill="#E2E2F0" height="32.6211" rx="2.5" ry="2.5" style="stroke:#181818;stroke-width:0.5;" width="76" x="428" y="50"/><text fill="#000000" font-family="sans-serif" font-size="14" lengthAdjust="spacing" textLength="62" x="435" y="72.1074">Controller</text><rect fill="#E2E2F0" height="32.6211" rx="2.5" ry="2.5" style="stroke:#181818;stroke-width:0.5;" width="76" x="428" y="1809.7539"/><text fill="#000000" font-family="sans-serif" font-size="14" lengthAdjust="spacing" textLength="62" x="435" y="1831.8613">Controller</text><rect fill="#E2E2F0" height="32.6211" rx="2.5" ry="2.5" style="stroke:#181818;stroke-width:0.5;" width="111" x="529.5" y="50"/><text fill="#000000" font-family="sans-serif" font-size="14" lengthAdjust="spacing" textLength="97" x="536.5" y="72.1074">BuildingService</text><rect fill="#E2E2F0" height="32.6211" rx="2.5" ry="2.5" style="stroke:#181818;stroke-width:0.5;" width="111" x="529.5" y="1809.7539"/><text fill="#000000" font-family="sans-serif" font-size="14" lengthAdjust="spacing" textLength="97" x="536.5" y="1831.8613">BuildingService</text><rect fill="#E2E2F0" height="32.6211" rx="2.5" ry="2.5" style="stroke:#181818;stroke-width:0.5;" width="94" x="650.5" y="50"/><text fill="#000000" font-family="sans-serif" font-size="14" lengthAdjust="spacing" textLength="80" x="657.5" y="72.1074">FloorService</text><rect fill="#E2E2F0" height="32.6211" rx="2.5" ry="2.5" style="stroke:#181818;stroke-width:0.5;" width="94" x="650.5" y="1809.7539"/><text fill="#000000" font-family="sans-serif" font-size="14" lengthAdjust="spacing" textLength="80" x="657.5" y="1831.8613">FloorService</text><rect fill="#E2E2F0" height="32.6211" rx="2.5" ry="2.5" style="stroke:#181818;stroke-width:0.5;" width="94" x="754.5" y="1809.7539"/><text fill="#000000" font-family="sans-serif" font-size="14" lengthAdjust="spacing" textLength="80" x="761.5" y="1831.8613">BuildingDTO</text><rect fill="#E2E2F0" height="32.6211" rx="2.5" ry="2.5" style="stroke:#181818;stroke-width:0.5;" width="77" x="858.5" y="1809.7539"/><text fill="#000000" font-family="sans-serif" font-size="14" lengthAdjust="spacing" textLength="63" x="865.5" y="1831.8613">FloorDTO</text><rect fill="#E2E2F0" height="32.6211" rx="2.5" ry="2.5" style="stroke:#181818;stroke-width:0.5;" width="104" x="945.5" y="1809.7539"/><text fill="#000000" font-family="sans-serif" font-size="14" lengthAdjust="spacing" textLength="90" x="952.5" y="1831.8613">FloorMapDTO</text><rect fill="#E2E2F0" height="32.6211" rx="2.5" ry="2.5" style="stroke:#181818;stroke-width:0.5;" width="92" x="1081.5" y="50"/><text fill="#000000" font-family="sans-serif" font-size="14" lengthAdjust="spacing" textLength="78" x="1088.5" y="72.1074">HTTP Driver</text><rect fill="#E2E2F0" height="32.6211" rx="2.5" ry="2.5" style="stroke:#181818;stroke-width:0.5;" width="92" x="1081.5" y="1809.7539"/><text fill="#000000" font-family="sans-serif" font-size="14" lengthAdjust="spacing" textLength="78" x="1088.5" y="1831.8613">HTTP Driver</text><rect fill="#FFFFFF" height="1678.1328" style="stroke:#181818;stroke-width:1.0;" width="10" x="94" y="93.6211"/><rect fill="#FFFFFF" height="501.3262" style="stroke:#181818;stroke-width:1.0;" width="10" x="321" y="116.9121"/><rect fill="#FFFFFF" height="531.3262" style="stroke:#181818;stroke-width:1.0;" width="10" x="321" y="649.5293"/><rect fill="#FFFFFF" height="559.6074" style="stroke:#181818;stroke-width:1.0;" width="10" x="321" y="1212.1465"/><rect fill="#FFFFFF" height="438.7441" style="stroke:#181818;stroke-width:1.0;" width="10" x="461" y="148.2031"/><rect fill="#FFFFFF" height="468.7441" style="stroke:#181818;stroke-width:1.0;" width="10" x="461" y="680.8203"/><rect fill="#FFFFFF" height="497.0254" style="stroke:#181818;stroke-width:1.0;" width="10" x="461" y="1243.4375"/><rect fill="#FFFFFF" height="270.6582" style="stroke:#181818;stroke-width:1.0;" width="10" x="580" y="179.4941"/><rect fill="#FFFFFF" height="359.5313" style="stroke:#181818;stroke-width:1.0;" width="10" x="692.5" y="742.1113"/><rect fill="#FFFFFF" height="359.5313" style="stroke:#181818;stroke-width:1.0;" width="10" x="692.5" y="1349.6406"/><rect fill="#FFFFFF" height="33.6211" style="stroke:#181818;stroke-width:1.0;" width="10" x="796.5" y="378.2402"/><rect fill="#FFFFFF" height="33.6211" style="stroke:#181818;stroke-width:1.0;" width="10" x="892" y="940.8574"/><rect fill="#FFFFFF" height="33.6211" style="stroke:#181818;stroke-width:1.0;" width="10" x="992.5" y="1284.7285"/><rect fill="#FFFFFF" height="33.6211" style="stroke:#181818;stroke-width:1.0;" width="10" x="992.5" y="1522.0957"/><rect fill="#FFFFFF" height="99.873" style="stroke:#181818;stroke-width:1.0;" width="10" x="1122.5" y="210.7852"/><rect fill="#FFFFFF" height="99.873" style="stroke:#181818;stroke-width:1.0;" width="10" x="1122.5" y="773.4023"/><rect fill="#FFFFFF" height="99.873" style="stroke:#181818;stroke-width:1.0;" width="10" x="1122.5" y="1380.9316"/><polygon fill="#181818" points="309,112.9121,319,116.9121,309,120.9121,313,116.9121" style="stroke:#181818;stroke-width:1.0;"/><line style="stroke:#181818;stroke-width:1.0;" x1="104" x2="315" y1="116.9121" y2="116.9121"/><text fill="#000000" font-family="sans-serif" font-size="13" font-weight="bold" lengthAdjust="spacing" textLength="7" x="111" y="111.6494">1</text><text fill="#000000" font-family="sans-serif" font-size="13" lengthAdjust="spacing" textLength="125" x="122" y="111.6494">wants to list buildings</text><polygon fill="#181818" points="449,144.2031,459,148.2031,449,152.2031,453,148.2031" style="stroke:#181818;stroke-width:1.0;"/><line style="stroke:#181818;stroke-width:1.0;" x1="331" x2="455" y1="148.2031" y2="148.2031"/><text fill="#000000" font-family="sans-serif" font-size="13" font-weight="bold" lengthAdjust="spacing" textLength="7" x="338" y="142.9404">2</text><text fill="#000000" font-family="sans-serif" font-size="13" lengthAdjust="spacing" textLength="56" x="349" y="142.9404">ngOnInit()</text><polygon fill="#181818" points="568,175.4941,578,179.4941,568,183.4941,572,179.4941" style="stroke:#181818;stroke-width:1.0;"/><line style="stroke:#181818;stroke-width:1.0;" x1="471" x2="574" y1="179.4941" y2="179.4941"/><text fill="#000000" font-family="sans-serif" font-size="13" font-weight="bold" lengthAdjust="spacing" textLength="7" x="478" y="174.2314">3</text><text fill="#000000" font-family="sans-serif" font-size="13" lengthAdjust="spacing" textLength="79" x="489" y="174.2314">getBuildings()</text><polygon fill="#181818" points="1110.5,206.7852,1120.5,210.7852,1110.5,214.7852,1114.5,210.7852" style="stroke:#181818;stroke-width:1.0;"/><line style="stroke:#181818;stroke-width:1.0;" x1="590" x2="1116.5" y1="210.7852" y2="210.7852"/><text fill="#000000" font-family="sans-serif" font-size="13" font-weight="bold" lengthAdjust="spacing" textLength="7" x="597" y="205.5225">4</text><text fill="#000000" font-family="sans-serif" font-size="13" lengthAdjust="spacing" textLength="142" x="608" y="205.5225">get({baseURL}/buildings)</text><polygon fill="#181818" points="1357.5,241.0762,1367.5,245.0762,1357.5,249.0762,1361.5,245.0762" style="stroke:#181818;stroke-width:1.0;"/><line style="stroke:#181818;stroke-width:1.0;" x1="1132.5" x2="1363.5" y1="245.0762" y2="245.0762"/><text fill="#000000" font-family="sans-serif" font-size="13" font-weight="bold" lengthAdjust="spacing" textLength="7" x="1139.5" y="239.8135">5</text><text fill="#000000" font-family="sans-serif" font-size="13" lengthAdjust="spacing" textLength="85" x="1150.5" y="239.8135">GET /buildings</text><path d="M947,223.7852 L947,250.7852 L1117,250.7852 L1117,233.7852 L1107,223.7852 L947,223.7852 " fill="#FEFFDD" style="stroke:#181818;stroke-width:0.5;"/><path d="M1107,223.7852 L1107,233.7852 L1117,233.7852 L1107,223.7852 " fill="#FEFFDD" style="stroke:#181818;stroke-width:0.5;"/><text fill="#000000" font-family="sans-serif" font-size="13" lengthAdjust="spacing" textLength="149" x="953" y="242.8135">see us170 documentation</text><polygon fill="#181818" points="1143.5,275.3672,1133.5,279.3672,1143.5,283.3672,1139.5,279.3672" style="stroke:#181818;stroke-width:1.0;"/><line style="stroke:#181818;stroke-width:1.0;stroke-dasharray:2.0,2.0;" x1="1137.5" x2="1368.5" y1="279.3672" y2="279.3672"/><text fill="#000000" font-family="sans-serif" font-size="13" font-weight="bold" lengthAdjust="spacing" textLength="7" x="1149.5" y="274.1045">6</text><text fill="#000000" font-family="sans-serif" font-size="13" lengthAdjust="spacing" textLength="21" x="1160.5" y="274.1045">200</text><polygon fill="#181818" points="601,306.6582,591,310.6582,601,314.6582,597,310.6582" style="stroke:#181818;stroke-width:1.0;"/><line style="stroke:#181818;stroke-width:1.0;stroke-dasharray:2.0,2.0;" x1="595" x2="1126.5" y1="310.6582" y2="310.6582"/><text fill="#000000" font-family="sans-serif" font-size="13" font-weight="bold" lengthAdjust="spacing" textLength="7" x="607" y="305.3955">7</text><text fill="#000000" font-family="sans-serif" font-size="13" lengthAdjust="spacing" textLength="61" x="618" y="305.3955">observable</text><path d="M519.5,325.6582 L592.5,325.6582 L592.5,334.9492 L582.5,344.9492 L519.5,344.9492 L519.5,325.6582 " fill="#EEEEEE" style="stroke:#000000;stroke-width:1.5;"/><rect fill="none" height="94.2031" style="stroke:#000000;stroke-width:1.5;" width="339" x="519.5" y="325.6582"/><text fill="#000000" font-family="sans-serif" font-size="13" font-weight="bold" lengthAdjust="spacing" textLength="28" x="534.5" y="340.6865">loop</text><text fill="#000000" font-family="sans-serif" font-size="11" font-weight="bold" lengthAdjust="spacing" textLength="100" x="607.5" y="339.5283">[for each building]</text><polygon fill="#181818" points="742.5,364.2402,752.5,368.2402,742.5,372.2402,746.5,368.2402" style="stroke:#181818;stroke-width:1.0;"/><line style="stroke:#181818;stroke-width:1.0;stroke-dasharray:2.0,2.0;" x1="590" x2="748.5" y1="368.2402" y2="368.2402"/><text fill="#000000" font-family="sans-serif" font-size="13" font-weight="bold" lengthAdjust="spacing" textLength="7" x="597" y="362.9775">8</text><text fill="#000000" font-family="sans-serif" font-size="13" lengthAdjust="spacing" textLength="44" x="608" y="362.9775">create()</text><rect fill="#E2E2F0" height="32.6211" rx="2.5" ry="2.5" style="stroke:#181818;stroke-width:0.5;" width="94" x="754.5" y="344.9492"/><text fill="#000000" font-family="sans-serif" font-size="14" lengthAdjust="spacing" textLength="80" x="761.5" y="367.0566">BuildingDTO</text><polygon fill="#181818" points="601,407.8613,591,411.8613,601,415.8613,597,411.8613" style="stroke:#181818;stroke-width:1.0;"/><line style="stroke:#181818;stroke-width:1.0;stroke-dasharray:2.0,2.0;" x1="595" x2="800.5" y1="411.8613" y2="411.8613"/><text fill="#000000" font-family="sans-serif" font-size="13" font-weight="bold" lengthAdjust="spacing" textLength="7" x="607" y="406.5986">9</text><text fill="#000000" font-family="sans-serif" font-size="13" lengthAdjust="spacing" textLength="18" x="618" y="406.5986">dto</text><polygon fill="#181818" points="482,446.1523,472,450.1523,482,454.1523,478,450.1523" style="stroke:#181818;stroke-width:1.0;"/><line style="stroke:#181818;stroke-width:1.0;stroke-dasharray:2.0,2.0;" x1="476" x2="584" y1="450.1523" y2="450.1523"/><text fill="#000000" font-family="sans-serif" font-size="13" font-weight="bold" lengthAdjust="spacing" textLength="14" x="488" y="444.8896">10</text><text fill="#000000" font-family="sans-serif" font-size="13" lengthAdjust="spacing" textLength="51" x="506" y="444.8896">buildings</text><path d="M10,465.1523 L71,465.1523 L71,474.4434 L61,484.4434 L10,484.4434 L10,465.1523 " fill="#EEEEEE" style="stroke:#000000;stroke-width:1.5;"/><rect fill="none" height="1328.6016" style="stroke:#000000;stroke-width:1.5;" width="1349.5" x="10" y="465.1523"/><text fill="#000000" font-family="sans-serif" font-size="13" font-weight="bold" lengthAdjust="spacing" textLength="16" x="25" y="480.1807">alt</text><text fill="#000000" font-family="sans-serif" font-size="11" font-weight="bold" lengthAdjust="spacing" textLength="97" x="86" y="479.0225">[buildings empty]</text><polygon fill="#181818" points="342,503.7344,332,507.7344,342,511.7344,338,507.7344" style="stroke:#181818;stroke-width:1.0;"/><line style="stroke:#181818;stroke-width:1.0;stroke-dasharray:2.0,2.0;" x1="336" x2="460" y1="507.7344" y2="507.7344"/><text fill="#000000" font-family="sans-serif" font-size="13" font-weight="bold" lengthAdjust="spacing" textLength="14" x="348" y="502.4717">11</text><text fill="#000000" font-family="sans-serif" font-size="13" lengthAdjust="spacing" textLength="83" x="366" y="502.4717">error message</text><polygon fill="#181818" points="115,535.0254,105,539.0254,115,543.0254,111,539.0254" style="stroke:#181818;stroke-width:1.0;"/><line style="stroke:#181818;stroke-width:1.0;stroke-dasharray:2.0,2.0;" x1="109" x2="320" y1="539.0254" y2="539.0254"/><text fill="#000000" font-family="sans-serif" font-size="13" font-weight="bold" lengthAdjust="spacing" textLength="14" x="121" y="533.7627">12</text><text fill="#000000" font-family="sans-serif" font-size="13" lengthAdjust="spacing" textLength="124" x="139" y="533.7627">shows error message</text><line style="stroke:#000000;stroke-width:1.0;stroke-dasharray:2.0,2.0;" x1="10" x2="1359.5" y1="548.0254" y2="548.0254"/><text fill="#000000" font-family="sans-serif" font-size="11" font-weight="bold" lengthAdjust="spacing" textLength="102" x="15" y="559.8955">[building(s) found]</text><polygon fill="#181818" points="342,582.9473,332,586.9473,342,590.9473,338,586.9473" style="stroke:#181818;stroke-width:1.0;"/><line style="stroke:#181818;stroke-width:1.0;stroke-dasharray:2.0,2.0;" x1="336" x2="465" y1="586.9473" y2="586.9473"/><text fill="#000000" font-family="sans-serif" font-size="13" font-weight="bold" lengthAdjust="spacing" textLength="14" x="348" y="581.6846">13</text><text fill="#000000" font-family="sans-serif" font-size="13" lengthAdjust="spacing" textLength="51" x="366" y="581.6846">buildings</text><polygon fill="#181818" points="115,614.2383,105,618.2383,115,622.2383,111,618.2383" style="stroke:#181818;stroke-width:1.0;"/><line style="stroke:#181818;stroke-width:1.0;stroke-dasharray:2.0,2.0;" x1="109" x2="325" y1="618.2383" y2="618.2383"/><text fill="#000000" font-family="sans-serif" font-size="13" font-weight="bold" lengthAdjust="spacing" textLength="14" x="121" y="612.9756">14</text><text fill="#000000" font-family="sans-serif" font-size="13" lengthAdjust="spacing" textLength="92" x="139" y="612.9756">shows buildings</text><polygon fill="#181818" points="309,645.5293,319,649.5293,309,653.5293,313,649.5293" style="stroke:#181818;stroke-width:1.0;"/><line style="stroke:#181818;stroke-width:1.0;" x1="104" x2="315" y1="649.5293" y2="649.5293"/><text fill="#000000" font-family="sans-serif" font-size="13" font-weight="bold" lengthAdjust="spacing" textLength="14" x="111" y="644.2666">15</text><text fill="#000000" font-family="sans-serif" font-size="13" lengthAdjust="spacing" textLength="97" x="129" y="644.2666">chooses building</text><polygon fill="#181818" points="449,676.8203,459,680.8203,449,684.8203,453,680.8203" style="stroke:#181818;stroke-width:1.0;"/><line style="stroke:#181818;stroke-width:1.0;" x1="331" x2="455" y1="680.8203" y2="680.8203"/><text fill="#000000" font-family="sans-serif" font-size="13" font-weight="bold" lengthAdjust="spacing" textLength="14" x="338" y="675.5576">16</text><text fill="#000000" font-family="sans-serif" font-size="13" lengthAdjust="spacing" textLength="61" x="356" y="675.5576">listFloors()</text><polygon fill="#181818" points="680.5,738.1113,690.5,742.1113,680.5,746.1113,684.5,742.1113" style="stroke:#181818;stroke-width:1.0;"/><line style="stroke:#181818;stroke-width:1.0;" x1="471" x2="686.5" y1="742.1113" y2="742.1113"/><text fill="#000000" font-family="sans-serif" font-size="13" font-weight="bold" lengthAdjust="spacing" textLength="14" x="478" y="736.8486">17</text><text fill="#000000" font-family="sans-serif" font-size="13" lengthAdjust="spacing" textLength="61" x="496" y="736.8486">listFloors()</text><polygon fill="#181818" points="1110.5,769.4023,1120.5,773.4023,1110.5,777.4023,1114.5,773.4023" style="stroke:#181818;stroke-width:1.0;"/><line style="stroke:#181818;stroke-width:1.0;" x1="702.5" x2="1116.5" y1="773.4023" y2="773.4023"/><text fill="#000000" font-family="sans-serif" font-size="13" font-weight="bold" lengthAdjust="spacing" textLength="14" x="709.5" y="768.1396">18</text><text fill="#000000" font-family="sans-serif" font-size="13" lengthAdjust="spacing" textLength="263" x="727.5" y="768.1396">get({baseURL}/buildings/{buildingCode}/floors)</text><polygon fill="#181818" points="1357.5,800.6934,1367.5,804.6934,1357.5,808.6934,1361.5,804.6934" style="stroke:#181818;stroke-width:1.0;"/><line style="stroke:#181818;stroke-width:1.0;" x1="1132.5" x2="1363.5" y1="804.6934" y2="804.6934"/><text fill="#000000" font-family="sans-serif" font-size="13" font-weight="bold" lengthAdjust="spacing" textLength="14" x="1139.5" y="799.4307">19</text><text fill="#000000" font-family="sans-serif" font-size="13" lengthAdjust="spacing" textLength="142" x="1157.5" y="799.4307">GET /buildings/{id}/floors</text><polygon fill="#181818" points="1143.5,834.9844,1133.5,838.9844,1143.5,842.9844,1139.5,838.9844" style="stroke:#181818;stroke-width:1.0;"/><line style="stroke:#181818;stroke-width:1.0;stroke-dasharray:2.0,2.0;" x1="1137.5" x2="1368.5" y1="838.9844" y2="838.9844"/><text fill="#000000" font-family="sans-serif" font-size="13" font-weight="bold" lengthAdjust="spacing" textLength="14" x="1149.5" y="833.7217">20</text><text fill="#000000" font-family="sans-serif" font-size="13" lengthAdjust="spacing" textLength="21" x="1167.5" y="833.7217">200</text><path d="M947,817.6934 L947,844.6934 L1117,844.6934 L1117,827.6934 L1107,817.6934 L947,817.6934 " fill="#FEFFDD" style="stroke:#181818;stroke-width:0.5;"/><path d="M1107,817.6934 L1107,827.6934 L1117,827.6934 L1107,817.6934 " fill="#FEFFDD" style="stroke:#181818;stroke-width:0.5;"/><text fill="#000000" font-family="sans-serif" font-size="13" lengthAdjust="spacing" textLength="149" x="953" y="836.7217">see us210 documentation</text><polygon fill="#181818" points="713.5,869.2754,703.5,873.2754,713.5,877.2754,709.5,873.2754" style="stroke:#181818;stroke-width:1.0;"/><line style="stroke:#181818;stroke-width:1.0;stroke-dasharray:2.0,2.0;" x1="707.5" x2="1126.5" y1="873.2754" y2="873.2754"/><text fill="#000000" font-family="sans-serif" font-size="13" font-weight="bold" lengthAdjust="spacing" textLength="14" x="719.5" y="868.0127">21</text><text fill="#000000" font-family="sans-serif" font-size="13" lengthAdjust="spacing" textLength="61" x="737.5" y="868.0127">observable</text><path d="M640.5,888.2754 L713.5,888.2754 L713.5,897.5664 L703.5,907.5664 L640.5,907.5664 L640.5,888.2754 " fill="#EEEEEE" style="stroke:#000000;stroke-width:1.5;"/><rect fill="none" height="94.2031" style="stroke:#000000;stroke-width:1.5;" width="305" x="640.5" y="888.2754"/><text fill="#000000" font-family="sans-serif" font-size="13" font-weight="bold" lengthAdjust="spacing" textLength="28" x="655.5" y="903.3037">loop</text><text fill="#000000" font-family="sans-serif" font-size="11" font-weight="bold" lengthAdjust="spacing" textLength="82" x="728.5" y="902.1455">[for each floor]</text><polygon fill="#181818" points="846.5,926.8574,856.5,930.8574,846.5,934.8574,850.5,930.8574" style="stroke:#181818;stroke-width:1.0;"/><line style="stroke:#181818;stroke-width:1.0;stroke-dasharray:2.0,2.0;" x1="702.5" x2="852.5" y1="930.8574" y2="930.8574"/><text fill="#000000" font-family="sans-serif" font-size="13" font-weight="bold" lengthAdjust="spacing" textLength="14" x="709.5" y="925.5947">22</text><text fill="#000000" font-family="sans-serif" font-size="13" lengthAdjust="spacing" textLength="44" x="727.5" y="925.5947">create()</text><rect fill="#E2E2F0" height="32.6211" rx="2.5" ry="2.5" style="stroke:#181818;stroke-width:0.5;" width="77" x="858.5" y="907.5664"/><text fill="#000000" font-family="sans-serif" font-size="14" lengthAdjust="spacing" textLength="63" x="865.5" y="929.6738">FloorDTO</text><polygon fill="#181818" points="713.5,970.4785,703.5,974.4785,713.5,978.4785,709.5,974.4785" style="stroke:#181818;stroke-width:1.0;"/><line style="stroke:#181818;stroke-width:1.0;stroke-dasharray:2.0,2.0;" x1="707.5" x2="896" y1="974.4785" y2="974.4785"/><text fill="#000000" font-family="sans-serif" font-size="13" font-weight="bold" lengthAdjust="spacing" textLength="14" x="719.5" y="969.2158">23</text><text fill="#000000" font-family="sans-serif" font-size="13" lengthAdjust="spacing" textLength="50" x="737.5" y="969.2158">floorDTO</text><polygon fill="#181818" points="482,1008.7695,472,1012.7695,482,1016.7695,478,1012.7695" style="stroke:#181818;stroke-width:1.0;"/><line style="stroke:#181818;stroke-width:1.0;stroke-dasharray:2.0,2.0;" x1="476" x2="691.5" y1="1012.7695" y2="1012.7695"/><text fill="#000000" font-family="sans-serif" font-size="13" font-weight="bold" lengthAdjust="spacing" textLength="14" x="488" y="1007.5068">24</text><text fill="#000000" font-family="sans-serif" font-size="13" lengthAdjust="spacing" textLength="31" x="506" y="1007.5068">floors</text><path d="M20,1027.7695 L81,1027.7695 L81,1037.0605 L71,1047.0605 L20,1047.0605 L20,1027.7695 " fill="#EEEEEE" style="stroke:#000000;stroke-width:1.5;"/><rect fill="none" height="758.9844" style="stroke:#000000;stroke-width:1.5;" width="1339.5" x="20" y="1027.7695"/><text fill="#000000" font-family="sans-serif" font-size="13" font-weight="bold" lengthAdjust="spacing" textLength="16" x="35" y="1042.7979">alt</text><text fill="#000000" font-family="sans-serif" font-size="11" font-weight="bold" lengthAdjust="spacing" textLength="92" x="96" y="1041.6396">[floors is empty]</text><polygon fill="#181818" points="342,1066.3516,332,1070.3516,342,1074.3516,338,1070.3516" style="stroke:#181818;stroke-width:1.0;"/><line style="stroke:#181818;stroke-width:1.0;stroke-dasharray:2.0,2.0;" x1="336" x2="460" y1="1070.3516" y2="1070.3516"/><text fill="#000000" font-family="sans-serif" font-size="13" font-weight="bold" lengthAdjust="spacing" textLength="14" x="348" y="1065.0889">25</text><text fill="#000000" font-family="sans-serif" font-size="13" lengthAdjust="spacing" textLength="88" x="366" y="1065.0889">floors not found</text><polygon fill="#181818" points="115,1097.6426,105,1101.6426,115,1105.6426,111,1101.6426" style="stroke:#181818;stroke-width:1.0;"/><line style="stroke:#181818;stroke-width:1.0;stroke-dasharray:2.0,2.0;" x1="109" x2="320" y1="1101.6426" y2="1101.6426"/><text fill="#000000" font-family="sans-serif" font-size="13" font-weight="bold" lengthAdjust="spacing" textLength="14" x="121" y="1096.3799">26</text><text fill="#000000" font-family="sans-serif" font-size="13" lengthAdjust="spacing" textLength="67" x="139" y="1096.3799">shows error</text><line style="stroke:#000000;stroke-width:1.0;stroke-dasharray:2.0,2.0;" x1="20" x2="1359.5" y1="1110.6426" y2="1110.6426"/><text fill="#000000" font-family="sans-serif" font-size="11" font-weight="bold" lengthAdjust="spacing" textLength="76" x="25" y="1122.5127">[floors found]</text><polygon fill="#181818" points="342,1145.5645,332,1149.5645,342,1153.5645,338,1149.5645" style="stroke:#181818;stroke-width:1.0;"/><line style="stroke:#181818;stroke-width:1.0;stroke-dasharray:2.0,2.0;" x1="336" x2="465" y1="1149.5645" y2="1149.5645"/><text fill="#000000" font-family="sans-serif" font-size="13" font-weight="bold" lengthAdjust="spacing" textLength="14" x="348" y="1144.3018">27</text><text fill="#000000" font-family="sans-serif" font-size="13" lengthAdjust="spacing" textLength="31" x="366" y="1144.3018">floors</text><polygon fill="#181818" points="115,1176.8555,105,1180.8555,115,1184.8555,111,1180.8555" style="stroke:#181818;stroke-width:1.0;"/><line style="stroke:#181818;stroke-width:1.0;stroke-dasharray:2.0,2.0;" x1="109" x2="325" y1="1180.8555" y2="1180.8555"/><text fill="#000000" font-family="sans-serif" font-size="13" font-weight="bold" lengthAdjust="spacing" textLength="14" x="121" y="1175.5928">28</text><text fill="#000000" font-family="sans-serif" font-size="13" lengthAdjust="spacing" textLength="78" x="139" y="1175.5928">requests floor</text><polygon fill="#181818" points="309,1208.1465,319,1212.1465,309,1216.1465,313,1212.1465" style="stroke:#181818;stroke-width:1.0;"/><line style="stroke:#181818;stroke-width:1.0;" x1="104" x2="315" y1="1212.1465" y2="1212.1465"/><text fill="#000000" font-family="sans-serif" font-size="13" font-weight="bold" lengthAdjust="spacing" textLength="14" x="111" y="1206.8838">29</text><text fill="#000000" font-family="sans-serif" font-size="13" lengthAdjust="spacing" textLength="180" x="129" y="1206.8838">chooses floor and uploads Map</text><polygon fill="#181818" points="449,1239.4375,459,1243.4375,449,1247.4375,453,1243.4375" style="stroke:#181818;stroke-width:1.0;"/><line style="stroke:#181818;stroke-width:1.0;" x1="331" x2="455" y1="1243.4375" y2="1243.4375"/><text fill="#000000" font-family="sans-serif" font-size="13" font-weight="bold" lengthAdjust="spacing" textLength="14" x="338" y="1238.1748">30</text><text fill="#000000" font-family="sans-serif" font-size="13" lengthAdjust="spacing" textLength="71" x="356" y="1238.1748">buildingData</text><polygon fill="#181818" points="933.5,1270.7285,943.5,1274.7285,933.5,1278.7285,937.5,1274.7285" style="stroke:#181818;stroke-width:1.0;"/><line style="stroke:#181818;stroke-width:1.0;stroke-dasharray:2.0,2.0;" x1="471" x2="939.5" y1="1274.7285" y2="1274.7285"/><text fill="#000000" font-family="sans-serif" font-size="13" font-weight="bold" lengthAdjust="spacing" textLength="14" x="478" y="1269.4658">31</text><text fill="#000000" font-family="sans-serif" font-size="13" lengthAdjust="spacing" textLength="44" x="496" y="1269.4658">create()</text><rect fill="#E2E2F0" height="32.6211" rx="2.5" ry="2.5" style="stroke:#181818;stroke-width:0.5;" width="104" x="945.5" y="1251.4375"/><text fill="#000000" font-family="sans-serif" font-size="14" lengthAdjust="spacing" textLength="90" x="952.5" y="1273.5449">FloorMapDTO</text><polygon fill="#181818" points="482,1314.3496,472,1318.3496,482,1322.3496,478,1318.3496" style="stroke:#181818;stroke-width:1.0;"/><line style="stroke:#181818;stroke-width:1.0;stroke-dasharray:2.0,2.0;" x1="476" x2="996.5" y1="1318.3496" y2="1318.3496"/><text fill="#000000" font-family="sans-serif" font-size="13" font-weight="bold" lengthAdjust="spacing" textLength="14" x="488" y="1313.0869">32</text><text fill="#000000" font-family="sans-serif" font-size="13" lengthAdjust="spacing" textLength="75" x="506" y="1313.0869">floorMapDTO</text><polygon fill="#181818" points="680.5,1345.6406,690.5,1349.6406,680.5,1353.6406,684.5,1349.6406" style="stroke:#181818;stroke-width:1.0;"/><line style="stroke:#181818;stroke-width:1.0;" x1="471" x2="686.5" y1="1349.6406" y2="1349.6406"/><text fill="#000000" font-family="sans-serif" font-size="13" font-weight="bold" lengthAdjust="spacing" textLength="14" x="478" y="1344.3779">33</text><text fill="#000000" font-family="sans-serif" font-size="13" lengthAdjust="spacing" textLength="157" x="496" y="1344.3779">editBuilding(floorMapDTOs)</text><polygon fill="#181818" points="1110.5,1376.9316,1120.5,1380.9316,1110.5,1384.9316,1114.5,1380.9316" style="stroke:#181818;stroke-width:1.0;"/><line style="stroke:#181818;stroke-width:1.0;" x1="702.5" x2="1116.5" y1="1380.9316" y2="1380.9316"/><text fill="#000000" font-family="sans-serif" font-size="13" font-weight="bold" lengthAdjust="spacing" textLength="14" x="709.5" y="1375.6689">34</text><text fill="#000000" font-family="sans-serif" font-size="13" lengthAdjust="spacing" textLength="383" x="727.5" y="1375.6689">patch({baseURL}/buildings/{buildingCode}/floors/{floorNumber}/map</text><polygon fill="#181818" points="1357.5,1408.2227,1367.5,1412.2227,1357.5,1416.2227,1361.5,1412.2227" style="stroke:#181818;stroke-width:1.0;"/><line style="stroke:#181818;stroke-width:1.0;" x1="1132.5" x2="1363.5" y1="1412.2227" y2="1412.2227"/><text fill="#000000" font-family="sans-serif" font-size="13" font-weight="bold" lengthAdjust="spacing" textLength="14" x="1139.5" y="1406.96">35</text><text fill="#000000" font-family="sans-serif" font-size="13" lengthAdjust="spacing" textLength="188" x="1157.5" y="1406.96">PATCH /buildings/{buildingCode}</text><polygon fill="#181818" points="1143.5,1442.5137,1133.5,1446.5137,1143.5,1450.5137,1139.5,1446.5137" style="stroke:#181818;stroke-width:1.0;"/><line style="stroke:#181818;stroke-width:1.0;stroke-dasharray:2.0,2.0;" x1="1137.5" x2="1368.5" y1="1446.5137" y2="1446.5137"/><text fill="#000000" font-family="sans-serif" font-size="13" font-weight="bold" lengthAdjust="spacing" textLength="14" x="1149.5" y="1441.251">36</text><text fill="#000000" font-family="sans-serif" font-size="13" lengthAdjust="spacing" textLength="68" x="1167.5" y="1441.251">status code</text><path d="M947,1425.2227 L947,1452.2227 L1117,1452.2227 L1117,1435.2227 L1107,1425.2227 L947,1425.2227 " fill="#FEFFDD" style="stroke:#181818;stroke-width:0.5;"/><path d="M1107,1425.2227 L1107,1435.2227 L1117,1435.2227 L1107,1425.2227 " fill="#FEFFDD" style="stroke:#181818;stroke-width:0.5;"/><text fill="#000000" font-family="sans-serif" font-size="13" lengthAdjust="spacing" textLength="149" x="953" y="1444.251">see us160 documentation</text><polygon fill="#181818" points="713.5,1476.8047,703.5,1480.8047,713.5,1484.8047,709.5,1480.8047" style="stroke:#181818;stroke-width:1.0;"/><line style="stroke:#181818;stroke-width:1.0;stroke-dasharray:2.0,2.0;" x1="707.5" x2="1126.5" y1="1480.8047" y2="1480.8047"/><text fill="#000000" font-family="sans-serif" font-size="13" font-weight="bold" lengthAdjust="spacing" textLength="14" x="719.5" y="1475.542">37</text><text fill="#000000" font-family="sans-serif" font-size="13" lengthAdjust="spacing" textLength="61" x="737.5" y="1475.542">observable</text><polygon fill="#181818" points="933.5,1508.0957,943.5,1512.0957,933.5,1516.0957,937.5,1512.0957" style="stroke:#181818;stroke-width:1.0;"/><line style="stroke:#181818;stroke-width:1.0;stroke-dasharray:2.0,2.0;" x1="702.5" x2="939.5" y1="1512.0957" y2="1512.0957"/><text fill="#000000" font-family="sans-serif" font-size="13" font-weight="bold" lengthAdjust="spacing" textLength="14" x="709.5" y="1506.833">38</text><text fill="#000000" font-family="sans-serif" font-size="13" lengthAdjust="spacing" textLength="44" x="727.5" y="1506.833">create()</text><rect fill="#E2E2F0" height="32.6211" rx="2.5" ry="2.5" style="stroke:#181818;stroke-width:0.5;" width="104" x="945.5" y="1488.8047"/><text fill="#000000" font-family="sans-serif" font-size="14" lengthAdjust="spacing" textLength="90" x="952.5" y="1510.9121">FloorMapDTO</text><polygon fill="#181818" points="713.5,1551.7168,703.5,1555.7168,713.5,1559.7168,709.5,1555.7168" style="stroke:#181818;stroke-width:1.0;"/><line style="stroke:#181818;stroke-width:1.0;stroke-dasharray:2.0,2.0;" x1="707.5" x2="996.5" y1="1555.7168" y2="1555.7168"/><text fill="#000000" font-family="sans-serif" font-size="13" font-weight="bold" lengthAdjust="spacing" textLength="14" x="719.5" y="1550.4541">39</text><text fill="#000000" font-family="sans-serif" font-size="13" lengthAdjust="spacing" textLength="75" x="737.5" y="1550.4541">floorMapDTO</text><path d="M30,1570.7168 L91,1570.7168 L91,1580.0078 L81,1590.0078 L30,1590.0078 L30,1570.7168 " fill="#EEEEEE" style="stroke:#000000;stroke-width:1.5;"/><rect fill="none" height="209.0371" style="stroke:#000000;stroke-width:1.5;" width="724.5" x="30" y="1570.7168"/><text fill="#000000" font-family="sans-serif" font-size="13" font-weight="bold" lengthAdjust="spacing" textLength="16" x="45" y="1585.7451">alt</text><text fill="#000000" font-family="sans-serif" font-size="11" font-weight="bold" lengthAdjust="spacing" textLength="73" x="106" y="1584.5869">[status==200]</text><polygon fill="#181818" points="482,1609.2988,472,1613.2988,482,1617.2988,478,1613.2988" style="stroke:#181818;stroke-width:1.0;"/><line style="stroke:#181818;stroke-width:1.0;stroke-dasharray:2.0,2.0;" x1="476" x2="691.5" y1="1613.2988" y2="1613.2988"/><text fill="#000000" font-family="sans-serif" font-size="13" font-weight="bold" lengthAdjust="spacing" textLength="14" x="488" y="1608.0361">40</text><text fill="#000000" font-family="sans-serif" font-size="13" lengthAdjust="spacing" textLength="25" x="506" y="1608.0361">map</text><polygon fill="#181818" points="342,1640.5898,332,1644.5898,342,1648.5898,338,1644.5898" style="stroke:#181818;stroke-width:1.0;"/><line style="stroke:#181818;stroke-width:1.0;stroke-dasharray:2.0,2.0;" x1="336" x2="460" y1="1644.5898" y2="1644.5898"/><text fill="#000000" font-family="sans-serif" font-size="13" font-weight="bold" lengthAdjust="spacing" textLength="14" x="348" y="1639.3271">41</text><text fill="#000000" font-family="sans-serif" font-size="13" lengthAdjust="spacing" textLength="25" x="366" y="1639.3271">map</text><polygon fill="#181818" points="115,1671.8809,105,1675.8809,115,1679.8809,111,1675.8809" style="stroke:#181818;stroke-width:1.0;"/><line style="stroke:#181818;stroke-width:1.0;stroke-dasharray:2.0,2.0;" x1="109" x2="320" y1="1675.8809" y2="1675.8809"/><text fill="#000000" font-family="sans-serif" font-size="13" font-weight="bold" lengthAdjust="spacing" textLength="14" x="121" y="1670.6182">42</text><text fill="#000000" font-family="sans-serif" font-size="13" lengthAdjust="spacing" textLength="147" x="139" y="1670.6182">shows success message</text><line style="stroke:#000000;stroke-width:1.0;stroke-dasharray:2.0,2.0;" x1="30" x2="754.5" y1="1684.8809" y2="1684.8809"/><polygon fill="#181818" points="482,1705.1719,472,1709.1719,482,1713.1719,478,1709.1719" style="stroke:#181818;stroke-width:1.0;"/><line style="stroke:#181818;stroke-width:1.0;stroke-dasharray:2.0,2.0;" x1="476" x2="696.5" y1="1709.1719" y2="1709.1719"/><text fill="#000000" font-family="sans-serif" font-size="13" font-weight="bold" lengthAdjust="spacing" textLength="14" x="488" y="1703.9092">43</text><text fill="#000000" font-family="sans-serif" font-size="13" lengthAdjust="spacing" textLength="83" x="506" y="1703.9092">error message</text><polygon fill="#181818" points="342,1736.4629,332,1740.4629,342,1744.4629,338,1740.4629" style="stroke:#181818;stroke-width:1.0;"/><line style="stroke:#181818;stroke-width:1.0;stroke-dasharray:2.0,2.0;" x1="336" x2="465" y1="1740.4629" y2="1740.4629"/><text fill="#000000" font-family="sans-serif" font-size="13" font-weight="bold" lengthAdjust="spacing" textLength="14" x="348" y="1735.2002">44</text><text fill="#000000" font-family="sans-serif" font-size="13" lengthAdjust="spacing" textLength="83" x="366" y="1735.2002">error message</text><polygon fill="#181818" points="110,1767.7539,100,1771.7539,110,1775.7539,106,1771.7539" style="stroke:#181818;stroke-width:1.0;"/><line style="stroke:#181818;stroke-width:1.0;stroke-dasharray:2.0,2.0;" x1="104" x2="325" y1="1771.7539" y2="1771.7539"/><text fill="#000000" font-family="sans-serif" font-size="13" font-weight="bold" lengthAdjust="spacing" textLength="14" x="116" y="1766.4912">45</text><text fill="#000000" font-family="sans-serif" font-size="13" lengthAdjust="spacing" textLength="124" x="134" y="1766.4912">shows error message</text><!--SRC=[nPVVRzCm4CVVyrUSzjGEJTts01BI9a473BInYPR7FRY9rrfAus0xdL2r_vspysDER2SfJC9IV-Rkx3j__Sc558fdnNP5HHIHM741HtEopGi9joGZQogEW4We95xEYL0iPZd951nTBszlu0tC5mjy_xOmLZj6dzfMSvufmTEq2XChaRODFXOiJLYsNb2nOp4rLd8Njuq-fvmBs-BH_85c_c1NopjZbYZk2LHVVQn-U4nkITwoAdyx5LZUmvLWkogvZL9vP8h8TaHHKpDymScbAGoyXoVqaw0uf4mgM5MhbH7WQDnC4Q4QnX43wC9XW6nzbttDc9fC6ul6pzGMh65yq1VBYQvhgkhoICkz5K8N7Zf3UsCGdLmPPR9V4Kb__hXvdZKPJ1st9gQf2dY6YNXo-O1HltnQmgnT3dja7EC8jjuej9LKL_RitIaaF2wsD5D4CPuvJWydBwi-FpsD_DCtvU4hYVeYgvGwbWdjJmO5aiCZ7XoqspIxwitP51FdH64U7-EiiQ0OTZBr6ZUpQXb3OE0rAukGfPM2puHcIHHQQgKyTtT8QaaOw3PNl_jAvzDMgT2Nyq65m39kgPG87iUwF0jehGyL2c73dsJ0XQQIDekRo2bkJz79iJktNtvM0ixvygvdA4paYTmwyMrYn1lE9PMkglpE7cHer1Yc1K-zazY0Mcgkr13kcwGrKKDjdqIRQ8EmcUthhtEUqEUPyPG3PoY8eLuKpVOigISuc30UR9sV3M6hXIQhmZry6iCebrCcTh0YBxjHBmFlVyF8ShTRtpQXPzH6tNm7dQsCUsrzR7CohCvAOADhsfMNWOLe5q9BvOTwy71e7E7ygMdALS7zWRj5CYtJkEN-BGO5_LLGgMH7O5tS3V3EE0F94YZob9D4TwFvuV2h3_8LKMGa_5eLiPg_Vl6tororYq7PbTSTvGNSkfiOCFDWcIQiQVecbgzyHKZdHCMRyPYUxStdT_F4yJpRalnrk7t_OJc_Xk3ilGooGIwHo_Zi4wFJg3xqxNy4kWlfCL8zIAu-oNOftUC-KherOClYNrpuxgOXPci53IBD9pClR6KHnzXB1djGZTpHI-jlPqDy_hSc-U26DHmkrA5Q_-j7NFicQtt-0G00]--></g></svg>