<?xml version="1.0" encoding="us-ascii" standalone="no"?><svg xmlns="http://www.w3.org/2000/svg" xmlns:xlink="http://www.w3.org/1999/xlink" contentStyleType="text/css" height="1047.9px" preserveAspectRatio="none" style="width:1034px;height:1047px;background:#FFFFFF;" version="1.1" viewBox="0 0 1034 1047" width="1034.6px" zoomAndPan="magnify"><defs/><g><rect fill="#FFFFFF" height="897.3316" style="stroke:#181818;stroke-width:0.6999999999999998;" width="7" x="65.8" y="65.5348"/><rect fill="#FFFFFF" height="275.1861" style="stroke:#181818;stroke-width:0.6999999999999998;" width="7" x="224.7" y="81.8385"/><rect fill="#FFFFFF" height="275.1861" style="stroke:#181818;stroke-width:0.6999999999999998;" width="7" x="224.7" y="378.9283"/><rect fill="#FFFFFF" height="286.8482" style="stroke:#181818;stroke-width:0.6999999999999998;" width="7" x="224.7" y="676.0182"/><rect fill="#FFFFFF" height="231.3787" style="stroke:#181818;stroke-width:0.6999999999999998;" width="7" x="322.7" y="103.7422"/><rect fill="#FFFFFF" height="231.3787" style="stroke:#181818;stroke-width:0.6999999999999998;" width="7" x="322.7" y="400.832"/><rect fill="#FFFFFF" height="243.0408" style="stroke:#181818;stroke-width:0.6999999999999998;" width="7" x="322.7" y="697.9219"/><rect fill="#FFFFFF" height="113.7186" style="stroke:#181818;stroke-width:0.6999999999999998;" width="7" x="417.2" y="125.6459"/><rect fill="#FFFFFF" height="175.9297" style="stroke:#181818;stroke-width:0.6999999999999998;" width="7" x="417.2" y="422.7357"/><rect fill="#FFFFFF" height="199.2334" style="stroke:#181818;stroke-width:0.6999999999999998;" width="7" x="417.2" y="719.8256"/><rect fill="#FFFFFF" height="69.9111" style="stroke:#181818;stroke-width:0.6999999999999998;" width="7" x="718.2" y="147.5496"/><rect fill="#FFFFFF" height="69.9111" style="stroke:#181818;stroke-width:0.6999999999999998;" width="7" x="718.2" y="444.6395"/><rect fill="#FFFFFF" height="69.9111" style="stroke:#181818;stroke-width:0.6999999999999998;" width="7" x="718.2" y="741.7293"/><rect fill="#FFFFFF" height="24.0037" style="stroke:#181818;stroke-width:0.6999999999999998;" width="7" x="882.7" y="171.5533"/><rect fill="#FFFFFF" height="24.0037" style="stroke:#181818;stroke-width:0.6999999999999998;" width="7" x="882.7" y="466.5432"/><rect fill="#FFFFFF" height="24.0037" style="stroke:#181818;stroke-width:0.6999999999999998;" width="7" x="882.7" y="763.633"/><rect fill="none" height="728.402" style="stroke:#000000;stroke-width:1.0499999999999998;" width="1022.7" x="7" y="249.8645"/><rect fill="none" height="426.4121" style="stroke:#000000;stroke-width:1.0499999999999998;" width="1008.7" x="14" y="546.9543"/><rect fill="none" height="146.326" style="stroke:#000000;stroke-width:1.0499999999999998;" width="428.05" x="21" y="822.1404"/><line style="stroke:#181818;stroke-width:0.3499999999999999;stroke-dasharray:5.0,5.0;" x1="69.3" x2="69.3" y1="58.5348" y2="990.1664"/><line style="stroke:#181818;stroke-width:0.3499999999999999;stroke-dasharray:5.0,5.0;" x1="228.2" x2="228.2" y1="58.5348" y2="990.1664"/><line style="stroke:#181818;stroke-width:0.3499999999999999;stroke-dasharray:5.0,5.0;" x1="326.2" x2="326.2" y1="58.5348" y2="990.1664"/><line style="stroke:#181818;stroke-width:0.3499999999999999;stroke-dasharray:5.0,5.0;" x1="420.35" x2="420.35" y1="58.5348" y2="990.1664"/><line style="stroke:#181818;stroke-width:0.3499999999999999;stroke-dasharray:5.0,5.0;" x1="721.7" x2="721.7" y1="58.5348" y2="990.1664"/><line style="stroke:#181818;stroke-width:0.3499999999999999;stroke-dasharray:5.0,5.0;" x1="885.85" x2="885.85" y1="58.5348" y2="990.1664"/><text fill="#000000" font-family="sans-serif" font-size="9.8" lengthAdjust="spacing" textLength="78.4" x="28" y="56.0752">Campus Manager</text><ellipse cx="69.3" cy="9.45" fill="#E2E2F0" rx="5.6" ry="5.6" style="stroke:#181818;stroke-width:0.3499999999999999;"/><path d="M69.3,15.05 L69.3,33.95 M60.2,20.65 L78.4,20.65 M69.3,33.95 L60.2,44.45 M69.3,33.95 L78.4,44.45 " fill="none" style="stroke:#181818;stroke-width:0.3499999999999999;"/><text fill="#000000" font-family="sans-serif" font-size="9.8" lengthAdjust="spacing" textLength="78.4" x="28" y="1000.0416">Campus Manager</text><ellipse cx="69.3" cy="1008.4512" fill="#E2E2F0" rx="5.6" ry="5.6" style="stroke:#181818;stroke-width:0.3499999999999999;"/><path d="M69.3,1014.0512 L69.3,1032.9512 M60.2,1019.6512 L78.4,1019.6512 M69.3,1032.9512 L60.2,1043.4512 M69.3,1032.9512 L78.4,1043.4512 " fill="none" style="stroke:#181818;stroke-width:0.3499999999999999;"/><rect fill="#E2E2F0" height="22.8348" rx="1.75" ry="1.75" style="stroke:#181818;stroke-width:0.3499999999999999;" width="88.2" x="184.1" y="35"/><text fill="#000000" font-family="sans-serif" font-size="9.8" lengthAdjust="spacing" textLength="78.4" x="189" y="50.4752">HTML + CSS + JS</text><rect fill="#E2E2F0" height="22.8348" rx="1.75" ry="1.75" style="stroke:#181818;stroke-width:0.3499999999999999;" width="88.2" x="184.1" y="989.4664"/><text fill="#000000" font-family="sans-serif" font-size="9.8" lengthAdjust="spacing" textLength="78.4" x="189" y="1004.9416">HTML + CSS + JS</text><rect fill="#E2E2F0" height="22.8348" rx="1.75" ry="1.75" style="stroke:#181818;stroke-width:0.3499999999999999;" width="53.2" x="299.6" y="35"/><text fill="#000000" font-family="sans-serif" font-size="9.8" lengthAdjust="spacing" textLength="43.4" x="304.5" y="50.4752">Controller</text><rect fill="#E2E2F0" height="22.8348" rx="1.75" ry="1.75" style="stroke:#181818;stroke-width:0.3499999999999999;" width="53.2" x="299.6" y="989.4664"/><text fill="#000000" font-family="sans-serif" font-size="9.8" lengthAdjust="spacing" textLength="43.4" x="304.5" y="1004.9416">Controller</text><rect fill="#E2E2F0" height="22.8348" rx="1.75" ry="1.75" style="stroke:#181818;stroke-width:0.3499999999999999;" width="42.7" x="399.35" y="35"/><text fill="#000000" font-family="sans-serif" font-size="9.8" lengthAdjust="spacing" textLength="32.9" x="404.25" y="50.4752">Service</text><rect fill="#E2E2F0" height="22.8348" rx="1.75" ry="1.75" style="stroke:#181818;stroke-width:0.3499999999999999;" width="42.7" x="399.35" y="989.4664"/><text fill="#000000" font-family="sans-serif" font-size="9.8" lengthAdjust="spacing" textLength="32.9" x="404.25" y="1004.9416">Service</text><rect fill="#E2E2F0" height="22.8348" rx="1.75" ry="1.75" style="stroke:#181818;stroke-width:0.3499999999999999;" width="64.4" x="689.5" y="35"/><text fill="#000000" font-family="sans-serif" font-size="9.8" lengthAdjust="spacing" textLength="54.6" x="694.4" y="50.4752">HTTP Driver</text><rect fill="#E2E2F0" height="22.8348" rx="1.75" ry="1.75" style="stroke:#181818;stroke-width:0.3499999999999999;" width="64.4" x="689.5" y="989.4664"/><text fill="#000000" font-family="sans-serif" font-size="9.8" lengthAdjust="spacing" textLength="54.6" x="694.4" y="1004.9416">HTTP Driver</text><rect fill="#E2E2F0" height="22.8348" rx="1.75" ry="1.75" style="stroke:#181818;stroke-width:0.3499999999999999;" width="24.5" x="873.95" y="35"/><text fill="#000000" font-family="sans-serif" font-size="9.8" lengthAdjust="spacing" textLength="14.7" x="878.85" y="50.4752">MD</text><rect fill="#E2E2F0" height="22.8348" rx="1.75" ry="1.75" style="stroke:#181818;stroke-width:0.3499999999999999;" width="24.5" x="873.95" y="989.4664"/><text fill="#000000" font-family="sans-serif" font-size="9.8" lengthAdjust="spacing" textLength="14.7" x="878.85" y="1004.9416">MD</text><rect fill="#FFFFFF" height="897.3316" style="stroke:#181818;stroke-width:0.6999999999999998;" width="7" x="65.8" y="65.5348"/><rect fill="#FFFFFF" height="275.1861" style="stroke:#181818;stroke-width:0.6999999999999998;" width="7" x="224.7" y="81.8385"/><rect fill="#FFFFFF" height="275.1861" style="stroke:#181818;stroke-width:0.6999999999999998;" width="7" x="224.7" y="378.9283"/><rect fill="#FFFFFF" height="286.8482" style="stroke:#181818;stroke-width:0.6999999999999998;" width="7" x="224.7" y="676.0182"/><rect fill="#FFFFFF" height="231.3787" style="stroke:#181818;stroke-width:0.6999999999999998;" width="7" x="322.7" y="103.7422"/><rect fill="#FFFFFF" height="231.3787" style="stroke:#181818;stroke-width:0.6999999999999998;" width="7" x="322.7" y="400.832"/><rect fill="#FFFFFF" height="243.0408" style="stroke:#181818;stroke-width:0.6999999999999998;" width="7" x="322.7" y="697.9219"/><rect fill="#FFFFFF" height="113.7186" style="stroke:#181818;stroke-width:0.6999999999999998;" width="7" x="417.2" y="125.6459"/><rect fill="#FFFFFF" height="175.9297" style="stroke:#181818;stroke-width:0.6999999999999998;" width="7" x="417.2" y="422.7357"/><rect fill="#FFFFFF" height="199.2334" style="stroke:#181818;stroke-width:0.6999999999999998;" width="7" x="417.2" y="719.8256"/><rect fill="#FFFFFF" height="69.9111" style="stroke:#181818;stroke-width:0.6999999999999998;" width="7" x="718.2" y="147.5496"/><rect fill="#FFFFFF" height="69.9111" style="stroke:#181818;stroke-width:0.6999999999999998;" width="7" x="718.2" y="444.6395"/><rect fill="#FFFFFF" height="69.9111" style="stroke:#181818;stroke-width:0.6999999999999998;" width="7" x="718.2" y="741.7293"/><rect fill="#FFFFFF" height="24.0037" style="stroke:#181818;stroke-width:0.6999999999999998;" width="7" x="882.7" y="171.5533"/><rect fill="#FFFFFF" height="24.0037" style="stroke:#181818;stroke-width:0.6999999999999998;" width="7" x="882.7" y="466.5432"/><rect fill="#FFFFFF" height="24.0037" style="stroke:#181818;stroke-width:0.6999999999999998;" width="7" x="882.7" y="763.633"/><polygon fill="#181818" points="216.3,79.0385,223.3,81.8385,216.3,84.6385,219.1,81.8385" style="stroke:#181818;stroke-width:0.6999999999999998;"/><line style="stroke:#181818;stroke-width:0.6999999999999998;" x1="72.8" x2="220.5" y1="81.8385" y2="81.8385"/><text fill="#000000" font-family="sans-serif" font-size="9.1" font-weight="bold" lengthAdjust="spacing" textLength="4.9" x="77.7" y="78.1546">1</text><text fill="#000000" font-family="sans-serif" font-size="9.1" lengthAdjust="spacing" textLength="87.5" x="85.4" y="78.1546">wants to list buildings</text><polygon fill="#181818" points="314.3,100.9422,321.3,103.7422,314.3,106.5422,317.1,103.7422" style="stroke:#181818;stroke-width:0.6999999999999998;"/><line style="stroke:#181818;stroke-width:0.6999999999999998;" x1="231.7" x2="318.5" y1="103.7422" y2="103.7422"/><text fill="#000000" font-family="sans-serif" font-size="9.1" font-weight="bold" lengthAdjust="spacing" textLength="4.9" x="236.6" y="100.0583">2</text><text fill="#000000" font-family="sans-serif" font-size="9.1" lengthAdjust="spacing" textLength="39.2" x="244.3" y="100.0583">ngOnInit()</text><polygon fill="#181818" points="408.8,122.8459,415.8,125.6459,408.8,128.4459,411.6,125.6459" style="stroke:#181818;stroke-width:0.6999999999999998;"/><line style="stroke:#181818;stroke-width:0.6999999999999998;" x1="329.7" x2="413" y1="125.6459" y2="125.6459"/><text fill="#000000" font-family="sans-serif" font-size="9.1" font-weight="bold" lengthAdjust="spacing" textLength="4.9" x="334.6" y="121.962">3</text><text fill="#000000" font-family="sans-serif" font-size="9.1" lengthAdjust="spacing" textLength="55.3" x="342.3" y="121.962">getBuildings()</text><polygon fill="#181818" points="709.8,144.7496,716.8,147.5496,709.8,150.3496,712.6,147.5496" style="stroke:#181818;stroke-width:0.6999999999999998;"/><line style="stroke:#181818;stroke-width:0.6999999999999998;" x1="424.2" x2="714" y1="147.5496" y2="147.5496"/><text fill="#000000" font-family="sans-serif" font-size="9.1" font-weight="bold" lengthAdjust="spacing" textLength="4.9" x="429.1" y="143.8657">4</text><text fill="#000000" font-family="sans-serif" font-size="9.1" lengthAdjust="spacing" textLength="99.4" x="436.8" y="143.8657">get({baseURL}/buildings)</text><polygon fill="#181818" points="874.3,168.7533,881.3,171.5533,874.3,174.3533,877.1,171.5533" style="stroke:#181818;stroke-width:0.6999999999999998;"/><line style="stroke:#181818;stroke-width:0.6999999999999998;" x1="725.2" x2="878.5" y1="171.5533" y2="171.5533"/><text fill="#000000" font-family="sans-serif" font-size="9.1" font-weight="bold" lengthAdjust="spacing" textLength="4.9" x="730.1" y="167.8694">5</text><text fill="#000000" font-family="sans-serif" font-size="9.1" lengthAdjust="spacing" textLength="59.5" x="737.8" y="167.8694">GET /buildings</text><path d="M893.2,156.6496 L893.2,175.5496 L1012.2,175.5496 L1012.2,163.6496 L1005.2,156.6496 L893.2,156.6496 " fill="#FEFFDD" style="stroke:#181818;stroke-width:0.3499999999999999;"/><path d="M1005.2,156.6496 L1005.2,163.6496 L1012.2,163.6496 L1005.2,156.6496 " fill="#FEFFDD" style="stroke:#181818;stroke-width:0.3499999999999999;"/><text fill="#000000" font-family="sans-serif" font-size="9.1" lengthAdjust="spacing" textLength="104.3" x="897.4" y="169.9694">see us170 documentation</text><polygon fill="#181818" points="732.9,192.757,725.9,195.557,732.9,198.357,730.1,195.557" style="stroke:#181818;stroke-width:0.6999999999999998;"/><line style="stroke:#181818;stroke-width:0.6999999999999998;stroke-dasharray:2.0,2.0;" x1="728.7" x2="885.5" y1="195.557" y2="195.557"/><text fill="#000000" font-family="sans-serif" font-size="9.1" font-weight="bold" lengthAdjust="spacing" textLength="4.9" x="737.1" y="191.8731">6</text><text fill="#000000" font-family="sans-serif" font-size="9.1" lengthAdjust="spacing" textLength="14.7" x="744.8" y="191.8731">200</text><polygon fill="#181818" points="431.9,214.6607,424.9,217.4607,431.9,220.2607,429.1,217.4607" style="stroke:#181818;stroke-width:0.6999999999999998;"/><line style="stroke:#181818;stroke-width:0.6999999999999998;stroke-dasharray:2.0,2.0;" x1="427.7" x2="721" y1="217.4607" y2="217.4607"/><text fill="#000000" font-family="sans-serif" font-size="9.1" font-weight="bold" lengthAdjust="spacing" textLength="4.9" x="436.1" y="213.7769">7</text><text fill="#000000" font-family="sans-serif" font-size="9.1" lengthAdjust="spacing" textLength="42.7" x="443.8" y="213.7769">observable</text><polygon fill="#181818" points="337.4,236.5645,330.4,239.3645,337.4,242.1645,334.6,239.3645" style="stroke:#181818;stroke-width:0.6999999999999998;"/><line style="stroke:#181818;stroke-width:0.6999999999999998;stroke-dasharray:2.0,2.0;" x1="333.2" x2="420" y1="239.3645" y2="239.3645"/><text fill="#000000" font-family="sans-serif" font-size="9.1" font-weight="bold" lengthAdjust="spacing" textLength="4.9" x="341.6" y="235.6806">8</text><text fill="#000000" font-family="sans-serif" font-size="9.1" lengthAdjust="spacing" textLength="35.7" x="349.3" y="235.6806">buildings</text><path d="M7,249.8645 L49.7,249.8645 L49.7,256.3682 L42.7,263.3682 L7,263.3682 L7,249.8645 " fill="#EEEEEE" style="stroke:#000000;stroke-width:1.0499999999999998;"/><rect fill="none" height="728.402" style="stroke:#000000;stroke-width:1.0499999999999998;" width="1022.7" x="7" y="249.8645"/><text fill="#000000" font-family="sans-serif" font-size="9.1" font-weight="bold" lengthAdjust="spacing" textLength="11.2" x="17.5" y="260.3843">alt</text><text fill="#000000" font-family="sans-serif" font-size="7.7" font-weight="bold" lengthAdjust="spacing" textLength="67.9" x="60.2" y="259.5735">[buildings empty]</text><polygon fill="#181818" points="239.4,276.8719,232.4,279.6719,239.4,282.4719,236.6,279.6719" style="stroke:#181818;stroke-width:0.6999999999999998;"/><line style="stroke:#181818;stroke-width:0.6999999999999998;stroke-dasharray:2.0,2.0;" x1="235.2" x2="322" y1="279.6719" y2="279.6719"/><text fill="#000000" font-family="sans-serif" font-size="9.1" font-weight="bold" lengthAdjust="spacing" textLength="4.9" x="243.6" y="275.988">9</text><text fill="#000000" font-family="sans-serif" font-size="9.1" lengthAdjust="spacing" textLength="58.1" x="251.3" y="275.988">error message</text><polygon fill="#181818" points="80.5,298.7756,73.5,301.5756,80.5,304.3756,77.7,301.5756" style="stroke:#181818;stroke-width:0.6999999999999998;"/><line style="stroke:#181818;stroke-width:0.6999999999999998;stroke-dasharray:2.0,2.0;" x1="76.3" x2="224" y1="301.5756" y2="301.5756"/><text fill="#000000" font-family="sans-serif" font-size="9.1" font-weight="bold" lengthAdjust="spacing" textLength="9.8" x="84.7" y="297.8917">10</text><text fill="#000000" font-family="sans-serif" font-size="9.1" lengthAdjust="spacing" textLength="86.8" x="97.3" y="297.8917">shows error message</text><line style="stroke:#000000;stroke-width:0.6999999999999998;stroke-dasharray:2.0,2.0;" x1="7" x2="1029.7" y1="307.8756" y2="307.8756"/><text fill="#000000" font-family="sans-serif" font-size="7.7" font-weight="bold" lengthAdjust="spacing" textLength="71.4" x="10.5" y="316.1847">[building(s) found]</text><polygon fill="#181818" points="239.4,332.3209,232.4,335.1209,239.4,337.9209,236.6,335.1209" style="stroke:#181818;stroke-width:0.6999999999999998;"/><line style="stroke:#181818;stroke-width:0.6999999999999998;stroke-dasharray:2.0,2.0;" x1="235.2" x2="325.5" y1="335.1209" y2="335.1209"/><text fill="#000000" font-family="sans-serif" font-size="9.1" font-weight="bold" lengthAdjust="spacing" textLength="9.8" x="243.6" y="331.437">11</text><text fill="#000000" font-family="sans-serif" font-size="9.1" lengthAdjust="spacing" textLength="35.7" x="256.2" y="331.437">buildings</text><polygon fill="#181818" points="80.5,354.2246,73.5,357.0246,80.5,359.8246,77.7,357.0246" style="stroke:#181818;stroke-width:0.6999999999999998;"/><line style="stroke:#181818;stroke-width:0.6999999999999998;stroke-dasharray:2.0,2.0;" x1="76.3" x2="227.5" y1="357.0246" y2="357.0246"/><text fill="#000000" font-family="sans-serif" font-size="9.1" font-weight="bold" lengthAdjust="spacing" textLength="9.8" x="84.7" y="353.3407">12</text><text fill="#000000" font-family="sans-serif" font-size="9.1" lengthAdjust="spacing" textLength="64.4" x="97.3" y="353.3407">shows buildings</text><polygon fill="#181818" points="216.3,376.1283,223.3,378.9283,216.3,381.7283,219.1,378.9283" style="stroke:#181818;stroke-width:0.6999999999999998;"/><line style="stroke:#181818;stroke-width:0.6999999999999998;" x1="72.8" x2="220.5" y1="378.9283" y2="378.9283"/><text fill="#000000" font-family="sans-serif" font-size="9.1" font-weight="bold" lengthAdjust="spacing" textLength="9.8" x="77.7" y="375.2444">13</text><text fill="#000000" font-family="sans-serif" font-size="9.1" lengthAdjust="spacing" textLength="67.9" x="90.3" y="375.2444">chooses building</text><polygon fill="#181818" points="314.3,398.032,321.3,400.832,314.3,403.632,317.1,400.832" style="stroke:#181818;stroke-width:0.6999999999999998;"/><line style="stroke:#181818;stroke-width:0.6999999999999998;" x1="231.7" x2="318.5" y1="400.832" y2="400.832"/><text fill="#000000" font-family="sans-serif" font-size="9.1" font-weight="bold" lengthAdjust="spacing" textLength="9.8" x="236.6" y="397.1481">14</text><text fill="#000000" font-family="sans-serif" font-size="9.1" lengthAdjust="spacing" textLength="42.7" x="249.2" y="397.1481">listFloors()</text><polygon fill="#181818" points="408.8,419.9357,415.8,422.7357,408.8,425.5357,411.6,422.7357" style="stroke:#181818;stroke-width:0.6999999999999998;"/><line style="stroke:#181818;stroke-width:0.6999999999999998;" x1="329.7" x2="413" y1="422.7357" y2="422.7357"/><text fill="#000000" font-family="sans-serif" font-size="9.1" font-weight="bold" lengthAdjust="spacing" textLength="9.8" x="334.6" y="419.0519">15</text><text fill="#000000" font-family="sans-serif" font-size="9.1" lengthAdjust="spacing" textLength="42.7" x="347.2" y="419.0519">listFloors()</text><polygon fill="#181818" points="709.8,441.8395,716.8,444.6395,709.8,447.4395,712.6,444.6395" style="stroke:#181818;stroke-width:0.6999999999999998;"/><line style="stroke:#181818;stroke-width:0.6999999999999998;" x1="424.2" x2="714" y1="444.6395" y2="444.6395"/><text fill="#000000" font-family="sans-serif" font-size="9.1" font-weight="bold" lengthAdjust="spacing" textLength="9.8" x="429.1" y="440.9556">16</text><text fill="#000000" font-family="sans-serif" font-size="9.1" lengthAdjust="spacing" textLength="184.1" x="441.7" y="440.9556">get({baseURL}/buildings/{buildingCode}/floors)</text><polygon fill="#181818" points="874.3,463.7432,881.3,466.5432,874.3,469.3432,877.1,466.5432" style="stroke:#181818;stroke-width:0.6999999999999998;"/><line style="stroke:#181818;stroke-width:0.6999999999999998;" x1="725.2" x2="878.5" y1="466.5432" y2="466.5432"/><text fill="#000000" font-family="sans-serif" font-size="9.1" font-weight="bold" lengthAdjust="spacing" textLength="9.8" x="730.1" y="462.8593">17</text><text fill="#000000" font-family="sans-serif" font-size="9.1" lengthAdjust="spacing" textLength="99.4" x="742.7" y="462.8593">GET /buildings/{id}/floors</text><polygon fill="#181818" points="732.9,487.7469,725.9,490.5469,732.9,493.3469,730.1,490.5469" style="stroke:#181818;stroke-width:0.6999999999999998;"/><line style="stroke:#181818;stroke-width:0.6999999999999998;stroke-dasharray:2.0,2.0;" x1="728.7" x2="885.5" y1="490.5469" y2="490.5469"/><text fill="#000000" font-family="sans-serif" font-size="9.1" font-weight="bold" lengthAdjust="spacing" textLength="9.8" x="737.1" y="486.863">18</text><text fill="#000000" font-family="sans-serif" font-size="9.1" lengthAdjust="spacing" textLength="14.7" x="749.7" y="486.863">200</text><path d="M893.2,475.6432 L893.2,494.5432 L1012.2,494.5432 L1012.2,482.6432 L1005.2,475.6432 L893.2,475.6432 " fill="#FEFFDD" style="stroke:#181818;stroke-width:0.3499999999999999;"/><path d="M1005.2,475.6432 L1005.2,482.6432 L1012.2,482.6432 L1005.2,475.6432 " fill="#FEFFDD" style="stroke:#181818;stroke-width:0.3499999999999999;"/><text fill="#000000" font-family="sans-serif" font-size="9.1" lengthAdjust="spacing" textLength="104.3" x="897.4" y="488.963">see us210 documentation</text><polygon fill="#181818" points="431.9,511.7506,424.9,514.5506,431.9,517.3506,429.1,514.5506" style="stroke:#181818;stroke-width:0.6999999999999998;"/><line style="stroke:#181818;stroke-width:0.6999999999999998;stroke-dasharray:2.0,2.0;" x1="427.7" x2="721" y1="514.5506" y2="514.5506"/><text fill="#000000" font-family="sans-serif" font-size="9.1" font-weight="bold" lengthAdjust="spacing" textLength="9.8" x="436.1" y="510.8667">19</text><text fill="#000000" font-family="sans-serif" font-size="9.1" lengthAdjust="spacing" textLength="42.7" x="448.7" y="510.8667">observable</text><polygon fill="#181818" points="337.4,533.6543,330.4,536.4543,337.4,539.2543,334.6,536.4543" style="stroke:#181818;stroke-width:0.6999999999999998;"/><line style="stroke:#181818;stroke-width:0.6999999999999998;stroke-dasharray:2.0,2.0;" x1="333.2" x2="416.5" y1="536.4543" y2="536.4543"/><text fill="#000000" font-family="sans-serif" font-size="9.1" font-weight="bold" lengthAdjust="spacing" textLength="9.8" x="341.6" y="532.7704">20</text><text fill="#000000" font-family="sans-serif" font-size="9.1" lengthAdjust="spacing" textLength="21.7" x="354.2" y="532.7704">floors</text><path d="M14,546.9543 L56.7,546.9543 L56.7,553.458 L49.7,560.458 L14,560.458 L14,546.9543 " fill="#EEEEEE" style="stroke:#000000;stroke-width:1.0499999999999998;"/><rect fill="none" height="426.4121" style="stroke:#000000;stroke-width:1.0499999999999998;" width="1008.7" x="14" y="546.9543"/><text fill="#000000" font-family="sans-serif" font-size="9.1" font-weight="bold" lengthAdjust="spacing" textLength="11.2" x="24.5" y="557.4741">alt</text><text fill="#000000" font-family="sans-serif" font-size="7.7" font-weight="bold" lengthAdjust="spacing" textLength="64.4" x="67.2" y="556.6634">[floors is empty]</text><polygon fill="#181818" points="239.4,573.9617,232.4,576.7617,239.4,579.5617,236.6,576.7617" style="stroke:#181818;stroke-width:0.6999999999999998;"/><line style="stroke:#181818;stroke-width:0.6999999999999998;stroke-dasharray:2.0,2.0;" x1="235.2" x2="322" y1="576.7617" y2="576.7617"/><text fill="#000000" font-family="sans-serif" font-size="9.1" font-weight="bold" lengthAdjust="spacing" textLength="9.8" x="243.6" y="573.0778">21</text><text fill="#000000" font-family="sans-serif" font-size="9.1" lengthAdjust="spacing" textLength="61.6" x="256.2" y="573.0778">floors not found</text><polygon fill="#181818" points="80.5,595.8654,73.5,598.6654,80.5,601.4654,77.7,598.6654" style="stroke:#181818;stroke-width:0.6999999999999998;"/><line style="stroke:#181818;stroke-width:0.6999999999999998;stroke-dasharray:2.0,2.0;" x1="76.3" x2="224" y1="598.6654" y2="598.6654"/><text fill="#000000" font-family="sans-serif" font-size="9.1" font-weight="bold" lengthAdjust="spacing" textLength="9.8" x="84.7" y="594.9815">22</text><text fill="#000000" font-family="sans-serif" font-size="9.1" lengthAdjust="spacing" textLength="46.9" x="97.3" y="594.9815">shows error</text><line style="stroke:#000000;stroke-width:0.6999999999999998;stroke-dasharray:2.0,2.0;" x1="14" x2="1022.7" y1="604.9654" y2="604.9654"/><text fill="#000000" font-family="sans-serif" font-size="7.7" font-weight="bold" lengthAdjust="spacing" textLength="53.2" x="17.5" y="613.2745">[floors found]</text><polygon fill="#181818" points="239.4,629.4107,232.4,632.2107,239.4,635.0107,236.6,632.2107" style="stroke:#181818;stroke-width:0.6999999999999998;"/><line style="stroke:#181818;stroke-width:0.6999999999999998;stroke-dasharray:2.0,2.0;" x1="235.2" x2="325.5" y1="632.2107" y2="632.2107"/><text fill="#000000" font-family="sans-serif" font-size="9.1" font-weight="bold" lengthAdjust="spacing" textLength="9.8" x="243.6" y="628.5269">23</text><text fill="#000000" font-family="sans-serif" font-size="9.1" lengthAdjust="spacing" textLength="21.7" x="256.2" y="628.5269">floors</text><polygon fill="#181818" points="80.5,651.3145,73.5,654.1145,80.5,656.9145,77.7,654.1145" style="stroke:#181818;stroke-width:0.6999999999999998;"/><line style="stroke:#181818;stroke-width:0.6999999999999998;stroke-dasharray:2.0,2.0;" x1="76.3" x2="227.5" y1="654.1145" y2="654.1145"/><text fill="#000000" font-family="sans-serif" font-size="9.1" font-weight="bold" lengthAdjust="spacing" textLength="9.8" x="84.7" y="650.4306">24</text><text fill="#000000" font-family="sans-serif" font-size="9.1" lengthAdjust="spacing" textLength="54.6" x="97.3" y="650.4306">requests floor</text><polygon fill="#181818" points="216.3,673.2182,223.3,676.0182,216.3,678.8182,219.1,676.0182" style="stroke:#181818;stroke-width:0.6999999999999998;"/><line style="stroke:#181818;stroke-width:0.6999999999999998;" x1="72.8" x2="220.5" y1="676.0182" y2="676.0182"/><text fill="#000000" font-family="sans-serif" font-size="9.1" font-weight="bold" lengthAdjust="spacing" textLength="9.8" x="77.7" y="672.3343">25</text><text fill="#000000" font-family="sans-serif" font-size="9.1" lengthAdjust="spacing" textLength="126" x="90.3" y="672.3343">chooses floor and uploads Map</text><polygon fill="#181818" points="314.3,695.1219,321.3,697.9219,314.3,700.7219,317.1,697.9219" style="stroke:#181818;stroke-width:0.6999999999999998;"/><line style="stroke:#181818;stroke-width:0.6999999999999998;" x1="231.7" x2="318.5" y1="697.9219" y2="697.9219"/><text fill="#000000" font-family="sans-serif" font-size="9.1" font-weight="bold" lengthAdjust="spacing" textLength="9.8" x="236.6" y="694.238">26</text><text fill="#000000" font-family="sans-serif" font-size="9.1" lengthAdjust="spacing" textLength="49.7" x="249.2" y="694.238">buildingData</text><polygon fill="#181818" points="408.8,717.0256,415.8,719.8256,408.8,722.6256,411.6,719.8256" style="stroke:#181818;stroke-width:0.6999999999999998;"/><line style="stroke:#181818;stroke-width:0.6999999999999998;" x1="329.7" x2="413" y1="719.8256" y2="719.8256"/><text fill="#000000" font-family="sans-serif" font-size="9.1" font-weight="bold" lengthAdjust="spacing" textLength="9.8" x="334.6" y="716.1417">27</text><text fill="#000000" font-family="sans-serif" font-size="9.1" lengthAdjust="spacing" textLength="52.5" x="347.2" y="716.1417">editBuilding()</text><polygon fill="#181818" points="709.8,738.9293,716.8,741.7293,709.8,744.5293,712.6,741.7293" style="stroke:#181818;stroke-width:0.6999999999999998;"/><line style="stroke:#181818;stroke-width:0.6999999999999998;" x1="424.2" x2="714" y1="741.7293" y2="741.7293"/><text fill="#000000" font-family="sans-serif" font-size="9.1" font-weight="bold" lengthAdjust="spacing" textLength="9.8" x="429.1" y="738.0454">28</text><text fill="#000000" font-family="sans-serif" font-size="9.1" lengthAdjust="spacing" textLength="268.1" x="441.7" y="738.0454">patch({baseURL}/buildings/{buildingCode}/floors/{floorNumber}/map</text><polygon fill="#181818" points="874.3,760.833,881.3,763.633,874.3,766.433,877.1,763.633" style="stroke:#181818;stroke-width:0.6999999999999998;"/><line style="stroke:#181818;stroke-width:0.6999999999999998;" x1="725.2" x2="878.5" y1="763.633" y2="763.633"/><text fill="#000000" font-family="sans-serif" font-size="9.1" font-weight="bold" lengthAdjust="spacing" textLength="9.8" x="730.1" y="759.9491">29</text><text fill="#000000" font-family="sans-serif" font-size="9.1" lengthAdjust="spacing" textLength="131.6" x="742.7" y="759.9491">PATCH /buildings/{buildingCode}</text><polygon fill="#181818" points="732.9,784.8367,725.9,787.6367,732.9,790.4367,730.1,787.6367" style="stroke:#181818;stroke-width:0.6999999999999998;"/><line style="stroke:#181818;stroke-width:0.6999999999999998;stroke-dasharray:2.0,2.0;" x1="728.7" x2="885.5" y1="787.6367" y2="787.6367"/><text fill="#000000" font-family="sans-serif" font-size="9.1" font-weight="bold" lengthAdjust="spacing" textLength="9.8" x="737.1" y="783.9528">30</text><text fill="#000000" font-family="sans-serif" font-size="9.1" lengthAdjust="spacing" textLength="47.6" x="749.7" y="783.9528">status code</text><path d="M893.2,772.733 L893.2,791.633 L1012.2,791.633 L1012.2,779.733 L1005.2,772.733 L893.2,772.733 " fill="#FEFFDD" style="stroke:#181818;stroke-width:0.3499999999999999;"/><path d="M1005.2,772.733 L1005.2,779.733 L1012.2,779.733 L1005.2,772.733 " fill="#FEFFDD" style="stroke:#181818;stroke-width:0.3499999999999999;"/><text fill="#000000" font-family="sans-serif" font-size="9.1" lengthAdjust="spacing" textLength="104.3" x="897.4" y="786.0528">see us160 documentation</text><polygon fill="#181818" points="431.9,808.8404,424.9,811.6404,431.9,814.4404,429.1,811.6404" style="stroke:#181818;stroke-width:0.6999999999999998;"/><line style="stroke:#181818;stroke-width:0.6999999999999998;stroke-dasharray:2.0,2.0;" x1="427.7" x2="721" y1="811.6404" y2="811.6404"/><text fill="#000000" font-family="sans-serif" font-size="9.1" font-weight="bold" lengthAdjust="spacing" textLength="9.8" x="436.1" y="807.9565">31</text><text fill="#000000" font-family="sans-serif" font-size="9.1" lengthAdjust="spacing" textLength="42.7" x="448.7" y="807.9565">observable</text><path d="M21,822.1404 L63.7,822.1404 L63.7,828.6441 L56.7,835.6441 L21,835.6441 L21,822.1404 " fill="#EEEEEE" style="stroke:#000000;stroke-width:1.0499999999999998;"/><rect fill="none" height="146.326" style="stroke:#000000;stroke-width:1.0499999999999998;" width="428.05" x="21" y="822.1404"/><text fill="#000000" font-family="sans-serif" font-size="9.1" font-weight="bold" lengthAdjust="spacing" textLength="11.2" x="31.5" y="832.6603">alt</text><text fill="#000000" font-family="sans-serif" font-size="7.7" font-weight="bold" lengthAdjust="spacing" textLength="51.1" x="74.2" y="831.8495">[status==200]</text><polygon fill="#181818" points="337.4,849.1479,330.4,851.9479,337.4,854.7479,334.6,851.9479" style="stroke:#181818;stroke-width:0.6999999999999998;"/><line style="stroke:#181818;stroke-width:0.6999999999999998;stroke-dasharray:2.0,2.0;" x1="333.2" x2="416.5" y1="851.9479" y2="851.9479"/><text fill="#000000" font-family="sans-serif" font-size="9.1" font-weight="bold" lengthAdjust="spacing" textLength="9.8" x="341.6" y="848.264">32</text><text fill="#000000" font-family="sans-serif" font-size="9.1" lengthAdjust="spacing" textLength="17.5" x="354.2" y="848.264">map</text><polygon fill="#181818" points="239.4,871.0516,232.4,873.8516,239.4,876.6516,236.6,873.8516" style="stroke:#181818;stroke-width:0.6999999999999998;"/><line style="stroke:#181818;stroke-width:0.6999999999999998;stroke-dasharray:2.0,2.0;" x1="235.2" x2="322" y1="873.8516" y2="873.8516"/><text fill="#000000" font-family="sans-serif" font-size="9.1" font-weight="bold" lengthAdjust="spacing" textLength="9.8" x="243.6" y="870.1677">33</text><text fill="#000000" font-family="sans-serif" font-size="9.1" lengthAdjust="spacing" textLength="17.5" x="256.2" y="870.1677">map</text><polygon fill="#181818" points="80.5,892.9553,73.5,895.7553,80.5,898.5553,77.7,895.7553" style="stroke:#181818;stroke-width:0.6999999999999998;"/><line style="stroke:#181818;stroke-width:0.6999999999999998;stroke-dasharray:2.0,2.0;" x1="76.3" x2="224" y1="895.7553" y2="895.7553"/><text fill="#000000" font-family="sans-serif" font-size="9.1" font-weight="bold" lengthAdjust="spacing" textLength="9.8" x="84.7" y="892.0714">34</text><text fill="#000000" font-family="sans-serif" font-size="9.1" lengthAdjust="spacing" textLength="102.9" x="97.3" y="892.0714">shows success message</text><line style="stroke:#000000;stroke-width:0.6999999999999998;stroke-dasharray:2.0,2.0;" x1="21" x2="449.05" y1="902.0553" y2="902.0553"/><polygon fill="#181818" points="337.4,916.259,330.4,919.059,337.4,921.859,334.6,919.059" style="stroke:#181818;stroke-width:0.6999999999999998;"/><line style="stroke:#181818;stroke-width:0.6999999999999998;stroke-dasharray:2.0,2.0;" x1="333.2" x2="420" y1="919.059" y2="919.059"/><text fill="#000000" font-family="sans-serif" font-size="9.1" font-weight="bold" lengthAdjust="spacing" textLength="9.8" x="341.6" y="915.3751">35</text><text fill="#000000" font-family="sans-serif" font-size="9.1" lengthAdjust="spacing" textLength="58.1" x="354.2" y="915.3751">error message</text><polygon fill="#181818" points="239.4,938.1627,232.4,940.9627,239.4,943.7627,236.6,940.9627" style="stroke:#181818;stroke-width:0.6999999999999998;"/><line style="stroke:#181818;stroke-width:0.6999999999999998;stroke-dasharray:2.0,2.0;" x1="235.2" x2="325.5" y1="940.9627" y2="940.9627"/><text fill="#000000" font-family="sans-serif" font-size="9.1" font-weight="bold" lengthAdjust="spacing" textLength="9.8" x="243.6" y="937.2788">36</text><text fill="#000000" font-family="sans-serif" font-size="9.1" lengthAdjust="spacing" textLength="58.1" x="256.2" y="937.2788">error message</text><polygon fill="#181818" points="77,960.0664,70,962.8664,77,965.6664,74.2,962.8664" style="stroke:#181818;stroke-width:0.6999999999999998;"/><line style="stroke:#181818;stroke-width:0.6999999999999998;stroke-dasharray:2.0,2.0;" x1="72.8" x2="227.5" y1="962.8664" y2="962.8664"/><text fill="#000000" font-family="sans-serif" font-size="9.1" font-weight="bold" lengthAdjust="spacing" textLength="9.8" x="81.2" y="959.1825">37</text><text fill="#000000" font-family="sans-serif" font-size="9.1" lengthAdjust="spacing" textLength="86.8" x="93.8" y="959.1825">shows error message</text><!--SRC=[jPPHRzem4CVV-HGdda1J5Tg7JPhKIHjiwwQoLOLz09EuO2cnCzi1JOZllhCJGaBi97JCKg4YTt_VdVsx7Ccqu5coed8m8A4M4ePJagIPWZdXP4tb48Y2JE7Zb4ZDGfOIhc7ui9m_mXkOBXRu-NrXhRQCxkfMKy6r575So8HQndM31PLR5bBxL6t3nYRB9vX9jYtyDrgdPoRpcNsIH3PyjYMQscZn3su-s93WFUpGLe4M43EbOPMnE69yhGQ0gtIpuKEnh2CAc91HWAz_yc-SwT6uj2ZzR5PGMTO7VJ4XT5rJ_UcuOSMz9c5IXxDbl574v9ohZFOhekYlvyT3K6OmRhYLchPOu5XM4PMJ27M_Vbv2K2z8TN61IfAjDnfj5JMrlNqtWKY4MKAv9fe9xau9J-HS33UyEMLqDvaqB2BQvfy7NXPMh1JU7hAAQPkEimosjgVJRUPFuier0Pga-a_R9gxpos_1wGvIAP6kX2g5M3Miy_k6rkRYOgatOgSyBZHMj0nkfCRm8Z8U3ThsTXzm9O767NR6qoKpS2ZNgAfJ6Mw4KFGasqIhvkp0qk3y9HP2Uibg9DO4r2lIYMXlJ8FzyT-fYEWXUB7RZPs2tG1tG1piMNJSuefiEbh1tMrRA-W6-ZAe-u3jWDjHY2hb-MDWFifzI1L-M1K7V_t8ThfOkWjnj_1PtndqY_Irv4lwEwCAtvvMnaju1-BM6GYF84jZGI8pNgINytwyupEYoQjvfn4htyZ_JdnATBZfptomjzy_xCXr21AINgi9F7rSJX_0kxzNf0jGTuTG23mEYI5AUxtQuNUD5c-x-id_wHYc3-G9tT-xMf-ZgvY3woJFTRhETg2oCCItl7SwC4sXJrJjCyRLXvQB1mY_d6zYgFnkndfRZA8dLhx_0W00]--></g></svg>