<?xml version="1.0" encoding="us-ascii" standalone="no"?><svg xmlns="http://www.w3.org/2000/svg" xmlns:xlink="http://www.w3.org/1999/xlink" contentStyleType="text/css" height="1317px" preserveAspectRatio="none" style="width:1568px;height:1317px;background:#FFFFFF;" version="1.1" viewBox="0 0 1568 1317" width="1568px" zoomAndPan="magnify"><defs/><g><!--cluster system--><g id="cluster_system"><path d="M8.5,6 L61.5,6 A3.75,3.75 0 0 1 64,8.5 L71,28.4883 L1558.5,28.4883 A2.5,2.5 0 0 1 1561,30.9883 L1561,1307.88 A2.5,2.5 0 0 1 1558.5,1310.38 L8.5,1310.38 A2.5,2.5 0 0 1 6,1307.88 L6,8.5 A2.5,2.5 0 0 1 8.5,6 " fill="none" style="stroke:#000000;stroke-width:1.5;"/><line style="stroke:#000000;stroke-width:1.5;" x1="6" x2="71" y1="28.4883" y2="28.4883"/><text fill="#000000" font-family="sans-serif" font-size="14" font-weight="bold" lengthAdjust="spacing" textLength="52" x="10" y="21.5352">system</text></g><!--cluster Infrastructure--><g id="cluster_Infrastructure"><path d="M164.5,49 L264.5,49 A3.75,3.75 0 0 1 267,51.5 L274,71.4883 L624.5,71.4883 A2.5,2.5 0 0 1 627,73.9883 L627,212.5 A2.5,2.5 0 0 1 624.5,215 L164.5,215 A2.5,2.5 0 0 1 162,212.5 L162,51.5 A2.5,2.5 0 0 1 164.5,49 " fill="none" style="stroke:#000000;stroke-width:1.5;"/><line style="stroke:#000000;stroke-width:1.5;" x1="162" x2="274" y1="71.4883" y2="71.4883"/><text fill="#000000" font-family="sans-serif" font-size="14" font-weight="bold" lengthAdjust="spacing" textLength="99" x="166" y="64.5352">Infrastructure</text></g><!--cluster Persistence--><g id="cluster_Persistence"><path d="M352.5,92 L435.5,92 A3.75,3.75 0 0 1 438,94.5 L445,114.4883 L600.5,114.4883 A2.5,2.5 0 0 1 603,116.9883 L603,188.5 A2.5,2.5 0 0 1 600.5,191 L352.5,191 A2.5,2.5 0 0 1 350,188.5 L350,94.5 A2.5,2.5 0 0 1 352.5,92 " fill="none" style="stroke:#000000;stroke-width:1.5;"/><line style="stroke:#000000;stroke-width:1.5;" x1="350" x2="445" y1="114.4883" y2="114.4883"/><text fill="#000000" font-family="sans-serif" font-size="14" font-weight="bold" lengthAdjust="spacing" textLength="82" x="354" y="107.5352">Persistence</text></g><!--cluster Routes--><g id="cluster_Routes"><path d="M188.5,92 L239.5,92 A3.75,3.75 0 0 1 242,94.5 L249,114.4883 L323.5,114.4883 A2.5,2.5 0 0 1 326,116.9883 L326,188.5 A2.5,2.5 0 0 1 323.5,191 L188.5,191 A2.5,2.5 0 0 1 186,188.5 L186,94.5 A2.5,2.5 0 0 1 188.5,92 " fill="none" style="stroke:#000000;stroke-width:1.5;"/><line style="stroke:#000000;stroke-width:1.5;" x1="186" x2="249" y1="114.4883" y2="114.4883"/><text fill="#000000" font-family="sans-serif" font-size="14" font-weight="bold" lengthAdjust="spacing" textLength="50" x="190" y="107.5352">Routes</text></g><!--cluster Interface Adapters--><g id="cluster_Interface Adapters"><path d="M32.5,239 L165.5,239 A3.75,3.75 0 0 1 168,241.5 L175,261.4883 L658.5,261.4883 A2.5,2.5 0 0 1 661,263.9883 L661,678.5 A2.5,2.5 0 0 1 658.5,681 L32.5,681 A2.5,2.5 0 0 1 30,678.5 L30,241.5 A2.5,2.5 0 0 1 32.5,239 " fill="none" style="stroke:#000000;stroke-width:1.5;"/><line style="stroke:#000000;stroke-width:1.5;" x1="30" x2="175" y1="261.4883" y2="261.4883"/><text fill="#000000" font-family="sans-serif" font-size="14" font-weight="bold" lengthAdjust="spacing" textLength="132" x="34" y="254.5352">Interface Adapters</text></g><!--cluster Controllers--><g id="cluster_Controllers"><path d="M56.5,282 L138.5,282 A3.75,3.75 0 0 1 141,284.5 L148,304.4883 L317.5,304.4883 A2.5,2.5 0 0 1 320,306.9883 L320,654.5 A2.5,2.5 0 0 1 317.5,657 L56.5,657 A2.5,2.5 0 0 1 54,654.5 L54,284.5 A2.5,2.5 0 0 1 56.5,282 " fill="none" style="stroke:#000000;stroke-width:1.5;"/><line style="stroke:#000000;stroke-width:1.5;" x1="54" x2="148" y1="304.4883" y2="304.4883"/><text fill="#000000" font-family="sans-serif" font-size="14" font-weight="bold" lengthAdjust="spacing" textLength="81" x="58" y="297.5352">Controllers</text></g><!--cluster IControllers--><g id="cluster_IControllers"><path d="M80.5,325 L167.5,325 A3.75,3.75 0 0 1 170,327.5 L177,347.4883 L293.5,347.4883 A2.5,2.5 0 0 1 296,349.9883 L296,421.5 A2.5,2.5 0 0 1 293.5,424 L80.5,424 A2.5,2.5 0 0 1 78,421.5 L78,327.5 A2.5,2.5 0 0 1 80.5,325 " fill="none" style="stroke:#000000;stroke-width:1.5;"/><line style="stroke:#000000;stroke-width:1.5;" x1="78" x2="177" y1="347.4883" y2="347.4883"/><text fill="#000000" font-family="sans-serif" font-size="14" font-weight="bold" lengthAdjust="spacing" textLength="86" x="82" y="340.5352">IControllers</text></g><!--cluster ImplControllers--><g id="cluster_ImplControllers"><path d="M82.5,534 L197.5,534 A3.75,3.75 0 0 1 200,536.5 L207,556.4883 L293.5,556.4883 A2.5,2.5 0 0 1 296,558.9883 L296,630.5 A2.5,2.5 0 0 1 293.5,633 L82.5,633 A2.5,2.5 0 0 1 80,630.5 L80,536.5 A2.5,2.5 0 0 1 82.5,534 " fill="none" style="stroke:#000000;stroke-width:1.5;"/><line style="stroke:#000000;stroke-width:1.5;" x1="80" x2="207" y1="556.4883" y2="556.4883"/><text fill="#000000" font-family="sans-serif" font-size="14" font-weight="bold" lengthAdjust="spacing" textLength="114" x="84" y="549.5352">ImplControllers</text></g><!--cluster Repositories--><g id="cluster_Repositories"><path d="M346.5,325 L438.5,325 A3.75,3.75 0 0 1 441,327.5 L448,347.4883 L634.5,347.4883 A2.5,2.5 0 0 1 637,349.9883 L637,421.5 A2.5,2.5 0 0 1 634.5,424 L346.5,424 A2.5,2.5 0 0 1 344,421.5 L344,327.5 A2.5,2.5 0 0 1 346.5,325 " fill="none" style="stroke:#000000;stroke-width:1.5;"/><line style="stroke:#000000;stroke-width:1.5;" x1="344" x2="448" y1="347.4883" y2="347.4883"/><text fill="#000000" font-family="sans-serif" font-size="14" font-weight="bold" lengthAdjust="spacing" textLength="91" x="348" y="340.5352">Repositories</text></g><!--cluster Application Services--><g id="cluster_Application Services"><path d="M687.5,448 L833.5,448 A3.75,3.75 0 0 1 836,450.5 L843,470.4883 L1079.5,470.4883 A2.5,2.5 0 0 1 1082,472.9883 L1082,1069.88 A2.5,2.5 0 0 1 1079.5,1072.38 L687.5,1072.38 A2.5,2.5 0 0 1 685,1069.88 L685,450.5 A2.5,2.5 0 0 1 687.5,448 " fill="none" style="stroke:#000000;stroke-width:1.5;"/><line style="stroke:#000000;stroke-width:1.5;" x1="685" x2="843" y1="470.4883" y2="470.4883"/><text fill="#000000" font-family="sans-serif" font-size="14" font-weight="bold" lengthAdjust="spacing" textLength="145" x="689" y="463.5352">Application Services</text></g><!--cluster App Services--><g id="cluster_App Services"><path d="M711.5,491 L803.5,491 A3.75,3.75 0 0 1 806,493.5 L813,513.4883 L1055.5,513.4883 A2.5,2.5 0 0 1 1058,515.9883 L1058,1045.88 A2.5,2.5 0 0 1 1055.5,1048.38 L711.5,1048.38 A2.5,2.5 0 0 1 709,1045.88 L709,493.5 A2.5,2.5 0 0 1 711.5,491 " fill="none" style="stroke:#000000;stroke-width:1.5;"/><line style="stroke:#000000;stroke-width:1.5;" x1="709" x2="813" y1="513.4883" y2="513.4883"/><text fill="#000000" font-family="sans-serif" font-size="14" font-weight="bold" lengthAdjust="spacing" textLength="91" x="713" y="506.5352">App Services</text></g><!--cluster IAppServices--><g id="cluster_IAppServices"><path d="M735.5,925.38 L827.5,925.38 A3.75,3.75 0 0 1 830,927.88 L837,947.8683 L910.5,947.8683 A2.5,2.5 0 0 1 913,950.3683 L913,1021.88 A2.5,2.5 0 0 1 910.5,1024.38 L735.5,1024.38 A2.5,2.5 0 0 1 733,1021.88 L733,927.88 A2.5,2.5 0 0 1 735.5,925.38 " fill="none" style="stroke:#000000;stroke-width:1.5;"/><line style="stroke:#000000;stroke-width:1.5;" x1="733" x2="837" y1="947.8683" y2="947.8683"/><text fill="#000000" font-family="sans-serif" font-size="14" font-weight="bold" lengthAdjust="spacing" textLength="91" x="737" y="940.9152">IAppServices</text></g><!--cluster ImplAppServices--><g id="cluster_ImplAppServices"><path d="M737.5,705 L857.5,705 A3.75,3.75 0 0 1 860,707.5 L867,727.4883 L908.5,727.4883 A2.5,2.5 0 0 1 911,729.9883 L911,801.5 A2.5,2.5 0 0 1 908.5,804 L737.5,804 A2.5,2.5 0 0 1 735,801.5 L735,707.5 A2.5,2.5 0 0 1 737.5,705 " fill="none" style="stroke:#000000;stroke-width:1.5;"/><line style="stroke:#000000;stroke-width:1.5;" x1="735" x2="867" y1="727.4883" y2="727.4883"/><text fill="#000000" font-family="sans-serif" font-size="14" font-weight="bold" lengthAdjust="spacing" textLength="119" x="739" y="720.5352">ImplAppServices</text></g><!--cluster IRepositories--><g id="cluster_IRepositories"><path d="M735.5,534 L832.5,534 A3.75,3.75 0 0 1 835,536.5 L842,556.4883 L1031.5,556.4883 A2.5,2.5 0 0 1 1034,558.9883 L1034,630.5 A2.5,2.5 0 0 1 1031.5,633 L735.5,633 A2.5,2.5 0 0 1 733,630.5 L733,536.5 A2.5,2.5 0 0 1 735.5,534 " fill="none" style="stroke:#000000;stroke-width:1.5;"/><line style="stroke:#000000;stroke-width:1.5;" x1="733" x2="842" y1="556.4883" y2="556.4883"/><text fill="#000000" font-family="sans-serif" font-size="14" font-weight="bold" lengthAdjust="spacing" textLength="96" x="737" y="549.5352">IRepositories</text></g><!--cluster Entities/Core/Domain--><g id="cluster_Entities/Core/Domain"><path d="M1108.5,828 L1269.5,828 A3.75,3.75 0 0 1 1272,830.5 L1279,850.4883 L1534.5,850.4883 A2.5,2.5 0 0 1 1537,852.9883 L1537,1283.88 A2.5,2.5 0 0 1 1534.5,1286.38 L1108.5,1286.38 A2.5,2.5 0 0 1 1106,1283.88 L1106,830.5 A2.5,2.5 0 0 1 1108.5,828 " fill="none" style="stroke:#000000;stroke-width:1.5;"/><line style="stroke:#000000;stroke-width:1.5;" x1="1106" x2="1279" y1="850.4883" y2="850.4883"/><text fill="#000000" font-family="sans-serif" font-size="14" font-weight="bold" lengthAdjust="spacing" textLength="160" x="1110" y="843.5352">Entities/Core/Domain</text></g><!--cluster Aggregates--><g id="cluster_Aggregates"><path d="M1158.5,871 L1240.5,871 A3.75,3.75 0 0 1 1243,873.5 L1250,893.4883 L1447.5,893.4883 A2.5,2.5 0 0 1 1450,895.9883 L1450,1057.26 A2.5,2.5 0 0 1 1447.5,1059.76 L1158.5,1059.76 A2.5,2.5 0 0 1 1156,1057.26 L1156,873.5 A2.5,2.5 0 0 1 1158.5,871 " fill="none" style="stroke:#000000;stroke-width:1.5;"/><line style="stroke:#000000;stroke-width:1.5;" x1="1156" x2="1250" y1="893.4883" y2="893.4883"/><text fill="#000000" font-family="sans-serif" font-size="14" font-weight="bold" lengthAdjust="spacing" textLength="81" x="1160" y="886.5352">Aggregates</text></g><!--cluster a_building--><g id="cluster_a_building"><path d="M1308.5,914 L1369.5,914 A3.75,3.75 0 0 1 1372,916.5 L1379,936.4883 L1423.5,936.4883 A2.5,2.5 0 0 1 1426,938.9883 L1426,1033.26 A2.5,2.5 0 0 1 1423.5,1035.76 L1308.5,1035.76 A2.5,2.5 0 0 1 1306,1033.26 L1306,916.5 A2.5,2.5 0 0 1 1308.5,914 " fill="none" style="stroke:#000000;stroke-width:1.5;"/><line style="stroke:#000000;stroke-width:1.5;" x1="1306" x2="1379" y1="936.4883" y2="936.4883"/><text fill="#000000" font-family="sans-serif" font-size="14" font-weight="bold" lengthAdjust="spacing" textLength="60" x="1310" y="929.5352">Building</text></g><!--cluster a_floor--><g id="cluster_a_floor"><path d="M1182.5,914 L1220.5,914 A3.75,3.75 0 0 1 1223,916.5 L1230,936.4883 L1279.5,936.4883 A2.5,2.5 0 0 1 1282,938.9883 L1282,1033.26 A2.5,2.5 0 0 1 1279.5,1035.76 L1182.5,1035.76 A2.5,2.5 0 0 1 1180,1033.26 L1180,916.5 A2.5,2.5 0 0 1 1182.5,914 " fill="none" style="stroke:#000000;stroke-width:1.5;"/><line style="stroke:#000000;stroke-width:1.5;" x1="1180" x2="1230" y1="936.4883" y2="936.4883"/><text fill="#000000" font-family="sans-serif" font-size="14" font-weight="bold" lengthAdjust="spacing" textLength="37" x="1184" y="929.5352">Floor</text></g><!--cluster Value Objects--><g id="cluster_Value Objects"><path d="M1132.5,1096.38 L1233.5,1096.38 A3.75,3.75 0 0 1 1236,1098.88 L1243,1118.8683 L1510.5,1118.8683 A2.5,2.5 0 0 1 1513,1121.3683 L1513,1259.88 A2.5,2.5 0 0 1 1510.5,1262.38 L1132.5,1262.38 A2.5,2.5 0 0 1 1130,1259.88 L1130,1098.88 A2.5,2.5 0 0 1 1132.5,1096.38 " fill="none" style="stroke:#000000;stroke-width:1.5;"/><line style="stroke:#000000;stroke-width:1.5;" x1="1130" x2="1243" y1="1118.8683" y2="1118.8683"/><text fill="#000000" font-family="sans-serif" font-size="14" font-weight="bold" lengthAdjust="spacing" textLength="100" x="1134" y="1111.9152">Value Objects</text></g><!--cluster vo_floor--><g id="cluster_vo_floor"><path d="M1156.5,1139.38 L1194.5,1139.38 A3.75,3.75 0 0 1 1197,1141.88 L1204,1161.8683 L1486.5,1161.8683 A2.5,2.5 0 0 1 1489,1164.3683 L1489,1235.88 A2.5,2.5 0 0 1 1486.5,1238.38 L1156.5,1238.38 A2.5,2.5 0 0 1 1154,1235.88 L1154,1141.88 A2.5,2.5 0 0 1 1156.5,1139.38 " fill="none" style="stroke:#000000;stroke-width:1.5;"/><line style="stroke:#000000;stroke-width:1.5;" x1="1154" x2="1204" y1="1161.8683" y2="1161.8683"/><text fill="#000000" font-family="sans-serif" font-size="14" font-weight="bold" lengthAdjust="spacing" textLength="37" x="1158" y="1154.9152">Floor</text></g><!--cluster DTO--><g id="cluster_DTO"><path d="M427.5,925.38 L461.5,925.38 A3.75,3.75 0 0 1 464,927.88 L471,947.8683 L556.5,947.8683 A2.5,2.5 0 0 1 559,950.3683 L559,1021.88 A2.5,2.5 0 0 1 556.5,1024.38 L427.5,1024.38 A2.5,2.5 0 0 1 425,1021.88 L425,927.88 A2.5,2.5 0 0 1 427.5,925.38 " fill="none" style="stroke:#000000;stroke-width:1.5;"/><line style="stroke:#000000;stroke-width:1.5;" x1="425" x2="471" y1="947.8683" y2="947.8683"/><text fill="#000000" font-family="sans-serif" font-size="14" font-weight="bold" lengthAdjust="spacing" textLength="33" x="429" y="940.9152">DTO</text></g><!--class IDBDriver--><g id="elem_IDBDriver"><rect codeLine="16" fill="#F1F1F1" height="48" id="IDBDriver" rx="2.5" ry="2.5" style="stroke:#181818;stroke-width:0.5;" width="95" x="492.5" y="127"/><ellipse cx="507.5" cy="143" fill="#B4A7E5" rx="11" ry="11" style="stroke:#181818;stroke-width:1.0;"/><path d="M503.9277,139.2651 L503.9277,137.1069 L511.3071,137.1069 L511.3071,139.2651 L508.8418,139.2651 L508.8418,147.3418 L511.3071,147.3418 L511.3071,149.5 L503.9277,149.5 L503.9277,147.3418 L506.3931,147.3418 L506.3931,139.2651 Z " fill="#000000"/><text fill="#000000" font-family="sans-serif" font-size="14" font-style="italic" lengthAdjust="spacing" textLength="63" x="521.5" y="148.291">IDBDriver</text><line style="stroke:#181818;stroke-width:0.5;" x1="493.5" x2="586.5" y1="159" y2="159"/><line style="stroke:#181818;stroke-width:0.5;" x1="493.5" x2="586.5" y1="167" y2="167"/></g><!--class DBDriver--><g id="elem_DBDriver"><rect codeLine="17" fill="#F1F1F1" height="48" id="DBDriver" rx="2.5" ry="2.5" style="stroke:#181818;stroke-width:0.5;" width="91" x="366.5" y="127"/><ellipse cx="381.5" cy="143" fill="#ADD1B2" rx="11" ry="11" style="stroke:#181818;stroke-width:1.0;"/><path d="M383.9731,149.1431 Q383.3921,149.4419 382.7529,149.5913 Q382.1138,149.7407 381.4082,149.7407 Q378.9014,149.7407 377.5815,148.0889 Q376.2617,146.437 376.2617,143.3159 Q376.2617,140.1865 377.5815,138.5347 Q378.9014,136.8828 381.4082,136.8828 Q382.1138,136.8828 382.7612,137.0322 Q383.4087,137.1816 383.9731,137.4805 L383.9731,140.2031 Q383.3423,139.6221 382.7488,139.3523 Q382.1553,139.0825 381.5244,139.0825 Q380.1797,139.0825 379.4949,140.1492 Q378.8101,141.2158 378.8101,143.3159 Q378.8101,145.4077 379.4949,146.4744 Q380.1797,147.541 381.5244,147.541 Q382.1553,147.541 382.7488,147.2712 Q383.3423,147.0015 383.9731,146.4204 Z " fill="#000000"/><text fill="#000000" font-family="sans-serif" font-size="14" lengthAdjust="spacing" textLength="59" x="395.5" y="148.291">DBDriver</text><line style="stroke:#181818;stroke-width:0.5;" x1="367.5" x2="456.5" y1="159" y2="159"/><line style="stroke:#181818;stroke-width:0.5;" x1="367.5" x2="456.5" y1="167" y2="167"/></g><!--class RouteFloor--><g id="elem_RouteFloor"><rect codeLine="21" fill="#F1F1F1" height="48" id="RouteFloor" rx="2.5" ry="2.5" style="stroke:#181818;stroke-width:0.5;" width="108" x="202" y="127"/><ellipse cx="217" cy="143" fill="#ADD1B2" rx="11" ry="11" style="stroke:#181818;stroke-width:1.0;"/><path d="M219.4731,149.1431 Q218.8921,149.4419 218.2529,149.5913 Q217.6138,149.7407 216.9082,149.7407 Q214.4014,149.7407 213.0815,148.0889 Q211.7617,146.437 211.7617,143.3159 Q211.7617,140.1865 213.0815,138.5347 Q214.4014,136.8828 216.9082,136.8828 Q217.6138,136.8828 218.2612,137.0322 Q218.9087,137.1816 219.4731,137.4805 L219.4731,140.2031 Q218.8423,139.6221 218.2488,139.3523 Q217.6553,139.0825 217.0244,139.0825 Q215.6797,139.0825 214.9949,140.1492 Q214.3101,141.2158 214.3101,143.3159 Q214.3101,145.4077 214.9949,146.4744 Q215.6797,147.541 217.0244,147.541 Q217.6553,147.541 218.2488,147.2712 Q218.8423,147.0015 219.4731,146.4204 Z " fill="#000000"/><text fill="#000000" font-family="sans-serif" font-size="14" lengthAdjust="spacing" textLength="76" x="231" y="148.291">RouteFloor</text><line style="stroke:#181818;stroke-width:0.5;" x1="203" x2="309" y1="159" y2="159"/><line style="stroke:#181818;stroke-width:0.5;" x1="203" x2="309" y1="167" y2="167"/></g><!--class IControllerCreateFloor--><g id="elem_IControllerCreateFloor"><rect codeLine="30" fill="#F1F1F1" height="48" id="IControllerCreateFloor" rx="2.5" ry="2.5" style="stroke:#181818;stroke-width:0.5;" width="187" x="93.5" y="360"/><ellipse cx="108.5" cy="376" fill="#B4A7E5" rx="11" ry="11" style="stroke:#181818;stroke-width:1.0;"/><path d="M104.9277,372.2651 L104.9277,370.1069 L112.3071,370.1069 L112.3071,372.2651 L109.8418,372.2651 L109.8418,380.3418 L112.3071,380.3418 L112.3071,382.5 L104.9277,382.5 L104.9277,380.3418 L107.3931,380.3418 L107.3931,372.2651 Z " fill="#000000"/><text fill="#000000" font-family="sans-serif" font-size="14" font-style="italic" lengthAdjust="spacing" textLength="155" x="122.5" y="381.291">IControllerCreateFloor</text><line style="stroke:#181818;stroke-width:0.5;" x1="94.5" x2="279.5" y1="392" y2="392"/><line style="stroke:#181818;stroke-width:0.5;" x1="94.5" x2="279.5" y1="400" y2="400"/></g><!--class ControllerCreateFloor--><g id="elem_ControllerCreateFloor"><rect codeLine="34" fill="#F1F1F1" height="48" id="ControllerCreateFloor" rx="2.5" ry="2.5" style="stroke:#181818;stroke-width:0.5;" width="183" x="96.5" y="569"/><ellipse cx="111.5" cy="585" fill="#ADD1B2" rx="11" ry="11" style="stroke:#181818;stroke-width:1.0;"/><path d="M113.9731,591.1431 Q113.3921,591.4419 112.7529,591.5913 Q112.1138,591.7407 111.4082,591.7407 Q108.9014,591.7407 107.5815,590.0889 Q106.2617,588.437 106.2617,585.3159 Q106.2617,582.1865 107.5815,580.5347 Q108.9014,578.8828 111.4082,578.8828 Q112.1138,578.8828 112.7612,579.0322 Q113.4087,579.1816 113.9731,579.4805 L113.9731,582.2031 Q113.3423,581.6221 112.7488,581.3523 Q112.1553,581.0825 111.5244,581.0825 Q110.1797,581.0825 109.4949,582.1492 Q108.8101,583.2158 108.8101,585.3159 Q108.8101,587.4077 109.4949,588.4744 Q110.1797,589.541 111.5244,589.541 Q112.1553,589.541 112.7488,589.2712 Q113.3423,589.0015 113.9731,588.4204 Z " fill="#000000"/><text fill="#000000" font-family="sans-serif" font-size="14" lengthAdjust="spacing" textLength="151" x="125.5" y="590.291">ControllerCreateFloor</text><line style="stroke:#181818;stroke-width:0.5;" x1="97.5" x2="278.5" y1="601" y2="601"/><line style="stroke:#181818;stroke-width:0.5;" x1="97.5" x2="278.5" y1="609" y2="609"/></g><!--class RepoBuilding--><g id="elem_RepoBuilding"><rect codeLine="40" fill="#F1F1F1" height="48" id="RepoBuilding" rx="2.5" ry="2.5" style="stroke:#181818;stroke-width:0.5;" width="123" x="498.5" y="360"/><ellipse cx="513.5" cy="376" fill="#ADD1B2" rx="11" ry="11" style="stroke:#181818;stroke-width:1.0;"/><path d="M515.9731,382.1431 Q515.3921,382.4419 514.7529,382.5913 Q514.1138,382.7407 513.4082,382.7407 Q510.9014,382.7407 509.5815,381.0889 Q508.2617,379.437 508.2617,376.3159 Q508.2617,373.1865 509.5815,371.5347 Q510.9014,369.8828 513.4082,369.8828 Q514.1138,369.8828 514.7612,370.0322 Q515.4087,370.1816 515.9731,370.4805 L515.9731,373.2031 Q515.3423,372.6221 514.7488,372.3523 Q514.1553,372.0825 513.5244,372.0825 Q512.1797,372.0825 511.4949,373.1492 Q510.8101,374.2158 510.8101,376.3159 Q510.8101,378.4077 511.4949,379.4744 Q512.1797,380.541 513.5244,380.541 Q514.1553,380.541 514.7488,380.2712 Q515.3423,380.0015 515.9731,379.4204 Z " fill="#000000"/><text fill="#000000" font-family="sans-serif" font-size="14" lengthAdjust="spacing" textLength="91" x="527.5" y="381.291">RepoBuilding</text><line style="stroke:#181818;stroke-width:0.5;" x1="499.5" x2="620.5" y1="392" y2="392"/><line style="stroke:#181818;stroke-width:0.5;" x1="499.5" x2="620.5" y1="400" y2="400"/></g><!--class RepoFloor--><g id="elem_RepoFloor"><rect codeLine="41" fill="#F1F1F1" height="48" id="RepoFloor" rx="2.5" ry="2.5" style="stroke:#181818;stroke-width:0.5;" width="103" x="360.5" y="360"/><ellipse cx="375.5" cy="376" fill="#ADD1B2" rx="11" ry="11" style="stroke:#181818;stroke-width:1.0;"/><path d="M377.9731,382.1431 Q377.3921,382.4419 376.7529,382.5913 Q376.1138,382.7407 375.4082,382.7407 Q372.9014,382.7407 371.5815,381.0889 Q370.2617,379.437 370.2617,376.3159 Q370.2617,373.1865 371.5815,371.5347 Q372.9014,369.8828 375.4082,369.8828 Q376.1138,369.8828 376.7612,370.0322 Q377.4087,370.1816 377.9731,370.4805 L377.9731,373.2031 Q377.3423,372.6221 376.7488,372.3523 Q376.1553,372.0825 375.5244,372.0825 Q374.1797,372.0825 373.4949,373.1492 Q372.8101,374.2158 372.8101,376.3159 Q372.8101,378.4077 373.4949,379.4744 Q374.1797,380.541 375.5244,380.541 Q376.1553,380.541 376.7488,380.2712 Q377.3423,380.0015 377.9731,379.4204 Z " fill="#000000"/><text fill="#000000" font-family="sans-serif" font-size="14" lengthAdjust="spacing" textLength="71" x="389.5" y="381.291">RepoFloor</text><line style="stroke:#181818;stroke-width:0.5;" x1="361.5" x2="462.5" y1="392" y2="392"/><line style="stroke:#181818;stroke-width:0.5;" x1="361.5" x2="462.5" y1="400" y2="400"/></g><!--class IAppServiceFloor--><g id="elem_IAppServiceFloor"><rect codeLine="53" fill="#F1F1F1" height="48" id="IAppServiceFloor" rx="2.5" ry="2.5" style="stroke:#181818;stroke-width:0.5;" width="148" x="749" y="960.38"/><ellipse cx="764" cy="976.38" fill="#B4A7E5" rx="11" ry="11" style="stroke:#181818;stroke-width:1.0;"/><path d="M760.4277,972.6451 L760.4277,970.4869 L767.8071,970.4869 L767.8071,972.6451 L765.3418,972.6451 L765.3418,980.7218 L767.8071,980.7218 L767.8071,982.88 L760.4277,982.88 L760.4277,980.7218 L762.8931,980.7218 L762.8931,972.6451 Z " fill="#000000"/><text fill="#000000" font-family="sans-serif" font-size="14" font-style="italic" lengthAdjust="spacing" textLength="116" x="778" y="981.671">IAppServiceFloor</text><line style="stroke:#181818;stroke-width:0.5;" x1="750" x2="896" y1="992.38" y2="992.38"/><line style="stroke:#181818;stroke-width:0.5;" x1="750" x2="896" y1="1000.38" y2="1000.38"/></g><!--class AppServiceFloor--><g id="elem_AppServiceFloor"><rect codeLine="57" fill="#F1F1F1" height="48" id="AppServiceFloor" rx="2.5" ry="2.5" style="stroke:#181818;stroke-width:0.5;" width="144" x="751" y="740"/><ellipse cx="766" cy="756" fill="#ADD1B2" rx="11" ry="11" style="stroke:#181818;stroke-width:1.0;"/><path d="M768.4731,762.1431 Q767.8921,762.4419 767.2529,762.5913 Q766.6138,762.7407 765.9082,762.7407 Q763.4014,762.7407 762.0815,761.0889 Q760.7617,759.437 760.7617,756.3159 Q760.7617,753.1865 762.0815,751.5347 Q763.4014,749.8828 765.9082,749.8828 Q766.6138,749.8828 767.2612,750.0322 Q767.9087,750.1816 768.4731,750.4805 L768.4731,753.2031 Q767.8423,752.6221 767.2488,752.3523 Q766.6553,752.0825 766.0244,752.0825 Q764.6797,752.0825 763.9949,753.1492 Q763.3101,754.2158 763.3101,756.3159 Q763.3101,758.4077 763.9949,759.4744 Q764.6797,760.541 766.0244,760.541 Q766.6553,760.541 767.2488,760.2712 Q767.8423,760.0015 768.4731,759.4204 Z " fill="#000000"/><text fill="#000000" font-family="sans-serif" font-size="14" lengthAdjust="spacing" textLength="112" x="780" y="761.291">AppServiceFloor</text><line style="stroke:#181818;stroke-width:0.5;" x1="752" x2="894" y1="772" y2="772"/><line style="stroke:#181818;stroke-width:0.5;" x1="752" x2="894" y1="780" y2="780"/></g><!--class IRepoBuilding--><g id="elem_IRepoBuilding"><rect codeLine="63" fill="#F1F1F1" height="48" id="IRepoBuilding" rx="2.5" ry="2.5" style="stroke:#181818;stroke-width:0.5;" width="127" x="890.5" y="569"/><ellipse cx="905.5" cy="585" fill="#B4A7E5" rx="11" ry="11" style="stroke:#181818;stroke-width:1.0;"/><path d="M901.9277,581.2651 L901.9277,579.1069 L909.3071,579.1069 L909.3071,581.2651 L906.8418,581.2651 L906.8418,589.3418 L909.3071,589.3418 L909.3071,591.5 L901.9277,591.5 L901.9277,589.3418 L904.3931,589.3418 L904.3931,581.2651 Z " fill="#000000"/><text fill="#000000" font-family="sans-serif" font-size="14" font-style="italic" lengthAdjust="spacing" textLength="95" x="919.5" y="590.291">IRepoBuilding</text><line style="stroke:#181818;stroke-width:0.5;" x1="891.5" x2="1016.5" y1="601" y2="601"/><line style="stroke:#181818;stroke-width:0.5;" x1="891.5" x2="1016.5" y1="609" y2="609"/></g><!--class IRepoFloor--><g id="elem_IRepoFloor"><rect codeLine="64" fill="#F1F1F1" height="48" id="IRepoFloor" rx="2.5" ry="2.5" style="stroke:#181818;stroke-width:0.5;" width="107" x="748.5" y="569"/><ellipse cx="763.5" cy="585" fill="#B4A7E5" rx="11" ry="11" style="stroke:#181818;stroke-width:1.0;"/><path d="M759.9277,581.2651 L759.9277,579.1069 L767.3071,579.1069 L767.3071,581.2651 L764.8418,581.2651 L764.8418,589.3418 L767.3071,589.3418 L767.3071,591.5 L759.9277,591.5 L759.9277,589.3418 L762.3931,589.3418 L762.3931,581.2651 Z " fill="#000000"/><text fill="#000000" font-family="sans-serif" font-size="14" font-style="italic" lengthAdjust="spacing" textLength="75" x="777.5" y="590.291">IRepoFloor</text><line style="stroke:#181818;stroke-width:0.5;" x1="749.5" x2="854.5" y1="601" y2="601"/><line style="stroke:#181818;stroke-width:0.5;" x1="749.5" x2="854.5" y1="609" y2="609"/></g><!--class Building--><g id="elem_Building"><rect codeLine="80" fill="#F1F1F1" height="70.7539" id="Building" rx="2.5" ry="2.5" style="stroke:#181818;stroke-width:0.5;" width="88" x="1322" y="949"/><ellipse cx="1337" cy="976.377" fill="#ADD1B2" rx="11" ry="11" style="stroke:#181818;stroke-width:1.0;"/><path d="M1340.6143,982.877 L1332.8945,982.877 L1332.8945,970.4839 L1340.6143,970.4839 L1340.6143,972.6421 L1335.3433,972.6421 L1335.3433,975.3149 L1340.1162,975.3149 L1340.1162,977.4731 L1335.3433,977.4731 L1335.3433,980.7188 L1340.6143,980.7188 Z " fill="#000000"/><text fill="#000000" font-family="sans-serif" font-size="12" font-style="italic" lengthAdjust="spacing" textLength="35" x="1361.5" y="965.6016">&#171;root&#187;</text><text fill="#000000" font-family="sans-serif" font-size="12" font-style="italic" lengthAdjust="spacing" textLength="43" x="1357.5" y="979.7344">&#171;entity&#187;</text><text fill="#000000" font-family="sans-serif" font-size="14" lengthAdjust="spacing" textLength="56" x="1351" y="995.8008">Building</text><line style="stroke:#181818;stroke-width:0.5;" x1="1323" x2="1409" y1="1003.7539" y2="1003.7539"/><line style="stroke:#181818;stroke-width:0.5;" x1="1323" x2="1409" y1="1011.7539" y2="1011.7539"/></g><!--class Floor--><g id="elem_Floor"><rect codeLine="84" fill="#F1F1F1" height="70.7539" id="Floor" rx="2.5" ry="2.5" style="stroke:#181818;stroke-width:0.5;" width="71" x="1195.5" y="949"/><ellipse cx="1210.5" cy="976.377" fill="#ADD1B2" rx="11" ry="11" style="stroke:#181818;stroke-width:1.0;"/><path d="M1214.1143,982.877 L1206.3945,982.877 L1206.3945,970.4839 L1214.1143,970.4839 L1214.1143,972.6421 L1208.8433,972.6421 L1208.8433,975.3149 L1213.6162,975.3149 L1213.6162,977.4731 L1208.8433,977.4731 L1208.8433,980.7188 L1214.1143,980.7188 Z " fill="#000000"/><text fill="#000000" font-family="sans-serif" font-size="12" font-style="italic" lengthAdjust="spacing" textLength="35" x="1226.5" y="965.6016">&#171;root&#187;</text><text fill="#000000" font-family="sans-serif" font-size="12" font-style="italic" lengthAdjust="spacing" textLength="43" x="1222.5" y="979.7344">&#171;entity&#187;</text><text fill="#000000" font-family="sans-serif" font-size="14" lengthAdjust="spacing" textLength="36" x="1226" y="995.8008">Floor</text><line style="stroke:#181818;stroke-width:0.5;" x1="1196.5" x2="1265.5" y1="1003.7539" y2="1003.7539"/><line style="stroke:#181818;stroke-width:0.5;" x1="1196.5" x2="1265.5" y1="1011.7539" y2="1011.7539"/></g><!--class FloorDescription--><g id="elem_FloorDescription"><rect codeLine="90" fill="#F1F1F1" height="48" id="FloorDescription" rx="2.5" ry="2.5" style="stroke:#181818;stroke-width:0.5;" width="146" x="1327" y="1174.38"/><ellipse cx="1342" cy="1190.38" fill="#ADD1B2" rx="11" ry="11" style="stroke:#181818;stroke-width:1.0;"/><path d="M1344.4731,1196.5231 Q1343.8921,1196.8219 1343.2529,1196.9713 Q1342.6138,1197.1207 1341.9082,1197.1207 Q1339.4014,1197.1207 1338.0815,1195.4689 Q1336.7617,1193.817 1336.7617,1190.6959 Q1336.7617,1187.5665 1338.0815,1185.9147 Q1339.4014,1184.2628 1341.9082,1184.2628 Q1342.6138,1184.2628 1343.2612,1184.4122 Q1343.9087,1184.5616 1344.4731,1184.8605 L1344.4731,1187.5831 Q1343.8423,1187.0021 1343.2488,1186.7323 Q1342.6553,1186.4625 1342.0244,1186.4625 Q1340.6797,1186.4625 1339.9949,1187.5292 Q1339.3101,1188.5958 1339.3101,1190.6959 Q1339.3101,1192.7877 1339.9949,1193.8544 Q1340.6797,1194.921 1342.0244,1194.921 Q1342.6553,1194.921 1343.2488,1194.6512 Q1343.8423,1194.3815 1344.4731,1193.8004 Z " fill="#000000"/><text fill="#000000" font-family="sans-serif" font-size="14" lengthAdjust="spacing" textLength="114" x="1356" y="1195.671">FloorDescription</text><line style="stroke:#181818;stroke-width:0.5;" x1="1328" x2="1472" y1="1206.38" y2="1206.38"/><line style="stroke:#181818;stroke-width:0.5;" x1="1328" x2="1472" y1="1214.38" y2="1214.38"/></g><!--class FloorNumber--><g id="elem_FloorNumber"><rect codeLine="91" fill="#F1F1F1" height="48" id="FloorNumber" rx="2.5" ry="2.5" style="stroke:#181818;stroke-width:0.5;" width="123" x="1169.5" y="1174.38"/><ellipse cx="1184.5" cy="1190.38" fill="#ADD1B2" rx="11" ry="11" style="stroke:#181818;stroke-width:1.0;"/><path d="M1186.9731,1196.5231 Q1186.3921,1196.8219 1185.7529,1196.9713 Q1185.1138,1197.1207 1184.4082,1197.1207 Q1181.9014,1197.1207 1180.5815,1195.4689 Q1179.2617,1193.817 1179.2617,1190.6959 Q1179.2617,1187.5665 1180.5815,1185.9147 Q1181.9014,1184.2628 1184.4082,1184.2628 Q1185.1138,1184.2628 1185.7612,1184.4122 Q1186.4087,1184.5616 1186.9731,1184.8605 L1186.9731,1187.5831 Q1186.3423,1187.0021 1185.7488,1186.7323 Q1185.1553,1186.4625 1184.5244,1186.4625 Q1183.1797,1186.4625 1182.4949,1187.5292 Q1181.8101,1188.5958 1181.8101,1190.6959 Q1181.8101,1192.7877 1182.4949,1193.8544 Q1183.1797,1194.921 1184.5244,1194.921 Q1185.1553,1194.921 1185.7488,1194.6512 Q1186.3423,1194.3815 1186.9731,1193.8004 Z " fill="#000000"/><text fill="#000000" font-family="sans-serif" font-size="14" lengthAdjust="spacing" textLength="91" x="1198.5" y="1195.671">FloorNumber</text><line style="stroke:#181818;stroke-width:0.5;" x1="1170.5" x2="1291.5" y1="1206.38" y2="1206.38"/><line style="stroke:#181818;stroke-width:0.5;" x1="1170.5" x2="1291.5" y1="1214.38" y2="1214.38"/></g><!--class IFloorDTO--><g id="elem_IFloorDTO"><rect codeLine="102" fill="#F1F1F1" height="48" id="IFloorDTO" rx="2.5" ry="2.5" style="stroke:#181818;stroke-width:0.5;" width="102" x="441" y="960.38"/><ellipse cx="456" cy="976.38" fill="#B4A7E5" rx="11" ry="11" style="stroke:#181818;stroke-width:1.0;"/><path d="M452.4277,972.6451 L452.4277,970.4869 L459.8071,970.4869 L459.8071,972.6451 L457.3418,972.6451 L457.3418,980.7218 L459.8071,980.7218 L459.8071,982.88 L452.4277,982.88 L452.4277,980.7218 L454.8931,980.7218 L454.8931,972.6451 Z " fill="#000000"/><text fill="#000000" font-family="sans-serif" font-size="14" font-style="italic" lengthAdjust="spacing" textLength="70" x="470" y="981.671">IFloorDTO</text><line style="stroke:#181818;stroke-width:0.5;" x1="442" x2="542" y1="992.38" y2="992.38"/><line style="stroke:#181818;stroke-width:0.5;" x1="442" x2="542" y1="1000.38" y2="1000.38"/></g><!--link DBDriver to IDBDriver--><g id="link_DBDriver_IDBDriver"><path codeLine="24" d="M458,151 C469.42,151 462.85,151 474.27,151 " fill="none" id="DBDriver-to-IDBDriver" style="stroke:#FF6655;stroke-width:1.0;"/><polygon fill="none" points="492.27,151,474.27,145,474.27,157,492.27,151" style="stroke:#FF6655;stroke-width:1.0;"/></g><!--reverse link IControllerCreateFloor to ControllerCreateFloor--><g id="link_IControllerCreateFloor_ControllerCreateFloor"><path codeLine="36" d="M187.2003,426.3498 C187.4003,466.2098 187.7,528.94 187.89,568.75 " fill="none" id="IControllerCreateFloor-backto-ControllerCreateFloor" style="stroke:#FF6655;stroke-width:1.0;"/><polygon fill="none" points="187.11,408.35,181.2004,426.3799,193.2002,426.3197,187.11,408.35" style="stroke:#FF6655;stroke-width:1.0;"/></g><!--reverse link DBDriver to RepoBuilding--><g id="link_DBDriver_RepoBuilding"><path codeLine="44" d="M437.4278,179.6781 C454.6778,198.6381 473.25,219.65 481,231 C510.24,273.88 536.33,328.93 549.97,359.63 " fill="none" id="DBDriver-backto-RepoBuilding" style="stroke:#FF6655;stroke-width:1.0;stroke-dasharray:7.0,7.0;"/><polygon fill="#FF6655" points="433.39,175.24,436.488,184.5889,436.7548,178.9384,442.4054,179.2052,433.39,175.24" style="stroke:#FF6655;stroke-width:1.0;"/></g><!--reverse link DBDriver to RepoFloor--><g id="link_DBDriver_RepoFloor"><path codeLine="45" d="M412,181.42 C412,225.7 412,315.2 412,359.52 " fill="none" id="DBDriver-backto-RepoFloor" style="stroke:#FF6655;stroke-width:1.0;stroke-dasharray:7.0,7.0;"/><polygon fill="#FF6655" points="412,175.42,408,184.42,412,180.42,416,184.42,412,175.42" style="stroke:#FF6655;stroke-width:1.0;"/></g><!--link RouteFloor to IControllerCreateFloor--><g id="link_RouteFloor_IControllerCreateFloor"><path codeLine="47" d="M249,175.42 C235.78,219.7 208.9674,309.451 195.7274,353.771 " fill="none" id="RouteFloor-to-IControllerCreateFloor" style="stroke:#FF6655;stroke-width:1.0;stroke-dasharray:7.0,7.0;"/><polygon fill="#FF6655" points="194.01,359.52,200.4188,352.0415,195.4412,354.7292,192.7535,349.7516,194.01,359.52" style="stroke:#FF6655;stroke-width:1.0;"/></g><!--link AppServiceFloor to IAppServiceFloor--><g id="link_AppServiceFloor_IAppServiceFloor"><path codeLine="60" d="M823,788.37 C823,830.4 823,900.27 823,942.18 " fill="none" id="AppServiceFloor-to-IAppServiceFloor" style="stroke:#FF6655;stroke-width:1.0;"/><polygon fill="none" points="823,960.18,829,942.18,817,942.18,823,960.18" style="stroke:#FF6655;stroke-width:1.0;"/></g><!--link RepoBuilding to IRepoBuilding--><g id="link_RepoBuilding_IRepoBuilding"><path codeLine="67" d="M621.76,389.47 C701.25,396.28 833.81,411.58 873,440 C916.81,471.78 934.4023,517.2501 943.7423,551.3301 " fill="none" id="RepoBuilding-to-IRepoBuilding" style="stroke:#FF6655;stroke-width:1.0;"/><polygon fill="none" points="948.5,568.69,949.529,549.7443,937.9557,552.916,948.5,568.69" style="stroke:#FF6655;stroke-width:1.0;"/></g><!--link RepoFloor to IRepoFloor--><g id="link_RepoFloor_IRepoFloor"><path codeLine="68" d="M444.4,408.4 C455.76,416.25 468.75,424.82 481,432 C572.86,485.85 668.8574,531.6708 733.3474,561.1308 " fill="none" id="RepoFloor-to-IRepoFloor" style="stroke:#FF6655;stroke-width:1.0;"/><polygon fill="none" points="749.72,568.61,735.8405,555.6732,730.8544,566.5883,749.72,568.61" style="stroke:#FF6655;stroke-width:1.0;"/></g><!--link ControllerCreateFloor to IAppServiceFloor--><g id="link_ControllerCreateFloor_IAppServiceFloor"><path codeLine="71" d="M226.78,617.5 C294.34,658.47 438.01,745.71 559,820 C639.84,869.64 729.2139,925.0831 780.3539,956.8631 " fill="none" id="ControllerCreateFloor-to-IAppServiceFloor" style="stroke:#FF6655;stroke-width:1.0;stroke-dasharray:7.0,7.0;"/><polygon fill="#FF6655" points="785.45,960.03,779.9171,951.8822,781.2032,957.3909,775.6945,958.6771,785.45,960.03" style="stroke:#FF6655;stroke-width:1.0;"/></g><!--reverse link IRepoBuilding to AppServiceFloor--><g id="link_IRepoBuilding_AppServiceFloor"><path codeLine="73" d="M932.1141,622.2421 C907.0841,654.5321 866.01,707.52 841.06,739.7 " fill="none" id="IRepoBuilding-backto-AppServiceFloor" style="stroke:#FF6655;stroke-width:1.0;stroke-dasharray:7.0,7.0;"/><polygon fill="#FF6655" points="935.79,617.5,927.1147,622.1626,932.7267,621.4518,933.4375,627.0638,935.79,617.5" style="stroke:#FF6655;stroke-width:1.0;"/></g><!--reverse link IRepoFloor to AppServiceFloor--><g id="link_IRepoFloor_AppServiceFloor"><path codeLine="74" d="M805.6594,623.4543 C809.6694,655.7443 816.11,707.52 820.1,739.7 " fill="none" id="IRepoFloor-backto-AppServiceFloor" style="stroke:#FF6655;stroke-width:1.0;stroke-dasharray:7.0,7.0;"/><polygon fill="#FF6655" points="804.92,617.5,802.0597,626.9244,805.5362,622.4619,809.9987,625.9384,804.92,617.5" style="stroke:#FF6655;stroke-width:1.0;"/></g><!--link Floor to Building--><g id="link_Floor_Building"><path codeLine="95" d="M1266.86,984.38 C1285.19,984.38 1297.52,984.38 1315.85,984.38 " fill="none" id="Floor-to-Building" style="stroke:#FF6655;stroke-width:1.0;"/><polygon fill="#FF6655" points="1321.85,984.38,1312.85,980.38,1316.85,984.38,1312.85,988.38,1321.85,984.38" style="stroke:#FF6655;stroke-width:1.0;"/><text fill="#000000" font-family="Impact" font-size="13" lengthAdjust="spacing" textLength="4" x="1274.6686" y="981.0363">*</text><text fill="#000000" font-family="Impact" font-size="13" lengthAdjust="spacing" textLength="5" x="1309.1236" y="981.3235">1</text></g><!--link Floor to FloorDescription--><g id="link_Floor_FloorDescription"><path codeLine="96" d="M1258.36,1020.18 C1272.54,1038.18 1290.16,1060.49 1306,1080.38 C1331.97,1112.99 1358.4342,1145.8689 1377.4442,1169.4489 " fill="none" id="Floor-to-FloorDescription" style="stroke:#FF6655;stroke-width:1.0;"/><polygon fill="#FF6655" points="1381.21,1174.12,1378.6754,1164.6029,1378.0719,1170.2274,1372.4473,1169.6239,1381.21,1174.12" style="stroke:#FF6655;stroke-width:1.0;"/><text fill="#000000" font-family="Impact" font-size="13" lengthAdjust="spacing" textLength="5" x="1257.6328" y="1040.8106">1</text><text fill="#000000" font-family="Impact" font-size="13" lengthAdjust="spacing" textLength="5" x="1370.4883" y="1163.8138">1</text></g><!--link Floor to FloorNumber--><g id="link_Floor_FloorNumber"><path codeLine="97" d="M1231,1019.91 C1231,1063.33 1231,1130.67 1231,1168.02 " fill="none" id="Floor-to-FloorNumber" style="stroke:#FF6655;stroke-width:1.0;"/><polygon fill="#FF6655" points="1231,1174.02,1235,1165.02,1231,1169.02,1227,1165.02,1231,1174.02" style="stroke:#FF6655;stroke-width:1.0;"/><text fill="#000000" font-family="Impact" font-size="13" lengthAdjust="spacing" textLength="5" x="1225.5547" y="1040.7658">1</text><text fill="#000000" font-family="Impact" font-size="13" lengthAdjust="spacing" textLength="5" x="1225.3281" y="1163.687">1</text></g><!--link AppServiceFloor to Floor--><g id="link_AppServiceFloor_Floor"><path codeLine="99" d="M866.66,788.37 C947.76,831.78 1114.9,921.2388 1189.77,961.3088 " fill="none" id="AppServiceFloor-to-Floor" style="stroke:#FF6655;stroke-width:1.0;stroke-dasharray:7.0,7.0;"/><polygon fill="#FF6655" points="1195.06,964.14,1189.0124,956.3665,1190.6516,961.7807,1185.2375,963.4199,1195.06,964.14" style="stroke:#FF6655;stroke-width:1.0;"/></g><!--link AppServiceFloor to IFloorDTO--><g id="link_AppServiceFloor_IFloorDTO"><path codeLine="105" d="M783.77,788.43 C767.9,798.05 749.47,809.39 733,820 C657.78,868.45 576.2938,924.5713 530.1238,956.7213 " fill="none" id="AppServiceFloor-to-IFloorDTO" style="stroke:#FF6655;stroke-width:1.0;"/><polygon fill="#FF6655" points="525.2,960.15,534.8715,958.2896,529.3032,957.2928,530.3,951.7244,525.2,960.15" style="stroke:#FF6655;stroke-width:1.0;"/></g><!--link ControllerCreateFloor to IFloorDTO--><g id="link_ControllerCreateFloor_IFloorDTO"><path codeLine="106" d="M206.33,617.48 C260.63,687.03 416.5077,886.6806 470.3377,955.6306 " fill="none" id="ControllerCreateFloor-to-IFloorDTO" style="stroke:#FF6655;stroke-width:1.0;"/><polygon fill="#FF6655" points="474.03,960.36,471.6445,950.8044,470.9531,956.4188,465.3387,955.7274,474.03,960.36" style="stroke:#FF6655;stroke-width:1.0;"/></g><!--SRC=[bLNHRfim57tFLrZihL9IzQ5vGaX9MAHAKrCjrLudXznGBs1RroPJjlNVvs08O31fUGgvn_USUtomrP5nIP7c916v51ou9dydn3nhmVMM_G7oC2_VbpGvfYWAlb-9J60OBYHDtY2Ao3UMlkcLG9fPeC0ze0lwibxFvu-FrzRFD0Uo4WKoG7SPsMM6R8YLn01oUpmlimBA-W9H_BxsUyeDdMuATarD_JwPcFAHfa3KMMd8gqdhFuCdVa2gD1Q9BX22gjo1l00gPjRof5E_F8nhm0DDZ8nu6ICxLOFLJv9HfKYlP5JrMBwBGeDo2Mo3ihREX1XiKRSdKxpiolHVvAYfiAsPQzMBFPNcjngSUsKiHf5bJhtRQWJa6DGWLmZKdSUPgKkIo-m6Z_Nf8nJjjq4ycHQoz72ys-0UWXIAQM42xjj9WrWMBDipddhANfhsMZ8hv2pg9-lQm0KqY6kMo6msEgKRcuMK6KkePeAJBU299J0S70CS17GtrQ1y82Sv3V9pcRd1O2t_H7C7IgPbJDm67ZrZsN3czOPa07TJT2SrLh6tVvEU1kYDu_37KsRAQudhe0tfiA0Hh3-ZNxbcsZXyR-uck8z5JXaVpcYQ8gHKZoIqLXGGgWZzkQjDxEyTN5ZFv6fp6A8Gsjo0OMXBKVIXq9PpLNI7ScWlb_NaDj7OSVM3cYkLR7Q_8D5-6nfH9-5LPR-b4Xg3If39op4n1dikyXtWRRLsqE0kgA-tY0GF0Ud5fSAPqhI2UDLue9KYVm1D_Dh9wxWKlsxQ3hQ-KYlZTJDfBUkV954BE78rTN3la_y0]--></g></svg>