<?xml version="1.0" encoding="us-ascii" standalone="no"?><svg xmlns="http://www.w3.org/2000/svg" xmlns:xlink="http://www.w3.org/1999/xlink" contentStyleType="text/css" height="813px" preserveAspectRatio="none" style="width:952px;height:813px;background:#FFFFFF;" version="1.1" viewBox="0 0 952 813" width="952px" zoomAndPan="magnify"><defs/><g><rect fill="#FFFFFF" height="792.7617" style="stroke:#181818;stroke-width:1.5;" width="941" x="5" y="15"/><path d="M37,15 L37,24.4883 L27,34.4883 L5,34.4883 " fill="none" style="stroke:#181818;stroke-width:1.5;"/><text fill="#000000" font-family="sans-serif" font-size="14" lengthAdjust="spacing" textLength="22" x="8" y="29.5352">MD</text><rect fill="#ADD8E6" height="740.543" style="stroke:#181818;stroke-width:0.5;" width="628" x="206" y="43.7305"/><text fill="#000000" font-family="sans-serif" font-size="13" font-weight="bold" lengthAdjust="spacing" textLength="65" x="487.5" y="56.2988">Back-End</text><rect fill="#DDDDDD" height="740.543" style="stroke:#181818;stroke-width:0.5;" width="87" x="836" y="43.7305"/><text fill="#000000" font-family="sans-serif" font-size="13" font-weight="bold" lengthAdjust="spacing" textLength="63" x="848" y="56.2988">Database</text><rect fill="#FFFFFF" height="551.9453" style="stroke:#181818;stroke-width:1.0;" width="10" x="232" y="156.8398"/><rect fill="#FFFFFF" height="522.6348" style="stroke:#181818;stroke-width:1.0;" width="10" x="352" y="186.1504"/><rect fill="#FFFFFF" height="493.3242" style="stroke:#181818;stroke-width:1.0;" width="10" x="472" y="215.4609"/><rect fill="#FFFFFF" height="47.9766" style="stroke:#181818;stroke-width:1.0;" width="10" x="585.5" y="441.2793"/><rect fill="#FFFFFF" height="87.2871" style="stroke:#181818;stroke-width:1.0;" width="10" x="654" y="518.5664"/><rect fill="#FFFFFF" height="47.9766" style="stroke:#181818;stroke-width:1.0;" width="10" x="803" y="557.877"/><rect fill="#FFFFFF" height="30" style="stroke:#181818;stroke-width:1.0;" width="10" x="874.5" y="244.7715"/><rect fill="#FFFFFF" height="29.3105" style="stroke:#181818;stroke-width:1.0;" width="10" x="874.5" y="489.2559"/><rect fill="none" height="412.0137" style="stroke:#000000;stroke-width:1.5;" width="909" x="20" y="289.7715"/><line style="stroke:#181818;stroke-width:0.5;stroke-dasharray:5.0,5.0;" x1="43" x2="43" y1="125.5293" y2="718.7852"/><line style="stroke:#181818;stroke-width:0.5;stroke-dasharray:5.0,5.0;" x1="237" x2="237" y1="125.5293" y2="718.7852"/><line style="stroke:#181818;stroke-width:0.5;stroke-dasharray:5.0,5.0;" x1="357" x2="357" y1="125.5293" y2="718.7852"/><line style="stroke:#181818;stroke-width:0.5;stroke-dasharray:5.0,5.0;" x1="477" x2="477" y1="125.5293" y2="718.7852"/><line style="stroke:#181818;stroke-width:0.5;stroke-dasharray:5.0,5.0;" x1="590" x2="590" y1="448.957" y2="718.7852"/><line style="stroke:#181818;stroke-width:0.5;stroke-dasharray:5.0,5.0;" x1="659" x2="659" y1="125.5293" y2="718.7852"/><line style="stroke:#181818;stroke-width:0.5;stroke-dasharray:5.0,5.0;" x1="808" x2="808" y1="565.5547" y2="718.7852"/><line style="stroke:#181818;stroke-width:0.5;stroke-dasharray:5.0,5.0;" x1="879" x2="879" y1="125.5293" y2="718.7852"/><rect fill="#E2E2F0" height="30.4883" rx="2.5" ry="2.5" style="stroke:#181818;stroke-width:0.5;" width="26" x="30" y="94.041"/><text fill="#000000" font-family="sans-serif" font-size="14" lengthAdjust="spacing" textLength="12" x="37" y="114.5762">??</text><rect fill="#E2E2F0" height="30.4883" rx="2.5" ry="2.5" style="stroke:#181818;stroke-width:0.5;" width="26" x="30" y="717.7852"/><text fill="#000000" font-family="sans-serif" font-size="14" lengthAdjust="spacing" textLength="12" x="37" y="738.3203">??</text><rect fill="#E2E2F0" height="30.4883" rx="2.5" ry="2.5" style="stroke:#181818;stroke-width:0.5;" width="54" x="210" y="94.041"/><text fill="#000000" font-family="sans-serif" font-size="14" lengthAdjust="spacing" textLength="40" x="217" y="114.5762">Route</text><rect fill="#E2E2F0" height="30.4883" rx="2.5" ry="2.5" style="stroke:#181818;stroke-width:0.5;" width="54" x="210" y="717.7852"/><text fill="#000000" font-family="sans-serif" font-size="14" lengthAdjust="spacing" textLength="40" x="217" y="738.3203">Route</text><rect fill="#E2E2F0" height="30.4883" rx="2.5" ry="2.5" style="stroke:#181818;stroke-width:0.5;" width="84" x="315" y="94.041"/><text fill="#000000" font-family="sans-serif" font-size="14" lengthAdjust="spacing" textLength="70" x="322" y="114.5762">Controller</text><rect fill="#E2E2F0" height="30.4883" rx="2.5" ry="2.5" style="stroke:#181818;stroke-width:0.5;" width="84" x="315" y="717.7852"/><text fill="#000000" font-family="sans-serif" font-size="14" lengthAdjust="spacing" textLength="70" x="322" y="738.3203">Controller</text><rect fill="#E2E2F0" height="30.4883" rx="2.5" ry="2.5" style="stroke:#181818;stroke-width:0.5;" width="62" x="446" y="94.041"/><text fill="#000000" font-family="sans-serif" font-size="14" lengthAdjust="spacing" textLength="48" x="453" y="114.5762">Service</text><rect fill="#E2E2F0" height="30.4883" rx="2.5" ry="2.5" style="stroke:#181818;stroke-width:0.5;" width="62" x="446" y="717.7852"/><text fill="#000000" font-family="sans-serif" font-size="14" lengthAdjust="spacing" textLength="48" x="453" y="738.3203">Service</text><rect fill="#E2E2F0" height="46.9766" rx="2.5" ry="2.5" style="stroke:#181818;stroke-width:0.5;" width="51" x="565" y="717.7852"/><text fill="#000000" font-family="sans-serif" font-size="14" lengthAdjust="spacing" textLength="37" x="572" y="738.3203">floor:</text><text fill="#000000" font-family="sans-serif" font-size="14" lengthAdjust="spacing" textLength="36" x="572.5" y="754.8086">Floor</text><rect fill="#E2E2F0" height="30.4883" rx="2.5" ry="2.5" style="stroke:#181818;stroke-width:0.5;" width="66" x="626" y="94.041"/><text fill="#000000" font-family="sans-serif" font-size="14" lengthAdjust="spacing" textLength="52" x="633" y="114.5762">Mapper</text><rect fill="#E2E2F0" height="30.4883" rx="2.5" ry="2.5" style="stroke:#181818;stroke-width:0.5;" width="66" x="626" y="717.7852"/><text fill="#000000" font-family="sans-serif" font-size="14" lengthAdjust="spacing" textLength="52" x="633" y="738.3203">Mapper</text><rect fill="#E2E2F0" height="46.9766" rx="2.5" ry="2.5" style="stroke:#181818;stroke-width:0.5;" width="44" x="786" y="717.7852"/><text fill="#000000" font-family="sans-serif" font-size="14" lengthAdjust="spacing" textLength="27" x="794.5" y="738.3203">dto:</text><text fill="#000000" font-family="sans-serif" font-size="14" lengthAdjust="spacing" textLength="30" x="793" y="754.8086">DTO</text><text fill="#000000" font-family="sans-serif" font-size="14" lengthAdjust="spacing" textLength="73" x="840" y="122.5762">Repository</text><path d="M861.5,73.041 C861.5,63.041 879.5,63.041 879.5,63.041 C879.5,63.041 897.5,63.041 897.5,73.041 L897.5,99.041 C897.5,109.041 879.5,109.041 879.5,109.041 C879.5,109.041 861.5,109.041 861.5,99.041 L861.5,73.041 " fill="#E2E2F0" style="stroke:#181818;stroke-width:1.5;"/><path d="M861.5,73.041 C861.5,83.041 879.5,83.041 879.5,83.041 C879.5,83.041 897.5,83.041 897.5,73.041 " fill="none" style="stroke:#181818;stroke-width:1.5;"/><text fill="#000000" font-family="sans-serif" font-size="14" lengthAdjust="spacing" textLength="73" x="840" y="731.3203">Repository</text><path d="M861.5,744.2734 C861.5,734.2734 879.5,734.2734 879.5,734.2734 C879.5,734.2734 897.5,734.2734 897.5,744.2734 L897.5,770.2734 C897.5,780.2734 879.5,780.2734 879.5,780.2734 C879.5,780.2734 861.5,780.2734 861.5,770.2734 L861.5,744.2734 " fill="#E2E2F0" style="stroke:#181818;stroke-width:1.5;"/><path d="M861.5,744.2734 C861.5,754.2734 879.5,754.2734 879.5,754.2734 C879.5,754.2734 897.5,754.2734 897.5,744.2734 " fill="none" style="stroke:#181818;stroke-width:1.5;"/><rect fill="#FFFFFF" height="551.9453" style="stroke:#181818;stroke-width:1.0;" width="10" x="232" y="156.8398"/><rect fill="#FFFFFF" height="522.6348" style="stroke:#181818;stroke-width:1.0;" width="10" x="352" y="186.1504"/><rect fill="#FFFFFF" height="493.3242" style="stroke:#181818;stroke-width:1.0;" width="10" x="472" y="215.4609"/><rect fill="#FFFFFF" height="47.9766" style="stroke:#181818;stroke-width:1.0;" width="10" x="585.5" y="441.2793"/><rect fill="#FFFFFF" height="87.2871" style="stroke:#181818;stroke-width:1.0;" width="10" x="654" y="518.5664"/><rect fill="#FFFFFF" height="47.9766" style="stroke:#181818;stroke-width:1.0;" width="10" x="803" y="557.877"/><rect fill="#FFFFFF" height="30" style="stroke:#181818;stroke-width:1.0;" width="10" x="874.5" y="244.7715"/><rect fill="#FFFFFF" height="29.3105" style="stroke:#181818;stroke-width:1.0;" width="10" x="874.5" y="489.2559"/><polygon fill="#181818" points="220,152.8398,230,156.8398,220,160.8398,224,156.8398" style="stroke:#181818;stroke-width:1.0;"/><line style="stroke:#181818;stroke-width:1.0;stroke-dasharray:2.0,2.0;" x1="43" x2="226" y1="156.8398" y2="156.8398"/><text fill="#000000" font-family="sans-serif" font-size="13" font-weight="bold" lengthAdjust="spacing" textLength="9" x="50" y="152.0977">1</text><text fill="#000000" font-family="sans-serif" font-size="13" lengthAdjust="spacing" textLength="73" x="63" y="152.0977">post(/floor)</text><polygon fill="#181818" points="340,182.1504,350,186.1504,340,190.1504,344,186.1504" style="stroke:#181818;stroke-width:1.0;"/><line style="stroke:#181818;stroke-width:1.0;" x1="242" x2="346" y1="186.1504" y2="186.1504"/><text fill="#000000" font-family="sans-serif" font-size="13" font-weight="bold" lengthAdjust="spacing" textLength="9" x="249" y="181.4082">2</text><text fill="#000000" font-family="sans-serif" font-size="13" lengthAdjust="spacing" textLength="78" x="262" y="181.4082">createFloor()</text><polygon fill="#181818" points="460,211.4609,470,215.4609,460,219.4609,464,215.4609" style="stroke:#181818;stroke-width:1.0;"/><line style="stroke:#181818;stroke-width:1.0;" x1="362" x2="466" y1="215.4609" y2="215.4609"/><text fill="#000000" font-family="sans-serif" font-size="13" font-weight="bold" lengthAdjust="spacing" textLength="9" x="369" y="210.7188">3</text><text fill="#000000" font-family="sans-serif" font-size="13" lengthAdjust="spacing" textLength="78" x="382" y="210.7188">createFloor()</text><polygon fill="#181818" points="862.5,240.7715,872.5,244.7715,862.5,248.7715,866.5,244.7715" style="stroke:#181818;stroke-width:1.0;"/><line style="stroke:#181818;stroke-width:1.0;" x1="482" x2="868.5" y1="244.7715" y2="244.7715"/><text fill="#000000" font-family="sans-serif" font-size="13" font-weight="bold" lengthAdjust="spacing" textLength="9" x="489" y="240.0293">4</text><text fill="#000000" font-family="sans-serif" font-size="13" lengthAdjust="spacing" textLength="110" x="502" y="240.0293">exists(buildingId)</text><path d="M20,289.7715 L82,289.7715 L82,297.082 L72,307.082 L20,307.082 L20,289.7715 " fill="#EEEEEE" style="stroke:#000000;stroke-width:1.5;"/><rect fill="none" height="412.0137" style="stroke:#000000;stroke-width:1.5;" width="909" x="20" y="289.7715"/><text fill="#000000" font-family="sans-serif" font-size="13" font-weight="bold" lengthAdjust="spacing" textLength="17" x="35" y="303.3398">alt</text><text fill="#000000" font-family="sans-serif" font-size="11" font-weight="bold" lengthAdjust="spacing" textLength="114" x="97" y="302.4063">[building not found]</text><polygon fill="#181818" points="373,324.3926,363,328.3926,373,332.3926,369,328.3926" style="stroke:#181818;stroke-width:1.0;"/><line style="stroke:#181818;stroke-width:1.0;stroke-dasharray:2.0,2.0;" x1="367" x2="471" y1="328.3926" y2="328.3926"/><text fill="#000000" font-family="sans-serif" font-size="13" font-weight="bold" lengthAdjust="spacing" textLength="9" x="379" y="323.6504">5</text><text fill="#000000" font-family="sans-serif" font-size="13" lengthAdjust="spacing" textLength="30" x="392" y="323.6504">error</text><polygon fill="#181818" points="253,353.7031,243,357.7031,253,361.7031,249,357.7031" style="stroke:#181818;stroke-width:1.0;"/><line style="stroke:#181818;stroke-width:1.0;stroke-dasharray:2.0,2.0;" x1="247" x2="351" y1="357.7031" y2="357.7031"/><text fill="#000000" font-family="sans-serif" font-size="13" font-weight="bold" lengthAdjust="spacing" textLength="9" x="259" y="352.9609">6</text><text fill="#000000" font-family="sans-serif" font-size="13" lengthAdjust="spacing" textLength="66" x="272" y="352.9609">error (412)</text><polygon fill="#181818" points="54,383.0137,44,387.0137,54,391.0137,50,387.0137" style="stroke:#181818;stroke-width:1.0;"/><line style="stroke:#181818;stroke-width:1.0;stroke-dasharray:2.0,2.0;" x1="48" x2="231" y1="387.0137" y2="387.0137"/><text fill="#000000" font-family="sans-serif" font-size="13" font-weight="bold" lengthAdjust="spacing" textLength="9" x="60" y="382.2715">7</text><text fill="#000000" font-family="sans-serif" font-size="13" lengthAdjust="spacing" textLength="152" x="73" y="382.2715">412: Precondition Failed</text><line style="stroke:#000000;stroke-width:1.0;stroke-dasharray:2.0,2.0;" x1="20" x2="929" y1="396.0137" y2="396.0137"/><text fill="#000000" font-family="sans-serif" font-size="11" font-weight="bold" lengthAdjust="spacing" textLength="153" x="25" y="406.6484">[floor created successfully]</text><polygon fill="#181818" points="553,427.2793,563,431.2793,553,435.2793,557,431.2793" style="stroke:#181818;stroke-width:1.0;"/><line style="stroke:#181818;stroke-width:1.0;stroke-dasharray:2.0,2.0;" x1="482" x2="559" y1="431.2793" y2="431.2793"/><text fill="#000000" font-family="sans-serif" font-size="13" font-weight="bold" lengthAdjust="spacing" textLength="9" x="489" y="426.5371">8</text><text fill="#000000" font-family="sans-serif" font-size="13" lengthAdjust="spacing" textLength="46" x="502" y="426.5371">create()</text><rect fill="#E2E2F0" height="46.9766" rx="2.5" ry="2.5" style="stroke:#181818;stroke-width:0.5;" width="51" x="565" y="409.9688"/><text fill="#000000" font-family="sans-serif" font-size="14" lengthAdjust="spacing" textLength="37" x="572" y="430.5039">floor:</text><text fill="#000000" font-family="sans-serif" font-size="14" lengthAdjust="spacing" textLength="36" x="572.5" y="446.9922">Floor</text><polygon fill="#181818" points="862.5,485.2559,872.5,489.2559,862.5,493.2559,866.5,489.2559" style="stroke:#181818;stroke-width:1.0;"/><line style="stroke:#181818;stroke-width:1.0;" x1="482" x2="868.5" y1="489.2559" y2="489.2559"/><text fill="#000000" font-family="sans-serif" font-size="13" font-weight="bold" lengthAdjust="spacing" textLength="9" x="489" y="484.5137">9</text><text fill="#000000" font-family="sans-serif" font-size="13" lengthAdjust="spacing" textLength="66" x="502" y="484.5137">save(floor)</text><polygon fill="#181818" points="642,514.5664,652,518.5664,642,522.5664,646,518.5664" style="stroke:#181818;stroke-width:1.0;"/><line style="stroke:#181818;stroke-width:1.0;" x1="482" x2="648" y1="518.5664" y2="518.5664"/><text fill="#000000" font-family="sans-serif" font-size="13" font-weight="bold" lengthAdjust="spacing" textLength="18" x="489" y="513.8242">10</text><text fill="#000000" font-family="sans-serif" font-size="13" lengthAdjust="spacing" textLength="79" x="511" y="513.8242">toDTO(floor)</text><polygon fill="#181818" points="774,543.877,784,547.877,774,551.877,778,547.877" style="stroke:#181818;stroke-width:1.0;"/><line style="stroke:#181818;stroke-width:1.0;stroke-dasharray:2.0,2.0;" x1="664" x2="780" y1="547.877" y2="547.877"/><text fill="#000000" font-family="sans-serif" font-size="13" font-weight="bold" lengthAdjust="spacing" textLength="18" x="671" y="543.1348">11</text><text fill="#000000" font-family="sans-serif" font-size="13" lengthAdjust="spacing" textLength="76" x="693" y="543.1348">create(floor)</text><rect fill="#E2E2F0" height="46.9766" rx="2.5" ry="2.5" style="stroke:#181818;stroke-width:0.5;" width="44" x="786" y="526.5664"/><text fill="#000000" font-family="sans-serif" font-size="14" lengthAdjust="spacing" textLength="27" x="794.5" y="547.1016">dto:</text><text fill="#000000" font-family="sans-serif" font-size="14" lengthAdjust="spacing" textLength="30" x="793" y="563.5898">DTO</text><polygon fill="#181818" points="493,601.8535,483,605.8535,493,609.8535,489,605.8535" style="stroke:#181818;stroke-width:1.0;"/><line style="stroke:#181818;stroke-width:1.0;stroke-dasharray:2.0,2.0;" x1="487" x2="658" y1="605.8535" y2="605.8535"/><text fill="#000000" font-family="sans-serif" font-size="13" font-weight="bold" lengthAdjust="spacing" textLength="18" x="499" y="601.1113">12</text><text fill="#000000" font-family="sans-serif" font-size="13" lengthAdjust="spacing" textLength="21" x="521" y="601.1113">dto</text><polygon fill="#181818" points="373,631.1641,363,635.1641,373,639.1641,369,635.1641" style="stroke:#181818;stroke-width:1.0;"/><line style="stroke:#181818;stroke-width:1.0;stroke-dasharray:2.0,2.0;" x1="367" x2="471" y1="635.1641" y2="635.1641"/><text fill="#000000" font-family="sans-serif" font-size="13" font-weight="bold" lengthAdjust="spacing" textLength="18" x="379" y="630.4219">13</text><text fill="#000000" font-family="sans-serif" font-size="13" lengthAdjust="spacing" textLength="21" x="401" y="630.4219">dto</text><polygon fill="#181818" points="253,660.4746,243,664.4746,253,668.4746,249,664.4746" style="stroke:#181818;stroke-width:1.0;"/><line style="stroke:#181818;stroke-width:1.0;stroke-dasharray:2.0,2.0;" x1="247" x2="351" y1="664.4746" y2="664.4746"/><text fill="#000000" font-family="sans-serif" font-size="13" font-weight="bold" lengthAdjust="spacing" textLength="18" x="259" y="659.7324">14</text><text fill="#000000" font-family="sans-serif" font-size="13" lengthAdjust="spacing" textLength="57" x="281" y="659.7324">dto (201)</text><polygon fill="#181818" points="54,689.7852,44,693.7852,54,697.7852,50,693.7852" style="stroke:#181818;stroke-width:1.0;"/><line style="stroke:#181818;stroke-width:1.0;stroke-dasharray:2.0,2.0;" x1="48" x2="231" y1="693.7852" y2="693.7852"/><text fill="#000000" font-family="sans-serif" font-size="13" font-weight="bold" lengthAdjust="spacing" textLength="18" x="60" y="689.043">15</text><text fill="#000000" font-family="sans-serif" font-size="13" lengthAdjust="spacing" textLength="80" x="82" y="689.043">201: Created</text><!--SRC=[ZLHDRnCn4BtlhnY50vjA4RJYj8TMQaCb92eGSEJYs4wnSEpLs8xQVy_Ocspi_QA-9DvvRpxUp9W5Rqqux2HMLSlGAwvQPZoixkvMm1m4LLK7fimUsK72qxRQsHTOtJF-T_FPY1My-wgU__Xx7MH9_s63bya3beO7QpnQhIKcA_UeIy1FYKV5Ewuxya5QUsqjDh_DO_nDcFIb13snjZtvFx2sj0blYRxzzIsPwLP98u2gghhIjiop7NDoLOdJFof6jjOfR_6rguYk5zPxnhqwCY-ZLa71PdCBs00nVFqX9RUkW4uFmtID1u6mKG5eWACaOoghNlU8dfHqWkma6j59ebbsuI5g2OCJoJ5TAeYSo1VblAjtGMcXpFCNiHuHBaL43OPM8KlxcAuzdDs3iHxsDXWnWlMfNUIHY1OdWPqGiOep3EfFrpVhIJ0c97Mf0S8qy1qbjqOehwo1HwQq76SZDSr0QkH9PW4kS2wTsmUjNnUpJxIhgxv3zNHQlMpTCCFCATlbs57MsO0jTADpknnwigE3oBHD5DXRMfytHfwUWo9mND6vk35Wr97sD5Tn8NRXEgutB9op-sw9bj1PINEm319BUijKpxagPff0KDzylFxlH1EcWOTkHCTJFDYpBDlyPSW-zqzEtavwxx8hlNZ_0000]--></g></svg>