<?xml version="1.0" encoding="us-ascii" standalone="no"?><svg xmlns="http://www.w3.org/2000/svg" xmlns:xlink="http://www.w3.org/1999/xlink" contentStyleType="text/css" height="1107px" preserveAspectRatio="none" style="width:1070px;height:1107px;background:#FFFFFF;" version="1.1" viewBox="0 0 1070 1107" width="1070px" zoomAndPan="magnify"><defs/><g><rect fill="#FFFFFF" height="920.627" style="stroke:#181818;stroke-width:1.0;" width="10" x="226" y="98.7988"/><rect fill="#FFFFFF" height="891.3164" style="stroke:#181818;stroke-width:1.0;" width="10" x="348" y="128.1094"/><rect fill="#FFFFFF" height="862.0059" style="stroke:#181818;stroke-width:1.0;" width="10" x="489" y="157.4199"/><rect fill="#FFFFFF" height="87.2871" style="stroke:#181818;stroke-width:1.0;" width="10" x="680" y="822.207"/><rect fill="#FFFFFF" height="47.9766" style="stroke:#181818;stroke-width:1.0;" width="10" x="829" y="861.5176"/><rect fill="#FFFFFF" height="87.9316" style="stroke:#181818;stroke-width:1.0;" width="10" x="904.5" y="186.7305"/><rect fill="#FFFFFF" height="87.9316" style="stroke:#181818;stroke-width:1.0;" width="10" x="904.5" y="431.1699"/><rect fill="#FFFFFF" height="59.3105" style="stroke:#181818;stroke-width:1.0;" width="10" x="904.5" y="733.5859"/><rect fill="#FFFFFF" height="29.3105" style="stroke:#181818;stroke-width:1.0;" width="10" x="1003.5" y="216.041"/><rect fill="#FFFFFF" height="29.3105" style="stroke:#181818;stroke-width:1.0;" width="10" x="1003.5" y="460.4805"/><rect fill="#FFFFFF" height="30" style="stroke:#181818;stroke-width:1.0;" width="10" x="1003.5" y="762.8965"/><rect fill="none" height="722.7637" style="stroke:#000000;stroke-width:1.5;" width="1060" x="3" y="289.6621"/><rect fill="none" height="471.3242" style="stroke:#000000;stroke-width:1.5;" width="1050" x="3" y="534.1016"/><line style="stroke:#181818;stroke-width:0.5;stroke-dasharray:5.0,5.0;" x1="231" x2="231" y1="67.4883" y2="1029.4258"/><line style="stroke:#181818;stroke-width:0.5;stroke-dasharray:5.0,5.0;" x1="353" x2="353" y1="67.4883" y2="1029.4258"/><line style="stroke:#181818;stroke-width:0.5;stroke-dasharray:5.0,5.0;" x1="494" x2="494" y1="67.4883" y2="1029.4258"/><line style="stroke:#181818;stroke-width:0.5;stroke-dasharray:5.0,5.0;" x1="616" x2="616" y1="693.2871" y2="1029.4258"/><line style="stroke:#181818;stroke-width:0.5;stroke-dasharray:5.0,5.0;" x1="685" x2="685" y1="67.4883" y2="1029.4258"/><line style="stroke:#181818;stroke-width:0.5;stroke-dasharray:5.0,5.0;" x1="834" x2="834" y1="869.1953" y2="1029.4258"/><line style="stroke:#181818;stroke-width:0.5;stroke-dasharray:5.0,5.0;" x1="909" x2="909" y1="67.4883" y2="1029.4258"/><line style="stroke:#181818;stroke-width:0.5;stroke-dasharray:5.0,5.0;" x1="1008" x2="1008" y1="67.4883" y2="1029.4258"/><rect fill="#E2E2F0" height="30.4883" rx="2.5" ry="2.5" style="stroke:#181818;stroke-width:0.5;" width="54" x="204" y="36"/><text fill="#000000" font-family="sans-serif" font-size="14" lengthAdjust="spacing" textLength="40" x="211" y="56.5352">Route</text><rect fill="#E2E2F0" height="30.4883" rx="2.5" ry="2.5" style="stroke:#181818;stroke-width:0.5;" width="54" x="204" y="1028.4258"/><text fill="#000000" font-family="sans-serif" font-size="14" lengthAdjust="spacing" textLength="40" x="211" y="1048.9609">Route</text><rect fill="#E2E2F0" height="30.4883" rx="2.5" ry="2.5" style="stroke:#181818;stroke-width:0.5;" width="84" x="311" y="36"/><text fill="#000000" font-family="sans-serif" font-size="14" lengthAdjust="spacing" textLength="70" x="318" y="56.5352">Controller</text><rect fill="#E2E2F0" height="30.4883" rx="2.5" ry="2.5" style="stroke:#181818;stroke-width:0.5;" width="84" x="311" y="1028.4258"/><text fill="#000000" font-family="sans-serif" font-size="14" lengthAdjust="spacing" textLength="70" x="318" y="1048.9609">Controller</text><rect fill="#E2E2F0" height="30.4883" rx="2.5" ry="2.5" style="stroke:#181818;stroke-width:0.5;" width="62" x="463" y="36"/><text fill="#000000" font-family="sans-serif" font-size="14" lengthAdjust="spacing" textLength="48" x="470" y="56.5352">Service</text><rect fill="#E2E2F0" height="30.4883" rx="2.5" ry="2.5" style="stroke:#181818;stroke-width:0.5;" width="62" x="463" y="1028.4258"/><text fill="#000000" font-family="sans-serif" font-size="14" lengthAdjust="spacing" textLength="48" x="470" y="1048.9609">Service</text><rect fill="#E2E2F0" height="46.9766" rx="2.5" ry="2.5" style="stroke:#181818;stroke-width:0.5;" width="51" x="591" y="1028.4258"/><text fill="#000000" font-family="sans-serif" font-size="14" lengthAdjust="spacing" textLength="37" x="598" y="1048.9609">floor:</text><text fill="#000000" font-family="sans-serif" font-size="14" lengthAdjust="spacing" textLength="36" x="598.5" y="1065.4492">Floor</text><rect fill="#E2E2F0" height="30.4883" rx="2.5" ry="2.5" style="stroke:#181818;stroke-width:0.5;" width="66" x="652" y="36"/><text fill="#000000" font-family="sans-serif" font-size="14" lengthAdjust="spacing" textLength="52" x="659" y="56.5352">Mapper</text><rect fill="#E2E2F0" height="30.4883" rx="2.5" ry="2.5" style="stroke:#181818;stroke-width:0.5;" width="66" x="652" y="1028.4258"/><text fill="#000000" font-family="sans-serif" font-size="14" lengthAdjust="spacing" textLength="52" x="659" y="1048.9609">Mapper</text><rect fill="#E2E2F0" height="46.9766" rx="2.5" ry="2.5" style="stroke:#181818;stroke-width:0.5;" width="44" x="812" y="1028.4258"/><text fill="#000000" font-family="sans-serif" font-size="14" lengthAdjust="spacing" textLength="27" x="820.5" y="1048.9609">dto:</text><text fill="#000000" font-family="sans-serif" font-size="14" lengthAdjust="spacing" textLength="30" x="819" y="1065.4492">DTO</text><rect fill="#E2E2F0" height="30.4883" rx="2.5" ry="2.5" style="stroke:#181818;stroke-width:0.5;" width="87" x="866" y="36"/><text fill="#000000" font-family="sans-serif" font-size="14" lengthAdjust="spacing" textLength="73" x="873" y="56.5352">Repository</text><rect fill="#E2E2F0" height="30.4883" rx="2.5" ry="2.5" style="stroke:#181818;stroke-width:0.5;" width="87" x="866" y="1028.4258"/><text fill="#000000" font-family="sans-serif" font-size="14" lengthAdjust="spacing" textLength="73" x="873" y="1048.9609">Repository</text><text fill="#000000" font-family="sans-serif" font-size="14" lengthAdjust="spacing" textLength="63" x="974" y="64.5352">Database</text><path d="M990.5,15 C990.5,5 1008.5,5 1008.5,5 C1008.5,5 1026.5,5 1026.5,15 L1026.5,41 C1026.5,51 1008.5,51 1008.5,51 C1008.5,51 990.5,51 990.5,41 L990.5,15 " fill="#E2E2F0" style="stroke:#181818;stroke-width:1.5;"/><path d="M990.5,15 C990.5,25 1008.5,25 1008.5,25 C1008.5,25 1026.5,25 1026.5,15 " fill="none" style="stroke:#181818;stroke-width:1.5;"/><text fill="#000000" font-family="sans-serif" font-size="14" lengthAdjust="spacing" textLength="63" x="974" y="1041.9609">Database</text><path d="M990.5,1054.9141 C990.5,1044.9141 1008.5,1044.9141 1008.5,1044.9141 C1008.5,1044.9141 1026.5,1044.9141 1026.5,1054.9141 L1026.5,1080.9141 C1026.5,1090.9141 1008.5,1090.9141 1008.5,1090.9141 C1008.5,1090.9141 990.5,1090.9141 990.5,1080.9141 L990.5,1054.9141 " fill="#E2E2F0" style="stroke:#181818;stroke-width:1.5;"/><path d="M990.5,1054.9141 C990.5,1064.9141 1008.5,1064.9141 1008.5,1064.9141 C1008.5,1064.9141 1026.5,1064.9141 1026.5,1054.9141 " fill="none" style="stroke:#181818;stroke-width:1.5;"/><rect fill="#FFFFFF" height="920.627" style="stroke:#181818;stroke-width:1.0;" width="10" x="226" y="98.7988"/><rect fill="#FFFFFF" height="891.3164" style="stroke:#181818;stroke-width:1.0;" width="10" x="348" y="128.1094"/><rect fill="#FFFFFF" height="862.0059" style="stroke:#181818;stroke-width:1.0;" width="10" x="489" y="157.4199"/><rect fill="#FFFFFF" height="87.2871" style="stroke:#181818;stroke-width:1.0;" width="10" x="680" y="822.207"/><rect fill="#FFFFFF" height="47.9766" style="stroke:#181818;stroke-width:1.0;" width="10" x="829" y="861.5176"/><rect fill="#FFFFFF" height="87.9316" style="stroke:#181818;stroke-width:1.0;" width="10" x="904.5" y="186.7305"/><rect fill="#FFFFFF" height="87.9316" style="stroke:#181818;stroke-width:1.0;" width="10" x="904.5" y="431.1699"/><rect fill="#FFFFFF" height="59.3105" style="stroke:#181818;stroke-width:1.0;" width="10" x="904.5" y="733.5859"/><rect fill="#FFFFFF" height="29.3105" style="stroke:#181818;stroke-width:1.0;" width="10" x="1003.5" y="216.041"/><rect fill="#FFFFFF" height="29.3105" style="stroke:#181818;stroke-width:1.0;" width="10" x="1003.5" y="460.4805"/><rect fill="#FFFFFF" height="30" style="stroke:#181818;stroke-width:1.0;" width="10" x="1003.5" y="762.8965"/><polygon fill="#181818" points="214,94.7988,224,98.7988,214,102.7988,218,98.7988" style="stroke:#181818;stroke-width:1.0;"/><line style="stroke:#181818;stroke-width:1.0;" x1="0" x2="220" y1="98.7988" y2="98.7988"/><text fill="#000000" font-family="sans-serif" font-size="13" font-weight="bold" lengthAdjust="spacing" textLength="9" x="7" y="94.0566">1</text><text fill="#000000" font-family="sans-serif" font-size="13" lengthAdjust="spacing" textLength="166" x="20" y="94.0566">post(/building/{id}/floors)</text><polygon fill="#181818" points="336,124.1094,346,128.1094,336,132.1094,340,128.1094" style="stroke:#181818;stroke-width:1.0;"/><line style="stroke:#181818;stroke-width:1.0;" x1="236" x2="342" y1="128.1094" y2="128.1094"/><text fill="#000000" font-family="sans-serif" font-size="13" font-weight="bold" lengthAdjust="spacing" textLength="9" x="243" y="123.3672">2</text><text fill="#000000" font-family="sans-serif" font-size="13" lengthAdjust="spacing" textLength="78" x="256" y="123.3672">createFloor()</text><polygon fill="#181818" points="477,153.4199,487,157.4199,477,161.4199,481,157.4199" style="stroke:#181818;stroke-width:1.0;"/><line style="stroke:#181818;stroke-width:1.0;" x1="358" x2="483" y1="157.4199" y2="157.4199"/><text fill="#000000" font-family="sans-serif" font-size="13" font-weight="bold" lengthAdjust="spacing" textLength="9" x="365" y="152.6777">3</text><text fill="#000000" font-family="sans-serif" font-size="13" lengthAdjust="spacing" textLength="99" x="378" y="152.6777">createFloor(dto)</text><polygon fill="#181818" points="892.5,182.7305,902.5,186.7305,892.5,190.7305,896.5,186.7305" style="stroke:#181818;stroke-width:1.0;"/><line style="stroke:#181818;stroke-width:1.0;" x1="499" x2="898.5" y1="186.7305" y2="186.7305"/><text fill="#000000" font-family="sans-serif" font-size="13" font-weight="bold" lengthAdjust="spacing" textLength="9" x="506" y="181.9883">4</text><text fill="#000000" font-family="sans-serif" font-size="13" lengthAdjust="spacing" textLength="163" x="519" y="181.9883">findByCode(buildingCode)</text><polygon fill="#181818" points="991.5,212.041,1001.5,216.041,991.5,220.041,995.5,216.041" style="stroke:#181818;stroke-width:1.0;"/><line style="stroke:#181818;stroke-width:1.0;" x1="914.5" x2="997.5" y1="216.041" y2="216.041"/><text fill="#000000" font-family="sans-serif" font-size="13" font-weight="bold" lengthAdjust="spacing" textLength="9" x="921.5" y="211.2988">5</text><text fill="#000000" font-family="sans-serif" font-size="13" lengthAdjust="spacing" textLength="33" x="934.5" y="211.2988">find()</text><polygon fill="#181818" points="925.5,241.3516,915.5,245.3516,925.5,249.3516,921.5,245.3516" style="stroke:#181818;stroke-width:1.0;"/><line style="stroke:#181818;stroke-width:1.0;stroke-dasharray:2.0,2.0;" x1="919.5" x2="1007.5" y1="245.3516" y2="245.3516"/><text fill="#000000" font-family="sans-serif" font-size="13" font-weight="bold" lengthAdjust="spacing" textLength="9" x="931.5" y="240.6094">6</text><text fill="#000000" font-family="sans-serif" font-size="13" lengthAdjust="spacing" textLength="52" x="944.5" y="240.6094">building</text><polygon fill="#181818" points="510,270.6621,500,274.6621,510,278.6621,506,274.6621" style="stroke:#181818;stroke-width:1.0;"/><line style="stroke:#181818;stroke-width:1.0;stroke-dasharray:2.0,2.0;" x1="504" x2="908.5" y1="274.6621" y2="274.6621"/><text fill="#000000" font-family="sans-serif" font-size="13" font-weight="bold" lengthAdjust="spacing" textLength="9" x="516" y="269.9199">7</text><text fill="#000000" font-family="sans-serif" font-size="13" lengthAdjust="spacing" textLength="52" x="529" y="269.9199">building</text><path d="M3,289.6621 L65,289.6621 L65,296.9727 L55,306.9727 L3,306.9727 L3,289.6621 " fill="#EEEEEE" style="stroke:#000000;stroke-width:1.5;"/><rect fill="none" height="722.7637" style="stroke:#000000;stroke-width:1.5;" width="1060" x="3" y="289.6621"/><text fill="#000000" font-family="sans-serif" font-size="13" font-weight="bold" lengthAdjust="spacing" textLength="17" x="18" y="303.2305">alt</text><text fill="#000000" font-family="sans-serif" font-size="11" font-weight="bold" lengthAdjust="spacing" textLength="114" x="80" y="302.2969">[building not found]</text><polygon fill="#181818" points="369,324.2832,359,328.2832,369,332.2832,365,328.2832" style="stroke:#181818;stroke-width:1.0;"/><line style="stroke:#181818;stroke-width:1.0;stroke-dasharray:2.0,2.0;" x1="363" x2="488" y1="328.2832" y2="328.2832"/><text fill="#000000" font-family="sans-serif" font-size="13" font-weight="bold" lengthAdjust="spacing" textLength="9" x="375" y="323.541">8</text><text fill="#000000" font-family="sans-serif" font-size="13" lengthAdjust="spacing" textLength="30" x="388" y="323.541">error</text><polygon fill="#181818" points="247,353.5938,237,357.5938,247,361.5938,243,357.5938" style="stroke:#181818;stroke-width:1.0;"/><line style="stroke:#181818;stroke-width:1.0;stroke-dasharray:2.0,2.0;" x1="241" x2="347" y1="357.5938" y2="357.5938"/><text fill="#000000" font-family="sans-serif" font-size="13" font-weight="bold" lengthAdjust="spacing" textLength="9" x="253" y="352.8516">9</text><text fill="#000000" font-family="sans-serif" font-size="13" lengthAdjust="spacing" textLength="66" x="266" y="352.8516">error (404)</text><polygon fill="#181818" points="11,382.9043,1,386.9043,11,390.9043,7,386.9043" style="stroke:#181818;stroke-width:1.0;"/><line style="stroke:#181818;stroke-width:1.0;stroke-dasharray:2.0,2.0;" x1="5" x2="225" y1="386.9043" y2="386.9043"/><text fill="#000000" font-family="sans-serif" font-size="13" font-weight="bold" lengthAdjust="spacing" textLength="18" x="17" y="382.1621">10</text><text fill="#000000" font-family="sans-serif" font-size="13" lengthAdjust="spacing" textLength="98" x="39" y="382.1621">404: Not Found</text><line style="stroke:#000000;stroke-width:1.0;stroke-dasharray:2.0,2.0;" x1="3" x2="1063" y1="395.9043" y2="395.9043"/><text fill="#000000" font-family="sans-serif" font-size="11" font-weight="bold" lengthAdjust="spacing" textLength="92" x="8" y="406.5391">[building found]</text><polygon fill="#181818" points="892.5,427.1699,902.5,431.1699,892.5,435.1699,896.5,431.1699" style="stroke:#181818;stroke-width:1.0;"/><line style="stroke:#181818;stroke-width:1.0;" x1="499" x2="898.5" y1="431.1699" y2="431.1699"/><text fill="#000000" font-family="sans-serif" font-size="13" font-weight="bold" lengthAdjust="spacing" textLength="18" x="506" y="426.4277">11</text><text fill="#000000" font-family="sans-serif" font-size="13" lengthAdjust="spacing" textLength="297" x="528" y="426.4277">findByCodeNumber(buildingCode,floorNumber)</text><polygon fill="#181818" points="991.5,456.4805,1001.5,460.4805,991.5,464.4805,995.5,460.4805" style="stroke:#181818;stroke-width:1.0;"/><line style="stroke:#181818;stroke-width:1.0;" x1="914.5" x2="997.5" y1="460.4805" y2="460.4805"/><text fill="#000000" font-family="sans-serif" font-size="13" font-weight="bold" lengthAdjust="spacing" textLength="18" x="921.5" y="455.7383">12</text><text fill="#000000" font-family="sans-serif" font-size="13" lengthAdjust="spacing" textLength="33" x="943.5" y="455.7383">find()</text><polygon fill="#181818" points="925.5,485.791,915.5,489.791,925.5,493.791,921.5,489.791" style="stroke:#181818;stroke-width:1.0;"/><line style="stroke:#181818;stroke-width:1.0;stroke-dasharray:2.0,2.0;" x1="919.5" x2="1007.5" y1="489.791" y2="489.791"/><text fill="#000000" font-family="sans-serif" font-size="13" font-weight="bold" lengthAdjust="spacing" textLength="18" x="931.5" y="485.0488">13</text><text fill="#000000" font-family="sans-serif" font-size="13" lengthAdjust="spacing" textLength="30" x="953.5" y="485.0488">floor</text><polygon fill="#181818" points="510,515.1016,500,519.1016,510,523.1016,506,519.1016" style="stroke:#181818;stroke-width:1.0;"/><line style="stroke:#181818;stroke-width:1.0;stroke-dasharray:2.0,2.0;" x1="504" x2="908.5" y1="519.1016" y2="519.1016"/><text fill="#000000" font-family="sans-serif" font-size="13" font-weight="bold" lengthAdjust="spacing" textLength="18" x="516" y="514.3594">14</text><text fill="#000000" font-family="sans-serif" font-size="13" lengthAdjust="spacing" textLength="30" x="538" y="514.3594">floor</text><path d="M3,534.1016 L65,534.1016 L65,541.4121 L55,551.4121 L3,551.4121 L3,534.1016 " fill="#EEEEEE" style="stroke:#000000;stroke-width:1.5;"/><rect fill="none" height="471.3242" style="stroke:#000000;stroke-width:1.5;" width="1050" x="3" y="534.1016"/><text fill="#000000" font-family="sans-serif" font-size="13" font-weight="bold" lengthAdjust="spacing" textLength="17" x="18" y="547.6699">alt</text><text fill="#000000" font-family="sans-serif" font-size="11" font-weight="bold" lengthAdjust="spacing" textLength="116" x="80" y="546.7363">[floor already exists]</text><polygon fill="#181818" points="369,568.7227,359,572.7227,369,576.7227,365,572.7227" style="stroke:#181818;stroke-width:1.0;"/><line style="stroke:#181818;stroke-width:1.0;stroke-dasharray:2.0,2.0;" x1="363" x2="488" y1="572.7227" y2="572.7227"/><text fill="#000000" font-family="sans-serif" font-size="13" font-weight="bold" lengthAdjust="spacing" textLength="18" x="375" y="567.9805">15</text><text fill="#000000" font-family="sans-serif" font-size="13" lengthAdjust="spacing" textLength="30" x="397" y="567.9805">error</text><polygon fill="#181818" points="247,598.0332,237,602.0332,247,606.0332,243,602.0332" style="stroke:#181818;stroke-width:1.0;"/><line style="stroke:#181818;stroke-width:1.0;stroke-dasharray:2.0,2.0;" x1="241" x2="347" y1="602.0332" y2="602.0332"/><text fill="#000000" font-family="sans-serif" font-size="13" font-weight="bold" lengthAdjust="spacing" textLength="18" x="253" y="597.291">16</text><text fill="#000000" font-family="sans-serif" font-size="13" lengthAdjust="spacing" textLength="66" x="275" y="597.291">error (422)</text><polygon fill="#181818" points="11,627.3438,1,631.3438,11,635.3438,7,631.3438" style="stroke:#181818;stroke-width:1.0;"/><line style="stroke:#181818;stroke-width:1.0;stroke-dasharray:2.0,2.0;" x1="5" x2="225" y1="631.3438" y2="631.3438"/><text fill="#000000" font-family="sans-serif" font-size="13" font-weight="bold" lengthAdjust="spacing" textLength="18" x="17" y="626.6016">17</text><text fill="#000000" font-family="sans-serif" font-size="13" lengthAdjust="spacing" textLength="178" x="39" y="626.6016">422: Unprocessable Content</text><line style="stroke:#000000;stroke-width:1.0;stroke-dasharray:2.0,2.0;" x1="3" x2="1053" y1="640.3438" y2="640.3438"/><text fill="#000000" font-family="sans-serif" font-size="11" font-weight="bold" lengthAdjust="spacing" textLength="110" x="8" y="650.9785">[floor doesn't exist]</text><polygon fill="#181818" points="579,671.6094,589,675.6094,579,679.6094,583,675.6094" style="stroke:#181818;stroke-width:1.0;"/><line style="stroke:#181818;stroke-width:1.0;stroke-dasharray:2.0,2.0;" x1="499" x2="585" y1="675.6094" y2="675.6094"/><text fill="#000000" font-family="sans-serif" font-size="13" font-weight="bold" lengthAdjust="spacing" textLength="18" x="506" y="670.8672">18</text><text fill="#000000" font-family="sans-serif" font-size="13" lengthAdjust="spacing" textLength="46" x="528" y="670.8672">create()</text><rect fill="#E2E2F0" height="46.9766" rx="2.5" ry="2.5" style="stroke:#181818;stroke-width:0.5;" width="51" x="591" y="654.2988"/><text fill="#000000" font-family="sans-serif" font-size="14" lengthAdjust="spacing" textLength="37" x="598" y="674.834">floor:</text><text fill="#000000" font-family="sans-serif" font-size="14" lengthAdjust="spacing" textLength="36" x="598.5" y="691.3223">Floor</text><polygon fill="#181818" points="892.5,729.5859,902.5,733.5859,892.5,737.5859,896.5,733.5859" style="stroke:#181818;stroke-width:1.0;"/><line style="stroke:#181818;stroke-width:1.0;" x1="499" x2="898.5" y1="733.5859" y2="733.5859"/><text fill="#000000" font-family="sans-serif" font-size="13" font-weight="bold" lengthAdjust="spacing" textLength="18" x="506" y="728.8438">19</text><text fill="#000000" font-family="sans-serif" font-size="13" lengthAdjust="spacing" textLength="66" x="528" y="728.8438">save(floor)</text><polygon fill="#181818" points="991.5,758.8965,1001.5,762.8965,991.5,766.8965,995.5,762.8965" style="stroke:#181818;stroke-width:1.0;"/><line style="stroke:#181818;stroke-width:1.0;" x1="914.5" x2="997.5" y1="762.8965" y2="762.8965"/><text fill="#000000" font-family="sans-serif" font-size="13" font-weight="bold" lengthAdjust="spacing" textLength="18" x="921.5" y="758.1543">20</text><text fill="#000000" font-family="sans-serif" font-size="13" lengthAdjust="spacing" textLength="36" x="943.5" y="758.1543">save()</text><polygon fill="#181818" points="668,818.207,678,822.207,668,826.207,672,822.207" style="stroke:#181818;stroke-width:1.0;"/><line style="stroke:#181818;stroke-width:1.0;" x1="499" x2="674" y1="822.207" y2="822.207"/><text fill="#000000" font-family="sans-serif" font-size="13" font-weight="bold" lengthAdjust="spacing" textLength="18" x="506" y="817.4648">21</text><text fill="#000000" font-family="sans-serif" font-size="13" lengthAdjust="spacing" textLength="79" x="528" y="817.4648">toDTO(floor)</text><polygon fill="#181818" points="800,847.5176,810,851.5176,800,855.5176,804,851.5176" style="stroke:#181818;stroke-width:1.0;"/><line style="stroke:#181818;stroke-width:1.0;stroke-dasharray:2.0,2.0;" x1="690" x2="806" y1="851.5176" y2="851.5176"/><text fill="#000000" font-family="sans-serif" font-size="13" font-weight="bold" lengthAdjust="spacing" textLength="18" x="697" y="846.7754">22</text><text fill="#000000" font-family="sans-serif" font-size="13" lengthAdjust="spacing" textLength="76" x="719" y="846.7754">create(floor)</text><rect fill="#E2E2F0" height="46.9766" rx="2.5" ry="2.5" style="stroke:#181818;stroke-width:0.5;" width="44" x="812" y="830.207"/><text fill="#000000" font-family="sans-serif" font-size="14" lengthAdjust="spacing" textLength="27" x="820.5" y="850.7422">dto:</text><text fill="#000000" font-family="sans-serif" font-size="14" lengthAdjust="spacing" textLength="30" x="819" y="867.2305">DTO</text><polygon fill="#181818" points="510,905.4941,500,909.4941,510,913.4941,506,909.4941" style="stroke:#181818;stroke-width:1.0;"/><line style="stroke:#181818;stroke-width:1.0;stroke-dasharray:2.0,2.0;" x1="504" x2="684" y1="909.4941" y2="909.4941"/><text fill="#000000" font-family="sans-serif" font-size="13" font-weight="bold" lengthAdjust="spacing" textLength="18" x="516" y="904.752">23</text><text fill="#000000" font-family="sans-serif" font-size="13" lengthAdjust="spacing" textLength="21" x="538" y="904.752">dto</text><polygon fill="#181818" points="369,934.8047,359,938.8047,369,942.8047,365,938.8047" style="stroke:#181818;stroke-width:1.0;"/><line style="stroke:#181818;stroke-width:1.0;stroke-dasharray:2.0,2.0;" x1="363" x2="488" y1="938.8047" y2="938.8047"/><text fill="#000000" font-family="sans-serif" font-size="13" font-weight="bold" lengthAdjust="spacing" textLength="18" x="375" y="934.0625">24</text><text fill="#000000" font-family="sans-serif" font-size="13" lengthAdjust="spacing" textLength="21" x="397" y="934.0625">dto</text><polygon fill="#181818" points="247,964.1152,237,968.1152,247,972.1152,243,968.1152" style="stroke:#181818;stroke-width:1.0;"/><line style="stroke:#181818;stroke-width:1.0;stroke-dasharray:2.0,2.0;" x1="241" x2="347" y1="968.1152" y2="968.1152"/><text fill="#000000" font-family="sans-serif" font-size="13" font-weight="bold" lengthAdjust="spacing" textLength="18" x="253" y="963.373">25</text><text fill="#000000" font-family="sans-serif" font-size="13" lengthAdjust="spacing" textLength="57" x="275" y="963.373">dto (201)</text><polygon fill="#181818" points="11,993.4258,1,997.4258,11,1001.4258,7,997.4258" style="stroke:#181818;stroke-width:1.0;"/><line style="stroke:#181818;stroke-width:1.0;stroke-dasharray:2.0,2.0;" x1="5" x2="225" y1="997.4258" y2="997.4258"/><text fill="#000000" font-family="sans-serif" font-size="13" font-weight="bold" lengthAdjust="spacing" textLength="18" x="17" y="992.6836">26</text><text fill="#000000" font-family="sans-serif" font-size="13" lengthAdjust="spacing" textLength="80" x="39" y="992.6836">201: Created</text><!--SRC=[hLNBRjim4BphAnQ-L0fgE1Lo4eeSuY2tfa0Vf_H2YNH0G245aZ9g5FttBfUMBEgLe2qlDhKpgzcT9SLQfrNxKWgJ90qpJbQoOSh1vejkdTW0is3Ym5uhPtHT2qFHofaw1dmLvYYhmBN7QfJtK6jjYX_gmVyIXfx4e4-iQSxvNrWJnxZJIB__zfd2k1iB5ussqcbp2kfnct3cMCciWCtz-LyWbqdojBq5Km1oNBehMrbpgPvtloJ_lIDXDajOvUIHEO6T05m6aEBBXW8g8p10jQGPHNimDGREY-18mtwCM5X0riDwikyR39RdUQ5O3F8FKl6xqrvpaNQA_IQBA1VLlWCmMfG9C_Bod2_D9fW-0_O9PXPojnTHdP89b8krH458tvhPB8CCL4nSP-rw5YZjuA1RnIVleGvUZ1F6Q3C11PjyJHq4qflhcsbhdZvkjnw3mG8UyQKFavUA6kUj5xOYwdRYwYCToCZRzpIC8R3YrApNR_NxBPvFVG_7TnOdNiisCdy-rTZziVd4mdzugFW9n4zfdVsFzkVvYlrvNi1trHXT2MjPMGlmrwDGRZeAGIRNmgftBiXSL4dOgwl-gfWnAxuHB3kAb5Z_F1oKwk-6OztmrLCyA0blV9JXD5xnNKdBDVdFmvmKdyHt4g_NOHyNMXGNv_JYw7Tfmxmk8OTzc84Cmbx-QxCwboAQL0H0cbz_M9vJ31QmfnQCBYcrl1_8x3v7WqVqUHjQclm1]--></g></svg>