<?xml version="1.0" encoding="us-ascii" standalone="no"?><svg xmlns="http://www.w3.org/2000/svg" xmlns:xlink="http://www.w3.org/1999/xlink" contentStyleType="text/css" height="972.9px" preserveAspectRatio="none" style="width:1084px;height:972px;background:#FFFFFF;" version="1.1" viewBox="0 0 1084 972" width="1084.5px" zoomAndPan="magnify"><defs/><g><rect fill="#FFFFFF" height="799.3336" style="stroke:#181818;stroke-width:0.9;" width="9" x="180" y="92.6209"/><rect fill="#FFFFFF" height="771.1717" style="stroke:#181818;stroke-width:0.9;" width="9" x="281.7" y="120.7828"/><rect fill="#FFFFFF" height="743.0098" style="stroke:#181818;stroke-width:0.9;" width="9" x="399.6" y="148.9447"/><rect fill="#FFFFFF" height="84.1799" style="stroke:#181818;stroke-width:0.9;" width="9" x="560.7" y="703.4889"/><rect fill="#FFFFFF" height="47.018" style="stroke:#181818;stroke-width:0.9;" width="9" x="684" y="740.6508"/><rect fill="#FFFFFF" height="84.4857" style="stroke:#181818;stroke-width:0.9;" width="9" x="749.7" y="177.1066"/><rect fill="#FFFFFF" height="55.1619" style="stroke:#181818;stroke-width:0.9;" width="9" x="749.7" y="412.8697"/><rect fill="#FFFFFF" height="28.1619" style="stroke:#181818;stroke-width:0.9;" width="9" x="749.7" y="675.327"/><rect fill="#FFFFFF" height="28.1619" style="stroke:#181818;stroke-width:0.9;" width="9" x="1035" y="205.2686"/><rect fill="#FFFFFF" height="27" style="stroke:#181818;stroke-width:0.9;" width="9" x="1035" y="441.0316"/><rect fill="none" height="610.5621" style="stroke:#000000;stroke-width:1.35;" width="1075.95" x="2.7" y="275.0924"/><rect fill="none" height="397.8229" style="stroke:#000000;stroke-width:1.35;" width="797.4" x="2.7" y="481.5316"/><line style="stroke:#181818;stroke-width:0.45;stroke-dasharray:5.0,5.0;" x1="184.5" x2="184.5" y1="62.659" y2="900.9545"/><line style="stroke:#181818;stroke-width:0.45;stroke-dasharray:5.0,5.0;" x1="286.2" x2="286.2" y1="62.659" y2="900.9545"/><line style="stroke:#181818;stroke-width:0.45;stroke-dasharray:5.0,5.0;" x1="403.65" x2="403.65" y1="62.659" y2="900.9545"/><line style="stroke:#181818;stroke-width:0.45;stroke-dasharray:5.0,5.0;" x1="506.7" x2="506.7" y1="635.3561" y2="900.9545"/><line style="stroke:#181818;stroke-width:0.45;stroke-dasharray:5.0,5.0;" x1="565.2" x2="565.2" y1="62.659" y2="900.9545"/><line style="stroke:#181818;stroke-width:0.45;stroke-dasharray:5.0,5.0;" x1="688.5" x2="688.5" y1="747.6979" y2="900.9545"/><line style="stroke:#181818;stroke-width:0.45;stroke-dasharray:5.0,5.0;" x1="754.2" x2="754.2" y1="62.659" y2="900.9545"/><line style="stroke:#181818;stroke-width:0.45;stroke-dasharray:5.0,5.0;" x1="1039.05" x2="1039.05" y1="62.659" y2="900.9545"/><rect fill="#E2E2F0" height="29.359" rx="2.25" ry="2.25" style="stroke:#181818;stroke-width:0.45;" width="46.8" x="161.1" y="32.4"/><text fill="#000000" font-family="sans-serif" font-size="12.6" lengthAdjust="spacing" textLength="34.2" x="167.4" y="52.2967">Route</text><rect fill="#E2E2F0" height="29.359" rx="2.25" ry="2.25" style="stroke:#181818;stroke-width:0.45;" width="46.8" x="161.1" y="900.0545"/><text fill="#000000" font-family="sans-serif" font-size="12.6" lengthAdjust="spacing" textLength="34.2" x="167.4" y="919.9512">Route</text><rect fill="#E2E2F0" height="29.359" rx="2.25" ry="2.25" style="stroke:#181818;stroke-width:0.45;" width="68.4" x="252" y="32.4"/><text fill="#000000" font-family="sans-serif" font-size="12.6" lengthAdjust="spacing" textLength="55.8" x="258.3" y="52.2967">Controller</text><rect fill="#E2E2F0" height="29.359" rx="2.25" ry="2.25" style="stroke:#181818;stroke-width:0.45;" width="68.4" x="252" y="900.0545"/><text fill="#000000" font-family="sans-serif" font-size="12.6" lengthAdjust="spacing" textLength="55.8" x="258.3" y="919.9512">Controller</text><rect fill="#E2E2F0" height="29.359" rx="2.25" ry="2.25" style="stroke:#181818;stroke-width:0.45;" width="54.9" x="376.65" y="32.4"/><text fill="#000000" font-family="sans-serif" font-size="12.6" lengthAdjust="spacing" textLength="42.3" x="382.95" y="52.2967">Service</text><rect fill="#E2E2F0" height="29.359" rx="2.25" ry="2.25" style="stroke:#181818;stroke-width:0.45;" width="54.9" x="376.65" y="900.0545"/><text fill="#000000" font-family="sans-serif" font-size="12.6" lengthAdjust="spacing" textLength="42.3" x="382.95" y="919.9512">Service</text><rect fill="#E2E2F0" height="46.118" rx="2.25" ry="2.25" style="stroke:#181818;stroke-width:0.45;" width="42.3" x="486" y="900.0545"/><text fill="#000000" font-family="sans-serif" font-size="12.6" lengthAdjust="spacing" textLength="28.8" x="492.75" y="919.9512">floor:</text><text fill="#000000" font-family="sans-serif" font-size="12.6" lengthAdjust="spacing" textLength="29.7" x="492.3" y="936.7102">Floor</text><rect fill="#E2E2F0" height="29.359" rx="2.25" ry="2.25" style="stroke:#181818;stroke-width:0.45;" width="55.8" x="537.3" y="32.4"/><text fill="#000000" font-family="sans-serif" font-size="12.6" lengthAdjust="spacing" textLength="43.2" x="543.6" y="52.2967">Mapper</text><rect fill="#E2E2F0" height="29.359" rx="2.25" ry="2.25" style="stroke:#181818;stroke-width:0.45;" width="55.8" x="537.3" y="900.0545"/><text fill="#000000" font-family="sans-serif" font-size="12.6" lengthAdjust="spacing" textLength="43.2" x="543.6" y="919.9512">Mapper</text><rect fill="#E2E2F0" height="46.118" rx="2.25" ry="2.25" style="stroke:#181818;stroke-width:0.45;" width="39.6" x="668.7" y="900.0545"/><text fill="#000000" font-family="sans-serif" font-size="12.6" lengthAdjust="spacing" textLength="21.6" x="677.7" y="919.9512">dto:</text><text fill="#000000" font-family="sans-serif" font-size="12.6" lengthAdjust="spacing" textLength="27" x="675" y="936.7102">DTO</text><rect fill="#E2E2F0" height="29.359" rx="2.25" ry="2.25" style="stroke:#181818;stroke-width:0.45;" width="73.8" x="717.3" y="32.4"/><text fill="#000000" font-family="sans-serif" font-size="12.6" lengthAdjust="spacing" textLength="61.2" x="723.6" y="52.2967">Repository</text><rect fill="#E2E2F0" height="29.359" rx="2.25" ry="2.25" style="stroke:#181818;stroke-width:0.45;" width="73.8" x="717.3" y="900.0545"/><text fill="#000000" font-family="sans-serif" font-size="12.6" lengthAdjust="spacing" textLength="61.2" x="723.6" y="919.9512">Repository</text><text fill="#000000" font-family="sans-serif" font-size="12.6" lengthAdjust="spacing" textLength="54.9" x="1009.35" y="59.4967">Database</text><path d="M1023.3,13.5 C1023.3,4.5 1039.5,4.5 1039.5,4.5 C1039.5,4.5 1055.7,4.5 1055.7,13.5 L1055.7,36.9 C1055.7,45.9 1039.5,45.9 1039.5,45.9 C1039.5,45.9 1023.3,45.9 1023.3,36.9 L1023.3,13.5 " fill="#E2E2F0" style="stroke:#181818;stroke-width:1.35;"/><path d="M1023.3,13.5 C1023.3,22.5 1039.5,22.5 1039.5,22.5 C1039.5,22.5 1055.7,22.5 1055.7,13.5 " fill="none" style="stroke:#181818;stroke-width:1.35;"/><text fill="#000000" font-family="sans-serif" font-size="12.6" lengthAdjust="spacing" textLength="54.9" x="1009.35" y="913.6512">Database</text><path d="M1023.3,925.8135 C1023.3,916.8135 1039.5,916.8135 1039.5,916.8135 C1039.5,916.8135 1055.7,916.8135 1055.7,925.8135 L1055.7,949.2135 C1055.7,958.2135 1039.5,958.2135 1039.5,958.2135 C1039.5,958.2135 1023.3,958.2135 1023.3,949.2135 L1023.3,925.8135 " fill="#E2E2F0" style="stroke:#181818;stroke-width:1.35;"/><path d="M1023.3,925.8135 C1023.3,934.8135 1039.5,934.8135 1039.5,934.8135 C1039.5,934.8135 1055.7,934.8135 1055.7,925.8135 " fill="none" style="stroke:#181818;stroke-width:1.35;"/><rect fill="#FFFFFF" height="799.3336" style="stroke:#181818;stroke-width:0.9;" width="9" x="180" y="92.6209"/><rect fill="#FFFFFF" height="771.1717" style="stroke:#181818;stroke-width:0.9;" width="9" x="281.7" y="120.7828"/><rect fill="#FFFFFF" height="743.0098" style="stroke:#181818;stroke-width:0.9;" width="9" x="399.6" y="148.9447"/><rect fill="#FFFFFF" height="84.1799" style="stroke:#181818;stroke-width:0.9;" width="9" x="560.7" y="703.4889"/><rect fill="#FFFFFF" height="47.018" style="stroke:#181818;stroke-width:0.9;" width="9" x="684" y="740.6508"/><rect fill="#FFFFFF" height="84.4857" style="stroke:#181818;stroke-width:0.9;" width="9" x="749.7" y="177.1066"/><rect fill="#FFFFFF" height="55.1619" style="stroke:#181818;stroke-width:0.9;" width="9" x="749.7" y="412.8697"/><rect fill="#FFFFFF" height="28.1619" style="stroke:#181818;stroke-width:0.9;" width="9" x="749.7" y="675.327"/><rect fill="#FFFFFF" height="28.1619" style="stroke:#181818;stroke-width:0.9;" width="9" x="1035" y="205.2686"/><rect fill="#FFFFFF" height="27" style="stroke:#181818;stroke-width:0.9;" width="9" x="1035" y="441.0316"/><polygon fill="#181818" points="169.2,89.0209,178.2,92.6209,169.2,96.2209,172.8,92.6209" style="stroke:#181818;stroke-width:0.9;"/><line style="stroke:#181818;stroke-width:0.9;stroke-dasharray:2.0,2.0;" x1="0" x2="174.6" y1="92.6209" y2="92.6209"/><text fill="#000000" font-family="sans-serif" font-size="11.7" font-weight="bold" lengthAdjust="spacing" textLength="6.3" x="6.3" y="87.8845">1</text><text fill="#000000" font-family="sans-serif" font-size="11.7" lengthAdjust="spacing" textLength="124.2" x="16.2" y="87.8845">post(/building/{id}/floors)</text><polygon fill="#181818" points="270.9,117.1828,279.9,120.7828,270.9,124.3828,274.5,120.7828" style="stroke:#181818;stroke-width:0.9;"/><line style="stroke:#181818;stroke-width:0.9;" x1="189" x2="276.3" y1="120.7828" y2="120.7828"/><text fill="#000000" font-family="sans-serif" font-size="11.7" font-weight="bold" lengthAdjust="spacing" textLength="6.3" x="195.3" y="116.0464">2</text><text fill="#000000" font-family="sans-serif" font-size="11.7" lengthAdjust="spacing" textLength="65.7" x="205.2" y="116.0464">createFloor()</text><polygon fill="#181818" points="388.8,145.3447,397.8,148.9447,388.8,152.5447,392.4,148.9447" style="stroke:#181818;stroke-width:0.9;"/><line style="stroke:#181818;stroke-width:0.9;" x1="290.7" x2="394.2" y1="148.9447" y2="148.9447"/><text fill="#000000" font-family="sans-serif" font-size="11.7" font-weight="bold" lengthAdjust="spacing" textLength="6.3" x="297" y="144.2083">3</text><text fill="#000000" font-family="sans-serif" font-size="11.7" lengthAdjust="spacing" textLength="81.9" x="306.9" y="144.2083">createFloor(dto)</text><polygon fill="#181818" points="738.9,173.5066,747.9,177.1066,738.9,180.7066,742.5,177.1066" style="stroke:#181818;stroke-width:0.9;"/><line style="stroke:#181818;stroke-width:0.9;" x1="408.6" x2="744.3" y1="177.1066" y2="177.1066"/><text fill="#000000" font-family="sans-serif" font-size="11.7" font-weight="bold" lengthAdjust="spacing" textLength="6.3" x="414.9" y="172.3702">4</text><text fill="#000000" font-family="sans-serif" font-size="11.7" lengthAdjust="spacing" textLength="91.8" x="424.8" y="172.3702">find(buildingCode)</text><polygon fill="#181818" points="1024.2,201.6686,1033.2,205.2686,1024.2,208.8686,1027.8,205.2686" style="stroke:#181818;stroke-width:0.9;"/><line style="stroke:#181818;stroke-width:0.9;" x1="758.7" x2="1029.6" y1="205.2686" y2="205.2686"/><text fill="#000000" font-family="sans-serif" font-size="11.7" font-weight="bold" lengthAdjust="spacing" textLength="6.3" x="765" y="200.5321">5</text><text fill="#000000" font-family="sans-serif" font-size="11.7" lengthAdjust="spacing" textLength="91.8" x="774.9" y="200.5321">find(buildingCode)</text><polygon fill="#181818" points="768.6,229.8305,759.6,233.4305,768.6,237.0305,765,233.4305" style="stroke:#181818;stroke-width:0.9;"/><line style="stroke:#181818;stroke-width:0.9;stroke-dasharray:2.0,2.0;" x1="763.2" x2="1038.6" y1="233.4305" y2="233.4305"/><text fill="#000000" font-family="sans-serif" font-size="11.7" font-weight="bold" lengthAdjust="spacing" textLength="6.3" x="774" y="228.694">6</text><text fill="#000000" font-family="sans-serif" font-size="11.7" lengthAdjust="spacing" textLength="39.6" x="783.9" y="228.694">building</text><polygon fill="#181818" points="418.5,257.9924,409.5,261.5924,418.5,265.1924,414.9,261.5924" style="stroke:#181818;stroke-width:0.9;"/><line style="stroke:#181818;stroke-width:0.9;stroke-dasharray:2.0,2.0;" x1="413.1" x2="753.3" y1="261.5924" y2="261.5924"/><text fill="#000000" font-family="sans-serif" font-size="11.7" font-weight="bold" lengthAdjust="spacing" textLength="6.3" x="423.9" y="256.856">7</text><text fill="#000000" font-family="sans-serif" font-size="11.7" lengthAdjust="spacing" textLength="39.6" x="433.8" y="256.856">building</text><path d="M2.7,275.0924 L57.6,275.0924 L57.6,283.4543 L48.6,292.4543 L2.7,292.4543 L2.7,275.0924 " fill="#EEEEEE" style="stroke:#000000;stroke-width:1.35;"/><rect fill="none" height="610.5621" style="stroke:#000000;stroke-width:1.35;" width="1075.95" x="2.7" y="275.0924"/><text fill="#000000" font-family="sans-serif" font-size="11.7" font-weight="bold" lengthAdjust="spacing" textLength="14.4" x="16.2" y="288.6179">alt</text><text fill="#000000" font-family="sans-serif" font-size="9.9" font-weight="bold" lengthAdjust="spacing" textLength="97.2" x="71.1" y="287.5755">[building not found]</text><polygon fill="#181818" points="300.6,309.8162,291.6,313.4162,300.6,317.0162,297,313.4162" style="stroke:#181818;stroke-width:0.9;"/><line style="stroke:#181818;stroke-width:0.9;stroke-dasharray:2.0,2.0;" x1="295.2" x2="398.7" y1="313.4162" y2="313.4162"/><text fill="#000000" font-family="sans-serif" font-size="11.7" font-weight="bold" lengthAdjust="spacing" textLength="6.3" x="306" y="308.6798">8</text><text fill="#000000" font-family="sans-serif" font-size="11.7" lengthAdjust="spacing" textLength="23.4" x="315.9" y="308.6798">error</text><polygon fill="#181818" points="198.9,337.9781,189.9,341.5781,198.9,345.1781,195.3,341.5781" style="stroke:#181818;stroke-width:0.9;"/><line style="stroke:#181818;stroke-width:0.9;stroke-dasharray:2.0,2.0;" x1="193.5" x2="280.8" y1="341.5781" y2="341.5781"/><text fill="#000000" font-family="sans-serif" font-size="11.7" font-weight="bold" lengthAdjust="spacing" textLength="6.3" x="204.3" y="336.8417">9</text><text fill="#000000" font-family="sans-serif" font-size="11.7" lengthAdjust="spacing" textLength="53.1" x="214.2" y="336.8417">error (404)</text><polygon fill="#181818" points="9.9,366.14,0.9,369.74,9.9,373.34,6.3,369.74" style="stroke:#181818;stroke-width:0.9;"/><line style="stroke:#181818;stroke-width:0.9;stroke-dasharray:2.0,2.0;" x1="4.5" x2="179.1" y1="369.74" y2="369.74"/><text fill="#000000" font-family="sans-serif" font-size="11.7" font-weight="bold" lengthAdjust="spacing" textLength="12.6" x="15.3" y="365.0036">10</text><text fill="#000000" font-family="sans-serif" font-size="11.7" lengthAdjust="spacing" textLength="70.2" x="31.5" y="365.0036">404 not found</text><line style="stroke:#000000;stroke-width:0.9;stroke-dasharray:2.0,2.0;" x1="2.7" x2="1078.65" y1="377.84" y2="377.84"/><text fill="#000000" font-family="sans-serif" font-size="9.9" font-weight="bold" lengthAdjust="spacing" textLength="136.8" x="7.2" y="388.5231">[floor created successfully]</text><polygon fill="#181818" points="738.9,409.2697,747.9,412.8697,738.9,416.4697,742.5,412.8697" style="stroke:#181818;stroke-width:0.9;"/><line style="stroke:#181818;stroke-width:0.9;" x1="408.6" x2="744.3" y1="412.8697" y2="412.8697"/><text fill="#000000" font-family="sans-serif" font-size="11.7" font-weight="bold" lengthAdjust="spacing" textLength="12.6" x="414.9" y="408.1333">11</text><text fill="#000000" font-family="sans-serif" font-size="11.7" lengthAdjust="spacing" textLength="239.4" x="431.1" y="408.1333">findByCodeNumber(buildingCode,floorNumber)</text><polygon fill="#181818" points="1024.2,437.4316,1033.2,441.0316,1024.2,444.6316,1027.8,441.0316" style="stroke:#181818;stroke-width:0.9;"/><line style="stroke:#181818;stroke-width:0.9;" x1="758.7" x2="1029.6" y1="441.0316" y2="441.0316"/><text fill="#000000" font-family="sans-serif" font-size="11.7" font-weight="bold" lengthAdjust="spacing" textLength="12.6" x="765" y="436.2952">12</text><text fill="#000000" font-family="sans-serif" font-size="11.7" lengthAdjust="spacing" textLength="243" x="781.2" y="436.2952">findByCodeNumber((buildingCode,floorNumber)</text><path d="M2.7,481.5316 L57.6,481.5316 L57.6,489.8936 L48.6,498.8936 L2.7,498.8936 L2.7,481.5316 " fill="#EEEEEE" style="stroke:#000000;stroke-width:1.35;"/><rect fill="none" height="397.8229" style="stroke:#000000;stroke-width:1.35;" width="797.4" x="2.7" y="481.5316"/><text fill="#000000" font-family="sans-serif" font-size="11.7" font-weight="bold" lengthAdjust="spacing" textLength="14.4" x="16.2" y="495.0571">alt</text><text fill="#000000" font-family="sans-serif" font-size="9.9" font-weight="bold" lengthAdjust="spacing" textLength="102.6" x="71.1" y="494.0147">[floor already exists]</text><polygon fill="#181818" points="300.6,516.2555,291.6,519.8555,300.6,523.4555,297,519.8555" style="stroke:#181818;stroke-width:0.9;"/><line style="stroke:#181818;stroke-width:0.9;stroke-dasharray:2.0,2.0;" x1="295.2" x2="398.7" y1="519.8555" y2="519.8555"/><text fill="#000000" font-family="sans-serif" font-size="11.7" font-weight="bold" lengthAdjust="spacing" textLength="12.6" x="306" y="515.119">13</text><text fill="#000000" font-family="sans-serif" font-size="11.7" lengthAdjust="spacing" textLength="23.4" x="322.2" y="515.119">error</text><polygon fill="#181818" points="198.9,544.4174,189.9,548.0174,198.9,551.6174,195.3,548.0174" style="stroke:#181818;stroke-width:0.9;"/><line style="stroke:#181818;stroke-width:0.9;stroke-dasharray:2.0,2.0;" x1="193.5" x2="280.8" y1="548.0174" y2="548.0174"/><text fill="#000000" font-family="sans-serif" font-size="11.7" font-weight="bold" lengthAdjust="spacing" textLength="12.6" x="204.3" y="543.281">14</text><text fill="#000000" font-family="sans-serif" font-size="11.7" lengthAdjust="spacing" textLength="53.1" x="220.5" y="543.281">error (422)</text><polygon fill="#181818" points="9.9,572.5793,0.9,576.1793,9.9,579.7793,6.3,576.1793" style="stroke:#181818;stroke-width:0.9;"/><line style="stroke:#181818;stroke-width:0.9;stroke-dasharray:2.0,2.0;" x1="4.5" x2="179.1" y1="576.1793" y2="576.1793"/><text fill="#000000" font-family="sans-serif" font-size="11.7" font-weight="bold" lengthAdjust="spacing" textLength="12.6" x="15.3" y="571.4429">15</text><text fill="#000000" font-family="sans-serif" font-size="11.7" lengthAdjust="spacing" textLength="140.4" x="31.5" y="571.4429">422 unprocessable content</text><line style="stroke:#000000;stroke-width:0.9;stroke-dasharray:2.0,2.0;" x1="2.7" x2="800.1" y1="584.2793" y2="584.2793"/><text fill="#000000" font-family="sans-serif" font-size="9.9" font-weight="bold" lengthAdjust="spacing" textLength="136.8" x="7.2" y="594.9624">[floor created successfully]</text><polygon fill="#181818" points="475.2,615.709,484.2,619.309,475.2,622.909,478.8,619.309" style="stroke:#181818;stroke-width:0.9;"/><line style="stroke:#181818;stroke-width:0.9;stroke-dasharray:2.0,2.0;" x1="408.6" x2="480.6" y1="619.309" y2="619.309"/><text fill="#000000" font-family="sans-serif" font-size="11.7" font-weight="bold" lengthAdjust="spacing" textLength="12.6" x="414.9" y="614.5726">16</text><text fill="#000000" font-family="sans-serif" font-size="11.7" lengthAdjust="spacing" textLength="39.6" x="431.1" y="614.5726">create()</text><rect fill="#E2E2F0" height="46.118" rx="2.25" ry="2.25" style="stroke:#181818;stroke-width:0.45;" width="42.3" x="486" y="598.3471"/><text fill="#000000" font-family="sans-serif" font-size="12.6" lengthAdjust="spacing" textLength="28.8" x="492.75" y="618.2438">floor:</text><text fill="#000000" font-family="sans-serif" font-size="12.6" lengthAdjust="spacing" textLength="29.7" x="492.3" y="635.0027">Floor</text><polygon fill="#181818" points="738.9,671.727,747.9,675.327,738.9,678.927,742.5,675.327" style="stroke:#181818;stroke-width:0.9;"/><line style="stroke:#181818;stroke-width:0.9;" x1="408.6" x2="744.3" y1="675.327" y2="675.327"/><text fill="#000000" font-family="sans-serif" font-size="11.7" font-weight="bold" lengthAdjust="spacing" textLength="12.6" x="414.9" y="670.5905">17</text><text fill="#000000" font-family="sans-serif" font-size="11.7" lengthAdjust="spacing" textLength="52.2" x="431.1" y="670.5905">save(floor)</text><polygon fill="#181818" points="549.9,699.8889,558.9,703.4889,549.9,707.0889,553.5,703.4889" style="stroke:#181818;stroke-width:0.9;"/><line style="stroke:#181818;stroke-width:0.9;" x1="408.6" x2="555.3" y1="703.4889" y2="703.4889"/><text fill="#000000" font-family="sans-serif" font-size="11.7" font-weight="bold" lengthAdjust="spacing" textLength="12.6" x="414.9" y="698.7524">18</text><text fill="#000000" font-family="sans-serif" font-size="11.7" lengthAdjust="spacing" textLength="62.1" x="431.1" y="698.7524">toDTO(floor)</text><polygon fill="#181818" points="657.9,728.0508,666.9,731.6508,657.9,735.2508,661.5,731.6508" style="stroke:#181818;stroke-width:0.9;"/><line style="stroke:#181818;stroke-width:0.9;stroke-dasharray:2.0,2.0;" x1="569.7" x2="663.3" y1="731.6508" y2="731.6508"/><text fill="#000000" font-family="sans-serif" font-size="11.7" font-weight="bold" lengthAdjust="spacing" textLength="12.6" x="576" y="726.9144">19</text><text fill="#000000" font-family="sans-serif" font-size="11.7" lengthAdjust="spacing" textLength="61.2" x="592.2" y="726.9144">create(floor)</text><rect fill="#E2E2F0" height="46.118" rx="2.25" ry="2.25" style="stroke:#181818;stroke-width:0.45;" width="39.6" x="668.7" y="710.6889"/><text fill="#000000" font-family="sans-serif" font-size="12.6" lengthAdjust="spacing" textLength="21.6" x="677.7" y="730.5855">dto:</text><text fill="#000000" font-family="sans-serif" font-size="12.6" lengthAdjust="spacing" textLength="27" x="675" y="747.3445">DTO</text><polygon fill="#181818" points="418.5,784.0688,409.5,787.6688,418.5,791.2688,414.9,787.6688" style="stroke:#181818;stroke-width:0.9;"/><line style="stroke:#181818;stroke-width:0.9;stroke-dasharray:2.0,2.0;" x1="413.1" x2="564.3" y1="787.6688" y2="787.6688"/><text fill="#000000" font-family="sans-serif" font-size="11.7" font-weight="bold" lengthAdjust="spacing" textLength="12.6" x="423.9" y="782.9323">20</text><text fill="#000000" font-family="sans-serif" font-size="11.7" lengthAdjust="spacing" textLength="16.2" x="440.1" y="782.9323">dto</text><polygon fill="#181818" points="300.6,812.2307,291.6,815.8307,300.6,819.4307,297,815.8307" style="stroke:#181818;stroke-width:0.9;"/><line style="stroke:#181818;stroke-width:0.9;stroke-dasharray:2.0,2.0;" x1="295.2" x2="398.7" y1="815.8307" y2="815.8307"/><text fill="#000000" font-family="sans-serif" font-size="11.7" font-weight="bold" lengthAdjust="spacing" textLength="12.6" x="306" y="811.0942">21</text><text fill="#000000" font-family="sans-serif" font-size="11.7" lengthAdjust="spacing" textLength="16.2" x="322.2" y="811.0942">dto</text><polygon fill="#181818" points="198.9,840.3926,189.9,843.9926,198.9,847.5926,195.3,843.9926" style="stroke:#181818;stroke-width:0.9;"/><line style="stroke:#181818;stroke-width:0.9;stroke-dasharray:2.0,2.0;" x1="193.5" x2="280.8" y1="843.9926" y2="843.9926"/><text fill="#000000" font-family="sans-serif" font-size="11.7" font-weight="bold" lengthAdjust="spacing" textLength="12.6" x="204.3" y="839.2562">22</text><text fill="#000000" font-family="sans-serif" font-size="11.7" lengthAdjust="spacing" textLength="45.9" x="220.5" y="839.2562">dto (201)</text><polygon fill="#181818" points="9.9,868.5545,0.9,872.1545,9.9,875.7545,6.3,872.1545" style="stroke:#181818;stroke-width:0.9;"/><line style="stroke:#181818;stroke-width:0.9;stroke-dasharray:2.0,2.0;" x1="4.5" x2="179.1" y1="872.1545" y2="872.1545"/><text fill="#000000" font-family="sans-serif" font-size="11.7" font-weight="bold" lengthAdjust="spacing" textLength="12.6" x="15.3" y="867.4181">23</text><text fill="#000000" font-family="sans-serif" font-size="11.7" lengthAdjust="spacing" textLength="63" x="31.5" y="867.4181">201 Created</text><!--SRC=[jLLDZzCm4BtdLunw8LaHTOds5A4zq1KtG09koyM9tPKbhntPJaM5-E-CxJHhj_aeWlMbTURDcw-N2UcjalrpmtIMTKHRtlAEI0kRhwgtR0F4W4uDEoMjLa8mxQsjrI85V6FwmDlWQmxj6UzUAANh7_AZ-_KO_oG5VI9TD_0_aowrKQlG_U7x5s_6stdYh5E6MwMF8NkyPfHOqX33OFCm_0lEJPOzbkKzw1hGoURRfkU2Slcq_SNfxwtFp1GPu26jvGTY6RO3XgC1NLtzK4Eh6HfzKNan8aOdtoM8ZdT3TspGcJTML2JGaSGr4ywEytS5O9N8i-UIvgSQTegouiBXfGxN69WudWivQNCLOKAA7PsoqmRA8SiQJdJJIBR65T8BhLiWYuXyfPUD47Rq1gaix5KlwMH8t-INMJEjbPu4XgcwIaymoEzkxwQRzlY-B1qE0GlncK3PUY4EAg5W-hPbnknx8Oxp-Tw7Rhi9VZYwqNtshtaopRUUE1XM9ZihbrGoK5y4_Ck8r-ZfEgMSIs1A0Q6pH61hwH7OJswiUGKDLDMA1geAUjbfvGPB6e4R0zSia_R_wG4pycutD-F2oOi5-PnsYY47bdlFVr78m8dR72cjmlMznBdwyYQ1tITYBguBw4h7hHeNlX0xrP-TBocc3sjy2HtBTGOMGLn9ryXmZYeH8O8WhsxVBKiG0R0BYheKdLn_5cKVVwYYn-D7C1vlbhs9hZtF_W00]--></g></svg>