<?xml version="1.0" encoding="us-ascii" standalone="no"?><svg xmlns="http://www.w3.org/2000/svg" xmlns:xlink="http://www.w3.org/1999/xlink" contentStyleType="text/css" height="1143px" preserveAspectRatio="none" style="width:767px;height:1143px;background:#FFFFFF;" version="1.1" viewBox="0 0 767 1143" width="767px" zoomAndPan="magnify"><defs/><g><rect fill="#FFFFFF" height="953.5371" style="stroke:#181818;stroke-width:1.0;" width="10" x="88" y="91.4883"/><rect fill="#FFFFFF" height="191.8184" style="stroke:#181818;stroke-width:1.0;" width="10" x="379" y="112.7988"/><rect fill="#FFFFFF" height="152.5527" style="stroke:#181818;stroke-width:1.0;" width="10" x="379" y="333.9277"/><rect fill="#FFFFFF" height="152.5527" style="stroke:#181818;stroke-width:1.0;" width="10" x="379" y="515.791"/><rect fill="#FFFFFF" height="29.3105" style="stroke:#181818;stroke-width:1.0;" width="10" x="379" y="697.6543"/><rect fill="#FFFFFF" height="288.75" style="stroke:#181818;stroke-width:1.0;" width="10" x="379" y="756.2754"/><rect fill="#FFFFFF" height="130.1973" style="stroke:#181818;stroke-width:1.0;" width="10" x="556" y="145.1094"/><rect fill="#FFFFFF" height="32.3105" style="stroke:#181818;stroke-width:1.0;" width="10" x="556" y="366.2383"/><rect fill="#FFFFFF" height="29.3105" style="stroke:#181818;stroke-width:1.0;" width="10" x="556" y="427.8594"/><rect fill="#FFFFFF" height="32.3105" style="stroke:#181818;stroke-width:1.0;" width="10" x="556" y="548.1016"/><rect fill="#FFFFFF" height="29.3105" style="stroke:#181818;stroke-width:1.0;" width="10" x="556" y="609.7227"/><rect fill="#FFFFFF" height="259.4395" style="stroke:#181818;stroke-width:1.0;" width="10" x="556" y="785.5859"/><rect fill="#FFFFFF" height="230.1289" style="stroke:#181818;stroke-width:1.0;" width="10" x="677" y="814.8965"/><rect fill="none" height="881.916" style="stroke:#000000;stroke-width:1.5;" width="750" x="10" y="163.1094"/><rect fill="none" height="208.1289" style="stroke:#000000;stroke-width:1.5;" width="694.5" x="20" y="829.8965"/><line style="stroke:#181818;stroke-width:0.5;stroke-dasharray:5.0,5.0;" x1="93" x2="93" y1="81.4883" y2="1062.0254"/><line style="stroke:#181818;stroke-width:0.5;stroke-dasharray:5.0,5.0;" x1="384" x2="384" y1="81.4883" y2="1062.0254"/><line style="stroke:#181818;stroke-width:0.5;stroke-dasharray:5.0,5.0;" x1="560.5" x2="560.5" y1="81.4883" y2="1062.0254"/><line style="stroke:#181818;stroke-width:0.5;stroke-dasharray:5.0,5.0;" x1="681.5" x2="681.5" y1="81.4883" y2="1062.0254"/><text fill="#000000" font-family="sans-serif" font-size="14" lengthAdjust="spacing" textLength="120" x="30" y="78.5352">Campus Manager</text><ellipse cx="93" cy="13.5" fill="#E2E2F0" rx="8" ry="8" style="stroke:#181818;stroke-width:0.5;"/><path d="M93,21.5 L93,48.5 M80,29.5 L106,29.5 M93,48.5 L80,63.5 M93,48.5 L106,63.5 " fill="none" style="stroke:#181818;stroke-width:0.5;"/><text fill="#000000" font-family="sans-serif" font-size="14" lengthAdjust="spacing" textLength="120" x="30" y="1074.5605">Campus Manager</text><ellipse cx="93" cy="1086.0137" fill="#E2E2F0" rx="8" ry="8" style="stroke:#181818;stroke-width:0.5;"/><path d="M93,1094.0137 L93,1121.0137 M80,1102.0137 L106,1102.0137 M93,1121.0137 L80,1136.0137 M93,1121.0137 L106,1136.0137 " fill="none" style="stroke:#181818;stroke-width:0.5;"/><rect fill="#E2E2F0" height="30.4883" rx="2.5" ry="2.5" style="stroke:#181818;stroke-width:0.5;" width="40" x="364" y="50"/><text fill="#000000" font-family="sans-serif" font-size="14" lengthAdjust="spacing" textLength="26" x="371" y="70.5352">SPA</text><rect fill="#E2E2F0" height="30.4883" rx="2.5" ry="2.5" style="stroke:#181818;stroke-width:0.5;" width="40" x="364" y="1061.0254"/><text fill="#000000" font-family="sans-serif" font-size="14" lengthAdjust="spacing" textLength="26" x="371" y="1081.5605">SPA</text><rect fill="#E2E2F0" height="30.4883" rx="2.5" ry="2.5" style="stroke:#181818;stroke-width:0.5;" width="45" x="538.5" y="50"/><text fill="#000000" font-family="sans-serif" font-size="14" lengthAdjust="spacing" textLength="31" x="545.5" y="70.5352">MDR</text><rect fill="#E2E2F0" height="30.4883" rx="2.5" ry="2.5" style="stroke:#181818;stroke-width:0.5;" width="45" x="538.5" y="1061.0254"/><text fill="#000000" font-family="sans-serif" font-size="14" lengthAdjust="spacing" textLength="31" x="545.5" y="1081.5605">MDR</text><rect fill="#E2E2F0" height="30.4883" rx="2.5" ry="2.5" style="stroke:#181818;stroke-width:0.5;" width="45" x="659.5" y="50"/><text fill="#000000" font-family="sans-serif" font-size="14" lengthAdjust="spacing" textLength="31" x="666.5" y="70.5352">MDT</text><rect fill="#E2E2F0" height="30.4883" rx="2.5" ry="2.5" style="stroke:#181818;stroke-width:0.5;" width="45" x="659.5" y="1061.0254"/><text fill="#000000" font-family="sans-serif" font-size="14" lengthAdjust="spacing" textLength="31" x="666.5" y="1081.5605">MDT</text><rect fill="#FFFFFF" height="953.5371" style="stroke:#181818;stroke-width:1.0;" width="10" x="88" y="91.4883"/><rect fill="#FFFFFF" height="191.8184" style="stroke:#181818;stroke-width:1.0;" width="10" x="379" y="112.7988"/><rect fill="#FFFFFF" height="152.5527" style="stroke:#181818;stroke-width:1.0;" width="10" x="379" y="333.9277"/><rect fill="#FFFFFF" height="152.5527" style="stroke:#181818;stroke-width:1.0;" width="10" x="379" y="515.791"/><rect fill="#FFFFFF" height="29.3105" style="stroke:#181818;stroke-width:1.0;" width="10" x="379" y="697.6543"/><rect fill="#FFFFFF" height="288.75" style="stroke:#181818;stroke-width:1.0;" width="10" x="379" y="756.2754"/><rect fill="#FFFFFF" height="130.1973" style="stroke:#181818;stroke-width:1.0;" width="10" x="556" y="145.1094"/><rect fill="#FFFFFF" height="32.3105" style="stroke:#181818;stroke-width:1.0;" width="10" x="556" y="366.2383"/><rect fill="#FFFFFF" height="29.3105" style="stroke:#181818;stroke-width:1.0;" width="10" x="556" y="427.8594"/><rect fill="#FFFFFF" height="32.3105" style="stroke:#181818;stroke-width:1.0;" width="10" x="556" y="548.1016"/><rect fill="#FFFFFF" height="29.3105" style="stroke:#181818;stroke-width:1.0;" width="10" x="556" y="609.7227"/><rect fill="#FFFFFF" height="259.4395" style="stroke:#181818;stroke-width:1.0;" width="10" x="556" y="785.5859"/><rect fill="#FFFFFF" height="230.1289" style="stroke:#181818;stroke-width:1.0;" width="10" x="677" y="814.8965"/><polygon fill="#181818" points="367,108.7988,377,112.7988,367,116.7988,371,112.7988" style="stroke:#181818;stroke-width:1.0;"/><line style="stroke:#181818;stroke-width:1.0;" x1="98" x2="373" y1="112.7988" y2="112.7988"/><text fill="#000000" font-family="sans-serif" font-size="13" font-weight="bold" lengthAdjust="spacing" textLength="9" x="105" y="108.0566">1</text><text fill="#000000" font-family="sans-serif" font-size="13" lengthAdjust="spacing" textLength="177" x="118" y="108.0566">wants to register a new task</text><polygon fill="#181818" points="544,141.1094,554,145.1094,544,149.1094,548,145.1094" style="stroke:#181818;stroke-width:1.0;"/><line style="stroke:#181818;stroke-width:1.0;" x1="389" x2="550" y1="145.1094" y2="145.1094"/><text fill="#000000" font-family="sans-serif" font-size="13" font-weight="bold" lengthAdjust="spacing" textLength="9" x="396" y="140.3672">2</text><text fill="#000000" font-family="sans-serif" font-size="13" lengthAdjust="spacing" textLength="94" x="409" y="140.3672">GET /buildings</text><path d="M571,125.7988 L571,150.7988 L755,150.7988 L755,135.7988 L745,125.7988 L571,125.7988 " fill="#FEFFDD" style="stroke:#181818;stroke-width:0.5;"/><path d="M745,125.7988 L745,135.7988 L755,135.7988 L745,125.7988 " fill="#FEFFDD" style="stroke:#181818;stroke-width:0.5;"/><text fill="#000000" font-family="sans-serif" font-size="13" lengthAdjust="spacing" textLength="163" x="577" y="143.3672">see us170 documentation</text><path d="M10,163.1094 L72,163.1094 L72,170.4199 L62,180.4199 L10,180.4199 L10,163.1094 " fill="#EEEEEE" style="stroke:#000000;stroke-width:1.5;"/><rect fill="none" height="881.916" style="stroke:#000000;stroke-width:1.5;" width="750" x="10" y="163.1094"/><text fill="#000000" font-family="sans-serif" font-size="13" font-weight="bold" lengthAdjust="spacing" textLength="17" x="25" y="176.6777">alt</text><text fill="#000000" font-family="sans-serif" font-size="11" font-weight="bold" lengthAdjust="spacing" textLength="128" x="87" y="175.7441">[building(s) not found]</text><polygon fill="#181818" points="400,197.7305,390,201.7305,400,205.7305,396,201.7305" style="stroke:#181818;stroke-width:1.0;"/><line style="stroke:#181818;stroke-width:1.0;stroke-dasharray:2.0,2.0;" x1="394" x2="555" y1="201.7305" y2="201.7305"/><text fill="#000000" font-family="sans-serif" font-size="13" font-weight="bold" lengthAdjust="spacing" textLength="9" x="406" y="196.9883">3</text><text fill="#000000" font-family="sans-serif" font-size="13" lengthAdjust="spacing" textLength="62" x="419" y="196.9883">404: error</text><polygon fill="#181818" points="109,227.041,99,231.041,109,235.041,105,231.041" style="stroke:#181818;stroke-width:1.0;"/><line style="stroke:#181818;stroke-width:1.0;stroke-dasharray:2.0,2.0;" x1="103" x2="378" y1="231.041" y2="231.041"/><text fill="#000000" font-family="sans-serif" font-size="13" font-weight="bold" lengthAdjust="spacing" textLength="9" x="115" y="226.2988">4</text><text fill="#000000" font-family="sans-serif" font-size="13" lengthAdjust="spacing" textLength="83" x="128" y="226.2988">informs error</text><line style="stroke:#000000;stroke-width:1.0;stroke-dasharray:2.0,2.0;" x1="10" x2="760" y1="240.041" y2="240.041"/><text fill="#000000" font-family="sans-serif" font-size="11" font-weight="bold" lengthAdjust="spacing" textLength="106" x="15" y="250.6758">[building(s) found]</text><polygon fill="#181818" points="400,271.3066,390,275.3066,400,279.3066,396,275.3066" style="stroke:#181818;stroke-width:1.0;"/><line style="stroke:#181818;stroke-width:1.0;stroke-dasharray:2.0,2.0;" x1="394" x2="560" y1="275.3066" y2="275.3066"/><text fill="#000000" font-family="sans-serif" font-size="13" font-weight="bold" lengthAdjust="spacing" textLength="9" x="406" y="270.5645">5</text><text fill="#000000" font-family="sans-serif" font-size="13" lengthAdjust="spacing" textLength="91" x="419" y="270.5645">200: buildings</text><polygon fill="#181818" points="109,300.6172,99,304.6172,109,308.6172,105,304.6172" style="stroke:#181818;stroke-width:1.0;"/><line style="stroke:#181818;stroke-width:1.0;stroke-dasharray:2.0,2.0;" x1="103" x2="383" y1="304.6172" y2="304.6172"/><text fill="#000000" font-family="sans-serif" font-size="13" font-weight="bold" lengthAdjust="spacing" textLength="9" x="115" y="299.875">6</text><text fill="#000000" font-family="sans-serif" font-size="13" lengthAdjust="spacing" textLength="244" x="128" y="299.875">requests pickup and delivery buildings</text><polygon fill="#181818" points="367,329.9277,377,333.9277,367,337.9277,371,333.9277" style="stroke:#181818;stroke-width:1.0;"/><line style="stroke:#181818;stroke-width:1.0;" x1="98" x2="373" y1="333.9277" y2="333.9277"/><text fill="#000000" font-family="sans-serif" font-size="13" font-weight="bold" lengthAdjust="spacing" textLength="9" x="105" y="329.1855">7</text><text fill="#000000" font-family="sans-serif" font-size="13" lengthAdjust="spacing" textLength="117" x="118" y="329.1855">provides buildings</text><polygon fill="#181818" points="544,362.2383,554,366.2383,544,370.2383,548,366.2383" style="stroke:#181818;stroke-width:1.0;"/><line style="stroke:#181818;stroke-width:1.0;" x1="389" x2="550" y1="366.2383" y2="366.2383"/><text fill="#000000" font-family="sans-serif" font-size="13" font-weight="bold" lengthAdjust="spacing" textLength="9" x="396" y="361.4961">8</text><text fill="#000000" font-family="sans-serif" font-size="13" lengthAdjust="spacing" textLength="72" x="409" y="361.4961">GET /floors</text><path d="M571,346.9277 L571,371.9277 L755,371.9277 L755,356.9277 L745,346.9277 L571,346.9277 " fill="#FEFFDD" style="stroke:#181818;stroke-width:0.5;"/><path d="M745,346.9277 L745,356.9277 L755,356.9277 L745,346.9277 " fill="#FEFFDD" style="stroke:#181818;stroke-width:0.5;"/><text fill="#000000" font-family="sans-serif" font-size="13" lengthAdjust="spacing" textLength="163" x="577" y="364.4961">see us210 documentation</text><polygon fill="#181818" points="400,394.5488,390,398.5488,400,402.5488,396,398.5488" style="stroke:#181818;stroke-width:1.0;"/><line style="stroke:#181818;stroke-width:1.0;stroke-dasharray:2.0,2.0;" x1="394" x2="560" y1="398.5488" y2="398.5488"/><text fill="#000000" font-family="sans-serif" font-size="13" font-weight="bold" lengthAdjust="spacing" textLength="9" x="406" y="393.8066">9</text><text fill="#000000" font-family="sans-serif" font-size="13" lengthAdjust="spacing" textLength="69" x="419" y="393.8066">200: floors</text><polygon fill="#181818" points="544,423.8594,554,427.8594,544,431.8594,548,427.8594" style="stroke:#181818;stroke-width:1.0;"/><line style="stroke:#181818;stroke-width:1.0;" x1="389" x2="550" y1="427.8594" y2="427.8594"/><text fill="#000000" font-family="sans-serif" font-size="13" font-weight="bold" lengthAdjust="spacing" textLength="18" x="396" y="423.1172">10</text><text fill="#000000" font-family="sans-serif" font-size="13" lengthAdjust="spacing" textLength="72" x="418" y="423.1172">GET /floors</text><polygon fill="#181818" points="400,453.1699,390,457.1699,400,461.1699,396,457.1699" style="stroke:#181818;stroke-width:1.0;"/><line style="stroke:#181818;stroke-width:1.0;stroke-dasharray:2.0,2.0;" x1="394" x2="560" y1="457.1699" y2="457.1699"/><text fill="#000000" font-family="sans-serif" font-size="13" font-weight="bold" lengthAdjust="spacing" textLength="18" x="406" y="452.4277">11</text><text fill="#000000" font-family="sans-serif" font-size="13" lengthAdjust="spacing" textLength="69" x="428" y="452.4277">200: floors</text><polygon fill="#181818" points="109,482.4805,99,486.4805,109,490.4805,105,486.4805" style="stroke:#181818;stroke-width:1.0;"/><line style="stroke:#181818;stroke-width:1.0;stroke-dasharray:2.0,2.0;" x1="103" x2="383" y1="486.4805" y2="486.4805"/><text fill="#000000" font-family="sans-serif" font-size="13" font-weight="bold" lengthAdjust="spacing" textLength="18" x="115" y="481.7383">12</text><text fill="#000000" font-family="sans-serif" font-size="13" lengthAdjust="spacing" textLength="222" x="137" y="481.7383">requests pickup and delivery floors</text><polygon fill="#181818" points="367,511.791,377,515.791,367,519.791,371,515.791" style="stroke:#181818;stroke-width:1.0;"/><line style="stroke:#181818;stroke-width:1.0;" x1="98" x2="373" y1="515.791" y2="515.791"/><text fill="#000000" font-family="sans-serif" font-size="13" font-weight="bold" lengthAdjust="spacing" textLength="18" x="105" y="511.0488">13</text><text fill="#000000" font-family="sans-serif" font-size="13" lengthAdjust="spacing" textLength="95" x="127" y="511.0488">provides floors</text><polygon fill="#181818" points="544,544.1016,554,548.1016,544,552.1016,548,548.1016" style="stroke:#181818;stroke-width:1.0;"/><line style="stroke:#181818;stroke-width:1.0;" x1="389" x2="550" y1="548.1016" y2="548.1016"/><text fill="#000000" font-family="sans-serif" font-size="13" font-weight="bold" lengthAdjust="spacing" textLength="18" x="396" y="543.3594">14</text><text fill="#000000" font-family="sans-serif" font-size="13" lengthAdjust="spacing" textLength="75" x="418" y="543.3594">GET /rooms</text><path d="M571,528.791 L571,553.791 L755,553.791 L755,538.791 L745,528.791 L571,528.791 " fill="#FEFFDD" style="stroke:#181818;stroke-width:0.5;"/><path d="M745,528.791 L745,538.791 L755,538.791 L745,528.791 " fill="#FEFFDD" style="stroke:#181818;stroke-width:0.5;"/><text fill="#000000" font-family="sans-serif" font-size="13" lengthAdjust="spacing" textLength="163" x="577" y="546.3594">see us320 documentation</text><polygon fill="#181818" points="400,576.4121,390,580.4121,400,584.4121,396,580.4121" style="stroke:#181818;stroke-width:1.0;"/><line style="stroke:#181818;stroke-width:1.0;stroke-dasharray:2.0,2.0;" x1="394" x2="560" y1="580.4121" y2="580.4121"/><text fill="#000000" font-family="sans-serif" font-size="13" font-weight="bold" lengthAdjust="spacing" textLength="18" x="406" y="575.6699">15</text><text fill="#000000" font-family="sans-serif" font-size="13" lengthAdjust="spacing" textLength="72" x="428" y="575.6699">200: rooms</text><polygon fill="#181818" points="544,605.7227,554,609.7227,544,613.7227,548,609.7227" style="stroke:#181818;stroke-width:1.0;"/><line style="stroke:#181818;stroke-width:1.0;" x1="389" x2="550" y1="609.7227" y2="609.7227"/><text fill="#000000" font-family="sans-serif" font-size="13" font-weight="bold" lengthAdjust="spacing" textLength="18" x="396" y="604.9805">16</text><text fill="#000000" font-family="sans-serif" font-size="13" lengthAdjust="spacing" textLength="75" x="418" y="604.9805">GET /rooms</text><polygon fill="#181818" points="400,635.0332,390,639.0332,400,643.0332,396,639.0332" style="stroke:#181818;stroke-width:1.0;"/><line style="stroke:#181818;stroke-width:1.0;stroke-dasharray:2.0,2.0;" x1="394" x2="560" y1="639.0332" y2="639.0332"/><text fill="#000000" font-family="sans-serif" font-size="13" font-weight="bold" lengthAdjust="spacing" textLength="18" x="406" y="634.291">17</text><text fill="#000000" font-family="sans-serif" font-size="13" lengthAdjust="spacing" textLength="72" x="428" y="634.291">200: rooms</text><polygon fill="#181818" points="109,664.3438,99,668.3438,109,672.3438,105,668.3438" style="stroke:#181818;stroke-width:1.0;"/><line style="stroke:#181818;stroke-width:1.0;stroke-dasharray:2.0,2.0;" x1="103" x2="383" y1="668.3438" y2="668.3438"/><text fill="#000000" font-family="sans-serif" font-size="13" font-weight="bold" lengthAdjust="spacing" textLength="18" x="115" y="663.6016">18</text><text fill="#000000" font-family="sans-serif" font-size="13" lengthAdjust="spacing" textLength="225" x="137" y="663.6016">requests pickup and delivery rooms</text><polygon fill="#181818" points="367,693.6543,377,697.6543,367,701.6543,371,697.6543" style="stroke:#181818;stroke-width:1.0;"/><line style="stroke:#181818;stroke-width:1.0;" x1="98" x2="373" y1="697.6543" y2="697.6543"/><text fill="#000000" font-family="sans-serif" font-size="13" font-weight="bold" lengthAdjust="spacing" textLength="18" x="105" y="692.9121">19</text><text fill="#000000" font-family="sans-serif" font-size="13" lengthAdjust="spacing" textLength="98" x="127" y="692.9121">provides rooms</text><polygon fill="#181818" points="109,722.9648,99,726.9648,109,730.9648,105,726.9648" style="stroke:#181818;stroke-width:1.0;"/><line style="stroke:#181818;stroke-width:1.0;stroke-dasharray:2.0,2.0;" x1="103" x2="383" y1="726.9648" y2="726.9648"/><text fill="#000000" font-family="sans-serif" font-size="13" font-weight="bold" lengthAdjust="spacing" textLength="18" x="115" y="722.2227">20</text><text fill="#000000" font-family="sans-serif" font-size="13" lengthAdjust="spacing" textLength="131" x="137" y="722.2227">requests task details</text><polygon fill="#181818" points="367,752.2754,377,756.2754,367,760.2754,371,756.2754" style="stroke:#181818;stroke-width:1.0;"/><line style="stroke:#181818;stroke-width:1.0;" x1="98" x2="373" y1="756.2754" y2="756.2754"/><text fill="#000000" font-family="sans-serif" font-size="13" font-weight="bold" lengthAdjust="spacing" textLength="18" x="105" y="751.5332">21</text><text fill="#000000" font-family="sans-serif" font-size="13" lengthAdjust="spacing" textLength="131" x="127" y="751.5332">provides task details</text><polygon fill="#181818" points="544,781.5859,554,785.5859,544,789.5859,548,785.5859" style="stroke:#181818;stroke-width:1.0;"/><line style="stroke:#181818;stroke-width:1.0;" x1="389" x2="550" y1="785.5859" y2="785.5859"/><text fill="#000000" font-family="sans-serif" font-size="13" font-weight="bold" lengthAdjust="spacing" textLength="18" x="396" y="780.8438">22</text><text fill="#000000" font-family="sans-serif" font-size="13" lengthAdjust="spacing" textLength="126" x="418" y="780.8438">POST /task/delivery</text><polygon fill="#181818" points="665,810.8965,675,814.8965,665,818.8965,669,814.8965" style="stroke:#181818;stroke-width:1.0;"/><line style="stroke:#181818;stroke-width:1.0;" x1="566" x2="671" y1="814.8965" y2="814.8965"/><text fill="#000000" font-family="sans-serif" font-size="13" font-weight="bold" lengthAdjust="spacing" textLength="18" x="573" y="810.1543">23</text><text fill="#000000" font-family="sans-serif" font-size="13" lengthAdjust="spacing" textLength="70" x="595" y="810.1543">POST /jobs</text><path d="M20,829.8965 L82,829.8965 L82,837.207 L72,847.207 L20,847.207 L20,829.8965 " fill="#EEEEEE" style="stroke:#000000;stroke-width:1.5;"/><rect fill="none" height="208.1289" style="stroke:#000000;stroke-width:1.5;" width="694.5" x="20" y="829.8965"/><text fill="#000000" font-family="sans-serif" font-size="13" font-weight="bold" lengthAdjust="spacing" textLength="17" x="35" y="843.4648">alt</text><text fill="#000000" font-family="sans-serif" font-size="11" font-weight="bold" lengthAdjust="spacing" textLength="51" x="97" y="842.5313">[success]</text><polygon fill="#181818" points="577,864.5176,567,868.5176,577,872.5176,573,868.5176" style="stroke:#181818;stroke-width:1.0;"/><line style="stroke:#181818;stroke-width:1.0;stroke-dasharray:2.0,2.0;" x1="571" x2="676" y1="868.5176" y2="868.5176"/><text fill="#000000" font-family="sans-serif" font-size="13" font-weight="bold" lengthAdjust="spacing" textLength="18" x="583" y="863.7754">24</text><text fill="#000000" font-family="sans-serif" font-size="13" lengthAdjust="spacing" textLength="59" x="605" y="863.7754">201: task</text><polygon fill="#181818" points="400,893.8281,390,897.8281,400,901.8281,396,897.8281" style="stroke:#181818;stroke-width:1.0;"/><line style="stroke:#181818;stroke-width:1.0;stroke-dasharray:2.0,2.0;" x1="394" x2="555" y1="897.8281" y2="897.8281"/><text fill="#000000" font-family="sans-serif" font-size="13" font-weight="bold" lengthAdjust="spacing" textLength="18" x="406" y="893.0859">25</text><text fill="#000000" font-family="sans-serif" font-size="13" lengthAdjust="spacing" textLength="59" x="428" y="893.0859">201: task</text><polygon fill="#181818" points="109,923.1387,99,927.1387,109,931.1387,105,927.1387" style="stroke:#181818;stroke-width:1.0;"/><line style="stroke:#181818;stroke-width:1.0;stroke-dasharray:2.0,2.0;" x1="103" x2="378" y1="927.1387" y2="927.1387"/><text fill="#000000" font-family="sans-serif" font-size="13" font-weight="bold" lengthAdjust="spacing" textLength="18" x="115" y="922.3965">26</text><text fill="#000000" font-family="sans-serif" font-size="13" lengthAdjust="spacing" textLength="27" x="137" y="922.3965">task</text><line style="stroke:#000000;stroke-width:1.0;stroke-dasharray:2.0,2.0;" x1="20" x2="714.5" y1="936.1387" y2="936.1387"/><text fill="#000000" font-family="sans-serif" font-size="11" font-weight="bold" lengthAdjust="spacing" textLength="97" x="25" y="946.7734">[task not created]</text><polygon fill="#181818" points="577,967.4043,567,971.4043,577,975.4043,573,971.4043" style="stroke:#181818;stroke-width:1.0;"/><line style="stroke:#181818;stroke-width:1.0;stroke-dasharray:2.0,2.0;" x1="571" x2="676" y1="971.4043" y2="971.4043"/><text fill="#000000" font-family="sans-serif" font-size="13" font-weight="bold" lengthAdjust="spacing" textLength="18" x="583" y="966.6621">27</text><text fill="#000000" font-family="sans-serif" font-size="13" lengthAdjust="spacing" textLength="62" x="605" y="966.6621">404: error</text><polygon fill="#181818" points="400,996.7148,390,1000.7148,400,1004.7148,396,1000.7148" style="stroke:#181818;stroke-width:1.0;"/><line style="stroke:#181818;stroke-width:1.0;stroke-dasharray:2.0,2.0;" x1="394" x2="555" y1="1000.7148" y2="1000.7148"/><text fill="#000000" font-family="sans-serif" font-size="13" font-weight="bold" lengthAdjust="spacing" textLength="18" x="406" y="995.9727">28</text><text fill="#000000" font-family="sans-serif" font-size="13" lengthAdjust="spacing" textLength="62" x="428" y="995.9727">404: error</text><polygon fill="#181818" points="109,1026.0254,99,1030.0254,109,1034.0254,105,1030.0254" style="stroke:#181818;stroke-width:1.0;"/><line style="stroke:#181818;stroke-width:1.0;stroke-dasharray:2.0,2.0;" x1="103" x2="378" y1="1030.0254" y2="1030.0254"/><text fill="#000000" font-family="sans-serif" font-size="13" font-weight="bold" lengthAdjust="spacing" textLength="18" x="115" y="1025.2832">29</text><text fill="#000000" font-family="sans-serif" font-size="13" lengthAdjust="spacing" textLength="83" x="137" y="1025.2832">informs error</text><!--SRC=[hLPDRzim3BtxLn0vROUYJbPWG0u3YctOgLYnzWye5fDfjILFebBituzIcZQgvQys0domI3u-yaccXIUZVRD1MnIY8cDXyLKqhNTm8xJOeLs0SE0TcrjXILMg5PfWSNTxVR2eTF_csw-utqZxsd3_PA2OIUq5OGJc1ow-C1AiuP5z7P01Yplb22q8qFW89Dn30RnU8bLy3uiZEPupCi2Fx_TmkV6gbahlt26a9ZZkV70VGHk2hV5QFWCam84vl5eSWc3LxZTn2eU1z_9p2T9Kla5DWfJHdQ10wE9Os5LvjGQqrdJ10_tWvW9_fRV6Dkx9DVfYxJ0fe4i-IRKgopMaBJWkYKcPHIyDYtyzEfQYLTM3Rq5eoS6rsgFzDuxDsgJG9mgtrkoLHDU3ajEtL-TjROnr7R-vKgwMOrBcUzoJVgZ9PolZFOm63-2WyXdykR9d86PfRerftj2hZEoVLc-JFSzWGe_FKSSPwKoJl0i_L_4kmfZWNMRX-y-9IQZwVMIoG7ryJaMx_Nd7geNmosDlfi-Fg5f0ecUaFsOpA3zbvG-ppFcgGkUozaCoYYqyy5wLo_NB-9nmfCRS4u5wFUFGYiqEuxQoo5N9YPG7PkNSsJfXncRPQpbyewWOkMpfkJnzupyUXlyF]--></g></svg>