<?xml version="1.0" encoding="us-ascii" standalone="no"?><svg xmlns="http://www.w3.org/2000/svg" xmlns:xlink="http://www.w3.org/1999/xlink" contentStyleType="text/css" height="786px" preserveAspectRatio="none" style="width:882px;height:786px;background:#FFFFFF;" version="1.1" viewBox="0 0 882 786" width="882px" zoomAndPan="magnify"><defs/><g><rect fill="#FFFFFF" height="596.2109" style="stroke:#181818;stroke-width:1.0;" width="10" x="23" y="91.4883"/><rect fill="#FFFFFF" height="93.9316" style="stroke:#181818;stroke-width:1.0;" width="10" x="314" y="112.7988"/><rect fill="#FFFFFF" height="93.9316" style="stroke:#181818;stroke-width:1.0;" width="10" x="314" y="236.041"/><rect fill="#FFFFFF" height="93.9316" style="stroke:#181818;stroke-width:1.0;" width="10" x="314" y="359.2832"/><rect fill="#FFFFFF" height="29.3105" style="stroke:#181818;stroke-width:1.0;" width="10" x="314" y="482.5254"/><rect fill="#FFFFFF" height="146.5527" style="stroke:#181818;stroke-width:1.0;" width="10" x="314" y="541.1465"/><rect fill="#FFFFFF" height="32.3105" style="stroke:#181818;stroke-width:1.0;" width="10" x="676" y="145.1094"/><rect fill="#FFFFFF" height="32.3105" style="stroke:#181818;stroke-width:1.0;" width="10" x="676" y="268.3516"/><rect fill="#FFFFFF" height="32.3105" style="stroke:#181818;stroke-width:1.0;" width="10" x="676" y="391.5938"/><rect fill="#FFFFFF" height="87.9316" style="stroke:#181818;stroke-width:1.0;" width="10" x="676" y="570.457"/><rect fill="#FFFFFF" height="29.3105" style="stroke:#181818;stroke-width:1.0;" width="10" x="797" y="599.7676"/><line style="stroke:#181818;stroke-width:0.5;stroke-dasharray:5.0,5.0;" x1="28" x2="28" y1="81.4883" y2="705.6992"/><line style="stroke:#181818;stroke-width:0.5;stroke-dasharray:5.0,5.0;" x1="319" x2="319" y1="81.4883" y2="705.6992"/><line style="stroke:#181818;stroke-width:0.5;stroke-dasharray:5.0,5.0;" x1="680.5" x2="680.5" y1="81.4883" y2="705.6992"/><line style="stroke:#181818;stroke-width:0.5;stroke-dasharray:5.0,5.0;" x1="801.5" x2="801.5" y1="81.4883" y2="705.6992"/><text fill="#000000" font-family="sans-serif" font-size="14" lengthAdjust="spacing" textLength="40" x="5" y="78.5352">Client</text><ellipse cx="28" cy="13.5" fill="#E2E2F0" rx="8" ry="8" style="stroke:#181818;stroke-width:0.5;"/><path d="M28,21.5 L28,48.5 M15,29.5 L41,29.5 M28,48.5 L15,63.5 M28,48.5 L41,63.5 " fill="none" style="stroke:#181818;stroke-width:0.5;"/><text fill="#000000" font-family="sans-serif" font-size="14" lengthAdjust="spacing" textLength="40" x="5" y="718.2344">Client</text><ellipse cx="28" cy="729.6875" fill="#E2E2F0" rx="8" ry="8" style="stroke:#181818;stroke-width:0.5;"/><path d="M28,737.6875 L28,764.6875 M15,745.6875 L41,745.6875 M28,764.6875 L15,779.6875 M28,764.6875 L41,779.6875 " fill="none" style="stroke:#181818;stroke-width:0.5;"/><rect fill="#E2E2F0" height="30.4883" rx="2.5" ry="2.5" style="stroke:#181818;stroke-width:0.5;" width="40" x="299" y="50"/><text fill="#000000" font-family="sans-serif" font-size="14" lengthAdjust="spacing" textLength="26" x="306" y="70.5352">SPA</text><rect fill="#E2E2F0" height="30.4883" rx="2.5" ry="2.5" style="stroke:#181818;stroke-width:0.5;" width="40" x="299" y="704.6992"/><text fill="#000000" font-family="sans-serif" font-size="14" lengthAdjust="spacing" textLength="26" x="306" y="725.2344">SPA</text><rect fill="#E2E2F0" height="30.4883" rx="2.5" ry="2.5" style="stroke:#181818;stroke-width:0.5;" width="45" x="658.5" y="50"/><text fill="#000000" font-family="sans-serif" font-size="14" lengthAdjust="spacing" textLength="31" x="665.5" y="70.5352">MDR</text><rect fill="#E2E2F0" height="30.4883" rx="2.5" ry="2.5" style="stroke:#181818;stroke-width:0.5;" width="45" x="658.5" y="704.6992"/><text fill="#000000" font-family="sans-serif" font-size="14" lengthAdjust="spacing" textLength="31" x="665.5" y="725.2344">MDR</text><rect fill="#E2E2F0" height="30.4883" rx="2.5" ry="2.5" style="stroke:#181818;stroke-width:0.5;" width="45" x="779.5" y="50"/><text fill="#000000" font-family="sans-serif" font-size="14" lengthAdjust="spacing" textLength="31" x="786.5" y="70.5352">MDT</text><rect fill="#E2E2F0" height="30.4883" rx="2.5" ry="2.5" style="stroke:#181818;stroke-width:0.5;" width="45" x="779.5" y="704.6992"/><text fill="#000000" font-family="sans-serif" font-size="14" lengthAdjust="spacing" textLength="31" x="786.5" y="725.2344">MDT</text><rect fill="#FFFFFF" height="596.2109" style="stroke:#181818;stroke-width:1.0;" width="10" x="23" y="91.4883"/><rect fill="#FFFFFF" height="93.9316" style="stroke:#181818;stroke-width:1.0;" width="10" x="314" y="112.7988"/><rect fill="#FFFFFF" height="93.9316" style="stroke:#181818;stroke-width:1.0;" width="10" x="314" y="236.041"/><rect fill="#FFFFFF" height="93.9316" style="stroke:#181818;stroke-width:1.0;" width="10" x="314" y="359.2832"/><rect fill="#FFFFFF" height="29.3105" style="stroke:#181818;stroke-width:1.0;" width="10" x="314" y="482.5254"/><rect fill="#FFFFFF" height="146.5527" style="stroke:#181818;stroke-width:1.0;" width="10" x="314" y="541.1465"/><rect fill="#FFFFFF" height="32.3105" style="stroke:#181818;stroke-width:1.0;" width="10" x="676" y="145.1094"/><rect fill="#FFFFFF" height="32.3105" style="stroke:#181818;stroke-width:1.0;" width="10" x="676" y="268.3516"/><rect fill="#FFFFFF" height="32.3105" style="stroke:#181818;stroke-width:1.0;" width="10" x="676" y="391.5938"/><rect fill="#FFFFFF" height="87.9316" style="stroke:#181818;stroke-width:1.0;" width="10" x="676" y="570.457"/><rect fill="#FFFFFF" height="29.3105" style="stroke:#181818;stroke-width:1.0;" width="10" x="797" y="599.7676"/><polygon fill="#181818" points="302,108.7988,312,112.7988,302,116.7988,306,112.7988" style="stroke:#181818;stroke-width:1.0;"/><line style="stroke:#181818;stroke-width:1.0;" x1="33" x2="308" y1="112.7988" y2="112.7988"/><text fill="#000000" font-family="sans-serif" font-size="13" font-weight="bold" lengthAdjust="spacing" textLength="9" x="40" y="108.0566">1</text><text fill="#000000" font-family="sans-serif" font-size="13" lengthAdjust="spacing" textLength="230" x="53" y="108.0566">wants to register a new delivery task</text><polygon fill="#181818" points="664,141.1094,674,145.1094,664,149.1094,668,145.1094" style="stroke:#181818;stroke-width:1.0;"/><line style="stroke:#181818;stroke-width:1.0;" x1="324" x2="670" y1="145.1094" y2="145.1094"/><text fill="#000000" font-family="sans-serif" font-size="13" font-weight="bold" lengthAdjust="spacing" textLength="9" x="331" y="140.3672">2</text><text fill="#000000" font-family="sans-serif" font-size="13" lengthAdjust="spacing" textLength="94" x="344" y="140.3672">GET /buildings</text><path d="M691,125.7988 L691,150.7988 L875,150.7988 L875,135.7988 L865,125.7988 L691,125.7988 " fill="#FEFFDD" style="stroke:#181818;stroke-width:0.5;"/><path d="M865,125.7988 L865,135.7988 L875,135.7988 L865,125.7988 " fill="#FEFFDD" style="stroke:#181818;stroke-width:0.5;"/><text fill="#000000" font-family="sans-serif" font-size="13" lengthAdjust="spacing" textLength="163" x="697" y="143.3672">see us170 documentation</text><polygon fill="#181818" points="335,173.4199,325,177.4199,335,181.4199,331,177.4199" style="stroke:#181818;stroke-width:1.0;"/><line style="stroke:#181818;stroke-width:1.0;stroke-dasharray:2.0,2.0;" x1="329" x2="680" y1="177.4199" y2="177.4199"/><text fill="#000000" font-family="sans-serif" font-size="13" font-weight="bold" lengthAdjust="spacing" textLength="9" x="341" y="172.6777">3</text><text fill="#000000" font-family="sans-serif" font-size="13" lengthAdjust="spacing" textLength="91" x="354" y="172.6777">200: buildings</text><polygon fill="#181818" points="44,202.7305,34,206.7305,44,210.7305,40,206.7305" style="stroke:#181818;stroke-width:1.0;"/><line style="stroke:#181818;stroke-width:1.0;stroke-dasharray:2.0,2.0;" x1="38" x2="318" y1="206.7305" y2="206.7305"/><text fill="#000000" font-family="sans-serif" font-size="13" font-weight="bold" lengthAdjust="spacing" textLength="9" x="50" y="201.9883">4</text><text fill="#000000" font-family="sans-serif" font-size="13" lengthAdjust="spacing" textLength="244" x="63" y="201.9883">requests pickup and delivery buildings</text><polygon fill="#181818" points="302,232.041,312,236.041,302,240.041,306,236.041" style="stroke:#181818;stroke-width:1.0;"/><line style="stroke:#181818;stroke-width:1.0;" x1="33" x2="308" y1="236.041" y2="236.041"/><text fill="#000000" font-family="sans-serif" font-size="13" font-weight="bold" lengthAdjust="spacing" textLength="9" x="40" y="231.2988">5</text><text fill="#000000" font-family="sans-serif" font-size="13" lengthAdjust="spacing" textLength="117" x="53" y="231.2988">provides buildings</text><polygon fill="#181818" points="664,264.3516,674,268.3516,664,272.3516,668,268.3516" style="stroke:#181818;stroke-width:1.0;"/><line style="stroke:#181818;stroke-width:1.0;" x1="324" x2="670" y1="268.3516" y2="268.3516"/><text fill="#000000" font-family="sans-serif" font-size="13" font-weight="bold" lengthAdjust="spacing" textLength="9" x="331" y="263.6094">6</text><text fill="#000000" font-family="sans-serif" font-size="13" lengthAdjust="spacing" textLength="165" x="344" y="263.6094">GET /buildings/{id}/floors</text><path d="M691,249.041 L691,274.041 L875,274.041 L875,259.041 L865,249.041 L691,249.041 " fill="#FEFFDD" style="stroke:#181818;stroke-width:0.5;"/><path d="M865,249.041 L865,259.041 L875,259.041 L865,249.041 " fill="#FEFFDD" style="stroke:#181818;stroke-width:0.5;"/><text fill="#000000" font-family="sans-serif" font-size="13" lengthAdjust="spacing" textLength="163" x="697" y="266.6094">see us210 documentation</text><polygon fill="#181818" points="335,296.6621,325,300.6621,335,304.6621,331,300.6621" style="stroke:#181818;stroke-width:1.0;"/><line style="stroke:#181818;stroke-width:1.0;stroke-dasharray:2.0,2.0;" x1="329" x2="680" y1="300.6621" y2="300.6621"/><text fill="#000000" font-family="sans-serif" font-size="13" font-weight="bold" lengthAdjust="spacing" textLength="9" x="341" y="295.9199">7</text><text fill="#000000" font-family="sans-serif" font-size="13" lengthAdjust="spacing" textLength="69" x="354" y="295.9199">200: floors</text><polygon fill="#181818" points="44,325.9727,34,329.9727,44,333.9727,40,329.9727" style="stroke:#181818;stroke-width:1.0;"/><line style="stroke:#181818;stroke-width:1.0;stroke-dasharray:2.0,2.0;" x1="38" x2="318" y1="329.9727" y2="329.9727"/><text fill="#000000" font-family="sans-serif" font-size="13" font-weight="bold" lengthAdjust="spacing" textLength="9" x="50" y="325.2305">8</text><text fill="#000000" font-family="sans-serif" font-size="13" lengthAdjust="spacing" textLength="222" x="63" y="325.2305">requests pickup and delivery floors</text><polygon fill="#181818" points="302,355.2832,312,359.2832,302,363.2832,306,359.2832" style="stroke:#181818;stroke-width:1.0;"/><line style="stroke:#181818;stroke-width:1.0;" x1="33" x2="308" y1="359.2832" y2="359.2832"/><text fill="#000000" font-family="sans-serif" font-size="13" font-weight="bold" lengthAdjust="spacing" textLength="9" x="40" y="354.541">9</text><text fill="#000000" font-family="sans-serif" font-size="13" lengthAdjust="spacing" textLength="95" x="53" y="354.541">provides floors</text><polygon fill="#181818" points="664,387.5938,674,391.5938,664,395.5938,668,391.5938" style="stroke:#181818;stroke-width:1.0;"/><line style="stroke:#181818;stroke-width:1.0;" x1="324" x2="670" y1="391.5938" y2="391.5938"/><text fill="#000000" font-family="sans-serif" font-size="13" font-weight="bold" lengthAdjust="spacing" textLength="18" x="331" y="386.8516">10</text><text fill="#000000" font-family="sans-serif" font-size="13" lengthAdjust="spacing" textLength="311" x="353" y="386.8516">GET /buildings/{id}/floors/$floorNumber}/rooms</text><path d="M691,372.2832 L691,397.2832 L875,397.2832 L875,382.2832 L865,372.2832 L691,372.2832 " fill="#FEFFDD" style="stroke:#181818;stroke-width:0.5;"/><path d="M865,372.2832 L865,382.2832 L875,382.2832 L865,372.2832 " fill="#FEFFDD" style="stroke:#181818;stroke-width:0.5;"/><text fill="#000000" font-family="sans-serif" font-size="13" lengthAdjust="spacing" textLength="163" x="697" y="389.8516">see us320 documentation</text><polygon fill="#181818" points="335,419.9043,325,423.9043,335,427.9043,331,423.9043" style="stroke:#181818;stroke-width:1.0;"/><line style="stroke:#181818;stroke-width:1.0;stroke-dasharray:2.0,2.0;" x1="329" x2="680" y1="423.9043" y2="423.9043"/><text fill="#000000" font-family="sans-serif" font-size="13" font-weight="bold" lengthAdjust="spacing" textLength="18" x="341" y="419.1621">11</text><text fill="#000000" font-family="sans-serif" font-size="13" lengthAdjust="spacing" textLength="72" x="363" y="419.1621">200: rooms</text><polygon fill="#181818" points="44,449.2148,34,453.2148,44,457.2148,40,453.2148" style="stroke:#181818;stroke-width:1.0;"/><line style="stroke:#181818;stroke-width:1.0;stroke-dasharray:2.0,2.0;" x1="38" x2="318" y1="453.2148" y2="453.2148"/><text fill="#000000" font-family="sans-serif" font-size="13" font-weight="bold" lengthAdjust="spacing" textLength="18" x="50" y="448.4727">12</text><text fill="#000000" font-family="sans-serif" font-size="13" lengthAdjust="spacing" textLength="225" x="72" y="448.4727">requests pickup and delivery rooms</text><polygon fill="#181818" points="302,478.5254,312,482.5254,302,486.5254,306,482.5254" style="stroke:#181818;stroke-width:1.0;"/><line style="stroke:#181818;stroke-width:1.0;" x1="33" x2="308" y1="482.5254" y2="482.5254"/><text fill="#000000" font-family="sans-serif" font-size="13" font-weight="bold" lengthAdjust="spacing" textLength="18" x="40" y="477.7832">13</text><text fill="#000000" font-family="sans-serif" font-size="13" lengthAdjust="spacing" textLength="98" x="62" y="477.7832">provides rooms</text><polygon fill="#181818" points="44,507.8359,34,511.8359,44,515.8359,40,511.8359" style="stroke:#181818;stroke-width:1.0;"/><line style="stroke:#181818;stroke-width:1.0;stroke-dasharray:2.0,2.0;" x1="38" x2="318" y1="511.8359" y2="511.8359"/><text fill="#000000" font-family="sans-serif" font-size="13" font-weight="bold" lengthAdjust="spacing" textLength="18" x="50" y="507.0938">14</text><text fill="#000000" font-family="sans-serif" font-size="13" lengthAdjust="spacing" textLength="131" x="72" y="507.0938">requests task details</text><polygon fill="#181818" points="302,537.1465,312,541.1465,302,545.1465,306,541.1465" style="stroke:#181818;stroke-width:1.0;"/><line style="stroke:#181818;stroke-width:1.0;" x1="33" x2="308" y1="541.1465" y2="541.1465"/><text fill="#000000" font-family="sans-serif" font-size="13" font-weight="bold" lengthAdjust="spacing" textLength="18" x="40" y="536.4043">15</text><text fill="#000000" font-family="sans-serif" font-size="13" lengthAdjust="spacing" textLength="131" x="62" y="536.4043">provides task details</text><polygon fill="#181818" points="664,566.457,674,570.457,664,574.457,668,570.457" style="stroke:#181818;stroke-width:1.0;"/><line style="stroke:#181818;stroke-width:1.0;" x1="324" x2="670" y1="570.457" y2="570.457"/><text fill="#000000" font-family="sans-serif" font-size="13" font-weight="bold" lengthAdjust="spacing" textLength="18" x="331" y="565.7148">16</text><text fill="#000000" font-family="sans-serif" font-size="13" lengthAdjust="spacing" textLength="126" x="353" y="565.7148">POST /task/delivery</text><polygon fill="#181818" points="785,595.7676,795,599.7676,785,603.7676,789,599.7676" style="stroke:#181818;stroke-width:1.0;"/><line style="stroke:#181818;stroke-width:1.0;" x1="686" x2="791" y1="599.7676" y2="599.7676"/><text fill="#000000" font-family="sans-serif" font-size="13" font-weight="bold" lengthAdjust="spacing" textLength="18" x="693" y="595.0254">17</text><text fill="#000000" font-family="sans-serif" font-size="13" lengthAdjust="spacing" textLength="70" x="715" y="595.0254">POST /jobs</text><polygon fill="#181818" points="697,625.0781,687,629.0781,697,633.0781,693,629.0781" style="stroke:#181818;stroke-width:1.0;"/><line style="stroke:#181818;stroke-width:1.0;stroke-dasharray:2.0,2.0;" x1="691" x2="801" y1="629.0781" y2="629.0781"/><text fill="#000000" font-family="sans-serif" font-size="13" font-weight="bold" lengthAdjust="spacing" textLength="18" x="703" y="624.3359">18</text><text fill="#000000" font-family="sans-serif" font-size="13" lengthAdjust="spacing" textLength="59" x="725" y="624.3359">201: task</text><polygon fill="#181818" points="335,654.3887,325,658.3887,335,662.3887,331,658.3887" style="stroke:#181818;stroke-width:1.0;"/><line style="stroke:#181818;stroke-width:1.0;stroke-dasharray:2.0,2.0;" x1="329" x2="680" y1="658.3887" y2="658.3887"/><text fill="#000000" font-family="sans-serif" font-size="13" font-weight="bold" lengthAdjust="spacing" textLength="18" x="341" y="653.6465">19</text><text fill="#000000" font-family="sans-serif" font-size="13" lengthAdjust="spacing" textLength="59" x="363" y="653.6465">201: task</text><polygon fill="#181818" points="39,683.6992,29,687.6992,39,691.6992,35,687.6992" style="stroke:#181818;stroke-width:1.0;"/><line style="stroke:#181818;stroke-width:1.0;stroke-dasharray:2.0,2.0;" x1="33" x2="318" y1="687.6992" y2="687.6992"/><text fill="#000000" font-family="sans-serif" font-size="13" font-weight="bold" lengthAdjust="spacing" textLength="18" x="45" y="682.957">20</text><text fill="#000000" font-family="sans-serif" font-size="13" lengthAdjust="spacing" textLength="176" x="67" y="682.957">previews newly created task</text><!--SRC=[dPJVJi8m5CRlUOeJuYtPc1ScN9WODLwfH7Y1ibOyigspxKQ8uTqz7SBe_h7HP5dMzdpVER-pbcL69bcy4ceqOg6H2iQF4Oh4Z85fo3HDfqmP335bYO7nOlvmM45t_lNfevYFkQekBFyNJE60EJEY4AO79lUa13FOqbuDHe8IQzH6A62GY2rm4M4kr0uCqviHq2WbiFYsWoH8YAn9wULv2TugmuXZijQdBQSmco2SZKJIfCBrbw5WBMngqpiVk0opc30mWp9n0gpDv9XtuFipgBjnuVWvYTfGRJDLuYSJcifECTnaAR24b_LsQbBffUGPnLJ97BdGq55_BspUB_Azznb9gRHJ_12CmRGBOpFA1iisbiDuLeI7mAo4Df7iJzExATvlnP7RUqhAk2VX5igtmN3ATTSAvEiOkx934BkHNOJhcTYRWSmCm-Wwyvh0fRCoVrzGUssOTwpzyZrJTC4gc9F2jrorzjxKsdWGCGM2Gnw1FvsL5sDrE2rjatF-ZDvggd6BqvvKYHp5LjjRFDf1g0I5ybBVRT3vbrP_]--></g></svg>