<?xml version="1.0" encoding="us-ascii" standalone="no"?><svg xmlns="http://www.w3.org/2000/svg" xmlns:xlink="http://www.w3.org/1999/xlink" contentStyleType="text/css" height="927px" preserveAspectRatio="none" style="width:842px;height:927px;background:#FFFFFF;" version="1.1" viewBox="0 0 842 927" width="842px" zoomAndPan="magnify"><defs/><g><rect fill="#FFFFFF" height="725.6934" style="stroke:#181818;stroke-width:1.0;" width="10" x="64" y="93.6211"/><rect fill="#FFFFFF" height="702.4023" style="stroke:#181818;stroke-width:1.0;" width="10" x="259" y="116.9121"/><rect fill="#FFFFFF" height="639.8203" style="stroke:#181818;stroke-width:1.0;" width="10" x="370" y="148.2031"/><rect fill="#FFFFFF" height="532.9473" style="stroke:#181818;stroke-width:1.0;" width="10" x="483" y="179.4941"/><rect fill="#FFFFFF" height="52.2422" style="stroke:#181818;stroke-width:1.0;" width="10" x="615" y="621.9082"/><rect fill="#FFFFFF" height="343.541" style="stroke:#181818;stroke-width:1.0;" width="10" x="712" y="210.7852"/><rect fill="none" height="564.2383" style="stroke:#000000;stroke-width:1.5;" width="816" x="10" y="263.0762"/><rect fill="none" height="112.8242" style="stroke:#000000;stroke-width:1.5;" width="242.5" x="428.5" y="569.3262"/><line style="stroke:#181818;stroke-width:0.5;stroke-dasharray:5.0,5.0;" x1="69" x2="69" y1="83.6211" y2="844.3145"/><line style="stroke:#181818;stroke-width:0.5;stroke-dasharray:5.0,5.0;" x1="264" x2="264" y1="83.6211" y2="844.3145"/><line style="stroke:#181818;stroke-width:0.5;stroke-dasharray:5.0,5.0;" x1="375" x2="375" y1="83.6211" y2="844.3145"/><line style="stroke:#181818;stroke-width:0.5;stroke-dasharray:5.0,5.0;" x1="487.5" x2="487.5" y1="83.6211" y2="844.3145"/><line style="stroke:#181818;stroke-width:0.5;stroke-dasharray:5.0,5.0;" x1="620" x2="620" y1="629.7383" y2="844.3145"/><line style="stroke:#181818;stroke-width:0.5;stroke-dasharray:5.0,5.0;" x1="717" x2="717" y1="83.6211" y2="844.3145"/><text fill="#000000" font-family="sans-serif" font-size="14" lengthAdjust="spacing" textLength="92" x="20" y="80.1074">Fleet Manager</text><ellipse cx="69" cy="13.5" fill="#E2E2F0" rx="8" ry="8" style="stroke:#181818;stroke-width:0.5;"/><path d="M69,21.5 L69,48.5 M56,29.5 L82,29.5 M69,48.5 L56,63.5 M69,48.5 L82,63.5 " fill="none" style="stroke:#181818;stroke-width:0.5;"/><text fill="#000000" font-family="sans-serif" font-size="14" lengthAdjust="spacing" textLength="92" x="20" y="858.4219">Fleet Manager</text><ellipse cx="69" cy="870.4355" fill="#E2E2F0" rx="8" ry="8" style="stroke:#181818;stroke-width:0.5;"/><path d="M69,878.4355 L69,905.4355 M56,886.4355 L82,886.4355 M69,905.4355 L56,920.4355 M69,905.4355 L82,920.4355 " fill="none" style="stroke:#181818;stroke-width:0.5;"/><rect fill="#E2E2F0" height="32.6211" rx="2.5" ry="2.5" style="stroke:#181818;stroke-width:0.5;" width="126" x="201" y="50"/><text fill="#000000" font-family="sans-serif" font-size="14" lengthAdjust="spacing" textLength="112" x="208" y="72.1074">HTML + CSS + JS</text><rect fill="#E2E2F0" height="32.6211" rx="2.5" ry="2.5" style="stroke:#181818;stroke-width:0.5;" width="126" x="201" y="843.3145"/><text fill="#000000" font-family="sans-serif" font-size="14" lengthAdjust="spacing" textLength="112" x="208" y="865.4219">HTML + CSS + JS</text><rect fill="#E2E2F0" height="32.6211" rx="2.5" ry="2.5" style="stroke:#181818;stroke-width:0.5;" width="76" x="337" y="50"/><text fill="#000000" font-family="sans-serif" font-size="14" lengthAdjust="spacing" textLength="62" x="344" y="72.1074">Controller</text><rect fill="#E2E2F0" height="32.6211" rx="2.5" ry="2.5" style="stroke:#181818;stroke-width:0.5;" width="76" x="337" y="843.3145"/><text fill="#000000" font-family="sans-serif" font-size="14" lengthAdjust="spacing" textLength="62" x="344" y="865.4219">Controller</text><rect fill="#E2E2F0" height="32.6211" rx="2.5" ry="2.5" style="stroke:#181818;stroke-width:0.5;" width="99" x="438.5" y="50"/><text fill="#000000" font-family="sans-serif" font-size="14" lengthAdjust="spacing" textLength="85" x="445.5" y="72.1074">RobotService</text><rect fill="#E2E2F0" height="32.6211" rx="2.5" ry="2.5" style="stroke:#181818;stroke-width:0.5;" width="99" x="438.5" y="843.3145"/><text fill="#000000" font-family="sans-serif" font-size="14" lengthAdjust="spacing" textLength="85" x="445.5" y="865.4219">RobotService</text><rect fill="#E2E2F0" height="51.2422" rx="2.5" ry="2.5" style="stroke:#181818;stroke-width:0.5;" width="82" x="579" y="843.3145"/><text fill="#000000" font-family="sans-serif" font-size="14" lengthAdjust="spacing" textLength="24" x="608" y="865.4219">dto:</text><text fill="#000000" font-family="sans-serif" font-size="14" lengthAdjust="spacing" textLength="68" x="586" y="884.043">RobotDTO</text><rect fill="#E2E2F0" height="32.6211" rx="2.5" ry="2.5" style="stroke:#181818;stroke-width:0.5;" width="92" x="671" y="50"/><text fill="#000000" font-family="sans-serif" font-size="14" lengthAdjust="spacing" textLength="78" x="678" y="72.1074">HTTP Driver</text><rect fill="#E2E2F0" height="32.6211" rx="2.5" ry="2.5" style="stroke:#181818;stroke-width:0.5;" width="92" x="671" y="843.3145"/><text fill="#000000" font-family="sans-serif" font-size="14" lengthAdjust="spacing" textLength="78" x="678" y="865.4219">HTTP Driver</text><rect fill="#FFFFFF" height="725.6934" style="stroke:#181818;stroke-width:1.0;" width="10" x="64" y="93.6211"/><rect fill="#FFFFFF" height="702.4023" style="stroke:#181818;stroke-width:1.0;" width="10" x="259" y="116.9121"/><rect fill="#FFFFFF" height="639.8203" style="stroke:#181818;stroke-width:1.0;" width="10" x="370" y="148.2031"/><rect fill="#FFFFFF" height="532.9473" style="stroke:#181818;stroke-width:1.0;" width="10" x="483" y="179.4941"/><rect fill="#FFFFFF" height="52.2422" style="stroke:#181818;stroke-width:1.0;" width="10" x="615" y="621.9082"/><rect fill="#FFFFFF" height="343.541" style="stroke:#181818;stroke-width:1.0;" width="10" x="712" y="210.7852"/><polygon fill="#181818" points="247,112.9121,257,116.9121,247,120.9121,251,116.9121" style="stroke:#181818;stroke-width:1.0;"/><line style="stroke:#181818;stroke-width:1.0;" x1="74" x2="253" y1="116.9121" y2="116.9121"/><text fill="#000000" font-family="sans-serif" font-size="13" font-weight="bold" lengthAdjust="spacing" textLength="7" x="81" y="111.6494">1</text><text fill="#000000" font-family="sans-serif" font-size="13" lengthAdjust="spacing" textLength="155" x="92" y="111.6494">wants to list all fleet robots</text><polygon fill="#181818" points="358,144.2031,368,148.2031,358,152.2031,362,148.2031" style="stroke:#181818;stroke-width:1.0;"/><line style="stroke:#181818;stroke-width:1.0;" x1="269" x2="364" y1="148.2031" y2="148.2031"/><text fill="#000000" font-family="sans-serif" font-size="13" font-weight="bold" lengthAdjust="spacing" textLength="7" x="276" y="142.9404">2</text><text fill="#000000" font-family="sans-serif" font-size="13" lengthAdjust="spacing" textLength="56" x="287" y="142.9404">ngOnInit()</text><polygon fill="#181818" points="471,175.4941,481,179.4941,471,183.4941,475,179.4941" style="stroke:#181818;stroke-width:1.0;"/><line style="stroke:#181818;stroke-width:1.0;" x1="380" x2="477" y1="179.4941" y2="179.4941"/><text fill="#000000" font-family="sans-serif" font-size="13" font-weight="bold" lengthAdjust="spacing" textLength="7" x="387" y="174.2314">3</text><text fill="#000000" font-family="sans-serif" font-size="13" lengthAdjust="spacing" textLength="67" x="398" y="174.2314">getRobots()</text><polygon fill="#181818" points="700,206.7852,710,210.7852,700,214.7852,704,210.7852" style="stroke:#181818;stroke-width:1.0;"/><line style="stroke:#181818;stroke-width:1.0;" x1="493" x2="706" y1="210.7852" y2="210.7852"/><text fill="#000000" font-family="sans-serif" font-size="13" font-weight="bold" lengthAdjust="spacing" textLength="7" x="500" y="205.5225">4</text><text fill="#000000" font-family="sans-serif" font-size="13" lengthAdjust="spacing" textLength="118" x="511" y="205.5225">get({baseUrl}/robots)</text><polygon fill="#181818" points="824,241.0762,834,245.0762,824,249.0762,828,245.0762" style="stroke:#181818;stroke-width:1.0;"/><line style="stroke:#181818;stroke-width:1.0;" x1="722" x2="830" y1="245.0762" y2="245.0762"/><text fill="#000000" font-family="sans-serif" font-size="13" font-weight="bold" lengthAdjust="spacing" textLength="7" x="729" y="239.8135">5</text><text fill="#000000" font-family="sans-serif" font-size="13" lengthAdjust="spacing" textLength="70" x="740" y="239.8135">GET /robots</text><path d="M537,223.7852 L537,250.7852 L707,250.7852 L707,233.7852 L697,223.7852 L537,223.7852 " fill="#FEFFDD" style="stroke:#181818;stroke-width:0.5;"/><path d="M697,223.7852 L697,233.7852 L707,233.7852 L697,223.7852 " fill="#FEFFDD" style="stroke:#181818;stroke-width:0.5;"/><text fill="#000000" font-family="sans-serif" font-size="13" lengthAdjust="spacing" textLength="149" x="543" y="242.8135">see us380 documentation</text><path d="M10,263.0762 L71,263.0762 L71,272.3672 L61,282.3672 L10,282.3672 L10,263.0762 " fill="#EEEEEE" style="stroke:#000000;stroke-width:1.5;"/><rect fill="none" height="564.2383" style="stroke:#000000;stroke-width:1.5;" width="816" x="10" y="263.0762"/><text fill="#000000" font-family="sans-serif" font-size="13" font-weight="bold" lengthAdjust="spacing" textLength="16" x="25" y="278.1045">alt</text><text fill="#000000" font-family="sans-serif" font-size="11" font-weight="bold" lengthAdjust="spacing" textLength="109" x="86" y="276.9463">[robot(s) not found]</text><polygon fill="#181818" points="733,301.6582,723,305.6582,733,309.6582,729,305.6582" style="stroke:#181818;stroke-width:1.0;"/><line style="stroke:#181818;stroke-width:1.0;stroke-dasharray:2.0,2.0;" x1="727" x2="835" y1="305.6582" y2="305.6582"/><text fill="#000000" font-family="sans-serif" font-size="13" font-weight="bold" lengthAdjust="spacing" textLength="7" x="739" y="300.3955">6</text><text fill="#000000" font-family="sans-serif" font-size="13" lengthAdjust="spacing" textLength="55" x="750" y="300.3955">404: error</text><polygon fill="#181818" points="504,332.9492,494,336.9492,504,340.9492,500,336.9492" style="stroke:#181818;stroke-width:1.0;"/><line style="stroke:#181818;stroke-width:1.0;stroke-dasharray:2.0,2.0;" x1="498" x2="711" y1="336.9492" y2="336.9492"/><text fill="#000000" font-family="sans-serif" font-size="13" font-weight="bold" lengthAdjust="spacing" textLength="7" x="510" y="331.6865">7</text><text fill="#000000" font-family="sans-serif" font-size="13" lengthAdjust="spacing" textLength="61" x="521" y="331.6865">observable</text><polygon fill="#181818" points="391,364.2402,381,368.2402,391,372.2402,387,368.2402" style="stroke:#181818;stroke-width:1.0;"/><line style="stroke:#181818;stroke-width:1.0;stroke-dasharray:2.0,2.0;" x1="385" x2="482" y1="368.2402" y2="368.2402"/><text fill="#000000" font-family="sans-serif" font-size="13" font-weight="bold" lengthAdjust="spacing" textLength="7" x="397" y="362.9775">8</text><text fill="#000000" font-family="sans-serif" font-size="13" lengthAdjust="spacing" textLength="26" x="408" y="362.9775">error</text><line style="stroke:#181818;stroke-width:1.0;stroke-dasharray:2.0,2.0;" x1="380" x2="422" y1="399.5313" y2="399.5313"/><line style="stroke:#181818;stroke-width:1.0;stroke-dasharray:2.0,2.0;" x1="422" x2="422" y1="399.5313" y2="412.5313"/><line style="stroke:#181818;stroke-width:1.0;stroke-dasharray:2.0,2.0;" x1="381" x2="422" y1="412.5313" y2="412.5313"/><polygon fill="#181818" points="391,408.5313,381,412.5313,391,416.5313,387,412.5313" style="stroke:#181818;stroke-width:1.0;"/><text fill="#000000" font-family="sans-serif" font-size="13" font-weight="bold" lengthAdjust="spacing" textLength="7" x="387" y="394.2686">9</text><text fill="#000000" font-family="sans-serif" font-size="13" lengthAdjust="spacing" textLength="60" x="398" y="394.2686">robots = []</text><path d="M136,384.7402 L136,411.7402 L365,411.7402 L365,394.7402 L355,384.7402 L136,384.7402 " fill="#FEFFDD" style="stroke:#181818;stroke-width:0.5;"/><path d="M355,384.7402 L355,394.7402 L365,394.7402 L355,384.7402 " fill="#FEFFDD" style="stroke:#181818;stroke-width:0.5;"/><text fill="#000000" font-family="sans-serif" font-size="13" lengthAdjust="spacing" textLength="208" x="142" y="403.7686">creates alert with the error message</text><polygon fill="#181818" points="280,439.8223,270,443.8223,280,447.8223,276,443.8223" style="stroke:#181818;stroke-width:1.0;"/><line style="stroke:#181818;stroke-width:1.0;stroke-dasharray:2.0,2.0;" x1="274" x2="369" y1="443.8223" y2="443.8223"/><text fill="#000000" font-family="sans-serif" font-size="13" font-weight="bold" lengthAdjust="spacing" textLength="14" x="286" y="438.5596">10</text><text fill="#000000" font-family="sans-serif" font-size="13" lengthAdjust="spacing" textLength="36" x="304" y="438.5596">robots</text><polygon fill="#181818" points="85,471.1133,75,475.1133,85,479.1133,81,475.1133" style="stroke:#181818;stroke-width:1.0;"/><line style="stroke:#181818;stroke-width:1.0;stroke-dasharray:2.0,2.0;" x1="79" x2="258" y1="475.1133" y2="475.1133"/><text fill="#000000" font-family="sans-serif" font-size="13" font-weight="bold" lengthAdjust="spacing" textLength="14" x="91" y="469.8506">11</text><text fill="#000000" font-family="sans-serif" font-size="13" lengthAdjust="spacing" textLength="137" x="109" y="469.8506">does not show anything</text><line style="stroke:#000000;stroke-width:1.0;stroke-dasharray:2.0,2.0;" x1="10" x2="826" y1="484.1133" y2="484.1133"/><text fill="#000000" font-family="sans-serif" font-size="11" font-weight="bold" lengthAdjust="spacing" textLength="88" x="15" y="495.9834">[robot(s) found]</text><polygon fill="#181818" points="733,519.0352,723,523.0352,733,527.0352,729,523.0352" style="stroke:#181818;stroke-width:1.0;"/><line style="stroke:#181818;stroke-width:1.0;stroke-dasharray:2.0,2.0;" x1="727" x2="835" y1="523.0352" y2="523.0352"/><text fill="#000000" font-family="sans-serif" font-size="13" font-weight="bold" lengthAdjust="spacing" textLength="14" x="739" y="517.7725">12</text><text fill="#000000" font-family="sans-serif" font-size="13" lengthAdjust="spacing" textLength="65" x="757" y="517.7725">200: robots</text><polygon fill="#181818" points="504,550.3262,494,554.3262,504,558.3262,500,554.3262" style="stroke:#181818;stroke-width:1.0;"/><line style="stroke:#181818;stroke-width:1.0;stroke-dasharray:2.0,2.0;" x1="498" x2="716" y1="554.3262" y2="554.3262"/><text fill="#000000" font-family="sans-serif" font-size="13" font-weight="bold" lengthAdjust="spacing" textLength="14" x="510" y="549.0635">13</text><text fill="#000000" font-family="sans-serif" font-size="13" lengthAdjust="spacing" textLength="61" x="528" y="549.0635">observable</text><path d="M428.5,569.3262 L501.5,569.3262 L501.5,578.6172 L491.5,588.6172 L428.5,588.6172 L428.5,569.3262 " fill="#EEEEEE" style="stroke:#000000;stroke-width:1.5;"/><rect fill="none" height="112.8242" style="stroke:#000000;stroke-width:1.5;" width="242.5" x="428.5" y="569.3262"/><text fill="#000000" font-family="sans-serif" font-size="13" font-weight="bold" lengthAdjust="spacing" textLength="28" x="443.5" y="584.3545">loop</text><text fill="#000000" font-family="sans-serif" font-size="11" font-weight="bold" lengthAdjust="spacing" textLength="86" x="516.5" y="583.1963">[for each robot]</text><polygon fill="#181818" points="567,607.9082,577,611.9082,567,615.9082,571,611.9082" style="stroke:#181818;stroke-width:1.0;"/><line style="stroke:#181818;stroke-width:1.0;stroke-dasharray:2.0,2.0;" x1="493" x2="573" y1="611.9082" y2="611.9082"/><text fill="#000000" font-family="sans-serif" font-size="13" font-weight="bold" lengthAdjust="spacing" textLength="14" x="500" y="606.6455">14</text><text fill="#000000" font-family="sans-serif" font-size="13" lengthAdjust="spacing" textLength="44" x="518" y="606.6455">create()</text><rect fill="#E2E2F0" height="51.2422" rx="2.5" ry="2.5" style="stroke:#181818;stroke-width:0.5;" width="82" x="579" y="588.6172"/><text fill="#000000" font-family="sans-serif" font-size="14" lengthAdjust="spacing" textLength="24" x="608" y="610.7246">dto:</text><text fill="#000000" font-family="sans-serif" font-size="14" lengthAdjust="spacing" textLength="68" x="586" y="629.3457">RobotDTO</text><polygon fill="#181818" points="504,670.1504,494,674.1504,504,678.1504,500,674.1504" style="stroke:#181818;stroke-width:1.0;"/><line style="stroke:#181818;stroke-width:1.0;stroke-dasharray:2.0,2.0;" x1="498" x2="619" y1="674.1504" y2="674.1504"/><text fill="#000000" font-family="sans-serif" font-size="13" font-weight="bold" lengthAdjust="spacing" textLength="14" x="510" y="668.8877">15</text><text fill="#000000" font-family="sans-serif" font-size="13" lengthAdjust="spacing" textLength="18" x="528" y="668.8877">dto</text><polygon fill="#181818" points="391,708.4414,381,712.4414,391,716.4414,387,712.4414" style="stroke:#181818;stroke-width:1.0;"/><line style="stroke:#181818;stroke-width:1.0;stroke-dasharray:2.0,2.0;" x1="385" x2="487" y1="712.4414" y2="712.4414"/><text fill="#000000" font-family="sans-serif" font-size="13" font-weight="bold" lengthAdjust="spacing" textLength="14" x="397" y="707.1787">16</text><text fill="#000000" font-family="sans-serif" font-size="13" lengthAdjust="spacing" textLength="26" x="415" y="707.1787">dto[]</text><line style="stroke:#181818;stroke-width:1.0;stroke-dasharray:2.0,2.0;" x1="380" x2="422" y1="743.7324" y2="743.7324"/><line style="stroke:#181818;stroke-width:1.0;stroke-dasharray:2.0,2.0;" x1="422" x2="422" y1="743.7324" y2="756.7324"/><line style="stroke:#181818;stroke-width:1.0;stroke-dasharray:2.0,2.0;" x1="381" x2="422" y1="756.7324" y2="756.7324"/><polygon fill="#181818" points="391,752.7324,381,756.7324,391,760.7324,387,756.7324" style="stroke:#181818;stroke-width:1.0;"/><text fill="#000000" font-family="sans-serif" font-size="13" font-weight="bold" lengthAdjust="spacing" textLength="14" x="387" y="738.4697">17</text><text fill="#000000" font-family="sans-serif" font-size="13" lengthAdjust="spacing" textLength="71" x="405" y="738.4697">robot = dto[]</text><polygon fill="#181818" points="280,784.0234,270,788.0234,280,792.0234,276,788.0234" style="stroke:#181818;stroke-width:1.0;"/><line style="stroke:#181818;stroke-width:1.0;stroke-dasharray:2.0,2.0;" x1="274" x2="374" y1="788.0234" y2="788.0234"/><text fill="#000000" font-family="sans-serif" font-size="13" font-weight="bold" lengthAdjust="spacing" textLength="14" x="286" y="782.7607">18</text><text fill="#000000" font-family="sans-serif" font-size="13" lengthAdjust="spacing" textLength="36" x="304" y="782.7607">robots</text><polygon fill="#181818" points="80,815.3145,70,819.3145,80,823.3145,76,819.3145" style="stroke:#181818;stroke-width:1.0;"/><line style="stroke:#181818;stroke-width:1.0;stroke-dasharray:2.0,2.0;" x1="74" x2="263" y1="819.3145" y2="819.3145"/><text fill="#000000" font-family="sans-serif" font-size="13" font-weight="bold" lengthAdjust="spacing" textLength="14" x="86" y="814.0518">19</text><text fill="#000000" font-family="sans-serif" font-size="13" lengthAdjust="spacing" textLength="77" x="104" y="814.0518">shows robots</text><!--SRC=[fLLDRzf04BtxLumuGIghgCsXGcakIJ_LA5MXfvR3OYRsIiiksXs3ggh_lRDZozXWGwJCmHRsUszctemNLPApvMQ5FabKHix3wAD197XGLkNeHw02b87VRfKddUcjiWIZpuk7R_0AxkPpldwT2sgdSTz5tJbBtXbJosJaJHVmmwqSpT7lT8O22RkiYrYJc_ssWhjVF0g67vrKi_WEzrxlwaG5qJQHVlHE4KhzmC5tI6-bK9W1x9aSW1mO7GYKCV0ahVkOBGYZaP3ce0uHOA7O40lP_D5-iPh6amRHyAHdQ8LmcCkTCZL7ajv2YzlXHqFWA2AL5MANbSJuxqe5_EdDlzTLxPCJJYCeta1FY5nwksJ9JnyMK2iblLZhMCdhl2161umEltqtXRNBoWrQKgIThVmpjPtZC8aiU7AbNVTgDZNSfEbo1jVJwncWzywVHwUDbsuLU9FKok0WGvmx3EwyV3Mf0xeo1Dx3h-KWHunX6BaDCpAFR7bW5z0Jx3KLG0LMQM638V0NTZbzlQwjhUoBQYSP7fTyngFWlD7mKBWzAFk72ctpQffe0Xwcyio9iEQRwRGf8qbUDf4rTZVo162Sst9j7XXOL5cJSoFbK-7ggl5yFEa5DpdZ6JBKChzhzJ24R3NG1q7sDBcmVimxMgMMwF67txkDl8od8XSMfvL33YU9WIsAonFQ0Ysod8X9xzFMR_dhY6Ry1m00]--></g></svg>