<?xml version="1.0" encoding="us-ascii" standalone="no"?><svg xmlns="http://www.w3.org/2000/svg" xmlns:xlink="http://www.w3.org/1999/xlink" contentStyleType="text/css" height="1028px" preserveAspectRatio="none" style="width:839px;height:1028px;background:#FFFFFF;" version="1.1" viewBox="0 0 839 1028" width="839px" zoomAndPan="magnify"><defs/><g><rect fill="#FFFFFF" height="841.5078" style="stroke:#181818;stroke-width:1.0;" width="10" x="94" y="93.6211"/><rect fill="#FFFFFF" height="205.377" style="stroke:#181818;stroke-width:1.0;" width="10" x="328" y="116.9121"/><rect fill="#FFFFFF" height="205.377" style="stroke:#181818;stroke-width:1.0;" width="10" x="328" y="353.5801"/><rect fill="#FFFFFF" height="31.291" style="stroke:#181818;stroke-width:1.0;" width="10" x="328" y="590.248"/><rect fill="#FFFFFF" height="282.2988" style="stroke:#181818;stroke-width:1.0;" width="10" x="328" y="652.8301"/><rect fill="#FFFFFF" height="174.0859" style="stroke:#181818;stroke-width:1.0;" width="10" x="708" y="148.2031"/><rect fill="#FFFFFF" height="68.582" style="stroke:#181818;stroke-width:1.0;" width="10" x="708" y="384.8711"/><rect fill="#FFFFFF" height="68.582" style="stroke:#181818;stroke-width:1.0;" width="10" x="708" y="684.1211"/><rect fill="none" height="696.3438" style="stroke:#000000;stroke-width:1.5;" width="822" x="10" y="231.7852"/><rect fill="none" height="452.6758" style="stroke:#000000;stroke-width:1.5;" width="802" x="20" y="468.4531"/><rect fill="none" height="146.4258" style="stroke:#000000;stroke-width:1.5;" width="329" x="30" y="767.7031"/><line style="stroke:#181818;stroke-width:0.5;stroke-dasharray:5.0,5.0;" x1="99" x2="99" y1="83.6211" y2="945.1289"/><line style="stroke:#181818;stroke-width:0.5;stroke-dasharray:5.0,5.0;" x1="333" x2="333" y1="83.6211" y2="945.1289"/><line style="stroke:#181818;stroke-width:0.5;stroke-dasharray:5.0,5.0;" x1="712.5" x2="712.5" y1="83.6211" y2="945.1289"/><text fill="#000000" font-family="sans-serif" font-size="14" lengthAdjust="spacing" textLength="112" x="40" y="80.1074">Campus Manager</text><ellipse cx="99" cy="13.5" fill="#E2E2F0" rx="8" ry="8" style="stroke:#181818;stroke-width:0.5;"/><path d="M99,21.5 L99,48.5 M86,29.5 L112,29.5 M99,48.5 L86,63.5 M99,48.5 L112,63.5 " fill="none" style="stroke:#181818;stroke-width:0.5;"/><text fill="#000000" font-family="sans-serif" font-size="14" lengthAdjust="spacing" textLength="112" x="40" y="959.2363">Campus Manager</text><ellipse cx="99" cy="971.25" fill="#E2E2F0" rx="8" ry="8" style="stroke:#181818;stroke-width:0.5;"/><path d="M99,979.25 L99,1006.25 M86,987.25 L112,987.25 M99,1006.25 L86,1021.25 M99,1006.25 L112,1021.25 " fill="none" style="stroke:#181818;stroke-width:0.5;"/><rect fill="#E2E2F0" height="32.6211" rx="2.5" ry="2.5" style="stroke:#181818;stroke-width:0.5;" width="32" x="317" y="50"/><text fill="#000000" font-family="sans-serif" font-size="14" lengthAdjust="spacing" textLength="18" x="324" y="72.1074">FE</text><rect fill="#E2E2F0" height="32.6211" rx="2.5" ry="2.5" style="stroke:#181818;stroke-width:0.5;" width="32" x="317" y="944.1289"/><text fill="#000000" font-family="sans-serif" font-size="14" lengthAdjust="spacing" textLength="18" x="324" y="966.2363">FE</text><rect fill="#E2E2F0" height="32.6211" rx="2.5" ry="2.5" style="stroke:#181818;stroke-width:0.5;" width="35" x="695.5" y="50"/><text fill="#000000" font-family="sans-serif" font-size="14" lengthAdjust="spacing" textLength="21" x="702.5" y="72.1074">MD</text><rect fill="#E2E2F0" height="32.6211" rx="2.5" ry="2.5" style="stroke:#181818;stroke-width:0.5;" width="35" x="695.5" y="944.1289"/><text fill="#000000" font-family="sans-serif" font-size="14" lengthAdjust="spacing" textLength="21" x="702.5" y="966.2363">MD</text><rect fill="#FFFFFF" height="841.5078" style="stroke:#181818;stroke-width:1.0;" width="10" x="94" y="93.6211"/><rect fill="#FFFFFF" height="205.377" style="stroke:#181818;stroke-width:1.0;" width="10" x="328" y="116.9121"/><rect fill="#FFFFFF" height="205.377" style="stroke:#181818;stroke-width:1.0;" width="10" x="328" y="353.5801"/><rect fill="#FFFFFF" height="31.291" style="stroke:#181818;stroke-width:1.0;" width="10" x="328" y="590.248"/><rect fill="#FFFFFF" height="282.2988" style="stroke:#181818;stroke-width:1.0;" width="10" x="328" y="652.8301"/><rect fill="#FFFFFF" height="174.0859" style="stroke:#181818;stroke-width:1.0;" width="10" x="708" y="148.2031"/><rect fill="#FFFFFF" height="68.582" style="stroke:#181818;stroke-width:1.0;" width="10" x="708" y="384.8711"/><rect fill="#FFFFFF" height="68.582" style="stroke:#181818;stroke-width:1.0;" width="10" x="708" y="684.1211"/><polygon fill="#181818" points="316,112.9121,326,116.9121,316,120.9121,320,116.9121" style="stroke:#181818;stroke-width:1.0;"/><line style="stroke:#181818;stroke-width:1.0;" x1="104" x2="322" y1="116.9121" y2="116.9121"/><text fill="#000000" font-family="sans-serif" font-size="13" font-weight="bold" lengthAdjust="spacing" textLength="7" x="111" y="111.6494">1</text><text fill="#000000" font-family="sans-serif" font-size="13" lengthAdjust="spacing" textLength="96" x="122" y="111.6494">update floor map</text><polygon fill="#181818" points="696,144.2031,706,148.2031,696,152.2031,700,148.2031" style="stroke:#181818;stroke-width:1.0;"/><line style="stroke:#181818;stroke-width:1.0;" x1="338" x2="702" y1="148.2031" y2="148.2031"/><text fill="#000000" font-family="sans-serif" font-size="13" font-weight="bold" lengthAdjust="spacing" textLength="7" x="345" y="142.9404">2</text><text fill="#000000" font-family="sans-serif" font-size="13" lengthAdjust="spacing" textLength="85" x="356" y="142.9404">GET /buildings</text><path d="M723,161.2031 L723,188.2031 L812,188.2031 L812,171.2031 L802,161.2031 L723,161.2031 " fill="#FEFFDD" style="stroke:#181818;stroke-width:0.5;"/><path d="M802,161.2031 L802,171.2031 L812,171.2031 L802,161.2031 " fill="#FEFFDD" style="stroke:#181818;stroke-width:0.5;"/><text fill="#000000" font-family="sans-serif" font-size="13" lengthAdjust="spacing" textLength="68" x="729" y="180.2314">see US 170</text><polygon fill="#181818" points="349,212.7852,339,216.7852,349,220.7852,345,216.7852" style="stroke:#181818;stroke-width:1.0;"/><line style="stroke:#181818;stroke-width:1.0;stroke-dasharray:2.0,2.0;" x1="343" x2="707" y1="216.7852" y2="216.7852"/><text fill="#000000" font-family="sans-serif" font-size="13" font-weight="bold" lengthAdjust="spacing" textLength="7" x="355" y="211.5225">3</text><text fill="#000000" font-family="sans-serif" font-size="13" lengthAdjust="spacing" textLength="36" x="366" y="211.5225">status</text><path d="M10,231.7852 L71,231.7852 L71,241.0762 L61,251.0762 L10,251.0762 L10,231.7852 " fill="#EEEEEE" style="stroke:#000000;stroke-width:1.5;"/><rect fill="none" height="696.3438" style="stroke:#000000;stroke-width:1.5;" width="822" x="10" y="231.7852"/><text fill="#000000" font-family="sans-serif" font-size="13" font-weight="bold" lengthAdjust="spacing" textLength="16" x="25" y="246.8135">alt</text><text fill="#000000" font-family="sans-serif" font-size="11" font-weight="bold" lengthAdjust="spacing" textLength="26" x="86" y="245.6553">[404]</text><polygon fill="#181818" points="115,270.3672,105,274.3672,115,278.3672,111,274.3672" style="stroke:#181818;stroke-width:1.0;"/><line style="stroke:#181818;stroke-width:1.0;stroke-dasharray:2.0,2.0;" x1="109" x2="327" y1="274.3672" y2="274.3672"/><text fill="#000000" font-family="sans-serif" font-size="13" font-weight="bold" lengthAdjust="spacing" textLength="7" x="121" y="269.1045">4</text><text fill="#000000" font-family="sans-serif" font-size="13" lengthAdjust="spacing" textLength="72" x="132" y="269.1045">informs error</text><line style="stroke:#000000;stroke-width:1.0;stroke-dasharray:2.0,2.0;" x1="10" x2="832" y1="283.3672" y2="283.3672"/><text fill="#000000" font-family="sans-serif" font-size="11" font-weight="bold" lengthAdjust="spacing" textLength="26" x="15" y="295.2373">[200]</text><polygon fill="#181818" points="115,318.2891,105,322.2891,115,326.2891,111,322.2891" style="stroke:#181818;stroke-width:1.0;"/><line style="stroke:#181818;stroke-width:1.0;stroke-dasharray:2.0,2.0;" x1="109" x2="332" y1="322.2891" y2="322.2891"/><text fill="#000000" font-family="sans-serif" font-size="13" font-weight="bold" lengthAdjust="spacing" textLength="7" x="121" y="317.0264">5</text><text fill="#000000" font-family="sans-serif" font-size="13" lengthAdjust="spacing" textLength="189" x="132" y="317.0264">shows buildings and request one</text><polygon fill="#181818" points="316,349.5801,326,353.5801,316,357.5801,320,353.5801" style="stroke:#181818;stroke-width:1.0;"/><line style="stroke:#181818;stroke-width:1.0;" x1="104" x2="322" y1="353.5801" y2="353.5801"/><text fill="#000000" font-family="sans-serif" font-size="13" font-weight="bold" lengthAdjust="spacing" textLength="7" x="111" y="348.3174">6</text><text fill="#000000" font-family="sans-serif" font-size="13" lengthAdjust="spacing" textLength="97" x="122" y="348.3174">chooses building</text><polygon fill="#181818" points="696,380.8711,706,384.8711,696,388.8711,700,384.8711" style="stroke:#181818;stroke-width:1.0;"/><line style="stroke:#181818;stroke-width:1.0;" x1="338" x2="702" y1="384.8711" y2="384.8711"/><text fill="#000000" font-family="sans-serif" font-size="13" font-weight="bold" lengthAdjust="spacing" textLength="7" x="345" y="379.6084">7</text><text fill="#000000" font-family="sans-serif" font-size="13" lengthAdjust="spacing" textLength="206" x="356" y="379.6084">GET /buildings/{buildingCode}/floors</text><path d="M723,397.8711 L723,424.8711 L812,424.8711 L812,407.8711 L802,397.8711 L723,397.8711 " fill="#FEFFDD" style="stroke:#181818;stroke-width:0.5;"/><path d="M802,397.8711 L802,407.8711 L812,407.8711 L802,397.8711 " fill="#FEFFDD" style="stroke:#181818;stroke-width:0.5;"/><text fill="#000000" font-family="sans-serif" font-size="13" lengthAdjust="spacing" textLength="68" x="729" y="416.8994">see US 210</text><polygon fill="#181818" points="349,449.4531,339,453.4531,349,457.4531,345,453.4531" style="stroke:#181818;stroke-width:1.0;"/><line style="stroke:#181818;stroke-width:1.0;stroke-dasharray:2.0,2.0;" x1="343" x2="712" y1="453.4531" y2="453.4531"/><text fill="#000000" font-family="sans-serif" font-size="13" font-weight="bold" lengthAdjust="spacing" textLength="7" x="355" y="448.1904">8</text><text fill="#000000" font-family="sans-serif" font-size="13" lengthAdjust="spacing" textLength="36" x="366" y="448.1904">status</text><path d="M20,468.4531 L81,468.4531 L81,477.7441 L71,487.7441 L20,487.7441 L20,468.4531 " fill="#EEEEEE" style="stroke:#000000;stroke-width:1.5;"/><rect fill="none" height="452.6758" style="stroke:#000000;stroke-width:1.5;" width="802" x="20" y="468.4531"/><text fill="#000000" font-family="sans-serif" font-size="13" font-weight="bold" lengthAdjust="spacing" textLength="16" x="35" y="483.4814">alt</text><text fill="#000000" font-family="sans-serif" font-size="11" font-weight="bold" lengthAdjust="spacing" textLength="26" x="96" y="482.3232">[404]</text><polygon fill="#181818" points="115,507.0352,105,511.0352,115,515.0352,111,511.0352" style="stroke:#181818;stroke-width:1.0;"/><line style="stroke:#181818;stroke-width:1.0;stroke-dasharray:2.0,2.0;" x1="109" x2="327" y1="511.0352" y2="511.0352"/><text fill="#000000" font-family="sans-serif" font-size="13" font-weight="bold" lengthAdjust="spacing" textLength="7" x="121" y="505.7725">9</text><text fill="#000000" font-family="sans-serif" font-size="13" lengthAdjust="spacing" textLength="72" x="132" y="505.7725">informs error</text><line style="stroke:#000000;stroke-width:1.0;stroke-dasharray:2.0,2.0;" x1="20" x2="822" y1="520.0352" y2="520.0352"/><text fill="#000000" font-family="sans-serif" font-size="11" font-weight="bold" lengthAdjust="spacing" textLength="26" x="25" y="531.9053">[200]</text><polygon fill="#181818" points="115,554.957,105,558.957,115,562.957,111,558.957" style="stroke:#181818;stroke-width:1.0;"/><line style="stroke:#181818;stroke-width:1.0;stroke-dasharray:2.0,2.0;" x1="109" x2="332" y1="558.957" y2="558.957"/><text fill="#000000" font-family="sans-serif" font-size="13" font-weight="bold" lengthAdjust="spacing" textLength="14" x="121" y="553.6943">10</text><text fill="#000000" font-family="sans-serif" font-size="13" lengthAdjust="spacing" textLength="72" x="139" y="553.6943">shows floors</text><polygon fill="#181818" points="316,586.248,326,590.248,316,594.248,320,590.248" style="stroke:#181818;stroke-width:1.0;"/><line style="stroke:#181818;stroke-width:1.0;" x1="104" x2="322" y1="590.248" y2="590.248"/><text fill="#000000" font-family="sans-serif" font-size="13" font-weight="bold" lengthAdjust="spacing" textLength="14" x="111" y="584.9854">11</text><text fill="#000000" font-family="sans-serif" font-size="13" lengthAdjust="spacing" textLength="70" x="129" y="584.9854">choose floor</text><polygon fill="#181818" points="115,617.5391,105,621.5391,115,625.5391,111,621.5391" style="stroke:#181818;stroke-width:1.0;"/><line style="stroke:#181818;stroke-width:1.0;stroke-dasharray:2.0,2.0;" x1="109" x2="332" y1="621.5391" y2="621.5391"/><text fill="#000000" font-family="sans-serif" font-size="13" font-weight="bold" lengthAdjust="spacing" textLength="14" x="121" y="616.2764">12</text><text fill="#000000" font-family="sans-serif" font-size="13" lengthAdjust="spacing" textLength="72" x="139" y="616.2764">request map</text><polygon fill="#181818" points="316,648.8301,326,652.8301,316,656.8301,320,652.8301" style="stroke:#181818;stroke-width:1.0;"/><line style="stroke:#181818;stroke-width:1.0;" x1="104" x2="322" y1="652.8301" y2="652.8301"/><text fill="#000000" font-family="sans-serif" font-size="13" font-weight="bold" lengthAdjust="spacing" textLength="14" x="111" y="647.5674">13</text><text fill="#000000" font-family="sans-serif" font-size="13" lengthAdjust="spacing" textLength="76" x="129" y="647.5674">provides map</text><polygon fill="#181818" points="696,680.1211,706,684.1211,696,688.1211,700,684.1211" style="stroke:#181818;stroke-width:1.0;"/><line style="stroke:#181818;stroke-width:1.0;" x1="338" x2="702" y1="684.1211" y2="684.1211"/><text fill="#000000" font-family="sans-serif" font-size="13" font-weight="bold" lengthAdjust="spacing" textLength="14" x="345" y="678.8584">14</text><text fill="#000000" font-family="sans-serif" font-size="13" lengthAdjust="spacing" textLength="333" x="363" y="678.8584">PATCH /buildings/{buildingCode}/floors/{floorNumber}/map</text><path d="M723,697.1211 L723,724.1211 L812,724.1211 L812,707.1211 L802,697.1211 L723,697.1211 " fill="#FEFFDD" style="stroke:#181818;stroke-width:0.5;"/><path d="M802,697.1211 L802,707.1211 L812,707.1211 L802,697.1211 " fill="#FEFFDD" style="stroke:#181818;stroke-width:0.5;"/><text fill="#000000" font-family="sans-serif" font-size="13" lengthAdjust="spacing" textLength="68" x="729" y="716.1494">see US 310</text><polygon fill="#181818" points="349,748.7031,339,752.7031,349,756.7031,345,752.7031" style="stroke:#181818;stroke-width:1.0;"/><line style="stroke:#181818;stroke-width:1.0;stroke-dasharray:2.0,2.0;" x1="343" x2="712" y1="752.7031" y2="752.7031"/><text fill="#000000" font-family="sans-serif" font-size="13" font-weight="bold" lengthAdjust="spacing" textLength="14" x="355" y="747.4404">15</text><text fill="#000000" font-family="sans-serif" font-size="13" lengthAdjust="spacing" textLength="36" x="373" y="747.4404">status</text><path d="M30,767.7031 L91,767.7031 L91,776.9941 L81,786.9941 L30,786.9941 L30,767.7031 " fill="#EEEEEE" style="stroke:#000000;stroke-width:1.5;"/><rect fill="none" height="146.4258" style="stroke:#000000;stroke-width:1.5;" width="329" x="30" y="767.7031"/><text fill="#000000" font-family="sans-serif" font-size="13" font-weight="bold" lengthAdjust="spacing" textLength="16" x="45" y="782.7314">alt</text><text fill="#000000" font-family="sans-serif" font-size="11" font-weight="bold" lengthAdjust="spacing" textLength="26" x="106" y="781.5732">[404]</text><polygon fill="#181818" points="115,806.2852,105,810.2852,115,814.2852,111,810.2852" style="stroke:#181818;stroke-width:1.0;"/><line style="stroke:#181818;stroke-width:1.0;stroke-dasharray:2.0,2.0;" x1="109" x2="327" y1="810.2852" y2="810.2852"/><text fill="#000000" font-family="sans-serif" font-size="13" font-weight="bold" lengthAdjust="spacing" textLength="14" x="121" y="805.0225">16</text><text fill="#000000" font-family="sans-serif" font-size="13" lengthAdjust="spacing" textLength="72" x="139" y="805.0225">informs error</text><line style="stroke:#000000;stroke-width:1.0;stroke-dasharray:2.0,2.0;" x1="30" x2="359" y1="819.2852" y2="819.2852"/><text fill="#000000" font-family="sans-serif" font-size="11" font-weight="bold" lengthAdjust="spacing" textLength="26" x="35" y="831.1553">[400]</text><polygon fill="#181818" points="115,854.207,105,858.207,115,862.207,111,858.207" style="stroke:#181818;stroke-width:1.0;"/><line style="stroke:#181818;stroke-width:1.0;stroke-dasharray:2.0,2.0;" x1="109" x2="327" y1="858.207" y2="858.207"/><text fill="#000000" font-family="sans-serif" font-size="13" font-weight="bold" lengthAdjust="spacing" textLength="14" x="121" y="852.9443">17</text><text fill="#000000" font-family="sans-serif" font-size="13" lengthAdjust="spacing" textLength="72" x="139" y="852.9443">informs error</text><line style="stroke:#000000;stroke-width:1.0;stroke-dasharray:2.0,2.0;" x1="30" x2="359" y1="867.207" y2="867.207"/><text fill="#000000" font-family="sans-serif" font-size="11" font-weight="bold" lengthAdjust="spacing" textLength="26" x="35" y="879.0771">[201]</text><polygon fill="#181818" points="115,902.1289,105,906.1289,115,910.1289,111,906.1289" style="stroke:#181818;stroke-width:1.0;"/><line style="stroke:#181818;stroke-width:1.0;stroke-dasharray:2.0,2.0;" x1="109" x2="327" y1="906.1289" y2="906.1289"/><text fill="#000000" font-family="sans-serif" font-size="13" font-weight="bold" lengthAdjust="spacing" textLength="14" x="121" y="900.8662">18</text><text fill="#000000" font-family="sans-serif" font-size="13" lengthAdjust="spacing" textLength="150" x="139" y="900.8662">shows map floor with map</text><!--SRC=[lLHDRy8m3BttLrZSKGj3ciHXqWJiuy0qQUm7169ef3RfyW47n7-V2QHh004Rqd99OllPyNkAcRDAkdAAEadOp2eDhG4hAsTWp2HRe6u1C-0CkIkchPY9YaaBhQUHTto-nkRnq9jBxhE99RFemK2BTcW_40Jwu2g-TSqBHHLBLlc06a5PORyecZ0b9yppQ0Bfr8c22xamTKIDegBGM5AHJOj5Ra7DTnaCKkuFwDndKIJvsk5XnZBhJEHcXOLUrejiuMa4exRw8EHSwT80Qgrq58c5GUXcsHdujcokLWRgve193Xg_71fwlSIaHdCyxBTX8TwEc9xbIXdyoVrxfjDrE0uKnqtgHRk5_sxdQlwFs_qtLO8eZNPZgWFacEqTvYpJjV91vV09BjUej5eAJf9U-M_U7oU3bujwfck_l_bPi4b3xhyfV7UhmgVKZMWxBQsNjNSWwxMuRjP9BdnGOcK_irR2vj0a2IK_UuvrRTosu_4R]--></g></svg>