<?xml version="1.0" encoding="us-ascii" standalone="no"?><svg xmlns="http://www.w3.org/2000/svg" xmlns:xlink="http://www.w3.org/1999/xlink" contentStyleType="text/css" height="813px" preserveAspectRatio="none" style="width:1360px;height:813px;background:#FFFFFF;" version="1.1" viewBox="0 0 1360 813" width="1360px" zoomAndPan="magnify"><defs/><g><rect fill="#FFFFFF" height="625.9004" style="stroke:#181818;stroke-width:1.0;" width="10" x="370" y="98.7988"/><rect fill="#FFFFFF" height="596.5898" style="stroke:#181818;stroke-width:1.0;" width="10" x="551" y="128.1094"/><rect fill="#FFFFFF" height="567.2793" style="stroke:#181818;stroke-width:1.0;" width="10" x="753" y="157.4199"/><rect fill="#FFFFFF" height="87.2871" style="stroke:#181818;stroke-width:1.0;" width="10" x="981" y="527.4805"/><rect fill="#FFFFFF" height="47.9766" style="stroke:#181818;stroke-width:1.0;" width="10" x="1100" y="566.791"/><rect fill="#FFFFFF" height="62.3105" style="stroke:#181818;stroke-width:1.0;" width="10" x="1175.5" y="189.7305"/><rect fill="#FFFFFF" height="62.3105" style="stroke:#181818;stroke-width:1.0;" width="10" x="1175.5" y="435.8594"/><rect fill="#FFFFFF" height="30" style="stroke:#181818;stroke-width:1.0;" width="10" x="1263.5" y="222.041"/><rect fill="#FFFFFF" height="30" style="stroke:#181818;stroke-width:1.0;" width="10" x="1263.5" y="468.1699"/><rect fill="none" height="450.6582" style="stroke:#000000;stroke-width:1.5;" width="1350" x="3" y="267.041"/><rect fill="none" height="228.5293" style="stroke:#000000;stroke-width:1.5;" width="626" x="717" y="394.2383"/><line style="stroke:#181818;stroke-width:0.5;stroke-dasharray:5.0,5.0;" x1="375" x2="375" y1="67.4883" y2="734.6992"/><line style="stroke:#181818;stroke-width:0.5;stroke-dasharray:5.0,5.0;" x1="556" x2="556" y1="67.4883" y2="734.6992"/><line style="stroke:#181818;stroke-width:0.5;stroke-dasharray:5.0,5.0;" x1="758" x2="758" y1="67.4883" y2="734.6992"/><line style="stroke:#181818;stroke-width:0.5;stroke-dasharray:5.0,5.0;" x1="824" x2="824" y1="67.4883" y2="734.6992"/><line style="stroke:#181818;stroke-width:0.5;stroke-dasharray:5.0,5.0;" x1="986" x2="986" y1="67.4883" y2="734.6992"/><line style="stroke:#181818;stroke-width:0.5;stroke-dasharray:5.0,5.0;" x1="1105" x2="1105" y1="574.4688" y2="734.6992"/><line style="stroke:#181818;stroke-width:0.5;stroke-dasharray:5.0,5.0;" x1="1180" x2="1180" y1="67.4883" y2="734.6992"/><line style="stroke:#181818;stroke-width:0.5;stroke-dasharray:5.0,5.0;" x1="1268" x2="1268" y1="67.4883" y2="734.6992"/><rect fill="#E2E2F0" height="30.4883" rx="2.5" ry="2.5" style="stroke:#181818;stroke-width:0.5;" width="54" x="348" y="36"/><text fill="#000000" font-family="sans-serif" font-size="14" lengthAdjust="spacing" textLength="40" x="355" y="56.5352">Route</text><rect fill="#E2E2F0" height="30.4883" rx="2.5" ry="2.5" style="stroke:#181818;stroke-width:0.5;" width="54" x="348" y="733.6992"/><text fill="#000000" font-family="sans-serif" font-size="14" lengthAdjust="spacing" textLength="40" x="355" y="754.2344">Route</text><rect fill="#E2E2F0" height="30.4883" rx="2.5" ry="2.5" style="stroke:#181818;stroke-width:0.5;" width="84" x="514" y="36"/><text fill="#000000" font-family="sans-serif" font-size="14" lengthAdjust="spacing" textLength="70" x="521" y="56.5352">Controller</text><rect fill="#E2E2F0" height="30.4883" rx="2.5" ry="2.5" style="stroke:#181818;stroke-width:0.5;" width="84" x="514" y="733.6992"/><text fill="#000000" font-family="sans-serif" font-size="14" lengthAdjust="spacing" textLength="70" x="521" y="754.2344">Controller</text><rect fill="#E2E2F0" height="30.4883" rx="2.5" ry="2.5" style="stroke:#181818;stroke-width:0.5;" width="62" x="727" y="36"/><text fill="#000000" font-family="sans-serif" font-size="14" lengthAdjust="spacing" textLength="48" x="734" y="56.5352">Service</text><rect fill="#E2E2F0" height="30.4883" rx="2.5" ry="2.5" style="stroke:#181818;stroke-width:0.5;" width="62" x="727" y="733.6992"/><text fill="#000000" font-family="sans-serif" font-size="14" lengthAdjust="spacing" textLength="48" x="734" y="754.2344">Service</text><rect fill="#E2E2F0" height="46.9766" rx="2.5" ry="2.5" style="stroke:#181818;stroke-width:0.5;" width="51" x="799" y="19.5117"/><text fill="#000000" font-family="sans-serif" font-size="14" lengthAdjust="spacing" textLength="37" x="806" y="40.0469">floor:</text><text fill="#000000" font-family="sans-serif" font-size="14" lengthAdjust="spacing" textLength="36" x="806.5" y="56.5352">Floor</text><rect fill="#E2E2F0" height="46.9766" rx="2.5" ry="2.5" style="stroke:#181818;stroke-width:0.5;" width="51" x="799" y="733.6992"/><text fill="#000000" font-family="sans-serif" font-size="14" lengthAdjust="spacing" textLength="37" x="806" y="754.2344">floor:</text><text fill="#000000" font-family="sans-serif" font-size="14" lengthAdjust="spacing" textLength="36" x="806.5" y="770.7227">Floor</text><rect fill="#E2E2F0" height="30.4883" rx="2.5" ry="2.5" style="stroke:#181818;stroke-width:0.5;" width="66" x="953" y="36"/><text fill="#000000" font-family="sans-serif" font-size="14" lengthAdjust="spacing" textLength="52" x="960" y="56.5352">Mapper</text><rect fill="#E2E2F0" height="30.4883" rx="2.5" ry="2.5" style="stroke:#181818;stroke-width:0.5;" width="66" x="953" y="733.6992"/><text fill="#000000" font-family="sans-serif" font-size="14" lengthAdjust="spacing" textLength="52" x="960" y="754.2344">Mapper</text><rect fill="#E2E2F0" height="46.9766" rx="2.5" ry="2.5" style="stroke:#181818;stroke-width:0.5;" width="44" x="1083" y="733.6992"/><text fill="#000000" font-family="sans-serif" font-size="14" lengthAdjust="spacing" textLength="27" x="1091.5" y="754.2344">dto:</text><text fill="#000000" font-family="sans-serif" font-size="14" lengthAdjust="spacing" textLength="30" x="1090" y="770.7227">DTO</text><rect fill="#E2E2F0" height="30.4883" rx="2.5" ry="2.5" style="stroke:#181818;stroke-width:0.5;" width="87" x="1137" y="36"/><text fill="#000000" font-family="sans-serif" font-size="14" lengthAdjust="spacing" textLength="73" x="1144" y="56.5352">Repository</text><rect fill="#E2E2F0" height="30.4883" rx="2.5" ry="2.5" style="stroke:#181818;stroke-width:0.5;" width="87" x="1137" y="733.6992"/><text fill="#000000" font-family="sans-serif" font-size="14" lengthAdjust="spacing" textLength="73" x="1144" y="754.2344">Repository</text><text fill="#000000" font-family="sans-serif" font-size="14" lengthAdjust="spacing" textLength="63" x="1234" y="64.5352">Database</text><path d="M1250.5,15 C1250.5,5 1268.5,5 1268.5,5 C1268.5,5 1286.5,5 1286.5,15 L1286.5,41 C1286.5,51 1268.5,51 1268.5,51 C1268.5,51 1250.5,51 1250.5,41 L1250.5,15 " fill="#E2E2F0" style="stroke:#181818;stroke-width:1.5;"/><path d="M1250.5,15 C1250.5,25 1268.5,25 1268.5,25 C1268.5,25 1286.5,25 1286.5,15 " fill="none" style="stroke:#181818;stroke-width:1.5;"/><text fill="#000000" font-family="sans-serif" font-size="14" lengthAdjust="spacing" textLength="63" x="1234" y="747.2344">Database</text><path d="M1250.5,760.1875 C1250.5,750.1875 1268.5,750.1875 1268.5,750.1875 C1268.5,750.1875 1286.5,750.1875 1286.5,760.1875 L1286.5,786.1875 C1286.5,796.1875 1268.5,796.1875 1268.5,796.1875 C1268.5,796.1875 1250.5,796.1875 1250.5,786.1875 L1250.5,760.1875 " fill="#E2E2F0" style="stroke:#181818;stroke-width:1.5;"/><path d="M1250.5,760.1875 C1250.5,770.1875 1268.5,770.1875 1268.5,770.1875 C1268.5,770.1875 1286.5,770.1875 1286.5,760.1875 " fill="none" style="stroke:#181818;stroke-width:1.5;"/><rect fill="#FFFFFF" height="625.9004" style="stroke:#181818;stroke-width:1.0;" width="10" x="370" y="98.7988"/><rect fill="#FFFFFF" height="596.5898" style="stroke:#181818;stroke-width:1.0;" width="10" x="551" y="128.1094"/><rect fill="#FFFFFF" height="567.2793" style="stroke:#181818;stroke-width:1.0;" width="10" x="753" y="157.4199"/><rect fill="#FFFFFF" height="87.2871" style="stroke:#181818;stroke-width:1.0;" width="10" x="981" y="527.4805"/><rect fill="#FFFFFF" height="47.9766" style="stroke:#181818;stroke-width:1.0;" width="10" x="1100" y="566.791"/><rect fill="#FFFFFF" height="62.3105" style="stroke:#181818;stroke-width:1.0;" width="10" x="1175.5" y="189.7305"/><rect fill="#FFFFFF" height="62.3105" style="stroke:#181818;stroke-width:1.0;" width="10" x="1175.5" y="435.8594"/><rect fill="#FFFFFF" height="30" style="stroke:#181818;stroke-width:1.0;" width="10" x="1263.5" y="222.041"/><rect fill="#FFFFFF" height="30" style="stroke:#181818;stroke-width:1.0;" width="10" x="1263.5" y="468.1699"/><polygon fill="#181818" points="358,94.7988,368,98.7988,358,102.7988,362,98.7988" style="stroke:#181818;stroke-width:1.0;"/><line style="stroke:#181818;stroke-width:1.0;stroke-dasharray:2.0,2.0;" x1="0" x2="364" y1="98.7988" y2="98.7988"/><text fill="#000000" font-family="sans-serif" font-size="13" font-weight="bold" lengthAdjust="spacing" textLength="9" x="7" y="94.0566">1</text><text fill="#000000" font-family="sans-serif" font-size="13" lengthAdjust="spacing" textLength="331" x="20" y="94.0566">GET /buildings/?minFloors={min}&amp;maxFloors={max}</text><polygon fill="#181818" points="539,124.1094,549,128.1094,539,132.1094,543,128.1094" style="stroke:#181818;stroke-width:1.0;"/><line style="stroke:#181818;stroke-width:1.0;" x1="380" x2="545" y1="128.1094" y2="128.1094"/><text fill="#000000" font-family="sans-serif" font-size="13" font-weight="bold" lengthAdjust="spacing" textLength="9" x="387" y="123.3672">2</text><text fill="#000000" font-family="sans-serif" font-size="13" lengthAdjust="spacing" textLength="139" x="400" y="123.3672">getBuildingsByFloors()</text><polygon fill="#181818" points="741,153.4199,751,157.4199,741,161.4199,745,157.4199" style="stroke:#181818;stroke-width:1.0;"/><line style="stroke:#181818;stroke-width:1.0;" x1="561" x2="747" y1="157.4199" y2="157.4199"/><text fill="#000000" font-family="sans-serif" font-size="13" font-weight="bold" lengthAdjust="spacing" textLength="9" x="568" y="152.6777">3</text><text fill="#000000" font-family="sans-serif" font-size="13" lengthAdjust="spacing" textLength="160" x="581" y="152.6777">getBuildingsByFloors(dto)</text><polygon fill="#181818" points="1163.5,185.7305,1173.5,189.7305,1163.5,193.7305,1167.5,189.7305" style="stroke:#181818;stroke-width:1.0;"/><line style="stroke:#181818;stroke-width:1.0;" x1="763" x2="1169.5" y1="189.7305" y2="189.7305"/><text fill="#000000" font-family="sans-serif" font-size="13" font-weight="bold" lengthAdjust="spacing" textLength="9" x="770" y="184.9883">4</text><text fill="#000000" font-family="sans-serif" font-size="13" lengthAdjust="spacing" textLength="302" x="783" y="184.9883">findBuildingsByMinMaxFloors(dto.min, dto.max)</text><path d="M1190,170.4199 L1190,195.4199 L1309,195.4199 L1309,180.4199 L1299,170.4199 L1190,170.4199 " fill="#FEFFDD" style="stroke:#181818;stroke-width:0.5;"/><path d="M1299,170.4199 L1299,180.4199 L1309,180.4199 L1299,170.4199 " fill="#FEFFDD" style="stroke:#181818;stroke-width:0.5;"/><text fill="#000000" font-family="sans-serif" font-size="13" lengthAdjust="spacing" textLength="98" x="1196" y="187.9883">floor repository</text><polygon fill="#181818" points="1251.5,218.041,1261.5,222.041,1251.5,226.041,1255.5,222.041" style="stroke:#181818;stroke-width:1.0;"/><line style="stroke:#181818;stroke-width:1.0;" x1="1185.5" x2="1257.5" y1="222.041" y2="222.041"/><text fill="#000000" font-family="sans-serif" font-size="13" font-weight="bold" lengthAdjust="spacing" textLength="9" x="1192.5" y="217.2988">5</text><text fill="#000000" font-family="sans-serif" font-size="13" lengthAdjust="spacing" textLength="33" x="1205.5" y="217.2988">find()</text><path d="M3,267.041 L65,267.041 L65,274.3516 L55,284.3516 L3,284.3516 L3,267.041 " fill="#EEEEEE" style="stroke:#000000;stroke-width:1.5;"/><rect fill="none" height="450.6582" style="stroke:#000000;stroke-width:1.5;" width="1350" x="3" y="267.041"/><text fill="#000000" font-family="sans-serif" font-size="13" font-weight="bold" lengthAdjust="spacing" textLength="17" x="18" y="280.6094">alt</text><text fill="#000000" font-family="sans-serif" font-size="11" font-weight="bold" lengthAdjust="spacing" textLength="128" x="80" y="279.6758">[building(s) not found]</text><polygon fill="#181818" points="572,301.6621,562,305.6621,572,309.6621,568,305.6621" style="stroke:#181818;stroke-width:1.0;"/><line style="stroke:#181818;stroke-width:1.0;stroke-dasharray:2.0,2.0;" x1="566" x2="752" y1="305.6621" y2="305.6621"/><text fill="#000000" font-family="sans-serif" font-size="13" font-weight="bold" lengthAdjust="spacing" textLength="9" x="578" y="300.9199">6</text><text fill="#000000" font-family="sans-serif" font-size="13" lengthAdjust="spacing" textLength="30" x="591" y="300.9199">error</text><polygon fill="#181818" points="391,330.9727,381,334.9727,391,338.9727,387,334.9727" style="stroke:#181818;stroke-width:1.0;"/><line style="stroke:#181818;stroke-width:1.0;stroke-dasharray:2.0,2.0;" x1="385" x2="550" y1="334.9727" y2="334.9727"/><text fill="#000000" font-family="sans-serif" font-size="13" font-weight="bold" lengthAdjust="spacing" textLength="9" x="397" y="330.2305">7</text><text fill="#000000" font-family="sans-serif" font-size="13" lengthAdjust="spacing" textLength="66" x="410" y="330.2305">error (404)</text><polygon fill="#181818" points="11,360.2832,1,364.2832,11,368.2832,7,364.2832" style="stroke:#181818;stroke-width:1.0;"/><line style="stroke:#181818;stroke-width:1.0;stroke-dasharray:2.0,2.0;" x1="5" x2="369" y1="364.2832" y2="364.2832"/><text fill="#000000" font-family="sans-serif" font-size="13" font-weight="bold" lengthAdjust="spacing" textLength="9" x="17" y="359.541">8</text><text fill="#000000" font-family="sans-serif" font-size="13" lengthAdjust="spacing" textLength="178" x="30" y="359.541">404: Unprocessable Content</text><line style="stroke:#000000;stroke-width:1.0;stroke-dasharray:2.0,2.0;" x1="3" x2="1353" y1="373.2832" y2="373.2832"/><text fill="#000000" font-family="sans-serif" font-size="11" font-weight="bold" lengthAdjust="spacing" textLength="106" x="8" y="383.918">[building(s) found]</text><path d="M717,394.2383 L791,394.2383 L791,401.5488 L781,411.5488 L717,411.5488 L717,394.2383 " fill="#EEEEEE" style="stroke:#000000;stroke-width:1.5;"/><rect fill="none" height="228.5293" style="stroke:#000000;stroke-width:1.5;" width="626" x="717" y="394.2383"/><text fill="#000000" font-family="sans-serif" font-size="13" font-weight="bold" lengthAdjust="spacing" textLength="29" x="732" y="407.8066">loop</text><text fill="#000000" font-family="sans-serif" font-size="11" font-weight="bold" lengthAdjust="spacing" textLength="133" x="806" y="406.873">[for each buildingCode]</text><polygon fill="#181818" points="1163.5,431.8594,1173.5,435.8594,1163.5,439.8594,1167.5,435.8594" style="stroke:#181818;stroke-width:1.0;"/><line style="stroke:#181818;stroke-width:1.0;" x1="763" x2="1169.5" y1="435.8594" y2="435.8594"/><text fill="#000000" font-family="sans-serif" font-size="13" font-weight="bold" lengthAdjust="spacing" textLength="9" x="770" y="431.1172">9</text><text fill="#000000" font-family="sans-serif" font-size="13" lengthAdjust="spacing" textLength="163" x="783" y="431.1172">findByCode(buildingCode)</text><path d="M1190,416.5488 L1190,441.5488 L1331,441.5488 L1331,426.5488 L1321,416.5488 L1190,416.5488 " fill="#FEFFDD" style="stroke:#181818;stroke-width:0.5;"/><path d="M1321,416.5488 L1321,426.5488 L1331,426.5488 L1321,416.5488 " fill="#FEFFDD" style="stroke:#181818;stroke-width:0.5;"/><text fill="#000000" font-family="sans-serif" font-size="13" lengthAdjust="spacing" textLength="120" x="1196" y="434.1172">building repository</text><polygon fill="#181818" points="1251.5,464.1699,1261.5,468.1699,1251.5,472.1699,1255.5,468.1699" style="stroke:#181818;stroke-width:1.0;"/><line style="stroke:#181818;stroke-width:1.0;" x1="1185.5" x2="1257.5" y1="468.1699" y2="468.1699"/><text fill="#000000" font-family="sans-serif" font-size="13" font-weight="bold" lengthAdjust="spacing" textLength="18" x="1192.5" y="463.4277">10</text><text fill="#000000" font-family="sans-serif" font-size="13" lengthAdjust="spacing" textLength="33" x="1214.5" y="463.4277">find()</text><polygon fill="#181818" points="969,523.4805,979,527.4805,969,531.4805,973,527.4805" style="stroke:#181818;stroke-width:1.0;"/><line style="stroke:#181818;stroke-width:1.0;" x1="763" x2="975" y1="527.4805" y2="527.4805"/><text fill="#000000" font-family="sans-serif" font-size="13" font-weight="bold" lengthAdjust="spacing" textLength="18" x="770" y="522.7383">11</text><text fill="#000000" font-family="sans-serif" font-size="13" lengthAdjust="spacing" textLength="177" x="792" y="522.7383">toDTO(building, floorCount)</text><polygon fill="#181818" points="1071,552.791,1081,556.791,1071,560.791,1075,556.791" style="stroke:#181818;stroke-width:1.0;"/><line style="stroke:#181818;stroke-width:1.0;stroke-dasharray:2.0,2.0;" x1="991" x2="1077" y1="556.791" y2="556.791"/><text fill="#000000" font-family="sans-serif" font-size="13" font-weight="bold" lengthAdjust="spacing" textLength="18" x="998" y="552.0488">12</text><text fill="#000000" font-family="sans-serif" font-size="13" lengthAdjust="spacing" textLength="46" x="1020" y="552.0488">create()</text><rect fill="#E2E2F0" height="46.9766" rx="2.5" ry="2.5" style="stroke:#181818;stroke-width:0.5;" width="44" x="1083" y="535.4805"/><text fill="#000000" font-family="sans-serif" font-size="14" lengthAdjust="spacing" textLength="27" x="1091.5" y="556.0156">dto:</text><text fill="#000000" font-family="sans-serif" font-size="14" lengthAdjust="spacing" textLength="30" x="1090" y="572.5039">DTO</text><path d="M1137,544.1582 L1137,584.1582 L1333,584.1582 L1333,554.1582 L1323,544.1582 L1137,544.1582 " fill="#FEFFDD" style="stroke:#181818;stroke-width:0.5;"/><path d="M1323,544.1582 L1323,554.1582 L1333,554.1582 L1323,544.1582 " fill="#FEFFDD" style="stroke:#181818;stroke-width:0.5;"/><text fill="#000000" font-family="sans-serif" font-size="13" lengthAdjust="spacing" textLength="126" x="1143" y="561.7266">dto storing building</text><text fill="#000000" font-family="sans-serif" font-size="13" lengthAdjust="spacing" textLength="175" x="1143" y="577.0371">information and floor count</text><polygon fill="#181818" points="774,610.7676,764,614.7676,774,618.7676,770,614.7676" style="stroke:#181818;stroke-width:1.0;"/><line style="stroke:#181818;stroke-width:1.0;stroke-dasharray:2.0,2.0;" x1="768" x2="985" y1="614.7676" y2="614.7676"/><text fill="#000000" font-family="sans-serif" font-size="13" font-weight="bold" lengthAdjust="spacing" textLength="18" x="780" y="610.0254">13</text><text fill="#000000" font-family="sans-serif" font-size="13" lengthAdjust="spacing" textLength="21" x="802" y="610.0254">dto</text><polygon fill="#181818" points="572,647.0781,562,651.0781,572,655.0781,568,651.0781" style="stroke:#181818;stroke-width:1.0;"/><line style="stroke:#181818;stroke-width:1.0;stroke-dasharray:2.0,2.0;" x1="566" x2="752" y1="651.0781" y2="651.0781"/><text fill="#000000" font-family="sans-serif" font-size="13" font-weight="bold" lengthAdjust="spacing" textLength="18" x="578" y="646.3359">14</text><text fill="#000000" font-family="sans-serif" font-size="13" lengthAdjust="spacing" textLength="44" x="600" y="646.3359">dtoList</text><polygon fill="#181818" points="391,676.3887,381,680.3887,391,684.3887,387,680.3887" style="stroke:#181818;stroke-width:1.0;"/><line style="stroke:#181818;stroke-width:1.0;stroke-dasharray:2.0,2.0;" x1="385" x2="550" y1="680.3887" y2="680.3887"/><text fill="#000000" font-family="sans-serif" font-size="13" font-weight="bold" lengthAdjust="spacing" textLength="18" x="397" y="675.6465">15</text><text fill="#000000" font-family="sans-serif" font-size="13" lengthAdjust="spacing" textLength="57" x="419" y="675.6465">response</text><polygon fill="#181818" points="11,705.6992,1,709.6992,11,713.6992,7,709.6992" style="stroke:#181818;stroke-width:1.0;"/><line style="stroke:#181818;stroke-width:1.0;stroke-dasharray:2.0,2.0;" x1="5" x2="369" y1="709.6992" y2="709.6992"/><text fill="#000000" font-family="sans-serif" font-size="13" font-weight="bold" lengthAdjust="spacing" textLength="18" x="17" y="704.957">16</text><text fill="#000000" font-family="sans-serif" font-size="13" lengthAdjust="spacing" textLength="50" x="39" y="704.957">422: OK</text><!--SRC=[ZLHDRzim3BtxLn0v37RHh4EHax4FeEcsmnOKsBfJUv5j9HLWIuR410c6_lTHaktANybqYMq-lZm-ac9xL79VPLn7KSqqYbpKJ28iVgazyWKm0xeVM2k9MfKbrowQeoxxWDzS7qJkSyqX7_1kIwLq-Yo_sL-7SL_we0shwuQ_OdK_Lg2YzFl71nUcjw5mNYiZKEcJLq-lKS6GPSnmMDmtJpuvYwAdvV8pw1I-Vts4csmloaB8dRdvKWalqNpwIu-lxofsxDxPyJLYEOe3Gqxs01qDH6EzW1Hs7EzQehkJpueJ1-kod6tG79T7-UJMN3hLcNJuZiNQ2y6n1BOSgfc8ja8M0TD6o4rRXELxJtLTWtjWnwJ7yrQSTGy6HoeR4RiNJ7tp7CnxFW8xBQIfo1f5SJB2T7z73Hd62ZuN3I9EPh-24g7jPcmIgncsQY-BqHyupzwQnxLMUWJo7RBMjX28LnzMurAUFYwN5aF15Fx8MgkS6yEoaeDT72wnby9B6ifGfzVOmv33DNtNGFM-TE2rAlXqBVt-domm3hFE-3_PxdxBYRSbEzVs_stzfVQV7u6BOn2OGXS9oK15DqTdnxMVtpMPZaaqxukzXAQKMKux5RH4LrV4dcjEy9aomxMX131ad7Mni_DP2abzhXWA9O79ejcktCgxu1nEzoqKwM-NEMHeyWGa20_Du2JKpkYbpIBQdyBW-TtItDHA6ZwvM0wnkhrDuU77K48qeRIz7eDFxjuDHoRw1m00]--></g></svg>