<?xml version="1.0" encoding="us-ascii" standalone="no"?><svg xmlns="http://www.w3.org/2000/svg" xmlns:xlink="http://www.w3.org/1999/xlink" contentStyleType="text/css" height="876px" preserveAspectRatio="none" style="width:1592px;height:876px;background:#FFFFFF;" version="1.1" viewBox="0 0 1592 876" width="1592px" zoomAndPan="magnify"><defs/><g><rect fill="#FFFFFF" height="689.1426" style="stroke:#181818;stroke-width:1.0;" width="10" x="370" y="98.7988"/><rect fill="#FFFFFF" height="659.832" style="stroke:#181818;stroke-width:1.0;" width="10" x="551" y="128.1094"/><rect fill="#FFFFFF" height="630.5215" style="stroke:#181818;stroke-width:1.0;" width="10" x="753" y="157.4199"/><rect fill="#FFFFFF" height="87.2871" style="stroke:#181818;stroke-width:1.0;" width="10" x="981" y="590.7227"/><rect fill="#FFFFFF" height="47.9766" style="stroke:#181818;stroke-width:1.0;" width="10" x="1100" y="630.0332"/><rect fill="#FFFFFF" height="96.9316" style="stroke:#181818;stroke-width:1.0;" width="10" x="1175.5" y="189.7305"/><rect fill="#FFFFFF" height="90.9316" style="stroke:#181818;stroke-width:1.0;" width="10" x="1175.5" y="470.4805"/><rect fill="#FFFFFF" height="32.3105" style="stroke:#181818;stroke-width:1.0;" width="10" x="1283.5" y="222.041"/><rect fill="#FFFFFF" height="29.3105" style="stroke:#181818;stroke-width:1.0;" width="10" x="1283.5" y="502.791"/><rect fill="none" height="479.2793" style="stroke:#000000;stroke-width:1.5;" width="1350" x="3" y="301.6621"/><rect fill="none" height="257.1504" style="stroke:#000000;stroke-width:1.5;" width="626" x="717" y="428.8594"/><line style="stroke:#181818;stroke-width:0.5;stroke-dasharray:5.0,5.0;" x1="375" x2="375" y1="67.4883" y2="797.9414"/><line style="stroke:#181818;stroke-width:0.5;stroke-dasharray:5.0,5.0;" x1="556" x2="556" y1="67.4883" y2="797.9414"/><line style="stroke:#181818;stroke-width:0.5;stroke-dasharray:5.0,5.0;" x1="758" x2="758" y1="67.4883" y2="797.9414"/><line style="stroke:#181818;stroke-width:0.5;stroke-dasharray:5.0,5.0;" x1="824" x2="824" y1="67.4883" y2="797.9414"/><line style="stroke:#181818;stroke-width:0.5;stroke-dasharray:5.0,5.0;" x1="986" x2="986" y1="67.4883" y2="797.9414"/><line style="stroke:#181818;stroke-width:0.5;stroke-dasharray:5.0,5.0;" x1="1105" x2="1105" y1="637.7109" y2="797.9414"/><line style="stroke:#181818;stroke-width:0.5;stroke-dasharray:5.0,5.0;" x1="1180" x2="1180" y1="67.4883" y2="797.9414"/><line style="stroke:#181818;stroke-width:0.5;stroke-dasharray:5.0,5.0;" x1="1288" x2="1288" y1="67.4883" y2="797.9414"/><rect fill="#E2E2F0" height="30.4883" rx="2.5" ry="2.5" style="stroke:#181818;stroke-width:0.5;" width="54" x="348" y="36"/><text fill="#000000" font-family="sans-serif" font-size="14" lengthAdjust="spacing" textLength="40" x="355" y="56.5352">Route</text><rect fill="#E2E2F0" height="30.4883" rx="2.5" ry="2.5" style="stroke:#181818;stroke-width:0.5;" width="54" x="348" y="796.9414"/><text fill="#000000" font-family="sans-serif" font-size="14" lengthAdjust="spacing" textLength="40" x="355" y="817.4766">Route</text><rect fill="#E2E2F0" height="30.4883" rx="2.5" ry="2.5" style="stroke:#181818;stroke-width:0.5;" width="84" x="514" y="36"/><text fill="#000000" font-family="sans-serif" font-size="14" lengthAdjust="spacing" textLength="70" x="521" y="56.5352">Controller</text><rect fill="#E2E2F0" height="30.4883" rx="2.5" ry="2.5" style="stroke:#181818;stroke-width:0.5;" width="84" x="514" y="796.9414"/><text fill="#000000" font-family="sans-serif" font-size="14" lengthAdjust="spacing" textLength="70" x="521" y="817.4766">Controller</text><rect fill="#E2E2F0" height="30.4883" rx="2.5" ry="2.5" style="stroke:#181818;stroke-width:0.5;" width="62" x="727" y="36"/><text fill="#000000" font-family="sans-serif" font-size="14" lengthAdjust="spacing" textLength="48" x="734" y="56.5352">Service</text><rect fill="#E2E2F0" height="30.4883" rx="2.5" ry="2.5" style="stroke:#181818;stroke-width:0.5;" width="62" x="727" y="796.9414"/><text fill="#000000" font-family="sans-serif" font-size="14" lengthAdjust="spacing" textLength="48" x="734" y="817.4766">Service</text><rect fill="#E2E2F0" height="46.9766" rx="2.5" ry="2.5" style="stroke:#181818;stroke-width:0.5;" width="51" x="799" y="19.5117"/><text fill="#000000" font-family="sans-serif" font-size="14" lengthAdjust="spacing" textLength="37" x="806" y="40.0469">floor:</text><text fill="#000000" font-family="sans-serif" font-size="14" lengthAdjust="spacing" textLength="36" x="806.5" y="56.5352">Floor</text><rect fill="#E2E2F0" height="46.9766" rx="2.5" ry="2.5" style="stroke:#181818;stroke-width:0.5;" width="51" x="799" y="796.9414"/><text fill="#000000" font-family="sans-serif" font-size="14" lengthAdjust="spacing" textLength="37" x="806" y="817.4766">floor:</text><text fill="#000000" font-family="sans-serif" font-size="14" lengthAdjust="spacing" textLength="36" x="806.5" y="833.9648">Floor</text><rect fill="#E2E2F0" height="30.4883" rx="2.5" ry="2.5" style="stroke:#181818;stroke-width:0.5;" width="66" x="953" y="36"/><text fill="#000000" font-family="sans-serif" font-size="14" lengthAdjust="spacing" textLength="52" x="960" y="56.5352">Mapper</text><rect fill="#E2E2F0" height="30.4883" rx="2.5" ry="2.5" style="stroke:#181818;stroke-width:0.5;" width="66" x="953" y="796.9414"/><text fill="#000000" font-family="sans-serif" font-size="14" lengthAdjust="spacing" textLength="52" x="960" y="817.4766">Mapper</text><rect fill="#E2E2F0" height="46.9766" rx="2.5" ry="2.5" style="stroke:#181818;stroke-width:0.5;" width="44" x="1083" y="796.9414"/><text fill="#000000" font-family="sans-serif" font-size="14" lengthAdjust="spacing" textLength="27" x="1091.5" y="817.4766">dto:</text><text fill="#000000" font-family="sans-serif" font-size="14" lengthAdjust="spacing" textLength="30" x="1090" y="833.9648">DTO</text><rect fill="#E2E2F0" height="30.4883" rx="2.5" ry="2.5" style="stroke:#181818;stroke-width:0.5;" width="87" x="1137" y="36"/><text fill="#000000" font-family="sans-serif" font-size="14" lengthAdjust="spacing" textLength="73" x="1144" y="56.5352">Repository</text><rect fill="#E2E2F0" height="30.4883" rx="2.5" ry="2.5" style="stroke:#181818;stroke-width:0.5;" width="87" x="1137" y="796.9414"/><text fill="#000000" font-family="sans-serif" font-size="14" lengthAdjust="spacing" textLength="73" x="1144" y="817.4766">Repository</text><text fill="#000000" font-family="sans-serif" font-size="14" lengthAdjust="spacing" textLength="63" x="1254" y="64.5352">Database</text><path d="M1270.5,15 C1270.5,5 1288.5,5 1288.5,5 C1288.5,5 1306.5,5 1306.5,15 L1306.5,41 C1306.5,51 1288.5,51 1288.5,51 C1288.5,51 1270.5,51 1270.5,41 L1270.5,15 " fill="#E2E2F0" style="stroke:#181818;stroke-width:1.5;"/><path d="M1270.5,15 C1270.5,25 1288.5,25 1288.5,25 C1288.5,25 1306.5,25 1306.5,15 " fill="none" style="stroke:#181818;stroke-width:1.5;"/><text fill="#000000" font-family="sans-serif" font-size="14" lengthAdjust="spacing" textLength="63" x="1254" y="810.4766">Database</text><path d="M1270.5,823.4297 C1270.5,813.4297 1288.5,813.4297 1288.5,813.4297 C1288.5,813.4297 1306.5,813.4297 1306.5,823.4297 L1306.5,849.4297 C1306.5,859.4297 1288.5,859.4297 1288.5,859.4297 C1288.5,859.4297 1270.5,859.4297 1270.5,849.4297 L1270.5,823.4297 " fill="#E2E2F0" style="stroke:#181818;stroke-width:1.5;"/><path d="M1270.5,823.4297 C1270.5,833.4297 1288.5,833.4297 1288.5,833.4297 C1288.5,833.4297 1306.5,833.4297 1306.5,823.4297 " fill="none" style="stroke:#181818;stroke-width:1.5;"/><rect fill="#FFFFFF" height="689.1426" style="stroke:#181818;stroke-width:1.0;" width="10" x="370" y="98.7988"/><rect fill="#FFFFFF" height="659.832" style="stroke:#181818;stroke-width:1.0;" width="10" x="551" y="128.1094"/><rect fill="#FFFFFF" height="630.5215" style="stroke:#181818;stroke-width:1.0;" width="10" x="753" y="157.4199"/><rect fill="#FFFFFF" height="87.2871" style="stroke:#181818;stroke-width:1.0;" width="10" x="981" y="590.7227"/><rect fill="#FFFFFF" height="47.9766" style="stroke:#181818;stroke-width:1.0;" width="10" x="1100" y="630.0332"/><rect fill="#FFFFFF" height="96.9316" style="stroke:#181818;stroke-width:1.0;" width="10" x="1175.5" y="189.7305"/><rect fill="#FFFFFF" height="90.9316" style="stroke:#181818;stroke-width:1.0;" width="10" x="1175.5" y="470.4805"/><rect fill="#FFFFFF" height="32.3105" style="stroke:#181818;stroke-width:1.0;" width="10" x="1283.5" y="222.041"/><rect fill="#FFFFFF" height="29.3105" style="stroke:#181818;stroke-width:1.0;" width="10" x="1283.5" y="502.791"/><polygon fill="#181818" points="358,94.7988,368,98.7988,358,102.7988,362,98.7988" style="stroke:#181818;stroke-width:1.0;"/><line style="stroke:#181818;stroke-width:1.0;stroke-dasharray:2.0,2.0;" x1="0" x2="364" y1="98.7988" y2="98.7988"/><text fill="#000000" font-family="sans-serif" font-size="13" font-weight="bold" lengthAdjust="spacing" textLength="9" x="7" y="94.0566">1</text><text fill="#000000" font-family="sans-serif" font-size="13" lengthAdjust="spacing" textLength="331" x="20" y="94.0566">GET /buildings/?minFloors={min}&amp;maxFloors={max}</text><polygon fill="#181818" points="539,124.1094,549,128.1094,539,132.1094,543,128.1094" style="stroke:#181818;stroke-width:1.0;"/><line style="stroke:#181818;stroke-width:1.0;" x1="380" x2="545" y1="128.1094" y2="128.1094"/><text fill="#000000" font-family="sans-serif" font-size="13" font-weight="bold" lengthAdjust="spacing" textLength="9" x="387" y="123.3672">2</text><text fill="#000000" font-family="sans-serif" font-size="13" lengthAdjust="spacing" textLength="139" x="400" y="123.3672">getBuildingsByFloors()</text><polygon fill="#181818" points="741,153.4199,751,157.4199,741,161.4199,745,157.4199" style="stroke:#181818;stroke-width:1.0;"/><line style="stroke:#181818;stroke-width:1.0;" x1="561" x2="747" y1="157.4199" y2="157.4199"/><text fill="#000000" font-family="sans-serif" font-size="13" font-weight="bold" lengthAdjust="spacing" textLength="9" x="568" y="152.6777">3</text><text fill="#000000" font-family="sans-serif" font-size="13" lengthAdjust="spacing" textLength="160" x="581" y="152.6777">getBuildingsByFloors(dto)</text><polygon fill="#181818" points="1163.5,185.7305,1173.5,189.7305,1163.5,193.7305,1167.5,189.7305" style="stroke:#181818;stroke-width:1.0;"/><line style="stroke:#181818;stroke-width:1.0;" x1="763" x2="1169.5" y1="189.7305" y2="189.7305"/><text fill="#000000" font-family="sans-serif" font-size="13" font-weight="bold" lengthAdjust="spacing" textLength="9" x="770" y="184.9883">4</text><text fill="#000000" font-family="sans-serif" font-size="13" lengthAdjust="spacing" textLength="302" x="783" y="184.9883">findBuildingsByMinMaxFloors(dto.min, dto.max)</text><path d="M1190,170.4199 L1190,195.4199 L1309,195.4199 L1309,180.4199 L1299,170.4199 L1190,170.4199 " fill="#FEFFDD" style="stroke:#181818;stroke-width:0.5;"/><path d="M1299,170.4199 L1299,180.4199 L1309,180.4199 L1299,170.4199 " fill="#FEFFDD" style="stroke:#181818;stroke-width:0.5;"/><text fill="#000000" font-family="sans-serif" font-size="13" lengthAdjust="spacing" textLength="98" x="1196" y="187.9883">floor repository</text><polygon fill="#181818" points="1271.5,218.041,1281.5,222.041,1271.5,226.041,1275.5,222.041" style="stroke:#181818;stroke-width:1.0;"/><line style="stroke:#181818;stroke-width:1.0;" x1="1185.5" x2="1277.5" y1="222.041" y2="222.041"/><text fill="#000000" font-family="sans-serif" font-size="13" font-weight="bold" lengthAdjust="spacing" textLength="9" x="1192.5" y="217.2988">5</text><text fill="#000000" font-family="sans-serif" font-size="13" lengthAdjust="spacing" textLength="33" x="1205.5" y="217.2988">find()</text><polygon fill="#181818" points="1196.5,250.3516,1186.5,254.3516,1196.5,258.3516,1192.5,254.3516" style="stroke:#181818;stroke-width:1.0;"/><line style="stroke:#181818;stroke-width:1.0;stroke-dasharray:2.0,2.0;" x1="1190.5" x2="1287.5" y1="254.3516" y2="254.3516"/><text fill="#000000" font-family="sans-serif" font-size="13" font-weight="bold" lengthAdjust="spacing" textLength="9" x="1202.5" y="249.6094">6</text><text fill="#000000" font-family="sans-serif" font-size="13" lengthAdjust="spacing" textLength="21" x="1215.5" y="249.6094">dto</text><path d="M1298,235.041 L1298,260.041 L1585,260.041 L1585,245.041 L1575,235.041 L1298,235.041 " fill="#FEFFDD" style="stroke:#181818;stroke-width:0.5;"/><path d="M1575,235.041 L1575,245.041 L1585,245.041 L1575,235.041 " fill="#FEFFDD" style="stroke:#181818;stroke-width:0.5;"/><text fill="#000000" font-family="sans-serif" font-size="13" lengthAdjust="spacing" textLength="266" x="1304" y="252.6094">dto contains buildingCode and floorCount</text><polygon fill="#181818" points="774,282.6621,764,286.6621,774,290.6621,770,286.6621" style="stroke:#181818;stroke-width:1.0;"/><line style="stroke:#181818;stroke-width:1.0;stroke-dasharray:2.0,2.0;" x1="768" x2="1179.5" y1="286.6621" y2="286.6621"/><text fill="#000000" font-family="sans-serif" font-size="13" font-weight="bold" lengthAdjust="spacing" textLength="9" x="780" y="281.9199">7</text><text fill="#000000" font-family="sans-serif" font-size="13" lengthAdjust="spacing" textLength="21" x="793" y="281.9199">dto</text><path d="M3,301.6621 L65,301.6621 L65,308.9727 L55,318.9727 L3,318.9727 L3,301.6621 " fill="#EEEEEE" style="stroke:#000000;stroke-width:1.5;"/><rect fill="none" height="479.2793" style="stroke:#000000;stroke-width:1.5;" width="1350" x="3" y="301.6621"/><text fill="#000000" font-family="sans-serif" font-size="13" font-weight="bold" lengthAdjust="spacing" textLength="17" x="18" y="315.2305">alt</text><text fill="#000000" font-family="sans-serif" font-size="11" font-weight="bold" lengthAdjust="spacing" textLength="128" x="80" y="314.2969">[building(s) not found]</text><polygon fill="#181818" points="572,336.2832,562,340.2832,572,344.2832,568,340.2832" style="stroke:#181818;stroke-width:1.0;"/><line style="stroke:#181818;stroke-width:1.0;stroke-dasharray:2.0,2.0;" x1="566" x2="752" y1="340.2832" y2="340.2832"/><text fill="#000000" font-family="sans-serif" font-size="13" font-weight="bold" lengthAdjust="spacing" textLength="9" x="578" y="335.541">8</text><text fill="#000000" font-family="sans-serif" font-size="13" lengthAdjust="spacing" textLength="30" x="591" y="335.541">error</text><polygon fill="#181818" points="391,365.5938,381,369.5938,391,373.5938,387,369.5938" style="stroke:#181818;stroke-width:1.0;"/><line style="stroke:#181818;stroke-width:1.0;stroke-dasharray:2.0,2.0;" x1="385" x2="550" y1="369.5938" y2="369.5938"/><text fill="#000000" font-family="sans-serif" font-size="13" font-weight="bold" lengthAdjust="spacing" textLength="9" x="397" y="364.8516">9</text><text fill="#000000" font-family="sans-serif" font-size="13" lengthAdjust="spacing" textLength="66" x="410" y="364.8516">error (404)</text><polygon fill="#181818" points="11,394.9043,1,398.9043,11,402.9043,7,398.9043" style="stroke:#181818;stroke-width:1.0;"/><line style="stroke:#181818;stroke-width:1.0;stroke-dasharray:2.0,2.0;" x1="5" x2="369" y1="398.9043" y2="398.9043"/><text fill="#000000" font-family="sans-serif" font-size="13" font-weight="bold" lengthAdjust="spacing" textLength="18" x="17" y="394.1621">10</text><text fill="#000000" font-family="sans-serif" font-size="13" lengthAdjust="spacing" textLength="98" x="39" y="394.1621">404: Not Found</text><line style="stroke:#000000;stroke-width:1.0;stroke-dasharray:2.0,2.0;" x1="3" x2="1353" y1="407.9043" y2="407.9043"/><text fill="#000000" font-family="sans-serif" font-size="11" font-weight="bold" lengthAdjust="spacing" textLength="106" x="8" y="418.5391">[building(s) found]</text><path d="M717,428.8594 L791,428.8594 L791,436.1699 L781,446.1699 L717,446.1699 L717,428.8594 " fill="#EEEEEE" style="stroke:#000000;stroke-width:1.5;"/><rect fill="none" height="257.1504" style="stroke:#000000;stroke-width:1.5;" width="626" x="717" y="428.8594"/><text fill="#000000" font-family="sans-serif" font-size="13" font-weight="bold" lengthAdjust="spacing" textLength="29" x="732" y="442.4277">loop</text><text fill="#000000" font-family="sans-serif" font-size="11" font-weight="bold" lengthAdjust="spacing" textLength="133" x="806" y="441.4941">[for each buildingCode]</text><polygon fill="#181818" points="1163.5,466.4805,1173.5,470.4805,1163.5,474.4805,1167.5,470.4805" style="stroke:#181818;stroke-width:1.0;"/><line style="stroke:#181818;stroke-width:1.0;" x1="763" x2="1169.5" y1="470.4805" y2="470.4805"/><text fill="#000000" font-family="sans-serif" font-size="13" font-weight="bold" lengthAdjust="spacing" textLength="18" x="770" y="465.7383">11</text><text fill="#000000" font-family="sans-serif" font-size="13" lengthAdjust="spacing" textLength="163" x="792" y="465.7383">findByCode(buildingCode)</text><path d="M1190,451.1699 L1190,476.1699 L1331,476.1699 L1331,461.1699 L1321,451.1699 L1190,451.1699 " fill="#FEFFDD" style="stroke:#181818;stroke-width:0.5;"/><path d="M1321,451.1699 L1321,461.1699 L1331,461.1699 L1321,451.1699 " fill="#FEFFDD" style="stroke:#181818;stroke-width:0.5;"/><text fill="#000000" font-family="sans-serif" font-size="13" lengthAdjust="spacing" textLength="120" x="1196" y="468.7383">building repository</text><polygon fill="#181818" points="1271.5,498.791,1281.5,502.791,1271.5,506.791,1275.5,502.791" style="stroke:#181818;stroke-width:1.0;"/><line style="stroke:#181818;stroke-width:1.0;" x1="1185.5" x2="1277.5" y1="502.791" y2="502.791"/><text fill="#000000" font-family="sans-serif" font-size="13" font-weight="bold" lengthAdjust="spacing" textLength="18" x="1192.5" y="498.0488">12</text><text fill="#000000" font-family="sans-serif" font-size="13" lengthAdjust="spacing" textLength="33" x="1214.5" y="498.0488">find()</text><polygon fill="#181818" points="1196.5,528.1016,1186.5,532.1016,1196.5,536.1016,1192.5,532.1016" style="stroke:#181818;stroke-width:1.0;"/><line style="stroke:#181818;stroke-width:1.0;stroke-dasharray:2.0,2.0;" x1="1190.5" x2="1287.5" y1="532.1016" y2="532.1016"/><text fill="#000000" font-family="sans-serif" font-size="13" font-weight="bold" lengthAdjust="spacing" textLength="18" x="1202.5" y="527.3594">13</text><text fill="#000000" font-family="sans-serif" font-size="13" lengthAdjust="spacing" textLength="52" x="1224.5" y="527.3594">building</text><polygon fill="#181818" points="774,557.4121,764,561.4121,774,565.4121,770,561.4121" style="stroke:#181818;stroke-width:1.0;"/><line style="stroke:#181818;stroke-width:1.0;stroke-dasharray:2.0,2.0;" x1="768" x2="1179.5" y1="561.4121" y2="561.4121"/><text fill="#000000" font-family="sans-serif" font-size="13" font-weight="bold" lengthAdjust="spacing" textLength="18" x="780" y="556.6699">14</text><text fill="#000000" font-family="sans-serif" font-size="13" lengthAdjust="spacing" textLength="52" x="802" y="556.6699">building</text><polygon fill="#181818" points="969,586.7227,979,590.7227,969,594.7227,973,590.7227" style="stroke:#181818;stroke-width:1.0;"/><line style="stroke:#181818;stroke-width:1.0;" x1="763" x2="975" y1="590.7227" y2="590.7227"/><text fill="#000000" font-family="sans-serif" font-size="13" font-weight="bold" lengthAdjust="spacing" textLength="18" x="770" y="585.9805">15</text><text fill="#000000" font-family="sans-serif" font-size="13" lengthAdjust="spacing" textLength="177" x="792" y="585.9805">toDTO(building, floorCount)</text><polygon fill="#181818" points="1071,616.0332,1081,620.0332,1071,624.0332,1075,620.0332" style="stroke:#181818;stroke-width:1.0;"/><line style="stroke:#181818;stroke-width:1.0;" x1="991" x2="1077" y1="620.0332" y2="620.0332"/><text fill="#000000" font-family="sans-serif" font-size="13" font-weight="bold" lengthAdjust="spacing" textLength="18" x="998" y="615.291">16</text><text fill="#000000" font-family="sans-serif" font-size="13" lengthAdjust="spacing" textLength="46" x="1020" y="615.291">create()</text><rect fill="#E2E2F0" height="46.9766" rx="2.5" ry="2.5" style="stroke:#181818;stroke-width:0.5;" width="44" x="1083" y="598.7227"/><text fill="#000000" font-family="sans-serif" font-size="14" lengthAdjust="spacing" textLength="27" x="1091.5" y="619.2578">dto:</text><text fill="#000000" font-family="sans-serif" font-size="14" lengthAdjust="spacing" textLength="30" x="1090" y="635.7461">DTO</text><path d="M1137,607.4004 L1137,647.4004 L1333,647.4004 L1333,617.4004 L1323,607.4004 L1137,607.4004 " fill="#FEFFDD" style="stroke:#181818;stroke-width:0.5;"/><path d="M1323,607.4004 L1323,617.4004 L1333,617.4004 L1323,607.4004 " fill="#FEFFDD" style="stroke:#181818;stroke-width:0.5;"/><text fill="#000000" font-family="sans-serif" font-size="13" lengthAdjust="spacing" textLength="126" x="1143" y="624.9688">dto storing building</text><text fill="#000000" font-family="sans-serif" font-size="13" lengthAdjust="spacing" textLength="175" x="1143" y="640.2793">information and floor count</text><polygon fill="#181818" points="774,674.0098,764,678.0098,774,682.0098,770,678.0098" style="stroke:#181818;stroke-width:1.0;"/><line style="stroke:#181818;stroke-width:1.0;stroke-dasharray:2.0,2.0;" x1="768" x2="985" y1="678.0098" y2="678.0098"/><text fill="#000000" font-family="sans-serif" font-size="13" font-weight="bold" lengthAdjust="spacing" textLength="18" x="780" y="673.2676">17</text><text fill="#000000" font-family="sans-serif" font-size="13" lengthAdjust="spacing" textLength="21" x="802" y="673.2676">dto</text><polygon fill="#181818" points="572,710.3203,562,714.3203,572,718.3203,568,714.3203" style="stroke:#181818;stroke-width:1.0;"/><line style="stroke:#181818;stroke-width:1.0;stroke-dasharray:2.0,2.0;" x1="566" x2="752" y1="714.3203" y2="714.3203"/><text fill="#000000" font-family="sans-serif" font-size="13" font-weight="bold" lengthAdjust="spacing" textLength="18" x="578" y="709.5781">18</text><text fill="#000000" font-family="sans-serif" font-size="13" lengthAdjust="spacing" textLength="44" x="600" y="709.5781">dtoList</text><polygon fill="#181818" points="391,739.6309,381,743.6309,391,747.6309,387,743.6309" style="stroke:#181818;stroke-width:1.0;"/><line style="stroke:#181818;stroke-width:1.0;stroke-dasharray:2.0,2.0;" x1="385" x2="550" y1="743.6309" y2="743.6309"/><text fill="#000000" font-family="sans-serif" font-size="13" font-weight="bold" lengthAdjust="spacing" textLength="18" x="397" y="738.8887">19</text><text fill="#000000" font-family="sans-serif" font-size="13" lengthAdjust="spacing" textLength="57" x="419" y="738.8887">response</text><polygon fill="#181818" points="11,768.9414,1,772.9414,11,776.9414,7,772.9414" style="stroke:#181818;stroke-width:1.0;"/><line style="stroke:#181818;stroke-width:1.0;stroke-dasharray:2.0,2.0;" x1="5" x2="369" y1="772.9414" y2="772.9414"/><text fill="#000000" font-family="sans-serif" font-size="13" font-weight="bold" lengthAdjust="spacing" textLength="18" x="17" y="768.1992">20</text><text fill="#000000" font-family="sans-serif" font-size="13" lengthAdjust="spacing" textLength="50" x="39" y="768.1992">200: OK</text><!--SRC=[ZLNBRjim4BphAnO-158GDKQHaz0sG9ocXzODqEQMN2Y9TWX8f41IXeqY_zubQRqf9RnO4cT7mzbPcTHQyBfCgGo2YaZDCbOHhc7rHzIQhe0eaCEDZU1QYgAWqkvcMXP3m5yg3onpjUgGZNXtXH0oUU4FvjTYx9CXQ4kgwinVacgubsk1vVTFZtORxyR2QIKKqqAUd7gy3NAYIKeKXTNz-SeLfq7m7CVVG2Rmu_iJNASrAtB6z-hwjcHEelhw3o_VBafoRE_9yIqWcMO7eYdQ0xWa88tn0XBOKttN4DsTN5KOMLXRPMs3yx9rM8zkpPNZEQCMtx8OUw6t384v3fuPYNQCvpscBUFRvX26xnEUwmhi1Jb60vxkSCOz62qkp0xRl-h4DS_2dESJiDM2clBqh2YC9fZsTTWGy2oiZRjZcPRxK9qi1u8CaqeOLz2qTIDo2eJdJlL6r5nFc7AwfCQTfctLM4gls3etDBNGhP9GHKOlx513FdcBRMEN9ogba1EG2usnfO50UBE-cRhx_2ME3GOt4_YDBtsOl9GME1jzRKxN08EMLVXS0fxnTM2fN_ymXYS33FjL2p7mfcxIuePiANqVJU17KkY9OYF1drhw7kCeJRDiYx7g6OxVIgJH0Z-EhTLNlR17mRpdvZlhqsWuZNbQN5uYUIOfecSSd4oWmgQO3hMjUk6COuPAefdWtIZYgFfcSTYLcR5lHSvEfQyX7aXlUsm6HQ4c_-zDAjB-OaelpwgagX9SKU-WMiJdzJg1nvzZ2O57QVCFq7ja_rhwaGd-0m00]--></g></svg>