<?xml version="1.0" encoding="us-ascii" standalone="no"?><svg xmlns="http://www.w3.org/2000/svg" xmlns:xlink="http://www.w3.org/1999/xlink" contentStyleType="text/css" height="945px" preserveAspectRatio="none" style="width:1386px;height:945px;background:#FFFFFF;" version="1.1" viewBox="0 0 1386 945" width="1386px" zoomAndPan="magnify"><defs/><g><rect fill="#FFFFFF" height="924.6934" style="stroke:#181818;stroke-width:1.5;" width="1375" x="5" y="15"/><path d="M37,15 L37,24.4883 L27,34.4883 L5,34.4883 " fill="none" style="stroke:#181818;stroke-width:1.5;"/><text fill="#000000" font-family="sans-serif" font-size="14" lengthAdjust="spacing" textLength="22" x="8" y="29.5352">MD</text><rect fill="#ADD8E6" height="872.4746" style="stroke:#181818;stroke-width:0.5;" width="787" x="354" y="43.7305"/><text fill="#000000" font-family="sans-serif" font-size="13" font-weight="bold" lengthAdjust="spacing" textLength="65" x="715" y="56.2988">Back-End</text><rect fill="#DDDDDD" height="872.4746" style="stroke:#181818;stroke-width:0.5;" width="87" x="1143" y="43.7305"/><text fill="#000000" font-family="sans-serif" font-size="13" font-weight="bold" lengthAdjust="spacing" textLength="63" x="1155" y="56.2988">Database</text><rect fill="#FFFFFF" height="683.877" style="stroke:#181818;stroke-width:1.0;" width="10" x="380" y="156.8398"/><rect fill="#FFFFFF" height="654.5664" style="stroke:#181818;stroke-width:1.0;" width="10" x="561" y="186.1504"/><rect fill="#FFFFFF" height="508.6582" style="stroke:#181818;stroke-width:1.0;" width="10" x="763" y="332.0586"/><rect fill="#FFFFFF" height="87.2871" style="stroke:#181818;stroke-width:1.0;" width="10" x="991" y="215.4609"/><rect fill="#FFFFFF" height="87.2871" style="stroke:#181818;stroke-width:1.0;" width="10" x="991" y="643.498"/><rect fill="#FFFFFF" height="47.9766" style="stroke:#181818;stroke-width:1.0;" width="10" x="1110" y="254.7715"/><rect fill="#FFFFFF" height="47.9766" style="stroke:#181818;stroke-width:1.0;" width="10" x="1110" y="682.8086"/><rect fill="#FFFFFF" height="30" style="stroke:#181818;stroke-width:1.0;" width="10" x="1181.5" y="364.3691"/><rect fill="#FFFFFF" height="30" style="stroke:#181818;stroke-width:1.0;" width="10" x="1181.5" y="581.1875"/><rect fill="none" height="421.3477" style="stroke:#000000;stroke-width:1.5;" width="1350" x="13" y="412.3691"/><rect fill="none" height="199.2188" style="stroke:#000000;stroke-width:1.5;" width="626" x="727" y="539.5664"/><line style="stroke:#181818;stroke-width:0.5;stroke-dasharray:5.0,5.0;" x1="385" x2="385" y1="125.5293" y2="850.7168"/><line style="stroke:#181818;stroke-width:0.5;stroke-dasharray:5.0,5.0;" x1="566" x2="566" y1="125.5293" y2="850.7168"/><line style="stroke:#181818;stroke-width:0.5;stroke-dasharray:5.0,5.0;" x1="768" x2="768" y1="125.5293" y2="850.7168"/><line style="stroke:#181818;stroke-width:0.5;stroke-dasharray:5.0,5.0;" x1="834" x2="834" y1="125.5293" y2="850.7168"/><line style="stroke:#181818;stroke-width:0.5;stroke-dasharray:5.0,5.0;" x1="996" x2="996" y1="125.5293" y2="850.7168"/><line style="stroke:#181818;stroke-width:0.5;stroke-dasharray:5.0,5.0;" x1="1115" x2="1115" y1="690.4863" y2="850.7168"/><line style="stroke:#181818;stroke-width:0.5;stroke-dasharray:5.0,5.0;" x1="1186" x2="1186" y1="125.5293" y2="850.7168"/><rect fill="#E2E2F0" height="30.4883" rx="2.5" ry="2.5" style="stroke:#181818;stroke-width:0.5;" width="54" x="358" y="94.041"/><text fill="#000000" font-family="sans-serif" font-size="14" lengthAdjust="spacing" textLength="40" x="365" y="114.5762">Route</text><rect fill="#E2E2F0" height="30.4883" rx="2.5" ry="2.5" style="stroke:#181818;stroke-width:0.5;" width="54" x="358" y="849.7168"/><text fill="#000000" font-family="sans-serif" font-size="14" lengthAdjust="spacing" textLength="40" x="365" y="870.252">Route</text><rect fill="#E2E2F0" height="30.4883" rx="2.5" ry="2.5" style="stroke:#181818;stroke-width:0.5;" width="84" x="524" y="94.041"/><text fill="#000000" font-family="sans-serif" font-size="14" lengthAdjust="spacing" textLength="70" x="531" y="114.5762">Controller</text><rect fill="#E2E2F0" height="30.4883" rx="2.5" ry="2.5" style="stroke:#181818;stroke-width:0.5;" width="84" x="524" y="849.7168"/><text fill="#000000" font-family="sans-serif" font-size="14" lengthAdjust="spacing" textLength="70" x="531" y="870.252">Controller</text><rect fill="#E2E2F0" height="30.4883" rx="2.5" ry="2.5" style="stroke:#181818;stroke-width:0.5;" width="62" x="737" y="94.041"/><text fill="#000000" font-family="sans-serif" font-size="14" lengthAdjust="spacing" textLength="48" x="744" y="114.5762">Service</text><rect fill="#E2E2F0" height="30.4883" rx="2.5" ry="2.5" style="stroke:#181818;stroke-width:0.5;" width="62" x="737" y="849.7168"/><text fill="#000000" font-family="sans-serif" font-size="14" lengthAdjust="spacing" textLength="48" x="744" y="870.252">Service</text><rect fill="#E2E2F0" height="46.9766" rx="2.5" ry="2.5" style="stroke:#181818;stroke-width:0.5;" width="51" x="809" y="77.5527"/><text fill="#000000" font-family="sans-serif" font-size="14" lengthAdjust="spacing" textLength="37" x="816" y="98.0879">floor:</text><text fill="#000000" font-family="sans-serif" font-size="14" lengthAdjust="spacing" textLength="36" x="816.5" y="114.5762">Floor</text><rect fill="#E2E2F0" height="46.9766" rx="2.5" ry="2.5" style="stroke:#181818;stroke-width:0.5;" width="51" x="809" y="849.7168"/><text fill="#000000" font-family="sans-serif" font-size="14" lengthAdjust="spacing" textLength="37" x="816" y="870.252">floor:</text><text fill="#000000" font-family="sans-serif" font-size="14" lengthAdjust="spacing" textLength="36" x="816.5" y="886.7402">Floor</text><rect fill="#E2E2F0" height="30.4883" rx="2.5" ry="2.5" style="stroke:#181818;stroke-width:0.5;" width="66" x="963" y="94.041"/><text fill="#000000" font-family="sans-serif" font-size="14" lengthAdjust="spacing" textLength="52" x="970" y="114.5762">Mapper</text><rect fill="#E2E2F0" height="30.4883" rx="2.5" ry="2.5" style="stroke:#181818;stroke-width:0.5;" width="66" x="963" y="849.7168"/><text fill="#000000" font-family="sans-serif" font-size="14" lengthAdjust="spacing" textLength="52" x="970" y="870.252">Mapper</text><rect fill="#E2E2F0" height="46.9766" rx="2.5" ry="2.5" style="stroke:#181818;stroke-width:0.5;" width="44" x="1093" y="849.7168"/><text fill="#000000" font-family="sans-serif" font-size="14" lengthAdjust="spacing" textLength="27" x="1101.5" y="870.252">dto:</text><text fill="#000000" font-family="sans-serif" font-size="14" lengthAdjust="spacing" textLength="30" x="1100" y="886.7402">DTO</text><text fill="#000000" font-family="sans-serif" font-size="14" lengthAdjust="spacing" textLength="73" x="1147" y="122.5762">Repository</text><path d="M1168.5,73.041 C1168.5,63.041 1186.5,63.041 1186.5,63.041 C1186.5,63.041 1204.5,63.041 1204.5,73.041 L1204.5,99.041 C1204.5,109.041 1186.5,109.041 1186.5,109.041 C1186.5,109.041 1168.5,109.041 1168.5,99.041 L1168.5,73.041 " fill="#E2E2F0" style="stroke:#181818;stroke-width:1.5;"/><path d="M1168.5,73.041 C1168.5,83.041 1186.5,83.041 1186.5,83.041 C1186.5,83.041 1204.5,83.041 1204.5,73.041 " fill="none" style="stroke:#181818;stroke-width:1.5;"/><text fill="#000000" font-family="sans-serif" font-size="14" lengthAdjust="spacing" textLength="73" x="1147" y="863.252">Repository</text><path d="M1168.5,876.2051 C1168.5,866.2051 1186.5,866.2051 1186.5,866.2051 C1186.5,866.2051 1204.5,866.2051 1204.5,876.2051 L1204.5,902.2051 C1204.5,912.2051 1186.5,912.2051 1186.5,912.2051 C1186.5,912.2051 1168.5,912.2051 1168.5,902.2051 L1168.5,876.2051 " fill="#E2E2F0" style="stroke:#181818;stroke-width:1.5;"/><path d="M1168.5,876.2051 C1168.5,886.2051 1186.5,886.2051 1186.5,886.2051 C1186.5,886.2051 1204.5,886.2051 1204.5,876.2051 " fill="none" style="stroke:#181818;stroke-width:1.5;"/><rect fill="#FFFFFF" height="683.877" style="stroke:#181818;stroke-width:1.0;" width="10" x="380" y="156.8398"/><rect fill="#FFFFFF" height="654.5664" style="stroke:#181818;stroke-width:1.0;" width="10" x="561" y="186.1504"/><rect fill="#FFFFFF" height="508.6582" style="stroke:#181818;stroke-width:1.0;" width="10" x="763" y="332.0586"/><rect fill="#FFFFFF" height="87.2871" style="stroke:#181818;stroke-width:1.0;" width="10" x="991" y="215.4609"/><rect fill="#FFFFFF" height="87.2871" style="stroke:#181818;stroke-width:1.0;" width="10" x="991" y="643.498"/><rect fill="#FFFFFF" height="47.9766" style="stroke:#181818;stroke-width:1.0;" width="10" x="1110" y="254.7715"/><rect fill="#FFFFFF" height="47.9766" style="stroke:#181818;stroke-width:1.0;" width="10" x="1110" y="682.8086"/><rect fill="#FFFFFF" height="30" style="stroke:#181818;stroke-width:1.0;" width="10" x="1181.5" y="364.3691"/><rect fill="#FFFFFF" height="30" style="stroke:#181818;stroke-width:1.0;" width="10" x="1181.5" y="581.1875"/><polygon fill="#181818" points="368,152.8398,378,156.8398,368,160.8398,372,156.8398" style="stroke:#181818;stroke-width:1.0;"/><line style="stroke:#181818;stroke-width:1.0;stroke-dasharray:2.0,2.0;" x1="10" x2="374" y1="156.8398" y2="156.8398"/><text fill="#000000" font-family="sans-serif" font-size="13" font-weight="bold" lengthAdjust="spacing" textLength="9" x="17" y="152.0977">1</text><text fill="#000000" font-family="sans-serif" font-size="13" lengthAdjust="spacing" textLength="331" x="30" y="152.0977">GET /buildings/?minFloors={min}&amp;maxFloors={max}</text><polygon fill="#181818" points="549,182.1504,559,186.1504,549,190.1504,553,186.1504" style="stroke:#181818;stroke-width:1.0;"/><line style="stroke:#181818;stroke-width:1.0;" x1="390" x2="555" y1="186.1504" y2="186.1504"/><text fill="#000000" font-family="sans-serif" font-size="13" font-weight="bold" lengthAdjust="spacing" textLength="9" x="397" y="181.4082">2</text><text fill="#000000" font-family="sans-serif" font-size="13" lengthAdjust="spacing" textLength="139" x="410" y="181.4082">getBuildingsByFloors()</text><polygon fill="#181818" points="979,211.4609,989,215.4609,979,219.4609,983,215.4609" style="stroke:#181818;stroke-width:1.0;"/><line style="stroke:#181818;stroke-width:1.0;" x1="571" x2="985" y1="215.4609" y2="215.4609"/><text fill="#000000" font-family="sans-serif" font-size="13" font-weight="bold" lengthAdjust="spacing" textLength="9" x="578" y="210.7188">3</text><text fill="#000000" font-family="sans-serif" font-size="13" lengthAdjust="spacing" textLength="49" x="591" y="210.7188">toDTO()</text><polygon fill="#181818" points="1081,240.7715,1091,244.7715,1081,248.7715,1085,244.7715" style="stroke:#181818;stroke-width:1.0;"/><line style="stroke:#181818;stroke-width:1.0;" x1="1001" x2="1087" y1="244.7715" y2="244.7715"/><text fill="#000000" font-family="sans-serif" font-size="13" font-weight="bold" lengthAdjust="spacing" textLength="9" x="1008" y="240.0293">4</text><text fill="#000000" font-family="sans-serif" font-size="13" lengthAdjust="spacing" textLength="46" x="1021" y="240.0293">create()</text><rect fill="#E2E2F0" height="46.9766" rx="2.5" ry="2.5" style="stroke:#181818;stroke-width:0.5;" width="44" x="1093" y="223.4609"/><text fill="#000000" font-family="sans-serif" font-size="14" lengthAdjust="spacing" textLength="27" x="1101.5" y="243.9961">dto:</text><text fill="#000000" font-family="sans-serif" font-size="14" lengthAdjust="spacing" textLength="30" x="1100" y="260.4844">DTO</text><path d="M1147,232.1387 L1147,272.1387 L1328,272.1387 L1328,242.1387 L1318,232.1387 L1147,232.1387 " fill="#FEFFDD" style="stroke:#181818;stroke-width:0.5;"/><path d="M1318,232.1387 L1318,242.1387 L1328,242.1387 L1318,232.1387 " fill="#FEFFDD" style="stroke:#181818;stroke-width:0.5;"/><text fill="#000000" font-family="sans-serif" font-size="13" lengthAdjust="spacing" textLength="156" x="1153" y="249.707">dto storing min and max</text><text fill="#000000" font-family="sans-serif" font-size="13" lengthAdjust="spacing" textLength="74" x="1153" y="265.0176">floor values</text><polygon fill="#181818" points="582,298.748,572,302.748,582,306.748,578,302.748" style="stroke:#181818;stroke-width:1.0;"/><line style="stroke:#181818;stroke-width:1.0;stroke-dasharray:2.0,2.0;" x1="576" x2="995" y1="302.748" y2="302.748"/><text fill="#000000" font-family="sans-serif" font-size="13" font-weight="bold" lengthAdjust="spacing" textLength="9" x="588" y="298.0059">5</text><text fill="#000000" font-family="sans-serif" font-size="13" lengthAdjust="spacing" textLength="21" x="601" y="298.0059">dto</text><polygon fill="#181818" points="751,328.0586,761,332.0586,751,336.0586,755,332.0586" style="stroke:#181818;stroke-width:1.0;"/><line style="stroke:#181818;stroke-width:1.0;" x1="571" x2="757" y1="332.0586" y2="332.0586"/><text fill="#000000" font-family="sans-serif" font-size="13" font-weight="bold" lengthAdjust="spacing" textLength="9" x="578" y="327.3164">6</text><text fill="#000000" font-family="sans-serif" font-size="13" lengthAdjust="spacing" textLength="160" x="591" y="327.3164">getBuildingsByFloors(dto)</text><polygon fill="#181818" points="1169.5,360.3691,1179.5,364.3691,1169.5,368.3691,1173.5,364.3691" style="stroke:#181818;stroke-width:1.0;"/><line style="stroke:#181818;stroke-width:1.0;" x1="773" x2="1175.5" y1="364.3691" y2="364.3691"/><text fill="#000000" font-family="sans-serif" font-size="13" font-weight="bold" lengthAdjust="spacing" textLength="9" x="780" y="359.627">7</text><text fill="#000000" font-family="sans-serif" font-size="13" lengthAdjust="spacing" textLength="302" x="793" y="359.627">findBuildingsByMinMaxFloors(dto.min, dto.max)</text><path d="M1196,345.0586 L1196,370.0586 L1315,370.0586 L1315,355.0586 L1305,345.0586 L1196,345.0586 " fill="#FEFFDD" style="stroke:#181818;stroke-width:0.5;"/><path d="M1305,345.0586 L1305,355.0586 L1315,355.0586 L1305,345.0586 " fill="#FEFFDD" style="stroke:#181818;stroke-width:0.5;"/><text fill="#000000" font-family="sans-serif" font-size="13" lengthAdjust="spacing" textLength="98" x="1202" y="362.627">floor repository</text><path d="M13,412.3691 L75,412.3691 L75,419.6797 L65,429.6797 L13,429.6797 L13,412.3691 " fill="#EEEEEE" style="stroke:#000000;stroke-width:1.5;"/><rect fill="none" height="421.3477" style="stroke:#000000;stroke-width:1.5;" width="1350" x="13" y="412.3691"/><text fill="#000000" font-family="sans-serif" font-size="13" font-weight="bold" lengthAdjust="spacing" textLength="17" x="28" y="425.9375">alt</text><text fill="#000000" font-family="sans-serif" font-size="11" font-weight="bold" lengthAdjust="spacing" textLength="128" x="90" y="425.0039">[building(s) not found]</text><polygon fill="#181818" points="582,446.9902,572,450.9902,582,454.9902,578,450.9902" style="stroke:#181818;stroke-width:1.0;"/><line style="stroke:#181818;stroke-width:1.0;stroke-dasharray:2.0,2.0;" x1="576" x2="762" y1="450.9902" y2="450.9902"/><text fill="#000000" font-family="sans-serif" font-size="13" font-weight="bold" lengthAdjust="spacing" textLength="9" x="588" y="446.248">8</text><text fill="#000000" font-family="sans-serif" font-size="13" lengthAdjust="spacing" textLength="30" x="601" y="446.248">error</text><polygon fill="#181818" points="401,476.3008,391,480.3008,401,484.3008,397,480.3008" style="stroke:#181818;stroke-width:1.0;"/><line style="stroke:#181818;stroke-width:1.0;stroke-dasharray:2.0,2.0;" x1="395" x2="560" y1="480.3008" y2="480.3008"/><text fill="#000000" font-family="sans-serif" font-size="13" font-weight="bold" lengthAdjust="spacing" textLength="9" x="407" y="475.5586">9</text><text fill="#000000" font-family="sans-serif" font-size="13" lengthAdjust="spacing" textLength="66" x="420" y="475.5586">error (412)</text><polygon fill="#181818" points="21,505.6113,11,509.6113,21,513.6113,17,509.6113" style="stroke:#181818;stroke-width:1.0;"/><line style="stroke:#181818;stroke-width:1.0;stroke-dasharray:2.0,2.0;" x1="15" x2="379" y1="509.6113" y2="509.6113"/><text fill="#000000" font-family="sans-serif" font-size="13" font-weight="bold" lengthAdjust="spacing" textLength="18" x="27" y="504.8691">10</text><text fill="#000000" font-family="sans-serif" font-size="13" lengthAdjust="spacing" textLength="119" x="49" y="504.8691">response code 422</text><line style="stroke:#000000;stroke-width:1.0;stroke-dasharray:2.0,2.0;" x1="13" x2="1363" y1="518.6113" y2="518.6113"/><text fill="#000000" font-family="sans-serif" font-size="11" font-weight="bold" lengthAdjust="spacing" textLength="106" x="18" y="529.2461">[building(s) found]</text><path d="M727,539.5664 L801,539.5664 L801,546.877 L791,556.877 L727,556.877 L727,539.5664 " fill="#EEEEEE" style="stroke:#000000;stroke-width:1.5;"/><rect fill="none" height="199.2188" style="stroke:#000000;stroke-width:1.5;" width="626" x="727" y="539.5664"/><text fill="#000000" font-family="sans-serif" font-size="13" font-weight="bold" lengthAdjust="spacing" textLength="29" x="742" y="553.1348">loop</text><text fill="#000000" font-family="sans-serif" font-size="11" font-weight="bold" lengthAdjust="spacing" textLength="133" x="816" y="552.2012">[for each buildingCode]</text><polygon fill="#181818" points="1169.5,577.1875,1179.5,581.1875,1169.5,585.1875,1173.5,581.1875" style="stroke:#181818;stroke-width:1.0;"/><line style="stroke:#181818;stroke-width:1.0;" x1="773" x2="1175.5" y1="581.1875" y2="581.1875"/><text fill="#000000" font-family="sans-serif" font-size="13" font-weight="bold" lengthAdjust="spacing" textLength="18" x="780" y="576.4453">11</text><text fill="#000000" font-family="sans-serif" font-size="13" lengthAdjust="spacing" textLength="163" x="802" y="576.4453">findByCode(buildingCode)</text><path d="M1196,561.877 L1196,586.877 L1337,586.877 L1337,571.877 L1327,561.877 L1196,561.877 " fill="#FEFFDD" style="stroke:#181818;stroke-width:0.5;"/><path d="M1327,561.877 L1327,571.877 L1337,571.877 L1327,561.877 " fill="#FEFFDD" style="stroke:#181818;stroke-width:0.5;"/><text fill="#000000" font-family="sans-serif" font-size="13" lengthAdjust="spacing" textLength="120" x="1202" y="579.4453">building repository</text><polygon fill="#181818" points="979,639.498,989,643.498,979,647.498,983,643.498" style="stroke:#181818;stroke-width:1.0;"/><line style="stroke:#181818;stroke-width:1.0;" x1="773" x2="985" y1="643.498" y2="643.498"/><text fill="#000000" font-family="sans-serif" font-size="13" font-weight="bold" lengthAdjust="spacing" textLength="18" x="780" y="638.7559">12</text><text fill="#000000" font-family="sans-serif" font-size="13" lengthAdjust="spacing" textLength="177" x="802" y="638.7559">toDTO(building, floorCount)</text><polygon fill="#181818" points="1081,668.8086,1091,672.8086,1081,676.8086,1085,672.8086" style="stroke:#181818;stroke-width:1.0;"/><line style="stroke:#181818;stroke-width:1.0;stroke-dasharray:2.0,2.0;" x1="1001" x2="1087" y1="672.8086" y2="672.8086"/><text fill="#000000" font-family="sans-serif" font-size="13" font-weight="bold" lengthAdjust="spacing" textLength="18" x="1008" y="668.0664">13</text><text fill="#000000" font-family="sans-serif" font-size="13" lengthAdjust="spacing" textLength="46" x="1030" y="668.0664">create()</text><rect fill="#E2E2F0" height="46.9766" rx="2.5" ry="2.5" style="stroke:#181818;stroke-width:0.5;" width="44" x="1093" y="651.498"/><text fill="#000000" font-family="sans-serif" font-size="14" lengthAdjust="spacing" textLength="27" x="1101.5" y="672.0332">dto:</text><text fill="#000000" font-family="sans-serif" font-size="14" lengthAdjust="spacing" textLength="30" x="1100" y="688.5215">DTO</text><path d="M1147,660.1758 L1147,700.1758 L1343,700.1758 L1343,670.1758 L1333,660.1758 L1147,660.1758 " fill="#FEFFDD" style="stroke:#181818;stroke-width:0.5;"/><path d="M1333,660.1758 L1333,670.1758 L1343,670.1758 L1333,660.1758 " fill="#FEFFDD" style="stroke:#181818;stroke-width:0.5;"/><text fill="#000000" font-family="sans-serif" font-size="13" lengthAdjust="spacing" textLength="126" x="1153" y="677.7441">dto storing building</text><text fill="#000000" font-family="sans-serif" font-size="13" lengthAdjust="spacing" textLength="175" x="1153" y="693.0547">information and floor count</text><polygon fill="#181818" points="784,726.7852,774,730.7852,784,734.7852,780,730.7852" style="stroke:#181818;stroke-width:1.0;"/><line style="stroke:#181818;stroke-width:1.0;stroke-dasharray:2.0,2.0;" x1="778" x2="995" y1="730.7852" y2="730.7852"/><text fill="#000000" font-family="sans-serif" font-size="13" font-weight="bold" lengthAdjust="spacing" textLength="18" x="790" y="726.043">14</text><text fill="#000000" font-family="sans-serif" font-size="13" lengthAdjust="spacing" textLength="21" x="812" y="726.043">dto</text><polygon fill="#181818" points="582,763.0957,572,767.0957,582,771.0957,578,767.0957" style="stroke:#181818;stroke-width:1.0;"/><line style="stroke:#181818;stroke-width:1.0;stroke-dasharray:2.0,2.0;" x1="576" x2="762" y1="767.0957" y2="767.0957"/><text fill="#000000" font-family="sans-serif" font-size="13" font-weight="bold" lengthAdjust="spacing" textLength="18" x="588" y="762.3535">15</text><text fill="#000000" font-family="sans-serif" font-size="13" lengthAdjust="spacing" textLength="21" x="610" y="762.3535">dto</text><polygon fill="#181818" points="401,792.4063,391,796.4063,401,800.4063,397,796.4063" style="stroke:#181818;stroke-width:1.0;"/><line style="stroke:#181818;stroke-width:1.0;stroke-dasharray:2.0,2.0;" x1="395" x2="560" y1="796.4063" y2="796.4063"/><text fill="#000000" font-family="sans-serif" font-size="13" font-weight="bold" lengthAdjust="spacing" textLength="18" x="407" y="791.6641">16</text><text fill="#000000" font-family="sans-serif" font-size="13" lengthAdjust="spacing" textLength="57" x="429" y="791.6641">response</text><polygon fill="#181818" points="21,821.7168,11,825.7168,21,829.7168,17,825.7168" style="stroke:#181818;stroke-width:1.0;"/><line style="stroke:#181818;stroke-width:1.0;stroke-dasharray:2.0,2.0;" x1="15" x2="379" y1="825.7168" y2="825.7168"/><text fill="#000000" font-family="sans-serif" font-size="13" font-weight="bold" lengthAdjust="spacing" textLength="18" x="27" y="820.9746">17</text><text fill="#000000" font-family="sans-serif" font-size="13" lengthAdjust="spacing" textLength="119" x="49" y="820.9746">response code 200</text><!--SRC=[ZLNBRjim4BppAnOkK5X1rAH6JaOVWEsqbne5cjpY2otH3b6952ZAi57atxiaBPcIA3cywC7PqUvmTaKhBKMLRvaY9ATSx1JD6QnNP2kFC5dGv6_yAD89VFZ5zwzwaLMC55Hfdl222WsJFxBIR0Aq1DNUM4gXbSmofknkebNM1ZmnTU29YoqF2MdlxZ8frNmZVfYhnTWtRT2Q5iMPFwT5Uo_L4iDNpx_jDZuH9bB0geWhRKKrtTAIJKXwliDYM25BhgKwkOhmyHBr4iVVGCtXv-Cpt6qhdgLSxCkxxpbtIPPV_-7jsyUS7fjdUdmZW8iccX-ePYWId9S2f3Egm1psJ2zgmiN9HK-Z1jf4Mn71MpOUUR1wfD4Io_NYMh568EWi4uRHACxD3SOdYY6oGs2Ma2PrOm148HfAr0YJ1ImOA0g4XS96s1E20qMJb3sE9X5p511ODfcB9Y5OoWPPl2rJAGdAX3ORKXlv1eGptkmcOeYC6z0WIBZZ8lKOrroiQmyOta-eqYtO6tgCXeMnTWifSv5_xhh0GfrHnpIoXFtlPHfg-qxBoB33JbOY3NxRLdev5QQKL46WqzY8KiDW-l1v5WN1Br_YsE0KAmifiFKIcJ9ucCrwQ9RXhf-kIxM7GraAt5E0vRys0Kka7IwhVO0d0vxwaU7ShvzNhsLgqh5pUzVPUQdxBL_ptpfxB54Y7P7nx4FpeDkALmT3oA7-V6WAtmZyjKYLKysb6ndEo8b9TP3swipe9kmQV0mzCa86HadFaPYySTjxscNe4wrcgPjWi5EWtogp-_jGOaCZqPzXtklcV-8RZ_m7]--></g></svg>