<?xml version="1.0" encoding="us-ascii" standalone="no"?><svg xmlns="http://www.w3.org/2000/svg" xmlns:xlink="http://www.w3.org/1999/xlink" contentStyleType="text/css" height="382px" preserveAspectRatio="none" style="width:300px;height:382px;background:#FFFFFF;" version="1.1" viewBox="0 0 300 382" width="300px" zoomAndPan="magnify"><defs/><g><rect fill="#DDDDDD" height="370.959" style="stroke:#181818;stroke-width:0.5;" width="87" x="207" y="6"/><text fill="#000000" font-family="sans-serif" font-size="13" font-weight="bold" lengthAdjust="spacing" textLength="81" x="210" y="20.0283">RobDroneGo</text><rect fill="#FFFFFF" height="191.7168" style="stroke:#181818;stroke-width:1.0;" width="10" x="28.5" y="93.6211"/><rect fill="#FFFFFF" height="168.4258" style="stroke:#181818;stroke-width:1.0;" width="10" x="245.5" y="116.9121"/><rect fill="none" height="146.4258" style="stroke:#000000;stroke-width:1.5;" width="268" x="10" y="131.9121"/><line style="stroke:#181818;stroke-width:0.5;stroke-dasharray:5.0,5.0;" x1="33" x2="33" y1="83.6211" y2="295.3379"/><line style="stroke:#181818;stroke-width:0.5;stroke-dasharray:5.0,5.0;" x1="250" x2="250" y1="83.6211" y2="295.3379"/><text fill="#000000" font-family="sans-serif" font-size="14" lengthAdjust="spacing" textLength="4" x="28.5" y="80.1074">&#160;</text><ellipse cx="33.5" cy="13.5" fill="#E2E2F0" rx="8" ry="8" style="stroke:#181818;stroke-width:0.5;"/><path d="M33.5,21.5 L33.5,48.5 M20.5,29.5 L46.5,29.5 M33.5,48.5 L20.5,63.5 M33.5,48.5 L46.5,63.5 " fill="none" style="stroke:#181818;stroke-width:0.5;"/><text fill="#000000" font-family="sans-serif" font-size="14" lengthAdjust="spacing" textLength="4" x="28.5" y="309.4453">&#160;</text><ellipse cx="33.5" cy="321.459" fill="#E2E2F0" rx="8" ry="8" style="stroke:#181818;stroke-width:0.5;"/><path d="M33.5,329.459 L33.5,356.459 M20.5,337.459 L46.5,337.459 M33.5,356.459 L20.5,371.459 M33.5,356.459 L46.5,371.459 " fill="none" style="stroke:#181818;stroke-width:0.5;"/><rect fill="#E2E2F0" height="32.6211" rx="2.5" ry="2.5" style="stroke:#181818;stroke-width:0.5;" width="35" x="233" y="50"/><text fill="#000000" font-family="sans-serif" font-size="14" lengthAdjust="spacing" textLength="21" x="240" y="72.1074">MD</text><rect fill="#E2E2F0" height="32.6211" rx="2.5" ry="2.5" style="stroke:#181818;stroke-width:0.5;" width="35" x="233" y="294.3379"/><text fill="#000000" font-family="sans-serif" font-size="14" lengthAdjust="spacing" textLength="21" x="240" y="316.4453">MD</text><rect fill="#FFFFFF" height="191.7168" style="stroke:#181818;stroke-width:1.0;" width="10" x="28.5" y="93.6211"/><rect fill="#FFFFFF" height="168.4258" style="stroke:#181818;stroke-width:1.0;" width="10" x="245.5" y="116.9121"/><polygon fill="#181818" points="233.5,112.9121,243.5,116.9121,233.5,120.9121,237.5,116.9121" style="stroke:#181818;stroke-width:1.0;"/><line style="stroke:#181818;stroke-width:1.0;" x1="38.5" x2="239.5" y1="116.9121" y2="116.9121"/><text fill="#000000" font-family="sans-serif" font-size="13" font-weight="bold" lengthAdjust="spacing" textLength="7" x="45.5" y="111.6494">1</text><text fill="#000000" font-family="sans-serif" font-size="13" lengthAdjust="spacing" textLength="155" x="56.5" y="111.6494">GET /building/{id}/elevators</text><path d="M10,131.9121 L71,131.9121 L71,141.2031 L61,151.2031 L10,151.2031 L10,131.9121 " fill="#EEEEEE" style="stroke:#000000;stroke-width:1.5;"/><rect fill="none" height="146.4258" style="stroke:#000000;stroke-width:1.5;" width="268" x="10" y="131.9121"/><text fill="#000000" font-family="sans-serif" font-size="13" font-weight="bold" lengthAdjust="spacing" textLength="16" x="25" y="146.9404">alt</text><text fill="#000000" font-family="sans-serif" font-size="11" font-weight="bold" lengthAdjust="spacing" textLength="108" x="86" y="145.7822">[building not found]</text><polygon fill="#181818" points="49.5,170.4941,39.5,174.4941,49.5,178.4941,45.5,174.4941" style="stroke:#181818;stroke-width:1.0;"/><line style="stroke:#181818;stroke-width:1.0;stroke-dasharray:2.0,2.0;" x1="43.5" x2="244.5" y1="174.4941" y2="174.4941"/><text fill="#000000" font-family="sans-serif" font-size="13" font-weight="bold" lengthAdjust="spacing" textLength="7" x="55.5" y="169.2314">2</text><text fill="#000000" font-family="sans-serif" font-size="13" lengthAdjust="spacing" textLength="140" x="66.5" y="169.2314">412: Precondition Failed</text><line style="stroke:#000000;stroke-width:1.0;stroke-dasharray:2.0,2.0;" x1="10" x2="278" y1="183.4941" y2="183.4941"/><text fill="#000000" font-family="sans-serif" font-size="11" font-weight="bold" lengthAdjust="spacing" textLength="116" x="15" y="195.3643">[elevators not found]</text><polygon fill="#181818" points="49.5,218.416,39.5,222.416,49.5,226.416,45.5,222.416" style="stroke:#181818;stroke-width:1.0;"/><line style="stroke:#181818;stroke-width:1.0;stroke-dasharray:2.0,2.0;" x1="43.5" x2="244.5" y1="222.416" y2="222.416"/><text fill="#000000" font-family="sans-serif" font-size="13" font-weight="bold" lengthAdjust="spacing" textLength="7" x="55.5" y="217.1533">3</text><text fill="#000000" font-family="sans-serif" font-size="13" lengthAdjust="spacing" textLength="140" x="66.5" y="217.1533">412: Precondition Failed</text><line style="stroke:#000000;stroke-width:1.0;stroke-dasharray:2.0,2.0;" x1="10" x2="278" y1="231.416" y2="231.416"/><text fill="#000000" font-family="sans-serif" font-size="11" font-weight="bold" lengthAdjust="spacing" textLength="88" x="15" y="243.2861">[elevators sent]</text><polygon fill="#181818" points="49.5,266.3379,39.5,270.3379,49.5,274.3379,45.5,270.3379" style="stroke:#181818;stroke-width:1.0;"/><line style="stroke:#181818;stroke-width:1.0;stroke-dasharray:2.0,2.0;" x1="43.5" x2="244.5" y1="270.3379" y2="270.3379"/><text fill="#000000" font-family="sans-serif" font-size="13" font-weight="bold" lengthAdjust="spacing" textLength="7" x="55.5" y="265.0752">4</text><text fill="#000000" font-family="sans-serif" font-size="13" lengthAdjust="spacing" textLength="126" x="66.5" y="265.0752">200: "OK" Successful</text><!--SRC=[dP71IWGn38RlVOhG-p3hucaGJwjxM4HHNw3JPYNGJPOs5K5yTxipip8Zek3VKqA-_qzRLrIu77fCnZYlai3Mup8CXUdb3UoZz9iaZ5knvkYIagUZOmLxjnb63s64wTKfJc0LJ1eQpVLfh8FjpJEqVQ4OY5_QTmeVBKQieAGy9qQlapFCvAB26GOMXRqK3ekHioeAJKqTBzN1vSMwWuU4NZYGaZ3SEeguX35cXAzzVaaONQ-QPiZvdtj6rZ-DrwjL1_P-P-6fU8yvxqjScdxRBk3YzSmFlLavVTOd]--></g></svg>