<?xml version="1.0" encoding="us-ascii" standalone="no"?><svg xmlns="http://www.w3.org/2000/svg" xmlns:xlink="http://www.w3.org/1999/xlink" contentStyleType="text/css" height="565px" preserveAspectRatio="none" style="width:1251px;height:565px;background:#FFFFFF;" version="1.1" viewBox="0 0 1251 565" width="1251px" zoomAndPan="magnify"><defs/><g><rect fill="#FFFFFF" height="436.902" style="stroke:#181818;stroke-width:1.0;" width="10" x="139" y="72.7739"/><rect fill="#FFFFFF" height="373.49" style="stroke:#181818;stroke-width:1.0;" width="10" x="328" y="104.4799"/><rect fill="#FFFFFF" height="266.01" style="stroke:#181818;stroke-width:1.0;" width="10" x="622" y="180.2539"/><rect fill="#FFFFFF" height="202.598" style="stroke:#181818;stroke-width:1.0;" width="10" x="761" y="211.9599"/><rect fill="#FFFFFF" height="95.118" style="stroke:#181818;stroke-width:1.0;" width="10" x="957" y="243.6659"/><line style="stroke:#181818;stroke-width:0.5;stroke-dasharray:5.0,5.0;" x1="143.5" x2="143.5" y1="39.0679" y2="527.6759"/><line style="stroke:#181818;stroke-width:0.5;stroke-dasharray:5.0,5.0;" x1="332.5" x2="332.5" y1="39.0679" y2="527.6759"/><line style="stroke:#181818;stroke-width:0.5;stroke-dasharray:5.0,5.0;" x1="494" x2="494" y1="144.5139" y2="527.6759"/><line style="stroke:#181818;stroke-width:0.5;stroke-dasharray:5.0,5.0;" x1="627" x2="627" y1="39.0679" y2="527.6759"/><line style="stroke:#181818;stroke-width:0.5;stroke-dasharray:5.0,5.0;" x1="766" x2="766" y1="39.0679" y2="527.6759"/><line style="stroke:#181818;stroke-width:0.5;stroke-dasharray:5.0,5.0;" x1="962" x2="962" y1="39.0679" y2="527.6759"/><line style="stroke:#181818;stroke-width:0.5;stroke-dasharray:5.0,5.0;" x1="1126" x2="1126" y1="378.8179" y2="527.6759"/><rect fill="#E2E2F0" height="33.0679" rx="2.5" ry="2.5" style="stroke:#181818;stroke-width:0.5;" width="53" x="117.5" y="5"/><text fill="#000000" font-family="sans-serif" font-size="14" lengthAdjust="spacing" textLength="39" x="124.5" y="26.9659">Route</text><rect fill="#E2E2F0" height="33.0679" rx="2.5" ry="2.5" style="stroke:#181818;stroke-width:0.5;" width="53" x="117.5" y="526.6759"/><text fill="#000000" font-family="sans-serif" font-size="14" lengthAdjust="spacing" textLength="39" x="124.5" y="548.6419">Route</text><rect fill="#E2E2F0" height="33.0679" rx="2.5" ry="2.5" style="stroke:#181818;stroke-width:0.5;" width="111" x="277.5" y="5"/><text fill="#000000" font-family="sans-serif" font-size="14" lengthAdjust="spacing" textLength="97" x="284.5" y="26.9659">TaskController</text><rect fill="#E2E2F0" height="33.0679" rx="2.5" ry="2.5" style="stroke:#181818;stroke-width:0.5;" width="111" x="277.5" y="526.6759"/><text fill="#000000" font-family="sans-serif" font-size="14" lengthAdjust="spacing" textLength="97" x="284.5" y="548.6419">TaskController</text><rect fill="#E2E2F0" height="33.0679" rx="2.5" ry="2.5" style="stroke:#181818;stroke-width:0.5;" width="153" x="418" y="526.6759"/><text fill="#000000" font-family="sans-serif" font-size="14" lengthAdjust="spacing" textLength="139" x="425" y="548.6419">dto:IUpdateTaskDTO</text><rect fill="#E2E2F0" height="33.0679" rx="2.5" ry="2.5" style="stroke:#181818;stroke-width:0.5;" width="92" x="581" y="5"/><text fill="#000000" font-family="sans-serif" font-size="14" lengthAdjust="spacing" textLength="78" x="588" y="26.9659">TaskService</text><rect fill="#E2E2F0" height="33.0679" rx="2.5" ry="2.5" style="stroke:#181818;stroke-width:0.5;" width="92" x="581" y="526.6759"/><text fill="#000000" font-family="sans-serif" font-size="14" lengthAdjust="spacing" textLength="78" x="588" y="548.6419">TaskService</text><rect fill="#E2E2F0" height="33.0679" rx="2.5" ry="2.5" style="stroke:#181818;stroke-width:0.5;" width="100" x="716" y="5"/><text fill="#000000" font-family="sans-serif" font-size="14" lengthAdjust="spacing" textLength="86" x="723" y="26.9659">IMdtAdapter</text><rect fill="#E2E2F0" height="33.0679" rx="2.5" ry="2.5" style="stroke:#181818;stroke-width:0.5;" width="100" x="716" y="526.6759"/><text fill="#000000" font-family="sans-serif" font-size="14" lengthAdjust="spacing" textLength="86" x="723" y="548.6419">IMdtAdapter</text><rect fill="#E2E2F0" height="33.0679" rx="2.5" ry="2.5" style="stroke:#181818;stroke-width:0.5;" width="82" x="921" y="5"/><text fill="#000000" font-family="sans-serif" font-size="14" lengthAdjust="spacing" textLength="68" x="928" y="26.9659">MdtDriver</text><rect fill="#E2E2F0" height="33.0679" rx="2.5" ry="2.5" style="stroke:#181818;stroke-width:0.5;" width="82" x="921" y="526.6759"/><text fill="#000000" font-family="sans-serif" font-size="14" lengthAdjust="spacing" textLength="68" x="928" y="548.6419">MdtDriver</text><rect fill="#E2E2F0" height="33.0679" rx="2.5" ry="2.5" style="stroke:#181818;stroke-width:0.5;" width="227" x="1013" y="526.6759"/><text fill="#000000" font-family="sans-serif" font-size="14" lengthAdjust="spacing" textLength="213" x="1020" y="548.6419">updatedTask:IUpdatedTaskDTO</text><rect fill="#FFFFFF" height="436.902" style="stroke:#181818;stroke-width:1.0;" width="10" x="139" y="72.7739"/><rect fill="#FFFFFF" height="373.49" style="stroke:#181818;stroke-width:1.0;" width="10" x="328" y="104.4799"/><rect fill="#FFFFFF" height="266.01" style="stroke:#181818;stroke-width:1.0;" width="10" x="622" y="180.2539"/><rect fill="#FFFFFF" height="202.598" style="stroke:#181818;stroke-width:1.0;" width="10" x="761" y="211.9599"/><rect fill="#FFFFFF" height="95.118" style="stroke:#181818;stroke-width:1.0;" width="10" x="957" y="243.6659"/><polygon fill="#181818" points="127,68.7739,137,72.7739,127,76.7739,131,72.7739" style="stroke:#181818;stroke-width:1.0;"/><line style="stroke:#181818;stroke-width:1.0;" x1="0" x2="133" y1="72.7739" y2="72.7739"/><text fill="#000000" font-family="sans-serif" font-size="13" font-weight="bold" lengthAdjust="spacing" textLength="7" x="7" y="66.9649">1</text><text fill="#000000" font-family="sans-serif" font-size="13" lengthAdjust="spacing" textLength="109" x="18" y="66.9649">PATCH /tasks/{:id}</text><polygon fill="#181818" points="316,100.4799,326,104.4799,316,108.4799,320,104.4799" style="stroke:#181818;stroke-width:1.0;"/><line style="stroke:#181818;stroke-width:1.0;" x1="149" x2="322" y1="104.4799" y2="104.4799"/><text fill="#000000" font-family="sans-serif" font-size="13" font-weight="bold" lengthAdjust="spacing" textLength="7" x="156" y="98.6709">2</text><text fill="#000000" font-family="sans-serif" font-size="13" lengthAdjust="spacing" textLength="149" x="167" y="98.6709">updateTask(req,res,next)</text><polygon fill="#181818" points="406,132.186,416,136.186,406,140.186,410,136.186" style="stroke:#181818;stroke-width:1.0;"/><line style="stroke:#181818;stroke-width:1.0;" x1="338" x2="412" y1="136.186" y2="136.186"/><text fill="#000000" font-family="sans-serif" font-size="13" font-weight="bold" lengthAdjust="spacing" textLength="7" x="345" y="130.377">3</text><text fill="#000000" font-family="sans-serif" font-size="13" lengthAdjust="spacing" textLength="45" x="356" y="130.377">create()</text><rect fill="#E2E2F0" height="33.0679" rx="2.5" ry="2.5" style="stroke:#181818;stroke-width:0.5;" width="153" x="418" y="112.4799"/><text fill="#000000" font-family="sans-serif" font-size="14" lengthAdjust="spacing" textLength="139" x="425" y="134.4459">dto:IUpdateTaskDTO</text><polygon fill="#181818" points="610,176.2539,620,180.2539,610,184.2539,614,180.2539" style="stroke:#181818;stroke-width:1.0;"/><line style="stroke:#181818;stroke-width:1.0;" x1="338" x2="616" y1="180.2539" y2="180.2539"/><text fill="#000000" font-family="sans-serif" font-size="13" font-weight="bold" lengthAdjust="spacing" textLength="7" x="345" y="174.4449">4</text><text fill="#000000" font-family="sans-serif" font-size="13" lengthAdjust="spacing" textLength="99" x="356" y="174.4449">updateTask(dto)</text><polygon fill="#181818" points="749,207.9599,759,211.9599,749,215.9599,753,211.9599" style="stroke:#181818;stroke-width:1.0;"/><line style="stroke:#181818;stroke-width:1.0;" x1="632" x2="755" y1="211.9599" y2="211.9599"/><text fill="#000000" font-family="sans-serif" font-size="13" font-weight="bold" lengthAdjust="spacing" textLength="7" x="639" y="206.1509">5</text><text fill="#000000" font-family="sans-serif" font-size="13" lengthAdjust="spacing" textLength="99" x="650" y="206.1509">updateTask(dto)</text><polygon fill="#181818" points="945,239.6659,955,243.6659,945,247.6659,949,243.6659" style="stroke:#181818;stroke-width:1.0;"/><line style="stroke:#181818;stroke-width:1.0;" x1="771" x2="951" y1="243.6659" y2="243.6659"/><text fill="#000000" font-family="sans-serif" font-size="13" font-weight="bold" lengthAdjust="spacing" textLength="7" x="778" y="237.8569">6</text><text fill="#000000" font-family="sans-serif" font-size="13" lengthAdjust="spacing" textLength="156" x="789" y="237.8569">fetch(MTD_URL/jobs/{:id})</text><polygon fill="#181818" points="1233,271.3719,1243,275.3719,1233,279.3719,1237,275.3719" style="stroke:#181818;stroke-width:1.0;"/><line style="stroke:#181818;stroke-width:1.0;" x1="967" x2="1239" y1="275.3719" y2="275.3719"/><text fill="#000000" font-family="sans-serif" font-size="13" font-weight="bold" lengthAdjust="spacing" textLength="7" x="974" y="269.5629">7</text><text fill="#000000" font-family="sans-serif" font-size="13" lengthAdjust="spacing" textLength="167" x="985" y="269.5629">PATCH /MTD_URL/jobs/{:id}</text><polygon fill="#181818" points="978,303.0779,968,307.0779,978,311.0779,974,307.0779" style="stroke:#181818;stroke-width:1.0;"/><line style="stroke:#181818;stroke-width:1.0;stroke-dasharray:2.0,2.0;" x1="972" x2="1244" y1="307.0779" y2="307.0779"/><text fill="#000000" font-family="sans-serif" font-size="13" font-weight="bold" lengthAdjust="spacing" textLength="7" x="984" y="301.2689">8</text><text fill="#000000" font-family="sans-serif" font-size="13" lengthAdjust="spacing" textLength="79" x="995" y="301.2689">updated task</text><polygon fill="#181818" points="782,334.784,772,338.784,782,342.784,778,338.784" style="stroke:#181818;stroke-width:1.0;"/><line style="stroke:#181818;stroke-width:1.0;stroke-dasharray:2.0,2.0;" x1="776" x2="961" y1="338.784" y2="338.784"/><text fill="#000000" font-family="sans-serif" font-size="13" font-weight="bold" lengthAdjust="spacing" textLength="7" x="788" y="332.975">9</text><text fill="#000000" font-family="sans-serif" font-size="13" lengthAdjust="spacing" textLength="73" x="799" y="332.975">updated job</text><polygon fill="#181818" points="1001,366.49,1011,370.49,1001,374.49,1005,370.49" style="stroke:#181818;stroke-width:1.0;"/><line style="stroke:#181818;stroke-width:1.0;stroke-dasharray:2.0,2.0;" x1="771" x2="1007" y1="370.49" y2="370.49"/><text fill="#000000" font-family="sans-serif" font-size="13" font-weight="bold" lengthAdjust="spacing" textLength="14" x="778" y="364.681">10</text><text fill="#000000" font-family="sans-serif" font-size="13" lengthAdjust="spacing" textLength="45" x="796" y="364.681">create()</text><rect fill="#E2E2F0" height="33.0679" rx="2.5" ry="2.5" style="stroke:#181818;stroke-width:0.5;" width="227" x="1013" y="346.784"/><text fill="#000000" font-family="sans-serif" font-size="14" lengthAdjust="spacing" textLength="213" x="1020" y="368.7499">updatedTask:IUpdatedTaskDTO</text><polygon fill="#181818" points="643,410.5579,633,414.5579,643,418.5579,639,414.5579" style="stroke:#181818;stroke-width:1.0;"/><line style="stroke:#181818;stroke-width:1.0;stroke-dasharray:2.0,2.0;" x1="637" x2="765" y1="414.5579" y2="414.5579"/><text fill="#000000" font-family="sans-serif" font-size="13" font-weight="bold" lengthAdjust="spacing" textLength="14" x="649" y="408.7489">11</text><text fill="#000000" font-family="sans-serif" font-size="13" lengthAdjust="spacing" textLength="78" x="667" y="408.7489">updatedTask</text><polygon fill="#181818" points="349,442.2639,339,446.2639,349,450.2639,345,446.2639" style="stroke:#181818;stroke-width:1.0;"/><line style="stroke:#181818;stroke-width:1.0;stroke-dasharray:2.0,2.0;" x1="343" x2="626" y1="446.2639" y2="446.2639"/><text fill="#000000" font-family="sans-serif" font-size="13" font-weight="bold" lengthAdjust="spacing" textLength="14" x="355" y="440.4549">12</text><text fill="#000000" font-family="sans-serif" font-size="13" lengthAdjust="spacing" textLength="78" x="373" y="440.4549">updatedTask</text><polygon fill="#181818" points="160,473.9699,150,477.9699,160,481.9699,156,477.9699" style="stroke:#181818;stroke-width:1.0;"/><line style="stroke:#181818;stroke-width:1.0;stroke-dasharray:2.0,2.0;" x1="154" x2="332" y1="477.9699" y2="477.9699"/><text fill="#000000" font-family="sans-serif" font-size="13" font-weight="bold" lengthAdjust="spacing" textLength="14" x="166" y="472.1609">13</text><text fill="#000000" font-family="sans-serif" font-size="13" lengthAdjust="spacing" textLength="102" x="184" y="472.1609">200 updatedTask</text><polygon fill="#181818" points="11,505.6759,1,509.6759,11,513.6759,7,509.6759" style="stroke:#181818;stroke-width:1.0;"/><line style="stroke:#181818;stroke-width:1.0;stroke-dasharray:2.0,2.0;" x1="5" x2="143" y1="509.6759" y2="509.6759"/><text fill="#000000" font-family="sans-serif" font-size="13" font-weight="bold" lengthAdjust="spacing" textLength="14" x="17" y="503.8669">14</text><text fill="#000000" font-family="sans-serif" font-size="13" lengthAdjust="spacing" textLength="42" x="35" y="503.8669">200 OK</text><!--SRC=[ZPDFQy904CNl-oa6JqOCIe-X2AA7IYiM6qyYikvkCQrDqiqa54g_UsVN6F9NdMFovlScRoOynIXClmvACnPpZO48OXuYzDPHYge7F05TVU7pv7CMXQYZqqbfgn2eJrMHnCXRR6B9KHdzt5zP8JtU1s6JzwPq5eYpNPA9sYYBfSIfv37cTbh5KLL1WhaEilpz4J6k8L8xYZHUbxbaVJ3wOCQsxWIq1_0wzMTFC4BI9ADVBv1_3AYum22ZPWe5yj90BIO1y20jlhYlrVTGgsGOgXzq2d65OME3MbaI4SzHmM10MA4LwVjEfvWogxfJjyCQyiBPP0mjPJWc00hu7bur4RCLw2XB9B9P3P7V5OfZV-dFzvlro-WZEkGPEvs0miOk5wwKjN0dExB9bzZqkGruTDrT4O44SmTtkDQpaq2UdNrILR_gHdhvKT2PNZ-AHbVvEkpLinlJs5Ls7qZztjkP9PxzfTjlroH6e8Vnk1DM0XL_p9RsS-bRFRFoxEmV]--></g></svg>