<?xml version="1.0" encoding="us-ascii" standalone="no"?><svg xmlns="http://www.w3.org/2000/svg" xmlns:xlink="http://www.w3.org/1999/xlink" contentStyleType="text/css" height="720px" preserveAspectRatio="none" style="width:1120px;height:720px;background:#FFFFFF;" version="1.1" viewBox="0 0 1120 720" width="1120px" zoomAndPan="magnify"><defs/><g><rect fill="#FFFFFF" height="584.6578" style="stroke:#181818;stroke-width:1.0;" width="10" x="140" y="72.7739"/><rect fill="#FFFFFF" height="477.1779" style="stroke:#181818;stroke-width:1.0;" width="10" x="425.5" y="148.5479"/><rect fill="#FFFFFF" height="31.706" style="stroke:#181818;stroke-width:1.0;" width="10" x="740.5" y="180.2539"/><rect fill="#FFFFFF" height="30" style="stroke:#181818;stroke-width:1.0;" width="10" x="740.5" y="456.5398"/><rect fill="#FFFFFF" height="30" style="stroke:#181818;stroke-width:1.0;" width="10" x="825" y="394.8338"/><rect fill="#FFFFFF" height="75.7739" style="stroke:#181818;stroke-width:1.0;" width="10" x="900.5" y="518.2458"/><rect fill="none" height="438.4719" style="stroke:#000000;stroke-width:1.5;" width="1110.5" x="3" y="226.9599"/><line style="stroke:#181818;stroke-width:0.5;stroke-dasharray:5.0,5.0;" x1="145" x2="145" y1="39.0679" y2="682.4318"/><line style="stroke:#181818;stroke-width:0.5;stroke-dasharray:5.0,5.0;" x1="303" x2="303" y1="112.8079" y2="682.4318"/><line style="stroke:#181818;stroke-width:0.5;stroke-dasharray:5.0,5.0;" x1="430" x2="430" y1="39.0679" y2="682.4318"/><line style="stroke:#181818;stroke-width:0.5;stroke-dasharray:5.0,5.0;" x1="597.5" x2="597.5" y1="359.0938" y2="682.4318"/><line style="stroke:#181818;stroke-width:0.5;stroke-dasharray:5.0,5.0;" x1="745.5" x2="745.5" y1="39.0679" y2="682.4318"/><line style="stroke:#181818;stroke-width:0.5;stroke-dasharray:5.0,5.0;" x1="829.5" x2="829.5" y1="39.0679" y2="682.4318"/><line style="stroke:#181818;stroke-width:0.5;stroke-dasharray:5.0,5.0;" x1="905.5" x2="905.5" y1="39.0679" y2="682.4318"/><line style="stroke:#181818;stroke-width:0.5;stroke-dasharray:5.0,5.0;" x1="1050.5" x2="1050.5" y1="558.2798" y2="682.4318"/><rect fill="#E2E2F0" height="33.0679" rx="2.5" ry="2.5" style="stroke:#181818;stroke-width:0.5;" width="128" x="81" y="5"/><text fill="#000000" font-family="sans-serif" font-size="14" lengthAdjust="spacing" textLength="114" x="88" y="26.9659">:JobApiController</text><rect fill="#E2E2F0" height="33.0679" rx="2.5" ry="2.5" style="stroke:#181818;stroke-width:0.5;" width="128" x="81" y="681.4318"/><text fill="#000000" font-family="sans-serif" font-size="14" lengthAdjust="spacing" textLength="114" x="88" y="703.3977">:JobApiController</text><rect fill="#E2E2F0" height="33.0679" rx="2.5" ry="2.5" style="stroke:#181818;stroke-width:0.5;" width="147" x="230" y="681.4318"/><text fill="#000000" font-family="sans-serif" font-size="14" lengthAdjust="spacing" textLength="133" x="237" y="703.3977">dto:UpdatingJobDto</text><rect fill="#E2E2F0" height="33.0679" rx="2.5" ry="2.5" style="stroke:#181818;stroke-width:0.5;" width="87" x="387" y="5"/><text fill="#000000" font-family="sans-serif" font-size="14" lengthAdjust="spacing" textLength="73" x="394" y="26.9659">:JobService</text><rect fill="#E2E2F0" height="33.0679" rx="2.5" ry="2.5" style="stroke:#181818;stroke-width:0.5;" width="87" x="387" y="681.4318"/><text fill="#000000" font-family="sans-serif" font-size="14" lengthAdjust="spacing" textLength="73" x="394" y="703.3977">:JobService</text><rect fill="#E2E2F0" height="33.0679" rx="2.5" ry="2.5" style="stroke:#181818;stroke-width:0.5;" width="165" x="515.5" y="681.4318"/><text fill="#000000" font-family="sans-serif" font-size="14" lengthAdjust="spacing" textLength="151" x="522.5" y="703.3977">props:JobUpdateProps</text><rect fill="#E2E2F0" height="33.0679" rx="2.5" ry="2.5" style="stroke:#181818;stroke-width:0.5;" width="110" x="690.5" y="5"/><text fill="#000000" font-family="sans-serif" font-size="14" lengthAdjust="spacing" textLength="96" x="697.5" y="26.9659">:JobRepository</text><rect fill="#E2E2F0" height="33.0679" rx="2.5" ry="2.5" style="stroke:#181818;stroke-width:0.5;" width="110" x="690.5" y="681.4318"/><text fill="#000000" font-family="sans-serif" font-size="14" lengthAdjust="spacing" textLength="96" x="697.5" y="703.3977">:JobRepository</text><rect fill="#E2E2F0" height="33.0679" rx="2.5" ry="2.5" style="stroke:#181818;stroke-width:0.5;" width="39" x="810.5" y="5"/><text fill="#000000" font-family="sans-serif" font-size="14" lengthAdjust="spacing" textLength="25" x="817.5" y="26.9659">:Job</text><rect fill="#E2E2F0" height="33.0679" rx="2.5" ry="2.5" style="stroke:#181818;stroke-width:0.5;" width="39" x="810.5" y="681.4318"/><text fill="#000000" font-family="sans-serif" font-size="14" lengthAdjust="spacing" textLength="25" x="817.5" y="703.3977">:Job</text><rect fill="#E2E2F0" height="33.0679" rx="2.5" ry="2.5" style="stroke:#181818;stroke-width:0.5;" width="92" x="859.5" y="5"/><text fill="#000000" font-family="sans-serif" font-size="14" lengthAdjust="spacing" textLength="78" x="866.5" y="26.9659">:JobMapper</text><rect fill="#E2E2F0" height="33.0679" rx="2.5" ry="2.5" style="stroke:#181818;stroke-width:0.5;" width="92" x="859.5" y="681.4318"/><text fill="#000000" font-family="sans-serif" font-size="14" lengthAdjust="spacing" textLength="78" x="866.5" y="703.3977">:JobMapper</text><rect fill="#E2E2F0" height="33.0679" rx="2.5" ry="2.5" style="stroke:#181818;stroke-width:0.5;" width="106" x="997.5" y="681.4318"/><text fill="#000000" font-family="sans-serif" font-size="14" lengthAdjust="spacing" textLength="92" x="1004.5" y="703.3977">jobDto:JobDto</text><rect fill="#FFFFFF" height="584.6578" style="stroke:#181818;stroke-width:1.0;" width="10" x="140" y="72.7739"/><rect fill="#FFFFFF" height="477.1779" style="stroke:#181818;stroke-width:1.0;" width="10" x="425.5" y="148.5479"/><rect fill="#FFFFFF" height="31.706" style="stroke:#181818;stroke-width:1.0;" width="10" x="740.5" y="180.2539"/><rect fill="#FFFFFF" height="30" style="stroke:#181818;stroke-width:1.0;" width="10" x="740.5" y="456.5398"/><rect fill="#FFFFFF" height="30" style="stroke:#181818;stroke-width:1.0;" width="10" x="825" y="394.8338"/><rect fill="#FFFFFF" height="75.7739" style="stroke:#181818;stroke-width:1.0;" width="10" x="900.5" y="518.2458"/><polygon fill="#181818" points="128,68.7739,138,72.7739,128,76.7739,132,72.7739" style="stroke:#181818;stroke-width:1.0;"/><line style="stroke:#181818;stroke-width:1.0;" x1="0" x2="134" y1="72.7739" y2="72.7739"/><text fill="#000000" font-family="sans-serif" font-size="13" font-weight="bold" lengthAdjust="spacing" textLength="7" x="7" y="66.9649">1</text><text fill="#000000" font-family="sans-serif" font-size="13" lengthAdjust="spacing" textLength="103" x="18" y="66.9649">PATCH /jobs/{:id}</text><polygon fill="#181818" points="218,100.4799,228,104.4799,218,108.4799,222,104.4799" style="stroke:#181818;stroke-width:1.0;"/><line style="stroke:#181818;stroke-width:1.0;stroke-dasharray:2.0,2.0;" x1="150" x2="224" y1="104.4799" y2="104.4799"/><text fill="#000000" font-family="sans-serif" font-size="13" font-weight="bold" lengthAdjust="spacing" textLength="7" x="157" y="98.6709">2</text><text fill="#000000" font-family="sans-serif" font-size="13" lengthAdjust="spacing" textLength="45" x="168" y="98.6709">create()</text><rect fill="#E2E2F0" height="33.0679" rx="2.5" ry="2.5" style="stroke:#181818;stroke-width:0.5;" width="147" x="230" y="80.7739"/><text fill="#000000" font-family="sans-serif" font-size="14" lengthAdjust="spacing" textLength="133" x="237" y="102.7399">dto:UpdatingJobDto</text><polygon fill="#181818" points="413.5,144.5479,423.5,148.5479,413.5,152.5479,417.5,148.5479" style="stroke:#181818;stroke-width:1.0;"/><line style="stroke:#181818;stroke-width:1.0;" x1="150" x2="419.5" y1="148.5479" y2="148.5479"/><text fill="#000000" font-family="sans-serif" font-size="13" font-weight="bold" lengthAdjust="spacing" textLength="7" x="157" y="142.7389">3</text><text fill="#000000" font-family="sans-serif" font-size="13" lengthAdjust="spacing" textLength="94" x="168" y="142.7389">UpdateJob(dto)</text><polygon fill="#181818" points="728.5,176.2539,738.5,180.2539,728.5,184.2539,732.5,180.2539" style="stroke:#181818;stroke-width:1.0;"/><line style="stroke:#181818;stroke-width:1.0;" x1="435.5" x2="734.5" y1="180.2539" y2="180.2539"/><text fill="#000000" font-family="sans-serif" font-size="13" font-weight="bold" lengthAdjust="spacing" textLength="7" x="442.5" y="174.4449">4</text><text fill="#000000" font-family="sans-serif" font-size="13" lengthAdjust="spacing" textLength="147" x="453.5" y="174.4449">GetByIdAsync(dto.JobId)</text><polygon fill="#181818" points="446.5,207.9599,436.5,211.9599,446.5,215.9599,442.5,211.9599" style="stroke:#181818;stroke-width:1.0;"/><line style="stroke:#181818;stroke-width:1.0;stroke-dasharray:2.0,2.0;" x1="440.5" x2="744.5" y1="211.9599" y2="211.9599"/><text fill="#000000" font-family="sans-serif" font-size="13" font-weight="bold" lengthAdjust="spacing" textLength="7" x="452.5" y="206.1509">5</text><text fill="#000000" font-family="sans-serif" font-size="13" lengthAdjust="spacing" textLength="19" x="463.5" y="206.1509">job</text><path d="M3,226.9599 L66,226.9599 L66,236.6659 L56,246.6659 L3,246.6659 L3,226.9599 " fill="#EEEEEE" style="stroke:#000000;stroke-width:1.5;"/><rect fill="none" height="438.4719" style="stroke:#000000;stroke-width:1.5;" width="1110.5" x="3" y="226.9599"/><text fill="#000000" font-family="sans-serif" font-size="13" font-weight="bold" lengthAdjust="spacing" textLength="18" x="18" y="241.8569">alt</text><text fill="#000000" font-family="sans-serif" font-size="11" font-weight="bold" lengthAdjust="spacing" textLength="82" x="81" y="240.7188">[job not found]</text><polygon fill="#181818" points="161,266.3719,151,270.3719,161,274.3719,157,270.3719" style="stroke:#181818;stroke-width:1.0;"/><line style="stroke:#181818;stroke-width:1.0;stroke-dasharray:2.0,2.0;" x1="155" x2="424.5" y1="270.3719" y2="270.3719"/><text fill="#000000" font-family="sans-serif" font-size="13" font-weight="bold" lengthAdjust="spacing" textLength="7" x="167" y="264.5629">6</text><text fill="#000000" font-family="sans-serif" font-size="13" lengthAdjust="spacing" textLength="93" x="178" y="264.5629">not found error</text><polygon fill="#181818" points="11,298.0779,1,302.0779,11,306.0779,7,302.0779" style="stroke:#181818;stroke-width:1.0;"/><line style="stroke:#181818;stroke-width:1.0;stroke-dasharray:2.0,2.0;" x1="5" x2="139" y1="302.0779" y2="302.0779"/><text fill="#000000" font-family="sans-serif" font-size="13" font-weight="bold" lengthAdjust="spacing" textLength="7" x="17" y="296.2689">7</text><text fill="#000000" font-family="sans-serif" font-size="13" lengthAdjust="spacing" textLength="89" x="28" y="296.2689">404 Not Found</text><line style="stroke:#000000;stroke-width:1.0;stroke-dasharray:2.0,2.0;" x1="3" x2="1113.5" y1="311.0779" y2="311.0779"/><text fill="#000000" font-family="sans-serif" font-size="11" font-weight="bold" lengthAdjust="spacing" textLength="40" x="8" y="322.8369">[found]</text><polygon fill="#181818" points="503.5,346.7659,513.5,350.7659,503.5,354.7659,507.5,350.7659" style="stroke:#181818;stroke-width:1.0;"/><line style="stroke:#181818;stroke-width:1.0;stroke-dasharray:2.0,2.0;" x1="435.5" x2="509.5" y1="350.7659" y2="350.7659"/><text fill="#000000" font-family="sans-serif" font-size="13" font-weight="bold" lengthAdjust="spacing" textLength="7" x="442.5" y="344.9569">8</text><text fill="#000000" font-family="sans-serif" font-size="13" lengthAdjust="spacing" textLength="45" x="453.5" y="344.9569">create()</text><rect fill="#E2E2F0" height="33.0679" rx="2.5" ry="2.5" style="stroke:#181818;stroke-width:0.5;" width="165" x="515.5" y="327.0598"/><text fill="#000000" font-family="sans-serif" font-size="14" lengthAdjust="spacing" textLength="151" x="522.5" y="349.0258">props:JobUpdateProps</text><polygon fill="#181818" points="813,390.8338,823,394.8338,813,398.8338,817,394.8338" style="stroke:#181818;stroke-width:1.0;"/><line style="stroke:#181818;stroke-width:1.0;" x1="435.5" x2="819" y1="394.8338" y2="394.8338"/><text fill="#000000" font-family="sans-serif" font-size="13" font-weight="bold" lengthAdjust="spacing" textLength="7" x="442.5" y="389.0248">9</text><text fill="#000000" font-family="sans-serif" font-size="13" lengthAdjust="spacing" textLength="88" x="453.5" y="389.0248">Update(props)</text><polygon fill="#181818" points="728.5,452.5398,738.5,456.5398,728.5,460.5398,732.5,456.5398" style="stroke:#181818;stroke-width:1.0;"/><line style="stroke:#181818;stroke-width:1.0;" x1="435.5" x2="734.5" y1="456.5398" y2="456.5398"/><text fill="#000000" font-family="sans-serif" font-size="13" font-weight="bold" lengthAdjust="spacing" textLength="14" x="442.5" y="450.7308">10</text><text fill="#000000" font-family="sans-serif" font-size="13" lengthAdjust="spacing" textLength="72" x="460.5" y="450.7308">Update(job)</text><polygon fill="#181818" points="888.5,514.2458,898.5,518.2458,888.5,522.2458,892.5,518.2458" style="stroke:#181818;stroke-width:1.0;"/><line style="stroke:#181818;stroke-width:1.0;" x1="435.5" x2="894.5" y1="518.2458" y2="518.2458"/><text fill="#000000" font-family="sans-serif" font-size="13" font-weight="bold" lengthAdjust="spacing" textLength="14" x="442.5" y="512.4368">11</text><text fill="#000000" font-family="sans-serif" font-size="13" lengthAdjust="spacing" textLength="62" x="460.5" y="512.4368">toDto(job)</text><polygon fill="#181818" points="985.5,545.9518,995.5,549.9518,985.5,553.9518,989.5,549.9518" style="stroke:#181818;stroke-width:1.0;"/><line style="stroke:#181818;stroke-width:1.0;stroke-dasharray:2.0,2.0;" x1="910.5" x2="991.5" y1="549.9518" y2="549.9518"/><text fill="#000000" font-family="sans-serif" font-size="13" font-weight="bold" lengthAdjust="spacing" textLength="14" x="917.5" y="544.1428">12</text><text fill="#000000" font-family="sans-serif" font-size="13" lengthAdjust="spacing" textLength="45" x="935.5" y="544.1428">create()</text><rect fill="#E2E2F0" height="33.0679" rx="2.5" ry="2.5" style="stroke:#181818;stroke-width:0.5;" width="106" x="997.5" y="526.2458"/><text fill="#000000" font-family="sans-serif" font-size="14" lengthAdjust="spacing" textLength="92" x="1004.5" y="548.2117">jobDto:JobDto</text><polygon fill="#181818" points="446.5,590.0197,436.5,594.0197,446.5,598.0197,442.5,594.0197" style="stroke:#181818;stroke-width:1.0;"/><line style="stroke:#181818;stroke-width:1.0;stroke-dasharray:2.0,2.0;" x1="440.5" x2="904.5" y1="594.0197" y2="594.0197"/><text fill="#000000" font-family="sans-serif" font-size="13" font-weight="bold" lengthAdjust="spacing" textLength="14" x="452.5" y="588.2107">13</text><text fill="#000000" font-family="sans-serif" font-size="13" lengthAdjust="spacing" textLength="41" x="470.5" y="588.2107">jobDto</text><polygon fill="#181818" points="161,621.7258,151,625.7258,161,629.7258,157,625.7258" style="stroke:#181818;stroke-width:1.0;"/><line style="stroke:#181818;stroke-width:1.0;stroke-dasharray:2.0,2.0;" x1="155" x2="429.5" y1="625.7258" y2="625.7258"/><text fill="#000000" font-family="sans-serif" font-size="13" font-weight="bold" lengthAdjust="spacing" textLength="14" x="167" y="619.9168">14</text><text fill="#000000" font-family="sans-serif" font-size="13" lengthAdjust="spacing" textLength="41" x="185" y="619.9168">jobDto</text><polygon fill="#181818" points="11,653.4318,1,657.4318,11,661.4318,7,657.4318" style="stroke:#181818;stroke-width:1.0;"/><line style="stroke:#181818;stroke-width:1.0;stroke-dasharray:2.0,2.0;" x1="5" x2="144" y1="657.4318" y2="657.4318"/><text fill="#000000" font-family="sans-serif" font-size="13" font-weight="bold" lengthAdjust="spacing" textLength="14" x="17" y="651.6228">15</text><text fill="#000000" font-family="sans-serif" font-size="13" lengthAdjust="spacing" textLength="68" x="35" y="651.6228">200: jobDto</text><!--SRC=[XPHHQy8m58NV-ok2BrEXKuPFPGXEsUPWGxRvv8F4DXkHseGq2ZBsttTp4sDQ8ykJpVtkQUx9gNIlHRNVRPXA4acLvZcNjDAaaxs8pKJogQYq4cN9L8VGckHQbIsmq29Roe9gNdr3pqmB964xelZ1r87d38dwaBS8gOIi3OPwR64U4SL2HEwTIL5pBTGHCGMF4GfhMx69b5wfb6wq7Vvi8bkS9ml6sgvni5KwHYz8HXQJp-ap6G1Q3tuoNlmc2SqrFy00pYu22-4Kkg2ztuUsN34WkZsitX3VOkJjLi4Qcu7Cs7W76jOcE5qN0AlaMuoxn2r3GvEn1xgUc7uupej9VQnoqtWB0lEYvsalWNQIOA50wbzlB3sLWiFQMw2bDW2fX2PVObyLpTES_VC0OKe9vR7LVPgUcD5mHDw0UqGXLjRCQLw8Ob8k3MwPRFDqBWIdTr5hMMScEVdTHIJYrnK_C7dngt22GFnd_uM_BK6RNf3K0g9wHT55FBnIrsUimsZ7hMlPPp-2PZ4SUEtp6dcDpyvCHyTpXxmMbw0nQCB_adPgxeP3pmUi_IYPISyV]--></g></svg>