<?xml version="1.0" encoding="us-ascii" standalone="no"?><svg xmlns="http://www.w3.org/2000/svg" xmlns:xlink="http://www.w3.org/1999/xlink" contentStyleType="text/css" height="1152px" preserveAspectRatio="none" style="width:1269px;height:1152px;background:#FFFFFF;" version="1.1" viewBox="0 0 1269 1152" width="1269px" zoomAndPan="magnify"><defs/><g><rect fill="#FFFFFF" height="956.8179" style="stroke:#181818;stroke-width:1.0;" width="10" x="65.5" y="94.0679"/><rect fill="#FFFFFF" height="453.522" style="stroke:#181818;stroke-width:1.0;" width="10" x="318.5" y="117.7739"/><rect fill="#FFFFFF" height="455.8839" style="stroke:#181818;stroke-width:1.0;" width="10" x="318.5" y="595.002"/><rect fill="#FFFFFF" height="299.716" style="stroke:#181818;stroke-width:1.0;" width="10" x="489.5" y="149.4799"/><rect fill="#FFFFFF" height="365.7659" style="stroke:#181818;stroke-width:1.0;" width="10" x="489.5" y="653.414"/><rect fill="#FFFFFF" height="236.304" style="stroke:#181818;stroke-width:1.0;" width="10" x="787.5" y="181.186"/><rect fill="#FFFFFF" height="202.598" style="stroke:#181818;stroke-width:1.0;" width="10" x="787.5" y="784.8758"/><rect fill="#FFFFFF" height="95.118" style="stroke:#181818;stroke-width:1.0;" width="10" x="1069" y="212.892"/><rect fill="#FFFFFF" height="95.118" style="stroke:#181818;stroke-width:1.0;" width="10" x="1069" y="816.5818"/><rect fill="none" height="63.7739" style="stroke:#000000;stroke-width:1.5;" width="293" x="734.5" y="323.01"/><rect fill="none" height="100.0999" style="stroke:#000000;stroke-width:1.5;" width="384" x="10" y="464.196"/><rect fill="none" height="100.0999" style="stroke:#000000;stroke-width:1.5;" width="294" x="253" y="610.002"/><line style="stroke:#181818;stroke-width:0.5;stroke-dasharray:5.0,5.0;" x1="70" x2="70" y1="84.0679" y2="1068.8859"/><line style="stroke:#181818;stroke-width:0.5;stroke-dasharray:5.0,5.0;" x1="323" x2="323" y1="84.0679" y2="1068.8859"/><line style="stroke:#181818;stroke-width:0.5;stroke-dasharray:5.0,5.0;" x1="494" x2="494" y1="84.0679" y2="1068.8859"/><line style="stroke:#181818;stroke-width:0.5;stroke-dasharray:5.0,5.0;" x1="660.5" x2="660.5" y1="749.1358" y2="1068.8859"/><line style="stroke:#181818;stroke-width:0.5;stroke-dasharray:5.0,5.0;" x1="792.5" x2="792.5" y1="84.0679" y2="1068.8859"/><line style="stroke:#181818;stroke-width:0.5;stroke-dasharray:5.0,5.0;" x1="950.5" x2="950.5" y1="951.7338" y2="1068.8859"/><line style="stroke:#181818;stroke-width:0.5;stroke-dasharray:5.0,5.0;" x1="1073.5" x2="1073.5" y1="84.0679" y2="1068.8859"/><text fill="#000000" font-family="sans-serif" font-size="14" lengthAdjust="spacing" textLength="95" x="20" y="79.9659">Task Manager</text><ellipse cx="70.5" cy="13.5" fill="#E2E2F0" rx="8" ry="8" style="stroke:#181818;stroke-width:0.5;"/><path d="M70.5,21.5 L70.5,48.5 M57.5,29.5 L83.5,29.5 M70.5,48.5 L57.5,63.5 M70.5,48.5 L83.5,63.5 " fill="none" style="stroke:#181818;stroke-width:0.5;"/><text fill="#000000" font-family="sans-serif" font-size="14" lengthAdjust="spacing" textLength="95" x="20" y="1082.8518">Task Manager</text><ellipse cx="70.5" cy="1095.4538" fill="#E2E2F0" rx="8" ry="8" style="stroke:#181818;stroke-width:0.5;"/><path d="M70.5,1103.4538 L70.5,1130.4538 M57.5,1111.4538 L83.5,1111.4538 M70.5,1130.4538 L57.5,1145.4538 M70.5,1130.4538 L83.5,1145.4538 " fill="none" style="stroke:#181818;stroke-width:0.5;"/><rect fill="#E2E2F0" height="33.0679" rx="2.5" ry="2.5" style="stroke:#181818;stroke-width:0.5;" width="121" x="263" y="50"/><text fill="#000000" font-family="sans-serif" font-size="14" lengthAdjust="spacing" textLength="107" x="270" y="71.9659">HTML + CSS + JS</text><rect fill="#E2E2F0" height="33.0679" rx="2.5" ry="2.5" style="stroke:#181818;stroke-width:0.5;" width="121" x="263" y="1067.8859"/><text fill="#000000" font-family="sans-serif" font-size="14" lengthAdjust="spacing" textLength="107" x="270" y="1089.8518">HTML + CSS + JS</text><rect fill="#E2E2F0" height="33.0679" rx="2.5" ry="2.5" style="stroke:#181818;stroke-width:0.5;" width="85" x="452" y="50"/><text fill="#000000" font-family="sans-serif" font-size="14" lengthAdjust="spacing" textLength="71" x="459" y="71.9659">:Controller</text><rect fill="#E2E2F0" height="33.0679" rx="2.5" ry="2.5" style="stroke:#181818;stroke-width:0.5;" width="85" x="452" y="1067.8859"/><text fill="#000000" font-family="sans-serif" font-size="14" lengthAdjust="spacing" textLength="71" x="459" y="1089.8518">:Controller</text><rect fill="#E2E2F0" height="33.0679" rx="2.5" ry="2.5" style="stroke:#181818;stroke-width:0.5;" width="148" x="586.5" y="1067.8859"/><text fill="#000000" font-family="sans-serif" font-size="14" lengthAdjust="spacing" textLength="134" x="593.5" y="1089.8518">dto:UpdateTaskDTO</text><rect fill="#E2E2F0" height="33.0679" rx="2.5" ry="2.5" style="stroke:#181818;stroke-width:0.5;" width="96" x="744.5" y="50"/><text fill="#000000" font-family="sans-serif" font-size="14" lengthAdjust="spacing" textLength="82" x="751.5" y="71.9659">:TaskService</text><rect fill="#E2E2F0" height="33.0679" rx="2.5" ry="2.5" style="stroke:#181818;stroke-width:0.5;" width="96" x="744.5" y="1067.8859"/><text fill="#000000" font-family="sans-serif" font-size="14" lengthAdjust="spacing" textLength="82" x="751.5" y="1089.8518">:TaskService</text><rect fill="#E2E2F0" height="33.0679" rx="2.5" ry="2.5" style="stroke:#181818;stroke-width:0.5;" width="133" x="884.5" y="1067.8859"/><text fill="#000000" font-family="sans-serif" font-size="14" lengthAdjust="spacing" textLength="119" x="891.5" y="1089.8518">taskDTO:TaskDTO</text><rect fill="#E2E2F0" height="33.0679" rx="2.5" ry="2.5" style="stroke:#181818;stroke-width:0.5;" width="93" x="1027.5" y="50"/><text fill="#000000" font-family="sans-serif" font-size="14" lengthAdjust="spacing" textLength="79" x="1034.5" y="71.9659">HTTP Driver</text><rect fill="#E2E2F0" height="33.0679" rx="2.5" ry="2.5" style="stroke:#181818;stroke-width:0.5;" width="93" x="1027.5" y="1067.8859"/><text fill="#000000" font-family="sans-serif" font-size="14" lengthAdjust="spacing" textLength="79" x="1034.5" y="1089.8518">HTTP Driver</text><rect fill="#FFFFFF" height="956.8179" style="stroke:#181818;stroke-width:1.0;" width="10" x="65.5" y="94.0679"/><rect fill="#FFFFFF" height="453.522" style="stroke:#181818;stroke-width:1.0;" width="10" x="318.5" y="117.7739"/><rect fill="#FFFFFF" height="455.8839" style="stroke:#181818;stroke-width:1.0;" width="10" x="318.5" y="595.002"/><rect fill="#FFFFFF" height="299.716" style="stroke:#181818;stroke-width:1.0;" width="10" x="489.5" y="149.4799"/><rect fill="#FFFFFF" height="365.7659" style="stroke:#181818;stroke-width:1.0;" width="10" x="489.5" y="653.414"/><rect fill="#FFFFFF" height="236.304" style="stroke:#181818;stroke-width:1.0;" width="10" x="787.5" y="181.186"/><rect fill="#FFFFFF" height="202.598" style="stroke:#181818;stroke-width:1.0;" width="10" x="787.5" y="784.8758"/><rect fill="#FFFFFF" height="95.118" style="stroke:#181818;stroke-width:1.0;" width="10" x="1069" y="212.892"/><rect fill="#FFFFFF" height="95.118" style="stroke:#181818;stroke-width:1.0;" width="10" x="1069" y="816.5818"/><polygon fill="#181818" points="306.5,113.7739,316.5,117.7739,306.5,121.7739,310.5,117.7739" style="stroke:#181818;stroke-width:1.0;"/><line style="stroke:#181818;stroke-width:1.0;" x1="75.5" x2="312.5" y1="117.7739" y2="117.7739"/><text fill="#000000" font-family="sans-serif" font-size="13" font-weight="bold" lengthAdjust="spacing" textLength="7" x="82.5" y="111.9649">1</text><text fill="#000000" font-family="sans-serif" font-size="13" lengthAdjust="spacing" textLength="195" x="93.5" y="111.9649">wants to approve or reject a task</text><polygon fill="#181818" points="477.5,145.4799,487.5,149.4799,477.5,153.4799,481.5,149.4799" style="stroke:#181818;stroke-width:1.0;"/><line style="stroke:#181818;stroke-width:1.0;" x1="328.5" x2="483.5" y1="149.4799" y2="149.4799"/><text fill="#000000" font-family="sans-serif" font-size="13" font-weight="bold" lengthAdjust="spacing" textLength="7" x="335.5" y="143.6709">2</text><text fill="#000000" font-family="sans-serif" font-size="13" lengthAdjust="spacing" textLength="62" x="346.5" y="143.6709">ngOnInit()</text><polygon fill="#181818" points="775.5,177.186,785.5,181.186,775.5,185.186,779.5,181.186" style="stroke:#181818;stroke-width:1.0;"/><line style="stroke:#181818;stroke-width:1.0;" x1="499.5" x2="781.5" y1="181.186" y2="181.186"/><text fill="#000000" font-family="sans-serif" font-size="13" font-weight="bold" lengthAdjust="spacing" textLength="7" x="506.5" y="175.377">3</text><text fill="#000000" font-family="sans-serif" font-size="13" lengthAdjust="spacing" textLength="91" x="517.5" y="175.377">pendingTasks()</text><polygon fill="#181818" points="1057,208.892,1067,212.892,1057,216.892,1061,212.892" style="stroke:#181818;stroke-width:1.0;"/><line style="stroke:#181818;stroke-width:1.0;" x1="797.5" x2="1063" y1="212.892" y2="212.892"/><text fill="#000000" font-family="sans-serif" font-size="13" font-weight="bold" lengthAdjust="spacing" textLength="7" x="804.5" y="207.083">4</text><text fill="#000000" font-family="sans-serif" font-size="13" lengthAdjust="spacing" textLength="214" x="815.5" y="207.083">get({baseURL}/task?state=pending)</text><polygon fill="#181818" points="1251,240.598,1261,244.598,1251,248.598,1255,244.598" style="stroke:#181818;stroke-width:1.0;"/><line style="stroke:#181818;stroke-width:1.0;" x1="1079" x2="1257" y1="244.598" y2="244.598"/><text fill="#000000" font-family="sans-serif" font-size="13" font-weight="bold" lengthAdjust="spacing" textLength="7" x="1086" y="238.789">5</text><text fill="#000000" font-family="sans-serif" font-size="13" lengthAdjust="spacing" textLength="149" x="1097" y="238.789">GET /task?state=pending</text><polygon fill="#181818" points="1090,272.304,1080,276.304,1090,280.304,1086,276.304" style="stroke:#181818;stroke-width:1.0;"/><line style="stroke:#181818;stroke-width:1.0;stroke-dasharray:2.0,2.0;" x1="1084" x2="1262" y1="276.304" y2="276.304"/><text fill="#000000" font-family="sans-serif" font-size="13" font-weight="bold" lengthAdjust="spacing" textLength="7" x="1096" y="270.495">6</text><text fill="#000000" font-family="sans-serif" font-size="13" lengthAdjust="spacing" textLength="83" x="1107" y="270.495">pendingTasks</text><polygon fill="#181818" points="808.5,304.01,798.5,308.01,808.5,312.01,804.5,308.01" style="stroke:#181818;stroke-width:1.0;"/><line style="stroke:#181818;stroke-width:1.0;stroke-dasharray:2.0,2.0;" x1="802.5" x2="1073" y1="308.01" y2="308.01"/><text fill="#000000" font-family="sans-serif" font-size="13" font-weight="bold" lengthAdjust="spacing" textLength="7" x="814.5" y="302.201">7</text><text fill="#000000" font-family="sans-serif" font-size="13" lengthAdjust="spacing" textLength="163" x="825.5" y="302.201">observable&lt;pendingTasks&gt;</text><path d="M734.5,323.01 L807.5,323.01 L807.5,332.716 L797.5,342.716 L734.5,342.716 L734.5,323.01 " fill="#EEEEEE" style="stroke:#000000;stroke-width:1.5;"/><rect fill="none" height="63.7739" style="stroke:#000000;stroke-width:1.5;" width="293" x="734.5" y="323.01"/><text fill="#000000" font-family="sans-serif" font-size="13" font-weight="bold" lengthAdjust="spacing" textLength="28" x="749.5" y="337.907">loop</text><text fill="#000000" font-family="sans-serif" font-size="11" font-weight="bold" lengthAdjust="spacing" textLength="81" x="822.5" y="336.7689">[for each task]</text><polygon fill="#181818" points="872.5,362.4221,882.5,366.4221,872.5,370.4221,876.5,366.4221" style="stroke:#181818;stroke-width:1.0;"/><line style="stroke:#181818;stroke-width:1.0;stroke-dasharray:2.0,2.0;" x1="797.5" x2="878.5" y1="366.4221" y2="366.4221"/><text fill="#000000" font-family="sans-serif" font-size="13" font-weight="bold" lengthAdjust="spacing" textLength="7" x="804.5" y="360.6131">8</text><text fill="#000000" font-family="sans-serif" font-size="13" lengthAdjust="spacing" textLength="45" x="815.5" y="360.6131">create()</text><rect fill="#E2E2F0" height="33.0679" rx="2.5" ry="2.5" style="stroke:#181818;stroke-width:0.5;" width="133" x="884.5" y="342.716"/><text fill="#000000" font-family="sans-serif" font-size="14" lengthAdjust="spacing" textLength="119" x="891.5" y="364.682">taskDTO:TaskDTO</text><polygon fill="#181818" points="510.5,413.49,500.5,417.49,510.5,421.49,506.5,417.49" style="stroke:#181818;stroke-width:1.0;"/><line style="stroke:#181818;stroke-width:1.0;stroke-dasharray:2.0,2.0;" x1="504.5" x2="791.5" y1="417.49" y2="417.49"/><text fill="#000000" font-family="sans-serif" font-size="13" font-weight="bold" lengthAdjust="spacing" textLength="7" x="516.5" y="411.681">9</text><text fill="#000000" font-family="sans-serif" font-size="13" lengthAdjust="spacing" textLength="31" x="527.5" y="411.681">tasks</text><polygon fill="#181818" points="339.5,445.196,329.5,449.196,339.5,453.196,335.5,449.196" style="stroke:#181818;stroke-width:1.0;"/><line style="stroke:#181818;stroke-width:1.0;stroke-dasharray:2.0,2.0;" x1="333.5" x2="493.5" y1="449.196" y2="449.196"/><text fill="#000000" font-family="sans-serif" font-size="13" font-weight="bold" lengthAdjust="spacing" textLength="14" x="345.5" y="443.387">10</text><text fill="#000000" font-family="sans-serif" font-size="13" lengthAdjust="spacing" textLength="31" x="363.5" y="443.387">tasks</text><path d="M10,464.196 L73,464.196 L73,473.902 L63,483.902 L10,483.902 L10,464.196 " fill="#EEEEEE" style="stroke:#000000;stroke-width:1.5;"/><rect fill="none" height="100.0999" style="stroke:#000000;stroke-width:1.5;" width="384" x="10" y="464.196"/><text fill="#000000" font-family="sans-serif" font-size="13" font-weight="bold" lengthAdjust="spacing" textLength="18" x="25" y="479.093">alt</text><text fill="#000000" font-family="sans-serif" font-size="11" font-weight="bold" lengthAdjust="spacing" textLength="87" x="88" y="477.9549">[tasks is empty]</text><polygon fill="#181818" points="86.5,503.608,76.5,507.608,86.5,511.608,82.5,507.608" style="stroke:#181818;stroke-width:1.0;"/><line style="stroke:#181818;stroke-width:1.0;stroke-dasharray:2.0,2.0;" x1="80.5" x2="317.5" y1="507.608" y2="507.608"/><text fill="#000000" font-family="sans-serif" font-size="13" font-weight="bold" lengthAdjust="spacing" textLength="14" x="92.5" y="501.799">11</text><text fill="#000000" font-family="sans-serif" font-size="13" lengthAdjust="spacing" textLength="201" x="110.5" y="501.799">inform no pending tasks available</text><line style="stroke:#000000;stroke-width:1.0;stroke-dasharray:2.0,2.0;" x1="10" x2="394" y1="516.608" y2="516.608"/><text fill="#000000" font-family="sans-serif" font-size="11" font-weight="bold" lengthAdjust="spacing" textLength="98" x="15" y="528.3669">[tasks not empty]</text><polygon fill="#181818" points="86.5,552.2959,76.5,556.2959,86.5,560.2959,82.5,556.2959" style="stroke:#181818;stroke-width:1.0;"/><line style="stroke:#181818;stroke-width:1.0;stroke-dasharray:2.0,2.0;" x1="80.5" x2="317.5" y1="556.2959" y2="556.2959"/><text fill="#000000" font-family="sans-serif" font-size="13" font-weight="bold" lengthAdjust="spacing" textLength="14" x="92.5" y="550.4869">12</text><text fill="#000000" font-family="sans-serif" font-size="13" lengthAdjust="spacing" textLength="166" x="110.5" y="550.4869">shows tasks &amp; requests one</text><polygon fill="#181818" points="306.5,591.002,316.5,595.002,306.5,599.002,310.5,595.002" style="stroke:#181818;stroke-width:1.0;"/><line style="stroke:#181818;stroke-width:1.0;" x1="75.5" x2="312.5" y1="595.002" y2="595.002"/><text fill="#000000" font-family="sans-serif" font-size="13" font-weight="bold" lengthAdjust="spacing" textLength="14" x="82.5" y="589.1929">13</text><text fill="#000000" font-family="sans-serif" font-size="13" lengthAdjust="spacing" textLength="174" x="100.5" y="589.1929">approves/rejects chosen task</text><path d="M253,610.002 L316,610.002 L316,619.708 L306,629.708 L253,629.708 L253,610.002 " fill="#EEEEEE" style="stroke:#000000;stroke-width:1.5;"/><rect fill="none" height="100.0999" style="stroke:#000000;stroke-width:1.5;" width="294" x="253" y="610.002"/><text fill="#000000" font-family="sans-serif" font-size="13" font-weight="bold" lengthAdjust="spacing" textLength="18" x="268" y="624.899">alt</text><text fill="#000000" font-family="sans-serif" font-size="11" font-weight="bold" lengthAdjust="spacing" textLength="86" x="331" y="623.7609">[approves task]</text><polygon fill="#181818" points="477.5,649.414,487.5,653.414,477.5,657.414,481.5,653.414" style="stroke:#181818;stroke-width:1.0;"/><line style="stroke:#181818;stroke-width:1.0;" x1="328.5" x2="483.5" y1="653.414" y2="653.414"/><text fill="#000000" font-family="sans-serif" font-size="13" font-weight="bold" lengthAdjust="spacing" textLength="14" x="335.5" y="647.605">14</text><text fill="#000000" font-family="sans-serif" font-size="13" lengthAdjust="spacing" textLength="124" x="353.5" y="647.605">approveTask(task.id)</text><line style="stroke:#000000;stroke-width:1.0;stroke-dasharray:2.0,2.0;" x1="253" x2="547" y1="662.414" y2="662.414"/><text fill="#000000" font-family="sans-serif" font-size="11" font-weight="bold" lengthAdjust="spacing" textLength="73" x="258" y="674.1729">[rejects task]</text><polygon fill="#181818" points="477.5,698.1019,487.5,702.1019,477.5,706.1019,481.5,702.1019" style="stroke:#181818;stroke-width:1.0;"/><line style="stroke:#181818;stroke-width:1.0;" x1="328.5" x2="483.5" y1="702.1019" y2="702.1019"/><text fill="#000000" font-family="sans-serif" font-size="13" font-weight="bold" lengthAdjust="spacing" textLength="14" x="335.5" y="696.2929">15</text><text fill="#000000" font-family="sans-serif" font-size="13" lengthAdjust="spacing" textLength="107" x="353.5" y="696.2929">rejectTask(task.id)</text><polygon fill="#181818" points="574.5,736.8079,584.5,740.8079,574.5,744.8079,578.5,740.8079" style="stroke:#181818;stroke-width:1.0;"/><line style="stroke:#181818;stroke-width:1.0;stroke-dasharray:2.0,2.0;" x1="499.5" x2="580.5" y1="740.8079" y2="740.8079"/><text fill="#000000" font-family="sans-serif" font-size="13" font-weight="bold" lengthAdjust="spacing" textLength="14" x="506.5" y="734.9989">16</text><text fill="#000000" font-family="sans-serif" font-size="13" lengthAdjust="spacing" textLength="45" x="524.5" y="734.9989">create()</text><rect fill="#E2E2F0" height="33.0679" rx="2.5" ry="2.5" style="stroke:#181818;stroke-width:0.5;" width="148" x="586.5" y="717.1019"/><text fill="#000000" font-family="sans-serif" font-size="14" lengthAdjust="spacing" textLength="134" x="593.5" y="739.0678">dto:UpdateTaskDTO</text><polygon fill="#181818" points="775.5,780.8758,785.5,784.8758,775.5,788.8758,779.5,784.8758" style="stroke:#181818;stroke-width:1.0;"/><line style="stroke:#181818;stroke-width:1.0;" x1="499.5" x2="781.5" y1="784.8758" y2="784.8758"/><text fill="#000000" font-family="sans-serif" font-size="13" font-weight="bold" lengthAdjust="spacing" textLength="14" x="506.5" y="779.0668">17</text><text fill="#000000" font-family="sans-serif" font-size="13" lengthAdjust="spacing" textLength="99" x="524.5" y="779.0668">updateTask(dto)</text><polygon fill="#181818" points="1057,812.5818,1067,816.5818,1057,820.5818,1061,816.5818" style="stroke:#181818;stroke-width:1.0;"/><line style="stroke:#181818;stroke-width:1.0;" x1="797.5" x2="1063" y1="816.5818" y2="816.5818"/><text fill="#000000" font-family="sans-serif" font-size="13" font-weight="bold" lengthAdjust="spacing" textLength="14" x="804.5" y="810.7728">18</text><text fill="#000000" font-family="sans-serif" font-size="13" lengthAdjust="spacing" textLength="191" x="822.5" y="810.7728">patch({baseURL}/task/{:id}, dto)</text><polygon fill="#181818" points="1251,844.2879,1261,848.2879,1251,852.2879,1255,848.2879" style="stroke:#181818;stroke-width:1.0;"/><line style="stroke:#181818;stroke-width:1.0;" x1="1079" x2="1257" y1="848.2879" y2="848.2879"/><text fill="#000000" font-family="sans-serif" font-size="13" font-weight="bold" lengthAdjust="spacing" textLength="14" x="1086" y="842.4789">19</text><text fill="#000000" font-family="sans-serif" font-size="13" lengthAdjust="spacing" textLength="103" x="1104" y="842.4789">PATCH /task/{:id}</text><polygon fill="#181818" points="1090,875.9939,1080,879.9939,1090,883.9939,1086,879.9939" style="stroke:#181818;stroke-width:1.0;"/><line style="stroke:#181818;stroke-width:1.0;stroke-dasharray:2.0,2.0;" x1="1084" x2="1262" y1="879.9939" y2="879.9939"/><text fill="#000000" font-family="sans-serif" font-size="13" font-weight="bold" lengthAdjust="spacing" textLength="14" x="1096" y="874.1849">20</text><text fill="#000000" font-family="sans-serif" font-size="13" lengthAdjust="spacing" textLength="78" x="1114" y="874.1849">updatedTask</text><polygon fill="#181818" points="808.5,907.6999,798.5,911.6999,808.5,915.6999,804.5,911.6999" style="stroke:#181818;stroke-width:1.0;"/><line style="stroke:#181818;stroke-width:1.0;stroke-dasharray:2.0,2.0;" x1="802.5" x2="1073" y1="911.6999" y2="911.6999"/><text fill="#000000" font-family="sans-serif" font-size="13" font-weight="bold" lengthAdjust="spacing" textLength="14" x="814.5" y="905.8909">21</text><text fill="#000000" font-family="sans-serif" font-size="13" lengthAdjust="spacing" textLength="78" x="832.5" y="905.8909">updatedTask</text><polygon fill="#181818" points="872.5,939.4059,882.5,943.4059,872.5,947.4059,876.5,943.4059" style="stroke:#181818;stroke-width:1.0;"/><line style="stroke:#181818;stroke-width:1.0;stroke-dasharray:2.0,2.0;" x1="797.5" x2="878.5" y1="943.4059" y2="943.4059"/><text fill="#000000" font-family="sans-serif" font-size="13" font-weight="bold" lengthAdjust="spacing" textLength="14" x="804.5" y="937.5969">22</text><text fill="#000000" font-family="sans-serif" font-size="13" lengthAdjust="spacing" textLength="45" x="822.5" y="937.5969">create()</text><rect fill="#E2E2F0" height="33.0679" rx="2.5" ry="2.5" style="stroke:#181818;stroke-width:0.5;" width="133" x="884.5" y="919.6999"/><text fill="#000000" font-family="sans-serif" font-size="14" lengthAdjust="spacing" textLength="119" x="891.5" y="941.6658">taskDTO:TaskDTO</text><polygon fill="#181818" points="510.5,983.4738,500.5,987.4738,510.5,991.4738,506.5,987.4738" style="stroke:#181818;stroke-width:1.0;"/><line style="stroke:#181818;stroke-width:1.0;stroke-dasharray:2.0,2.0;" x1="504.5" x2="791.5" y1="987.4738" y2="987.4738"/><text fill="#000000" font-family="sans-serif" font-size="13" font-weight="bold" lengthAdjust="spacing" textLength="14" x="516.5" y="981.6648">23</text><text fill="#000000" font-family="sans-serif" font-size="13" lengthAdjust="spacing" textLength="51" x="534.5" y="981.6648">taskDTO</text><polygon fill="#181818" points="339.5,1015.1798,329.5,1019.1798,339.5,1023.1798,335.5,1019.1798" style="stroke:#181818;stroke-width:1.0;"/><line style="stroke:#181818;stroke-width:1.0;stroke-dasharray:2.0,2.0;" x1="333.5" x2="493.5" y1="1019.1798" y2="1019.1798"/><text fill="#000000" font-family="sans-serif" font-size="13" font-weight="bold" lengthAdjust="spacing" textLength="14" x="345.5" y="1013.3708">24</text><text fill="#000000" font-family="sans-serif" font-size="13" lengthAdjust="spacing" textLength="51" x="363.5" y="1013.3708">taskDTO</text><polygon fill="#181818" points="81.5,1046.8859,71.5,1050.8859,81.5,1054.8859,77.5,1050.8859" style="stroke:#181818;stroke-width:1.0;"/><line style="stroke:#181818;stroke-width:1.0;stroke-dasharray:2.0,2.0;" x1="75.5" x2="322.5" y1="1050.8859" y2="1050.8859"/><text fill="#000000" font-family="sans-serif" font-size="13" font-weight="bold" lengthAdjust="spacing" textLength="14" x="87.5" y="1045.0769">25</text><text fill="#000000" font-family="sans-serif" font-size="13" lengthAdjust="spacing" textLength="120" x="105.5" y="1045.0769">shows updated task</text><!--SRC=[fLLTRzem57tFhxZYOQ9T6UzHnpJHQMngrMgaZzLa4W-y1JkpBq5JrV- -QyS9pWUbM_q0WfnpVB_E3TkXahljYkieOYag3QE4cLzmmoHRSpq2Pc1dw671D8fK54mYZ1R9pJMyXVboIPzVbmvL2hvle-AvagXLddkT57NU4SfGnVT5nf3RMw-Is-h2x_H_1nbRm9BhKgJSWKoPTY1OISIXL5zeaIHtSAL5wQFQ81QHIrwK58VB5kZGDqncBYs8OKzS0wY05OLM9GUgbEO_UOh0m5uSELAZuge1_ZWDqh8582svlfLVfC3nMODeUAv641p78IwbIzI2oqp8jStG4Bs5R3HiPQ1pB9rKRB8ai-OuVbmnm- -_NJzDRVWV31BrlTVlABVKNRrWu3ZjoUo1z3z_Ic10DZhEkvnC7ZhvFND9Km-rCZGIR9Npov0wwt4ptawW1yYLAk07TPM0cwgZG_UxEjBrD5VdvnH0gZbf1fsi3qKJHSVOVX2mbsOGffll_YGSHhBD3fYLpvh6vLX1GHZWsmB_j5IhsIHLE-yn24ars89KTIiybvLCvBRE3PddXlk7Kk5fPRDHU-C9RyWxltVSaAMK32IfPfrSd8y6_EXjQAQL2McvR9JXyj2u0OMw6ZMtt-MEKJtGZjJOOj-9x9HbNLNgc4xfLxXX-TxyDErtsx4zVCziZ5spNST4E_lVZL4mJ3UTdJ5zZ4NsT05EztKBu-vZCbz0e7fwLLI9PKcpUq-iYX3_pzlXgErVOd5w5xtAv27_gCq7tUPpFWnYrrd1R_UMZ_u2]--></g></svg>