<?xml version="1.0" encoding="us-ascii" standalone="no"?><svg xmlns="http://www.w3.org/2000/svg" xmlns:xlink="http://www.w3.org/1999/xlink" contentStyleType="text/css" height="432.6px" preserveAspectRatio="none" style="width:717px;height:432px;background:#FFFFFF;" version="1.1" viewBox="0 0 717 432" width="717.5px" zoomAndPan="magnify"><defs/><g><rect fill="#FFFFFF" height="302.6898" style="stroke:#181818;stroke-width:0.6999999999999998;" width="7" x="51.8" y="65.5348"/><rect fill="#FFFFFF" height="275.1861" style="stroke:#181818;stroke-width:0.6999999999999998;" width="7" x="207.2" y="81.8385"/><rect fill="#FFFFFF" height="231.3787" style="stroke:#181818;stroke-width:0.6999999999999998;" width="7" x="284.9" y="103.7422"/><rect fill="#FFFFFF" height="113.7186" style="stroke:#181818;stroke-width:0.6999999999999998;" width="7" x="368.2" y="125.6459"/><rect fill="#FFFFFF" height="69.9111" style="stroke:#181818;stroke-width:0.6999999999999998;" width="7" x="495.6" y="147.5496"/><rect fill="#FFFFFF" height="24.0037" style="stroke:#181818;stroke-width:0.6999999999999998;" width="7" x="583.1" y="171.5533"/><rect fill="none" height="112.7602" style="stroke:#000000;stroke-width:1.0499999999999998;" width="315" x="7" y="249.8645"/><line style="stroke:#181818;stroke-width:0.3499999999999999;stroke-dasharray:5.0,5.0;" x1="55.3" x2="55.3" y1="58.5348" y2="374.5246"/><line style="stroke:#181818;stroke-width:0.3499999999999999;stroke-dasharray:5.0,5.0;" x1="210.7" x2="210.7" y1="58.5348" y2="374.5246"/><line style="stroke:#181818;stroke-width:0.3499999999999999;stroke-dasharray:5.0,5.0;" x1="288.4" x2="288.4" y1="58.5348" y2="374.5246"/><line style="stroke:#181818;stroke-width:0.3499999999999999;stroke-dasharray:5.0,5.0;" x1="371.35" x2="371.35" y1="58.5348" y2="374.5246"/><line style="stroke:#181818;stroke-width:0.3499999999999999;stroke-dasharray:5.0,5.0;" x1="499.1" x2="499.1" y1="58.5348" y2="374.5246"/><line style="stroke:#181818;stroke-width:0.3499999999999999;stroke-dasharray:5.0,5.0;" x1="586.25" x2="586.25" y1="58.5348" y2="374.5246"/><text fill="#000000" font-family="sans-serif" font-size="9.8" lengthAdjust="spacing" textLength="78.4" x="14" y="56.0752">Campus Manager</text><ellipse cx="55.3" cy="9.45" fill="#E2E2F0" rx="5.6" ry="5.6" style="stroke:#181818;stroke-width:0.3499999999999999;"/><path d="M55.3,15.05 L55.3,33.95 M46.2,20.65 L64.4,20.65 M55.3,33.95 L46.2,44.45 M55.3,33.95 L64.4,44.45 " fill="none" style="stroke:#181818;stroke-width:0.3499999999999999;"/><text fill="#000000" font-family="sans-serif" font-size="9.8" lengthAdjust="spacing" textLength="78.4" x="14" y="384.3998">Campus Manager</text><ellipse cx="55.3" cy="392.8094" fill="#E2E2F0" rx="5.6" ry="5.6" style="stroke:#181818;stroke-width:0.3499999999999999;"/><path d="M55.3,398.4094 L55.3,417.3094 M46.2,404.0094 L64.4,404.0094 M55.3,417.3094 L46.2,427.8094 M55.3,417.3094 L64.4,427.8094 " fill="none" style="stroke:#181818;stroke-width:0.3499999999999999;"/><rect fill="#E2E2F0" height="22.8348" rx="1.75" ry="1.75" style="stroke:#181818;stroke-width:0.3499999999999999;" width="88.2" x="166.6" y="35"/><text fill="#000000" font-family="sans-serif" font-size="9.8" lengthAdjust="spacing" textLength="78.4" x="171.5" y="50.4752">HTML + CSS + JS</text><rect fill="#E2E2F0" height="22.8348" rx="1.75" ry="1.75" style="stroke:#181818;stroke-width:0.3499999999999999;" width="88.2" x="166.6" y="373.8246"/><text fill="#000000" font-family="sans-serif" font-size="9.8" lengthAdjust="spacing" textLength="78.4" x="171.5" y="389.2998">HTML + CSS + JS</text><rect fill="#E2E2F0" height="22.8348" rx="1.75" ry="1.75" style="stroke:#181818;stroke-width:0.3499999999999999;" width="53.2" x="261.8" y="35"/><text fill="#000000" font-family="sans-serif" font-size="9.8" lengthAdjust="spacing" textLength="43.4" x="266.7" y="50.4752">Controller</text><rect fill="#E2E2F0" height="22.8348" rx="1.75" ry="1.75" style="stroke:#181818;stroke-width:0.3499999999999999;" width="53.2" x="261.8" y="373.8246"/><text fill="#000000" font-family="sans-serif" font-size="9.8" lengthAdjust="spacing" textLength="43.4" x="266.7" y="389.2998">Controller</text><rect fill="#E2E2F0" height="22.8348" rx="1.75" ry="1.75" style="stroke:#181818;stroke-width:0.3499999999999999;" width="42.7" x="350.35" y="35"/><text fill="#000000" font-family="sans-serif" font-size="9.8" lengthAdjust="spacing" textLength="32.9" x="355.25" y="50.4752">Service</text><rect fill="#E2E2F0" height="22.8348" rx="1.75" ry="1.75" style="stroke:#181818;stroke-width:0.3499999999999999;" width="42.7" x="350.35" y="373.8246"/><text fill="#000000" font-family="sans-serif" font-size="9.8" lengthAdjust="spacing" textLength="32.9" x="355.25" y="389.2998">Service</text><rect fill="#E2E2F0" height="22.8348" rx="1.75" ry="1.75" style="stroke:#181818;stroke-width:0.3499999999999999;" width="64.4" x="466.9" y="35"/><text fill="#000000" font-family="sans-serif" font-size="9.8" lengthAdjust="spacing" textLength="54.6" x="471.8" y="50.4752">HTTP Driver</text><rect fill="#E2E2F0" height="22.8348" rx="1.75" ry="1.75" style="stroke:#181818;stroke-width:0.3499999999999999;" width="64.4" x="466.9" y="373.8246"/><text fill="#000000" font-family="sans-serif" font-size="9.8" lengthAdjust="spacing" textLength="54.6" x="471.8" y="389.2998">HTTP Driver</text><rect fill="#E2E2F0" height="22.8348" rx="1.75" ry="1.75" style="stroke:#181818;stroke-width:0.3499999999999999;" width="24.5" x="574.35" y="35"/><text fill="#000000" font-family="sans-serif" font-size="9.8" lengthAdjust="spacing" textLength="14.7" x="579.25" y="50.4752">MD</text><rect fill="#E2E2F0" height="22.8348" rx="1.75" ry="1.75" style="stroke:#181818;stroke-width:0.3499999999999999;" width="24.5" x="574.35" y="373.8246"/><text fill="#000000" font-family="sans-serif" font-size="9.8" lengthAdjust="spacing" textLength="14.7" x="579.25" y="389.2998">MD</text><rect fill="#FFFFFF" height="302.6898" style="stroke:#181818;stroke-width:0.6999999999999998;" width="7" x="51.8" y="65.5348"/><rect fill="#FFFFFF" height="275.1861" style="stroke:#181818;stroke-width:0.6999999999999998;" width="7" x="207.2" y="81.8385"/><rect fill="#FFFFFF" height="231.3787" style="stroke:#181818;stroke-width:0.6999999999999998;" width="7" x="284.9" y="103.7422"/><rect fill="#FFFFFF" height="113.7186" style="stroke:#181818;stroke-width:0.6999999999999998;" width="7" x="368.2" y="125.6459"/><rect fill="#FFFFFF" height="69.9111" style="stroke:#181818;stroke-width:0.6999999999999998;" width="7" x="495.6" y="147.5496"/><rect fill="#FFFFFF" height="24.0037" style="stroke:#181818;stroke-width:0.6999999999999998;" width="7" x="583.1" y="171.5533"/><polygon fill="#181818" points="198.8,79.0385,205.8,81.8385,198.8,84.6385,201.6,81.8385" style="stroke:#181818;stroke-width:0.6999999999999998;"/><line style="stroke:#181818;stroke-width:0.6999999999999998;" x1="58.8" x2="203" y1="81.8385" y2="81.8385"/><text fill="#000000" font-family="sans-serif" font-size="9.1" font-weight="bold" lengthAdjust="spacing" textLength="4.9" x="63.7" y="78.1546">1</text><text fill="#000000" font-family="sans-serif" font-size="9.1" lengthAdjust="spacing" textLength="87.5" x="71.4" y="78.1546">wants to list buildings</text><polygon fill="#181818" points="276.5,100.9422,283.5,103.7422,276.5,106.5422,279.3,103.7422" style="stroke:#181818;stroke-width:0.6999999999999998;"/><line style="stroke:#181818;stroke-width:0.6999999999999998;" x1="214.2" x2="280.7" y1="103.7422" y2="103.7422"/><text fill="#000000" font-family="sans-serif" font-size="9.1" font-weight="bold" lengthAdjust="spacing" textLength="4.9" x="219.1" y="100.0583">2</text><text fill="#000000" font-family="sans-serif" font-size="9.1" lengthAdjust="spacing" textLength="39.2" x="226.8" y="100.0583">ngOnInit()</text><polygon fill="#181818" points="359.8,122.8459,366.8,125.6459,359.8,128.4459,362.6,125.6459" style="stroke:#181818;stroke-width:0.6999999999999998;"/><line style="stroke:#181818;stroke-width:0.6999999999999998;" x1="291.9" x2="364" y1="125.6459" y2="125.6459"/><text fill="#000000" font-family="sans-serif" font-size="9.1" font-weight="bold" lengthAdjust="spacing" textLength="4.9" x="296.8" y="121.962">3</text><text fill="#000000" font-family="sans-serif" font-size="9.1" lengthAdjust="spacing" textLength="55.3" x="304.5" y="121.962">getBuildings()</text><polygon fill="#181818" points="487.2,144.7496,494.2,147.5496,487.2,150.3496,490,147.5496" style="stroke:#181818;stroke-width:0.6999999999999998;"/><line style="stroke:#181818;stroke-width:0.6999999999999998;" x1="375.2" x2="491.4" y1="147.5496" y2="147.5496"/><text fill="#000000" font-family="sans-serif" font-size="9.1" font-weight="bold" lengthAdjust="spacing" textLength="4.9" x="380.1" y="143.8657">4</text><text fill="#000000" font-family="sans-serif" font-size="9.1" lengthAdjust="spacing" textLength="99.4" x="387.8" y="143.8657">get({baseURL}/buildings)</text><polygon fill="#181818" points="574.7,168.7533,581.7,171.5533,574.7,174.3533,577.5,171.5533" style="stroke:#181818;stroke-width:0.6999999999999998;"/><line style="stroke:#181818;stroke-width:0.6999999999999998;" x1="502.6" x2="578.9" y1="171.5533" y2="171.5533"/><text fill="#000000" font-family="sans-serif" font-size="9.1" font-weight="bold" lengthAdjust="spacing" textLength="4.9" x="507.5" y="167.8694">5</text><text fill="#000000" font-family="sans-serif" font-size="9.1" lengthAdjust="spacing" textLength="59.5" x="515.2" y="167.8694">GET /buildings</text><path d="M593.6,156.6496 L593.6,175.5496 L712.6,175.5496 L712.6,163.6496 L705.6,156.6496 L593.6,156.6496 " fill="#FEFFDD" style="stroke:#181818;stroke-width:0.3499999999999999;"/><path d="M705.6,156.6496 L705.6,163.6496 L712.6,163.6496 L705.6,156.6496 " fill="#FEFFDD" style="stroke:#181818;stroke-width:0.3499999999999999;"/><text fill="#000000" font-family="sans-serif" font-size="9.1" lengthAdjust="spacing" textLength="104.3" x="597.8" y="169.9694">see us170 documentation</text><polygon fill="#181818" points="510.3,192.757,503.3,195.557,510.3,198.357,507.5,195.557" style="stroke:#181818;stroke-width:0.6999999999999998;"/><line style="stroke:#181818;stroke-width:0.6999999999999998;stroke-dasharray:2.0,2.0;" x1="506.1" x2="585.9" y1="195.557" y2="195.557"/><text fill="#000000" font-family="sans-serif" font-size="9.1" font-weight="bold" lengthAdjust="spacing" textLength="4.9" x="514.5" y="191.8731">6</text><text fill="#000000" font-family="sans-serif" font-size="9.1" lengthAdjust="spacing" textLength="14.7" x="522.2" y="191.8731">200</text><polygon fill="#181818" points="382.9,214.6607,375.9,217.4607,382.9,220.2607,380.1,217.4607" style="stroke:#181818;stroke-width:0.6999999999999998;"/><line style="stroke:#181818;stroke-width:0.6999999999999998;stroke-dasharray:2.0,2.0;" x1="378.7" x2="498.4" y1="217.4607" y2="217.4607"/><text fill="#000000" font-family="sans-serif" font-size="9.1" font-weight="bold" lengthAdjust="spacing" textLength="4.9" x="387.1" y="213.7769">7</text><text fill="#000000" font-family="sans-serif" font-size="9.1" lengthAdjust="spacing" textLength="42.7" x="394.8" y="213.7769">observable</text><polygon fill="#181818" points="299.6,236.5645,292.6,239.3645,299.6,242.1645,296.8,239.3645" style="stroke:#181818;stroke-width:0.6999999999999998;"/><line style="stroke:#181818;stroke-width:0.6999999999999998;stroke-dasharray:2.0,2.0;" x1="295.4" x2="371" y1="239.3645" y2="239.3645"/><text fill="#000000" font-family="sans-serif" font-size="9.1" font-weight="bold" lengthAdjust="spacing" textLength="4.9" x="303.8" y="235.6806">8</text><text fill="#000000" font-family="sans-serif" font-size="9.1" lengthAdjust="spacing" textLength="35.7" x="311.5" y="235.6806">buildings</text><path d="M7,249.8645 L49.7,249.8645 L49.7,256.3682 L42.7,263.3682 L7,263.3682 L7,249.8645 " fill="#EEEEEE" style="stroke:#000000;stroke-width:1.0499999999999998;"/><rect fill="none" height="112.7602" style="stroke:#000000;stroke-width:1.0499999999999998;" width="315" x="7" y="249.8645"/><text fill="#000000" font-family="sans-serif" font-size="9.1" font-weight="bold" lengthAdjust="spacing" textLength="11.2" x="17.5" y="260.3843">alt</text><text fill="#000000" font-family="sans-serif" font-size="7.7" font-weight="bold" lengthAdjust="spacing" textLength="67.9" x="60.2" y="259.5735">[buildings empty]</text><polygon fill="#181818" points="221.9,276.8719,214.9,279.6719,221.9,282.4719,219.1,279.6719" style="stroke:#181818;stroke-width:0.6999999999999998;"/><line style="stroke:#181818;stroke-width:0.6999999999999998;stroke-dasharray:2.0,2.0;" x1="217.7" x2="284.2" y1="279.6719" y2="279.6719"/><text fill="#000000" font-family="sans-serif" font-size="9.1" font-weight="bold" lengthAdjust="spacing" textLength="4.9" x="226.1" y="275.988">9</text><text fill="#000000" font-family="sans-serif" font-size="9.1" lengthAdjust="spacing" textLength="35.7" x="233.8" y="275.988">buildings</text><polygon fill="#181818" points="66.5,298.7756,59.5,301.5756,66.5,304.3756,63.7,301.5756" style="stroke:#181818;stroke-width:0.6999999999999998;"/><line style="stroke:#181818;stroke-width:0.6999999999999998;stroke-dasharray:2.0,2.0;" x1="62.3" x2="206.5" y1="301.5756" y2="301.5756"/><text fill="#000000" font-family="sans-serif" font-size="9.1" font-weight="bold" lengthAdjust="spacing" textLength="9.8" x="70.7" y="297.8917">10</text><text fill="#000000" font-family="sans-serif" font-size="9.1" lengthAdjust="spacing" textLength="119" x="83.3" y="297.8917">informs there are no buildings</text><line style="stroke:#000000;stroke-width:0.6999999999999998;stroke-dasharray:2.0,2.0;" x1="7" x2="322" y1="307.8756" y2="307.8756"/><text fill="#000000" font-family="sans-serif" font-size="7.7" font-weight="bold" lengthAdjust="spacing" textLength="71.4" x="10.5" y="316.1847">[building(s) found]</text><polygon fill="#181818" points="221.9,332.3209,214.9,335.1209,221.9,337.9209,219.1,335.1209" style="stroke:#181818;stroke-width:0.6999999999999998;"/><line style="stroke:#181818;stroke-width:0.6999999999999998;stroke-dasharray:2.0,2.0;" x1="217.7" x2="287.7" y1="335.1209" y2="335.1209"/><text fill="#000000" font-family="sans-serif" font-size="9.1" font-weight="bold" lengthAdjust="spacing" textLength="9.8" x="226.1" y="331.437">11</text><text fill="#000000" font-family="sans-serif" font-size="9.1" lengthAdjust="spacing" textLength="35.7" x="238.7" y="331.437">buildings</text><polygon fill="#181818" points="66.5,354.2246,59.5,357.0246,66.5,359.8246,63.7,357.0246" style="stroke:#181818;stroke-width:0.6999999999999998;"/><line style="stroke:#181818;stroke-width:0.6999999999999998;stroke-dasharray:2.0,2.0;" x1="62.3" x2="210" y1="357.0246" y2="357.0246"/><text fill="#000000" font-family="sans-serif" font-size="9.1" font-weight="bold" lengthAdjust="spacing" textLength="9.8" x="70.7" y="353.3407">12</text><text fill="#000000" font-family="sans-serif" font-size="9.1" lengthAdjust="spacing" textLength="64.4" x="83.3" y="353.3407">shows buildings</text><!--SRC=[bLDDJuD04BtpAoOzjJ6crOj93nviZHzfev7w0nQOmYQmItO76cFyxmvBfNnPuoHmODzxCs_s8GhIgiW2D9udGj869YkHvOM5hL0YHZC1OQ6mV9mBGpAKkL04ayVTTWCNiF9zVZ_x3bLAF7HHAwt8w3GzoeHaqYx0HrFA4DsfBSD1azqhh8qiZ_o4AEz1jcjtaaLkV5aAGZSjFt1vwqQ29HmOQu4qfD8I18LC8wbYwm5NGtFZmx4SaGMgaLb0nI_gIKcQpXf4mtEke5MEmrmsnDGOwUwdOOlUaQYiGwygDejKdckLwMSWBBw_RRxcZOFPWDPekcN1I3b5LiuYrdsuty6ykv1sASrAHiO9CTPYjTkhcmL4EYmoL2H8QZLkYM-aByODBq-EhXUB0IB2S_nwy6QnEh2S7X6aU4vdT0rkjwVR7VeNQIicW5bE7-UQZDrVdO9J1dzVSfqrHbQXNO9KUsqoZck21a7me_G86rEBpUUfdS5U5oho_Zz2oySWohtHRA8Fzc-Ppf-4Ale6]--></g></svg>