<?xml version="1.0" encoding="us-ascii" standalone="no"?><svg xmlns="http://www.w3.org/2000/svg" xmlns:xlink="http://www.w3.org/1999/xlink" contentStyleType="text/css" height="726px" preserveAspectRatio="none" style="width:891px;height:726px;background:#FFFFFF;" version="1.1" viewBox="0 0 891 726" width="891px" zoomAndPan="magnify"><defs/><g><rect fill="#FFFFFF" height="540.6172" style="stroke:#181818;stroke-width:1.0;" width="10" x="74" y="93.6211"/><rect fill="#FFFFFF" height="501.3262" style="stroke:#181818;stroke-width:1.0;" width="10" x="296" y="116.9121"/><rect fill="#FFFFFF" height="438.7441" style="stroke:#181818;stroke-width:1.0;" width="10" x="407" y="148.2031"/><rect fill="#FFFFFF" height="270.6582" style="stroke:#181818;stroke-width:1.0;" width="10" x="526" y="179.4941"/><rect fill="#FFFFFF" height="33.6211" style="stroke:#181818;stroke-width:1.0;" width="10" x="657" y="378.2402"/><rect fill="#FFFFFF" height="99.873" style="stroke:#181818;stroke-width:1.0;" width="10" x="760" y="210.7852"/><rect fill="none" height="94.2031" style="stroke:#000000;stroke-width:1.5;" width="253.5" x="465.5" y="325.6582"/><rect fill="none" height="161.0859" style="stroke:#000000;stroke-width:1.5;" width="450" x="10" y="465.1523"/><line style="stroke:#181818;stroke-width:0.5;stroke-dasharray:5.0,5.0;" x1="79" x2="79" y1="83.6211" y2="643.2383"/><line style="stroke:#181818;stroke-width:0.5;stroke-dasharray:5.0,5.0;" x1="301" x2="301" y1="83.6211" y2="643.2383"/><line style="stroke:#181818;stroke-width:0.5;stroke-dasharray:5.0,5.0;" x1="412" x2="412" y1="83.6211" y2="643.2383"/><line style="stroke:#181818;stroke-width:0.5;stroke-dasharray:5.0,5.0;" x1="530.5" x2="530.5" y1="83.6211" y2="643.2383"/><line style="stroke:#181818;stroke-width:0.5;stroke-dasharray:5.0,5.0;" x1="662" x2="662" y1="376.7598" y2="643.2383"/><line style="stroke:#181818;stroke-width:0.5;stroke-dasharray:5.0,5.0;" x1="765" x2="765" y1="83.6211" y2="643.2383"/><text fill="#000000" font-family="sans-serif" font-size="14" lengthAdjust="spacing" textLength="112" x="20" y="80.1074">Campus Manager</text><ellipse cx="79" cy="13.5" fill="#E2E2F0" rx="8" ry="8" style="stroke:#181818;stroke-width:0.5;"/><path d="M79,21.5 L79,48.5 M66,29.5 L92,29.5 M79,48.5 L66,63.5 M79,48.5 L92,63.5 " fill="none" style="stroke:#181818;stroke-width:0.5;"/><text fill="#000000" font-family="sans-serif" font-size="14" lengthAdjust="spacing" textLength="112" x="20" y="657.3457">Campus Manager</text><ellipse cx="79" cy="669.3594" fill="#E2E2F0" rx="8" ry="8" style="stroke:#181818;stroke-width:0.5;"/><path d="M79,677.3594 L79,704.3594 M66,685.3594 L92,685.3594 M79,704.3594 L66,719.3594 M79,704.3594 L92,719.3594 " fill="none" style="stroke:#181818;stroke-width:0.5;"/><rect fill="#E2E2F0" height="32.6211" rx="2.5" ry="2.5" style="stroke:#181818;stroke-width:0.5;" width="126" x="238" y="50"/><text fill="#000000" font-family="sans-serif" font-size="14" lengthAdjust="spacing" textLength="112" x="245" y="72.1074">HTML + CSS + JS</text><rect fill="#E2E2F0" height="32.6211" rx="2.5" ry="2.5" style="stroke:#181818;stroke-width:0.5;" width="126" x="238" y="642.2383"/><text fill="#000000" font-family="sans-serif" font-size="14" lengthAdjust="spacing" textLength="112" x="245" y="664.3457">HTML + CSS + JS</text><rect fill="#E2E2F0" height="32.6211" rx="2.5" ry="2.5" style="stroke:#181818;stroke-width:0.5;" width="76" x="374" y="50"/><text fill="#000000" font-family="sans-serif" font-size="14" lengthAdjust="spacing" textLength="62" x="381" y="72.1074">Controller</text><rect fill="#E2E2F0" height="32.6211" rx="2.5" ry="2.5" style="stroke:#181818;stroke-width:0.5;" width="76" x="374" y="642.2383"/><text fill="#000000" font-family="sans-serif" font-size="14" lengthAdjust="spacing" textLength="62" x="381" y="664.3457">Controller</text><rect fill="#E2E2F0" height="32.6211" rx="2.5" ry="2.5" style="stroke:#181818;stroke-width:0.5;" width="111" x="475.5" y="50"/><text fill="#000000" font-family="sans-serif" font-size="14" lengthAdjust="spacing" textLength="97" x="482.5" y="72.1074">BuildingService</text><rect fill="#E2E2F0" height="32.6211" rx="2.5" ry="2.5" style="stroke:#181818;stroke-width:0.5;" width="111" x="475.5" y="642.2383"/><text fill="#000000" font-family="sans-serif" font-size="14" lengthAdjust="spacing" textLength="97" x="482.5" y="664.3457">BuildingService</text><rect fill="#E2E2F0" height="32.6211" rx="2.5" ry="2.5" style="stroke:#181818;stroke-width:0.5;" width="94" x="615" y="642.2383"/><text fill="#000000" font-family="sans-serif" font-size="14" lengthAdjust="spacing" textLength="80" x="622" y="664.3457">BuildingDTO</text><rect fill="#E2E2F0" height="32.6211" rx="2.5" ry="2.5" style="stroke:#181818;stroke-width:0.5;" width="92" x="719" y="50"/><text fill="#000000" font-family="sans-serif" font-size="14" lengthAdjust="spacing" textLength="78" x="726" y="72.1074">HTTP Driver</text><rect fill="#E2E2F0" height="32.6211" rx="2.5" ry="2.5" style="stroke:#181818;stroke-width:0.5;" width="92" x="719" y="642.2383"/><text fill="#000000" font-family="sans-serif" font-size="14" lengthAdjust="spacing" textLength="78" x="726" y="664.3457">HTTP Driver</text><rect fill="#FFFFFF" height="540.6172" style="stroke:#181818;stroke-width:1.0;" width="10" x="74" y="93.6211"/><rect fill="#FFFFFF" height="501.3262" style="stroke:#181818;stroke-width:1.0;" width="10" x="296" y="116.9121"/><rect fill="#FFFFFF" height="438.7441" style="stroke:#181818;stroke-width:1.0;" width="10" x="407" y="148.2031"/><rect fill="#FFFFFF" height="270.6582" style="stroke:#181818;stroke-width:1.0;" width="10" x="526" y="179.4941"/><rect fill="#FFFFFF" height="33.6211" style="stroke:#181818;stroke-width:1.0;" width="10" x="657" y="378.2402"/><rect fill="#FFFFFF" height="99.873" style="stroke:#181818;stroke-width:1.0;" width="10" x="760" y="210.7852"/><polygon fill="#181818" points="284,112.9121,294,116.9121,284,120.9121,288,116.9121" style="stroke:#181818;stroke-width:1.0;"/><line style="stroke:#181818;stroke-width:1.0;" x1="84" x2="290" y1="116.9121" y2="116.9121"/><text fill="#000000" font-family="sans-serif" font-size="13" font-weight="bold" lengthAdjust="spacing" textLength="7" x="91" y="111.6494">1</text><text fill="#000000" font-family="sans-serif" font-size="13" lengthAdjust="spacing" textLength="125" x="102" y="111.6494">wants to list buildings</text><polygon fill="#181818" points="395,144.2031,405,148.2031,395,152.2031,399,148.2031" style="stroke:#181818;stroke-width:1.0;"/><line style="stroke:#181818;stroke-width:1.0;" x1="306" x2="401" y1="148.2031" y2="148.2031"/><text fill="#000000" font-family="sans-serif" font-size="13" font-weight="bold" lengthAdjust="spacing" textLength="7" x="313" y="142.9404">2</text><text fill="#000000" font-family="sans-serif" font-size="13" lengthAdjust="spacing" textLength="56" x="324" y="142.9404">ngOnInit()</text><polygon fill="#181818" points="514,175.4941,524,179.4941,514,183.4941,518,179.4941" style="stroke:#181818;stroke-width:1.0;"/><line style="stroke:#181818;stroke-width:1.0;" x1="417" x2="520" y1="179.4941" y2="179.4941"/><text fill="#000000" font-family="sans-serif" font-size="13" font-weight="bold" lengthAdjust="spacing" textLength="7" x="424" y="174.2314">3</text><text fill="#000000" font-family="sans-serif" font-size="13" lengthAdjust="spacing" textLength="79" x="435" y="174.2314">getBuildings()</text><polygon fill="#181818" points="748,206.7852,758,210.7852,748,214.7852,752,210.7852" style="stroke:#181818;stroke-width:1.0;"/><line style="stroke:#181818;stroke-width:1.0;" x1="536" x2="754" y1="210.7852" y2="210.7852"/><text fill="#000000" font-family="sans-serif" font-size="13" font-weight="bold" lengthAdjust="spacing" textLength="7" x="543" y="205.5225">4</text><text fill="#000000" font-family="sans-serif" font-size="13" lengthAdjust="spacing" textLength="142" x="554" y="205.5225">get({baseURL}/buildings)</text><line style="stroke:#181818;stroke-width:1.0;" x1="770" x2="884" y1="245.0762" y2="245.0762"/><text fill="#000000" font-family="sans-serif" font-size="13" font-weight="bold" lengthAdjust="spacing" textLength="7" x="777" y="239.8135">5</text><text fill="#000000" font-family="sans-serif" font-size="13" lengthAdjust="spacing" textLength="85" x="788" y="239.8135">GET /buildings</text><path d="M585,223.7852 L585,250.7852 L755,250.7852 L755,233.7852 L745,223.7852 L585,223.7852 " fill="#FEFFDD" style="stroke:#181818;stroke-width:0.5;"/><path d="M745,223.7852 L745,233.7852 L755,233.7852 L745,223.7852 " fill="#FEFFDD" style="stroke:#181818;stroke-width:0.5;"/><text fill="#000000" font-family="sans-serif" font-size="13" lengthAdjust="spacing" textLength="149" x="591" y="242.8135">see us170 documentation</text><polygon fill="#181818" points="781,275.3672,771,279.3672,781,283.3672,777,279.3672" style="stroke:#181818;stroke-width:1.0;"/><line style="stroke:#181818;stroke-width:1.0;" x1="775" x2="884" y1="279.3672" y2="279.3672"/><text fill="#000000" font-family="sans-serif" font-size="13" font-weight="bold" lengthAdjust="spacing" textLength="7" x="787" y="274.1045">6</text><text fill="#000000" font-family="sans-serif" font-size="13" lengthAdjust="spacing" textLength="21" x="798" y="274.1045">200</text><polygon fill="#181818" points="547,306.6582,537,310.6582,547,314.6582,543,310.6582" style="stroke:#181818;stroke-width:1.0;"/><line style="stroke:#181818;stroke-width:1.0;stroke-dasharray:2.0,2.0;" x1="541" x2="764" y1="310.6582" y2="310.6582"/><text fill="#000000" font-family="sans-serif" font-size="13" font-weight="bold" lengthAdjust="spacing" textLength="7" x="553" y="305.3955">7</text><text fill="#000000" font-family="sans-serif" font-size="13" lengthAdjust="spacing" textLength="61" x="564" y="305.3955">observable</text><path d="M465.5,325.6582 L538.5,325.6582 L538.5,334.9492 L528.5,344.9492 L465.5,344.9492 L465.5,325.6582 " fill="#EEEEEE" style="stroke:#000000;stroke-width:1.5;"/><rect fill="none" height="94.2031" style="stroke:#000000;stroke-width:1.5;" width="253.5" x="465.5" y="325.6582"/><text fill="#000000" font-family="sans-serif" font-size="13" font-weight="bold" lengthAdjust="spacing" textLength="28" x="480.5" y="340.6865">loop</text><text fill="#000000" font-family="sans-serif" font-size="11" font-weight="bold" lengthAdjust="spacing" textLength="100" x="553.5" y="339.5283">[for each building]</text><polygon fill="#181818" points="603,364.2402,613,368.2402,603,372.2402,607,368.2402" style="stroke:#181818;stroke-width:1.0;"/><line style="stroke:#181818;stroke-width:1.0;stroke-dasharray:2.0,2.0;" x1="536" x2="609" y1="368.2402" y2="368.2402"/><text fill="#000000" font-family="sans-serif" font-size="13" font-weight="bold" lengthAdjust="spacing" textLength="7" x="543" y="362.9775">8</text><text fill="#000000" font-family="sans-serif" font-size="13" lengthAdjust="spacing" textLength="44" x="554" y="362.9775">create()</text><rect fill="#E2E2F0" height="32.6211" rx="2.5" ry="2.5" style="stroke:#181818;stroke-width:0.5;" width="94" x="615" y="344.9492"/><text fill="#000000" font-family="sans-serif" font-size="14" lengthAdjust="spacing" textLength="80" x="622" y="367.0566">BuildingDTO</text><polygon fill="#181818" points="547,407.8613,537,411.8613,547,415.8613,543,411.8613" style="stroke:#181818;stroke-width:1.0;"/><line style="stroke:#181818;stroke-width:1.0;stroke-dasharray:2.0,2.0;" x1="541" x2="661" y1="411.8613" y2="411.8613"/><text fill="#000000" font-family="sans-serif" font-size="13" font-weight="bold" lengthAdjust="spacing" textLength="7" x="553" y="406.5986">9</text><text fill="#000000" font-family="sans-serif" font-size="13" lengthAdjust="spacing" textLength="18" x="564" y="406.5986">dto</text><polygon fill="#181818" points="428,446.1523,418,450.1523,428,454.1523,424,450.1523" style="stroke:#181818;stroke-width:1.0;"/><line style="stroke:#181818;stroke-width:1.0;stroke-dasharray:2.0,2.0;" x1="422" x2="530" y1="450.1523" y2="450.1523"/><text fill="#000000" font-family="sans-serif" font-size="13" font-weight="bold" lengthAdjust="spacing" textLength="14" x="434" y="444.8896">10</text><text fill="#000000" font-family="sans-serif" font-size="13" lengthAdjust="spacing" textLength="51" x="452" y="444.8896">buildings</text><path d="M10,465.1523 L71,465.1523 L71,474.4434 L61,484.4434 L10,484.4434 L10,465.1523 " fill="#EEEEEE" style="stroke:#000000;stroke-width:1.5;"/><rect fill="none" height="161.0859" style="stroke:#000000;stroke-width:1.5;" width="450" x="10" y="465.1523"/><text fill="#000000" font-family="sans-serif" font-size="13" font-weight="bold" lengthAdjust="spacing" textLength="16" x="25" y="480.1807">alt</text><text fill="#000000" font-family="sans-serif" font-size="11" font-weight="bold" lengthAdjust="spacing" textLength="97" x="86" y="479.0225">[buildings empty]</text><polygon fill="#181818" points="317,503.7344,307,507.7344,317,511.7344,313,507.7344" style="stroke:#181818;stroke-width:1.0;"/><line style="stroke:#181818;stroke-width:1.0;stroke-dasharray:2.0,2.0;" x1="311" x2="406" y1="507.7344" y2="507.7344"/><text fill="#000000" font-family="sans-serif" font-size="13" font-weight="bold" lengthAdjust="spacing" textLength="14" x="323" y="502.4717">11</text><text fill="#000000" font-family="sans-serif" font-size="13" lengthAdjust="spacing" textLength="51" x="341" y="502.4717">buildings</text><polygon fill="#181818" points="95,535.0254,85,539.0254,95,543.0254,91,539.0254" style="stroke:#181818;stroke-width:1.0;"/><line style="stroke:#181818;stroke-width:1.0;stroke-dasharray:2.0,2.0;" x1="89" x2="295" y1="539.0254" y2="539.0254"/><text fill="#000000" font-family="sans-serif" font-size="13" font-weight="bold" lengthAdjust="spacing" textLength="14" x="101" y="533.7627">12</text><text fill="#000000" font-family="sans-serif" font-size="13" lengthAdjust="spacing" textLength="170" x="119" y="533.7627">informs there are no buildings</text><line style="stroke:#000000;stroke-width:1.0;stroke-dasharray:2.0,2.0;" x1="10" x2="460" y1="548.0254" y2="548.0254"/><text fill="#000000" font-family="sans-serif" font-size="11" font-weight="bold" lengthAdjust="spacing" textLength="102" x="15" y="559.8955">[building(s) found]</text><polygon fill="#181818" points="317,582.9473,307,586.9473,317,590.9473,313,586.9473" style="stroke:#181818;stroke-width:1.0;"/><line style="stroke:#181818;stroke-width:1.0;stroke-dasharray:2.0,2.0;" x1="311" x2="411" y1="586.9473" y2="586.9473"/><text fill="#000000" font-family="sans-serif" font-size="13" font-weight="bold" lengthAdjust="spacing" textLength="14" x="323" y="581.6846">13</text><text fill="#000000" font-family="sans-serif" font-size="13" lengthAdjust="spacing" textLength="51" x="341" y="581.6846">buildings</text><polygon fill="#181818" points="95,614.2383,85,618.2383,95,622.2383,91,618.2383" style="stroke:#181818;stroke-width:1.0;"/><line style="stroke:#181818;stroke-width:1.0;stroke-dasharray:2.0,2.0;" x1="89" x2="300" y1="618.2383" y2="618.2383"/><text fill="#000000" font-family="sans-serif" font-size="13" font-weight="bold" lengthAdjust="spacing" textLength="14" x="101" y="612.9756">14</text><text fill="#000000" font-family="sans-serif" font-size="13" lengthAdjust="spacing" textLength="92" x="119" y="612.9756">shows buildings</text><!--SRC=[ZLDDJyCm3BtlLrWxRI34u8B4WGC3yQ5D83QEEwIjQIEbIPMudH3Yl-Dc9RHh1rXA3yrxptwEBKeokimZjAEHYCbO6Cz5NfGEbaAB5EqOX8FIyNKXBCbO5a8JZE_NomKSmtoruk_ZogCgYTikQcuqMQDK8nEJLLt0TIbL8dMwGbl963tALV4mw6Rzv049cLurwsUuiR9g4cL4XVSZAq7eo-S39rU-HhY4BTCSa04b7K7K970Zu0WqxmUQy4GMg3smW4wVz8EMD9a6HE1vcz0Aps4kEsDgYlJjoBNe7Ocw1x0NDPj5QcyxbSb791o-lYm-JuE3QOyMD7rJO22yuidLXbNlRjTmscr7ExHX7IlJZ1ZhiExisSKC4XENEMeI98tkaJO_HP_FPgFXxA4x9d8y2o9Is4Cc-BiNPKm1Rpp2ZCl2emxtaVFn61qTSSRO8ajEfeEz2HdheOC3mNSj1uUGhVA78AYJWwKsGzT_6A5QqmkO5_J-Mzk6ncetd3-hSVZrTol0o7gNBa5gxdNEMvIXHH1yj1bWet8OVa_Sb5-etBFwln9QFdeRjbUQoypM_ItJMN3k_nS0]--></g></svg>