<?xml version="1.0" encoding="us-ascii" standalone="no"?><svg xmlns="http://www.w3.org/2000/svg" xmlns:xlink="http://www.w3.org/1999/xlink" contentStyleType="text/css" height="827.4px" preserveAspectRatio="none" style="width:1345px;height:827px;background:#FFFFFF;" version="1.1" viewBox="0 0 1345 827" width="1345.8px" zoomAndPan="magnify"><defs/><g><!--cluster system--><g id="cluster_system"><path d="M5.1,3.6082 L35.1,3.6082 A2.25,2.25 0 0 1 36.6,5.1082 L40.8,18.3809 L1340.1,18.3809 A1.5,1.5 0 0 1 1341.6,19.8809 L1341.6,822.0082 A1.5,1.5 0 0 1 1340.1,823.5082 L5.1,823.5082 A1.5,1.5 0 0 1 3.6,822.0082 L3.6,5.1082 A1.5,1.5 0 0 1 5.1,3.6082 " fill="none" style="stroke:#000000;stroke-width:0.8999999999999999;"/><line style="stroke:#000000;stroke-width:0.8999999999999999;" x1="3.6" x2="40.8" y1="18.3809" y2="18.3809"/><text fill="#000000" font-family="sans-serif" font-size="8.4" font-weight="bold" lengthAdjust="spacing" textLength="29.4" x="6" y="13.8727">system</text></g><!--cluster Infrastructure--><g id="cluster_Infrastructure"><path d="M1008.3,30.6082 L1067.1,30.6082 A2.25,2.25 0 0 1 1068.6,32.1082 L1072.8,45.3809 L1289.1,45.3809 A1.5,1.5 0 0 1 1290.6,46.8809 L1290.6,131.1082 A1.5,1.5 0 0 1 1289.1,132.6082 L1008.3,132.6082 A1.5,1.5 0 0 1 1006.8,131.1082 L1006.8,32.1082 A1.5,1.5 0 0 1 1008.3,30.6082 " fill="none" style="stroke:#000000;stroke-width:0.8999999999999999;"/><line style="stroke:#000000;stroke-width:0.8999999999999999;" x1="1006.8" x2="1072.8" y1="45.3809" y2="45.3809"/><text fill="#000000" font-family="sans-serif" font-size="8.4" font-weight="bold" lengthAdjust="spacing" textLength="58.2" x="1009.2" y="40.8727">Infrastructure</text></g><!--cluster Routes--><g id="cluster_Routes"><path d="M1186.5,57.6082 L1217.1,57.6082 A2.25,2.25 0 0 1 1218.6,59.1082 L1222.8,72.3809 L1274.7,72.3809 A1.5,1.5 0 0 1 1276.2,73.8809 L1276.2,116.7082 A1.5,1.5 0 0 1 1274.7,118.2082 L1186.5,118.2082 A1.5,1.5 0 0 1 1185,116.7082 L1185,59.1082 A1.5,1.5 0 0 1 1186.5,57.6082 " fill="none" style="stroke:#000000;stroke-width:0.8999999999999999;"/><line style="stroke:#000000;stroke-width:0.8999999999999999;" x1="1185" x2="1222.8" y1="72.3809" y2="72.3809"/><text fill="#000000" font-family="sans-serif" font-size="8.4" font-weight="bold" lengthAdjust="spacing" textLength="30" x="1187.4" y="67.8727">Routes</text></g><!--cluster Persistence--><g id="cluster_Persistence"><path d="M1022.7,57.6082 L1073.7,57.6082 A2.25,2.25 0 0 1 1075.2,59.1082 L1079.4,72.3809 L1169.1,72.3809 A1.5,1.5 0 0 1 1170.6,73.8809 L1170.6,116.7082 A1.5,1.5 0 0 1 1169.1,118.2082 L1022.7,118.2082 A1.5,1.5 0 0 1 1021.2,116.7082 L1021.2,59.1082 A1.5,1.5 0 0 1 1022.7,57.6082 " fill="none" style="stroke:#000000;stroke-width:0.8999999999999999;"/><line style="stroke:#000000;stroke-width:0.8999999999999999;" x1="1021.2" x2="1079.4" y1="72.3809" y2="72.3809"/><text fill="#000000" font-family="sans-serif" font-size="8.4" font-weight="bold" lengthAdjust="spacing" textLength="50.4" x="1023.6" y="67.8727">Persistence</text></g><!--cluster Interface Adapters--><g id="cluster_Interface Adapters"><path d="M902.7,147.0082 L981.3,147.0082 A2.25,2.25 0 0 1 982.8,148.5082 L987,161.7809 L1325.7,161.7809 A1.5,1.5 0 0 1 1327.2,163.2809 L1327.2,417.9082 A1.5,1.5 0 0 1 1325.7,419.4082 L902.7,419.4082 A1.5,1.5 0 0 1 901.2,417.9082 L901.2,148.5082 A1.5,1.5 0 0 1 902.7,147.0082 " fill="none" style="stroke:#000000;stroke-width:0.8999999999999999;"/><line style="stroke:#000000;stroke-width:0.8999999999999999;" x1="901.2" x2="987" y1="161.7809" y2="161.7809"/><text fill="#000000" font-family="sans-serif" font-size="8.4" font-weight="bold" lengthAdjust="spacing" textLength="78" x="903.6" y="157.2727">Interface Adapters</text></g><!--cluster Controllers--><g id="cluster_Controllers"><path d="M1184.7,174.0082 L1232.7,174.0082 A2.25,2.25 0 0 1 1234.2,175.5082 L1238.4,188.7809 L1311.3,188.7809 A1.5,1.5 0 0 1 1312.8,190.2809 L1312.8,403.5082 A1.5,1.5 0 0 1 1311.3,405.0082 L1184.7,405.0082 A1.5,1.5 0 0 1 1183.2,403.5082 L1183.2,175.5082 A1.5,1.5 0 0 1 1184.7,174.0082 " fill="none" style="stroke:#000000;stroke-width:0.8999999999999999;"/><line style="stroke:#000000;stroke-width:0.8999999999999999;" x1="1183.2" x2="1238.4" y1="188.7809" y2="188.7809"/><text fill="#000000" font-family="sans-serif" font-size="8.4" font-weight="bold" lengthAdjust="spacing" textLength="47.4" x="1185.6" y="184.2727">Controllers</text></g><!--cluster IControllers--><g id="cluster_IControllers"><path d="M1199.1,201.0082 L1249.5,201.0082 A2.25,2.25 0 0 1 1251,202.5082 L1255.2,215.7809 L1296.9,215.7809 A1.5,1.5 0 0 1 1298.4,217.2809 L1298.4,260.1082 A1.5,1.5 0 0 1 1296.9,261.6082 L1199.1,261.6082 A1.5,1.5 0 0 1 1197.6,260.1082 L1197.6,202.5082 A1.5,1.5 0 0 1 1199.1,201.0082 " fill="none" style="stroke:#000000;stroke-width:0.8999999999999999;"/><line style="stroke:#000000;stroke-width:0.8999999999999999;" x1="1197.6" x2="1255.2" y1="215.7809" y2="215.7809"/><text fill="#000000" font-family="sans-serif" font-size="8.4" font-weight="bold" lengthAdjust="spacing" textLength="49.8" x="1200" y="211.2727">IControllers</text></g><!--cluster ImplControllers--><g id="cluster_ImplControllers"><path d="M1199.1,330.0082 L1264.5,330.0082 A2.25,2.25 0 0 1 1266,331.5082 L1270.2,344.7809 L1294.5,344.7809 A1.5,1.5 0 0 1 1296,346.2809 L1296,389.1082 A1.5,1.5 0 0 1 1294.5,390.6082 L1199.1,390.6082 A1.5,1.5 0 0 1 1197.6,389.1082 L1197.6,331.5082 A1.5,1.5 0 0 1 1199.1,330.0082 " fill="none" style="stroke:#000000;stroke-width:0.8999999999999999;"/><line style="stroke:#000000;stroke-width:0.8999999999999999;" x1="1197.6" x2="1270.2" y1="344.7809" y2="344.7809"/><text fill="#000000" font-family="sans-serif" font-size="8.4" font-weight="bold" lengthAdjust="spacing" textLength="64.8" x="1200" y="340.2727">ImplControllers</text></g><!--cluster Repositories--><g id="cluster_Repositories"><path d="M917.1,201.0082 L971.7,201.0082 A2.25,2.25 0 0 1 973.2,202.5082 L977.4,215.7809 L1167.3,215.7809 A1.5,1.5 0 0 1 1168.8,217.2809 L1168.8,260.1082 A1.5,1.5 0 0 1 1167.3,261.6082 L917.1,261.6082 A1.5,1.5 0 0 1 915.6,260.1082 L915.6,202.5082 A1.5,1.5 0 0 1 917.1,201.0082 " fill="none" style="stroke:#000000;stroke-width:0.8999999999999999;"/><line style="stroke:#000000;stroke-width:0.8999999999999999;" x1="915.6" x2="977.4" y1="215.7809" y2="215.7809"/><text fill="#000000" font-family="sans-serif" font-size="8.4" font-weight="bold" lengthAdjust="spacing" textLength="54" x="918" y="211.2727">Repositories</text></g><!--cluster Application Services--><g id="cluster_Application Services"><path d="M570.3,276.0082 L657.3,276.0082 A2.25,2.25 0 0 1 658.8,277.5082 L663,290.7809 L885.3,290.7809 A1.5,1.5 0 0 1 886.8,292.2809 L886.8,676.8082 A1.5,1.5 0 0 1 885.3,678.3082 L570.3,678.3082 A1.5,1.5 0 0 1 568.8,676.8082 L568.8,277.5082 A1.5,1.5 0 0 1 570.3,276.0082 " fill="none" style="stroke:#000000;stroke-width:0.8999999999999999;"/><line style="stroke:#000000;stroke-width:0.8999999999999999;" x1="568.8" x2="663" y1="290.7809" y2="290.7809"/><text fill="#000000" font-family="sans-serif" font-size="8.4" font-weight="bold" lengthAdjust="spacing" textLength="86.4" x="571.2" y="286.2727">Application Services</text></g><!--cluster App Services--><g id="cluster_App Services"><path d="M584.7,303.0082 L641.1,303.0082 A2.25,2.25 0 0 1 642.6,304.5082 L646.8,317.7809 L870.9,317.7809 A1.5,1.5 0 0 1 872.4,319.2809 L872.4,662.4082 A1.5,1.5 0 0 1 870.9,663.9082 L584.7,663.9082 A1.5,1.5 0 0 1 583.2,662.4082 L583.2,304.5082 A1.5,1.5 0 0 1 584.7,303.0082 " fill="none" style="stroke:#000000;stroke-width:0.8999999999999999;"/><line style="stroke:#000000;stroke-width:0.8999999999999999;" x1="583.2" x2="646.8" y1="317.7809" y2="317.7809"/><text fill="#000000" font-family="sans-serif" font-size="8.4" font-weight="bold" lengthAdjust="spacing" textLength="55.8" x="585.6" y="313.2727">App Services</text></g><!--cluster IAppServices--><g id="cluster_IAppServices"><path d="M730.5,588.9082 L786.9,588.9082 A2.25,2.25 0 0 1 788.4,590.4082 L792.6,603.6809 L833.1,603.6809 A1.5,1.5 0 0 1 834.6,605.1809 L834.6,648.0082 A1.5,1.5 0 0 1 833.1,649.5082 L730.5,649.5082 A1.5,1.5 0 0 1 729,648.0082 L729,590.4082 A1.5,1.5 0 0 1 730.5,588.9082 " fill="none" style="stroke:#000000;stroke-width:0.8999999999999999;"/><line style="stroke:#000000;stroke-width:0.8999999999999999;" x1="729" x2="792.6" y1="603.6809" y2="603.6809"/><text fill="#000000" font-family="sans-serif" font-size="8.4" font-weight="bold" lengthAdjust="spacing" textLength="55.8" x="731.4" y="599.1727">IAppServices</text></g><!--cluster ImplAppServices--><g id="cluster_ImplAppServices"><path d="M699.3,496.5082 L770.7,496.5082 A2.25,2.25 0 0 1 772.2,498.0082 L776.4,511.2809 L800.7,511.2809 A1.5,1.5 0 0 1 802.2,512.7809 L802.2,555.6082 A1.5,1.5 0 0 1 800.7,557.1082 L699.3,557.1082 A1.5,1.5 0 0 1 697.8,555.6082 L697.8,498.0082 A1.5,1.5 0 0 1 699.3,496.5082 " fill="none" style="stroke:#000000;stroke-width:0.8999999999999999;"/><line style="stroke:#000000;stroke-width:0.8999999999999999;" x1="697.8" x2="776.4" y1="511.2809" y2="511.2809"/><text fill="#000000" font-family="sans-serif" font-size="8.4" font-weight="bold" lengthAdjust="spacing" textLength="70.8" x="700.2" y="506.7727">ImplAppServices</text></g><!--cluster IRepositories--><g id="cluster_IRepositories"><path d="M599.1,330.0082 L656.1,330.0082 A2.25,2.25 0 0 1 657.6,331.5082 L661.8,344.7809 L856.5,344.7809 A1.5,1.5 0 0 1 858,346.2809 L858,389.1082 A1.5,1.5 0 0 1 856.5,390.6082 L599.1,390.6082 A1.5,1.5 0 0 1 597.6,389.1082 L597.6,331.5082 A1.5,1.5 0 0 1 599.1,330.0082 " fill="none" style="stroke:#000000;stroke-width:0.8999999999999999;"/><line style="stroke:#000000;stroke-width:0.8999999999999999;" x1="597.6" x2="661.8" y1="344.7809" y2="344.7809"/><text fill="#000000" font-family="sans-serif" font-size="8.4" font-weight="bold" lengthAdjust="spacing" textLength="56.4" x="600" y="340.2727">IRepositories</text></g><!--cluster Entities/Core/Domain--><g id="cluster_Entities/Core/Domain"><path d="M19.5,433.8082 L108.3,433.8082 A2.25,2.25 0 0 1 109.8,435.3082 L114,448.5809 L552.9,448.5809 A1.5,1.5 0 0 1 554.4,450.0809 L554.4,807.6082 A1.5,1.5 0 0 1 552.9,809.1082 L19.5,809.1082 A1.5,1.5 0 0 1 18,807.6082 L18,435.3082 A1.5,1.5 0 0 1 19.5,433.8082 " fill="none" style="stroke:#000000;stroke-width:0.8999999999999999;"/><line style="stroke:#000000;stroke-width:0.8999999999999999;" x1="18" x2="114" y1="448.5809" y2="448.5809"/><text fill="#000000" font-family="sans-serif" font-size="8.4" font-weight="bold" lengthAdjust="spacing" textLength="88.2" x="20.4" y="444.0727">Entities/Core/Domain</text></g><!--cluster Aggregates--><g id="cluster_Aggregates"><path d="M211.5,460.8082 L260.7,460.8082 A2.25,2.25 0 0 1 262.2,462.3082 L266.4,475.5809 L382.5,475.5809 A1.5,1.5 0 0 1 384,477.0809 L384,671.1082 A1.5,1.5 0 0 1 382.5,672.6082 L211.5,672.6082 A1.5,1.5 0 0 1 210,671.1082 L210,462.3082 A1.5,1.5 0 0 1 211.5,460.8082 " fill="none" style="stroke:#000000;stroke-width:0.8999999999999999;"/><line style="stroke:#000000;stroke-width:0.8999999999999999;" x1="210" x2="266.4" y1="475.5809" y2="475.5809"/><text fill="#000000" font-family="sans-serif" font-size="8.4" font-weight="bold" lengthAdjust="spacing" textLength="48.6" x="212.4" y="471.0727">Aggregates</text></g><!--cluster a_building--><g id="cluster_a_building"><path d="M225.9,580.2082 L261.3,580.2082 A2.25,2.25 0 0 1 262.8,581.7082 L267,594.9809 L291.3,594.9809 A1.5,1.5 0 0 1 292.8,596.4809 L292.8,656.7082 A1.5,1.5 0 0 1 291.3,658.2082 L225.9,658.2082 A1.5,1.5 0 0 1 224.4,656.7082 L224.4,581.7082 A1.5,1.5 0 0 1 225.9,580.2082 " fill="none" style="stroke:#000000;stroke-width:0.8999999999999999;"/><line style="stroke:#000000;stroke-width:0.8999999999999999;" x1="224.4" x2="267" y1="594.9809" y2="594.9809"/><text fill="#000000" font-family="sans-serif" font-size="8.4" font-weight="bold" lengthAdjust="spacing" textLength="34.8" x="226.8" y="590.4727">Building</text></g><!--cluster a_floor--><g id="cluster_a_floor"><path d="M308.7,487.8082 L331.5,487.8082 A2.25,2.25 0 0 1 333,489.3082 L337.2,502.5809 L368.1,502.5809 A1.5,1.5 0 0 1 369.6,504.0809 L369.6,564.3082 A1.5,1.5 0 0 1 368.1,565.8082 L308.7,565.8082 A1.5,1.5 0 0 1 307.2,564.3082 L307.2,489.3082 A1.5,1.5 0 0 1 308.7,487.8082 " fill="none" style="stroke:#000000;stroke-width:0.8999999999999999;"/><line style="stroke:#000000;stroke-width:0.8999999999999999;" x1="307.2" x2="337.2" y1="502.5809" y2="502.5809"/><text fill="#000000" font-family="sans-serif" font-size="8.4" font-weight="bold" lengthAdjust="spacing" textLength="22.2" x="309.6" y="498.0727">Floor</text></g><!--cluster a_room--><g id="cluster_a_room"><path d="M308.7,580.2082 L333.3,580.2082 A2.25,2.25 0 0 1 334.8,581.7082 L339,594.9809 L368.1,594.9809 A1.5,1.5 0 0 1 369.6,596.4809 L369.6,656.7082 A1.5,1.5 0 0 1 368.1,658.2082 L308.7,658.2082 A1.5,1.5 0 0 1 307.2,656.7082 L307.2,581.7082 A1.5,1.5 0 0 1 308.7,580.2082 " fill="none" style="stroke:#000000;stroke-width:0.8999999999999999;"/><line style="stroke:#000000;stroke-width:0.8999999999999999;" x1="307.2" x2="339" y1="594.9809" y2="594.9809"/><text fill="#000000" font-family="sans-serif" font-size="8.4" font-weight="bold" lengthAdjust="spacing" textLength="24" x="309.6" y="590.4727">Room</text></g><!--cluster Value Objects--><g id="cluster_Value Objects"><path d="M33.9,692.7082 L92.7,692.7082 A2.25,2.25 0 0 1 94.2,694.2082 L98.4,707.4809 L538.5,707.4809 A1.5,1.5 0 0 1 540,708.9809 L540,793.2082 A1.5,1.5 0 0 1 538.5,794.7082 L33.9,794.7082 A1.5,1.5 0 0 1 32.4,793.2082 L32.4,694.2082 A1.5,1.5 0 0 1 33.9,692.7082 " fill="none" style="stroke:#000000;stroke-width:0.8999999999999999;"/><line style="stroke:#000000;stroke-width:0.8999999999999999;" x1="32.4" x2="98.4" y1="707.4809" y2="707.4809"/><text fill="#000000" font-family="sans-serif" font-size="8.4" font-weight="bold" lengthAdjust="spacing" textLength="58.2" x="34.8" y="702.9727">Value Objects</text></g><!--cluster vo_room--><g id="cluster_vo_room"><path d="M48.3,719.7082 L72.9,719.7082 A2.25,2.25 0 0 1 74.4,721.2082 L78.6,734.4809 L524.1,734.4809 A1.5,1.5 0 0 1 525.6,735.9809 L525.6,778.8082 A1.5,1.5 0 0 1 524.1,780.3082 L48.3,780.3082 A1.5,1.5 0 0 1 46.8,778.8082 L46.8,721.2082 A1.5,1.5 0 0 1 48.3,719.7082 " fill="none" style="stroke:#000000;stroke-width:0.8999999999999999;"/><line style="stroke:#000000;stroke-width:0.8999999999999999;" x1="46.8" x2="78.6" y1="734.4809" y2="734.4809"/><text fill="#000000" font-family="sans-serif" font-size="8.4" font-weight="bold" lengthAdjust="spacing" textLength="24" x="49.2" y="729.9727">Room</text></g><!--cluster DTO--><g id="cluster_DTO"><path d="M1055.1,588.9082 L1073.1,588.9082 A2.25,2.25 0 0 1 1074.6,590.4082 L1078.8,603.6809 L1133.7,603.6809 A1.5,1.5 0 0 1 1135.2,605.1809 L1135.2,648.0082 A1.5,1.5 0 0 1 1133.7,649.5082 L1055.1,649.5082 A1.5,1.5 0 0 1 1053.6,648.0082 L1053.6,590.4082 A1.5,1.5 0 0 1 1055.1,588.9082 " fill="none" style="stroke:#000000;stroke-width:0.8999999999999999;"/><line style="stroke:#000000;stroke-width:0.8999999999999999;" x1="1053.6" x2="1078.8" y1="603.6809" y2="603.6809"/><text fill="#000000" font-family="sans-serif" font-size="8.4" font-weight="bold" lengthAdjust="spacing" textLength="17.4" x="1056" y="599.1727">DTO</text></g><!--class RouteBuilding--><g id="elem_RouteBuilding"><rect codeLine="16" fill="#F1F1F1" height="28.8" id="RouteBuilding" rx="1.5" ry="1.5" style="stroke:#181818;stroke-width:0.3;" width="72" x="1194.6" y="79.8082"/><ellipse cx="1203.6" cy="89.4082" fill="#ADD1B2" rx="6.6" ry="6.6" style="stroke:#181818;stroke-width:0.6;"/><path d="M1205.2594,86.9332 Q1205.3531,86.802 1205.4656,86.7363 Q1205.5781,86.6707 1205.7094,86.6707 Q1205.9344,86.6707 1206.075,86.8301 Q1206.2156,86.9801 1206.2156,87.3457 L1206.2156,88.2176 Q1206.2156,88.5832 1206.075,88.7426 Q1205.9344,88.902 1205.7094,88.902 Q1205.5031,88.902 1205.3813,88.7801 Q1205.2594,88.6676 1205.1938,88.3582 Q1205.1656,88.1426 1205.0531,88.0301 Q1204.8563,87.8051 1204.4906,87.6738 Q1204.125,87.5426 1203.75,87.5426 Q1203.2906,87.5426 1202.9063,87.7395 Q1202.5313,87.9363 1202.2313,88.3863 Q1201.9406,88.8363 1201.9406,89.4551 L1201.9406,90.1113 Q1201.9406,90.852 1202.475,91.3488 Q1203.0094,91.8363 1203.9656,91.8363 Q1204.5281,91.8363 1204.9219,91.6863 Q1205.1563,91.5926 1205.4094,91.3301 Q1205.5688,91.1707 1205.6531,91.1238 Q1205.7469,91.077 1205.8687,91.077 Q1206.0656,91.077 1206.2156,91.2363 Q1206.375,91.3863 1206.375,91.5926 Q1206.375,91.7988 1206.1688,92.0426 Q1205.8687,92.3895 1205.3906,92.5863 Q1204.7437,92.8582 1203.9656,92.8582 Q1203.0562,92.8582 1202.3344,92.4832 Q1201.7437,92.1832 1201.3313,91.5457 Q1200.9188,90.8988 1200.9188,90.1301 L1200.9188,89.4363 Q1200.9188,88.6395 1201.2844,87.9551 Q1201.6594,87.2613 1202.3156,86.8957 Q1202.9719,86.5207 1203.7125,86.5207 Q1204.1531,86.5207 1204.5375,86.6238 Q1204.9312,86.7176 1205.2594,86.9332 Z " fill="#000000"/><text fill="#000000" font-family="sans-serif" font-size="8.4" lengthAdjust="spacing" textLength="52.8" x="1212" y="92.8863">RouteBuilding</text><line style="stroke:#181818;stroke-width:0.3;" x1="1195.2" x2="1266" y1="99.0082" y2="99.0082"/><line style="stroke:#181818;stroke-width:0.3;" x1="1195.2" x2="1266" y1="103.8082" y2="103.8082"/></g><!--class IDBDriver--><g id="elem_IDBDriver"><rect codeLine="20" fill="#F1F1F1" height="28.8" id="IDBDriver" rx="1.5" ry="1.5" style="stroke:#181818;stroke-width:0.3;" width="55.2" x="1105.8" y="79.8082"/><ellipse cx="1114.8" cy="89.4082" fill="#B4A7E5" rx="6.6" ry="6.6" style="stroke:#181818;stroke-width:0.6;"/><path d="M1115.3719,87.3926 L1115.3719,91.3863 L1116.4031,91.3863 Q1116.7688,91.3863 1116.9281,91.527 Q1117.0875,91.6676 1117.0875,91.902 Q1117.0875,92.127 1116.9281,92.2676 Q1116.7688,92.4082 1116.4031,92.4082 L1113.3188,92.4082 Q1112.9531,92.4082 1112.7938,92.2676 Q1112.6344,92.127 1112.6344,91.8926 Q1112.6344,91.6676 1112.7938,91.527 Q1112.9531,91.3863 1113.3188,91.3863 L1114.35,91.3863 L1114.35,87.3926 L1113.3188,87.3926 Q1112.9531,87.3926 1112.7938,87.252 Q1112.6344,87.1113 1112.6344,86.877 Q1112.6344,86.652 1112.7938,86.5113 Q1112.9531,86.3707 1113.3188,86.3707 L1116.4031,86.3707 Q1116.7688,86.3707 1116.9281,86.5113 Q1117.0875,86.652 1117.0875,86.877 Q1117.0875,87.1113 1116.9281,87.252 Q1116.7688,87.3926 1116.4031,87.3926 L1115.3719,87.3926 Z " fill="#000000"/><text fill="#000000" font-family="sans-serif" font-size="8.4" font-style="italic" lengthAdjust="spacing" textLength="36" x="1123.2" y="92.8863">IDBDriver</text><line style="stroke:#181818;stroke-width:0.3;" x1="1106.4" x2="1160.4" y1="99.0082" y2="99.0082"/><line style="stroke:#181818;stroke-width:0.3;" x1="1106.4" x2="1160.4" y1="103.8082" y2="103.8082"/></g><!--class DBDriver--><g id="elem_DBDriver"><rect codeLine="21" fill="#F1F1F1" height="28.8" id="DBDriver" rx="1.5" ry="1.5" style="stroke:#181818;stroke-width:0.3;" width="53.4" x="1031.1" y="79.8082"/><ellipse cx="1040.1" cy="89.4082" fill="#ADD1B2" rx="6.6" ry="6.6" style="stroke:#181818;stroke-width:0.6;"/><path d="M1041.7594,86.9332 Q1041.8531,86.802 1041.9656,86.7363 Q1042.0781,86.6707 1042.2094,86.6707 Q1042.4344,86.6707 1042.575,86.8301 Q1042.7156,86.9801 1042.7156,87.3457 L1042.7156,88.2176 Q1042.7156,88.5832 1042.575,88.7426 Q1042.4344,88.902 1042.2094,88.902 Q1042.0031,88.902 1041.8813,88.7801 Q1041.7594,88.6676 1041.6938,88.3582 Q1041.6656,88.1426 1041.5531,88.0301 Q1041.3563,87.8051 1040.9906,87.6738 Q1040.625,87.5426 1040.25,87.5426 Q1039.7906,87.5426 1039.4063,87.7395 Q1039.0313,87.9363 1038.7313,88.3863 Q1038.4406,88.8363 1038.4406,89.4551 L1038.4406,90.1113 Q1038.4406,90.852 1038.975,91.3488 Q1039.5094,91.8363 1040.4656,91.8363 Q1041.0281,91.8363 1041.4219,91.6863 Q1041.6563,91.5926 1041.9094,91.3301 Q1042.0688,91.1707 1042.1531,91.1238 Q1042.2469,91.077 1042.3687,91.077 Q1042.5656,91.077 1042.7156,91.2363 Q1042.875,91.3863 1042.875,91.5926 Q1042.875,91.7988 1042.6688,92.0426 Q1042.3687,92.3895 1041.8906,92.5863 Q1041.2437,92.8582 1040.4656,92.8582 Q1039.5562,92.8582 1038.8344,92.4832 Q1038.2437,92.1832 1037.8313,91.5457 Q1037.4188,90.8988 1037.4188,90.1301 L1037.4188,89.4363 Q1037.4188,88.6395 1037.7844,87.9551 Q1038.1594,87.2613 1038.8156,86.8957 Q1039.4719,86.5207 1040.2125,86.5207 Q1040.6531,86.5207 1041.0375,86.6238 Q1041.4312,86.7176 1041.7594,86.9332 Z " fill="#000000"/><text fill="#000000" font-family="sans-serif" font-size="8.4" lengthAdjust="spacing" textLength="34.2" x="1048.5" y="92.8863">DBDriver</text><line style="stroke:#181818;stroke-width:0.3;" x1="1031.7" x2="1083.9" y1="99.0082" y2="99.0082"/><line style="stroke:#181818;stroke-width:0.3;" x1="1031.7" x2="1083.9" y1="103.8082" y2="103.8082"/></g><!--class IControllerRoom--><g id="elem_IControllerRoom"><rect codeLine="30" fill="#F1F1F1" height="28.8" id="IControllerRoom" rx="1.5" ry="1.5" style="stroke:#181818;stroke-width:0.3;" width="81" x="1207.5" y="223.2082"/><ellipse cx="1216.5" cy="232.8082" fill="#B4A7E5" rx="6.6" ry="6.6" style="stroke:#181818;stroke-width:0.6;"/><path d="M1217.0719,230.7926 L1217.0719,234.7863 L1218.1031,234.7863 Q1218.4688,234.7863 1218.6281,234.927 Q1218.7875,235.0676 1218.7875,235.302 Q1218.7875,235.527 1218.6281,235.6676 Q1218.4688,235.8082 1218.1031,235.8082 L1215.0188,235.8082 Q1214.6531,235.8082 1214.4937,235.6676 Q1214.3344,235.527 1214.3344,235.2926 Q1214.3344,235.0676 1214.4937,234.927 Q1214.6531,234.7863 1215.0188,234.7863 L1216.05,234.7863 L1216.05,230.7926 L1215.0188,230.7926 Q1214.6531,230.7926 1214.4937,230.652 Q1214.3344,230.5113 1214.3344,230.277 Q1214.3344,230.052 1214.4937,229.9113 Q1214.6531,229.7707 1215.0188,229.7707 L1218.1031,229.7707 Q1218.4688,229.7707 1218.6281,229.9113 Q1218.7875,230.052 1218.7875,230.277 Q1218.7875,230.5113 1218.6281,230.652 Q1218.4688,230.7926 1218.1031,230.7926 L1217.0719,230.7926 Z " fill="#000000"/><text fill="#000000" font-family="sans-serif" font-size="8.4" font-style="italic" lengthAdjust="spacing" textLength="61.8" x="1224.9" y="236.2863">IControllerRoom</text><line style="stroke:#181818;stroke-width:0.3;" x1="1208.1" x2="1287.9" y1="242.4082" y2="242.4082"/><line style="stroke:#181818;stroke-width:0.3;" x1="1208.1" x2="1287.9" y1="247.2082" y2="247.2082"/></g><!--class ControllerRoom--><g id="elem_ControllerRoom"><rect codeLine="34" fill="#F1F1F1" height="28.8" id="ControllerRoom" rx="1.5" ry="1.5" style="stroke:#181818;stroke-width:0.3;" width="78.6" x="1207.5" y="352.2082"/><ellipse cx="1216.5" cy="361.8082" fill="#ADD1B2" rx="6.6" ry="6.6" style="stroke:#181818;stroke-width:0.6;"/><path d="M1218.1594,359.3332 Q1218.2531,359.202 1218.3656,359.1363 Q1218.4781,359.0707 1218.6094,359.0707 Q1218.8344,359.0707 1218.975,359.2301 Q1219.1156,359.3801 1219.1156,359.7457 L1219.1156,360.6176 Q1219.1156,360.9832 1218.975,361.1426 Q1218.8344,361.302 1218.6094,361.302 Q1218.4031,361.302 1218.2813,361.1801 Q1218.1594,361.0676 1218.0938,360.7582 Q1218.0656,360.5426 1217.9531,360.4301 Q1217.7563,360.2051 1217.3906,360.0738 Q1217.025,359.9426 1216.65,359.9426 Q1216.1906,359.9426 1215.8062,360.1395 Q1215.4312,360.3363 1215.1313,360.7863 Q1214.8406,361.2363 1214.8406,361.8551 L1214.8406,362.5113 Q1214.8406,363.252 1215.375,363.7488 Q1215.9094,364.2363 1216.8656,364.2363 Q1217.4281,364.2363 1217.8219,364.0863 Q1218.0562,363.9926 1218.3094,363.7301 Q1218.4688,363.5707 1218.5531,363.5238 Q1218.6469,363.477 1218.7688,363.477 Q1218.9656,363.477 1219.1156,363.6363 Q1219.275,363.7863 1219.275,363.9926 Q1219.275,364.1988 1219.0688,364.4426 Q1218.7688,364.7895 1218.2906,364.9863 Q1217.6438,365.2582 1216.8656,365.2582 Q1215.9563,365.2582 1215.2344,364.8832 Q1214.6438,364.5832 1214.2313,363.9457 Q1213.8188,363.2988 1213.8188,362.5301 L1213.8188,361.8363 Q1213.8188,361.0395 1214.1844,360.3551 Q1214.5594,359.6613 1215.2156,359.2957 Q1215.8719,358.9207 1216.6125,358.9207 Q1217.0531,358.9207 1217.4375,359.0238 Q1217.8313,359.1176 1218.1594,359.3332 Z " fill="#000000"/><text fill="#000000" font-family="sans-serif" font-size="8.4" lengthAdjust="spacing" textLength="59.4" x="1224.9" y="365.2863">ControllerRoom</text><line style="stroke:#181818;stroke-width:0.3;" x1="1208.1" x2="1285.5" y1="371.4082" y2="371.4082"/><line style="stroke:#181818;stroke-width:0.3;" x1="1208.1" x2="1285.5" y1="376.2082" y2="376.2082"/></g><!--class RepoBuilding--><g id="elem_RepoBuilding"><rect codeLine="40" fill="#F1F1F1" height="28.8" id="RepoBuilding" rx="1.5" ry="1.5" style="stroke:#181818;stroke-width:0.3;" width="69.6" x="1006.2" y="223.2082"/><ellipse cx="1015.2" cy="232.8082" fill="#ADD1B2" rx="6.6" ry="6.6" style="stroke:#181818;stroke-width:0.6;"/><path d="M1016.8594,230.3332 Q1016.9531,230.202 1017.0656,230.1363 Q1017.1781,230.0707 1017.3094,230.0707 Q1017.5344,230.0707 1017.675,230.2301 Q1017.8156,230.3801 1017.8156,230.7457 L1017.8156,231.6176 Q1017.8156,231.9832 1017.675,232.1426 Q1017.5344,232.302 1017.3094,232.302 Q1017.1031,232.302 1016.9812,232.1801 Q1016.8594,232.0676 1016.7937,231.7582 Q1016.7656,231.5426 1016.6531,231.4301 Q1016.4563,231.2051 1016.0906,231.0738 Q1015.725,230.9426 1015.35,230.9426 Q1014.8906,230.9426 1014.5062,231.1395 Q1014.1312,231.3363 1013.8313,231.7863 Q1013.5406,232.2363 1013.5406,232.8551 L1013.5406,233.5113 Q1013.5406,234.252 1014.075,234.7488 Q1014.6094,235.2363 1015.5656,235.2363 Q1016.1281,235.2363 1016.5219,235.0863 Q1016.7562,234.9926 1017.0094,234.7301 Q1017.1687,234.5707 1017.2531,234.5238 Q1017.3469,234.477 1017.4688,234.477 Q1017.6656,234.477 1017.8156,234.6363 Q1017.975,234.7863 1017.975,234.9926 Q1017.975,235.1988 1017.7688,235.4426 Q1017.4688,235.7895 1016.9906,235.9863 Q1016.3438,236.2582 1015.5656,236.2582 Q1014.6563,236.2582 1013.9344,235.8832 Q1013.3438,235.5832 1012.9313,234.9457 Q1012.5188,234.2988 1012.5188,233.5301 L1012.5188,232.8363 Q1012.5188,232.0395 1012.8844,231.3551 Q1013.2594,230.6613 1013.9156,230.2957 Q1014.5719,229.9207 1015.3125,229.9207 Q1015.7531,229.9207 1016.1375,230.0238 Q1016.5313,230.1176 1016.8594,230.3332 Z " fill="#000000"/><text fill="#000000" font-family="sans-serif" font-size="8.4" lengthAdjust="spacing" textLength="50.4" x="1023.6" y="236.2863">RepoBuilding</text><line style="stroke:#181818;stroke-width:0.3;" x1="1006.8" x2="1075.2" y1="242.4082" y2="242.4082"/><line style="stroke:#181818;stroke-width:0.3;" x1="1006.8" x2="1075.2" y1="247.2082" y2="247.2082"/></g><!--class RepoFloor--><g id="elem_RepoFloor"><rect codeLine="41" fill="#F1F1F1" height="28.8" id="RepoFloor" rx="1.5" ry="1.5" style="stroke:#181818;stroke-width:0.3;" width="59.4" x="925.5" y="223.2082"/><ellipse cx="934.5" cy="232.8082" fill="#ADD1B2" rx="6.6" ry="6.6" style="stroke:#181818;stroke-width:0.6;"/><path d="M936.1594,230.3332 Q936.2531,230.202 936.3656,230.1363 Q936.4781,230.0707 936.6094,230.0707 Q936.8344,230.0707 936.975,230.2301 Q937.1156,230.3801 937.1156,230.7457 L937.1156,231.6176 Q937.1156,231.9832 936.975,232.1426 Q936.8344,232.302 936.6094,232.302 Q936.4031,232.302 936.2813,232.1801 Q936.1594,232.0676 936.0938,231.7582 Q936.0656,231.5426 935.9531,231.4301 Q935.7562,231.2051 935.3906,231.0738 Q935.025,230.9426 934.65,230.9426 Q934.1906,230.9426 933.8063,231.1395 Q933.4313,231.3363 933.1312,231.7863 Q932.8406,232.2363 932.8406,232.8551 L932.8406,233.5113 Q932.8406,234.252 933.375,234.7488 Q933.9094,235.2363 934.8656,235.2363 Q935.4281,235.2363 935.8219,235.0863 Q936.0563,234.9926 936.3094,234.7301 Q936.4688,234.5707 936.5531,234.5238 Q936.6469,234.477 936.7688,234.477 Q936.9656,234.477 937.1156,234.6363 Q937.275,234.7863 937.275,234.9926 Q937.275,235.1988 937.0687,235.4426 Q936.7688,235.7895 936.2906,235.9863 Q935.6438,236.2582 934.8656,236.2582 Q933.9563,236.2582 933.2344,235.8832 Q932.6438,235.5832 932.2312,234.9457 Q931.8187,234.2988 931.8187,233.5301 L931.8187,232.8363 Q931.8187,232.0395 932.1844,231.3551 Q932.5594,230.6613 933.2156,230.2957 Q933.8719,229.9207 934.6125,229.9207 Q935.0531,229.9207 935.4375,230.0238 Q935.8313,230.1176 936.1594,230.3332 Z " fill="#000000"/><text fill="#000000" font-family="sans-serif" font-size="8.4" lengthAdjust="spacing" textLength="40.2" x="942.9" y="236.2863">RepoFloor</text><line style="stroke:#181818;stroke-width:0.3;" x1="926.1" x2="984.3" y1="242.4082" y2="242.4082"/><line style="stroke:#181818;stroke-width:0.3;" x1="926.1" x2="984.3" y1="247.2082" y2="247.2082"/></g><!--class RepoRoom--><g id="elem_RepoRoom"><rect codeLine="42" fill="#F1F1F1" height="28.8" id="RepoRoom" rx="1.5" ry="1.5" style="stroke:#181818;stroke-width:0.3;" width="61.8" x="1097.1" y="223.2082"/><ellipse cx="1106.1" cy="232.8082" fill="#ADD1B2" rx="6.6" ry="6.6" style="stroke:#181818;stroke-width:0.6;"/><path d="M1107.7594,230.3332 Q1107.8531,230.202 1107.9656,230.1363 Q1108.0781,230.0707 1108.2094,230.0707 Q1108.4344,230.0707 1108.575,230.2301 Q1108.7156,230.3801 1108.7156,230.7457 L1108.7156,231.6176 Q1108.7156,231.9832 1108.575,232.1426 Q1108.4344,232.302 1108.2094,232.302 Q1108.0031,232.302 1107.8813,232.1801 Q1107.7594,232.0676 1107.6938,231.7582 Q1107.6656,231.5426 1107.5531,231.4301 Q1107.3563,231.2051 1106.9906,231.0738 Q1106.625,230.9426 1106.25,230.9426 Q1105.7906,230.9426 1105.4063,231.1395 Q1105.0313,231.3363 1104.7313,231.7863 Q1104.4406,232.2363 1104.4406,232.8551 L1104.4406,233.5113 Q1104.4406,234.252 1104.975,234.7488 Q1105.5094,235.2363 1106.4656,235.2363 Q1107.0281,235.2363 1107.4219,235.0863 Q1107.6563,234.9926 1107.9094,234.7301 Q1108.0688,234.5707 1108.1531,234.5238 Q1108.2469,234.477 1108.3687,234.477 Q1108.5656,234.477 1108.7156,234.6363 Q1108.875,234.7863 1108.875,234.9926 Q1108.875,235.1988 1108.6688,235.4426 Q1108.3687,235.7895 1107.8906,235.9863 Q1107.2437,236.2582 1106.4656,236.2582 Q1105.5562,236.2582 1104.8344,235.8832 Q1104.2437,235.5832 1103.8313,234.9457 Q1103.4188,234.2988 1103.4188,233.5301 L1103.4188,232.8363 Q1103.4188,232.0395 1103.7844,231.3551 Q1104.1594,230.6613 1104.8156,230.2957 Q1105.4719,229.9207 1106.2125,229.9207 Q1106.6531,229.9207 1107.0375,230.0238 Q1107.4312,230.1176 1107.7594,230.3332 Z " fill="#000000"/><text fill="#000000" font-family="sans-serif" font-size="8.4" lengthAdjust="spacing" textLength="42.6" x="1114.5" y="236.2863">RepoRoom</text><line style="stroke:#181818;stroke-width:0.3;" x1="1097.7" x2="1158.3" y1="242.4082" y2="242.4082"/><line style="stroke:#181818;stroke-width:0.3;" x1="1097.7" x2="1158.3" y1="247.2082" y2="247.2082"/></g><!--class IAppServiceRoom--><g id="elem_IAppServiceRoom"><rect codeLine="57" fill="#F1F1F1" height="28.8" id="IAppServiceRoom" rx="1.5" ry="1.5" style="stroke:#181818;stroke-width:0.3;" width="86.4" x="738.6" y="611.1082"/><ellipse cx="747.6" cy="620.7082" fill="#B4A7E5" rx="6.6" ry="6.6" style="stroke:#181818;stroke-width:0.6;"/><path d="M748.1719,618.6926 L748.1719,622.6863 L749.2031,622.6863 Q749.5688,622.6863 749.7281,622.827 Q749.8875,622.9676 749.8875,623.202 Q749.8875,623.427 749.7281,623.5676 Q749.5688,623.7082 749.2031,623.7082 L746.1188,623.7082 Q745.7531,623.7082 745.5938,623.5676 Q745.4344,623.427 745.4344,623.1926 Q745.4344,622.9676 745.5938,622.827 Q745.7531,622.6863 746.1188,622.6863 L747.15,622.6863 L747.15,618.6926 L746.1188,618.6926 Q745.7531,618.6926 745.5938,618.552 Q745.4344,618.4113 745.4344,618.177 Q745.4344,617.952 745.5938,617.8113 Q745.7531,617.6707 746.1188,617.6707 L749.2031,617.6707 Q749.5688,617.6707 749.7281,617.8113 Q749.8875,617.952 749.8875,618.177 Q749.8875,618.4113 749.7281,618.552 Q749.5688,618.6926 749.2031,618.6926 L748.1719,618.6926 Z " fill="#000000"/><text fill="#000000" font-family="sans-serif" font-size="8.4" font-style="italic" lengthAdjust="spacing" textLength="67.2" x="756" y="624.1863">IAppServiceRoom</text><line style="stroke:#181818;stroke-width:0.3;" x1="739.2" x2="824.4" y1="630.3082" y2="630.3082"/><line style="stroke:#181818;stroke-width:0.3;" x1="739.2" x2="824.4" y1="635.1082" y2="635.1082"/></g><!--class AppServiceRoom--><g id="elem_AppServiceRoom"><rect codeLine="61" fill="#F1F1F1" height="28.8" id="AppServiceRoom" rx="1.5" ry="1.5" style="stroke:#181818;stroke-width:0.3;" width="84.6" x="707.7" y="518.7082"/><ellipse cx="716.7" cy="528.3082" fill="#ADD1B2" rx="6.6" ry="6.6" style="stroke:#181818;stroke-width:0.6;"/><path d="M718.3594,525.8332 Q718.4531,525.702 718.5656,525.6363 Q718.6781,525.5707 718.8094,525.5707 Q719.0344,525.5707 719.175,525.7301 Q719.3156,525.8801 719.3156,526.2457 L719.3156,527.1176 Q719.3156,527.4832 719.175,527.6426 Q719.0344,527.802 718.8094,527.802 Q718.6031,527.802 718.4812,527.6801 Q718.3594,527.5676 718.2937,527.2582 Q718.2656,527.0426 718.1531,526.9301 Q717.9563,526.7051 717.5906,526.5738 Q717.225,526.4426 716.85,526.4426 Q716.3906,526.4426 716.0063,526.6395 Q715.6313,526.8363 715.3313,527.2863 Q715.0406,527.7363 715.0406,528.3551 L715.0406,529.0113 Q715.0406,529.752 715.575,530.2488 Q716.1094,530.7363 717.0656,530.7363 Q717.6281,530.7363 718.0219,530.5863 Q718.2563,530.4926 718.5094,530.2301 Q718.6687,530.0707 718.7531,530.0238 Q718.8469,529.977 718.9688,529.977 Q719.1656,529.977 719.3156,530.1363 Q719.475,530.2863 719.475,530.4926 Q719.475,530.6988 719.2688,530.9426 Q718.9688,531.2895 718.4906,531.4863 Q717.8438,531.7582 717.0656,531.7582 Q716.1563,531.7582 715.4344,531.3832 Q714.8438,531.0832 714.4313,530.4457 Q714.0188,529.7988 714.0188,529.0301 L714.0188,528.3363 Q714.0188,527.5395 714.3844,526.8551 Q714.7594,526.1613 715.4156,525.7957 Q716.0719,525.4207 716.8125,525.4207 Q717.2531,525.4207 717.6375,525.5238 Q718.0313,525.6176 718.3594,525.8332 Z " fill="#000000"/><text fill="#000000" font-family="sans-serif" font-size="8.4" lengthAdjust="spacing" textLength="65.4" x="725.1" y="531.7863">AppServiceRoom</text><line style="stroke:#181818;stroke-width:0.3;" x1="708.3" x2="791.7" y1="537.9082" y2="537.9082"/><line style="stroke:#181818;stroke-width:0.3;" x1="708.3" x2="791.7" y1="542.7082" y2="542.7082"/></g><!--class IRepoBuilding--><g id="elem_IRepoBuilding"><rect codeLine="67" fill="#F1F1F1" height="28.8" id="IRepoBuilding" rx="1.5" ry="1.5" style="stroke:#181818;stroke-width:0.3;" width="72" x="690.6" y="352.2082"/><ellipse cx="699.6" cy="361.8082" fill="#B4A7E5" rx="6.6" ry="6.6" style="stroke:#181818;stroke-width:0.6;"/><path d="M700.1719,359.7926 L700.1719,363.7863 L701.2031,363.7863 Q701.5688,363.7863 701.7281,363.927 Q701.8875,364.0676 701.8875,364.302 Q701.8875,364.527 701.7281,364.6676 Q701.5688,364.8082 701.2031,364.8082 L698.1188,364.8082 Q697.7531,364.8082 697.5938,364.6676 Q697.4344,364.527 697.4344,364.2926 Q697.4344,364.0676 697.5938,363.927 Q697.7531,363.7863 698.1188,363.7863 L699.15,363.7863 L699.15,359.7926 L698.1188,359.7926 Q697.7531,359.7926 697.5938,359.652 Q697.4344,359.5113 697.4344,359.277 Q697.4344,359.052 697.5938,358.9113 Q697.7531,358.7707 698.1188,358.7707 L701.2031,358.7707 Q701.5688,358.7707 701.7281,358.9113 Q701.8875,359.052 701.8875,359.277 Q701.8875,359.5113 701.7281,359.652 Q701.5688,359.7926 701.2031,359.7926 L700.1719,359.7926 Z " fill="#000000"/><text fill="#000000" font-family="sans-serif" font-size="8.4" font-style="italic" lengthAdjust="spacing" textLength="52.8" x="708" y="365.2863">IRepoBuilding</text><line style="stroke:#181818;stroke-width:0.3;" x1="691.2" x2="762" y1="371.4082" y2="371.4082"/><line style="stroke:#181818;stroke-width:0.3;" x1="691.2" x2="762" y1="376.2082" y2="376.2082"/></g><!--class IRepoFloor--><g id="elem_IRepoFloor"><rect codeLine="68" fill="#F1F1F1" height="28.8" id="IRepoFloor" rx="1.5" ry="1.5" style="stroke:#181818;stroke-width:0.3;" width="61.8" x="607.5" y="352.2082"/><ellipse cx="616.5" cy="361.8082" fill="#B4A7E5" rx="6.6" ry="6.6" style="stroke:#181818;stroke-width:0.6;"/><path d="M617.0719,359.7926 L617.0719,363.7863 L618.1031,363.7863 Q618.4688,363.7863 618.6281,363.927 Q618.7875,364.0676 618.7875,364.302 Q618.7875,364.527 618.6281,364.6676 Q618.4688,364.8082 618.1031,364.8082 L615.0188,364.8082 Q614.6531,364.8082 614.4938,364.6676 Q614.3344,364.527 614.3344,364.2926 Q614.3344,364.0676 614.4938,363.927 Q614.6531,363.7863 615.0188,363.7863 L616.05,363.7863 L616.05,359.7926 L615.0188,359.7926 Q614.6531,359.7926 614.4938,359.652 Q614.3344,359.5113 614.3344,359.277 Q614.3344,359.052 614.4938,358.9113 Q614.6531,358.7707 615.0188,358.7707 L618.1031,358.7707 Q618.4688,358.7707 618.6281,358.9113 Q618.7875,359.052 618.7875,359.277 Q618.7875,359.5113 618.6281,359.652 Q618.4688,359.7926 618.1031,359.7926 L617.0719,359.7926 Z " fill="#000000"/><text fill="#000000" font-family="sans-serif" font-size="8.4" font-style="italic" lengthAdjust="spacing" textLength="42.6" x="624.9" y="365.2863">IRepoFloor</text><line style="stroke:#181818;stroke-width:0.3;" x1="608.1" x2="668.7" y1="371.4082" y2="371.4082"/><line style="stroke:#181818;stroke-width:0.3;" x1="608.1" x2="668.7" y1="376.2082" y2="376.2082"/></g><!--class IRepoRoom--><g id="elem_IRepoRoom"><rect codeLine="69" fill="#F1F1F1" height="28.8" id="IRepoRoom" rx="1.5" ry="1.5" style="stroke:#181818;stroke-width:0.3;" width="64.2" x="783.9" y="352.2082"/><ellipse cx="792.9" cy="361.8082" fill="#B4A7E5" rx="6.6" ry="6.6" style="stroke:#181818;stroke-width:0.6;"/><path d="M793.4719,359.7926 L793.4719,363.7863 L794.5031,363.7863 Q794.8688,363.7863 795.0281,363.927 Q795.1875,364.0676 795.1875,364.302 Q795.1875,364.527 795.0281,364.6676 Q794.8688,364.8082 794.5031,364.8082 L791.4187,364.8082 Q791.0531,364.8082 790.8938,364.6676 Q790.7344,364.527 790.7344,364.2926 Q790.7344,364.0676 790.8938,363.927 Q791.0531,363.7863 791.4187,363.7863 L792.45,363.7863 L792.45,359.7926 L791.4187,359.7926 Q791.0531,359.7926 790.8938,359.652 Q790.7344,359.5113 790.7344,359.277 Q790.7344,359.052 790.8938,358.9113 Q791.0531,358.7707 791.4187,358.7707 L794.5031,358.7707 Q794.8688,358.7707 795.0281,358.9113 Q795.1875,359.052 795.1875,359.277 Q795.1875,359.5113 795.0281,359.652 Q794.8688,359.7926 794.5031,359.7926 L793.4719,359.7926 Z " fill="#000000"/><text fill="#000000" font-family="sans-serif" font-size="8.4" font-style="italic" lengthAdjust="spacing" textLength="45" x="801.3" y="365.2863">IRepoRoom</text><line style="stroke:#181818;stroke-width:0.3;" x1="784.5" x2="847.5" y1="371.4082" y2="371.4082"/><line style="stroke:#181818;stroke-width:0.3;" x1="784.5" x2="847.5" y1="376.2082" y2="376.2082"/></g><!--class Building--><g id="elem_Building"><rect codeLine="91" fill="#F1F1F1" height="45.9258" id="Building" rx="1.5" ry="1.5" style="stroke:#181818;stroke-width:0.3;" width="49.2" x="234" y="602.4082"/><ellipse cx="243" cy="620.5711" fill="#ADD1B2" rx="6.6" ry="6.6" style="stroke:#181818;stroke-width:0.6;"/><path d="M242.3156,621.0492 L242.3156,622.5492 L244.9125,622.5492 L244.9125,621.9961 Q244.9125,621.6305 245.0531,621.4711 Q245.2031,621.3117 245.4281,621.3117 Q245.6531,621.3117 245.7938,621.4711 Q245.9344,621.6305 245.9344,621.9961 L245.9344,623.5711 L241.1344,623.5711 Q240.7594,623.5711 240.6,623.4305 Q240.45,623.2898 240.45,623.0555 Q240.45,622.8305 240.6094,622.6898 Q240.7687,622.5492 241.1344,622.5492 L241.2938,622.5492 L241.2938,618.5555 L241.1344,618.5555 Q240.7594,618.5555 240.6,618.4148 Q240.45,618.2742 240.45,618.0398 Q240.45,617.8148 240.6,617.6742 Q240.7594,617.5336 241.1344,617.5336 L245.7094,617.5336 L245.7094,619.0898 Q245.7094,619.4555 245.5688,619.6148 Q245.4375,619.7648 245.2031,619.7648 Q244.9781,619.7648 244.8375,619.6148 Q244.6969,619.4555 244.6969,619.0898 L244.6969,618.5555 L242.3156,618.5555 L242.3156,620.0273 L243.2062,620.0273 Q243.2062,619.6336 243.2813,619.5211 Q243.4406,619.2773 243.7219,619.2773 Q243.9469,619.2773 244.0875,619.4367 Q244.2281,619.5867 244.2281,619.9523 L244.2281,621.1336 Q244.2281,621.4617 244.1531,621.5742 Q243.9937,621.8086 243.7219,621.8086 Q243.4406,621.8086 243.2813,621.5648 Q243.2062,621.4523 243.2062,621.0492 L242.3156,621.0492 Z " fill="#000000"/><text fill="#000000" font-family="sans-serif" font-size="7.2" font-style="italic" lengthAdjust="spacing" textLength="21" x="255.9" y="613.1777">&#171;root&#187;</text><text fill="#000000" font-family="sans-serif" font-size="7.2" font-style="italic" lengthAdjust="spacing" textLength="25.8" x="253.5" y="622.7543">&#171;entity&#187;</text><text fill="#000000" font-family="sans-serif" font-size="8.4" lengthAdjust="spacing" textLength="30" x="251.4" y="633.6258">Building</text><line style="stroke:#181818;stroke-width:0.3;" x1="234.6" x2="282.6" y1="638.734" y2="638.734"/><line style="stroke:#181818;stroke-width:0.3;" x1="234.6" x2="282.6" y1="643.534" y2="643.534"/></g><!--class Floor--><g id="elem_Floor"><rect codeLine="95" fill="#F1F1F1" height="45.9258" id="Floor" rx="1.5" ry="1.5" style="stroke:#181818;stroke-width:0.3;" width="42.6" x="317.1" y="510.0082"/><ellipse cx="326.1" cy="528.1711" fill="#ADD1B2" rx="6.6" ry="6.6" style="stroke:#181818;stroke-width:0.6;"/><path d="M325.4156,528.6492 L325.4156,530.1492 L328.0125,530.1492 L328.0125,529.5961 Q328.0125,529.2305 328.1531,529.0711 Q328.3031,528.9117 328.5281,528.9117 Q328.7531,528.9117 328.8938,529.0711 Q329.0344,529.2305 329.0344,529.5961 L329.0344,531.1711 L324.2344,531.1711 Q323.8594,531.1711 323.7,531.0305 Q323.55,530.8898 323.55,530.6555 Q323.55,530.4305 323.7094,530.2898 Q323.8688,530.1492 324.2344,530.1492 L324.3938,530.1492 L324.3938,526.1555 L324.2344,526.1555 Q323.8594,526.1555 323.7,526.0148 Q323.55,525.8742 323.55,525.6398 Q323.55,525.4148 323.7,525.2742 Q323.8594,525.1336 324.2344,525.1336 L328.8094,525.1336 L328.8094,526.6898 Q328.8094,527.0555 328.6688,527.2148 Q328.5375,527.3648 328.3031,527.3648 Q328.0781,527.3648 327.9375,527.2148 Q327.7969,527.0555 327.7969,526.6898 L327.7969,526.1555 L325.4156,526.1555 L325.4156,527.6273 L326.3063,527.6273 Q326.3063,527.2336 326.3812,527.1211 Q326.5406,526.8773 326.8219,526.8773 Q327.0469,526.8773 327.1875,527.0367 Q327.3281,527.1867 327.3281,527.5523 L327.3281,528.7336 Q327.3281,529.0617 327.2531,529.1742 Q327.0938,529.4086 326.8219,529.4086 Q326.5406,529.4086 326.3812,529.1648 Q326.3063,529.0523 326.3063,528.6492 L325.4156,528.6492 Z " fill="#000000"/><text fill="#000000" font-family="sans-serif" font-size="7.2" font-style="italic" lengthAdjust="spacing" textLength="21" x="335.7" y="520.7777">&#171;root&#187;</text><text fill="#000000" font-family="sans-serif" font-size="7.2" font-style="italic" lengthAdjust="spacing" textLength="25.8" x="333.3" y="530.3543">&#171;entity&#187;</text><text fill="#000000" font-family="sans-serif" font-size="8.4" lengthAdjust="spacing" textLength="19.8" x="336.3" y="541.2258">Floor</text><line style="stroke:#181818;stroke-width:0.3;" x1="317.7" x2="359.1" y1="546.334" y2="546.334"/><line style="stroke:#181818;stroke-width:0.3;" x1="317.7" x2="359.1" y1="551.134" y2="551.134"/></g><!--class Room--><g id="elem_Room"><rect codeLine="100" fill="#F1F1F1" height="45.9258" id="Room" rx="1.5" ry="1.5" style="stroke:#181818;stroke-width:0.3;" width="42.6" x="317.1" y="602.4082"/><ellipse cx="326.1" cy="620.5711" fill="#ADD1B2" rx="6.6" ry="6.6" style="stroke:#181818;stroke-width:0.6;"/><path d="M325.4156,621.0492 L325.4156,622.5492 L328.0125,622.5492 L328.0125,621.9961 Q328.0125,621.6305 328.1531,621.4711 Q328.3031,621.3117 328.5281,621.3117 Q328.7531,621.3117 328.8938,621.4711 Q329.0344,621.6305 329.0344,621.9961 L329.0344,623.5711 L324.2344,623.5711 Q323.8594,623.5711 323.7,623.4305 Q323.55,623.2898 323.55,623.0555 Q323.55,622.8305 323.7094,622.6898 Q323.8688,622.5492 324.2344,622.5492 L324.3938,622.5492 L324.3938,618.5555 L324.2344,618.5555 Q323.8594,618.5555 323.7,618.4148 Q323.55,618.2742 323.55,618.0398 Q323.55,617.8148 323.7,617.6742 Q323.8594,617.5336 324.2344,617.5336 L328.8094,617.5336 L328.8094,619.0898 Q328.8094,619.4555 328.6688,619.6148 Q328.5375,619.7648 328.3031,619.7648 Q328.0781,619.7648 327.9375,619.6148 Q327.7969,619.4555 327.7969,619.0898 L327.7969,618.5555 L325.4156,618.5555 L325.4156,620.0273 L326.3063,620.0273 Q326.3063,619.6336 326.3812,619.5211 Q326.5406,619.2773 326.8219,619.2773 Q327.0469,619.2773 327.1875,619.4367 Q327.3281,619.5867 327.3281,619.9523 L327.3281,621.1336 Q327.3281,621.4617 327.2531,621.5742 Q327.0938,621.8086 326.8219,621.8086 Q326.5406,621.8086 326.3812,621.5648 Q326.3063,621.4523 326.3063,621.0492 L325.4156,621.0492 Z " fill="#000000"/><text fill="#000000" font-family="sans-serif" font-size="7.2" font-style="italic" lengthAdjust="spacing" textLength="21" x="335.7" y="613.1777">&#171;root&#187;</text><text fill="#000000" font-family="sans-serif" font-size="7.2" font-style="italic" lengthAdjust="spacing" textLength="25.8" x="333.3" y="622.7543">&#171;entity&#187;</text><text fill="#000000" font-family="sans-serif" font-size="8.4" lengthAdjust="spacing" textLength="22.2" x="335.1" y="633.6258">Room</text><line style="stroke:#181818;stroke-width:0.3;" x1="317.7" x2="359.1" y1="638.734" y2="638.734"/><line style="stroke:#181818;stroke-width:0.3;" x1="317.7" x2="359.1" y1="643.534" y2="643.534"/></g><!--class RoomName--><g id="elem_RoomName"><rect codeLine="108" fill="#F1F1F1" height="28.8" id="RoomName" rx="1.5" ry="1.5" style="stroke:#181818;stroke-width:0.3;" width="63" x="452.7" y="741.9082"/><ellipse cx="461.7" cy="751.5082" fill="#ADD1B2" rx="6.6" ry="6.6" style="stroke:#181818;stroke-width:0.6;"/><path d="M463.3594,749.0332 Q463.4531,748.902 463.5656,748.8363 Q463.6781,748.7707 463.8094,748.7707 Q464.0344,748.7707 464.175,748.9301 Q464.3156,749.0801 464.3156,749.4457 L464.3156,750.3176 Q464.3156,750.6832 464.175,750.8426 Q464.0344,751.002 463.8094,751.002 Q463.6031,751.002 463.4813,750.8801 Q463.3594,750.7676 463.2938,750.4582 Q463.2656,750.2426 463.1531,750.1301 Q462.9562,749.9051 462.5906,749.7738 Q462.225,749.6426 461.85,749.6426 Q461.3906,749.6426 461.0062,749.8395 Q460.6312,750.0363 460.3313,750.4863 Q460.0406,750.9363 460.0406,751.5551 L460.0406,752.2113 Q460.0406,752.952 460.575,753.4488 Q461.1094,753.9363 462.0656,753.9363 Q462.6281,753.9363 463.0219,753.7863 Q463.2562,753.6926 463.5094,753.4301 Q463.6688,753.2707 463.7531,753.2238 Q463.8469,753.177 463.9688,753.177 Q464.1656,753.177 464.3156,753.3363 Q464.475,753.4863 464.475,753.6926 Q464.475,753.8988 464.2687,754.1426 Q463.9688,754.4895 463.4906,754.6863 Q462.8438,754.9582 462.0656,754.9582 Q461.1563,754.9582 460.4344,754.5832 Q459.8438,754.2832 459.4313,753.6457 Q459.0188,752.9988 459.0188,752.2301 L459.0188,751.5363 Q459.0188,750.7395 459.3844,750.0551 Q459.7594,749.3613 460.4156,748.9957 Q461.0719,748.6207 461.8125,748.6207 Q462.2531,748.6207 462.6375,748.7238 Q463.0313,748.8176 463.3594,749.0332 Z " fill="#000000"/><text fill="#000000" font-family="sans-serif" font-size="8.4" lengthAdjust="spacing" textLength="43.8" x="470.1" y="754.9863">RoomName</text><line style="stroke:#181818;stroke-width:0.3;" x1="453.3" x2="515.1" y1="761.1082" y2="761.1082"/><line style="stroke:#181818;stroke-width:0.3;" x1="453.3" x2="515.1" y1="765.9082" y2="765.9082"/></g><!--class RoomDescription--><g id="elem_RoomDescription"><rect codeLine="109" fill="#F1F1F1" height="28.8" id="RoomDescription" rx="1.5" ry="1.5" style="stroke:#181818;stroke-width:0.3;" width="84" x="347.4" y="741.9082"/><ellipse cx="356.4" cy="751.5082" fill="#ADD1B2" rx="6.6" ry="6.6" style="stroke:#181818;stroke-width:0.6;"/><path d="M358.0594,749.0332 Q358.1531,748.902 358.2656,748.8363 Q358.3781,748.7707 358.5094,748.7707 Q358.7344,748.7707 358.875,748.9301 Q359.0156,749.0801 359.0156,749.4457 L359.0156,750.3176 Q359.0156,750.6832 358.875,750.8426 Q358.7344,751.002 358.5094,751.002 Q358.3031,751.002 358.1813,750.8801 Q358.0594,750.7676 357.9938,750.4582 Q357.9656,750.2426 357.8531,750.1301 Q357.6563,749.9051 357.2906,749.7738 Q356.925,749.6426 356.55,749.6426 Q356.0906,749.6426 355.7063,749.8395 Q355.3313,750.0363 355.0313,750.4863 Q354.7406,750.9363 354.7406,751.5551 L354.7406,752.2113 Q354.7406,752.952 355.275,753.4488 Q355.8094,753.9363 356.7656,753.9363 Q357.3281,753.9363 357.7219,753.7863 Q357.9563,753.6926 358.2094,753.4301 Q358.3688,753.2707 358.4531,753.2238 Q358.5469,753.177 358.6688,753.177 Q358.8656,753.177 359.0156,753.3363 Q359.175,753.4863 359.175,753.6926 Q359.175,753.8988 358.9688,754.1426 Q358.6688,754.4895 358.1906,754.6863 Q357.5438,754.9582 356.7656,754.9582 Q355.8563,754.9582 355.1344,754.5832 Q354.5438,754.2832 354.1312,753.6457 Q353.7188,752.9988 353.7188,752.2301 L353.7188,751.5363 Q353.7188,750.7395 354.0844,750.0551 Q354.4594,749.3613 355.1156,748.9957 Q355.7719,748.6207 356.5125,748.6207 Q356.9531,748.6207 357.3375,748.7238 Q357.7313,748.8176 358.0594,749.0332 Z " fill="#000000"/><text fill="#000000" font-family="sans-serif" font-size="8.4" lengthAdjust="spacing" textLength="64.8" x="364.8" y="754.9863">RoomDescription</text><line style="stroke:#181818;stroke-width:0.3;" x1="348" x2="430.8" y1="761.1082" y2="761.1082"/><line style="stroke:#181818;stroke-width:0.3;" x1="348" x2="430.8" y1="765.9082" y2="765.9082"/></g><!--class RoomCategory--><g id="elem_RoomCategory"><rect codeLine="110" fill="#F1F1F1" height="28.8" id="RoomCategory" rx="1.5" ry="1.5" style="stroke:#181818;stroke-width:0.3;" width="76.2" x="249.9" y="741.9082"/><ellipse cx="258.9" cy="751.5082" fill="#ADD1B2" rx="6.6" ry="6.6" style="stroke:#181818;stroke-width:0.6;"/><path d="M260.5594,749.0332 Q260.6531,748.902 260.7656,748.8363 Q260.8781,748.7707 261.0094,748.7707 Q261.2344,748.7707 261.375,748.9301 Q261.5156,749.0801 261.5156,749.4457 L261.5156,750.3176 Q261.5156,750.6832 261.375,750.8426 Q261.2344,751.002 261.0094,751.002 Q260.8031,751.002 260.6813,750.8801 Q260.5594,750.7676 260.4938,750.4582 Q260.4656,750.2426 260.3531,750.1301 Q260.1563,749.9051 259.7906,749.7738 Q259.425,749.6426 259.05,749.6426 Q258.5906,749.6426 258.2063,749.8395 Q257.8313,750.0363 257.5313,750.4863 Q257.2406,750.9363 257.2406,751.5551 L257.2406,752.2113 Q257.2406,752.952 257.775,753.4488 Q258.3094,753.9363 259.2656,753.9363 Q259.8281,753.9363 260.2219,753.7863 Q260.4563,753.6926 260.7094,753.4301 Q260.8688,753.2707 260.9531,753.2238 Q261.0469,753.177 261.1688,753.177 Q261.3656,753.177 261.5156,753.3363 Q261.675,753.4863 261.675,753.6926 Q261.675,753.8988 261.4688,754.1426 Q261.1688,754.4895 260.6906,754.6863 Q260.0438,754.9582 259.2656,754.9582 Q258.3563,754.9582 257.6344,754.5832 Q257.0438,754.2832 256.6312,753.6457 Q256.2188,752.9988 256.2188,752.2301 L256.2188,751.5363 Q256.2188,750.7395 256.5844,750.0551 Q256.9594,749.3613 257.6156,748.9957 Q258.2719,748.6207 259.0125,748.6207 Q259.4531,748.6207 259.8375,748.7238 Q260.2313,748.8176 260.5594,749.0332 Z " fill="#000000"/><text fill="#000000" font-family="sans-serif" font-size="8.4" lengthAdjust="spacing" textLength="57" x="267.3" y="754.9863">RoomCategory</text><line style="stroke:#181818;stroke-width:0.3;" x1="250.5" x2="325.5" y1="761.1082" y2="761.1082"/><line style="stroke:#181818;stroke-width:0.3;" x1="250.5" x2="325.5" y1="765.9082" y2="765.9082"/></g><!--class RoomDimensions--><g id="elem_RoomDimensions"><rect codeLine="111" fill="#F1F1F1" height="28.8" id="RoomDimensions" rx="1.5" ry="1.5" style="stroke:#181818;stroke-width:0.3;" width="85.2" x="143.4" y="741.9082"/><ellipse cx="152.4" cy="751.5082" fill="#ADD1B2" rx="6.6" ry="6.6" style="stroke:#181818;stroke-width:0.6;"/><path d="M154.0594,749.0332 Q154.1531,748.902 154.2656,748.8363 Q154.3781,748.7707 154.5094,748.7707 Q154.7344,748.7707 154.875,748.9301 Q155.0156,749.0801 155.0156,749.4457 L155.0156,750.3176 Q155.0156,750.6832 154.875,750.8426 Q154.7344,751.002 154.5094,751.002 Q154.3031,751.002 154.1813,750.8801 Q154.0594,750.7676 153.9938,750.4582 Q153.9656,750.2426 153.8531,750.1301 Q153.6563,749.9051 153.2906,749.7738 Q152.925,749.6426 152.55,749.6426 Q152.0906,749.6426 151.7062,749.8395 Q151.3312,750.0363 151.0313,750.4863 Q150.7406,750.9363 150.7406,751.5551 L150.7406,752.2113 Q150.7406,752.952 151.275,753.4488 Q151.8094,753.9363 152.7656,753.9363 Q153.3281,753.9363 153.7219,753.7863 Q153.9562,753.6926 154.2094,753.4301 Q154.3688,753.2707 154.4531,753.2238 Q154.5469,753.177 154.6688,753.177 Q154.8656,753.177 155.0156,753.3363 Q155.175,753.4863 155.175,753.6926 Q155.175,753.8988 154.9688,754.1426 Q154.6688,754.4895 154.1906,754.6863 Q153.5438,754.9582 152.7656,754.9582 Q151.8563,754.9582 151.1344,754.5832 Q150.5438,754.2832 150.1313,753.6457 Q149.7188,752.9988 149.7188,752.2301 L149.7188,751.5363 Q149.7188,750.7395 150.0844,750.0551 Q150.4594,749.3613 151.1156,748.9957 Q151.7719,748.6207 152.5125,748.6207 Q152.9531,748.6207 153.3375,748.7238 Q153.7313,748.8176 154.0594,749.0332 Z " fill="#000000"/><text fill="#000000" font-family="sans-serif" font-size="8.4" lengthAdjust="spacing" textLength="66" x="160.8" y="754.9863">RoomDimensions</text><line style="stroke:#181818;stroke-width:0.3;" x1="144" x2="228" y1="761.1082" y2="761.1082"/><line style="stroke:#181818;stroke-width:0.3;" x1="144" x2="228" y1="765.9082" y2="765.9082"/></g><!--class Coordinates--><g id="elem_Coordinates"><rect codeLine="112" fill="#F1F1F1" height="28.8" id="Coordinates" rx="1.5" ry="1.5" style="stroke:#181818;stroke-width:0.3;" width="65.4" x="56.7" y="741.9082"/><ellipse cx="65.7" cy="751.5082" fill="#ADD1B2" rx="6.6" ry="6.6" style="stroke:#181818;stroke-width:0.6;"/><path d="M67.3594,749.0332 Q67.4531,748.902 67.5656,748.8363 Q67.6781,748.7707 67.8094,748.7707 Q68.0344,748.7707 68.175,748.9301 Q68.3156,749.0801 68.3156,749.4457 L68.3156,750.3176 Q68.3156,750.6832 68.175,750.8426 Q68.0344,751.002 67.8094,751.002 Q67.6031,751.002 67.4813,750.8801 Q67.3594,750.7676 67.2938,750.4582 Q67.2656,750.2426 67.1531,750.1301 Q66.9563,749.9051 66.5906,749.7738 Q66.225,749.6426 65.85,749.6426 Q65.3906,749.6426 65.0063,749.8395 Q64.6313,750.0363 64.3313,750.4863 Q64.0406,750.9363 64.0406,751.5551 L64.0406,752.2113 Q64.0406,752.952 64.575,753.4488 Q65.1094,753.9363 66.0656,753.9363 Q66.6281,753.9363 67.0219,753.7863 Q67.2563,753.6926 67.5094,753.4301 Q67.6688,753.2707 67.7531,753.2238 Q67.8469,753.177 67.9688,753.177 Q68.1656,753.177 68.3156,753.3363 Q68.475,753.4863 68.475,753.6926 Q68.475,753.8988 68.2688,754.1426 Q67.9688,754.4895 67.4906,754.6863 Q66.8438,754.9582 66.0656,754.9582 Q65.1563,754.9582 64.4344,754.5832 Q63.8438,754.2832 63.4313,753.6457 Q63.0188,752.9988 63.0188,752.2301 L63.0188,751.5363 Q63.0188,750.7395 63.3844,750.0551 Q63.7594,749.3613 64.4156,748.9957 Q65.0719,748.6207 65.8125,748.6207 Q66.2531,748.6207 66.6375,748.7238 Q67.0313,748.8176 67.3594,749.0332 Z " fill="#000000"/><text fill="#000000" font-family="sans-serif" font-size="8.4" lengthAdjust="spacing" textLength="46.2" x="74.1" y="754.9863">Coordinates</text><line style="stroke:#181818;stroke-width:0.3;" x1="57.3" x2="121.5" y1="761.1082" y2="761.1082"/><line style="stroke:#181818;stroke-width:0.3;" x1="57.3" x2="121.5" y1="765.9082" y2="765.9082"/></g><!--class IRoomDTO--><g id="elem_IRoomDTO"><rect codeLine="133" fill="#F1F1F1" height="28.8" id="IRoomDTO" rx="1.5" ry="1.5" style="stroke:#181818;stroke-width:0.3;" width="61.8" x="1063.5" y="611.1082"/><ellipse cx="1072.5" cy="620.7082" fill="#B4A7E5" rx="6.6" ry="6.6" style="stroke:#181818;stroke-width:0.6;"/><path d="M1073.0719,618.6926 L1073.0719,622.6863 L1074.1031,622.6863 Q1074.4688,622.6863 1074.6281,622.827 Q1074.7875,622.9676 1074.7875,623.202 Q1074.7875,623.427 1074.6281,623.5676 Q1074.4688,623.7082 1074.1031,623.7082 L1071.0188,623.7082 Q1070.6531,623.7082 1070.4937,623.5676 Q1070.3344,623.427 1070.3344,623.1926 Q1070.3344,622.9676 1070.4937,622.827 Q1070.6531,622.6863 1071.0188,622.6863 L1072.05,622.6863 L1072.05,618.6926 L1071.0188,618.6926 Q1070.6531,618.6926 1070.4937,618.552 Q1070.3344,618.4113 1070.3344,618.177 Q1070.3344,617.952 1070.4937,617.8113 Q1070.6531,617.6707 1071.0188,617.6707 L1074.1031,617.6707 Q1074.4688,617.6707 1074.6281,617.8113 Q1074.7875,617.952 1074.7875,618.177 Q1074.7875,618.4113 1074.6281,618.552 Q1074.4688,618.6926 1074.1031,618.6926 L1073.0719,618.6926 Z " fill="#000000"/><text fill="#000000" font-family="sans-serif" font-size="8.4" font-style="italic" lengthAdjust="spacing" textLength="42.6" x="1080.9" y="624.1863">IRoomDTO</text><line style="stroke:#181818;stroke-width:0.3;" x1="1064.1" x2="1124.7" y1="630.3082" y2="630.3082"/><line style="stroke:#181818;stroke-width:0.3;" x1="1064.1" x2="1124.7" y1="635.1082" y2="635.1082"/></g><!--link DBDriver to IDBDriver--><g id="link_DBDriver_IDBDriver"><path codeLine="24" d="M1084.674,94.2082 C1087.62,94.2082 1090.56,94.2082 1093.506,94.2082 " fill="none" id="DBDriver-to-IDBDriver" style="stroke:#FF6655;stroke-width:0.6;"/><polygon fill="none" points="1093.608,90.0082,1105.608,94.2082,1093.608,98.4082,1093.608,90.0082" style="stroke:#FF6655;stroke-width:0.6;"/></g><!--reverse link IControllerRoom to ControllerRoom--><g id="link_IControllerRoom_ControllerRoom"><path codeLine="36" d="M1247.754,264.2722 C1247.508,290.8522 1247.13,331.0882 1246.932,352.1062 " fill="none" id="IControllerRoom-backto-ControllerRoom" style="stroke:#FF6655;stroke-width:0.6;"/><polygon fill="none" points="1243.554,264.0862,1247.868,252.1282,1251.954,264.1702,1243.554,264.0862" style="stroke:#FF6655;stroke-width:0.6;"/></g><!--reverse link DBDriver to RepoBuilding--><g id="link_DBDriver_RepoBuilding"><path codeLine="46" d="M1055.808,111.6862 C1052.454,140.0602 1045.752,196.7842 1042.65,223.0582 " fill="none" id="DBDriver-backto-RepoBuilding" style="stroke:#FF6655;stroke-width:0.6;stroke-dasharray:7.0,7.0;"/><polygon fill="#FF6655" points="1056.156,108.7042,1053.1406,113.7863,1055.805,111.6836,1057.9077,114.3479,1056.156,108.7042" style="stroke:#FF6655;stroke-width:0.6;"/></g><!--reverse link DBDriver to RepoFloor--><g id="link_DBDriver_RepoFloor"><path codeLine="47" d="M1031.718,110.3842 C1019.61,118.6342 1005.768,129.6562 996,142.2082 C976.356,167.4442 964.266,203.5762 958.752,223.1422 " fill="none" id="DBDriver-backto-RepoFloor" style="stroke:#FF6655;stroke-width:0.6;stroke-dasharray:7.0,7.0;"/><polygon fill="#FF6655" points="1034.274,108.6622,1028.4537,109.6838,1031.7845,110.3362,1031.132,113.667,1034.274,108.6622" style="stroke:#FF6655;stroke-width:0.6;"/></g><!--reverse link DBDriver to RepoRoom--><g id="link_DBDriver_RepoRoom"><path codeLine="48" d="M1068.588,111.3322 C1074.252,120.2962 1081.134,131.6782 1086.6,142.2082 C1101.12,170.1802 1115.19,204.3562 1122.6,223.0822 " fill="none" id="DBDriver-backto-RepoRoom" style="stroke:#FF6655;stroke-width:0.6;stroke-dasharray:7.0,7.0;"/><polygon fill="#FF6655" points="1066.872,108.6262,1067.7361,114.472,1068.4782,111.16,1071.7902,111.9021,1066.872,108.6262" style="stroke:#FF6655;stroke-width:0.6;"/></g><!--link RouteBuilding to IControllerRoom--><g id="link_RouteBuilding_IControllerRoom"><path codeLine="51" d="M1232.298,108.7042 C1235.508,134.9302 1242.45,191.6542 1245.93,220.0702 " fill="none" id="RouteBuilding-to-IControllerRoom" style="stroke:#FF6655;stroke-width:0.6;stroke-dasharray:7.0,7.0;"/><polygon fill="#FF6655" points="1246.296,223.0582,1248.0137,217.404,1245.9271,220.081,1243.2501,217.9943,1246.296,223.0582" style="stroke:#FF6655;stroke-width:0.6;"/></g><!--link AppServiceRoom to IAppServiceRoom--><g id="link_AppServiceRoom_IAppServiceRoom"><path codeLine="64" d="M754.83,547.5622 C759.618,561.2842 767.058,582.6322 772.914,599.4262 " fill="none" id="AppServiceRoom-to-IAppServiceRoom" style="stroke:#FF6655;stroke-width:0.6;"/><polygon fill="none" points="776.94,598.2142,776.922,610.9282,769.008,600.9802,776.94,598.2142" style="stroke:#FF6655;stroke-width:0.6;"/></g><!--link RepoBuilding to IRepoBuilding--><g id="link_RepoBuilding_IRepoBuilding"><path codeLine="73" d="M1023.438,252.1282 C1015.374,257.6842 1005.396,263.4502 995.4,266.4082 C983.568,269.9062 783.804,264.5842 773.4,271.2082 C749.472,286.4422 737.382,317.8282 731.55,340.3162 " fill="none" id="RepoBuilding-to-IRepoBuilding" style="stroke:#FF6655;stroke-width:0.6;"/><polygon fill="none" points="735.642,341.2762,728.862,352.0342,727.452,339.3982,735.642,341.2762" style="stroke:#FF6655;stroke-width:0.6;"/></g><!--link RepoFloor to IRepoFloor--><g id="link_RepoFloor_IRepoFloor"><path codeLine="74" d="M925.404,238.1662 C862.482,238.6402 718.698,242.8942 680.4,271.2082 C658.254,287.5762 647.58,318.2362 642.57,340.2622 " fill="none" id="RepoFloor-to-IRepoFloor" style="stroke:#FF6655;stroke-width:0.6;"/><polygon fill="none" points="646.686,341.1022,640.236,352.0582,638.448,339.4702,646.686,341.1022" style="stroke:#FF6655;stroke-width:0.6;"/></g><!--link RepoRoom to IRepoRoom--><g id="link_RepoRoom_IRepoRoom"><path codeLine="75" d="M1109.64,252.1402 C1102.662,257.0482 1094.49,262.3462 1086.6,266.4082 C1010.07,305.7982 914.274,337.2082 859.614,353.5822 " fill="none" id="RepoRoom-to-IRepoRoom" style="stroke:#FF6655;stroke-width:0.6;"/><polygon fill="none" points="860.802,357.6142,848.106,356.9902,858.42,349.5562,860.802,357.6142" style="stroke:#FF6655;stroke-width:0.6;"/></g><!--link ControllerRoom to IAppServiceRoom--><g id="link_ControllerRoom_IAppServiceRoom"><path codeLine="79" d="M1217.538,381.0562 C1192.08,393.2602 1154.298,411.7342 1122,429.0082 C1002.498,492.9202 863.388,575.7382 807.234,609.5302 " fill="none" id="ControllerRoom-to-IAppServiceRoom" style="stroke:#FF6655;stroke-width:0.6;stroke-dasharray:7.0,7.0;"/><polygon fill="#FF6655" points="804.618,611.1022,810.4815,610.3676,807.1867,609.5524,808.0018,606.2576,804.618,611.1022" style="stroke:#FF6655;stroke-width:0.6;"/></g><!--reverse link IRepoBuilding to AppServiceRoom--><g id="link_IRepoBuilding_AppServiceRoom"><path codeLine="81" d="M728.988,384.0622 C733.62,416.7982 743.76,488.4082 748.032,518.6242 " fill="none" id="IRepoBuilding-backto-AppServiceRoom" style="stroke:#FF6655;stroke-width:0.6;stroke-dasharray:7.0,7.0;"/><polygon fill="#FF6655" points="728.556,381.0202,726.9369,386.7034,728.9767,383.9906,731.6895,386.0303,728.556,381.0202" style="stroke:#FF6655;stroke-width:0.6;"/></g><!--reverse link IRepoFloor to AppServiceRoom--><g id="link_IRepoFloor_AppServiceRoom"><path codeLine="82" d="M649.512,383.6662 C671.49,416.2162 720.144,488.2882 740.628,518.6242 " fill="none" id="IRepoFloor-backto-AppServiceRoom" style="stroke:#FF6655;stroke-width:0.6;stroke-dasharray:7.0,7.0;"/><polygon fill="#FF6655" points="647.724,381.0202,648.7594,386.8381,649.4039,383.5058,652.7362,384.1503,647.724,381.0202" style="stroke:#FF6655;stroke-width:0.6;"/></g><!--reverse link IRepoRoom to AppServiceRoom--><g id="link_IRepoRoom_AppServiceRoom"><path codeLine="83" d="M809.352,383.8642 C796.314,416.5042 767.634,488.3482 755.544,518.6242 " fill="none" id="IRepoRoom-backto-AppServiceRoom" style="stroke:#FF6655;stroke-width:0.6;stroke-dasharray:7.0,7.0;"/><polygon fill="#FF6655" points="810.486,381.0202,806.2521,385.1426,809.3718,383.8056,810.7088,386.9253,810.486,381.0202" style="stroke:#FF6655;stroke-width:0.6;"/></g><!--link Room to RoomName--><g id="link_Room_RoomName"><path codeLine="117" d="M359.73,635.2222 C382.086,645.5542 417.276,664.1002 441.6,687.9082 C456.78,702.7702 469.02,724.0462 476.418,738.7822 " fill="none" id="Room-to-RoomName" style="stroke:#FF6655;stroke-width:0.6;"/><polygon fill="#FF6655" points="477.828,741.6442,477.5823,735.74,476.4967,738.9558,473.2809,737.8701,477.828,741.6442" style="stroke:#FF6655;stroke-width:0.6;"/><text fill="#000000" font-family="Impact" font-size="7.8" lengthAdjust="spacing" textLength="3" x="364.4387" y="635.2474">1</text><text fill="#000000" font-family="Impact" font-size="7.8" lengthAdjust="spacing" textLength="3" x="472.7124" y="735.4315">1</text></g><!--link Room to RoomDescription--><g id="link_Room_RoomDescription"><path codeLine="118" d="M347.286,648.6802 C357.39,674.3602 373.662,715.7122 382.74,738.7762 " fill="none" id="Room-to-RoomDescription" style="stroke:#FF6655;stroke-width:0.6;"/><polygon fill="#FF6655" points="383.916,741.7702,384.1764,735.8666,382.8196,738.9777,379.7085,737.6209,383.916,741.7702" style="stroke:#FF6655;stroke-width:0.6;"/><text fill="#000000" font-family="Impact" font-size="7.8" lengthAdjust="spacing" textLength="3" x="345.4631" y="661.0218">1</text><text fill="#000000" font-family="Impact" font-size="7.8" lengthAdjust="spacing" textLength="3" x="378.9518" y="735.3566">1</text></g><!--link Room to RoomCategory--><g id="link_Room_RoomCategory"><path codeLine="119" d="M329.622,648.6802 C319.632,674.3602 303.552,715.7122 294.582,738.7762 " fill="none" id="Room-to-RoomCategory" style="stroke:#FF6655;stroke-width:0.6;"/><polygon fill="#FF6655" points="293.418,741.7702,297.6145,737.6097,294.507,738.9748,293.1419,735.8673,293.418,741.7702" style="stroke:#FF6655;stroke-width:0.6;"/><text fill="#000000" font-family="Impact" font-size="7.8" lengthAdjust="spacing" textLength="3" x="328.4621" y="661.0218">1</text><text fill="#000000" font-family="Impact" font-size="7.8" lengthAdjust="spacing" textLength="3" x="291.5199" y="735.3566">1</text></g><!--link Room to RoomDimensions--><g id="link_Room_RoomDimensions"><path codeLine="120" d="M326.316,648.8542 C318.492,661.1842 307.092,675.4342 292.8,683.1082 C271.806,694.3822 260.352,676.5562 239.4,687.9082 C218.352,699.3142 202.782,722.8882 194.046,739.0042 " fill="none" id="Room-to-RoomDimensions" style="stroke:#FF6655;stroke-width:0.6;"/><polygon fill="#FF6655" points="192.594,741.7222,197.2455,738.0775,194.0004,739.0723,193.0056,735.8272,192.594,741.7222" style="stroke:#FF6655;stroke-width:0.6;"/><text fill="#000000" font-family="Impact" font-size="7.8" lengthAdjust="spacing" textLength="3" x="321.2359" y="661.047">1</text><text fill="#000000" font-family="Impact" font-size="7.8" lengthAdjust="spacing" textLength="3" x="190.963" y="735.5304">1</text></g><!--link Room to Coordinates--><g id="link_Room_Coordinates"><path codeLine="121" d="M326.664,648.8842 C318.894,661.3882 307.428,675.8062 292.8,683.1082 C276.864,691.0642 148.086,679.1122 132.6,687.9082 C113.178,698.9422 101.16,722.6782 94.872,738.9202 " fill="none" id="Room-to-Coordinates" style="stroke:#FF6655;stroke-width:0.6;"/><polygon fill="#FF6655" points="93.768,741.8602,97.9113,737.6467,94.8214,739.0512,93.4169,735.9613,93.768,741.8602" style="stroke:#FF6655;stroke-width:0.6;"/><text fill="#000000" font-family="Impact" font-size="7.8" lengthAdjust="spacing" textLength="3" x="325.0966" y="661.0816">1</text><text fill="#000000" font-family="Impact" font-size="7.8" lengthAdjust="spacing" textLength="3" x="91.5746" y="735.4719">1</text></g><!--reverse link Building to Room--><g id="link_Building_Room"><path codeLine="123" d="M286.398,625.5082 C296.622,625.5082 306.84,625.5082 317.064,625.5082 " fill="none" id="Building-backto-Room" style="stroke:#FF6655;stroke-width:0.6;"/><polygon fill="#FF6655" points="283.224,625.5082,288.624,627.9082,286.224,625.5082,288.624,623.1082,283.224,625.5082" style="stroke:#FF6655;stroke-width:0.6;"/><text fill="#000000" font-family="Impact" font-size="7.8" lengthAdjust="spacing" textLength="3" x="288.0406" y="623.6197">1</text></g><!--reverse link Floor to Room--><g id="link_Floor_Room"><path codeLine="124" d="M338.4,559.2682 C338.4,572.7922 338.4,589.2562 338.4,602.3062 " fill="none" id="Floor-backto-Room" style="stroke:#FF6655;stroke-width:0.6;"/><polygon fill="#FF6655" points="338.4,556.2502,336,561.6502,338.4,559.2502,340.8,561.6502,338.4,556.2502" style="stroke:#FF6655;stroke-width:0.6;"/><text fill="#000000" font-family="Impact" font-size="7.8" lengthAdjust="spacing" textLength="3" x="335.1609" y="568.587">1</text></g><!--link AppServiceRoom to Room--><g id="link_AppServiceRoom_Room"><path codeLine="127" d="M707.694,543.0802 C622.086,562.0522 430.71,604.4542 362.844,619.4902 " fill="none" id="AppServiceRoom-to-Room" style="stroke:#FF6655;stroke-width:0.6;stroke-dasharray:7.0,7.0;"/><polygon fill="#FF6655" points="359.898,620.1442,365.6868,621.3318,362.8284,619.5016,364.6586,616.6432,359.898,620.1442" style="stroke:#FF6655;stroke-width:0.6;"/></g><!--link AppServiceRoom to IRoomDTO--><g id="link_AppServiceRoom_IRoomDTO"><path codeLine="135" d="M792.402,544.9342 C861.516,563.2402 997.08,599.1382 1060.356,615.8902 " fill="none" id="AppServiceRoom-to-IRoomDTO" style="stroke:#FF6655;stroke-width:0.6;"/><polygon fill="#FF6655" points="1063.314,616.6762,1058.7031,612.9803,1060.4129,615.9123,1057.4809,617.6221,1063.314,616.6762" style="stroke:#FF6655;stroke-width:0.6;"/></g><!--reverse link IRoomDTO to ControllerRoom--><g id="link_IRoomDTO_ControllerRoom"><path codeLine="136" d="M1104.252,608.2522 C1132.374,560.6962 1212.66,424.9342 1238.604,381.0622 " fill="none" id="IRoomDTO-backto-ControllerRoom" style="stroke:#FF6655;stroke-width:0.6;"/><polygon fill="#FF6655" points="1102.632,610.9822,1107.4415,607.5488,1104.1553,608.3977,1103.3064,605.1115,1102.632,610.9822" style="stroke:#FF6655;stroke-width:0.6;"/></g><!--SRC=[bLR9Rjim4BtxAmZta9CTv12V305UQY10KHT9q6l1o6E5jKGAGyg5s_hVI-tY9ZUwsD8ypflb3KbvOZodI3CIYomN7BWYVoP4Fpl1rGlx3UHXKRslQNnAK1Jyi16fmELobTFu7QA8V679kze8f6aD57W0j46VThl5ul6nS_sLPa0sea06Q2yZRwacyx6IBK3-Shgiqm8g-mfH_EhyFMMQJlM6UarBVPrCjFb44o3o8XLaJQRjn-aJFoAL2ejO5GZJncn0daMXG0vDvHEdL4fIsTO5Im-C9vrTipfUlW5AfYFWCTYk65U0HnhhPBRhBR9pKnwJoZ4DM5eRcM7PcDdVo7BLO0TfjvIh0ytrV-bDVQEhZ29DBRlfQWHaPTSZduN83EGW6TDxbgSt2EhoZFeUlfb0CYlogbo1zRvMFaCk95D2wpWa2urmL66QTwaG6B1L4VX26FebyoAVHwuiEkTZW2fropwW6QgQpEV-yjYQMkLvocAgcE3a1V3COl2hIWEz0BFn6XK2MRBgaH-IrGs2kXt_xzj4abcbAcjv89WnGLcv1fNbmRaIyu3SkAoy3CtLMGM3wBNN0zqeEW7seA3YhMcjj1WggjM1Mjx-OCDGCzmmhgUsv-0pLqpfJjxhyn7kjoAZZFld84aG4jeSBdvjj95F2PM4_dXh6-6Af7sWfB-GhcNB9GgXz76yNDQcAFAk3OrALP26_bZrzYPtBO4F4FkPon8tn5XMt-Lj-AhUtAAx3kNbsTM_Ktt18Fktdn2hyBRKnNGMeQ3Qcu78oWlAY7aBCaQMbnlc26gZ1P88l8mvOXbmgTt8uE6eRrgCbr8RgKc__UkyfWzJFPzHzUlauaNuql42dOpyxjoa7DmmBnCrI-6e6fGp_Tt1NzlhaG_l8thapOtchfE3xm2vkqxwsdR8xUj-wfsSuNvSflsw7xcyE8TCv5_bkUGCaDV9Fm00]--></g></svg>