<?xml version="1.0" encoding="us-ascii" standalone="no"?><svg xmlns="http://www.w3.org/2000/svg" xmlns:xlink="http://www.w3.org/1999/xlink" contentStyleType="text/css" height="1006px" preserveAspectRatio="none" style="width:1181px;height:1006px;background:#FFFFFF;" version="1.1" viewBox="0 0 1181 1006" width="1181px" zoomAndPan="magnify"><defs/><g><rect fill="#FFFFFF" height="985.5225" style="stroke:#181818;stroke-width:1.5;" width="1170" x="5" y="15"/><path d="M36,15 L36,26.6211 L26,36.6211 L5,36.6211 " fill="none" style="stroke:#181818;stroke-width:1.5;"/><text fill="#000000" font-family="sans-serif" font-size="14" lengthAdjust="spacing" textLength="21" x="8" y="31.1074">MD</text><rect fill="#ADD8E6" height="928.5176" style="stroke:#181818;stroke-width:0.5;" width="684" x="374" y="46.3838"/><text fill="#000000" font-family="sans-serif" font-size="13" font-weight="bold" lengthAdjust="spacing" textLength="59" x="686.5" y="60.4121">Back-End</text><rect fill="#DDDDDD" height="928.5176" style="stroke:#181818;stroke-width:0.5;" width="82" x="1060" y="46.3838"/><text fill="#000000" font-family="sans-serif" font-size="13" font-weight="bold" lengthAdjust="spacing" textLength="59" x="1071.5" y="60.4121">Database</text><rect fill="#FFFFFF" height="731.6934" style="stroke:#181818;stroke-width:1.0;" width="10" x="399" y="165.5869"/><rect fill="#FFFFFF" height="700.4023" style="stroke:#181818;stroke-width:1.0;" width="10" x="573" y="196.8779"/><rect fill="#FFFFFF" height="669.1113" style="stroke:#181818;stroke-width:1.0;" width="10" x="709" y="228.1689"/><rect fill="#FFFFFF" height="430.7344" style="stroke:#181818;stroke-width:1.0;" width="10" x="818.5" y="467.5459"/><rect fill="#FFFFFF" height="93.5332" style="stroke:#181818;stroke-width:1.0;" width="10" x="885" y="687.874"/><rect fill="#FFFFFF" height="52.2422" style="stroke:#181818;stroke-width:1.0;" width="10" x="1027" y="729.165"/><rect fill="#FFFFFF" height="30" style="stroke:#181818;stroke-width:1.0;" width="10" x="1096" y="259.46"/><rect fill="#FFFFFF" height="31.291" style="stroke:#181818;stroke-width:1.0;" width="10" x="1096" y="656.583"/><rect fill="none" height="585.8203" style="stroke:#000000;stroke-width:1.5;" width="1138" x="20" y="304.46"/><rect fill="none" height="379.7832" style="stroke:#000000;stroke-width:1.5;" width="1118" x="30" y="503.4971"/><line style="stroke:#181818;stroke-width:0.5;stroke-dasharray:5.0,5.0;" x1="55" x2="55" y1="132.2959" y2="907.2803"/><line style="stroke:#181818;stroke-width:0.5;stroke-dasharray:5.0,5.0;" x1="404" x2="404" y1="132.2959" y2="907.2803"/><line style="stroke:#181818;stroke-width:0.5;stroke-dasharray:5.0,5.0;" x1="578" x2="578" y1="132.2959" y2="907.2803"/><line style="stroke:#181818;stroke-width:0.5;stroke-dasharray:5.0,5.0;" x1="713.5" x2="713.5" y1="132.2959" y2="907.2803"/><line style="stroke:#181818;stroke-width:0.5;stroke-dasharray:5.0,5.0;" x1="823" x2="823" y1="475.376" y2="907.2803"/><line style="stroke:#181818;stroke-width:0.5;stroke-dasharray:5.0,5.0;" x1="890" x2="890" y1="132.2959" y2="907.2803"/><line style="stroke:#181818;stroke-width:0.5;stroke-dasharray:5.0,5.0;" x1="1032" x2="1032" y1="736.9951" y2="907.2803"/><line style="stroke:#181818;stroke-width:0.5;stroke-dasharray:5.0,5.0;" x1="1101" x2="1101" y1="132.2959" y2="907.2803"/><rect fill="#E2E2F0" height="32.6211" rx="2.5" ry="2.5" style="stroke:#181818;stroke-width:0.5;" width="30" x="40" y="98.6748"/><text fill="#000000" font-family="sans-serif" font-size="14" lengthAdjust="spacing" textLength="16" x="47" y="120.7822">??</text><rect fill="#E2E2F0" height="32.6211" rx="2.5" ry="2.5" style="stroke:#181818;stroke-width:0.5;" width="30" x="40" y="906.2803"/><text fill="#000000" font-family="sans-serif" font-size="14" lengthAdjust="spacing" textLength="16" x="47" y="928.3877">??</text><rect fill="#E2E2F0" height="32.6211" rx="2.5" ry="2.5" style="stroke:#181818;stroke-width:0.5;" width="52" x="378" y="98.6748"/><text fill="#000000" font-family="sans-serif" font-size="14" lengthAdjust="spacing" textLength="38" x="385" y="120.7822">Route</text><rect fill="#E2E2F0" height="32.6211" rx="2.5" ry="2.5" style="stroke:#181818;stroke-width:0.5;" width="52" x="378" y="906.2803"/><text fill="#000000" font-family="sans-serif" font-size="14" lengthAdjust="spacing" textLength="38" x="385" y="928.3877">Route</text><rect fill="#E2E2F0" height="32.6211" rx="2.5" ry="2.5" style="stroke:#181818;stroke-width:0.5;" width="76" x="540" y="98.6748"/><text fill="#000000" font-family="sans-serif" font-size="14" lengthAdjust="spacing" textLength="62" x="547" y="120.7822">Controller</text><rect fill="#E2E2F0" height="32.6211" rx="2.5" ry="2.5" style="stroke:#181818;stroke-width:0.5;" width="76" x="540" y="906.2803"/><text fill="#000000" font-family="sans-serif" font-size="14" lengthAdjust="spacing" textLength="62" x="547" y="928.3877">Controller</text><rect fill="#E2E2F0" height="32.6211" rx="2.5" ry="2.5" style="stroke:#181818;stroke-width:0.5;" width="61" x="683.5" y="98.6748"/><text fill="#000000" font-family="sans-serif" font-size="14" lengthAdjust="spacing" textLength="47" x="690.5" y="120.7822">Service</text><rect fill="#E2E2F0" height="32.6211" rx="2.5" ry="2.5" style="stroke:#181818;stroke-width:0.5;" width="61" x="683.5" y="906.2803"/><text fill="#000000" font-family="sans-serif" font-size="14" lengthAdjust="spacing" textLength="47" x="690.5" y="928.3877">Service</text><rect fill="#E2E2F0" height="51.2422" rx="2.5" ry="2.5" style="stroke:#181818;stroke-width:0.5;" width="51" x="798" y="906.2803"/><text fill="#000000" font-family="sans-serif" font-size="14" lengthAdjust="spacing" textLength="36" x="805.5" y="928.3877">room:</text><text fill="#000000" font-family="sans-serif" font-size="14" lengthAdjust="spacing" textLength="37" x="805" y="947.0088">Room</text><rect fill="#E2E2F0" height="32.6211" rx="2.5" ry="2.5" style="stroke:#181818;stroke-width:0.5;" width="62" x="859" y="98.6748"/><text fill="#000000" font-family="sans-serif" font-size="14" lengthAdjust="spacing" textLength="48" x="866" y="120.7822">Mapper</text><rect fill="#E2E2F0" height="32.6211" rx="2.5" ry="2.5" style="stroke:#181818;stroke-width:0.5;" width="62" x="859" y="906.2803"/><text fill="#000000" font-family="sans-serif" font-size="14" lengthAdjust="spacing" textLength="48" x="866" y="928.3877">Mapper</text><rect fill="#E2E2F0" height="51.2422" rx="2.5" ry="2.5" style="stroke:#181818;stroke-width:0.5;" width="44" x="1010" y="906.2803"/><text fill="#000000" font-family="sans-serif" font-size="14" lengthAdjust="spacing" textLength="24" x="1020" y="928.3877">dto:</text><text fill="#000000" font-family="sans-serif" font-size="14" lengthAdjust="spacing" textLength="30" x="1017" y="947.0088">DTO</text><text fill="#000000" font-family="sans-serif" font-size="14" lengthAdjust="spacing" textLength="68" x="1064" y="128.7822">Repository</text><path d="M1083,77.6748 C1083,67.6748 1101,67.6748 1101,67.6748 C1101,67.6748 1119,67.6748 1119,77.6748 L1119,103.6748 C1119,113.6748 1101,113.6748 1101,113.6748 C1101,113.6748 1083,113.6748 1083,103.6748 L1083,77.6748 " fill="#E2E2F0" style="stroke:#181818;stroke-width:1.5;"/><path d="M1083,77.6748 C1083,87.6748 1101,87.6748 1101,87.6748 C1101,87.6748 1119,87.6748 1119,77.6748 " fill="none" style="stroke:#181818;stroke-width:1.5;"/><text fill="#000000" font-family="sans-serif" font-size="14" lengthAdjust="spacing" textLength="68" x="1064" y="921.3877">Repository</text><path d="M1083,934.9014 C1083,924.9014 1101,924.9014 1101,924.9014 C1101,924.9014 1119,924.9014 1119,934.9014 L1119,960.9014 C1119,970.9014 1101,970.9014 1101,970.9014 C1101,970.9014 1083,970.9014 1083,960.9014 L1083,934.9014 " fill="#E2E2F0" style="stroke:#181818;stroke-width:1.5;"/><path d="M1083,934.9014 C1083,944.9014 1101,944.9014 1101,944.9014 C1101,944.9014 1119,944.9014 1119,934.9014 " fill="none" style="stroke:#181818;stroke-width:1.5;"/><rect fill="#FFFFFF" height="731.6934" style="stroke:#181818;stroke-width:1.0;" width="10" x="399" y="165.5869"/><rect fill="#FFFFFF" height="700.4023" style="stroke:#181818;stroke-width:1.0;" width="10" x="573" y="196.8779"/><rect fill="#FFFFFF" height="669.1113" style="stroke:#181818;stroke-width:1.0;" width="10" x="709" y="228.1689"/><rect fill="#FFFFFF" height="430.7344" style="stroke:#181818;stroke-width:1.0;" width="10" x="818.5" y="467.5459"/><rect fill="#FFFFFF" height="93.5332" style="stroke:#181818;stroke-width:1.0;" width="10" x="885" y="687.874"/><rect fill="#FFFFFF" height="52.2422" style="stroke:#181818;stroke-width:1.0;" width="10" x="1027" y="729.165"/><rect fill="#FFFFFF" height="30" style="stroke:#181818;stroke-width:1.0;" width="10" x="1096" y="259.46"/><rect fill="#FFFFFF" height="31.291" style="stroke:#181818;stroke-width:1.0;" width="10" x="1096" y="656.583"/><polygon fill="#181818" points="387,161.5869,397,165.5869,387,169.5869,391,165.5869" style="stroke:#181818;stroke-width:1.0;"/><line style="stroke:#181818;stroke-width:1.0;stroke-dasharray:2.0,2.0;" x1="55" x2="393" y1="165.5869" y2="165.5869"/><text fill="#000000" font-family="sans-serif" font-size="13" font-weight="bold" lengthAdjust="spacing" textLength="7" x="62" y="160.3242">1</text><text fill="#000000" font-family="sans-serif" font-size="13" lengthAdjust="spacing" textLength="314" x="73" y="160.3242">post (/buildings/{buildingId}/floors/{floorNumber}/rooms)</text><polygon fill="#181818" points="561,192.8779,571,196.8779,561,200.8779,565,196.8779" style="stroke:#181818;stroke-width:1.0;"/><line style="stroke:#181818;stroke-width:1.0;" x1="409" x2="567" y1="196.8779" y2="196.8779"/><text fill="#000000" font-family="sans-serif" font-size="13" font-weight="bold" lengthAdjust="spacing" textLength="7" x="416" y="191.6152">2</text><text fill="#000000" font-family="sans-serif" font-size="13" lengthAdjust="spacing" textLength="134" x="427" y="191.6152">createRoom(req,res,...)</text><polygon fill="#181818" points="697,224.1689,707,228.1689,697,232.1689,701,228.1689" style="stroke:#181818;stroke-width:1.0;"/><line style="stroke:#181818;stroke-width:1.0;" x1="583" x2="703" y1="228.1689" y2="228.1689"/><text fill="#000000" font-family="sans-serif" font-size="13" font-weight="bold" lengthAdjust="spacing" textLength="7" x="590" y="222.9063">3</text><text fill="#000000" font-family="sans-serif" font-size="13" lengthAdjust="spacing" textLength="96" x="601" y="222.9063">createRoom(dto)</text><polygon fill="#181818" points="1084,255.46,1094,259.46,1084,263.46,1088,259.46" style="stroke:#181818;stroke-width:1.0;"/><line style="stroke:#181818;stroke-width:1.0;" x1="719" x2="1090" y1="259.46" y2="259.46"/><text fill="#000000" font-family="sans-serif" font-size="13" font-weight="bold" lengthAdjust="spacing" textLength="7" x="726" y="254.1973">4</text><text fill="#000000" font-family="sans-serif" font-size="13" lengthAdjust="spacing" textLength="266" x="737" y="254.1973">findByCodeNumber(buildingCode,floorNumber)</text><path d="M20,304.46 L81,304.46 L81,313.751 L71,323.751 L20,323.751 L20,304.46 " fill="#EEEEEE" style="stroke:#000000;stroke-width:1.5;"/><rect fill="none" height="585.8203" style="stroke:#000000;stroke-width:1.5;" width="1138" x="20" y="304.46"/><text fill="#000000" font-family="sans-serif" font-size="13" font-weight="bold" lengthAdjust="spacing" textLength="16" x="35" y="319.4883">alt</text><text fill="#000000" font-family="sans-serif" font-size="11" font-weight="bold" lengthAdjust="spacing" textLength="90" x="96" y="318.3301">[floor not found]</text><polygon fill="#181818" points="594,343.042,584,347.042,594,351.042,590,347.042" style="stroke:#181818;stroke-width:1.0;"/><line style="stroke:#181818;stroke-width:1.0;stroke-dasharray:2.0,2.0;" x1="588" x2="708" y1="347.042" y2="347.042"/><text fill="#000000" font-family="sans-serif" font-size="13" font-weight="bold" lengthAdjust="spacing" textLength="7" x="600" y="341.7793">5</text><text fill="#000000" font-family="sans-serif" font-size="13" lengthAdjust="spacing" textLength="26" x="611" y="341.7793">error</text><polygon fill="#181818" points="420,374.333,410,378.333,420,382.333,416,378.333" style="stroke:#181818;stroke-width:1.0;"/><line style="stroke:#181818;stroke-width:1.0;stroke-dasharray:2.0,2.0;" x1="414" x2="572" y1="378.333" y2="378.333"/><text fill="#000000" font-family="sans-serif" font-size="13" font-weight="bold" lengthAdjust="spacing" textLength="7" x="426" y="373.0703">6</text><text fill="#000000" font-family="sans-serif" font-size="13" lengthAdjust="spacing" textLength="59" x="437" y="373.0703">error (412)</text><polygon fill="#181818" points="66,405.624,56,409.624,66,413.624,62,409.624" style="stroke:#181818;stroke-width:1.0;"/><line style="stroke:#181818;stroke-width:1.0;stroke-dasharray:2.0,2.0;" x1="60" x2="398" y1="409.624" y2="409.624"/><text fill="#000000" font-family="sans-serif" font-size="13" font-weight="bold" lengthAdjust="spacing" textLength="7" x="72" y="404.3613">7</text><text fill="#000000" font-family="sans-serif" font-size="13" lengthAdjust="spacing" textLength="140" x="83" y="404.3613">412: Precondition Failed</text><line style="stroke:#000000;stroke-width:1.0;stroke-dasharray:2.0,2.0;" x1="20" x2="1158" y1="418.624" y2="418.624"/><text fill="#000000" font-family="sans-serif" font-size="11" font-weight="bold" lengthAdjust="spacing" textLength="69" x="25" y="430.4941">[floor found]</text><polygon fill="#181818" points="786,453.5459,796,457.5459,786,461.5459,790,457.5459" style="stroke:#181818;stroke-width:1.0;"/><line style="stroke:#181818;stroke-width:1.0;stroke-dasharray:2.0,2.0;" x1="719" x2="792" y1="457.5459" y2="457.5459"/><text fill="#000000" font-family="sans-serif" font-size="13" font-weight="bold" lengthAdjust="spacing" textLength="7" x="726" y="452.2832">8</text><text fill="#000000" font-family="sans-serif" font-size="13" lengthAdjust="spacing" textLength="44" x="737" y="452.2832">create()</text><rect fill="#E2E2F0" height="51.2422" rx="2.5" ry="2.5" style="stroke:#181818;stroke-width:0.5;" width="51" x="798" y="434.2549"/><text fill="#000000" font-family="sans-serif" font-size="14" lengthAdjust="spacing" textLength="36" x="805.5" y="456.3623">room:</text><text fill="#000000" font-family="sans-serif" font-size="14" lengthAdjust="spacing" textLength="37" x="805" y="474.9834">Room</text><path d="M30,503.4971 L91,503.4971 L91,512.7881 L81,522.7881 L30,522.7881 L30,503.4971 " fill="#EEEEEE" style="stroke:#000000;stroke-width:1.5;"/><rect fill="none" height="379.7832" style="stroke:#000000;stroke-width:1.5;" width="1118" x="30" y="503.4971"/><text fill="#000000" font-family="sans-serif" font-size="13" font-weight="bold" lengthAdjust="spacing" textLength="16" x="45" y="518.5254">alt</text><text fill="#000000" font-family="sans-serif" font-size="11" font-weight="bold" lengthAdjust="spacing" textLength="104" x="106" y="517.3672">[room not created]</text><polygon fill="#181818" points="594,542.0791,584,546.0791,594,550.0791,590,546.0791" style="stroke:#181818;stroke-width:1.0;"/><line style="stroke:#181818;stroke-width:1.0;stroke-dasharray:2.0,2.0;" x1="588" x2="708" y1="546.0791" y2="546.0791"/><text fill="#000000" font-family="sans-serif" font-size="13" font-weight="bold" lengthAdjust="spacing" textLength="7" x="600" y="540.8164">9</text><text fill="#000000" font-family="sans-serif" font-size="13" lengthAdjust="spacing" textLength="26" x="611" y="540.8164">error</text><polygon fill="#181818" points="420,573.3701,410,577.3701,420,581.3701,416,577.3701" style="stroke:#181818;stroke-width:1.0;"/><line style="stroke:#181818;stroke-width:1.0;stroke-dasharray:2.0,2.0;" x1="414" x2="572" y1="577.3701" y2="577.3701"/><text fill="#000000" font-family="sans-serif" font-size="13" font-weight="bold" lengthAdjust="spacing" textLength="14" x="426" y="572.1074">10</text><text fill="#000000" font-family="sans-serif" font-size="13" lengthAdjust="spacing" textLength="59" x="444" y="572.1074">error (422)</text><polygon fill="#181818" points="66,604.6611,56,608.6611,66,612.6611,62,608.6611" style="stroke:#181818;stroke-width:1.0;"/><line style="stroke:#181818;stroke-width:1.0;stroke-dasharray:2.0,2.0;" x1="60" x2="398" y1="608.6611" y2="608.6611"/><text fill="#000000" font-family="sans-serif" font-size="13" font-weight="bold" lengthAdjust="spacing" textLength="14" x="72" y="603.3984">11</text><text fill="#000000" font-family="sans-serif" font-size="13" lengthAdjust="spacing" textLength="164" x="90" y="603.3984">422: Unprocessable Content</text><line style="stroke:#000000;stroke-width:1.0;stroke-dasharray:2.0,2.0;" x1="30" x2="1148" y1="617.6611" y2="617.6611"/><text fill="#000000" font-family="sans-serif" font-size="11" font-weight="bold" lengthAdjust="spacing" textLength="156" x="35" y="629.5313">[room created successfully]</text><polygon fill="#181818" points="1084,652.583,1094,656.583,1084,660.583,1088,656.583" style="stroke:#181818;stroke-width:1.0;"/><line style="stroke:#181818;stroke-width:1.0;" x1="719" x2="1090" y1="656.583" y2="656.583"/><text fill="#000000" font-family="sans-serif" font-size="13" font-weight="bold" lengthAdjust="spacing" textLength="14" x="726" y="651.3203">12</text><text fill="#000000" font-family="sans-serif" font-size="13" lengthAdjust="spacing" textLength="63" x="744" y="651.3203">save(room)</text><polygon fill="#181818" points="873,683.874,883,687.874,873,691.874,877,687.874" style="stroke:#181818;stroke-width:1.0;"/><line style="stroke:#181818;stroke-width:1.0;" x1="719" x2="879" y1="687.874" y2="687.874"/><text fill="#000000" font-family="sans-serif" font-size="13" font-weight="bold" lengthAdjust="spacing" textLength="14" x="726" y="682.6113">13</text><text fill="#000000" font-family="sans-serif" font-size="13" lengthAdjust="spacing" textLength="74" x="744" y="682.6113">toDTO(room)</text><polygon fill="#181818" points="998,715.165,1008,719.165,998,723.165,1002,719.165" style="stroke:#181818;stroke-width:1.0;"/><line style="stroke:#181818;stroke-width:1.0;stroke-dasharray:2.0,2.0;" x1="895" x2="1004" y1="719.165" y2="719.165"/><text fill="#000000" font-family="sans-serif" font-size="13" font-weight="bold" lengthAdjust="spacing" textLength="14" x="902" y="713.9023">14</text><text fill="#000000" font-family="sans-serif" font-size="13" lengthAdjust="spacing" textLength="73" x="920" y="713.9023">create(room)</text><rect fill="#E2E2F0" height="51.2422" rx="2.5" ry="2.5" style="stroke:#181818;stroke-width:0.5;" width="44" x="1010" y="695.874"/><text fill="#000000" font-family="sans-serif" font-size="14" lengthAdjust="spacing" textLength="24" x="1020" y="717.9814">dto:</text><text fill="#000000" font-family="sans-serif" font-size="14" lengthAdjust="spacing" textLength="30" x="1017" y="736.6025">DTO</text><polygon fill="#181818" points="730,777.4072,720,781.4072,730,785.4072,726,781.4072" style="stroke:#181818;stroke-width:1.0;"/><line style="stroke:#181818;stroke-width:1.0;stroke-dasharray:2.0,2.0;" x1="724" x2="889" y1="781.4072" y2="781.4072"/><text fill="#000000" font-family="sans-serif" font-size="13" font-weight="bold" lengthAdjust="spacing" textLength="14" x="736" y="776.1445">15</text><text fill="#000000" font-family="sans-serif" font-size="13" lengthAdjust="spacing" textLength="18" x="754" y="776.1445">dto</text><polygon fill="#181818" points="594,808.6982,584,812.6982,594,816.6982,590,812.6982" style="stroke:#181818;stroke-width:1.0;"/><line style="stroke:#181818;stroke-width:1.0;stroke-dasharray:2.0,2.0;" x1="588" x2="708" y1="812.6982" y2="812.6982"/><text fill="#000000" font-family="sans-serif" font-size="13" font-weight="bold" lengthAdjust="spacing" textLength="14" x="600" y="807.4355">16</text><text fill="#000000" font-family="sans-serif" font-size="13" lengthAdjust="spacing" textLength="18" x="618" y="807.4355">dto</text><polygon fill="#181818" points="420,839.9893,410,843.9893,420,847.9893,416,843.9893" style="stroke:#181818;stroke-width:1.0;"/><line style="stroke:#181818;stroke-width:1.0;stroke-dasharray:2.0,2.0;" x1="414" x2="572" y1="843.9893" y2="843.9893"/><text fill="#000000" font-family="sans-serif" font-size="13" font-weight="bold" lengthAdjust="spacing" textLength="14" x="426" y="838.7266">17</text><text fill="#000000" font-family="sans-serif" font-size="13" lengthAdjust="spacing" textLength="51" x="444" y="838.7266">dto (201)</text><polygon fill="#181818" points="66,871.2803,56,875.2803,66,879.2803,62,875.2803" style="stroke:#181818;stroke-width:1.0;"/><line style="stroke:#181818;stroke-width:1.0;stroke-dasharray:2.0,2.0;" x1="60" x2="398" y1="875.2803" y2="875.2803"/><text fill="#000000" font-family="sans-serif" font-size="13" font-weight="bold" lengthAdjust="spacing" textLength="14" x="72" y="870.0176">18</text><text fill="#000000" font-family="sans-serif" font-size="13" lengthAdjust="spacing" textLength="74" x="90" y="870.0176">201: Created</text><!--SRC=[bLLDZzCm4BtxLupA9LdrWwquvS1ARK52OW4jousB6qyN2zSEjbDHeVtlZ9qqJRfDqvrB7FlDntiPJtZfZIwtQxIC5TnwcSk2Qm-ZkxiHS0UbP6pBfTvOlaMuNx6r-GkZ1Sz_JpveCO8td-NJBxzG9NRT7qpfCKQmtOEbqTuQfT36qznRrGLyHxkJUUNhTlb9MTQORVPJFz2ZYawBBkAU5qKTVCkBxfdmXfnNZr_ZCRqnr0A84gjuhRZdQ-vmn4Iz8YPO62UziVig8RqUlKe9aybxi1aGo4CoMvTI2QcVtEpVOVb9FCysoXXBU_7v9UhzF0krkvG16S-zt76Ff1RKPe421taWWzmY7GRIYSK_OujkF9rEqmRRk4SveMKn00KY9RjnY7pQGJOnWkXmOi4zy2Jo56OZjLZibqPWHIKvK0rRunR7z4MW8z6Wu-cfmEvvC3XZN7c8QK0RMfbIYxEuflIZb6YjiRtWIgx0z025vDtjFErri15DRP01uJBuPZ4tMaWlZOQFN2eyNnagwgsAmdNbXsQvkMc-OPAoNfUZXk5ozA7QMWTSVpWIEo2YrbNs_d9VhNYlwlCBgfygFoVbV-Z2cXoTusk54COCQj_FAdw0IAkc1AxCW_kcL6e_pA-v38xlC0c1BdoHuSxloK4JZ59uGoEhpd79wSNrkQgUC2M7oWbr1BbfQhIRSBYaJgOmSE4AEsIhXjOrNYtcG_0MD31_JISFXUxqCO4XcR-zlRgB2Pl1ihvVvuV6cJbnkjUYrnxahUtc7z5k5_OV]--></g></svg>