<?xml version="1.0" encoding="us-ascii" standalone="no"?><svg xmlns="http://www.w3.org/2000/svg" xmlns:xlink="http://www.w3.org/1999/xlink" contentStyleType="text/css" height="450px" preserveAspectRatio="none" style="width:260px;height:450px;background:#FFFFFF;" version="1.1" viewBox="0 0 260 450" width="260px" zoomAndPan="magnify"><defs/><g><rect fill="#FFFFFF" height="330.8516" style="stroke:#181818;stroke-width:1.0;" width="10" x="201" y="71.9121"/><rect fill="none" height="308.8516" style="stroke:#000000;stroke-width:1.5;" width="250.5" x="3" y="86.9121"/><rect fill="none" height="179.7168" style="stroke:#000000;stroke-width:1.5;" width="240.5" x="3" y="209.0469"/><rect fill="none" height="98.5039" style="stroke:#000000;stroke-width:1.5;" width="230.5" x="3" y="283.2598"/><line style="stroke:#181818;stroke-width:0.5;stroke-dasharray:5.0,5.0;" x1="205.5" x2="205.5" y1="38.6211" y2="412.7637"/><rect fill="#E2E2F0" height="32.6211" rx="2.5" ry="2.5" style="stroke:#181818;stroke-width:0.5;" width="35" x="188.5" y="5"/><text fill="#000000" font-family="sans-serif" font-size="14" lengthAdjust="spacing" textLength="21" x="195.5" y="27.1074">MD</text><rect fill="#E2E2F0" height="32.6211" rx="2.5" ry="2.5" style="stroke:#181818;stroke-width:0.5;" width="35" x="188.5" y="411.7637"/><text fill="#000000" font-family="sans-serif" font-size="14" lengthAdjust="spacing" textLength="21" x="195.5" y="433.8711">MD</text><rect fill="#FFFFFF" height="330.8516" style="stroke:#181818;stroke-width:1.0;" width="10" x="201" y="71.9121"/><polygon fill="#181818" points="189,67.9121,199,71.9121,189,75.9121,193,71.9121" style="stroke:#181818;stroke-width:1.0;"/><line style="stroke:#181818;stroke-width:1.0;" x1="0" x2="195" y1="71.9121" y2="71.9121"/><text fill="#000000" font-family="sans-serif" font-size="13" font-weight="bold" lengthAdjust="spacing" textLength="7" x="7" y="66.6494">1</text><text fill="#000000" font-family="sans-serif" font-size="13" lengthAdjust="spacing" textLength="104" x="18" y="66.6494">POST /robottypes</text><path d="M3,86.9121 L64,86.9121 L64,96.2031 L54,106.2031 L3,106.2031 L3,86.9121 " fill="#EEEEEE" style="stroke:#000000;stroke-width:1.5;"/><rect fill="none" height="308.8516" style="stroke:#000000;stroke-width:1.5;" width="250.5" x="3" y="86.9121"/><text fill="#000000" font-family="sans-serif" font-size="13" font-weight="bold" lengthAdjust="spacing" textLength="16" x="18" y="101.9404">alt</text><text fill="#000000" font-family="sans-serif" font-size="11" font-weight="bold" lengthAdjust="spacing" textLength="82" x="79" y="100.7822">[unkown user]</text><polygon fill="#181818" points="11,125.4941,1,129.4941,11,133.4941,7,129.4941" style="stroke:#181818;stroke-width:1.0;"/><line style="stroke:#181818;stroke-width:1.0;stroke-dasharray:2.0,2.0;" x1="5" x2="200" y1="129.4941" y2="129.4941"/><text fill="#000000" font-family="sans-serif" font-size="13" font-weight="bold" lengthAdjust="spacing" textLength="7" x="17" y="124.2314">2</text><text fill="#000000" font-family="sans-serif" font-size="13" lengthAdjust="spacing" textLength="105" x="28" y="124.2314">401: Unauthorized</text><line style="stroke:#000000;stroke-width:1.0;stroke-dasharray:2.0,2.0;" x1="3" x2="253.5" y1="138.4941" y2="138.4941"/><text fill="#000000" font-family="sans-serif" font-size="11" font-weight="bold" lengthAdjust="spacing" textLength="110" x="8" y="150.3643">[user not autorized]</text><polygon fill="#181818" points="11,173.416,1,177.416,11,181.416,7,177.416" style="stroke:#181818;stroke-width:1.0;"/><line style="stroke:#181818;stroke-width:1.0;stroke-dasharray:2.0,2.0;" x1="5" x2="200" y1="177.416" y2="177.416"/><text fill="#000000" font-family="sans-serif" font-size="13" font-weight="bold" lengthAdjust="spacing" textLength="7" x="17" y="172.1533">3</text><text fill="#000000" font-family="sans-serif" font-size="13" lengthAdjust="spacing" textLength="86" x="28" y="172.1533">403: Forbidden</text><line style="stroke:#000000;stroke-width:1.0;stroke-dasharray:2.0,2.0;" x1="3" x2="253.5" y1="186.416" y2="186.416"/><text fill="#000000" font-family="sans-serif" font-size="11" font-weight="bold" lengthAdjust="spacing" textLength="96" x="8" y="198.2861">[user authorized]</text><path d="M3,209.0469 L64,209.0469 L64,218.3379 L54,228.3379 L3,228.3379 L3,209.0469 " fill="#EEEEEE" style="stroke:#000000;stroke-width:1.5;"/><rect fill="none" height="179.7168" style="stroke:#000000;stroke-width:1.5;" width="240.5" x="3" y="209.0469"/><text fill="#000000" font-family="sans-serif" font-size="13" font-weight="bold" lengthAdjust="spacing" textLength="16" x="18" y="224.0752">alt</text><text fill="#000000" font-family="sans-serif" font-size="11" font-weight="bold" lengthAdjust="spacing" textLength="135" x="79" y="222.917">[robttype already exists]</text><polygon fill="#181818" points="11,247.6289,1,251.6289,11,255.6289,7,251.6289" style="stroke:#181818;stroke-width:1.0;"/><line style="stroke:#181818;stroke-width:1.0;stroke-dasharray:2.0,2.0;" x1="5" x2="200" y1="251.6289" y2="251.6289"/><text fill="#000000" font-family="sans-serif" font-size="13" font-weight="bold" lengthAdjust="spacing" textLength="7" x="17" y="246.3662">4</text><text fill="#000000" font-family="sans-serif" font-size="13" lengthAdjust="spacing" textLength="135" x="28" y="246.3662">412: Precondition failed</text><line style="stroke:#000000;stroke-width:1.0;stroke-dasharray:2.0,2.0;" x1="3" x2="243.5" y1="260.6289" y2="260.6289"/><text fill="#000000" font-family="sans-serif" font-size="11" font-weight="bold" lengthAdjust="spacing" textLength="121" x="8" y="272.499">[robot type not found]</text><path d="M3,283.2598 L64,283.2598 L64,292.5508 L54,302.5508 L3,302.5508 L3,283.2598 " fill="#EEEEEE" style="stroke:#000000;stroke-width:1.5;"/><rect fill="none" height="98.5039" style="stroke:#000000;stroke-width:1.5;" width="230.5" x="3" y="283.2598"/><text fill="#000000" font-family="sans-serif" font-size="13" font-weight="bold" lengthAdjust="spacing" textLength="16" x="18" y="298.2881">alt</text><text fill="#000000" font-family="sans-serif" font-size="11" font-weight="bold" lengthAdjust="spacing" textLength="131" x="79" y="297.1299">[robot type not created]</text><polygon fill="#181818" points="11,321.8418,1,325.8418,11,329.8418,7,325.8418" style="stroke:#181818;stroke-width:1.0;"/><line style="stroke:#181818;stroke-width:1.0;stroke-dasharray:2.0,2.0;" x1="5" x2="200" y1="325.8418" y2="325.8418"/><text fill="#000000" font-family="sans-serif" font-size="13" font-weight="bold" lengthAdjust="spacing" textLength="7" x="17" y="320.5791">5</text><text fill="#000000" font-family="sans-serif" font-size="13" lengthAdjust="spacing" textLength="164" x="28" y="320.5791">422: Unprocessable Content</text><line style="stroke:#000000;stroke-width:1.0;stroke-dasharray:2.0,2.0;" x1="3" x2="233.5" y1="334.8418" y2="334.8418"/><text fill="#000000" font-family="sans-serif" font-size="11" font-weight="bold" lengthAdjust="spacing" textLength="183" x="8" y="346.7119">[robot type created successfully]</text><polygon fill="#181818" points="11,369.7637,1,373.7637,11,377.7637,7,373.7637" style="stroke:#181818;stroke-width:1.0;"/><line style="stroke:#181818;stroke-width:1.0;stroke-dasharray:2.0,2.0;" x1="5" x2="200" y1="373.7637" y2="373.7637"/><text fill="#000000" font-family="sans-serif" font-size="13" font-weight="bold" lengthAdjust="spacing" textLength="7" x="17" y="368.501">6</text><text fill="#000000" font-family="sans-serif" font-size="13" lengthAdjust="spacing" textLength="74" x="28" y="368.501">201: Created</text><!--SRC=[TL71JiCm3BtdAwpTArZXL24kGzmGIC29Kvfu8bfcLua3bAydoJOeBUIIsC_l-TdHIPZIliUWrA23EEC6JGAhkviLw0Xxcm6b89-Nvhg47JpSFpx1MU2UHSO1um7MHjoR5goKcl02YNRyJf0Y7d9LvwffIX501vVdwmwUIITvvU0-qTOgz14h1uW5CZZ1bWeN7Tnow9srI3FwJBSuohQhwnm4r7O4_71Hua8xAw_RF6j0msITE2ROQkUd5kiAeAeLerjEz6Fos6nQO797cSoncALjopQ6m0PZrBr7s309adnJvdsFaX2JAPnjydxyLxyjszxyOG8dla_lqstnryygzGK0]--></g></svg>