<?xml version="1.0" encoding="us-ascii" standalone="no"?><svg xmlns="http://www.w3.org/2000/svg" xmlns:xlink="http://www.w3.org/1999/xlink" contentStyleType="text/css" height="1317px" preserveAspectRatio="none" style="width:1524px;height:1317px;background:#FFFFFF;" version="1.1" viewBox="0 0 1524 1317" width="1524px" zoomAndPan="magnify"><defs/><g><!--cluster system--><g id="cluster_system"><path d="M8.5,6 L61.5,6 A3.75,3.75 0 0 1 64,8.5 L71,28.4883 L1514.5,28.4883 A2.5,2.5 0 0 1 1517,30.9883 L1517,1307.88 A2.5,2.5 0 0 1 1514.5,1310.38 L8.5,1310.38 A2.5,2.5 0 0 1 6,1307.88 L6,8.5 A2.5,2.5 0 0 1 8.5,6 " fill="none" style="stroke:#000000;stroke-width:1.5;"/><line style="stroke:#000000;stroke-width:1.5;" x1="6" x2="71" y1="28.4883" y2="28.4883"/><text fill="#000000" font-family="sans-serif" font-size="14" font-weight="bold" lengthAdjust="spacing" textLength="52" x="10" y="21.5352">system</text></g><!--cluster Infrastructure--><g id="cluster_Infrastructure"><path d="M284.5,49 L384.5,49 A3.75,3.75 0 0 1 387,51.5 L394,71.4883 L764.5,71.4883 A2.5,2.5 0 0 1 767,73.9883 L767,212.5 A2.5,2.5 0 0 1 764.5,215 L284.5,215 A2.5,2.5 0 0 1 282,212.5 L282,51.5 A2.5,2.5 0 0 1 284.5,49 " fill="none" style="stroke:#000000;stroke-width:1.5;"/><line style="stroke:#000000;stroke-width:1.5;" x1="282" x2="394" y1="71.4883" y2="71.4883"/><text fill="#000000" font-family="sans-serif" font-size="14" font-weight="bold" lengthAdjust="spacing" textLength="99" x="286" y="64.5352">Infrastructure</text></g><!--cluster Routes--><g id="cluster_Routes"><path d="M585.5,92 L636.5,92 A3.75,3.75 0 0 1 639,94.5 L646,114.4883 L740.5,114.4883 A2.5,2.5 0 0 1 743,116.9883 L743,188.5 A2.5,2.5 0 0 1 740.5,191 L585.5,191 A2.5,2.5 0 0 1 583,188.5 L583,94.5 A2.5,2.5 0 0 1 585.5,92 " fill="none" style="stroke:#000000;stroke-width:1.5;"/><line style="stroke:#000000;stroke-width:1.5;" x1="583" x2="646" y1="114.4883" y2="114.4883"/><text fill="#000000" font-family="sans-serif" font-size="14" font-weight="bold" lengthAdjust="spacing" textLength="50" x="587" y="107.5352">Routes</text></g><!--cluster Persistence--><g id="cluster_Persistence"><path d="M308.5,92 L391.5,92 A3.75,3.75 0 0 1 394,94.5 L401,114.4883 L556.5,114.4883 A2.5,2.5 0 0 1 559,116.9883 L559,188.5 A2.5,2.5 0 0 1 556.5,191 L308.5,191 A2.5,2.5 0 0 1 306,188.5 L306,94.5 A2.5,2.5 0 0 1 308.5,92 " fill="none" style="stroke:#000000;stroke-width:1.5;"/><line style="stroke:#000000;stroke-width:1.5;" x1="306" x2="401" y1="114.4883" y2="114.4883"/><text fill="#000000" font-family="sans-serif" font-size="14" font-weight="bold" lengthAdjust="spacing" textLength="82" x="310" y="107.5352">Persistence</text></g><!--cluster Interface Adapters--><g id="cluster_Interface Adapters"><path d="M32.5,239 L165.5,239 A3.75,3.75 0 0 1 168,241.5 L175,261.4883 L614.5,261.4883 A2.5,2.5 0 0 1 617,263.9883 L617,678.5 A2.5,2.5 0 0 1 614.5,681 L32.5,681 A2.5,2.5 0 0 1 30,678.5 L30,241.5 A2.5,2.5 0 0 1 32.5,239 " fill="none" style="stroke:#000000;stroke-width:1.5;"/><line style="stroke:#000000;stroke-width:1.5;" x1="30" x2="175" y1="261.4883" y2="261.4883"/><text fill="#000000" font-family="sans-serif" font-size="14" font-weight="bold" lengthAdjust="spacing" textLength="132" x="34" y="254.5352">Interface Adapters</text></g><!--cluster Controllers--><g id="cluster_Controllers"><path d="M56.5,282 L138.5,282 A3.75,3.75 0 0 1 141,284.5 L148,304.4883 L273.5,304.4883 A2.5,2.5 0 0 1 276,306.9883 L276,654.5 A2.5,2.5 0 0 1 273.5,657 L56.5,657 A2.5,2.5 0 0 1 54,654.5 L54,284.5 A2.5,2.5 0 0 1 56.5,282 " fill="none" style="stroke:#000000;stroke-width:1.5;"/><line style="stroke:#000000;stroke-width:1.5;" x1="54" x2="148" y1="304.4883" y2="304.4883"/><text fill="#000000" font-family="sans-serif" font-size="14" font-weight="bold" lengthAdjust="spacing" textLength="81" x="58" y="297.5352">Controllers</text></g><!--cluster IControllers--><g id="cluster_IControllers"><path d="M80.5,325 L167.5,325 A3.75,3.75 0 0 1 170,327.5 L177,347.4883 L249.5,347.4883 A2.5,2.5 0 0 1 252,349.9883 L252,421.5 A2.5,2.5 0 0 1 249.5,424 L80.5,424 A2.5,2.5 0 0 1 78,421.5 L78,327.5 A2.5,2.5 0 0 1 80.5,325 " fill="none" style="stroke:#000000;stroke-width:1.5;"/><line style="stroke:#000000;stroke-width:1.5;" x1="78" x2="177" y1="347.4883" y2="347.4883"/><text fill="#000000" font-family="sans-serif" font-size="14" font-weight="bold" lengthAdjust="spacing" textLength="86" x="82" y="340.5352">IControllers</text></g><!--cluster ImplControllers--><g id="cluster_ImplControllers"><path d="M84.5,534 L199.5,534 A3.75,3.75 0 0 1 202,536.5 L209,556.4883 L249.5,556.4883 A2.5,2.5 0 0 1 252,558.9883 L252,630.5 A2.5,2.5 0 0 1 249.5,633 L84.5,633 A2.5,2.5 0 0 1 82,630.5 L82,536.5 A2.5,2.5 0 0 1 84.5,534 " fill="none" style="stroke:#000000;stroke-width:1.5;"/><line style="stroke:#000000;stroke-width:1.5;" x1="82" x2="209" y1="556.4883" y2="556.4883"/><text fill="#000000" font-family="sans-serif" font-size="14" font-weight="bold" lengthAdjust="spacing" textLength="114" x="86" y="549.5352">ImplControllers</text></g><!--cluster Repositories--><g id="cluster_Repositories"><path d="M302.5,325 L394.5,325 A3.75,3.75 0 0 1 397,327.5 L404,347.4883 L590.5,347.4883 A2.5,2.5 0 0 1 593,349.9883 L593,421.5 A2.5,2.5 0 0 1 590.5,424 L302.5,424 A2.5,2.5 0 0 1 300,421.5 L300,327.5 A2.5,2.5 0 0 1 302.5,325 " fill="none" style="stroke:#000000;stroke-width:1.5;"/><line style="stroke:#000000;stroke-width:1.5;" x1="300" x2="404" y1="347.4883" y2="347.4883"/><text fill="#000000" font-family="sans-serif" font-size="14" font-weight="bold" lengthAdjust="spacing" textLength="91" x="304" y="340.5352">Repositories</text></g><!--cluster Application Services--><g id="cluster_Application Services"><path d="M643.5,448 L789.5,448 A3.75,3.75 0 0 1 792,450.5 L799,470.4883 L1035.5,470.4883 A2.5,2.5 0 0 1 1038,472.9883 L1038,1069.88 A2.5,2.5 0 0 1 1035.5,1072.38 L643.5,1072.38 A2.5,2.5 0 0 1 641,1069.88 L641,450.5 A2.5,2.5 0 0 1 643.5,448 " fill="none" style="stroke:#000000;stroke-width:1.5;"/><line style="stroke:#000000;stroke-width:1.5;" x1="641" x2="799" y1="470.4883" y2="470.4883"/><text fill="#000000" font-family="sans-serif" font-size="14" font-weight="bold" lengthAdjust="spacing" textLength="145" x="645" y="463.5352">Application Services</text></g><!--cluster App Services--><g id="cluster_App Services"><path d="M667.5,491 L759.5,491 A3.75,3.75 0 0 1 762,493.5 L769,513.4883 L1011.5,513.4883 A2.5,2.5 0 0 1 1014,515.9883 L1014,1045.88 A2.5,2.5 0 0 1 1011.5,1048.38 L667.5,1048.38 A2.5,2.5 0 0 1 665,1045.88 L665,493.5 A2.5,2.5 0 0 1 667.5,491 " fill="none" style="stroke:#000000;stroke-width:1.5;"/><line style="stroke:#000000;stroke-width:1.5;" x1="665" x2="769" y1="513.4883" y2="513.4883"/><text fill="#000000" font-family="sans-serif" font-size="14" font-weight="bold" lengthAdjust="spacing" textLength="91" x="669" y="506.5352">App Services</text></g><!--cluster IAppServices--><g id="cluster_IAppServices"><path d="M691.5,925.38 L783.5,925.38 A3.75,3.75 0 0 1 786,927.88 L793,947.8683 L866.5,947.8683 A2.5,2.5 0 0 1 869,950.3683 L869,1021.88 A2.5,2.5 0 0 1 866.5,1024.38 L691.5,1024.38 A2.5,2.5 0 0 1 689,1021.88 L689,927.88 A2.5,2.5 0 0 1 691.5,925.38 " fill="none" style="stroke:#000000;stroke-width:1.5;"/><line style="stroke:#000000;stroke-width:1.5;" x1="689" x2="793" y1="947.8683" y2="947.8683"/><text fill="#000000" font-family="sans-serif" font-size="14" font-weight="bold" lengthAdjust="spacing" textLength="91" x="693" y="940.9152">IAppServices</text></g><!--cluster ImplAppServices--><g id="cluster_ImplAppServices"><path d="M693.5,705 L813.5,705 A3.75,3.75 0 0 1 816,707.5 L823,727.4883 L864.5,727.4883 A2.5,2.5 0 0 1 867,729.9883 L867,801.5 A2.5,2.5 0 0 1 864.5,804 L693.5,804 A2.5,2.5 0 0 1 691,801.5 L691,707.5 A2.5,2.5 0 0 1 693.5,705 " fill="none" style="stroke:#000000;stroke-width:1.5;"/><line style="stroke:#000000;stroke-width:1.5;" x1="691" x2="823" y1="727.4883" y2="727.4883"/><text fill="#000000" font-family="sans-serif" font-size="14" font-weight="bold" lengthAdjust="spacing" textLength="119" x="695" y="720.5352">ImplAppServices</text></g><!--cluster IRepositories--><g id="cluster_IRepositories"><path d="M691.5,534 L788.5,534 A3.75,3.75 0 0 1 791,536.5 L798,556.4883 L987.5,556.4883 A2.5,2.5 0 0 1 990,558.9883 L990,630.5 A2.5,2.5 0 0 1 987.5,633 L691.5,633 A2.5,2.5 0 0 1 689,630.5 L689,536.5 A2.5,2.5 0 0 1 691.5,534 " fill="none" style="stroke:#000000;stroke-width:1.5;"/><line style="stroke:#000000;stroke-width:1.5;" x1="689" x2="798" y1="556.4883" y2="556.4883"/><text fill="#000000" font-family="sans-serif" font-size="14" font-weight="bold" lengthAdjust="spacing" textLength="96" x="693" y="549.5352">IRepositories</text></g><!--cluster p_DTO--><g id="cluster_p_DTO"><path d="M347.5,925.38 L381.5,925.38 A3.75,3.75 0 0 1 384,927.88 L391,947.8683 L524.5,947.8683 A2.5,2.5 0 0 1 527,950.3683 L527,1021.88 A2.5,2.5 0 0 1 524.5,1024.38 L347.5,1024.38 A2.5,2.5 0 0 1 345,1021.88 L345,927.88 A2.5,2.5 0 0 1 347.5,925.38 " fill="none" style="stroke:#000000;stroke-width:1.5;"/><line style="stroke:#000000;stroke-width:1.5;" x1="345" x2="391" y1="947.8683" y2="947.8683"/><text fill="#000000" font-family="sans-serif" font-size="14" font-weight="bold" lengthAdjust="spacing" textLength="33" x="349" y="940.9152">DTO</text></g><!--cluster Entities/Core/Domain--><g id="cluster_Entities/Core/Domain"><path d="M1064.5,828 L1225.5,828 A3.75,3.75 0 0 1 1228,830.5 L1235,850.4883 L1490.5,850.4883 A2.5,2.5 0 0 1 1493,852.9883 L1493,1283.88 A2.5,2.5 0 0 1 1490.5,1286.38 L1064.5,1286.38 A2.5,2.5 0 0 1 1062,1283.88 L1062,830.5 A2.5,2.5 0 0 1 1064.5,828 " fill="none" style="stroke:#000000;stroke-width:1.5;"/><line style="stroke:#000000;stroke-width:1.5;" x1="1062" x2="1235" y1="850.4883" y2="850.4883"/><text fill="#000000" font-family="sans-serif" font-size="14" font-weight="bold" lengthAdjust="spacing" textLength="160" x="1066" y="843.5352">Entities/Core/Domain</text></g><!--cluster Aggregates--><g id="cluster_Aggregates"><path d="M1114.5,871 L1196.5,871 A3.75,3.75 0 0 1 1199,873.5 L1206,893.4883 L1403.5,893.4883 A2.5,2.5 0 0 1 1406,895.9883 L1406,1057.26 A2.5,2.5 0 0 1 1403.5,1059.76 L1114.5,1059.76 A2.5,2.5 0 0 1 1112,1057.26 L1112,873.5 A2.5,2.5 0 0 1 1114.5,871 " fill="none" style="stroke:#000000;stroke-width:1.5;"/><line style="stroke:#000000;stroke-width:1.5;" x1="1112" x2="1206" y1="893.4883" y2="893.4883"/><text fill="#000000" font-family="sans-serif" font-size="14" font-weight="bold" lengthAdjust="spacing" textLength="81" x="1116" y="886.5352">Aggregates</text></g><!--cluster a_building--><g id="cluster_a_building"><path d="M1264.5,914 L1325.5,914 A3.75,3.75 0 0 1 1328,916.5 L1335,936.4883 L1379.5,936.4883 A2.5,2.5 0 0 1 1382,938.9883 L1382,1033.26 A2.5,2.5 0 0 1 1379.5,1035.76 L1264.5,1035.76 A2.5,2.5 0 0 1 1262,1033.26 L1262,916.5 A2.5,2.5 0 0 1 1264.5,914 " fill="none" style="stroke:#000000;stroke-width:1.5;"/><line style="stroke:#000000;stroke-width:1.5;" x1="1262" x2="1335" y1="936.4883" y2="936.4883"/><text fill="#000000" font-family="sans-serif" font-size="14" font-weight="bold" lengthAdjust="spacing" textLength="60" x="1266" y="929.5352">Building</text></g><!--cluster a_floor--><g id="cluster_a_floor"><path d="M1138.5,914 L1176.5,914 A3.75,3.75 0 0 1 1179,916.5 L1186,936.4883 L1235.5,936.4883 A2.5,2.5 0 0 1 1238,938.9883 L1238,1033.26 A2.5,2.5 0 0 1 1235.5,1035.76 L1138.5,1035.76 A2.5,2.5 0 0 1 1136,1033.26 L1136,916.5 A2.5,2.5 0 0 1 1138.5,914 " fill="none" style="stroke:#000000;stroke-width:1.5;"/><line style="stroke:#000000;stroke-width:1.5;" x1="1136" x2="1186" y1="936.4883" y2="936.4883"/><text fill="#000000" font-family="sans-serif" font-size="14" font-weight="bold" lengthAdjust="spacing" textLength="37" x="1140" y="929.5352">Floor</text></g><!--cluster Value Objects--><g id="cluster_Value Objects"><path d="M1088.5,1096.38 L1189.5,1096.38 A3.75,3.75 0 0 1 1192,1098.88 L1199,1118.8683 L1466.5,1118.8683 A2.5,2.5 0 0 1 1469,1121.3683 L1469,1259.88 A2.5,2.5 0 0 1 1466.5,1262.38 L1088.5,1262.38 A2.5,2.5 0 0 1 1086,1259.88 L1086,1098.88 A2.5,2.5 0 0 1 1088.5,1096.38 " fill="none" style="stroke:#000000;stroke-width:1.5;"/><line style="stroke:#000000;stroke-width:1.5;" x1="1086" x2="1199" y1="1118.8683" y2="1118.8683"/><text fill="#000000" font-family="sans-serif" font-size="14" font-weight="bold" lengthAdjust="spacing" textLength="100" x="1090" y="1111.9152">Value Objects</text></g><!--cluster vo_floor--><g id="cluster_vo_floor"><path d="M1112.5,1139.38 L1150.5,1139.38 A3.75,3.75 0 0 1 1153,1141.88 L1160,1161.8683 L1442.5,1161.8683 A2.5,2.5 0 0 1 1445,1164.3683 L1445,1235.88 A2.5,2.5 0 0 1 1442.5,1238.38 L1112.5,1238.38 A2.5,2.5 0 0 1 1110,1235.88 L1110,1141.88 A2.5,2.5 0 0 1 1112.5,1139.38 " fill="none" style="stroke:#000000;stroke-width:1.5;"/><line style="stroke:#000000;stroke-width:1.5;" x1="1110" x2="1160" y1="1161.8683" y2="1161.8683"/><text fill="#000000" font-family="sans-serif" font-size="14" font-weight="bold" lengthAdjust="spacing" textLength="37" x="1114" y="1154.9152">Floor</text></g><!--class RouteBuilding--><g id="elem_RouteBuilding"><rect codeLine="16" fill="#F1F1F1" height="48" id="RouteBuilding" rx="2.5" ry="2.5" style="stroke:#181818;stroke-width:0.5;" width="128" x="599" y="127"/><ellipse cx="614" cy="143" fill="#ADD1B2" rx="11" ry="11" style="stroke:#181818;stroke-width:1.0;"/><path d="M616.4731,149.1431 Q615.8921,149.4419 615.2529,149.5913 Q614.6138,149.7407 613.9082,149.7407 Q611.4014,149.7407 610.0815,148.0889 Q608.7617,146.437 608.7617,143.3159 Q608.7617,140.1865 610.0815,138.5347 Q611.4014,136.8828 613.9082,136.8828 Q614.6138,136.8828 615.2612,137.0322 Q615.9087,137.1816 616.4731,137.4805 L616.4731,140.2031 Q615.8423,139.6221 615.2488,139.3523 Q614.6553,139.0825 614.0244,139.0825 Q612.6797,139.0825 611.9949,140.1492 Q611.3101,141.2158 611.3101,143.3159 Q611.3101,145.4077 611.9949,146.4744 Q612.6797,147.541 614.0244,147.541 Q614.6553,147.541 615.2488,147.2712 Q615.8423,147.0015 616.4731,146.4204 Z " fill="#000000"/><text fill="#000000" font-family="sans-serif" font-size="14" lengthAdjust="spacing" textLength="96" x="628" y="148.291">RouteBuilding</text><line style="stroke:#181818;stroke-width:0.5;" x1="600" x2="726" y1="159" y2="159"/><line style="stroke:#181818;stroke-width:0.5;" x1="600" x2="726" y1="167" y2="167"/></g><!--class IDBDriver--><g id="elem_IDBDriver"><rect codeLine="20" fill="#F1F1F1" height="48" id="IDBDriver" rx="2.5" ry="2.5" style="stroke:#181818;stroke-width:0.5;" width="95" x="448.5" y="127"/><ellipse cx="463.5" cy="143" fill="#B4A7E5" rx="11" ry="11" style="stroke:#181818;stroke-width:1.0;"/><path d="M459.9277,139.2651 L459.9277,137.1069 L467.3071,137.1069 L467.3071,139.2651 L464.8418,139.2651 L464.8418,147.3418 L467.3071,147.3418 L467.3071,149.5 L459.9277,149.5 L459.9277,147.3418 L462.3931,147.3418 L462.3931,139.2651 Z " fill="#000000"/><text fill="#000000" font-family="sans-serif" font-size="14" font-style="italic" lengthAdjust="spacing" textLength="63" x="477.5" y="148.291">IDBDriver</text><line style="stroke:#181818;stroke-width:0.5;" x1="449.5" x2="542.5" y1="159" y2="159"/><line style="stroke:#181818;stroke-width:0.5;" x1="449.5" x2="542.5" y1="167" y2="167"/></g><!--class DBDriver--><g id="elem_DBDriver"><rect codeLine="21" fill="#F1F1F1" height="48" id="DBDriver" rx="2.5" ry="2.5" style="stroke:#181818;stroke-width:0.5;" width="91" x="322.5" y="127"/><ellipse cx="337.5" cy="143" fill="#ADD1B2" rx="11" ry="11" style="stroke:#181818;stroke-width:1.0;"/><path d="M339.9731,149.1431 Q339.3921,149.4419 338.7529,149.5913 Q338.1138,149.7407 337.4082,149.7407 Q334.9014,149.7407 333.5815,148.0889 Q332.2617,146.437 332.2617,143.3159 Q332.2617,140.1865 333.5815,138.5347 Q334.9014,136.8828 337.4082,136.8828 Q338.1138,136.8828 338.7612,137.0322 Q339.4087,137.1816 339.9731,137.4805 L339.9731,140.2031 Q339.3423,139.6221 338.7488,139.3523 Q338.1553,139.0825 337.5244,139.0825 Q336.1797,139.0825 335.4949,140.1492 Q334.8101,141.2158 334.8101,143.3159 Q334.8101,145.4077 335.4949,146.4744 Q336.1797,147.541 337.5244,147.541 Q338.1553,147.541 338.7488,147.2712 Q339.3423,147.0015 339.9731,146.4204 Z " fill="#000000"/><text fill="#000000" font-family="sans-serif" font-size="14" lengthAdjust="spacing" textLength="59" x="351.5" y="148.291">DBDriver</text><line style="stroke:#181818;stroke-width:0.5;" x1="323.5" x2="412.5" y1="159" y2="159"/><line style="stroke:#181818;stroke-width:0.5;" x1="323.5" x2="412.5" y1="167" y2="167"/></g><!--class IControllerFloor--><g id="elem_IControllerFloor"><rect codeLine="32" fill="#F1F1F1" height="48" id="IControllerFloor" rx="2.5" ry="2.5" style="stroke:#181818;stroke-width:0.5;" width="142" x="94" y="360"/><ellipse cx="109" cy="376" fill="#B4A7E5" rx="11" ry="11" style="stroke:#181818;stroke-width:1.0;"/><path d="M105.4277,372.2651 L105.4277,370.1069 L112.8071,370.1069 L112.8071,372.2651 L110.3418,372.2651 L110.3418,380.3418 L112.8071,380.3418 L112.8071,382.5 L105.4277,382.5 L105.4277,380.3418 L107.8931,380.3418 L107.8931,372.2651 Z " fill="#000000"/><text fill="#000000" font-family="sans-serif" font-size="14" font-style="italic" lengthAdjust="spacing" textLength="110" x="123" y="381.291">IControllerFloor</text><line style="stroke:#181818;stroke-width:0.5;" x1="95" x2="235" y1="392" y2="392"/><line style="stroke:#181818;stroke-width:0.5;" x1="95" x2="235" y1="400" y2="400"/></g><!--class ControllerFloor--><g id="elem_ControllerFloor"><rect codeLine="36" fill="#F1F1F1" height="48" id="ControllerFloor" rx="2.5" ry="2.5" style="stroke:#181818;stroke-width:0.5;" width="138" x="98" y="569"/><ellipse cx="113" cy="585" fill="#ADD1B2" rx="11" ry="11" style="stroke:#181818;stroke-width:1.0;"/><path d="M115.4731,591.1431 Q114.8921,591.4419 114.2529,591.5913 Q113.6138,591.7407 112.9082,591.7407 Q110.4014,591.7407 109.0815,590.0889 Q107.7617,588.437 107.7617,585.3159 Q107.7617,582.1865 109.0815,580.5347 Q110.4014,578.8828 112.9082,578.8828 Q113.6138,578.8828 114.2612,579.0322 Q114.9087,579.1816 115.4731,579.4805 L115.4731,582.2031 Q114.8423,581.6221 114.2488,581.3523 Q113.6553,581.0825 113.0244,581.0825 Q111.6797,581.0825 110.9949,582.1492 Q110.3101,583.2158 110.3101,585.3159 Q110.3101,587.4077 110.9949,588.4744 Q111.6797,589.541 113.0244,589.541 Q113.6553,589.541 114.2488,589.2712 Q114.8423,589.0015 115.4731,588.4204 Z " fill="#000000"/><text fill="#000000" font-family="sans-serif" font-size="14" lengthAdjust="spacing" textLength="106" x="127" y="590.291">ControllerFloor</text><line style="stroke:#181818;stroke-width:0.5;" x1="99" x2="235" y1="601" y2="601"/><line style="stroke:#181818;stroke-width:0.5;" x1="99" x2="235" y1="609" y2="609"/></g><!--class RepoBuilding--><g id="elem_RepoBuilding"><rect codeLine="42" fill="#F1F1F1" height="48" id="RepoBuilding" rx="2.5" ry="2.5" style="stroke:#181818;stroke-width:0.5;" width="123" x="454.5" y="360"/><ellipse cx="469.5" cy="376" fill="#ADD1B2" rx="11" ry="11" style="stroke:#181818;stroke-width:1.0;"/><path d="M471.9731,382.1431 Q471.3921,382.4419 470.7529,382.5913 Q470.1138,382.7407 469.4082,382.7407 Q466.9014,382.7407 465.5815,381.0889 Q464.2617,379.437 464.2617,376.3159 Q464.2617,373.1865 465.5815,371.5347 Q466.9014,369.8828 469.4082,369.8828 Q470.1138,369.8828 470.7612,370.0322 Q471.4087,370.1816 471.9731,370.4805 L471.9731,373.2031 Q471.3423,372.6221 470.7488,372.3523 Q470.1553,372.0825 469.5244,372.0825 Q468.1797,372.0825 467.4949,373.1492 Q466.8101,374.2158 466.8101,376.3159 Q466.8101,378.4077 467.4949,379.4744 Q468.1797,380.541 469.5244,380.541 Q470.1553,380.541 470.7488,380.2712 Q471.3423,380.0015 471.9731,379.4204 Z " fill="#000000"/><text fill="#000000" font-family="sans-serif" font-size="14" lengthAdjust="spacing" textLength="91" x="483.5" y="381.291">RepoBuilding</text><line style="stroke:#181818;stroke-width:0.5;" x1="455.5" x2="576.5" y1="392" y2="392"/><line style="stroke:#181818;stroke-width:0.5;" x1="455.5" x2="576.5" y1="400" y2="400"/></g><!--class RepoFloor--><g id="elem_RepoFloor"><rect codeLine="43" fill="#F1F1F1" height="48" id="RepoFloor" rx="2.5" ry="2.5" style="stroke:#181818;stroke-width:0.5;" width="103" x="316.5" y="360"/><ellipse cx="331.5" cy="376" fill="#ADD1B2" rx="11" ry="11" style="stroke:#181818;stroke-width:1.0;"/><path d="M333.9731,382.1431 Q333.3921,382.4419 332.7529,382.5913 Q332.1138,382.7407 331.4082,382.7407 Q328.9014,382.7407 327.5815,381.0889 Q326.2617,379.437 326.2617,376.3159 Q326.2617,373.1865 327.5815,371.5347 Q328.9014,369.8828 331.4082,369.8828 Q332.1138,369.8828 332.7612,370.0322 Q333.4087,370.1816 333.9731,370.4805 L333.9731,373.2031 Q333.3423,372.6221 332.7488,372.3523 Q332.1553,372.0825 331.5244,372.0825 Q330.1797,372.0825 329.4949,373.1492 Q328.8101,374.2158 328.8101,376.3159 Q328.8101,378.4077 329.4949,379.4744 Q330.1797,380.541 331.5244,380.541 Q332.1553,380.541 332.7488,380.2712 Q333.3423,380.0015 333.9731,379.4204 Z " fill="#000000"/><text fill="#000000" font-family="sans-serif" font-size="14" lengthAdjust="spacing" textLength="71" x="345.5" y="381.291">RepoFloor</text><line style="stroke:#181818;stroke-width:0.5;" x1="317.5" x2="418.5" y1="392" y2="392"/><line style="stroke:#181818;stroke-width:0.5;" x1="317.5" x2="418.5" y1="400" y2="400"/></g><!--class IAppServiceFloor--><g id="elem_IAppServiceFloor"><rect codeLine="56" fill="#F1F1F1" height="48" id="IAppServiceFloor" rx="2.5" ry="2.5" style="stroke:#181818;stroke-width:0.5;" width="148" x="705" y="960.38"/><ellipse cx="720" cy="976.38" fill="#B4A7E5" rx="11" ry="11" style="stroke:#181818;stroke-width:1.0;"/><path d="M716.4277,972.6451 L716.4277,970.4869 L723.8071,970.4869 L723.8071,972.6451 L721.3418,972.6451 L721.3418,980.7218 L723.8071,980.7218 L723.8071,982.88 L716.4277,982.88 L716.4277,980.7218 L718.8931,980.7218 L718.8931,972.6451 Z " fill="#000000"/><text fill="#000000" font-family="sans-serif" font-size="14" font-style="italic" lengthAdjust="spacing" textLength="116" x="734" y="981.671">IAppServiceFloor</text><line style="stroke:#181818;stroke-width:0.5;" x1="706" x2="852" y1="992.38" y2="992.38"/><line style="stroke:#181818;stroke-width:0.5;" x1="706" x2="852" y1="1000.38" y2="1000.38"/></g><!--class AppServiceFloor--><g id="elem_AppServiceFloor"><rect codeLine="60" fill="#F1F1F1" height="48" id="AppServiceFloor" rx="2.5" ry="2.5" style="stroke:#181818;stroke-width:0.5;" width="144" x="707" y="740"/><ellipse cx="722" cy="756" fill="#ADD1B2" rx="11" ry="11" style="stroke:#181818;stroke-width:1.0;"/><path d="M724.4731,762.1431 Q723.8921,762.4419 723.2529,762.5913 Q722.6138,762.7407 721.9082,762.7407 Q719.4014,762.7407 718.0815,761.0889 Q716.7617,759.437 716.7617,756.3159 Q716.7617,753.1865 718.0815,751.5347 Q719.4014,749.8828 721.9082,749.8828 Q722.6138,749.8828 723.2612,750.0322 Q723.9087,750.1816 724.4731,750.4805 L724.4731,753.2031 Q723.8423,752.6221 723.2488,752.3523 Q722.6553,752.0825 722.0244,752.0825 Q720.6797,752.0825 719.9949,753.1492 Q719.3101,754.2158 719.3101,756.3159 Q719.3101,758.4077 719.9949,759.4744 Q720.6797,760.541 722.0244,760.541 Q722.6553,760.541 723.2488,760.2712 Q723.8423,760.0015 724.4731,759.4204 Z " fill="#000000"/><text fill="#000000" font-family="sans-serif" font-size="14" lengthAdjust="spacing" textLength="112" x="736" y="761.291">AppServiceFloor</text><line style="stroke:#181818;stroke-width:0.5;" x1="708" x2="850" y1="772" y2="772"/><line style="stroke:#181818;stroke-width:0.5;" x1="708" x2="850" y1="780" y2="780"/></g><!--class IRepoBuilding--><g id="elem_IRepoBuilding"><rect codeLine="66" fill="#F1F1F1" height="48" id="IRepoBuilding" rx="2.5" ry="2.5" style="stroke:#181818;stroke-width:0.5;" width="127" x="846.5" y="569"/><ellipse cx="861.5" cy="585" fill="#B4A7E5" rx="11" ry="11" style="stroke:#181818;stroke-width:1.0;"/><path d="M857.9277,581.2651 L857.9277,579.1069 L865.3071,579.1069 L865.3071,581.2651 L862.8418,581.2651 L862.8418,589.3418 L865.3071,589.3418 L865.3071,591.5 L857.9277,591.5 L857.9277,589.3418 L860.3931,589.3418 L860.3931,581.2651 Z " fill="#000000"/><text fill="#000000" font-family="sans-serif" font-size="14" font-style="italic" lengthAdjust="spacing" textLength="95" x="875.5" y="590.291">IRepoBuilding</text><line style="stroke:#181818;stroke-width:0.5;" x1="847.5" x2="972.5" y1="601" y2="601"/><line style="stroke:#181818;stroke-width:0.5;" x1="847.5" x2="972.5" y1="609" y2="609"/></g><!--class IRepoFloor--><g id="elem_IRepoFloor"><rect codeLine="67" fill="#F1F1F1" height="48" id="IRepoFloor" rx="2.5" ry="2.5" style="stroke:#181818;stroke-width:0.5;" width="107" x="704.5" y="569"/><ellipse cx="719.5" cy="585" fill="#B4A7E5" rx="11" ry="11" style="stroke:#181818;stroke-width:1.0;"/><path d="M715.9277,581.2651 L715.9277,579.1069 L723.3071,579.1069 L723.3071,581.2651 L720.8418,581.2651 L720.8418,589.3418 L723.3071,589.3418 L723.3071,591.5 L715.9277,591.5 L715.9277,589.3418 L718.3931,589.3418 L718.3931,581.2651 Z " fill="#000000"/><text fill="#000000" font-family="sans-serif" font-size="14" font-style="italic" lengthAdjust="spacing" textLength="75" x="733.5" y="590.291">IRepoFloor</text><line style="stroke:#181818;stroke-width:0.5;" x1="705.5" x2="810.5" y1="601" y2="601"/><line style="stroke:#181818;stroke-width:0.5;" x1="705.5" x2="810.5" y1="609" y2="609"/></g><!--class IUpdateFloorDTO--><g id="elem_IUpdateFloorDTO"><rect codeLine="80" fill="#F1F1F1" height="48" id="IUpdateFloorDTO" rx="2.5" ry="2.5" style="stroke:#181818;stroke-width:0.5;" width="151" x="360.5" y="960.38"/><ellipse cx="375.5" cy="976.38" fill="#B4A7E5" rx="11" ry="11" style="stroke:#181818;stroke-width:1.0;"/><path d="M371.9277,972.6451 L371.9277,970.4869 L379.3071,970.4869 L379.3071,972.6451 L376.8418,972.6451 L376.8418,980.7218 L379.3071,980.7218 L379.3071,982.88 L371.9277,982.88 L371.9277,980.7218 L374.3931,980.7218 L374.3931,972.6451 Z " fill="#000000"/><text fill="#000000" font-family="sans-serif" font-size="14" font-style="italic" lengthAdjust="spacing" textLength="119" x="389.5" y="981.671">IUpdateFloorDTO</text><line style="stroke:#181818;stroke-width:0.5;" x1="361.5" x2="510.5" y1="992.38" y2="992.38"/><line style="stroke:#181818;stroke-width:0.5;" x1="361.5" x2="510.5" y1="1000.38" y2="1000.38"/></g><!--class Building--><g id="elem_Building"><rect codeLine="90" fill="#F1F1F1" height="70.7539" id="Building" rx="2.5" ry="2.5" style="stroke:#181818;stroke-width:0.5;" width="88" x="1278" y="949"/><ellipse cx="1293" cy="976.377" fill="#ADD1B2" rx="11" ry="11" style="stroke:#181818;stroke-width:1.0;"/><path d="M1296.6143,982.877 L1288.8945,982.877 L1288.8945,970.4839 L1296.6143,970.4839 L1296.6143,972.6421 L1291.3433,972.6421 L1291.3433,975.3149 L1296.1162,975.3149 L1296.1162,977.4731 L1291.3433,977.4731 L1291.3433,980.7188 L1296.6143,980.7188 Z " fill="#000000"/><text fill="#000000" font-family="sans-serif" font-size="12" font-style="italic" lengthAdjust="spacing" textLength="35" x="1317.5" y="965.6016">&#171;root&#187;</text><text fill="#000000" font-family="sans-serif" font-size="12" font-style="italic" lengthAdjust="spacing" textLength="43" x="1313.5" y="979.7344">&#171;entity&#187;</text><text fill="#000000" font-family="sans-serif" font-size="14" lengthAdjust="spacing" textLength="56" x="1307" y="995.8008">Building</text><line style="stroke:#181818;stroke-width:0.5;" x1="1279" x2="1365" y1="1003.7539" y2="1003.7539"/><line style="stroke:#181818;stroke-width:0.5;" x1="1279" x2="1365" y1="1011.7539" y2="1011.7539"/></g><!--class Floor--><g id="elem_Floor"><rect codeLine="94" fill="#F1F1F1" height="70.7539" id="Floor" rx="2.5" ry="2.5" style="stroke:#181818;stroke-width:0.5;" width="71" x="1151.5" y="949"/><ellipse cx="1166.5" cy="976.377" fill="#ADD1B2" rx="11" ry="11" style="stroke:#181818;stroke-width:1.0;"/><path d="M1170.1143,982.877 L1162.3945,982.877 L1162.3945,970.4839 L1170.1143,970.4839 L1170.1143,972.6421 L1164.8433,972.6421 L1164.8433,975.3149 L1169.6162,975.3149 L1169.6162,977.4731 L1164.8433,977.4731 L1164.8433,980.7188 L1170.1143,980.7188 Z " fill="#000000"/><text fill="#000000" font-family="sans-serif" font-size="12" font-style="italic" lengthAdjust="spacing" textLength="35" x="1182.5" y="965.6016">&#171;root&#187;</text><text fill="#000000" font-family="sans-serif" font-size="12" font-style="italic" lengthAdjust="spacing" textLength="43" x="1178.5" y="979.7344">&#171;entity&#187;</text><text fill="#000000" font-family="sans-serif" font-size="14" lengthAdjust="spacing" textLength="36" x="1182" y="995.8008">Floor</text><line style="stroke:#181818;stroke-width:0.5;" x1="1152.5" x2="1221.5" y1="1003.7539" y2="1003.7539"/><line style="stroke:#181818;stroke-width:0.5;" x1="1152.5" x2="1221.5" y1="1011.7539" y2="1011.7539"/></g><!--class FloorDescription--><g id="elem_FloorDescription"><rect codeLine="100" fill="#F1F1F1" height="48" id="FloorDescription" rx="2.5" ry="2.5" style="stroke:#181818;stroke-width:0.5;" width="146" x="1283" y="1174.38"/><ellipse cx="1298" cy="1190.38" fill="#ADD1B2" rx="11" ry="11" style="stroke:#181818;stroke-width:1.0;"/><path d="M1300.4731,1196.5231 Q1299.8921,1196.8219 1299.2529,1196.9713 Q1298.6138,1197.1207 1297.9082,1197.1207 Q1295.4014,1197.1207 1294.0815,1195.4689 Q1292.7617,1193.817 1292.7617,1190.6959 Q1292.7617,1187.5665 1294.0815,1185.9147 Q1295.4014,1184.2628 1297.9082,1184.2628 Q1298.6138,1184.2628 1299.2612,1184.4122 Q1299.9087,1184.5616 1300.4731,1184.8605 L1300.4731,1187.5831 Q1299.8423,1187.0021 1299.2488,1186.7323 Q1298.6553,1186.4625 1298.0244,1186.4625 Q1296.6797,1186.4625 1295.9949,1187.5292 Q1295.3101,1188.5958 1295.3101,1190.6959 Q1295.3101,1192.7877 1295.9949,1193.8544 Q1296.6797,1194.921 1298.0244,1194.921 Q1298.6553,1194.921 1299.2488,1194.6512 Q1299.8423,1194.3815 1300.4731,1193.8004 Z " fill="#000000"/><text fill="#000000" font-family="sans-serif" font-size="14" lengthAdjust="spacing" textLength="114" x="1312" y="1195.671">FloorDescription</text><line style="stroke:#181818;stroke-width:0.5;" x1="1284" x2="1428" y1="1206.38" y2="1206.38"/><line style="stroke:#181818;stroke-width:0.5;" x1="1284" x2="1428" y1="1214.38" y2="1214.38"/></g><!--class FloorNumber--><g id="elem_FloorNumber"><rect codeLine="101" fill="#F1F1F1" height="48" id="FloorNumber" rx="2.5" ry="2.5" style="stroke:#181818;stroke-width:0.5;" width="123" x="1125.5" y="1174.38"/><ellipse cx="1140.5" cy="1190.38" fill="#ADD1B2" rx="11" ry="11" style="stroke:#181818;stroke-width:1.0;"/><path d="M1142.9731,1196.5231 Q1142.3921,1196.8219 1141.7529,1196.9713 Q1141.1138,1197.1207 1140.4082,1197.1207 Q1137.9014,1197.1207 1136.5815,1195.4689 Q1135.2617,1193.817 1135.2617,1190.6959 Q1135.2617,1187.5665 1136.5815,1185.9147 Q1137.9014,1184.2628 1140.4082,1184.2628 Q1141.1138,1184.2628 1141.7612,1184.4122 Q1142.4087,1184.5616 1142.9731,1184.8605 L1142.9731,1187.5831 Q1142.3423,1187.0021 1141.7488,1186.7323 Q1141.1553,1186.4625 1140.5244,1186.4625 Q1139.1797,1186.4625 1138.4949,1187.5292 Q1137.8101,1188.5958 1137.8101,1190.6959 Q1137.8101,1192.7877 1138.4949,1193.8544 Q1139.1797,1194.921 1140.5244,1194.921 Q1141.1553,1194.921 1141.7488,1194.6512 Q1142.3423,1194.3815 1142.9731,1193.8004 Z " fill="#000000"/><text fill="#000000" font-family="sans-serif" font-size="14" lengthAdjust="spacing" textLength="91" x="1154.5" y="1195.671">FloorNumber</text><line style="stroke:#181818;stroke-width:0.5;" x1="1126.5" x2="1247.5" y1="1206.38" y2="1206.38"/><line style="stroke:#181818;stroke-width:0.5;" x1="1126.5" x2="1247.5" y1="1214.38" y2="1214.38"/></g><!--link DBDriver to IDBDriver--><g id="link_DBDriver_IDBDriver"><path codeLine="25" d="M414,151 C425.42,151 418.85,151 430.27,151 " fill="none" id="DBDriver-to-IDBDriver" style="stroke:#FF6655;stroke-width:1.0;"/><polygon fill="none" points="448.27,151,430.27,145,430.27,157,448.27,151" style="stroke:#FF6655;stroke-width:1.0;"/></g><!--reverse link IControllerFloor to ControllerFloor--><g id="link_IControllerFloor_ControllerFloor"><path codeLine="38" d="M165.4016,426.3492 C165.7816,466.2092 166.39,528.94 166.78,568.75 " fill="none" id="IControllerFloor-backto-ControllerFloor" style="stroke:#FF6655;stroke-width:1.0;"/><polygon fill="none" points="165.23,408.35,159.4019,426.4064,171.4013,426.292,165.23,408.35" style="stroke:#FF6655;stroke-width:1.0;"/></g><!--reverse link DBDriver to RepoFloor--><g id="link_DBDriver_RepoFloor"><path codeLine="47" d="M368,181.42 C368,225.7 368,315.2 368,359.52 " fill="none" id="DBDriver-backto-RepoFloor" style="stroke:#FF6655;stroke-width:1.0;stroke-dasharray:7.0,7.0;"/><polygon fill="#FF6655" points="368,175.42,364,184.42,368,180.42,372,184.42,368,175.42" style="stroke:#FF6655;stroke-width:1.0;"/></g><!--reverse link DBDriver to RepoBuilding--><g id="link_DBDriver_RepoBuilding"><path codeLine="48" d="M393.4278,179.6781 C410.6778,198.6381 429.25,219.65 437,231 C466.24,273.88 492.33,328.93 505.97,359.63 " fill="none" id="DBDriver-backto-RepoBuilding" style="stroke:#FF6655;stroke-width:1.0;stroke-dasharray:7.0,7.0;"/><polygon fill="#FF6655" points="389.39,175.24,392.488,184.5889,392.7548,178.9384,398.4054,179.2052,389.39,175.24" style="stroke:#FF6655;stroke-width:1.0;"/></g><!--link RouteBuilding to IControllerFloor--><g id="link_RouteBuilding_IControllerFloor"><path codeLine="50" d="M637.89,175.28 C618.1,192.01 588.93,213.25 559,223 C531.62,231.92 326.08,218.8 300,231 C241.5,258.38 200.6317,319.0834 180.3817,354.4434 " fill="none" id="RouteBuilding-to-IControllerFloor" style="stroke:#FF6655;stroke-width:1.0;stroke-dasharray:7.0,7.0;"/><polygon fill="#FF6655" points="177.4,359.65,185.3437,353.8279,179.8848,355.3111,178.4015,349.8522,177.4,359.65" style="stroke:#FF6655;stroke-width:1.0;"/></g><!--link AppServiceFloor to IAppServiceFloor--><g id="link_AppServiceFloor_IAppServiceFloor"><path codeLine="63" d="M779,788.37 C779,830.4 779,900.27 779,942.18 " fill="none" id="AppServiceFloor-to-IAppServiceFloor" style="stroke:#FF6655;stroke-width:1.0;"/><polygon fill="none" points="779,960.18,785,942.18,773,942.18,779,960.18" style="stroke:#FF6655;stroke-width:1.0;"/></g><!--link RepoFloor to IRepoFloor--><g id="link_RepoFloor_IRepoFloor"><path codeLine="70" d="M400.4,408.4 C411.76,416.25 424.75,424.82 437,432 C528.86,485.85 624.8574,531.6708 689.3474,561.1308 " fill="none" id="RepoFloor-to-IRepoFloor" style="stroke:#FF6655;stroke-width:1.0;"/><polygon fill="none" points="705.72,568.61,691.8405,555.6732,686.8544,566.5883,705.72,568.61" style="stroke:#FF6655;stroke-width:1.0;"/></g><!--link RepoBuilding to IRepoBuilding--><g id="link_RepoBuilding_IRepoBuilding"><path codeLine="71" d="M577.76,389.47 C657.25,396.28 789.81,411.58 829,440 C872.81,471.78 890.4023,517.2501 899.7423,551.3301 " fill="none" id="RepoBuilding-to-IRepoBuilding" style="stroke:#FF6655;stroke-width:1.0;"/><polygon fill="none" points="904.5,568.69,905.529,549.7443,893.9557,552.916,904.5,568.69" style="stroke:#FF6655;stroke-width:1.0;"/></g><!--link ControllerFloor to IAppServiceFloor--><g id="link_ControllerFloor_IAppServiceFloor"><path codeLine="74" d="M204.69,617.41 C270.34,658.25 409.89,745.28 527,820 C604.36,869.36 689.4381,924.7866 738.1981,956.6666 " fill="none" id="ControllerFloor-to-IAppServiceFloor" style="stroke:#FF6655;stroke-width:1.0;stroke-dasharray:7.0,7.0;"/><polygon fill="#FF6655" points="743.22,959.95,737.8761,951.677,739.0351,957.2138,733.4982,958.3728,743.22,959.95" style="stroke:#FF6655;stroke-width:1.0;"/></g><!--reverse link IRepoFloor to AppServiceFloor--><g id="link_IRepoFloor_AppServiceFloor"><path codeLine="75" d="M761.6594,623.4543 C765.6694,655.7443 772.11,707.52 776.1,739.7 " fill="none" id="IRepoFloor-backto-AppServiceFloor" style="stroke:#FF6655;stroke-width:1.0;stroke-dasharray:7.0,7.0;"/><polygon fill="#FF6655" points="760.92,617.5,758.0597,626.9244,761.5362,622.4619,765.9987,625.9384,760.92,617.5" style="stroke:#FF6655;stroke-width:1.0;"/></g><!--reverse link IRepoBuilding to AppServiceFloor--><g id="link_IRepoBuilding_AppServiceFloor"><path codeLine="76" d="M888.1141,622.2421 C863.0841,654.5321 822.01,707.52 797.06,739.7 " fill="none" id="IRepoBuilding-backto-AppServiceFloor" style="stroke:#FF6655;stroke-width:1.0;stroke-dasharray:7.0,7.0;"/><polygon fill="#FF6655" points="891.79,617.5,883.1147,622.1626,888.7267,621.4518,889.4375,627.0638,891.79,617.5" style="stroke:#FF6655;stroke-width:1.0;"/></g><!--link ControllerFloor to IUpdateFloorDTO--><g id="link_ControllerFloor_IUpdateFloorDTO"><path codeLine="82" d="M183.22,617.48 C231.27,687.03 369.0493,886.4737 416.6893,955.4237 " fill="none" id="ControllerFloor-to-IUpdateFloorDTO" style="stroke:#FF6655;stroke-width:1.0;stroke-dasharray:7.0,7.0;"/><polygon fill="#FF6655" points="420.1,960.36,418.2749,950.6817,417.2578,956.2464,411.6931,955.2293,420.1,960.36" style="stroke:#FF6655;stroke-width:1.0;"/></g><!--link AppServiceFloor to IUpdateFloorDTO--><g id="link_AppServiceFloor_IUpdateFloorDTO"><path codeLine="83" d="M740.33,788.35 C724.38,798.05 705.75,809.48 689,820 C610.86,869.1 525.2191,924.8723 476.4591,956.8123 " fill="none" id="AppServiceFloor-to-IUpdateFloorDTO" style="stroke:#FF6655;stroke-width:1.0;stroke-dasharray:7.0,7.0;"/><polygon fill="#FF6655" points="471.44,960.1,481.1604,958.5145,475.6225,957.3602,476.7768,951.8224,471.44,960.1" style="stroke:#FF6655;stroke-width:1.0;"/></g><!--link Floor to Building--><g id="link_Floor_Building"><path codeLine="105" d="M1222.86,984.38 C1241.19,984.38 1253.52,984.38 1271.85,984.38 " fill="none" id="Floor-to-Building" style="stroke:#FF6655;stroke-width:1.0;"/><polygon fill="#FF6655" points="1277.85,984.38,1268.85,980.38,1272.85,984.38,1268.85,988.38,1277.85,984.38" style="stroke:#FF6655;stroke-width:1.0;"/><text fill="#000000" font-family="Impact" font-size="13" lengthAdjust="spacing" textLength="4" x="1230.6686" y="981.0363">*</text><text fill="#000000" font-family="Impact" font-size="13" lengthAdjust="spacing" textLength="5" x="1265.1236" y="981.3235">1</text></g><!--link Floor to FloorDescription--><g id="link_Floor_FloorDescription"><path codeLine="106" d="M1214.36,1020.18 C1228.54,1038.18 1246.16,1060.49 1262,1080.38 C1287.97,1112.99 1314.4342,1145.8689 1333.4442,1169.4489 " fill="none" id="Floor-to-FloorDescription" style="stroke:#FF6655;stroke-width:1.0;"/><polygon fill="#FF6655" points="1337.21,1174.12,1334.6754,1164.6029,1334.0719,1170.2274,1328.4473,1169.6239,1337.21,1174.12" style="stroke:#FF6655;stroke-width:1.0;"/><text fill="#000000" font-family="Impact" font-size="13" lengthAdjust="spacing" textLength="5" x="1213.6328" y="1040.8106">1</text><text fill="#000000" font-family="Impact" font-size="13" lengthAdjust="spacing" textLength="5" x="1326.4883" y="1163.8138">1</text></g><!--link Floor to FloorNumber--><g id="link_Floor_FloorNumber"><path codeLine="107" d="M1187,1019.91 C1187,1063.33 1187,1130.67 1187,1168.02 " fill="none" id="Floor-to-FloorNumber" style="stroke:#FF6655;stroke-width:1.0;"/><polygon fill="#FF6655" points="1187,1174.02,1191,1165.02,1187,1169.02,1183,1165.02,1187,1174.02" style="stroke:#FF6655;stroke-width:1.0;"/><text fill="#000000" font-family="Impact" font-size="13" lengthAdjust="spacing" textLength="5" x="1181.5547" y="1040.7658">1</text><text fill="#000000" font-family="Impact" font-size="13" lengthAdjust="spacing" textLength="5" x="1181.3281" y="1163.687">1</text></g><!--link AppServiceFloor to Floor--><g id="link_AppServiceFloor_Floor"><path codeLine="109" d="M822.66,788.37 C903.76,831.78 1070.9,921.2388 1145.77,961.3088 " fill="none" id="AppServiceFloor-to-Floor" style="stroke:#FF6655;stroke-width:1.0;stroke-dasharray:7.0,7.0;"/><polygon fill="#FF6655" points="1151.06,964.14,1145.0124,956.3665,1146.6516,961.7807,1141.2375,963.4199,1151.06,964.14" style="stroke:#FF6655;stroke-width:1.0;"/></g><!--SRC=[bLNBRjim4BpxAmZrLi0ESeXFWW0_QY10aHHnssj0osk5jKGIIyg5s_hVIujwKgASw4HfHZlx69BgoBYaI3CIYqmA3boJlnDYdetWUil-0BcV5-zB6XyJ53dVhqGgC0mNaiPl44NaAqlUz4eWJIrHu1xG9NtQRERpXuSwz1FDWAn4ZWpG_OtiKYCsf4hM079xF2_J70fyWIX-r_4UCoEd6y3-KqbV9XC37sa2H9sLXgoijFeOFF83KgKnZtME49HmX_8YSWsg3LsVEALAaG9RvYpTCvxKk57jHVa6g9Z9WCVWXc9S0nveR8fPBzV8JcLxkb8zoAZKwmeaKxnEPlelSc9Lv5RXbUXYJwLPgy7YLwRFADBKmRkXHaXEVGrpamhHBRFLjMxuJAOt56o7neEttnmccUQoQ9almj10Nq0AnRGmRlQPmp1wtkZ2FPbwNQDabijPr1z_ExhBQKXjVvBPp5FZnJ77GigKnLGpmSaMyCHY6BQ78GuIkWCqB1_9yKV3_9W_RYZOXdyWk4Cbqy8URW1FFcFESEhrMcI0TpFfnZ8stU6VEhvfY6E7cBjT2X_vkkcspbfp89aHOYSPrvphxyy1eOh8LxDgjRVLhXzoJxKDQpWt2d78tlGytDx9-eLhfitexypz27ThaL76XpTFaY0aL8zidQeHHS7qTLVDhMygkAgUIJtPC4GXjBc5mz12KVIktLJKLieTYiAzMhOljuN6Jj6Vr5phv7dt2sBjRqEJr4buixARtCu6L8nCNi-lCTfJdkq0RsTh2mq-1zNr6f7WFY2zBLFo33GjATviFDGoer4Jje_jo-G_]--></g></svg>