<?xml version="1.0" encoding="us-ascii" standalone="no"?><svg xmlns="http://www.w3.org/2000/svg" xmlns:xlink="http://www.w3.org/1999/xlink" contentStyleType="text/css" height="1391px" preserveAspectRatio="none" style="width:1246px;height:1391px;background:#FFFFFF;" version="1.1" viewBox="0 0 1246 1391" width="1246px" zoomAndPan="magnify"><defs/><g><!--cluster system--><g id="cluster_system"><path d="M8.5,6 L61.5,6 A3.75,3.75 0 0 1 64,8.5 L71,28.4883 L1236.5,28.4883 A2.5,2.5 0 0 1 1239,30.9883 L1239,1381.88 A2.5,2.5 0 0 1 1236.5,1384.38 L8.5,1384.38 A2.5,2.5 0 0 1 6,1381.88 L6,8.5 A2.5,2.5 0 0 1 8.5,6 " fill="none" style="stroke:#000000;stroke-width:1.5;"/><line style="stroke:#000000;stroke-width:1.5;" x1="6" x2="71" y1="28.4883" y2="28.4883"/><text fill="#000000" font-family="sans-serif" font-size="14" font-weight="bold" lengthAdjust="spacing" textLength="52" x="10" y="21.5352">system</text></g><!--cluster Infrastructure--><g id="cluster_Infrastructure"><path d="M38.5,49 L138.5,49 A3.75,3.75 0 0 1 141,51.5 L148,71.4883 L518.5,71.4883 A2.5,2.5 0 0 1 521,73.9883 L521,212.5 A2.5,2.5 0 0 1 518.5,215 L38.5,215 A2.5,2.5 0 0 1 36,212.5 L36,51.5 A2.5,2.5 0 0 1 38.5,49 " fill="none" style="stroke:#000000;stroke-width:1.5;"/><line style="stroke:#000000;stroke-width:1.5;" x1="36" x2="148" y1="71.4883" y2="71.4883"/><text fill="#000000" font-family="sans-serif" font-size="14" font-weight="bold" lengthAdjust="spacing" textLength="99" x="40" y="64.5352">Infrastructure</text></g><!--cluster Routes--><g id="cluster_Routes"><path d="M339.5,92 L390.5,92 A3.75,3.75 0 0 1 393,94.5 L400,114.4883 L494.5,114.4883 A2.5,2.5 0 0 1 497,116.9883 L497,188.5 A2.5,2.5 0 0 1 494.5,191 L339.5,191 A2.5,2.5 0 0 1 337,188.5 L337,94.5 A2.5,2.5 0 0 1 339.5,92 " fill="none" style="stroke:#000000;stroke-width:1.5;"/><line style="stroke:#000000;stroke-width:1.5;" x1="337" x2="400" y1="114.4883" y2="114.4883"/><text fill="#000000" font-family="sans-serif" font-size="14" font-weight="bold" lengthAdjust="spacing" textLength="50" x="341" y="107.5352">Routes</text></g><!--cluster Persistence--><g id="cluster_Persistence"><path d="M62.5,92 L145.5,92 A3.75,3.75 0 0 1 148,94.5 L155,114.4883 L310.5,114.4883 A2.5,2.5 0 0 1 313,116.9883 L313,188.5 A2.5,2.5 0 0 1 310.5,191 L62.5,191 A2.5,2.5 0 0 1 60,188.5 L60,94.5 A2.5,2.5 0 0 1 62.5,92 " fill="none" style="stroke:#000000;stroke-width:1.5;"/><line style="stroke:#000000;stroke-width:1.5;" x1="60" x2="155" y1="114.4883" y2="114.4883"/><text fill="#000000" font-family="sans-serif" font-size="14" font-weight="bold" lengthAdjust="spacing" textLength="82" x="64" y="107.5352">Persistence</text></g><!--cluster Interface Adapters--><g id="cluster_Interface Adapters"><path d="M32.5,313 L165.5,313 A3.75,3.75 0 0 1 168,315.5 L175,335.4883 L457.5,335.4883 A2.5,2.5 0 0 1 460,337.9883 L460,752.5 A2.5,2.5 0 0 1 457.5,755 L32.5,755 A2.5,2.5 0 0 1 30,752.5 L30,315.5 A2.5,2.5 0 0 1 32.5,313 " fill="none" style="stroke:#000000;stroke-width:1.5;"/><line style="stroke:#000000;stroke-width:1.5;" x1="30" x2="175" y1="335.4883" y2="335.4883"/><text fill="#000000" font-family="sans-serif" font-size="14" font-weight="bold" lengthAdjust="spacing" textLength="132" x="34" y="328.5352">Interface Adapters</text></g><!--cluster Controllers--><g id="cluster_Controllers"><path d="M56.5,356 L138.5,356 A3.75,3.75 0 0 1 141,358.5 L148,378.4883 L273.5,378.4883 A2.5,2.5 0 0 1 276,380.9883 L276,728.5 A2.5,2.5 0 0 1 273.5,731 L56.5,731 A2.5,2.5 0 0 1 54,728.5 L54,358.5 A2.5,2.5 0 0 1 56.5,356 " fill="none" style="stroke:#000000;stroke-width:1.5;"/><line style="stroke:#000000;stroke-width:1.5;" x1="54" x2="148" y1="378.4883" y2="378.4883"/><text fill="#000000" font-family="sans-serif" font-size="14" font-weight="bold" lengthAdjust="spacing" textLength="81" x="58" y="371.5352">Controllers</text></g><!--cluster IControllers--><g id="cluster_IControllers"><path d="M80.5,399 L167.5,399 A3.75,3.75 0 0 1 170,401.5 L177,421.4883 L249.5,421.4883 A2.5,2.5 0 0 1 252,423.9883 L252,495.5 A2.5,2.5 0 0 1 249.5,498 L80.5,498 A2.5,2.5 0 0 1 78,495.5 L78,401.5 A2.5,2.5 0 0 1 80.5,399 " fill="none" style="stroke:#000000;stroke-width:1.5;"/><line style="stroke:#000000;stroke-width:1.5;" x1="78" x2="177" y1="421.4883" y2="421.4883"/><text fill="#000000" font-family="sans-serif" font-size="14" font-weight="bold" lengthAdjust="spacing" textLength="86" x="82" y="414.5352">IControllers</text></g><!--cluster ImplControllers--><g id="cluster_ImplControllers"><path d="M83.5,608 L198.5,608 A3.75,3.75 0 0 1 201,610.5 L208,630.4883 L248.5,630.4883 A2.5,2.5 0 0 1 251,632.9883 L251,704.5 A2.5,2.5 0 0 1 248.5,707 L83.5,707 A2.5,2.5 0 0 1 81,704.5 L81,610.5 A2.5,2.5 0 0 1 83.5,608 " fill="none" style="stroke:#000000;stroke-width:1.5;"/><line style="stroke:#000000;stroke-width:1.5;" x1="81" x2="208" y1="630.4883" y2="630.4883"/><text fill="#000000" font-family="sans-serif" font-size="14" font-weight="bold" lengthAdjust="spacing" textLength="114" x="85" y="623.5352">ImplControllers</text></g><!--cluster Repositories--><g id="cluster_Repositories"><path d="M302.5,399 L394.5,399 A3.75,3.75 0 0 1 397,401.5 L404,421.4883 L433.5,421.4883 A2.5,2.5 0 0 1 436,423.9883 L436,495.5 A2.5,2.5 0 0 1 433.5,498 L302.5,498 A2.5,2.5 0 0 1 300,495.5 L300,401.5 A2.5,2.5 0 0 1 302.5,399 " fill="none" style="stroke:#000000;stroke-width:1.5;"/><line style="stroke:#000000;stroke-width:1.5;" x1="300" x2="404" y1="421.4883" y2="421.4883"/><text fill="#000000" font-family="sans-serif" font-size="14" font-weight="bold" lengthAdjust="spacing" textLength="91" x="304" y="414.5352">Repositories</text></g><!--cluster Application Services--><g id="cluster_Application Services"><path d="M486.5,522 L632.5,522 A3.75,3.75 0 0 1 635,524.5 L642,544.4883 L757.5,544.4883 A2.5,2.5 0 0 1 760,546.9883 L760,1143.88 A2.5,2.5 0 0 1 757.5,1146.38 L486.5,1146.38 A2.5,2.5 0 0 1 484,1143.88 L484,524.5 A2.5,2.5 0 0 1 486.5,522 " fill="none" style="stroke:#000000;stroke-width:1.5;"/><line style="stroke:#000000;stroke-width:1.5;" x1="484" x2="642" y1="544.4883" y2="544.4883"/><text fill="#000000" font-family="sans-serif" font-size="14" font-weight="bold" lengthAdjust="spacing" textLength="145" x="488" y="537.5352">Application Services</text></g><!--cluster App Services--><g id="cluster_App Services"><path d="M510.5,565 L602.5,565 A3.75,3.75 0 0 1 605,567.5 L612,587.4883 L733.5,587.4883 A2.5,2.5 0 0 1 736,589.9883 L736,1119.88 A2.5,2.5 0 0 1 733.5,1122.38 L510.5,1122.38 A2.5,2.5 0 0 1 508,1119.88 L508,567.5 A2.5,2.5 0 0 1 510.5,565 " fill="none" style="stroke:#000000;stroke-width:1.5;"/><line style="stroke:#000000;stroke-width:1.5;" x1="508" x2="612" y1="587.4883" y2="587.4883"/><text fill="#000000" font-family="sans-serif" font-size="14" font-weight="bold" lengthAdjust="spacing" textLength="91" x="512" y="580.5352">App Services</text></g><!--cluster IAppServices--><g id="cluster_IAppServices"><path d="M534.5,999.38 L626.5,999.38 A3.75,3.75 0 0 1 629,1001.88 L636,1021.8683 L709.5,1021.8683 A2.5,2.5 0 0 1 712,1024.3683 L712,1095.88 A2.5,2.5 0 0 1 709.5,1098.38 L534.5,1098.38 A2.5,2.5 0 0 1 532,1095.88 L532,1001.88 A2.5,2.5 0 0 1 534.5,999.38 " fill="none" style="stroke:#000000;stroke-width:1.5;"/><line style="stroke:#000000;stroke-width:1.5;" x1="532" x2="636" y1="1021.8683" y2="1021.8683"/><text fill="#000000" font-family="sans-serif" font-size="14" font-weight="bold" lengthAdjust="spacing" textLength="91" x="536" y="1014.9152">IAppServices</text></g><!--cluster ImplAppServices--><g id="cluster_ImplAppServices"><path d="M536.5,779 L656.5,779 A3.75,3.75 0 0 1 659,781.5 L666,801.4883 L707.5,801.4883 A2.5,2.5 0 0 1 710,803.9883 L710,875.5 A2.5,2.5 0 0 1 707.5,878 L536.5,878 A2.5,2.5 0 0 1 534,875.5 L534,781.5 A2.5,2.5 0 0 1 536.5,779 " fill="none" style="stroke:#000000;stroke-width:1.5;"/><line style="stroke:#000000;stroke-width:1.5;" x1="534" x2="666" y1="801.4883" y2="801.4883"/><text fill="#000000" font-family="sans-serif" font-size="14" font-weight="bold" lengthAdjust="spacing" textLength="119" x="538" y="794.5352">ImplAppServices</text></g><!--cluster IRepositories--><g id="cluster_IRepositories"><path d="M544.5,608 L641.5,608 A3.75,3.75 0 0 1 644,610.5 L651,630.4883 L677.5,630.4883 A2.5,2.5 0 0 1 680,632.9883 L680,704.5 A2.5,2.5 0 0 1 677.5,707 L544.5,707 A2.5,2.5 0 0 1 542,704.5 L542,610.5 A2.5,2.5 0 0 1 544.5,608 " fill="none" style="stroke:#000000;stroke-width:1.5;"/><line style="stroke:#000000;stroke-width:1.5;" x1="542" x2="651" y1="630.4883" y2="630.4883"/><text fill="#000000" font-family="sans-serif" font-size="14" font-weight="bold" lengthAdjust="spacing" textLength="96" x="546" y="623.5352">IRepositories</text></g><!--cluster Entities/Core/Domain--><g id="cluster_Entities/Core/Domain"><path d="M786.5,902 L947.5,902 A3.75,3.75 0 0 1 950,904.5 L957,924.4883 L1212.5,924.4883 A2.5,2.5 0 0 1 1215,926.9883 L1215,1357.88 A2.5,2.5 0 0 1 1212.5,1360.38 L786.5,1360.38 A2.5,2.5 0 0 1 784,1357.88 L784,904.5 A2.5,2.5 0 0 1 786.5,902 " fill="none" style="stroke:#000000;stroke-width:1.5;"/><line style="stroke:#000000;stroke-width:1.5;" x1="784" x2="957" y1="924.4883" y2="924.4883"/><text fill="#000000" font-family="sans-serif" font-size="14" font-weight="bold" lengthAdjust="spacing" textLength="160" x="788" y="917.5352">Entities/Core/Domain</text></g><!--cluster Aggregates--><g id="cluster_Aggregates"><path d="M836.5,945 L918.5,945 A3.75,3.75 0 0 1 921,947.5 L928,967.4883 L1125.5,967.4883 A2.5,2.5 0 0 1 1128,969.9883 L1128,1131.26 A2.5,2.5 0 0 1 1125.5,1133.76 L836.5,1133.76 A2.5,2.5 0 0 1 834,1131.26 L834,947.5 A2.5,2.5 0 0 1 836.5,945 " fill="none" style="stroke:#000000;stroke-width:1.5;"/><line style="stroke:#000000;stroke-width:1.5;" x1="834" x2="928" y1="967.4883" y2="967.4883"/><text fill="#000000" font-family="sans-serif" font-size="14" font-weight="bold" lengthAdjust="spacing" textLength="81" x="838" y="960.5352">Aggregates</text></g><!--cluster a_building--><g id="cluster_a_building"><path d="M986.5,988 L1047.5,988 A3.75,3.75 0 0 1 1050,990.5 L1057,1010.4883 L1101.5,1010.4883 A2.5,2.5 0 0 1 1104,1012.9883 L1104,1107.26 A2.5,2.5 0 0 1 1101.5,1109.76 L986.5,1109.76 A2.5,2.5 0 0 1 984,1107.26 L984,990.5 A2.5,2.5 0 0 1 986.5,988 " fill="none" style="stroke:#000000;stroke-width:1.5;"/><line style="stroke:#000000;stroke-width:1.5;" x1="984" x2="1057" y1="1010.4883" y2="1010.4883"/><text fill="#000000" font-family="sans-serif" font-size="14" font-weight="bold" lengthAdjust="spacing" textLength="60" x="988" y="1003.5352">Building</text></g><!--cluster a_floor--><g id="cluster_a_floor"><path d="M860.5,988 L898.5,988 A3.75,3.75 0 0 1 901,990.5 L908,1010.4883 L957.5,1010.4883 A2.5,2.5 0 0 1 960,1012.9883 L960,1107.26 A2.5,2.5 0 0 1 957.5,1109.76 L860.5,1109.76 A2.5,2.5 0 0 1 858,1107.26 L858,990.5 A2.5,2.5 0 0 1 860.5,988 " fill="none" style="stroke:#000000;stroke-width:1.5;"/><line style="stroke:#000000;stroke-width:1.5;" x1="858" x2="908" y1="1010.4883" y2="1010.4883"/><text fill="#000000" font-family="sans-serif" font-size="14" font-weight="bold" lengthAdjust="spacing" textLength="37" x="862" y="1003.5352">Floor</text></g><!--cluster Value Objects--><g id="cluster_Value Objects"><path d="M810.5,1170.38 L911.5,1170.38 A3.75,3.75 0 0 1 914,1172.88 L921,1192.8683 L1188.5,1192.8683 A2.5,2.5 0 0 1 1191,1195.3683 L1191,1333.88 A2.5,2.5 0 0 1 1188.5,1336.38 L810.5,1336.38 A2.5,2.5 0 0 1 808,1333.88 L808,1172.88 A2.5,2.5 0 0 1 810.5,1170.38 " fill="none" style="stroke:#000000;stroke-width:1.5;"/><line style="stroke:#000000;stroke-width:1.5;" x1="808" x2="921" y1="1192.8683" y2="1192.8683"/><text fill="#000000" font-family="sans-serif" font-size="14" font-weight="bold" lengthAdjust="spacing" textLength="100" x="812" y="1185.9152">Value Objects</text></g><!--cluster vo_floor--><g id="cluster_vo_floor"><path d="M834.5,1213.38 L872.5,1213.38 A3.75,3.75 0 0 1 875,1215.88 L882,1235.8683 L1164.5,1235.8683 A2.5,2.5 0 0 1 1167,1238.3683 L1167,1309.88 A2.5,2.5 0 0 1 1164.5,1312.38 L834.5,1312.38 A2.5,2.5 0 0 1 832,1309.88 L832,1215.88 A2.5,2.5 0 0 1 834.5,1213.38 " fill="none" style="stroke:#000000;stroke-width:1.5;"/><line style="stroke:#000000;stroke-width:1.5;" x1="832" x2="882" y1="1235.8683" y2="1235.8683"/><text fill="#000000" font-family="sans-serif" font-size="14" font-weight="bold" lengthAdjust="spacing" textLength="37" x="836" y="1228.9152">Floor</text></g><!--class RouteBuilding--><g id="elem_RouteBuilding"><rect codeLine="16" fill="#F1F1F1" height="48" id="RouteBuilding" rx="2.5" ry="2.5" style="stroke:#181818;stroke-width:0.5;" width="128" x="353" y="127"/><ellipse cx="368" cy="143" fill="#ADD1B2" rx="11" ry="11" style="stroke:#181818;stroke-width:1.0;"/><path d="M370.4731,149.1431 Q369.8921,149.4419 369.2529,149.5913 Q368.6138,149.7407 367.9082,149.7407 Q365.4014,149.7407 364.0815,148.0889 Q362.7617,146.437 362.7617,143.3159 Q362.7617,140.1865 364.0815,138.5347 Q365.4014,136.8828 367.9082,136.8828 Q368.6138,136.8828 369.2612,137.0322 Q369.9087,137.1816 370.4731,137.4805 L370.4731,140.2031 Q369.8423,139.6221 369.2488,139.3523 Q368.6553,139.0825 368.0244,139.0825 Q366.6797,139.0825 365.9949,140.1492 Q365.3101,141.2158 365.3101,143.3159 Q365.3101,145.4077 365.9949,146.4744 Q366.6797,147.541 368.0244,147.541 Q368.6553,147.541 369.2488,147.2712 Q369.8423,147.0015 370.4731,146.4204 Z " fill="#000000"/><text fill="#000000" font-family="sans-serif" font-size="14" lengthAdjust="spacing" textLength="96" x="382" y="148.291">RouteBuilding</text><line style="stroke:#181818;stroke-width:0.5;" x1="354" x2="480" y1="159" y2="159"/><line style="stroke:#181818;stroke-width:0.5;" x1="354" x2="480" y1="167" y2="167"/></g><!--class IDBDriver--><g id="elem_IDBDriver"><rect codeLine="20" fill="#F1F1F1" height="48" id="IDBDriver" rx="2.5" ry="2.5" style="stroke:#181818;stroke-width:0.5;" width="95" x="202.5" y="127"/><ellipse cx="217.5" cy="143" fill="#B4A7E5" rx="11" ry="11" style="stroke:#181818;stroke-width:1.0;"/><path d="M213.9277,139.2651 L213.9277,137.1069 L221.3071,137.1069 L221.3071,139.2651 L218.8418,139.2651 L218.8418,147.3418 L221.3071,147.3418 L221.3071,149.5 L213.9277,149.5 L213.9277,147.3418 L216.3931,147.3418 L216.3931,139.2651 Z " fill="#000000"/><text fill="#000000" font-family="sans-serif" font-size="14" font-style="italic" lengthAdjust="spacing" textLength="63" x="231.5" y="148.291">IDBDriver</text><line style="stroke:#181818;stroke-width:0.5;" x1="203.5" x2="296.5" y1="159" y2="159"/><line style="stroke:#181818;stroke-width:0.5;" x1="203.5" x2="296.5" y1="167" y2="167"/></g><!--class DBDriver--><g id="elem_DBDriver"><rect codeLine="21" fill="#F1F1F1" height="48" id="DBDriver" rx="2.5" ry="2.5" style="stroke:#181818;stroke-width:0.5;" width="91" x="76.5" y="127"/><ellipse cx="91.5" cy="143" fill="#ADD1B2" rx="11" ry="11" style="stroke:#181818;stroke-width:1.0;"/><path d="M93.9731,149.1431 Q93.3921,149.4419 92.7529,149.5913 Q92.1138,149.7407 91.4082,149.7407 Q88.9014,149.7407 87.5815,148.0889 Q86.2617,146.437 86.2617,143.3159 Q86.2617,140.1865 87.5815,138.5347 Q88.9014,136.8828 91.4082,136.8828 Q92.1138,136.8828 92.7612,137.0322 Q93.4087,137.1816 93.9731,137.4805 L93.9731,140.2031 Q93.3423,139.6221 92.7488,139.3523 Q92.1553,139.0825 91.5244,139.0825 Q90.1797,139.0825 89.4949,140.1492 Q88.8101,141.2158 88.8101,143.3159 Q88.8101,145.4077 89.4949,146.4744 Q90.1797,147.541 91.5244,147.541 Q92.1553,147.541 92.7488,147.2712 Q93.3423,147.0015 93.9731,146.4204 Z " fill="#000000"/><text fill="#000000" font-family="sans-serif" font-size="14" lengthAdjust="spacing" textLength="59" x="105.5" y="148.291">DBDriver</text><line style="stroke:#181818;stroke-width:0.5;" x1="77.5" x2="166.5" y1="159" y2="159"/><line style="stroke:#181818;stroke-width:0.5;" x1="77.5" x2="166.5" y1="167" y2="167"/></g><!--class IControllerFloor--><g id="elem_IControllerFloor"><rect codeLine="30" fill="#F1F1F1" height="48" id="IControllerFloor" rx="2.5" ry="2.5" style="stroke:#181818;stroke-width:0.5;" width="142" x="94" y="434"/><ellipse cx="109" cy="450" fill="#B4A7E5" rx="11" ry="11" style="stroke:#181818;stroke-width:1.0;"/><path d="M105.4277,446.2651 L105.4277,444.1069 L112.8071,444.1069 L112.8071,446.2651 L110.3418,446.2651 L110.3418,454.3418 L112.8071,454.3418 L112.8071,456.5 L105.4277,456.5 L105.4277,454.3418 L107.8931,454.3418 L107.8931,446.2651 Z " fill="#000000"/><text fill="#000000" font-family="sans-serif" font-size="14" font-style="italic" lengthAdjust="spacing" textLength="110" x="123" y="455.291">IControllerFloor</text><line style="stroke:#181818;stroke-width:0.5;" x1="95" x2="235" y1="466" y2="466"/><line style="stroke:#181818;stroke-width:0.5;" x1="95" x2="235" y1="474" y2="474"/></g><!--class ControllerFloor--><g id="elem_ControllerFloor"><rect codeLine="34" fill="#F1F1F1" height="48" id="ControllerFloor" rx="2.5" ry="2.5" style="stroke:#181818;stroke-width:0.5;" width="138" x="97" y="643"/><ellipse cx="112" cy="659" fill="#ADD1B2" rx="11" ry="11" style="stroke:#181818;stroke-width:1.0;"/><path d="M114.4731,665.1431 Q113.8921,665.4419 113.2529,665.5913 Q112.6138,665.7407 111.9082,665.7407 Q109.4014,665.7407 108.0815,664.0889 Q106.7617,662.437 106.7617,659.3159 Q106.7617,656.1865 108.0815,654.5347 Q109.4014,652.8828 111.9082,652.8828 Q112.6138,652.8828 113.2612,653.0322 Q113.9087,653.1816 114.4731,653.4805 L114.4731,656.2031 Q113.8423,655.6221 113.2488,655.3523 Q112.6553,655.0825 112.0244,655.0825 Q110.6797,655.0825 109.9949,656.1492 Q109.3101,657.2158 109.3101,659.3159 Q109.3101,661.4077 109.9949,662.4744 Q110.6797,663.541 112.0244,663.541 Q112.6553,663.541 113.2488,663.2712 Q113.8423,663.0015 114.4731,662.4204 Z " fill="#000000"/><text fill="#000000" font-family="sans-serif" font-size="14" lengthAdjust="spacing" textLength="106" x="126" y="664.291">ControllerFloor</text><line style="stroke:#181818;stroke-width:0.5;" x1="98" x2="234" y1="675" y2="675"/><line style="stroke:#181818;stroke-width:0.5;" x1="98" x2="234" y1="683" y2="683"/></g><!--class RepoFloor--><g id="elem_RepoFloor"><rect codeLine="41" fill="#F1F1F1" height="48" id="RepoFloor" rx="2.5" ry="2.5" style="stroke:#181818;stroke-width:0.5;" width="103" x="316.5" y="434"/><ellipse cx="331.5" cy="450" fill="#ADD1B2" rx="11" ry="11" style="stroke:#181818;stroke-width:1.0;"/><path d="M333.9731,456.1431 Q333.3921,456.4419 332.7529,456.5913 Q332.1138,456.7407 331.4082,456.7407 Q328.9014,456.7407 327.5815,455.0889 Q326.2617,453.437 326.2617,450.3159 Q326.2617,447.1865 327.5815,445.5347 Q328.9014,443.8828 331.4082,443.8828 Q332.1138,443.8828 332.7612,444.0322 Q333.4087,444.1816 333.9731,444.4805 L333.9731,447.2031 Q333.3423,446.6221 332.7488,446.3523 Q332.1553,446.0825 331.5244,446.0825 Q330.1797,446.0825 329.4949,447.1492 Q328.8101,448.2158 328.8101,450.3159 Q328.8101,452.4077 329.4949,453.4744 Q330.1797,454.541 331.5244,454.541 Q332.1553,454.541 332.7488,454.2712 Q333.3423,454.0015 333.9731,453.4204 Z " fill="#000000"/><text fill="#000000" font-family="sans-serif" font-size="14" lengthAdjust="spacing" textLength="71" x="345.5" y="455.291">RepoFloor</text><line style="stroke:#181818;stroke-width:0.5;" x1="317.5" x2="418.5" y1="466" y2="466"/><line style="stroke:#181818;stroke-width:0.5;" x1="317.5" x2="418.5" y1="474" y2="474"/></g><!--class IAppServiceFloor--><g id="elem_IAppServiceFloor"><rect codeLine="53" fill="#F1F1F1" height="48" id="IAppServiceFloor" rx="2.5" ry="2.5" style="stroke:#181818;stroke-width:0.5;" width="148" x="548" y="1034.38"/><ellipse cx="563" cy="1050.38" fill="#B4A7E5" rx="11" ry="11" style="stroke:#181818;stroke-width:1.0;"/><path d="M559.4277,1046.6451 L559.4277,1044.4869 L566.8071,1044.4869 L566.8071,1046.6451 L564.3418,1046.6451 L564.3418,1054.7218 L566.8071,1054.7218 L566.8071,1056.88 L559.4277,1056.88 L559.4277,1054.7218 L561.8931,1054.7218 L561.8931,1046.6451 Z " fill="#000000"/><text fill="#000000" font-family="sans-serif" font-size="14" font-style="italic" lengthAdjust="spacing" textLength="116" x="577" y="1055.671">IAppServiceFloor</text><line style="stroke:#181818;stroke-width:0.5;" x1="549" x2="695" y1="1066.38" y2="1066.38"/><line style="stroke:#181818;stroke-width:0.5;" x1="549" x2="695" y1="1074.38" y2="1074.38"/></g><!--class AppServiceFloor--><g id="elem_AppServiceFloor"><rect codeLine="57" fill="#F1F1F1" height="48" id="AppServiceFloor" rx="2.5" ry="2.5" style="stroke:#181818;stroke-width:0.5;" width="144" x="550" y="814"/><ellipse cx="565" cy="830" fill="#ADD1B2" rx="11" ry="11" style="stroke:#181818;stroke-width:1.0;"/><path d="M567.4731,836.1431 Q566.8921,836.4419 566.2529,836.5913 Q565.6138,836.7407 564.9082,836.7407 Q562.4014,836.7407 561.0815,835.0889 Q559.7617,833.437 559.7617,830.3159 Q559.7617,827.1865 561.0815,825.5347 Q562.4014,823.8828 564.9082,823.8828 Q565.6138,823.8828 566.2612,824.0322 Q566.9087,824.1816 567.4731,824.4805 L567.4731,827.2031 Q566.8423,826.6221 566.2488,826.3523 Q565.6553,826.0825 565.0244,826.0825 Q563.6797,826.0825 562.9949,827.1492 Q562.3101,828.2158 562.3101,830.3159 Q562.3101,832.4077 562.9949,833.4744 Q563.6797,834.541 565.0244,834.541 Q565.6553,834.541 566.2488,834.2712 Q566.8423,834.0015 567.4731,833.4204 Z " fill="#000000"/><text fill="#000000" font-family="sans-serif" font-size="14" lengthAdjust="spacing" textLength="112" x="579" y="835.291">AppServiceFloor</text><line style="stroke:#181818;stroke-width:0.5;" x1="551" x2="693" y1="846" y2="846"/><line style="stroke:#181818;stroke-width:0.5;" x1="551" x2="693" y1="854" y2="854"/></g><!--class IRepoFloor--><g id="elem_IRepoFloor"><rect codeLine="64" fill="#F1F1F1" height="48" id="IRepoFloor" rx="2.5" ry="2.5" style="stroke:#181818;stroke-width:0.5;" width="107" x="557.5" y="643"/><ellipse cx="572.5" cy="659" fill="#B4A7E5" rx="11" ry="11" style="stroke:#181818;stroke-width:1.0;"/><path d="M568.9277,655.2651 L568.9277,653.1069 L576.3071,653.1069 L576.3071,655.2651 L573.8418,655.2651 L573.8418,663.3418 L576.3071,663.3418 L576.3071,665.5 L568.9277,665.5 L568.9277,663.3418 L571.3931,663.3418 L571.3931,655.2651 Z " fill="#000000"/><text fill="#000000" font-family="sans-serif" font-size="14" font-style="italic" lengthAdjust="spacing" textLength="75" x="586.5" y="664.291">IRepoFloor</text><line style="stroke:#181818;stroke-width:0.5;" x1="558.5" x2="663.5" y1="675" y2="675"/><line style="stroke:#181818;stroke-width:0.5;" x1="558.5" x2="663.5" y1="683" y2="683"/></g><!--class Building--><g id="elem_Building"><rect codeLine="81" fill="#F1F1F1" height="70.7539" id="Building" rx="2.5" ry="2.5" style="stroke:#181818;stroke-width:0.5;" width="88" x="1000" y="1023"/><ellipse cx="1015" cy="1050.377" fill="#ADD1B2" rx="11" ry="11" style="stroke:#181818;stroke-width:1.0;"/><path d="M1018.6143,1056.877 L1010.8945,1056.877 L1010.8945,1044.4839 L1018.6143,1044.4839 L1018.6143,1046.6421 L1013.3433,1046.6421 L1013.3433,1049.3149 L1018.1162,1049.3149 L1018.1162,1051.4731 L1013.3433,1051.4731 L1013.3433,1054.7188 L1018.6143,1054.7188 Z " fill="#000000"/><text fill="#000000" font-family="sans-serif" font-size="12" font-style="italic" lengthAdjust="spacing" textLength="35" x="1039.5" y="1039.6016">&#171;root&#187;</text><text fill="#000000" font-family="sans-serif" font-size="12" font-style="italic" lengthAdjust="spacing" textLength="43" x="1035.5" y="1053.7344">&#171;entity&#187;</text><text fill="#000000" font-family="sans-serif" font-size="14" lengthAdjust="spacing" textLength="56" x="1029" y="1069.8008">Building</text><line style="stroke:#181818;stroke-width:0.5;" x1="1001" x2="1087" y1="1077.7539" y2="1077.7539"/><line style="stroke:#181818;stroke-width:0.5;" x1="1001" x2="1087" y1="1085.7539" y2="1085.7539"/></g><!--class Floor--><g id="elem_Floor"><rect codeLine="85" fill="#F1F1F1" height="70.7539" id="Floor" rx="2.5" ry="2.5" style="stroke:#181818;stroke-width:0.5;" width="71" x="873.5" y="1023"/><ellipse cx="888.5" cy="1050.377" fill="#ADD1B2" rx="11" ry="11" style="stroke:#181818;stroke-width:1.0;"/><path d="M892.1143,1056.877 L884.3945,1056.877 L884.3945,1044.4839 L892.1143,1044.4839 L892.1143,1046.6421 L886.8433,1046.6421 L886.8433,1049.3149 L891.6162,1049.3149 L891.6162,1051.4731 L886.8433,1051.4731 L886.8433,1054.7188 L892.1143,1054.7188 Z " fill="#000000"/><text fill="#000000" font-family="sans-serif" font-size="12" font-style="italic" lengthAdjust="spacing" textLength="35" x="904.5" y="1039.6016">&#171;root&#187;</text><text fill="#000000" font-family="sans-serif" font-size="12" font-style="italic" lengthAdjust="spacing" textLength="43" x="900.5" y="1053.7344">&#171;entity&#187;</text><text fill="#000000" font-family="sans-serif" font-size="14" lengthAdjust="spacing" textLength="36" x="904" y="1069.8008">Floor</text><line style="stroke:#181818;stroke-width:0.5;" x1="874.5" x2="943.5" y1="1077.7539" y2="1077.7539"/><line style="stroke:#181818;stroke-width:0.5;" x1="874.5" x2="943.5" y1="1085.7539" y2="1085.7539"/></g><!--class FloorDescription--><g id="elem_FloorDescription"><rect codeLine="91" fill="#F1F1F1" height="48" id="FloorDescription" rx="2.5" ry="2.5" style="stroke:#181818;stroke-width:0.5;" width="146" x="1005" y="1248.38"/><ellipse cx="1020" cy="1264.38" fill="#ADD1B2" rx="11" ry="11" style="stroke:#181818;stroke-width:1.0;"/><path d="M1022.4731,1270.5231 Q1021.8921,1270.8219 1021.2529,1270.9713 Q1020.6138,1271.1207 1019.9082,1271.1207 Q1017.4014,1271.1207 1016.0815,1269.4689 Q1014.7617,1267.817 1014.7617,1264.6959 Q1014.7617,1261.5665 1016.0815,1259.9147 Q1017.4014,1258.2628 1019.9082,1258.2628 Q1020.6138,1258.2628 1021.2612,1258.4122 Q1021.9087,1258.5616 1022.4731,1258.8605 L1022.4731,1261.5831 Q1021.8423,1261.0021 1021.2488,1260.7323 Q1020.6553,1260.4625 1020.0244,1260.4625 Q1018.6797,1260.4625 1017.9949,1261.5292 Q1017.3101,1262.5958 1017.3101,1264.6959 Q1017.3101,1266.7877 1017.9949,1267.8544 Q1018.6797,1268.921 1020.0244,1268.921 Q1020.6553,1268.921 1021.2488,1268.6512 Q1021.8423,1268.3815 1022.4731,1267.8004 Z " fill="#000000"/><text fill="#000000" font-family="sans-serif" font-size="14" lengthAdjust="spacing" textLength="114" x="1034" y="1269.671">FloorDescription</text><line style="stroke:#181818;stroke-width:0.5;" x1="1006" x2="1150" y1="1280.38" y2="1280.38"/><line style="stroke:#181818;stroke-width:0.5;" x1="1006" x2="1150" y1="1288.38" y2="1288.38"/></g><!--class FloorNumber--><g id="elem_FloorNumber"><rect codeLine="92" fill="#F1F1F1" height="48" id="FloorNumber" rx="2.5" ry="2.5" style="stroke:#181818;stroke-width:0.5;" width="123" x="847.5" y="1248.38"/><ellipse cx="862.5" cy="1264.38" fill="#ADD1B2" rx="11" ry="11" style="stroke:#181818;stroke-width:1.0;"/><path d="M864.9731,1270.5231 Q864.3921,1270.8219 863.7529,1270.9713 Q863.1138,1271.1207 862.4082,1271.1207 Q859.9014,1271.1207 858.5815,1269.4689 Q857.2617,1267.817 857.2617,1264.6959 Q857.2617,1261.5665 858.5815,1259.9147 Q859.9014,1258.2628 862.4082,1258.2628 Q863.1138,1258.2628 863.7612,1258.4122 Q864.4087,1258.5616 864.9731,1258.8605 L864.9731,1261.5831 Q864.3423,1261.0021 863.7488,1260.7323 Q863.1553,1260.4625 862.5244,1260.4625 Q861.1797,1260.4625 860.4949,1261.5292 Q859.8101,1262.5958 859.8101,1264.6959 Q859.8101,1266.7877 860.4949,1267.8544 Q861.1797,1268.921 862.5244,1268.921 Q863.1553,1268.921 863.7488,1268.6512 Q864.3423,1268.3815 864.9731,1267.8004 Z " fill="#000000"/><text fill="#000000" font-family="sans-serif" font-size="14" lengthAdjust="spacing" textLength="91" x="876.5" y="1269.671">FloorNumber</text><line style="stroke:#181818;stroke-width:0.5;" x1="848.5" x2="969.5" y1="1280.38" y2="1280.38"/><line style="stroke:#181818;stroke-width:0.5;" x1="848.5" x2="969.5" y1="1288.38" y2="1288.38"/></g><!--link DBDriver to IDBDriver--><g id="link_DBDriver_IDBDriver"><path codeLine="24" d="M168,151 C179.42,151 172.85,151 184.27,151 " fill="none" id="DBDriver-to-IDBDriver" style="stroke:#FF6655;stroke-width:1.0;"/><polygon fill="none" points="202.27,151,184.27,145,184.27,157,202.27,151" style="stroke:#FF6655;stroke-width:1.0;"/></g><!--reverse link IControllerFloor to ControllerFloor--><g id="link_IControllerFloor_ControllerFloor"><path codeLine="36" d="M165.2003,500.3498 C165.4003,540.2098 165.7,602.94 165.89,642.75 " fill="none" id="IControllerFloor-backto-ControllerFloor" style="stroke:#FF6655;stroke-width:1.0;"/><polygon fill="none" points="165.11,482.35,159.2004,500.3799,171.2002,500.3197,165.11,482.35" style="stroke:#FF6655;stroke-width:1.0;"/></g><!--reverse link DBDriver to RepoFloor--><g id="link_DBDriver_RepoFloor"><path codeLine="45" d="M146.3754,179.7904 C172.3154,209.5104 214.28,258.18 252,305 C288.03,349.73 328.33,403.42 350.69,433.53 " fill="none" id="DBDriver-backto-RepoFloor" style="stroke:#FF6655;stroke-width:1.0;stroke-dasharray:7.0,7.0;"/><polygon fill="#FF6655" points="142.43,175.27,145.3346,184.6808,145.7179,179.037,151.3617,179.4203,142.43,175.27" style="stroke:#FF6655;stroke-width:1.0;"/></g><!--link RouteBuilding to IControllerFloor--><g id="link_RouteBuilding_IControllerFloor"><path codeLine="47" d="M397.64,175.43 C350.62,232.34 234.6316,372.7245 187.9016,429.2845 " fill="none" id="RouteBuilding-to-IControllerFloor" style="stroke:#FF6655;stroke-width:1.0;stroke-dasharray:7.0,7.0;"/><polygon fill="#FF6655" points="184.08,433.91,192.8961,429.5195,187.2647,430.0554,186.7287,424.424,184.08,433.91" style="stroke:#FF6655;stroke-width:1.0;"/></g><!--link AppServiceFloor to IAppServiceFloor--><g id="link_AppServiceFloor_IAppServiceFloor"><path codeLine="60" d="M622,862.37 C622,904.4 622,974.27 622,1016.18 " fill="none" id="AppServiceFloor-to-IAppServiceFloor" style="stroke:#FF6655;stroke-width:1.0;"/><polygon fill="none" points="622,1034.18,628,1016.18,616,1016.18,622,1034.18" style="stroke:#FF6655;stroke-width:1.0;"/></g><!--link RepoFloor to IRepoFloor--><g id="link_RepoFloor_IRepoFloor"><path codeLine="68" d="M395.4,482.35 C442.2,522.21 523.2681,591.2671 569.9981,631.0771 " fill="none" id="RepoFloor-to-IRepoFloor" style="stroke:#FF6655;stroke-width:1.0;"/><polygon fill="none" points="583.7,642.75,573.889,626.5098,566.1071,635.6444,583.7,642.75" style="stroke:#FF6655;stroke-width:1.0;"/></g><!--link ControllerFloor to IAppServiceFloor--><g id="link_ControllerFloor_IAppServiceFloor"><path codeLine="71" d="M193.5,691.48 C274.85,760.95 509.1674,961.0336 590.1874,1030.2236 " fill="none" id="ControllerFloor-to-IAppServiceFloor" style="stroke:#FF6655;stroke-width:1.0;stroke-dasharray:7.0,7.0;"/><polygon fill="#FF6655" points="594.75,1034.12,590.5037,1025.2336,590.9478,1030.873,585.3084,1031.3171,594.75,1034.12" style="stroke:#FF6655;stroke-width:1.0;"/></g><!--reverse link IRepoFloor to AppServiceFloor--><g id="link_IRepoFloor_AppServiceFloor"><path codeLine="74" d="M612.9194,697.4874 C615.0194,729.7774 618.39,781.52 620.48,813.7 " fill="none" id="IRepoFloor-backto-AppServiceFloor" style="stroke:#FF6655;stroke-width:1.0;stroke-dasharray:7.0,7.0;"/><polygon fill="#FF6655" points="612.53,691.5,609.1225,700.7406,612.8545,696.4895,617.1057,700.2214,612.53,691.5" style="stroke:#FF6655;stroke-width:1.0;"/></g><!--link Floor to Building--><g id="link_Floor_Building"><path codeLine="96" d="M944.86,1058.38 C963.19,1058.38 975.52,1058.38 993.85,1058.38 " fill="none" id="Floor-to-Building" style="stroke:#FF6655;stroke-width:1.0;"/><polygon fill="#FF6655" points="999.85,1058.38,990.85,1054.38,994.85,1058.38,990.85,1062.38,999.85,1058.38" style="stroke:#FF6655;stroke-width:1.0;"/><text fill="#000000" font-family="Impact" font-size="13" lengthAdjust="spacing" textLength="4" x="952.6686" y="1055.0363">*</text><text fill="#000000" font-family="Impact" font-size="13" lengthAdjust="spacing" textLength="5" x="987.1236" y="1055.3235">1</text></g><!--link Floor to FloorDescription--><g id="link_Floor_FloorDescription"><path codeLine="97" d="M936.36,1094.18 C950.54,1112.18 968.16,1134.49 984,1154.38 C1009.97,1186.99 1036.4342,1219.8689 1055.4442,1243.4489 " fill="none" id="Floor-to-FloorDescription" style="stroke:#FF6655;stroke-width:1.0;"/><polygon fill="#FF6655" points="1059.21,1248.12,1056.6754,1238.6029,1056.0719,1244.2274,1050.4473,1243.6239,1059.21,1248.12" style="stroke:#FF6655;stroke-width:1.0;"/><text fill="#000000" font-family="Impact" font-size="13" lengthAdjust="spacing" textLength="5" x="935.6328" y="1114.8106">1</text><text fill="#000000" font-family="Impact" font-size="13" lengthAdjust="spacing" textLength="5" x="1048.4883" y="1237.8138">1</text></g><!--link Floor to FloorNumber--><g id="link_Floor_FloorNumber"><path codeLine="98" d="M909,1093.91 C909,1137.33 909,1204.67 909,1242.02 " fill="none" id="Floor-to-FloorNumber" style="stroke:#FF6655;stroke-width:1.0;"/><polygon fill="#FF6655" points="909,1248.02,913,1239.02,909,1243.02,905,1239.02,909,1248.02" style="stroke:#FF6655;stroke-width:1.0;"/><text fill="#000000" font-family="Impact" font-size="13" lengthAdjust="spacing" textLength="5" x="903.5547" y="1114.7658">1</text><text fill="#000000" font-family="Impact" font-size="13" lengthAdjust="spacing" textLength="5" x="903.3281" y="1237.687">1</text></g><!--link AppServiceFloor to Floor--><g id="link_AppServiceFloor_Floor"><path codeLine="100" d="M663.12,862.44 C678.75,871.78 696.51,882.93 712,894 C770.93,936.11 830.1922,986.8476 868.7322,1021.0476 " fill="none" id="AppServiceFloor-to-Floor" style="stroke:#FF6655;stroke-width:1.0;stroke-dasharray:7.0,7.0;"/><polygon fill="#FF6655" points="873.22,1025.03,869.1433,1016.0645,869.4802,1021.7113,863.8334,1022.0482,873.22,1025.03" style="stroke:#FF6655;stroke-width:1.0;"/></g><!--SRC=[bLNBRjim4BpxAmZr4A207UGGdmG1VjH0W28fOg3NWfRN2ckA99QK0xVrlvVMMvGe9pf9tj7Epix8r4Sc54MQabYcIWeGXloT47jjf31RzWV8mpn_NjBucA3Cn7ubkSGmN2WQlq4KaUyiUJChYPGNG8bxG1VqPREPpnyVwzRFD0MoaXaoGFSrikEMR8YLh07KzdXUyWpo-W9HljVzdb9BPvf2yKv5VPbCRFb84o3wh0safTBgn-19791gWrbiCeIWB7SWhp8peDkbwnLpgZN9QykCyJqJILsthBqkFm0rinE86DnMJ1Z00usjcFLoZUnKhgTBrIkrMAeQcUBLcEc_o6bLObkoAyh5dYfxhmUbh-oMKNBkrBkjHa2EkWQvuL9sHRRKTDkdYjzWAFOpthpzv239D5FvndmTXkny1IKrCz9cEPzfA1iMqcjKtzTLCilKB6hiRH3jR96PlJmpkkOkbE8ifeP9GRQ09nR3iBqME0Ze6c1HFf3ZRuFydByt68frVgAv0oNJt5wtWMUUKMSTmNsBNPkxLXU330R35yxSzTxe4v_K8amEHJLGBVARCCnOVVVsBnpkrpAbJ0md94aG4cf6yb4bD21K4_fhLmMsxoDSMS-aZdGOefJ67XHXM9IYw4EHoOMLT8TSjPUhMCfjeh5F_IUr9mzvsVs6sFZNq0nrajwfYYJdq3Ne69cwVgHZiESitG7UdhOG6dmDgYCW8i53G7f7KucpfMa9yKxZWPOJ-HDey-TyO7VrbeO-yxjB5TBBv3y0]--></g></svg>