<?xml version="1.0" encoding="us-ascii" standalone="no"?><svg xmlns="http://www.w3.org/2000/svg" xmlns:xlink="http://www.w3.org/1999/xlink" contentStyleType="text/css" height="1234px" preserveAspectRatio="none" style="width:1066px;height:1234px;background:#FFFFFF;" version="1.1" viewBox="0 0 1066 1234" width="1066px" zoomAndPan="magnify"><defs/><g><rect fill="#FFFFFF" height="1047.4688" style="stroke:#181818;stroke-width:1.0;" width="10" x="250" y="98.7988"/><rect fill="#FFFFFF" height="959.8477" style="stroke:#181818;stroke-width:1.0;" width="10" x="412" y="128.1094"/><rect fill="#FFFFFF" height="901.2266" style="stroke:#181818;stroke-width:1.0;" width="10" x="536" y="157.4199"/><rect fill="#FFFFFF" height="87.2871" style="stroke:#181818;stroke-width:1.0;" width="10" x="666" y="942.0488"/><rect fill="#FFFFFF" height="47.9766" style="stroke:#181818;stroke-width:1.0;" width="10" x="815" y="981.3594"/><rect fill="#FFFFFF" height="87.9316" style="stroke:#181818;stroke-width:1.0;" width="10" x="890.5" y="186.7305"/><rect fill="#FFFFFF" height="87.9316" style="stroke:#181818;stroke-width:1.0;" width="10" x="890.5" y="431.1699"/><rect fill="#FFFFFF" height="59.3105" style="stroke:#181818;stroke-width:1.0;" width="10" x="890.5" y="853.4277"/><rect fill="#FFFFFF" height="29.3105" style="stroke:#181818;stroke-width:1.0;" width="10" x="989.5" y="216.041"/><rect fill="#FFFFFF" height="29.3105" style="stroke:#181818;stroke-width:1.0;" width="10" x="989.5" y="460.4805"/><rect fill="#FFFFFF" height="30" style="stroke:#181818;stroke-width:1.0;" width="10" x="989.5" y="882.7383"/><rect fill="none" height="849.6055" style="stroke:#000000;stroke-width:1.5;" width="1056" x="3" y="289.6621"/><rect fill="none" height="598.166" style="stroke:#000000;stroke-width:1.5;" width="1046" x="3" y="534.1016"/><rect fill="none" height="413.3477" style="stroke:#000000;stroke-width:1.5;" width="1036" x="3" y="711.9199"/><line style="stroke:#181818;stroke-width:0.5;stroke-dasharray:5.0,5.0;" x1="255" x2="255" y1="67.4883" y2="1156.2676"/><line style="stroke:#181818;stroke-width:0.5;stroke-dasharray:5.0,5.0;" x1="417" x2="417" y1="67.4883" y2="1156.2676"/><line style="stroke:#181818;stroke-width:0.5;stroke-dasharray:5.0,5.0;" x1="541" x2="541" y1="67.4883" y2="1156.2676"/><line style="stroke:#181818;stroke-width:0.5;stroke-dasharray:5.0,5.0;" x1="671" x2="671" y1="67.4883" y2="1156.2676"/><line style="stroke:#181818;stroke-width:0.5;stroke-dasharray:5.0,5.0;" x1="820" x2="820" y1="989.0371" y2="1156.2676"/><line style="stroke:#181818;stroke-width:0.5;stroke-dasharray:5.0,5.0;" x1="895" x2="895" y1="67.4883" y2="1156.2676"/><line style="stroke:#181818;stroke-width:0.5;stroke-dasharray:5.0,5.0;" x1="994" x2="994" y1="67.4883" y2="1156.2676"/><rect fill="#E2E2F0" height="30.4883" rx="2.5" ry="2.5" style="stroke:#181818;stroke-width:0.5;" width="54" x="228" y="36"/><text fill="#000000" font-family="sans-serif" font-size="14" lengthAdjust="spacing" textLength="40" x="235" y="56.5352">Route</text><rect fill="#E2E2F0" height="30.4883" rx="2.5" ry="2.5" style="stroke:#181818;stroke-width:0.5;" width="54" x="228" y="1155.2676"/><text fill="#000000" font-family="sans-serif" font-size="14" lengthAdjust="spacing" textLength="40" x="235" y="1175.8027">Route</text><rect fill="#E2E2F0" height="30.4883" rx="2.5" ry="2.5" style="stroke:#181818;stroke-width:0.5;" width="84" x="375" y="36"/><text fill="#000000" font-family="sans-serif" font-size="14" lengthAdjust="spacing" textLength="70" x="382" y="56.5352">Controller</text><rect fill="#E2E2F0" height="30.4883" rx="2.5" ry="2.5" style="stroke:#181818;stroke-width:0.5;" width="84" x="375" y="1155.2676"/><text fill="#000000" font-family="sans-serif" font-size="14" lengthAdjust="spacing" textLength="70" x="382" y="1175.8027">Controller</text><rect fill="#E2E2F0" height="30.4883" rx="2.5" ry="2.5" style="stroke:#181818;stroke-width:0.5;" width="62" x="510" y="36"/><text fill="#000000" font-family="sans-serif" font-size="14" lengthAdjust="spacing" textLength="48" x="517" y="56.5352">Service</text><rect fill="#E2E2F0" height="30.4883" rx="2.5" ry="2.5" style="stroke:#181818;stroke-width:0.5;" width="62" x="510" y="1155.2676"/><text fill="#000000" font-family="sans-serif" font-size="14" lengthAdjust="spacing" textLength="48" x="517" y="1175.8027">Service</text><rect fill="#E2E2F0" height="30.4883" rx="2.5" ry="2.5" style="stroke:#181818;stroke-width:0.5;" width="66" x="638" y="36"/><text fill="#000000" font-family="sans-serif" font-size="14" lengthAdjust="spacing" textLength="52" x="645" y="56.5352">Mapper</text><rect fill="#E2E2F0" height="30.4883" rx="2.5" ry="2.5" style="stroke:#181818;stroke-width:0.5;" width="66" x="638" y="1155.2676"/><text fill="#000000" font-family="sans-serif" font-size="14" lengthAdjust="spacing" textLength="52" x="645" y="1175.8027">Mapper</text><rect fill="#E2E2F0" height="46.9766" rx="2.5" ry="2.5" style="stroke:#181818;stroke-width:0.5;" width="44" x="798" y="1155.2676"/><text fill="#000000" font-family="sans-serif" font-size="14" lengthAdjust="spacing" textLength="27" x="806.5" y="1175.8027">dto:</text><text fill="#000000" font-family="sans-serif" font-size="14" lengthAdjust="spacing" textLength="30" x="805" y="1192.291">DTO</text><rect fill="#E2E2F0" height="30.4883" rx="2.5" ry="2.5" style="stroke:#181818;stroke-width:0.5;" width="87" x="852" y="36"/><text fill="#000000" font-family="sans-serif" font-size="14" lengthAdjust="spacing" textLength="73" x="859" y="56.5352">Repository</text><rect fill="#E2E2F0" height="30.4883" rx="2.5" ry="2.5" style="stroke:#181818;stroke-width:0.5;" width="87" x="852" y="1155.2676"/><text fill="#000000" font-family="sans-serif" font-size="14" lengthAdjust="spacing" textLength="73" x="859" y="1175.8027">Repository</text><text fill="#000000" font-family="sans-serif" font-size="14" lengthAdjust="spacing" textLength="63" x="960" y="64.5352">Database</text><path d="M976.5,15 C976.5,5 994.5,5 994.5,5 C994.5,5 1012.5,5 1012.5,15 L1012.5,41 C1012.5,51 994.5,51 994.5,51 C994.5,51 976.5,51 976.5,41 L976.5,15 " fill="#E2E2F0" style="stroke:#181818;stroke-width:1.5;"/><path d="M976.5,15 C976.5,25 994.5,25 994.5,25 C994.5,25 1012.5,25 1012.5,15 " fill="none" style="stroke:#181818;stroke-width:1.5;"/><text fill="#000000" font-family="sans-serif" font-size="14" lengthAdjust="spacing" textLength="63" x="960" y="1168.8027">Database</text><path d="M976.5,1181.7559 C976.5,1171.7559 994.5,1171.7559 994.5,1171.7559 C994.5,1171.7559 1012.5,1171.7559 1012.5,1181.7559 L1012.5,1207.7559 C1012.5,1217.7559 994.5,1217.7559 994.5,1217.7559 C994.5,1217.7559 976.5,1217.7559 976.5,1207.7559 L976.5,1181.7559 " fill="#E2E2F0" style="stroke:#181818;stroke-width:1.5;"/><path d="M976.5,1181.7559 C976.5,1191.7559 994.5,1191.7559 994.5,1191.7559 C994.5,1191.7559 1012.5,1191.7559 1012.5,1181.7559 " fill="none" style="stroke:#181818;stroke-width:1.5;"/><rect fill="#FFFFFF" height="1047.4688" style="stroke:#181818;stroke-width:1.0;" width="10" x="250" y="98.7988"/><rect fill="#FFFFFF" height="959.8477" style="stroke:#181818;stroke-width:1.0;" width="10" x="412" y="128.1094"/><rect fill="#FFFFFF" height="901.2266" style="stroke:#181818;stroke-width:1.0;" width="10" x="536" y="157.4199"/><rect fill="#FFFFFF" height="87.2871" style="stroke:#181818;stroke-width:1.0;" width="10" x="666" y="942.0488"/><rect fill="#FFFFFF" height="47.9766" style="stroke:#181818;stroke-width:1.0;" width="10" x="815" y="981.3594"/><rect fill="#FFFFFF" height="87.9316" style="stroke:#181818;stroke-width:1.0;" width="10" x="890.5" y="186.7305"/><rect fill="#FFFFFF" height="87.9316" style="stroke:#181818;stroke-width:1.0;" width="10" x="890.5" y="431.1699"/><rect fill="#FFFFFF" height="59.3105" style="stroke:#181818;stroke-width:1.0;" width="10" x="890.5" y="853.4277"/><rect fill="#FFFFFF" height="29.3105" style="stroke:#181818;stroke-width:1.0;" width="10" x="989.5" y="216.041"/><rect fill="#FFFFFF" height="29.3105" style="stroke:#181818;stroke-width:1.0;" width="10" x="989.5" y="460.4805"/><rect fill="#FFFFFF" height="30" style="stroke:#181818;stroke-width:1.0;" width="10" x="989.5" y="882.7383"/><polygon fill="#181818" points="238,94.7988,248,98.7988,238,102.7988,242,98.7988" style="stroke:#181818;stroke-width:1.0;"/><line style="stroke:#181818;stroke-width:1.0;" x1="0" x2="244" y1="98.7988" y2="98.7988"/><text fill="#000000" font-family="sans-serif" font-size="13" font-weight="bold" lengthAdjust="spacing" textLength="9" x="7" y="94.0566">1</text><text fill="#000000" font-family="sans-serif" font-size="13" lengthAdjust="spacing" textLength="211" x="20" y="94.0566">PUT (buildings/{id}/floors/{floor})</text><polygon fill="#181818" points="400,124.1094,410,128.1094,400,132.1094,404,128.1094" style="stroke:#181818;stroke-width:1.0;"/><line style="stroke:#181818;stroke-width:1.0;" x1="260" x2="406" y1="128.1094" y2="128.1094"/><text fill="#000000" font-family="sans-serif" font-size="13" font-weight="bold" lengthAdjust="spacing" textLength="9" x="267" y="123.3672">2</text><text fill="#000000" font-family="sans-serif" font-size="13" lengthAdjust="spacing" textLength="120" x="280" y="123.3672">putFloor(req,res,...)</text><polygon fill="#181818" points="524,153.4199,534,157.4199,524,161.4199,528,157.4199" style="stroke:#181818;stroke-width:1.0;"/><line style="stroke:#181818;stroke-width:1.0;" x1="422" x2="530" y1="157.4199" y2="157.4199"/><text fill="#000000" font-family="sans-serif" font-size="13" font-weight="bold" lengthAdjust="spacing" textLength="9" x="429" y="152.6777">3</text><text fill="#000000" font-family="sans-serif" font-size="13" lengthAdjust="spacing" textLength="82" x="442" y="152.6777">putFloor(dto)</text><polygon fill="#181818" points="878.5,182.7305,888.5,186.7305,878.5,190.7305,882.5,186.7305" style="stroke:#181818;stroke-width:1.0;"/><line style="stroke:#181818;stroke-width:1.0;" x1="546" x2="884.5" y1="186.7305" y2="186.7305"/><text fill="#000000" font-family="sans-serif" font-size="13" font-weight="bold" lengthAdjust="spacing" textLength="9" x="553" y="181.9883">4</text><text fill="#000000" font-family="sans-serif" font-size="13" lengthAdjust="spacing" textLength="163" x="566" y="181.9883">findByCode(buildingCode)</text><polygon fill="#181818" points="977.5,212.041,987.5,216.041,977.5,220.041,981.5,216.041" style="stroke:#181818;stroke-width:1.0;"/><line style="stroke:#181818;stroke-width:1.0;" x1="900.5" x2="983.5" y1="216.041" y2="216.041"/><text fill="#000000" font-family="sans-serif" font-size="13" font-weight="bold" lengthAdjust="spacing" textLength="9" x="907.5" y="211.2988">5</text><text fill="#000000" font-family="sans-serif" font-size="13" lengthAdjust="spacing" textLength="33" x="920.5" y="211.2988">find()</text><polygon fill="#181818" points="911.5,241.3516,901.5,245.3516,911.5,249.3516,907.5,245.3516" style="stroke:#181818;stroke-width:1.0;"/><line style="stroke:#181818;stroke-width:1.0;stroke-dasharray:2.0,2.0;" x1="905.5" x2="993.5" y1="245.3516" y2="245.3516"/><text fill="#000000" font-family="sans-serif" font-size="13" font-weight="bold" lengthAdjust="spacing" textLength="9" x="917.5" y="240.6094">6</text><text fill="#000000" font-family="sans-serif" font-size="13" lengthAdjust="spacing" textLength="52" x="930.5" y="240.6094">building</text><polygon fill="#181818" points="557,270.6621,547,274.6621,557,278.6621,553,274.6621" style="stroke:#181818;stroke-width:1.0;"/><line style="stroke:#181818;stroke-width:1.0;stroke-dasharray:2.0,2.0;" x1="551" x2="894.5" y1="274.6621" y2="274.6621"/><text fill="#000000" font-family="sans-serif" font-size="13" font-weight="bold" lengthAdjust="spacing" textLength="9" x="563" y="269.9199">7</text><text fill="#000000" font-family="sans-serif" font-size="13" lengthAdjust="spacing" textLength="52" x="576" y="269.9199">building</text><path d="M3,289.6621 L65,289.6621 L65,296.9727 L55,306.9727 L3,306.9727 L3,289.6621 " fill="#EEEEEE" style="stroke:#000000;stroke-width:1.5;"/><rect fill="none" height="849.6055" style="stroke:#000000;stroke-width:1.5;" width="1056" x="3" y="289.6621"/><text fill="#000000" font-family="sans-serif" font-size="13" font-weight="bold" lengthAdjust="spacing" textLength="17" x="18" y="303.2305">alt</text><text fill="#000000" font-family="sans-serif" font-size="11" font-weight="bold" lengthAdjust="spacing" textLength="114" x="80" y="302.2969">[building not found]</text><polygon fill="#181818" points="433,324.2832,423,328.2832,433,332.2832,429,328.2832" style="stroke:#181818;stroke-width:1.0;"/><line style="stroke:#181818;stroke-width:1.0;stroke-dasharray:2.0,2.0;" x1="427" x2="535" y1="328.2832" y2="328.2832"/><text fill="#000000" font-family="sans-serif" font-size="13" font-weight="bold" lengthAdjust="spacing" textLength="9" x="439" y="323.541">8</text><text fill="#000000" font-family="sans-serif" font-size="13" lengthAdjust="spacing" textLength="30" x="452" y="323.541">error</text><polygon fill="#181818" points="271,353.5938,261,357.5938,271,361.5938,267,357.5938" style="stroke:#181818;stroke-width:1.0;"/><line style="stroke:#181818;stroke-width:1.0;stroke-dasharray:2.0,2.0;" x1="265" x2="411" y1="357.5938" y2="357.5938"/><text fill="#000000" font-family="sans-serif" font-size="13" font-weight="bold" lengthAdjust="spacing" textLength="9" x="277" y="352.8516">9</text><text fill="#000000" font-family="sans-serif" font-size="13" lengthAdjust="spacing" textLength="85" x="290" y="352.8516">response 404</text><polygon fill="#181818" points="11,382.9043,1,386.9043,11,390.9043,7,386.9043" style="stroke:#181818;stroke-width:1.0;"/><line style="stroke:#181818;stroke-width:1.0;stroke-dasharray:2.0,2.0;" x1="5" x2="249" y1="386.9043" y2="386.9043"/><text fill="#000000" font-family="sans-serif" font-size="13" font-weight="bold" lengthAdjust="spacing" textLength="18" x="17" y="382.1621">10</text><text fill="#000000" font-family="sans-serif" font-size="13" lengthAdjust="spacing" textLength="98" x="39" y="382.1621">404: Not Found</text><line style="stroke:#000000;stroke-width:1.0;stroke-dasharray:2.0,2.0;" x1="3" x2="1059" y1="395.9043" y2="395.9043"/><text fill="#000000" font-family="sans-serif" font-size="11" font-weight="bold" lengthAdjust="spacing" textLength="92" x="8" y="406.5391">[building found]</text><polygon fill="#181818" points="878.5,427.1699,888.5,431.1699,878.5,435.1699,882.5,431.1699" style="stroke:#181818;stroke-width:1.0;"/><line style="stroke:#181818;stroke-width:1.0;" x1="546" x2="884.5" y1="431.1699" y2="431.1699"/><text fill="#000000" font-family="sans-serif" font-size="13" font-weight="bold" lengthAdjust="spacing" textLength="18" x="553" y="426.4277">11</text><text fill="#000000" font-family="sans-serif" font-size="13" lengthAdjust="spacing" textLength="301" x="575" y="426.4277">findByCodeNumber(buildingCode, floorNumber)</text><polygon fill="#181818" points="977.5,456.4805,987.5,460.4805,977.5,464.4805,981.5,460.4805" style="stroke:#181818;stroke-width:1.0;"/><line style="stroke:#181818;stroke-width:1.0;" x1="900.5" x2="983.5" y1="460.4805" y2="460.4805"/><text fill="#000000" font-family="sans-serif" font-size="13" font-weight="bold" lengthAdjust="spacing" textLength="18" x="907.5" y="455.7383">12</text><text fill="#000000" font-family="sans-serif" font-size="13" lengthAdjust="spacing" textLength="33" x="929.5" y="455.7383">find()</text><polygon fill="#181818" points="911.5,485.791,901.5,489.791,911.5,493.791,907.5,489.791" style="stroke:#181818;stroke-width:1.0;"/><line style="stroke:#181818;stroke-width:1.0;stroke-dasharray:2.0,2.0;" x1="905.5" x2="993.5" y1="489.791" y2="489.791"/><text fill="#000000" font-family="sans-serif" font-size="13" font-weight="bold" lengthAdjust="spacing" textLength="18" x="917.5" y="485.0488">13</text><text fill="#000000" font-family="sans-serif" font-size="13" lengthAdjust="spacing" textLength="30" x="939.5" y="485.0488">floor</text><polygon fill="#181818" points="557,515.1016,547,519.1016,557,523.1016,553,519.1016" style="stroke:#181818;stroke-width:1.0;"/><line style="stroke:#181818;stroke-width:1.0;stroke-dasharray:2.0,2.0;" x1="551" x2="894.5" y1="519.1016" y2="519.1016"/><text fill="#000000" font-family="sans-serif" font-size="13" font-weight="bold" lengthAdjust="spacing" textLength="18" x="563" y="514.3594">14</text><text fill="#000000" font-family="sans-serif" font-size="13" lengthAdjust="spacing" textLength="30" x="585" y="514.3594">floor</text><path d="M3,534.1016 L65,534.1016 L65,541.4121 L55,551.4121 L3,551.4121 L3,534.1016 " fill="#EEEEEE" style="stroke:#000000;stroke-width:1.5;"/><rect fill="none" height="598.166" style="stroke:#000000;stroke-width:1.5;" width="1046" x="3" y="534.1016"/><text fill="#000000" font-family="sans-serif" font-size="13" font-weight="bold" lengthAdjust="spacing" textLength="17" x="18" y="547.6699">alt</text><text fill="#000000" font-family="sans-serif" font-size="11" font-weight="bold" lengthAdjust="spacing" textLength="95" x="80" y="546.7363">[floor not found]</text><polygon fill="#181818" points="433,568.7227,423,572.7227,433,576.7227,429,572.7227" style="stroke:#181818;stroke-width:1.0;"/><line style="stroke:#181818;stroke-width:1.0;stroke-dasharray:2.0,2.0;" x1="427" x2="535" y1="572.7227" y2="572.7227"/><text fill="#000000" font-family="sans-serif" font-size="13" font-weight="bold" lengthAdjust="spacing" textLength="18" x="439" y="567.9805">15</text><text fill="#000000" font-family="sans-serif" font-size="13" lengthAdjust="spacing" textLength="30" x="461" y="567.9805">error</text><polygon fill="#181818" points="271,598.0332,261,602.0332,271,606.0332,267,602.0332" style="stroke:#181818;stroke-width:1.0;"/><line style="stroke:#181818;stroke-width:1.0;stroke-dasharray:2.0,2.0;" x1="265" x2="411" y1="602.0332" y2="602.0332"/><text fill="#000000" font-family="sans-serif" font-size="13" font-weight="bold" lengthAdjust="spacing" textLength="18" x="277" y="597.291">16</text><text fill="#000000" font-family="sans-serif" font-size="13" lengthAdjust="spacing" textLength="85" x="299" y="597.291">response 404</text><polygon fill="#181818" points="11,627.3438,1,631.3438,11,635.3438,7,631.3438" style="stroke:#181818;stroke-width:1.0;"/><line style="stroke:#181818;stroke-width:1.0;stroke-dasharray:2.0,2.0;" x1="5" x2="249" y1="631.3438" y2="631.3438"/><text fill="#000000" font-family="sans-serif" font-size="13" font-weight="bold" lengthAdjust="spacing" textLength="18" x="17" y="626.6016">17</text><text fill="#000000" font-family="sans-serif" font-size="13" lengthAdjust="spacing" textLength="98" x="39" y="626.6016">404: Not Found</text><line style="stroke:#000000;stroke-width:1.0;stroke-dasharray:2.0,2.0;" x1="3" x2="1049" y1="640.3438" y2="640.3438"/><text fill="#000000" font-family="sans-serif" font-size="11" font-weight="bold" lengthAdjust="spacing" textLength="73" x="8" y="650.9785">[floor found]</text><path d="M551,659.2988 L551,699.2988 L722,699.2988 L722,669.2988 L712,659.2988 L551,659.2988 " fill="#FEFFDD" style="stroke:#181818;stroke-width:0.5;"/><path d="M712,659.2988 L712,669.2988 L722,669.2988 L712,659.2988 " fill="#FEFFDD" style="stroke:#181818;stroke-width:0.5;"/><text fill="#000000" font-family="sans-serif" font-size="13" lengthAdjust="spacing" textLength="150" x="557" y="676.8672">edit floor specifications</text><text fill="#000000" font-family="sans-serif" font-size="13" lengthAdjust="spacing" textLength="120" x="557" y="692.1777">based on new ones</text><path d="M3,711.9199 L65,711.9199 L65,719.2305 L55,729.2305 L3,729.2305 L3,711.9199 " fill="#EEEEEE" style="stroke:#000000;stroke-width:1.5;"/><rect fill="none" height="413.3477" style="stroke:#000000;stroke-width:1.5;" width="1036" x="3" y="711.9199"/><text fill="#000000" font-family="sans-serif" font-size="13" font-weight="bold" lengthAdjust="spacing" textLength="17" x="18" y="725.4883">alt</text><text fill="#000000" font-family="sans-serif" font-size="11" font-weight="bold" lengthAdjust="spacing" textLength="126" x="80" y="724.5547">[floor bad parameters]</text><polygon fill="#181818" points="433,746.541,423,750.541,433,754.541,429,750.541" style="stroke:#181818;stroke-width:1.0;"/><line style="stroke:#181818;stroke-width:1.0;stroke-dasharray:2.0,2.0;" x1="427" x2="535" y1="750.541" y2="750.541"/><text fill="#000000" font-family="sans-serif" font-size="13" font-weight="bold" lengthAdjust="spacing" textLength="18" x="439" y="745.7988">18</text><text fill="#000000" font-family="sans-serif" font-size="13" lengthAdjust="spacing" textLength="30" x="461" y="745.7988">error</text><polygon fill="#181818" points="271,775.8516,261,779.8516,271,783.8516,267,779.8516" style="stroke:#181818;stroke-width:1.0;"/><line style="stroke:#181818;stroke-width:1.0;stroke-dasharray:2.0,2.0;" x1="265" x2="411" y1="779.8516" y2="779.8516"/><text fill="#000000" font-family="sans-serif" font-size="13" font-weight="bold" lengthAdjust="spacing" textLength="18" x="277" y="775.1094">19</text><text fill="#000000" font-family="sans-serif" font-size="13" lengthAdjust="spacing" textLength="85" x="299" y="775.1094">response 422</text><polygon fill="#181818" points="11,805.1621,1,809.1621,11,813.1621,7,809.1621" style="stroke:#181818;stroke-width:1.0;"/><line style="stroke:#181818;stroke-width:1.0;stroke-dasharray:2.0,2.0;" x1="5" x2="249" y1="809.1621" y2="809.1621"/><text fill="#000000" font-family="sans-serif" font-size="13" font-weight="bold" lengthAdjust="spacing" textLength="18" x="17" y="804.4199">20</text><text fill="#000000" font-family="sans-serif" font-size="13" lengthAdjust="spacing" textLength="178" x="39" y="804.4199">422: Unprocessable Content</text><line style="stroke:#000000;stroke-width:1.0;stroke-dasharray:2.0,2.0;" x1="3" x2="1039" y1="818.1621" y2="818.1621"/><text fill="#000000" font-family="sans-serif" font-size="11" font-weight="bold" lengthAdjust="spacing" textLength="145" x="8" y="828.7969">[floor correct parameters]</text><polygon fill="#181818" points="878.5,849.4277,888.5,853.4277,878.5,857.4277,882.5,853.4277" style="stroke:#181818;stroke-width:1.0;"/><line style="stroke:#181818;stroke-width:1.0;" x1="546" x2="884.5" y1="853.4277" y2="853.4277"/><text fill="#000000" font-family="sans-serif" font-size="13" font-weight="bold" lengthAdjust="spacing" textLength="18" x="553" y="848.6855">21</text><text fill="#000000" font-family="sans-serif" font-size="13" lengthAdjust="spacing" textLength="66" x="575" y="848.6855">save(floor)</text><polygon fill="#181818" points="977.5,878.7383,987.5,882.7383,977.5,886.7383,981.5,882.7383" style="stroke:#181818;stroke-width:1.0;"/><line style="stroke:#181818;stroke-width:1.0;" x1="900.5" x2="983.5" y1="882.7383" y2="882.7383"/><text fill="#000000" font-family="sans-serif" font-size="13" font-weight="bold" lengthAdjust="spacing" textLength="18" x="907.5" y="877.9961">22</text><text fill="#000000" font-family="sans-serif" font-size="13" lengthAdjust="spacing" textLength="36" x="929.5" y="877.9961">save()</text><polygon fill="#181818" points="654,938.0488,664,942.0488,654,946.0488,658,942.0488" style="stroke:#181818;stroke-width:1.0;"/><line style="stroke:#181818;stroke-width:1.0;" x1="546" x2="660" y1="942.0488" y2="942.0488"/><text fill="#000000" font-family="sans-serif" font-size="13" font-weight="bold" lengthAdjust="spacing" textLength="18" x="553" y="937.3066">23</text><text fill="#000000" font-family="sans-serif" font-size="13" lengthAdjust="spacing" textLength="79" x="575" y="937.3066">toDTO(floor)</text><polygon fill="#181818" points="786,967.3594,796,971.3594,786,975.3594,790,971.3594" style="stroke:#181818;stroke-width:1.0;"/><line style="stroke:#181818;stroke-width:1.0;stroke-dasharray:2.0,2.0;" x1="676" x2="792" y1="971.3594" y2="971.3594"/><text fill="#000000" font-family="sans-serif" font-size="13" font-weight="bold" lengthAdjust="spacing" textLength="18" x="683" y="966.6172">24</text><text fill="#000000" font-family="sans-serif" font-size="13" lengthAdjust="spacing" textLength="76" x="705" y="966.6172">create(floor)</text><rect fill="#E2E2F0" height="46.9766" rx="2.5" ry="2.5" style="stroke:#181818;stroke-width:0.5;" width="44" x="798" y="950.0488"/><text fill="#000000" font-family="sans-serif" font-size="14" lengthAdjust="spacing" textLength="27" x="806.5" y="970.584">dto:</text><text fill="#000000" font-family="sans-serif" font-size="14" lengthAdjust="spacing" textLength="30" x="805" y="987.0723">DTO</text><polygon fill="#181818" points="557,1025.3359,547,1029.3359,557,1033.3359,553,1029.3359" style="stroke:#181818;stroke-width:1.0;"/><line style="stroke:#181818;stroke-width:1.0;stroke-dasharray:2.0,2.0;" x1="551" x2="670" y1="1029.3359" y2="1029.3359"/><text fill="#000000" font-family="sans-serif" font-size="13" font-weight="bold" lengthAdjust="spacing" textLength="18" x="563" y="1024.5938">25</text><text fill="#000000" font-family="sans-serif" font-size="13" lengthAdjust="spacing" textLength="21" x="585" y="1024.5938">dto</text><polygon fill="#181818" points="433,1054.6465,423,1058.6465,433,1062.6465,429,1058.6465" style="stroke:#181818;stroke-width:1.0;"/><line style="stroke:#181818;stroke-width:1.0;stroke-dasharray:2.0,2.0;" x1="427" x2="540" y1="1058.6465" y2="1058.6465"/><text fill="#000000" font-family="sans-serif" font-size="13" font-weight="bold" lengthAdjust="spacing" textLength="18" x="439" y="1053.9043">26</text><text fill="#000000" font-family="sans-serif" font-size="13" lengthAdjust="spacing" textLength="21" x="461" y="1053.9043">dto</text><polygon fill="#181818" points="271,1083.957,261,1087.957,271,1091.957,267,1087.957" style="stroke:#181818;stroke-width:1.0;"/><line style="stroke:#181818;stroke-width:1.0;stroke-dasharray:2.0,2.0;" x1="265" x2="416" y1="1087.957" y2="1087.957"/><text fill="#000000" font-family="sans-serif" font-size="13" font-weight="bold" lengthAdjust="spacing" textLength="18" x="277" y="1083.2148">27</text><text fill="#000000" font-family="sans-serif" font-size="13" lengthAdjust="spacing" textLength="85" x="299" y="1083.2148">response 200</text><polygon fill="#181818" points="11,1113.2676,1,1117.2676,11,1121.2676,7,1117.2676" style="stroke:#181818;stroke-width:1.0;"/><line style="stroke:#181818;stroke-width:1.0;stroke-dasharray:2.0,2.0;" x1="5" x2="249" y1="1117.2676" y2="1117.2676"/><text fill="#000000" font-family="sans-serif" font-size="13" font-weight="bold" lengthAdjust="spacing" textLength="18" x="17" y="1112.5254">28</text><text fill="#000000" font-family="sans-serif" font-size="13" lengthAdjust="spacing" textLength="50" x="39" y="1112.5254">200: OK</text><!--SRC=[bLOzRzim4DtrAmwUh21s32EJK7HeWYn5aw9DfdIXo7DAG2PLYd8H5FdlFL8sBSdwv289lFVqxkuT9LPQhSfzYYQAefmPAxdCcRAm-A5BYmjW1PZcnfrMrkWiG-DtkJLPC-0dceFa5ROuy3RnDvRdH-oUvSqzONNoIzq_F_bjUcgBmbmNqchpNYcZnqWmor9M82pkZtSLE8sYrzLdC0byVtc6PLhAJ4ZrLjpya-BZPfTfRUZUNp_YY74h3ymYPGkq313KfGO9vALzS55BWt-k3HRNw_Kwzb5k1Q0l1DIMXnCDrQ3EGbd5ZRZ0u8e5hUN0BWlAb4XsKealxtTQOCZ7FSGNi7CwhaJGiJmZCOlqoBkCE-C24nKKUXPnhCuYJyewmmME4LR2GjrwsMfCFidB6cGse45f2pjTAj7vJb_bSyVH66qw0wkUkbmfZBoGQqNEkztSTaQ_VbgjN23j9_182Xuw5M16747fYCeEBppw0MuuuXgyiQkTaSRsMcIEJQPQvT8kNcY_jN0AQyip_PIZfZaPnrECk6QMS-QxPuQ3WeigsSEIAIdANhxzjg1tdOTEWrR8KpMA7BdSISwi9E63A7SC2z0A5Fwb2_P7en9UKTHlgz2Eb0cWxm7ReqKpB61MNmPwizqEea9_jji4NbHkDCUYO6c6uBwJg6n_ukT-SMqCSZihjp0_1JlWqlF4WwXfyzuvz_uLyIXcwlnFd-l98zig3VrOa6ohwKzYLcdS3ycOSiVjV4BVSRYwIe0R9EYKrpHhPCURK7zTTR9DGTLBEn9U2nrBlJLGGymrrhxJfNlQjflDq6V-uWyhJ63Ye0ayVOrQHqlKldVNkgEY_m00]--></g></svg>