<?xml version="1.0" encoding="us-ascii" standalone="no"?><svg xmlns="http://www.w3.org/2000/svg" xmlns:xlink="http://www.w3.org/1999/xlink" contentStyleType="text/css" height="957px" preserveAspectRatio="none" style="width:1129px;height:957px;background:#FFFFFF;" version="1.1" viewBox="0 0 1129 957" width="1129px" zoomAndPan="magnify"><defs/><g><rect fill="#FFFFFF" height="936.6484" style="stroke:#181818;stroke-width:1.5;" width="1118" x="5" y="15"/><path d="M37,15 L37,24.4883 L27,34.4883 L5,34.4883 " fill="none" style="stroke:#181818;stroke-width:1.5;"/><text fill="#000000" font-family="sans-serif" font-size="14" lengthAdjust="spacing" textLength="22" x="8" y="29.5352">MD</text><rect fill="#ADD8E6" height="884.4297" style="stroke:#181818;stroke-width:0.5;" width="731" x="270" y="43.7305"/><text fill="#000000" font-family="sans-serif" font-size="13" font-weight="bold" lengthAdjust="spacing" textLength="65" x="603" y="56.2988">Back-End</text><rect fill="#DDDDDD" height="884.4297" style="stroke:#181818;stroke-width:0.5;" width="87" x="1003" y="43.7305"/><text fill="#000000" font-family="sans-serif" font-size="13" font-weight="bold" lengthAdjust="spacing" textLength="63" x="1015" y="56.2988">Database</text><rect fill="#FFFFFF" height="695.832" style="stroke:#181818;stroke-width:1.0;" width="10" x="296" y="156.8398"/><rect fill="#FFFFFF" height="615.2109" style="stroke:#181818;stroke-width:1.0;" width="10" x="472" y="186.1504"/><rect fill="#FFFFFF" height="556.5898" style="stroke:#181818;stroke-width:1.0;" width="10" x="649" y="215.4609"/><rect fill="#FFFFFF" height="87.2871" style="stroke:#181818;stroke-width:1.0;" width="10" x="821" y="655.4531"/><rect fill="#FFFFFF" height="47.9766" style="stroke:#181818;stroke-width:1.0;" width="10" x="970" y="694.7637"/><rect fill="#FFFFFF" height="30" style="stroke:#181818;stroke-width:1.0;" width="10" x="1041.5" y="244.7715"/><rect fill="#FFFFFF" height="30" style="stroke:#181818;stroke-width:1.0;" width="10" x="1041.5" y="596.1426"/><rect fill="none" height="555.9004" style="stroke:#000000;stroke-width:1.5;" width="1086" x="20" y="289.7715"/><rect fill="none" height="371.082" style="stroke:#000000;stroke-width:1.5;" width="1066" x="30" y="467.5898"/><line style="stroke:#181818;stroke-width:0.5;stroke-dasharray:5.0,5.0;" x1="53" x2="53" y1="125.5293" y2="862.6719"/><line style="stroke:#181818;stroke-width:0.5;stroke-dasharray:5.0,5.0;" x1="301" x2="301" y1="125.5293" y2="862.6719"/><line style="stroke:#181818;stroke-width:0.5;stroke-dasharray:5.0,5.0;" x1="477" x2="477" y1="125.5293" y2="862.6719"/><line style="stroke:#181818;stroke-width:0.5;stroke-dasharray:5.0,5.0;" x1="654" x2="654" y1="125.5293" y2="862.6719"/><line style="stroke:#181818;stroke-width:0.5;stroke-dasharray:5.0,5.0;" x1="826" x2="826" y1="125.5293" y2="862.6719"/><line style="stroke:#181818;stroke-width:0.5;stroke-dasharray:5.0,5.0;" x1="975" x2="975" y1="702.4414" y2="862.6719"/><line style="stroke:#181818;stroke-width:0.5;stroke-dasharray:5.0,5.0;" x1="1046" x2="1046" y1="125.5293" y2="862.6719"/><rect fill="#E2E2F0" height="30.4883" rx="2.5" ry="2.5" style="stroke:#181818;stroke-width:0.5;" width="26" x="40" y="94.041"/><text fill="#000000" font-family="sans-serif" font-size="14" lengthAdjust="spacing" textLength="12" x="47" y="114.5762">??</text><rect fill="#E2E2F0" height="30.4883" rx="2.5" ry="2.5" style="stroke:#181818;stroke-width:0.5;" width="26" x="40" y="861.6719"/><text fill="#000000" font-family="sans-serif" font-size="14" lengthAdjust="spacing" textLength="12" x="47" y="882.207">??</text><rect fill="#E2E2F0" height="30.4883" rx="2.5" ry="2.5" style="stroke:#181818;stroke-width:0.5;" width="54" x="274" y="94.041"/><text fill="#000000" font-family="sans-serif" font-size="14" lengthAdjust="spacing" textLength="40" x="281" y="114.5762">Route</text><rect fill="#E2E2F0" height="30.4883" rx="2.5" ry="2.5" style="stroke:#181818;stroke-width:0.5;" width="54" x="274" y="861.6719"/><text fill="#000000" font-family="sans-serif" font-size="14" lengthAdjust="spacing" textLength="40" x="281" y="882.207">Route</text><rect fill="#E2E2F0" height="30.4883" rx="2.5" ry="2.5" style="stroke:#181818;stroke-width:0.5;" width="84" x="435" y="94.041"/><text fill="#000000" font-family="sans-serif" font-size="14" lengthAdjust="spacing" textLength="70" x="442" y="114.5762">Controller</text><rect fill="#E2E2F0" height="30.4883" rx="2.5" ry="2.5" style="stroke:#181818;stroke-width:0.5;" width="84" x="435" y="861.6719"/><text fill="#000000" font-family="sans-serif" font-size="14" lengthAdjust="spacing" textLength="70" x="442" y="882.207">Controller</text><rect fill="#E2E2F0" height="30.4883" rx="2.5" ry="2.5" style="stroke:#181818;stroke-width:0.5;" width="62" x="623" y="94.041"/><text fill="#000000" font-family="sans-serif" font-size="14" lengthAdjust="spacing" textLength="48" x="630" y="114.5762">Service</text><rect fill="#E2E2F0" height="30.4883" rx="2.5" ry="2.5" style="stroke:#181818;stroke-width:0.5;" width="62" x="623" y="861.6719"/><text fill="#000000" font-family="sans-serif" font-size="14" lengthAdjust="spacing" textLength="48" x="630" y="882.207">Service</text><rect fill="#E2E2F0" height="30.4883" rx="2.5" ry="2.5" style="stroke:#181818;stroke-width:0.5;" width="66" x="793" y="94.041"/><text fill="#000000" font-family="sans-serif" font-size="14" lengthAdjust="spacing" textLength="52" x="800" y="114.5762">Mapper</text><rect fill="#E2E2F0" height="30.4883" rx="2.5" ry="2.5" style="stroke:#181818;stroke-width:0.5;" width="66" x="793" y="861.6719"/><text fill="#000000" font-family="sans-serif" font-size="14" lengthAdjust="spacing" textLength="52" x="800" y="882.207">Mapper</text><rect fill="#E2E2F0" height="46.9766" rx="2.5" ry="2.5" style="stroke:#181818;stroke-width:0.5;" width="44" x="953" y="861.6719"/><text fill="#000000" font-family="sans-serif" font-size="14" lengthAdjust="spacing" textLength="27" x="961.5" y="882.207">dto:</text><text fill="#000000" font-family="sans-serif" font-size="14" lengthAdjust="spacing" textLength="30" x="960" y="898.6953">DTO</text><text fill="#000000" font-family="sans-serif" font-size="14" lengthAdjust="spacing" textLength="73" x="1007" y="122.5762">Repository</text><path d="M1028.5,73.041 C1028.5,63.041 1046.5,63.041 1046.5,63.041 C1046.5,63.041 1064.5,63.041 1064.5,73.041 L1064.5,99.041 C1064.5,109.041 1046.5,109.041 1046.5,109.041 C1046.5,109.041 1028.5,109.041 1028.5,99.041 L1028.5,73.041 " fill="#E2E2F0" style="stroke:#181818;stroke-width:1.5;"/><path d="M1028.5,73.041 C1028.5,83.041 1046.5,83.041 1046.5,83.041 C1046.5,83.041 1064.5,83.041 1064.5,73.041 " fill="none" style="stroke:#181818;stroke-width:1.5;"/><text fill="#000000" font-family="sans-serif" font-size="14" lengthAdjust="spacing" textLength="73" x="1007" y="875.207">Repository</text><path d="M1028.5,888.1602 C1028.5,878.1602 1046.5,878.1602 1046.5,878.1602 C1046.5,878.1602 1064.5,878.1602 1064.5,888.1602 L1064.5,914.1602 C1064.5,924.1602 1046.5,924.1602 1046.5,924.1602 C1046.5,924.1602 1028.5,924.1602 1028.5,914.1602 L1028.5,888.1602 " fill="#E2E2F0" style="stroke:#181818;stroke-width:1.5;"/><path d="M1028.5,888.1602 C1028.5,898.1602 1046.5,898.1602 1046.5,898.1602 C1046.5,898.1602 1064.5,898.1602 1064.5,888.1602 " fill="none" style="stroke:#181818;stroke-width:1.5;"/><rect fill="#FFFFFF" height="695.832" style="stroke:#181818;stroke-width:1.0;" width="10" x="296" y="156.8398"/><rect fill="#FFFFFF" height="615.2109" style="stroke:#181818;stroke-width:1.0;" width="10" x="472" y="186.1504"/><rect fill="#FFFFFF" height="556.5898" style="stroke:#181818;stroke-width:1.0;" width="10" x="649" y="215.4609"/><rect fill="#FFFFFF" height="87.2871" style="stroke:#181818;stroke-width:1.0;" width="10" x="821" y="655.4531"/><rect fill="#FFFFFF" height="47.9766" style="stroke:#181818;stroke-width:1.0;" width="10" x="970" y="694.7637"/><rect fill="#FFFFFF" height="30" style="stroke:#181818;stroke-width:1.0;" width="10" x="1041.5" y="244.7715"/><rect fill="#FFFFFF" height="30" style="stroke:#181818;stroke-width:1.0;" width="10" x="1041.5" y="596.1426"/><polygon fill="#181818" points="284,152.8398,294,156.8398,284,160.8398,288,156.8398" style="stroke:#181818;stroke-width:1.0;"/><line style="stroke:#181818;stroke-width:1.0;stroke-dasharray:2.0,2.0;" x1="53" x2="290" y1="156.8398" y2="156.8398"/><text fill="#000000" font-family="sans-serif" font-size="13" font-weight="bold" lengthAdjust="spacing" textLength="9" x="60" y="152.0977">1</text><text fill="#000000" font-family="sans-serif" font-size="13" lengthAdjust="spacing" textLength="211" x="73" y="152.0977">PUT (buildings/{id}/floors/{floor})</text><polygon fill="#181818" points="460,182.1504,470,186.1504,460,190.1504,464,186.1504" style="stroke:#181818;stroke-width:1.0;"/><line style="stroke:#181818;stroke-width:1.0;" x1="306" x2="466" y1="186.1504" y2="186.1504"/><text fill="#000000" font-family="sans-serif" font-size="13" font-weight="bold" lengthAdjust="spacing" textLength="9" x="313" y="181.4082">2</text><text fill="#000000" font-family="sans-serif" font-size="13" lengthAdjust="spacing" textLength="134" x="326" y="181.4082">patchFloor(req,res,...)</text><polygon fill="#181818" points="637,211.4609,647,215.4609,637,219.4609,641,215.4609" style="stroke:#181818;stroke-width:1.0;"/><line style="stroke:#181818;stroke-width:1.0;" x1="482" x2="643" y1="215.4609" y2="215.4609"/><text fill="#000000" font-family="sans-serif" font-size="13" font-weight="bold" lengthAdjust="spacing" textLength="9" x="489" y="210.7188">3</text><text fill="#000000" font-family="sans-serif" font-size="13" lengthAdjust="spacing" textLength="135" x="502" y="210.7188">editFloor(id,floor,dto)</text><polygon fill="#181818" points="1029.5,240.7715,1039.5,244.7715,1029.5,248.7715,1033.5,244.7715" style="stroke:#181818;stroke-width:1.0;"/><line style="stroke:#181818;stroke-width:1.0;" x1="659" x2="1035.5" y1="244.7715" y2="244.7715"/><text fill="#000000" font-family="sans-serif" font-size="13" font-weight="bold" lengthAdjust="spacing" textLength="9" x="666" y="240.0293">4</text><text fill="#000000" font-family="sans-serif" font-size="13" lengthAdjust="spacing" textLength="150" x="679" y="240.0293">findByIdentifier(id,floor)</text><path d="M20,289.7715 L82,289.7715 L82,297.082 L72,307.082 L20,307.082 L20,289.7715 " fill="#EEEEEE" style="stroke:#000000;stroke-width:1.5;"/><rect fill="none" height="555.9004" style="stroke:#000000;stroke-width:1.5;" width="1086" x="20" y="289.7715"/><text fill="#000000" font-family="sans-serif" font-size="13" font-weight="bold" lengthAdjust="spacing" textLength="17" x="35" y="303.3398">alt</text><text fill="#000000" font-family="sans-serif" font-size="11" font-weight="bold" lengthAdjust="spacing" textLength="95" x="97" y="302.4063">[floor not found]</text><polygon fill="#181818" points="493,324.3926,483,328.3926,493,332.3926,489,328.3926" style="stroke:#181818;stroke-width:1.0;"/><line style="stroke:#181818;stroke-width:1.0;stroke-dasharray:2.0,2.0;" x1="487" x2="648" y1="328.3926" y2="328.3926"/><text fill="#000000" font-family="sans-serif" font-size="13" font-weight="bold" lengthAdjust="spacing" textLength="9" x="499" y="323.6504">5</text><text fill="#000000" font-family="sans-serif" font-size="13" lengthAdjust="spacing" textLength="30" x="512" y="323.6504">error</text><polygon fill="#181818" points="317,353.7031,307,357.7031,317,361.7031,313,357.7031" style="stroke:#181818;stroke-width:1.0;"/><line style="stroke:#181818;stroke-width:1.0;stroke-dasharray:2.0,2.0;" x1="311" x2="471" y1="357.7031" y2="357.7031"/><text fill="#000000" font-family="sans-serif" font-size="13" font-weight="bold" lengthAdjust="spacing" textLength="9" x="323" y="352.9609">6</text><text fill="#000000" font-family="sans-serif" font-size="13" lengthAdjust="spacing" textLength="85" x="336" y="352.9609">response 422</text><polygon fill="#181818" points="64,383.0137,54,387.0137,64,391.0137,60,387.0137" style="stroke:#181818;stroke-width:1.0;"/><line style="stroke:#181818;stroke-width:1.0;stroke-dasharray:2.0,2.0;" x1="58" x2="295" y1="387.0137" y2="387.0137"/><text fill="#000000" font-family="sans-serif" font-size="13" font-weight="bold" lengthAdjust="spacing" textLength="9" x="70" y="382.2715">7</text><text fill="#000000" font-family="sans-serif" font-size="13" lengthAdjust="spacing" textLength="152" x="83" y="382.2715">412: Precondition Failed</text><line style="stroke:#000000;stroke-width:1.0;stroke-dasharray:2.0,2.0;" x1="20" x2="1106" y1="396.0137" y2="396.0137"/><text fill="#000000" font-family="sans-serif" font-size="11" font-weight="bold" lengthAdjust="spacing" textLength="72" x="25" y="406.6484">[floor exists]</text><path d="M664,414.9688 L664,454.9688 L835,454.9688 L835,424.9688 L825,414.9688 L664,414.9688 " fill="#FEFFDD" style="stroke:#181818;stroke-width:0.5;"/><path d="M825,414.9688 L825,424.9688 L835,424.9688 L825,414.9688 " fill="#FEFFDD" style="stroke:#181818;stroke-width:0.5;"/><text fill="#000000" font-family="sans-serif" font-size="13" lengthAdjust="spacing" textLength="150" x="670" y="432.5371">edit floor specifications</text><text fill="#000000" font-family="sans-serif" font-size="13" lengthAdjust="spacing" textLength="120" x="670" y="447.8477">based on new ones</text><path d="M30,467.5898 L92,467.5898 L92,474.9004 L82,484.9004 L30,484.9004 L30,467.5898 " fill="#EEEEEE" style="stroke:#000000;stroke-width:1.5;"/><rect fill="none" height="371.082" style="stroke:#000000;stroke-width:1.5;" width="1066" x="30" y="467.5898"/><text fill="#000000" font-family="sans-serif" font-size="13" font-weight="bold" lengthAdjust="spacing" textLength="17" x="45" y="481.1582">alt</text><text fill="#000000" font-family="sans-serif" font-size="11" font-weight="bold" lengthAdjust="spacing" textLength="126" x="107" y="480.2246">[floor bad parameters]</text><polygon fill="#181818" points="493,502.2109,483,506.2109,493,510.2109,489,506.2109" style="stroke:#181818;stroke-width:1.0;"/><line style="stroke:#181818;stroke-width:1.0;stroke-dasharray:2.0,2.0;" x1="487" x2="648" y1="506.2109" y2="506.2109"/><text fill="#000000" font-family="sans-serif" font-size="13" font-weight="bold" lengthAdjust="spacing" textLength="9" x="499" y="501.4688">8</text><text fill="#000000" font-family="sans-serif" font-size="13" lengthAdjust="spacing" textLength="30" x="512" y="501.4688">error</text><polygon fill="#181818" points="317,531.5215,307,535.5215,317,539.5215,313,535.5215" style="stroke:#181818;stroke-width:1.0;"/><line style="stroke:#181818;stroke-width:1.0;stroke-dasharray:2.0,2.0;" x1="311" x2="471" y1="535.5215" y2="535.5215"/><text fill="#000000" font-family="sans-serif" font-size="13" font-weight="bold" lengthAdjust="spacing" textLength="9" x="323" y="530.7793">9</text><text fill="#000000" font-family="sans-serif" font-size="13" lengthAdjust="spacing" textLength="85" x="336" y="530.7793">response 422</text><polygon fill="#181818" points="64,560.832,54,564.832,64,568.832,60,564.832" style="stroke:#181818;stroke-width:1.0;"/><line style="stroke:#181818;stroke-width:1.0;stroke-dasharray:2.0,2.0;" x1="58" x2="295" y1="564.832" y2="564.832"/><text fill="#000000" font-family="sans-serif" font-size="13" font-weight="bold" lengthAdjust="spacing" textLength="18" x="70" y="560.0898">10</text><text fill="#000000" font-family="sans-serif" font-size="13" lengthAdjust="spacing" textLength="178" x="92" y="560.0898">422: Unprocessable Content</text><line style="stroke:#000000;stroke-width:1.0;stroke-dasharray:2.0,2.0;" x1="30" x2="1096" y1="573.832" y2="573.832"/><polygon fill="#181818" points="1029.5,592.1426,1039.5,596.1426,1029.5,600.1426,1033.5,596.1426" style="stroke:#181818;stroke-width:1.0;"/><line style="stroke:#181818;stroke-width:1.0;" x1="659" x2="1035.5" y1="596.1426" y2="596.1426"/><text fill="#000000" font-family="sans-serif" font-size="13" font-weight="bold" lengthAdjust="spacing" textLength="18" x="666" y="591.4004">11</text><text fill="#000000" font-family="sans-serif" font-size="13" lengthAdjust="spacing" textLength="66" x="688" y="591.4004">save(floor)</text><polygon fill="#181818" points="809,651.4531,819,655.4531,809,659.4531,813,655.4531" style="stroke:#181818;stroke-width:1.0;"/><line style="stroke:#181818;stroke-width:1.0;" x1="659" x2="815" y1="655.4531" y2="655.4531"/><text fill="#000000" font-family="sans-serif" font-size="13" font-weight="bold" lengthAdjust="spacing" textLength="18" x="666" y="650.7109">12</text><text fill="#000000" font-family="sans-serif" font-size="13" lengthAdjust="spacing" textLength="121" x="688" y="650.7109">domain2DTO(floor)</text><polygon fill="#181818" points="941,680.7637,951,684.7637,941,688.7637,945,684.7637" style="stroke:#181818;stroke-width:1.0;"/><line style="stroke:#181818;stroke-width:1.0;stroke-dasharray:2.0,2.0;" x1="831" x2="947" y1="684.7637" y2="684.7637"/><text fill="#000000" font-family="sans-serif" font-size="13" font-weight="bold" lengthAdjust="spacing" textLength="18" x="838" y="680.0215">13</text><text fill="#000000" font-family="sans-serif" font-size="13" lengthAdjust="spacing" textLength="76" x="860" y="680.0215">create(floor)</text><rect fill="#E2E2F0" height="46.9766" rx="2.5" ry="2.5" style="stroke:#181818;stroke-width:0.5;" width="44" x="953" y="663.4531"/><text fill="#000000" font-family="sans-serif" font-size="14" lengthAdjust="spacing" textLength="27" x="961.5" y="683.9883">dto:</text><text fill="#000000" font-family="sans-serif" font-size="14" lengthAdjust="spacing" textLength="30" x="960" y="700.4766">DTO</text><polygon fill="#181818" points="670,738.7402,660,742.7402,670,746.7402,666,742.7402" style="stroke:#181818;stroke-width:1.0;"/><line style="stroke:#181818;stroke-width:1.0;stroke-dasharray:2.0,2.0;" x1="664" x2="825" y1="742.7402" y2="742.7402"/><text fill="#000000" font-family="sans-serif" font-size="13" font-weight="bold" lengthAdjust="spacing" textLength="18" x="676" y="737.998">14</text><text fill="#000000" font-family="sans-serif" font-size="13" lengthAdjust="spacing" textLength="21" x="698" y="737.998">dto</text><polygon fill="#181818" points="493,768.0508,483,772.0508,493,776.0508,489,772.0508" style="stroke:#181818;stroke-width:1.0;"/><line style="stroke:#181818;stroke-width:1.0;stroke-dasharray:2.0,2.0;" x1="487" x2="653" y1="772.0508" y2="772.0508"/><text fill="#000000" font-family="sans-serif" font-size="13" font-weight="bold" lengthAdjust="spacing" textLength="18" x="499" y="767.3086">15</text><text fill="#000000" font-family="sans-serif" font-size="13" lengthAdjust="spacing" textLength="21" x="521" y="767.3086">dto</text><polygon fill="#181818" points="317,797.3613,307,801.3613,317,805.3613,313,801.3613" style="stroke:#181818;stroke-width:1.0;"/><line style="stroke:#181818;stroke-width:1.0;stroke-dasharray:2.0,2.0;" x1="311" x2="476" y1="801.3613" y2="801.3613"/><text fill="#000000" font-family="sans-serif" font-size="13" font-weight="bold" lengthAdjust="spacing" textLength="18" x="323" y="796.6191">16</text><text fill="#000000" font-family="sans-serif" font-size="13" lengthAdjust="spacing" textLength="24" x="345" y="796.6191">200</text><polygon fill="#181818" points="64,826.6719,54,830.6719,64,834.6719,60,830.6719" style="stroke:#181818;stroke-width:1.0;"/><line style="stroke:#181818;stroke-width:1.0;stroke-dasharray:2.0,2.0;" x1="58" x2="295" y1="830.6719" y2="830.6719"/><text fill="#000000" font-family="sans-serif" font-size="13" font-weight="bold" lengthAdjust="spacing" textLength="18" x="70" y="825.9297">17</text><text fill="#000000" font-family="sans-serif" font-size="13" lengthAdjust="spacing" textLength="124" x="92" y="825.9297">200: "OK" Sucessful</text><!--SRC=[pLLDRzim3BthLn3UeKcHj9tHKp2iG9OL6BQYmzhUTf4jkXNcI9uaPos6_lUHSXhRG-raj-bY6H8V7ny_9EjWJRtEq0bHIHTqhYjf0YGN5mb83xKMOYsrAPnS8rojH6OV8LdA_CVyer49lFcYxn_2igonR_xDrW4ZWkiVVB0cE5kMwE9f7bpPlt23RgFpnjPlSl4NhojPLLlRjQpwPohOnNUpkhsEn_Gdq2WWngAXlP91Pj9Z8jHsHqInibu7wvuQjlGhZdgeHMcj8znB_iPBsEBM6kRpz-0MyFNk5YPPhKkbpRq__QtLysaqfNtyFay5q99vq1iPa8I1pd90CAm6BA2I8N-8xYOEVyuS-jd9oScqTxy75LM4LrO4960Iad1HwT30QZMBd6OaqlHLonqsvm065iDoz2GQmHVQgENJ9uKcw49ZwsKw2D2AmRh3o3gAJbXhXEFZ1UGEoMuo3Asm3pxCeGmGQOAnjBErKQDCOj1jij0vwqODcYImJdITabbPGvLtdgQZLbHPx-PpDZb_cr9vESojeGHgQ-1IwXA7MM99-4r8-AXzy6BK4uLD6d4VWor6yxrpG3os3do5EMKxbqpCxxNafbD08HZyHHySj-0sOtRYaEnbKb7dy9mAwFn_biAKKdXdAcTpz5vc9G8FGkgKqIIAVJ7iUi_B3KxsDDk_zDl1tREbGREOM2ZBRqLA4tXoQEFp41_Ja85PU1fKtRxV7shhWX-2WtmqKvAlms7IZ5tjNECOnO6rE0JPWOklujugJS_En0X8V394fx6snHeD5v1SVqxWfkPgBUhsRS6NsVYowTQ9-0C0]--></g></svg>