<?xml version="1.0" encoding="us-ascii" standalone="no"?><svg xmlns="http://www.w3.org/2000/svg" xmlns:xlink="http://www.w3.org/1999/xlink" contentStyleType="text/css" height="978px" preserveAspectRatio="none" style="width:1244px;height:978px;background:#FFFFFF;" version="1.1" viewBox="0 0 1244 978" width="1244px" zoomAndPan="magnify"><defs/><g><rect fill="#FFFFFF" height="804.0799" style="stroke:#181818;stroke-width:1.0;" width="10" x="212" y="91.8419"/><rect fill="#FFFFFF" height="740.6679" style="stroke:#181818;stroke-width:1.0;" width="10" x="443" y="123.5479"/><rect fill="#FFFFFF" height="53.1358" style="stroke:#181818;stroke-width:1.0;" width="10" x="598.5" y="165.2539"/><rect fill="#FFFFFF" height="582.414" style="stroke:#181818;stroke-width:1.0;" width="10" x="725" y="250.0957"/><rect fill="#FFFFFF" height="126.5479" style="stroke:#181818;stroke-width:1.0;" width="10" x="848" y="547.4318"/><rect fill="#FFFFFF" height="53.1358" style="stroke:#181818;stroke-width:1.0;" width="10" x="976.5" y="589.1378"/><rect fill="#FFFFFF" height="95.118" style="stroke:#181818;stroke-width:1.0;" width="10" x="1062" y="705.6857"/><rect fill="#FFFFFF" height="31.706" style="stroke:#181818;stroke-width:1.0;" width="10" x="1154" y="281.8018"/><rect fill="#FFFFFF" height="31.706" style="stroke:#181818;stroke-width:1.0;" width="10" x="1154" y="345.2138"/><rect fill="none" height="512.002" style="stroke:#000000;stroke-width:1.5;" width="1225" x="3" y="391.9198"/><line style="stroke:#181818;stroke-width:0.5;stroke-dasharray:5.0,5.0;" x1="216.5" x2="216.5" y1="58.1358" y2="920.9218"/><line style="stroke:#181818;stroke-width:0.5;stroke-dasharray:5.0,5.0;" x1="447.5" x2="447.5" y1="58.1358" y2="920.9218"/><line style="stroke:#181818;stroke-width:0.5;stroke-dasharray:5.0,5.0;" x1="603" x2="603" y1="173.1158" y2="920.9218"/><line style="stroke:#181818;stroke-width:0.5;stroke-dasharray:5.0,5.0;" x1="730" x2="730" y1="58.1358" y2="920.9218"/><line style="stroke:#181818;stroke-width:0.5;stroke-dasharray:5.0,5.0;" x1="852.5" x2="852.5" y1="58.1358" y2="920.9218"/><line style="stroke:#181818;stroke-width:0.5;stroke-dasharray:5.0,5.0;" x1="981" x2="981" y1="596.9997" y2="920.9218"/><line style="stroke:#181818;stroke-width:0.5;stroke-dasharray:5.0,5.0;" x1="1067" x2="1067" y1="58.1358" y2="920.9218"/><line style="stroke:#181818;stroke-width:0.5;stroke-dasharray:5.0,5.0;" x1="1159" x2="1159" y1="58.1358" y2="920.9218"/><rect fill="#E2E2F0" height="33.0679" rx="2.5" ry="2.5" style="stroke:#181818;stroke-width:0.5;" width="53" x="190.5" y="24.0679"/><text fill="#000000" font-family="sans-serif" font-size="14" lengthAdjust="spacing" textLength="39" x="197.5" y="46.0339">Route</text><rect fill="#E2E2F0" height="33.0679" rx="2.5" ry="2.5" style="stroke:#181818;stroke-width:0.5;" width="53" x="190.5" y="919.9218"/><text fill="#000000" font-family="sans-serif" font-size="14" lengthAdjust="spacing" textLength="39" x="197.5" y="941.8877">Route</text><rect fill="#E2E2F0" height="33.0679" rx="2.5" ry="2.5" style="stroke:#181818;stroke-width:0.5;" width="111" x="392.5" y="24.0679"/><text fill="#000000" font-family="sans-serif" font-size="14" lengthAdjust="spacing" textLength="97" x="399.5" y="46.0339">TaskController</text><rect fill="#E2E2F0" height="33.0679" rx="2.5" ry="2.5" style="stroke:#181818;stroke-width:0.5;" width="111" x="392.5" y="919.9218"/><text fill="#000000" font-family="sans-serif" font-size="14" lengthAdjust="spacing" textLength="97" x="399.5" y="941.8877">TaskController</text><rect fill="#E2E2F0" height="52.1358" rx="2.5" ry="2.5" style="stroke:#181818;stroke-width:0.5;" width="141" x="533" y="919.9218"/><text fill="#000000" font-family="sans-serif" font-size="14" lengthAdjust="spacing" textLength="26" x="590.5" y="941.8877">dto:</text><text fill="#000000" font-family="sans-serif" font-size="14" lengthAdjust="spacing" textLength="127" x="540" y="960.9556">CreateDeliveryDTO</text><rect fill="#E2E2F0" height="33.0679" rx="2.5" ry="2.5" style="stroke:#181818;stroke-width:0.5;" width="92" x="684" y="24.0679"/><text fill="#000000" font-family="sans-serif" font-size="14" lengthAdjust="spacing" textLength="78" x="691" y="46.0339">TaskService</text><rect fill="#E2E2F0" height="33.0679" rx="2.5" ry="2.5" style="stroke:#181818;stroke-width:0.5;" width="92" x="684" y="919.9218"/><text fill="#000000" font-family="sans-serif" font-size="14" lengthAdjust="spacing" textLength="78" x="691" y="941.8877">TaskService</text><rect fill="#E2E2F0" height="33.0679" rx="2.5" ry="2.5" style="stroke:#181818;stroke-width:0.5;" width="67" x="819.5" y="24.0679"/><text fill="#000000" font-family="sans-serif" font-size="14" lengthAdjust="spacing" textLength="53" x="826.5" y="46.0339">Mapper</text><rect fill="#E2E2F0" height="33.0679" rx="2.5" ry="2.5" style="stroke:#181818;stroke-width:0.5;" width="67" x="819.5" y="919.9218"/><text fill="#000000" font-family="sans-serif" font-size="14" lengthAdjust="spacing" textLength="53" x="826.5" y="941.8877">Mapper</text><rect fill="#E2E2F0" height="52.1358" rx="2.5" ry="2.5" style="stroke:#181818;stroke-width:0.5;" width="73" x="945" y="919.9218"/><text fill="#000000" font-family="sans-serif" font-size="14" lengthAdjust="spacing" textLength="54" x="954.5" y="941.8877">taskDto:</text><text fill="#000000" font-family="sans-serif" font-size="14" lengthAdjust="spacing" textLength="59" x="952" y="960.9556">TaskDTO</text><rect fill="#E2E2F0" height="33.0679" rx="2.5" ry="2.5" style="stroke:#181818;stroke-width:0.5;" width="78" x="1028" y="24.0679"/><text fill="#000000" font-family="sans-serif" font-size="14" lengthAdjust="spacing" textLength="64" x="1035" y="46.0339">TaskRepo</text><rect fill="#E2E2F0" height="33.0679" rx="2.5" ry="2.5" style="stroke:#181818;stroke-width:0.5;" width="78" x="1028" y="919.9218"/><text fill="#000000" font-family="sans-serif" font-size="14" lengthAdjust="spacing" textLength="64" x="1035" y="941.8877">TaskRepo</text><rect fill="#E2E2F0" height="33.0679" rx="2.5" ry="2.5" style="stroke:#181818;stroke-width:0.5;" width="86" x="1116" y="24.0679"/><text fill="#000000" font-family="sans-serif" font-size="14" lengthAdjust="spacing" textLength="72" x="1123" y="46.0339">RoomRepo</text><rect fill="#E2E2F0" height="33.0679" rx="2.5" ry="2.5" style="stroke:#181818;stroke-width:0.5;" width="86" x="1116" y="919.9218"/><text fill="#000000" font-family="sans-serif" font-size="14" lengthAdjust="spacing" textLength="72" x="1123" y="941.8877">RoomRepo</text><rect fill="#FFFFFF" height="804.0799" style="stroke:#181818;stroke-width:1.0;" width="10" x="212" y="91.8419"/><rect fill="#FFFFFF" height="740.6679" style="stroke:#181818;stroke-width:1.0;" width="10" x="443" y="123.5479"/><rect fill="#FFFFFF" height="53.1358" style="stroke:#181818;stroke-width:1.0;" width="10" x="598.5" y="165.2539"/><rect fill="#FFFFFF" height="582.414" style="stroke:#181818;stroke-width:1.0;" width="10" x="725" y="250.0957"/><rect fill="#FFFFFF" height="126.5479" style="stroke:#181818;stroke-width:1.0;" width="10" x="848" y="547.4318"/><rect fill="#FFFFFF" height="53.1358" style="stroke:#181818;stroke-width:1.0;" width="10" x="976.5" y="589.1378"/><rect fill="#FFFFFF" height="95.118" style="stroke:#181818;stroke-width:1.0;" width="10" x="1062" y="705.6857"/><rect fill="#FFFFFF" height="31.706" style="stroke:#181818;stroke-width:1.0;" width="10" x="1154" y="281.8018"/><rect fill="#FFFFFF" height="31.706" style="stroke:#181818;stroke-width:1.0;" width="10" x="1154" y="345.2138"/><polygon fill="#181818" points="200,87.8419,210,91.8419,200,95.8419,204,91.8419" style="stroke:#181818;stroke-width:1.0;"/><line style="stroke:#181818;stroke-width:1.0;" x1="0" x2="206" y1="91.8419" y2="91.8419"/><text fill="#000000" font-family="sans-serif" font-size="13" font-weight="bold" lengthAdjust="spacing" textLength="7" x="7" y="86.0328">1</text><text fill="#000000" font-family="sans-serif" font-size="13" lengthAdjust="spacing" textLength="117" x="18" y="86.0328">POST /task/delivery</text><polygon fill="#181818" points="431,119.5479,441,123.5479,431,127.5479,435,123.5479" style="stroke:#181818;stroke-width:1.0;"/><line style="stroke:#181818;stroke-width:1.0;" x1="222" x2="437" y1="123.5479" y2="123.5479"/><text fill="#000000" font-family="sans-serif" font-size="13" font-weight="bold" lengthAdjust="spacing" textLength="7" x="229" y="117.7389">2</text><text fill="#000000" font-family="sans-serif" font-size="13" lengthAdjust="spacing" textLength="191" x="240" y="117.7389">createDeliveryTask(req,res,next)</text><polygon fill="#181818" points="521,151.2539,531,155.2539,521,159.2539,525,155.2539" style="stroke:#181818;stroke-width:1.0;"/><line style="stroke:#181818;stroke-width:1.0;" x1="453" x2="527" y1="155.2539" y2="155.2539"/><text fill="#000000" font-family="sans-serif" font-size="13" font-weight="bold" lengthAdjust="spacing" textLength="7" x="460" y="149.4449">3</text><text fill="#000000" font-family="sans-serif" font-size="13" lengthAdjust="spacing" textLength="45" x="471" y="149.4449">create()</text><rect fill="#E2E2F0" height="52.1358" rx="2.5" ry="2.5" style="stroke:#181818;stroke-width:0.5;" width="141" x="533" y="131.5479"/><text fill="#000000" font-family="sans-serif" font-size="14" lengthAdjust="spacing" textLength="26" x="590.5" y="153.5138">dto:</text><text fill="#000000" font-family="sans-serif" font-size="14" lengthAdjust="spacing" textLength="127" x="540" y="172.5817">CreateDeliveryDTO</text><polygon fill="#181818" points="464,214.3897,454,218.3897,464,222.3897,460,218.3897" style="stroke:#181818;stroke-width:1.0;"/><line style="stroke:#181818;stroke-width:1.0;stroke-dasharray:2.0,2.0;" x1="458" x2="602.5" y1="218.3897" y2="218.3897"/><text fill="#000000" font-family="sans-serif" font-size="13" font-weight="bold" lengthAdjust="spacing" textLength="7" x="470" y="212.5807">4</text><text fill="#000000" font-family="sans-serif" font-size="13" lengthAdjust="spacing" textLength="21" x="481" y="212.5807">dto</text><polygon fill="#181818" points="713,246.0957,723,250.0957,713,254.0957,717,250.0957" style="stroke:#181818;stroke-width:1.0;"/><line style="stroke:#181818;stroke-width:1.0;" x1="453" x2="719" y1="250.0957" y2="250.0957"/><text fill="#000000" font-family="sans-serif" font-size="13" font-weight="bold" lengthAdjust="spacing" textLength="7" x="460" y="244.2867">5</text><text fill="#000000" font-family="sans-serif" font-size="13" lengthAdjust="spacing" textLength="141" x="471" y="244.2867">createDeliveryTask(dto)</text><polygon fill="#181818" points="1142,277.8018,1152,281.8018,1142,285.8018,1146,281.8018" style="stroke:#181818;stroke-width:1.0;"/><line style="stroke:#181818;stroke-width:1.0;" x1="735" x2="1148" y1="281.8018" y2="281.8018"/><text fill="#000000" font-family="sans-serif" font-size="13" font-weight="bold" lengthAdjust="spacing" textLength="7" x="742" y="275.9927">6</text><text fill="#000000" font-family="sans-serif" font-size="13" lengthAdjust="spacing" textLength="316" x="753" y="275.9927">find(do.buildingCode1,dto.floorNumber1,dto.room1)</text><polygon fill="#181818" points="746,309.5078,736,313.5078,746,317.5078,742,313.5078" style="stroke:#181818;stroke-width:1.0;"/><line style="stroke:#181818;stroke-width:1.0;stroke-dasharray:2.0,2.0;" x1="740" x2="1158" y1="313.5078" y2="313.5078"/><text fill="#000000" font-family="sans-serif" font-size="13" font-weight="bold" lengthAdjust="spacing" textLength="7" x="752" y="307.6988">7</text><text fill="#000000" font-family="sans-serif" font-size="13" lengthAdjust="spacing" textLength="40" x="763" y="307.6988">room1</text><polygon fill="#181818" points="1142,341.2138,1152,345.2138,1142,349.2138,1146,345.2138" style="stroke:#181818;stroke-width:1.0;"/><line style="stroke:#181818;stroke-width:1.0;" x1="735" x2="1148" y1="345.2138" y2="345.2138"/><text fill="#000000" font-family="sans-serif" font-size="13" font-weight="bold" lengthAdjust="spacing" textLength="7" x="742" y="339.4048">8</text><text fill="#000000" font-family="sans-serif" font-size="13" lengthAdjust="spacing" textLength="321" x="753" y="339.4048">find(dto.buildingCode2,dto.floorNumber2,dto.room2)</text><polygon fill="#181818" points="746,372.9198,736,376.9198,746,380.9198,742,376.9198" style="stroke:#181818;stroke-width:1.0;"/><line style="stroke:#181818;stroke-width:1.0;stroke-dasharray:2.0,2.0;" x1="740" x2="1158" y1="376.9198" y2="376.9198"/><text fill="#000000" font-family="sans-serif" font-size="13" font-weight="bold" lengthAdjust="spacing" textLength="7" x="752" y="371.1108">9</text><text fill="#000000" font-family="sans-serif" font-size="13" lengthAdjust="spacing" textLength="40" x="763" y="371.1108">room2</text><path d="M3,391.9198 L66,391.9198 L66,401.6258 L56,411.6258 L3,411.6258 L3,391.9198 " fill="#EEEEEE" style="stroke:#000000;stroke-width:1.5;"/><rect fill="none" height="512.002" style="stroke:#000000;stroke-width:1.5;" width="1225" x="3" y="391.9198"/><text fill="#000000" font-family="sans-serif" font-size="13" font-weight="bold" lengthAdjust="spacing" textLength="18" x="18" y="406.8168">alt</text><text fill="#000000" font-family="sans-serif" font-size="11" font-weight="bold" lengthAdjust="spacing" textLength="114" x="81" y="405.6787">[floor does not exist]</text><polygon fill="#181818" points="464,431.3318,454,435.3318,464,439.3318,460,435.3318" style="stroke:#181818;stroke-width:1.0;"/><line style="stroke:#181818;stroke-width:1.0;stroke-dasharray:2.0,2.0;" x1="458" x2="724" y1="435.3318" y2="435.3318"/><text fill="#000000" font-family="sans-serif" font-size="13" font-weight="bold" lengthAdjust="spacing" textLength="14" x="470" y="429.5228">10</text><text fill="#000000" font-family="sans-serif" font-size="13" lengthAdjust="spacing" textLength="30" x="488" y="429.5228">error</text><polygon fill="#181818" points="233,463.0378,223,467.0378,233,471.0378,229,467.0378" style="stroke:#181818;stroke-width:1.0;"/><line style="stroke:#181818;stroke-width:1.0;stroke-dasharray:2.0,2.0;" x1="227" x2="442" y1="467.0378" y2="467.0378"/><text fill="#000000" font-family="sans-serif" font-size="13" font-weight="bold" lengthAdjust="spacing" textLength="14" x="239" y="461.2288">11</text><text fill="#000000" font-family="sans-serif" font-size="13" lengthAdjust="spacing" textLength="79" x="257" y="461.2288">response 422</text><polygon fill="#181818" points="11,494.7439,1,498.7439,11,502.7439,7,498.7439" style="stroke:#181818;stroke-width:1.0;"/><line style="stroke:#181818;stroke-width:1.0;stroke-dasharray:2.0,2.0;" x1="5" x2="211" y1="498.7439" y2="498.7439"/><text fill="#000000" font-family="sans-serif" font-size="13" font-weight="bold" lengthAdjust="spacing" textLength="14" x="17" y="492.9349">12</text><text fill="#000000" font-family="sans-serif" font-size="13" lengthAdjust="spacing" textLength="168" x="35" y="492.9349">422: Unprocessable Content</text><line style="stroke:#000000;stroke-width:1.0;stroke-dasharray:2.0,2.0;" x1="3" x2="1228" y1="507.7439" y2="507.7439"/><text fill="#000000" font-family="sans-serif" font-size="11" font-weight="bold" lengthAdjust="spacing" textLength="69" x="8" y="519.5028">[floor found]</text><polygon fill="#181818" points="836,543.4318,846,547.4318,836,551.4318,840,547.4318" style="stroke:#181818;stroke-width:1.0;"/><line style="stroke:#181818;stroke-width:1.0;" x1="735" x2="842" y1="547.4318" y2="547.4318"/><text fill="#000000" font-family="sans-serif" font-size="13" font-weight="bold" lengthAdjust="spacing" textLength="14" x="742" y="541.6228">13</text><text fill="#000000" font-family="sans-serif" font-size="13" lengthAdjust="spacing" textLength="76" x="760" y="541.6228">toDto(room)</text><polygon fill="#181818" points="933,575.1378,943,579.1378,933,583.1378,937,579.1378" style="stroke:#181818;stroke-width:1.0;"/><line style="stroke:#181818;stroke-width:1.0;" x1="858" x2="939" y1="579.1378" y2="579.1378"/><text fill="#000000" font-family="sans-serif" font-size="13" font-weight="bold" lengthAdjust="spacing" textLength="14" x="865" y="573.3288">14</text><text fill="#000000" font-family="sans-serif" font-size="13" lengthAdjust="spacing" textLength="45" x="883" y="573.3288">create()</text><rect fill="#E2E2F0" height="52.1358" rx="2.5" ry="2.5" style="stroke:#181818;stroke-width:0.5;" width="73" x="945" y="555.4318"/><text fill="#000000" font-family="sans-serif" font-size="14" lengthAdjust="spacing" textLength="54" x="954.5" y="577.3977">taskDto:</text><text fill="#000000" font-family="sans-serif" font-size="14" lengthAdjust="spacing" textLength="59" x="952" y="596.4656">TaskDTO</text><polygon fill="#181818" points="869,638.2736,859,642.2736,869,646.2736,865,642.2736" style="stroke:#181818;stroke-width:1.0;"/><line style="stroke:#181818;stroke-width:1.0;stroke-dasharray:2.0,2.0;" x1="863" x2="980.5" y1="642.2736" y2="642.2736"/><text fill="#000000" font-family="sans-serif" font-size="13" font-weight="bold" lengthAdjust="spacing" textLength="14" x="875" y="636.4646">15</text><text fill="#000000" font-family="sans-serif" font-size="13" lengthAdjust="spacing" textLength="21" x="893" y="636.4646">dto</text><polygon fill="#181818" points="746,669.9796,736,673.9796,746,677.9796,742,673.9796" style="stroke:#181818;stroke-width:1.0;"/><line style="stroke:#181818;stroke-width:1.0;stroke-dasharray:2.0,2.0;" x1="740" x2="852" y1="673.9796" y2="673.9796"/><text fill="#000000" font-family="sans-serif" font-size="13" font-weight="bold" lengthAdjust="spacing" textLength="14" x="752" y="668.1706">16</text><text fill="#000000" font-family="sans-serif" font-size="13" lengthAdjust="spacing" textLength="25" x="770" y="668.1706">task</text><polygon fill="#181818" points="1050,701.6857,1060,705.6857,1050,709.6857,1054,705.6857" style="stroke:#181818;stroke-width:1.0;"/><line style="stroke:#181818;stroke-width:1.0;" x1="735" x2="1056" y1="705.6857" y2="705.6857"/><text fill="#000000" font-family="sans-serif" font-size="13" font-weight="bold" lengthAdjust="spacing" textLength="14" x="742" y="699.8767">17</text><text fill="#000000" font-family="sans-serif" font-size="13" lengthAdjust="spacing" textLength="141" x="760" y="699.8767">createDeliveryTask(dto)</text><polygon fill="#181818" points="1226,733.3917,1236,737.3917,1226,741.3917,1230,737.3917" style="stroke:#181818;stroke-width:1.0;"/><line style="stroke:#181818;stroke-width:1.0;" x1="1072" x2="1232" y1="737.3917" y2="737.3917"/><text fill="#000000" font-family="sans-serif" font-size="13" font-weight="bold" lengthAdjust="spacing" textLength="14" x="1079" y="731.5827">18</text><text fill="#000000" font-family="sans-serif" font-size="13" lengthAdjust="spacing" textLength="117" x="1097" y="731.5827">POST /task/delivery</text><polygon fill="#181818" points="1083,765.0977,1073,769.0977,1083,773.0977,1079,769.0977" style="stroke:#181818;stroke-width:1.0;"/><line style="stroke:#181818;stroke-width:1.0;stroke-dasharray:2.0,2.0;" x1="1077" x2="1237" y1="769.0977" y2="769.0977"/><text fill="#000000" font-family="sans-serif" font-size="13" font-weight="bold" lengthAdjust="spacing" textLength="14" x="1089" y="763.2887">19</text><text fill="#000000" font-family="sans-serif" font-size="13" lengthAdjust="spacing" textLength="25" x="1107" y="763.2887">task</text><polygon fill="#181818" points="746,796.8037,736,800.8037,746,804.8037,742,800.8037" style="stroke:#181818;stroke-width:1.0;"/><line style="stroke:#181818;stroke-width:1.0;stroke-dasharray:2.0,2.0;" x1="740" x2="1066" y1="800.8037" y2="800.8037"/><text fill="#000000" font-family="sans-serif" font-size="13" font-weight="bold" lengthAdjust="spacing" textLength="14" x="752" y="794.9947">20</text><text fill="#000000" font-family="sans-serif" font-size="13" lengthAdjust="spacing" textLength="25" x="770" y="794.9947">task</text><polygon fill="#181818" points="464,828.5097,454,832.5097,464,836.5097,460,832.5097" style="stroke:#181818;stroke-width:1.0;"/><line style="stroke:#181818;stroke-width:1.0;stroke-dasharray:2.0,2.0;" x1="458" x2="729" y1="832.5097" y2="832.5097"/><text fill="#000000" font-family="sans-serif" font-size="13" font-weight="bold" lengthAdjust="spacing" textLength="14" x="470" y="826.7007">21</text><text fill="#000000" font-family="sans-serif" font-size="13" lengthAdjust="spacing" textLength="21" x="488" y="826.7007">dto</text><polygon fill="#181818" points="233,860.2157,223,864.2157,233,868.2157,229,864.2157" style="stroke:#181818;stroke-width:1.0;"/><line style="stroke:#181818;stroke-width:1.0;stroke-dasharray:2.0,2.0;" x1="227" x2="447" y1="864.2157" y2="864.2157"/><text fill="#000000" font-family="sans-serif" font-size="13" font-weight="bold" lengthAdjust="spacing" textLength="14" x="239" y="858.4067">22</text><text fill="#000000" font-family="sans-serif" font-size="13" lengthAdjust="spacing" textLength="21" x="257" y="858.4067">200</text><polygon fill="#181818" points="11,891.9218,1,895.9218,11,899.9218,7,895.9218" style="stroke:#181818;stroke-width:1.0;"/><line style="stroke:#181818;stroke-width:1.0;stroke-dasharray:2.0,2.0;" x1="5" x2="216" y1="895.9218" y2="895.9218"/><text fill="#000000" font-family="sans-serif" font-size="13" font-weight="bold" lengthAdjust="spacing" textLength="14" x="17" y="890.1127">23</text><text fill="#000000" font-family="sans-serif" font-size="13" lengthAdjust="spacing" textLength="42" x="35" y="890.1127">200 OK</text><!--SRC=[jLLDRzim3BtxLn0z9KNS3sCdOyWbkGrhXZOzTJqeDZCOSoHNaeFktvUK7ILEPBl3C9sIwF6HxubaH6sLh7SRr55K2MsBhAY4j73rg6gBLo0CwEx5MfZV2oMjLcM9sY4ogyikABSg_IaN6eN59PR57lMVvNhbq7HtoVY4UbzaJKAppywA-Iwggisr4rNtpbBqqgLZdaCIkmnbUSHADPhemxbUjJjUjr-Yw2MUWqxXn-ff3RUSwZPlvKH0HsIss9D6CWdQeu52s1588UiOm1LCDBxDD9gPn7SxzK4TBcSd18vZ9NPo4AwlFVza6aHxFZOy162Q-5XiBmm7cGv5qQk55LFGPO6UaXyxb9NfsFls9OXwMyXyagkRJLsKUI5_BLIEzpDYlzcMIka7ryND3nnrF-AAV-CGogUDlJB7EMRG86cV9DlLb9nhIhocv3zeIlv9aoWjk58XLsX0AWluNXWR17iJZas7MYlT2svwYptZOj5KIXg4BqdI6_7oDOuPJ9WKdcMbLOR6Y4s9m4iBPRWoB8ctqR5LjSo7ov_p5ah1Abeo4xPdseltBlBUWe53zqpCUsjyj2_OtRg3aSCWvoRdIlEHY9CE66LtnVkkuZKPVOAspvB3d53FVNwXNCv2NylwUN2pC7-5_lK-64gTzZgczfZdhztHWsjaU6sVq8JsQsUiahkxg2VM_n6vgN9GM7sBJekCa8Rb0m00]--></g></svg>