<?xml version="1.0" encoding="us-ascii" standalone="no"?><svg xmlns="http://www.w3.org/2000/svg" xmlns:xlink="http://www.w3.org/1999/xlink" contentStyleType="text/css" height="965px" preserveAspectRatio="none" style="width:1222px;height:965px;background:#FFFFFF;" version="1.1" viewBox="0 0 1222 965" width="1222px" zoomAndPan="magnify"><defs/><g><rect fill="#FFFFFF" height="793.2266" style="stroke:#181818;stroke-width:1.0;" width="10" x="208" y="90.5332"/><rect fill="#FFFFFF" height="730.6445" style="stroke:#181818;stroke-width:1.0;" width="10" x="434" y="121.8242"/><rect fill="#FFFFFF" height="52.2422" style="stroke:#181818;stroke-width:1.0;" width="10" x="587" y="163.1152"/><rect fill="#FFFFFF" height="574.5293" style="stroke:#181818;stroke-width:1.0;" width="10" x="712" y="246.6484"/><rect fill="#FFFFFF" height="124.8242" style="stroke:#181818;stroke-width:1.0;" width="10" x="827" y="539.8984"/><rect fill="#FFFFFF" height="52.2422" style="stroke:#181818;stroke-width:1.0;" width="10" x="955.5" y="581.1895"/><rect fill="#FFFFFF" height="93.873" style="stroke:#181818;stroke-width:1.0;" width="10" x="1042.5" y="696.0137"/><rect fill="#FFFFFF" height="31.291" style="stroke:#181818;stroke-width:1.0;" width="10" x="1134.5" y="277.9395"/><rect fill="#FFFFFF" height="31.291" style="stroke:#181818;stroke-width:1.0;" width="10" x="1134.5" y="340.5215"/><rect fill="none" height="504.9473" style="stroke:#000000;stroke-width:1.5;" width="1203.5" x="3" y="386.8125"/><line style="stroke:#181818;stroke-width:0.5;stroke-dasharray:5.0,5.0;" x1="213" x2="213" y1="57.2422" y2="908.7598"/><line style="stroke:#181818;stroke-width:0.5;stroke-dasharray:5.0,5.0;" x1="438.5" x2="438.5" y1="57.2422" y2="908.7598"/><line style="stroke:#181818;stroke-width:0.5;stroke-dasharray:5.0,5.0;" x1="592" x2="592" y1="170.9453" y2="908.7598"/><line style="stroke:#181818;stroke-width:0.5;stroke-dasharray:5.0,5.0;" x1="717" x2="717" y1="57.2422" y2="908.7598"/><line style="stroke:#181818;stroke-width:0.5;stroke-dasharray:5.0,5.0;" x1="832" x2="832" y1="57.2422" y2="908.7598"/><line style="stroke:#181818;stroke-width:0.5;stroke-dasharray:5.0,5.0;" x1="960" x2="960" y1="589.0195" y2="908.7598"/><line style="stroke:#181818;stroke-width:0.5;stroke-dasharray:5.0,5.0;" x1="1047" x2="1047" y1="57.2422" y2="908.7598"/><line style="stroke:#181818;stroke-width:0.5;stroke-dasharray:5.0,5.0;" x1="1139" x2="1139" y1="57.2422" y2="908.7598"/><rect fill="#E2E2F0" height="32.6211" rx="2.5" ry="2.5" style="stroke:#181818;stroke-width:0.5;" width="52" x="187" y="23.6211"/><text fill="#000000" font-family="sans-serif" font-size="14" lengthAdjust="spacing" textLength="38" x="194" y="45.7285">Route</text><rect fill="#E2E2F0" height="32.6211" rx="2.5" ry="2.5" style="stroke:#181818;stroke-width:0.5;" width="52" x="187" y="907.7598"/><text fill="#000000" font-family="sans-serif" font-size="14" lengthAdjust="spacing" textLength="38" x="194" y="929.8672">Route</text><rect fill="#E2E2F0" height="32.6211" rx="2.5" ry="2.5" style="stroke:#181818;stroke-width:0.5;" width="107" x="385.5" y="23.6211"/><text fill="#000000" font-family="sans-serif" font-size="14" lengthAdjust="spacing" textLength="93" x="392.5" y="45.7285">TaskController</text><rect fill="#E2E2F0" height="32.6211" rx="2.5" ry="2.5" style="stroke:#181818;stroke-width:0.5;" width="107" x="385.5" y="907.7598"/><text fill="#000000" font-family="sans-serif" font-size="14" lengthAdjust="spacing" textLength="93" x="392.5" y="929.8672">TaskController</text><rect fill="#E2E2F0" height="51.2422" rx="2.5" ry="2.5" style="stroke:#181818;stroke-width:0.5;" width="138" x="523" y="907.7598"/><text fill="#000000" font-family="sans-serif" font-size="14" lengthAdjust="spacing" textLength="24" x="580" y="929.8672">dto:</text><text fill="#000000" font-family="sans-serif" font-size="14" lengthAdjust="spacing" textLength="124" x="530" y="948.4883">CreateDeliveryDTO</text><rect fill="#E2E2F0" height="32.6211" rx="2.5" ry="2.5" style="stroke:#181818;stroke-width:0.5;" width="92" x="671" y="23.6211"/><text fill="#000000" font-family="sans-serif" font-size="14" lengthAdjust="spacing" textLength="78" x="678" y="45.7285">TaskService</text><rect fill="#E2E2F0" height="32.6211" rx="2.5" ry="2.5" style="stroke:#181818;stroke-width:0.5;" width="92" x="671" y="907.7598"/><text fill="#000000" font-family="sans-serif" font-size="14" lengthAdjust="spacing" textLength="78" x="678" y="929.8672">TaskService</text><rect fill="#E2E2F0" height="32.6211" rx="2.5" ry="2.5" style="stroke:#181818;stroke-width:0.5;" width="62" x="801" y="23.6211"/><text fill="#000000" font-family="sans-serif" font-size="14" lengthAdjust="spacing" textLength="48" x="808" y="45.7285">Mapper</text><rect fill="#E2E2F0" height="32.6211" rx="2.5" ry="2.5" style="stroke:#181818;stroke-width:0.5;" width="62" x="801" y="907.7598"/><text fill="#000000" font-family="sans-serif" font-size="14" lengthAdjust="spacing" textLength="48" x="808" y="929.8672">Mapper</text><rect fill="#E2E2F0" height="51.2422" rx="2.5" ry="2.5" style="stroke:#181818;stroke-width:0.5;" width="75" x="923" y="907.7598"/><text fill="#000000" font-family="sans-serif" font-size="14" lengthAdjust="spacing" textLength="52" x="934.5" y="929.8672">taskDto:</text><text fill="#000000" font-family="sans-serif" font-size="14" lengthAdjust="spacing" textLength="61" x="930" y="948.4883">TaskDTO</text><rect fill="#E2E2F0" height="32.6211" rx="2.5" ry="2.5" style="stroke:#181818;stroke-width:0.5;" width="79" x="1008" y="23.6211"/><text fill="#000000" font-family="sans-serif" font-size="14" lengthAdjust="spacing" textLength="65" x="1015" y="45.7285">TaskRepo</text><rect fill="#E2E2F0" height="32.6211" rx="2.5" ry="2.5" style="stroke:#181818;stroke-width:0.5;" width="79" x="1008" y="907.7598"/><text fill="#000000" font-family="sans-serif" font-size="14" lengthAdjust="spacing" textLength="65" x="1015" y="929.8672">TaskRepo</text><rect fill="#E2E2F0" height="32.6211" rx="2.5" ry="2.5" style="stroke:#181818;stroke-width:0.5;" width="85" x="1097" y="23.6211"/><text fill="#000000" font-family="sans-serif" font-size="14" lengthAdjust="spacing" textLength="71" x="1104" y="45.7285">RoomRepo</text><rect fill="#E2E2F0" height="32.6211" rx="2.5" ry="2.5" style="stroke:#181818;stroke-width:0.5;" width="85" x="1097" y="907.7598"/><text fill="#000000" font-family="sans-serif" font-size="14" lengthAdjust="spacing" textLength="71" x="1104" y="929.8672">RoomRepo</text><rect fill="#FFFFFF" height="793.2266" style="stroke:#181818;stroke-width:1.0;" width="10" x="208" y="90.5332"/><rect fill="#FFFFFF" height="730.6445" style="stroke:#181818;stroke-width:1.0;" width="10" x="434" y="121.8242"/><rect fill="#FFFFFF" height="52.2422" style="stroke:#181818;stroke-width:1.0;" width="10" x="587" y="163.1152"/><rect fill="#FFFFFF" height="574.5293" style="stroke:#181818;stroke-width:1.0;" width="10" x="712" y="246.6484"/><rect fill="#FFFFFF" height="124.8242" style="stroke:#181818;stroke-width:1.0;" width="10" x="827" y="539.8984"/><rect fill="#FFFFFF" height="52.2422" style="stroke:#181818;stroke-width:1.0;" width="10" x="955.5" y="581.1895"/><rect fill="#FFFFFF" height="93.873" style="stroke:#181818;stroke-width:1.0;" width="10" x="1042.5" y="696.0137"/><rect fill="#FFFFFF" height="31.291" style="stroke:#181818;stroke-width:1.0;" width="10" x="1134.5" y="277.9395"/><rect fill="#FFFFFF" height="31.291" style="stroke:#181818;stroke-width:1.0;" width="10" x="1134.5" y="340.5215"/><polygon fill="#181818" points="196,86.5332,206,90.5332,196,94.5332,200,90.5332" style="stroke:#181818;stroke-width:1.0;"/><line style="stroke:#181818;stroke-width:1.0;" x1="0" x2="202" y1="90.5332" y2="90.5332"/><text fill="#000000" font-family="sans-serif" font-size="13" font-weight="bold" lengthAdjust="spacing" textLength="7" x="7" y="85.2705">1</text><text fill="#000000" font-family="sans-serif" font-size="13" lengthAdjust="spacing" textLength="115" x="18" y="85.2705">POST /task/delivery</text><polygon fill="#181818" points="422,117.8242,432,121.8242,422,125.8242,426,121.8242" style="stroke:#181818;stroke-width:1.0;"/><line style="stroke:#181818;stroke-width:1.0;" x1="218" x2="428" y1="121.8242" y2="121.8242"/><text fill="#000000" font-family="sans-serif" font-size="13" font-weight="bold" lengthAdjust="spacing" textLength="7" x="225" y="116.5615">2</text><text fill="#000000" font-family="sans-serif" font-size="13" lengthAdjust="spacing" textLength="186" x="236" y="116.5615">createDeliveryTask(req,res,next)</text><polygon fill="#181818" points="511,149.1152,521,153.1152,511,157.1152,515,153.1152" style="stroke:#181818;stroke-width:1.0;"/><line style="stroke:#181818;stroke-width:1.0;" x1="444" x2="517" y1="153.1152" y2="153.1152"/><text fill="#000000" font-family="sans-serif" font-size="13" font-weight="bold" lengthAdjust="spacing" textLength="7" x="451" y="147.8525">3</text><text fill="#000000" font-family="sans-serif" font-size="13" lengthAdjust="spacing" textLength="44" x="462" y="147.8525">create()</text><rect fill="#E2E2F0" height="51.2422" rx="2.5" ry="2.5" style="stroke:#181818;stroke-width:0.5;" width="138" x="523" y="129.8242"/><text fill="#000000" font-family="sans-serif" font-size="14" lengthAdjust="spacing" textLength="24" x="580" y="151.9316">dto:</text><text fill="#000000" font-family="sans-serif" font-size="14" lengthAdjust="spacing" textLength="124" x="530" y="170.5527">CreateDeliveryDTO</text><polygon fill="#181818" points="455,211.3574,445,215.3574,455,219.3574,451,215.3574" style="stroke:#181818;stroke-width:1.0;"/><line style="stroke:#181818;stroke-width:1.0;stroke-dasharray:2.0,2.0;" x1="449" x2="591" y1="215.3574" y2="215.3574"/><text fill="#000000" font-family="sans-serif" font-size="13" font-weight="bold" lengthAdjust="spacing" textLength="7" x="461" y="210.0947">4</text><text fill="#000000" font-family="sans-serif" font-size="13" lengthAdjust="spacing" textLength="18" x="472" y="210.0947">dto</text><polygon fill="#181818" points="700,242.6484,710,246.6484,700,250.6484,704,246.6484" style="stroke:#181818;stroke-width:1.0;"/><line style="stroke:#181818;stroke-width:1.0;" x1="444" x2="706" y1="246.6484" y2="246.6484"/><text fill="#000000" font-family="sans-serif" font-size="13" font-weight="bold" lengthAdjust="spacing" textLength="7" x="451" y="241.3857">5</text><text fill="#000000" font-family="sans-serif" font-size="13" lengthAdjust="spacing" textLength="135" x="462" y="241.3857">createDeliveryTask(dto)</text><polygon fill="#181818" points="1122.5,273.9395,1132.5,277.9395,1122.5,281.9395,1126.5,277.9395" style="stroke:#181818;stroke-width:1.0;"/><line style="stroke:#181818;stroke-width:1.0;" x1="722" x2="1128.5" y1="277.9395" y2="277.9395"/><text fill="#000000" font-family="sans-serif" font-size="13" font-weight="bold" lengthAdjust="spacing" textLength="7" x="729" y="272.6768">6</text><text fill="#000000" font-family="sans-serif" font-size="13" lengthAdjust="spacing" textLength="291" x="740" y="272.6768">find(do.buildingCode1,dto.floorNumber1,dto.room1)</text><polygon fill="#181818" points="733,305.2305,723,309.2305,733,313.2305,729,309.2305" style="stroke:#181818;stroke-width:1.0;"/><line style="stroke:#181818;stroke-width:1.0;stroke-dasharray:2.0,2.0;" x1="727" x2="1138.5" y1="309.2305" y2="309.2305"/><text fill="#000000" font-family="sans-serif" font-size="13" font-weight="bold" lengthAdjust="spacing" textLength="7" x="739" y="303.9678">7</text><text fill="#000000" font-family="sans-serif" font-size="13" lengthAdjust="spacing" textLength="36" x="750" y="303.9678">room1</text><polygon fill="#181818" points="1122.5,336.5215,1132.5,340.5215,1122.5,344.5215,1126.5,340.5215" style="stroke:#181818;stroke-width:1.0;"/><line style="stroke:#181818;stroke-width:1.0;" x1="722" x2="1128.5" y1="340.5215" y2="340.5215"/><text fill="#000000" font-family="sans-serif" font-size="13" font-weight="bold" lengthAdjust="spacing" textLength="7" x="729" y="335.2588">8</text><text fill="#000000" font-family="sans-serif" font-size="13" lengthAdjust="spacing" textLength="295" x="740" y="335.2588">find(dto.buildingCode2,dto.floorNumber2,dto.room2)</text><polygon fill="#181818" points="733,367.8125,723,371.8125,733,375.8125,729,371.8125" style="stroke:#181818;stroke-width:1.0;"/><line style="stroke:#181818;stroke-width:1.0;stroke-dasharray:2.0,2.0;" x1="727" x2="1138.5" y1="371.8125" y2="371.8125"/><text fill="#000000" font-family="sans-serif" font-size="13" font-weight="bold" lengthAdjust="spacing" textLength="7" x="739" y="366.5498">9</text><text fill="#000000" font-family="sans-serif" font-size="13" lengthAdjust="spacing" textLength="36" x="750" y="366.5498">room2</text><path d="M3,386.8125 L64,386.8125 L64,396.1035 L54,406.1035 L3,406.1035 L3,386.8125 " fill="#EEEEEE" style="stroke:#000000;stroke-width:1.5;"/><rect fill="none" height="504.9473" style="stroke:#000000;stroke-width:1.5;" width="1203.5" x="3" y="386.8125"/><text fill="#000000" font-family="sans-serif" font-size="13" font-weight="bold" lengthAdjust="spacing" textLength="16" x="18" y="401.8408">alt</text><text fill="#000000" font-family="sans-serif" font-size="11" font-weight="bold" lengthAdjust="spacing" textLength="116" x="79" y="400.6826">[floor does not exist]</text><polygon fill="#181818" points="455,425.3945,445,429.3945,455,433.3945,451,429.3945" style="stroke:#181818;stroke-width:1.0;"/><line style="stroke:#181818;stroke-width:1.0;stroke-dasharray:2.0,2.0;" x1="449" x2="711" y1="429.3945" y2="429.3945"/><text fill="#000000" font-family="sans-serif" font-size="13" font-weight="bold" lengthAdjust="spacing" textLength="14" x="461" y="424.1318">10</text><text fill="#000000" font-family="sans-serif" font-size="13" lengthAdjust="spacing" textLength="26" x="479" y="424.1318">error</text><polygon fill="#181818" points="229,456.6855,219,460.6855,229,464.6855,225,460.6855" style="stroke:#181818;stroke-width:1.0;"/><line style="stroke:#181818;stroke-width:1.0;stroke-dasharray:2.0,2.0;" x1="223" x2="433" y1="460.6855" y2="460.6855"/><text fill="#000000" font-family="sans-serif" font-size="13" font-weight="bold" lengthAdjust="spacing" textLength="14" x="235" y="455.4229">11</text><text fill="#000000" font-family="sans-serif" font-size="13" lengthAdjust="spacing" textLength="78" x="253" y="455.4229">response 422</text><polygon fill="#181818" points="11,487.9766,1,491.9766,11,495.9766,7,491.9766" style="stroke:#181818;stroke-width:1.0;"/><line style="stroke:#181818;stroke-width:1.0;stroke-dasharray:2.0,2.0;" x1="5" x2="207" y1="491.9766" y2="491.9766"/><text fill="#000000" font-family="sans-serif" font-size="13" font-weight="bold" lengthAdjust="spacing" textLength="14" x="17" y="486.7139">12</text><text fill="#000000" font-family="sans-serif" font-size="13" lengthAdjust="spacing" textLength="164" x="35" y="486.7139">422: Unprocessable Content</text><line style="stroke:#000000;stroke-width:1.0;stroke-dasharray:2.0,2.0;" x1="3" x2="1206.5" y1="500.9766" y2="500.9766"/><text fill="#000000" font-family="sans-serif" font-size="11" font-weight="bold" lengthAdjust="spacing" textLength="69" x="8" y="512.8467">[floor found]</text><polygon fill="#181818" points="815,535.8984,825,539.8984,815,543.8984,819,539.8984" style="stroke:#181818;stroke-width:1.0;"/><line style="stroke:#181818;stroke-width:1.0;" x1="722" x2="821" y1="539.8984" y2="539.8984"/><text fill="#000000" font-family="sans-serif" font-size="13" font-weight="bold" lengthAdjust="spacing" textLength="14" x="729" y="534.6357">13</text><text fill="#000000" font-family="sans-serif" font-size="13" lengthAdjust="spacing" textLength="68" x="747" y="534.6357">toDto(room)</text><polygon fill="#181818" points="911,567.1895,921,571.1895,911,575.1895,915,571.1895" style="stroke:#181818;stroke-width:1.0;"/><line style="stroke:#181818;stroke-width:1.0;" x1="837" x2="917" y1="571.1895" y2="571.1895"/><text fill="#000000" font-family="sans-serif" font-size="13" font-weight="bold" lengthAdjust="spacing" textLength="14" x="844" y="565.9268">14</text><text fill="#000000" font-family="sans-serif" font-size="13" lengthAdjust="spacing" textLength="44" x="862" y="565.9268">create()</text><rect fill="#E2E2F0" height="51.2422" rx="2.5" ry="2.5" style="stroke:#181818;stroke-width:0.5;" width="75" x="923" y="547.8984"/><text fill="#000000" font-family="sans-serif" font-size="14" lengthAdjust="spacing" textLength="52" x="934.5" y="570.0059">taskDto:</text><text fill="#000000" font-family="sans-serif" font-size="14" lengthAdjust="spacing" textLength="61" x="930" y="588.627">TaskDTO</text><polygon fill="#181818" points="848,629.4316,838,633.4316,848,637.4316,844,633.4316" style="stroke:#181818;stroke-width:1.0;"/><line style="stroke:#181818;stroke-width:1.0;stroke-dasharray:2.0,2.0;" x1="842" x2="959.5" y1="633.4316" y2="633.4316"/><text fill="#000000" font-family="sans-serif" font-size="13" font-weight="bold" lengthAdjust="spacing" textLength="14" x="854" y="628.1689">15</text><text fill="#000000" font-family="sans-serif" font-size="13" lengthAdjust="spacing" textLength="18" x="872" y="628.1689">dto</text><polygon fill="#181818" points="733,660.7227,723,664.7227,733,668.7227,729,664.7227" style="stroke:#181818;stroke-width:1.0;"/><line style="stroke:#181818;stroke-width:1.0;stroke-dasharray:2.0,2.0;" x1="727" x2="831" y1="664.7227" y2="664.7227"/><text fill="#000000" font-family="sans-serif" font-size="13" font-weight="bold" lengthAdjust="spacing" textLength="14" x="739" y="659.46">16</text><text fill="#000000" font-family="sans-serif" font-size="13" lengthAdjust="spacing" textLength="25" x="757" y="659.46">task</text><polygon fill="#181818" points="1030.5,692.0137,1040.5,696.0137,1030.5,700.0137,1034.5,696.0137" style="stroke:#181818;stroke-width:1.0;"/><line style="stroke:#181818;stroke-width:1.0;" x1="722" x2="1036.5" y1="696.0137" y2="696.0137"/><text fill="#000000" font-family="sans-serif" font-size="13" font-weight="bold" lengthAdjust="spacing" textLength="14" x="729" y="690.751">17</text><text fill="#000000" font-family="sans-serif" font-size="13" lengthAdjust="spacing" textLength="135" x="747" y="690.751">createDeliveryTask(dto)</text><polygon fill="#181818" points="1204.5,723.3047,1214.5,727.3047,1204.5,731.3047,1208.5,727.3047" style="stroke:#181818;stroke-width:1.0;"/><line style="stroke:#181818;stroke-width:1.0;" x1="1052.5" x2="1210.5" y1="727.3047" y2="727.3047"/><text fill="#000000" font-family="sans-serif" font-size="13" font-weight="bold" lengthAdjust="spacing" textLength="14" x="1059.5" y="722.042">18</text><text fill="#000000" font-family="sans-serif" font-size="13" lengthAdjust="spacing" textLength="115" x="1077.5" y="722.042">POST /task/delivery</text><polygon fill="#181818" points="1063.5,754.5957,1053.5,758.5957,1063.5,762.5957,1059.5,758.5957" style="stroke:#181818;stroke-width:1.0;"/><line style="stroke:#181818;stroke-width:1.0;stroke-dasharray:2.0,2.0;" x1="1057.5" x2="1215.5" y1="758.5957" y2="758.5957"/><text fill="#000000" font-family="sans-serif" font-size="13" font-weight="bold" lengthAdjust="spacing" textLength="14" x="1069.5" y="753.333">19</text><text fill="#000000" font-family="sans-serif" font-size="13" lengthAdjust="spacing" textLength="25" x="1087.5" y="753.333">task</text><polygon fill="#181818" points="733,785.8867,723,789.8867,733,793.8867,729,789.8867" style="stroke:#181818;stroke-width:1.0;"/><line style="stroke:#181818;stroke-width:1.0;stroke-dasharray:2.0,2.0;" x1="727" x2="1046.5" y1="789.8867" y2="789.8867"/><text fill="#000000" font-family="sans-serif" font-size="13" font-weight="bold" lengthAdjust="spacing" textLength="14" x="739" y="784.624">20</text><text fill="#000000" font-family="sans-serif" font-size="13" lengthAdjust="spacing" textLength="25" x="757" y="784.624">task</text><polygon fill="#181818" points="455,817.1777,445,821.1777,455,825.1777,451,821.1777" style="stroke:#181818;stroke-width:1.0;"/><line style="stroke:#181818;stroke-width:1.0;stroke-dasharray:2.0,2.0;" x1="449" x2="716" y1="821.1777" y2="821.1777"/><text fill="#000000" font-family="sans-serif" font-size="13" font-weight="bold" lengthAdjust="spacing" textLength="14" x="461" y="815.915">21</text><text fill="#000000" font-family="sans-serif" font-size="13" lengthAdjust="spacing" textLength="18" x="479" y="815.915">dto</text><polygon fill="#181818" points="229,848.4688,219,852.4688,229,856.4688,225,852.4688" style="stroke:#181818;stroke-width:1.0;"/><line style="stroke:#181818;stroke-width:1.0;stroke-dasharray:2.0,2.0;" x1="223" x2="438" y1="852.4688" y2="852.4688"/><text fill="#000000" font-family="sans-serif" font-size="13" font-weight="bold" lengthAdjust="spacing" textLength="14" x="235" y="847.2061">22</text><text fill="#000000" font-family="sans-serif" font-size="13" lengthAdjust="spacing" textLength="21" x="253" y="847.2061">200</text><polygon fill="#181818" points="11,879.7598,1,883.7598,11,887.7598,7,883.7598" style="stroke:#181818;stroke-width:1.0;"/><line style="stroke:#181818;stroke-width:1.0;stroke-dasharray:2.0,2.0;" x1="5" x2="212" y1="883.7598" y2="883.7598"/><text fill="#000000" font-family="sans-serif" font-size="13" font-weight="bold" lengthAdjust="spacing" textLength="14" x="17" y="878.4971">23</text><text fill="#000000" font-family="sans-serif" font-size="13" lengthAdjust="spacing" textLength="44" x="35" y="878.4971">200 OK</text><!--SRC=[jLLDRzim3BtxLn0z9KNS3sCdOyWbkGrhXZOzTJqeDZCOSoHNaeFktvUK7ILEPBl3C9sIwF6HxubaH6sLh7SRr55K2MsBhAY4j73rg6gBLo0CwEx5MfZV2oMjLcM9sY4ogyikABSg_IaN6eN59PR57lMVvNhbq7HtoVY4UbzaJKAppywA-Iwggisr4rNtpbBqqgLZdaCIkmnbUSHADPhemxbUjJjUjr-Yw2MUWqxXn-ff3RUSwZPlvKH0HsIss9D6CWdQeu52s1588UiOm1LCDBxDD9gPn7SxzK4TBcSd18vZ9NPo4AwlFVza6aHxFZOy162Q-5XiBmm7cGv5qQk55LFGPO6UaXyxb9NfsFls9OXwMyXyagkRJLsKUI5_BLIEzpDYlzcMIka7ryND3nnrF-AAV-CGogUDlJB7EMRG86cV9DlLb9nhIhocv3zeIlv9aoWjk58XLsX0AWluNXWR17iJZas7MYlT2svwYptZOj5KIXg4BqdI6_7oDOuPJ9WKdcMbLOR6Y4s9m4iBPRWoB8ctqR5LjSo7ov_p5ah1Abeo4xPdseltBlBUWe53zqpCUsjyj2_OtRg3aSCWvoRdIlEHY9CE66LtnVkkuZKPVOAspvB3d53FVNwXNCv2NylwUN2pC7-5_lK-64gTzZgczfZdhztHWsjaU6sVq8JsQsUiahkxg2VM_n6vgN9GM7sBJekCa8Rb0m00]--></g></svg>