<?xml version="1.0" encoding="us-ascii" standalone="no"?><svg xmlns="http://www.w3.org/2000/svg" xmlns:xlink="http://www.w3.org/1999/xlink" contentStyleType="text/css" height="865px" preserveAspectRatio="none" style="width:1536px;height:865px;background:#FFFFFF;" version="1.1" viewBox="0 0 1536 865" width="1536px" zoomAndPan="magnify"><defs/><g><!--class Building--><g id="elem_Building"><rect codeLine="22" fill="#FFE4B5" height="141.1055" id="Building" rx="2.5" ry="2.5" style="stroke:#181818;stroke-width:0.5;" width="95" x="1021.5" y="189"/><ellipse cx="1042.35" cy="205" fill="#ADD1B2" rx="11" ry="11" style="stroke:#181818;stroke-width:1.0;"/><path d="M1045.1156,200.875 Q1045.2719,200.6563 1045.4594,200.5469 Q1045.6469,200.4375 1045.8656,200.4375 Q1046.2406,200.4375 1046.475,200.7031 Q1046.7094,200.9531 1046.7094,201.5625 L1046.7094,203.0156 Q1046.7094,203.625 1046.475,203.8906 Q1046.2406,204.1563 1045.8656,204.1563 Q1045.5219,204.1563 1045.3188,203.9531 Q1045.1156,203.7656 1045.0063,203.25 Q1044.9594,202.8906 1044.7719,202.7031 Q1044.4438,202.3281 1043.8344,202.1094 Q1043.225,201.8906 1042.6,201.8906 Q1041.8344,201.8906 1041.1938,202.2188 Q1040.5688,202.5469 1040.0688,203.2969 Q1039.5844,204.0469 1039.5844,205.0781 L1039.5844,206.1719 Q1039.5844,207.4063 1040.475,208.2344 Q1041.3656,209.0469 1042.9594,209.0469 Q1043.8969,209.0469 1044.5531,208.7969 Q1044.9438,208.6406 1045.3656,208.2031 Q1045.6313,207.9375 1045.7719,207.8594 Q1045.9281,207.7813 1046.1313,207.7813 Q1046.4594,207.7813 1046.7094,208.0469 Q1046.975,208.2969 1046.975,208.6406 Q1046.975,208.9844 1046.6313,209.3906 Q1046.1313,209.9688 1045.3344,210.2969 Q1044.2563,210.75 1042.9594,210.75 Q1041.4438,210.75 1040.2406,210.125 Q1039.2563,209.625 1038.5688,208.5625 Q1037.8813,207.4844 1037.8813,206.2031 L1037.8813,205.0469 Q1037.8813,203.7188 1038.4906,202.5781 Q1039.1156,201.4219 1040.2094,200.8125 Q1041.3031,200.1875 1042.5375,200.1875 Q1043.2719,200.1875 1043.9125,200.3594 Q1044.5688,200.5156 1045.1156,200.875 Z " fill="#000000"/><text fill="#000000" font-family="sans-serif" font-size="14" lengthAdjust="spacing" textLength="50" x="1057.65" y="210.7969">Building</text><line style="stroke:#181818;stroke-width:0.5;" x1="1022.5" x2="1115.5" y1="221" y2="221"/><rect fill="none" height="6" style="stroke:#C82930;stroke-width:1.0;" width="6" x="1029.5" y="232.8105"/><text fill="#000000" font-family="sans-serif" font-size="14" lengthAdjust="spacing" textLength="31" x="1041.5" y="240.1074">code</text><rect fill="none" height="6" style="stroke:#C82930;stroke-width:1.0;" width="6" x="1029.5" y="251.4316"/><text fill="#000000" font-family="sans-serif" font-size="14" lengthAdjust="spacing" textLength="35" x="1041.5" y="258.7285">name</text><rect fill="none" height="6" style="stroke:#C82930;stroke-width:1.0;" width="6" x="1029.5" y="270.0527"/><text fill="#000000" font-family="sans-serif" font-size="14" lengthAdjust="spacing" textLength="69" x="1041.5" y="277.3496">description</text><rect fill="none" height="6" style="stroke:#C82930;stroke-width:1.0;" width="6" x="1029.5" y="288.6738"/><text fill="#000000" font-family="sans-serif" font-size="14" lengthAdjust="spacing" textLength="69" x="1041.5" y="295.9707">maxLength</text><rect fill="none" height="6" style="stroke:#C82930;stroke-width:1.0;" width="6" x="1029.5" y="307.2949"/><text fill="#000000" font-family="sans-serif" font-size="14" lengthAdjust="spacing" textLength="61" x="1041.5" y="314.5918">maxWidth</text><line style="stroke:#181818;stroke-width:0.5;" x1="1022.5" x2="1115.5" y1="322.1055" y2="322.1055"/></g><!--class Elevator--><g id="elem_Elevator"><rect codeLine="29" fill="#FFE4B5" height="122.4844" id="Elevator" rx="2.5" ry="2.5" style="stroke:#181818;stroke-width:0.5;" width="109" x="1012.5" y="535"/><ellipse cx="1038.75" cy="551" fill="#ADD1B2" rx="11" ry="11" style="stroke:#181818;stroke-width:1.0;"/><path d="M1041.5156,546.875 Q1041.6719,546.6563 1041.8594,546.5469 Q1042.0469,546.4375 1042.2656,546.4375 Q1042.6406,546.4375 1042.875,546.7031 Q1043.1094,546.9531 1043.1094,547.5625 L1043.1094,549.0156 Q1043.1094,549.625 1042.875,549.8906 Q1042.6406,550.1563 1042.2656,550.1563 Q1041.9219,550.1563 1041.7188,549.9531 Q1041.5156,549.7656 1041.4063,549.25 Q1041.3594,548.8906 1041.1719,548.7031 Q1040.8438,548.3281 1040.2344,548.1094 Q1039.625,547.8906 1039,547.8906 Q1038.2344,547.8906 1037.5938,548.2188 Q1036.9688,548.5469 1036.4688,549.2969 Q1035.9844,550.0469 1035.9844,551.0781 L1035.9844,552.1719 Q1035.9844,553.4063 1036.875,554.2344 Q1037.7656,555.0469 1039.3594,555.0469 Q1040.2969,555.0469 1040.9531,554.7969 Q1041.3438,554.6406 1041.7656,554.2031 Q1042.0313,553.9375 1042.1719,553.8594 Q1042.3281,553.7813 1042.5313,553.7813 Q1042.8594,553.7813 1043.1094,554.0469 Q1043.375,554.2969 1043.375,554.6406 Q1043.375,554.9844 1043.0313,555.3906 Q1042.5313,555.9688 1041.7344,556.2969 Q1040.6563,556.75 1039.3594,556.75 Q1037.8438,556.75 1036.6406,556.125 Q1035.6563,555.625 1034.9688,554.5625 Q1034.2813,553.4844 1034.2813,552.2031 L1034.2813,551.0469 Q1034.2813,549.7188 1034.8906,548.5781 Q1035.5156,547.4219 1036.6094,546.8125 Q1037.7031,546.1875 1038.9375,546.1875 Q1039.6719,546.1875 1040.3125,546.3594 Q1040.9688,546.5156 1041.5156,546.875 Z " fill="#000000"/><text fill="#000000" font-family="sans-serif" font-size="14" lengthAdjust="spacing" textLength="52" x="1055.25" y="556.7969">Elevator</text><line style="stroke:#181818;stroke-width:0.5;" x1="1013.5" x2="1120.5" y1="567" y2="567"/><rect fill="none" height="6" style="stroke:#C82930;stroke-width:1.0;" width="6" x="1020.5" y="578.8105"/><text fill="#000000" font-family="sans-serif" font-size="14" lengthAdjust="spacing" textLength="69" x="1032.5" y="586.1074">description</text><rect fill="none" height="6" style="stroke:#C82930;stroke-width:1.0;" width="6" x="1020.5" y="597.4316"/><text fill="#000000" font-family="sans-serif" font-size="14" lengthAdjust="spacing" textLength="37" x="1032.5" y="604.7285">brand</text><rect fill="none" height="6" style="stroke:#C82930;stroke-width:1.0;" width="6" x="1020.5" y="616.0527"/><text fill="#000000" font-family="sans-serif" font-size="14" lengthAdjust="spacing" textLength="38" x="1032.5" y="623.3496">model</text><rect fill="none" height="6" style="stroke:#C82930;stroke-width:1.0;" width="6" x="1020.5" y="634.6738"/><text fill="#000000" font-family="sans-serif" font-size="14" lengthAdjust="spacing" textLength="83" x="1032.5" y="641.9707">serialNumber</text><line style="stroke:#181818;stroke-width:0.5;" x1="1013.5" x2="1120.5" y1="649.4844" y2="649.4844"/></g><!--class Floor--><g id="elem_Floor"><rect codeLine="36" fill="#FFE4B5" height="85.2422" id="Floor" rx="2.5" ry="2.5" style="stroke:#181818;stroke-width:0.5;" width="103" x="1120.5" y="390"/><ellipse cx="1152.6" cy="406" fill="#ADD1B2" rx="11" ry="11" style="stroke:#181818;stroke-width:1.0;"/><path d="M1155.3656,401.875 Q1155.5219,401.6563 1155.7094,401.5469 Q1155.8969,401.4375 1156.1156,401.4375 Q1156.4906,401.4375 1156.725,401.7031 Q1156.9594,401.9531 1156.9594,402.5625 L1156.9594,404.0156 Q1156.9594,404.625 1156.725,404.8906 Q1156.4906,405.1563 1156.1156,405.1563 Q1155.7719,405.1563 1155.5688,404.9531 Q1155.3656,404.7656 1155.2563,404.25 Q1155.2094,403.8906 1155.0219,403.7031 Q1154.6938,403.3281 1154.0844,403.1094 Q1153.475,402.8906 1152.85,402.8906 Q1152.0844,402.8906 1151.4438,403.2188 Q1150.8188,403.5469 1150.3188,404.2969 Q1149.8344,405.0469 1149.8344,406.0781 L1149.8344,407.1719 Q1149.8344,408.4063 1150.725,409.2344 Q1151.6156,410.0469 1153.2094,410.0469 Q1154.1469,410.0469 1154.8031,409.7969 Q1155.1938,409.6406 1155.6156,409.2031 Q1155.8813,408.9375 1156.0219,408.8594 Q1156.1781,408.7813 1156.3813,408.7813 Q1156.7094,408.7813 1156.9594,409.0469 Q1157.225,409.2969 1157.225,409.6406 Q1157.225,409.9844 1156.8813,410.3906 Q1156.3813,410.9688 1155.5844,411.2969 Q1154.5063,411.75 1153.2094,411.75 Q1151.6938,411.75 1150.4906,411.125 Q1149.5063,410.625 1148.8188,409.5625 Q1148.1313,408.4844 1148.1313,407.2031 L1148.1313,406.0469 Q1148.1313,404.7188 1148.7406,403.5781 Q1149.3656,402.4219 1150.4594,401.8125 Q1151.5531,401.1875 1152.7875,401.1875 Q1153.5219,401.1875 1154.1625,401.3594 Q1154.8188,401.5156 1155.3656,401.875 Z " fill="#000000"/><text fill="#000000" font-family="sans-serif" font-size="14" lengthAdjust="spacing" textLength="33" x="1170.4" y="411.7969">Floor</text><line style="stroke:#181818;stroke-width:0.5;" x1="1121.5" x2="1222.5" y1="422" y2="422"/><rect fill="none" height="6" style="stroke:#C82930;stroke-width:1.0;" width="6" x="1128.5" y="433.8105"/><text fill="#000000" font-family="sans-serif" font-size="14" lengthAdjust="spacing" textLength="77" x="1140.5" y="441.1074">floorNumber</text><rect fill="none" height="6" style="stroke:#C82930;stroke-width:1.0;" width="6" x="1128.5" y="452.4316"/><text fill="#000000" font-family="sans-serif" font-size="14" lengthAdjust="spacing" textLength="69" x="1140.5" y="459.7285">description</text><line style="stroke:#181818;stroke-width:0.5;" x1="1121.5" x2="1222.5" y1="467.2422" y2="467.2422"/></g><!--class Passage--><g id="elem_Passage"><rect codeLine="41" fill="#FFE4B5" height="48" id="Passage" rx="2.5" ry="2.5" style="stroke:#181818;stroke-width:0.5;" width="87" x="1128.5" y="44"/><ellipse cx="1143.5" cy="60" fill="#ADD1B2" rx="11" ry="11" style="stroke:#181818;stroke-width:1.0;"/><path d="M1146.2656,55.875 Q1146.4219,55.6563 1146.6094,55.5469 Q1146.7969,55.4375 1147.0156,55.4375 Q1147.3906,55.4375 1147.625,55.7031 Q1147.8594,55.9531 1147.8594,56.5625 L1147.8594,58.0156 Q1147.8594,58.625 1147.625,58.8906 Q1147.3906,59.1563 1147.0156,59.1563 Q1146.6719,59.1563 1146.4688,58.9531 Q1146.2656,58.7656 1146.1563,58.25 Q1146.1094,57.8906 1145.9219,57.7031 Q1145.5938,57.3281 1144.9844,57.1094 Q1144.375,56.8906 1143.75,56.8906 Q1142.9844,56.8906 1142.3438,57.2188 Q1141.7188,57.5469 1141.2188,58.2969 Q1140.7344,59.0469 1140.7344,60.0781 L1140.7344,61.1719 Q1140.7344,62.4063 1141.625,63.2344 Q1142.5156,64.0469 1144.1094,64.0469 Q1145.0469,64.0469 1145.7031,63.7969 Q1146.0938,63.6406 1146.5156,63.2031 Q1146.7813,62.9375 1146.9219,62.8594 Q1147.0781,62.7813 1147.2813,62.7813 Q1147.6094,62.7813 1147.8594,63.0469 Q1148.125,63.2969 1148.125,63.6406 Q1148.125,63.9844 1147.7813,64.3906 Q1147.2813,64.9688 1146.4844,65.2969 Q1145.4063,65.75 1144.1094,65.75 Q1142.5938,65.75 1141.3906,65.125 Q1140.4063,64.625 1139.7188,63.5625 Q1139.0313,62.4844 1139.0313,61.2031 L1139.0313,60.0469 Q1139.0313,58.7188 1139.6406,57.5781 Q1140.2656,56.4219 1141.3594,55.8125 Q1142.4531,55.1875 1143.6875,55.1875 Q1144.4219,55.1875 1145.0625,55.3594 Q1145.7188,55.5156 1146.2656,55.875 Z " fill="#000000"/><text fill="#000000" font-family="sans-serif" font-size="14" lengthAdjust="spacing" textLength="55" x="1157.5" y="65.7969">Passage</text><line style="stroke:#181818;stroke-width:0.5;" x1="1129.5" x2="1214.5" y1="76" y2="76"/><line style="stroke:#181818;stroke-width:0.5;" x1="1129.5" x2="1214.5" y1="84" y2="84"/></g><!--class Room--><g id="elem_Room"><rect codeLine="45" fill="#FFE4B5" height="141.1055" id="Room" rx="2.5" ry="2.5" style="stroke:#181818;stroke-width:0.5;" width="116" x="1117" y="717"/><ellipse cx="1153.15" cy="733" fill="#ADD1B2" rx="11" ry="11" style="stroke:#181818;stroke-width:1.0;"/><path d="M1155.9156,728.875 Q1156.0719,728.6563 1156.2594,728.5469 Q1156.4469,728.4375 1156.6656,728.4375 Q1157.0406,728.4375 1157.275,728.7031 Q1157.5094,728.9531 1157.5094,729.5625 L1157.5094,731.0156 Q1157.5094,731.625 1157.275,731.8906 Q1157.0406,732.1563 1156.6656,732.1563 Q1156.3219,732.1563 1156.1188,731.9531 Q1155.9156,731.7656 1155.8063,731.25 Q1155.7594,730.8906 1155.5719,730.7031 Q1155.2438,730.3281 1154.6344,730.1094 Q1154.025,729.8906 1153.4,729.8906 Q1152.6344,729.8906 1151.9938,730.2188 Q1151.3688,730.5469 1150.8688,731.2969 Q1150.3844,732.0469 1150.3844,733.0781 L1150.3844,734.1719 Q1150.3844,735.4063 1151.275,736.2344 Q1152.1656,737.0469 1153.7594,737.0469 Q1154.6969,737.0469 1155.3531,736.7969 Q1155.7438,736.6406 1156.1656,736.2031 Q1156.4313,735.9375 1156.5719,735.8594 Q1156.7281,735.7813 1156.9313,735.7813 Q1157.2594,735.7813 1157.5094,736.0469 Q1157.775,736.2969 1157.775,736.6406 Q1157.775,736.9844 1157.4313,737.3906 Q1156.9313,737.9688 1156.1344,738.2969 Q1155.0563,738.75 1153.7594,738.75 Q1152.2438,738.75 1151.0406,738.125 Q1150.0563,737.625 1149.3688,736.5625 Q1148.6813,735.4844 1148.6813,734.2031 L1148.6813,733.0469 Q1148.6813,731.7188 1149.2906,730.5781 Q1149.9156,729.4219 1151.0094,728.8125 Q1152.1031,728.1875 1153.3375,728.1875 Q1154.0719,728.1875 1154.7125,728.3594 Q1155.3688,728.5156 1155.9156,728.875 Z " fill="#000000"/><text fill="#000000" font-family="sans-serif" font-size="14" lengthAdjust="spacing" textLength="37" x="1171.85" y="738.7969">Room</text><line style="stroke:#181818;stroke-width:0.5;" x1="1118" x2="1232" y1="749" y2="749"/><rect fill="none" height="6" style="stroke:#C82930;stroke-width:1.0;" width="6" x="1125" y="760.8105"/><text fill="#000000" font-family="sans-serif" font-size="14" lengthAdjust="spacing" textLength="35" x="1137" y="768.1074">name</text><rect fill="none" height="6" style="stroke:#C82930;stroke-width:1.0;" width="6" x="1125" y="779.4316"/><text fill="#000000" font-family="sans-serif" font-size="14" lengthAdjust="spacing" textLength="69" x="1137" y="786.7285">description</text><rect fill="none" height="6" style="stroke:#C82930;stroke-width:1.0;" width="6" x="1125" y="798.0527"/><text fill="#000000" font-family="sans-serif" font-size="14" lengthAdjust="spacing" textLength="90" x="1137" y="805.3496">roomCategory</text><rect fill="none" height="6" style="stroke:#C82930;stroke-width:1.0;" width="6" x="1125" y="816.6738"/><text fill="#000000" font-family="sans-serif" font-size="14" lengthAdjust="spacing" textLength="71" x="1137" y="823.9707">dimensions</text><rect fill="none" height="6" style="stroke:#C82930;stroke-width:1.0;" width="6" x="1125" y="835.2949"/><text fill="#000000" font-family="sans-serif" font-size="14" lengthAdjust="spacing" textLength="49" x="1137" y="842.5918">position</text><line style="stroke:#181818;stroke-width:0.5;" x1="1118" x2="1232" y1="850.1055" y2="850.1055"/></g><!--class Robot--><g id="elem_Robot"><rect codeLine="54" fill="#FFE4B5" height="122.4844" id="Robot" rx="2.5" ry="2.5" style="stroke:#181818;stroke-width:0.5;" width="109" x="372.5" y="7"/><ellipse cx="405.05" cy="23" fill="#ADD1B2" rx="11" ry="11" style="stroke:#181818;stroke-width:1.0;"/><path d="M407.8156,18.875 Q407.9719,18.6563 408.1594,18.5469 Q408.3469,18.4375 408.5656,18.4375 Q408.9406,18.4375 409.175,18.7031 Q409.4094,18.9531 409.4094,19.5625 L409.4094,21.0156 Q409.4094,21.625 409.175,21.8906 Q408.9406,22.1563 408.5656,22.1563 Q408.2219,22.1563 408.0188,21.9531 Q407.8156,21.7656 407.7063,21.25 Q407.6594,20.8906 407.4719,20.7031 Q407.1438,20.3281 406.5344,20.1094 Q405.925,19.8906 405.3,19.8906 Q404.5344,19.8906 403.8938,20.2188 Q403.2688,20.5469 402.7688,21.2969 Q402.2844,22.0469 402.2844,23.0781 L402.2844,24.1719 Q402.2844,25.4063 403.175,26.2344 Q404.0656,27.0469 405.6594,27.0469 Q406.5969,27.0469 407.2531,26.7969 Q407.6438,26.6406 408.0656,26.2031 Q408.3313,25.9375 408.4719,25.8594 Q408.6281,25.7813 408.8313,25.7813 Q409.1594,25.7813 409.4094,26.0469 Q409.675,26.2969 409.675,26.6406 Q409.675,26.9844 409.3313,27.3906 Q408.8313,27.9688 408.0344,28.2969 Q406.9563,28.75 405.6594,28.75 Q404.1438,28.75 402.9406,28.125 Q401.9563,27.625 401.2688,26.5625 Q400.5813,25.4844 400.5813,24.2031 L400.5813,23.0469 Q400.5813,21.7188 401.1906,20.5781 Q401.8156,19.4219 402.9094,18.8125 Q404.0031,18.1875 405.2375,18.1875 Q405.9719,18.1875 406.6125,18.3594 Q407.2688,18.5156 407.8156,18.875 Z " fill="#000000"/><text fill="#000000" font-family="sans-serif" font-size="14" lengthAdjust="spacing" textLength="38" x="422.95" y="28.7969">Robot</text><line style="stroke:#181818;stroke-width:0.5;" x1="373.5" x2="480.5" y1="39" y2="39"/><rect fill="none" height="6" style="stroke:#C82930;stroke-width:1.0;" width="6" x="380.5" y="50.8105"/><text fill="#000000" font-family="sans-serif" font-size="14" lengthAdjust="spacing" textLength="31" x="392.5" y="58.1074">code</text><rect fill="none" height="6" style="stroke:#C82930;stroke-width:1.0;" width="6" x="380.5" y="69.4316"/><text fill="#000000" font-family="sans-serif" font-size="14" lengthAdjust="spacing" textLength="61" x="392.5" y="76.7285">nickName</text><rect fill="none" height="6" style="stroke:#C82930;stroke-width:1.0;" width="6" x="380.5" y="88.0527"/><text fill="#000000" font-family="sans-serif" font-size="14" lengthAdjust="spacing" textLength="83" x="392.5" y="95.3496">serialNumber</text><rect fill="none" height="6" style="stroke:#C82930;stroke-width:1.0;" width="6" x="380.5" y="106.6738"/><text fill="#000000" font-family="sans-serif" font-size="14" lengthAdjust="spacing" textLength="69" x="392.5" y="113.9707">description</text><line style="stroke:#181818;stroke-width:0.5;" x1="373.5" x2="480.5" y1="121.4844" y2="121.4844"/></g><!--class RobotType--><g id="elem_RobotType"><rect codeLine="60" fill="#FFE4B5" height="85.2422" id="RobotType" rx="2.5" ry="2.5" style="stroke:#181818;stroke-width:0.5;" width="102" x="428" y="217"/><ellipse cx="443" cy="233" fill="#ADD1B2" rx="11" ry="11" style="stroke:#181818;stroke-width:1.0;"/><path d="M445.7656,228.875 Q445.9219,228.6563 446.1094,228.5469 Q446.2969,228.4375 446.5156,228.4375 Q446.8906,228.4375 447.125,228.7031 Q447.3594,228.9531 447.3594,229.5625 L447.3594,231.0156 Q447.3594,231.625 447.125,231.8906 Q446.8906,232.1563 446.5156,232.1563 Q446.1719,232.1563 445.9688,231.9531 Q445.7656,231.7656 445.6563,231.25 Q445.6094,230.8906 445.4219,230.7031 Q445.0938,230.3281 444.4844,230.1094 Q443.875,229.8906 443.25,229.8906 Q442.4844,229.8906 441.8438,230.2188 Q441.2188,230.5469 440.7188,231.2969 Q440.2344,232.0469 440.2344,233.0781 L440.2344,234.1719 Q440.2344,235.4063 441.125,236.2344 Q442.0156,237.0469 443.6094,237.0469 Q444.5469,237.0469 445.2031,236.7969 Q445.5938,236.6406 446.0156,236.2031 Q446.2813,235.9375 446.4219,235.8594 Q446.5781,235.7813 446.7813,235.7813 Q447.1094,235.7813 447.3594,236.0469 Q447.625,236.2969 447.625,236.6406 Q447.625,236.9844 447.2813,237.3906 Q446.7813,237.9688 445.9844,238.2969 Q444.9063,238.75 443.6094,238.75 Q442.0938,238.75 440.8906,238.125 Q439.9063,237.625 439.2188,236.5625 Q438.5313,235.4844 438.5313,234.2031 L438.5313,233.0469 Q438.5313,231.7188 439.1406,230.5781 Q439.7656,229.4219 440.8594,228.8125 Q441.9531,228.1875 443.1875,228.1875 Q443.9219,228.1875 444.5625,228.3594 Q445.2188,228.5156 445.7656,228.875 Z " fill="#000000"/><text fill="#000000" font-family="sans-serif" font-size="14" lengthAdjust="spacing" textLength="70" x="457" y="238.7969">RobotType</text><line style="stroke:#181818;stroke-width:0.5;" x1="429" x2="529" y1="249" y2="249"/><rect fill="none" height="6" style="stroke:#C82930;stroke-width:1.0;" width="6" x="436" y="260.8105"/><text fill="#000000" font-family="sans-serif" font-size="14" lengthAdjust="spacing" textLength="37" x="448" y="268.1074">brand</text><rect fill="none" height="6" style="stroke:#C82930;stroke-width:1.0;" width="6" x="436" y="279.4316"/><text fill="#000000" font-family="sans-serif" font-size="14" lengthAdjust="spacing" textLength="38" x="448" y="286.7285">model</text><line style="stroke:#181818;stroke-width:0.5;" x1="429" x2="529" y1="294.2422" y2="294.2422"/></g><g id="elem_GMN9"><path d="M6,228.5 L6,290.373 A0,0 0 0 0 6,290.373 L322,290.373 A0,0 0 0 0 322,290.373 L322,264 L427.7,260 L322,256 L322,238.5 L312,228.5 L6,228.5 A0,0 0 0 0 6,228.5 " fill="#FEFFDD" style="stroke:#181818;stroke-width:0.5;"/><path d="M312,228.5 L312,238.5 L322,238.5 L312,228.5 " fill="#FEFFDD" style="stroke:#181818;stroke-width:0.5;"/><text fill="#000000" font-family="sans-serif" font-size="13" lengthAdjust="spacing" textLength="196" x="12" y="247.5283">in order to fulfill the client's needs,</text><text fill="#000000" font-family="sans-serif" font-size="13" lengthAdjust="spacing" textLength="228" x="12" y="264.8193">currently there will be 2 types of robots:</text><text fill="#000000" font-family="sans-serif" font-size="13" lengthAdjust="spacing" textLength="295" x="12" y="282.1104">Robisep and Droneisep, but it can scale as needed</text></g><!--class TaskType--><g id="elem_TaskType"><rect codeLine="65" fill="#FFE4B5" height="48" id="TaskType" rx="2.5" ry="2.5" style="stroke:#181818;stroke-width:0.5;" width="95" x="796.5" y="408.5"/><ellipse cx="811.5" cy="424.5" fill="#ADD1B2" rx="11" ry="11" style="stroke:#181818;stroke-width:1.0;"/><path d="M814.2656,420.375 Q814.4219,420.1563 814.6094,420.0469 Q814.7969,419.9375 815.0156,419.9375 Q815.3906,419.9375 815.625,420.2031 Q815.8594,420.4531 815.8594,421.0625 L815.8594,422.5156 Q815.8594,423.125 815.625,423.3906 Q815.3906,423.6563 815.0156,423.6563 Q814.6719,423.6563 814.4688,423.4531 Q814.2656,423.2656 814.1563,422.75 Q814.1094,422.3906 813.9219,422.2031 Q813.5938,421.8281 812.9844,421.6094 Q812.375,421.3906 811.75,421.3906 Q810.9844,421.3906 810.3438,421.7188 Q809.7188,422.0469 809.2188,422.7969 Q808.7344,423.5469 808.7344,424.5781 L808.7344,425.6719 Q808.7344,426.9063 809.625,427.7344 Q810.5156,428.5469 812.1094,428.5469 Q813.0469,428.5469 813.7031,428.2969 Q814.0938,428.1406 814.5156,427.7031 Q814.7813,427.4375 814.9219,427.3594 Q815.0781,427.2813 815.2813,427.2813 Q815.6094,427.2813 815.8594,427.5469 Q816.125,427.7969 816.125,428.1406 Q816.125,428.4844 815.7813,428.8906 Q815.2813,429.4688 814.4844,429.7969 Q813.4063,430.25 812.1094,430.25 Q810.5938,430.25 809.3906,429.625 Q808.4063,429.125 807.7188,428.0625 Q807.0313,426.9844 807.0313,425.7031 L807.0313,424.5469 Q807.0313,423.2188 807.6406,422.0781 Q808.2656,420.9219 809.3594,420.3125 Q810.4531,419.6875 811.6875,419.6875 Q812.4219,419.6875 813.0625,419.8594 Q813.7188,420.0156 814.2656,420.375 Z " fill="#000000"/><text fill="#000000" font-family="sans-serif" font-size="14" lengthAdjust="spacing" textLength="63" x="825.5" y="430.2969">TaskType</text><line style="stroke:#181818;stroke-width:0.5;" x1="797.5" x2="890.5" y1="440.5" y2="440.5"/><line style="stroke:#181818;stroke-width:0.5;" x1="797.5" x2="890.5" y1="448.5" y2="448.5"/></g><g id="elem_GMN13"><path d="M428.5,401.5 L428.5,463.373 A0,0 0 0 0 428.5,463.373 L761.5,463.373 A0,0 0 0 0 761.5,463.373 L761.5,437 L796.05,433 L761.5,429 L761.5,411.5 L751.5,401.5 L428.5,401.5 A0,0 0 0 0 428.5,401.5 " fill="#FEFFDD" style="stroke:#181818;stroke-width:0.5;"/><path d="M751.5,401.5 L751.5,411.5 L761.5,411.5 L751.5,401.5 " fill="#FEFFDD" style="stroke:#181818;stroke-width:0.5;"/><text fill="#000000" font-family="sans-serif" font-size="13" lengthAdjust="spacing" textLength="196" x="434.5" y="420.5283">in order to fulfill the client's needs,</text><text fill="#000000" font-family="sans-serif" font-size="13" lengthAdjust="spacing" textLength="224" x="434.5" y="437.8193">currently there will be 2 types of tasks:</text><text fill="#000000" font-family="sans-serif" font-size="13" lengthAdjust="spacing" textLength="312" x="434.5" y="455.1104">Surveillance and deliveries, but it can scale as needed</text></g><!--class Role--><g id="elem_Role"><rect codeLine="70" fill="#FFE4B5" height="66.6211" id="Role" rx="2.5" ry="2.5" style="stroke:#181818;stroke-width:0.5;" width="61" x="1356.5" y="226"/><ellipse cx="1371.5" cy="242" fill="#ADD1B2" rx="11" ry="11" style="stroke:#181818;stroke-width:1.0;"/><path d="M1374.2656,237.875 Q1374.4219,237.6563 1374.6094,237.5469 Q1374.7969,237.4375 1375.0156,237.4375 Q1375.3906,237.4375 1375.625,237.7031 Q1375.8594,237.9531 1375.8594,238.5625 L1375.8594,240.0156 Q1375.8594,240.625 1375.625,240.8906 Q1375.3906,241.1563 1375.0156,241.1563 Q1374.6719,241.1563 1374.4688,240.9531 Q1374.2656,240.7656 1374.1563,240.25 Q1374.1094,239.8906 1373.9219,239.7031 Q1373.5938,239.3281 1372.9844,239.1094 Q1372.375,238.8906 1371.75,238.8906 Q1370.9844,238.8906 1370.3438,239.2188 Q1369.7188,239.5469 1369.2188,240.2969 Q1368.7344,241.0469 1368.7344,242.0781 L1368.7344,243.1719 Q1368.7344,244.4063 1369.625,245.2344 Q1370.5156,246.0469 1372.1094,246.0469 Q1373.0469,246.0469 1373.7031,245.7969 Q1374.0938,245.6406 1374.5156,245.2031 Q1374.7813,244.9375 1374.9219,244.8594 Q1375.0781,244.7813 1375.2813,244.7813 Q1375.6094,244.7813 1375.8594,245.0469 Q1376.125,245.2969 1376.125,245.6406 Q1376.125,245.9844 1375.7813,246.3906 Q1375.2813,246.9688 1374.4844,247.2969 Q1373.4063,247.75 1372.1094,247.75 Q1370.5938,247.75 1369.3906,247.125 Q1368.4063,246.625 1367.7188,245.5625 Q1367.0313,244.4844 1367.0313,243.2031 L1367.0313,242.0469 Q1367.0313,240.7188 1367.6406,239.5781 Q1368.2656,238.4219 1369.3594,237.8125 Q1370.4531,237.1875 1371.6875,237.1875 Q1372.4219,237.1875 1373.0625,237.3594 Q1373.7188,237.5156 1374.2656,237.875 Z " fill="#000000"/><text fill="#000000" font-family="sans-serif" font-size="14" lengthAdjust="spacing" textLength="29" x="1385.5" y="247.7969">Role</text><line style="stroke:#181818;stroke-width:0.5;" x1="1357.5" x2="1416.5" y1="258" y2="258"/><rect fill="none" height="6" style="stroke:#C82930;stroke-width:1.0;" width="6" x="1364.5" y="269.8105"/><text fill="#000000" font-family="sans-serif" font-size="14" lengthAdjust="spacing" textLength="35" x="1376.5" y="277.1074">name</text><line style="stroke:#181818;stroke-width:0.5;" x1="1357.5" x2="1416.5" y1="284.6211" y2="284.6211"/></g><!--class Client--><g id="elem_Client"><rect codeLine="74" fill="#FFE4B5" height="122.4844" id="Client" rx="2.5" ry="2.5" style="stroke:#181818;stroke-width:0.5;" width="115" x="1250.5" y="7"/><ellipse cx="1286.65" cy="23" fill="#ADD1B2" rx="11" ry="11" style="stroke:#181818;stroke-width:1.0;"/><path d="M1289.4156,18.875 Q1289.5719,18.6563 1289.7594,18.5469 Q1289.9469,18.4375 1290.1656,18.4375 Q1290.5406,18.4375 1290.775,18.7031 Q1291.0094,18.9531 1291.0094,19.5625 L1291.0094,21.0156 Q1291.0094,21.625 1290.775,21.8906 Q1290.5406,22.1563 1290.1656,22.1563 Q1289.8219,22.1563 1289.6188,21.9531 Q1289.4156,21.7656 1289.3063,21.25 Q1289.2594,20.8906 1289.0719,20.7031 Q1288.7438,20.3281 1288.1344,20.1094 Q1287.525,19.8906 1286.9,19.8906 Q1286.1344,19.8906 1285.4938,20.2188 Q1284.8688,20.5469 1284.3688,21.2969 Q1283.8844,22.0469 1283.8844,23.0781 L1283.8844,24.1719 Q1283.8844,25.4063 1284.775,26.2344 Q1285.6656,27.0469 1287.2594,27.0469 Q1288.1969,27.0469 1288.8531,26.7969 Q1289.2438,26.6406 1289.6656,26.2031 Q1289.9313,25.9375 1290.0719,25.8594 Q1290.2281,25.7813 1290.4313,25.7813 Q1290.7594,25.7813 1291.0094,26.0469 Q1291.275,26.2969 1291.275,26.6406 Q1291.275,26.9844 1290.9313,27.3906 Q1290.4313,27.9688 1289.6344,28.2969 Q1288.5563,28.75 1287.2594,28.75 Q1285.7438,28.75 1284.5406,28.125 Q1283.5563,27.625 1282.8688,26.5625 Q1282.1813,25.4844 1282.1813,24.2031 L1282.1813,23.0469 Q1282.1813,21.7188 1282.7906,20.5781 Q1283.4156,19.4219 1284.5094,18.8125 Q1285.6031,18.1875 1286.8375,18.1875 Q1287.5719,18.1875 1288.2125,18.3594 Q1288.8688,18.5156 1289.4156,18.875 Z " fill="#000000"/><text fill="#000000" font-family="sans-serif" font-size="14" lengthAdjust="spacing" textLength="36" x="1305.35" y="28.7969">Client</text><line style="stroke:#181818;stroke-width:0.5;" x1="1251.5" x2="1364.5" y1="39" y2="39"/><rect fill="none" height="6" style="stroke:#C82930;stroke-width:1.0;" width="6" x="1258.5" y="50.8105"/><text fill="#000000" font-family="sans-serif" font-size="14" lengthAdjust="spacing" textLength="35" x="1270.5" y="58.1074">name</text><rect fill="none" height="6" style="stroke:#C82930;stroke-width:1.0;" width="6" x="1258.5" y="69.4316"/><text fill="#000000" font-family="sans-serif" font-size="14" lengthAdjust="spacing" textLength="33" x="1270.5" y="76.7285">email</text><rect fill="none" height="6" style="stroke:#C82930;stroke-width:1.0;" width="6" x="1258.5" y="88.0527"/><text fill="#000000" font-family="sans-serif" font-size="14" lengthAdjust="spacing" textLength="89" x="1270.5" y="95.3496">phoneNumber</text><rect fill="none" height="6" style="stroke:#C82930;stroke-width:1.0;" width="6" x="1258.5" y="106.6738"/><text fill="#000000" font-family="sans-serif" font-size="14" lengthAdjust="spacing" textLength="15" x="1270.5" y="113.9707">nif</text><line style="stroke:#181818;stroke-width:0.5;" x1="1251.5" x2="1364.5" y1="121.4844" y2="121.4844"/></g><!--class BackOfficeUser--><g id="elem_BackOfficeUser"><rect codeLine="81" fill="#FFE4B5" height="103.8633" id="BackOfficeUser" rx="2.5" ry="2.5" style="stroke:#181818;stroke-width:0.5;" width="129" x="1400.5" y="16"/><ellipse cx="1415.5" cy="32" fill="#ADD1B2" rx="11" ry="11" style="stroke:#181818;stroke-width:1.0;"/><path d="M1418.2656,27.875 Q1418.4219,27.6563 1418.6094,27.5469 Q1418.7969,27.4375 1419.0156,27.4375 Q1419.3906,27.4375 1419.625,27.7031 Q1419.8594,27.9531 1419.8594,28.5625 L1419.8594,30.0156 Q1419.8594,30.625 1419.625,30.8906 Q1419.3906,31.1563 1419.0156,31.1563 Q1418.6719,31.1563 1418.4688,30.9531 Q1418.2656,30.7656 1418.1563,30.25 Q1418.1094,29.8906 1417.9219,29.7031 Q1417.5938,29.3281 1416.9844,29.1094 Q1416.375,28.8906 1415.75,28.8906 Q1414.9844,28.8906 1414.3438,29.2188 Q1413.7188,29.5469 1413.2188,30.2969 Q1412.7344,31.0469 1412.7344,32.0781 L1412.7344,33.1719 Q1412.7344,34.4063 1413.625,35.2344 Q1414.5156,36.0469 1416.1094,36.0469 Q1417.0469,36.0469 1417.7031,35.7969 Q1418.0938,35.6406 1418.5156,35.2031 Q1418.7813,34.9375 1418.9219,34.8594 Q1419.0781,34.7813 1419.2813,34.7813 Q1419.6094,34.7813 1419.8594,35.0469 Q1420.125,35.2969 1420.125,35.6406 Q1420.125,35.9844 1419.7813,36.3906 Q1419.2813,36.9688 1418.4844,37.2969 Q1417.4063,37.75 1416.1094,37.75 Q1414.5938,37.75 1413.3906,37.125 Q1412.4063,36.625 1411.7188,35.5625 Q1411.0313,34.4844 1411.0313,33.2031 L1411.0313,32.0469 Q1411.0313,30.7188 1411.6406,29.5781 Q1412.2656,28.4219 1413.3594,27.8125 Q1414.4531,27.1875 1415.6875,27.1875 Q1416.4219,27.1875 1417.0625,27.3594 Q1417.7188,27.5156 1418.2656,27.875 Z " fill="#000000"/><text fill="#000000" font-family="sans-serif" font-size="14" lengthAdjust="spacing" textLength="97" x="1429.5" y="37.7969">BackOfficeUser</text><line style="stroke:#181818;stroke-width:0.5;" x1="1401.5" x2="1528.5" y1="48" y2="48"/><rect fill="none" height="6" style="stroke:#C82930;stroke-width:1.0;" width="6" x="1408.5" y="59.8105"/><text fill="#000000" font-family="sans-serif" font-size="14" lengthAdjust="spacing" textLength="35" x="1420.5" y="67.1074">name</text><rect fill="none" height="6" style="stroke:#C82930;stroke-width:1.0;" width="6" x="1408.5" y="78.4316"/><text fill="#000000" font-family="sans-serif" font-size="14" lengthAdjust="spacing" textLength="33" x="1420.5" y="85.7285">email</text><rect fill="none" height="6" style="stroke:#C82930;stroke-width:1.0;" width="6" x="1408.5" y="97.0527"/><text fill="#000000" font-family="sans-serif" font-size="14" lengthAdjust="spacing" textLength="89" x="1420.5" y="104.3496">phoneNumber</text><line style="stroke:#181818;stroke-width:0.5;" x1="1401.5" x2="1528.5" y1="111.8633" y2="111.8633"/></g><!--class Task--><g id="elem_Task"><rect fill="#FFE4B5" height="48" id="Task" rx="2.5" ry="2.5" style="stroke:#181818;stroke-width:0.5;" width="63" x="690.5" y="572"/><ellipse cx="705.5" cy="588" fill="#ADD1B2" rx="11" ry="11" style="stroke:#181818;stroke-width:1.0;"/><path d="M708.2656,583.875 Q708.4219,583.6563 708.6094,583.5469 Q708.7969,583.4375 709.0156,583.4375 Q709.3906,583.4375 709.625,583.7031 Q709.8594,583.9531 709.8594,584.5625 L709.8594,586.0156 Q709.8594,586.625 709.625,586.8906 Q709.3906,587.1563 709.0156,587.1563 Q708.6719,587.1563 708.4688,586.9531 Q708.2656,586.7656 708.1563,586.25 Q708.1094,585.8906 707.9219,585.7031 Q707.5938,585.3281 706.9844,585.1094 Q706.375,584.8906 705.75,584.8906 Q704.9844,584.8906 704.3438,585.2188 Q703.7188,585.5469 703.2188,586.2969 Q702.7344,587.0469 702.7344,588.0781 L702.7344,589.1719 Q702.7344,590.4063 703.625,591.2344 Q704.5156,592.0469 706.1094,592.0469 Q707.0469,592.0469 707.7031,591.7969 Q708.0938,591.6406 708.5156,591.2031 Q708.7813,590.9375 708.9219,590.8594 Q709.0781,590.7813 709.2813,590.7813 Q709.6094,590.7813 709.8594,591.0469 Q710.125,591.2969 710.125,591.6406 Q710.125,591.9844 709.7813,592.3906 Q709.2813,592.9688 708.4844,593.2969 Q707.4063,593.75 706.1094,593.75 Q704.5938,593.75 703.3906,593.125 Q702.4063,592.625 701.7188,591.5625 Q701.0313,590.4844 701.0313,589.2031 L701.0313,588.0469 Q701.0313,586.7188 701.6406,585.5781 Q702.2656,584.4219 703.3594,583.8125 Q704.4531,583.1875 705.6875,583.1875 Q706.4219,583.1875 707.0625,583.3594 Q707.7188,583.5156 708.2656,583.875 Z " fill="#000000"/><text fill="#000000" font-family="sans-serif" font-size="14" lengthAdjust="spacing" textLength="31" x="719.5" y="593.7969">Task</text><line style="stroke:#181818;stroke-width:0.5;" x1="691.5" x2="752.5" y1="604" y2="604"/><line style="stroke:#181818;stroke-width:0.5;" x1="691.5" x2="752.5" y1="612" y2="612"/></g><!--link Robot to RobotType--><g id="link_Robot_RobotType"><path codeLine="89" d="M454.75,129.12 C454.75,129.12 454.75,211.82 454.75,211.82 " fill="none" id="Robot-to-RobotType" style="stroke:#2F4F4F;stroke-width:1.0;"/><polygon fill="#2F4F4F" points="454.75,216.82,458.75,207.82,454.75,211.82,450.75,207.82,454.75,216.82" style="stroke:#2F4F4F;stroke-width:1.0;"/><text fill="#000000" font-family="sans-serif" font-size="13" lengthAdjust="spacing" textLength="5" x="452.8273" y="151.6215">*</text><text fill="#000000" font-family="sans-serif" font-size="13" lengthAdjust="spacing" textLength="7" x="443.3273" y="205.6954">1</text></g><!--link RobotType to TaskType--><g id="link_RobotType_TaskType"><path codeLine="91" d="M530.14,260 C630.59,260 844,260 844,260 C844,260 844,403.15 844,403.15 " fill="none" id="RobotType-to-TaskType" style="stroke:#2F4F4F;stroke-width:1.0;"/><polygon fill="#2F4F4F" points="844,408.15,848,399.15,844,403.15,840,399.15,844,408.15" style="stroke:#2F4F4F;stroke-width:1.0;"/><text fill="#000000" font-family="sans-serif" font-size="13" lengthAdjust="spacing" textLength="71" x="686.64" y="256.0283">can execute</text><text fill="#000000" font-family="sans-serif" font-size="13" lengthAdjust="spacing" textLength="20" x="821.5625" y="397.2066">1..*</text></g><!--reverse link Robot to Task--><g id="link_Robot_Task"><path codeLine="92" d="M400.25,134.08 C400.25,134.08 400.25,596 400.25,596 C400.25,596 609.1,596 690.27,596 " fill="none" id="Robot-backto-Task" style="stroke:#2F4F4F;stroke-width:1.0;"/><polygon fill="#2F4F4F" points="400.25,129.08,396.25,138.08,400.25,134.08,404.25,138.08,400.25,129.08" style="stroke:#2F4F4F;stroke-width:1.0;"/><text fill="#000000" font-family="sans-serif" font-size="13" lengthAdjust="spacing" textLength="71" x="328.25" y="506.0783">executed by</text><text fill="#000000" font-family="sans-serif" font-size="13" lengthAdjust="spacing" textLength="7" x="389.5633" y="151.5766">1</text></g><!--reverse link TaskType to Task--><g id="link_TaskType_Task"><path codeLine="93" d="M844,461.62 C844,461.62 844,596 844,596 C844,596 789.88,596 753.74,596 " fill="none" id="TaskType-backto-Task" style="stroke:#2F4F4F;stroke-width:1.0;"/><polygon fill="#2F4F4F" points="844,456.62,840.0257,465.6314,844.0143,461.62,848.0257,465.6085,844,456.62" style="stroke:#2F4F4F;stroke-width:1.0;"/><text fill="#000000" font-family="sans-serif" font-size="13" lengthAdjust="spacing" textLength="5" x="761.658" y="591.0963">*</text></g><!--link Building to Floor--><g id="link_Building_Floor"><path codeLine="97" d="M1116.78,312 C1121.45,312 1124.5,312 1124.5,312 C1124.5,312 1124.5,384.68 1124.5,384.68 " fill="none" id="Building-to-Floor" style="stroke:#2F4F4F;stroke-width:1.0;"/><polygon fill="#2F4F4F" points="1124.5,389.68,1128.5,380.68,1124.5,384.68,1120.5,380.68,1124.5,389.68" style="stroke:#2F4F4F;stroke-width:1.0;"/><text fill="#000000" font-family="sans-serif" font-size="13" lengthAdjust="spacing" textLength="7" x="1124.6322" y="315.78">1</text><text fill="#000000" font-family="sans-serif" font-size="13" lengthAdjust="spacing" textLength="20" x="1095.6953" y="378.8537">1..*</text></g><!--reverse link Floor to Elevator--><g id="link_Floor_Elevator"><path codeLine="98" d="M1115.29,470 C1115.29,470 1084.83,470 1084.83,470 C1084.83,470 1084.83,502.74 1084.83,534.85 " fill="none" id="Floor-backto-Elevator" style="stroke:#2F4F4F;stroke-width:1.0;"/><polygon fill="#2F4F4F" points="1120.29,470,1111.29,466,1115.29,470,1111.29,474,1120.29,470" style="stroke:#2F4F4F;stroke-width:1.0;"/><text fill="#000000" font-family="sans-serif" font-size="13" lengthAdjust="spacing" textLength="5" x="1107.6667" y="471.1099">*</text><text fill="#000000" font-family="sans-serif" font-size="13" lengthAdjust="spacing" textLength="7" x="1079.4869" y="523.8139">1</text></g><!--reverse link Building to Elevator--><g id="link_Building_Elevator"><path codeLine="99" d="M1053.17,335.04 C1053.17,335.04 1053.17,534.87 1053.17,534.87 " fill="none" id="Building-backto-Elevator" style="stroke:#2F4F4F;stroke-width:1.0;"/><polygon fill="#2F4F4F" points="1053.17,330.04,1049.17,339.04,1053.17,335.04,1057.17,339.04,1053.17,330.04" style="stroke:#2F4F4F;stroke-width:1.0;"/><text fill="#000000" font-family="sans-serif" font-size="13" lengthAdjust="spacing" textLength="7" x="1044.1766" y="352.2289">1</text></g><!--link Passage to Floor--><g id="link_Passage_Floor"><path codeLine="100" d="M1172,92.2 C1172,92.2 1172,384.87 1172,384.87 " fill="none" id="Passage-to-Floor" style="stroke:#2F4F4F;stroke-width:1.0;"/><polygon fill="#2F4F4F" points="1172,389.87,1176,380.87,1172,384.87,1168,380.87,1172,389.87" style="stroke:#2F4F4F;stroke-width:1.0;"/><text fill="#000000" font-family="sans-serif" font-size="13" lengthAdjust="spacing" textLength="53" x="1118" y="234.5683">connects</text><text fill="#000000" font-family="sans-serif" font-size="13" lengthAdjust="spacing" textLength="7" x="1164.1906" y="113.8238">1</text><text fill="#000000" font-family="sans-serif" font-size="13" lengthAdjust="spacing" textLength="7" x="1164.4422" y="378.7534">2</text></g><!--link Floor to Room--><g id="link_Floor_Room"><path codeLine="101" d="M1172.5,475.32 C1172.5,475.32 1172.5,711.97 1172.5,711.97 " fill="none" id="Floor-to-Room" style="stroke:#2F4F4F;stroke-width:1.0;"/><polygon fill="#2F4F4F" points="1172.5,716.97,1176.5,707.97,1172.5,711.97,1168.5,707.97,1172.5,716.97" style="stroke:#2F4F4F;stroke-width:1.0;"/><text fill="#000000" font-family="sans-serif" font-size="13" lengthAdjust="spacing" textLength="7" x="1165.0406" y="497.2104">1</text><text fill="#000000" font-family="sans-serif" font-size="13" lengthAdjust="spacing" textLength="20" x="1151.2109" y="705.8579">0..*</text></g><!--link Client to Role--><g id="link_Client_Role"><path codeLine="105" d="M1361,129.12 C1361,129.12 1361,220.95 1361,220.95 " fill="none" id="Client-to-Role" style="stroke:#2F4F4F;stroke-width:1.0;"/><polygon fill="#2F4F4F" points="1361,225.95,1365,216.95,1361,220.95,1357,216.95,1361,225.95" style="stroke:#2F4F4F;stroke-width:1.0;"/><text fill="#000000" font-family="sans-serif" font-size="13" lengthAdjust="spacing" textLength="21" x="1339" y="171.0583">has</text><text fill="#000000" font-family="sans-serif" font-size="13" lengthAdjust="spacing" textLength="7" x="1348.1922" y="214.7657">1</text></g><!--link BackOfficeUser to Role--><g id="link_BackOfficeUser_Role"><path codeLine="106" d="M1409,120.08 C1409,120.08 1409,220.83 1409,220.83 " fill="none" id="BackOfficeUser-to-Role" style="stroke:#2F4F4F;stroke-width:1.0;"/><polygon fill="#2F4F4F" points="1409,225.83,1413,216.83,1409,220.83,1405,216.83,1409,225.83" style="stroke:#2F4F4F;stroke-width:1.0;"/><text fill="#000000" font-family="sans-serif" font-size="13" lengthAdjust="spacing" textLength="21" x="1387" y="166.4883">has</text><text fill="#000000" font-family="sans-serif" font-size="13" lengthAdjust="spacing" textLength="7" x="1405.6422" y="214.622">1</text></g><!--SRC=[jLLDR-8m4BtdLuouL5gLQhT7L5KAaB9e-QW8rLvwCSa0NXoRjHCeY_hVT-maO0hR_P0sXoZsl7dpF3EUc1MNQwPP1e9Bp7Th1ANpfGhCmH0lMQgsN2xWWGc3WMTA13C6zW7GqsR9Qg5L8TEE4ahVtTtVmr0b2JDSNWPic2WetEmR9Zc1mn-5nil8Q8FIGeQOyY8BlnTio3JflOoEKMzuWeIFLxisnN2mK6krTGZeChsA1Sknft4NlFedMXCPM-3bCy6ZsgQe3vGLUC1sgiXXeNdgRvDBaKcujG6k1lrUs1b7CNIZqNGoXkuOmjuaweNqyT3lX4FFy1XsleIzo7EofkZW45SU8-iw2WTGSdoE-jO_UXptAGoXAfuuSAhAMhKBBbAgPNa- -pGXKIbwIyaoVvcYIJHVvrn9RpTZBmEKYtnvklULfzNMgnSq4hXXkTBxtzBED9EfJqdIXBSsg3aJeoAReQx2U74UX3eDChSR7lfow1EEHtfHyVR1kMcYLBR_sqHfSkfGgosKtlbWdg4q13NUvbePxgiwYJrJ-Nj5uybgTAhdB5U_ElsRA5CQ0li_gadfAbME872Uju1BcXvqGo1NC2_4d0i1-HA9dTC5lZ8W4LDp_IoJGclQ4JjhrWXRYvmXt88TGGRKd197MaphMP8eRd0Df0AwMacqgskOqPNZEIHCWacOG60bFQRUWQRCh8xd-QzwSmfbvSQ5tY2PcKpGQQPiyGtL0isxea-hBVmI71hjf1qxJkGbc5jXnhXtTTPBojpRPf1yVivhXzvuFgS9-aGjzA_yTVjUJSRjyJHstwwzeF6X0StcFJG-DOuD5nm1Tba1Rcu8MzUmvTA6BvWKEVfyn7FNR3fSgxQdC2klM-tj88sAhjPMJyFo4jOhn-W9S6F58ToNOt5i1Aj7spc1HPnOgybIiLlwsueRw6XAIleD6Z_C0VVHoR3ZfnR-54UJCgTb5tW9fQPgmPAPmm_iMCjBg20uJBeW-0a0]--></g></svg>