<?xml version="1.0" encoding="us-ascii" standalone="no"?><svg xmlns="http://www.w3.org/2000/svg" xmlns:xlink="http://www.w3.org/1999/xlink" contentStyleType="text/css" height="778.5px" preserveAspectRatio="none" style="width:1116px;height:778px;background:#FFFFFF;" version="1.1" viewBox="0 0 1116 778" width="1116px" zoomAndPan="magnify"><defs/><g><!--class Building--><g id="elem_Building"><rect codeLine="22" fill="#FFE4B5" height="126.9949" id="Building" rx="2.25" ry="2.25" style="stroke:#181818;stroke-width:0.45;" width="85.5" x="919.35" y="170.1"/><ellipse cx="938.115" cy="184.5" fill="#ADD1B2" rx="9.9" ry="9.9" style="stroke:#181818;stroke-width:0.9;"/><path d="M940.6041,180.7875 Q940.7447,180.5906 940.9134,180.4922 Q941.0822,180.3938 941.2791,180.3938 Q941.6166,180.3938 941.8275,180.6328 Q942.0384,180.8578 942.0384,181.4063 L942.0384,182.7141 Q942.0384,183.2625 941.8275,183.5016 Q941.6166,183.7406 941.2791,183.7406 Q940.9697,183.7406 940.7869,183.5578 Q940.6041,183.3891 940.5056,182.925 Q940.4634,182.6016 940.2947,182.4328 Q939.9994,182.0953 939.4509,181.8984 Q938.9025,181.7016 938.34,181.7016 Q937.6509,181.7016 937.0744,181.9969 Q936.5119,182.2922 936.0619,182.9672 Q935.6259,183.6422 935.6259,184.5703 L935.6259,185.5547 Q935.6259,186.6656 936.4275,187.4109 Q937.2291,188.1422 938.6634,188.1422 Q939.5072,188.1422 940.0978,187.9172 Q940.4494,187.7766 940.8291,187.3828 Q941.0681,187.1438 941.1947,187.0734 Q941.3353,187.0031 941.5181,187.0031 Q941.8134,187.0031 942.0384,187.2422 Q942.2775,187.4672 942.2775,187.7766 Q942.2775,188.0859 941.9681,188.4516 Q941.5181,188.9719 940.8009,189.2672 Q939.8306,189.675 938.6634,189.675 Q937.2994,189.675 936.2166,189.1125 Q935.3306,188.6625 934.7119,187.7063 Q934.0931,186.7359 934.0931,185.5828 L934.0931,184.5422 Q934.0931,183.3469 934.6416,182.3203 Q935.2041,181.2797 936.1884,180.7313 Q937.1728,180.1688 938.2837,180.1688 Q938.9447,180.1688 939.5212,180.3234 Q940.1119,180.4641 940.6041,180.7875 Z " fill="#000000"/><text fill="#000000" font-family="sans-serif" font-size="12.6" lengthAdjust="spacing" textLength="45" x="951.885" y="189.7172">Building</text><line style="stroke:#181818;stroke-width:0.45;" x1="920.25" x2="1003.95" y1="198.9" y2="198.9"/><rect fill="none" height="5.4" style="stroke:#C82930;stroke-width:0.9;" width="5.4" x="926.55" y="209.5295"/><text fill="#000000" font-family="sans-serif" font-size="12.6" lengthAdjust="spacing" textLength="27.9" x="937.35" y="216.0967">code</text><rect fill="none" height="5.4" style="stroke:#C82930;stroke-width:0.9;" width="5.4" x="926.55" y="226.2885"/><text fill="#000000" font-family="sans-serif" font-size="12.6" lengthAdjust="spacing" textLength="31.5" x="937.35" y="232.8557">name</text><rect fill="none" height="5.4" style="stroke:#C82930;stroke-width:0.9;" width="5.4" x="926.55" y="243.0475"/><text fill="#000000" font-family="sans-serif" font-size="12.6" lengthAdjust="spacing" textLength="62.1" x="937.35" y="249.6146">description</text><rect fill="none" height="5.4" style="stroke:#C82930;stroke-width:0.9;" width="5.4" x="926.55" y="259.8064"/><text fill="#000000" font-family="sans-serif" font-size="12.6" lengthAdjust="spacing" textLength="62.1" x="937.35" y="266.3736">maxLength</text><rect fill="none" height="5.4" style="stroke:#C82930;stroke-width:0.9;" width="5.4" x="926.55" y="276.5654"/><text fill="#000000" font-family="sans-serif" font-size="12.6" lengthAdjust="spacing" textLength="54.9" x="937.35" y="283.1326">maxWidth</text><line style="stroke:#181818;stroke-width:0.45;" x1="920.25" x2="1003.95" y1="289.8949" y2="289.8949"/></g><!--class Elevator--><g id="elem_Elevator"><rect codeLine="29" fill="#FFE4B5" height="110.2359" id="Elevator" rx="2.25" ry="2.25" style="stroke:#181818;stroke-width:0.45;" width="98.1" x="911.25" y="481.5"/><ellipse cx="934.875" cy="495.9" fill="#ADD1B2" rx="9.9" ry="9.9" style="stroke:#181818;stroke-width:0.9;"/><path d="M937.3641,492.1875 Q937.5047,491.9906 937.6734,491.8922 Q937.8422,491.7938 938.0391,491.7938 Q938.3766,491.7938 938.5875,492.0328 Q938.7984,492.2578 938.7984,492.8063 L938.7984,494.1141 Q938.7984,494.6625 938.5875,494.9016 Q938.3766,495.1406 938.0391,495.1406 Q937.7297,495.1406 937.5469,494.9578 Q937.3641,494.7891 937.2656,494.325 Q937.2234,494.0016 937.0547,493.8328 Q936.7594,493.4953 936.2109,493.2984 Q935.6625,493.1016 935.1,493.1016 Q934.4109,493.1016 933.8344,493.3969 Q933.2719,493.6922 932.8219,494.3672 Q932.3859,495.0422 932.3859,495.9703 L932.3859,496.9547 Q932.3859,498.0656 933.1875,498.8109 Q933.9891,499.5422 935.4234,499.5422 Q936.2672,499.5422 936.8578,499.3172 Q937.2094,499.1766 937.5891,498.7828 Q937.8281,498.5438 937.9547,498.4734 Q938.0953,498.4031 938.2781,498.4031 Q938.5734,498.4031 938.7984,498.6422 Q939.0375,498.8672 939.0375,499.1766 Q939.0375,499.4859 938.7281,499.8516 Q938.2781,500.3719 937.5609,500.6672 Q936.5906,501.075 935.4234,501.075 Q934.0594,501.075 932.9766,500.5125 Q932.0906,500.0625 931.4719,499.1063 Q930.8531,498.1359 930.8531,496.9828 L930.8531,495.9422 Q930.8531,494.7469 931.4016,493.7203 Q931.9641,492.6797 932.9484,492.1313 Q933.9328,491.5688 935.0438,491.5688 Q935.7047,491.5688 936.2813,491.7234 Q936.8719,491.8641 937.3641,492.1875 Z " fill="#000000"/><text fill="#000000" font-family="sans-serif" font-size="12.6" lengthAdjust="spacing" textLength="46.8" x="949.725" y="501.1172">Elevator</text><line style="stroke:#181818;stroke-width:0.45;" x1="912.15" x2="1008.45" y1="510.3" y2="510.3"/><rect fill="none" height="5.4" style="stroke:#C82930;stroke-width:0.9;" width="5.4" x="918.45" y="520.9295"/><text fill="#000000" font-family="sans-serif" font-size="12.6" lengthAdjust="spacing" textLength="62.1" x="929.25" y="527.4967">description</text><rect fill="none" height="5.4" style="stroke:#C82930;stroke-width:0.9;" width="5.4" x="918.45" y="537.6885"/><text fill="#000000" font-family="sans-serif" font-size="12.6" lengthAdjust="spacing" textLength="33.3" x="929.25" y="544.2557">brand</text><rect fill="none" height="5.4" style="stroke:#C82930;stroke-width:0.9;" width="5.4" x="918.45" y="554.4475"/><text fill="#000000" font-family="sans-serif" font-size="12.6" lengthAdjust="spacing" textLength="34.2" x="929.25" y="561.0146">model</text><rect fill="none" height="5.4" style="stroke:#C82930;stroke-width:0.9;" width="5.4" x="918.45" y="571.2064"/><text fill="#000000" font-family="sans-serif" font-size="12.6" lengthAdjust="spacing" textLength="74.7" x="929.25" y="577.7736">serialNumber</text><line style="stroke:#181818;stroke-width:0.45;" x1="912.15" x2="1008.45" y1="584.5359" y2="584.5359"/></g><!--class Floor--><g id="elem_Floor"><rect codeLine="36" fill="#FFE4B5" height="76.718" id="Floor" rx="2.25" ry="2.25" style="stroke:#181818;stroke-width:0.45;" width="92.7" x="1008.45" y="351"/><ellipse cx="1037.34" cy="365.4" fill="#ADD1B2" rx="9.9" ry="9.9" style="stroke:#181818;stroke-width:0.9;"/><path d="M1039.8291,361.6875 Q1039.9697,361.4906 1040.1384,361.3922 Q1040.3072,361.2938 1040.5041,361.2938 Q1040.8416,361.2938 1041.0525,361.5328 Q1041.2634,361.7578 1041.2634,362.3063 L1041.2634,363.6141 Q1041.2634,364.1625 1041.0525,364.4016 Q1040.8416,364.6406 1040.5041,364.6406 Q1040.1947,364.6406 1040.0119,364.4578 Q1039.8291,364.2891 1039.7306,363.825 Q1039.6884,363.5016 1039.5197,363.3328 Q1039.2244,362.9953 1038.6759,362.7984 Q1038.1275,362.6016 1037.565,362.6016 Q1036.8759,362.6016 1036.2994,362.8969 Q1035.7369,363.1922 1035.2869,363.8672 Q1034.8509,364.5422 1034.8509,365.4703 L1034.8509,366.4547 Q1034.8509,367.5656 1035.6525,368.3109 Q1036.4541,369.0422 1037.8884,369.0422 Q1038.7322,369.0422 1039.3228,368.8172 Q1039.6744,368.6766 1040.0541,368.2828 Q1040.2931,368.0438 1040.4197,367.9734 Q1040.5603,367.9031 1040.7431,367.9031 Q1041.0384,367.9031 1041.2634,368.1422 Q1041.5025,368.3672 1041.5025,368.6766 Q1041.5025,368.9859 1041.1931,369.3516 Q1040.7431,369.8719 1040.0259,370.1672 Q1039.0556,370.575 1037.8884,370.575 Q1036.5244,370.575 1035.4416,370.0125 Q1034.5556,369.5625 1033.9369,368.6063 Q1033.3181,367.6359 1033.3181,366.4828 L1033.3181,365.4422 Q1033.3181,364.2469 1033.8666,363.2203 Q1034.4291,362.1797 1035.4134,361.6313 Q1036.3978,361.0688 1037.5088,361.0688 Q1038.1697,361.0688 1038.7463,361.2234 Q1039.3369,361.3641 1039.8291,361.6875 Z " fill="#000000"/><text fill="#000000" font-family="sans-serif" font-size="12.6" lengthAdjust="spacing" textLength="29.7" x="1053.36" y="370.6172">Floor</text><line style="stroke:#181818;stroke-width:0.45;" x1="1009.35" x2="1100.25" y1="379.8" y2="379.8"/><rect fill="none" height="5.4" style="stroke:#C82930;stroke-width:0.9;" width="5.4" x="1015.65" y="390.4295"/><text fill="#000000" font-family="sans-serif" font-size="12.6" lengthAdjust="spacing" textLength="69.3" x="1026.45" y="396.9967">floorNumber</text><rect fill="none" height="5.4" style="stroke:#C82930;stroke-width:0.9;" width="5.4" x="1015.65" y="407.1885"/><text fill="#000000" font-family="sans-serif" font-size="12.6" lengthAdjust="spacing" textLength="62.1" x="1026.45" y="413.7557">description</text><line style="stroke:#181818;stroke-width:0.45;" x1="1009.35" x2="1100.25" y1="420.518" y2="420.518"/></g><!--class Passage--><g id="elem_Passage"><rect codeLine="41" fill="#FFE4B5" height="43.2" id="Passage" rx="2.25" ry="2.25" style="stroke:#181818;stroke-width:0.45;" width="78.3" x="1015.65" y="39.6"/><ellipse cx="1029.15" cy="54" fill="#ADD1B2" rx="9.9" ry="9.9" style="stroke:#181818;stroke-width:0.9;"/><path d="M1031.6391,50.2875 Q1031.7797,50.0906 1031.9484,49.9922 Q1032.1172,49.8938 1032.3141,49.8938 Q1032.6516,49.8938 1032.8625,50.1328 Q1033.0734,50.3578 1033.0734,50.9063 L1033.0734,52.2141 Q1033.0734,52.7625 1032.8625,53.0016 Q1032.6516,53.2406 1032.3141,53.2406 Q1032.0047,53.2406 1031.8219,53.0578 Q1031.6391,52.8891 1031.5406,52.425 Q1031.4984,52.1016 1031.3297,51.9328 Q1031.0344,51.5953 1030.4859,51.3984 Q1029.9375,51.2016 1029.375,51.2016 Q1028.6859,51.2016 1028.1094,51.4969 Q1027.5469,51.7922 1027.0969,52.4672 Q1026.6609,53.1422 1026.6609,54.0703 L1026.6609,55.0547 Q1026.6609,56.1656 1027.4625,56.9109 Q1028.2641,57.6422 1029.6984,57.6422 Q1030.5422,57.6422 1031.1328,57.4172 Q1031.4844,57.2766 1031.8641,56.8828 Q1032.1031,56.6438 1032.2297,56.5734 Q1032.3703,56.5031 1032.5531,56.5031 Q1032.8484,56.5031 1033.0734,56.7422 Q1033.3125,56.9672 1033.3125,57.2766 Q1033.3125,57.5859 1033.0031,57.9516 Q1032.5531,58.4719 1031.8359,58.7672 Q1030.8656,59.175 1029.6984,59.175 Q1028.3344,59.175 1027.2516,58.6125 Q1026.3656,58.1625 1025.7469,57.2063 Q1025.1281,56.2359 1025.1281,55.0828 L1025.1281,54.0422 Q1025.1281,52.8469 1025.6766,51.8203 Q1026.2391,50.7797 1027.2234,50.2313 Q1028.2078,49.6688 1029.3188,49.6688 Q1029.9797,49.6688 1030.5563,49.8234 Q1031.1469,49.9641 1031.6391,50.2875 Z " fill="#000000"/><text fill="#000000" font-family="sans-serif" font-size="12.6" lengthAdjust="spacing" textLength="49.5" x="1041.75" y="59.2172">Passage</text><line style="stroke:#181818;stroke-width:0.45;" x1="1016.55" x2="1093.05" y1="68.4" y2="68.4"/><line style="stroke:#181818;stroke-width:0.45;" x1="1016.55" x2="1093.05" y1="75.6" y2="75.6"/></g><!--class Room--><g id="elem_Room"><rect codeLine="45" fill="#FFE4B5" height="126.9949" id="Room" rx="2.25" ry="2.25" style="stroke:#181818;stroke-width:0.45;" width="104.4" x="1005.3" y="645.3"/><ellipse cx="1037.835" cy="659.7" fill="#ADD1B2" rx="9.9" ry="9.9" style="stroke:#181818;stroke-width:0.9;"/><path d="M1040.3241,655.9875 Q1040.4647,655.7906 1040.6334,655.6922 Q1040.8022,655.5938 1040.9991,655.5938 Q1041.3366,655.5938 1041.5475,655.8328 Q1041.7584,656.0578 1041.7584,656.6063 L1041.7584,657.9141 Q1041.7584,658.4625 1041.5475,658.7016 Q1041.3366,658.9406 1040.9991,658.9406 Q1040.6897,658.9406 1040.5069,658.7578 Q1040.3241,658.5891 1040.2256,658.125 Q1040.1834,657.8016 1040.0147,657.6328 Q1039.7194,657.2953 1039.1709,657.0984 Q1038.6225,656.9016 1038.06,656.9016 Q1037.3709,656.9016 1036.7944,657.1969 Q1036.2319,657.4922 1035.7819,658.1672 Q1035.3459,658.8422 1035.3459,659.7703 L1035.3459,660.7547 Q1035.3459,661.8656 1036.1475,662.6109 Q1036.9491,663.3422 1038.3834,663.3422 Q1039.2272,663.3422 1039.8178,663.1172 Q1040.1694,662.9766 1040.5491,662.5828 Q1040.7881,662.3438 1040.9147,662.2734 Q1041.0553,662.2031 1041.2381,662.2031 Q1041.5334,662.2031 1041.7584,662.4422 Q1041.9975,662.6672 1041.9975,662.9766 Q1041.9975,663.2859 1041.6881,663.6516 Q1041.2381,664.1719 1040.5209,664.4672 Q1039.5506,664.875 1038.3834,664.875 Q1037.0194,664.875 1035.9366,664.3125 Q1035.0506,663.8625 1034.4319,662.9063 Q1033.8131,661.9359 1033.8131,660.7828 L1033.8131,659.7422 Q1033.8131,658.5469 1034.3616,657.5203 Q1034.9241,656.4797 1035.9084,655.9313 Q1036.8928,655.3688 1038.0038,655.3688 Q1038.6647,655.3688 1039.2413,655.5234 Q1039.8319,655.6641 1040.3241,655.9875 Z " fill="#000000"/><text fill="#000000" font-family="sans-serif" font-size="12.6" lengthAdjust="spacing" textLength="33.3" x="1054.665" y="664.9172">Room</text><line style="stroke:#181818;stroke-width:0.45;" x1="1006.2" x2="1108.8" y1="674.1" y2="674.1"/><rect fill="none" height="5.4" style="stroke:#C82930;stroke-width:0.9;" width="5.4" x="1012.5" y="684.7295"/><text fill="#000000" font-family="sans-serif" font-size="12.6" lengthAdjust="spacing" textLength="31.5" x="1023.3" y="691.2967">name</text><rect fill="none" height="5.4" style="stroke:#C82930;stroke-width:0.9;" width="5.4" x="1012.5" y="701.4885"/><text fill="#000000" font-family="sans-serif" font-size="12.6" lengthAdjust="spacing" textLength="62.1" x="1023.3" y="708.0557">description</text><rect fill="none" height="5.4" style="stroke:#C82930;stroke-width:0.9;" width="5.4" x="1012.5" y="718.2475"/><text fill="#000000" font-family="sans-serif" font-size="12.6" lengthAdjust="spacing" textLength="81" x="1023.3" y="724.8146">roomCategory</text><rect fill="none" height="5.4" style="stroke:#C82930;stroke-width:0.9;" width="5.4" x="1012.5" y="735.0064"/><text fill="#000000" font-family="sans-serif" font-size="12.6" lengthAdjust="spacing" textLength="63.9" x="1023.3" y="741.5736">dimensions</text><rect fill="none" height="5.4" style="stroke:#C82930;stroke-width:0.9;" width="5.4" x="1012.5" y="751.7654"/><text fill="#000000" font-family="sans-serif" font-size="12.6" lengthAdjust="spacing" textLength="44.1" x="1023.3" y="758.3326">position</text><line style="stroke:#181818;stroke-width:0.45;" x1="1006.2" x2="1108.8" y1="765.0949" y2="765.0949"/></g><!--class Robot--><g id="elem_Robot"><rect codeLine="54" fill="#FFE4B5" height="110.2359" id="Robot" rx="2.25" ry="2.25" style="stroke:#181818;stroke-width:0.45;" width="98.1" x="335.25" y="6.3"/><ellipse cx="364.545" cy="20.7" fill="#ADD1B2" rx="9.9" ry="9.9" style="stroke:#181818;stroke-width:0.9;"/><path d="M367.0341,16.9875 Q367.1747,16.7906 367.3434,16.6922 Q367.5122,16.5938 367.7091,16.5938 Q368.0466,16.5938 368.2575,16.8328 Q368.4684,17.0578 368.4684,17.6063 L368.4684,18.9141 Q368.4684,19.4625 368.2575,19.7016 Q368.0466,19.9406 367.7091,19.9406 Q367.3997,19.9406 367.2169,19.7578 Q367.0341,19.5891 366.9356,19.125 Q366.8934,18.8016 366.7247,18.6328 Q366.4294,18.2953 365.8809,18.0984 Q365.3325,17.9016 364.77,17.9016 Q364.0809,17.9016 363.5044,18.1969 Q362.9419,18.4922 362.4919,19.1672 Q362.0559,19.8422 362.0559,20.7703 L362.0559,21.7547 Q362.0559,22.8656 362.8575,23.6109 Q363.6591,24.3422 365.0934,24.3422 Q365.9372,24.3422 366.5278,24.1172 Q366.8794,23.9766 367.2591,23.5828 Q367.4981,23.3438 367.6247,23.2734 Q367.7653,23.2031 367.9481,23.2031 Q368.2434,23.2031 368.4684,23.4422 Q368.7075,23.6672 368.7075,23.9766 Q368.7075,24.2859 368.3981,24.6516 Q367.9481,25.1719 367.2309,25.4672 Q366.2606,25.875 365.0934,25.875 Q363.7294,25.875 362.6466,25.3125 Q361.7606,24.8625 361.1419,23.9063 Q360.5231,22.9359 360.5231,21.7828 L360.5231,20.7422 Q360.5231,19.5469 361.0716,18.5203 Q361.6341,17.4797 362.6184,16.9313 Q363.6028,16.3688 364.7138,16.3688 Q365.3747,16.3688 365.9513,16.5234 Q366.5419,16.6641 367.0341,16.9875 Z " fill="#000000"/><text fill="#000000" font-family="sans-serif" font-size="12.6" lengthAdjust="spacing" textLength="34.2" x="380.655" y="25.9172">Robot</text><line style="stroke:#181818;stroke-width:0.45;" x1="336.15" x2="432.45" y1="35.1" y2="35.1"/><rect fill="none" height="5.4" style="stroke:#C82930;stroke-width:0.9;" width="5.4" x="342.45" y="45.7295"/><text fill="#000000" font-family="sans-serif" font-size="12.6" lengthAdjust="spacing" textLength="27.9" x="353.25" y="52.2967">code</text><rect fill="none" height="5.4" style="stroke:#C82930;stroke-width:0.9;" width="5.4" x="342.45" y="62.4885"/><text fill="#000000" font-family="sans-serif" font-size="12.6" lengthAdjust="spacing" textLength="54.9" x="353.25" y="69.0557">nickName</text><rect fill="none" height="5.4" style="stroke:#C82930;stroke-width:0.9;" width="5.4" x="342.45" y="79.2475"/><text fill="#000000" font-family="sans-serif" font-size="12.6" lengthAdjust="spacing" textLength="74.7" x="353.25" y="85.8146">serialNumber</text><rect fill="none" height="5.4" style="stroke:#C82930;stroke-width:0.9;" width="5.4" x="342.45" y="96.0064"/><text fill="#000000" font-family="sans-serif" font-size="12.6" lengthAdjust="spacing" textLength="62.1" x="353.25" y="102.5736">description</text><line style="stroke:#181818;stroke-width:0.45;" x1="336.15" x2="432.45" y1="109.3359" y2="109.3359"/></g><!--class RobotType--><g id="elem_RobotType"><rect codeLine="60" fill="#FFE4B5" height="76.718" id="RobotType" rx="2.25" ry="2.25" style="stroke:#181818;stroke-width:0.45;" width="91.8" x="385.2" y="195.3"/><ellipse cx="398.7" cy="209.7" fill="#ADD1B2" rx="9.9" ry="9.9" style="stroke:#181818;stroke-width:0.9;"/><path d="M401.1891,205.9875 Q401.3297,205.7906 401.4984,205.6922 Q401.6672,205.5938 401.8641,205.5938 Q402.2016,205.5938 402.4125,205.8328 Q402.6234,206.0578 402.6234,206.6063 L402.6234,207.9141 Q402.6234,208.4625 402.4125,208.7016 Q402.2016,208.9406 401.8641,208.9406 Q401.5547,208.9406 401.3719,208.7578 Q401.1891,208.5891 401.0906,208.125 Q401.0484,207.8016 400.8797,207.6328 Q400.5844,207.2953 400.0359,207.0984 Q399.4875,206.9016 398.925,206.9016 Q398.2359,206.9016 397.6594,207.1969 Q397.0969,207.4922 396.6469,208.1672 Q396.2109,208.8422 396.2109,209.7703 L396.2109,210.7547 Q396.2109,211.8656 397.0125,212.6109 Q397.8141,213.3422 399.2484,213.3422 Q400.0922,213.3422 400.6828,213.1172 Q401.0344,212.9766 401.4141,212.5828 Q401.6531,212.3438 401.7797,212.2734 Q401.9203,212.2031 402.1031,212.2031 Q402.3984,212.2031 402.6234,212.4422 Q402.8625,212.6672 402.8625,212.9766 Q402.8625,213.2859 402.5531,213.6516 Q402.1031,214.1719 401.3859,214.4672 Q400.4156,214.875 399.2484,214.875 Q397.8844,214.875 396.8016,214.3125 Q395.9156,213.8625 395.2969,212.9063 Q394.6781,211.9359 394.6781,210.7828 L394.6781,209.7422 Q394.6781,208.5469 395.2266,207.5203 Q395.7891,206.4797 396.7734,205.9313 Q397.7578,205.3688 398.8688,205.3688 Q399.5297,205.3688 400.1063,205.5234 Q400.6969,205.6641 401.1891,205.9875 Z " fill="#000000"/><text fill="#000000" font-family="sans-serif" font-size="12.6" lengthAdjust="spacing" textLength="63" x="411.3" y="214.9172">RobotType</text><line style="stroke:#181818;stroke-width:0.45;" x1="386.1" x2="476.1" y1="224.1" y2="224.1"/><rect fill="none" height="5.4" style="stroke:#C82930;stroke-width:0.9;" width="5.4" x="392.4" y="234.7295"/><text fill="#000000" font-family="sans-serif" font-size="12.6" lengthAdjust="spacing" textLength="33.3" x="403.2" y="241.2967">brand</text><rect fill="none" height="5.4" style="stroke:#C82930;stroke-width:0.9;" width="5.4" x="392.4" y="251.4885"/><text fill="#000000" font-family="sans-serif" font-size="12.6" lengthAdjust="spacing" textLength="34.2" x="403.2" y="258.0557">model</text><line style="stroke:#181818;stroke-width:0.45;" x1="386.1" x2="476.1" y1="264.818" y2="264.818"/></g><g id="elem_GMN9"><path d="M5.4,205.65 L5.4,261.3357 A0,0 0 0 0 5.4,261.3357 L289.8,261.3357 A0,0 0 0 0 289.8,261.3357 L289.8,237.6 L384.93,234 L289.8,230.4 L289.8,214.65 L280.8,205.65 L5.4,205.65 A0,0 0 0 0 5.4,205.65 " fill="#FEFFDD" style="stroke:#181818;stroke-width:0.45;"/><path d="M280.8,205.65 L280.8,214.65 L289.8,214.65 L280.8,205.65 " fill="#FEFFDD" style="stroke:#181818;stroke-width:0.45;"/><text fill="#000000" font-family="sans-serif" font-size="11.7" lengthAdjust="spacing" textLength="176.4" x="10.8" y="222.7755">in order to fulfill the client's needs,</text><text fill="#000000" font-family="sans-serif" font-size="11.7" lengthAdjust="spacing" textLength="205.2" x="10.8" y="238.3374">currently there will be 2 types of robots:</text><text fill="#000000" font-family="sans-serif" font-size="11.7" lengthAdjust="spacing" textLength="265.5" x="10.8" y="253.8993">Robisep and Droneisep, but it can scale as needed</text></g><!--class TaskType--><g id="elem_TaskType"><rect codeLine="65" fill="#FFE4B5" height="43.2" id="TaskType" rx="2.25" ry="2.25" style="stroke:#181818;stroke-width:0.45;" width="85.5" x="716.85" y="367.65"/><ellipse cx="730.35" cy="382.05" fill="#ADD1B2" rx="9.9" ry="9.9" style="stroke:#181818;stroke-width:0.9;"/><path d="M732.8391,378.3375 Q732.9797,378.1406 733.1484,378.0422 Q733.3172,377.9438 733.5141,377.9438 Q733.8516,377.9438 734.0625,378.1828 Q734.2734,378.4078 734.2734,378.9563 L734.2734,380.2641 Q734.2734,380.8125 734.0625,381.0516 Q733.8516,381.2906 733.5141,381.2906 Q733.2047,381.2906 733.0219,381.1078 Q732.8391,380.9391 732.7406,380.475 Q732.6984,380.1516 732.5297,379.9828 Q732.2344,379.6453 731.6859,379.4484 Q731.1375,379.2516 730.575,379.2516 Q729.8859,379.2516 729.3094,379.5469 Q728.7469,379.8422 728.2969,380.5172 Q727.8609,381.1922 727.8609,382.1203 L727.8609,383.1047 Q727.8609,384.2156 728.6625,384.9609 Q729.4641,385.6922 730.8984,385.6922 Q731.7422,385.6922 732.3328,385.4672 Q732.6844,385.3266 733.0641,384.9328 Q733.3031,384.6938 733.4297,384.6234 Q733.5703,384.5531 733.7531,384.5531 Q734.0484,384.5531 734.2734,384.7922 Q734.5125,385.0172 734.5125,385.3266 Q734.5125,385.6359 734.2031,386.0016 Q733.7531,386.5219 733.0359,386.8172 Q732.0656,387.225 730.8984,387.225 Q729.5344,387.225 728.4516,386.6625 Q727.5656,386.2125 726.9469,385.2563 Q726.3281,384.2859 726.3281,383.1328 L726.3281,382.0922 Q726.3281,380.8969 726.8766,379.8703 Q727.4391,378.8297 728.4234,378.2813 Q729.4078,377.7188 730.5188,377.7188 Q731.1797,377.7188 731.7563,377.8734 Q732.3469,378.0141 732.8391,378.3375 Z " fill="#000000"/><text fill="#000000" font-family="sans-serif" font-size="12.6" lengthAdjust="spacing" textLength="56.7" x="742.95" y="387.2672">TaskType</text><line style="stroke:#181818;stroke-width:0.45;" x1="717.75" x2="801.45" y1="396.45" y2="396.45"/><line style="stroke:#181818;stroke-width:0.45;" x1="717.75" x2="801.45" y1="403.65" y2="403.65"/></g><g id="elem_GMN13"><path d="M385.65,361.35 L385.65,417.0357 A0,0 0 0 0 385.65,417.0357 L685.35,417.0357 A0,0 0 0 0 685.35,417.0357 L685.35,393.3 L716.445,389.7 L685.35,386.1 L685.35,370.35 L676.35,361.35 L385.65,361.35 A0,0 0 0 0 385.65,361.35 " fill="#FEFFDD" style="stroke:#181818;stroke-width:0.45;"/><path d="M676.35,361.35 L676.35,370.35 L685.35,370.35 L676.35,361.35 " fill="#FEFFDD" style="stroke:#181818;stroke-width:0.45;"/><text fill="#000000" font-family="sans-serif" font-size="11.7" lengthAdjust="spacing" textLength="176.4" x="391.05" y="378.4755">in order to fulfill the client's needs,</text><text fill="#000000" font-family="sans-serif" font-size="11.7" lengthAdjust="spacing" textLength="201.6" x="391.05" y="394.0374">currently there will be 2 types of tasks:</text><text fill="#000000" font-family="sans-serif" font-size="11.7" lengthAdjust="spacing" textLength="280.8" x="391.05" y="409.5993">Surveillance and deliveries, but it can scale as needed</text></g><!--class Task--><g id="elem_Task"><rect fill="#FFE4B5" height="43.2" id="Task" rx="2.25" ry="2.25" style="stroke:#181818;stroke-width:0.45;" width="56.7" x="621.45" y="514.8"/><ellipse cx="634.95" cy="529.2" fill="#ADD1B2" rx="9.9" ry="9.9" style="stroke:#181818;stroke-width:0.9;"/><path d="M637.4391,525.4875 Q637.5797,525.2906 637.7484,525.1922 Q637.9172,525.0938 638.1141,525.0938 Q638.4516,525.0938 638.6625,525.3328 Q638.8734,525.5578 638.8734,526.1063 L638.8734,527.4141 Q638.8734,527.9625 638.6625,528.2016 Q638.4516,528.4406 638.1141,528.4406 Q637.8047,528.4406 637.6219,528.2578 Q637.4391,528.0891 637.3406,527.625 Q637.2984,527.3016 637.1297,527.1328 Q636.8344,526.7953 636.2859,526.5984 Q635.7375,526.4016 635.175,526.4016 Q634.4859,526.4016 633.9094,526.6969 Q633.3469,526.9922 632.8969,527.6672 Q632.4609,528.3422 632.4609,529.2703 L632.4609,530.2547 Q632.4609,531.3656 633.2625,532.1109 Q634.0641,532.8422 635.4984,532.8422 Q636.3422,532.8422 636.9328,532.6172 Q637.2844,532.4766 637.6641,532.0828 Q637.9031,531.8438 638.0297,531.7734 Q638.1703,531.7031 638.3531,531.7031 Q638.6484,531.7031 638.8734,531.9422 Q639.1125,532.1672 639.1125,532.4766 Q639.1125,532.7859 638.8031,533.1516 Q638.3531,533.6719 637.6359,533.9672 Q636.6656,534.375 635.4984,534.375 Q634.1344,534.375 633.0516,533.8125 Q632.1656,533.3625 631.5469,532.4063 Q630.9281,531.4359 630.9281,530.2828 L630.9281,529.2422 Q630.9281,528.0469 631.4766,527.0203 Q632.0391,525.9797 633.0234,525.4313 Q634.0078,524.8688 635.1188,524.8688 Q635.7797,524.8688 636.3563,525.0234 Q636.9469,525.1641 637.4391,525.4875 Z " fill="#000000"/><text fill="#000000" font-family="sans-serif" font-size="12.6" lengthAdjust="spacing" textLength="27.9" x="647.55" y="534.4172">Task</text><line style="stroke:#181818;stroke-width:0.45;" x1="622.35" x2="677.25" y1="543.6" y2="543.6"/><line style="stroke:#181818;stroke-width:0.45;" x1="622.35" x2="677.25" y1="550.8" y2="550.8"/></g><!--link Robot to RobotType--><g id="link_Robot_RobotType"><path codeLine="70" d="M409.275,116.208 C409.275,116.208 409.275,190.638 409.275,190.638 " fill="none" id="Robot-to-RobotType" style="stroke:#2F4F4F;stroke-width:0.9;"/><polygon fill="#2F4F4F" points="409.275,195.138,412.875,187.038,409.275,190.638,405.675,187.038,409.275,195.138" style="stroke:#2F4F4F;stroke-width:0.9;"/><text fill="#000000" font-family="sans-serif" font-size="11.7" lengthAdjust="spacing" textLength="4.5" x="407.5446" y="136.4593">*</text><text fill="#000000" font-family="sans-serif" font-size="11.7" lengthAdjust="spacing" textLength="6.3" x="398.9946" y="185.1259">1</text></g><!--link RobotType to TaskType--><g id="link_RobotType_TaskType"><path codeLine="72" d="M477.126,234 C567.531,234 759.6,234 759.6,234 C759.6,234 759.6,362.835 759.6,362.835 " fill="none" id="RobotType-to-TaskType" style="stroke:#2F4F4F;stroke-width:0.9;"/><polygon fill="#2F4F4F" points="759.6,367.335,763.2,359.235,759.6,362.835,756,359.235,759.6,367.335" style="stroke:#2F4F4F;stroke-width:0.9;"/><text fill="#000000" font-family="sans-serif" font-size="11.7" lengthAdjust="spacing" textLength="63.9" x="617.976" y="230.4255">can execute</text><text fill="#000000" font-family="sans-serif" font-size="11.7" lengthAdjust="spacing" textLength="18" x="739.4063" y="357.4859">1..*</text></g><!--reverse link Robot to Task--><g id="link_Robot_Task"><path codeLine="73" d="M360.225,120.672 C360.225,120.672 360.225,536.4 360.225,536.4 C360.225,536.4 548.19,536.4 621.243,536.4 " fill="none" id="Robot-backto-Task" style="stroke:#2F4F4F;stroke-width:0.9;"/><polygon fill="#2F4F4F" points="360.225,116.172,356.625,124.272,360.225,120.672,363.825,124.272,360.225,116.172" style="stroke:#2F4F4F;stroke-width:0.9;"/><text fill="#000000" font-family="sans-serif" font-size="11.7" lengthAdjust="spacing" textLength="63.9" x="295.425" y="455.4705">executed by</text><text fill="#000000" font-family="sans-serif" font-size="11.7" lengthAdjust="spacing" textLength="6.3" x="350.607" y="136.4189">1</text></g><!--reverse link TaskType to Task--><g id="link_TaskType_Task"><path codeLine="74" d="M759.6,415.458 C759.6,415.458 759.6,536.4 759.6,536.4 C759.6,536.4 710.892,536.4 678.366,536.4 " fill="none" id="TaskType-backto-Task" style="stroke:#2F4F4F;stroke-width:0.9;"/><polygon fill="#2F4F4F" points="759.6,410.958,756.0232,419.0683,759.6129,415.458,763.2231,419.0477,759.6,410.958" style="stroke:#2F4F4F;stroke-width:0.9;"/><text fill="#000000" font-family="sans-serif" font-size="11.7" lengthAdjust="spacing" textLength="4.5" x="685.4922" y="531.9867">*</text></g><!--link Building to Floor--><g id="link_Building_Floor"><path codeLine="78" d="M962.1,297.135 C962.1,327.114 962.1,356.4 962.1,356.4 C962.1,356.4 1003.68,356.4 1003.68,356.4 " fill="none" id="Building-to-Floor" style="stroke:#2F4F4F;stroke-width:0.9;"/><polygon fill="#2F4F4F" points="1008.18,356.4,1000.08,352.8,1003.68,356.4,1000.08,360,1008.18,356.4" style="stroke:#2F4F4F;stroke-width:0.9;"/><text fill="#000000" font-family="sans-serif" font-size="11.7" lengthAdjust="spacing" textLength="6.3" x="955.4752" y="317.1152">1</text><text fill="#000000" font-family="sans-serif" font-size="11.7" lengthAdjust="spacing" textLength="18" x="983.4013" y="348.7922">1..*</text></g><!--reverse link Floor to Elevator--><g id="link_Floor_Elevator"><path codeLine="79" d="M1003.923,423 C1003.923,423 983.475,423 983.475,423 C983.475,423 983.475,452.466 983.475,481.365 " fill="none" id="Floor-backto-Elevator" style="stroke:#2F4F4F;stroke-width:0.9;"/><polygon fill="#2F4F4F" points="1008.423,423,1000.323,419.4,1003.923,423,1000.323,426.6,1008.423,423" style="stroke:#2F4F4F;stroke-width:0.9;"/><text fill="#000000" font-family="sans-serif" font-size="11.7" lengthAdjust="spacing" textLength="4.5" x="996.7809" y="424.1622">*</text><text fill="#000000" font-family="sans-serif" font-size="11.7" lengthAdjust="spacing" textLength="6.3" x="979.4904" y="471.4325">1</text></g><!--reverse link Building to Elevator--><g id="link_Building_Elevator"><path codeLine="80" d="M940.725,301.536 C940.725,301.536 940.725,481.383 940.725,481.383 " fill="none" id="Building-backto-Elevator" style="stroke:#2F4F4F;stroke-width:0.9;"/><polygon fill="#2F4F4F" points="940.725,297.036,937.125,305.136,940.725,301.536,944.325,305.136,940.725,297.036" style="stroke:#2F4F4F;stroke-width:0.9;"/><text fill="#000000" font-family="sans-serif" font-size="11.7" lengthAdjust="spacing" textLength="6.3" x="931.8959" y="317.006">1</text></g><!--link Passage to Floor--><g id="link_Passage_Floor"><path codeLine="81" d="M1054.8,82.98 C1054.8,82.98 1054.8,346.383 1054.8,346.383 " fill="none" id="Passage-to-Floor" style="stroke:#2F4F4F;stroke-width:0.9;"/><polygon fill="#2F4F4F" points="1054.8,350.883,1058.4,342.783,1054.8,346.383,1051.2,342.783,1054.8,350.883" style="stroke:#2F4F4F;stroke-width:0.9;"/><text fill="#000000" font-family="sans-serif" font-size="11.7" lengthAdjust="spacing" textLength="47.7" x="1006.2" y="211.1115">connects</text><text fill="#000000" font-family="sans-serif" font-size="11.7" lengthAdjust="spacing" textLength="6.3" x="1047.7716" y="102.4415">1</text><text fill="#000000" font-family="sans-serif" font-size="11.7" lengthAdjust="spacing" textLength="6.3" x="1047.998" y="340.878">2</text></g><!--link Floor to Room--><g id="link_Floor_Room"><path codeLine="82" d="M1055.25,427.788 C1055.25,427.788 1055.25,640.773 1055.25,640.773 " fill="none" id="Floor-to-Room" style="stroke:#2F4F4F;stroke-width:0.9;"/><polygon fill="#2F4F4F" points="1055.25,645.273,1058.85,637.173,1055.25,640.773,1051.65,637.173,1055.25,645.273" style="stroke:#2F4F4F;stroke-width:0.9;"/><text fill="#000000" font-family="sans-serif" font-size="11.7" lengthAdjust="spacing" textLength="6.3" x="1048.5366" y="447.4894">1</text><text fill="#000000" font-family="sans-serif" font-size="11.7" lengthAdjust="spacing" textLength="18" x="1036.0898" y="635.2721">0..*</text></g><!--SRC=[jLLDRnen4BtlhnXnGQf2rEQ8eaWBR2WgNsAHUid5x0xWuhMfxOLGbF_UiNSXfg5fU-WUa3tpviqRZyUO3PTRfba1WakqXos2qdQj8dDsf6kMgpsNAtXamc0Kk3B1Z85Z1FHrMBPPQLNAlAk4qlVt3mymKbd639VN0JicIagt-8QP9N3yezHu7PdiK3h827DU5l7taesO9htNqIdg7S-GyEdcqA4S7XPhhVOU0JscDwbW5liQ3z5BMD6MoDWAhzS4KxNFKPyfQ_2G7LHfOQLv7feff2matBa4pU6W7tSdIGgzP3oVJQ0tWRW_I_enBHu7tNWKEAPnzqlSJu8WvqhE0MaTCNQXutW85SVdPE3Ya-baG6a8LVEaaLTLzQfJSf5JBwlwtDU2JEKOR2KhmcsE9jDyQxcIWRLWpqEKAxk-j7tbUMrw2P8c0dVCAdty8-r2Cvc7b2HD17k3cZCnBei5wZfDaETHgCiaIsS8qDTJNt1CwOUQTupUkcPA5ST_FIXDGLswQYkb3o6O5oWDGKrWt2h3GrKNkHVAljSqdct6bthUdDNlglybovmUWUDVzQGAbSeY25pQDd19hmTD25W5or8ikH1WrqZid0QuQK0YvkRcIMQbrcGH1-VM27k7N23SWNk23AWb7HnfCUqdIQAumIsG2kXf9T7jRc118ySjP4o2oPX0O1Kzva51SsOsh_NyLxsMKZcvQQbtI6ucC_IQwRJuZdg1vbtHNbjpDkbCvgbV-sP0uqC3Mgq7Q7nglBOdUWMuRGsulINigUAsJuBFc9KMGpxYkM-rFAvzykUmg2xdATf36ZLTVH6RfxUZkhAddMSC1FWXz0Y_yYoUZM2dX-0jWKDSUEivhDaT_LtD3LIQafB-D4oOvepxw6MuOJtFy4y0]--></g></svg>