<?xml version="1.0" encoding="us-ascii" standalone="no"?><svg xmlns="http://www.w3.org/2000/svg" xmlns:xlink="http://www.w3.org/1999/xlink" contentStyleType="text/css" height="884px" preserveAspectRatio="none" style="width:1534px;height:884px;background:#FFFFFF;" version="1.1" viewBox="0 0 1534 884" width="1534px" zoomAndPan="magnify"><defs/><g><!--class Building--><g id="elem_Building"><rect codeLine="22" fill="#FFE4B5" height="141.1055" id="Building" rx="2.5" ry="2.5" style="stroke:#181818;stroke-width:0.5;" width="95" x="1021.5" y="208"/><ellipse cx="1042.35" cy="224" fill="#ADD1B2" rx="11" ry="11" style="stroke:#181818;stroke-width:1.0;"/><path d="M1045.1156,219.875 Q1045.2719,219.6563 1045.4594,219.5469 Q1045.6469,219.4375 1045.8656,219.4375 Q1046.2406,219.4375 1046.475,219.7031 Q1046.7094,219.9531 1046.7094,220.5625 L1046.7094,222.0156 Q1046.7094,222.625 1046.475,222.8906 Q1046.2406,223.1563 1045.8656,223.1563 Q1045.5219,223.1563 1045.3188,222.9531 Q1045.1156,222.7656 1045.0063,222.25 Q1044.9594,221.8906 1044.7719,221.7031 Q1044.4438,221.3281 1043.8344,221.1094 Q1043.225,220.8906 1042.6,220.8906 Q1041.8344,220.8906 1041.1938,221.2188 Q1040.5688,221.5469 1040.0688,222.2969 Q1039.5844,223.0469 1039.5844,224.0781 L1039.5844,225.1719 Q1039.5844,226.4063 1040.475,227.2344 Q1041.3656,228.0469 1042.9594,228.0469 Q1043.8969,228.0469 1044.5531,227.7969 Q1044.9438,227.6406 1045.3656,227.2031 Q1045.6313,226.9375 1045.7719,226.8594 Q1045.9281,226.7813 1046.1313,226.7813 Q1046.4594,226.7813 1046.7094,227.0469 Q1046.975,227.2969 1046.975,227.6406 Q1046.975,227.9844 1046.6313,228.3906 Q1046.1313,228.9688 1045.3344,229.2969 Q1044.2563,229.75 1042.9594,229.75 Q1041.4438,229.75 1040.2406,229.125 Q1039.2563,228.625 1038.5688,227.5625 Q1037.8813,226.4844 1037.8813,225.2031 L1037.8813,224.0469 Q1037.8813,222.7188 1038.4906,221.5781 Q1039.1156,220.4219 1040.2094,219.8125 Q1041.3031,219.1875 1042.5375,219.1875 Q1043.2719,219.1875 1043.9125,219.3594 Q1044.5688,219.5156 1045.1156,219.875 Z " fill="#000000"/><text fill="#000000" font-family="sans-serif" font-size="14" lengthAdjust="spacing" textLength="50" x="1057.65" y="229.7969">Building</text><line style="stroke:#181818;stroke-width:0.5;" x1="1022.5" x2="1115.5" y1="240" y2="240"/><rect fill="none" height="6" style="stroke:#C82930;stroke-width:1.0;" width="6" x="1029.5" y="251.8105"/><text fill="#000000" font-family="sans-serif" font-size="14" lengthAdjust="spacing" textLength="31" x="1041.5" y="259.1074">code</text><rect fill="none" height="6" style="stroke:#C82930;stroke-width:1.0;" width="6" x="1029.5" y="270.4316"/><text fill="#000000" font-family="sans-serif" font-size="14" lengthAdjust="spacing" textLength="35" x="1041.5" y="277.7285">name</text><rect fill="none" height="6" style="stroke:#C82930;stroke-width:1.0;" width="6" x="1029.5" y="289.0527"/><text fill="#000000" font-family="sans-serif" font-size="14" lengthAdjust="spacing" textLength="69" x="1041.5" y="296.3496">description</text><rect fill="none" height="6" style="stroke:#C82930;stroke-width:1.0;" width="6" x="1029.5" y="307.6738"/><text fill="#000000" font-family="sans-serif" font-size="14" lengthAdjust="spacing" textLength="69" x="1041.5" y="314.9707">maxLength</text><rect fill="none" height="6" style="stroke:#C82930;stroke-width:1.0;" width="6" x="1029.5" y="326.2949"/><text fill="#000000" font-family="sans-serif" font-size="14" lengthAdjust="spacing" textLength="61" x="1041.5" y="333.5918">maxWidth</text><line style="stroke:#181818;stroke-width:0.5;" x1="1022.5" x2="1115.5" y1="341.1055" y2="341.1055"/></g><!--class Elevator--><g id="elem_Elevator"><rect codeLine="29" fill="#FFE4B5" height="122.4844" id="Elevator" rx="2.5" ry="2.5" style="stroke:#181818;stroke-width:0.5;" width="109" x="1012.5" y="554"/><ellipse cx="1038.75" cy="570" fill="#ADD1B2" rx="11" ry="11" style="stroke:#181818;stroke-width:1.0;"/><path d="M1041.5156,565.875 Q1041.6719,565.6563 1041.8594,565.5469 Q1042.0469,565.4375 1042.2656,565.4375 Q1042.6406,565.4375 1042.875,565.7031 Q1043.1094,565.9531 1043.1094,566.5625 L1043.1094,568.0156 Q1043.1094,568.625 1042.875,568.8906 Q1042.6406,569.1563 1042.2656,569.1563 Q1041.9219,569.1563 1041.7188,568.9531 Q1041.5156,568.7656 1041.4063,568.25 Q1041.3594,567.8906 1041.1719,567.7031 Q1040.8438,567.3281 1040.2344,567.1094 Q1039.625,566.8906 1039,566.8906 Q1038.2344,566.8906 1037.5938,567.2188 Q1036.9688,567.5469 1036.4688,568.2969 Q1035.9844,569.0469 1035.9844,570.0781 L1035.9844,571.1719 Q1035.9844,572.4063 1036.875,573.2344 Q1037.7656,574.0469 1039.3594,574.0469 Q1040.2969,574.0469 1040.9531,573.7969 Q1041.3438,573.6406 1041.7656,573.2031 Q1042.0313,572.9375 1042.1719,572.8594 Q1042.3281,572.7813 1042.5313,572.7813 Q1042.8594,572.7813 1043.1094,573.0469 Q1043.375,573.2969 1043.375,573.6406 Q1043.375,573.9844 1043.0313,574.3906 Q1042.5313,574.9688 1041.7344,575.2969 Q1040.6563,575.75 1039.3594,575.75 Q1037.8438,575.75 1036.6406,575.125 Q1035.6563,574.625 1034.9688,573.5625 Q1034.2813,572.4844 1034.2813,571.2031 L1034.2813,570.0469 Q1034.2813,568.7188 1034.8906,567.5781 Q1035.5156,566.4219 1036.6094,565.8125 Q1037.7031,565.1875 1038.9375,565.1875 Q1039.6719,565.1875 1040.3125,565.3594 Q1040.9688,565.5156 1041.5156,565.875 Z " fill="#000000"/><text fill="#000000" font-family="sans-serif" font-size="14" lengthAdjust="spacing" textLength="52" x="1055.25" y="575.7969">Elevator</text><line style="stroke:#181818;stroke-width:0.5;" x1="1013.5" x2="1120.5" y1="586" y2="586"/><rect fill="none" height="6" style="stroke:#C82930;stroke-width:1.0;" width="6" x="1020.5" y="597.8105"/><text fill="#000000" font-family="sans-serif" font-size="14" lengthAdjust="spacing" textLength="69" x="1032.5" y="605.1074">description</text><rect fill="none" height="6" style="stroke:#C82930;stroke-width:1.0;" width="6" x="1020.5" y="616.4316"/><text fill="#000000" font-family="sans-serif" font-size="14" lengthAdjust="spacing" textLength="37" x="1032.5" y="623.7285">brand</text><rect fill="none" height="6" style="stroke:#C82930;stroke-width:1.0;" width="6" x="1020.5" y="635.0527"/><text fill="#000000" font-family="sans-serif" font-size="14" lengthAdjust="spacing" textLength="38" x="1032.5" y="642.3496">model</text><rect fill="none" height="6" style="stroke:#C82930;stroke-width:1.0;" width="6" x="1020.5" y="653.6738"/><text fill="#000000" font-family="sans-serif" font-size="14" lengthAdjust="spacing" textLength="83" x="1032.5" y="660.9707">serialNumber</text><line style="stroke:#181818;stroke-width:0.5;" x1="1013.5" x2="1120.5" y1="668.4844" y2="668.4844"/></g><!--class Floor--><g id="elem_Floor"><rect codeLine="36" fill="#FFE4B5" height="85.2422" id="Floor" rx="2.5" ry="2.5" style="stroke:#181818;stroke-width:0.5;" width="103" x="1120.5" y="409"/><ellipse cx="1152.6" cy="425" fill="#ADD1B2" rx="11" ry="11" style="stroke:#181818;stroke-width:1.0;"/><path d="M1155.3656,420.875 Q1155.5219,420.6563 1155.7094,420.5469 Q1155.8969,420.4375 1156.1156,420.4375 Q1156.4906,420.4375 1156.725,420.7031 Q1156.9594,420.9531 1156.9594,421.5625 L1156.9594,423.0156 Q1156.9594,423.625 1156.725,423.8906 Q1156.4906,424.1563 1156.1156,424.1563 Q1155.7719,424.1563 1155.5688,423.9531 Q1155.3656,423.7656 1155.2563,423.25 Q1155.2094,422.8906 1155.0219,422.7031 Q1154.6938,422.3281 1154.0844,422.1094 Q1153.475,421.8906 1152.85,421.8906 Q1152.0844,421.8906 1151.4438,422.2188 Q1150.8188,422.5469 1150.3188,423.2969 Q1149.8344,424.0469 1149.8344,425.0781 L1149.8344,426.1719 Q1149.8344,427.4063 1150.725,428.2344 Q1151.6156,429.0469 1153.2094,429.0469 Q1154.1469,429.0469 1154.8031,428.7969 Q1155.1938,428.6406 1155.6156,428.2031 Q1155.8813,427.9375 1156.0219,427.8594 Q1156.1781,427.7813 1156.3813,427.7813 Q1156.7094,427.7813 1156.9594,428.0469 Q1157.225,428.2969 1157.225,428.6406 Q1157.225,428.9844 1156.8813,429.3906 Q1156.3813,429.9688 1155.5844,430.2969 Q1154.5063,430.75 1153.2094,430.75 Q1151.6938,430.75 1150.4906,430.125 Q1149.5063,429.625 1148.8188,428.5625 Q1148.1313,427.4844 1148.1313,426.2031 L1148.1313,425.0469 Q1148.1313,423.7188 1148.7406,422.5781 Q1149.3656,421.4219 1150.4594,420.8125 Q1151.5531,420.1875 1152.7875,420.1875 Q1153.5219,420.1875 1154.1625,420.3594 Q1154.8188,420.5156 1155.3656,420.875 Z " fill="#000000"/><text fill="#000000" font-family="sans-serif" font-size="14" lengthAdjust="spacing" textLength="33" x="1170.4" y="430.7969">Floor</text><line style="stroke:#181818;stroke-width:0.5;" x1="1121.5" x2="1222.5" y1="441" y2="441"/><rect fill="none" height="6" style="stroke:#C82930;stroke-width:1.0;" width="6" x="1128.5" y="452.8105"/><text fill="#000000" font-family="sans-serif" font-size="14" lengthAdjust="spacing" textLength="77" x="1140.5" y="460.1074">floorNumber</text><rect fill="none" height="6" style="stroke:#C82930;stroke-width:1.0;" width="6" x="1128.5" y="471.4316"/><text fill="#000000" font-family="sans-serif" font-size="14" lengthAdjust="spacing" textLength="69" x="1140.5" y="478.7285">description</text><line style="stroke:#181818;stroke-width:0.5;" x1="1121.5" x2="1222.5" y1="486.2422" y2="486.2422"/></g><!--class Passage--><g id="elem_Passage"><rect codeLine="41" fill="#FFE4B5" height="48" id="Passage" rx="2.5" ry="2.5" style="stroke:#181818;stroke-width:0.5;" width="87" x="1128.5" y="53.5"/><ellipse cx="1143.5" cy="69.5" fill="#ADD1B2" rx="11" ry="11" style="stroke:#181818;stroke-width:1.0;"/><path d="M1146.2656,65.375 Q1146.4219,65.1563 1146.6094,65.0469 Q1146.7969,64.9375 1147.0156,64.9375 Q1147.3906,64.9375 1147.625,65.2031 Q1147.8594,65.4531 1147.8594,66.0625 L1147.8594,67.5156 Q1147.8594,68.125 1147.625,68.3906 Q1147.3906,68.6563 1147.0156,68.6563 Q1146.6719,68.6563 1146.4688,68.4531 Q1146.2656,68.2656 1146.1563,67.75 Q1146.1094,67.3906 1145.9219,67.2031 Q1145.5938,66.8281 1144.9844,66.6094 Q1144.375,66.3906 1143.75,66.3906 Q1142.9844,66.3906 1142.3438,66.7188 Q1141.7188,67.0469 1141.2188,67.7969 Q1140.7344,68.5469 1140.7344,69.5781 L1140.7344,70.6719 Q1140.7344,71.9063 1141.625,72.7344 Q1142.5156,73.5469 1144.1094,73.5469 Q1145.0469,73.5469 1145.7031,73.2969 Q1146.0938,73.1406 1146.5156,72.7031 Q1146.7813,72.4375 1146.9219,72.3594 Q1147.0781,72.2813 1147.2813,72.2813 Q1147.6094,72.2813 1147.8594,72.5469 Q1148.125,72.7969 1148.125,73.1406 Q1148.125,73.4844 1147.7813,73.8906 Q1147.2813,74.4688 1146.4844,74.7969 Q1145.4063,75.25 1144.1094,75.25 Q1142.5938,75.25 1141.3906,74.625 Q1140.4063,74.125 1139.7188,73.0625 Q1139.0313,71.9844 1139.0313,70.7031 L1139.0313,69.5469 Q1139.0313,68.2188 1139.6406,67.0781 Q1140.2656,65.9219 1141.3594,65.3125 Q1142.4531,64.6875 1143.6875,64.6875 Q1144.4219,64.6875 1145.0625,64.8594 Q1145.7188,65.0156 1146.2656,65.375 Z " fill="#000000"/><text fill="#000000" font-family="sans-serif" font-size="14" lengthAdjust="spacing" textLength="55" x="1157.5" y="75.2969">Passage</text><line style="stroke:#181818;stroke-width:0.5;" x1="1129.5" x2="1214.5" y1="85.5" y2="85.5"/><line style="stroke:#181818;stroke-width:0.5;" x1="1129.5" x2="1214.5" y1="93.5" y2="93.5"/></g><!--class Room--><g id="elem_Room"><rect codeLine="45" fill="#FFE4B5" height="141.1055" id="Room" rx="2.5" ry="2.5" style="stroke:#181818;stroke-width:0.5;" width="116" x="1117" y="736"/><ellipse cx="1153.15" cy="752" fill="#ADD1B2" rx="11" ry="11" style="stroke:#181818;stroke-width:1.0;"/><path d="M1155.9156,747.875 Q1156.0719,747.6563 1156.2594,747.5469 Q1156.4469,747.4375 1156.6656,747.4375 Q1157.0406,747.4375 1157.275,747.7031 Q1157.5094,747.9531 1157.5094,748.5625 L1157.5094,750.0156 Q1157.5094,750.625 1157.275,750.8906 Q1157.0406,751.1563 1156.6656,751.1563 Q1156.3219,751.1563 1156.1188,750.9531 Q1155.9156,750.7656 1155.8063,750.25 Q1155.7594,749.8906 1155.5719,749.7031 Q1155.2438,749.3281 1154.6344,749.1094 Q1154.025,748.8906 1153.4,748.8906 Q1152.6344,748.8906 1151.9938,749.2188 Q1151.3688,749.5469 1150.8688,750.2969 Q1150.3844,751.0469 1150.3844,752.0781 L1150.3844,753.1719 Q1150.3844,754.4063 1151.275,755.2344 Q1152.1656,756.0469 1153.7594,756.0469 Q1154.6969,756.0469 1155.3531,755.7969 Q1155.7438,755.6406 1156.1656,755.2031 Q1156.4313,754.9375 1156.5719,754.8594 Q1156.7281,754.7813 1156.9313,754.7813 Q1157.2594,754.7813 1157.5094,755.0469 Q1157.775,755.2969 1157.775,755.6406 Q1157.775,755.9844 1157.4313,756.3906 Q1156.9313,756.9688 1156.1344,757.2969 Q1155.0563,757.75 1153.7594,757.75 Q1152.2438,757.75 1151.0406,757.125 Q1150.0563,756.625 1149.3688,755.5625 Q1148.6813,754.4844 1148.6813,753.2031 L1148.6813,752.0469 Q1148.6813,750.7188 1149.2906,749.5781 Q1149.9156,748.4219 1151.0094,747.8125 Q1152.1031,747.1875 1153.3375,747.1875 Q1154.0719,747.1875 1154.7125,747.3594 Q1155.3688,747.5156 1155.9156,747.875 Z " fill="#000000"/><text fill="#000000" font-family="sans-serif" font-size="14" lengthAdjust="spacing" textLength="37" x="1171.85" y="757.7969">Room</text><line style="stroke:#181818;stroke-width:0.5;" x1="1118" x2="1232" y1="768" y2="768"/><rect fill="none" height="6" style="stroke:#C82930;stroke-width:1.0;" width="6" x="1125" y="779.8105"/><text fill="#000000" font-family="sans-serif" font-size="14" lengthAdjust="spacing" textLength="35" x="1137" y="787.1074">name</text><rect fill="none" height="6" style="stroke:#C82930;stroke-width:1.0;" width="6" x="1125" y="798.4316"/><text fill="#000000" font-family="sans-serif" font-size="14" lengthAdjust="spacing" textLength="69" x="1137" y="805.7285">description</text><rect fill="none" height="6" style="stroke:#C82930;stroke-width:1.0;" width="6" x="1125" y="817.0527"/><text fill="#000000" font-family="sans-serif" font-size="14" lengthAdjust="spacing" textLength="90" x="1137" y="824.3496">roomCategory</text><rect fill="none" height="6" style="stroke:#C82930;stroke-width:1.0;" width="6" x="1125" y="835.6738"/><text fill="#000000" font-family="sans-serif" font-size="14" lengthAdjust="spacing" textLength="71" x="1137" y="842.9707">dimensions</text><rect fill="none" height="6" style="stroke:#C82930;stroke-width:1.0;" width="6" x="1125" y="854.2949"/><text fill="#000000" font-family="sans-serif" font-size="14" lengthAdjust="spacing" textLength="49" x="1137" y="861.5918">position</text><line style="stroke:#181818;stroke-width:0.5;" x1="1118" x2="1232" y1="869.1055" y2="869.1055"/></g><!--class Robot--><g id="elem_Robot"><rect codeLine="54" fill="#FFE4B5" height="122.4844" id="Robot" rx="2.5" ry="2.5" style="stroke:#181818;stroke-width:0.5;" width="109" x="372.5" y="16.5"/><ellipse cx="405.05" cy="32.5" fill="#ADD1B2" rx="11" ry="11" style="stroke:#181818;stroke-width:1.0;"/><path d="M407.8156,28.375 Q407.9719,28.1563 408.1594,28.0469 Q408.3469,27.9375 408.5656,27.9375 Q408.9406,27.9375 409.175,28.2031 Q409.4094,28.4531 409.4094,29.0625 L409.4094,30.5156 Q409.4094,31.125 409.175,31.3906 Q408.9406,31.6563 408.5656,31.6563 Q408.2219,31.6563 408.0188,31.4531 Q407.8156,31.2656 407.7063,30.75 Q407.6594,30.3906 407.4719,30.2031 Q407.1438,29.8281 406.5344,29.6094 Q405.925,29.3906 405.3,29.3906 Q404.5344,29.3906 403.8938,29.7188 Q403.2688,30.0469 402.7688,30.7969 Q402.2844,31.5469 402.2844,32.5781 L402.2844,33.6719 Q402.2844,34.9063 403.175,35.7344 Q404.0656,36.5469 405.6594,36.5469 Q406.5969,36.5469 407.2531,36.2969 Q407.6438,36.1406 408.0656,35.7031 Q408.3313,35.4375 408.4719,35.3594 Q408.6281,35.2813 408.8313,35.2813 Q409.1594,35.2813 409.4094,35.5469 Q409.675,35.7969 409.675,36.1406 Q409.675,36.4844 409.3313,36.8906 Q408.8313,37.4688 408.0344,37.7969 Q406.9563,38.25 405.6594,38.25 Q404.1438,38.25 402.9406,37.625 Q401.9563,37.125 401.2688,36.0625 Q400.5813,34.9844 400.5813,33.7031 L400.5813,32.5469 Q400.5813,31.2188 401.1906,30.0781 Q401.8156,28.9219 402.9094,28.3125 Q404.0031,27.6875 405.2375,27.6875 Q405.9719,27.6875 406.6125,27.8594 Q407.2688,28.0156 407.8156,28.375 Z " fill="#000000"/><text fill="#000000" font-family="sans-serif" font-size="14" lengthAdjust="spacing" textLength="38" x="422.95" y="38.2969">Robot</text><line style="stroke:#181818;stroke-width:0.5;" x1="373.5" x2="480.5" y1="48.5" y2="48.5"/><rect fill="none" height="6" style="stroke:#C82930;stroke-width:1.0;" width="6" x="380.5" y="60.3105"/><text fill="#000000" font-family="sans-serif" font-size="14" lengthAdjust="spacing" textLength="31" x="392.5" y="67.6074">code</text><rect fill="none" height="6" style="stroke:#C82930;stroke-width:1.0;" width="6" x="380.5" y="78.9316"/><text fill="#000000" font-family="sans-serif" font-size="14" lengthAdjust="spacing" textLength="61" x="392.5" y="86.2285">nickName</text><rect fill="none" height="6" style="stroke:#C82930;stroke-width:1.0;" width="6" x="380.5" y="97.5527"/><text fill="#000000" font-family="sans-serif" font-size="14" lengthAdjust="spacing" textLength="83" x="392.5" y="104.8496">serialNumber</text><rect fill="none" height="6" style="stroke:#C82930;stroke-width:1.0;" width="6" x="380.5" y="116.1738"/><text fill="#000000" font-family="sans-serif" font-size="14" lengthAdjust="spacing" textLength="69" x="392.5" y="123.4707">description</text><line style="stroke:#181818;stroke-width:0.5;" x1="373.5" x2="480.5" y1="130.9844" y2="130.9844"/></g><!--class RobotType--><g id="elem_RobotType"><rect codeLine="60" fill="#FFE4B5" height="85.2422" id="RobotType" rx="2.5" ry="2.5" style="stroke:#181818;stroke-width:0.5;" width="102" x="428" y="236"/><ellipse cx="443" cy="252" fill="#ADD1B2" rx="11" ry="11" style="stroke:#181818;stroke-width:1.0;"/><path d="M445.7656,247.875 Q445.9219,247.6563 446.1094,247.5469 Q446.2969,247.4375 446.5156,247.4375 Q446.8906,247.4375 447.125,247.7031 Q447.3594,247.9531 447.3594,248.5625 L447.3594,250.0156 Q447.3594,250.625 447.125,250.8906 Q446.8906,251.1563 446.5156,251.1563 Q446.1719,251.1563 445.9688,250.9531 Q445.7656,250.7656 445.6563,250.25 Q445.6094,249.8906 445.4219,249.7031 Q445.0938,249.3281 444.4844,249.1094 Q443.875,248.8906 443.25,248.8906 Q442.4844,248.8906 441.8438,249.2188 Q441.2188,249.5469 440.7188,250.2969 Q440.2344,251.0469 440.2344,252.0781 L440.2344,253.1719 Q440.2344,254.4063 441.125,255.2344 Q442.0156,256.0469 443.6094,256.0469 Q444.5469,256.0469 445.2031,255.7969 Q445.5938,255.6406 446.0156,255.2031 Q446.2813,254.9375 446.4219,254.8594 Q446.5781,254.7813 446.7813,254.7813 Q447.1094,254.7813 447.3594,255.0469 Q447.625,255.2969 447.625,255.6406 Q447.625,255.9844 447.2813,256.3906 Q446.7813,256.9688 445.9844,257.2969 Q444.9063,257.75 443.6094,257.75 Q442.0938,257.75 440.8906,257.125 Q439.9063,256.625 439.2188,255.5625 Q438.5313,254.4844 438.5313,253.2031 L438.5313,252.0469 Q438.5313,250.7188 439.1406,249.5781 Q439.7656,248.4219 440.8594,247.8125 Q441.9531,247.1875 443.1875,247.1875 Q443.9219,247.1875 444.5625,247.3594 Q445.2188,247.5156 445.7656,247.875 Z " fill="#000000"/><text fill="#000000" font-family="sans-serif" font-size="14" lengthAdjust="spacing" textLength="70" x="457" y="257.7969">RobotType</text><line style="stroke:#181818;stroke-width:0.5;" x1="429" x2="529" y1="268" y2="268"/><rect fill="none" height="6" style="stroke:#C82930;stroke-width:1.0;" width="6" x="436" y="279.8105"/><text fill="#000000" font-family="sans-serif" font-size="14" lengthAdjust="spacing" textLength="37" x="448" y="287.1074">brand</text><rect fill="none" height="6" style="stroke:#C82930;stroke-width:1.0;" width="6" x="436" y="298.4316"/><text fill="#000000" font-family="sans-serif" font-size="14" lengthAdjust="spacing" textLength="38" x="448" y="305.7285">model</text><line style="stroke:#181818;stroke-width:0.5;" x1="429" x2="529" y1="313.2422" y2="313.2422"/></g><g id="elem_GMN9"><path d="M6,247.5 L6,309.373 A0,0 0 0 0 6,309.373 L322,309.373 A0,0 0 0 0 322,309.373 L322,283 L427.7,279 L322,275 L322,257.5 L312,247.5 L6,247.5 A0,0 0 0 0 6,247.5 " fill="#FEFFDD" style="stroke:#181818;stroke-width:0.5;"/><path d="M312,247.5 L312,257.5 L322,257.5 L312,247.5 " fill="#FEFFDD" style="stroke:#181818;stroke-width:0.5;"/><text fill="#000000" font-family="sans-serif" font-size="13" lengthAdjust="spacing" textLength="196" x="12" y="266.5283">in order to fulfill the client's needs,</text><text fill="#000000" font-family="sans-serif" font-size="13" lengthAdjust="spacing" textLength="228" x="12" y="283.8193">currently there will be 2 types of robots:</text><text fill="#000000" font-family="sans-serif" font-size="13" lengthAdjust="spacing" textLength="295" x="12" y="301.1104">Robisep and Droneisep, but it can scale as needed</text></g><!--class TaskType--><g id="elem_TaskType"><rect codeLine="65" fill="#FFE4B5" height="48" id="TaskType" rx="2.5" ry="2.5" style="stroke:#181818;stroke-width:0.5;" width="95" x="796.5" y="427.5"/><ellipse cx="811.5" cy="443.5" fill="#ADD1B2" rx="11" ry="11" style="stroke:#181818;stroke-width:1.0;"/><path d="M814.2656,439.375 Q814.4219,439.1563 814.6094,439.0469 Q814.7969,438.9375 815.0156,438.9375 Q815.3906,438.9375 815.625,439.2031 Q815.8594,439.4531 815.8594,440.0625 L815.8594,441.5156 Q815.8594,442.125 815.625,442.3906 Q815.3906,442.6563 815.0156,442.6563 Q814.6719,442.6563 814.4688,442.4531 Q814.2656,442.2656 814.1563,441.75 Q814.1094,441.3906 813.9219,441.2031 Q813.5938,440.8281 812.9844,440.6094 Q812.375,440.3906 811.75,440.3906 Q810.9844,440.3906 810.3438,440.7188 Q809.7188,441.0469 809.2188,441.7969 Q808.7344,442.5469 808.7344,443.5781 L808.7344,444.6719 Q808.7344,445.9063 809.625,446.7344 Q810.5156,447.5469 812.1094,447.5469 Q813.0469,447.5469 813.7031,447.2969 Q814.0938,447.1406 814.5156,446.7031 Q814.7813,446.4375 814.9219,446.3594 Q815.0781,446.2813 815.2813,446.2813 Q815.6094,446.2813 815.8594,446.5469 Q816.125,446.7969 816.125,447.1406 Q816.125,447.4844 815.7813,447.8906 Q815.2813,448.4688 814.4844,448.7969 Q813.4063,449.25 812.1094,449.25 Q810.5938,449.25 809.3906,448.625 Q808.4063,448.125 807.7188,447.0625 Q807.0313,445.9844 807.0313,444.7031 L807.0313,443.5469 Q807.0313,442.2188 807.6406,441.0781 Q808.2656,439.9219 809.3594,439.3125 Q810.4531,438.6875 811.6875,438.6875 Q812.4219,438.6875 813.0625,438.8594 Q813.7188,439.0156 814.2656,439.375 Z " fill="#000000"/><text fill="#000000" font-family="sans-serif" font-size="14" lengthAdjust="spacing" textLength="63" x="825.5" y="449.2969">TaskType</text><line style="stroke:#181818;stroke-width:0.5;" x1="797.5" x2="890.5" y1="459.5" y2="459.5"/><line style="stroke:#181818;stroke-width:0.5;" x1="797.5" x2="890.5" y1="467.5" y2="467.5"/></g><g id="elem_GMN13"><path d="M428.5,420.5 L428.5,482.373 A0,0 0 0 0 428.5,482.373 L761.5,482.373 A0,0 0 0 0 761.5,482.373 L761.5,456 L796.05,452 L761.5,448 L761.5,430.5 L751.5,420.5 L428.5,420.5 A0,0 0 0 0 428.5,420.5 " fill="#FEFFDD" style="stroke:#181818;stroke-width:0.5;"/><path d="M751.5,420.5 L751.5,430.5 L761.5,430.5 L751.5,420.5 " fill="#FEFFDD" style="stroke:#181818;stroke-width:0.5;"/><text fill="#000000" font-family="sans-serif" font-size="13" lengthAdjust="spacing" textLength="196" x="434.5" y="439.5283">in order to fulfill the client's needs,</text><text fill="#000000" font-family="sans-serif" font-size="13" lengthAdjust="spacing" textLength="224" x="434.5" y="456.8193">currently there will be 2 types of tasks:</text><text fill="#000000" font-family="sans-serif" font-size="13" lengthAdjust="spacing" textLength="312" x="434.5" y="474.1104">Surveillance and deliveries, but it can scale as needed</text></g><!--class Role--><g id="elem_Role"><rect codeLine="70" fill="#FFE4B5" height="66.6211" id="Role" rx="2.5" ry="2.5" style="stroke:#181818;stroke-width:0.5;" width="61" x="1283.5" y="245"/><ellipse cx="1298.5" cy="261" fill="#ADD1B2" rx="11" ry="11" style="stroke:#181818;stroke-width:1.0;"/><path d="M1301.2656,256.875 Q1301.4219,256.6563 1301.6094,256.5469 Q1301.7969,256.4375 1302.0156,256.4375 Q1302.3906,256.4375 1302.625,256.7031 Q1302.8594,256.9531 1302.8594,257.5625 L1302.8594,259.0156 Q1302.8594,259.625 1302.625,259.8906 Q1302.3906,260.1563 1302.0156,260.1563 Q1301.6719,260.1563 1301.4688,259.9531 Q1301.2656,259.7656 1301.1563,259.25 Q1301.1094,258.8906 1300.9219,258.7031 Q1300.5938,258.3281 1299.9844,258.1094 Q1299.375,257.8906 1298.75,257.8906 Q1297.9844,257.8906 1297.3438,258.2188 Q1296.7188,258.5469 1296.2188,259.2969 Q1295.7344,260.0469 1295.7344,261.0781 L1295.7344,262.1719 Q1295.7344,263.4063 1296.625,264.2344 Q1297.5156,265.0469 1299.1094,265.0469 Q1300.0469,265.0469 1300.7031,264.7969 Q1301.0938,264.6406 1301.5156,264.2031 Q1301.7813,263.9375 1301.9219,263.8594 Q1302.0781,263.7813 1302.2813,263.7813 Q1302.6094,263.7813 1302.8594,264.0469 Q1303.125,264.2969 1303.125,264.6406 Q1303.125,264.9844 1302.7813,265.3906 Q1302.2813,265.9688 1301.4844,266.2969 Q1300.4063,266.75 1299.1094,266.75 Q1297.5938,266.75 1296.3906,266.125 Q1295.4063,265.625 1294.7188,264.5625 Q1294.0313,263.4844 1294.0313,262.2031 L1294.0313,261.0469 Q1294.0313,259.7188 1294.6406,258.5781 Q1295.2656,257.4219 1296.3594,256.8125 Q1297.4531,256.1875 1298.6875,256.1875 Q1299.4219,256.1875 1300.0625,256.3594 Q1300.7188,256.5156 1301.2656,256.875 Z " fill="#000000"/><text fill="#000000" font-family="sans-serif" font-size="14" lengthAdjust="spacing" textLength="29" x="1312.5" y="266.7969">Role</text><line style="stroke:#181818;stroke-width:0.5;" x1="1284.5" x2="1343.5" y1="277" y2="277"/><rect fill="none" height="6" style="stroke:#C82930;stroke-width:1.0;" width="6" x="1291.5" y="288.8105"/><text fill="#000000" font-family="sans-serif" font-size="14" lengthAdjust="spacing" textLength="35" x="1303.5" y="296.1074">name</text><line style="stroke:#181818;stroke-width:0.5;" x1="1284.5" x2="1343.5" y1="303.6211" y2="303.6211"/></g><!--class Client--><g id="elem_Client"><rect codeLine="74" fill="#FFE4B5" height="141.1055" id="Client" rx="2.5" ry="2.5" style="stroke:#181818;stroke-width:0.5;" width="115" x="1412.5" y="7"/><ellipse cx="1448.65" cy="23" fill="#ADD1B2" rx="11" ry="11" style="stroke:#181818;stroke-width:1.0;"/><path d="M1451.4156,18.875 Q1451.5719,18.6563 1451.7594,18.5469 Q1451.9469,18.4375 1452.1656,18.4375 Q1452.5406,18.4375 1452.775,18.7031 Q1453.0094,18.9531 1453.0094,19.5625 L1453.0094,21.0156 Q1453.0094,21.625 1452.775,21.8906 Q1452.5406,22.1563 1452.1656,22.1563 Q1451.8219,22.1563 1451.6188,21.9531 Q1451.4156,21.7656 1451.3063,21.25 Q1451.2594,20.8906 1451.0719,20.7031 Q1450.7438,20.3281 1450.1344,20.1094 Q1449.525,19.8906 1448.9,19.8906 Q1448.1344,19.8906 1447.4938,20.2188 Q1446.8688,20.5469 1446.3688,21.2969 Q1445.8844,22.0469 1445.8844,23.0781 L1445.8844,24.1719 Q1445.8844,25.4063 1446.775,26.2344 Q1447.6656,27.0469 1449.2594,27.0469 Q1450.1969,27.0469 1450.8531,26.7969 Q1451.2438,26.6406 1451.6656,26.2031 Q1451.9313,25.9375 1452.0719,25.8594 Q1452.2281,25.7813 1452.4313,25.7813 Q1452.7594,25.7813 1453.0094,26.0469 Q1453.275,26.2969 1453.275,26.6406 Q1453.275,26.9844 1452.9313,27.3906 Q1452.4313,27.9688 1451.6344,28.2969 Q1450.5563,28.75 1449.2594,28.75 Q1447.7438,28.75 1446.5406,28.125 Q1445.5563,27.625 1444.8688,26.5625 Q1444.1813,25.4844 1444.1813,24.2031 L1444.1813,23.0469 Q1444.1813,21.7188 1444.7906,20.5781 Q1445.4156,19.4219 1446.5094,18.8125 Q1447.6031,18.1875 1448.8375,18.1875 Q1449.5719,18.1875 1450.2125,18.3594 Q1450.8688,18.5156 1451.4156,18.875 Z " fill="#000000"/><text fill="#000000" font-family="sans-serif" font-size="14" lengthAdjust="spacing" textLength="36" x="1467.35" y="28.7969">Client</text><line style="stroke:#181818;stroke-width:0.5;" x1="1413.5" x2="1526.5" y1="39" y2="39"/><rect fill="none" height="6" style="stroke:#C82930;stroke-width:1.0;" width="6" x="1420.5" y="50.8105"/><text fill="#000000" font-family="sans-serif" font-size="14" lengthAdjust="spacing" textLength="35" x="1432.5" y="58.1074">name</text><rect fill="none" height="6" style="stroke:#C82930;stroke-width:1.0;" width="6" x="1420.5" y="69.4316"/><text fill="#000000" font-family="sans-serif" font-size="14" lengthAdjust="spacing" textLength="33" x="1432.5" y="76.7285">email</text><rect fill="none" height="6" style="stroke:#C82930;stroke-width:1.0;" width="6" x="1420.5" y="88.0527"/><text fill="#000000" font-family="sans-serif" font-size="14" lengthAdjust="spacing" textLength="89" x="1432.5" y="95.3496">phoneNumber</text><rect fill="none" height="6" style="stroke:#C82930;stroke-width:1.0;" width="6" x="1420.5" y="106.6738"/><text fill="#000000" font-family="sans-serif" font-size="14" lengthAdjust="spacing" textLength="15" x="1432.5" y="113.9707">nif</text><rect fill="none" height="6" style="stroke:#C82930;stroke-width:1.0;" width="6" x="1420.5" y="125.2949"/><text fill="#000000" font-family="sans-serif" font-size="14" lengthAdjust="spacing" textLength="38" x="1432.5" y="132.5918">status</text><line style="stroke:#181818;stroke-width:0.5;" x1="1413.5" x2="1526.5" y1="140.1055" y2="140.1055"/></g><!--class BackofficeUser--><g id="elem_BackofficeUser"><rect codeLine="82" fill="#FFE4B5" height="103.8633" id="BackofficeUser" rx="2.5" ry="2.5" style="stroke:#181818;stroke-width:0.5;" width="126" x="1251" y="25.5"/><ellipse cx="1266" cy="41.5" fill="#ADD1B2" rx="11" ry="11" style="stroke:#181818;stroke-width:1.0;"/><path d="M1268.7656,37.375 Q1268.9219,37.1563 1269.1094,37.0469 Q1269.2969,36.9375 1269.5156,36.9375 Q1269.8906,36.9375 1270.125,37.2031 Q1270.3594,37.4531 1270.3594,38.0625 L1270.3594,39.5156 Q1270.3594,40.125 1270.125,40.3906 Q1269.8906,40.6563 1269.5156,40.6563 Q1269.1719,40.6563 1268.9688,40.4531 Q1268.7656,40.2656 1268.6563,39.75 Q1268.6094,39.3906 1268.4219,39.2031 Q1268.0938,38.8281 1267.4844,38.6094 Q1266.875,38.3906 1266.25,38.3906 Q1265.4844,38.3906 1264.8438,38.7188 Q1264.2188,39.0469 1263.7188,39.7969 Q1263.2344,40.5469 1263.2344,41.5781 L1263.2344,42.6719 Q1263.2344,43.9063 1264.125,44.7344 Q1265.0156,45.5469 1266.6094,45.5469 Q1267.5469,45.5469 1268.2031,45.2969 Q1268.5938,45.1406 1269.0156,44.7031 Q1269.2813,44.4375 1269.4219,44.3594 Q1269.5781,44.2813 1269.7813,44.2813 Q1270.1094,44.2813 1270.3594,44.5469 Q1270.625,44.7969 1270.625,45.1406 Q1270.625,45.4844 1270.2813,45.8906 Q1269.7813,46.4688 1268.9844,46.7969 Q1267.9063,47.25 1266.6094,47.25 Q1265.0938,47.25 1263.8906,46.625 Q1262.9063,46.125 1262.2188,45.0625 Q1261.5313,43.9844 1261.5313,42.7031 L1261.5313,41.5469 Q1261.5313,40.2188 1262.1406,39.0781 Q1262.7656,37.9219 1263.8594,37.3125 Q1264.9531,36.6875 1266.1875,36.6875 Q1266.9219,36.6875 1267.5625,36.8594 Q1268.2188,37.0156 1268.7656,37.375 Z " fill="#000000"/><text fill="#000000" font-family="sans-serif" font-size="14" lengthAdjust="spacing" textLength="94" x="1280" y="47.2969">BackofficeUser</text><line style="stroke:#181818;stroke-width:0.5;" x1="1252" x2="1376" y1="57.5" y2="57.5"/><rect fill="none" height="6" style="stroke:#C82930;stroke-width:1.0;" width="6" x="1259" y="69.3105"/><text fill="#000000" font-family="sans-serif" font-size="14" lengthAdjust="spacing" textLength="35" x="1271" y="76.6074">name</text><rect fill="none" height="6" style="stroke:#C82930;stroke-width:1.0;" width="6" x="1259" y="87.9316"/><text fill="#000000" font-family="sans-serif" font-size="14" lengthAdjust="spacing" textLength="33" x="1271" y="95.2285">email</text><rect fill="none" height="6" style="stroke:#C82930;stroke-width:1.0;" width="6" x="1259" y="106.5527"/><text fill="#000000" font-family="sans-serif" font-size="14" lengthAdjust="spacing" textLength="89" x="1271" y="113.8496">phoneNumber</text><line style="stroke:#181818;stroke-width:0.5;" x1="1252" x2="1376" y1="121.3633" y2="121.3633"/></g><!--class Task--><g id="elem_Task"><rect fill="#FFE4B5" height="48" id="Task" rx="2.5" ry="2.5" style="stroke:#181818;stroke-width:0.5;" width="63" x="690.5" y="591"/><ellipse cx="705.5" cy="607" fill="#ADD1B2" rx="11" ry="11" style="stroke:#181818;stroke-width:1.0;"/><path d="M708.2656,602.875 Q708.4219,602.6563 708.6094,602.5469 Q708.7969,602.4375 709.0156,602.4375 Q709.3906,602.4375 709.625,602.7031 Q709.8594,602.9531 709.8594,603.5625 L709.8594,605.0156 Q709.8594,605.625 709.625,605.8906 Q709.3906,606.1563 709.0156,606.1563 Q708.6719,606.1563 708.4688,605.9531 Q708.2656,605.7656 708.1563,605.25 Q708.1094,604.8906 707.9219,604.7031 Q707.5938,604.3281 706.9844,604.1094 Q706.375,603.8906 705.75,603.8906 Q704.9844,603.8906 704.3438,604.2188 Q703.7188,604.5469 703.2188,605.2969 Q702.7344,606.0469 702.7344,607.0781 L702.7344,608.1719 Q702.7344,609.4063 703.625,610.2344 Q704.5156,611.0469 706.1094,611.0469 Q707.0469,611.0469 707.7031,610.7969 Q708.0938,610.6406 708.5156,610.2031 Q708.7813,609.9375 708.9219,609.8594 Q709.0781,609.7813 709.2813,609.7813 Q709.6094,609.7813 709.8594,610.0469 Q710.125,610.2969 710.125,610.6406 Q710.125,610.9844 709.7813,611.3906 Q709.2813,611.9688 708.4844,612.2969 Q707.4063,612.75 706.1094,612.75 Q704.5938,612.75 703.3906,612.125 Q702.4063,611.625 701.7188,610.5625 Q701.0313,609.4844 701.0313,608.2031 L701.0313,607.0469 Q701.0313,605.7188 701.6406,604.5781 Q702.2656,603.4219 703.3594,602.8125 Q704.4531,602.1875 705.6875,602.1875 Q706.4219,602.1875 707.0625,602.3594 Q707.7188,602.5156 708.2656,602.875 Z " fill="#000000"/><text fill="#000000" font-family="sans-serif" font-size="14" lengthAdjust="spacing" textLength="31" x="719.5" y="612.7969">Task</text><line style="stroke:#181818;stroke-width:0.5;" x1="691.5" x2="752.5" y1="623" y2="623"/><line style="stroke:#181818;stroke-width:0.5;" x1="691.5" x2="752.5" y1="631" y2="631"/></g><!--link Robot to RobotType--><g id="link_Robot_RobotType"><path codeLine="90" d="M454.75,138.63 C454.75,138.63 454.75,230.82 454.75,230.82 " fill="none" id="Robot-to-RobotType" style="stroke:#2F4F4F;stroke-width:1.0;"/><polygon fill="#2F4F4F" points="454.75,235.82,458.75,226.82,454.75,230.82,450.75,226.82,454.75,235.82" style="stroke:#2F4F4F;stroke-width:1.0;"/><text fill="#000000" font-family="sans-serif" font-size="13" lengthAdjust="spacing" textLength="5" x="452.8273" y="161.1327">*</text><text fill="#000000" font-family="sans-serif" font-size="13" lengthAdjust="spacing" textLength="7" x="443.3273" y="224.6954">1</text></g><!--link RobotType to TaskType--><g id="link_RobotType_TaskType"><path codeLine="92" d="M530.14,279 C630.59,279 844,279 844,279 C844,279 844,422.15 844,422.15 " fill="none" id="RobotType-to-TaskType" style="stroke:#2F4F4F;stroke-width:1.0;"/><polygon fill="#2F4F4F" points="844,427.15,848,418.15,844,422.15,840,418.15,844,427.15" style="stroke:#2F4F4F;stroke-width:1.0;"/><text fill="#000000" font-family="sans-serif" font-size="13" lengthAdjust="spacing" textLength="71" x="686.64" y="275.0283">can execute</text><text fill="#000000" font-family="sans-serif" font-size="13" lengthAdjust="spacing" textLength="20" x="821.5625" y="416.2066">1..*</text></g><!--reverse link Robot to Task--><g id="link_Robot_Task"><path codeLine="93" d="M400.25,143.63 C400.25,143.63 400.25,615 400.25,615 C400.25,615 609.1,615 690.27,615 " fill="none" id="Robot-backto-Task" style="stroke:#2F4F4F;stroke-width:1.0;"/><polygon fill="#2F4F4F" points="400.25,138.63,396.25,147.63,400.25,143.63,404.25,147.63,400.25,138.63" style="stroke:#2F4F4F;stroke-width:1.0;"/><text fill="#000000" font-family="sans-serif" font-size="13" lengthAdjust="spacing" textLength="71" x="328.25" y="520.3583">executed by</text><text fill="#000000" font-family="sans-serif" font-size="13" lengthAdjust="spacing" textLength="7" x="389.5633" y="161.1327">1</text></g><!--reverse link TaskType to Task--><g id="link_TaskType_Task"><path codeLine="94" d="M844,480.62 C844,480.62 844,615 844,615 C844,615 789.88,615 753.74,615 " fill="none" id="TaskType-backto-Task" style="stroke:#2F4F4F;stroke-width:1.0;"/><polygon fill="#2F4F4F" points="844,475.62,840.0257,484.6314,844.0143,480.62,848.0257,484.6085,844,475.62" style="stroke:#2F4F4F;stroke-width:1.0;"/><text fill="#000000" font-family="sans-serif" font-size="13" lengthAdjust="spacing" textLength="5" x="761.658" y="610.0963">*</text></g><!--link Building to Floor--><g id="link_Building_Floor"><path codeLine="98" d="M1116.78,331 C1121.45,331 1124.5,331 1124.5,331 C1124.5,331 1124.5,403.68 1124.5,403.68 " fill="none" id="Building-to-Floor" style="stroke:#2F4F4F;stroke-width:1.0;"/><polygon fill="#2F4F4F" points="1124.5,408.68,1128.5,399.68,1124.5,403.68,1120.5,399.68,1124.5,408.68" style="stroke:#2F4F4F;stroke-width:1.0;"/><text fill="#000000" font-family="sans-serif" font-size="13" lengthAdjust="spacing" textLength="7" x="1124.6322" y="334.78">1</text><text fill="#000000" font-family="sans-serif" font-size="13" lengthAdjust="spacing" textLength="20" x="1095.6953" y="397.8537">1..*</text></g><!--reverse link Floor to Elevator--><g id="link_Floor_Elevator"><path codeLine="99" d="M1115.29,489 C1115.29,489 1084.83,489 1084.83,489 C1084.83,489 1084.83,521.74 1084.83,553.85 " fill="none" id="Floor-backto-Elevator" style="stroke:#2F4F4F;stroke-width:1.0;"/><polygon fill="#2F4F4F" points="1120.29,489,1111.29,485,1115.29,489,1111.29,493,1120.29,489" style="stroke:#2F4F4F;stroke-width:1.0;"/><text fill="#000000" font-family="sans-serif" font-size="13" lengthAdjust="spacing" textLength="5" x="1107.6667" y="490.1099">*</text><text fill="#000000" font-family="sans-serif" font-size="13" lengthAdjust="spacing" textLength="7" x="1079.4869" y="542.8139">1</text></g><!--reverse link Building to Elevator--><g id="link_Building_Elevator"><path codeLine="100" d="M1053.17,354.04 C1053.17,354.04 1053.17,553.87 1053.17,553.87 " fill="none" id="Building-backto-Elevator" style="stroke:#2F4F4F;stroke-width:1.0;"/><polygon fill="#2F4F4F" points="1053.17,349.04,1049.17,358.04,1053.17,354.04,1057.17,358.04,1053.17,349.04" style="stroke:#2F4F4F;stroke-width:1.0;"/><text fill="#000000" font-family="sans-serif" font-size="13" lengthAdjust="spacing" textLength="7" x="1044.1766" y="371.2289">1</text></g><!--link Passage to Floor--><g id="link_Passage_Floor"><path codeLine="101" d="M1172,101.75 C1172,101.75 1172,403.81 1172,403.81 " fill="none" id="Passage-to-Floor" style="stroke:#2F4F4F;stroke-width:1.0;"/><polygon fill="#2F4F4F" points="1172,408.81,1176,399.81,1172,403.81,1168,399.81,1172,408.81" style="stroke:#2F4F4F;stroke-width:1.0;"/><text fill="#000000" font-family="sans-serif" font-size="13" lengthAdjust="spacing" textLength="53" x="1118" y="248.8083">connects</text><text fill="#000000" font-family="sans-serif" font-size="13" lengthAdjust="spacing" textLength="7" x="1164.1906" y="123.3854">1</text><text fill="#000000" font-family="sans-serif" font-size="13" lengthAdjust="spacing" textLength="7" x="1164.4422" y="397.6838">2</text></g><!--link Floor to Room--><g id="link_Floor_Room"><path codeLine="102" d="M1172.5,494.32 C1172.5,494.32 1172.5,730.97 1172.5,730.97 " fill="none" id="Floor-to-Room" style="stroke:#2F4F4F;stroke-width:1.0;"/><polygon fill="#2F4F4F" points="1172.5,735.97,1176.5,726.97,1172.5,730.97,1168.5,726.97,1172.5,735.97" style="stroke:#2F4F4F;stroke-width:1.0;"/><text fill="#000000" font-family="sans-serif" font-size="13" lengthAdjust="spacing" textLength="7" x="1165.0406" y="516.2104">1</text><text fill="#000000" font-family="sans-serif" font-size="13" lengthAdjust="spacing" textLength="20" x="1151.2109" y="724.8579">0..*</text></g><!--link BackofficeUser to Role--><g id="link_BackofficeUser_Role"><path codeLine="107" d="M1314,129.52 C1314,129.52 1314,239.98 1314,239.98 " fill="none" id="BackofficeUser-to-Role" style="stroke:#2F4F4F;stroke-width:1.0;"/><polygon fill="#2F4F4F" points="1314,244.98,1318,235.98,1314,239.98,1310,235.98,1314,244.98" style="stroke:#2F4F4F;stroke-width:1.0;"/><text fill="#000000" font-family="sans-serif" font-size="13" lengthAdjust="spacing" textLength="21" x="1292" y="180.7783">has</text><text fill="#000000" font-family="sans-serif" font-size="13" lengthAdjust="spacing" textLength="7" x="1306.3109" y="233.8016">1</text></g><!--SRC=[jLNVRzem47xFNt7YfT9KggsFgAgKGiggjO18gxtqnIG7U3WsinqeG_tVTtOIC8LrFwJb8Ofztttt-UvyCGikbqop0WINQ3TB1ANjN4LcPqZdB5ThBcTmouJ1A31bWXa3smZekM7POgPLAVEk4afVNLrVmuFACcQuF0rOCL5IkCatp2o1un-bnjF8P8NIGHumvsKHVo_P0zEazpGwHRtY6H8-NMnkA8Q7nLghjKT0Z-b5AfZ5liPDz1gUQ4baR8QdpmGZjSvHxoXhy3tRgDB2JFCyt2QNif1mwGAStT_ru-umIQ6N31x7G-WD8UwFatvC7xTttVWXC8pYxfUudmHEpfJi7DBQO-1S1_4zL1oVapldduo6TnI6K3LF6dbLLQrkIYvogcLrFlUq8LCv1al9Yd2PeyaqNrgkPB1Ri9Txb3CxFzpxolDwwpK8cWXSCQlqzhUq4yra7bAID16i3MhEnA0i9gZhC46SMw4EWqpTHe0-7Vg0OqGlAjusEZQDbIgsVvieJKvTQhMPqfiGp0kKXg0cs5mgmqDL1x4dohvND9uj1eTwZdBrgzE_YV98Gs3xHpMfNAMo20AdjWDSqlIW6m9MmRGKKou4s3aIEwSBV6P08kRc_5bcfTQq8pREh17M3Zb1k0GtWWoeAIMEj9ZEioHHtE0II0Nqj9BeLkSmeIl7BMHCWicOG60LFUR1WHwPMUpFyr_rMWhbvAQbNY6PcSpGQwPiyHNL0isxeW-hBS8Ix1hje1sxNkGfc5zXmNXmTPPpojpRPf1ykbyOosnfZkEu8QYcKvgeJzHI_nglQUUpyV1c-9ZwRzzkqFhGWdRx6bgVMli6ZFO0jwm15nU4RMhQyMd45ynAYo4VyLorsnxNQUmvJAhhrtXxIAkcQxGrqx7AGhFoZ840FsOymdzv5iz6i6RK7HCun86rdZGrkwE_hBc1ZgQafD-Y2SFiS1-z33UE6k5FQJAkSdfMjKMGKUgo3ioPsVtHziKyXOgYtUYBefy0]--></g></svg>