<?xml version="1.0" encoding="us-ascii" standalone="no"?><svg xmlns="http://www.w3.org/2000/svg" xmlns:xlink="http://www.w3.org/1999/xlink" contentStyleType="text/css" height="410px" preserveAspectRatio="none" style="width:407px;height:410px;background:#FFFFFF;" version="1.1" viewBox="0 0 407 410" width="407px" zoomAndPan="magnify"><defs/><g><rect fill="#FFFFFF" height="223.668" style="stroke:#181818;stroke-width:1.0;" width="10" x="63.5" y="93.6211"/><rect fill="#FFFFFF" height="105.5039" style="stroke:#181818;stroke-width:1.0;" width="10" x="309.5" y="134.2031"/><rect fill="#FFFFFF" height="31.291" style="stroke:#181818;stroke-width:1.0;" width="10" x="309.5" y="270.998"/><rect fill="none" height="161.0859" style="stroke:#000000;stroke-width:1.5;" width="390.5" x="10" y="149.2031"/><line style="stroke:#181818;stroke-width:0.5;stroke-dasharray:5.0,5.0;" x1="68" x2="68" y1="83.6211" y2="327.2891"/><line style="stroke:#181818;stroke-width:0.5;stroke-dasharray:5.0,5.0;" x1="314.5" x2="314.5" y1="83.6211" y2="327.2891"/><text fill="#000000" font-family="sans-serif" font-size="14" lengthAdjust="spacing" textLength="91" x="20" y="80.1074">Task Manager</text><ellipse cx="68.5" cy="13.5" fill="#E2E2F0" rx="8" ry="8" style="stroke:#181818;stroke-width:0.5;"/><path d="M68.5,21.5 L68.5,48.5 M55.5,29.5 L81.5,29.5 M68.5,48.5 L55.5,63.5 M68.5,48.5 L81.5,63.5 " fill="none" style="stroke:#181818;stroke-width:0.5;"/><text fill="#000000" font-family="sans-serif" font-size="14" lengthAdjust="spacing" textLength="91" x="20" y="341.3965">Task Manager</text><ellipse cx="68.5" cy="353.4102" fill="#E2E2F0" rx="8" ry="8" style="stroke:#181818;stroke-width:0.5;"/><path d="M68.5,361.4102 L68.5,388.4102 M55.5,369.4102 L81.5,369.4102 M68.5,388.4102 L55.5,403.4102 M68.5,388.4102 L81.5,403.4102 " fill="none" style="stroke:#181818;stroke-width:0.5;"/><rect fill="#E2E2F0" height="51.2422" rx="2.5" ry="2.5" style="stroke:#181818;stroke-width:0.5;" width="152" x="238.5" y="31.3789"/><text fill="#000000" font-family="sans-serif" font-size="14" lengthAdjust="spacing" textLength="60" x="284.5" y="53.4863">&#171;system&#187;</text><text fill="#000000" font-family="sans-serif" font-size="14" lengthAdjust="spacing" textLength="134" x="249.5" y="72.1074">System RobDroneGo</text><rect fill="#E2E2F0" height="51.2422" rx="2.5" ry="2.5" style="stroke:#181818;stroke-width:0.5;" width="152" x="238.5" y="326.2891"/><text fill="#000000" font-family="sans-serif" font-size="14" lengthAdjust="spacing" textLength="60" x="284.5" y="348.3965">&#171;system&#187;</text><text fill="#000000" font-family="sans-serif" font-size="14" lengthAdjust="spacing" textLength="134" x="249.5" y="367.0176">System RobDroneGo</text><rect fill="#FFFFFF" height="223.668" style="stroke:#181818;stroke-width:1.0;" width="10" x="63.5" y="93.6211"/><rect fill="#FFFFFF" height="105.5039" style="stroke:#181818;stroke-width:1.0;" width="10" x="309.5" y="134.2031"/><rect fill="#FFFFFF" height="31.291" style="stroke:#181818;stroke-width:1.0;" width="10" x="309.5" y="270.998"/><polygon fill="#181818" points="297.5,130.2031,307.5,134.2031,297.5,138.2031,301.5,134.2031" style="stroke:#181818;stroke-width:1.0;"/><line style="stroke:#181818;stroke-width:1.0;" x1="73.5" x2="303.5" y1="134.2031" y2="134.2031"/><text fill="#000000" font-family="sans-serif" font-size="13" font-weight="bold" lengthAdjust="spacing" textLength="7" x="80.5" y="120.2949">1</text><text fill="#000000" font-family="sans-serif" font-size="13" lengthAdjust="spacing" textLength="186" x="91.5" y="111.6494">Wants to list paths between two</text><text fill="#000000" font-family="sans-serif" font-size="13" lengthAdjust="spacing" textLength="206" x="91.5" y="128.9404">buildings following a specific criteria</text><path d="M10,149.2031 L71,149.2031 L71,158.4941 L61,168.4941 L10,168.4941 L10,149.2031 " fill="#EEEEEE" style="stroke:#000000;stroke-width:1.5;"/><rect fill="none" height="161.0859" style="stroke:#000000;stroke-width:1.5;" width="390.5" x="10" y="149.2031"/><text fill="#000000" font-family="sans-serif" font-size="13" font-weight="bold" lengthAdjust="spacing" textLength="16" x="25" y="164.2314">alt</text><text fill="#000000" font-family="sans-serif" font-size="11" font-weight="bold" lengthAdjust="spacing" textLength="123" x="86" y="163.0732">[building(s) not found]</text><polygon fill="#181818" points="84.5,187.7852,74.5,191.7852,84.5,195.7852,80.5,191.7852" style="stroke:#181818;stroke-width:1.0;"/><line style="stroke:#181818;stroke-width:1.0;stroke-dasharray:2.0,2.0;" x1="78.5" x2="308.5" y1="191.7852" y2="191.7852"/><text fill="#000000" font-family="sans-serif" font-size="13" font-weight="bold" lengthAdjust="spacing" textLength="7" x="90.5" y="186.5225">2</text><text fill="#000000" font-family="sans-serif" font-size="13" lengthAdjust="spacing" textLength="72" x="101.5" y="186.5225">informs error</text><line style="stroke:#000000;stroke-width:1.0;stroke-dasharray:2.0,2.0;" x1="10" x2="400.5" y1="200.7852" y2="200.7852"/><text fill="#000000" font-family="sans-serif" font-size="11" font-weight="bold" lengthAdjust="spacing" textLength="102" x="15" y="212.6553">[building(s) found]</text><polygon fill="#181818" points="84.5,235.707,74.5,239.707,84.5,243.707,80.5,239.707" style="stroke:#181818;stroke-width:1.0;"/><line style="stroke:#181818;stroke-width:1.0;stroke-dasharray:2.0,2.0;" x1="78.5" x2="313.5" y1="239.707" y2="239.707"/><text fill="#000000" font-family="sans-serif" font-size="13" font-weight="bold" lengthAdjust="spacing" textLength="7" x="90.5" y="234.4443">3</text><text fill="#000000" font-family="sans-serif" font-size="13" lengthAdjust="spacing" textLength="188" x="101.5" y="234.4443">shows buildings and request two</text><polygon fill="#181818" points="297.5,266.998,307.5,270.998,297.5,274.998,301.5,270.998" style="stroke:#181818;stroke-width:1.0;"/><line style="stroke:#181818;stroke-width:1.0;" x1="73.5" x2="303.5" y1="270.998" y2="270.998"/><text fill="#000000" font-family="sans-serif" font-size="13" font-weight="bold" lengthAdjust="spacing" textLength="7" x="80.5" y="265.7354">4</text><text fill="#000000" font-family="sans-serif" font-size="13" lengthAdjust="spacing" textLength="104" x="91.5" y="265.7354">chooses buildings</text><polygon fill="#181818" points="84.5,298.2891,74.5,302.2891,84.5,306.2891,80.5,302.2891" style="stroke:#181818;stroke-width:1.0;"/><line style="stroke:#181818;stroke-width:1.0;stroke-dasharray:2.0,2.0;" x1="78.5" x2="313.5" y1="302.2891" y2="302.2891"/><text fill="#000000" font-family="sans-serif" font-size="13" font-weight="bold" lengthAdjust="spacing" textLength="7" x="90.5" y="297.0264">5</text><text fill="#000000" font-family="sans-serif" font-size="13" lengthAdjust="spacing" textLength="133" x="101.5" y="297.0264">shows paths optimized</text><!--SRC=[XP6nJiDG34NtViLL9XZw0r7L2Oc91P1OkZY9qreap-cp7n5yFIyfD2r2gYTBje_ljIcvXjHN75ShgbqZYbUoTpnHe3t70cH8bei3HPTQ1WgEOhEnJtFkjzjTmCkSubchXwY17tKUoWqpKJx8UKPWYfnWlPsgAF6MOGPNT6AEWVnWgDX7vW0V5RjG9UaQ2Nj3grsdOqv1i85hQQL67SKv2ftOvstpRlm4TOvVp9tT8wXdM0hDkMEAIT0w2ylwIaXeDVO6Zb7ZkOqxuolI3OeTT3Gi3YWqY7nCdBrcTrU33VylVZbNYVgWQdn1N2nUpjxGSxgo3YwzVF4Y_w-2rIA2iykBylJBRm00]--></g></svg>