<?xml version="1.0" encoding="us-ascii" standalone="no"?><svg xmlns="http://www.w3.org/2000/svg" xmlns:xlink="http://www.w3.org/1999/xlink" contentStyleType="text/css" height="205px" preserveAspectRatio="none" style="width:224px;height:205px;background:#FFFFFF;" version="1.1" viewBox="0 0 224 205" width="224px" zoomAndPan="magnify"><defs/><g><rect fill="#FFFFFF" height="100.118" style="stroke:#181818;stroke-width:1.0;" width="10" x="13" y="49.0679"/><rect fill="#FFFFFF" height="76.412" style="stroke:#181818;stroke-width:1.0;" width="10" x="154" y="72.7739"/><line style="stroke:#181818;stroke-width:0.5;stroke-dasharray:5.0,5.0;" x1="18" x2="18" y1="39.0679" y2="167.186"/><line style="stroke:#181818;stroke-width:0.5;stroke-dasharray:5.0,5.0;" x1="158.5" x2="158.5" y1="39.0679" y2="167.186"/><rect fill="#E2E2F0" height="33.0679" rx="2.5" ry="2.5" style="stroke:#181818;stroke-width:0.5;" width="26" x="5" y="5"/><text fill="#000000" font-family="sans-serif" font-size="14" lengthAdjust="spacing" textLength="12" x="12" y="26.9659">??</text><rect fill="#E2E2F0" height="33.0679" rx="2.5" ry="2.5" style="stroke:#181818;stroke-width:0.5;" width="26" x="5" y="166.186"/><text fill="#000000" font-family="sans-serif" font-size="14" lengthAdjust="spacing" textLength="12" x="12" y="188.1519">??</text><rect fill="#E2E2F0" height="33.0679" rx="2.5" ry="2.5" style="stroke:#181818;stroke-width:0.5;" width="37" x="140.5" y="5"/><text fill="#000000" font-family="sans-serif" font-size="14" lengthAdjust="spacing" textLength="23" x="147.5" y="26.9659">MD</text><rect fill="#E2E2F0" height="33.0679" rx="2.5" ry="2.5" style="stroke:#181818;stroke-width:0.5;" width="37" x="140.5" y="166.186"/><text fill="#000000" font-family="sans-serif" font-size="14" lengthAdjust="spacing" textLength="23" x="147.5" y="188.1519">MD</text><rect fill="#FFFFFF" height="100.118" style="stroke:#181818;stroke-width:1.0;" width="10" x="13" y="49.0679"/><rect fill="#FFFFFF" height="76.412" style="stroke:#181818;stroke-width:1.0;" width="10" x="154" y="72.7739"/><polygon fill="#181818" points="142,68.7739,152,72.7739,142,76.7739,146,72.7739" style="stroke:#181818;stroke-width:1.0;"/><line style="stroke:#181818;stroke-width:1.0;" x1="23" x2="148" y1="72.7739" y2="72.7739"/><text fill="#000000" font-family="sans-serif" font-size="13" font-weight="bold" lengthAdjust="spacing" textLength="7" x="30" y="66.9649">1</text><text fill="#000000" font-family="sans-serif" font-size="13" lengthAdjust="spacing" textLength="89" x="41" y="66.9649">post(/building)</text><line style="stroke:#181818;stroke-width:1.0;" x1="164" x2="206" y1="104.4799" y2="104.4799"/><line style="stroke:#181818;stroke-width:1.0;" x1="206" x2="206" y1="104.4799" y2="117.4799"/><line style="stroke:#181818;stroke-width:1.0;" x1="165" x2="206" y1="117.4799" y2="117.4799"/><polygon fill="#181818" points="175,113.4799,165,117.4799,175,121.4799,171,117.4799" style="stroke:#181818;stroke-width:1.0;"/><text fill="#000000" font-family="sans-serif" font-size="13" font-weight="bold" lengthAdjust="spacing" textLength="7" x="171" y="98.6709">2</text><text fill="#000000" font-family="sans-serif" font-size="13" lengthAdjust="spacing" textLength="35" x="182" y="98.6709">save()</text><polygon fill="#181818" points="29,145.186,19,149.186,29,153.186,25,149.186" style="stroke:#181818;stroke-width:1.0;"/><line style="stroke:#181818;stroke-width:1.0;stroke-dasharray:2.0,2.0;" x1="23" x2="158" y1="149.186" y2="149.186"/><text fill="#000000" font-family="sans-serif" font-size="13" font-weight="bold" lengthAdjust="spacing" textLength="7" x="35" y="143.377">3</text><text fill="#000000" font-family="sans-serif" font-size="13" lengthAdjust="spacing" textLength="96" x="46" y="143.377">operation result</text><!--SRC=[LOsn3eD028Ptde8uwT1qTz35jG-17cb8zEvo1pv_kGwriX0-FlZ9D4KxLYu0cOhA9fcYOZVF7L95apj-BLzy1FU1DfMJb9i59lYOscB4dAhspzLa3nBVm-MrC_Jo_fChdTmF5tPkCcBAN4WbHInSRLS8V7lpFtly1m00]--></g></svg>