<?xml version="1.0" encoding="us-ascii" standalone="no"?><svg xmlns="http://www.w3.org/2000/svg" xmlns:xlink="http://www.w3.org/1999/xlink" contentStyleType="text/css" height="1334px" preserveAspectRatio="none" style="width:1799px;height:1334px;background:#FFFFFF;" version="1.1" viewBox="0 0 1799 1334" width="1799px" zoomAndPan="magnify"><defs/><g><!--cluster system--><g id="cluster_system"><path d="M8.5,6.0137 L58.5,6.0137 A3.75,3.75 0 0 1 61,8.5137 L68,30.6348 L1789.5,30.6348 A2.5,2.5 0 0 1 1792,33.1348 L1792,1325.0137 A2.5,2.5 0 0 1 1789.5,1327.5137 L8.5,1327.5137 A2.5,2.5 0 0 1 6,1325.0137 L6,8.5137 A2.5,2.5 0 0 1 8.5,6.0137 " fill="none" style="stroke:#000000;stroke-width:1.5;"/><line style="stroke:#000000;stroke-width:1.5;" x1="6" x2="68" y1="30.6348" y2="30.6348"/><text fill="#000000" font-family="sans-serif" font-size="14" font-weight="bold" lengthAdjust="spacing" textLength="49" x="10" y="23.1211">system</text></g><!--cluster Infrastructure--><g id="cluster_Infrastructure"><path d="M226.5,51.0137 L324.5,51.0137 A3.75,3.75 0 0 1 327,53.5137 L334,75.6348 L700.5,75.6348 A2.5,2.5 0 0 1 703,78.1348 L703,218.5137 A2.5,2.5 0 0 1 700.5,221.0137 L226.5,221.0137 A2.5,2.5 0 0 1 224,218.5137 L224,53.5137 A2.5,2.5 0 0 1 226.5,51.0137 " fill="none" style="stroke:#000000;stroke-width:1.5;"/><line style="stroke:#000000;stroke-width:1.5;" x1="224" x2="334" y1="75.6348" y2="75.6348"/><text fill="#000000" font-family="sans-serif" font-size="14" font-weight="bold" lengthAdjust="spacing" textLength="97" x="228" y="68.1211">Infrastructure</text></g><!--cluster Persistence--><g id="cluster_Persistence"><path d="M432.5,96.0137 L517.5,96.0137 A3.75,3.75 0 0 1 520,98.5137 L527,120.6348 L676.5,120.6348 A2.5,2.5 0 0 1 679,123.1348 L679,194.5137 A2.5,2.5 0 0 1 676.5,197.0137 L432.5,197.0137 A2.5,2.5 0 0 1 430,194.5137 L430,98.5137 A2.5,2.5 0 0 1 432.5,96.0137 " fill="none" style="stroke:#000000;stroke-width:1.5;"/><line style="stroke:#000000;stroke-width:1.5;" x1="430" x2="527" y1="120.6348" y2="120.6348"/><text fill="#000000" font-family="sans-serif" font-size="14" font-weight="bold" lengthAdjust="spacing" textLength="84" x="434" y="113.1211">Persistence</text></g><!--cluster Routes--><g id="cluster_Routes"><path d="M250.5,96.0137 L301.5,96.0137 A3.75,3.75 0 0 1 304,98.5137 L311,120.6348 L403.5,120.6348 A2.5,2.5 0 0 1 406,123.1348 L406,194.5137 A2.5,2.5 0 0 1 403.5,197.0137 L250.5,197.0137 A2.5,2.5 0 0 1 248,194.5137 L248,98.5137 A2.5,2.5 0 0 1 250.5,96.0137 " fill="none" style="stroke:#000000;stroke-width:1.5;"/><line style="stroke:#000000;stroke-width:1.5;" x1="248" x2="311" y1="120.6348" y2="120.6348"/><text fill="#000000" font-family="sans-serif" font-size="14" font-weight="bold" lengthAdjust="spacing" textLength="50" x="252" y="113.1211">Routes</text></g><!--cluster Interface Adapters--><g id="cluster_Interface Adapters"><path d="M32.5,245.0137 L163.5,245.0137 A3.75,3.75 0 0 1 166,247.5137 L173,269.6348 L815.5,269.6348 A2.5,2.5 0 0 1 818,272.1348 L818,696.5137 A2.5,2.5 0 0 1 815.5,699.0137 L32.5,699.0137 A2.5,2.5 0 0 1 30,696.5137 L30,247.5137 A2.5,2.5 0 0 1 32.5,245.0137 " fill="none" style="stroke:#000000;stroke-width:1.5;"/><line style="stroke:#000000;stroke-width:1.5;" x1="30" x2="173" y1="269.6348" y2="269.6348"/><text fill="#000000" font-family="sans-serif" font-size="14" font-weight="bold" lengthAdjust="spacing" textLength="130" x="34" y="262.1211">Interface Adapters</text></g><!--cluster Controllers--><g id="cluster_Controllers"><path d="M56.5,290.0137 L136.5,290.0137 A3.75,3.75 0 0 1 139,292.5137 L146,314.6348 L327.5,314.6348 A2.5,2.5 0 0 1 330,317.1348 L330,672.5137 A2.5,2.5 0 0 1 327.5,675.0137 L56.5,675.0137 A2.5,2.5 0 0 1 54,672.5137 L54,292.5137 A2.5,2.5 0 0 1 56.5,290.0137 " fill="none" style="stroke:#000000;stroke-width:1.5;"/><line style="stroke:#000000;stroke-width:1.5;" x1="54" x2="146" y1="314.6348" y2="314.6348"/><text fill="#000000" font-family="sans-serif" font-size="14" font-weight="bold" lengthAdjust="spacing" textLength="79" x="58" y="307.1211">Controllers</text></g><!--cluster IControllers--><g id="cluster_IControllers"><path d="M80.5,335.0137 L164.5,335.0137 A3.75,3.75 0 0 1 167,337.5137 L174,359.6348 L303.5,359.6348 A2.5,2.5 0 0 1 306,362.1348 L306,433.5137 A2.5,2.5 0 0 1 303.5,436.0137 L80.5,436.0137 A2.5,2.5 0 0 1 78,433.5137 L78,337.5137 A2.5,2.5 0 0 1 80.5,335.0137 " fill="none" style="stroke:#000000;stroke-width:1.5;"/><line style="stroke:#000000;stroke-width:1.5;" x1="78" x2="174" y1="359.6348" y2="359.6348"/><text fill="#000000" font-family="sans-serif" font-size="14" font-weight="bold" lengthAdjust="spacing" textLength="83" x="82" y="352.1211">IControllers</text></g><!--cluster ImplControllers--><g id="cluster_ImplControllers"><path d="M84.5,550.0137 L193.5,550.0137 A3.75,3.75 0 0 1 196,552.5137 L203,574.6348 L303.5,574.6348 A2.5,2.5 0 0 1 306,577.1348 L306,648.5137 A2.5,2.5 0 0 1 303.5,651.0137 L84.5,651.0137 A2.5,2.5 0 0 1 82,648.5137 L82,552.5137 A2.5,2.5 0 0 1 84.5,550.0137 " fill="none" style="stroke:#000000;stroke-width:1.5;"/><line style="stroke:#000000;stroke-width:1.5;" x1="82" x2="203" y1="574.6348" y2="574.6348"/><text fill="#000000" font-family="sans-serif" font-size="14" font-weight="bold" lengthAdjust="spacing" textLength="108" x="86" y="567.1211">ImplControllers</text></g><!--cluster Repositories--><g id="cluster_Repositories"><path d="M356.5,335.0137 L447.5,335.0137 A3.75,3.75 0 0 1 450,337.5137 L457,359.6348 L791.5,359.6348 A2.5,2.5 0 0 1 794,362.1348 L794,433.5137 A2.5,2.5 0 0 1 791.5,436.0137 L356.5,436.0137 A2.5,2.5 0 0 1 354,433.5137 L354,337.5137 A2.5,2.5 0 0 1 356.5,335.0137 " fill="none" style="stroke:#000000;stroke-width:1.5;"/><line style="stroke:#000000;stroke-width:1.5;" x1="354" x2="457" y1="359.6348" y2="359.6348"/><text fill="#000000" font-family="sans-serif" font-size="14" font-weight="bold" lengthAdjust="spacing" textLength="90" x="358" y="352.1211">Repositories</text></g><!--cluster Application Services--><g id="cluster_Application Services"><path d="M844.5,460.0137 L989.5,460.0137 A3.75,3.75 0 0 1 992,462.5137 L999,484.6348 L1387.5,484.6348 A2.5,2.5 0 0 1 1390,487.1348 L1390,1099.0137 A2.5,2.5 0 0 1 1387.5,1101.5137 L844.5,1101.5137 A2.5,2.5 0 0 1 842,1099.0137 L842,462.5137 A2.5,2.5 0 0 1 844.5,460.0137 " fill="none" style="stroke:#000000;stroke-width:1.5;"/><line style="stroke:#000000;stroke-width:1.5;" x1="842" x2="999" y1="484.6348" y2="484.6348"/><text fill="#000000" font-family="sans-serif" font-size="14" font-weight="bold" lengthAdjust="spacing" textLength="144" x="846" y="477.1211">Application Services</text></g><!--cluster App Services--><g id="cluster_App Services"><path d="M868.5,505.0137 L962.5,505.0137 A3.75,3.75 0 0 1 965,507.5137 L972,529.6348 L1363.5,529.6348 A2.5,2.5 0 0 1 1366,532.1348 L1366,1075.0137 A2.5,2.5 0 0 1 1363.5,1077.5137 L868.5,1077.5137 A2.5,2.5 0 0 1 866,1075.0137 L866,507.5137 A2.5,2.5 0 0 1 868.5,505.0137 " fill="none" style="stroke:#000000;stroke-width:1.5;"/><line style="stroke:#000000;stroke-width:1.5;" x1="866" x2="972" y1="529.6348" y2="529.6348"/><text fill="#000000" font-family="sans-serif" font-size="14" font-weight="bold" lengthAdjust="spacing" textLength="93" x="870" y="522.1211">App Services</text></g><!--cluster IAppServices--><g id="cluster_IAppServices"><path d="M1021.5,952.5137 L1115.5,952.5137 A3.75,3.75 0 0 1 1118,955.0137 L1125,977.1348 L1210.5,977.1348 A2.5,2.5 0 0 1 1213,979.6348 L1213,1051.0137 A2.5,2.5 0 0 1 1210.5,1053.5137 L1021.5,1053.5137 A2.5,2.5 0 0 1 1019,1051.0137 L1019,955.0137 A2.5,2.5 0 0 1 1021.5,952.5137 " fill="none" style="stroke:#000000;stroke-width:1.5;"/><line style="stroke:#000000;stroke-width:1.5;" x1="1019" x2="1125" y1="977.1348" y2="977.1348"/><text fill="#000000" font-family="sans-serif" font-size="14" font-weight="bold" lengthAdjust="spacing" textLength="93" x="1023" y="969.6211">IAppServices</text></g><!--cluster ImplAppServices--><g id="cluster_ImplAppServices"><path d="M1081.5,723.0137 L1200.5,723.0137 A3.75,3.75 0 0 1 1203,725.5137 L1210,747.6348 L1268.5,747.6348 A2.5,2.5 0 0 1 1271,750.1348 L1271,821.5137 A2.5,2.5 0 0 1 1268.5,824.0137 L1081.5,824.0137 A2.5,2.5 0 0 1 1079,821.5137 L1079,725.5137 A2.5,2.5 0 0 1 1081.5,723.0137 " fill="none" style="stroke:#000000;stroke-width:1.5;"/><line style="stroke:#000000;stroke-width:1.5;" x1="1079" x2="1210" y1="747.6348" y2="747.6348"/><text fill="#000000" font-family="sans-serif" font-size="14" font-weight="bold" lengthAdjust="spacing" textLength="118" x="1083" y="740.1211">ImplAppServices</text></g><!--cluster IRepositories--><g id="cluster_IRepositories"><path d="M892.5,550.0137 L987.5,550.0137 A3.75,3.75 0 0 1 990,552.5137 L997,574.6348 L1339.5,574.6348 A2.5,2.5 0 0 1 1342,577.1348 L1342,648.5137 A2.5,2.5 0 0 1 1339.5,651.0137 L892.5,651.0137 A2.5,2.5 0 0 1 890,648.5137 L890,552.5137 A2.5,2.5 0 0 1 892.5,550.0137 " fill="none" style="stroke:#000000;stroke-width:1.5;"/><line style="stroke:#000000;stroke-width:1.5;" x1="890" x2="997" y1="574.6348" y2="574.6348"/><text fill="#000000" font-family="sans-serif" font-size="14" font-weight="bold" lengthAdjust="spacing" textLength="94" x="894" y="567.1211">IRepositories</text></g><!--cluster Entities/Core/Domain--><g id="cluster_Entities/Core/Domain"><path d="M1416.5,848.0137 L1564.5,848.0137 A3.75,3.75 0 0 1 1567,850.5137 L1574,872.6348 L1765.5,872.6348 A2.5,2.5 0 0 1 1768,875.1348 L1768,1301.0137 A2.5,2.5 0 0 1 1765.5,1303.5137 L1416.5,1303.5137 A2.5,2.5 0 0 1 1414,1301.0137 L1414,850.5137 A2.5,2.5 0 0 1 1416.5,848.0137 " fill="none" style="stroke:#000000;stroke-width:1.5;"/><line style="stroke:#000000;stroke-width:1.5;" x1="1414" x2="1574" y1="872.6348" y2="872.6348"/><text fill="#000000" font-family="sans-serif" font-size="14" font-weight="bold" lengthAdjust="spacing" textLength="147" x="1418" y="865.1211">Entities/Core/Domain</text></g><!--cluster Aggregates--><g id="cluster_Aggregates"><path d="M1440.5,893.0137 L1522.5,893.0137 A3.75,3.75 0 0 1 1525,895.5137 L1532,917.6348 L1741.5,917.6348 A2.5,2.5 0 0 1 1744,920.1348 L1744,1277.0137 A2.5,2.5 0 0 1 1741.5,1279.5137 L1440.5,1279.5137 A2.5,2.5 0 0 1 1438,1277.0137 L1438,895.5137 A2.5,2.5 0 0 1 1440.5,893.0137 " fill="none" style="stroke:#000000;stroke-width:1.5;"/><line style="stroke:#000000;stroke-width:1.5;" x1="1438" x2="1532" y1="917.6348" y2="917.6348"/><text fill="#000000" font-family="sans-serif" font-size="14" font-weight="bold" lengthAdjust="spacing" textLength="81" x="1442" y="910.1211">Aggregates</text></g><!--cluster a_Passage--><g id="cluster_a_Passage"><path d="M1602.5,1125.5137 L1662.5,1125.5137 A3.75,3.75 0 0 1 1665,1128.0137 L1672,1150.1348 L1717.5,1150.1348 A2.5,2.5 0 0 1 1720,1152.6348 L1720,1253.0137 A2.5,2.5 0 0 1 1717.5,1255.5137 L1602.5,1255.5137 A2.5,2.5 0 0 1 1600,1253.0137 L1600,1128.0137 A2.5,2.5 0 0 1 1602.5,1125.5137 " fill="none" style="stroke:#000000;stroke-width:1.5;"/><line style="stroke:#000000;stroke-width:1.5;" x1="1600" x2="1672" y1="1150.1348" y2="1150.1348"/><text fill="#000000" font-family="sans-serif" font-size="14" font-weight="bold" lengthAdjust="spacing" textLength="59" x="1604" y="1142.6211">Passage</text></g><!--cluster a_building--><g id="cluster_a_building"><path d="M1464.5,1125.5137 L1523.5,1125.5137 A3.75,3.75 0 0 1 1526,1128.0137 L1533,1150.1348 L1573.5,1150.1348 A2.5,2.5 0 0 1 1576,1152.6348 L1576,1253.0137 A2.5,2.5 0 0 1 1573.5,1255.5137 L1464.5,1255.5137 A2.5,2.5 0 0 1 1462,1253.0137 L1462,1128.0137 A2.5,2.5 0 0 1 1464.5,1125.5137 " fill="none" style="stroke:#000000;stroke-width:1.5;"/><line style="stroke:#000000;stroke-width:1.5;" x1="1462" x2="1533" y1="1150.1348" y2="1150.1348"/><text fill="#000000" font-family="sans-serif" font-size="14" font-weight="bold" lengthAdjust="spacing" textLength="58" x="1466" y="1142.6211">Building</text></g><!--cluster a_floor--><g id="cluster_a_floor"><path d="M1469.5,938.0137 L1507.5,938.0137 A3.75,3.75 0 0 1 1510,940.5137 L1517,962.6348 L1568.5,962.6348 A2.5,2.5 0 0 1 1571,965.1348 L1571,1065.5137 A2.5,2.5 0 0 1 1568.5,1068.0137 L1469.5,1068.0137 A2.5,2.5 0 0 1 1467,1065.5137 L1467,940.5137 A2.5,2.5 0 0 1 1469.5,938.0137 " fill="none" style="stroke:#000000;stroke-width:1.5;"/><line style="stroke:#000000;stroke-width:1.5;" x1="1467" x2="1517" y1="962.6348" y2="962.6348"/><text fill="#000000" font-family="sans-serif" font-size="14" font-weight="bold" lengthAdjust="spacing" textLength="37" x="1471" y="955.1211">Floor</text></g><!--cluster DTO--><g id="cluster_DTO"><path d="M529.5,952.5137 L559.5,952.5137 A3.75,3.75 0 0 1 562,955.0137 L569,977.1348 L678.5,977.1348 A2.5,2.5 0 0 1 681,979.6348 L681,1051.0137 A2.5,2.5 0 0 1 678.5,1053.5137 L529.5,1053.5137 A2.5,2.5 0 0 1 527,1051.0137 L527,955.0137 A2.5,2.5 0 0 1 529.5,952.5137 " fill="none" style="stroke:#000000;stroke-width:1.5;"/><line style="stroke:#000000;stroke-width:1.5;" x1="527" x2="569" y1="977.1348" y2="977.1348"/><text fill="#000000" font-family="sans-serif" font-size="14" font-weight="bold" lengthAdjust="spacing" textLength="29" x="531" y="969.6211">DTO</text></g><!--class IDBDriver--><g id="elem_IDBDriver"><rect codeLine="17" fill="#F1F1F1" height="48" id="IDBDriver" rx="2.5" ry="2.5" style="stroke:#181818;stroke-width:0.5;" width="92" x="571" y="133.0137"/><ellipse cx="586" cy="149.0137" fill="#B4A7E5" rx="11" ry="11" style="stroke:#181818;stroke-width:1.0;"/><path d="M586.9531,145.6543 L586.9531,152.3105 L588.6719,152.3105 Q589.2813,152.3105 589.5469,152.5449 Q589.8125,152.7793 589.8125,153.1699 Q589.8125,153.5449 589.5469,153.7793 Q589.2813,154.0137 588.6719,154.0137 L583.5313,154.0137 Q582.9219,154.0137 582.6563,153.7793 Q582.3906,153.5449 582.3906,153.1543 Q582.3906,152.7793 582.6563,152.5449 Q582.9219,152.3105 583.5313,152.3105 L585.25,152.3105 L585.25,145.6543 L583.5313,145.6543 Q582.9219,145.6543 582.6563,145.4199 Q582.3906,145.1855 582.3906,144.7949 Q582.3906,144.4199 582.6563,144.1855 Q582.9219,143.9512 583.5313,143.9512 L588.6719,143.9512 Q589.2813,143.9512 589.5469,144.1855 Q589.8125,144.4199 589.8125,144.7949 Q589.8125,145.1855 589.5469,145.4199 Q589.2813,145.6543 588.6719,145.6543 L586.9531,145.6543 Z " fill="#000000"/><text fill="#000000" font-family="sans-serif" font-size="14" font-style="italic" lengthAdjust="spacing" textLength="60" x="600" y="154.8105">IDBDriver</text><line style="stroke:#181818;stroke-width:0.5;" x1="572" x2="662" y1="165.0137" y2="165.0137"/><line style="stroke:#181818;stroke-width:0.5;" x1="572" x2="662" y1="173.0137" y2="173.0137"/></g><!--class DBDriver--><g id="elem_DBDriver"><rect codeLine="18" fill="#F1F1F1" height="48" id="DBDriver" rx="2.5" ry="2.5" style="stroke:#181818;stroke-width:0.5;" width="89" x="446.5" y="133.0137"/><ellipse cx="461.5" cy="149.0137" fill="#ADD1B2" rx="11" ry="11" style="stroke:#181818;stroke-width:1.0;"/><path d="M464.2656,144.8887 Q464.4219,144.6699 464.6094,144.5605 Q464.7969,144.4512 465.0156,144.4512 Q465.3906,144.4512 465.625,144.7168 Q465.8594,144.9668 465.8594,145.5762 L465.8594,147.0293 Q465.8594,147.6387 465.625,147.9043 Q465.3906,148.1699 465.0156,148.1699 Q464.6719,148.1699 464.4688,147.9668 Q464.2656,147.7793 464.1563,147.2637 Q464.1094,146.9043 463.9219,146.7168 Q463.5938,146.3418 462.9844,146.123 Q462.375,145.9043 461.75,145.9043 Q460.9844,145.9043 460.3438,146.2324 Q459.7188,146.5605 459.2188,147.3105 Q458.7344,148.0605 458.7344,149.0918 L458.7344,150.1855 Q458.7344,151.4199 459.625,152.248 Q460.5156,153.0605 462.1094,153.0605 Q463.0469,153.0605 463.7031,152.8105 Q464.0938,152.6543 464.5156,152.2168 Q464.7813,151.9512 464.9219,151.873 Q465.0781,151.7949 465.2813,151.7949 Q465.6094,151.7949 465.8594,152.0605 Q466.125,152.3105 466.125,152.6543 Q466.125,152.998 465.7813,153.4043 Q465.2813,153.9824 464.4844,154.3105 Q463.4063,154.7637 462.1094,154.7637 Q460.5938,154.7637 459.3906,154.1387 Q458.4063,153.6387 457.7188,152.5762 Q457.0313,151.498 457.0313,150.2168 L457.0313,149.0605 Q457.0313,147.7324 457.6406,146.5918 Q458.2656,145.4355 459.3594,144.8262 Q460.4531,144.2012 461.6875,144.2012 Q462.4219,144.2012 463.0625,144.373 Q463.7188,144.5293 464.2656,144.8887 Z " fill="#000000"/><text fill="#000000" font-family="sans-serif" font-size="14" lengthAdjust="spacing" textLength="57" x="475.5" y="154.8105">DBDriver</text><line style="stroke:#181818;stroke-width:0.5;" x1="447.5" x2="534.5" y1="165.0137" y2="165.0137"/><line style="stroke:#181818;stroke-width:0.5;" x1="447.5" x2="534.5" y1="173.0137" y2="173.0137"/></g><!--class RoutePassage--><g id="elem_RoutePassage"><rect codeLine="22" fill="#F1F1F1" height="48" id="RoutePassage" rx="2.5" ry="2.5" style="stroke:#181818;stroke-width:0.5;" width="125" x="264.5" y="133.0137"/><ellipse cx="279.5" cy="149.0137" fill="#ADD1B2" rx="11" ry="11" style="stroke:#181818;stroke-width:1.0;"/><path d="M282.2656,144.8887 Q282.4219,144.6699 282.6094,144.5605 Q282.7969,144.4512 283.0156,144.4512 Q283.3906,144.4512 283.625,144.7168 Q283.8594,144.9668 283.8594,145.5762 L283.8594,147.0293 Q283.8594,147.6387 283.625,147.9043 Q283.3906,148.1699 283.0156,148.1699 Q282.6719,148.1699 282.4688,147.9668 Q282.2656,147.7793 282.1563,147.2637 Q282.1094,146.9043 281.9219,146.7168 Q281.5938,146.3418 280.9844,146.123 Q280.375,145.9043 279.75,145.9043 Q278.9844,145.9043 278.3438,146.2324 Q277.7188,146.5605 277.2188,147.3105 Q276.7344,148.0605 276.7344,149.0918 L276.7344,150.1855 Q276.7344,151.4199 277.625,152.248 Q278.5156,153.0605 280.1094,153.0605 Q281.0469,153.0605 281.7031,152.8105 Q282.0938,152.6543 282.5156,152.2168 Q282.7813,151.9512 282.9219,151.873 Q283.0781,151.7949 283.2813,151.7949 Q283.6094,151.7949 283.8594,152.0605 Q284.125,152.3105 284.125,152.6543 Q284.125,152.998 283.7813,153.4043 Q283.2813,153.9824 282.4844,154.3105 Q281.4063,154.7637 280.1094,154.7637 Q278.5938,154.7637 277.3906,154.1387 Q276.4063,153.6387 275.7188,152.5762 Q275.0313,151.498 275.0313,150.2168 L275.0313,149.0605 Q275.0313,147.7324 275.6406,146.5918 Q276.2656,145.4355 277.3594,144.8262 Q278.4531,144.2012 279.6875,144.2012 Q280.4219,144.2012 281.0625,144.373 Q281.7188,144.5293 282.2656,144.8887 Z " fill="#000000"/><text fill="#000000" font-family="sans-serif" font-size="14" lengthAdjust="spacing" textLength="93" x="293.5" y="154.8105">RoutePassage</text><line style="stroke:#181818;stroke-width:0.5;" x1="265.5" x2="388.5" y1="165.0137" y2="165.0137"/><line style="stroke:#181818;stroke-width:0.5;" x1="265.5" x2="388.5" y1="173.0137" y2="173.0137"/></g><!--class IControllerCreatePassage--><g id="elem_IControllerCreatePassage"><rect codeLine="31" fill="#F1F1F1" height="48" id="IControllerCreatePassage" rx="2.5" ry="2.5" style="stroke:#181818;stroke-width:0.5;" width="196" x="94" y="372.0137"/><ellipse cx="109" cy="388.0137" fill="#B4A7E5" rx="11" ry="11" style="stroke:#181818;stroke-width:1.0;"/><path d="M109.9531,384.6543 L109.9531,391.3105 L111.6719,391.3105 Q112.2813,391.3105 112.5469,391.5449 Q112.8125,391.7793 112.8125,392.1699 Q112.8125,392.5449 112.5469,392.7793 Q112.2813,393.0137 111.6719,393.0137 L106.5313,393.0137 Q105.9219,393.0137 105.6563,392.7793 Q105.3906,392.5449 105.3906,392.1543 Q105.3906,391.7793 105.6563,391.5449 Q105.9219,391.3105 106.5313,391.3105 L108.25,391.3105 L108.25,384.6543 L106.5313,384.6543 Q105.9219,384.6543 105.6563,384.4199 Q105.3906,384.1855 105.3906,383.7949 Q105.3906,383.4199 105.6563,383.1855 Q105.9219,382.9512 106.5313,382.9512 L111.6719,382.9512 Q112.2813,382.9512 112.5469,383.1855 Q112.8125,383.4199 112.8125,383.7949 Q112.8125,384.1855 112.5469,384.4199 Q112.2813,384.6543 111.6719,384.6543 L109.9531,384.6543 Z " fill="#000000"/><text fill="#000000" font-family="sans-serif" font-size="14" font-style="italic" lengthAdjust="spacing" textLength="164" x="123" y="393.8105">IControllerCreatePassage</text><line style="stroke:#181818;stroke-width:0.5;" x1="95" x2="289" y1="404.0137" y2="404.0137"/><line style="stroke:#181818;stroke-width:0.5;" x1="95" x2="289" y1="412.0137" y2="412.0137"/></g><!--class ControllerCreatePassage--><g id="elem_ControllerCreatePassage"><rect codeLine="35" fill="#F1F1F1" height="48" id="ControllerCreatePassage" rx="2.5" ry="2.5" style="stroke:#181818;stroke-width:0.5;" width="192" x="98" y="587.0137"/><ellipse cx="113" cy="603.0137" fill="#ADD1B2" rx="11" ry="11" style="stroke:#181818;stroke-width:1.0;"/><path d="M115.7656,598.8887 Q115.9219,598.6699 116.1094,598.5605 Q116.2969,598.4512 116.5156,598.4512 Q116.8906,598.4512 117.125,598.7168 Q117.3594,598.9668 117.3594,599.5762 L117.3594,601.0293 Q117.3594,601.6387 117.125,601.9043 Q116.8906,602.1699 116.5156,602.1699 Q116.1719,602.1699 115.9688,601.9668 Q115.7656,601.7793 115.6563,601.2637 Q115.6094,600.9043 115.4219,600.7168 Q115.0938,600.3418 114.4844,600.123 Q113.875,599.9043 113.25,599.9043 Q112.4844,599.9043 111.8438,600.2324 Q111.2188,600.5605 110.7188,601.3105 Q110.2344,602.0605 110.2344,603.0918 L110.2344,604.1855 Q110.2344,605.4199 111.125,606.248 Q112.0156,607.0605 113.6094,607.0605 Q114.5469,607.0605 115.2031,606.8105 Q115.5938,606.6543 116.0156,606.2168 Q116.2813,605.9512 116.4219,605.873 Q116.5781,605.7949 116.7813,605.7949 Q117.1094,605.7949 117.3594,606.0605 Q117.625,606.3105 117.625,606.6543 Q117.625,606.998 117.2813,607.4043 Q116.7813,607.9824 115.9844,608.3105 Q114.9063,608.7637 113.6094,608.7637 Q112.0938,608.7637 110.8906,608.1387 Q109.9063,607.6387 109.2188,606.5762 Q108.5313,605.498 108.5313,604.2168 L108.5313,603.0605 Q108.5313,601.7324 109.1406,600.5918 Q109.7656,599.4355 110.8594,598.8262 Q111.9531,598.2012 113.1875,598.2012 Q113.9219,598.2012 114.5625,598.373 Q115.2188,598.5293 115.7656,598.8887 Z " fill="#000000"/><text fill="#000000" font-family="sans-serif" font-size="14" lengthAdjust="spacing" textLength="160" x="127" y="608.8105">ControllerCreatePassage</text><line style="stroke:#181818;stroke-width:0.5;" x1="99" x2="289" y1="619.0137" y2="619.0137"/><line style="stroke:#181818;stroke-width:0.5;" x1="99" x2="289" y1="627.0137" y2="627.0137"/></g><!--class RepoBuilding--><g id="elem_RepoBuilding"><rect codeLine="41" fill="#F1F1F1" height="48" id="RepoBuilding" rx="2.5" ry="2.5" style="stroke:#181818;stroke-width:0.5;" width="116" x="505" y="372.0137"/><ellipse cx="520" cy="388.0137" fill="#ADD1B2" rx="11" ry="11" style="stroke:#181818;stroke-width:1.0;"/><path d="M522.7656,383.8887 Q522.9219,383.6699 523.1094,383.5605 Q523.2969,383.4512 523.5156,383.4512 Q523.8906,383.4512 524.125,383.7168 Q524.3594,383.9668 524.3594,384.5762 L524.3594,386.0293 Q524.3594,386.6387 524.125,386.9043 Q523.8906,387.1699 523.5156,387.1699 Q523.1719,387.1699 522.9688,386.9668 Q522.7656,386.7793 522.6563,386.2637 Q522.6094,385.9043 522.4219,385.7168 Q522.0938,385.3418 521.4844,385.123 Q520.875,384.9043 520.25,384.9043 Q519.4844,384.9043 518.8438,385.2324 Q518.2188,385.5605 517.7188,386.3105 Q517.2344,387.0605 517.2344,388.0918 L517.2344,389.1855 Q517.2344,390.4199 518.125,391.248 Q519.0156,392.0605 520.6094,392.0605 Q521.5469,392.0605 522.2031,391.8105 Q522.5938,391.6543 523.0156,391.2168 Q523.2813,390.9512 523.4219,390.873 Q523.5781,390.7949 523.7813,390.7949 Q524.1094,390.7949 524.3594,391.0605 Q524.625,391.3105 524.625,391.6543 Q524.625,391.998 524.2813,392.4043 Q523.7813,392.9824 522.9844,393.3105 Q521.9063,393.7637 520.6094,393.7637 Q519.0938,393.7637 517.8906,393.1387 Q516.9063,392.6387 516.2188,391.5762 Q515.5313,390.498 515.5313,389.2168 L515.5313,388.0605 Q515.5313,386.7324 516.1406,385.5918 Q516.7656,384.4355 517.8594,383.8262 Q518.9531,383.2012 520.1875,383.2012 Q520.9219,383.2012 521.5625,383.373 Q522.2188,383.5293 522.7656,383.8887 Z " fill="#000000"/><text fill="#000000" font-family="sans-serif" font-size="14" lengthAdjust="spacing" textLength="84" x="534" y="393.8105">RepoBuilding</text><line style="stroke:#181818;stroke-width:0.5;" x1="506" x2="620" y1="404.0137" y2="404.0137"/><line style="stroke:#181818;stroke-width:0.5;" x1="506" x2="620" y1="412.0137" y2="412.0137"/></g><!--class RepoFloor--><g id="elem_RepoFloor"><rect codeLine="42" fill="#F1F1F1" height="48" id="RepoFloor" rx="2.5" ry="2.5" style="stroke:#181818;stroke-width:0.5;" width="99" x="370.5" y="372.0137"/><ellipse cx="385.5" cy="388.0137" fill="#ADD1B2" rx="11" ry="11" style="stroke:#181818;stroke-width:1.0;"/><path d="M388.2656,383.8887 Q388.4219,383.6699 388.6094,383.5605 Q388.7969,383.4512 389.0156,383.4512 Q389.3906,383.4512 389.625,383.7168 Q389.8594,383.9668 389.8594,384.5762 L389.8594,386.0293 Q389.8594,386.6387 389.625,386.9043 Q389.3906,387.1699 389.0156,387.1699 Q388.6719,387.1699 388.4688,386.9668 Q388.2656,386.7793 388.1563,386.2637 Q388.1094,385.9043 387.9219,385.7168 Q387.5938,385.3418 386.9844,385.123 Q386.375,384.9043 385.75,384.9043 Q384.9844,384.9043 384.3438,385.2324 Q383.7188,385.5605 383.2188,386.3105 Q382.7344,387.0605 382.7344,388.0918 L382.7344,389.1855 Q382.7344,390.4199 383.625,391.248 Q384.5156,392.0605 386.1094,392.0605 Q387.0469,392.0605 387.7031,391.8105 Q388.0938,391.6543 388.5156,391.2168 Q388.7813,390.9512 388.9219,390.873 Q389.0781,390.7949 389.2813,390.7949 Q389.6094,390.7949 389.8594,391.0605 Q390.125,391.3105 390.125,391.6543 Q390.125,391.998 389.7813,392.4043 Q389.2813,392.9824 388.4844,393.3105 Q387.4063,393.7637 386.1094,393.7637 Q384.5938,393.7637 383.3906,393.1387 Q382.4063,392.6387 381.7188,391.5762 Q381.0313,390.498 381.0313,389.2168 L381.0313,388.0605 Q381.0313,386.7324 381.6406,385.5918 Q382.2656,384.4355 383.3594,383.8262 Q384.4531,383.2012 385.6875,383.2012 Q386.4219,383.2012 387.0625,383.373 Q387.7188,383.5293 388.2656,383.8887 Z " fill="#000000"/><text fill="#000000" font-family="sans-serif" font-size="14" lengthAdjust="spacing" textLength="67" x="399.5" y="393.8105">RepoFloor</text><line style="stroke:#181818;stroke-width:0.5;" x1="371.5" x2="468.5" y1="404.0137" y2="404.0137"/><line style="stroke:#181818;stroke-width:0.5;" x1="371.5" x2="468.5" y1="412.0137" y2="412.0137"/></g><!--class RepoPassage--><g id="elem_RepoPassage"><rect codeLine="43" fill="#F1F1F1" height="48" id="RepoPassage" rx="2.5" ry="2.5" style="stroke:#181818;stroke-width:0.5;" width="121" x="656.5" y="372.0137"/><ellipse cx="671.5" cy="388.0137" fill="#ADD1B2" rx="11" ry="11" style="stroke:#181818;stroke-width:1.0;"/><path d="M674.2656,383.8887 Q674.4219,383.6699 674.6094,383.5605 Q674.7969,383.4512 675.0156,383.4512 Q675.3906,383.4512 675.625,383.7168 Q675.8594,383.9668 675.8594,384.5762 L675.8594,386.0293 Q675.8594,386.6387 675.625,386.9043 Q675.3906,387.1699 675.0156,387.1699 Q674.6719,387.1699 674.4688,386.9668 Q674.2656,386.7793 674.1563,386.2637 Q674.1094,385.9043 673.9219,385.7168 Q673.5938,385.3418 672.9844,385.123 Q672.375,384.9043 671.75,384.9043 Q670.9844,384.9043 670.3438,385.2324 Q669.7188,385.5605 669.2188,386.3105 Q668.7344,387.0605 668.7344,388.0918 L668.7344,389.1855 Q668.7344,390.4199 669.625,391.248 Q670.5156,392.0605 672.1094,392.0605 Q673.0469,392.0605 673.7031,391.8105 Q674.0938,391.6543 674.5156,391.2168 Q674.7813,390.9512 674.9219,390.873 Q675.0781,390.7949 675.2813,390.7949 Q675.6094,390.7949 675.8594,391.0605 Q676.125,391.3105 676.125,391.6543 Q676.125,391.998 675.7813,392.4043 Q675.2813,392.9824 674.4844,393.3105 Q673.4063,393.7637 672.1094,393.7637 Q670.5938,393.7637 669.3906,393.1387 Q668.4063,392.6387 667.7188,391.5762 Q667.0313,390.498 667.0313,389.2168 L667.0313,388.0605 Q667.0313,386.7324 667.6406,385.5918 Q668.2656,384.4355 669.3594,383.8262 Q670.4531,383.2012 671.6875,383.2012 Q672.4219,383.2012 673.0625,383.373 Q673.7188,383.5293 674.2656,383.8887 Z " fill="#000000"/><text fill="#000000" font-family="sans-serif" font-size="14" lengthAdjust="spacing" textLength="89" x="685.5" y="393.8105">RepoPassage</text><line style="stroke:#181818;stroke-width:0.5;" x1="657.5" x2="776.5" y1="404.0137" y2="404.0137"/><line style="stroke:#181818;stroke-width:0.5;" x1="657.5" x2="776.5" y1="412.0137" y2="412.0137"/></g><!--class IAppServicePassage--><g id="elem_IAppServicePassage"><rect codeLine="56" fill="#F1F1F1" height="48" id="IAppServicePassage" rx="2.5" ry="2.5" style="stroke:#181818;stroke-width:0.5;" width="162" x="1035" y="989.5137"/><ellipse cx="1050" cy="1005.5137" fill="#B4A7E5" rx="11" ry="11" style="stroke:#181818;stroke-width:1.0;"/><path d="M1050.9531,1002.1543 L1050.9531,1008.8105 L1052.6719,1008.8105 Q1053.2813,1008.8105 1053.5469,1009.0449 Q1053.8125,1009.2793 1053.8125,1009.6699 Q1053.8125,1010.0449 1053.5469,1010.2793 Q1053.2813,1010.5137 1052.6719,1010.5137 L1047.5313,1010.5137 Q1046.9219,1010.5137 1046.6563,1010.2793 Q1046.3906,1010.0449 1046.3906,1009.6543 Q1046.3906,1009.2793 1046.6563,1009.0449 Q1046.9219,1008.8105 1047.5313,1008.8105 L1049.25,1008.8105 L1049.25,1002.1543 L1047.5313,1002.1543 Q1046.9219,1002.1543 1046.6563,1001.9199 Q1046.3906,1001.6855 1046.3906,1001.2949 Q1046.3906,1000.9199 1046.6563,1000.6855 Q1046.9219,1000.4512 1047.5313,1000.4512 L1052.6719,1000.4512 Q1053.2813,1000.4512 1053.5469,1000.6855 Q1053.8125,1000.9199 1053.8125,1001.2949 Q1053.8125,1001.6855 1053.5469,1001.9199 Q1053.2813,1002.1543 1052.6719,1002.1543 L1050.9531,1002.1543 Z " fill="#000000"/><text fill="#000000" font-family="sans-serif" font-size="14" font-style="italic" lengthAdjust="spacing" textLength="130" x="1064" y="1011.3105">IAppServicePassage</text><line style="stroke:#181818;stroke-width:0.5;" x1="1036" x2="1196" y1="1021.5137" y2="1021.5137"/><line style="stroke:#181818;stroke-width:0.5;" x1="1036" x2="1196" y1="1029.5137" y2="1029.5137"/></g><!--class AppServicePassage--><g id="elem_AppServicePassage"><rect codeLine="60" fill="#F1F1F1" height="48" id="AppServicePassage" rx="2.5" ry="2.5" style="stroke:#181818;stroke-width:0.5;" width="159" x="1095.5" y="760.0137"/><ellipse cx="1110.5" cy="776.0137" fill="#ADD1B2" rx="11" ry="11" style="stroke:#181818;stroke-width:1.0;"/><path d="M1113.2656,771.8887 Q1113.4219,771.6699 1113.6094,771.5605 Q1113.7969,771.4512 1114.0156,771.4512 Q1114.3906,771.4512 1114.625,771.7168 Q1114.8594,771.9668 1114.8594,772.5762 L1114.8594,774.0293 Q1114.8594,774.6387 1114.625,774.9043 Q1114.3906,775.1699 1114.0156,775.1699 Q1113.6719,775.1699 1113.4688,774.9668 Q1113.2656,774.7793 1113.1563,774.2637 Q1113.1094,773.9043 1112.9219,773.7168 Q1112.5938,773.3418 1111.9844,773.123 Q1111.375,772.9043 1110.75,772.9043 Q1109.9844,772.9043 1109.3438,773.2324 Q1108.7188,773.5605 1108.2188,774.3105 Q1107.7344,775.0605 1107.7344,776.0918 L1107.7344,777.1855 Q1107.7344,778.4199 1108.625,779.248 Q1109.5156,780.0605 1111.1094,780.0605 Q1112.0469,780.0605 1112.7031,779.8105 Q1113.0938,779.6543 1113.5156,779.2168 Q1113.7813,778.9512 1113.9219,778.873 Q1114.0781,778.7949 1114.2813,778.7949 Q1114.6094,778.7949 1114.8594,779.0605 Q1115.125,779.3105 1115.125,779.6543 Q1115.125,779.998 1114.7813,780.4043 Q1114.2813,780.9824 1113.4844,781.3105 Q1112.4063,781.7637 1111.1094,781.7637 Q1109.5938,781.7637 1108.3906,781.1387 Q1107.4063,780.6387 1106.7188,779.5762 Q1106.0313,778.498 1106.0313,777.2168 L1106.0313,776.0605 Q1106.0313,774.7324 1106.6406,773.5918 Q1107.2656,772.4355 1108.3594,771.8262 Q1109.4531,771.2012 1110.6875,771.2012 Q1111.4219,771.2012 1112.0625,771.373 Q1112.7188,771.5293 1113.2656,771.8887 Z " fill="#000000"/><text fill="#000000" font-family="sans-serif" font-size="14" lengthAdjust="spacing" textLength="127" x="1124.5" y="781.8105">AppServicePassage</text><line style="stroke:#181818;stroke-width:0.5;" x1="1096.5" x2="1253.5" y1="792.0137" y2="792.0137"/><line style="stroke:#181818;stroke-width:0.5;" x1="1096.5" x2="1253.5" y1="800.0137" y2="800.0137"/></g><!--class IRepoBuilding--><g id="elem_IRepoBuilding"><rect codeLine="66" fill="#F1F1F1" height="48" id="IRepoBuilding" rx="2.5" ry="2.5" style="stroke:#181818;stroke-width:0.5;" width="120" x="1045" y="587.0137"/><ellipse cx="1060" cy="603.0137" fill="#B4A7E5" rx="11" ry="11" style="stroke:#181818;stroke-width:1.0;"/><path d="M1060.9531,599.6543 L1060.9531,606.3105 L1062.6719,606.3105 Q1063.2813,606.3105 1063.5469,606.5449 Q1063.8125,606.7793 1063.8125,607.1699 Q1063.8125,607.5449 1063.5469,607.7793 Q1063.2813,608.0137 1062.6719,608.0137 L1057.5313,608.0137 Q1056.9219,608.0137 1056.6563,607.7793 Q1056.3906,607.5449 1056.3906,607.1543 Q1056.3906,606.7793 1056.6563,606.5449 Q1056.9219,606.3105 1057.5313,606.3105 L1059.25,606.3105 L1059.25,599.6543 L1057.5313,599.6543 Q1056.9219,599.6543 1056.6563,599.4199 Q1056.3906,599.1855 1056.3906,598.7949 Q1056.3906,598.4199 1056.6563,598.1855 Q1056.9219,597.9512 1057.5313,597.9512 L1062.6719,597.9512 Q1063.2813,597.9512 1063.5469,598.1855 Q1063.8125,598.4199 1063.8125,598.7949 Q1063.8125,599.1855 1063.5469,599.4199 Q1063.2813,599.6543 1062.6719,599.6543 L1060.9531,599.6543 Z " fill="#000000"/><text fill="#000000" font-family="sans-serif" font-size="14" font-style="italic" lengthAdjust="spacing" textLength="88" x="1074" y="608.8105">IRepoBuilding</text><line style="stroke:#181818;stroke-width:0.5;" x1="1046" x2="1164" y1="619.0137" y2="619.0137"/><line style="stroke:#181818;stroke-width:0.5;" x1="1046" x2="1164" y1="627.0137" y2="627.0137"/></g><!--class IRepoFloor--><g id="elem_IRepoFloor"><rect codeLine="67" fill="#F1F1F1" height="48" id="IRepoFloor" rx="2.5" ry="2.5" style="stroke:#181818;stroke-width:0.5;" width="103" x="906.5" y="587.0137"/><ellipse cx="921.5" cy="603.0137" fill="#B4A7E5" rx="11" ry="11" style="stroke:#181818;stroke-width:1.0;"/><path d="M922.4531,599.6543 L922.4531,606.3105 L924.1719,606.3105 Q924.7813,606.3105 925.0469,606.5449 Q925.3125,606.7793 925.3125,607.1699 Q925.3125,607.5449 925.0469,607.7793 Q924.7813,608.0137 924.1719,608.0137 L919.0313,608.0137 Q918.4219,608.0137 918.1563,607.7793 Q917.8906,607.5449 917.8906,607.1543 Q917.8906,606.7793 918.1563,606.5449 Q918.4219,606.3105 919.0313,606.3105 L920.75,606.3105 L920.75,599.6543 L919.0313,599.6543 Q918.4219,599.6543 918.1563,599.4199 Q917.8906,599.1855 917.8906,598.7949 Q917.8906,598.4199 918.1563,598.1855 Q918.4219,597.9512 919.0313,597.9512 L924.1719,597.9512 Q924.7813,597.9512 925.0469,598.1855 Q925.3125,598.4199 925.3125,598.7949 Q925.3125,599.1855 925.0469,599.4199 Q924.7813,599.6543 924.1719,599.6543 L922.4531,599.6543 Z " fill="#000000"/><text fill="#000000" font-family="sans-serif" font-size="14" font-style="italic" lengthAdjust="spacing" textLength="71" x="935.5" y="608.8105">IRepoFloor</text><line style="stroke:#181818;stroke-width:0.5;" x1="907.5" x2="1008.5" y1="619.0137" y2="619.0137"/><line style="stroke:#181818;stroke-width:0.5;" x1="907.5" x2="1008.5" y1="627.0137" y2="627.0137"/></g><!--class IRepoPassage--><g id="elem_IRepoPassage"><rect codeLine="68" fill="#F1F1F1" height="48" id="IRepoPassage" rx="2.5" ry="2.5" style="stroke:#181818;stroke-width:0.5;" width="125" x="1200.5" y="587.0137"/><ellipse cx="1215.5" cy="603.0137" fill="#B4A7E5" rx="11" ry="11" style="stroke:#181818;stroke-width:1.0;"/><path d="M1216.4531,599.6543 L1216.4531,606.3105 L1218.1719,606.3105 Q1218.7813,606.3105 1219.0469,606.5449 Q1219.3125,606.7793 1219.3125,607.1699 Q1219.3125,607.5449 1219.0469,607.7793 Q1218.7813,608.0137 1218.1719,608.0137 L1213.0313,608.0137 Q1212.4219,608.0137 1212.1563,607.7793 Q1211.8906,607.5449 1211.8906,607.1543 Q1211.8906,606.7793 1212.1563,606.5449 Q1212.4219,606.3105 1213.0313,606.3105 L1214.75,606.3105 L1214.75,599.6543 L1213.0313,599.6543 Q1212.4219,599.6543 1212.1563,599.4199 Q1211.8906,599.1855 1211.8906,598.7949 Q1211.8906,598.4199 1212.1563,598.1855 Q1212.4219,597.9512 1213.0313,597.9512 L1218.1719,597.9512 Q1218.7813,597.9512 1219.0469,598.1855 Q1219.3125,598.4199 1219.3125,598.7949 Q1219.3125,599.1855 1219.0469,599.4199 Q1218.7813,599.6543 1218.1719,599.6543 L1216.4531,599.6543 Z " fill="#000000"/><text fill="#000000" font-family="sans-serif" font-size="14" font-style="italic" lengthAdjust="spacing" textLength="93" x="1229.5" y="608.8105">IRepoPassage</text><line style="stroke:#181818;stroke-width:0.5;" x1="1201.5" x2="1324.5" y1="619.0137" y2="619.0137"/><line style="stroke:#181818;stroke-width:0.5;" x1="1201.5" x2="1324.5" y1="627.0137" y2="627.0137"/></g><!--class Passage--><g id="elem_Passage"><rect codeLine="87" fill="#F1F1F1" height="76.543" id="Passage" rx="2.5" ry="2.5" style="stroke:#181818;stroke-width:0.5;" width="87" x="1616.5" y="1162.5137"/><ellipse cx="1631.5" cy="1192.7852" fill="#ADD1B2" rx="11" ry="11" style="stroke:#181818;stroke-width:1.0;"/><path d="M1630.3594,1193.582 L1630.3594,1196.082 L1634.6875,1196.082 L1634.6875,1195.1602 Q1634.6875,1194.5508 1634.9219,1194.2852 Q1635.1719,1194.0195 1635.5469,1194.0195 Q1635.9219,1194.0195 1636.1563,1194.2852 Q1636.3906,1194.5508 1636.3906,1195.1602 L1636.3906,1197.7852 L1628.3906,1197.7852 Q1627.7656,1197.7852 1627.5,1197.5508 Q1627.25,1197.3164 1627.25,1196.9258 Q1627.25,1196.5508 1627.5156,1196.3164 Q1627.7813,1196.082 1628.3906,1196.082 L1628.6563,1196.082 L1628.6563,1189.4258 L1628.3906,1189.4258 Q1627.7656,1189.4258 1627.5,1189.1914 Q1627.25,1188.957 1627.25,1188.5664 Q1627.25,1188.1914 1627.5,1187.957 Q1627.7656,1187.7227 1628.3906,1187.7227 L1636.0156,1187.7227 L1636.0156,1190.3164 Q1636.0156,1190.9258 1635.7813,1191.1914 Q1635.5625,1191.4414 1635.1719,1191.4414 Q1634.7969,1191.4414 1634.5625,1191.1914 Q1634.3281,1190.9258 1634.3281,1190.3164 L1634.3281,1189.4258 L1630.3594,1189.4258 L1630.3594,1191.8789 L1631.8438,1191.8789 Q1631.8438,1191.2227 1631.9688,1191.0352 Q1632.2344,1190.6289 1632.7031,1190.6289 Q1633.0781,1190.6289 1633.3125,1190.8945 Q1633.5469,1191.1445 1633.5469,1191.7539 L1633.5469,1193.7227 Q1633.5469,1194.2695 1633.4219,1194.457 Q1633.1563,1194.8477 1632.7031,1194.8477 Q1632.2344,1194.8477 1631.9688,1194.4414 Q1631.8438,1194.2539 1631.8438,1193.582 L1630.3594,1193.582 Z " fill="#000000"/><text fill="#000000" font-family="sans-serif" font-size="12" font-style="italic" lengthAdjust="spacing" textLength="35" x="1655.5" y="1180.4629">&#171;root&#187;</text><text fill="#000000" font-family="sans-serif" font-size="12" font-style="italic" lengthAdjust="spacing" textLength="43" x="1651.5" y="1196.4238">&#171;entity&#187;</text><text fill="#000000" font-family="sans-serif" font-size="14" lengthAdjust="spacing" textLength="55" x="1645.5" y="1214.543">Passage</text><line style="stroke:#181818;stroke-width:0.5;" x1="1617.5" x2="1702.5" y1="1223.0566" y2="1223.0566"/><line style="stroke:#181818;stroke-width:0.5;" x1="1617.5" x2="1702.5" y1="1231.0566" y2="1231.0566"/></g><!--class Building--><g id="elem_Building"><rect codeLine="91" fill="#F1F1F1" height="76.543" id="Building" rx="2.5" ry="2.5" style="stroke:#181818;stroke-width:0.5;" width="82" x="1478" y="1162.5137"/><ellipse cx="1493" cy="1192.7852" fill="#ADD1B2" rx="11" ry="11" style="stroke:#181818;stroke-width:1.0;"/><path d="M1491.8594,1193.582 L1491.8594,1196.082 L1496.1875,1196.082 L1496.1875,1195.1602 Q1496.1875,1194.5508 1496.4219,1194.2852 Q1496.6719,1194.0195 1497.0469,1194.0195 Q1497.4219,1194.0195 1497.6563,1194.2852 Q1497.8906,1194.5508 1497.8906,1195.1602 L1497.8906,1197.7852 L1489.8906,1197.7852 Q1489.2656,1197.7852 1489,1197.5508 Q1488.75,1197.3164 1488.75,1196.9258 Q1488.75,1196.5508 1489.0156,1196.3164 Q1489.2813,1196.082 1489.8906,1196.082 L1490.1563,1196.082 L1490.1563,1189.4258 L1489.8906,1189.4258 Q1489.2656,1189.4258 1489,1189.1914 Q1488.75,1188.957 1488.75,1188.5664 Q1488.75,1188.1914 1489,1187.957 Q1489.2656,1187.7227 1489.8906,1187.7227 L1497.5156,1187.7227 L1497.5156,1190.3164 Q1497.5156,1190.9258 1497.2813,1191.1914 Q1497.0625,1191.4414 1496.6719,1191.4414 Q1496.2969,1191.4414 1496.0625,1191.1914 Q1495.8281,1190.9258 1495.8281,1190.3164 L1495.8281,1189.4258 L1491.8594,1189.4258 L1491.8594,1191.8789 L1493.3438,1191.8789 Q1493.3438,1191.2227 1493.4688,1191.0352 Q1493.7344,1190.6289 1494.2031,1190.6289 Q1494.5781,1190.6289 1494.8125,1190.8945 Q1495.0469,1191.1445 1495.0469,1191.7539 L1495.0469,1193.7227 Q1495.0469,1194.2695 1494.9219,1194.457 Q1494.6563,1194.8477 1494.2031,1194.8477 Q1493.7344,1194.8477 1493.4688,1194.4414 Q1493.3438,1194.2539 1493.3438,1193.582 L1491.8594,1193.582 Z " fill="#000000"/><text fill="#000000" font-family="sans-serif" font-size="12" font-style="italic" lengthAdjust="spacing" textLength="35" x="1514.5" y="1180.4629">&#171;root&#187;</text><text fill="#000000" font-family="sans-serif" font-size="12" font-style="italic" lengthAdjust="spacing" textLength="43" x="1510.5" y="1196.4238">&#171;entity&#187;</text><text fill="#000000" font-family="sans-serif" font-size="14" lengthAdjust="spacing" textLength="50" x="1507" y="1214.543">Building</text><line style="stroke:#181818;stroke-width:0.5;" x1="1479" x2="1559" y1="1223.0566" y2="1223.0566"/><line style="stroke:#181818;stroke-width:0.5;" x1="1479" x2="1559" y1="1231.0566" y2="1231.0566"/></g><!--class Floor--><g id="elem_Floor"><rect codeLine="95" fill="#F1F1F1" height="76.543" id="Floor" rx="2.5" ry="2.5" style="stroke:#181818;stroke-width:0.5;" width="71" x="1483.5" y="975.0137"/><ellipse cx="1498.5" cy="1005.2852" fill="#ADD1B2" rx="11" ry="11" style="stroke:#181818;stroke-width:1.0;"/><path d="M1497.3594,1006.082 L1497.3594,1008.582 L1501.6875,1008.582 L1501.6875,1007.6602 Q1501.6875,1007.0508 1501.9219,1006.7852 Q1502.1719,1006.5195 1502.5469,1006.5195 Q1502.9219,1006.5195 1503.1563,1006.7852 Q1503.3906,1007.0508 1503.3906,1007.6602 L1503.3906,1010.2852 L1495.3906,1010.2852 Q1494.7656,1010.2852 1494.5,1010.0508 Q1494.25,1009.8164 1494.25,1009.4258 Q1494.25,1009.0508 1494.5156,1008.8164 Q1494.7813,1008.582 1495.3906,1008.582 L1495.6563,1008.582 L1495.6563,1001.9258 L1495.3906,1001.9258 Q1494.7656,1001.9258 1494.5,1001.6914 Q1494.25,1001.457 1494.25,1001.0664 Q1494.25,1000.6914 1494.5,1000.457 Q1494.7656,1000.2227 1495.3906,1000.2227 L1503.0156,1000.2227 L1503.0156,1002.8164 Q1503.0156,1003.4258 1502.7813,1003.6914 Q1502.5625,1003.9414 1502.1719,1003.9414 Q1501.7969,1003.9414 1501.5625,1003.6914 Q1501.3281,1003.4258 1501.3281,1002.8164 L1501.3281,1001.9258 L1497.3594,1001.9258 L1497.3594,1004.3789 L1498.8438,1004.3789 Q1498.8438,1003.7227 1498.9688,1003.5352 Q1499.2344,1003.1289 1499.7031,1003.1289 Q1500.0781,1003.1289 1500.3125,1003.3945 Q1500.5469,1003.6445 1500.5469,1004.2539 L1500.5469,1006.2227 Q1500.5469,1006.7695 1500.4219,1006.957 Q1500.1563,1007.3477 1499.7031,1007.3477 Q1499.2344,1007.3477 1498.9688,1006.9414 Q1498.8438,1006.7539 1498.8438,1006.082 L1497.3594,1006.082 Z " fill="#000000"/><text fill="#000000" font-family="sans-serif" font-size="12" font-style="italic" lengthAdjust="spacing" textLength="35" x="1514.5" y="992.9629">&#171;root&#187;</text><text fill="#000000" font-family="sans-serif" font-size="12" font-style="italic" lengthAdjust="spacing" textLength="43" x="1510.5" y="1008.9238">&#171;entity&#187;</text><text fill="#000000" font-family="sans-serif" font-size="14" lengthAdjust="spacing" textLength="33" x="1515.5" y="1027.043">Floor</text><line style="stroke:#181818;stroke-width:0.5;" x1="1484.5" x2="1553.5" y1="1035.5566" y2="1035.5566"/><line style="stroke:#181818;stroke-width:0.5;" x1="1484.5" x2="1553.5" y1="1043.5566" y2="1043.5566"/></g><!--class IPassageDTO--><g id="elem_IPassageDTO"><rect codeLine="108" fill="#F1F1F1" height="48" id="IPassageDTO" rx="2.5" ry="2.5" style="stroke:#181818;stroke-width:0.5;" width="121" x="543.5" y="989.5137"/><ellipse cx="558.5" cy="1005.5137" fill="#B4A7E5" rx="11" ry="11" style="stroke:#181818;stroke-width:1.0;"/><path d="M559.4531,1002.1543 L559.4531,1008.8105 L561.1719,1008.8105 Q561.7813,1008.8105 562.0469,1009.0449 Q562.3125,1009.2793 562.3125,1009.6699 Q562.3125,1010.0449 562.0469,1010.2793 Q561.7813,1010.5137 561.1719,1010.5137 L556.0313,1010.5137 Q555.4219,1010.5137 555.1563,1010.2793 Q554.8906,1010.0449 554.8906,1009.6543 Q554.8906,1009.2793 555.1563,1009.0449 Q555.4219,1008.8105 556.0313,1008.8105 L557.75,1008.8105 L557.75,1002.1543 L556.0313,1002.1543 Q555.4219,1002.1543 555.1563,1001.9199 Q554.8906,1001.6855 554.8906,1001.2949 Q554.8906,1000.9199 555.1563,1000.6855 Q555.4219,1000.4512 556.0313,1000.4512 L561.1719,1000.4512 Q561.7813,1000.4512 562.0469,1000.6855 Q562.3125,1000.9199 562.3125,1001.2949 Q562.3125,1001.6855 562.0469,1001.9199 Q561.7813,1002.1543 561.1719,1002.1543 L559.4531,1002.1543 Z " fill="#000000"/><text fill="#000000" font-family="sans-serif" font-size="14" font-style="italic" lengthAdjust="spacing" textLength="89" x="572.5" y="1011.3105">IPassageDTO</text><line style="stroke:#181818;stroke-width:0.5;" x1="544.5" x2="663.5" y1="1021.5137" y2="1021.5137"/><line style="stroke:#181818;stroke-width:0.5;" x1="544.5" x2="663.5" y1="1029.5137" y2="1029.5137"/></g><!--link DBDriver to IDBDriver--><g id="link_DBDriver_IDBDriver"><path codeLine="25" d="M535.79,157.0137 C540.7,157.0137 545.6,157.0137 550.51,157.0137 " fill="none" id="DBDriver-to-IDBDriver" style="stroke:#FF6655;stroke-width:1.0;"/><polygon fill="none" points="550.68,150.0137,570.68,157.0137,550.68,164.0137,550.68,150.0137" style="stroke:#FF6655;stroke-width:1.0;"/></g><!--reverse link IControllerCreatePassage to ControllerCreatePassage--><g id="link_IControllerCreatePassage_ControllerCreatePassage"><path codeLine="37" d="M192.41,440.4537 C192.82,484.7537 193.45,551.8137 193.78,586.8437 " fill="none" id="IControllerCreatePassage-backto-ControllerCreatePassage" style="stroke:#FF6655;stroke-width:1.0;"/><polygon fill="none" points="185.41,440.2837,192.22,420.2137,199.41,440.1437,185.41,440.2837" style="stroke:#FF6655;stroke-width:1.0;"/></g><!--reverse link DBDriver to RepoBuilding--><g id="link_DBDriver_RepoBuilding"><path codeLine="46" d="M499.55,186.1437 C513.91,233.4337 542.63,327.9737 555.94,371.7637 " fill="none" id="DBDriver-backto-RepoBuilding" style="stroke:#FF6655;stroke-width:1.0;stroke-dasharray:7.0,7.0;"/><polygon fill="#FF6655" points="498.03,181.1737,496.8249,190.9485,499.4864,185.9569,504.478,188.6183,498.03,181.1737" style="stroke:#FF6655;stroke-width:1.0;"/></g><!--reverse link DBDriver to RepoFloor--><g id="link_DBDriver_RepoFloor"><path codeLine="47" d="M482.57,186.1437 C468.41,233.4337 440.08,327.9737 426.97,371.7637 " fill="none" id="DBDriver-backto-RepoFloor" style="stroke:#FF6655;stroke-width:1.0;stroke-dasharray:7.0,7.0;"/><polygon fill="#FF6655" points="484.06,181.1737,477.6323,188.6359,482.6167,185.9608,485.2918,190.9452,484.06,181.1737" style="stroke:#FF6655;stroke-width:1.0;"/></g><!--reverse link DBDriver to RepoPassage--><g id="link_DBDriver_RepoPassage"><path codeLine="48" d="M507.7,185.3837 C518.77,200.9637 534.79,219.2737 554,229.0137 C587.84,246.1837 607.75,215.4937 639,237.0137 C685.23,268.8537 705.26,336.2237 712.9,371.8337 " fill="none" id="DBDriver-backto-RepoPassage" style="stroke:#FF6655;stroke-width:1.0;stroke-dasharray:7.0,7.0;"/><polygon fill="#FF6655" points="504.7,181.0737,506.5411,190.7489,507.549,185.1826,513.1154,186.1905,504.7,181.0737" style="stroke:#FF6655;stroke-width:1.0;"/></g><!--link RoutePassage to IControllerCreatePassage--><g id="link_RoutePassage_IControllerCreatePassage"><path codeLine="50" d="M313.81,181.1737 C288.81,225.0637 234.62,320.1937 207.76,367.3537 " fill="none" id="RoutePassage-to-IControllerCreatePassage" style="stroke:#FF6655;stroke-width:1.0;stroke-dasharray:7.0,7.0;"/><polygon fill="#FF6655" points="205.24,371.7637,213.1679,365.92,207.713,367.4181,206.2149,361.9632,205.24,371.7637" style="stroke:#FF6655;stroke-width:1.0;"/></g><!--link AppServicePassage to IAppServicePassage--><g id="link_AppServicePassage_IAppServicePassage"><path codeLine="63" d="M1169.02,808.0837 C1159.19,845.9737 1139.48,921.9837 1127.05,969.8837 " fill="none" id="AppServicePassage-to-IAppServicePassage" style="stroke:#FF6655;stroke-width:1.0;"/><polygon fill="none" points="1133.79,971.7837,1122,989.3837,1120.24,968.2737,1133.79,971.7837" style="stroke:#FF6655;stroke-width:1.0;"/></g><!--link RepoBuilding to IRepoBuilding--><g id="link_RepoBuilding_IRepoBuilding"><path codeLine="71" d="M592.27,420.2237 C605.71,429.4837 622.34,439.0937 639,444.0137 C659.68,450.1237 1008.81,440.4437 1027,452.0137 C1067,477.4537 1087.15,529.9837 1096.83,567.4837 " fill="none" id="RepoBuilding-to-IRepoBuilding" style="stroke:#FF6655;stroke-width:1.0;"/><polygon fill="none" points="1103.66,565.9537,1101.29,587.0137,1090.01,569.0737,1103.66,565.9537" style="stroke:#FF6655;stroke-width:1.0;"/></g><!--link RepoFloor to IRepoFloor--><g id="link_RepoFloor_IRepoFloor"><path codeLine="72" d="M449.73,420.1037 C461.26,428.3737 474.84,437.2937 488,444.0137 C622.81,512.8537 792.82,565.1237 886.99,591.3237 " fill="none" id="RepoFloor-to-IRepoFloor" style="stroke:#FF6655;stroke-width:1.0;"/><polygon fill="none" points="889.02,584.6237,906.45,596.6637,885.31,598.1237,889.02,584.6237" style="stroke:#FF6655;stroke-width:1.0;"/></g><!--link RepoPassage to IRepoPassage--><g id="link_RepoPassage_IRepoPassage"><path codeLine="73" d="M777.79,397.2137 C888.82,398.6837 1118.89,407.2237 1183,452.0137 C1221.75,479.0837 1242.81,530.6337 1253.45,567.4937 " fill="none" id="RepoPassage-to-IRepoPassage" style="stroke:#FF6655;stroke-width:1.0;"/><polygon fill="none" points="1260.26,565.8337,1258.51,586.9537,1246.71,569.3537,1260.26,565.8337" style="stroke:#FF6655;stroke-width:1.0;"/></g><!--link ControllerCreatePassage to IAppServicePassage--><g id="link_ControllerCreatePassage_IAppServicePassage"><path codeLine="76" d="M247.22,635.1337 C408.42,705.1537 890.53,914.5737 1057.95,987.3037 " fill="none" id="ControllerCreatePassage-to-IAppServicePassage" style="stroke:#FF6655;stroke-width:1.0;stroke-dasharray:7.0,7.0;"/><polygon fill="#FF6655" points="1062.81,989.4137,1056.1595,982.1493,1058.2269,987.4148,1052.9614,989.4822,1062.81,989.4137" style="stroke:#FF6655;stroke-width:1.0;"/></g><!--reverse link IRepoBuilding to AppServicePassage--><g id="link_IRepoBuilding_AppServicePassage"><path codeLine="78" d="M1116.39,639.8337 C1130.05,673.2137 1152.71,728.5737 1165.49,759.7737 " fill="none" id="IRepoBuilding-backto-AppServicePassage" style="stroke:#FF6655;stroke-width:1.0;stroke-dasharray:7.0,7.0;"/><polygon fill="#FF6655" points="1114.44,635.0737,1114.1419,644.918,1116.3315,639.7021,1121.5474,641.8916,1114.44,635.0737" style="stroke:#FF6655;stroke-width:1.0;"/></g><!--reverse link IRepoFloor to AppServicePassage--><g id="link_IRepoFloor_AppServicePassage"><path codeLine="79" d="M973.56,639.6137 C986.19,660.1637 1005.54,687.8537 1028,707.0137 C1053.9,729.1137 1087.32,747.0337 1115.74,759.9137 " fill="none" id="IRepoFloor-backto-AppServicePassage" style="stroke:#FF6655;stroke-width:1.0;stroke-dasharray:7.0,7.0;"/><polygon fill="#FF6655" points="970.81,635.0837,972.0489,644.8543,973.3993,639.361,978.8926,640.7114,970.81,635.0837" style="stroke:#FF6655;stroke-width:1.0;"/></g><!--reverse link IRepoPassage to AppServicePassage--><g id="link_IRepoPassage_AppServicePassage"><path codeLine="80" d="M1248.68,639.8337 C1231.5,673.2137 1203.02,728.5737 1186.96,759.7737 " fill="none" id="IRepoPassage-backto-AppServicePassage" style="stroke:#FF6655;stroke-width:1.0;stroke-dasharray:7.0,7.0;"/><polygon fill="#FF6655" points="1251.13,635.0737,1243.4558,641.2468,1248.8426,639.5198,1250.5696,644.9066,1251.13,635.0737" style="stroke:#FF6655;stroke-width:1.0;"/></g><!--reverse link Floor to Passage--><g id="link_Floor_Passage"><path codeLine="98" d="M1550.73,1056.2637 C1574.9,1088.0537 1607.88,1131.4437 1631.27,1162.2137 " fill="none" id="Floor-backto-Passage" style="stroke:#FF6655;stroke-width:1.0;"/><polygon fill="#FF6655" points="1547.53,1052.0537,1549.8068,1061.6357,1550.5619,1056.0295,1556.1682,1056.7846,1547.53,1052.0537" style="stroke:#FF6655;stroke-width:1.0;"/><text fill="#000000" font-family="Impact" font-size="13" lengthAdjust="spacing" textLength="7" x="1544.5192" y="1072.6102">2</text><text fill="#000000" font-family="Impact" font-size="13" lengthAdjust="spacing" textLength="5" x="1620.512" y="1151.9125">1</text></g><!--link Floor to Building--><g id="link_Floor_Building"><path codeLine="99" d="M1519,1052.0537 C1519,1082.5037 1519,1125.4337 1519,1157.2137 " fill="none" id="Floor-to-Building" style="stroke:#FF6655;stroke-width:1.0;"/><polygon fill="#FF6655" points="1519,1162.2137,1523,1153.2137,1519,1157.2137,1515,1153.2137,1519,1162.2137" style="stroke:#FF6655;stroke-width:1.0;"/><text fill="#000000" font-family="Impact" font-size="13" lengthAdjust="spacing" textLength="5" x="1513.6016" y="1072.6102">1</text><text fill="#000000" font-family="Impact" font-size="13" lengthAdjust="spacing" textLength="5" x="1513.5391" y="1151.9125">1</text></g><!--link AppServicePassage to Passage--><g id="link_AppServicePassage_Passage"><path codeLine="101" d="M1254.86,785.8237 C1356.91,788.5637 1525.81,799.3037 1571,840.0137 C1661.98,921.9637 1666.9,1080.8437 1663.42,1157.1137 " fill="none" id="AppServicePassage-to-Passage" style="stroke:#FF6655;stroke-width:1.0;stroke-dasharray:7.0,7.0;"/><polygon fill="#FF6655" points="1663.15,1162.4637,1667.5819,1153.6683,1663.3926,1157.4696,1659.5913,1153.2802,1663.15,1162.4637" style="stroke:#FF6655;stroke-width:1.0;"/></g><!--link AppServicePassage to Floor--><g id="link_AppServicePassage_Floor"><path codeLine="102" d="M1254.9,800.3037 C1287.25,808.7937 1323.98,821.4937 1354,840.0137 C1409.47,874.2437 1459.06,931.5137 1489.05,970.6037 " fill="none" id="AppServicePassage-to-Floor" style="stroke:#FF6655;stroke-width:1.0;stroke-dasharray:7.0,7.0;"/><polygon fill="#FF6655" points="1492.26,974.8037,1489.9998,965.2177,1489.2349,970.8226,1483.63,970.0578,1492.26,974.8037" style="stroke:#FF6655;stroke-width:1.0;"/></g><!--link AppServicePassage to Building--><g id="link_AppServicePassage_Building"><path codeLine="103" d="M1194.23,808.2137 C1250.08,875.5937 1412.85,1071.9637 1484.48,1158.3737 " fill="none" id="AppServicePassage-to-Building" style="stroke:#FF6655;stroke-width:1.0;stroke-dasharray:7.0,7.0;"/><polygon fill="#FF6655" points="1487.83,1162.4037,1485.1655,1152.9221,1484.6389,1158.5544,1479.0067,1158.0278,1487.83,1162.4037" style="stroke:#FF6655;stroke-width:1.0;"/></g><!--link AppServicePassage to IPassageDTO--><g id="link_AppServicePassage_IPassageDTO"><path codeLine="111" d="M1107.13,808.0337 C1079.65,817.5937 1047.69,829.0037 1019,840.0137 C890.26,889.4237 741.49,952.8237 661.7,987.3537 " fill="none" id="AppServicePassage-to-IPassageDTO" style="stroke:#FF6655;stroke-width:1.0;"/><polygon fill="#FF6655" points="657.01,989.3737,666.8584,989.468,661.5983,987.3868,663.6795,982.1267,657.01,989.3737" style="stroke:#FF6655;stroke-width:1.0;"/></g><!--link ControllerCreatePassage to IPassageDTO--><g id="link_ControllerCreatePassage_IPassageDTO"><path codeLine="112" d="M217.82,635.2737 C289.09,704.9037 500.47,911.3837 576.43,985.5837 " fill="none" id="ControllerCreatePassage-to-IPassageDTO" style="stroke:#FF6655;stroke-width:1.0;"/><polygon fill="#FF6655" points="580.37,989.4337,576.7231,980.2849,576.7918,985.9413,571.1354,986.01,580.37,989.4337" style="stroke:#FF6655;stroke-width:1.0;"/></g><!--SRC=[dPLTRziW58RlyokGTvrKdTHSMPRoiKYLfhPQTZzHXxWe6AnZt2dRyjz7iF471fpMDt5o7ivxpk4bb2VA2mmuHwd82y49b-Zl3Abd9xZSqpy4tI_rzpLEJnc8YXysWWc8urM1qpUI9EWxpTxaHW1cDIZWGC26lknso-N3Gvlw2US4RKG5b82z3Bqo9UPIHLj2Yltfl6OLqV4LWFZTvdlCbPpi0lKQ8tsPpLJuX3E2odCfITvqQdwC7laHS2cXIcK5959X7HymBmHAgXRpL0Eezr0k2HnngkhOhhT0tvlEp9CoN9Pe5BeuL7w8IfBI5gWJwDYBUbEaAuaHG7EuRipyNsBLqx2zjatTgmCkrFj0kCKsQieW6BFYmrG1o1fHHsw0u757LbT3cRnW4qhrh6uJwN_ph43pgj2JdChet4rIY99AeRpksrD5h2lA3fHddl2E2G6UMA28VcQqg8f5CdPWcpu4c45OICVqR8aMYubHsHvS5GMZAPPKSBGdy4vJudQX0ft0q1-Aya6M3JloemQSqAXtvqFfHp2QQy-DatYg2XdDwjlhE0Stjfu3kg6_WHVhrhnbT9xim74TVMDsNE0u-8wtDcnWpkEjgS-1ku4WFUmYY8PEp3SkgLJxVATkNdAt5Jcct7rYiWn8XflxnEsSHYX2k4JubwbaR21o5JqZ0yGn227LxHx7TIH9RZe-Pc2DtglnX5UmTSrd5VNG6xcZjfLNgtRTjD3upOmbke_qVP6Ww6k4XljTPzV4DQu-M_U4FA4SORlQJKswIp53HTjOsv_FVH_rZdcJGm5cfUzVAnd0mNlLOY-p_m00]--></g></svg>