<?xml version="1.0" encoding="us-ascii" standalone="no"?><svg xmlns="http://www.w3.org/2000/svg" xmlns:xlink="http://www.w3.org/1999/xlink" contentStyleType="text/css" height="1276px" preserveAspectRatio="none" style="width:1124px;height:1276px;background:#FFFFFF;" version="1.1" viewBox="0 0 1124 1276" width="1124px" zoomAndPan="magnify"><defs/><g><rect fill="#FFFFFF" height="1083.3125" style="stroke:#181818;stroke-width:1.0;" width="10" x="136" y="102.9121"/><rect fill="#FFFFFF" height="991.7305" style="stroke:#181818;stroke-width:1.0;" width="10" x="271" y="134.2031"/><rect fill="#FFFFFF" height="929.1484" style="stroke:#181818;stroke-width:1.0;" width="10" x="424" y="165.4941"/><rect fill="#FFFFFF" height="93.5332" style="stroke:#181818;stroke-width:1.0;" width="10" x="694" y="969.8184"/><rect fill="#FFFFFF" height="52.2422" style="stroke:#181818;stroke-width:1.0;" width="10" x="856" y="1011.1094"/><rect fill="#FFFFFF" height="61.291" style="stroke:#181818;stroke-width:1.0;" width="10" x="929" y="196.7852"/><rect fill="#FFFFFF" height="61.291" style="stroke:#181818;stroke-width:1.0;" width="10" x="929" y="289.3672"/><rect fill="#FFFFFF" height="61.291" style="stroke:#181818;stroke-width:1.0;" width="10" x="929" y="740.4414"/><rect fill="#FFFFFF" height="30" style="stroke:#181818;stroke-width:1.0;" width="10" x="1059" y="228.0762"/><rect fill="#FFFFFF" height="30" style="stroke:#181818;stroke-width:1.0;" width="10" x="1059" y="320.6582"/><rect fill="#FFFFFF" height="30" style="stroke:#181818;stroke-width:1.0;" width="10" x="1059" y="771.7324"/><rect fill="none" height="813.5664" style="stroke:#000000;stroke-width:1.5;" width="1114.5" x="3" y="365.6582"/><rect fill="none" height="647.1113" style="stroke:#000000;stroke-width:1.5;" width="1104.5" x="3" y="525.1133"/><rect fill="none" height="348.4922" style="stroke:#000000;stroke-width:1.5;" width="890" x="3" y="816.7324"/><line style="stroke:#181818;stroke-width:0.5;stroke-dasharray:5.0,5.0;" x1="141" x2="141" y1="69.6211" y2="1196.2246"/><line style="stroke:#181818;stroke-width:0.5;stroke-dasharray:5.0,5.0;" x1="276" x2="276" y1="69.6211" y2="1196.2246"/><line style="stroke:#181818;stroke-width:0.5;stroke-dasharray:5.0,5.0;" x1="428.5" x2="428.5" y1="69.6211" y2="1196.2246"/><line style="stroke:#181818;stroke-width:0.5;stroke-dasharray:5.0,5.0;" x1="622" x2="622" y1="696.0293" y2="1196.2246"/><line style="stroke:#181818;stroke-width:0.5;stroke-dasharray:5.0,5.0;" x1="699" x2="699" y1="69.6211" y2="1196.2246"/><line style="stroke:#181818;stroke-width:0.5;stroke-dasharray:5.0,5.0;" x1="861" x2="861" y1="1018.9395" y2="1196.2246"/><line style="stroke:#181818;stroke-width:0.5;stroke-dasharray:5.0,5.0;" x1="934" x2="934" y1="69.6211" y2="1196.2246"/><line style="stroke:#181818;stroke-width:0.5;stroke-dasharray:5.0,5.0;" x1="1063.5" x2="1063.5" y1="69.6211" y2="1196.2246"/><rect fill="#E2E2F0" height="32.6211" rx="2.5" ry="2.5" style="stroke:#181818;stroke-width:0.5;" width="52" x="115" y="36"/><text fill="#000000" font-family="sans-serif" font-size="14" lengthAdjust="spacing" textLength="38" x="122" y="58.1074">Route</text><rect fill="#E2E2F0" height="32.6211" rx="2.5" ry="2.5" style="stroke:#181818;stroke-width:0.5;" width="52" x="115" y="1195.2246"/><text fill="#000000" font-family="sans-serif" font-size="14" lengthAdjust="spacing" textLength="38" x="122" y="1217.332">Route</text><rect fill="#E2E2F0" height="32.6211" rx="2.5" ry="2.5" style="stroke:#181818;stroke-width:0.5;" width="76" x="238" y="36"/><text fill="#000000" font-family="sans-serif" font-size="14" lengthAdjust="spacing" textLength="62" x="245" y="58.1074">Controller</text><rect fill="#E2E2F0" height="32.6211" rx="2.5" ry="2.5" style="stroke:#181818;stroke-width:0.5;" width="76" x="238" y="1195.2246"/><text fill="#000000" font-family="sans-serif" font-size="14" lengthAdjust="spacing" textLength="62" x="245" y="1217.332">Controller</text><rect fill="#E2E2F0" height="32.6211" rx="2.5" ry="2.5" style="stroke:#181818;stroke-width:0.5;" width="61" x="398.5" y="36"/><text fill="#000000" font-family="sans-serif" font-size="14" lengthAdjust="spacing" textLength="47" x="405.5" y="58.1074">Service</text><rect fill="#E2E2F0" height="32.6211" rx="2.5" ry="2.5" style="stroke:#181818;stroke-width:0.5;" width="61" x="398.5" y="1195.2246"/><text fill="#000000" font-family="sans-serif" font-size="14" lengthAdjust="spacing" textLength="47" x="405.5" y="1217.332">Service</text><rect fill="#E2E2F0" height="51.2422" rx="2.5" ry="2.5" style="stroke:#181818;stroke-width:0.5;" width="72" x="586" y="1195.2246"/><text fill="#000000" font-family="sans-serif" font-size="14" lengthAdjust="spacing" textLength="58" x="593" y="1217.332">passage:</text><text fill="#000000" font-family="sans-serif" font-size="14" lengthAdjust="spacing" textLength="55" x="594.5" y="1235.9531">Passage</text><rect fill="#E2E2F0" height="32.6211" rx="2.5" ry="2.5" style="stroke:#181818;stroke-width:0.5;" width="62" x="668" y="36"/><text fill="#000000" font-family="sans-serif" font-size="14" lengthAdjust="spacing" textLength="48" x="675" y="58.1074">Mapper</text><rect fill="#E2E2F0" height="32.6211" rx="2.5" ry="2.5" style="stroke:#181818;stroke-width:0.5;" width="62" x="668" y="1195.2246"/><text fill="#000000" font-family="sans-serif" font-size="14" lengthAdjust="spacing" textLength="48" x="675" y="1217.332">Mapper</text><rect fill="#E2E2F0" height="51.2422" rx="2.5" ry="2.5" style="stroke:#181818;stroke-width:0.5;" width="44" x="839" y="1195.2246"/><text fill="#000000" font-family="sans-serif" font-size="14" lengthAdjust="spacing" textLength="24" x="849" y="1217.332">dto:</text><text fill="#000000" font-family="sans-serif" font-size="14" lengthAdjust="spacing" textLength="30" x="846" y="1235.9531">DTO</text><rect fill="#E2E2F0" height="32.6211" rx="2.5" ry="2.5" style="stroke:#181818;stroke-width:0.5;" width="82" x="893" y="36"/><text fill="#000000" font-family="sans-serif" font-size="14" lengthAdjust="spacing" textLength="68" x="900" y="58.1074">Repository</text><rect fill="#E2E2F0" height="32.6211" rx="2.5" ry="2.5" style="stroke:#181818;stroke-width:0.5;" width="82" x="893" y="1195.2246"/><text fill="#000000" font-family="sans-serif" font-size="14" lengthAdjust="spacing" textLength="68" x="900" y="1217.332">Repository</text><text fill="#000000" font-family="sans-serif" font-size="14" lengthAdjust="spacing" textLength="61" x="1030.5" y="66.1074">Database</text><path d="M1046,15 C1046,5 1064,5 1064,5 C1064,5 1082,5 1082,15 L1082,41 C1082,51 1064,51 1064,51 C1064,51 1046,51 1046,41 L1046,15 " fill="#E2E2F0" style="stroke:#181818;stroke-width:1.5;"/><path d="M1046,15 C1046,25 1064,25 1064,25 C1064,25 1082,25 1082,15 " fill="none" style="stroke:#181818;stroke-width:1.5;"/><text fill="#000000" font-family="sans-serif" font-size="14" lengthAdjust="spacing" textLength="61" x="1030.5" y="1210.332">Database</text><path d="M1046,1223.8457 C1046,1213.8457 1064,1213.8457 1064,1213.8457 C1064,1213.8457 1082,1213.8457 1082,1223.8457 L1082,1249.8457 C1082,1259.8457 1064,1259.8457 1064,1259.8457 C1064,1259.8457 1046,1259.8457 1046,1249.8457 L1046,1223.8457 " fill="#E2E2F0" style="stroke:#181818;stroke-width:1.5;"/><path d="M1046,1223.8457 C1046,1233.8457 1064,1233.8457 1064,1233.8457 C1064,1233.8457 1082,1233.8457 1082,1223.8457 " fill="none" style="stroke:#181818;stroke-width:1.5;"/><rect fill="#FFFFFF" height="1083.3125" style="stroke:#181818;stroke-width:1.0;" width="10" x="136" y="102.9121"/><rect fill="#FFFFFF" height="991.7305" style="stroke:#181818;stroke-width:1.0;" width="10" x="271" y="134.2031"/><rect fill="#FFFFFF" height="929.1484" style="stroke:#181818;stroke-width:1.0;" width="10" x="424" y="165.4941"/><rect fill="#FFFFFF" height="93.5332" style="stroke:#181818;stroke-width:1.0;" width="10" x="694" y="969.8184"/><rect fill="#FFFFFF" height="52.2422" style="stroke:#181818;stroke-width:1.0;" width="10" x="856" y="1011.1094"/><rect fill="#FFFFFF" height="61.291" style="stroke:#181818;stroke-width:1.0;" width="10" x="929" y="196.7852"/><rect fill="#FFFFFF" height="61.291" style="stroke:#181818;stroke-width:1.0;" width="10" x="929" y="289.3672"/><rect fill="#FFFFFF" height="61.291" style="stroke:#181818;stroke-width:1.0;" width="10" x="929" y="740.4414"/><rect fill="#FFFFFF" height="30" style="stroke:#181818;stroke-width:1.0;" width="10" x="1059" y="228.0762"/><rect fill="#FFFFFF" height="30" style="stroke:#181818;stroke-width:1.0;" width="10" x="1059" y="320.6582"/><rect fill="#FFFFFF" height="30" style="stroke:#181818;stroke-width:1.0;" width="10" x="1059" y="771.7324"/><polygon fill="#181818" points="124,98.9121,134,102.9121,124,106.9121,128,102.9121" style="stroke:#181818;stroke-width:1.0;"/><line style="stroke:#181818;stroke-width:1.0;stroke-dasharray:2.0,2.0;" x1="0" x2="130" y1="102.9121" y2="102.9121"/><text fill="#000000" font-family="sans-serif" font-size="13" font-weight="bold" lengthAdjust="spacing" textLength="7" x="7" y="97.6494">1</text><text fill="#000000" font-family="sans-serif" font-size="13" lengthAdjust="spacing" textLength="99" x="18" y="97.6494">POST /passages</text><polygon fill="#181818" points="259,130.2031,269,134.2031,259,138.2031,263,134.2031" style="stroke:#181818;stroke-width:1.0;"/><line style="stroke:#181818;stroke-width:1.0;stroke-dasharray:2.0,2.0;" x1="146" x2="265" y1="134.2031" y2="134.2031"/><text fill="#000000" font-family="sans-serif" font-size="13" font-weight="bold" lengthAdjust="spacing" textLength="7" x="153" y="128.9404">2</text><text fill="#000000" font-family="sans-serif" font-size="13" lengthAdjust="spacing" textLength="95" x="164" y="128.9404">createPassage()</text><polygon fill="#181818" points="412,161.4941,422,165.4941,412,169.4941,416,165.4941" style="stroke:#181818;stroke-width:1.0;"/><line style="stroke:#181818;stroke-width:1.0;" x1="281" x2="418" y1="165.4941" y2="165.4941"/><text fill="#000000" font-family="sans-serif" font-size="13" font-weight="bold" lengthAdjust="spacing" textLength="7" x="288" y="160.2314">3</text><text fill="#000000" font-family="sans-serif" font-size="13" lengthAdjust="spacing" textLength="113" x="299" y="160.2314">createPassage(dto)</text><polygon fill="#181818" points="917,192.7852,927,196.7852,917,200.7852,921,196.7852" style="stroke:#181818;stroke-width:1.0;"/><line style="stroke:#181818;stroke-width:1.0;" x1="434" x2="923" y1="196.7852" y2="196.7852"/><text fill="#000000" font-family="sans-serif" font-size="13" font-weight="bold" lengthAdjust="spacing" textLength="7" x="441" y="191.5225">4</text><text fill="#000000" font-family="sans-serif" font-size="13" lengthAdjust="spacing" textLength="280" x="452" y="191.5225">findByCodeNumber(floorNumber1,buildingCode1)</text><polygon fill="#181818" points="1047,224.0762,1057,228.0762,1047,232.0762,1051,228.0762" style="stroke:#181818;stroke-width:1.0;"/><line style="stroke:#181818;stroke-width:1.0;" x1="939" x2="1053" y1="228.0762" y2="228.0762"/><text fill="#000000" font-family="sans-serif" font-size="13" font-weight="bold" lengthAdjust="spacing" textLength="7" x="946" y="222.8135">5</text><text fill="#000000" font-family="sans-serif" font-size="13" lengthAdjust="spacing" textLength="28" x="957" y="222.8135">find()</text><polygon fill="#181818" points="917,285.3672,927,289.3672,917,293.3672,921,289.3672" style="stroke:#181818;stroke-width:1.0;"/><line style="stroke:#181818;stroke-width:1.0;" x1="434" x2="923" y1="289.3672" y2="289.3672"/><text fill="#000000" font-family="sans-serif" font-size="13" font-weight="bold" lengthAdjust="spacing" textLength="7" x="441" y="284.1045">6</text><text fill="#000000" font-family="sans-serif" font-size="13" lengthAdjust="spacing" textLength="280" x="452" y="284.1045">findByCodeNumber(floorNumber2,buildingCode2)</text><polygon fill="#181818" points="1047,316.6582,1057,320.6582,1047,324.6582,1051,320.6582" style="stroke:#181818;stroke-width:1.0;"/><line style="stroke:#181818;stroke-width:1.0;" x1="939" x2="1053" y1="320.6582" y2="320.6582"/><text fill="#000000" font-family="sans-serif" font-size="13" font-weight="bold" lengthAdjust="spacing" textLength="7" x="946" y="315.3955">7</text><text fill="#000000" font-family="sans-serif" font-size="13" lengthAdjust="spacing" textLength="28" x="957" y="315.3955">find()</text><path d="M3,365.6582 L64,365.6582 L64,374.9492 L54,384.9492 L3,384.9492 L3,365.6582 " fill="#EEEEEE" style="stroke:#000000;stroke-width:1.5;"/><rect fill="none" height="813.5664" style="stroke:#000000;stroke-width:1.5;" width="1114.5" x="3" y="365.6582"/><text fill="#000000" font-family="sans-serif" font-size="13" font-weight="bold" lengthAdjust="spacing" textLength="16" x="18" y="380.6865">alt</text><text fill="#000000" font-family="sans-serif" font-size="11" font-weight="bold" lengthAdjust="spacing" textLength="90" x="79" y="379.5283">[floor not found]</text><polygon fill="#181818" points="292,404.2402,282,408.2402,292,412.2402,288,408.2402" style="stroke:#181818;stroke-width:1.0;"/><line style="stroke:#181818;stroke-width:1.0;stroke-dasharray:2.0,2.0;" x1="286" x2="423" y1="408.2402" y2="408.2402"/><text fill="#000000" font-family="sans-serif" font-size="13" font-weight="bold" lengthAdjust="spacing" textLength="7" x="298" y="402.9775">8</text><text fill="#000000" font-family="sans-serif" font-size="13" lengthAdjust="spacing" textLength="26" x="309" y="402.9775">error</text><polygon fill="#181818" points="157,435.5313,147,439.5313,157,443.5313,153,439.5313" style="stroke:#181818;stroke-width:1.0;"/><line style="stroke:#181818;stroke-width:1.0;stroke-dasharray:2.0,2.0;" x1="151" x2="270" y1="439.5313" y2="439.5313"/><text fill="#000000" font-family="sans-serif" font-size="13" font-weight="bold" lengthAdjust="spacing" textLength="7" x="163" y="434.2686">9</text><text fill="#000000" font-family="sans-serif" font-size="13" lengthAdjust="spacing" textLength="59" x="174" y="434.2686">error (404)</text><polygon fill="#181818" points="11,466.8223,1,470.8223,11,474.8223,7,470.8223" style="stroke:#181818;stroke-width:1.0;"/><line style="stroke:#181818;stroke-width:1.0;stroke-dasharray:2.0,2.0;" x1="5" x2="135" y1="470.8223" y2="470.8223"/><text fill="#000000" font-family="sans-serif" font-size="13" font-weight="bold" lengthAdjust="spacing" textLength="14" x="17" y="465.5596">10</text><text fill="#000000" font-family="sans-serif" font-size="13" lengthAdjust="spacing" textLength="55" x="35" y="465.5596">error(404)</text><line style="stroke:#000000;stroke-width:1.0;stroke-dasharray:2.0,2.0;" x1="3" x2="1117.5" y1="479.8223" y2="479.8223"/><path d="M439,485.8223 L439,512.8223 L703,512.8223 L703,495.8223 L693,485.8223 L439,485.8223 " fill="#FEFFDD" style="stroke:#181818;stroke-width:0.5;"/><path d="M693,485.8223 L693,495.8223 L703,495.8223 L693,485.8223 " fill="#FEFFDD" style="stroke:#181818;stroke-width:0.5;"/><text fill="#000000" font-family="sans-serif" font-size="13" lengthAdjust="spacing" textLength="243" x="445" y="504.8506">check if floors belong to the same building</text><path d="M3,525.1133 L64,525.1133 L64,534.4043 L54,544.4043 L3,544.4043 L3,525.1133 " fill="#EEEEEE" style="stroke:#000000;stroke-width:1.5;"/><rect fill="none" height="647.1113" style="stroke:#000000;stroke-width:1.5;" width="1104.5" x="3" y="525.1133"/><text fill="#000000" font-family="sans-serif" font-size="13" font-weight="bold" lengthAdjust="spacing" textLength="16" x="18" y="540.1416">alt</text><text fill="#000000" font-family="sans-serif" font-size="11" font-weight="bold" lengthAdjust="spacing" textLength="86" x="79" y="538.9834">[same building]</text><polygon fill="#181818" points="292,563.6953,282,567.6953,292,571.6953,288,567.6953" style="stroke:#181818;stroke-width:1.0;"/><line style="stroke:#181818;stroke-width:1.0;stroke-dasharray:2.0,2.0;" x1="286" x2="423" y1="567.6953" y2="567.6953"/><text fill="#000000" font-family="sans-serif" font-size="13" font-weight="bold" lengthAdjust="spacing" textLength="14" x="298" y="562.4326">11</text><text fill="#000000" font-family="sans-serif" font-size="13" lengthAdjust="spacing" textLength="26" x="316" y="562.4326">error</text><polygon fill="#181818" points="157,594.9863,147,598.9863,157,602.9863,153,598.9863" style="stroke:#181818;stroke-width:1.0;"/><line style="stroke:#181818;stroke-width:1.0;stroke-dasharray:2.0,2.0;" x1="151" x2="270" y1="598.9863" y2="598.9863"/><text fill="#000000" font-family="sans-serif" font-size="13" font-weight="bold" lengthAdjust="spacing" textLength="14" x="163" y="593.7236">12</text><text fill="#000000" font-family="sans-serif" font-size="13" lengthAdjust="spacing" textLength="59" x="181" y="593.7236">error (422)</text><polygon fill="#181818" points="11,626.2773,1,630.2773,11,634.2773,7,630.2773" style="stroke:#181818;stroke-width:1.0;"/><line style="stroke:#181818;stroke-width:1.0;stroke-dasharray:2.0,2.0;" x1="5" x2="135" y1="630.2773" y2="630.2773"/><text fill="#000000" font-family="sans-serif" font-size="13" font-weight="bold" lengthAdjust="spacing" textLength="14" x="17" y="625.0146">13</text><text fill="#000000" font-family="sans-serif" font-size="13" lengthAdjust="spacing" textLength="55" x="35" y="625.0146">error(422)</text><line style="stroke:#000000;stroke-width:1.0;stroke-dasharray:2.0,2.0;" x1="3" x2="1107.5" y1="639.2773" y2="639.2773"/><text fill="#000000" font-family="sans-serif" font-size="11" font-weight="bold" lengthAdjust="spacing" textLength="110" x="8" y="651.1475">[different buildings]</text><polygon fill="#181818" points="574,674.1992,584,678.1992,574,682.1992,578,678.1992" style="stroke:#181818;stroke-width:1.0;"/><line style="stroke:#181818;stroke-width:1.0;stroke-dasharray:2.0,2.0;" x1="434" x2="580" y1="678.1992" y2="678.1992"/><text fill="#000000" font-family="sans-serif" font-size="13" font-weight="bold" lengthAdjust="spacing" textLength="14" x="441" y="672.9365">14</text><text fill="#000000" font-family="sans-serif" font-size="13" lengthAdjust="spacing" textLength="110" x="459" y="672.9365">create(floor1,floor2)</text><rect fill="#E2E2F0" height="51.2422" rx="2.5" ry="2.5" style="stroke:#181818;stroke-width:0.5;" width="72" x="586" y="654.9082"/><text fill="#000000" font-family="sans-serif" font-size="14" lengthAdjust="spacing" textLength="58" x="593" y="677.0156">passage:</text><text fill="#000000" font-family="sans-serif" font-size="14" lengthAdjust="spacing" textLength="55" x="594.5" y="695.6367">Passage</text><polygon fill="#181818" points="917,736.4414,927,740.4414,917,744.4414,921,740.4414" style="stroke:#181818;stroke-width:1.0;"/><line style="stroke:#181818;stroke-width:1.0;" x1="434" x2="923" y1="740.4414" y2="740.4414"/><text fill="#000000" font-family="sans-serif" font-size="13" font-weight="bold" lengthAdjust="spacing" textLength="14" x="441" y="735.1787">15</text><text fill="#000000" font-family="sans-serif" font-size="13" lengthAdjust="spacing" textLength="83" x="459" y="735.1787">save(passage)</text><polygon fill="#181818" points="1047,767.7324,1057,771.7324,1047,775.7324,1051,771.7324" style="stroke:#181818;stroke-width:1.0;"/><line style="stroke:#181818;stroke-width:1.0;" x1="939" x2="1053" y1="771.7324" y2="771.7324"/><text fill="#000000" font-family="sans-serif" font-size="13" font-weight="bold" lengthAdjust="spacing" textLength="14" x="946" y="766.4697">16</text><text fill="#000000" font-family="sans-serif" font-size="13" lengthAdjust="spacing" textLength="83" x="964" y="766.4697">save(passage)</text><path d="M3,816.7324 L64,816.7324 L64,826.0234 L54,836.0234 L3,836.0234 L3,816.7324 " fill="#EEEEEE" style="stroke:#000000;stroke-width:1.5;"/><rect fill="none" height="348.4922" style="stroke:#000000;stroke-width:1.5;" width="890" x="3" y="816.7324"/><text fill="#000000" font-family="sans-serif" font-size="13" font-weight="bold" lengthAdjust="spacing" textLength="16" x="18" y="831.7607">alt</text><text fill="#000000" font-family="sans-serif" font-size="11" font-weight="bold" lengthAdjust="spacing" textLength="121" x="79" y="830.6025">[passage not created]</text><polygon fill="#181818" points="292,855.3145,282,859.3145,292,863.3145,288,859.3145" style="stroke:#181818;stroke-width:1.0;"/><line style="stroke:#181818;stroke-width:1.0;stroke-dasharray:2.0,2.0;" x1="286" x2="423" y1="859.3145" y2="859.3145"/><text fill="#000000" font-family="sans-serif" font-size="13" font-weight="bold" lengthAdjust="spacing" textLength="14" x="298" y="854.0518">17</text><text fill="#000000" font-family="sans-serif" font-size="13" lengthAdjust="spacing" textLength="26" x="316" y="854.0518">error</text><polygon fill="#181818" points="157,886.6055,147,890.6055,157,894.6055,153,890.6055" style="stroke:#181818;stroke-width:1.0;"/><line style="stroke:#181818;stroke-width:1.0;stroke-dasharray:2.0,2.0;" x1="151" x2="270" y1="890.6055" y2="890.6055"/><text fill="#000000" font-family="sans-serif" font-size="13" font-weight="bold" lengthAdjust="spacing" textLength="14" x="163" y="885.3428">18</text><text fill="#000000" font-family="sans-serif" font-size="13" lengthAdjust="spacing" textLength="59" x="181" y="885.3428">error (422)</text><polygon fill="#181818" points="11,917.8965,1,921.8965,11,925.8965,7,921.8965" style="stroke:#181818;stroke-width:1.0;"/><line style="stroke:#181818;stroke-width:1.0;stroke-dasharray:2.0,2.0;" x1="5" x2="135" y1="921.8965" y2="921.8965"/><text fill="#000000" font-family="sans-serif" font-size="13" font-weight="bold" lengthAdjust="spacing" textLength="14" x="17" y="916.6338">19</text><text fill="#000000" font-family="sans-serif" font-size="13" lengthAdjust="spacing" textLength="55" x="35" y="916.6338">error(422)</text><line style="stroke:#000000;stroke-width:1.0;stroke-dasharray:2.0,2.0;" x1="3" x2="893" y1="930.8965" y2="930.8965"/><text fill="#000000" font-family="sans-serif" font-size="11" font-weight="bold" lengthAdjust="spacing" textLength="173" x="8" y="942.7666">[passage created successfully]</text><polygon fill="#181818" points="682,965.8184,692,969.8184,682,973.8184,686,969.8184" style="stroke:#181818;stroke-width:1.0;"/><line style="stroke:#181818;stroke-width:1.0;" x1="434" x2="688" y1="969.8184" y2="969.8184"/><text fill="#000000" font-family="sans-serif" font-size="13" font-weight="bold" lengthAdjust="spacing" textLength="14" x="441" y="964.5557">20</text><text fill="#000000" font-family="sans-serif" font-size="13" lengthAdjust="spacing" textLength="94" x="459" y="964.5557">toDTO(passage)</text><polygon fill="#181818" points="827,997.1094,837,1001.1094,827,1005.1094,831,1001.1094" style="stroke:#181818;stroke-width:1.0;"/><line style="stroke:#181818;stroke-width:1.0;stroke-dasharray:2.0,2.0;" x1="704" x2="833" y1="1001.1094" y2="1001.1094"/><text fill="#000000" font-family="sans-serif" font-size="13" font-weight="bold" lengthAdjust="spacing" textLength="14" x="711" y="995.8467">21</text><text fill="#000000" font-family="sans-serif" font-size="13" lengthAdjust="spacing" textLength="93" x="729" y="995.8467">create(passage)</text><rect fill="#E2E2F0" height="51.2422" rx="2.5" ry="2.5" style="stroke:#181818;stroke-width:0.5;" width="44" x="839" y="977.8184"/><text fill="#000000" font-family="sans-serif" font-size="14" lengthAdjust="spacing" textLength="24" x="849" y="999.9258">dto:</text><text fill="#000000" font-family="sans-serif" font-size="14" lengthAdjust="spacing" textLength="30" x="846" y="1018.5469">DTO</text><polygon fill="#181818" points="445,1059.3516,435,1063.3516,445,1067.3516,441,1063.3516" style="stroke:#181818;stroke-width:1.0;"/><line style="stroke:#181818;stroke-width:1.0;stroke-dasharray:2.0,2.0;" x1="439" x2="698" y1="1063.3516" y2="1063.3516"/><text fill="#000000" font-family="sans-serif" font-size="13" font-weight="bold" lengthAdjust="spacing" textLength="14" x="451" y="1058.0889">22</text><text fill="#000000" font-family="sans-serif" font-size="13" lengthAdjust="spacing" textLength="18" x="469" y="1058.0889">dto</text><polygon fill="#181818" points="292,1090.6426,282,1094.6426,292,1098.6426,288,1094.6426" style="stroke:#181818;stroke-width:1.0;"/><line style="stroke:#181818;stroke-width:1.0;stroke-dasharray:2.0,2.0;" x1="286" x2="428" y1="1094.6426" y2="1094.6426"/><text fill="#000000" font-family="sans-serif" font-size="13" font-weight="bold" lengthAdjust="spacing" textLength="14" x="298" y="1089.3799">23</text><text fill="#000000" font-family="sans-serif" font-size="13" lengthAdjust="spacing" textLength="18" x="316" y="1089.3799">dto</text><polygon fill="#181818" points="157,1121.9336,147,1125.9336,157,1129.9336,153,1125.9336" style="stroke:#181818;stroke-width:1.0;"/><line style="stroke:#181818;stroke-width:1.0;stroke-dasharray:2.0,2.0;" x1="151" x2="275" y1="1125.9336" y2="1125.9336"/><text fill="#000000" font-family="sans-serif" font-size="13" font-weight="bold" lengthAdjust="spacing" textLength="14" x="163" y="1120.6709">24</text><text fill="#000000" font-family="sans-serif" font-size="13" lengthAdjust="spacing" textLength="51" x="181" y="1120.6709">dto (201)</text><polygon fill="#181818" points="11,1153.2246,1,1157.2246,11,1161.2246,7,1157.2246" style="stroke:#181818;stroke-width:1.0;"/><line style="stroke:#181818;stroke-width:1.0;stroke-dasharray:2.0,2.0;" x1="5" x2="135" y1="1157.2246" y2="1157.2246"/><text fill="#000000" font-family="sans-serif" font-size="13" font-weight="bold" lengthAdjust="spacing" textLength="14" x="17" y="1151.9619">25</text><text fill="#000000" font-family="sans-serif" font-size="13" lengthAdjust="spacing" textLength="47" x="35" y="1151.9619">dto(201)</text><!--SRC=[pLLDRwCm4BtpAqOvGLMqJTHJjUfXs-jkgsrltOl1Gs8jiP5j8kNVxzWu5309LG_L-e9XthpvUjYijKgs-m9raZHCMr6AXaaBgz-gjRW2Pa2F3GzAMgtg6hMtbbRNOy0BweCeErzpA2Uy3JE6RV7kZtpkTXuNlewXFrdJX2Xxrenjt2gYU7nzycPwcsIFZJB2AdtiIg3NX3FB2cOGLezXr_aMIVAMv_UWuGwUdrvUuLl8nYIijEB0B58FW9Q6t05ToOGjDP8fL95c7j4x-BRuJsvv3_AaTaIEb7lM0tj_tpWOBEVgagHAYA8IalyuFYYEl_pmqgfMIdVxzNNHYfeBkNNsTJQYUQ_8jGGcoxFdzxm88T8iWlG4rBUfZUCvwy3Y0t-ojCsejCr_MTg8iRRWqmUfQATQoUFAtnM5MYiTXUx44mJg8P3Utjp6-Rzzp_CU4qEmDXZvK5wKjzZkBAZAgmvcLhd3yY-8gYl6G86rabkm2koEjChs2AV1HFuekOyIDUQos-TRizaijcOASQq1BgeADTBnSKhAp3RZb5au9Qwk-b-wa-hwsZyen7nHlT8DEs0QM2weSLRE0qcJ89UubjHzMU6BFx2RPeZjXTvrWt_5J4SZZMTwoYfa1AOjIpIcQklwU6uwTDTGPAleSld0TDpDDDTEn-AgeEDzg90FZiZEJtn8tDqbvv33QSv01cPNmDAa5YZcZetH6CaVqitDEhl4ug_CSpykCSG4E3bEvzw7mat-0G00]--></g></svg>