<?xml version="1.0" encoding="us-ascii" standalone="no"?><svg xmlns="http://www.w3.org/2000/svg" xmlns:xlink="http://www.w3.org/1999/xlink" contentStyleType="text/css" height="474px" preserveAspectRatio="none" style="width:382px;height:474px;background:#FFFFFF;" version="1.1" viewBox="0 0 382 474" width="382px" zoomAndPan="magnify"><defs/><g><rect fill="#FFFFFF" height="265.5898" style="stroke:#181818;stroke-width:1.0;" width="10" x="74" y="93.6211"/><rect fill="#FFFFFF" height="105.5039" style="stroke:#181818;stroke-width:1.0;" width="10" x="274" y="116.9121"/><rect fill="#FFFFFF" height="105.5039" style="stroke:#181818;stroke-width:1.0;" width="10" x="274" y="253.707"/><rect fill="none" height="242.2988" style="stroke:#000000;stroke-width:1.5;" width="365" x="10" y="131.9121"/><rect fill="none" height="98.5039" style="stroke:#000000;stroke-width:1.5;" width="345" x="20" y="268.707"/><line style="stroke:#181818;stroke-width:0.5;stroke-dasharray:5.0,5.0;" x1="79" x2="79" y1="83.6211" y2="391.2109"/><line style="stroke:#181818;stroke-width:0.5;stroke-dasharray:5.0,5.0;" x1="279" x2="279" y1="83.6211" y2="391.2109"/><text fill="#000000" font-family="sans-serif" font-size="14" lengthAdjust="spacing" textLength="92" x="30" y="80.1074">Fleet Manager</text><ellipse cx="79" cy="13.5" fill="#E2E2F0" rx="8" ry="8" style="stroke:#181818;stroke-width:0.5;"/><path d="M79,21.5 L79,48.5 M66,29.5 L92,29.5 M79,48.5 L66,63.5 M79,48.5 L92,63.5 " fill="none" style="stroke:#181818;stroke-width:0.5;"/><text fill="#000000" font-family="sans-serif" font-size="14" lengthAdjust="spacing" textLength="92" x="30" y="405.3184">Fleet Manager</text><ellipse cx="79" cy="417.332" fill="#E2E2F0" rx="8" ry="8" style="stroke:#181818;stroke-width:0.5;"/><path d="M79,425.332 L79,452.332 M66,433.332 L92,433.332 M79,452.332 L66,467.332 M79,452.332 L92,467.332 " fill="none" style="stroke:#181818;stroke-width:0.5;"/><rect fill="#E2E2F0" height="51.2422" rx="2.5" ry="2.5" style="stroke:#181818;stroke-width:0.5;" width="152" x="203" y="31.3789"/><text fill="#000000" font-family="sans-serif" font-size="14" lengthAdjust="spacing" textLength="60" x="249" y="53.4863">&#171;system&#187;</text><text fill="#000000" font-family="sans-serif" font-size="14" lengthAdjust="spacing" textLength="134" x="214" y="72.1074">System RobDroneGo</text><rect fill="#E2E2F0" height="51.2422" rx="2.5" ry="2.5" style="stroke:#181818;stroke-width:0.5;" width="152" x="203" y="390.2109"/><text fill="#000000" font-family="sans-serif" font-size="14" lengthAdjust="spacing" textLength="60" x="249" y="412.3184">&#171;system&#187;</text><text fill="#000000" font-family="sans-serif" font-size="14" lengthAdjust="spacing" textLength="134" x="214" y="430.9395">System RobDroneGo</text><rect fill="#FFFFFF" height="265.5898" style="stroke:#181818;stroke-width:1.0;" width="10" x="74" y="93.6211"/><rect fill="#FFFFFF" height="105.5039" style="stroke:#181818;stroke-width:1.0;" width="10" x="274" y="116.9121"/><rect fill="#FFFFFF" height="105.5039" style="stroke:#181818;stroke-width:1.0;" width="10" x="274" y="253.707"/><polygon fill="#181818" points="262,112.9121,272,116.9121,262,120.9121,266,116.9121" style="stroke:#181818;stroke-width:1.0;"/><line style="stroke:#181818;stroke-width:1.0;" x1="84" x2="268" y1="116.9121" y2="116.9121"/><text fill="#000000" font-family="sans-serif" font-size="13" font-weight="bold" lengthAdjust="spacing" textLength="7" x="91" y="111.6494">1</text><text fill="#000000" font-family="sans-serif" font-size="13" lengthAdjust="spacing" textLength="120" x="102" y="111.6494">wants to inhibit robot</text><path d="M10,131.9121 L71,131.9121 L71,141.2031 L61,151.2031 L10,151.2031 L10,131.9121 " fill="#EEEEEE" style="stroke:#000000;stroke-width:1.5;"/><rect fill="none" height="242.2988" style="stroke:#000000;stroke-width:1.5;" width="365" x="10" y="131.9121"/><text fill="#000000" font-family="sans-serif" font-size="13" font-weight="bold" lengthAdjust="spacing" textLength="16" x="25" y="146.9404">alt</text><text fill="#000000" font-family="sans-serif" font-size="11" font-weight="bold" lengthAdjust="spacing" textLength="97" x="86" y="145.7822">[robotList empty]</text><polygon fill="#181818" points="95,170.4941,85,174.4941,95,178.4941,91,174.4941" style="stroke:#181818;stroke-width:1.0;"/><line style="stroke:#181818;stroke-width:1.0;stroke-dasharray:2.0,2.0;" x1="89" x2="273" y1="174.4941" y2="174.4941"/><text fill="#000000" font-family="sans-serif" font-size="13" font-weight="bold" lengthAdjust="spacing" textLength="7" x="101" y="169.2314">2</text><text fill="#000000" font-family="sans-serif" font-size="13" lengthAdjust="spacing" textLength="72" x="112" y="169.2314">informs error</text><line style="stroke:#000000;stroke-width:1.0;stroke-dasharray:2.0,2.0;" x1="10" x2="375" y1="183.4941" y2="183.4941"/><text fill="#000000" font-family="sans-serif" font-size="11" font-weight="bold" lengthAdjust="spacing" textLength="88" x="15" y="195.3643">[robot(s) found]</text><polygon fill="#181818" points="95,218.416,85,222.416,95,226.416,91,222.416" style="stroke:#181818;stroke-width:1.0;"/><line style="stroke:#181818;stroke-width:1.0;stroke-dasharray:2.0,2.0;" x1="89" x2="278" y1="222.416" y2="222.416"/><text fill="#000000" font-family="sans-serif" font-size="13" font-weight="bold" lengthAdjust="spacing" textLength="7" x="101" y="217.1533">3</text><text fill="#000000" font-family="sans-serif" font-size="13" lengthAdjust="spacing" textLength="123" x="112" y="217.1533">show available robots</text><polygon fill="#181818" points="262,249.707,272,253.707,262,257.707,266,253.707" style="stroke:#181818;stroke-width:1.0;"/><line style="stroke:#181818;stroke-width:1.0;" x1="84" x2="268" y1="253.707" y2="253.707"/><text fill="#000000" font-family="sans-serif" font-size="13" font-weight="bold" lengthAdjust="spacing" textLength="7" x="91" y="248.4443">4</text><text fill="#000000" font-family="sans-serif" font-size="13" lengthAdjust="spacing" textLength="82" x="102" y="248.4443">chooses robot</text><path d="M20,268.707 L81,268.707 L81,277.998 L71,287.998 L20,287.998 L20,268.707 " fill="#EEEEEE" style="stroke:#000000;stroke-width:1.5;"/><rect fill="none" height="98.5039" style="stroke:#000000;stroke-width:1.5;" width="345" x="20" y="268.707"/><text fill="#000000" font-family="sans-serif" font-size="13" font-weight="bold" lengthAdjust="spacing" textLength="16" x="35" y="283.7354">alt</text><text fill="#000000" font-family="sans-serif" font-size="11" font-weight="bold" lengthAdjust="spacing" textLength="74" x="96" y="282.5771">[inhibit error]</text><polygon fill="#181818" points="95,307.2891,85,311.2891,95,315.2891,91,311.2891" style="stroke:#181818;stroke-width:1.0;"/><line style="stroke:#181818;stroke-width:1.0;stroke-dasharray:2.0,2.0;" x1="89" x2="273" y1="311.2891" y2="311.2891"/><text fill="#000000" font-family="sans-serif" font-size="13" font-weight="bold" lengthAdjust="spacing" textLength="7" x="101" y="306.0264">5</text><text fill="#000000" font-family="sans-serif" font-size="13" lengthAdjust="spacing" textLength="72" x="112" y="306.0264">informs error</text><line style="stroke:#000000;stroke-width:1.0;stroke-dasharray:2.0,2.0;" x1="20" x2="365" y1="320.2891" y2="320.2891"/><text fill="#000000" font-family="sans-serif" font-size="11" font-weight="bold" lengthAdjust="spacing" textLength="55" x="25" y="332.1592">[success]</text><polygon fill="#181818" points="90,355.2109,80,359.2109,90,363.2109,86,359.2109" style="stroke:#181818;stroke-width:1.0;"/><line style="stroke:#181818;stroke-width:1.0;stroke-dasharray:2.0,2.0;" x1="84" x2="278" y1="359.2109" y2="359.2109"/><text fill="#000000" font-family="sans-serif" font-size="13" font-weight="bold" lengthAdjust="spacing" textLength="7" x="96" y="353.9482">6</text><text fill="#000000" font-family="sans-serif" font-size="13" lengthAdjust="spacing" textLength="155" x="107" y="353.9482">show updated list of robots</text><!--SRC=[ZP6_JWCn3CRtUmhh9XZw0bLr4u855hgoE3aV5oaNdsAdLTyU9ot_12fOYkJ4_dxnbs1HJcLnbBiElNA6_ZuIAJnXmbVAFQ104Qkkc3Nui69Iw7SxEOdICWml2VOjXMTsTvaJFN0JMKD3XWCgdH5WOGbiXbg5BHmD9g0C8St11ONCZhNrVIWRfvt4I_qnY08jgvxQUOsAsnZMw5k3JPmN0SgPSskXA7JMtiWjJ5pIsFscjP5avYFW0KD45oyYQRqZ_Ppfcni_Cml9doRUpNxEzryBKhmdCTIruSiwsfKZnFfCF5sny6LR_uViLMoz0G00]--></g></svg>