<?xml version="1.0" encoding="us-ascii" standalone="no"?><svg xmlns="http://www.w3.org/2000/svg" xmlns:xlink="http://www.w3.org/1999/xlink" contentStyleType="text/css" height="441px" preserveAspectRatio="none" style="width:362px;height:441px;background:#FFFFFF;" version="1.1" viewBox="0 0 362 441" width="362px" zoomAndPan="magnify"><defs/><g><rect fill="#FFFFFF" height="231.0078" style="stroke:#181818;stroke-width:1.0;" width="10" x="65.5" y="116.9121"/><rect fill="#FFFFFF" height="231.0078" style="stroke:#181818;stroke-width:1.0;" width="10" x="289.5" y="116.9121"/><rect fill="none" height="146.4258" style="stroke:#000000;stroke-width:1.5;" width="345.5" x="10" y="194.4941"/><line style="stroke:#181818;stroke-width:0.5;stroke-dasharray:5.0,5.0;" x1="70" x2="70" y1="83.6211" y2="357.9199"/><line style="stroke:#181818;stroke-width:0.5;stroke-dasharray:5.0,5.0;" x1="294.5" x2="294.5" y1="83.6211" y2="357.9199"/><text fill="#000000" font-family="sans-serif" font-size="14" lengthAdjust="spacing" textLength="95" x="20" y="80.1074">Potential Client</text><ellipse cx="70.5" cy="13.5" fill="#E2E2F0" rx="8" ry="8" style="stroke:#181818;stroke-width:0.5;"/><path d="M70.5,21.5 L70.5,48.5 M57.5,29.5 L83.5,29.5 M70.5,48.5 L57.5,63.5 M70.5,48.5 L83.5,63.5 " fill="none" style="stroke:#181818;stroke-width:0.5;"/><text fill="#000000" font-family="sans-serif" font-size="14" lengthAdjust="spacing" textLength="95" x="20" y="372.0273">Potential Client</text><ellipse cx="70.5" cy="384.041" fill="#E2E2F0" rx="8" ry="8" style="stroke:#181818;stroke-width:0.5;"/><path d="M70.5,392.041 L70.5,419.041 M57.5,400.041 L83.5,400.041 M70.5,419.041 L57.5,434.041 M70.5,419.041 L83.5,434.041 " fill="none" style="stroke:#181818;stroke-width:0.5;"/><rect fill="#E2E2F0" height="51.2422" rx="2.5" ry="2.5" style="stroke:#181818;stroke-width:0.5;" width="102" x="243.5" y="31.3789"/><text fill="#000000" font-family="sans-serif" font-size="14" lengthAdjust="spacing" textLength="60" x="264.5" y="53.4863">&#171;system&#187;</text><text fill="#000000" font-family="sans-serif" font-size="14" lengthAdjust="spacing" textLength="84" x="254.5" y="72.1074">RobDroneGo</text><rect fill="#E2E2F0" height="51.2422" rx="2.5" ry="2.5" style="stroke:#181818;stroke-width:0.5;" width="102" x="243.5" y="356.9199"/><text fill="#000000" font-family="sans-serif" font-size="14" lengthAdjust="spacing" textLength="60" x="264.5" y="379.0273">&#171;system&#187;</text><text fill="#000000" font-family="sans-serif" font-size="14" lengthAdjust="spacing" textLength="84" x="254.5" y="397.6484">RobDroneGo</text><rect fill="#FFFFFF" height="231.0078" style="stroke:#181818;stroke-width:1.0;" width="10" x="65.5" y="116.9121"/><rect fill="#FFFFFF" height="231.0078" style="stroke:#181818;stroke-width:1.0;" width="10" x="289.5" y="116.9121"/><polygon fill="#181818" points="277.5,112.9121,287.5,116.9121,277.5,120.9121,281.5,116.9121" style="stroke:#181818;stroke-width:1.0;"/><line style="stroke:#181818;stroke-width:1.0;" x1="75.5" x2="283.5" y1="116.9121" y2="116.9121"/><text fill="#000000" font-family="sans-serif" font-size="13" font-weight="bold" lengthAdjust="spacing" textLength="7" x="82.5" y="111.6494">1</text><text fill="#000000" font-family="sans-serif" font-size="13" lengthAdjust="spacing" textLength="189" x="93.5" y="111.6494">wants to register as a client user</text><polygon fill="#181818" points="86.5,144.2031,76.5,148.2031,86.5,152.2031,82.5,148.2031" style="stroke:#181818;stroke-width:1.0;"/><line style="stroke:#181818;stroke-width:1.0;stroke-dasharray:2.0,2.0;" x1="80.5" x2="288.5" y1="148.2031" y2="148.2031"/><text fill="#000000" font-family="sans-serif" font-size="13" font-weight="bold" lengthAdjust="spacing" textLength="7" x="92.5" y="142.9404">2</text><text fill="#000000" font-family="sans-serif" font-size="13" lengthAdjust="spacing" textLength="72" x="103.5" y="142.9404">request data</text><polygon fill="#181818" points="277.5,175.4941,287.5,179.4941,277.5,183.4941,281.5,179.4941" style="stroke:#181818;stroke-width:1.0;"/><line style="stroke:#181818;stroke-width:1.0;" x1="75.5" x2="283.5" y1="179.4941" y2="179.4941"/><text fill="#000000" font-family="sans-serif" font-size="13" font-weight="bold" lengthAdjust="spacing" textLength="7" x="82.5" y="174.2314">3</text><text fill="#000000" font-family="sans-serif" font-size="13" lengthAdjust="spacing" textLength="76" x="93.5" y="174.2314">provides data</text><path d="M10,194.4941 L71,194.4941 L71,203.7852 L61,213.7852 L10,213.7852 L10,194.4941 " fill="#EEEEEE" style="stroke:#000000;stroke-width:1.5;"/><rect fill="none" height="146.4258" style="stroke:#000000;stroke-width:1.5;" width="345.5" x="10" y="194.4941"/><text fill="#000000" font-family="sans-serif" font-size="13" font-weight="bold" lengthAdjust="spacing" textLength="16" x="25" y="209.5225">alt</text><text fill="#000000" font-family="sans-serif" font-size="11" font-weight="bold" lengthAdjust="spacing" textLength="114" x="86" y="208.3643">[user already exists]</text><polygon fill="#181818" points="86.5,233.0762,76.5,237.0762,86.5,241.0762,82.5,237.0762" style="stroke:#181818;stroke-width:1.0;"/><line style="stroke:#181818;stroke-width:1.0;stroke-dasharray:2.0,2.0;" x1="80.5" x2="288.5" y1="237.0762" y2="237.0762"/><text fill="#000000" font-family="sans-serif" font-size="13" font-weight="bold" lengthAdjust="spacing" textLength="7" x="92.5" y="231.8135">4</text><text fill="#000000" font-family="sans-serif" font-size="13" lengthAdjust="spacing" textLength="110" x="103.5" y="231.8135">422: already exists</text><line style="stroke:#000000;stroke-width:1.0;stroke-dasharray:2.0,2.0;" x1="10" x2="355.5" y1="246.0762" y2="246.0762"/><text fill="#000000" font-family="sans-serif" font-size="11" font-weight="bold" lengthAdjust="spacing" textLength="100" x="15" y="257.9463">[user not created]</text><polygon fill="#181818" points="86.5,280.998,76.5,284.998,86.5,288.998,82.5,284.998" style="stroke:#181818;stroke-width:1.0;"/><line style="stroke:#181818;stroke-width:1.0;stroke-dasharray:2.0,2.0;" x1="80.5" x2="288.5" y1="284.998" y2="284.998"/><text fill="#000000" font-family="sans-serif" font-size="13" font-weight="bold" lengthAdjust="spacing" textLength="7" x="92.5" y="279.7354">5</text><text fill="#000000" font-family="sans-serif" font-size="13" lengthAdjust="spacing" textLength="164" x="103.5" y="279.7354">422: Unprocessable Content</text><line style="stroke:#000000;stroke-width:1.0;stroke-dasharray:2.0,2.0;" x1="10" x2="355.5" y1="293.998" y2="293.998"/><text fill="#000000" font-family="sans-serif" font-size="11" font-weight="bold" lengthAdjust="spacing" textLength="152" x="15" y="305.8682">[user created successfully]</text><polygon fill="#181818" points="86.5,328.9199,76.5,332.9199,86.5,336.9199,82.5,332.9199" style="stroke:#181818;stroke-width:1.0;"/><line style="stroke:#181818;stroke-width:1.0;stroke-dasharray:2.0,2.0;" x1="80.5" x2="288.5" y1="332.9199" y2="332.9199"/><text fill="#000000" font-family="sans-serif" font-size="13" font-weight="bold" lengthAdjust="spacing" textLength="7" x="92.5" y="327.6572">6</text><text fill="#000000" font-family="sans-serif" font-size="13" lengthAdjust="spacing" textLength="74" x="103.5" y="327.6572">201: Created</text><!--SRC=[VP2nQiGm38PtFuN87cX3fn2ofD2r5BfrKMor67nspfQlpTjNJj9hSfHwal2dxnV2pC7dqqXHATGS8bJFWScpHGU3ir9LW0boYch2o5RR2Jr3rNLfJaodld_py1B6nnWyFOK5bX-bb8n0tPUcXK-PIS018drO6Oi5Gz1BWCYtU7j1fYNhsYmks9uqK8kpg5jndJCb1eECL-GtLOWfXeirb8u8kZLIYaXePg0lsMaNisgwkjuq3qtJti8_8Bb4gyq71YqCa_dVzEfbBqqfuUW8Xk3BlVyGRZ98MHVwFJitxyr7TNDtty9maq_UA6NeSCrTMoxz3G00]--></g></svg>