<?xml version="1.0" encoding="us-ascii" standalone="no"?><svg xmlns="http://www.w3.org/2000/svg" xmlns:xlink="http://www.w3.org/1999/xlink" contentStyleType="text/css" height="633.5px" preserveAspectRatio="none" style="width:315px;height:633px;background:#FFFFFF;" version="1.1" viewBox="0 0 315 633" width="315.7px" zoomAndPan="magnify"><defs/><g><rect fill="#FFFFFF" height="503.2822" style="stroke:#181818;stroke-width:0.6999999999999998;" width="7" x="79.8" y="65.5348"/><rect fill="#FFFFFF" height="125.8018" style="stroke:#181818;stroke-width:0.6999999999999998;" width="7" x="243.6" y="81.8385"/><rect fill="#FFFFFF" height="73.8527" style="stroke:#181818;stroke-width:0.6999999999999998;" width="7" x="243.6" y="229.5439"/><rect fill="#FFFFFF" height="21.9037" style="stroke:#181818;stroke-width:0.6999999999999998;" width="7" x="243.6" y="325.3004"/><rect fill="#FFFFFF" height="189.9092" style="stroke:#181818;stroke-width:0.6999999999999998;" width="7" x="243.6" y="369.1078"/><rect fill="none" height="471.5785" style="stroke:#000000;stroke-width:1.0499999999999998;" width="303.8" x="7" y="92.3385"/><rect fill="none" height="414.7295" style="stroke:#000000;stroke-width:1.0499999999999998;" width="289.8" x="14" y="144.2875"/><rect fill="none" height="314.073" style="stroke:#000000;stroke-width:1.0499999999999998;" width="275.8" x="21" y="240.0439"/><rect fill="none" height="169.6092" style="stroke:#000000;stroke-width:1.0499999999999998;" width="261.8" x="28" y="379.6078"/><rect fill="none" height="68.9527" style="stroke:#000000;stroke-width:1.0499999999999998;" width="247.8" x="35" y="475.3643"/><line style="stroke:#181818;stroke-width:0.3499999999999999;stroke-dasharray:5.0,5.0;" x1="83.3" x2="83.3" y1="58.5348" y2="575.817"/><line style="stroke:#181818;stroke-width:0.3499999999999999;stroke-dasharray:5.0,5.0;" x1="247.1" x2="247.1" y1="58.5348" y2="575.817"/><text fill="#000000" font-family="sans-serif" font-size="9.8" lengthAdjust="spacing" textLength="78.4" x="42" y="56.0752">Campus Manager</text><ellipse cx="83.3" cy="9.45" fill="#E2E2F0" rx="5.6" ry="5.6" style="stroke:#181818;stroke-width:0.3499999999999999;"/><path d="M83.3,15.05 L83.3,33.95 M74.2,20.65 L92.4,20.65 M83.3,33.95 L74.2,44.45 M83.3,33.95 L92.4,44.45 " fill="none" style="stroke:#181818;stroke-width:0.3499999999999999;"/><text fill="#000000" font-family="sans-serif" font-size="9.8" lengthAdjust="spacing" textLength="78.4" x="42" y="585.6922">Campus Manager</text><ellipse cx="83.3" cy="594.1018" fill="#E2E2F0" rx="5.6" ry="5.6" style="stroke:#181818;stroke-width:0.3499999999999999;"/><path d="M83.3,599.7018 L83.3,618.6018 M74.2,605.3018 L92.4,605.3018 M83.3,618.6018 L74.2,629.1018 M83.3,618.6018 L92.4,629.1018 " fill="none" style="stroke:#181818;stroke-width:0.3499999999999999;"/><rect fill="#E2E2F0" height="22.8348" rx="1.75" ry="1.75" style="stroke:#181818;stroke-width:0.3499999999999999;" width="57.4" x="218.4" y="35"/><text fill="#000000" font-family="sans-serif" font-size="9.8" lengthAdjust="spacing" textLength="47.6" x="223.3" y="50.4752">Campus UI</text><rect fill="#E2E2F0" height="22.8348" rx="1.75" ry="1.75" style="stroke:#181818;stroke-width:0.3499999999999999;" width="57.4" x="218.4" y="575.117"/><text fill="#000000" font-family="sans-serif" font-size="9.8" lengthAdjust="spacing" textLength="47.6" x="223.3" y="590.5922">Campus UI</text><rect fill="#FFFFFF" height="503.2822" style="stroke:#181818;stroke-width:0.6999999999999998;" width="7" x="79.8" y="65.5348"/><rect fill="#FFFFFF" height="125.8018" style="stroke:#181818;stroke-width:0.6999999999999998;" width="7" x="243.6" y="81.8385"/><rect fill="#FFFFFF" height="73.8527" style="stroke:#181818;stroke-width:0.6999999999999998;" width="7" x="243.6" y="229.5439"/><rect fill="#FFFFFF" height="21.9037" style="stroke:#181818;stroke-width:0.6999999999999998;" width="7" x="243.6" y="325.3004"/><rect fill="#FFFFFF" height="189.9092" style="stroke:#181818;stroke-width:0.6999999999999998;" width="7" x="243.6" y="369.1078"/><polygon fill="#181818" points="235.2,79.0385,242.2,81.8385,235.2,84.6385,238,81.8385" style="stroke:#181818;stroke-width:0.6999999999999998;"/><line style="stroke:#181818;stroke-width:0.6999999999999998;" x1="86.8" x2="239.4" y1="81.8385" y2="81.8385"/><text fill="#000000" font-family="sans-serif" font-size="9.1" font-weight="bold" lengthAdjust="spacing" textLength="4.9" x="91.7" y="78.1546">1</text><text fill="#000000" font-family="sans-serif" font-size="9.1" lengthAdjust="spacing" textLength="99.4" x="99.4" y="78.1546">wants to create passage</text><path d="M7,92.3385 L49.7,92.3385 L49.7,98.8422 L42.7,105.8422 L7,105.8422 L7,92.3385 " fill="#EEEEEE" style="stroke:#000000;stroke-width:1.0499999999999998;"/><rect fill="none" height="471.5785" style="stroke:#000000;stroke-width:1.0499999999999998;" width="303.8" x="7" y="92.3385"/><text fill="#000000" font-family="sans-serif" font-size="9.1" font-weight="bold" lengthAdjust="spacing" textLength="11.2" x="17.5" y="102.8583">alt</text><text fill="#000000" font-family="sans-serif" font-size="7.7" font-weight="bold" lengthAdjust="spacing" textLength="80.5" x="60.2" y="102.0476">[buildings not found]</text><polygon fill="#181818" points="94.5,119.3459,87.5,122.1459,94.5,124.9459,91.7,122.1459" style="stroke:#181818;stroke-width:0.6999999999999998;"/><line style="stroke:#181818;stroke-width:0.6999999999999998;stroke-dasharray:2.0,2.0;" x1="90.3" x2="242.9" y1="122.1459" y2="122.1459"/><text fill="#000000" font-family="sans-serif" font-size="9.1" font-weight="bold" lengthAdjust="spacing" textLength="4.9" x="98.7" y="118.462">2</text><text fill="#000000" font-family="sans-serif" font-size="9.1" lengthAdjust="spacing" textLength="50.4" x="106.4" y="118.462">informs error</text><line style="stroke:#000000;stroke-width:0.6999999999999998;stroke-dasharray:2.0,2.0;" x1="7" x2="310.8" y1="128.4459" y2="128.4459"/><text fill="#000000" font-family="sans-serif" font-size="7.7" font-weight="bold" lengthAdjust="spacing" textLength="65.8" x="10.5" y="136.755">[buildings found]</text><path d="M14,144.2875 L56.7,144.2875 L56.7,150.7912 L49.7,157.7912 L14,157.7912 L14,144.2875 " fill="#EEEEEE" style="stroke:#000000;stroke-width:1.0499999999999998;"/><rect fill="none" height="414.7295" style="stroke:#000000;stroke-width:1.0499999999999998;" width="289.8" x="14" y="144.2875"/><text fill="#000000" font-family="sans-serif" font-size="9.1" font-weight="bold" lengthAdjust="spacing" textLength="11.2" x="24.5" y="154.8073">alt</text><text fill="#000000" font-family="sans-serif" font-size="7.7" font-weight="bold" lengthAdjust="spacing" textLength="86.8" x="67.2" y="153.9966">[only exists 1 building]</text><polygon fill="#181818" points="94.5,171.2949,87.5,174.0949,94.5,176.8949,91.7,174.0949" style="stroke:#181818;stroke-width:0.6999999999999998;"/><line style="stroke:#181818;stroke-width:0.6999999999999998;stroke-dasharray:2.0,2.0;" x1="90.3" x2="242.9" y1="174.0949" y2="174.0949"/><text fill="#000000" font-family="sans-serif" font-size="9.1" font-weight="bold" lengthAdjust="spacing" textLength="4.9" x="98.7" y="170.411">3</text><text fill="#000000" font-family="sans-serif" font-size="9.1" lengthAdjust="spacing" textLength="50.4" x="106.4" y="170.411">informs error</text><line style="stroke:#000000;stroke-width:0.6999999999999998;stroke-dasharray:2.0,2.0;" x1="14" x2="303.8" y1="180.3949" y2="180.3949"/><text fill="#000000" font-family="sans-serif" font-size="7.7" font-weight="bold" lengthAdjust="spacing" textLength="81.2" x="17.5" y="188.704">[2 or more buildings]</text><polygon fill="#181818" points="94.5,204.8402,87.5,207.6402,94.5,210.4402,91.7,207.6402" style="stroke:#181818;stroke-width:0.6999999999999998;"/><line style="stroke:#181818;stroke-width:0.6999999999999998;stroke-dasharray:2.0,2.0;" x1="90.3" x2="246.4" y1="207.6402" y2="207.6402"/><text fill="#000000" font-family="sans-serif" font-size="9.1" font-weight="bold" lengthAdjust="spacing" textLength="4.9" x="98.7" y="203.9563">4</text><text fill="#000000" font-family="sans-serif" font-size="9.1" lengthAdjust="spacing" textLength="132.3" x="106.4" y="203.9563">shows buildings and request one</text><polygon fill="#181818" points="235.2,226.7439,242.2,229.5439,235.2,232.3439,238,229.5439" style="stroke:#181818;stroke-width:0.6999999999999998;"/><line style="stroke:#181818;stroke-width:0.6999999999999998;" x1="86.8" x2="239.4" y1="229.5439" y2="229.5439"/><text fill="#000000" font-family="sans-serif" font-size="9.1" font-weight="bold" lengthAdjust="spacing" textLength="4.9" x="91.7" y="225.8601">5</text><text fill="#000000" font-family="sans-serif" font-size="9.1" lengthAdjust="spacing" textLength="72.8" x="99.4" y="225.8601">chooses building1</text><path d="M21,240.0439 L63.7,240.0439 L63.7,246.5477 L56.7,253.5477 L21,253.5477 L21,240.0439 " fill="#EEEEEE" style="stroke:#000000;stroke-width:1.0499999999999998;"/><rect fill="none" height="314.073" style="stroke:#000000;stroke-width:1.0499999999999998;" width="275.8" x="21" y="240.0439"/><text fill="#000000" font-family="sans-serif" font-size="9.1" font-weight="bold" lengthAdjust="spacing" textLength="11.2" x="31.5" y="250.5638">alt</text><text fill="#000000" font-family="sans-serif" font-size="7.7" font-weight="bold" lengthAdjust="spacing" textLength="67.9" x="74.2" y="249.753">[floors not found]</text><polygon fill="#181818" points="94.5,267.0514,87.5,269.8514,94.5,272.6514,91.7,269.8514" style="stroke:#181818;stroke-width:0.6999999999999998;"/><line style="stroke:#181818;stroke-width:0.6999999999999998;stroke-dasharray:2.0,2.0;" x1="90.3" x2="242.9" y1="269.8514" y2="269.8514"/><text fill="#000000" font-family="sans-serif" font-size="9.1" font-weight="bold" lengthAdjust="spacing" textLength="4.9" x="98.7" y="266.1675">6</text><text fill="#000000" font-family="sans-serif" font-size="9.1" lengthAdjust="spacing" textLength="50.4" x="106.4" y="266.1675">informs error</text><line style="stroke:#000000;stroke-width:0.6999999999999998;stroke-dasharray:2.0,2.0;" x1="21" x2="296.8" y1="276.1514" y2="276.1514"/><text fill="#000000" font-family="sans-serif" font-size="7.7" font-weight="bold" lengthAdjust="spacing" textLength="53.2" x="24.5" y="284.4604">[floors found]</text><polygon fill="#181818" points="94.5,300.5967,87.5,303.3967,94.5,306.1967,91.7,303.3967" style="stroke:#181818;stroke-width:0.6999999999999998;"/><line style="stroke:#181818;stroke-width:0.6999999999999998;stroke-dasharray:2.0,2.0;" x1="90.3" x2="246.4" y1="303.3967" y2="303.3967"/><text fill="#000000" font-family="sans-serif" font-size="9.1" font-weight="bold" lengthAdjust="spacing" textLength="4.9" x="98.7" y="299.7128">7</text><text fill="#000000" font-family="sans-serif" font-size="9.1" lengthAdjust="spacing" textLength="121.1" x="106.4" y="299.7128">shows floors and request data</text><polygon fill="#181818" points="235.2,322.5004,242.2,325.3004,235.2,328.1004,238,325.3004" style="stroke:#181818;stroke-width:0.6999999999999998;"/><line style="stroke:#181818;stroke-width:0.6999999999999998;" x1="86.8" x2="239.4" y1="325.3004" y2="325.3004"/><text fill="#000000" font-family="sans-serif" font-size="9.1" font-weight="bold" lengthAdjust="spacing" textLength="4.9" x="91.7" y="321.6165">8</text><text fill="#000000" font-family="sans-serif" font-size="9.1" lengthAdjust="spacing" textLength="58.8" x="99.4" y="321.6165">chooses floor1</text><polygon fill="#181818" points="94.5,344.4041,87.5,347.2041,94.5,350.0041,91.7,347.2041" style="stroke:#181818;stroke-width:0.6999999999999998;"/><line style="stroke:#181818;stroke-width:0.6999999999999998;stroke-dasharray:2.0,2.0;" x1="90.3" x2="246.4" y1="347.2041" y2="347.2041"/><text fill="#000000" font-family="sans-serif" font-size="9.1" font-weight="bold" lengthAdjust="spacing" textLength="4.9" x="98.7" y="343.5202">9</text><text fill="#000000" font-family="sans-serif" font-size="9.1" lengthAdjust="spacing" textLength="132.3" x="106.4" y="343.5202">shows buildings and request one</text><polygon fill="#181818" points="235.2,366.3078,242.2,369.1078,235.2,371.9078,238,369.1078" style="stroke:#181818;stroke-width:0.6999999999999998;"/><line style="stroke:#181818;stroke-width:0.6999999999999998;" x1="86.8" x2="239.4" y1="369.1078" y2="369.1078"/><text fill="#000000" font-family="sans-serif" font-size="9.1" font-weight="bold" lengthAdjust="spacing" textLength="9.8" x="91.7" y="365.4239">10</text><text fill="#000000" font-family="sans-serif" font-size="9.1" lengthAdjust="spacing" textLength="72.8" x="104.3" y="365.4239">chooses building2</text><path d="M28,379.6078 L70.7,379.6078 L70.7,386.1115 L63.7,393.1115 L28,393.1115 L28,379.6078 " fill="#EEEEEE" style="stroke:#000000;stroke-width:1.0499999999999998;"/><rect fill="none" height="169.6092" style="stroke:#000000;stroke-width:1.0499999999999998;" width="261.8" x="28" y="379.6078"/><text fill="#000000" font-family="sans-serif" font-size="9.1" font-weight="bold" lengthAdjust="spacing" textLength="11.2" x="38.5" y="390.1276">alt</text><text fill="#000000" font-family="sans-serif" font-size="7.7" font-weight="bold" lengthAdjust="spacing" textLength="67.9" x="81.2" y="389.3169">[floors not found]</text><polygon fill="#181818" points="94.5,406.6152,87.5,409.4152,94.5,412.2152,91.7,409.4152" style="stroke:#181818;stroke-width:0.6999999999999998;"/><line style="stroke:#181818;stroke-width:0.6999999999999998;stroke-dasharray:2.0,2.0;" x1="90.3" x2="242.9" y1="409.4152" y2="409.4152"/><text fill="#000000" font-family="sans-serif" font-size="9.1" font-weight="bold" lengthAdjust="spacing" textLength="9.8" x="98.7" y="405.7313">11</text><text fill="#000000" font-family="sans-serif" font-size="9.1" lengthAdjust="spacing" textLength="50.4" x="111.3" y="405.7313">informs error</text><line style="stroke:#000000;stroke-width:0.6999999999999998;stroke-dasharray:2.0,2.0;" x1="28" x2="289.8" y1="415.7152" y2="415.7152"/><text fill="#000000" font-family="sans-serif" font-size="7.7" font-weight="bold" lengthAdjust="spacing" textLength="53.2" x="31.5" y="424.0243">[floors found]</text><polygon fill="#181818" points="94.5,440.1605,87.5,442.9605,94.5,445.7605,91.7,442.9605" style="stroke:#181818;stroke-width:0.6999999999999998;"/><line style="stroke:#181818;stroke-width:0.6999999999999998;stroke-dasharray:2.0,2.0;" x1="90.3" x2="242.9" y1="442.9605" y2="442.9605"/><text fill="#000000" font-family="sans-serif" font-size="9.1" font-weight="bold" lengthAdjust="spacing" textLength="9.8" x="98.7" y="439.2767">12</text><text fill="#000000" font-family="sans-serif" font-size="9.1" lengthAdjust="spacing" textLength="121.1" x="111.3" y="439.2767">shows floors and request data</text><polygon fill="#181818" points="235.2,462.0643,242.2,464.8643,235.2,467.6643,238,464.8643" style="stroke:#181818;stroke-width:0.6999999999999998;"/><line style="stroke:#181818;stroke-width:0.6999999999999998;" x1="86.8" x2="239.4" y1="464.8643" y2="464.8643"/><text fill="#000000" font-family="sans-serif" font-size="9.1" font-weight="bold" lengthAdjust="spacing" textLength="9.8" x="91.7" y="461.1804">13</text><text fill="#000000" font-family="sans-serif" font-size="9.1" lengthAdjust="spacing" textLength="53.9" x="104.3" y="461.1804">choose floor2</text><path d="M35,475.3643 L77.7,475.3643 L77.7,481.868 L70.7,488.868 L35,488.868 L35,475.3643 " fill="#EEEEEE" style="stroke:#000000;stroke-width:1.0499999999999998;"/><rect fill="none" height="68.9527" style="stroke:#000000;stroke-width:1.0499999999999998;" width="247.8" x="35" y="475.3643"/><text fill="#000000" font-family="sans-serif" font-size="9.1" font-weight="bold" lengthAdjust="spacing" textLength="11.2" x="45.5" y="485.8841">alt</text><text fill="#000000" font-family="sans-serif" font-size="7.7" font-weight="bold" lengthAdjust="spacing" textLength="84.7" x="88.2" y="485.0733">[passage not created]</text><polygon fill="#181818" points="94.5,502.3717,87.5,505.1717,94.5,507.9717,91.7,505.1717" style="stroke:#181818;stroke-width:0.6999999999999998;"/><line style="stroke:#181818;stroke-width:0.6999999999999998;stroke-dasharray:2.0,2.0;" x1="90.3" x2="242.9" y1="505.1717" y2="505.1717"/><text fill="#000000" font-family="sans-serif" font-size="9.1" font-weight="bold" lengthAdjust="spacing" textLength="9.8" x="98.7" y="501.4878">14</text><text fill="#000000" font-family="sans-serif" font-size="9.1" lengthAdjust="spacing" textLength="50.4" x="111.3" y="501.4878">informs error</text><line style="stroke:#000000;stroke-width:0.6999999999999998;stroke-dasharray:2.0,2.0;" x1="35" x2="282.8" y1="511.4717" y2="511.4717"/><text fill="#000000" font-family="sans-serif" font-size="7.7" font-weight="bold" lengthAdjust="spacing" textLength="121.1" x="38.5" y="519.7808">[passage created successfully]</text><polygon fill="#181818" points="94.5,535.917,87.5,538.717,94.5,541.517,91.7,538.717" style="stroke:#181818;stroke-width:0.6999999999999998;"/><line style="stroke:#181818;stroke-width:0.6999999999999998;stroke-dasharray:2.0,2.0;" x1="90.3" x2="242.9" y1="538.717" y2="538.717"/><text fill="#000000" font-family="sans-serif" font-size="9.1" font-weight="bold" lengthAdjust="spacing" textLength="9.8" x="98.7" y="535.0331">15</text><text fill="#000000" font-family="sans-serif" font-size="9.1" lengthAdjust="spacing" textLength="104.3" x="111.3" y="535.0331">previews created passage</text><!--SRC=[pLGxTiCW4EnzYdtkNTYbYpIfKgJC0TRIokOzn2eisF7j0-W7iHB7gQ86mSuECoC1UiV6jmUognLMZYsidx7jlC0h6ZoINGCAU0db3grJbUhGk0dqzjBNLMnMPtIKi12UCCBcAPHW3vVG8-0OAaiHqw5884-ukL6bULhJ3WvUwLgPeu1X1mrxKq_rnAzW4_d5xa6PXcqhGDO61m0JaBHGnbIon5tOw2lGXvAWRpiX_xZH3i9YopRRyXkca8cS-2APDZGrM7ht955LdqrDUJetiLOdPg6PPFjZe8rcjW-dMJeSECh-1Li3BlTKeyExfcPFYM4x1xpawk4yRxU_5-dktqUw760FtnM2ekBXv2N9_M4iHVzE-2H-f1keG7nLaKZZjRukc-aidHK5FsDBVXSK_5_YpEVZU_4j-tzbBCKnBuTRwHC0]--></g></svg>